<?xml version="1.0" encoding="utf-8" standalone="no"?>
<!DOCTYPE svg PUBLIC "-//W3C//DTD SVG 1.1//EN"
  "http://www.w3.org/Graphics/SVG/1.1/DTD/svg11.dtd">
<svg xmlns:xlink="http://www.w3.org/1999/xlink" width="576pt" height="432pt" viewBox="0 0 576 432" xmlns="http://www.w3.org/2000/svg" version="1.1">
 <metadata>
  <rdf:RDF xmlns:dc="http://purl.org/dc/elements/1.1/" xmlns:cc="http://creativecommons.org/ns#" xmlns:rdf="http://www.w3.org/1999/02/22-rdf-syntax-ns#">
   <cc:Work>
    <dc:type rdf:resource="http://purl.org/dc/dcmitype/StillImage"/>
    <dc:date>2023-11-17T05:12:10.327395</dc:date>
    <dc:format>image/svg+xml</dc:format>
    <dc:creator>
     <cc:Agent>
      <dc:title>Matplotlib v3.8.0, https://matplotlib.org/</dc:title>
     </cc:Agent>
    </dc:creator>
   </cc:Work>
  </rdf:RDF>
 </metadata>
 <defs>
  <style type="text/css">*{stroke-linejoin: round; stroke-linecap: butt}</style>
 </defs>
 <g id="figure_1">
  <g id="patch_1">
   <path d="M 0 432 
L 576 432 
L 576 0 
L 0 0 
z
" style="fill: #ffffff"/>
  </g>
  <g id="axes_1">
   <g id="patch_2">
    <path d="M 72 384.48 
L 518.4 384.48 
L 518.4 51.84 
L 72 51.84 
z
" style="fill: #eaeaf2"/>
   </g>
   <g id="matplotlib.axis_1">
    <g id="xtick_1">
     <g id="line2d_1">
      <path d="M 92.290909 384.48 
L 92.290909 51.84 
" clip-path="url(#p7bfe803c25)" style="fill: none; stroke: #ffffff; stroke-width: 0.8; stroke-linecap: round"/>
     </g>
     <g id="text_1">
      <!-- 0 -->
      <g style="fill: #262626" transform="translate(89.51044 398.637812) scale(0.1 -0.1)">
       <defs>
        <path id="ArialMT-30" d="M 266 2259 
Q 266 3072 433 3567 
Q 600 4063 929 4331 
Q 1259 4600 1759 4600 
Q 2128 4600 2406 4451 
Q 2684 4303 2865 4023 
Q 3047 3744 3150 3342 
Q 3253 2941 3253 2259 
Q 3253 1453 3087 958 
Q 2922 463 2592 192 
Q 2263 -78 1759 -78 
Q 1097 -78 719 397 
Q 266 969 266 2259 
z
M 844 2259 
Q 844 1131 1108 757 
Q 1372 384 1759 384 
Q 2147 384 2411 759 
Q 2675 1134 2675 2259 
Q 2675 3391 2411 3762 
Q 2147 4134 1753 4134 
Q 1366 4134 1134 3806 
Q 844 3388 844 2259 
z
" transform="scale(0.015625)"/>
       </defs>
       <use xlink:href="#ArialMT-30"/>
      </g>
     </g>
    </g>
    <g id="xtick_2">
     <g id="line2d_2">
      <path d="M 191.030126 384.48 
L 191.030126 51.84 
" clip-path="url(#p7bfe803c25)" style="fill: none; stroke: #ffffff; stroke-width: 0.8; stroke-linecap: round"/>
     </g>
     <g id="text_2">
      <!-- 200 -->
      <g style="fill: #262626" transform="translate(182.68872 398.637812) scale(0.1 -0.1)">
       <defs>
        <path id="ArialMT-32" d="M 3222 541 
L 3222 0 
L 194 0 
Q 188 203 259 391 
Q 375 700 629 1000 
Q 884 1300 1366 1694 
Q 2113 2306 2375 2664 
Q 2638 3022 2638 3341 
Q 2638 3675 2398 3904 
Q 2159 4134 1775 4134 
Q 1369 4134 1125 3890 
Q 881 3647 878 3216 
L 300 3275 
Q 359 3922 746 4261 
Q 1134 4600 1788 4600 
Q 2447 4600 2831 4234 
Q 3216 3869 3216 3328 
Q 3216 3053 3103 2787 
Q 2991 2522 2730 2228 
Q 2469 1934 1863 1422 
Q 1356 997 1212 845 
Q 1069 694 975 541 
L 3222 541 
z
" transform="scale(0.015625)"/>
       </defs>
       <use xlink:href="#ArialMT-32"/>
       <use xlink:href="#ArialMT-30" x="55.615234"/>
       <use xlink:href="#ArialMT-30" x="111.230469"/>
      </g>
     </g>
    </g>
    <g id="xtick_3">
     <g id="line2d_3">
      <path d="M 289.769343 384.48 
L 289.769343 51.84 
" clip-path="url(#p7bfe803c25)" style="fill: none; stroke: #ffffff; stroke-width: 0.8; stroke-linecap: round"/>
     </g>
     <g id="text_3">
      <!-- 400 -->
      <g style="fill: #262626" transform="translate(281.427937 398.637812) scale(0.1 -0.1)">
       <defs>
        <path id="ArialMT-34" d="M 2069 0 
L 2069 1097 
L 81 1097 
L 81 1613 
L 2172 4581 
L 2631 4581 
L 2631 1613 
L 3250 1613 
L 3250 1097 
L 2631 1097 
L 2631 0 
L 2069 0 
z
M 2069 1613 
L 2069 3678 
L 634 1613 
L 2069 1613 
z
" transform="scale(0.015625)"/>
       </defs>
       <use xlink:href="#ArialMT-34"/>
       <use xlink:href="#ArialMT-30" x="55.615234"/>
       <use xlink:href="#ArialMT-30" x="111.230469"/>
      </g>
     </g>
    </g>
    <g id="xtick_4">
     <g id="line2d_4">
      <path d="M 388.50856 384.48 
L 388.50856 51.84 
" clip-path="url(#p7bfe803c25)" style="fill: none; stroke: #ffffff; stroke-width: 0.8; stroke-linecap: round"/>
     </g>
     <g id="text_4">
      <!-- 600 -->
      <g style="fill: #262626" transform="translate(380.167154 398.637812) scale(0.1 -0.1)">
       <defs>
        <path id="ArialMT-36" d="M 3184 3459 
L 2625 3416 
Q 2550 3747 2413 3897 
Q 2184 4138 1850 4138 
Q 1581 4138 1378 3988 
Q 1113 3794 959 3422 
Q 806 3050 800 2363 
Q 1003 2672 1297 2822 
Q 1591 2972 1913 2972 
Q 2475 2972 2870 2558 
Q 3266 2144 3266 1488 
Q 3266 1056 3080 686 
Q 2894 316 2569 119 
Q 2244 -78 1831 -78 
Q 1128 -78 684 439 
Q 241 956 241 2144 
Q 241 3472 731 4075 
Q 1159 4600 1884 4600 
Q 2425 4600 2770 4297 
Q 3116 3994 3184 3459 
z
M 888 1484 
Q 888 1194 1011 928 
Q 1134 663 1356 523 
Q 1578 384 1822 384 
Q 2178 384 2434 671 
Q 2691 959 2691 1453 
Q 2691 1928 2437 2201 
Q 2184 2475 1800 2475 
Q 1419 2475 1153 2201 
Q 888 1928 888 1484 
z
" transform="scale(0.015625)"/>
       </defs>
       <use xlink:href="#ArialMT-36"/>
       <use xlink:href="#ArialMT-30" x="55.615234"/>
       <use xlink:href="#ArialMT-30" x="111.230469"/>
      </g>
     </g>
    </g>
    <g id="xtick_5">
     <g id="line2d_5">
      <path d="M 487.247777 384.48 
L 487.247777 51.84 
" clip-path="url(#p7bfe803c25)" style="fill: none; stroke: #ffffff; stroke-width: 0.8; stroke-linecap: round"/>
     </g>
     <g id="text_5">
      <!-- 800 -->
      <g style="fill: #262626" transform="translate(478.906371 398.637812) scale(0.1 -0.1)">
       <defs>
        <path id="ArialMT-38" d="M 1131 2484 
Q 781 2613 612 2850 
Q 444 3088 444 3419 
Q 444 3919 803 4259 
Q 1163 4600 1759 4600 
Q 2359 4600 2725 4251 
Q 3091 3903 3091 3403 
Q 3091 3084 2923 2848 
Q 2756 2613 2416 2484 
Q 2838 2347 3058 2040 
Q 3278 1734 3278 1309 
Q 3278 722 2862 322 
Q 2447 -78 1769 -78 
Q 1091 -78 675 323 
Q 259 725 259 1325 
Q 259 1772 486 2073 
Q 713 2375 1131 2484 
z
M 1019 3438 
Q 1019 3113 1228 2906 
Q 1438 2700 1772 2700 
Q 2097 2700 2305 2904 
Q 2513 3109 2513 3406 
Q 2513 3716 2298 3927 
Q 2084 4138 1766 4138 
Q 1444 4138 1231 3931 
Q 1019 3725 1019 3438 
z
M 838 1322 
Q 838 1081 952 856 
Q 1066 631 1291 507 
Q 1516 384 1775 384 
Q 2178 384 2440 643 
Q 2703 903 2703 1303 
Q 2703 1709 2433 1975 
Q 2163 2241 1756 2241 
Q 1359 2241 1098 1978 
Q 838 1716 838 1322 
z
" transform="scale(0.015625)"/>
       </defs>
       <use xlink:href="#ArialMT-38"/>
       <use xlink:href="#ArialMT-30" x="55.615234"/>
       <use xlink:href="#ArialMT-30" x="111.230469"/>
      </g>
     </g>
    </g>
    <g id="text_6">
     <!-- Days -->
     <g style="fill: #262626" transform="translate(283.808594 411.783125) scale(0.1 -0.1)">
      <defs>
       <path id="ArialMT-44" d="M 494 0 
L 494 4581 
L 2072 4581 
Q 2606 4581 2888 4516 
Q 3281 4425 3559 4188 
Q 3922 3881 4101 3404 
Q 4281 2928 4281 2316 
Q 4281 1794 4159 1391 
Q 4038 988 3847 723 
Q 3656 459 3429 307 
Q 3203 156 2883 78 
Q 2563 0 2147 0 
L 494 0 
z
M 1100 541 
L 2078 541 
Q 2531 541 2789 625 
Q 3047 709 3200 863 
Q 3416 1078 3536 1442 
Q 3656 1806 3656 2325 
Q 3656 3044 3420 3430 
Q 3184 3816 2847 3947 
Q 2603 4041 2063 4041 
L 1100 4041 
L 1100 541 
z
" transform="scale(0.015625)"/>
       <path id="ArialMT-61" d="M 2588 409 
Q 2275 144 1986 34 
Q 1697 -75 1366 -75 
Q 819 -75 525 192 
Q 231 459 231 875 
Q 231 1119 342 1320 
Q 453 1522 633 1644 
Q 813 1766 1038 1828 
Q 1203 1872 1538 1913 
Q 2219 1994 2541 2106 
Q 2544 2222 2544 2253 
Q 2544 2597 2384 2738 
Q 2169 2928 1744 2928 
Q 1347 2928 1158 2789 
Q 969 2650 878 2297 
L 328 2372 
Q 403 2725 575 2942 
Q 747 3159 1072 3276 
Q 1397 3394 1825 3394 
Q 2250 3394 2515 3294 
Q 2781 3194 2906 3042 
Q 3031 2891 3081 2659 
Q 3109 2516 3109 2141 
L 3109 1391 
Q 3109 606 3145 398 
Q 3181 191 3288 0 
L 2700 0 
Q 2613 175 2588 409 
z
M 2541 1666 
Q 2234 1541 1622 1453 
Q 1275 1403 1131 1340 
Q 988 1278 909 1158 
Q 831 1038 831 891 
Q 831 666 1001 516 
Q 1172 366 1500 366 
Q 1825 366 2078 508 
Q 2331 650 2450 897 
Q 2541 1088 2541 1459 
L 2541 1666 
z
" transform="scale(0.015625)"/>
       <path id="ArialMT-79" d="M 397 -1278 
L 334 -750 
Q 519 -800 656 -800 
Q 844 -800 956 -737 
Q 1069 -675 1141 -563 
Q 1194 -478 1313 -144 
Q 1328 -97 1363 -6 
L 103 3319 
L 709 3319 
L 1400 1397 
Q 1534 1031 1641 628 
Q 1738 1016 1872 1384 
L 2581 3319 
L 3144 3319 
L 1881 -56 
Q 1678 -603 1566 -809 
Q 1416 -1088 1222 -1217 
Q 1028 -1347 759 -1347 
Q 597 -1347 397 -1278 
z
" transform="scale(0.015625)"/>
       <path id="ArialMT-73" d="M 197 991 
L 753 1078 
Q 800 744 1014 566 
Q 1228 388 1613 388 
Q 2000 388 2187 545 
Q 2375 703 2375 916 
Q 2375 1106 2209 1216 
Q 2094 1291 1634 1406 
Q 1016 1563 777 1677 
Q 538 1791 414 1992 
Q 291 2194 291 2438 
Q 291 2659 392 2848 
Q 494 3038 669 3163 
Q 800 3259 1026 3326 
Q 1253 3394 1513 3394 
Q 1903 3394 2198 3281 
Q 2494 3169 2634 2976 
Q 2775 2784 2828 2463 
L 2278 2388 
Q 2241 2644 2061 2787 
Q 1881 2931 1553 2931 
Q 1166 2931 1000 2803 
Q 834 2675 834 2503 
Q 834 2394 903 2306 
Q 972 2216 1119 2156 
Q 1203 2125 1616 2013 
Q 2213 1853 2448 1751 
Q 2684 1650 2818 1456 
Q 2953 1263 2953 975 
Q 2953 694 2789 445 
Q 2625 197 2315 61 
Q 2006 -75 1616 -75 
Q 969 -75 630 194 
Q 291 463 197 991 
z
" transform="scale(0.015625)"/>
      </defs>
      <use xlink:href="#ArialMT-44"/>
      <use xlink:href="#ArialMT-61" x="72.216797"/>
      <use xlink:href="#ArialMT-79" x="127.832031"/>
      <use xlink:href="#ArialMT-73" x="177.832031"/>
     </g>
    </g>
   </g>
   <g id="matplotlib.axis_2">
    <g id="ytick_1">
     <g id="line2d_6">
      <path d="M 72 353.878044 
L 518.4 353.878044 
" clip-path="url(#p7bfe803c25)" style="fill: none; stroke: #ffffff; stroke-width: 0.8; stroke-linecap: round"/>
     </g>
     <g id="text_7">
      <!-- 1000 -->
      <g style="fill: #262626" transform="translate(42.75625 357.45695) scale(0.1 -0.1)">
       <defs>
        <path id="ArialMT-31" d="M 2384 0 
L 1822 0 
L 1822 3584 
Q 1619 3391 1289 3197 
Q 959 3003 697 2906 
L 697 3450 
Q 1169 3672 1522 3987 
Q 1875 4303 2022 4600 
L 2384 4600 
L 2384 0 
z
" transform="scale(0.015625)"/>
       </defs>
       <use xlink:href="#ArialMT-31"/>
       <use xlink:href="#ArialMT-30" x="55.615234"/>
       <use xlink:href="#ArialMT-30" x="111.230469"/>
       <use xlink:href="#ArialMT-30" x="166.845703"/>
      </g>
     </g>
    </g>
    <g id="ytick_2">
     <g id="line2d_7">
      <path d="M 72 313.504961 
L 518.4 313.504961 
" clip-path="url(#p7bfe803c25)" style="fill: none; stroke: #ffffff; stroke-width: 0.8; stroke-linecap: round"/>
     </g>
     <g id="text_8">
      <!-- 1005 -->
      <g style="fill: #262626" transform="translate(42.75625 317.083867) scale(0.1 -0.1)">
       <defs>
        <path id="ArialMT-35" d="M 266 1200 
L 856 1250 
Q 922 819 1161 601 
Q 1400 384 1738 384 
Q 2144 384 2425 690 
Q 2706 997 2706 1503 
Q 2706 1984 2436 2262 
Q 2166 2541 1728 2541 
Q 1456 2541 1237 2417 
Q 1019 2294 894 2097 
L 366 2166 
L 809 4519 
L 3088 4519 
L 3088 3981 
L 1259 3981 
L 1013 2750 
Q 1425 3038 1878 3038 
Q 2478 3038 2890 2622 
Q 3303 2206 3303 1553 
Q 3303 931 2941 478 
Q 2500 -78 1738 -78 
Q 1113 -78 717 272 
Q 322 622 266 1200 
z
" transform="scale(0.015625)"/>
       </defs>
       <use xlink:href="#ArialMT-31"/>
       <use xlink:href="#ArialMT-30" x="55.615234"/>
       <use xlink:href="#ArialMT-30" x="111.230469"/>
       <use xlink:href="#ArialMT-35" x="166.845703"/>
      </g>
     </g>
    </g>
    <g id="ytick_3">
     <g id="line2d_8">
      <path d="M 72 273.131878 
L 518.4 273.131878 
" clip-path="url(#p7bfe803c25)" style="fill: none; stroke: #ffffff; stroke-width: 0.8; stroke-linecap: round"/>
     </g>
     <g id="text_9">
      <!-- 1010 -->
      <g style="fill: #262626" transform="translate(42.75625 276.710784) scale(0.1 -0.1)">
       <use xlink:href="#ArialMT-31"/>
       <use xlink:href="#ArialMT-30" x="55.615234"/>
       <use xlink:href="#ArialMT-31" x="111.230469"/>
       <use xlink:href="#ArialMT-30" x="166.845703"/>
      </g>
     </g>
    </g>
    <g id="ytick_4">
     <g id="line2d_9">
      <path d="M 72 232.758795 
L 518.4 232.758795 
" clip-path="url(#p7bfe803c25)" style="fill: none; stroke: #ffffff; stroke-width: 0.8; stroke-linecap: round"/>
     </g>
     <g id="text_10">
      <!-- 1015 -->
      <g style="fill: #262626" transform="translate(42.75625 236.337701) scale(0.1 -0.1)">
       <use xlink:href="#ArialMT-31"/>
       <use xlink:href="#ArialMT-30" x="55.615234"/>
       <use xlink:href="#ArialMT-31" x="111.230469"/>
       <use xlink:href="#ArialMT-35" x="166.845703"/>
      </g>
     </g>
    </g>
    <g id="ytick_5">
     <g id="line2d_10">
      <path d="M 72 192.385712 
L 518.4 192.385712 
" clip-path="url(#p7bfe803c25)" style="fill: none; stroke: #ffffff; stroke-width: 0.8; stroke-linecap: round"/>
     </g>
     <g id="text_11">
      <!-- 1020 -->
      <g style="fill: #262626" transform="translate(42.75625 195.964618) scale(0.1 -0.1)">
       <use xlink:href="#ArialMT-31"/>
       <use xlink:href="#ArialMT-30" x="55.615234"/>
       <use xlink:href="#ArialMT-32" x="111.230469"/>
       <use xlink:href="#ArialMT-30" x="166.845703"/>
      </g>
     </g>
    </g>
    <g id="ytick_6">
     <g id="line2d_11">
      <path d="M 72 152.012628 
L 518.4 152.012628 
" clip-path="url(#p7bfe803c25)" style="fill: none; stroke: #ffffff; stroke-width: 0.8; stroke-linecap: round"/>
     </g>
     <g id="text_12">
      <!-- 1025 -->
      <g style="fill: #262626" transform="translate(42.75625 155.591535) scale(0.1 -0.1)">
       <use xlink:href="#ArialMT-31"/>
       <use xlink:href="#ArialMT-30" x="55.615234"/>
       <use xlink:href="#ArialMT-32" x="111.230469"/>
       <use xlink:href="#ArialMT-35" x="166.845703"/>
      </g>
     </g>
    </g>
    <g id="ytick_7">
     <g id="line2d_12">
      <path d="M 72 111.639545 
L 518.4 111.639545 
" clip-path="url(#p7bfe803c25)" style="fill: none; stroke: #ffffff; stroke-width: 0.8; stroke-linecap: round"/>
     </g>
     <g id="text_13">
      <!-- 1030 -->
      <g style="fill: #262626" transform="translate(42.75625 115.218452) scale(0.1 -0.1)">
       <defs>
        <path id="ArialMT-33" d="M 269 1209 
L 831 1284 
Q 928 806 1161 595 
Q 1394 384 1728 384 
Q 2125 384 2398 659 
Q 2672 934 2672 1341 
Q 2672 1728 2419 1979 
Q 2166 2231 1775 2231 
Q 1616 2231 1378 2169 
L 1441 2663 
Q 1497 2656 1531 2656 
Q 1891 2656 2178 2843 
Q 2466 3031 2466 3422 
Q 2466 3731 2256 3934 
Q 2047 4138 1716 4138 
Q 1388 4138 1169 3931 
Q 950 3725 888 3313 
L 325 3413 
Q 428 3978 793 4289 
Q 1159 4600 1703 4600 
Q 2078 4600 2393 4439 
Q 2709 4278 2876 4000 
Q 3044 3722 3044 3409 
Q 3044 3113 2884 2869 
Q 2725 2625 2413 2481 
Q 2819 2388 3044 2092 
Q 3269 1797 3269 1353 
Q 3269 753 2831 336 
Q 2394 -81 1725 -81 
Q 1122 -81 723 278 
Q 325 638 269 1209 
z
" transform="scale(0.015625)"/>
       </defs>
       <use xlink:href="#ArialMT-31"/>
       <use xlink:href="#ArialMT-30" x="55.615234"/>
       <use xlink:href="#ArialMT-33" x="111.230469"/>
       <use xlink:href="#ArialMT-30" x="166.845703"/>
      </g>
     </g>
    </g>
    <g id="ytick_8">
     <g id="line2d_13">
      <path d="M 72 71.266462 
L 518.4 71.266462 
" clip-path="url(#p7bfe803c25)" style="fill: none; stroke: #ffffff; stroke-width: 0.8; stroke-linecap: round"/>
     </g>
     <g id="text_14">
      <!-- 1035 -->
      <g style="fill: #262626" transform="translate(42.75625 74.845368) scale(0.1 -0.1)">
       <use xlink:href="#ArialMT-31"/>
       <use xlink:href="#ArialMT-30" x="55.615234"/>
       <use xlink:href="#ArialMT-33" x="111.230469"/>
       <use xlink:href="#ArialMT-35" x="166.845703"/>
      </g>
     </g>
    </g>
    <g id="text_15">
     <!-- (hPa) -->
     <g style="fill: #262626" transform="translate(36.651562 230.385781) rotate(-90) scale(0.1 -0.1)">
      <defs>
       <path id="ArialMT-28" d="M 1497 -1347 
Q 1031 -759 709 28 
Q 388 816 388 1659 
Q 388 2403 628 3084 
Q 909 3875 1497 4659 
L 1900 4659 
Q 1522 4009 1400 3731 
Q 1209 3300 1100 2831 
Q 966 2247 966 1656 
Q 966 153 1900 -1347 
L 1497 -1347 
z
" transform="scale(0.015625)"/>
       <path id="ArialMT-68" d="M 422 0 
L 422 4581 
L 984 4581 
L 984 2938 
Q 1378 3394 1978 3394 
Q 2347 3394 2619 3248 
Q 2891 3103 3008 2847 
Q 3125 2591 3125 2103 
L 3125 0 
L 2563 0 
L 2563 2103 
Q 2563 2525 2380 2717 
Q 2197 2909 1863 2909 
Q 1613 2909 1392 2779 
Q 1172 2650 1078 2428 
Q 984 2206 984 1816 
L 984 0 
L 422 0 
z
" transform="scale(0.015625)"/>
       <path id="ArialMT-50" d="M 494 0 
L 494 4581 
L 2222 4581 
Q 2678 4581 2919 4538 
Q 3256 4481 3484 4323 
Q 3713 4166 3852 3881 
Q 3991 3597 3991 3256 
Q 3991 2672 3619 2267 
Q 3247 1863 2275 1863 
L 1100 1863 
L 1100 0 
L 494 0 
z
M 1100 2403 
L 2284 2403 
Q 2872 2403 3119 2622 
Q 3366 2841 3366 3238 
Q 3366 3525 3220 3729 
Q 3075 3934 2838 4000 
Q 2684 4041 2272 4041 
L 1100 4041 
L 1100 2403 
z
" transform="scale(0.015625)"/>
       <path id="ArialMT-29" d="M 791 -1347 
L 388 -1347 
Q 1322 153 1322 1656 
Q 1322 2244 1188 2822 
Q 1081 3291 891 3722 
Q 769 4003 388 4659 
L 791 4659 
Q 1378 3875 1659 3084 
Q 1900 2403 1900 1659 
Q 1900 816 1576 28 
Q 1253 -759 791 -1347 
z
" transform="scale(0.015625)"/>
      </defs>
      <use xlink:href="#ArialMT-28"/>
      <use xlink:href="#ArialMT-68" x="33.300781"/>
      <use xlink:href="#ArialMT-50" x="88.916016"/>
      <use xlink:href="#ArialMT-61" x="155.615234"/>
      <use xlink:href="#ArialMT-29" x="211.230469"/>
     </g>
    </g>
   </g>
   <g id="line2d_14">
    <path d="M 92.290909 281.240139 
L 92.784605 274.02345 
L 93.278301 264.541383 
L 93.771997 191.522176 
L 94.265693 140.982926 
L 94.75939 221.162748 
L 95.253086 200.275285 
L 95.746782 82.374667 
L 96.240478 94.71673 
L 96.734174 147.005245 
L 97.22787 168.230098 
L 97.721566 163.905213 
L 98.215262 172.587655 
L 98.708958 246.347866 
L 99.202654 277.908799 
L 99.69635 260.802948 
L 100.190046 157.289727 
L 100.683743 175.518735 
L 101.177439 234.638386 
L 101.671135 269.844275 
L 102.164831 314.931925 
L 102.658527 310.59866 
L 103.152223 300.645013 
L 104.139615 172.554117 
L 104.633311 152.061413 
L 105.127007 193.301023 
L 105.620703 201.761239 
L 106.114399 182.376551 
L 106.608096 136.586746 
L 107.101792 121.57581 
L 107.595488 150.773399 
L 108.089184 234.437618 
L 108.58288 261.720874 
L 109.076576 174.066864 
L 109.570272 149.466881 
L 110.063968 148.367836 
L 110.557664 174.29072 
L 111.545056 270.782389 
L 112.038752 220.565383 
L 112.532449 201.150035 
L 113.026145 235.349401 
L 113.519841 188.948392 
L 114.013537 192.9857 
L 114.507233 241.366112 
L 115.000929 300.675292 
L 115.494625 289.583909 
L 115.988321 247.971597 
L 116.482017 190.804432 
L 117.469409 231.155086 
L 117.963106 207.93076 
L 118.950498 206.981703 
L 119.444194 198.40803 
L 119.93789 196.972542 
L 120.431586 218.527283 
L 120.925282 220.495471 
L 121.418978 189.178294 
L 121.912674 130.177519 
L 122.40637 155.842464 
L 122.900066 221.773952 
L 123.393762 204.778005 
L 123.887459 145.866948 
L 124.381155 124.334637 
L 125.368547 169.412306 
L 125.862243 182.264404 
L 126.355939 242.784777 
L 127.343331 142.205334 
L 128.330723 287.716654 
L 128.824419 186.475541 
L 129.318115 200.135101 
L 129.811812 172.485146 
L 130.305508 193.43429 
L 130.799204 186.884879 
L 131.2929 256.354619 
L 131.786596 165.79555 
L 132.280292 186.223209 
L 132.773988 216.744138 
L 133.267684 214.002133 
L 133.76138 223.007574 
L 134.255076 258.709715 
L 134.748772 265.780612 
L 135.242468 268.092401 
L 135.736165 285.211504 
L 136.229861 246.009016 
L 136.723557 115.631995 
L 137.217253 116.344131 
L 138.204645 257.745247 
L 138.698341 170.919741 
L 139.192037 180.35229 
L 139.685733 258.990084 
L 140.673125 335.474647 
L 141.166821 302.839738 
L 141.660518 219.934733 
L 142.154214 260.823695 
L 142.64791 239.319421 
L 143.141606 272.352453 
L 143.635302 269.571196 
L 144.128998 252.109838 
L 144.622694 170.040332 
L 145.11639 190.395094 
L 145.610086 221.061815 
L 146.103782 240.446503 
L 146.597478 253.528503 
L 147.091175 247.382823 
L 147.584871 262.489085 
L 148.078567 261.345181 
L 148.572263 160.121125 
L 149.065959 101.85966 
L 149.559655 121.059931 
L 150.053351 205.949946 
L 150.547047 268.135709 
L 151.040743 300.619219 
L 152.028135 240.160527 
L 152.521831 275.413098 
L 153.015528 332.110223 
L 153.509224 264.928292 
L 154.00292 152.331064 
L 154.496616 137.640932 
L 154.990312 151.328529 
L 155.484008 156.526563 
L 155.977704 170.87583 
L 156.4714 181.698059 
L 156.965096 177.430849 
L 157.458792 217.058151 
L 157.952488 235.007351 
L 158.446184 237.59235 
L 158.939881 222.63188 
L 159.433577 184.944728 
L 159.927273 195.615558 
L 160.420969 221.622553 
L 160.914665 257.206939 
L 161.408361 264.732034 
L 161.902057 161.395632 
L 162.395753 169.143152 
L 162.889449 183.027289 
L 163.383145 224.280447 
L 163.876841 251.279594 
L 164.370537 269.509515 
L 164.864234 299.525781 
L 165.35793 276.956106 
L 165.851626 242.167966 
L 166.345322 261.143315 
L 166.839018 331.667241 
L 167.332714 346.599674 
L 167.82641 321.287994 
L 168.320106 339.685784 
L 168.813802 219.183346 
L 169.801194 265.948833 
L 170.294891 314.037661 
L 170.788587 298.731075 
L 171.282283 220.070918 
L 171.775979 235.226039 
L 172.269675 270.574916 
L 172.763371 263.814119 
L 173.257067 266.408638 
L 173.750763 301.953773 
L 174.738155 229.999967 
L 175.231851 265.539495 
L 175.725547 286.819474 
L 176.219244 284.221452 
L 177.206636 305.346234 
L 177.700332 291.552097 
L 178.194028 289.53905 
L 179.18142 282.249466 
L 179.675116 274.068309 
L 180.168812 282.104301 
L 180.662508 337.201718 
L 181.156204 323.379544 
L 181.6499 268.617943 
L 182.143597 266.010515 
L 182.637293 271.875826 
L 183.130989 269.845957 
L 183.624685 252.883655 
L 184.118381 243.54738 
L 184.612077 255.849955 
L 185.105773 304.544379 
L 185.599469 336.069029 
L 186.093165 307.101341 
L 187.080557 348.287494 
L 187.574253 334.061589 
L 188.06795 296.376466 
L 188.561646 282.17657 
L 189.549038 263.313368 
L 190.042734 285.126048 
L 190.53643 326.746203 
L 191.030126 336.4279 
L 191.523822 293.127769 
L 192.017518 271.561813 
L 192.511214 268.847845 
L 193.00491 279.058871 
L 193.498607 271.651531 
L 193.992303 279.283166 
L 194.485999 295.348288 
L 194.979695 304.101397 
L 195.473391 309.977924 
L 195.967087 309.338683 
L 196.460783 289.763345 
L 196.954479 210.579009 
L 197.448175 218.017012 
L 197.941871 242.739918 
L 198.435567 230.639208 
L 199.916656 297.165077 
L 200.410352 288.42879 
L 200.904048 275.503796 
L 201.89144 303.686451 
L 202.385136 299.755683 
L 202.878832 291.165188 
L 203.372528 298.914577 
L 203.866224 295.746412 
L 204.35992 253.192061 
L 204.853616 243.104397 
L 205.347313 226.383212 
L 205.841009 225.699113 
L 206.334705 235.618555 
L 206.828401 248.81831 
L 207.322097 255.558372 
L 208.309489 281.111169 
L 208.803185 275.397256 
L 209.296881 254.128492 
L 209.790577 241.38113 
L 210.284273 250.152865 
L 210.777969 270.64738 
L 211.271666 272.016011 
L 211.765362 263.840461 
L 212.259058 258.894759 
L 212.752754 270.005742 
L 213.24645 289.07007 
L 213.740146 276.894425 
L 214.233842 275.130769 
L 214.727538 266.621718 
L 215.221234 261.664801 
L 215.71493 265.707716 
L 216.208626 271.578636 
L 216.702322 273.59729 
L 217.196019 279.389706 
L 217.689715 261.23864 
L 218.183411 232.921409 
L 218.677107 218.970265 
L 219.170803 228.732701 
L 219.664499 224.863614 
L 220.158195 227.089741 
L 220.651891 247.360393 
L 221.145587 261.479757 
L 221.639283 256.39387 
L 222.132979 252.754686 
L 222.626676 251.227974 
L 223.120372 257.476093 
L 223.614068 266.840406 
L 224.107764 270.406695 
L 224.60146 270.569309 
L 225.095156 278.183358 
L 225.588852 277.914967 
L 226.082548 284.783998 
L 226.576244 285.440061 
L 227.06994 280.174738 
L 227.563636 268.94317 
L 228.057332 278.503741 
L 228.551029 285.473705 
L 229.044725 268.444114 
L 229.538421 262.024923 
L 230.525813 292.63432 
L 231.019509 292.196945 
L 231.513205 273.546823 
L 232.006901 259.74863 
L 232.500597 259.605463 
L 232.994293 279.221485 
L 233.487989 281.991527 
L 233.981685 270.193615 
L 234.475382 283.034498 
L 234.969078 305.413522 
L 235.462774 290.67174 
L 235.95647 249.894926 
L 236.450166 247.422074 
L 236.943862 255.687342 
L 237.437558 251.975261 
L 237.931254 242.257684 
L 238.42495 244.472596 
L 238.918646 254.582689 
L 239.412342 243.882003 
L 239.906038 245.355197 
L 240.399735 253.052998 
L 240.893431 237.345626 
L 241.387127 235.663414 
L 241.880823 221.145926 
L 242.374519 220.416967 
L 242.868215 236.179292 
L 243.361911 246.345459 
L 243.855607 263.363835 
L 244.349303 268.259581 
L 244.842999 285.838184 
L 245.336695 274.483255 
L 245.830392 254.442505 
L 246.324088 249.816422 
L 246.817784 248.655696 
L 247.31148 270.249688 
L 247.805176 278.22898 
L 248.298872 277.466377 
L 248.792568 293.122161 
L 249.286264 291.260514 
L 249.77996 268.662802 
L 250.273656 267.574972 
L 250.767352 268.550654 
L 251.261048 263.111503 
L 252.248441 234.037276 
L 252.742137 249.289329 
L 253.235833 255.513513 
L 253.729529 229.999967 
L 254.223225 233.482146 
L 254.716921 272.049655 
L 255.210617 292.090405 
L 256.198009 180.789665 
L 256.691705 236.728815 
L 257.185401 251.795825 
L 257.679098 271.69639 
L 258.172794 232.170021 
L 258.66649 240.766123 
L 259.160186 288.641871 
L 259.653882 309.89942 
L 260.147578 303.832243 
L 260.641274 290.211935 
L 261.13497 214.288109 
L 261.628666 236.285832 
L 262.122362 268.903919 
L 262.616058 201.357508 
L 263.109754 224.82997 
L 263.603451 262.253575 
L 264.097147 269.980534 
L 264.590843 282.333576 
L 265.084539 250.820142 
L 265.578235 113.175965 
L 266.071931 153.818202 
L 266.565627 151.451891 
L 267.059323 190.305376 
L 267.553019 240.911915 
L 268.046715 223.272532 
L 268.540411 214.433901 
L 269.034107 223.265513 
L 269.527804 145.491254 
L 270.0215 157.2387 
L 270.515196 204.581747 
L 271.008892 231.940118 
L 271.502588 92.159533 
L 271.996284 153.767736 
L 272.48998 175.232759 
L 272.983676 131.741976 
L 273.971068 227.11217 
L 274.464764 236.779281 
L 275.452157 267.120774 
L 275.945853 267.19367 
L 276.439549 250.455663 
L 276.933245 206.701334 
L 277.426941 220.557152 
L 277.920637 291.462379 
L 278.414333 316.813311 
L 278.908029 227.953276 
L 279.401725 196.394983 
L 279.895421 235.007351 
L 280.389117 286.073694 
L 280.882814 205.630326 
L 281.37651 164.309597 
L 281.870206 221.465546 
L 282.363902 224.757074 
L 282.857598 231.648535 
L 283.351294 195.542662 
L 283.84499 172.720656 
L 284.832382 290.699776 
L 285.819774 119.046885 
L 286.31347 171.173021 
L 286.807167 237.368055 
L 287.300863 274.954274 
L 287.794559 303.725703 
L 288.288255 274.802875 
L 288.781951 131.091521 
L 289.275647 101.013574 
L 289.769343 146.321145 
L 290.263039 169.159974 
L 290.756735 140.573588 
L 291.250431 156.907865 
L 292.73152 265.758183 
L 293.225216 242.818421 
L 293.718912 249.306151 
L 294.212608 306.764899 
L 294.706304 263.902142 
L 295.2 195.380049 
L 295.693696 177.57664 
L 296.187392 229.433623 
L 296.681088 309.826525 
L 297.174784 247.924581 
L 297.66848 122.085728 
L 298.162177 144.117448 
L 298.655873 197.875329 
L 299.149569 131.046662 
L 299.643265 179.511184 
L 300.630657 291.838073 
L 301.124353 202.635989 
L 301.618049 199.254743 
L 302.111745 203.168689 
L 302.605441 218.162804 
L 303.099137 227.790663 
L 303.592833 203.404199 
L 304.08653 202.097681 
L 304.580226 191.028727 
L 305.073922 121.783282 
L 305.567618 98.148207 
L 306.061314 138.449531 
L 306.55501 230.824251 
L 307.048706 234.917633 
L 307.542402 200.892096 
L 308.529794 236.487698 
L 309.02349 253.965878 
L 309.517186 260.70594 
L 310.010883 215.858174 
L 310.504579 231.026117 
L 311.491971 138.941843 
L 311.985667 191.802545 
L 312.479363 273.014123 
L 312.973059 304.364944 
L 313.466755 296.138928 
L 313.960451 257.156473 
L 314.454147 251.179014 
L 314.947843 231.345737 
L 315.441539 262.881601 
L 315.935236 281.139206 
L 316.428932 253.741583 
L 316.922628 246.109949 
L 317.416324 185.634435 
L 317.91002 143.147372 
L 319.391108 283.645702 
L 319.884804 270.064645 
L 320.3785 189.346516 
L 320.872196 140.478263 
L 321.365893 66.96 
L 322.353285 235.84285 
L 322.846981 278.756073 
L 323.340677 268.012347 
L 323.834373 118.676798 
L 324.328069 124.457999 
L 324.821765 136.783004 
L 325.315461 188.639987 
L 325.809157 265.668465 
L 326.302853 306.361168 
L 326.796549 314.721761 
L 327.290246 286.370885 
L 327.783942 159.453612 
L 328.277638 130.26163 
L 328.771334 156.150869 
L 329.26503 189.290442 
L 329.758726 193.204388 
L 330.252422 184.182125 
L 330.746118 225.36267 
L 331.239814 277.449555 
L 331.73351 281.784054 
L 332.720902 214.422686 
L 333.214599 215.179681 
L 333.708295 246.429569 
L 334.201991 258.249911 
L 334.695687 278.555914 
L 335.189383 209.970432 
L 335.683079 179.808375 
L 337.164167 274.999133 
L 337.657863 285.958319 
L 338.645255 333.214876 
L 339.138952 296.060425 
L 339.632648 223.170187 
L 340.126344 254.392038 
L 340.62004 248.106174 
L 341.113736 262.999355 
L 341.607432 294.647367 
L 342.101128 291.109115 
L 343.08852 233.437287 
L 343.582216 244.338019 
L 344.075912 244.95483 
L 345.063305 288.137207 
L 345.557001 259.70222 
L 346.544393 353.005113 
L 347.038089 256.507223 
L 348.025481 190.316591 
L 348.519177 210.777894 
L 349.012873 249.003353 
L 349.506569 266.750688 
L 350.000265 312.910579 
L 350.493962 295.617442 
L 350.987658 286.752186 
L 351.481354 320.80576 
L 351.97505 307.841515 
L 352.468746 302.789272 
L 352.962442 270.193615 
L 353.456138 199.148203 
L 354.44353 272.066477 
L 354.937226 261.36761 
L 355.430922 214.966601 
L 355.924618 247.640762 
L 356.912011 267.070308 
L 357.405707 290.475481 
L 357.899403 280.836408 
L 358.393099 222.912248 
L 358.886795 239.711937 
L 359.380491 268.713268 
L 359.874187 209.005964 
L 360.367883 200.028561 
L 360.861579 224.471098 
L 361.355275 263.896535 
L 361.848971 280.741083 
L 362.342668 281.913023 
L 362.836364 314.166631 
L 363.33006 312.041437 
L 363.823756 267.776837 
L 364.317452 268.780557 
L 364.811148 298.768786 
L 365.304844 317.660024 
L 365.79854 303.153751 
L 366.292236 299.262234 
L 366.785932 300.983698 
L 367.773324 317.783386 
L 368.267021 262.298434 
L 368.760717 269.139429 
L 369.254413 271.477703 
L 369.748109 215.401232 
L 370.241805 218.454387 
L 370.735501 226.6019 
L 371.229197 225.965953 
L 371.722893 234.076527 
L 372.710285 276.165466 
L 373.203981 269.682354 
L 373.697678 278.167298 
L 374.68507 332.233586 
L 375.178766 312.613389 
L 375.672462 237.267122 
L 376.166158 190.922187 
L 376.659854 188.286722 
L 377.15355 218.241307 
L 377.647246 231.149479 
L 378.140942 224.263625 
L 378.634638 233.084022 
L 379.622031 267.00302 
L 380.115727 264.395591 
L 380.609423 257.73964 
L 381.103119 271.29266 
L 381.596815 280.2981 
L 382.090511 282.120496 
L 382.584207 274.012235 
L 383.571599 247.298712 
L 384.065295 258.558316 
L 385.052687 294.395035 
L 385.546384 287.520396 
L 386.04008 282.84427 
L 387.027472 262.541153 
L 387.521168 269.75624 
L 388.014864 286.365277 
L 388.50856 287.133487 
L 389.002256 278.043936 
L 389.495952 279.251075 
L 389.989648 289.64559 
L 390.483344 265.264734 
L 390.97704 254.296713 
L 391.470737 266.34135 
L 391.964433 281.212102 
L 392.458129 280.006517 
L 393.939217 252.973373 
L 394.432913 250.573418 
L 394.926609 251.638818 
L 395.420305 266.644148 
L 395.914001 275.038385 
L 396.407697 269.576804 
L 396.901393 269.374938 
L 397.39509 277.337407 
L 397.888786 290.643703 
L 398.382482 307.187761 
L 398.876178 254.829413 
L 399.369874 246.584114 
L 399.86357 247.468149 
L 400.357266 250.607062 
L 400.850962 254.54024 
L 401.344658 241.141817 
L 401.838354 242.476372 
L 402.33205 238.214768 
L 402.825747 241.4334 
L 403.319443 252.491139 
L 403.813139 256.02984 
L 404.800531 235.954997 
L 405.294227 234.951277 
L 405.787923 243.99597 
L 406.281619 259.236808 
L 406.775315 262.803097 
L 407.269011 260.268565 
L 407.762707 262.147035 
L 408.256403 262.579402 
L 408.7501 228.118733 
L 409.243796 238.113836 
L 410.231188 283.572806 
L 410.724884 293.177114 
L 411.21858 255.762063 
L 411.712276 261.003131 
L 412.205972 288.955883 
L 412.699668 300.193058 
L 413.193364 292.746467 
L 413.68706 290.335297 
L 414.180756 308.46954 
L 414.674453 314.676902 
L 415.661845 284.705495 
L 416.155541 271.22554 
L 416.649237 243.053931 
L 417.142933 205.961834 
L 417.636629 218.655131 
L 418.624021 302.748849 
L 419.117717 286.051264 
L 419.611413 288.39795 
L 420.105109 287.509181 
L 420.598806 285.305484 
L 421.092502 267.474039 
L 421.586198 263.380657 
L 422.079894 262.528336 
L 422.57359 258.642427 
L 423.067286 261.692838 
L 423.560982 262.988141 
L 424.054678 263.515234 
L 424.548374 259.80876 
L 425.04207 238.769898 
L 425.535766 232.125162 
L 426.029463 241.231535 
L 426.523159 259.819975 
L 427.016855 288.249355 
L 427.510551 285.255018 
L 428.004247 269.705773 
L 428.497943 259.242416 
L 428.991639 245.240806 
L 429.485335 244.97726 
L 429.979031 249.003353 
L 430.472727 243.300655 
L 430.966423 252.216378 
L 431.460119 248.358505 
L 431.953816 249.810815 
L 432.941208 282.142926 
L 433.434904 278.268231 
L 433.9286 261.519009 
L 434.915992 279.137374 
L 435.409688 267.148811 
L 435.903384 264.44045 
L 436.39708 279.541105 
L 436.890776 283.079357 
L 437.384472 273.586075 
L 437.878169 252.653753 
L 438.371865 248.083744 
L 438.865561 277.494414 
L 439.359257 296.940782 
L 439.852953 288.316643 
L 440.840345 243.76046 
L 441.334041 253.629436 
L 441.827737 258.423739 
L 442.321433 237.278337 
L 442.815129 240.014735 
L 443.308825 235.915746 
L 443.802522 220.147814 
L 444.296218 228.160749 
L 444.789914 272.543104 
L 445.28361 306.310702 
L 445.777306 269.537552 
L 446.271002 224.280447 
L 446.764698 234.928848 
L 447.258394 259.870442 
L 447.75209 255.160248 
L 448.245786 239.02223 
L 448.739482 243.575417 
L 449.233179 256.051821 
L 449.726875 257.117222 
L 450.220571 252.513569 
L 450.714267 242.616556 
L 451.207963 243.749245 
L 451.701659 242.353009 
L 452.195355 242.43712 
L 452.689051 246.737975 
L 453.182747 255.664912 
L 453.676443 228.306541 
L 454.170139 211.265735 
L 454.663835 186.374608 
L 455.157532 188.415692 
L 455.651228 235.876494 
L 456.144924 246.743582 
L 456.63862 216.12172 
L 457.132316 207.783557 
L 457.626012 219.766512 
L 458.119708 221.588908 
L 459.1071 178.799048 
L 459.600796 167.466547 
L 460.588188 200.981814 
L 461.575581 247.960382 
L 462.069277 256.405085 
L 462.562973 257.07797 
L 463.056669 252.137875 
L 463.550365 267.064701 
L 464.044061 252.603287 
L 464.537757 160.575087 
L 465.031453 145.289389 
L 465.525149 197.073475 
L 466.512541 264.188118 
L 467.499934 299.800542 
L 467.99363 228.715879 
L 468.487326 237.603565 
L 468.981022 265.376881 
L 469.474718 240.979203 
L 469.968414 198.329527 
L 470.46211 231.727038 
L 470.955806 242.644593 
L 471.449502 211.119944 
L 471.943198 193.697837 
L 472.930591 289.3484 
L 473.424287 254.100455 
L 473.917983 261.967599 
L 474.411679 224.235588 
L 474.905375 207.469544 
L 475.399071 222.744027 
L 475.892767 274.601009 
L 476.386463 291.372661 
L 476.880159 174.918746 
L 477.373855 188.03439 
L 477.867551 251.487419 
L 478.361248 165.829195 
L 478.854944 125.366394 
L 479.34864 110.809654 
L 479.842336 159.206888 
L 480.336032 141.409087 
L 480.829728 112.878775 
L 481.323424 127.867282 
L 481.81712 153.156532 
L 482.804512 264.720819 
L 483.298208 216.037609 
L 483.791904 224.201944 
L 484.285601 250.511737 
L 484.779297 252.216378 
L 485.272993 284.312979 
L 485.766689 189.571647 
L 486.260385 157.087301 
L 486.754081 194.561372 
L 487.247777 162.212144 
L 487.741473 240.571532 
L 488.235169 205.02473 
L 488.728865 202.321976 
L 489.716257 236.762459 
L 490.209954 226.467323 
L 490.70365 267.389928 
L 491.197346 317.559209 
L 491.691042 268.595513 
L 492.184738 233.639152 
L 492.678434 236.958717 
L 493.17213 182.071964 
L 493.665826 175.40098 
L 494.159522 203.471487 
L 494.653218 158.108964 
L 495.146914 177.223376 
L 496.134307 288.10917 
L 496.628003 301.073416 
L 497.121699 324.98886 
L 497.615395 369.36 
L 498.109091 299.656559 
L 498.109091 299.656559 
" clip-path="url(#p7bfe803c25)" style="fill: none; stroke: #1f77b4; stroke-width: 1.5; stroke-linecap: round"/>
   </g>
   <g id="line2d_15">
    <path d="M 92.290909 218.402019 
L 93.278301 228.230273 
L 93.771997 229.096458 
L 94.265693 225.643303 
L 95.253086 222.220897 
L 95.746782 222.669277 
L 96.240478 221.483123 
L 96.734174 223.444964 
L 97.721566 228.29146 
L 98.215262 221.245699 
L 98.708958 221.414318 
L 99.202654 220.374574 
L 99.69635 217.882856 
L 100.190046 218.899498 
L 101.177439 224.724912 
L 101.671135 224.390368 
L 102.164831 225.894892 
L 102.658527 224.842354 
L 103.152223 224.459246 
L 103.645919 223.081375 
L 104.139615 223.518056 
L 104.633311 225.052515 
L 105.127007 229.151279 
L 105.620703 231.899161 
L 106.114399 232.81341 
L 106.608096 231.882629 
L 107.101792 233.375035 
L 107.595488 231.769104 
L 108.089184 228.370223 
L 108.58288 229.203267 
L 109.076576 232.165822 
L 109.570272 232.346432 
L 110.063968 231.662639 
L 111.05136 228.704661 
L 111.545056 229.945505 
L 112.038752 227.118092 
L 112.532449 226.41294 
L 113.026145 228.32496 
L 113.519841 228.230927 
L 114.013537 224.557668 
L 114.507233 230.026749 
L 115.000929 230.360372 
L 115.494625 225.101607 
L 115.988321 228.054773 
L 116.482017 229.269399 
L 116.975713 224.337872 
L 117.469409 226.184242 
L 117.963106 228.765541 
L 118.456802 229.354932 
L 119.93789 225.716761 
L 120.431586 225.114424 
L 120.925282 220.876233 
L 121.912674 219.430947 
L 122.40637 219.743264 
L 122.900066 219.899389 
L 123.393762 218.923146 
L 123.887459 220.298806 
L 124.381155 223.976862 
L 124.874851 224.312624 
L 125.862243 233.088392 
L 126.355939 233.146446 
L 126.849635 227.145263 
L 127.343331 226.653403 
L 127.837027 227.40016 
L 128.330723 226.81861 
L 128.824419 225.711654 
L 129.318115 230.03329 
L 129.811812 232.8087 
L 130.799204 226.016869 
L 131.2929 229.528728 
L 131.786596 234.049237 
L 132.773988 234.501413 
L 133.267684 236.877199 
L 133.76138 236.193911 
L 134.255076 229.092285 
L 134.748772 229.345119 
L 135.242468 232.123464 
L 135.736165 229.399393 
L 136.229861 228.386184 
L 137.217253 233.95125 
L 137.710949 239.118858 
L 138.204645 239.847287 
L 138.698341 237.354632 
L 139.192037 237.391135 
L 139.685733 238.746954 
L 140.179429 242.272153 
L 140.673125 242.532438 
L 141.166821 242.517115 
L 141.660518 244.300453 
L 142.154214 245.496187 
L 142.64791 241.041974 
L 143.141606 242.341909 
L 143.635302 241.44363 
L 144.128998 239.909116 
L 144.622694 240.383056 
L 145.11639 244.683486 
L 145.610086 240.968675 
L 146.103782 238.919046 
L 146.597478 237.999291 
L 147.091175 238.625351 
L 147.584871 237.58719 
L 148.078567 238.27177 
L 148.572263 241.137065 
L 149.065959 242.955314 
L 149.559655 243.979144 
L 150.053351 244.666676 
L 150.547047 244.994421 
L 151.040743 240.778088 
L 151.534439 240.183276 
L 152.028135 242.899228 
L 152.521831 239.383553 
L 153.015528 234.223429 
L 153.509224 235.998242 
L 154.00292 234.93031 
L 154.496616 231.89621 
L 155.484008 235.651368 
L 155.977704 235.57581 
L 156.4714 233.91988 
L 156.965096 239.231013 
L 157.458792 240.67807 
L 157.952488 241.062984 
L 158.446184 243.676131 
L 158.939881 242.934302 
L 159.433577 241.592072 
L 160.420969 243.863791 
L 160.914665 241.958974 
L 161.408361 242.762933 
L 161.902057 247.268052 
L 162.889449 245.022498 
L 163.383145 244.552722 
L 163.876841 246.274823 
L 164.370537 245.532277 
L 164.864234 249.367394 
L 165.35793 248.77041 
L 165.851626 251.706445 
L 166.345322 249.945294 
L 166.839018 252.523572 
L 167.332714 253.747469 
L 167.82641 253.798537 
L 168.320106 251.259527 
L 168.813802 253.729991 
L 169.307498 257.587595 
L 169.801194 257.802567 
L 170.294891 258.178954 
L 170.788587 255.531497 
L 171.282283 254.503874 
L 171.775979 251.475444 
L 172.269675 254.299431 
L 172.763371 254.672669 
L 173.257067 252.917443 
L 174.244459 255.773758 
L 174.738155 252.623529 
L 175.231851 250.845855 
L 175.725547 253.770739 
L 176.219244 252.055747 
L 176.71294 252.815374 
L 177.206636 253.988623 
L 177.700332 257.386455 
L 178.194028 253.907748 
L 178.687724 252.10603 
L 179.18142 252.855192 
L 179.675116 253.060535 
L 180.168812 254.45838 
L 180.662508 258.515159 
L 181.156204 257.411873 
L 181.6499 255.987491 
L 182.143597 256.429969 
L 182.637293 255.177611 
L 183.130989 255.582311 
L 183.624685 257.137551 
L 184.118381 257.132714 
L 184.612077 255.142566 
L 185.105773 253.882524 
L 185.599469 254.199868 
L 186.093165 254.35657 
L 186.586861 255.89729 
L 187.080557 256.808339 
L 187.574253 256.381855 
L 188.06795 255.174069 
L 188.561646 251.492968 
L 189.549038 257.243542 
L 190.042734 255.803339 
L 190.53643 253.656574 
L 191.030126 255.106205 
L 191.523822 256.012547 
L 192.017518 254.909387 
L 192.511214 255.175649 
L 193.498607 257.385398 
L 193.992303 255.848045 
L 194.485999 258.07498 
L 194.979695 258.456912 
L 195.473391 258.556996 
L 195.967087 256.816077 
L 196.460783 256.935459 
L 196.954479 257.272291 
L 197.448175 258.99104 
L 197.941871 259.492882 
L 198.435567 259.639062 
L 198.929263 260.424102 
L 199.42296 258.318117 
L 199.916656 257.249142 
L 200.410352 257.328918 
L 200.904048 258.29081 
L 201.397744 256.164698 
L 201.89144 256.628547 
L 202.385136 259.136099 
L 202.878832 259.288297 
L 203.372528 259.063277 
L 204.853616 255.924253 
L 205.347313 255.510791 
L 205.841009 255.765881 
L 206.334705 257.181032 
L 206.828401 257.495022 
L 207.322097 256.419796 
L 207.815793 257.127712 
L 208.309489 256.5074 
L 208.803185 254.710801 
L 209.296881 255.078643 
L 209.790577 256.83523 
L 210.284273 256.037148 
L 211.271666 257.552274 
L 211.765362 258.986999 
L 212.259058 259.157916 
L 212.752754 258.497531 
L 213.24645 256.183698 
L 213.740146 254.880491 
L 214.233842 255.239455 
L 214.727538 256.057287 
L 215.71493 257.077705 
L 216.208626 259.060982 
L 216.702322 257.307158 
L 217.196019 256.303456 
L 217.689715 256.524951 
L 218.677107 254.758002 
L 219.170803 256.384614 
L 219.664499 256.978201 
L 220.158195 255.712473 
L 220.651891 256.822876 
L 221.145587 257.639411 
L 221.639283 256.552591 
L 222.132979 256.035583 
L 222.626676 257.24173 
L 223.120372 255.771455 
L 223.614068 256.338921 
L 224.107764 257.289623 
L 224.60146 256.83028 
L 225.095156 255.990431 
L 225.588852 255.702435 
L 226.082548 255.11169 
L 226.576244 253.382572 
L 227.06994 253.50637 
L 227.563636 253.10207 
L 228.057332 253.526256 
L 228.551029 253.46162 
L 229.044725 253.859973 
L 229.538421 255.108344 
L 230.032117 254.256109 
L 230.525813 253.718605 
L 231.019509 253.877358 
L 231.513205 253.278777 
L 232.006901 252.939758 
L 232.500597 254.655993 
L 232.994293 253.729143 
L 233.487989 252.4924 
L 233.981685 251.951392 
L 234.475382 252.412467 
L 234.969078 252.114149 
L 235.462774 251.421308 
L 235.95647 250.22075 
L 236.943862 237.861423 
L 237.931254 242.179403 
L 238.42495 243.427056 
L 238.918646 245.356922 
L 239.412342 245.764478 
L 239.906038 244.257715 
L 240.399735 244.692409 
L 240.893431 246.09635 
L 241.387127 246.468142 
L 241.880823 246.267188 
L 242.374519 246.589469 
L 242.868215 248.84395 
L 243.361911 248.354572 
L 243.855607 244.956792 
L 244.349303 243.444676 
L 244.842999 242.954566 
L 245.336695 240.482847 
L 245.830392 238.755418 
L 246.324088 242.202297 
L 246.817784 247.711888 
L 247.31148 251.232999 
L 247.805176 250.359544 
L 248.298872 248.707216 
L 248.792568 248.59606 
L 249.286264 248.629947 
L 249.77996 250.408315 
L 250.273656 251.502351 
L 250.767352 251.759586 
L 251.261048 252.47534 
L 251.754745 251.910891 
L 252.248441 249.083151 
L 252.742137 250.13778 
L 253.235833 249.364585 
L 253.729529 244.550613 
L 254.223225 244.067339 
L 254.716921 246.703503 
L 255.210617 242.251774 
L 255.704313 243.535886 
L 256.198009 247.450727 
L 256.691705 245.860543 
L 257.185401 243.469817 
L 258.172794 241.994951 
L 258.66649 240.902899 
L 259.160186 242.76505 
L 259.653882 246.062819 
L 260.641274 250.683022 
L 261.13497 248.032522 
L 261.628666 244.64796 
L 262.122362 237.633588 
L 262.616058 235.425562 
L 263.109754 236.282348 
L 263.603451 236.081584 
L 264.097147 237.526277 
L 264.590843 240.543959 
L 265.084539 240.467995 
L 265.578235 237.064372 
L 266.071931 236.76364 
L 266.565627 232.741623 
L 267.059323 230.008468 
L 267.553019 228.228275 
L 268.046715 230.114682 
L 268.540411 227.691201 
L 269.034107 228.467069 
L 269.527804 227.543843 
L 270.0215 228.385869 
L 270.515196 226.0912 
L 271.008892 226.703132 
L 271.502588 226.818897 
L 271.996284 226.465578 
L 272.48998 225.880702 
L 272.983676 230.098428 
L 273.477372 229.934432 
L 273.971068 224.642979 
L 274.464764 226.622611 
L 274.958461 228.101865 
L 275.452157 225.311553 
L 275.945853 223.907928 
L 276.439549 227.396719 
L 276.933245 227.279614 
L 277.426941 227.335257 
L 277.920637 226.726475 
L 278.414333 229.354889 
L 278.908029 230.021826 
L 279.401725 231.414268 
L 279.895421 230.991776 
L 280.389117 232.782312 
L 280.882814 229.843576 
L 281.870206 230.358611 
L 282.363902 228.039163 
L 282.857598 228.092118 
L 283.351294 229.889513 
L 283.84499 225.594822 
L 284.338686 226.714128 
L 284.832382 230.702708 
L 285.326078 229.534296 
L 285.819774 229.431503 
L 286.31347 230.746193 
L 286.807167 232.7557 
L 287.300863 227.9924 
L 287.794559 226.300384 
L 288.288255 227.815355 
L 288.781951 230.768503 
L 289.275647 227.087648 
L 290.263039 232.73749 
L 290.756735 229.272533 
L 291.250431 229.636398 
L 291.744127 230.487304 
L 292.237823 231.573341 
L 292.73152 228.423808 
L 293.225216 227.014619 
L 293.718912 226.482325 
L 294.212608 227.965336 
L 294.706304 227.351482 
L 295.2 228.980441 
L 295.693696 227.767616 
L 296.681088 229.850011 
L 297.174784 230.044183 
L 297.66848 229.497344 
L 298.162177 232.042766 
L 298.655873 232.633113 
L 299.149569 228.949976 
L 299.643265 227.941188 
L 300.136961 226.43124 
L 300.630657 225.577478 
L 301.124353 225.211324 
L 301.618049 227.975469 
L 302.111745 223.368152 
L 302.605441 223.603545 
L 303.099137 220.878651 
L 303.592833 223.931349 
L 304.08653 223.583169 
L 304.580226 223.97054 
L 305.073922 221.93778 
L 305.567618 227.152397 
L 306.061314 228.552322 
L 306.55501 229.52197 
L 307.048706 231.879493 
L 307.542402 231.861107 
L 308.036098 229.128631 
L 308.529794 228.104297 
L 309.02349 229.246772 
L 309.517186 228.797878 
L 310.010883 230.230567 
L 310.504579 228.428863 
L 310.998275 232.132481 
L 311.491971 233.555115 
L 311.985667 234.010547 
L 312.479363 231.664427 
L 312.973059 234.322282 
L 313.466755 230.738565 
L 313.960451 232.092597 
L 314.454147 231.742005 
L 314.947843 230.164944 
L 315.441539 235.166013 
L 315.935236 238.800093 
L 316.428932 236.201209 
L 316.922628 239.989699 
L 317.416324 235.191388 
L 317.91002 229.254642 
L 318.403716 228.53564 
L 318.897412 230.532209 
L 319.391108 229.533584 
L 319.884804 232.919291 
L 320.3785 235.157824 
L 320.872196 235.592268 
L 321.365893 238.052297 
L 321.859589 235.933185 
L 322.353285 234.483389 
L 322.846981 234.706526 
L 323.340677 238.616895 
L 323.834373 239.436302 
L 324.328069 244.914629 
L 324.821765 243.906618 
L 325.315461 245.110576 
L 325.809157 244.490604 
L 326.796549 240.1739 
L 327.290246 240.090601 
L 327.783942 242.480322 
L 328.277638 248.051986 
L 328.771334 247.58438 
L 329.26503 244.327567 
L 329.758726 245.542734 
L 330.252422 245.784245 
L 330.746118 245.192654 
L 331.239814 248.749994 
L 331.73351 250.46657 
L 332.227206 244.310001 
L 332.720902 242.408078 
L 333.214599 244.32318 
L 333.708295 243.549122 
L 334.201991 243.907339 
L 335.189383 241.013869 
L 335.683079 241.345191 
L 336.176775 242.888911 
L 336.670471 238.903516 
L 337.657863 248.712406 
L 338.151559 246.453238 
L 338.645255 246.731798 
L 339.138952 246.486803 
L 340.126344 238.167426 
L 340.62004 239.552475 
L 341.113736 244.117802 
L 341.607432 246.568279 
L 342.101128 247.112043 
L 342.594824 246.436864 
L 343.08852 249.38419 
L 344.075912 243.268307 
L 344.569608 241.767544 
L 345.063305 245.857519 
L 345.557001 244.859954 
L 346.050697 246.808219 
L 346.544393 249.710668 
L 347.038089 251.146102 
L 347.531785 250.095441 
L 348.025481 246.266446 
L 348.519177 246.00136 
L 349.012873 245.050726 
L 349.506569 244.370001 
L 350.000265 247.546176 
L 350.493962 252.789733 
L 350.987658 253.810508 
L 351.481354 255.787902 
L 351.97505 253.916247 
L 352.468746 252.800505 
L 352.962442 253.696718 
L 353.456138 253.98257 
L 353.949834 251.532944 
L 354.44353 253.386152 
L 354.937226 256.059291 
L 355.430922 256.800174 
L 356.418315 262.948627 
L 356.912011 261.602443 
L 357.405707 256.230821 
L 357.899403 256.72493 
L 358.393099 256.660824 
L 359.380491 260.759532 
L 359.874187 261.364707 
L 360.367883 263.760944 
L 360.861579 263.967583 
L 361.848971 258.527785 
L 362.342668 258.392197 
L 362.836364 257.991711 
L 363.33006 258.895096 
L 363.823756 262.441842 
L 364.811148 265.635155 
L 365.304844 262.417256 
L 365.79854 262.112263 
L 366.292236 260.852002 
L 366.785932 262.101484 
L 367.279628 260.307454 
L 367.773324 263.149773 
L 368.267021 263.640654 
L 368.760717 262.496071 
L 369.254413 261.682771 
L 369.748109 261.701278 
L 370.735501 260.143836 
L 371.229197 258.924484 
L 371.722893 258.733145 
L 372.216589 259.515549 
L 372.710285 261.024464 
L 373.203981 254.984182 
L 373.697678 257.135217 
L 374.191374 257.886307 
L 374.68507 256.776178 
L 375.178766 257.092539 
L 375.672462 258.45254 
L 376.166158 258.258148 
L 377.15355 255.574925 
L 377.647246 257.52551 
L 378.140942 255.817834 
L 378.634638 255.48585 
L 379.128334 255.612789 
L 379.622031 257.208253 
L 380.115727 255.665973 
L 380.609423 254.648491 
L 381.103119 256.073058 
L 382.090511 254.802766 
L 383.077903 252.816519 
L 383.571599 254.549818 
L 384.065295 255.537369 
L 384.558991 253.265161 
L 385.052687 253.61643 
L 385.546384 254.334656 
L 386.04008 254.124739 
L 386.533776 250.088625 
L 387.027472 250.302747 
L 388.014864 253.568092 
L 388.50856 251.298516 
L 389.002256 252.003491 
L 389.495952 253.872389 
L 389.989648 252.915367 
L 390.483344 249.75414 
L 390.97704 251.107052 
L 391.470737 252.013021 
L 391.964433 249.828658 
L 392.951825 253.663595 
L 393.445521 252.968257 
L 393.939217 249.86263 
L 394.432913 251.895994 
L 394.926609 249.132636 
L 395.914001 241.285162 
L 396.407697 241.257786 
L 397.39509 247.343296 
L 397.888786 246.27028 
L 398.382482 246.14155 
L 399.369874 245.053915 
L 399.86357 245.446141 
L 400.357266 246.244456 
L 400.850962 246.641077 
L 401.344658 251.610171 
L 401.838354 249.840403 
L 402.33205 251.367813 
L 402.825747 251.281109 
L 403.319443 248.351462 
L 403.813139 244.114299 
L 404.306835 244.916712 
L 404.800531 243.333431 
L 405.294227 243.740147 
L 406.281619 251.559278 
L 406.775315 253.575993 
L 407.762707 250.694094 
L 408.256403 250.192103 
L 408.7501 251.556818 
L 409.243796 252.454874 
L 409.737492 254.786036 
L 410.724884 257.773617 
L 411.21858 257.419675 
L 411.712276 254.465926 
L 412.205972 249.666774 
L 412.699668 241.704477 
L 413.193364 240.563086 
L 413.68706 242.804776 
L 414.180756 240.969614 
L 414.674453 237.51528 
L 415.168149 240.7706 
L 415.661845 242.735105 
L 416.155541 239.633475 
L 416.649237 233.704029 
L 417.142933 237.111654 
L 417.636629 236.527272 
L 418.130325 235.178699 
L 418.624021 240.564036 
L 419.117717 247.466361 
L 419.611413 245.842799 
L 420.105109 247.421001 
L 420.598806 247.566615 
L 421.092502 246.667218 
L 421.586198 239.574057 
L 422.079894 238.621269 
L 422.57359 242.227054 
L 423.067286 248.607443 
L 423.560982 248.25267 
L 424.054678 245.391677 
L 424.548374 249.29692 
L 425.04207 251.075136 
L 425.535766 248.52417 
L 426.029463 244.236686 
L 426.523159 247.180744 
L 427.016855 251.736344 
L 427.510551 254.610965 
L 428.004247 250.198564 
L 428.497943 252.329606 
L 428.991639 255.692686 
L 429.485335 253.910191 
L 429.979031 250.527034 
L 430.966423 256.416059 
L 431.460119 254.332411 
L 431.953816 251.525535 
L 432.447512 253.979538 
L 432.941208 255.178564 
L 433.434904 251.274478 
L 433.9286 253.117668 
L 434.422296 253.10316 
L 434.915992 254.807793 
L 435.409688 253.087151 
L 435.903384 257.10408 
L 436.39708 257.019197 
L 436.890776 260.853671 
L 437.384472 257.139683 
L 437.878169 258.177695 
L 438.371865 258.404479 
L 438.865561 261.241611 
L 439.852953 256.533409 
L 440.346649 256.041987 
L 440.840345 256.562466 
L 441.334041 253.443592 
L 441.827737 251.544956 
L 442.321433 254.059335 
L 442.815129 255.183168 
L 443.308825 252.39405 
L 443.802522 251.588688 
L 444.789914 255.606718 
L 445.777306 252.35595 
L 446.271002 253.085272 
L 446.764698 255.180022 
L 447.258394 255.80392 
L 447.75209 251.957948 
L 448.245786 252.229343 
L 448.739482 252.248324 
L 449.726875 247.876967 
L 450.220571 249.493682 
L 450.714267 251.775194 
L 451.207963 252.963373 
L 451.701659 251.992763 
L 452.195355 250.475605 
L 452.689051 250.684693 
L 453.182747 250.261954 
L 453.676443 250.533971 
L 454.663835 247.471866 
L 455.157532 247.448359 
L 455.651228 242.525959 
L 456.63862 239.267544 
L 457.132316 238.562419 
L 457.626012 232.919985 
L 458.119708 230.028086 
L 458.613404 233.017881 
L 459.1071 233.613107 
L 459.600796 233.446947 
L 460.094492 236.733249 
L 460.588188 237.411166 
L 461.081885 236.423985 
L 461.575581 229.700142 
L 462.069277 230.697729 
L 462.562973 232.558338 
L 463.056669 232.858001 
L 463.550365 231.656318 
L 464.044061 234.050481 
L 464.537757 235.886866 
L 465.031453 233.888002 
L 465.525149 230.497449 
L 466.018845 231.205488 
L 466.512541 230.763286 
L 467.006238 229.460928 
L 467.499934 232.208192 
L 468.487326 235.417474 
L 468.981022 230.484095 
L 469.474718 229.437755 
L 469.968414 228.917129 
L 470.46211 230.452595 
L 470.955806 229.939429 
L 471.449502 231.670279 
L 471.943198 232.823205 
L 472.436894 235.483241 
L 472.930591 231.976165 
L 473.424287 230.86729 
L 474.411679 235.249401 
L 474.905375 234.674524 
L 475.399071 233.863248 
L 475.892767 231.764604 
L 476.386463 225.518981 
L 476.880159 223.717287 
L 477.373855 220.032292 
L 477.867551 219.652867 
L 478.361248 216.721741 
L 478.854944 218.522697 
L 479.34864 219.155563 
L 479.842336 220.696635 
L 480.336032 217.067422 
L 480.829728 220.807718 
L 482.310816 225.300725 
L 482.804512 226.177284 
L 483.298208 220.456021 
L 483.791904 222.652894 
L 484.779297 214.131689 
L 485.272993 212.348321 
L 485.766689 213.040683 
L 486.260385 210.709884 
L 486.754081 211.581658 
L 487.247777 211.157292 
L 487.741473 210.443634 
L 488.235169 213.008695 
L 488.728865 214.722151 
L 489.222561 218.983465 
L 489.716257 221.136626 
L 490.70365 218.506145 
L 491.197346 223.383568 
L 491.691042 222.967449 
L 492.184738 220.436562 
L 492.678434 220.371312 
L 493.17213 219.729872 
L 493.665826 218.801933 
L 494.159522 218.785268 
L 494.653218 218.532707 
L 494.653218 218.532707 
" clip-path="url(#p7bfe803c25)" style="fill: none; stroke: #ff7f0e; stroke-width: 1.5; stroke-linecap: round"/>
   </g>
   <g id="patch_3">
    <path d="M 72 384.48 
L 72 51.84 
" style="fill: none; stroke: #ffffff; stroke-width: 0.8; stroke-linejoin: miter; stroke-linecap: square"/>
   </g>
   <g id="patch_4">
    <path d="M 518.4 384.48 
L 518.4 51.84 
" style="fill: none; stroke: #ffffff; stroke-width: 0.8; stroke-linejoin: miter; stroke-linecap: square"/>
   </g>
   <g id="patch_5">
    <path d="M 72 384.48 
L 518.4 384.48 
" style="fill: none; stroke: #ffffff; stroke-width: 0.8; stroke-linejoin: miter; stroke-linecap: square"/>
   </g>
   <g id="patch_6">
    <path d="M 72 51.84 
L 518.4 51.84 
" style="fill: none; stroke: #ffffff; stroke-width: 0.8; stroke-linejoin: miter; stroke-linecap: square"/>
   </g>
   <g id="text_16">
    <!-- Average Pressure Prediction 51 Days Ahead -->
    <g style="fill: #262626" transform="translate(176.57625 45.84) scale(0.12 -0.12)">
     <defs>
      <path id="ArialMT-41" d="M -9 0 
L 1750 4581 
L 2403 4581 
L 4278 0 
L 3588 0 
L 3053 1388 
L 1138 1388 
L 634 0 
L -9 0 
z
M 1313 1881 
L 2866 1881 
L 2388 3150 
Q 2169 3728 2063 4100 
Q 1975 3659 1816 3225 
L 1313 1881 
z
" transform="scale(0.015625)"/>
      <path id="ArialMT-76" d="M 1344 0 
L 81 3319 
L 675 3319 
L 1388 1331 
Q 1503 1009 1600 663 
Q 1675 925 1809 1294 
L 2547 3319 
L 3125 3319 
L 1869 0 
L 1344 0 
z
" transform="scale(0.015625)"/>
      <path id="ArialMT-65" d="M 2694 1069 
L 3275 997 
Q 3138 488 2766 206 
Q 2394 -75 1816 -75 
Q 1088 -75 661 373 
Q 234 822 234 1631 
Q 234 2469 665 2931 
Q 1097 3394 1784 3394 
Q 2450 3394 2872 2941 
Q 3294 2488 3294 1666 
Q 3294 1616 3291 1516 
L 816 1516 
Q 847 969 1125 678 
Q 1403 388 1819 388 
Q 2128 388 2347 550 
Q 2566 713 2694 1069 
z
M 847 1978 
L 2700 1978 
Q 2663 2397 2488 2606 
Q 2219 2931 1791 2931 
Q 1403 2931 1139 2672 
Q 875 2413 847 1978 
z
" transform="scale(0.015625)"/>
      <path id="ArialMT-72" d="M 416 0 
L 416 3319 
L 922 3319 
L 922 2816 
Q 1116 3169 1280 3281 
Q 1444 3394 1641 3394 
Q 1925 3394 2219 3213 
L 2025 2691 
Q 1819 2813 1613 2813 
Q 1428 2813 1281 2702 
Q 1134 2591 1072 2394 
Q 978 2094 978 1738 
L 978 0 
L 416 0 
z
" transform="scale(0.015625)"/>
      <path id="ArialMT-67" d="M 319 -275 
L 866 -356 
Q 900 -609 1056 -725 
Q 1266 -881 1628 -881 
Q 2019 -881 2231 -725 
Q 2444 -569 2519 -288 
Q 2563 -116 2559 434 
Q 2191 0 1641 0 
Q 956 0 581 494 
Q 206 988 206 1678 
Q 206 2153 378 2554 
Q 550 2956 876 3175 
Q 1203 3394 1644 3394 
Q 2231 3394 2613 2919 
L 2613 3319 
L 3131 3319 
L 3131 450 
Q 3131 -325 2973 -648 
Q 2816 -972 2473 -1159 
Q 2131 -1347 1631 -1347 
Q 1038 -1347 672 -1080 
Q 306 -813 319 -275 
z
M 784 1719 
Q 784 1066 1043 766 
Q 1303 466 1694 466 
Q 2081 466 2343 764 
Q 2606 1063 2606 1700 
Q 2606 2309 2336 2618 
Q 2066 2928 1684 2928 
Q 1309 2928 1046 2623 
Q 784 2319 784 1719 
z
" transform="scale(0.015625)"/>
      <path id="ArialMT-20" transform="scale(0.015625)"/>
      <path id="ArialMT-75" d="M 2597 0 
L 2597 488 
Q 2209 -75 1544 -75 
Q 1250 -75 995 37 
Q 741 150 617 320 
Q 494 491 444 738 
Q 409 903 409 1263 
L 409 3319 
L 972 3319 
L 972 1478 
Q 972 1038 1006 884 
Q 1059 663 1231 536 
Q 1403 409 1656 409 
Q 1909 409 2131 539 
Q 2353 669 2445 892 
Q 2538 1116 2538 1541 
L 2538 3319 
L 3100 3319 
L 3100 0 
L 2597 0 
z
" transform="scale(0.015625)"/>
      <path id="ArialMT-64" d="M 2575 0 
L 2575 419 
Q 2259 -75 1647 -75 
Q 1250 -75 917 144 
Q 584 363 401 755 
Q 219 1147 219 1656 
Q 219 2153 384 2558 
Q 550 2963 881 3178 
Q 1213 3394 1622 3394 
Q 1922 3394 2156 3267 
Q 2391 3141 2538 2938 
L 2538 4581 
L 3097 4581 
L 3097 0 
L 2575 0 
z
M 797 1656 
Q 797 1019 1065 703 
Q 1334 388 1700 388 
Q 2069 388 2326 689 
Q 2584 991 2584 1609 
Q 2584 2291 2321 2609 
Q 2059 2928 1675 2928 
Q 1300 2928 1048 2622 
Q 797 2316 797 1656 
z
" transform="scale(0.015625)"/>
      <path id="ArialMT-69" d="M 425 3934 
L 425 4581 
L 988 4581 
L 988 3934 
L 425 3934 
z
M 425 0 
L 425 3319 
L 988 3319 
L 988 0 
L 425 0 
z
" transform="scale(0.015625)"/>
      <path id="ArialMT-63" d="M 2588 1216 
L 3141 1144 
Q 3050 572 2676 248 
Q 2303 -75 1759 -75 
Q 1078 -75 664 370 
Q 250 816 250 1647 
Q 250 2184 428 2587 
Q 606 2991 970 3192 
Q 1334 3394 1763 3394 
Q 2303 3394 2647 3120 
Q 2991 2847 3088 2344 
L 2541 2259 
Q 2463 2594 2264 2762 
Q 2066 2931 1784 2931 
Q 1359 2931 1093 2626 
Q 828 2322 828 1663 
Q 828 994 1084 691 
Q 1341 388 1753 388 
Q 2084 388 2306 591 
Q 2528 794 2588 1216 
z
" transform="scale(0.015625)"/>
      <path id="ArialMT-74" d="M 1650 503 
L 1731 6 
Q 1494 -44 1306 -44 
Q 1000 -44 831 53 
Q 663 150 594 308 
Q 525 466 525 972 
L 525 2881 
L 113 2881 
L 113 3319 
L 525 3319 
L 525 4141 
L 1084 4478 
L 1084 3319 
L 1650 3319 
L 1650 2881 
L 1084 2881 
L 1084 941 
Q 1084 700 1114 631 
Q 1144 563 1211 522 
Q 1278 481 1403 481 
Q 1497 481 1650 503 
z
" transform="scale(0.015625)"/>
      <path id="ArialMT-6f" d="M 213 1659 
Q 213 2581 725 3025 
Q 1153 3394 1769 3394 
Q 2453 3394 2887 2945 
Q 3322 2497 3322 1706 
Q 3322 1066 3130 698 
Q 2938 331 2570 128 
Q 2203 -75 1769 -75 
Q 1072 -75 642 372 
Q 213 819 213 1659 
z
M 791 1659 
Q 791 1022 1069 705 
Q 1347 388 1769 388 
Q 2188 388 2466 706 
Q 2744 1025 2744 1678 
Q 2744 2294 2464 2611 
Q 2184 2928 1769 2928 
Q 1347 2928 1069 2612 
Q 791 2297 791 1659 
z
" transform="scale(0.015625)"/>
      <path id="ArialMT-6e" d="M 422 0 
L 422 3319 
L 928 3319 
L 928 2847 
Q 1294 3394 1984 3394 
Q 2284 3394 2536 3286 
Q 2788 3178 2913 3003 
Q 3038 2828 3088 2588 
Q 3119 2431 3119 2041 
L 3119 0 
L 2556 0 
L 2556 2019 
Q 2556 2363 2490 2533 
Q 2425 2703 2258 2804 
Q 2091 2906 1866 2906 
Q 1506 2906 1245 2678 
Q 984 2450 984 1813 
L 984 0 
L 422 0 
z
" transform="scale(0.015625)"/>
     </defs>
     <use xlink:href="#ArialMT-41"/>
     <use xlink:href="#ArialMT-76" x="64.949219"/>
     <use xlink:href="#ArialMT-65" x="114.949219"/>
     <use xlink:href="#ArialMT-72" x="170.564453"/>
     <use xlink:href="#ArialMT-61" x="203.865234"/>
     <use xlink:href="#ArialMT-67" x="259.480469"/>
     <use xlink:href="#ArialMT-65" x="315.095703"/>
     <use xlink:href="#ArialMT-20" x="370.710938"/>
     <use xlink:href="#ArialMT-50" x="398.494141"/>
     <use xlink:href="#ArialMT-72" x="465.193359"/>
     <use xlink:href="#ArialMT-65" x="498.494141"/>
     <use xlink:href="#ArialMT-73" x="554.109375"/>
     <use xlink:href="#ArialMT-73" x="604.109375"/>
     <use xlink:href="#ArialMT-75" x="654.109375"/>
     <use xlink:href="#ArialMT-72" x="709.724609"/>
     <use xlink:href="#ArialMT-65" x="743.025391"/>
     <use xlink:href="#ArialMT-20" x="798.640625"/>
     <use xlink:href="#ArialMT-50" x="826.423828"/>
     <use xlink:href="#ArialMT-72" x="893.123047"/>
     <use xlink:href="#ArialMT-65" x="926.423828"/>
     <use xlink:href="#ArialMT-64" x="982.039062"/>
     <use xlink:href="#ArialMT-69" x="1037.654297"/>
     <use xlink:href="#ArialMT-63" x="1059.871094"/>
     <use xlink:href="#ArialMT-74" x="1109.871094"/>
     <use xlink:href="#ArialMT-69" x="1137.654297"/>
     <use xlink:href="#ArialMT-6f" x="1159.871094"/>
     <use xlink:href="#ArialMT-6e" x="1215.486328"/>
     <use xlink:href="#ArialMT-20" x="1271.101562"/>
     <use xlink:href="#ArialMT-35" x="1298.884766"/>
     <use xlink:href="#ArialMT-31" x="1354.5"/>
     <use xlink:href="#ArialMT-20" x="1410.115234"/>
     <use xlink:href="#ArialMT-44" x="1437.898438"/>
     <use xlink:href="#ArialMT-61" x="1510.115234"/>
     <use xlink:href="#ArialMT-79" x="1565.730469"/>
     <use xlink:href="#ArialMT-73" x="1615.730469"/>
     <use xlink:href="#ArialMT-20" x="1665.730469"/>
     <use xlink:href="#ArialMT-41" x="1688.013672"/>
     <use xlink:href="#ArialMT-68" x="1754.712891"/>
     <use xlink:href="#ArialMT-65" x="1810.328125"/>
     <use xlink:href="#ArialMT-61" x="1865.943359"/>
     <use xlink:href="#ArialMT-64" x="1921.558594"/>
    </g>
   </g>
   <g id="legend_1">
    <g id="patch_7">
     <path d="M 437.15625 88.130625 
L 511.4 88.130625 
Q 513.4 88.130625 513.4 86.130625 
L 513.4 58.84 
Q 513.4 56.84 511.4 56.84 
L 437.15625 56.84 
Q 435.15625 56.84 435.15625 58.84 
L 435.15625 86.130625 
Q 435.15625 88.130625 437.15625 88.130625 
z
" style="fill: #eaeaf2; opacity: 0.8; stroke: #cccccc; stroke-linejoin: miter"/>
    </g>
    <g id="line2d_16">
     <path d="M 439.15625 64.497812 
L 449.15625 64.497812 
L 459.15625 64.497812 
" style="fill: none; stroke: #1f77b4; stroke-width: 1.5; stroke-linecap: round"/>
    </g>
    <g id="text_17">
     <!-- Real -->
     <g style="fill: #262626" transform="translate(467.15625 67.997812) scale(0.1 -0.1)">
      <defs>
       <path id="ArialMT-52" d="M 503 0 
L 503 4581 
L 2534 4581 
Q 3147 4581 3465 4457 
Q 3784 4334 3975 4021 
Q 4166 3709 4166 3331 
Q 4166 2844 3850 2509 
Q 3534 2175 2875 2084 
Q 3116 1969 3241 1856 
Q 3506 1613 3744 1247 
L 4541 0 
L 3778 0 
L 3172 953 
Q 2906 1366 2734 1584 
Q 2563 1803 2427 1890 
Q 2291 1978 2150 2013 
Q 2047 2034 1813 2034 
L 1109 2034 
L 1109 0 
L 503 0 
z
M 1109 2559 
L 2413 2559 
Q 2828 2559 3062 2645 
Q 3297 2731 3419 2920 
Q 3541 3109 3541 3331 
Q 3541 3656 3305 3865 
Q 3069 4075 2559 4075 
L 1109 4075 
L 1109 2559 
z
" transform="scale(0.015625)"/>
       <path id="ArialMT-6c" d="M 409 0 
L 409 4581 
L 972 4581 
L 972 0 
L 409 0 
z
" transform="scale(0.015625)"/>
      </defs>
      <use xlink:href="#ArialMT-52"/>
      <use xlink:href="#ArialMT-65" x="72.216797"/>
      <use xlink:href="#ArialMT-61" x="127.832031"/>
      <use xlink:href="#ArialMT-6c" x="183.447266"/>
     </g>
    </g>
    <g id="line2d_17">
     <path d="M 439.15625 78.643125 
L 449.15625 78.643125 
L 459.15625 78.643125 
" style="fill: none; stroke: #ff7f0e; stroke-width: 1.5; stroke-linecap: round"/>
    </g>
    <g id="text_18">
     <!-- Predicted -->
     <g style="fill: #262626" transform="translate(467.15625 82.143125) scale(0.1 -0.1)">
      <use xlink:href="#ArialMT-50"/>
      <use xlink:href="#ArialMT-72" x="66.699219"/>
      <use xlink:href="#ArialMT-65" x="100"/>
      <use xlink:href="#ArialMT-64" x="155.615234"/>
      <use xlink:href="#ArialMT-69" x="211.230469"/>
      <use xlink:href="#ArialMT-63" x="233.447266"/>
      <use xlink:href="#ArialMT-74" x="283.447266"/>
      <use xlink:href="#ArialMT-65" x="311.230469"/>
      <use xlink:href="#ArialMT-64" x="366.845703"/>
     </g>
    </g>
   </g>
  </g>
 </g>
 <defs>
  <clipPath id="p7bfe803c25">
   <rect x="72" y="51.84" width="446.4" height="332.64"/>
  </clipPath>
 </defs>
</svg>
