<?xml version="1.0" encoding="utf-8" standalone="no"?>
<!DOCTYPE svg PUBLIC "-//W3C//DTD SVG 1.1//EN"
  "http://www.w3.org/Graphics/SVG/1.1/DTD/svg11.dtd">
<svg xmlns:xlink="http://www.w3.org/1999/xlink" width="576pt" height="432pt" viewBox="0 0 576 432" xmlns="http://www.w3.org/2000/svg" version="1.1">
 <metadata>
  <rdf:RDF xmlns:dc="http://purl.org/dc/elements/1.1/" xmlns:cc="http://creativecommons.org/ns#" xmlns:rdf="http://www.w3.org/1999/02/22-rdf-syntax-ns#">
   <cc:Work>
    <dc:type rdf:resource="http://purl.org/dc/dcmitype/StillImage"/>
    <dc:date>2023-11-17T05:12:16.305992</dc:date>
    <dc:format>image/svg+xml</dc:format>
    <dc:creator>
     <cc:Agent>
      <dc:title>Matplotlib v3.8.0, https://matplotlib.org/</dc:title>
     </cc:Agent>
    </dc:creator>
   </cc:Work>
  </rdf:RDF>
 </metadata>
 <defs>
  <style type="text/css">*{stroke-linejoin: round; stroke-linecap: butt}</style>
 </defs>
 <g id="figure_1">
  <g id="patch_1">
   <path d="M 0 432 
L 576 432 
L 576 0 
L 0 0 
z
" style="fill: #ffffff"/>
  </g>
  <g id="axes_1">
   <g id="patch_2">
    <path d="M 72 384.48 
L 518.4 384.48 
L 518.4 51.84 
L 72 51.84 
z
" style="fill: #eaeaf2"/>
   </g>
   <g id="matplotlib.axis_1">
    <g id="xtick_1">
     <g id="line2d_1">
      <path d="M 92.290909 384.48 
L 92.290909 51.84 
" clip-path="url(#pd6becee1f7)" style="fill: none; stroke: #ffffff; stroke-width: 0.8; stroke-linecap: round"/>
     </g>
     <g id="text_1">
      <!-- 0 -->
      <g style="fill: #262626" transform="translate(89.51044 398.637812) scale(0.1 -0.1)">
       <defs>
        <path id="ArialMT-30" d="M 266 2259 
Q 266 3072 433 3567 
Q 600 4063 929 4331 
Q 1259 4600 1759 4600 
Q 2128 4600 2406 4451 
Q 2684 4303 2865 4023 
Q 3047 3744 3150 3342 
Q 3253 2941 3253 2259 
Q 3253 1453 3087 958 
Q 2922 463 2592 192 
Q 2263 -78 1759 -78 
Q 1097 -78 719 397 
Q 266 969 266 2259 
z
M 844 2259 
Q 844 1131 1108 757 
Q 1372 384 1759 384 
Q 2147 384 2411 759 
Q 2675 1134 2675 2259 
Q 2675 3391 2411 3762 
Q 2147 4134 1753 4134 
Q 1366 4134 1134 3806 
Q 844 3388 844 2259 
z
" transform="scale(0.015625)"/>
       </defs>
       <use xlink:href="#ArialMT-30"/>
      </g>
     </g>
    </g>
    <g id="xtick_2">
     <g id="line2d_2">
      <path d="M 191.030126 384.48 
L 191.030126 51.84 
" clip-path="url(#pd6becee1f7)" style="fill: none; stroke: #ffffff; stroke-width: 0.8; stroke-linecap: round"/>
     </g>
     <g id="text_2">
      <!-- 200 -->
      <g style="fill: #262626" transform="translate(182.68872 398.637812) scale(0.1 -0.1)">
       <defs>
        <path id="ArialMT-32" d="M 3222 541 
L 3222 0 
L 194 0 
Q 188 203 259 391 
Q 375 700 629 1000 
Q 884 1300 1366 1694 
Q 2113 2306 2375 2664 
Q 2638 3022 2638 3341 
Q 2638 3675 2398 3904 
Q 2159 4134 1775 4134 
Q 1369 4134 1125 3890 
Q 881 3647 878 3216 
L 300 3275 
Q 359 3922 746 4261 
Q 1134 4600 1788 4600 
Q 2447 4600 2831 4234 
Q 3216 3869 3216 3328 
Q 3216 3053 3103 2787 
Q 2991 2522 2730 2228 
Q 2469 1934 1863 1422 
Q 1356 997 1212 845 
Q 1069 694 975 541 
L 3222 541 
z
" transform="scale(0.015625)"/>
       </defs>
       <use xlink:href="#ArialMT-32"/>
       <use xlink:href="#ArialMT-30" x="55.615234"/>
       <use xlink:href="#ArialMT-30" x="111.230469"/>
      </g>
     </g>
    </g>
    <g id="xtick_3">
     <g id="line2d_3">
      <path d="M 289.769343 384.48 
L 289.769343 51.84 
" clip-path="url(#pd6becee1f7)" style="fill: none; stroke: #ffffff; stroke-width: 0.8; stroke-linecap: round"/>
     </g>
     <g id="text_3">
      <!-- 400 -->
      <g style="fill: #262626" transform="translate(281.427937 398.637812) scale(0.1 -0.1)">
       <defs>
        <path id="ArialMT-34" d="M 2069 0 
L 2069 1097 
L 81 1097 
L 81 1613 
L 2172 4581 
L 2631 4581 
L 2631 1613 
L 3250 1613 
L 3250 1097 
L 2631 1097 
L 2631 0 
L 2069 0 
z
M 2069 1613 
L 2069 3678 
L 634 1613 
L 2069 1613 
z
" transform="scale(0.015625)"/>
       </defs>
       <use xlink:href="#ArialMT-34"/>
       <use xlink:href="#ArialMT-30" x="55.615234"/>
       <use xlink:href="#ArialMT-30" x="111.230469"/>
      </g>
     </g>
    </g>
    <g id="xtick_4">
     <g id="line2d_4">
      <path d="M 388.50856 384.48 
L 388.50856 51.84 
" clip-path="url(#pd6becee1f7)" style="fill: none; stroke: #ffffff; stroke-width: 0.8; stroke-linecap: round"/>
     </g>
     <g id="text_4">
      <!-- 600 -->
      <g style="fill: #262626" transform="translate(380.167154 398.637812) scale(0.1 -0.1)">
       <defs>
        <path id="ArialMT-36" d="M 3184 3459 
L 2625 3416 
Q 2550 3747 2413 3897 
Q 2184 4138 1850 4138 
Q 1581 4138 1378 3988 
Q 1113 3794 959 3422 
Q 806 3050 800 2363 
Q 1003 2672 1297 2822 
Q 1591 2972 1913 2972 
Q 2475 2972 2870 2558 
Q 3266 2144 3266 1488 
Q 3266 1056 3080 686 
Q 2894 316 2569 119 
Q 2244 -78 1831 -78 
Q 1128 -78 684 439 
Q 241 956 241 2144 
Q 241 3472 731 4075 
Q 1159 4600 1884 4600 
Q 2425 4600 2770 4297 
Q 3116 3994 3184 3459 
z
M 888 1484 
Q 888 1194 1011 928 
Q 1134 663 1356 523 
Q 1578 384 1822 384 
Q 2178 384 2434 671 
Q 2691 959 2691 1453 
Q 2691 1928 2437 2201 
Q 2184 2475 1800 2475 
Q 1419 2475 1153 2201 
Q 888 1928 888 1484 
z
" transform="scale(0.015625)"/>
       </defs>
       <use xlink:href="#ArialMT-36"/>
       <use xlink:href="#ArialMT-30" x="55.615234"/>
       <use xlink:href="#ArialMT-30" x="111.230469"/>
      </g>
     </g>
    </g>
    <g id="xtick_5">
     <g id="line2d_5">
      <path d="M 487.247777 384.48 
L 487.247777 51.84 
" clip-path="url(#pd6becee1f7)" style="fill: none; stroke: #ffffff; stroke-width: 0.8; stroke-linecap: round"/>
     </g>
     <g id="text_5">
      <!-- 800 -->
      <g style="fill: #262626" transform="translate(478.906371 398.637812) scale(0.1 -0.1)">
       <defs>
        <path id="ArialMT-38" d="M 1131 2484 
Q 781 2613 612 2850 
Q 444 3088 444 3419 
Q 444 3919 803 4259 
Q 1163 4600 1759 4600 
Q 2359 4600 2725 4251 
Q 3091 3903 3091 3403 
Q 3091 3084 2923 2848 
Q 2756 2613 2416 2484 
Q 2838 2347 3058 2040 
Q 3278 1734 3278 1309 
Q 3278 722 2862 322 
Q 2447 -78 1769 -78 
Q 1091 -78 675 323 
Q 259 725 259 1325 
Q 259 1772 486 2073 
Q 713 2375 1131 2484 
z
M 1019 3438 
Q 1019 3113 1228 2906 
Q 1438 2700 1772 2700 
Q 2097 2700 2305 2904 
Q 2513 3109 2513 3406 
Q 2513 3716 2298 3927 
Q 2084 4138 1766 4138 
Q 1444 4138 1231 3931 
Q 1019 3725 1019 3438 
z
M 838 1322 
Q 838 1081 952 856 
Q 1066 631 1291 507 
Q 1516 384 1775 384 
Q 2178 384 2440 643 
Q 2703 903 2703 1303 
Q 2703 1709 2433 1975 
Q 2163 2241 1756 2241 
Q 1359 2241 1098 1978 
Q 838 1716 838 1322 
z
" transform="scale(0.015625)"/>
       </defs>
       <use xlink:href="#ArialMT-38"/>
       <use xlink:href="#ArialMT-30" x="55.615234"/>
       <use xlink:href="#ArialMT-30" x="111.230469"/>
      </g>
     </g>
    </g>
    <g id="text_6">
     <!-- Days -->
     <g style="fill: #262626" transform="translate(283.808594 411.783125) scale(0.1 -0.1)">
      <defs>
       <path id="ArialMT-44" d="M 494 0 
L 494 4581 
L 2072 4581 
Q 2606 4581 2888 4516 
Q 3281 4425 3559 4188 
Q 3922 3881 4101 3404 
Q 4281 2928 4281 2316 
Q 4281 1794 4159 1391 
Q 4038 988 3847 723 
Q 3656 459 3429 307 
Q 3203 156 2883 78 
Q 2563 0 2147 0 
L 494 0 
z
M 1100 541 
L 2078 541 
Q 2531 541 2789 625 
Q 3047 709 3200 863 
Q 3416 1078 3536 1442 
Q 3656 1806 3656 2325 
Q 3656 3044 3420 3430 
Q 3184 3816 2847 3947 
Q 2603 4041 2063 4041 
L 1100 4041 
L 1100 541 
z
" transform="scale(0.015625)"/>
       <path id="ArialMT-61" d="M 2588 409 
Q 2275 144 1986 34 
Q 1697 -75 1366 -75 
Q 819 -75 525 192 
Q 231 459 231 875 
Q 231 1119 342 1320 
Q 453 1522 633 1644 
Q 813 1766 1038 1828 
Q 1203 1872 1538 1913 
Q 2219 1994 2541 2106 
Q 2544 2222 2544 2253 
Q 2544 2597 2384 2738 
Q 2169 2928 1744 2928 
Q 1347 2928 1158 2789 
Q 969 2650 878 2297 
L 328 2372 
Q 403 2725 575 2942 
Q 747 3159 1072 3276 
Q 1397 3394 1825 3394 
Q 2250 3394 2515 3294 
Q 2781 3194 2906 3042 
Q 3031 2891 3081 2659 
Q 3109 2516 3109 2141 
L 3109 1391 
Q 3109 606 3145 398 
Q 3181 191 3288 0 
L 2700 0 
Q 2613 175 2588 409 
z
M 2541 1666 
Q 2234 1541 1622 1453 
Q 1275 1403 1131 1340 
Q 988 1278 909 1158 
Q 831 1038 831 891 
Q 831 666 1001 516 
Q 1172 366 1500 366 
Q 1825 366 2078 508 
Q 2331 650 2450 897 
Q 2541 1088 2541 1459 
L 2541 1666 
z
" transform="scale(0.015625)"/>
       <path id="ArialMT-79" d="M 397 -1278 
L 334 -750 
Q 519 -800 656 -800 
Q 844 -800 956 -737 
Q 1069 -675 1141 -563 
Q 1194 -478 1313 -144 
Q 1328 -97 1363 -6 
L 103 3319 
L 709 3319 
L 1400 1397 
Q 1534 1031 1641 628 
Q 1738 1016 1872 1384 
L 2581 3319 
L 3144 3319 
L 1881 -56 
Q 1678 -603 1566 -809 
Q 1416 -1088 1222 -1217 
Q 1028 -1347 759 -1347 
Q 597 -1347 397 -1278 
z
" transform="scale(0.015625)"/>
       <path id="ArialMT-73" d="M 197 991 
L 753 1078 
Q 800 744 1014 566 
Q 1228 388 1613 388 
Q 2000 388 2187 545 
Q 2375 703 2375 916 
Q 2375 1106 2209 1216 
Q 2094 1291 1634 1406 
Q 1016 1563 777 1677 
Q 538 1791 414 1992 
Q 291 2194 291 2438 
Q 291 2659 392 2848 
Q 494 3038 669 3163 
Q 800 3259 1026 3326 
Q 1253 3394 1513 3394 
Q 1903 3394 2198 3281 
Q 2494 3169 2634 2976 
Q 2775 2784 2828 2463 
L 2278 2388 
Q 2241 2644 2061 2787 
Q 1881 2931 1553 2931 
Q 1166 2931 1000 2803 
Q 834 2675 834 2503 
Q 834 2394 903 2306 
Q 972 2216 1119 2156 
Q 1203 2125 1616 2013 
Q 2213 1853 2448 1751 
Q 2684 1650 2818 1456 
Q 2953 1263 2953 975 
Q 2953 694 2789 445 
Q 2625 197 2315 61 
Q 2006 -75 1616 -75 
Q 969 -75 630 194 
Q 291 463 197 991 
z
" transform="scale(0.015625)"/>
      </defs>
      <use xlink:href="#ArialMT-44"/>
      <use xlink:href="#ArialMT-61" x="72.216797"/>
      <use xlink:href="#ArialMT-79" x="127.832031"/>
      <use xlink:href="#ArialMT-73" x="177.832031"/>
     </g>
    </g>
   </g>
   <g id="matplotlib.axis_2">
    <g id="ytick_1">
     <g id="line2d_6">
      <path d="M 72 369.107579 
L 518.4 369.107579 
" clip-path="url(#pd6becee1f7)" style="fill: none; stroke: #ffffff; stroke-width: 0.8; stroke-linecap: round"/>
     </g>
     <g id="text_7">
      <!-- 0 -->
      <g style="fill: #262626" transform="translate(59.439062 372.686486) scale(0.1 -0.1)">
       <use xlink:href="#ArialMT-30"/>
      </g>
     </g>
    </g>
    <g id="ytick_2">
     <g id="line2d_7">
      <path d="M 72 318.623439 
L 518.4 318.623439 
" clip-path="url(#pd6becee1f7)" style="fill: none; stroke: #ffffff; stroke-width: 0.8; stroke-linecap: round"/>
     </g>
     <g id="text_8">
      <!-- 200 -->
      <g style="fill: #262626" transform="translate(48.317188 322.202345) scale(0.1 -0.1)">
       <use xlink:href="#ArialMT-32"/>
       <use xlink:href="#ArialMT-30" x="55.615234"/>
       <use xlink:href="#ArialMT-30" x="111.230469"/>
      </g>
     </g>
    </g>
    <g id="ytick_3">
     <g id="line2d_8">
      <path d="M 72 268.139299 
L 518.4 268.139299 
" clip-path="url(#pd6becee1f7)" style="fill: none; stroke: #ffffff; stroke-width: 0.8; stroke-linecap: round"/>
     </g>
     <g id="text_9">
      <!-- 400 -->
      <g style="fill: #262626" transform="translate(48.317188 271.718205) scale(0.1 -0.1)">
       <use xlink:href="#ArialMT-34"/>
       <use xlink:href="#ArialMT-30" x="55.615234"/>
       <use xlink:href="#ArialMT-30" x="111.230469"/>
      </g>
     </g>
    </g>
    <g id="ytick_4">
     <g id="line2d_9">
      <path d="M 72 217.655159 
L 518.4 217.655159 
" clip-path="url(#pd6becee1f7)" style="fill: none; stroke: #ffffff; stroke-width: 0.8; stroke-linecap: round"/>
     </g>
     <g id="text_10">
      <!-- 600 -->
      <g style="fill: #262626" transform="translate(48.317188 221.234065) scale(0.1 -0.1)">
       <use xlink:href="#ArialMT-36"/>
       <use xlink:href="#ArialMT-30" x="55.615234"/>
       <use xlink:href="#ArialMT-30" x="111.230469"/>
      </g>
     </g>
    </g>
    <g id="ytick_5">
     <g id="line2d_10">
      <path d="M 72 167.171018 
L 518.4 167.171018 
" clip-path="url(#pd6becee1f7)" style="fill: none; stroke: #ffffff; stroke-width: 0.8; stroke-linecap: round"/>
     </g>
     <g id="text_11">
      <!-- 800 -->
      <g style="fill: #262626" transform="translate(48.317188 170.749925) scale(0.1 -0.1)">
       <use xlink:href="#ArialMT-38"/>
       <use xlink:href="#ArialMT-30" x="55.615234"/>
       <use xlink:href="#ArialMT-30" x="111.230469"/>
      </g>
     </g>
    </g>
    <g id="ytick_6">
     <g id="line2d_11">
      <path d="M 72 116.686878 
L 518.4 116.686878 
" clip-path="url(#pd6becee1f7)" style="fill: none; stroke: #ffffff; stroke-width: 0.8; stroke-linecap: round"/>
     </g>
     <g id="text_12">
      <!-- 1000 -->
      <g style="fill: #262626" transform="translate(42.75625 120.265784) scale(0.1 -0.1)">
       <defs>
        <path id="ArialMT-31" d="M 2384 0 
L 1822 0 
L 1822 3584 
Q 1619 3391 1289 3197 
Q 959 3003 697 2906 
L 697 3450 
Q 1169 3672 1522 3987 
Q 1875 4303 2022 4600 
L 2384 4600 
L 2384 0 
z
" transform="scale(0.015625)"/>
       </defs>
       <use xlink:href="#ArialMT-31"/>
       <use xlink:href="#ArialMT-30" x="55.615234"/>
       <use xlink:href="#ArialMT-30" x="111.230469"/>
       <use xlink:href="#ArialMT-30" x="166.845703"/>
      </g>
     </g>
    </g>
    <g id="ytick_7">
     <g id="line2d_12">
      <path d="M 72 66.202738 
L 518.4 66.202738 
" clip-path="url(#pd6becee1f7)" style="fill: none; stroke: #ffffff; stroke-width: 0.8; stroke-linecap: round"/>
     </g>
     <g id="text_13">
      <!-- 1200 -->
      <g style="fill: #262626" transform="translate(42.75625 69.781644) scale(0.1 -0.1)">
       <use xlink:href="#ArialMT-31"/>
       <use xlink:href="#ArialMT-32" x="55.615234"/>
       <use xlink:href="#ArialMT-30" x="111.230469"/>
       <use xlink:href="#ArialMT-30" x="166.845703"/>
      </g>
     </g>
    </g>
    <g id="text_14">
     <!-- (W/m^2) -->
     <g style="fill: #262626" transform="translate(36.651562 236.889687) rotate(-90) scale(0.1 -0.1)">
      <defs>
       <path id="ArialMT-28" d="M 1497 -1347 
Q 1031 -759 709 28 
Q 388 816 388 1659 
Q 388 2403 628 3084 
Q 909 3875 1497 4659 
L 1900 4659 
Q 1522 4009 1400 3731 
Q 1209 3300 1100 2831 
Q 966 2247 966 1656 
Q 966 153 1900 -1347 
L 1497 -1347 
z
" transform="scale(0.015625)"/>
       <path id="ArialMT-57" d="M 1294 0 
L 78 4581 
L 700 4581 
L 1397 1578 
Q 1509 1106 1591 641 
Q 1766 1375 1797 1488 
L 2669 4581 
L 3400 4581 
L 4056 2263 
Q 4303 1400 4413 641 
Q 4500 1075 4641 1638 
L 5359 4581 
L 5969 4581 
L 4713 0 
L 4128 0 
L 3163 3491 
Q 3041 3928 3019 4028 
Q 2947 3713 2884 3491 
L 1913 0 
L 1294 0 
z
" transform="scale(0.015625)"/>
       <path id="ArialMT-2f" d="M 0 -78 
L 1328 4659 
L 1778 4659 
L 453 -78 
L 0 -78 
z
" transform="scale(0.015625)"/>
       <path id="ArialMT-6d" d="M 422 0 
L 422 3319 
L 925 3319 
L 925 2853 
Q 1081 3097 1340 3245 
Q 1600 3394 1931 3394 
Q 2300 3394 2536 3241 
Q 2772 3088 2869 2813 
Q 3263 3394 3894 3394 
Q 4388 3394 4653 3120 
Q 4919 2847 4919 2278 
L 4919 0 
L 4359 0 
L 4359 2091 
Q 4359 2428 4304 2576 
Q 4250 2725 4106 2815 
Q 3963 2906 3769 2906 
Q 3419 2906 3187 2673 
Q 2956 2441 2956 1928 
L 2956 0 
L 2394 0 
L 2394 2156 
Q 2394 2531 2256 2718 
Q 2119 2906 1806 2906 
Q 1569 2906 1367 2781 
Q 1166 2656 1075 2415 
Q 984 2175 984 1722 
L 984 0 
L 422 0 
z
" transform="scale(0.015625)"/>
       <path id="ArialMT-5e" d="M 747 2156 
L 169 2156 
L 1272 4659 
L 1725 4659 
L 2834 2156 
L 2269 2156 
L 1497 4022 
L 747 2156 
z
" transform="scale(0.015625)"/>
       <path id="ArialMT-29" d="M 791 -1347 
L 388 -1347 
Q 1322 153 1322 1656 
Q 1322 2244 1188 2822 
Q 1081 3291 891 3722 
Q 769 4003 388 4659 
L 791 4659 
Q 1378 3875 1659 3084 
Q 1900 2403 1900 1659 
Q 1900 816 1576 28 
Q 1253 -759 791 -1347 
z
" transform="scale(0.015625)"/>
      </defs>
      <use xlink:href="#ArialMT-28"/>
      <use xlink:href="#ArialMT-57" x="33.300781"/>
      <use xlink:href="#ArialMT-2f" x="127.685547"/>
      <use xlink:href="#ArialMT-6d" x="155.46875"/>
      <use xlink:href="#ArialMT-5e" x="238.769531"/>
      <use xlink:href="#ArialMT-32" x="285.693359"/>
      <use xlink:href="#ArialMT-29" x="341.308594"/>
     </g>
    </g>
   </g>
   <g id="line2d_13">
    <path d="M 92.290909 194.937295 
L 92.784605 207.810751 
L 93.278301 196.45182 
L 93.771997 342.603406 
L 94.265693 328.467846 
L 94.75939 173.733957 
L 95.253086 321.147646 
L 95.746782 120.725609 
L 96.240478 186.607412 
L 96.734174 151.268514 
L 97.22787 193.422771 
L 97.721566 329.477529 
L 98.215262 272.430451 
L 98.708958 156.82177 
L 99.69635 241.887546 
L 100.190046 203.267179 
L 100.683743 192.665509 
L 101.177439 305.749983 
L 101.671135 196.45182 
L 102.164831 209.830117 
L 103.152223 206.043806 
L 103.645919 206.043806 
L 104.139615 295.653155 
L 104.633311 341.593723 
L 105.127007 216.393055 
L 105.620703 298.682204 
L 106.114399 323.419432 
L 106.608096 218.664841 
L 107.101792 199.733289 
L 107.595488 195.442137 
L 108.089184 220.431786 
L 108.58288 203.519599 
L 109.076576 196.45182 
L 109.570272 197.461503 
L 110.063968 190.898564 
L 110.557664 168.937963 
L 111.05136 241.382705 
L 111.545056 208.820434 
L 112.532449 203.77202 
L 113.026145 202.509917 
L 113.519841 204.529282 
L 114.013537 203.267179 
L 114.507233 214.373689 
L 115.000929 217.655159 
L 115.494625 211.849482 
L 115.988321 197.713923 
L 116.482017 340.836461 
L 116.975713 319.380701 
L 117.469409 221.441469 
L 117.963106 273.944975 
L 118.456802 341.088881 
L 118.950498 207.558331 
L 119.444194 201.752654 
L 119.93789 205.538965 
L 120.431586 216.140634 
L 120.925282 207.558331 
L 121.418978 212.354324 
L 121.912674 340.58404 
L 122.40637 320.390384 
L 122.900066 200.490551 
L 123.393762 198.471185 
L 123.887459 337.05015 
L 124.874851 331.496895 
L 125.368547 213.616427 
L 125.862243 202.509917 
L 126.355939 170.704908 
L 126.849635 195.442137 
L 127.343331 190.898564 
L 127.837027 194.937295 
L 128.330723 176.258164 
L 128.824419 199.480868 
L 129.318115 196.956661 
L 129.811812 304.992721 
L 130.305508 332.506578 
L 130.799204 187.617095 
L 131.786596 188.121937 
L 132.280292 180.044474 
L 132.773988 184.588047 
L 133.267684 182.821102 
L 133.76138 148.996728 
L 134.255076 162.375025 
L 134.748772 207.30591 
L 135.242468 189.888881 
L 135.736165 201.500234 
L 136.229861 193.170351 
L 136.723557 289.090217 
L 137.217253 334.525943 
L 137.710949 245.926277 
L 138.204645 179.792053 
L 138.698341 311.80808 
L 139.192037 176.510584 
L 139.685733 158.336294 
L 140.179429 184.083205 
L 140.673125 181.054157 
L 141.166821 180.801736 
L 142.154214 196.956661 
L 142.64791 150.258831 
L 143.141606 139.657162 
L 143.635302 170.452487 
L 144.128998 171.714591 
L 144.622694 166.666177 
L 145.11639 165.404073 
L 145.610086 176.763005 
L 146.103782 178.52995 
L 146.597478 244.411753 
L 147.091175 166.666177 
L 147.584871 180.549316 
L 148.078567 167.171018 
L 148.572263 326.953322 
L 149.065959 284.041803 
L 149.559655 300.449149 
L 150.053351 161.617763 
L 150.547047 147.987045 
L 151.040743 141.171686 
L 152.028135 189.636461 
L 152.521831 158.083873 
L 153.015528 161.870184 
L 153.509224 120.473189 
L 154.00292 252.741636 
L 154.496616 173.481536 
L 154.990312 154.297563 
L 155.484008 204.276861 
L 155.977704 242.644808 
L 156.4714 196.45182 
L 156.965096 298.682204 
L 157.458792 211.09222 
L 157.952488 157.07419 
L 158.446184 148.491886 
L 158.939881 135.870851 
L 159.433577 308.02177 
L 159.927273 135.618431 
L 160.420969 169.947646 
L 160.914665 132.841803 
L 161.408361 143.695893 
L 161.902057 197.713923 
L 162.395753 235.324608 
L 162.889449 132.084541 
L 163.383145 87.658497 
L 163.876841 132.336962 
L 164.370537 143.695893 
L 164.864234 137.385376 
L 165.35793 147.734624 
L 165.851626 140.919265 
L 166.345322 137.890217 
L 166.839018 140.162003 
L 167.332714 148.239466 
L 167.82641 127.036127 
L 168.320106 139.404741 
L 168.813802 142.181369 
L 169.307498 121.230451 
L 169.801194 126.026444 
L 170.294891 154.549983 
L 170.788587 136.628114 
L 171.282283 131.327279 
L 171.775979 142.43379 
L 172.269675 150.511252 
L 172.763371 178.025109 
L 173.257067 158.841135 
L 173.750763 147.734624 
L 174.244459 129.055492 
L 174.738155 139.909583 
L 175.231851 145.210417 
L 175.725547 138.142638 
L 176.219244 247.440801 
L 176.71294 137.132955 
L 177.206636 147.734624 
L 177.700332 151.268514 
L 178.194028 152.530618 
L 178.687724 133.094224 
L 179.18142 151.773356 
L 179.675116 111.638464 
L 180.168812 115.929616 
L 180.662508 121.230451 
L 181.156204 145.210417 
L 181.6499 193.170351 
L 182.143597 100.784374 
L 182.637293 112.648147 
L 183.130989 92.454491 
L 183.624685 93.716594 
L 184.118381 147.987045 
L 184.612077 126.026444 
L 185.105773 125.774023 
L 185.599469 140.162003 
L 186.093165 148.491886 
L 186.586861 152.278197 
L 187.080557 140.666845 
L 187.574253 162.122604 
L 188.06795 150.763673 
L 188.561646 124.764341 
L 189.055342 106.59005 
L 189.549038 113.65783 
L 190.042734 144.453155 
L 190.53643 116.434457 
L 191.523822 195.694558 
L 192.017518 111.638464 
L 192.511214 121.987713 
L 193.00491 118.958664 
L 193.498607 116.686878 
L 193.992303 110.376361 
L 194.485999 132.589382 
L 194.979695 139.152321 
L 195.473391 138.395058 
L 195.967087 128.04581 
L 196.460783 134.861169 
L 196.954479 113.91025 
L 197.448175 109.871519 
L 197.941871 110.12394 
L 198.929263 138.647479 
L 199.42296 141.424107 
L 200.410352 119.463506 
L 200.904048 138.8999 
L 201.397744 88.41576 
L 201.89144 113.91025 
L 202.385136 148.239466 
L 202.878832 146.724942 
L 203.372528 109.871519 
L 203.866224 98.512588 
L 204.35992 204.276861 
L 204.853616 111.890885 
L 205.347313 111.638464 
L 205.841009 130.065175 
L 206.334705 129.560334 
L 206.828401 132.841803 
L 207.322097 138.647479 
L 207.815793 131.327279 
L 208.309489 113.152988 
L 208.803185 133.094224 
L 209.296881 146.724942 
L 210.284273 132.589382 
L 210.777969 143.191052 
L 211.271666 136.628114 
L 211.765362 136.123272 
L 212.259058 119.463506 
L 212.752754 109.871519 
L 213.24645 129.560334 
L 213.740146 107.599733 
L 214.233842 134.861169 
L 214.727538 129.307913 
L 215.221234 145.210417 
L 215.71493 143.948314 
L 216.208626 143.443472 
L 216.702322 143.191052 
L 217.196019 132.084541 
L 217.689715 129.307913 
L 218.183411 102.551319 
L 218.677107 96.240801 
L 219.170803 128.803072 
L 219.664499 127.036127 
L 220.158195 121.482871 
L 220.651891 141.928948 
L 221.145587 144.957997 
L 221.639283 141.424107 
L 222.132979 142.181369 
L 222.626676 141.676528 
L 223.120372 135.36601 
L 223.614068 94.473856 
L 224.107764 82.105242 
L 224.60146 134.608748 
L 225.095156 129.560334 
L 225.588852 148.744307 
L 226.576244 144.200735 
L 227.06994 145.967679 
L 227.563636 147.229783 
L 228.057332 146.977362 
L 228.551029 145.462838 
L 229.044725 150.006411 
L 229.538421 145.210417 
L 230.032117 150.763673 
L 230.525813 151.773356 
L 231.019509 155.307245 
L 231.513205 147.229783 
L 232.006901 146.2201 
L 232.500597 125.774023 
L 232.994293 142.938631 
L 233.487989 147.987045 
L 233.981685 98.260167 
L 234.475382 145.210417 
L 234.969078 144.200735 
L 235.462774 145.462838 
L 235.95647 138.142638 
L 236.450166 141.171686 
L 236.943862 146.724942 
L 237.437558 122.997396 
L 237.931254 137.385376 
L 238.42495 142.181369 
L 238.918646 205.791386 
L 239.412342 359.768013 
L 239.906038 369.107579 
L 240.399735 127.540968 
L 240.893431 118.201402 
L 241.387127 131.83212 
L 241.880823 110.376361 
L 242.374519 132.336962 
L 242.868215 129.560334 
L 243.361911 115.677195 
L 243.855607 149.249149 
L 244.349303 158.336294 
L 244.842999 151.773356 
L 245.336695 171.20975 
L 245.830392 138.142638 
L 246.324088 139.404741 
L 246.817784 163.132287 
L 247.31148 148.491886 
L 247.805176 137.385376 
L 248.298872 157.579032 
L 248.792568 158.083873 
L 249.286264 145.715259 
L 249.77996 144.957997 
L 250.273656 103.308581 
L 250.767352 128.29823 
L 251.261048 106.59005 
L 251.754745 140.666845 
L 252.248441 153.035459 
L 252.742137 158.083873 
L 253.235833 153.035459 
L 253.729529 134.861169 
L 254.223225 143.191052 
L 254.716921 172.471853 
L 255.210617 172.976694 
L 255.704313 144.957997 
L 256.198009 137.637796 
L 256.691705 177.015426 
L 257.185401 172.219432 
L 257.679098 177.772688 
L 258.172794 300.196728 
L 258.66649 172.471853 
L 259.160186 179.287212 
L 259.653882 169.695225 
L 260.147578 152.783038 
L 260.641274 150.511252 
L 261.13497 172.976694 
L 261.628666 163.132287 
L 262.122362 134.608748 
L 262.616058 147.482204 
L 263.109754 173.481536 
L 263.603451 179.034791 
L 264.097147 191.655826 
L 264.590843 170.452487 
L 265.084539 287.575693 
L 265.578235 200.995392 
L 266.071931 183.073523 
L 266.565627 199.733289 
L 267.059323 176.258164 
L 267.553019 197.209082 
L 268.046715 165.908915 
L 268.540411 200.742972 
L 269.034107 195.189716 
L 269.527804 292.119265 
L 270.0215 265.11025 
L 270.515196 250.46985 
L 271.008892 199.480868 
L 271.502588 330.992053 
L 271.996284 198.723606 
L 272.48998 198.723606 
L 272.983676 199.480868 
L 273.477372 194.180033 
L 273.971068 161.112922 
L 274.464764 172.471853 
L 274.958461 208.063172 
L 275.452157 194.684875 
L 275.945853 190.393723 
L 276.439549 198.976027 
L 276.933245 310.545977 
L 277.426941 203.77202 
L 277.920637 202.005075 
L 278.414333 196.956661 
L 278.908029 152.025776 
L 279.895421 218.664841 
L 280.389117 210.8398 
L 280.882814 205.791386 
L 281.37651 206.043806 
L 281.870206 217.150317 
L 282.363902 211.09222 
L 282.857598 215.130952 
L 283.351294 213.364007 
L 284.338686 223.208414 
L 284.832382 221.441469 
L 285.326078 304.992721 
L 285.819774 183.325943 
L 286.31347 219.926945 
L 286.807167 212.859165 
L 287.300863 214.62611 
L 287.794559 217.402738 
L 288.288255 169.695225 
L 288.781951 206.801068 
L 289.275647 193.927613 
L 290.263039 241.130284 
L 290.756735 324.681536 
L 291.250431 202.762337 
L 291.744127 204.276861 
L 292.237823 211.849482 
L 292.73152 212.859165 
L 293.225216 198.976027 
L 293.718912 297.4201 
L 294.212608 145.462838 
L 294.706304 214.878531 
L 295.2 206.043806 
L 295.693696 343.360668 
L 296.187392 319.633122 
L 296.681088 197.713923 
L 297.174784 199.228447 
L 297.66848 202.005075 
L 298.162177 199.98571 
L 298.655873 202.257496 
L 299.149569 202.005075 
L 299.643265 191.403406 
L 300.136961 200.995392 
L 300.630657 218.16 
L 301.124353 196.70424 
L 301.618049 190.393723 
L 302.111745 246.431119 
L 302.605441 217.655159 
L 303.099137 253.498898 
L 303.592833 305.749983 
L 304.08653 290.352321 
L 304.580226 195.946978 
L 305.073922 300.701569 
L 305.567618 243.149649 
L 306.061314 340.079199 
L 306.55501 254.00374 
L 307.048706 200.23813 
L 307.542402 167.171018 
L 308.036098 285.303907 
L 308.529794 192.91793 
L 309.02349 198.723606 
L 310.010883 190.646144 
L 310.504579 214.373689 
L 310.998275 197.461503 
L 311.491971 190.646144 
L 311.985667 207.810751 
L 312.479363 162.627446 
L 312.973059 167.171018 
L 313.466755 221.69389 
L 313.960451 190.141302 
L 314.454147 189.636461 
L 314.947843 195.189716 
L 315.441539 184.335626 
L 315.935236 194.432454 
L 316.428932 314.837129 
L 316.922628 270.411085 
L 317.416324 182.06384 
L 317.91002 299.439466 
L 318.403716 178.025109 
L 318.897412 166.918598 
L 319.391108 165.404073 
L 319.884804 169.947646 
L 320.3785 343.360668 
L 320.872196 340.58404 
L 321.365893 278.488548 
L 321.859589 150.258831 
L 322.353285 188.879199 
L 322.846981 169.190384 
L 323.340677 164.646811 
L 323.834373 161.870184 
L 324.328069 162.375025 
L 324.821765 159.850818 
L 325.315461 169.947646 
L 325.809157 166.413756 
L 326.302853 157.07419 
L 326.796549 193.170351 
L 327.290246 113.65783 
L 327.783942 161.365342 
L 328.771334 152.025776 
L 329.26503 189.888881 
L 329.758726 183.325943 
L 330.252422 254.508581 
L 330.746118 168.180701 
L 331.239814 155.812087 
L 331.73351 165.404073 
L 332.227206 165.908915 
L 332.720902 143.191052 
L 333.214599 173.733957 
L 333.708295 135.113589 
L 334.201991 140.414424 
L 334.695687 154.802404 
L 335.189383 283.284541 
L 335.683079 291.362003 
L 336.670471 142.181369 
L 337.164167 153.035459 
L 337.657863 154.045142 
L 338.151559 152.530618 
L 338.645255 155.054825 
L 339.138952 121.987713 
L 339.632648 327.205743 
L 340.126344 172.976694 
L 340.62004 139.657162 
L 341.113736 158.083873 
L 341.607432 148.996728 
L 342.101128 131.579699 
L 342.594824 229.518932 
L 343.08852 269.653823 
L 343.582216 189.888881 
L 344.075912 131.579699 
L 344.569608 141.676528 
L 345.063305 155.559666 
L 345.557001 162.375025 
L 346.050697 131.83212 
L 346.544393 129.560334 
L 347.038089 136.123272 
L 347.531785 163.889549 
L 348.025481 136.123272 
L 348.519177 256.527947 
L 349.012873 130.570017 
L 349.506569 114.415092 
L 350.000265 126.278865 
L 350.493962 142.938631 
L 350.987658 145.462838 
L 351.481354 146.977362 
L 351.97505 137.890217 
L 352.468746 134.103907 
L 352.962442 108.104574 
L 353.456138 128.550651 
L 353.949834 135.870851 
L 354.44353 140.666845 
L 354.937226 133.094224 
L 355.430922 121.735292 
L 355.924618 136.123272 
L 356.418315 137.637796 
L 356.912011 135.618431 
L 357.405707 137.385376 
L 357.899403 140.919265 
L 358.393099 106.59005 
L 358.886795 135.618431 
L 359.874187 66.96 
L 360.367883 114.919933 
L 360.861579 98.260167 
L 361.355275 128.803072 
L 361.848971 94.978698 
L 362.342668 111.386043 
L 362.836364 132.841803 
L 363.33006 133.599065 
L 363.823756 135.113589 
L 364.317452 134.356327 
L 364.811148 138.8999 
L 365.304844 121.482871 
L 365.79854 126.278865 
L 366.292236 132.589382 
L 366.785932 112.648147 
L 367.279628 115.677195 
L 367.773324 108.104574 
L 368.267021 78.823773 
L 368.760717 116.686878 
L 369.254413 115.677195 
L 369.748109 118.201402 
L 370.241805 99.52227 
L 370.735501 95.231119 
L 371.229197 130.822437 
L 371.722893 108.104574 
L 372.216589 122.240134 
L 372.710285 130.822437 
L 373.203981 111.890885 
L 373.697678 135.870851 
L 374.191374 134.356327 
L 374.68507 138.647479 
L 375.178766 116.686878 
L 375.672462 114.919933 
L 376.166158 335.535626 
L 376.659854 128.803072 
L 377.15355 129.812755 
L 378.140942 103.05616 
L 378.634638 100.027112 
L 379.128334 86.901235 
L 379.622031 138.647479 
L 380.115727 139.152321 
L 380.609423 104.318264 
L 381.103119 142.938631 
L 382.584207 131.327279 
L 383.077903 119.463506 
L 383.571599 86.648815 
L 384.065295 87.658497 
L 384.558991 142.181369 
L 385.546384 109.114257 
L 386.04008 189.636461 
L 386.533776 128.550651 
L 387.027472 153.035459 
L 387.521168 137.385376 
L 388.014864 137.637796 
L 388.50856 145.967679 
L 389.002256 142.938631 
L 389.495952 249.207746 
L 389.989648 142.68621 
L 390.483344 143.191052 
L 391.470737 138.142638 
L 391.964433 133.346644 
L 392.458129 134.608748 
L 392.951825 142.938631 
L 393.445521 141.676528 
L 393.939217 134.608748 
L 394.432913 114.919933 
L 394.926609 146.2201 
L 395.420305 132.841803 
L 395.914001 96.493222 
L 396.407697 125.016761 
L 396.901393 128.803072 
L 397.39509 117.696561 
L 397.888786 150.511252 
L 398.382482 249.965008 
L 398.876178 311.050818 
L 399.369874 291.614424 
L 399.86357 144.453155 
L 400.357266 129.055492 
L 400.850962 149.75399 
L 401.344658 90.182705 
L 401.838354 134.356327 
L 402.33205 136.123272 
L 402.825747 135.618431 
L 403.319443 127.288548 
L 403.813139 213.364007 
L 404.306835 86.396394 
L 404.800531 114.162671 
L 405.294227 133.851486 
L 405.787923 141.424107 
L 406.281619 142.68621 
L 406.775315 141.676528 
L 407.269011 141.424107 
L 407.762707 140.919265 
L 408.256403 144.200735 
L 408.7501 142.938631 
L 409.243796 157.07419 
L 409.737492 134.608748 
L 410.231188 146.472521 
L 410.724884 142.43379 
L 411.21858 118.706244 
L 411.712276 133.599065 
L 412.205972 128.803072 
L 412.699668 143.695893 
L 413.193364 148.239466 
L 413.68706 144.453155 
L 414.180756 149.75399 
L 414.674453 150.258831 
L 415.168149 211.09222 
L 415.661845 369.36 
L 416.155541 150.511252 
L 416.649237 134.103907 
L 417.142933 279.24581 
L 417.636629 351.18571 
L 418.130325 91.949649 
L 418.624021 113.65783 
L 419.117717 118.706244 
L 419.611413 356.991386 
L 420.105109 137.385376 
L 420.598806 153.792721 
L 421.092502 151.268514 
L 421.586198 129.307913 
L 422.079894 148.744307 
L 422.57359 111.133623 
L 423.067286 142.181369 
L 423.560982 137.890217 
L 424.054678 140.666845 
L 424.548374 133.094224 
L 425.04207 139.909583 
L 425.535766 131.579699 
L 426.029463 126.531285 
L 426.523159 139.152321 
L 427.016855 143.948314 
L 427.510551 145.967679 
L 428.004247 145.210417 
L 428.497943 131.83212 
L 428.991639 135.113589 
L 429.485335 127.540968 
L 429.979031 141.676528 
L 430.472727 140.414424 
L 430.966423 140.919265 
L 431.460119 113.91025 
L 431.953816 123.502237 
L 432.447512 102.551319 
L 432.941208 121.735292 
L 433.434904 151.268514 
L 433.9286 120.97803 
L 434.422296 125.269182 
L 434.915992 144.705576 
L 435.409688 147.229783 
L 435.903384 135.618431 
L 436.39708 148.996728 
L 436.890776 112.395726 
L 437.384472 130.822437 
L 437.878169 114.415092 
L 438.371865 107.599733 
L 439.359257 143.443472 
L 439.852953 143.695893 
L 440.346649 129.307913 
L 440.840345 102.80374 
L 441.334041 130.822437 
L 441.827737 112.395726 
L 442.321433 115.172354 
L 442.815129 147.229783 
L 443.308825 258.042471 
L 443.802522 232.043139 
L 444.296218 114.919933 
L 444.789914 150.763673 
L 445.28361 115.677195 
L 445.777306 143.443472 
L 446.271002 132.589382 
L 446.764698 151.773356 
L 447.258394 144.453155 
L 447.75209 148.996728 
L 448.245786 107.599733 
L 448.739482 126.026444 
L 449.233179 151.016093 
L 449.726875 127.793389 
L 450.220571 123.249816 
L 450.714267 151.520935 
L 451.207963 138.142638 
L 451.701659 137.637796 
L 452.195355 151.016093 
L 452.689051 158.588715 
L 453.182747 129.307913 
L 453.676443 133.851486 
L 454.170139 150.006411 
L 454.663835 144.200735 
L 455.157532 156.064508 
L 455.651228 159.598397 
L 456.144924 156.316928 
L 456.63862 133.851486 
L 457.132316 216.645476 
L 457.626012 252.741636 
L 458.119708 166.413756 
L 458.613404 297.4201 
L 459.1071 172.724274 
L 459.600796 296.157997 
L 460.094492 153.035459 
L 460.588188 283.536962 
L 461.081885 273.944975 
L 461.575581 175.500902 
L 462.069277 169.190384 
L 462.562973 176.258164 
L 463.056669 148.239466 
L 464.044061 174.99606 
L 464.537757 294.643472 
L 465.031453 170.704908 
L 465.525149 173.229115 
L 466.018845 172.976694 
L 466.512541 174.238798 
L 467.006238 202.257496 
L 467.499934 179.792053 
L 467.99363 178.025109 
L 468.487326 181.054157 
L 468.981022 173.481536 
L 469.474718 186.859833 
L 469.968414 187.617095 
L 470.46211 184.335626 
L 470.955806 242.644808 
L 471.449502 248.955326 
L 471.943198 315.846811 
L 472.436894 168.685543 
L 472.930591 188.626778 
L 473.424287 185.092888 
L 473.917983 185.092888 
L 474.411679 173.481536 
L 474.905375 150.006411 
L 475.399071 154.802404 
L 475.892767 199.228447 
L 476.386463 198.218765 
L 476.880159 172.976694 
L 477.373855 188.626778 
L 477.867551 195.946978 
L 478.361248 168.937963 
L 478.854944 315.594391 
L 479.34864 327.205743 
L 479.842336 332.758998 
L 480.336032 322.66217 
L 480.829728 335.030785 
L 481.323424 310.798397 
L 481.81712 305.245142 
L 482.310816 296.410417 
L 482.804512 205.538965 
L 483.298208 307.012087 
L 483.791904 199.480868 
L 484.285601 195.442137 
L 484.779297 204.529282 
L 485.272993 200.23813 
L 485.766689 226.742304 
L 486.260385 322.914591 
L 486.754081 220.179366 
L 487.247777 316.604073 
L 487.741473 368.602738 
L 488.235169 273.187713 
L 488.728865 216.140634 
L 489.222561 216.140634 
L 489.716257 215.635793 
L 490.209954 258.042471 
L 490.70365 247.693222 
L 491.197346 193.927613 
L 491.691042 208.315593 
L 492.184738 208.568013 
L 492.678434 217.907579 
L 493.17213 240.877863 
L 493.665826 332.254157 
L 494.159522 217.402738 
L 494.653218 197.713923 
L 495.146914 316.856494 
L 496.134307 257.537629 
L 496.628003 170.704908 
L 497.121699 186.607412 
L 497.615395 157.579032 
L 498.109091 172.219432 
L 498.109091 172.219432 
" clip-path="url(#pd6becee1f7)" style="fill: none; stroke: #1f77b4; stroke-width: 1.5; stroke-linecap: round"/>
   </g>
   <g id="line2d_14">
    <path d="M 92.290909 173.303708 
L 92.784605 173.755442 
L 93.278301 174.371523 
L 93.771997 174.79341 
L 94.75939 178.137235 
L 95.253086 178.249417 
L 95.746782 179.461666 
L 96.240478 178.980267 
L 96.734174 178.897331 
L 97.22787 178.311607 
L 97.721566 178.485314 
L 98.215262 180.250174 
L 98.708958 181.401318 
L 99.202654 181.112971 
L 99.69635 180.970014 
L 100.190046 181.556423 
L 101.177439 182.04686 
L 101.671135 183.303189 
L 102.658527 183.84723 
L 103.645919 184.079413 
L 104.139615 184.270126 
L 105.127007 186.8618 
L 105.620703 187.110903 
L 106.608096 189.311436 
L 107.101792 189.591009 
L 107.595488 189.567572 
L 108.089184 189.429788 
L 108.58288 189.077893 
L 110.063968 187.523437 
L 110.557664 187.157576 
L 111.05136 186.49959 
L 111.545056 186.500974 
L 112.532449 185.380914 
L 113.519841 184.98597 
L 114.507233 184.723557 
L 115.000929 185.003438 
L 115.988321 185.067719 
L 116.482017 185.062937 
L 116.975713 186.448887 
L 117.469409 187.375159 
L 117.963106 187.454346 
L 118.456802 187.993544 
L 118.950498 189.192962 
L 120.431586 188.58036 
L 121.418978 187.891274 
L 121.912674 187.776893 
L 122.40637 188.700583 
L 122.900066 190.038066 
L 123.887459 189.776822 
L 124.381155 190.842805 
L 124.874851 191.437395 
L 125.368547 192.321871 
L 125.862243 192.447399 
L 126.355939 192.25634 
L 126.849635 191.679266 
L 127.837027 191.093137 
L 128.824419 190.130998 
L 129.811812 189.627457 
L 130.305508 190.350584 
L 130.799204 191.272926 
L 131.786596 189.8794 
L 132.280292 189.408915 
L 133.267684 187.916975 
L 133.76138 187.645681 
L 134.748772 186.341493 
L 135.242468 186.329494 
L 136.229861 185.827664 
L 136.723557 185.37395 
L 137.217253 186.106061 
L 137.710949 187.296453 
L 138.204645 187.449374 
L 138.698341 186.963018 
L 139.192037 187.986238 
L 139.685733 187.467894 
L 140.179429 186.709714 
L 142.64791 184.862332 
L 143.141606 184.166435 
L 144.128998 181.993292 
L 144.622694 181.436764 
L 145.610086 179.600503 
L 146.597478 178.885433 
L 147.091175 179.325975 
L 147.584871 178.797516 
L 148.078567 178.445733 
L 148.572263 177.906796 
L 149.065959 178.672178 
L 149.559655 178.975925 
L 150.053351 179.975984 
L 150.547047 179.398559 
L 152.028135 176.225284 
L 152.521831 176.036174 
L 153.509224 175.338283 
L 154.00292 174.501814 
L 154.496616 175.134819 
L 155.484008 174.338809 
L 155.977704 174.541813 
L 156.4714 174.935651 
L 156.965096 174.458242 
L 157.458792 175.130122 
L 157.952488 175.443837 
L 158.446184 175.114289 
L 159.433577 173.962677 
L 159.927273 175.346831 
L 160.420969 174.779016 
L 160.914665 174.772157 
L 161.902057 173.497982 
L 162.395753 173.515474 
L 162.889449 173.976711 
L 163.383145 173.373941 
L 164.370537 170.622131 
L 164.864234 169.829664 
L 165.35793 169.364203 
L 165.851626 168.461016 
L 166.345322 168.071015 
L 167.332714 166.938548 
L 168.320106 165.88415 
L 169.801194 164.043059 
L 170.294891 163.576847 
L 170.788587 163.404913 
L 172.763371 161.607883 
L 173.257067 161.527129 
L 174.244459 160.815752 
L 175.725547 158.73519 
L 176.219244 157.857678 
L 176.71294 158.249482 
L 177.700332 157.696991 
L 178.687724 157.660352 
L 179.18142 157.334499 
L 179.675116 157.219051 
L 180.168812 156.755911 
L 180.662508 156.454818 
L 181.156204 155.635687 
L 181.6499 155.366738 
L 182.143597 155.862346 
L 183.624685 153.420895 
L 184.118381 152.30192 
L 185.599469 151.691752 
L 186.093165 151.497617 
L 186.586861 150.824094 
L 187.080557 150.787997 
L 187.574253 150.634638 
L 188.561646 150.807802 
L 189.055342 150.432968 
L 189.549038 149.826055 
L 190.042734 149.569333 
L 190.53643 149.709559 
L 191.030126 149.492954 
L 191.523822 149.549615 
L 192.017518 150.272424 
L 193.00491 149.817514 
L 193.498607 149.631304 
L 194.485999 148.968866 
L 194.979695 149.010018 
L 196.954479 148.621352 
L 200.904048 147.071962 
L 201.397744 147.107224 
L 201.89144 146.654598 
L 202.385136 146.400205 
L 202.878832 146.595619 
L 204.35992 145.625529 
L 204.853616 146.386383 
L 205.841009 145.677944 
L 206.334705 145.441039 
L 207.322097 145.388793 
L 208.309489 145.530294 
L 208.803185 145.20581 
L 209.296881 145.27729 
L 210.284273 145.654114 
L 211.765362 145.57273 
L 212.259058 145.647135 
L 212.752754 145.559048 
L 213.24645 145.245207 
L 213.740146 145.151144 
L 214.233842 144.877699 
L 215.221234 144.683709 
L 217.196019 145.102802 
L 217.689715 145.151497 
L 218.183411 145.0379 
L 218.677107 144.52319 
L 219.170803 144.367249 
L 220.651891 144.297107 
L 221.639283 144.672009 
L 223.614068 144.941066 
L 224.107764 144.642576 
L 224.60146 144.197413 
L 227.06994 144.763441 
L 229.044725 145.357828 
L 230.032117 145.490739 
L 231.019509 146.024771 
L 231.513205 145.977138 
L 232.500597 146.374238 
L 232.994293 146.349125 
L 233.487989 146.451971 
L 233.981685 146.675698 
L 234.475382 146.385849 
L 238.918646 147.072445 
L 239.412342 147.924024 
L 240.399735 153.454928 
L 241.880823 153.200509 
L 242.374519 152.847554 
L 243.855607 152.640691 
L 245.830392 153.650138 
L 246.324088 153.555029 
L 246.817784 153.615319 
L 247.31148 153.858987 
L 248.298872 153.975104 
L 249.286264 154.506516 
L 250.273656 154.669343 
L 250.767352 154.485114 
L 251.261048 154.53886 
L 251.754745 154.171337 
L 252.248441 154.134209 
L 253.235833 154.477509 
L 253.729529 154.482154 
L 254.716921 154.267241 
L 258.172794 155.706466 
L 258.66649 157.497133 
L 261.13497 158.454182 
L 262.122362 158.909882 
L 263.603451 159.034013 
L 265.084539 159.90343 
L 265.578235 161.458585 
L 266.071931 161.735677 
L 266.565627 161.139094 
L 267.059323 160.796735 
L 267.553019 161.156474 
L 268.046715 161.696527 
L 268.540411 161.968976 
L 269.527804 163.235695 
L 270.515196 166.172485 
L 271.008892 167.295164 
L 271.502588 167.76146 
L 271.996284 169.633104 
L 273.971068 171.039879 
L 274.958461 171.239918 
L 275.452157 171.727781 
L 276.439549 172.252605 
L 276.933245 172.621741 
L 277.426941 174.252204 
L 278.908029 175.409946 
L 279.401725 175.202309 
L 279.895421 175.293489 
L 281.37651 176.692854 
L 284.832382 178.748062 
L 285.326078 178.600709 
L 285.819774 179.814922 
L 286.31347 179.872316 
L 287.300863 180.544624 
L 287.794559 180.716207 
L 288.288255 181.054058 
L 288.781951 180.908659 
L 289.275647 181.065072 
L 289.769343 181.066428 
L 290.263039 181.359792 
L 290.756735 181.809891 
L 291.250431 183.179177 
L 291.744127 183.052205 
L 292.237823 182.76442 
L 293.718912 182.909033 
L 294.212608 183.959106 
L 294.706304 183.345771 
L 295.2 183.524843 
L 295.693696 183.463038 
L 296.187392 184.714313 
L 296.681088 185.623497 
L 297.174784 185.227084 
L 297.66848 184.974787 
L 298.162177 184.861948 
L 298.655873 184.321059 
L 299.149569 184.173455 
L 299.643265 184.153768 
L 300.136961 183.987085 
L 300.630657 184.043029 
L 301.124353 184.243914 
L 302.111745 183.949751 
L 302.605441 184.314435 
L 303.099137 184.384588 
L 303.592833 184.769719 
L 304.580226 186.299191 
L 305.073922 186.194337 
L 305.567618 187.038184 
L 306.061314 187.459324 
L 306.55501 188.807773 
L 307.048706 189.207884 
L 307.542402 189.114436 
L 308.036098 188.613146 
L 308.529794 189.218271 
L 309.02349 188.869897 
L 309.517186 188.7246 
L 310.504579 188.01015 
L 310.998275 187.911627 
L 311.985667 187.21729 
L 312.479363 186.961222 
L 313.466755 185.96738 
L 313.960451 185.931302 
L 314.947843 185.284776 
L 315.441539 185.154148 
L 315.935236 184.695356 
L 316.428932 184.443181 
L 316.922628 185.454824 
L 317.416324 185.880844 
L 317.91002 185.196591 
L 318.403716 186.023921 
L 319.884804 184.5023 
L 320.3785 183.891697 
L 320.872196 184.972826 
L 321.365893 186.337875 
L 321.859589 186.920415 
L 322.846981 185.579798 
L 323.340677 184.598245 
L 323.834373 184.014481 
L 324.328069 183.240466 
L 325.315461 182.352612 
L 326.796549 180.660533 
L 327.290246 180.542908 
L 327.783942 179.422223 
L 328.771334 178.189848 
L 329.26503 177.512227 
L 329.758726 177.357406 
L 330.252422 176.941384 
L 330.746118 177.080148 
L 332.720902 174.403542 
L 333.214599 173.337782 
L 333.708295 173.053132 
L 335.189383 170.999478 
L 336.176775 172.834165 
L 336.670471 173.006868 
L 338.151559 171.47209 
L 338.645255 170.811166 
L 339.632648 169.847757 
L 340.126344 171.457433 
L 342.594824 168.98744 
L 343.582216 169.908548 
L 344.075912 169.788978 
L 344.569608 169.203008 
L 345.063305 168.213357 
L 346.544393 167.32342 
L 347.038089 166.690865 
L 347.531785 165.467309 
L 348.519177 164.0144 
L 349.012873 165.138939 
L 350.493962 163.270234 
L 350.987658 162.854984 
L 352.962442 161.852222 
L 353.456138 161.139454 
L 353.949834 160.649229 
L 354.44353 160.515136 
L 356.912011 158.368447 
L 357.405707 157.553662 
L 357.899403 157.102499 
L 358.393099 156.894833 
L 358.886795 156.246031 
L 359.380491 155.900518 
L 359.874187 155.323879 
L 360.367883 154.393366 
L 360.861579 154.0637 
L 361.355275 153.577746 
L 361.848971 153.294325 
L 362.836364 151.109943 
L 363.33006 150.566148 
L 364.317452 150.10029 
L 366.292236 149.280879 
L 366.785932 148.316501 
L 368.267021 147.303517 
L 368.760717 146.742399 
L 369.254413 146.439002 
L 369.748109 145.844427 
L 370.241805 145.062218 
L 371.229197 144.31211 
L 371.722893 144.309618 
L 372.710285 143.745235 
L 375.178766 143.303238 
L 375.672462 142.747455 
L 376.166158 142.63331 
L 376.659854 145.042413 
L 378.140942 144.758878 
L 379.622031 143.73979 
L 380.609423 143.988258 
L 381.103119 143.75192 
L 383.077903 143.954933 
L 383.571599 143.820436 
L 384.558991 143.295759 
L 385.546384 143.68472 
L 386.04008 143.671476 
L 386.533776 144.54119 
L 387.027472 144.630049 
L 387.521168 145.009149 
L 389.002256 145.261697 
L 389.495952 145.467323 
L 389.989648 146.846097 
L 391.964433 147.131101 
L 392.458129 147.031468 
L 394.432913 147.322359 
L 394.926609 147.339353 
L 395.420305 147.65015 
L 395.914001 147.716565 
L 396.407697 147.423012 
L 397.39509 147.531928 
L 397.888786 147.413797 
L 398.382482 147.717441 
L 398.876178 149.184696 
L 399.86357 153.049301 
L 401.344658 153.487173 
L 401.838354 152.958039 
L 402.825747 152.976062 
L 403.319443 152.214208 
L 403.813139 152.154718 
L 404.306835 153.09836 
L 404.800531 152.596291 
L 405.787923 152.354898 
L 406.775315 152.424363 
L 407.269011 152.379125 
L 408.256403 152.551188 
L 409.243796 152.412568 
L 409.737492 152.63078 
L 410.231188 152.624777 
L 410.724884 152.81306 
L 411.21858 152.748322 
L 411.712276 152.339757 
L 412.205972 152.365857 
L 412.699668 152.196199 
L 413.193364 151.906917 
L 414.674453 151.733343 
L 415.168149 151.883373 
L 415.661845 152.758168 
L 416.155541 155.357997 
L 416.649237 154.980801 
L 417.142933 154.86 
L 417.636629 156.394274 
L 418.130325 158.671892 
L 418.624021 158.073874 
L 419.611413 157.782155 
L 420.105109 160.15796 
L 420.598806 160.055738 
L 421.586198 160.209352 
L 422.079894 159.857249 
L 422.57359 159.74548 
L 423.067286 159.347348 
L 424.054678 159.040505 
L 424.548374 159.072157 
L 425.04207 158.749592 
L 425.535766 158.149911 
L 426.523159 156.382597 
L 427.510551 156.070836 
L 428.004247 155.841647 
L 428.991639 155.95453 
L 430.966423 155.028388 
L 431.460119 155.033231 
L 431.953816 154.643875 
L 432.447512 154.493315 
L 433.434904 153.829802 
L 433.9286 153.862213 
L 434.422296 153.765258 
L 435.409688 153.261116 
L 435.903384 153.065902 
L 436.890776 153.11489 
L 437.384472 152.62912 
L 437.878169 152.367488 
L 438.371865 152.328228 
L 439.852953 151.689722 
L 440.840345 151.614464 
L 441.334041 151.168836 
L 441.827737 150.958762 
L 442.321433 150.241585 
L 442.815129 149.040124 
L 443.308825 149.137568 
L 443.802522 150.414834 
L 444.296218 150.772112 
L 444.789914 149.73571 
L 445.28361 149.90013 
L 446.271002 149.566645 
L 446.764698 148.574974 
L 448.245786 148.891184 
L 448.739482 148.67783 
L 449.233179 148.632495 
L 449.726875 148.793295 
L 450.714267 148.603255 
L 452.195355 148.804363 
L 453.182747 149.325044 
L 454.170139 149.312275 
L 455.157532 149.589496 
L 455.651228 149.721227 
L 456.63862 150.26261 
L 457.132316 150.271059 
L 457.626012 151.136712 
L 458.119708 152.451839 
L 458.613404 152.87116 
L 459.1071 154.725734 
L 459.600796 155.182382 
L 460.094492 157.023953 
L 460.588188 157.154597 
L 461.575581 160.208188 
L 463.056669 161.13499 
L 463.550365 161.105343 
L 464.044061 161.267698 
L 464.537757 161.73012 
L 465.031453 163.381842 
L 465.525149 163.764275 
L 467.006238 164.354856 
L 467.99363 165.228183 
L 468.487326 165.487591 
L 468.981022 165.977312 
L 469.968414 166.458334 
L 470.955806 166.271612 
L 471.943198 168.367592 
L 472.436894 170.145023 
L 473.424287 170.454788 
L 474.411679 170.949873 
L 475.399071 170.959963 
L 475.892767 170.992342 
L 476.880159 171.703669 
L 477.373855 171.802462 
L 478.361248 172.306916 
L 478.854944 172.190621 
L 480.336032 177.068795 
L 481.81712 181.744329 
L 482.804512 184.049759 
L 483.298208 184.364559 
L 483.791904 185.653166 
L 484.779297 185.172001 
L 485.272993 185.170086 
L 485.766689 184.86951 
L 486.260385 185.065574 
L 486.754081 185.97143 
L 487.247777 186.153555 
L 487.741473 187.028128 
L 488.235169 188.380703 
L 488.728865 189.088047 
L 489.222561 189.361267 
L 489.716257 189.4575 
L 490.209954 189.722813 
L 490.70365 190.485361 
L 491.197346 190.805046 
L 491.691042 190.369085 
L 493.17213 190.691857 
L 493.665826 191.017767 
L 494.159522 191.975422 
L 494.653218 192.051266 
L 495.146914 191.919829 
L 495.64061 192.869704 
L 496.134307 193.546842 
L 496.628003 194.000825 
L 497.121699 193.486577 
L 497.615395 193.228922 
L 498.109091 192.404606 
L 498.109091 192.404606 
" clip-path="url(#pd6becee1f7)" style="fill: none; stroke: #ff7f0e; stroke-width: 1.5; stroke-linecap: round"/>
   </g>
   <g id="patch_3">
    <path d="M 72 384.48 
L 72 51.84 
" style="fill: none; stroke: #ffffff; stroke-width: 0.8; stroke-linejoin: miter; stroke-linecap: square"/>
   </g>
   <g id="patch_4">
    <path d="M 518.4 384.48 
L 518.4 51.84 
" style="fill: none; stroke: #ffffff; stroke-width: 0.8; stroke-linejoin: miter; stroke-linecap: square"/>
   </g>
   <g id="patch_5">
    <path d="M 72 384.48 
L 518.4 384.48 
" style="fill: none; stroke: #ffffff; stroke-width: 0.8; stroke-linejoin: miter; stroke-linecap: square"/>
   </g>
   <g id="patch_6">
    <path d="M 72 51.84 
L 518.4 51.84 
" style="fill: none; stroke: #ffffff; stroke-width: 0.8; stroke-linejoin: miter; stroke-linecap: square"/>
   </g>
   <g id="text_15">
    <!-- Maximum Solar Radiation Prediction 7 Days Ahead -->
    <g style="fill: #262626" transform="translate(159.139687 45.84) scale(0.12 -0.12)">
     <defs>
      <path id="ArialMT-4d" d="M 475 0 
L 475 4581 
L 1388 4581 
L 2472 1338 
Q 2622 884 2691 659 
Q 2769 909 2934 1394 
L 4031 4581 
L 4847 4581 
L 4847 0 
L 4263 0 
L 4263 3834 
L 2931 0 
L 2384 0 
L 1059 3900 
L 1059 0 
L 475 0 
z
" transform="scale(0.015625)"/>
      <path id="ArialMT-78" d="M 47 0 
L 1259 1725 
L 138 3319 
L 841 3319 
L 1350 2541 
Q 1494 2319 1581 2169 
Q 1719 2375 1834 2534 
L 2394 3319 
L 3066 3319 
L 1919 1756 
L 3153 0 
L 2463 0 
L 1781 1031 
L 1600 1309 
L 728 0 
L 47 0 
z
" transform="scale(0.015625)"/>
      <path id="ArialMT-69" d="M 425 3934 
L 425 4581 
L 988 4581 
L 988 3934 
L 425 3934 
z
M 425 0 
L 425 3319 
L 988 3319 
L 988 0 
L 425 0 
z
" transform="scale(0.015625)"/>
      <path id="ArialMT-75" d="M 2597 0 
L 2597 488 
Q 2209 -75 1544 -75 
Q 1250 -75 995 37 
Q 741 150 617 320 
Q 494 491 444 738 
Q 409 903 409 1263 
L 409 3319 
L 972 3319 
L 972 1478 
Q 972 1038 1006 884 
Q 1059 663 1231 536 
Q 1403 409 1656 409 
Q 1909 409 2131 539 
Q 2353 669 2445 892 
Q 2538 1116 2538 1541 
L 2538 3319 
L 3100 3319 
L 3100 0 
L 2597 0 
z
" transform="scale(0.015625)"/>
      <path id="ArialMT-20" transform="scale(0.015625)"/>
      <path id="ArialMT-53" d="M 288 1472 
L 859 1522 
Q 900 1178 1048 958 
Q 1197 738 1509 602 
Q 1822 466 2213 466 
Q 2559 466 2825 569 
Q 3091 672 3220 851 
Q 3350 1031 3350 1244 
Q 3350 1459 3225 1620 
Q 3100 1781 2813 1891 
Q 2628 1963 1997 2114 
Q 1366 2266 1113 2400 
Q 784 2572 623 2826 
Q 463 3081 463 3397 
Q 463 3744 659 4045 
Q 856 4347 1234 4503 
Q 1613 4659 2075 4659 
Q 2584 4659 2973 4495 
Q 3363 4331 3572 4012 
Q 3781 3694 3797 3291 
L 3216 3247 
Q 3169 3681 2898 3903 
Q 2628 4125 2100 4125 
Q 1550 4125 1298 3923 
Q 1047 3722 1047 3438 
Q 1047 3191 1225 3031 
Q 1400 2872 2139 2705 
Q 2878 2538 3153 2413 
Q 3553 2228 3743 1945 
Q 3934 1663 3934 1294 
Q 3934 928 3725 604 
Q 3516 281 3123 101 
Q 2731 -78 2241 -78 
Q 1619 -78 1198 103 
Q 778 284 539 648 
Q 300 1013 288 1472 
z
" transform="scale(0.015625)"/>
      <path id="ArialMT-6f" d="M 213 1659 
Q 213 2581 725 3025 
Q 1153 3394 1769 3394 
Q 2453 3394 2887 2945 
Q 3322 2497 3322 1706 
Q 3322 1066 3130 698 
Q 2938 331 2570 128 
Q 2203 -75 1769 -75 
Q 1072 -75 642 372 
Q 213 819 213 1659 
z
M 791 1659 
Q 791 1022 1069 705 
Q 1347 388 1769 388 
Q 2188 388 2466 706 
Q 2744 1025 2744 1678 
Q 2744 2294 2464 2611 
Q 2184 2928 1769 2928 
Q 1347 2928 1069 2612 
Q 791 2297 791 1659 
z
" transform="scale(0.015625)"/>
      <path id="ArialMT-6c" d="M 409 0 
L 409 4581 
L 972 4581 
L 972 0 
L 409 0 
z
" transform="scale(0.015625)"/>
      <path id="ArialMT-72" d="M 416 0 
L 416 3319 
L 922 3319 
L 922 2816 
Q 1116 3169 1280 3281 
Q 1444 3394 1641 3394 
Q 1925 3394 2219 3213 
L 2025 2691 
Q 1819 2813 1613 2813 
Q 1428 2813 1281 2702 
Q 1134 2591 1072 2394 
Q 978 2094 978 1738 
L 978 0 
L 416 0 
z
" transform="scale(0.015625)"/>
      <path id="ArialMT-52" d="M 503 0 
L 503 4581 
L 2534 4581 
Q 3147 4581 3465 4457 
Q 3784 4334 3975 4021 
Q 4166 3709 4166 3331 
Q 4166 2844 3850 2509 
Q 3534 2175 2875 2084 
Q 3116 1969 3241 1856 
Q 3506 1613 3744 1247 
L 4541 0 
L 3778 0 
L 3172 953 
Q 2906 1366 2734 1584 
Q 2563 1803 2427 1890 
Q 2291 1978 2150 2013 
Q 2047 2034 1813 2034 
L 1109 2034 
L 1109 0 
L 503 0 
z
M 1109 2559 
L 2413 2559 
Q 2828 2559 3062 2645 
Q 3297 2731 3419 2920 
Q 3541 3109 3541 3331 
Q 3541 3656 3305 3865 
Q 3069 4075 2559 4075 
L 1109 4075 
L 1109 2559 
z
" transform="scale(0.015625)"/>
      <path id="ArialMT-64" d="M 2575 0 
L 2575 419 
Q 2259 -75 1647 -75 
Q 1250 -75 917 144 
Q 584 363 401 755 
Q 219 1147 219 1656 
Q 219 2153 384 2558 
Q 550 2963 881 3178 
Q 1213 3394 1622 3394 
Q 1922 3394 2156 3267 
Q 2391 3141 2538 2938 
L 2538 4581 
L 3097 4581 
L 3097 0 
L 2575 0 
z
M 797 1656 
Q 797 1019 1065 703 
Q 1334 388 1700 388 
Q 2069 388 2326 689 
Q 2584 991 2584 1609 
Q 2584 2291 2321 2609 
Q 2059 2928 1675 2928 
Q 1300 2928 1048 2622 
Q 797 2316 797 1656 
z
" transform="scale(0.015625)"/>
      <path id="ArialMT-74" d="M 1650 503 
L 1731 6 
Q 1494 -44 1306 -44 
Q 1000 -44 831 53 
Q 663 150 594 308 
Q 525 466 525 972 
L 525 2881 
L 113 2881 
L 113 3319 
L 525 3319 
L 525 4141 
L 1084 4478 
L 1084 3319 
L 1650 3319 
L 1650 2881 
L 1084 2881 
L 1084 941 
Q 1084 700 1114 631 
Q 1144 563 1211 522 
Q 1278 481 1403 481 
Q 1497 481 1650 503 
z
" transform="scale(0.015625)"/>
      <path id="ArialMT-6e" d="M 422 0 
L 422 3319 
L 928 3319 
L 928 2847 
Q 1294 3394 1984 3394 
Q 2284 3394 2536 3286 
Q 2788 3178 2913 3003 
Q 3038 2828 3088 2588 
Q 3119 2431 3119 2041 
L 3119 0 
L 2556 0 
L 2556 2019 
Q 2556 2363 2490 2533 
Q 2425 2703 2258 2804 
Q 2091 2906 1866 2906 
Q 1506 2906 1245 2678 
Q 984 2450 984 1813 
L 984 0 
L 422 0 
z
" transform="scale(0.015625)"/>
      <path id="ArialMT-50" d="M 494 0 
L 494 4581 
L 2222 4581 
Q 2678 4581 2919 4538 
Q 3256 4481 3484 4323 
Q 3713 4166 3852 3881 
Q 3991 3597 3991 3256 
Q 3991 2672 3619 2267 
Q 3247 1863 2275 1863 
L 1100 1863 
L 1100 0 
L 494 0 
z
M 1100 2403 
L 2284 2403 
Q 2872 2403 3119 2622 
Q 3366 2841 3366 3238 
Q 3366 3525 3220 3729 
Q 3075 3934 2838 4000 
Q 2684 4041 2272 4041 
L 1100 4041 
L 1100 2403 
z
" transform="scale(0.015625)"/>
      <path id="ArialMT-65" d="M 2694 1069 
L 3275 997 
Q 3138 488 2766 206 
Q 2394 -75 1816 -75 
Q 1088 -75 661 373 
Q 234 822 234 1631 
Q 234 2469 665 2931 
Q 1097 3394 1784 3394 
Q 2450 3394 2872 2941 
Q 3294 2488 3294 1666 
Q 3294 1616 3291 1516 
L 816 1516 
Q 847 969 1125 678 
Q 1403 388 1819 388 
Q 2128 388 2347 550 
Q 2566 713 2694 1069 
z
M 847 1978 
L 2700 1978 
Q 2663 2397 2488 2606 
Q 2219 2931 1791 2931 
Q 1403 2931 1139 2672 
Q 875 2413 847 1978 
z
" transform="scale(0.015625)"/>
      <path id="ArialMT-63" d="M 2588 1216 
L 3141 1144 
Q 3050 572 2676 248 
Q 2303 -75 1759 -75 
Q 1078 -75 664 370 
Q 250 816 250 1647 
Q 250 2184 428 2587 
Q 606 2991 970 3192 
Q 1334 3394 1763 3394 
Q 2303 3394 2647 3120 
Q 2991 2847 3088 2344 
L 2541 2259 
Q 2463 2594 2264 2762 
Q 2066 2931 1784 2931 
Q 1359 2931 1093 2626 
Q 828 2322 828 1663 
Q 828 994 1084 691 
Q 1341 388 1753 388 
Q 2084 388 2306 591 
Q 2528 794 2588 1216 
z
" transform="scale(0.015625)"/>
      <path id="ArialMT-37" d="M 303 3981 
L 303 4522 
L 3269 4522 
L 3269 4084 
Q 2831 3619 2401 2847 
Q 1972 2075 1738 1259 
Q 1569 684 1522 0 
L 944 0 
Q 953 541 1156 1306 
Q 1359 2072 1739 2783 
Q 2119 3494 2547 3981 
L 303 3981 
z
" transform="scale(0.015625)"/>
      <path id="ArialMT-41" d="M -9 0 
L 1750 4581 
L 2403 4581 
L 4278 0 
L 3588 0 
L 3053 1388 
L 1138 1388 
L 634 0 
L -9 0 
z
M 1313 1881 
L 2866 1881 
L 2388 3150 
Q 2169 3728 2063 4100 
Q 1975 3659 1816 3225 
L 1313 1881 
z
" transform="scale(0.015625)"/>
      <path id="ArialMT-68" d="M 422 0 
L 422 4581 
L 984 4581 
L 984 2938 
Q 1378 3394 1978 3394 
Q 2347 3394 2619 3248 
Q 2891 3103 3008 2847 
Q 3125 2591 3125 2103 
L 3125 0 
L 2563 0 
L 2563 2103 
Q 2563 2525 2380 2717 
Q 2197 2909 1863 2909 
Q 1613 2909 1392 2779 
Q 1172 2650 1078 2428 
Q 984 2206 984 1816 
L 984 0 
L 422 0 
z
" transform="scale(0.015625)"/>
     </defs>
     <use xlink:href="#ArialMT-4d"/>
     <use xlink:href="#ArialMT-61" x="83.300781"/>
     <use xlink:href="#ArialMT-78" x="138.916016"/>
     <use xlink:href="#ArialMT-69" x="188.916016"/>
     <use xlink:href="#ArialMT-6d" x="211.132812"/>
     <use xlink:href="#ArialMT-75" x="294.433594"/>
     <use xlink:href="#ArialMT-6d" x="350.048828"/>
     <use xlink:href="#ArialMT-20" x="433.349609"/>
     <use xlink:href="#ArialMT-53" x="461.132812"/>
     <use xlink:href="#ArialMT-6f" x="527.832031"/>
     <use xlink:href="#ArialMT-6c" x="583.447266"/>
     <use xlink:href="#ArialMT-61" x="605.664062"/>
     <use xlink:href="#ArialMT-72" x="661.279297"/>
     <use xlink:href="#ArialMT-20" x="694.580078"/>
     <use xlink:href="#ArialMT-52" x="722.363281"/>
     <use xlink:href="#ArialMT-61" x="794.580078"/>
     <use xlink:href="#ArialMT-64" x="850.195312"/>
     <use xlink:href="#ArialMT-69" x="905.810547"/>
     <use xlink:href="#ArialMT-61" x="928.027344"/>
     <use xlink:href="#ArialMT-74" x="983.642578"/>
     <use xlink:href="#ArialMT-69" x="1011.425781"/>
     <use xlink:href="#ArialMT-6f" x="1033.642578"/>
     <use xlink:href="#ArialMT-6e" x="1089.257812"/>
     <use xlink:href="#ArialMT-20" x="1144.873047"/>
     <use xlink:href="#ArialMT-50" x="1172.65625"/>
     <use xlink:href="#ArialMT-72" x="1239.355469"/>
     <use xlink:href="#ArialMT-65" x="1272.65625"/>
     <use xlink:href="#ArialMT-64" x="1328.271484"/>
     <use xlink:href="#ArialMT-69" x="1383.886719"/>
     <use xlink:href="#ArialMT-63" x="1406.103516"/>
     <use xlink:href="#ArialMT-74" x="1456.103516"/>
     <use xlink:href="#ArialMT-69" x="1483.886719"/>
     <use xlink:href="#ArialMT-6f" x="1506.103516"/>
     <use xlink:href="#ArialMT-6e" x="1561.71875"/>
     <use xlink:href="#ArialMT-20" x="1617.333984"/>
     <use xlink:href="#ArialMT-37" x="1645.117188"/>
     <use xlink:href="#ArialMT-20" x="1700.732422"/>
     <use xlink:href="#ArialMT-44" x="1728.515625"/>
     <use xlink:href="#ArialMT-61" x="1800.732422"/>
     <use xlink:href="#ArialMT-79" x="1856.347656"/>
     <use xlink:href="#ArialMT-73" x="1906.347656"/>
     <use xlink:href="#ArialMT-20" x="1956.347656"/>
     <use xlink:href="#ArialMT-41" x="1978.630859"/>
     <use xlink:href="#ArialMT-68" x="2045.330078"/>
     <use xlink:href="#ArialMT-65" x="2100.945312"/>
     <use xlink:href="#ArialMT-61" x="2156.560547"/>
     <use xlink:href="#ArialMT-64" x="2212.175781"/>
    </g>
   </g>
   <g id="legend_1">
    <g id="patch_7">
     <path d="M 437.15625 88.130625 
L 511.4 88.130625 
Q 513.4 88.130625 513.4 86.130625 
L 513.4 58.84 
Q 513.4 56.84 511.4 56.84 
L 437.15625 56.84 
Q 435.15625 56.84 435.15625 58.84 
L 435.15625 86.130625 
Q 435.15625 88.130625 437.15625 88.130625 
z
" style="fill: #eaeaf2; opacity: 0.8; stroke: #cccccc; stroke-linejoin: miter"/>
    </g>
    <g id="line2d_15">
     <path d="M 439.15625 64.497812 
L 449.15625 64.497812 
L 459.15625 64.497812 
" style="fill: none; stroke: #1f77b4; stroke-width: 1.5; stroke-linecap: round"/>
    </g>
    <g id="text_16">
     <!-- Real -->
     <g style="fill: #262626" transform="translate(467.15625 67.997812) scale(0.1 -0.1)">
      <use xlink:href="#ArialMT-52"/>
      <use xlink:href="#ArialMT-65" x="72.216797"/>
      <use xlink:href="#ArialMT-61" x="127.832031"/>
      <use xlink:href="#ArialMT-6c" x="183.447266"/>
     </g>
    </g>
    <g id="line2d_16">
     <path d="M 439.15625 78.643125 
L 449.15625 78.643125 
L 459.15625 78.643125 
" style="fill: none; stroke: #ff7f0e; stroke-width: 1.5; stroke-linecap: round"/>
    </g>
    <g id="text_17">
     <!-- Predicted -->
     <g style="fill: #262626" transform="translate(467.15625 82.143125) scale(0.1 -0.1)">
      <use xlink:href="#ArialMT-50"/>
      <use xlink:href="#ArialMT-72" x="66.699219"/>
      <use xlink:href="#ArialMT-65" x="100"/>
      <use xlink:href="#ArialMT-64" x="155.615234"/>
      <use xlink:href="#ArialMT-69" x="211.230469"/>
      <use xlink:href="#ArialMT-63" x="233.447266"/>
      <use xlink:href="#ArialMT-74" x="283.447266"/>
      <use xlink:href="#ArialMT-65" x="311.230469"/>
      <use xlink:href="#ArialMT-64" x="366.845703"/>
     </g>
    </g>
   </g>
  </g>
 </g>
 <defs>
  <clipPath id="pd6becee1f7">
   <rect x="72" y="51.84" width="446.4" height="332.64"/>
  </clipPath>
 </defs>
</svg>
