<?xml version="1.0" encoding="utf-8" standalone="no"?>
<!DOCTYPE svg PUBLIC "-//W3C//DTD SVG 1.1//EN"
  "http://www.w3.org/Graphics/SVG/1.1/DTD/svg11.dtd">
<svg xmlns:xlink="http://www.w3.org/1999/xlink" width="576pt" height="432pt" viewBox="0 0 576 432" xmlns="http://www.w3.org/2000/svg" version="1.1">
 <metadata>
  <rdf:RDF xmlns:dc="http://purl.org/dc/elements/1.1/" xmlns:cc="http://creativecommons.org/ns#" xmlns:rdf="http://www.w3.org/1999/02/22-rdf-syntax-ns#">
   <cc:Work>
    <dc:type rdf:resource="http://purl.org/dc/dcmitype/StillImage"/>
    <dc:date>2023-11-17T05:12:22.096705</dc:date>
    <dc:format>image/svg+xml</dc:format>
    <dc:creator>
     <cc:Agent>
      <dc:title>Matplotlib v3.8.0, https://matplotlib.org/</dc:title>
     </cc:Agent>
    </dc:creator>
   </cc:Work>
  </rdf:RDF>
 </metadata>
 <defs>
  <style type="text/css">*{stroke-linejoin: round; stroke-linecap: butt}</style>
 </defs>
 <g id="figure_1">
  <g id="patch_1">
   <path d="M 0 432 
L 576 432 
L 576 0 
L 0 0 
z
" style="fill: #ffffff"/>
  </g>
  <g id="axes_1">
   <g id="patch_2">
    <path d="M 72 384.48 
L 518.4 384.48 
L 518.4 51.84 
L 72 51.84 
z
" style="fill: #eaeaf2"/>
   </g>
   <g id="matplotlib.axis_1">
    <g id="xtick_1">
     <g id="line2d_1">
      <path d="M 92.290909 384.48 
L 92.290909 51.84 
" clip-path="url(#p6af01692a8)" style="fill: none; stroke: #ffffff; stroke-width: 0.8; stroke-linecap: round"/>
     </g>
     <g id="text_1">
      <!-- 0 -->
      <g style="fill: #262626" transform="translate(89.51044 398.637812) scale(0.1 -0.1)">
       <defs>
        <path id="ArialMT-30" d="M 266 2259 
Q 266 3072 433 3567 
Q 600 4063 929 4331 
Q 1259 4600 1759 4600 
Q 2128 4600 2406 4451 
Q 2684 4303 2865 4023 
Q 3047 3744 3150 3342 
Q 3253 2941 3253 2259 
Q 3253 1453 3087 958 
Q 2922 463 2592 192 
Q 2263 -78 1759 -78 
Q 1097 -78 719 397 
Q 266 969 266 2259 
z
M 844 2259 
Q 844 1131 1108 757 
Q 1372 384 1759 384 
Q 2147 384 2411 759 
Q 2675 1134 2675 2259 
Q 2675 3391 2411 3762 
Q 2147 4134 1753 4134 
Q 1366 4134 1134 3806 
Q 844 3388 844 2259 
z
" transform="scale(0.015625)"/>
       </defs>
       <use xlink:href="#ArialMT-30"/>
      </g>
     </g>
    </g>
    <g id="xtick_2">
     <g id="line2d_2">
      <path d="M 191.030126 384.48 
L 191.030126 51.84 
" clip-path="url(#p6af01692a8)" style="fill: none; stroke: #ffffff; stroke-width: 0.8; stroke-linecap: round"/>
     </g>
     <g id="text_2">
      <!-- 200 -->
      <g style="fill: #262626" transform="translate(182.68872 398.637812) scale(0.1 -0.1)">
       <defs>
        <path id="ArialMT-32" d="M 3222 541 
L 3222 0 
L 194 0 
Q 188 203 259 391 
Q 375 700 629 1000 
Q 884 1300 1366 1694 
Q 2113 2306 2375 2664 
Q 2638 3022 2638 3341 
Q 2638 3675 2398 3904 
Q 2159 4134 1775 4134 
Q 1369 4134 1125 3890 
Q 881 3647 878 3216 
L 300 3275 
Q 359 3922 746 4261 
Q 1134 4600 1788 4600 
Q 2447 4600 2831 4234 
Q 3216 3869 3216 3328 
Q 3216 3053 3103 2787 
Q 2991 2522 2730 2228 
Q 2469 1934 1863 1422 
Q 1356 997 1212 845 
Q 1069 694 975 541 
L 3222 541 
z
" transform="scale(0.015625)"/>
       </defs>
       <use xlink:href="#ArialMT-32"/>
       <use xlink:href="#ArialMT-30" x="55.615234"/>
       <use xlink:href="#ArialMT-30" x="111.230469"/>
      </g>
     </g>
    </g>
    <g id="xtick_3">
     <g id="line2d_3">
      <path d="M 289.769343 384.48 
L 289.769343 51.84 
" clip-path="url(#p6af01692a8)" style="fill: none; stroke: #ffffff; stroke-width: 0.8; stroke-linecap: round"/>
     </g>
     <g id="text_3">
      <!-- 400 -->
      <g style="fill: #262626" transform="translate(281.427937 398.637812) scale(0.1 -0.1)">
       <defs>
        <path id="ArialMT-34" d="M 2069 0 
L 2069 1097 
L 81 1097 
L 81 1613 
L 2172 4581 
L 2631 4581 
L 2631 1613 
L 3250 1613 
L 3250 1097 
L 2631 1097 
L 2631 0 
L 2069 0 
z
M 2069 1613 
L 2069 3678 
L 634 1613 
L 2069 1613 
z
" transform="scale(0.015625)"/>
       </defs>
       <use xlink:href="#ArialMT-34"/>
       <use xlink:href="#ArialMT-30" x="55.615234"/>
       <use xlink:href="#ArialMT-30" x="111.230469"/>
      </g>
     </g>
    </g>
    <g id="xtick_4">
     <g id="line2d_4">
      <path d="M 388.50856 384.48 
L 388.50856 51.84 
" clip-path="url(#p6af01692a8)" style="fill: none; stroke: #ffffff; stroke-width: 0.8; stroke-linecap: round"/>
     </g>
     <g id="text_4">
      <!-- 600 -->
      <g style="fill: #262626" transform="translate(380.167154 398.637812) scale(0.1 -0.1)">
       <defs>
        <path id="ArialMT-36" d="M 3184 3459 
L 2625 3416 
Q 2550 3747 2413 3897 
Q 2184 4138 1850 4138 
Q 1581 4138 1378 3988 
Q 1113 3794 959 3422 
Q 806 3050 800 2363 
Q 1003 2672 1297 2822 
Q 1591 2972 1913 2972 
Q 2475 2972 2870 2558 
Q 3266 2144 3266 1488 
Q 3266 1056 3080 686 
Q 2894 316 2569 119 
Q 2244 -78 1831 -78 
Q 1128 -78 684 439 
Q 241 956 241 2144 
Q 241 3472 731 4075 
Q 1159 4600 1884 4600 
Q 2425 4600 2770 4297 
Q 3116 3994 3184 3459 
z
M 888 1484 
Q 888 1194 1011 928 
Q 1134 663 1356 523 
Q 1578 384 1822 384 
Q 2178 384 2434 671 
Q 2691 959 2691 1453 
Q 2691 1928 2437 2201 
Q 2184 2475 1800 2475 
Q 1419 2475 1153 2201 
Q 888 1928 888 1484 
z
" transform="scale(0.015625)"/>
       </defs>
       <use xlink:href="#ArialMT-36"/>
       <use xlink:href="#ArialMT-30" x="55.615234"/>
       <use xlink:href="#ArialMT-30" x="111.230469"/>
      </g>
     </g>
    </g>
    <g id="xtick_5">
     <g id="line2d_5">
      <path d="M 487.247777 384.48 
L 487.247777 51.84 
" clip-path="url(#p6af01692a8)" style="fill: none; stroke: #ffffff; stroke-width: 0.8; stroke-linecap: round"/>
     </g>
     <g id="text_5">
      <!-- 800 -->
      <g style="fill: #262626" transform="translate(478.906371 398.637812) scale(0.1 -0.1)">
       <defs>
        <path id="ArialMT-38" d="M 1131 2484 
Q 781 2613 612 2850 
Q 444 3088 444 3419 
Q 444 3919 803 4259 
Q 1163 4600 1759 4600 
Q 2359 4600 2725 4251 
Q 3091 3903 3091 3403 
Q 3091 3084 2923 2848 
Q 2756 2613 2416 2484 
Q 2838 2347 3058 2040 
Q 3278 1734 3278 1309 
Q 3278 722 2862 322 
Q 2447 -78 1769 -78 
Q 1091 -78 675 323 
Q 259 725 259 1325 
Q 259 1772 486 2073 
Q 713 2375 1131 2484 
z
M 1019 3438 
Q 1019 3113 1228 2906 
Q 1438 2700 1772 2700 
Q 2097 2700 2305 2904 
Q 2513 3109 2513 3406 
Q 2513 3716 2298 3927 
Q 2084 4138 1766 4138 
Q 1444 4138 1231 3931 
Q 1019 3725 1019 3438 
z
M 838 1322 
Q 838 1081 952 856 
Q 1066 631 1291 507 
Q 1516 384 1775 384 
Q 2178 384 2440 643 
Q 2703 903 2703 1303 
Q 2703 1709 2433 1975 
Q 2163 2241 1756 2241 
Q 1359 2241 1098 1978 
Q 838 1716 838 1322 
z
" transform="scale(0.015625)"/>
       </defs>
       <use xlink:href="#ArialMT-38"/>
       <use xlink:href="#ArialMT-30" x="55.615234"/>
       <use xlink:href="#ArialMT-30" x="111.230469"/>
      </g>
     </g>
    </g>
    <g id="text_6">
     <!-- Days -->
     <g style="fill: #262626" transform="translate(283.808594 411.783125) scale(0.1 -0.1)">
      <defs>
       <path id="ArialMT-44" d="M 494 0 
L 494 4581 
L 2072 4581 
Q 2606 4581 2888 4516 
Q 3281 4425 3559 4188 
Q 3922 3881 4101 3404 
Q 4281 2928 4281 2316 
Q 4281 1794 4159 1391 
Q 4038 988 3847 723 
Q 3656 459 3429 307 
Q 3203 156 2883 78 
Q 2563 0 2147 0 
L 494 0 
z
M 1100 541 
L 2078 541 
Q 2531 541 2789 625 
Q 3047 709 3200 863 
Q 3416 1078 3536 1442 
Q 3656 1806 3656 2325 
Q 3656 3044 3420 3430 
Q 3184 3816 2847 3947 
Q 2603 4041 2063 4041 
L 1100 4041 
L 1100 541 
z
" transform="scale(0.015625)"/>
       <path id="ArialMT-61" d="M 2588 409 
Q 2275 144 1986 34 
Q 1697 -75 1366 -75 
Q 819 -75 525 192 
Q 231 459 231 875 
Q 231 1119 342 1320 
Q 453 1522 633 1644 
Q 813 1766 1038 1828 
Q 1203 1872 1538 1913 
Q 2219 1994 2541 2106 
Q 2544 2222 2544 2253 
Q 2544 2597 2384 2738 
Q 2169 2928 1744 2928 
Q 1347 2928 1158 2789 
Q 969 2650 878 2297 
L 328 2372 
Q 403 2725 575 2942 
Q 747 3159 1072 3276 
Q 1397 3394 1825 3394 
Q 2250 3394 2515 3294 
Q 2781 3194 2906 3042 
Q 3031 2891 3081 2659 
Q 3109 2516 3109 2141 
L 3109 1391 
Q 3109 606 3145 398 
Q 3181 191 3288 0 
L 2700 0 
Q 2613 175 2588 409 
z
M 2541 1666 
Q 2234 1541 1622 1453 
Q 1275 1403 1131 1340 
Q 988 1278 909 1158 
Q 831 1038 831 891 
Q 831 666 1001 516 
Q 1172 366 1500 366 
Q 1825 366 2078 508 
Q 2331 650 2450 897 
Q 2541 1088 2541 1459 
L 2541 1666 
z
" transform="scale(0.015625)"/>
       <path id="ArialMT-79" d="M 397 -1278 
L 334 -750 
Q 519 -800 656 -800 
Q 844 -800 956 -737 
Q 1069 -675 1141 -563 
Q 1194 -478 1313 -144 
Q 1328 -97 1363 -6 
L 103 3319 
L 709 3319 
L 1400 1397 
Q 1534 1031 1641 628 
Q 1738 1016 1872 1384 
L 2581 3319 
L 3144 3319 
L 1881 -56 
Q 1678 -603 1566 -809 
Q 1416 -1088 1222 -1217 
Q 1028 -1347 759 -1347 
Q 597 -1347 397 -1278 
z
" transform="scale(0.015625)"/>
       <path id="ArialMT-73" d="M 197 991 
L 753 1078 
Q 800 744 1014 566 
Q 1228 388 1613 388 
Q 2000 388 2187 545 
Q 2375 703 2375 916 
Q 2375 1106 2209 1216 
Q 2094 1291 1634 1406 
Q 1016 1563 777 1677 
Q 538 1791 414 1992 
Q 291 2194 291 2438 
Q 291 2659 392 2848 
Q 494 3038 669 3163 
Q 800 3259 1026 3326 
Q 1253 3394 1513 3394 
Q 1903 3394 2198 3281 
Q 2494 3169 2634 2976 
Q 2775 2784 2828 2463 
L 2278 2388 
Q 2241 2644 2061 2787 
Q 1881 2931 1553 2931 
Q 1166 2931 1000 2803 
Q 834 2675 834 2503 
Q 834 2394 903 2306 
Q 972 2216 1119 2156 
Q 1203 2125 1616 2013 
Q 2213 1853 2448 1751 
Q 2684 1650 2818 1456 
Q 2953 1263 2953 975 
Q 2953 694 2789 445 
Q 2625 197 2315 61 
Q 2006 -75 1616 -75 
Q 969 -75 630 194 
Q 291 463 197 991 
z
" transform="scale(0.015625)"/>
      </defs>
      <use xlink:href="#ArialMT-44"/>
      <use xlink:href="#ArialMT-61" x="72.216797"/>
      <use xlink:href="#ArialMT-79" x="127.832031"/>
      <use xlink:href="#ArialMT-73" x="177.832031"/>
     </g>
    </g>
   </g>
   <g id="matplotlib.axis_2">
    <g id="ytick_1">
     <g id="line2d_6">
      <path d="M 72 377.823157 
L 518.4 377.823157 
" clip-path="url(#p6af01692a8)" style="fill: none; stroke: #ffffff; stroke-width: 0.8; stroke-linecap: round"/>
     </g>
     <g id="text_7">
      <!-- 2.5 -->
      <g style="fill: #262626" transform="translate(51.1 381.402063) scale(0.1 -0.1)">
       <defs>
        <path id="ArialMT-2e" d="M 581 0 
L 581 641 
L 1222 641 
L 1222 0 
L 581 0 
z
" transform="scale(0.015625)"/>
        <path id="ArialMT-35" d="M 266 1200 
L 856 1250 
Q 922 819 1161 601 
Q 1400 384 1738 384 
Q 2144 384 2425 690 
Q 2706 997 2706 1503 
Q 2706 1984 2436 2262 
Q 2166 2541 1728 2541 
Q 1456 2541 1237 2417 
Q 1019 2294 894 2097 
L 366 2166 
L 809 4519 
L 3088 4519 
L 3088 3981 
L 1259 3981 
L 1013 2750 
Q 1425 3038 1878 3038 
Q 2478 3038 2890 2622 
Q 3303 2206 3303 1553 
Q 3303 931 2941 478 
Q 2500 -78 1738 -78 
Q 1113 -78 717 272 
Q 322 622 266 1200 
z
" transform="scale(0.015625)"/>
       </defs>
       <use xlink:href="#ArialMT-32"/>
       <use xlink:href="#ArialMT-2e" x="55.615234"/>
       <use xlink:href="#ArialMT-35" x="83.398438"/>
      </g>
     </g>
    </g>
    <g id="ytick_2">
     <g id="line2d_7">
      <path d="M 72 335.783796 
L 518.4 335.783796 
" clip-path="url(#p6af01692a8)" style="fill: none; stroke: #ffffff; stroke-width: 0.8; stroke-linecap: round"/>
     </g>
     <g id="text_8">
      <!-- 5.0 -->
      <g style="fill: #262626" transform="translate(51.1 339.362703) scale(0.1 -0.1)">
       <use xlink:href="#ArialMT-35"/>
       <use xlink:href="#ArialMT-2e" x="55.615234"/>
       <use xlink:href="#ArialMT-30" x="83.398438"/>
      </g>
     </g>
    </g>
    <g id="ytick_3">
     <g id="line2d_8">
      <path d="M 72 293.744436 
L 518.4 293.744436 
" clip-path="url(#p6af01692a8)" style="fill: none; stroke: #ffffff; stroke-width: 0.8; stroke-linecap: round"/>
     </g>
     <g id="text_9">
      <!-- 7.5 -->
      <g style="fill: #262626" transform="translate(51.1 297.323342) scale(0.1 -0.1)">
       <defs>
        <path id="ArialMT-37" d="M 303 3981 
L 303 4522 
L 3269 4522 
L 3269 4084 
Q 2831 3619 2401 2847 
Q 1972 2075 1738 1259 
Q 1569 684 1522 0 
L 944 0 
Q 953 541 1156 1306 
Q 1359 2072 1739 2783 
Q 2119 3494 2547 3981 
L 303 3981 
z
" transform="scale(0.015625)"/>
       </defs>
       <use xlink:href="#ArialMT-37"/>
       <use xlink:href="#ArialMT-2e" x="55.615234"/>
       <use xlink:href="#ArialMT-35" x="83.398438"/>
      </g>
     </g>
    </g>
    <g id="ytick_4">
     <g id="line2d_9">
      <path d="M 72 251.705076 
L 518.4 251.705076 
" clip-path="url(#p6af01692a8)" style="fill: none; stroke: #ffffff; stroke-width: 0.8; stroke-linecap: round"/>
     </g>
     <g id="text_10">
      <!-- 10.0 -->
      <g style="fill: #262626" transform="translate(45.539062 255.283982) scale(0.1 -0.1)">
       <defs>
        <path id="ArialMT-31" d="M 2384 0 
L 1822 0 
L 1822 3584 
Q 1619 3391 1289 3197 
Q 959 3003 697 2906 
L 697 3450 
Q 1169 3672 1522 3987 
Q 1875 4303 2022 4600 
L 2384 4600 
L 2384 0 
z
" transform="scale(0.015625)"/>
       </defs>
       <use xlink:href="#ArialMT-31"/>
       <use xlink:href="#ArialMT-30" x="55.615234"/>
       <use xlink:href="#ArialMT-2e" x="111.230469"/>
       <use xlink:href="#ArialMT-30" x="139.013672"/>
      </g>
     </g>
    </g>
    <g id="ytick_5">
     <g id="line2d_10">
      <path d="M 72 209.665716 
L 518.4 209.665716 
" clip-path="url(#p6af01692a8)" style="fill: none; stroke: #ffffff; stroke-width: 0.8; stroke-linecap: round"/>
     </g>
     <g id="text_11">
      <!-- 12.5 -->
      <g style="fill: #262626" transform="translate(45.539062 213.244622) scale(0.1 -0.1)">
       <use xlink:href="#ArialMT-31"/>
       <use xlink:href="#ArialMT-32" x="55.615234"/>
       <use xlink:href="#ArialMT-2e" x="111.230469"/>
       <use xlink:href="#ArialMT-35" x="139.013672"/>
      </g>
     </g>
    </g>
    <g id="ytick_6">
     <g id="line2d_11">
      <path d="M 72 167.626355 
L 518.4 167.626355 
" clip-path="url(#p6af01692a8)" style="fill: none; stroke: #ffffff; stroke-width: 0.8; stroke-linecap: round"/>
     </g>
     <g id="text_12">
      <!-- 15.0 -->
      <g style="fill: #262626" transform="translate(45.539062 171.205262) scale(0.1 -0.1)">
       <use xlink:href="#ArialMT-31"/>
       <use xlink:href="#ArialMT-35" x="55.615234"/>
       <use xlink:href="#ArialMT-2e" x="111.230469"/>
       <use xlink:href="#ArialMT-30" x="139.013672"/>
      </g>
     </g>
    </g>
    <g id="ytick_7">
     <g id="line2d_12">
      <path d="M 72 125.586995 
L 518.4 125.586995 
" clip-path="url(#p6af01692a8)" style="fill: none; stroke: #ffffff; stroke-width: 0.8; stroke-linecap: round"/>
     </g>
     <g id="text_13">
      <!-- 17.5 -->
      <g style="fill: #262626" transform="translate(45.539062 129.165901) scale(0.1 -0.1)">
       <use xlink:href="#ArialMT-31"/>
       <use xlink:href="#ArialMT-37" x="55.615234"/>
       <use xlink:href="#ArialMT-2e" x="111.230469"/>
       <use xlink:href="#ArialMT-35" x="139.013672"/>
      </g>
     </g>
    </g>
    <g id="ytick_8">
     <g id="line2d_13">
      <path d="M 72 83.547635 
L 518.4 83.547635 
" clip-path="url(#p6af01692a8)" style="fill: none; stroke: #ffffff; stroke-width: 0.8; stroke-linecap: round"/>
     </g>
     <g id="text_14">
      <!-- 20.0 -->
      <g style="fill: #262626" transform="translate(45.539062 87.126541) scale(0.1 -0.1)">
       <use xlink:href="#ArialMT-32"/>
       <use xlink:href="#ArialMT-30" x="55.615234"/>
       <use xlink:href="#ArialMT-2e" x="111.230469"/>
       <use xlink:href="#ArialMT-30" x="139.013672"/>
      </g>
     </g>
    </g>
    <g id="text_15">
     <!-- (m/s) -->
     <g style="fill: #262626" transform="translate(39.434375 229.543594) rotate(-90) scale(0.1 -0.1)">
      <defs>
       <path id="ArialMT-28" d="M 1497 -1347 
Q 1031 -759 709 28 
Q 388 816 388 1659 
Q 388 2403 628 3084 
Q 909 3875 1497 4659 
L 1900 4659 
Q 1522 4009 1400 3731 
Q 1209 3300 1100 2831 
Q 966 2247 966 1656 
Q 966 153 1900 -1347 
L 1497 -1347 
z
" transform="scale(0.015625)"/>
       <path id="ArialMT-6d" d="M 422 0 
L 422 3319 
L 925 3319 
L 925 2853 
Q 1081 3097 1340 3245 
Q 1600 3394 1931 3394 
Q 2300 3394 2536 3241 
Q 2772 3088 2869 2813 
Q 3263 3394 3894 3394 
Q 4388 3394 4653 3120 
Q 4919 2847 4919 2278 
L 4919 0 
L 4359 0 
L 4359 2091 
Q 4359 2428 4304 2576 
Q 4250 2725 4106 2815 
Q 3963 2906 3769 2906 
Q 3419 2906 3187 2673 
Q 2956 2441 2956 1928 
L 2956 0 
L 2394 0 
L 2394 2156 
Q 2394 2531 2256 2718 
Q 2119 2906 1806 2906 
Q 1569 2906 1367 2781 
Q 1166 2656 1075 2415 
Q 984 2175 984 1722 
L 984 0 
L 422 0 
z
" transform="scale(0.015625)"/>
       <path id="ArialMT-2f" d="M 0 -78 
L 1328 4659 
L 1778 4659 
L 453 -78 
L 0 -78 
z
" transform="scale(0.015625)"/>
       <path id="ArialMT-29" d="M 791 -1347 
L 388 -1347 
Q 1322 153 1322 1656 
Q 1322 2244 1188 2822 
Q 1081 3291 891 3722 
Q 769 4003 388 4659 
L 791 4659 
Q 1378 3875 1659 3084 
Q 1900 2403 1900 1659 
Q 1900 816 1576 28 
Q 1253 -759 791 -1347 
z
" transform="scale(0.015625)"/>
      </defs>
      <use xlink:href="#ArialMT-28"/>
      <use xlink:href="#ArialMT-6d" x="33.300781"/>
      <use xlink:href="#ArialMT-2f" x="116.601562"/>
      <use xlink:href="#ArialMT-73" x="144.384766"/>
      <use xlink:href="#ArialMT-29" x="194.384766"/>
     </g>
    </g>
   </g>
   <g id="line2d_14">
    <path d="M 92.290909 311.022613 
L 92.784605 311.737282 
L 93.278301 307.28111 
L 93.771997 281.805258 
L 94.265693 322.499359 
L 94.75939 327.754279 
L 95.253086 303.119214 
L 95.746782 190.411689 
L 96.240478 316.140165 
L 96.734174 324.307051 
L 97.22787 315.370945 
L 97.721566 322.877713 
L 98.215262 313.309496 
L 98.708958 330.115832 
L 99.202654 328.006515 
L 99.69635 302.278426 
L 100.190046 282.35177 
L 100.683743 299.251592 
L 101.177439 339.525299 
L 101.671135 322.331201 
L 102.164831 329.225656 
L 102.658527 296.476995 
L 103.152223 321.910808 
L 103.645919 293.996672 
L 104.139615 232.114734 
L 104.633311 237.579851 
L 105.127007 332.6135 
L 105.620703 328.34283 
L 106.114399 325.69435 
L 106.608096 314.301683 
L 107.101792 295.383971 
L 107.595488 298.663041 
L 108.089184 328.142916 
L 109.076576 66.96 
L 109.570272 335.069127 
L 110.063968 327.165728 
L 110.557664 280.922431 
L 111.05136 323.466264 
L 111.545056 233.796308 
L 112.038752 169.420035 
L 112.532449 315.249904 
L 113.026145 326.661255 
L 113.519841 304.212237 
L 114.013537 317.580753 
L 114.507233 318.474163 
L 115.000929 311.90544 
L 115.494625 287.816886 
L 115.988321 256.455524 
L 116.482017 290.633524 
L 116.975713 302.133493 
L 117.469409 323.04587 
L 117.963106 331.512833 
L 118.456802 318.841934 
L 118.950498 292.609373 
L 119.444194 311.443007 
L 120.431586 326.871452 
L 120.925282 320.565548 
L 121.418978 302.824938 
L 121.912674 306.524402 
L 122.40637 300.807049 
L 122.900066 346.293636 
L 123.393762 277.029822 
L 123.887459 223.83298 
L 124.381155 276.466259 
L 124.874851 315.646943 
L 125.862243 302.530662 
L 126.355939 320.019036 
L 126.849635 230.024608 
L 127.837027 308.878606 
L 128.330723 281.048549 
L 128.824419 227.574483 
L 129.318115 302.824938 
L 129.811812 304.296316 
L 130.305508 301.984151 
L 130.799204 298.242648 
L 131.2929 307.112953 
L 131.786596 199.366072 
L 132.280292 267.049442 
L 132.773988 314.890234 
L 133.267684 277.853558 
L 133.76138 303.077174 
L 134.255076 319.430485 
L 134.748772 323.508303 
L 135.242468 318.648674 
L 135.736165 299.33399 
L 136.229861 253.849083 
L 136.723557 139.670181 
L 137.217253 285.967155 
L 137.710949 322.793634 
L 138.204645 327.249806 
L 138.698341 330.5496 
L 139.192037 244.8947 
L 139.685733 308.079858 
L 140.179429 312.031558 
L 140.673125 280.922431 
L 141.166821 274.952842 
L 141.660518 229.466254 
L 142.154214 247.248904 
L 142.64791 245.945684 
L 143.141606 278.257489 
L 144.128998 307.911701 
L 144.622694 167.584316 
L 145.610086 308.58433 
L 146.103782 259.061964 
L 146.597478 279.156778 
L 147.091175 232.997561 
L 147.584871 260.65946 
L 148.078567 256.287366 
L 148.572263 226.949478 
L 149.065959 291.973491 
L 149.559655 300.891127 
L 150.053351 322.667516 
L 150.547047 308.416173 
L 151.040743 274.700606 
L 152.028135 226.145145 
L 152.521831 159.767956 
L 153.015528 290.171091 
L 153.509224 232.240852 
L 154.00292 221.894697 
L 154.496616 284.748013 
L 154.990312 300.807049 
L 155.484008 291.169158 
L 156.4714 318.589698 
L 156.965096 225.934948 
L 157.458792 269.235489 
L 157.952488 249.43495 
L 158.446184 268.604899 
L 159.433577 234.006505 
L 159.927273 137.358016 
L 160.420969 226.901853 
L 160.914665 277.601322 
L 161.408361 273.439425 
L 161.902057 250.191659 
L 162.395753 304.212237 
L 162.889449 300.226361 
L 163.383145 290.84372 
L 163.876841 289.518158 
L 164.370537 245.819565 
L 164.864234 243.044968 
L 165.35793 259.482358 
L 165.851626 294.979159 
L 166.345322 282.393809 
L 166.839018 276.928692 
L 167.332714 201.718807 
L 167.82641 212.482353 
L 168.320106 243.538782 
L 168.813802 224.46357 
L 169.307498 228.541388 
L 169.801194 243.927794 
L 170.294891 250.317483 
L 170.788587 180.775898 
L 171.282283 276.902822 
L 171.775979 242.866815 
L 172.269675 241.237275 
L 172.763371 216.070428 
L 173.257067 204.158559 
L 173.750763 255.016484 
L 174.244459 271.085221 
L 174.738155 218.830296 
L 175.231851 213.191142 
L 175.725547 188.435839 
L 176.219244 279.065919 
L 176.71294 253.050335 
L 177.206636 243.801676 
L 177.700332 205.756055 
L 178.194028 252.68815 
L 178.687724 248.581816 
L 179.18142 245.651408 
L 179.675116 216.097738 
L 180.168812 267.970487 
L 180.662508 208.153475 
L 181.156204 223.622783 
L 181.6499 262.677349 
L 182.143597 257.884862 
L 182.637293 194.23727 
L 183.130989 193.018129 
L 184.118381 294.290948 
L 184.612077 212.776628 
L 185.105773 198.945679 
L 185.599469 220.259634 
L 186.093165 212.608471 
L 186.586861 146.516129 
L 187.080557 232.997561 
L 187.574253 227.78468 
L 188.06795 121.257835 
L 188.561646 133.78467 
L 189.055342 152.366068 
L 189.549038 156.948358 
L 190.53643 229.447146 
L 191.030126 191.126358 
L 191.523822 207.101315 
L 192.017518 180.467469 
L 192.511214 184.870137 
L 193.00491 164.473403 
L 193.498607 149.885745 
L 193.992303 237.832087 
L 194.485999 267.589486 
L 194.979695 284.243541 
L 195.473391 288.657674 
L 196.460783 215.761423 
L 196.954479 220.26081 
L 197.448175 285.792823 
L 197.941871 264.064648 
L 198.435567 208.782889 
L 198.929263 174.352653 
L 199.42296 235.737224 
L 199.916656 217.400958 
L 200.410352 216.560171 
L 200.904048 229.701146 
L 201.397744 278.40007 
L 201.89144 254.73191 
L 202.385136 239.051228 
L 202.878832 252.714021 
L 203.372528 254.000484 
L 203.866224 208.362495 
L 204.35992 248.089691 
L 204.853616 145.892006 
L 205.347313 132.565529 
L 205.841009 122.434043 
L 206.334705 188.856232 
L 206.828401 227.490404 
L 207.322097 217.316879 
L 207.815793 267.511875 
L 208.309489 247.585219 
L 208.803185 272.262323 
L 209.790577 165.989466 
L 210.284273 192.177342 
L 210.777969 241.300481 
L 211.271666 222.193445 
L 212.752754 298.233777 
L 213.24645 276.174883 
L 213.740146 276.928692 
L 214.233842 254.23928 
L 214.727538 208.488614 
L 215.221234 174.058378 
L 215.71493 195.918845 
L 216.208626 188.856232 
L 216.702322 202.476985 
L 217.196019 230.979671 
L 217.689715 214.920636 
L 218.183411 282.120257 
L 218.677107 289.58254 
L 219.170803 265.536025 
L 219.664499 204.494874 
L 220.158195 213.32314 
L 220.651891 224.715807 
L 221.145587 230.420812 
L 221.639283 224.127256 
L 222.132979 224.799885 
L 222.626676 208.029318 
L 223.614068 249.098636 
L 224.107764 256.70776 
L 224.60146 234.048545 
L 225.095156 225.119927 
L 225.588852 219.25069 
L 226.082548 231.568222 
L 226.576244 218.536021 
L 227.06994 181.036911 
L 227.563636 200.627253 
L 228.057332 242.120102 
L 228.551029 212.860707 
L 229.044725 215.467147 
L 229.538421 238.426687 
L 230.032117 240.665481 
L 230.525813 221.562855 
L 231.019509 218.956414 
L 231.513205 155.533131 
L 232.006901 134.778 
L 232.500597 172.22426 
L 232.994293 200.711332 
L 233.487989 269.19345 
L 233.981685 309.105974 
L 234.475382 291.380825 
L 234.969078 293.786476 
L 235.462774 246.224564 
L 235.95647 263.518136 
L 236.450166 263.349979 
L 236.943862 244.726542 
L 237.437558 250.401856 
L 237.931254 252.377706 
L 238.42495 295.383971 
L 238.918646 283.528872 
L 239.412342 296.757159 
L 239.906038 298.789159 
L 240.399735 139.214474 
L 240.893431 221.403811 
L 241.387127 210.100808 
L 242.374519 287.690768 
L 243.855607 309.298999 
L 244.349303 329.195082 
L 244.842999 273.229228 
L 245.336695 171.199701 
L 245.830392 166.869647 
L 246.324088 251.999351 
L 246.817784 234.865813 
L 247.31148 239.135307 
L 247.805176 274.027976 
L 248.298872 276.171984 
L 249.77996 134.289143 
L 250.273656 121.046744 
L 250.767352 124.073578 
L 251.261048 181.078951 
L 251.754745 221.773051 
L 252.248441 288.825831 
L 252.742137 305.30526 
L 253.235833 305.137103 
L 253.729529 298.831199 
L 254.223225 253.38665 
L 254.716921 281.300786 
L 255.210617 265.199711 
L 255.704313 232.030655 
L 256.198009 274.784685 
L 256.691705 299.37771 
L 257.185401 310.013669 
L 257.679098 303.497568 
L 258.172794 274.490409 
L 258.66649 293.954633 
L 259.160186 296.434955 
L 260.147578 320.817784 
L 260.641274 292.357137 
L 261.13497 140.38485 
L 261.628666 164.095049 
L 262.122362 267.680033 
L 262.616058 208.407475 
L 263.109754 301.858033 
L 263.603451 316.151415 
L 264.097147 306.239828 
L 264.590843 298.663041 
L 265.084539 264.190766 
L 265.578235 245.104896 
L 266.071931 302.69882 
L 267.059323 262.803467 
L 267.553019 325.946586 
L 268.046715 265.176486 
L 268.540411 176.664818 
L 269.034107 290.110824 
L 269.527804 311.443007 
L 270.0215 302.740859 
L 270.515196 312.914384 
L 271.008892 304.67467 
L 271.502588 245.020818 
L 271.996284 300.470734 
L 272.48998 310.097747 
L 272.983676 303.917961 
L 273.477372 293.576279 
L 273.971068 340.239969 
L 274.464764 323.844618 
L 274.958461 288.90991 
L 275.452157 309.25696 
L 275.945853 289.204185 
L 276.439549 292.81957 
L 276.933245 316.067336 
L 277.426941 320.901863 
L 277.920637 329.60401 
L 278.414333 327.291846 
L 278.908029 242.540495 
L 279.401725 303.917961 
L 279.895421 340.197929 
L 280.389117 318.379501 
L 280.882814 272.514559 
L 281.37651 260.911696 
L 281.870206 339.146945 
L 282.363902 289.204185 
L 282.857598 337.339253 
L 283.351294 314.469841 
L 283.84499 281.721179 
L 284.338686 335.783796 
L 284.832382 305.137103 
L 285.326078 226.607578 
L 285.819774 256.245327 
L 286.31347 327.586121 
L 286.807167 325.358035 
L 287.300863 322.205083 
L 287.794559 328.468948 
L 288.288255 271.79989 
L 288.781951 265.493986 
L 289.275647 265.704183 
L 289.769343 275.331196 
L 290.263039 344.10759 
L 290.756735 353.398288 
L 291.250431 333.051238 
L 291.744127 317.622793 
L 292.237823 318.043186 
L 292.73152 313.334778 
L 293.225216 315.268589 
L 293.718912 289.5405 
L 294.212608 311.90544 
L 294.706304 297.485939 
L 295.2 194.405428 
L 295.693696 232.324931 
L 296.187392 345.158574 
L 296.681088 306.734598 
L 297.174784 247.255371 
L 297.66848 328.337832 
L 298.655873 336.036033 
L 299.149569 264.61116 
L 299.643265 282.856242 
L 300.136961 337.633528 
L 300.630657 322.877713 
L 301.124353 263.223861 
L 301.618049 333.429592 
L 302.111745 362.352672 
L 302.605441 343.43496 
L 303.099137 355.205981 
L 303.592833 269.025292 
L 304.08653 249.43495 
L 304.580226 312.283794 
L 305.073922 300.176458 
L 305.567618 196.25516 
L 306.061314 213.064142 
L 306.55501 337.885764 
L 307.048706 316.992202 
L 307.542402 215.425108 
L 308.036098 326.829413 
L 308.529794 321.196138 
L 309.02349 285.378603 
L 309.517186 269.992198 
L 310.010883 243.591479 
L 310.504579 264.022608 
L 310.998275 276.970731 
L 311.491971 321.952847 
L 311.985667 332.000254 
L 312.479363 319.724761 
L 312.973059 321.238178 
L 313.466755 274.658567 
L 313.960451 247.162457 
L 314.454147 306.061969 
L 314.947843 247.795415 
L 315.441539 304.254276 
L 315.935236 297.948372 
L 316.428932 301.605797 
L 316.922628 315.478785 
L 317.91002 191.126358 
L 318.403716 306.188087 
L 318.897412 330.94927 
L 319.391108 302.740859 
L 319.884804 308.962685 
L 320.872196 303.203292 
L 321.365893 285.168407 
L 321.859589 259.566436 
L 322.353285 328.97342 
L 322.846981 286.219391 
L 323.340677 285.504722 
L 323.834373 224.253374 
L 324.328069 276.508298 
L 324.821765 278.694345 
L 325.315461 271.968048 
L 325.809157 277.811519 
L 326.302853 258.851767 
L 326.796549 309.214921 
L 327.290246 277.495488 
L 327.783942 286.26143 
L 328.277638 196.717593 
L 328.771334 168.551221 
L 329.758726 298.242648 
L 330.746118 254.773949 
L 331.239814 295.594168 
L 331.73351 237.495772 
L 332.227206 262.130837 
L 332.720902 211.010975 
L 333.214599 289.58254 
L 333.708295 231.231907 
L 334.201991 212.566432 
L 334.695687 251.895167 
L 335.189383 314.764116 
L 335.683079 268.899174 
L 336.176775 311.947479 
L 336.670471 301.942111 
L 337.164167 275.415275 
L 337.657863 222.007746 
L 338.645255 267.680033 
L 339.138952 269.86608 
L 339.632648 265.788262 
L 340.126344 328.090594 
L 340.62004 277.138889 
L 341.113736 169.518127 
L 341.607432 221.310618 
L 342.101128 229.886648 
L 342.594824 284.705974 
L 343.08852 281.6371 
L 343.582216 303.749804 
L 344.075912 290.88576 
L 344.569608 292.567334 
L 345.063305 296.884159 
L 345.557001 247.080746 
L 346.050697 287.396493 
L 346.544393 180.388142 
L 347.038089 156.585074 
L 347.531785 259.272161 
L 348.025481 288.363398 
L 348.519177 261.752483 
L 349.012873 310.56018 
L 349.506569 287.816886 
L 350.000265 255.609151 
L 350.493962 244.011873 
L 350.987658 193.648719 
L 351.97505 284.327619 
L 352.468746 286.051233 
L 353.456138 214.962675 
L 353.949834 220.007398 
L 354.44353 273.77574 
L 354.937226 233.754269 
L 355.430922 222.319563 
L 355.924618 250.612053 
L 356.418315 239.892016 
L 356.912011 235.604001 
L 357.405707 242.372338 
L 357.899403 243.717597 
L 358.393099 250.906328 
L 358.886795 201.636198 
L 359.380491 277.307046 
L 359.874187 277.769479 
L 360.861579 166.197017 
L 361.355275 285.63084 
L 361.848971 203.612048 
L 362.342668 223.917059 
L 362.836364 217.90543 
L 363.33006 235.20448 
L 363.823756 265.451947 
L 364.317452 257.968941 
L 364.811148 268.52082 
L 365.304844 248.13173 
L 365.79854 203.233694 
L 366.292236 276.760535 
L 366.785932 180.784675 
L 367.279628 211.935841 
L 367.773324 214.584321 
L 368.267021 279.913487 
L 368.760717 258.305255 
L 369.254413 264.400963 
L 369.748109 242.374127 
L 370.241805 325.882498 
L 370.735501 284.916171 
L 371.229197 281.940489 
L 371.722893 240.312409 
L 372.216589 211.557487 
L 372.710285 201.804355 
L 373.203981 189.110941 
L 373.697678 220.511871 
L 374.191374 259.188082 
L 374.68507 257.800783 
L 375.178766 259.969485 
L 375.672462 249.266793 
L 376.166158 315.436746 
L 376.659854 283.930156 
L 377.15355 289.498461 
L 377.647246 267.427797 
L 378.140942 220.385753 
L 378.634638 150.978769 
L 379.128334 175.361598 
L 379.622031 194.111152 
L 380.115727 198.735482 
L 381.103119 228.120995 
L 381.596815 235.814198 
L 382.090511 236.9913 
L 382.584207 253.512768 
L 383.077903 240.858921 
L 383.571599 202.266788 
L 384.558991 369.36 
L 385.052687 267.231613 
L 385.546384 276.129944 
L 386.04008 260.182749 
L 386.533776 248.972517 
L 387.027472 204.146548 
L 387.521168 243.885755 
L 388.014864 263.2659 
L 388.50856 218.872336 
L 389.002256 215.214911 
L 389.495952 249.326263 
L 389.989648 204.074481 
L 390.483344 192.765893 
L 390.97704 198.777521 
L 391.470737 229.592372 
L 391.964433 238.336559 
L 392.951825 168.130828 
L 393.445521 167.090133 
L 393.939217 195.834766 
L 394.432913 243.798148 
L 394.926609 312.57807 
L 395.420305 262.845506 
L 395.914001 290.044972 
L 396.407697 272.220284 
L 396.901393 231.315986 
L 397.888786 304.296316 
L 398.382482 204.245111 
L 398.876178 180.540847 
L 399.369874 289.118056 
L 399.86357 265.642153 
L 400.357266 295.762325 
L 400.850962 315.499284 
L 401.344658 273.10311 
L 401.838354 289.5405 
L 402.33205 280.204822 
L 402.825747 267.84819 
L 403.319443 214.332085 
L 403.813139 216.277666 
L 404.306835 160.7319 
L 404.800531 152.019463 
L 405.294227 154.636193 
L 406.281619 254.647831 
L 407.269011 220.806146 
L 407.762707 245.441211 
L 408.256403 248.511368 
L 408.7501 259.007913 
L 409.243796 283.125823 
L 409.737492 298.11653 
L 410.724884 280.224578 
L 411.21858 246.585176 
L 411.712276 258.095059 
L 412.205972 293.534239 
L 412.699668 269.277529 
L 413.193364 254.521713 
L 413.68706 230.012766 
L 414.180756 254.185398 
L 414.674453 261.205971 
L 415.168149 279.182504 
L 415.661845 313.923329 
L 416.155541 299.568798 
L 416.649237 273.177488 
L 417.142933 294.995528 
L 417.636629 306.457139 
L 418.130325 313.460896 
L 418.624021 274.484135 
L 419.117717 267.492839 
L 419.611413 309.761432 
L 420.105109 262.803467 
L 420.598806 193.648719 
L 421.092502 157.480464 
L 421.586198 144.672865 
L 422.079894 156.864279 
L 422.57359 151.609359 
L 423.067286 166.323135 
L 423.560982 170.569111 
L 424.054678 206.344606 
L 424.548374 146.102203 
L 425.04207 136.43315 
L 425.535766 145.849967 
L 426.029463 223.286468 
L 426.523159 218.115627 
L 427.016855 208.278417 
L 427.510551 212.314195 
L 428.004247 133.574474 
L 428.497943 129.959089 
L 428.991639 135.214009 
L 429.485335 174.352653 
L 430.472727 196.297199 
L 431.460119 234.763214 
L 431.953816 309.172881 
L 432.447512 304.128158 
L 432.941208 275.289157 
L 433.434904 166.112938 
L 434.422296 218.662139 
L 434.915992 205.167504 
L 435.409688 182.634407 
L 435.903384 235.561962 
L 436.39708 254.017241 
L 436.890776 239.765898 
L 437.384472 265.409907 
L 437.878169 269.739961 
L 438.371865 305.179142 
L 439.359257 240.312409 
L 439.852953 221.268579 
L 440.346649 215.887541 
L 440.840345 253.470729 
L 441.334041 238.126363 
L 441.827737 196.339238 
L 442.321433 236.823142 
L 442.815129 254.900067 
L 443.308825 319.220288 
L 443.802522 311.148731 
L 444.296218 309.298999 
L 444.789914 305.893811 
L 445.777306 261.584326 
L 446.271002 257.548547 
L 446.764698 265.325829 
L 447.258394 226.607578 
L 447.75209 176.076267 
L 448.245786 256.623681 
L 448.739482 253.008296 
L 449.233179 206.260527 
L 449.726875 198.020813 
L 450.220571 201.972513 
L 451.207963 248.468045 
L 451.701659 260.028869 
L 452.195355 256.203287 
L 452.689051 273.355346 
L 453.182747 300.765009 
L 453.676443 315.142471 
L 454.170139 308.920645 
L 454.663835 262.130837 
L 455.157532 263.223861 
L 456.144924 245.777526 
L 456.63862 223.790941 
L 457.132316 252.461784 
L 457.626012 248.80436 
L 458.119708 293.996672 
L 458.613404 303.749804 
L 459.1071 305.515457 
L 459.600796 313.83925 
L 460.094492 254.437634 
L 460.588188 276.718495 
L 461.081885 328.553026 
L 461.575581 333.55571 
L 462.069277 313.040503 
L 463.056669 250.023502 
L 463.550365 240.858921 
L 464.044061 254.311516 
L 464.537757 301.731915 
L 465.031453 285.126367 
L 465.525149 318.169304 
L 466.018845 312.57807 
L 466.512541 295.426011 
L 467.006238 313.587014 
L 467.499934 315.8151 
L 468.487326 241.615629 
L 468.981022 305.809733 
L 469.474718 288.111162 
L 469.968414 305.809733 
L 470.46211 280.670195 
L 470.955806 316.151415 
L 471.449502 303.203292 
L 471.943198 269.908119 
L 472.436894 283.066439 
L 472.930591 293.071806 
L 473.424287 292.357137 
L 473.917983 330.612955 
L 474.411679 227.196129 
L 474.905375 187.595052 
L 475.892767 287.690768 
L 476.386463 280.249802 
L 476.880159 269.833154 
L 477.373855 194.741743 
L 477.867551 325.147838 
L 478.361248 222.739957 
L 479.34864 314.722077 
L 479.842336 312.493991 
L 480.336032 300.554813 
L 480.829728 326.535137 
L 481.81712 339.861614 
L 482.310816 333.849986 
L 482.804512 302.572702 
L 483.298208 321.490414 
L 483.791904 305.767693 
L 484.285601 334.438537 
L 484.779297 308.794527 
L 485.272993 334.186301 
L 485.766689 294.452203 
L 486.260385 321.74265 
L 486.754081 317.538714 
L 487.247777 315.463297 
L 487.741473 341.328447 
L 488.235169 335.53156 
L 488.728865 341.332992 
L 489.222561 333.892025 
L 489.716257 302.782899 
L 490.209954 350.371454 
L 490.70365 329.393814 
L 491.197346 322.321727 
L 491.691042 306.314205 
L 492.184738 301.479678 
L 492.678434 317.16036 
L 493.17213 266.358796 
L 493.665826 291.474311 
L 494.159522 335.993993 
L 494.653218 254.088525 
L 495.146914 248.510085 
L 495.64061 279.156778 
L 496.134307 254.521713 
L 496.628003 275.709551 
L 497.121699 307.911701 
L 497.615395 277.265007 
L 498.109091 279.391385 
L 498.109091 279.391385 
" clip-path="url(#p6af01692a8)" style="fill: none; stroke: #1f77b4; stroke-width: 1.5; stroke-linecap: round"/>
   </g>
   <g id="line2d_15">
    <path d="M 92.290909 301.592065 
L 92.784605 304.601321 
L 93.278301 298.000889 
L 93.771997 307.732596 
L 94.265693 303.540687 
L 94.75939 306.194119 
L 95.253086 299.931325 
L 95.746782 297.132826 
L 96.240478 309.507409 
L 96.734174 302.378863 
L 97.22787 300.988441 
L 98.215262 313.888547 
L 98.708958 315.547904 
L 99.202654 311.063741 
L 99.69635 308.559194 
L 100.190046 309.424528 
L 100.683743 306.498058 
L 101.177439 297.68021 
L 101.671135 296.40381 
L 102.164831 293.92127 
L 102.658527 302.314319 
L 103.152223 304.97911 
L 103.645919 298.043529 
L 104.139615 304.261815 
L 104.633311 305.067041 
L 105.620703 287.636443 
L 106.114399 284.506437 
L 106.608096 292.806337 
L 107.101792 295.795199 
L 107.595488 291.822741 
L 108.089184 280.528416 
L 108.58288 277.906449 
L 109.076576 270.313237 
L 110.063968 280.897064 
L 110.557664 279.252092 
L 111.05136 284.214244 
L 111.545056 282.88418 
L 112.038752 276.919124 
L 112.532449 280.286467 
L 113.026145 289.447165 
L 113.519841 286.075518 
L 114.013537 284.065577 
L 114.507233 287.572963 
L 115.000929 294.484955 
L 115.494625 295.076107 
L 115.988321 287.935151 
L 116.482017 293.979234 
L 116.975713 298.304787 
L 117.469409 295.367454 
L 118.456802 287.159388 
L 119.444194 290.668642 
L 119.93789 286.942063 
L 120.431586 294.256321 
L 120.925282 297.480781 
L 121.418978 297.876106 
L 121.912674 288.94203 
L 122.40637 299.286188 
L 122.900066 307.281051 
L 123.393762 310.995166 
L 124.381155 291.000053 
L 124.874851 290.986926 
L 125.368547 296.083186 
L 125.862243 296.525092 
L 126.355939 286.034519 
L 127.343331 294.588868 
L 127.837027 283.593735 
L 128.330723 284.529318 
L 128.824419 293.966466 
L 129.318115 286.438965 
L 129.811812 284.121002 
L 130.305508 284.656832 
L 130.799204 286.758771 
L 131.2929 287.821533 
L 131.786596 283.729953 
L 132.280292 276.236983 
L 132.773988 273.094927 
L 133.267684 281.003447 
L 133.76138 284.377929 
L 134.255076 285.057737 
L 134.748772 277.464939 
L 135.736165 286.896944 
L 136.229861 282.320771 
L 136.723557 281.133636 
L 137.217253 292.811612 
L 137.710949 284.695158 
L 138.204645 278.743242 
L 138.698341 281.7102 
L 139.192037 283.669647 
L 139.685733 284.678542 
L 140.179429 272.074792 
L 140.673125 264.045466 
L 141.166821 261.266059 
L 141.660518 262.127193 
L 142.154214 261.329291 
L 142.64791 260.043315 
L 143.141606 252.720678 
L 143.635302 253.673765 
L 144.128998 259.054744 
L 144.622694 258.862159 
L 145.11639 261.063657 
L 145.610086 256.388674 
L 146.103782 260.44997 
L 146.597478 258.913939 
L 147.091175 271.01806 
L 147.584871 273.903676 
L 148.078567 268.674049 
L 148.572263 252.972171 
L 149.065959 252.532984 
L 149.559655 261.165085 
L 150.053351 264.518588 
L 150.547047 266.249945 
L 151.040743 260.761581 
L 151.534439 262.66079 
L 152.028135 263.983678 
L 152.521831 271.77144 
L 153.015528 269.532424 
L 153.509224 270.364779 
L 154.496616 270.522388 
L 154.990312 272.066439 
L 155.484008 275.412075 
L 155.977704 276.829922 
L 156.4714 265.898222 
L 156.965096 259.790721 
L 157.458792 261.17125 
L 157.952488 282.020897 
L 158.446184 275.18764 
L 158.939881 274.320549 
L 159.433577 266.509482 
L 159.927273 263.580538 
L 160.914665 268.407513 
L 161.902057 261.530907 
L 162.889449 262.8318 
L 163.383145 260.996661 
L 163.876841 250.16289 
L 164.370537 253.582771 
L 164.864234 252.304305 
L 165.35793 247.214397 
L 165.851626 251.888304 
L 166.345322 255.266199 
L 166.839018 250.863064 
L 167.332714 243.914186 
L 167.82641 239.208585 
L 168.320106 237.327281 
L 168.813802 242.750781 
L 169.307498 242.418129 
L 169.801194 239.814295 
L 170.294891 234.262457 
L 170.788587 236.776373 
L 171.282283 243.155132 
L 171.775979 246.486228 
L 172.269675 237.548528 
L 172.763371 232.145111 
L 173.257067 225.257195 
L 173.750763 227.747318 
L 174.738155 242.41961 
L 175.231851 235.466798 
L 175.725547 232.260967 
L 176.219244 233.610931 
L 176.71294 240.603139 
L 177.206636 245.729384 
L 177.700332 239.3306 
L 178.194028 236.5308 
L 179.18142 237.814659 
L 179.675116 238.934202 
L 180.168812 242.619386 
L 180.662508 231.598375 
L 181.156204 229.072103 
L 181.6499 232.17829 
L 182.143597 233.210899 
L 182.637293 235.527963 
L 183.130989 232.374381 
L 183.624685 228.20577 
L 184.118381 227.437747 
L 185.105773 241.249354 
L 185.599469 240.549389 
L 186.093165 232.892159 
L 186.586861 236.734466 
L 187.080557 237.604215 
L 187.574253 237.440584 
L 188.06795 239.427275 
L 188.561646 239.69754 
L 189.055342 235.071589 
L 189.549038 239.091584 
L 190.042734 247.912429 
L 190.53643 247.260083 
L 191.030126 245.663052 
L 191.523822 241.492377 
L 192.017518 236.130122 
L 192.511214 235.292879 
L 193.00491 236.577748 
L 193.498607 236.66353 
L 193.992303 237.913631 
L 194.485999 235.162997 
L 195.473391 237.122779 
L 195.967087 235.515873 
L 196.460783 235.006251 
L 196.954479 227.834447 
L 197.448175 228.049418 
L 197.941871 228.666761 
L 198.435567 230.58388 
L 198.929263 231.646437 
L 199.42296 229.804343 
L 199.916656 227.1352 
L 200.410352 229.337033 
L 200.904048 233.591664 
L 201.397744 232.601944 
L 202.385136 224.059513 
L 202.878832 229.15838 
L 203.372528 229.753481 
L 203.866224 232.874479 
L 204.35992 233.590833 
L 204.853616 233.483777 
L 205.347313 232.331181 
L 205.841009 228.081222 
L 206.334705 229.009044 
L 206.828401 230.615674 
L 207.322097 235.323907 
L 207.815793 236.906625 
L 208.309489 236.038438 
L 208.803185 236.503467 
L 209.296881 240.799616 
L 209.790577 238.674896 
L 210.777969 232.51688 
L 211.271666 231.159249 
L 211.765362 232.822129 
L 212.259058 229.480522 
L 212.752754 232.340452 
L 213.24645 232.96089 
L 213.740146 234.579811 
L 214.233842 235.029729 
L 215.221234 231.807755 
L 215.71493 232.991741 
L 216.208626 234.90249 
L 216.702322 233.456985 
L 217.196019 233.669924 
L 217.689715 234.730268 
L 218.183411 231.154272 
L 218.677107 231.812732 
L 219.170803 235.410982 
L 219.664499 234.939279 
L 220.158195 235.508562 
L 220.651891 236.657476 
L 221.145587 238.172849 
L 221.639283 238.210129 
L 222.132979 236.230133 
L 222.626676 231.926159 
L 224.60146 235.758051 
L 225.095156 236.409545 
L 225.588852 238.760179 
L 226.082548 236.150187 
L 226.576244 235.503208 
L 227.06994 235.732912 
L 227.563636 236.770665 
L 228.551029 239.598078 
L 229.044725 238.500234 
L 229.538421 239.722412 
L 230.032117 243.003563 
L 230.525813 242.84567 
L 231.019509 238.239394 
L 231.513205 239.259706 
L 232.006901 243.160662 
L 232.500597 238.938937 
L 232.994293 238.593934 
L 233.487989 238.647734 
L 233.981685 239.805921 
L 234.475382 242.360201 
L 234.969078 242.820196 
L 235.462774 243.836671 
L 235.95647 242.24632 
L 236.450166 242.261779 
L 236.943862 242.769182 
L 237.437558 247.528868 
L 237.931254 263.196702 
L 238.42495 273.900964 
L 238.918646 264.722643 
L 239.412342 266.471821 
L 239.906038 269.424229 
L 240.399735 267.965803 
L 240.893431 262.711179 
L 241.387127 254.053216 
L 241.880823 256.344372 
L 242.374519 260.146166 
L 242.868215 258.164298 
L 243.361911 258.579147 
L 243.855607 264.185549 
L 244.349303 264.57259 
L 244.842999 267.100137 
L 245.336695 263.805461 
L 245.830392 258.935477 
L 246.324088 257.892024 
L 246.817784 256.294245 
L 247.31148 253.586981 
L 247.805176 255.055488 
L 248.298872 261.969023 
L 248.792568 262.702899 
L 249.286264 259.801087 
L 249.77996 251.731926 
L 250.273656 247.543303 
L 250.767352 245.127174 
L 251.261048 245.73038 
L 251.754745 250.245544 
L 252.742137 256.179759 
L 253.235833 259.662277 
L 253.729529 259.523409 
L 254.223225 258.436269 
L 254.716921 256.000002 
L 255.210617 250.165606 
L 255.704313 251.424052 
L 256.198009 255.282215 
L 256.691705 267.447218 
L 257.185401 266.19847 
L 257.679098 263.754951 
L 258.172794 262.652798 
L 258.66649 263.322502 
L 259.160186 262.492845 
L 259.653882 257.320733 
L 260.147578 256.771141 
L 260.641274 258.2558 
L 261.13497 261.847607 
L 261.628666 263.585507 
L 262.122362 269.059652 
L 262.616058 267.573126 
L 263.109754 262.669865 
L 263.603451 262.987934 
L 264.097147 261.49129 
L 264.590843 263.884033 
L 265.084539 268.602655 
L 265.578235 270.517237 
L 266.071931 266.706121 
L 266.565627 263.789566 
L 267.059323 277.327804 
L 268.046715 289.18917 
L 268.540411 289.336286 
L 269.034107 288.501838 
L 269.527804 288.295016 
L 270.0215 301.715459 
L 270.515196 301.459371 
L 271.008892 296.211286 
L 271.502588 299.574021 
L 271.996284 296.84165 
L 272.48998 298.54658 
L 272.983676 292.567434 
L 273.477372 291.621383 
L 273.971068 293.773833 
L 274.464764 297.119221 
L 274.958461 295.399396 
L 275.452157 302.494853 
L 275.945853 296.831112 
L 276.439549 294.118755 
L 276.933245 295.586952 
L 277.426941 291.698676 
L 277.920637 294.155923 
L 278.414333 295.457856 
L 279.401725 290.123665 
L 279.895421 291.780145 
L 280.389117 291.30533 
L 280.882814 292.187171 
L 281.37651 287.678058 
L 281.870206 287.701528 
L 282.363902 286.437108 
L 283.351294 286.751867 
L 283.84499 295.222287 
L 284.338686 293.200158 
L 284.832382 289.001032 
L 285.326078 290.679998 
L 286.31347 297.874894 
L 286.807167 290.620471 
L 287.300863 289.378787 
L 287.794559 285.393893 
L 288.288255 285.615065 
L 288.781951 286.767983 
L 289.275647 293.558559 
L 289.769343 287.317211 
L 290.263039 287.980689 
L 290.756735 287.038516 
L 291.250431 284.522589 
L 291.744127 285.481936 
L 292.237823 285.569217 
L 292.73152 285.499556 
L 293.225216 283.839832 
L 293.718912 283.694663 
L 294.212608 293.327763 
L 294.706304 298.499552 
L 295.2 286.76934 
L 295.693696 286.97219 
L 296.187392 284.378586 
L 296.681088 283.795666 
L 297.174784 284.173404 
L 297.66848 286.194624 
L 298.162177 282.401769 
L 298.655873 288.037293 
L 299.149569 291.715693 
L 299.643265 292.719895 
L 300.136961 292.213585 
L 300.630657 289.453708 
L 301.124353 287.677411 
L 301.618049 280.782652 
L 302.605441 295.829849 
L 303.099137 294.27819 
L 303.592833 291.588306 
L 304.08653 294.178911 
L 304.580226 305.594781 
L 305.073922 305.649426 
L 306.061314 295.974823 
L 306.55501 295.689659 
L 307.542402 289.06298 
L 308.036098 291.864108 
L 308.529794 290.075947 
L 309.02349 293.352669 
L 309.517186 287.152848 
L 310.010883 285.344817 
L 310.504579 287.434836 
L 310.998275 285.859892 
L 311.491971 278.887721 
L 311.985667 276.922049 
L 312.479363 281.978632 
L 312.973059 285.201774 
L 313.466755 282.074934 
L 313.960451 274.865979 
L 314.454147 270.291485 
L 314.947843 279.98865 
L 315.441539 282.12134 
L 315.935236 274.652294 
L 316.428932 281.814934 
L 317.416324 275.366944 
L 317.91002 274.149633 
L 318.403716 280.151248 
L 318.897412 290.500551 
L 319.391108 291.287593 
L 319.884804 286.703236 
L 320.3785 277.672805 
L 320.872196 284.608097 
L 321.365893 286.23431 
L 321.859589 280.776701 
L 322.353285 269.788783 
L 322.846981 267.579267 
L 323.340677 273.199856 
L 323.834373 271.216042 
L 324.328069 265.520539 
L 324.821765 261.793079 
L 325.315461 272.629573 
L 325.809157 264.891497 
L 326.302853 263.304359 
L 326.796549 260.062081 
L 327.290246 253.053874 
L 327.783942 252.495436 
L 328.277638 250.902784 
L 329.26503 256.971882 
L 329.758726 260.744406 
L 330.252422 256.824965 
L 330.746118 254.058731 
L 331.239814 257.056289 
L 332.227206 244.227442 
L 332.720902 245.631237 
L 333.214599 250.157094 
L 333.708295 265.810927 
L 334.201991 275.344336 
L 334.695687 267.502244 
L 335.189383 266.547371 
L 335.683079 267.491128 
L 336.670471 256.795637 
L 337.164167 253.369314 
L 337.657863 251.756843 
L 338.151559 268.199034 
L 338.645255 261.693023 
L 339.138952 261.70103 
L 339.632648 262.655782 
L 340.126344 256.559671 
L 340.62004 254.197743 
L 341.113736 249.846528 
L 341.607432 253.908779 
L 342.101128 255.079418 
L 342.594824 259.211352 
L 343.08852 253.060488 
L 343.582216 259.478654 
L 344.075912 262.295777 
L 345.063305 250.599924 
L 345.557001 247.515113 
L 346.050697 249.980362 
L 346.544393 250.333154 
L 347.038089 253.525078 
L 347.531785 246.202238 
L 348.025481 252.853535 
L 348.519177 261.614282 
L 349.012873 260.769736 
L 349.506569 259.125919 
L 350.000265 254.734425 
L 350.987658 241.389583 
L 351.481354 242.895186 
L 351.97505 250.266745 
L 352.468746 254.585589 
L 352.962442 252.41174 
L 353.456138 242.308407 
L 353.949834 236.511368 
L 354.44353 237.320452 
L 355.430922 232.922349 
L 355.924618 232.735213 
L 356.418315 233.491725 
L 356.912011 230.373441 
L 357.405707 236.696629 
L 357.899403 237.010152 
L 358.393099 231.24556 
L 358.886795 228.820694 
L 359.380491 221.243382 
L 359.874187 223.35656 
L 360.367883 222.933149 
L 360.861579 226.5887 
L 361.848971 223.321452 
L 362.342668 220.714227 
L 362.836364 220.979234 
L 363.33006 222.752482 
L 363.823756 220.524708 
L 364.811148 224.105944 
L 365.304844 227.515663 
L 365.79854 230.039949 
L 366.292236 220.961901 
L 366.785932 217.348523 
L 367.279628 219.010386 
L 367.773324 220.052122 
L 368.267021 218.813941 
L 368.760717 221.627513 
L 369.254413 217.296716 
L 370.241805 221.627978 
L 370.735501 225.397834 
L 371.229197 227.986129 
L 371.722893 225.413448 
L 372.216589 223.436188 
L 372.710285 223.312821 
L 373.203981 224.172395 
L 373.697678 226.800432 
L 374.191374 224.841451 
L 374.68507 240.989146 
L 375.178766 231.401658 
L 375.672462 231.003569 
L 376.166158 235.91886 
L 376.659854 236.286402 
L 377.15355 237.431086 
L 377.647246 231.292728 
L 378.634638 235.208918 
L 379.128334 236.236581 
L 379.622031 234.518683 
L 380.115727 236.974884 
L 380.609423 235.747051 
L 381.103119 238.797985 
L 381.596815 237.518021 
L 382.090511 233.162682 
L 383.077903 235.889431 
L 383.571599 235.324012 
L 384.065295 231.051236 
L 384.558991 237.858194 
L 385.546384 244.03363 
L 386.04008 242.594527 
L 386.533776 243.326036 
L 387.521168 238.873852 
L 388.014864 248.503141 
L 388.50856 249.176785 
L 389.002256 250.087705 
L 389.495952 252.437152 
L 389.989648 251.184845 
L 390.483344 250.277711 
L 390.97704 250.418375 
L 391.470737 247.487622 
L 391.964433 245.648536 
L 392.458129 245.204805 
L 392.951825 242.65101 
L 393.445521 248.186974 
L 393.939217 247.062206 
L 394.432913 245.620311 
L 394.926609 247.837132 
L 395.914001 242.025164 
L 396.407697 243.398332 
L 396.901393 248.57443 
L 397.39509 258.640441 
L 397.888786 263.617485 
L 398.382482 263.110688 
L 399.369874 271.160715 
L 399.86357 261.178996 
L 400.357266 254.972354 
L 400.850962 250.72221 
L 401.344658 252.597639 
L 401.838354 257.177073 
L 402.33205 264.667153 
L 402.825747 255.118915 
L 403.319443 258.817455 
L 403.813139 264.221686 
L 404.306835 262.545355 
L 404.800531 260.087969 
L 405.294227 253.863403 
L 405.787923 254.389131 
L 406.775315 247.694915 
L 407.269011 249.265071 
L 407.762707 253.947716 
L 408.256403 252.379937 
L 408.7501 249.294904 
L 409.737492 232.846078 
L 410.231188 234.38275 
L 411.21858 239.087831 
L 411.712276 242.132675 
L 412.205972 246.872311 
L 412.699668 246.879714 
L 413.193364 243.992478 
L 413.68706 247.000381 
L 414.180756 261.505325 
L 414.674453 252.662948 
L 415.168149 253.986395 
L 415.661845 270.77495 
L 416.155541 280.941862 
L 416.649237 271.760619 
L 417.142933 267.029083 
L 417.636629 265.15919 
L 418.130325 282.879184 
L 418.624021 273.849959 
L 419.117717 261.356958 
L 419.611413 266.083773 
L 420.105109 267.832033 
L 420.598806 274.830347 
L 421.092502 265.303991 
L 421.586198 263.986117 
L 422.079894 264.268648 
L 422.57359 264.695267 
L 423.067286 251.784341 
L 423.560982 245.275258 
L 424.548374 257.61682 
L 425.04207 253.992377 
L 425.535766 241.350132 
L 426.523159 249.682814 
L 427.016855 250.048967 
L 427.510551 242.09261 
L 428.004247 243.960957 
L 428.991639 251.617016 
L 429.485335 250.729349 
L 429.979031 249.279755 
L 430.472727 244.706304 
L 430.966423 243.384351 
L 431.460119 241.305721 
L 431.953816 246.717408 
L 432.447512 245.390089 
L 432.941208 244.751182 
L 433.434904 240.608243 
L 433.9286 240.296613 
L 434.422296 244.648799 
L 434.915992 241.443915 
L 435.409688 235.537886 
L 435.903384 233.934524 
L 436.890776 237.708277 
L 437.384472 234.196756 
L 437.878169 232.83601 
L 438.371865 235.654074 
L 438.865561 235.388552 
L 439.359257 226.198821 
L 439.852953 227.720988 
L 440.840345 226.4262 
L 441.334041 223.207876 
L 441.827737 230.24862 
L 442.321433 234.211045 
L 442.815129 237.077493 
L 443.308825 242.282126 
L 443.802522 236.804213 
L 444.296218 233.70217 
L 444.789914 240.511935 
L 445.28361 244.583276 
L 445.777306 244.076555 
L 446.271002 236.670771 
L 446.764698 238.500626 
L 447.75209 245.424726 
L 448.245786 247.457855 
L 448.739482 247.99793 
L 449.233179 246.444675 
L 449.726875 247.574942 
L 450.220571 246.195653 
L 450.714267 245.221867 
L 451.207963 243.708063 
L 451.701659 242.702106 
L 452.195355 249.116779 
L 452.689051 252.077587 
L 453.182747 250.199334 
L 453.676443 247.302252 
L 454.170139 243.524304 
L 454.663835 242.789443 
L 455.157532 243.24067 
L 455.651228 251.572286 
L 456.144924 261.887164 
L 456.63862 262.84981 
L 457.132316 271.264377 
L 457.626012 269.19732 
L 458.119708 281.56381 
L 458.613404 275.148036 
L 459.600796 287.618195 
L 460.094492 283.170701 
L 460.588188 286.264053 
L 461.081885 284.48652 
L 461.575581 284.523747 
L 462.069277 279.986897 
L 463.056669 285.163453 
L 463.550365 285.581583 
L 464.044061 283.228924 
L 464.537757 285.115684 
L 465.031453 286.214292 
L 465.525149 286.410619 
L 466.018845 287.713063 
L 466.512541 283.703995 
L 467.99363 278.024899 
L 468.487326 277.32748 
L 468.981022 277.580456 
L 469.474718 286.607006 
L 469.968414 287.685347 
L 470.46211 289.061597 
L 470.955806 290.874261 
L 471.449502 288.421567 
L 471.943198 293.676278 
L 472.436894 289.413573 
L 472.930591 291.193815 
L 473.424287 289.052643 
L 473.917983 289.87628 
L 474.411679 291.956253 
L 474.905375 289.067092 
L 475.399071 283.389156 
L 475.892767 283.22942 
L 476.386463 282.665039 
L 476.880159 283.250552 
L 477.373855 290.085416 
L 477.867551 293.970902 
L 478.361248 298.782254 
L 478.854944 301.365252 
L 479.34864 302.416214 
L 479.842336 309.05463 
L 480.829728 315.86921 
L 481.323424 309.184492 
L 481.81712 312.309235 
L 482.310816 303.193345 
L 482.804512 297.620244 
L 483.298208 299.076857 
L 483.791904 297.543247 
L 484.285601 298.95515 
L 484.779297 304.637711 
L 485.272993 299.900537 
L 486.260385 317.096509 
L 486.754081 316.033368 
L 487.247777 313.47642 
L 487.741473 308.512368 
L 488.235169 316.453054 
L 488.728865 321.726044 
L 489.716257 309.046613 
L 490.70365 305.995882 
L 491.197346 300.214245 
L 491.691042 298.523447 
L 492.184738 309.866535 
L 492.678434 308.952243 
L 493.17213 307.523162 
L 493.665826 313.704892 
L 494.159522 314.290344 
L 494.653218 317.659624 
L 495.146914 308.728053 
L 495.64061 304.06939 
L 496.134307 301.956425 
L 496.134307 301.956425 
" clip-path="url(#p6af01692a8)" style="fill: none; stroke: #ff7f0e; stroke-width: 1.5; stroke-linecap: round"/>
   </g>
   <g id="patch_3">
    <path d="M 72 384.48 
L 72 51.84 
" style="fill: none; stroke: #ffffff; stroke-width: 0.8; stroke-linejoin: miter; stroke-linecap: square"/>
   </g>
   <g id="patch_4">
    <path d="M 518.4 384.48 
L 518.4 51.84 
" style="fill: none; stroke: #ffffff; stroke-width: 0.8; stroke-linejoin: miter; stroke-linecap: square"/>
   </g>
   <g id="patch_5">
    <path d="M 72 384.48 
L 518.4 384.48 
" style="fill: none; stroke: #ffffff; stroke-width: 0.8; stroke-linejoin: miter; stroke-linecap: square"/>
   </g>
   <g id="patch_6">
    <path d="M 72 51.84 
L 518.4 51.84 
" style="fill: none; stroke: #ffffff; stroke-width: 0.8; stroke-linejoin: miter; stroke-linecap: square"/>
   </g>
   <g id="text_16">
    <!-- Average Wind Speed Prediction 30 Days Ahead -->
    <g style="fill: #262626" transform="translate(167.89875 45.84) scale(0.12 -0.12)">
     <defs>
      <path id="ArialMT-41" d="M -9 0 
L 1750 4581 
L 2403 4581 
L 4278 0 
L 3588 0 
L 3053 1388 
L 1138 1388 
L 634 0 
L -9 0 
z
M 1313 1881 
L 2866 1881 
L 2388 3150 
Q 2169 3728 2063 4100 
Q 1975 3659 1816 3225 
L 1313 1881 
z
" transform="scale(0.015625)"/>
      <path id="ArialMT-76" d="M 1344 0 
L 81 3319 
L 675 3319 
L 1388 1331 
Q 1503 1009 1600 663 
Q 1675 925 1809 1294 
L 2547 3319 
L 3125 3319 
L 1869 0 
L 1344 0 
z
" transform="scale(0.015625)"/>
      <path id="ArialMT-65" d="M 2694 1069 
L 3275 997 
Q 3138 488 2766 206 
Q 2394 -75 1816 -75 
Q 1088 -75 661 373 
Q 234 822 234 1631 
Q 234 2469 665 2931 
Q 1097 3394 1784 3394 
Q 2450 3394 2872 2941 
Q 3294 2488 3294 1666 
Q 3294 1616 3291 1516 
L 816 1516 
Q 847 969 1125 678 
Q 1403 388 1819 388 
Q 2128 388 2347 550 
Q 2566 713 2694 1069 
z
M 847 1978 
L 2700 1978 
Q 2663 2397 2488 2606 
Q 2219 2931 1791 2931 
Q 1403 2931 1139 2672 
Q 875 2413 847 1978 
z
" transform="scale(0.015625)"/>
      <path id="ArialMT-72" d="M 416 0 
L 416 3319 
L 922 3319 
L 922 2816 
Q 1116 3169 1280 3281 
Q 1444 3394 1641 3394 
Q 1925 3394 2219 3213 
L 2025 2691 
Q 1819 2813 1613 2813 
Q 1428 2813 1281 2702 
Q 1134 2591 1072 2394 
Q 978 2094 978 1738 
L 978 0 
L 416 0 
z
" transform="scale(0.015625)"/>
      <path id="ArialMT-67" d="M 319 -275 
L 866 -356 
Q 900 -609 1056 -725 
Q 1266 -881 1628 -881 
Q 2019 -881 2231 -725 
Q 2444 -569 2519 -288 
Q 2563 -116 2559 434 
Q 2191 0 1641 0 
Q 956 0 581 494 
Q 206 988 206 1678 
Q 206 2153 378 2554 
Q 550 2956 876 3175 
Q 1203 3394 1644 3394 
Q 2231 3394 2613 2919 
L 2613 3319 
L 3131 3319 
L 3131 450 
Q 3131 -325 2973 -648 
Q 2816 -972 2473 -1159 
Q 2131 -1347 1631 -1347 
Q 1038 -1347 672 -1080 
Q 306 -813 319 -275 
z
M 784 1719 
Q 784 1066 1043 766 
Q 1303 466 1694 466 
Q 2081 466 2343 764 
Q 2606 1063 2606 1700 
Q 2606 2309 2336 2618 
Q 2066 2928 1684 2928 
Q 1309 2928 1046 2623 
Q 784 2319 784 1719 
z
" transform="scale(0.015625)"/>
      <path id="ArialMT-20" transform="scale(0.015625)"/>
      <path id="ArialMT-57" d="M 1294 0 
L 78 4581 
L 700 4581 
L 1397 1578 
Q 1509 1106 1591 641 
Q 1766 1375 1797 1488 
L 2669 4581 
L 3400 4581 
L 4056 2263 
Q 4303 1400 4413 641 
Q 4500 1075 4641 1638 
L 5359 4581 
L 5969 4581 
L 4713 0 
L 4128 0 
L 3163 3491 
Q 3041 3928 3019 4028 
Q 2947 3713 2884 3491 
L 1913 0 
L 1294 0 
z
" transform="scale(0.015625)"/>
      <path id="ArialMT-69" d="M 425 3934 
L 425 4581 
L 988 4581 
L 988 3934 
L 425 3934 
z
M 425 0 
L 425 3319 
L 988 3319 
L 988 0 
L 425 0 
z
" transform="scale(0.015625)"/>
      <path id="ArialMT-6e" d="M 422 0 
L 422 3319 
L 928 3319 
L 928 2847 
Q 1294 3394 1984 3394 
Q 2284 3394 2536 3286 
Q 2788 3178 2913 3003 
Q 3038 2828 3088 2588 
Q 3119 2431 3119 2041 
L 3119 0 
L 2556 0 
L 2556 2019 
Q 2556 2363 2490 2533 
Q 2425 2703 2258 2804 
Q 2091 2906 1866 2906 
Q 1506 2906 1245 2678 
Q 984 2450 984 1813 
L 984 0 
L 422 0 
z
" transform="scale(0.015625)"/>
      <path id="ArialMT-64" d="M 2575 0 
L 2575 419 
Q 2259 -75 1647 -75 
Q 1250 -75 917 144 
Q 584 363 401 755 
Q 219 1147 219 1656 
Q 219 2153 384 2558 
Q 550 2963 881 3178 
Q 1213 3394 1622 3394 
Q 1922 3394 2156 3267 
Q 2391 3141 2538 2938 
L 2538 4581 
L 3097 4581 
L 3097 0 
L 2575 0 
z
M 797 1656 
Q 797 1019 1065 703 
Q 1334 388 1700 388 
Q 2069 388 2326 689 
Q 2584 991 2584 1609 
Q 2584 2291 2321 2609 
Q 2059 2928 1675 2928 
Q 1300 2928 1048 2622 
Q 797 2316 797 1656 
z
" transform="scale(0.015625)"/>
      <path id="ArialMT-53" d="M 288 1472 
L 859 1522 
Q 900 1178 1048 958 
Q 1197 738 1509 602 
Q 1822 466 2213 466 
Q 2559 466 2825 569 
Q 3091 672 3220 851 
Q 3350 1031 3350 1244 
Q 3350 1459 3225 1620 
Q 3100 1781 2813 1891 
Q 2628 1963 1997 2114 
Q 1366 2266 1113 2400 
Q 784 2572 623 2826 
Q 463 3081 463 3397 
Q 463 3744 659 4045 
Q 856 4347 1234 4503 
Q 1613 4659 2075 4659 
Q 2584 4659 2973 4495 
Q 3363 4331 3572 4012 
Q 3781 3694 3797 3291 
L 3216 3247 
Q 3169 3681 2898 3903 
Q 2628 4125 2100 4125 
Q 1550 4125 1298 3923 
Q 1047 3722 1047 3438 
Q 1047 3191 1225 3031 
Q 1400 2872 2139 2705 
Q 2878 2538 3153 2413 
Q 3553 2228 3743 1945 
Q 3934 1663 3934 1294 
Q 3934 928 3725 604 
Q 3516 281 3123 101 
Q 2731 -78 2241 -78 
Q 1619 -78 1198 103 
Q 778 284 539 648 
Q 300 1013 288 1472 
z
" transform="scale(0.015625)"/>
      <path id="ArialMT-70" d="M 422 -1272 
L 422 3319 
L 934 3319 
L 934 2888 
Q 1116 3141 1344 3267 
Q 1572 3394 1897 3394 
Q 2322 3394 2647 3175 
Q 2972 2956 3137 2557 
Q 3303 2159 3303 1684 
Q 3303 1175 3120 767 
Q 2938 359 2589 142 
Q 2241 -75 1856 -75 
Q 1575 -75 1351 44 
Q 1128 163 984 344 
L 984 -1272 
L 422 -1272 
z
M 931 1641 
Q 931 1000 1190 694 
Q 1450 388 1819 388 
Q 2194 388 2461 705 
Q 2728 1022 2728 1688 
Q 2728 2322 2467 2637 
Q 2206 2953 1844 2953 
Q 1484 2953 1207 2617 
Q 931 2281 931 1641 
z
" transform="scale(0.015625)"/>
      <path id="ArialMT-50" d="M 494 0 
L 494 4581 
L 2222 4581 
Q 2678 4581 2919 4538 
Q 3256 4481 3484 4323 
Q 3713 4166 3852 3881 
Q 3991 3597 3991 3256 
Q 3991 2672 3619 2267 
Q 3247 1863 2275 1863 
L 1100 1863 
L 1100 0 
L 494 0 
z
M 1100 2403 
L 2284 2403 
Q 2872 2403 3119 2622 
Q 3366 2841 3366 3238 
Q 3366 3525 3220 3729 
Q 3075 3934 2838 4000 
Q 2684 4041 2272 4041 
L 1100 4041 
L 1100 2403 
z
" transform="scale(0.015625)"/>
      <path id="ArialMT-63" d="M 2588 1216 
L 3141 1144 
Q 3050 572 2676 248 
Q 2303 -75 1759 -75 
Q 1078 -75 664 370 
Q 250 816 250 1647 
Q 250 2184 428 2587 
Q 606 2991 970 3192 
Q 1334 3394 1763 3394 
Q 2303 3394 2647 3120 
Q 2991 2847 3088 2344 
L 2541 2259 
Q 2463 2594 2264 2762 
Q 2066 2931 1784 2931 
Q 1359 2931 1093 2626 
Q 828 2322 828 1663 
Q 828 994 1084 691 
Q 1341 388 1753 388 
Q 2084 388 2306 591 
Q 2528 794 2588 1216 
z
" transform="scale(0.015625)"/>
      <path id="ArialMT-74" d="M 1650 503 
L 1731 6 
Q 1494 -44 1306 -44 
Q 1000 -44 831 53 
Q 663 150 594 308 
Q 525 466 525 972 
L 525 2881 
L 113 2881 
L 113 3319 
L 525 3319 
L 525 4141 
L 1084 4478 
L 1084 3319 
L 1650 3319 
L 1650 2881 
L 1084 2881 
L 1084 941 
Q 1084 700 1114 631 
Q 1144 563 1211 522 
Q 1278 481 1403 481 
Q 1497 481 1650 503 
z
" transform="scale(0.015625)"/>
      <path id="ArialMT-6f" d="M 213 1659 
Q 213 2581 725 3025 
Q 1153 3394 1769 3394 
Q 2453 3394 2887 2945 
Q 3322 2497 3322 1706 
Q 3322 1066 3130 698 
Q 2938 331 2570 128 
Q 2203 -75 1769 -75 
Q 1072 -75 642 372 
Q 213 819 213 1659 
z
M 791 1659 
Q 791 1022 1069 705 
Q 1347 388 1769 388 
Q 2188 388 2466 706 
Q 2744 1025 2744 1678 
Q 2744 2294 2464 2611 
Q 2184 2928 1769 2928 
Q 1347 2928 1069 2612 
Q 791 2297 791 1659 
z
" transform="scale(0.015625)"/>
      <path id="ArialMT-33" d="M 269 1209 
L 831 1284 
Q 928 806 1161 595 
Q 1394 384 1728 384 
Q 2125 384 2398 659 
Q 2672 934 2672 1341 
Q 2672 1728 2419 1979 
Q 2166 2231 1775 2231 
Q 1616 2231 1378 2169 
L 1441 2663 
Q 1497 2656 1531 2656 
Q 1891 2656 2178 2843 
Q 2466 3031 2466 3422 
Q 2466 3731 2256 3934 
Q 2047 4138 1716 4138 
Q 1388 4138 1169 3931 
Q 950 3725 888 3313 
L 325 3413 
Q 428 3978 793 4289 
Q 1159 4600 1703 4600 
Q 2078 4600 2393 4439 
Q 2709 4278 2876 4000 
Q 3044 3722 3044 3409 
Q 3044 3113 2884 2869 
Q 2725 2625 2413 2481 
Q 2819 2388 3044 2092 
Q 3269 1797 3269 1353 
Q 3269 753 2831 336 
Q 2394 -81 1725 -81 
Q 1122 -81 723 278 
Q 325 638 269 1209 
z
" transform="scale(0.015625)"/>
      <path id="ArialMT-68" d="M 422 0 
L 422 4581 
L 984 4581 
L 984 2938 
Q 1378 3394 1978 3394 
Q 2347 3394 2619 3248 
Q 2891 3103 3008 2847 
Q 3125 2591 3125 2103 
L 3125 0 
L 2563 0 
L 2563 2103 
Q 2563 2525 2380 2717 
Q 2197 2909 1863 2909 
Q 1613 2909 1392 2779 
Q 1172 2650 1078 2428 
Q 984 2206 984 1816 
L 984 0 
L 422 0 
z
" transform="scale(0.015625)"/>
     </defs>
     <use xlink:href="#ArialMT-41"/>
     <use xlink:href="#ArialMT-76" x="64.949219"/>
     <use xlink:href="#ArialMT-65" x="114.949219"/>
     <use xlink:href="#ArialMT-72" x="170.564453"/>
     <use xlink:href="#ArialMT-61" x="203.865234"/>
     <use xlink:href="#ArialMT-67" x="259.480469"/>
     <use xlink:href="#ArialMT-65" x="315.095703"/>
     <use xlink:href="#ArialMT-20" x="370.710938"/>
     <use xlink:href="#ArialMT-57" x="398.494141"/>
     <use xlink:href="#ArialMT-69" x="492.878906"/>
     <use xlink:href="#ArialMT-6e" x="515.095703"/>
     <use xlink:href="#ArialMT-64" x="570.710938"/>
     <use xlink:href="#ArialMT-20" x="626.326172"/>
     <use xlink:href="#ArialMT-53" x="654.109375"/>
     <use xlink:href="#ArialMT-70" x="720.808594"/>
     <use xlink:href="#ArialMT-65" x="776.423828"/>
     <use xlink:href="#ArialMT-65" x="832.039062"/>
     <use xlink:href="#ArialMT-64" x="887.654297"/>
     <use xlink:href="#ArialMT-20" x="943.269531"/>
     <use xlink:href="#ArialMT-50" x="971.052734"/>
     <use xlink:href="#ArialMT-72" x="1037.751953"/>
     <use xlink:href="#ArialMT-65" x="1071.052734"/>
     <use xlink:href="#ArialMT-64" x="1126.667969"/>
     <use xlink:href="#ArialMT-69" x="1182.283203"/>
     <use xlink:href="#ArialMT-63" x="1204.5"/>
     <use xlink:href="#ArialMT-74" x="1254.5"/>
     <use xlink:href="#ArialMT-69" x="1282.283203"/>
     <use xlink:href="#ArialMT-6f" x="1304.5"/>
     <use xlink:href="#ArialMT-6e" x="1360.115234"/>
     <use xlink:href="#ArialMT-20" x="1415.730469"/>
     <use xlink:href="#ArialMT-33" x="1443.513672"/>
     <use xlink:href="#ArialMT-30" x="1499.128906"/>
     <use xlink:href="#ArialMT-20" x="1554.744141"/>
     <use xlink:href="#ArialMT-44" x="1582.527344"/>
     <use xlink:href="#ArialMT-61" x="1654.744141"/>
     <use xlink:href="#ArialMT-79" x="1710.359375"/>
     <use xlink:href="#ArialMT-73" x="1760.359375"/>
     <use xlink:href="#ArialMT-20" x="1810.359375"/>
     <use xlink:href="#ArialMT-41" x="1832.642578"/>
     <use xlink:href="#ArialMT-68" x="1899.341797"/>
     <use xlink:href="#ArialMT-65" x="1954.957031"/>
     <use xlink:href="#ArialMT-61" x="2010.572266"/>
     <use xlink:href="#ArialMT-64" x="2066.1875"/>
    </g>
   </g>
   <g id="legend_1">
    <g id="patch_7">
     <path d="M 437.15625 88.130625 
L 511.4 88.130625 
Q 513.4 88.130625 513.4 86.130625 
L 513.4 58.84 
Q 513.4 56.84 511.4 56.84 
L 437.15625 56.84 
Q 435.15625 56.84 435.15625 58.84 
L 435.15625 86.130625 
Q 435.15625 88.130625 437.15625 88.130625 
z
" style="fill: #eaeaf2; opacity: 0.8; stroke: #cccccc; stroke-linejoin: miter"/>
    </g>
    <g id="line2d_16">
     <path d="M 439.15625 64.497812 
L 449.15625 64.497812 
L 459.15625 64.497812 
" style="fill: none; stroke: #1f77b4; stroke-width: 1.5; stroke-linecap: round"/>
    </g>
    <g id="text_17">
     <!-- Real -->
     <g style="fill: #262626" transform="translate(467.15625 67.997812) scale(0.1 -0.1)">
      <defs>
       <path id="ArialMT-52" d="M 503 0 
L 503 4581 
L 2534 4581 
Q 3147 4581 3465 4457 
Q 3784 4334 3975 4021 
Q 4166 3709 4166 3331 
Q 4166 2844 3850 2509 
Q 3534 2175 2875 2084 
Q 3116 1969 3241 1856 
Q 3506 1613 3744 1247 
L 4541 0 
L 3778 0 
L 3172 953 
Q 2906 1366 2734 1584 
Q 2563 1803 2427 1890 
Q 2291 1978 2150 2013 
Q 2047 2034 1813 2034 
L 1109 2034 
L 1109 0 
L 503 0 
z
M 1109 2559 
L 2413 2559 
Q 2828 2559 3062 2645 
Q 3297 2731 3419 2920 
Q 3541 3109 3541 3331 
Q 3541 3656 3305 3865 
Q 3069 4075 2559 4075 
L 1109 4075 
L 1109 2559 
z
" transform="scale(0.015625)"/>
       <path id="ArialMT-6c" d="M 409 0 
L 409 4581 
L 972 4581 
L 972 0 
L 409 0 
z
" transform="scale(0.015625)"/>
      </defs>
      <use xlink:href="#ArialMT-52"/>
      <use xlink:href="#ArialMT-65" x="72.216797"/>
      <use xlink:href="#ArialMT-61" x="127.832031"/>
      <use xlink:href="#ArialMT-6c" x="183.447266"/>
     </g>
    </g>
    <g id="line2d_17">
     <path d="M 439.15625 78.643125 
L 449.15625 78.643125 
L 459.15625 78.643125 
" style="fill: none; stroke: #ff7f0e; stroke-width: 1.5; stroke-linecap: round"/>
    </g>
    <g id="text_18">
     <!-- Predicted -->
     <g style="fill: #262626" transform="translate(467.15625 82.143125) scale(0.1 -0.1)">
      <use xlink:href="#ArialMT-50"/>
      <use xlink:href="#ArialMT-72" x="66.699219"/>
      <use xlink:href="#ArialMT-65" x="100"/>
      <use xlink:href="#ArialMT-64" x="155.615234"/>
      <use xlink:href="#ArialMT-69" x="211.230469"/>
      <use xlink:href="#ArialMT-63" x="233.447266"/>
      <use xlink:href="#ArialMT-74" x="283.447266"/>
      <use xlink:href="#ArialMT-65" x="311.230469"/>
      <use xlink:href="#ArialMT-64" x="366.845703"/>
     </g>
    </g>
   </g>
  </g>
 </g>
 <defs>
  <clipPath id="p6af01692a8">
   <rect x="72" y="51.84" width="446.4" height="332.64"/>
  </clipPath>
 </defs>
</svg>
