<?xml version="1.0" encoding="utf-8" standalone="no"?>
<!DOCTYPE svg PUBLIC "-//W3C//DTD SVG 1.1//EN"
  "http://www.w3.org/Graphics/SVG/1.1/DTD/svg11.dtd">
<svg xmlns:xlink="http://www.w3.org/1999/xlink" width="576pt" height="432pt" viewBox="0 0 576 432" xmlns="http://www.w3.org/2000/svg" version="1.1">
 <metadata>
  <rdf:RDF xmlns:dc="http://purl.org/dc/elements/1.1/" xmlns:cc="http://creativecommons.org/ns#" xmlns:rdf="http://www.w3.org/1999/02/22-rdf-syntax-ns#">
   <cc:Work>
    <dc:type rdf:resource="http://purl.org/dc/dcmitype/StillImage"/>
    <dc:date>2023-11-17T05:12:01.810573</dc:date>
    <dc:format>image/svg+xml</dc:format>
    <dc:creator>
     <cc:Agent>
      <dc:title>Matplotlib v3.8.0, https://matplotlib.org/</dc:title>
     </cc:Agent>
    </dc:creator>
   </cc:Work>
  </rdf:RDF>
 </metadata>
 <defs>
  <style type="text/css">*{stroke-linejoin: round; stroke-linecap: butt}</style>
 </defs>
 <g id="figure_1">
  <g id="patch_1">
   <path d="M 0 432 
L 576 432 
L 576 0 
L 0 0 
z
" style="fill: #ffffff"/>
  </g>
  <g id="axes_1">
   <g id="patch_2">
    <path d="M 72 384.48 
L 518.4 384.48 
L 518.4 51.84 
L 72 51.84 
z
" style="fill: #eaeaf2"/>
   </g>
   <g id="matplotlib.axis_1">
    <g id="xtick_1">
     <g id="line2d_1">
      <path d="M 92.290909 384.48 
L 92.290909 51.84 
" clip-path="url(#p09929e7e05)" style="fill: none; stroke: #ffffff; stroke-width: 0.8; stroke-linecap: round"/>
     </g>
     <g id="text_1">
      <!-- 0 -->
      <g style="fill: #262626" transform="translate(89.51044 398.637812) scale(0.1 -0.1)">
       <defs>
        <path id="ArialMT-30" d="M 266 2259 
Q 266 3072 433 3567 
Q 600 4063 929 4331 
Q 1259 4600 1759 4600 
Q 2128 4600 2406 4451 
Q 2684 4303 2865 4023 
Q 3047 3744 3150 3342 
Q 3253 2941 3253 2259 
Q 3253 1453 3087 958 
Q 2922 463 2592 192 
Q 2263 -78 1759 -78 
Q 1097 -78 719 397 
Q 266 969 266 2259 
z
M 844 2259 
Q 844 1131 1108 757 
Q 1372 384 1759 384 
Q 2147 384 2411 759 
Q 2675 1134 2675 2259 
Q 2675 3391 2411 3762 
Q 2147 4134 1753 4134 
Q 1366 4134 1134 3806 
Q 844 3388 844 2259 
z
" transform="scale(0.015625)"/>
       </defs>
       <use xlink:href="#ArialMT-30"/>
      </g>
     </g>
    </g>
    <g id="xtick_2">
     <g id="line2d_2">
      <path d="M 191.030126 384.48 
L 191.030126 51.84 
" clip-path="url(#p09929e7e05)" style="fill: none; stroke: #ffffff; stroke-width: 0.8; stroke-linecap: round"/>
     </g>
     <g id="text_2">
      <!-- 200 -->
      <g style="fill: #262626" transform="translate(182.68872 398.637812) scale(0.1 -0.1)">
       <defs>
        <path id="ArialMT-32" d="M 3222 541 
L 3222 0 
L 194 0 
Q 188 203 259 391 
Q 375 700 629 1000 
Q 884 1300 1366 1694 
Q 2113 2306 2375 2664 
Q 2638 3022 2638 3341 
Q 2638 3675 2398 3904 
Q 2159 4134 1775 4134 
Q 1369 4134 1125 3890 
Q 881 3647 878 3216 
L 300 3275 
Q 359 3922 746 4261 
Q 1134 4600 1788 4600 
Q 2447 4600 2831 4234 
Q 3216 3869 3216 3328 
Q 3216 3053 3103 2787 
Q 2991 2522 2730 2228 
Q 2469 1934 1863 1422 
Q 1356 997 1212 845 
Q 1069 694 975 541 
L 3222 541 
z
" transform="scale(0.015625)"/>
       </defs>
       <use xlink:href="#ArialMT-32"/>
       <use xlink:href="#ArialMT-30" x="55.615234"/>
       <use xlink:href="#ArialMT-30" x="111.230469"/>
      </g>
     </g>
    </g>
    <g id="xtick_3">
     <g id="line2d_3">
      <path d="M 289.769343 384.48 
L 289.769343 51.84 
" clip-path="url(#p09929e7e05)" style="fill: none; stroke: #ffffff; stroke-width: 0.8; stroke-linecap: round"/>
     </g>
     <g id="text_3">
      <!-- 400 -->
      <g style="fill: #262626" transform="translate(281.427937 398.637812) scale(0.1 -0.1)">
       <defs>
        <path id="ArialMT-34" d="M 2069 0 
L 2069 1097 
L 81 1097 
L 81 1613 
L 2172 4581 
L 2631 4581 
L 2631 1613 
L 3250 1613 
L 3250 1097 
L 2631 1097 
L 2631 0 
L 2069 0 
z
M 2069 1613 
L 2069 3678 
L 634 1613 
L 2069 1613 
z
" transform="scale(0.015625)"/>
       </defs>
       <use xlink:href="#ArialMT-34"/>
       <use xlink:href="#ArialMT-30" x="55.615234"/>
       <use xlink:href="#ArialMT-30" x="111.230469"/>
      </g>
     </g>
    </g>
    <g id="xtick_4">
     <g id="line2d_4">
      <path d="M 388.50856 384.48 
L 388.50856 51.84 
" clip-path="url(#p09929e7e05)" style="fill: none; stroke: #ffffff; stroke-width: 0.8; stroke-linecap: round"/>
     </g>
     <g id="text_4">
      <!-- 600 -->
      <g style="fill: #262626" transform="translate(380.167154 398.637812) scale(0.1 -0.1)">
       <defs>
        <path id="ArialMT-36" d="M 3184 3459 
L 2625 3416 
Q 2550 3747 2413 3897 
Q 2184 4138 1850 4138 
Q 1581 4138 1378 3988 
Q 1113 3794 959 3422 
Q 806 3050 800 2363 
Q 1003 2672 1297 2822 
Q 1591 2972 1913 2972 
Q 2475 2972 2870 2558 
Q 3266 2144 3266 1488 
Q 3266 1056 3080 686 
Q 2894 316 2569 119 
Q 2244 -78 1831 -78 
Q 1128 -78 684 439 
Q 241 956 241 2144 
Q 241 3472 731 4075 
Q 1159 4600 1884 4600 
Q 2425 4600 2770 4297 
Q 3116 3994 3184 3459 
z
M 888 1484 
Q 888 1194 1011 928 
Q 1134 663 1356 523 
Q 1578 384 1822 384 
Q 2178 384 2434 671 
Q 2691 959 2691 1453 
Q 2691 1928 2437 2201 
Q 2184 2475 1800 2475 
Q 1419 2475 1153 2201 
Q 888 1928 888 1484 
z
" transform="scale(0.015625)"/>
       </defs>
       <use xlink:href="#ArialMT-36"/>
       <use xlink:href="#ArialMT-30" x="55.615234"/>
       <use xlink:href="#ArialMT-30" x="111.230469"/>
      </g>
     </g>
    </g>
    <g id="xtick_5">
     <g id="line2d_5">
      <path d="M 487.247777 384.48 
L 487.247777 51.84 
" clip-path="url(#p09929e7e05)" style="fill: none; stroke: #ffffff; stroke-width: 0.8; stroke-linecap: round"/>
     </g>
     <g id="text_5">
      <!-- 800 -->
      <g style="fill: #262626" transform="translate(478.906371 398.637812) scale(0.1 -0.1)">
       <defs>
        <path id="ArialMT-38" d="M 1131 2484 
Q 781 2613 612 2850 
Q 444 3088 444 3419 
Q 444 3919 803 4259 
Q 1163 4600 1759 4600 
Q 2359 4600 2725 4251 
Q 3091 3903 3091 3403 
Q 3091 3084 2923 2848 
Q 2756 2613 2416 2484 
Q 2838 2347 3058 2040 
Q 3278 1734 3278 1309 
Q 3278 722 2862 322 
Q 2447 -78 1769 -78 
Q 1091 -78 675 323 
Q 259 725 259 1325 
Q 259 1772 486 2073 
Q 713 2375 1131 2484 
z
M 1019 3438 
Q 1019 3113 1228 2906 
Q 1438 2700 1772 2700 
Q 2097 2700 2305 2904 
Q 2513 3109 2513 3406 
Q 2513 3716 2298 3927 
Q 2084 4138 1766 4138 
Q 1444 4138 1231 3931 
Q 1019 3725 1019 3438 
z
M 838 1322 
Q 838 1081 952 856 
Q 1066 631 1291 507 
Q 1516 384 1775 384 
Q 2178 384 2440 643 
Q 2703 903 2703 1303 
Q 2703 1709 2433 1975 
Q 2163 2241 1756 2241 
Q 1359 2241 1098 1978 
Q 838 1716 838 1322 
z
" transform="scale(0.015625)"/>
       </defs>
       <use xlink:href="#ArialMT-38"/>
       <use xlink:href="#ArialMT-30" x="55.615234"/>
       <use xlink:href="#ArialMT-30" x="111.230469"/>
      </g>
     </g>
    </g>
    <g id="text_6">
     <!-- Days -->
     <g style="fill: #262626" transform="translate(283.808594 411.783125) scale(0.1 -0.1)">
      <defs>
       <path id="ArialMT-44" d="M 494 0 
L 494 4581 
L 2072 4581 
Q 2606 4581 2888 4516 
Q 3281 4425 3559 4188 
Q 3922 3881 4101 3404 
Q 4281 2928 4281 2316 
Q 4281 1794 4159 1391 
Q 4038 988 3847 723 
Q 3656 459 3429 307 
Q 3203 156 2883 78 
Q 2563 0 2147 0 
L 494 0 
z
M 1100 541 
L 2078 541 
Q 2531 541 2789 625 
Q 3047 709 3200 863 
Q 3416 1078 3536 1442 
Q 3656 1806 3656 2325 
Q 3656 3044 3420 3430 
Q 3184 3816 2847 3947 
Q 2603 4041 2063 4041 
L 1100 4041 
L 1100 541 
z
" transform="scale(0.015625)"/>
       <path id="ArialMT-61" d="M 2588 409 
Q 2275 144 1986 34 
Q 1697 -75 1366 -75 
Q 819 -75 525 192 
Q 231 459 231 875 
Q 231 1119 342 1320 
Q 453 1522 633 1644 
Q 813 1766 1038 1828 
Q 1203 1872 1538 1913 
Q 2219 1994 2541 2106 
Q 2544 2222 2544 2253 
Q 2544 2597 2384 2738 
Q 2169 2928 1744 2928 
Q 1347 2928 1158 2789 
Q 969 2650 878 2297 
L 328 2372 
Q 403 2725 575 2942 
Q 747 3159 1072 3276 
Q 1397 3394 1825 3394 
Q 2250 3394 2515 3294 
Q 2781 3194 2906 3042 
Q 3031 2891 3081 2659 
Q 3109 2516 3109 2141 
L 3109 1391 
Q 3109 606 3145 398 
Q 3181 191 3288 0 
L 2700 0 
Q 2613 175 2588 409 
z
M 2541 1666 
Q 2234 1541 1622 1453 
Q 1275 1403 1131 1340 
Q 988 1278 909 1158 
Q 831 1038 831 891 
Q 831 666 1001 516 
Q 1172 366 1500 366 
Q 1825 366 2078 508 
Q 2331 650 2450 897 
Q 2541 1088 2541 1459 
L 2541 1666 
z
" transform="scale(0.015625)"/>
       <path id="ArialMT-79" d="M 397 -1278 
L 334 -750 
Q 519 -800 656 -800 
Q 844 -800 956 -737 
Q 1069 -675 1141 -563 
Q 1194 -478 1313 -144 
Q 1328 -97 1363 -6 
L 103 3319 
L 709 3319 
L 1400 1397 
Q 1534 1031 1641 628 
Q 1738 1016 1872 1384 
L 2581 3319 
L 3144 3319 
L 1881 -56 
Q 1678 -603 1566 -809 
Q 1416 -1088 1222 -1217 
Q 1028 -1347 759 -1347 
Q 597 -1347 397 -1278 
z
" transform="scale(0.015625)"/>
       <path id="ArialMT-73" d="M 197 991 
L 753 1078 
Q 800 744 1014 566 
Q 1228 388 1613 388 
Q 2000 388 2187 545 
Q 2375 703 2375 916 
Q 2375 1106 2209 1216 
Q 2094 1291 1634 1406 
Q 1016 1563 777 1677 
Q 538 1791 414 1992 
Q 291 2194 291 2438 
Q 291 2659 392 2848 
Q 494 3038 669 3163 
Q 800 3259 1026 3326 
Q 1253 3394 1513 3394 
Q 1903 3394 2198 3281 
Q 2494 3169 2634 2976 
Q 2775 2784 2828 2463 
L 2278 2388 
Q 2241 2644 2061 2787 
Q 1881 2931 1553 2931 
Q 1166 2931 1000 2803 
Q 834 2675 834 2503 
Q 834 2394 903 2306 
Q 972 2216 1119 2156 
Q 1203 2125 1616 2013 
Q 2213 1853 2448 1751 
Q 2684 1650 2818 1456 
Q 2953 1263 2953 975 
Q 2953 694 2789 445 
Q 2625 197 2315 61 
Q 2006 -75 1616 -75 
Q 969 -75 630 194 
Q 291 463 197 991 
z
" transform="scale(0.015625)"/>
      </defs>
      <use xlink:href="#ArialMT-44"/>
      <use xlink:href="#ArialMT-61" x="72.216797"/>
      <use xlink:href="#ArialMT-79" x="127.832031"/>
      <use xlink:href="#ArialMT-73" x="177.832031"/>
     </g>
    </g>
   </g>
   <g id="matplotlib.axis_2">
    <g id="ytick_1">
     <g id="line2d_6">
      <path d="M 72 347.878033 
L 518.4 347.878033 
" clip-path="url(#p09929e7e05)" style="fill: none; stroke: #ffffff; stroke-width: 0.8; stroke-linecap: round"/>
     </g>
     <g id="text_7">
      <!-- 10 -->
      <g style="fill: #262626" transform="translate(53.878125 351.456939) scale(0.1 -0.1)">
       <defs>
        <path id="ArialMT-31" d="M 2384 0 
L 1822 0 
L 1822 3584 
Q 1619 3391 1289 3197 
Q 959 3003 697 2906 
L 697 3450 
Q 1169 3672 1522 3987 
Q 1875 4303 2022 4600 
L 2384 4600 
L 2384 0 
z
" transform="scale(0.015625)"/>
       </defs>
       <use xlink:href="#ArialMT-31"/>
       <use xlink:href="#ArialMT-30" x="55.615234"/>
      </g>
     </g>
    </g>
    <g id="ytick_2">
     <g id="line2d_7">
      <path d="M 72 306.566557 
L 518.4 306.566557 
" clip-path="url(#p09929e7e05)" style="fill: none; stroke: #ffffff; stroke-width: 0.8; stroke-linecap: round"/>
     </g>
     <g id="text_8">
      <!-- 15 -->
      <g style="fill: #262626" transform="translate(53.878125 310.145464) scale(0.1 -0.1)">
       <defs>
        <path id="ArialMT-35" d="M 266 1200 
L 856 1250 
Q 922 819 1161 601 
Q 1400 384 1738 384 
Q 2144 384 2425 690 
Q 2706 997 2706 1503 
Q 2706 1984 2436 2262 
Q 2166 2541 1728 2541 
Q 1456 2541 1237 2417 
Q 1019 2294 894 2097 
L 366 2166 
L 809 4519 
L 3088 4519 
L 3088 3981 
L 1259 3981 
L 1013 2750 
Q 1425 3038 1878 3038 
Q 2478 3038 2890 2622 
Q 3303 2206 3303 1553 
Q 3303 931 2941 478 
Q 2500 -78 1738 -78 
Q 1113 -78 717 272 
Q 322 622 266 1200 
z
" transform="scale(0.015625)"/>
       </defs>
       <use xlink:href="#ArialMT-31"/>
       <use xlink:href="#ArialMT-35" x="55.615234"/>
      </g>
     </g>
    </g>
    <g id="ytick_3">
     <g id="line2d_8">
      <path d="M 72 265.255082 
L 518.4 265.255082 
" clip-path="url(#p09929e7e05)" style="fill: none; stroke: #ffffff; stroke-width: 0.8; stroke-linecap: round"/>
     </g>
     <g id="text_9">
      <!-- 20 -->
      <g style="fill: #262626" transform="translate(53.878125 268.833988) scale(0.1 -0.1)">
       <use xlink:href="#ArialMT-32"/>
       <use xlink:href="#ArialMT-30" x="55.615234"/>
      </g>
     </g>
    </g>
    <g id="ytick_4">
     <g id="line2d_9">
      <path d="M 72 223.943607 
L 518.4 223.943607 
" clip-path="url(#p09929e7e05)" style="fill: none; stroke: #ffffff; stroke-width: 0.8; stroke-linecap: round"/>
     </g>
     <g id="text_10">
      <!-- 25 -->
      <g style="fill: #262626" transform="translate(53.878125 227.522513) scale(0.1 -0.1)">
       <use xlink:href="#ArialMT-32"/>
       <use xlink:href="#ArialMT-35" x="55.615234"/>
      </g>
     </g>
    </g>
    <g id="ytick_5">
     <g id="line2d_10">
      <path d="M 72 182.632131 
L 518.4 182.632131 
" clip-path="url(#p09929e7e05)" style="fill: none; stroke: #ffffff; stroke-width: 0.8; stroke-linecap: round"/>
     </g>
     <g id="text_11">
      <!-- 30 -->
      <g style="fill: #262626" transform="translate(53.878125 186.211037) scale(0.1 -0.1)">
       <defs>
        <path id="ArialMT-33" d="M 269 1209 
L 831 1284 
Q 928 806 1161 595 
Q 1394 384 1728 384 
Q 2125 384 2398 659 
Q 2672 934 2672 1341 
Q 2672 1728 2419 1979 
Q 2166 2231 1775 2231 
Q 1616 2231 1378 2169 
L 1441 2663 
Q 1497 2656 1531 2656 
Q 1891 2656 2178 2843 
Q 2466 3031 2466 3422 
Q 2466 3731 2256 3934 
Q 2047 4138 1716 4138 
Q 1388 4138 1169 3931 
Q 950 3725 888 3313 
L 325 3413 
Q 428 3978 793 4289 
Q 1159 4600 1703 4600 
Q 2078 4600 2393 4439 
Q 2709 4278 2876 4000 
Q 3044 3722 3044 3409 
Q 3044 3113 2884 2869 
Q 2725 2625 2413 2481 
Q 2819 2388 3044 2092 
Q 3269 1797 3269 1353 
Q 3269 753 2831 336 
Q 2394 -81 1725 -81 
Q 1122 -81 723 278 
Q 325 638 269 1209 
z
" transform="scale(0.015625)"/>
       </defs>
       <use xlink:href="#ArialMT-33"/>
       <use xlink:href="#ArialMT-30" x="55.615234"/>
      </g>
     </g>
    </g>
    <g id="ytick_6">
     <g id="line2d_11">
      <path d="M 72 141.320656 
L 518.4 141.320656 
" clip-path="url(#p09929e7e05)" style="fill: none; stroke: #ffffff; stroke-width: 0.8; stroke-linecap: round"/>
     </g>
     <g id="text_12">
      <!-- 35 -->
      <g style="fill: #262626" transform="translate(53.878125 144.899562) scale(0.1 -0.1)">
       <use xlink:href="#ArialMT-33"/>
       <use xlink:href="#ArialMT-35" x="55.615234"/>
      </g>
     </g>
    </g>
    <g id="ytick_7">
     <g id="line2d_12">
      <path d="M 72 100.00918 
L 518.4 100.00918 
" clip-path="url(#p09929e7e05)" style="fill: none; stroke: #ffffff; stroke-width: 0.8; stroke-linecap: round"/>
     </g>
     <g id="text_13">
      <!-- 40 -->
      <g style="fill: #262626" transform="translate(53.878125 103.588087) scale(0.1 -0.1)">
       <use xlink:href="#ArialMT-34"/>
       <use xlink:href="#ArialMT-30" x="55.615234"/>
      </g>
     </g>
    </g>
    <g id="ytick_8">
     <g id="line2d_13">
      <path d="M 72 58.697705 
L 518.4 58.697705 
" clip-path="url(#p09929e7e05)" style="fill: none; stroke: #ffffff; stroke-width: 0.8; stroke-linecap: round"/>
     </g>
     <g id="text_14">
      <!-- 45 -->
      <g style="fill: #262626" transform="translate(53.878125 62.276611) scale(0.1 -0.1)">
       <use xlink:href="#ArialMT-34"/>
       <use xlink:href="#ArialMT-35" x="55.615234"/>
      </g>
     </g>
    </g>
    <g id="text_15">
     <!-- (°C) -->
     <g style="fill: #262626" transform="translate(47.773438 227.099844) rotate(-90) scale(0.1 -0.1)">
      <defs>
       <path id="ArialMT-28" d="M 1497 -1347 
Q 1031 -759 709 28 
Q 388 816 388 1659 
Q 388 2403 628 3084 
Q 909 3875 1497 4659 
L 1900 4659 
Q 1522 4009 1400 3731 
Q 1209 3300 1100 2831 
Q 966 2247 966 1656 
Q 966 153 1900 -1347 
L 1497 -1347 
z
" transform="scale(0.015625)"/>
       <path id="ArialMT-b0" d="M 400 3794 
Q 400 4153 654 4406 
Q 909 4659 1266 4659 
Q 1628 4659 1881 4406 
Q 2134 4153 2134 3794 
Q 2134 3434 1879 3179 
Q 1625 2925 1266 2925 
Q 909 2925 654 3178 
Q 400 3431 400 3794 
z
M 741 3794 
Q 741 3575 895 3420 
Q 1050 3266 1269 3266 
Q 1484 3266 1639 3420 
Q 1794 3575 1794 3794 
Q 1794 4013 1639 4167 
Q 1484 4322 1269 4322 
Q 1050 4322 895 4167 
Q 741 4013 741 3794 
z
" transform="scale(0.015625)"/>
       <path id="ArialMT-43" d="M 3763 1606 
L 4369 1453 
Q 4178 706 3683 314 
Q 3188 -78 2472 -78 
Q 1731 -78 1267 223 
Q 803 525 561 1097 
Q 319 1669 319 2325 
Q 319 3041 592 3573 
Q 866 4106 1370 4382 
Q 1875 4659 2481 4659 
Q 3169 4659 3637 4309 
Q 4106 3959 4291 3325 
L 3694 3184 
Q 3534 3684 3231 3912 
Q 2928 4141 2469 4141 
Q 1941 4141 1586 3887 
Q 1231 3634 1087 3207 
Q 944 2781 944 2328 
Q 944 1744 1114 1308 
Q 1284 872 1643 656 
Q 2003 441 2422 441 
Q 2931 441 3284 734 
Q 3638 1028 3763 1606 
z
" transform="scale(0.015625)"/>
       <path id="ArialMT-29" d="M 791 -1347 
L 388 -1347 
Q 1322 153 1322 1656 
Q 1322 2244 1188 2822 
Q 1081 3291 891 3722 
Q 769 4003 388 4659 
L 791 4659 
Q 1378 3875 1659 3084 
Q 1900 2403 1900 1659 
Q 1900 816 1576 28 
Q 1253 -759 791 -1347 
z
" transform="scale(0.015625)"/>
      </defs>
      <use xlink:href="#ArialMT-28"/>
      <use xlink:href="#ArialMT-b0" x="33.300781"/>
      <use xlink:href="#ArialMT-43" x="73.291016"/>
      <use xlink:href="#ArialMT-29" x="145.507812"/>
     </g>
    </g>
   </g>
   <g id="line2d_14">
    <path d="M 92.290909 141.320656 
L 92.784605 146.278033 
L 93.278301 195.025574 
L 93.771997 223.117377 
L 94.265693 337.137049 
L 94.75939 229.727213 
L 95.253086 268.56 
L 95.746782 296.651803 
L 96.240478 271.038689 
L 96.734174 266.081311 
L 97.22787 242.946885 
L 97.721566 317.307541 
L 98.215262 286.737049 
L 98.708958 201.63541 
L 99.202654 208.245246 
L 99.69635 171.891148 
L 100.190046 263.602623 
L 100.683743 261.950164 
L 101.177439 275.169836 
L 101.671135 190.894426 
L 102.164831 174.369836 
L 102.658527 185.937049 
L 103.152223 171.064918 
L 103.645919 208.245246 
L 104.139615 285.08459 
L 104.633311 320.612459 
L 105.127007 250.382951 
L 106.114399 299.130492 
L 106.608096 290.041967 
L 107.101792 273.517377 
L 107.595488 281.779672 
L 108.089184 230.553443 
L 108.58288 192.546885 
L 109.076576 260.297705 
L 109.570272 239.641967 
L 110.063968 253.687869 
L 110.557664 240.468197 
L 111.05136 261.950164 
L 111.545056 198.330492 
L 112.038752 220.638689 
L 112.532449 231.379672 
L 113.026145 169.412459 
L 113.519841 186.763279 
L 114.013537 238.815738 
L 114.507233 237.163279 
L 115.000929 210.723934 
L 115.494625 211.550164 
L 115.988321 233.032131 
L 116.482017 305.740328 
L 116.975713 358.619016 
L 117.469409 275.996066 
L 117.963106 280.953443 
L 118.456802 334.658361 
L 118.950498 236.337049 
L 119.444194 225.596066 
L 119.93789 218.98623 
L 120.431586 227.248525 
L 120.925282 182.632131 
L 121.418978 195.025574 
L 121.912674 263.602623 
L 122.40637 309.045246 
L 123.393762 204.114098 
L 123.887459 281.779672 
L 124.381155 335.48459 
L 124.874851 326.396066 
L 125.368547 276.822295 
L 125.862243 246.251803 
L 126.355939 200.80918 
L 127.343331 259.471475 
L 127.837027 236.337049 
L 128.330723 188.415738 
L 128.824419 267.73377 
L 129.318115 249.556721 
L 129.811812 305.740328 
L 130.305508 308.219016 
L 130.799204 230.553443 
L 131.2929 194.199344 
L 131.786596 282.605902 
L 132.280292 294.999344 
L 132.773988 237.163279 
L 133.267684 241.294426 
L 133.76138 227.248525 
L 134.255076 204.940328 
L 134.748772 200.80918 
L 135.242468 192.546885 
L 135.736165 168.58623 
L 136.229861 157.845246 
L 136.723557 282.605902 
L 137.217253 369.36 
L 137.710949 322.264918 
L 138.204645 228.900984 
L 138.698341 266.907541 
L 139.192037 234.68459 
L 140.179429 115.707541 
L 140.673125 114.055082 
L 141.660518 257.819016 
L 142.154214 276.822295 
L 144.128998 191.720656 
L 144.622694 233.032131 
L 145.11639 239.641967 
L 145.610086 193.373115 
L 146.103782 176.848525 
L 146.597478 198.330492 
L 147.091175 181.805902 
L 147.584871 177.674754 
L 148.078567 157.845246 
L 148.572263 315.655082 
L 149.065959 363.576393 
L 149.559655 344.573115 
L 150.053351 204.940328 
L 150.547047 176.022295 
L 151.040743 123.143607 
L 151.534439 167.76 
L 152.028135 199.156721 
L 152.521831 185.11082 
L 153.015528 142.146885 
L 153.509224 172.717377 
L 154.00292 262.776393 
L 154.496616 285.08459 
L 154.990312 266.907541 
L 155.484008 330.527213 
L 155.977704 287.563279 
L 156.4714 261.950164 
L 156.965096 285.08459 
L 157.458792 248.730492 
L 157.952488 195.851803 
L 158.446184 183.458361 
L 158.939881 181.805902 
L 159.433577 239.641967 
L 159.927273 199.982951 
L 160.420969 208.245246 
L 160.914665 204.940328 
L 161.408361 171.891148 
L 161.902057 301.60918 
L 162.395753 275.169836 
L 162.889449 278.474754 
L 163.383145 226.422295 
L 163.876841 141.320656 
L 164.370537 177.674754 
L 164.864234 136.363279 
L 165.35793 157.845246 
L 166.345322 130.579672 
L 166.839018 107.445246 
L 167.82641 170.238689 
L 168.320106 128.100984 
L 168.813802 209.897705 
L 169.307498 181.805902 
L 169.801194 180.153443 
L 170.294891 143.799344 
L 170.788587 144.625574 
L 171.282283 148.756721 
L 171.775979 157.845246 
L 172.269675 151.23541 
L 172.763371 188.415738 
L 173.257067 210.723934 
L 173.750763 147.930492 
L 174.244459 119.012459 
L 174.738155 140.494426 
L 175.231851 147.930492 
L 175.725547 157.845246 
L 176.219244 185.937049 
L 176.71294 156.192787 
L 177.206636 112.402623 
L 177.700332 149.582951 
L 178.194028 200.80918 
L 178.687724 175.196066 
L 179.18142 185.937049 
L 179.675116 185.11082 
L 180.168812 164.455082 
L 180.662508 89.268197 
L 181.156204 130.579672 
L 181.6499 218.98623 
L 182.143597 204.114098 
L 182.637293 195.851803 
L 183.130989 190.068197 
L 183.624685 199.982951 
L 184.118381 189.241967 
L 184.612077 187.589508 
L 185.105773 162.802623 
L 185.599469 109.097705 
L 186.093165 152.061639 
L 186.586861 131.405902 
L 187.080557 119.838689 
L 187.574253 129.753443 
L 188.06795 132.232131 
L 188.561646 146.278033 
L 189.055342 140.494426 
L 189.549038 143.799344 
L 190.042734 138.841967 
L 190.53643 127.274754 
L 191.030126 125.622295 
L 191.523822 177.674754 
L 192.017518 142.146885 
L 192.511214 149.582951 
L 193.00491 137.189508 
L 193.498607 133.88459 
L 193.992303 140.494426 
L 194.485999 110.750164 
L 194.979695 108.271475 
L 195.473391 83.48459 
L 195.967087 66.96 
L 196.460783 76.874754 
L 196.954479 129.753443 
L 197.448175 162.802623 
L 197.941871 150.40918 
L 198.929263 133.058361 
L 199.42296 130.579672 
L 199.916656 120.664918 
L 200.410352 131.405902 
L 200.904048 120.664918 
L 201.397744 115.707541 
L 201.89144 97.530492 
L 202.385136 136.363279 
L 203.372528 102.487869 
L 203.866224 123.969836 
L 204.35992 171.064918 
L 204.853616 147.930492 
L 205.347313 142.973115 
L 205.841009 139.668197 
L 206.334705 138.015738 
L 206.828401 128.100984 
L 207.322097 132.232131 
L 207.815793 148.756721 
L 208.309489 135.537049 
L 208.803185 127.274754 
L 209.296881 115.707541 
L 209.790577 126.448525 
L 210.284273 128.100984 
L 210.777969 94.225574 
L 211.271666 91.746885 
L 211.765362 88.441967 
L 212.259058 97.530492 
L 212.752754 117.36 
L 213.24645 113.228852 
L 213.740146 102.487869 
L 214.727538 117.36 
L 215.221234 113.228852 
L 215.71493 117.36 
L 216.208626 112.402623 
L 216.702322 114.055082 
L 217.196019 104.140328 
L 217.689715 117.36 
L 218.183411 127.274754 
L 218.677107 171.064918 
L 219.170803 136.363279 
L 219.664499 140.494426 
L 220.158195 138.015738 
L 220.651891 115.707541 
L 221.145587 121.491148 
L 221.639283 113.228852 
L 222.132979 114.055082 
L 222.626676 109.923934 
L 223.614068 104.966557 
L 224.107764 99.182951 
L 224.60146 97.530492 
L 225.095156 98.356721 
L 225.588852 109.097705 
L 226.082548 87.615738 
L 227.06994 98.356721 
L 227.563636 100.00918 
L 228.057332 84.31082 
L 228.551029 89.268197 
L 229.044725 99.182951 
L 229.538421 90.094426 
L 230.032117 90.094426 
L 230.525813 100.83541 
L 231.019509 97.530492 
L 231.513205 108.271475 
L 232.006901 109.097705 
L 232.500597 119.012459 
L 232.994293 110.750164 
L 233.487989 95.051803 
L 233.981685 103.314098 
L 234.475382 106.619016 
L 234.969078 100.83541 
L 235.462774 109.097705 
L 235.95647 140.494426 
L 236.450166 127.274754 
L 236.943862 129.753443 
L 237.437558 140.494426 
L 237.931254 133.88459 
L 238.42495 124.796066 
L 238.918646 146.278033 
L 239.412342 223.943607 
L 239.906038 260.297705 
L 240.399735 157.019016 
L 240.893431 154.540328 
L 241.387127 150.40918 
L 241.880823 161.976393 
L 242.374519 152.061639 
L 242.868215 151.23541 
L 243.855607 138.015738 
L 244.349303 133.88459 
L 244.842999 145.451803 
L 245.336695 152.887869 
L 245.830392 152.887869 
L 246.324088 154.540328 
L 246.817784 148.756721 
L 247.31148 150.40918 
L 247.805176 142.146885 
L 248.298872 142.973115 
L 248.792568 146.278033 
L 249.286264 146.278033 
L 249.77996 154.540328 
L 250.273656 166.93377 
L 250.767352 149.582951 
L 251.261048 161.976393 
L 251.754745 157.019016 
L 252.248441 153.714098 
L 252.742137 135.537049 
L 253.235833 128.927213 
L 253.729529 133.058361 
L 254.223225 166.93377 
L 254.716921 148.756721 
L 255.210617 140.494426 
L 255.704313 175.196066 
L 256.198009 236.337049 
L 256.691705 180.153443 
L 257.679098 145.451803 
L 258.172794 195.851803 
L 259.160186 167.76 
L 259.653882 119.012459 
L 260.147578 167.76 
L 260.641274 143.799344 
L 261.13497 182.632131 
L 261.628666 172.717377 
L 262.122362 176.848525 
L 262.616058 222.291148 
L 263.109754 221.464918 
L 263.603451 176.848525 
L 264.097147 190.068197 
L 264.590843 186.763279 
L 265.084539 202.461639 
L 265.578235 273.517377 
L 266.565627 226.422295 
L 267.059323 245.425574 
L 267.553019 176.848525 
L 268.046715 172.717377 
L 268.540411 199.982951 
L 269.034107 156.192787 
L 269.527804 283.432131 
L 270.0215 280.953443 
L 270.515196 266.907541 
L 271.008892 185.11082 
L 271.502588 342.094426 
L 271.996284 348.704262 
L 272.48998 239.641967 
L 272.983676 254.514098 
L 273.477372 249.556721 
L 273.971068 186.763279 
L 274.464764 202.461639 
L 274.958461 187.589508 
L 275.452157 209.071475 
L 275.945853 179.327213 
L 276.439549 187.589508 
L 276.933245 262.776393 
L 277.920637 152.887869 
L 278.414333 145.451803 
L 278.908029 218.16 
L 279.401725 228.900984 
L 279.895421 192.546885 
L 280.389117 128.927213 
L 280.882814 220.638689 
L 281.37651 239.641967 
L 281.870206 207.419016 
L 282.363902 182.632131 
L 282.857598 185.11082 
L 283.351294 181.805902 
L 283.84499 218.98623 
L 284.338686 194.199344 
L 284.832382 149.582951 
L 285.326078 251.20918 
L 285.819774 283.432131 
L 286.31347 262.776393 
L 286.807167 161.150164 
L 287.300863 157.845246 
L 287.794559 127.274754 
L 288.288255 139.668197 
L 288.781951 285.08459 
L 289.275647 299.130492 
L 289.769343 285.91082 
L 290.263039 282.605902 
L 290.756735 283.432131 
L 291.250431 218.98623 
L 291.744127 214.028852 
L 292.237823 214.028852 
L 292.73152 186.763279 
L 293.718912 253.687869 
L 294.212608 157.845246 
L 294.706304 225.596066 
L 295.693696 313.176393 
L 296.187392 294.999344 
L 296.681088 218.98623 
L 297.174784 251.20918 
L 297.66848 237.163279 
L 298.162177 214.855082 
L 298.655873 186.763279 
L 299.149569 246.251803 
L 299.643265 256.166557 
L 300.136961 217.33377 
L 300.630657 206.592787 
L 301.124353 215.681311 
L 301.618049 242.120656 
L 302.111745 216.507541 
L 302.605441 196.678033 
L 303.099137 218.16 
L 303.592833 231.379672 
L 304.08653 254.514098 
L 304.580226 212.376393 
L 305.073922 276.822295 
L 306.061314 317.307541 
L 306.55501 275.996066 
L 307.048706 204.114098 
L 307.542402 246.251803 
L 308.036098 269.38623 
L 308.529794 175.196066 
L 309.02349 185.11082 
L 309.517186 172.717377 
L 310.504579 290.041967 
L 311.985667 233.032131 
L 312.479363 202.461639 
L 312.973059 162.802623 
L 313.466755 265.255082 
L 313.960451 224.769836 
L 314.454147 196.678033 
L 314.947843 192.546885 
L 315.441539 174.369836 
L 315.935236 148.756721 
L 316.428932 230.553443 
L 316.922628 289.215738 
L 317.416324 261.123934 
L 317.91002 316.481311 
L 318.897412 190.068197 
L 319.391108 164.455082 
L 319.884804 159.497705 
L 320.3785 256.992787 
L 320.872196 304.087869 
L 321.365893 325.569836 
L 322.353285 208.245246 
L 322.846981 171.891148 
L 323.340677 161.976393 
L 323.834373 270.212459 
L 324.328069 264.428852 
L 324.821765 220.638689 
L 325.315461 214.855082 
L 325.809157 152.061639 
L 326.302853 110.750164 
L 326.796549 223.117377 
L 327.290246 161.976393 
L 327.783942 214.028852 
L 328.277638 219.812459 
L 328.771334 237.989508 
L 329.26503 239.641967 
L 329.758726 219.812459 
L 330.252422 222.291148 
L 330.746118 179.327213 
L 331.239814 164.455082 
L 331.73351 138.015738 
L 332.227206 143.799344 
L 332.720902 209.071475 
L 333.214599 217.33377 
L 333.708295 166.93377 
L 334.201991 164.455082 
L 334.695687 125.622295 
L 335.189383 213.202623 
L 335.683079 277.648525 
L 336.670471 186.763279 
L 337.164167 110.750164 
L 337.657863 114.055082 
L 338.151559 114.881311 
L 338.645255 96.704262 
L 339.138952 130.579672 
L 339.632648 226.422295 
L 340.62004 151.23541 
L 341.113736 197.504262 
L 341.607432 157.019016 
L 342.101128 185.937049 
L 343.08852 264.428852 
L 344.075912 180.153443 
L 344.569608 123.143607 
L 345.063305 119.012459 
L 345.557001 176.022295 
L 346.050697 169.412459 
L 346.544393 114.881311 
L 347.038089 161.976393 
L 347.531785 242.120656 
L 348.025481 286.737049 
L 348.519177 261.950164 
L 349.012873 162.802623 
L 349.506569 177.674754 
L 350.000265 105.792787 
L 350.493962 121.491148 
L 350.987658 142.973115 
L 351.481354 122.317377 
L 351.97505 115.707541 
L 352.468746 100.00918 
L 352.962442 139.668197 
L 353.456138 222.291148 
L 353.949834 161.976393 
L 354.937226 101.661639 
L 355.430922 180.979672 
L 355.924618 143.799344 
L 356.418315 134.71082 
L 356.912011 129.753443 
L 357.899403 106.619016 
L 358.393099 141.320656 
L 358.886795 147.930492 
L 359.380491 126.448525 
L 359.874187 218.16 
L 360.367883 223.943607 
L 360.861579 186.763279 
L 361.355275 160.323934 
L 361.848971 151.23541 
L 362.342668 152.887869 
L 363.33006 141.320656 
L 363.823756 142.973115 
L 364.811148 114.881311 
L 365.304844 137.189508 
L 365.79854 153.714098 
L 366.292236 136.363279 
L 366.785932 144.625574 
L 367.279628 142.973115 
L 367.773324 156.192787 
L 368.267021 186.763279 
L 369.254413 125.622295 
L 369.748109 171.891148 
L 370.241805 173.543607 
L 370.735501 172.717377 
L 371.229197 174.369836 
L 371.722893 174.369836 
L 372.216589 154.540328 
L 372.710285 147.104262 
L 373.203981 148.756721 
L 373.697678 138.015738 
L 374.68507 109.097705 
L 375.178766 109.923934 
L 375.672462 135.537049 
L 376.166158 221.464918 
L 376.659854 164.455082 
L 377.647246 156.192787 
L 378.140942 161.150164 
L 378.634638 157.845246 
L 379.128334 148.756721 
L 379.622031 145.451803 
L 380.115727 149.582951 
L 380.609423 147.930492 
L 381.103119 135.537049 
L 381.596815 126.448525 
L 382.090511 131.405902 
L 382.584207 128.100984 
L 383.077903 154.540328 
L 383.571599 168.58623 
L 384.065295 167.76 
L 384.558991 165.281311 
L 385.052687 135.537049 
L 385.546384 167.76 
L 386.04008 133.058361 
L 386.533776 135.537049 
L 387.027472 127.274754 
L 387.521168 115.707541 
L 388.014864 112.402623 
L 388.50856 115.707541 
L 389.002256 123.969836 
L 389.495952 151.23541 
L 389.989648 109.097705 
L 390.483344 107.445246 
L 390.97704 104.140328 
L 391.964433 90.920656 
L 392.458129 101.661639 
L 392.951825 120.664918 
L 393.445521 107.445246 
L 393.939217 115.707541 
L 394.926609 163.628852 
L 395.420305 137.189508 
L 395.914001 139.668197 
L 396.407697 136.363279 
L 396.901393 119.012459 
L 397.39509 105.792787 
L 397.888786 138.841967 
L 398.382482 193.373115 
L 398.876178 215.681311 
L 399.369874 218.98623 
L 399.86357 169.412459 
L 400.357266 160.323934 
L 400.850962 142.973115 
L 401.344658 156.192787 
L 401.838354 130.579672 
L 402.33205 132.232131 
L 402.825747 138.841967 
L 403.319443 139.668197 
L 403.813139 152.061639 
L 404.306835 148.756721 
L 405.294227 138.841967 
L 405.787923 136.363279 
L 406.281619 131.405902 
L 406.775315 132.232131 
L 407.269011 138.015738 
L 407.762707 138.841967 
L 408.256403 128.100984 
L 408.7501 143.799344 
L 409.737492 133.058361 
L 410.231188 110.750164 
L 410.724884 114.055082 
L 411.21858 136.363279 
L 411.712276 131.405902 
L 412.205972 117.36 
L 412.699668 114.055082 
L 413.68706 128.927213 
L 414.180756 119.012459 
L 414.674453 116.53377 
L 415.168149 158.671475 
L 415.661845 157.845246 
L 416.155541 128.927213 
L 416.649237 129.753443 
L 417.142933 210.723934 
L 417.636629 223.117377 
L 418.130325 160.323934 
L 418.624021 171.064918 
L 419.117717 178.500984 
L 420.105109 86.789508 
L 420.598806 105.792787 
L 421.092502 104.966557 
L 422.079894 104.966557 
L 422.57359 115.707541 
L 423.067286 106.619016 
L 423.560982 114.055082 
L 424.054678 114.055082 
L 424.548374 111.576393 
L 425.04207 112.402623 
L 425.535766 112.402623 
L 426.029463 119.838689 
L 427.016855 90.094426 
L 428.497943 114.881311 
L 428.991639 119.012459 
L 429.485335 115.707541 
L 429.979031 117.36 
L 430.472727 104.966557 
L 430.966423 97.530492 
L 431.460119 109.097705 
L 431.953816 124.796066 
L 432.447512 119.838689 
L 432.941208 144.625574 
L 433.434904 140.494426 
L 433.9286 129.753443 
L 434.422296 115.707541 
L 434.915992 114.055082 
L 435.409688 120.664918 
L 436.39708 105.792787 
L 436.890776 129.753443 
L 437.384472 113.228852 
L 437.878169 127.274754 
L 438.371865 144.625574 
L 438.865561 130.579672 
L 439.359257 126.448525 
L 439.852953 120.664918 
L 440.346649 137.189508 
L 440.840345 160.323934 
L 441.334041 152.887869 
L 441.827737 137.189508 
L 442.321433 145.451803 
L 442.815129 181.805902 
L 443.308825 205.766557 
L 443.802522 191.720656 
L 444.296218 149.582951 
L 444.789914 136.363279 
L 445.28361 135.537049 
L 445.777306 143.799344 
L 446.271002 139.668197 
L 446.764698 145.451803 
L 447.75209 152.887869 
L 448.245786 156.192787 
L 448.739482 162.802623 
L 449.233179 148.756721 
L 449.726875 150.40918 
L 450.220571 150.40918 
L 450.714267 149.582951 
L 451.207963 153.714098 
L 451.701659 142.973115 
L 452.195355 149.582951 
L 452.689051 148.756721 
L 453.182747 140.494426 
L 453.676443 161.150164 
L 454.170139 161.976393 
L 454.663835 171.064918 
L 455.157532 173.543607 
L 455.651228 158.671475 
L 456.144924 161.976393 
L 456.63862 177.674754 
L 457.132316 204.114098 
L 457.626012 218.98623 
L 458.119708 184.28459 
L 458.613404 220.638689 
L 459.1071 211.550164 
L 459.600796 228.074754 
L 460.094492 185.937049 
L 460.588188 219.812459 
L 461.081885 210.723934 
L 461.575581 142.146885 
L 462.069277 125.622295 
L 462.562973 158.671475 
L 463.056669 163.628852 
L 463.550365 156.192787 
L 464.044061 158.671475 
L 464.537757 275.996066 
L 465.525149 196.678033 
L 466.018845 176.022295 
L 466.512541 162.802623 
L 467.006238 190.068197 
L 467.499934 135.537049 
L 467.99363 190.068197 
L 468.487326 200.80918 
L 468.981022 188.415738 
L 469.474718 170.238689 
L 469.968414 200.80918 
L 470.46211 203.287869 
L 470.955806 239.641967 
L 471.449502 219.812459 
L 471.943198 242.946885 
L 472.436894 186.763279 
L 472.930591 152.061639 
L 473.424287 184.28459 
L 473.917983 161.150164 
L 474.411679 176.848525 
L 475.399071 196.678033 
L 475.892767 181.805902 
L 476.386463 148.756721 
L 476.880159 256.166557 
L 477.373855 270.212459 
L 477.867551 184.28459 
L 478.854944 314.002623 
L 479.34864 337.137049 
L 479.842336 329.700984 
L 480.336032 345.399344 
L 480.829728 366.881311 
L 481.323424 338.789508 
L 481.81712 295.825574 
L 482.310816 290.041967 
L 482.804512 199.156721 
L 483.298208 271.864918 
L 483.791904 242.946885 
L 484.285601 162.802623 
L 484.779297 202.461639 
L 485.272993 153.714098 
L 485.766689 208.245246 
L 486.260385 311.523934 
L 486.754081 237.989508 
L 487.247777 255.340328 
L 487.741473 226.422295 
L 488.235169 224.769836 
L 488.728865 202.461639 
L 489.222561 215.681311 
L 489.716257 210.723934 
L 490.209954 209.897705 
L 490.70365 223.117377 
L 491.197346 159.497705 
L 491.691042 223.117377 
L 492.184738 231.379672 
L 492.678434 214.028852 
L 493.17213 295.825574 
L 493.665826 337.963279 
L 494.159522 247.078033 
L 494.653218 210.723934 
L 495.146914 322.264918 
L 495.64061 193.373115 
L 496.134307 133.058361 
L 496.628003 129.753443 
L 497.121699 98.356721 
L 497.615395 110.750164 
L 498.109091 175.196066 
L 498.109091 175.196066 
" clip-path="url(#p09929e7e05)" style="fill: none; stroke: #1f77b4; stroke-width: 1.5; stroke-linecap: round"/>
   </g>
   <g id="line2d_15">
    <path d="M 92.290909 201.015461 
L 92.784605 198.366168 
L 93.278301 198.397163 
L 93.771997 199.994914 
L 94.265693 208.492615 
L 94.75939 213.555285 
L 95.253086 210.329685 
L 95.746782 218.060155 
L 96.240478 212.512634 
L 96.734174 208.351111 
L 97.22787 206.882689 
L 98.215262 213.005172 
L 98.708958 213.042227 
L 99.202654 211.757075 
L 99.69635 209.655 
L 100.190046 210.538254 
L 101.177439 204.775349 
L 101.671135 208.516206 
L 102.164831 205.256746 
L 102.658527 208.030073 
L 103.152223 209.690894 
L 103.645919 207.188559 
L 104.139615 205.464259 
L 104.633311 210.10203 
L 105.127007 211.492493 
L 105.620703 206.549512 
L 106.114399 214.204769 
L 106.608096 219.311599 
L 107.101792 215.489199 
L 107.595488 216.220165 
L 108.58288 214.828569 
L 109.076576 211.031774 
L 109.570272 211.734828 
L 110.063968 211.520085 
L 110.557664 207.188695 
L 111.05136 207.055515 
L 111.545056 211.570139 
L 112.038752 206.054672 
L 112.532449 203.956403 
L 113.026145 204.021664 
L 113.519841 205.751146 
L 114.013537 204.101871 
L 114.507233 206.633535 
L 115.000929 207.848567 
L 115.494625 207.164827 
L 115.988321 204.041717 
L 116.482017 202.262111 
L 116.975713 208.414294 
L 117.469409 211.628796 
L 117.963106 209.057101 
L 118.456802 213.212562 
L 118.950498 221.716303 
L 119.444194 215.351954 
L 119.93789 212.364328 
L 120.431586 214.085994 
L 120.925282 211.497529 
L 121.418978 209.543782 
L 122.40637 215.257685 
L 122.900066 214.047505 
L 123.393762 211.738875 
L 124.381155 215.27045 
L 124.874851 220.1731 
L 125.368547 227.028759 
L 126.355939 219.625442 
L 126.849635 219.848707 
L 127.343331 222.445958 
L 127.837027 215.582303 
L 128.330723 211.674256 
L 128.824419 212.958775 
L 129.318115 212.251357 
L 129.811812 210.515543 
L 130.799204 221.10357 
L 131.2929 216.381187 
L 131.786596 216.740889 
L 132.280292 217.711255 
L 132.773988 214.996748 
L 133.267684 209.734745 
L 133.76138 207.714583 
L 134.255076 208.17951 
L 134.748772 205.738712 
L 135.242468 204.428481 
L 135.736165 203.897845 
L 136.229861 202.100497 
L 136.723557 198.40739 
L 137.217253 202.910306 
L 137.710949 211.547297 
L 138.204645 212.270348 
L 138.698341 207.127102 
L 139.192037 211.42444 
L 140.673125 200.34562 
L 141.166821 199.048863 
L 141.660518 196.138788 
L 142.154214 196.77941 
L 142.64791 196.219514 
L 143.141606 194.10391 
L 143.635302 193.744697 
L 144.128998 195.133672 
L 145.11639 187.896233 
L 145.610086 188.002115 
L 146.103782 190.230023 
L 146.597478 188.044012 
L 147.091175 188.981485 
L 147.584871 187.006074 
L 148.078567 185.547214 
L 148.572263 182.270174 
L 149.065959 192.06168 
L 149.559655 197.10347 
L 150.053351 198.189973 
L 150.547047 193.192661 
L 151.040743 195.376726 
L 151.534439 193.935087 
L 152.028135 192.019818 
L 152.521831 189.222658 
L 153.509224 182.173713 
L 154.00292 181.246515 
L 154.496616 187.779479 
L 154.990312 185.742562 
L 155.484008 180.243445 
L 155.977704 183.277349 
L 156.4714 187.692507 
L 156.965096 185.491988 
L 157.458792 191.257041 
L 157.952488 193.419412 
L 158.939881 185.744452 
L 159.433577 186.803813 
L 159.927273 191.789532 
L 160.420969 183.191756 
L 160.914665 184.508781 
L 161.408361 183.25898 
L 161.902057 184.586841 
L 162.889449 190.195707 
L 163.876841 178.953966 
L 164.864234 182.257287 
L 165.35793 174.263672 
L 166.345322 173.703652 
L 166.839018 169.61427 
L 167.332714 168.879307 
L 167.82641 169.080079 
L 168.813802 164.845294 
L 169.307498 166.160961 
L 169.801194 165.69286 
L 170.294891 166.13365 
L 170.788587 162.872742 
L 171.282283 161.52831 
L 171.775979 160.714449 
L 172.269675 158.196616 
L 172.763371 158.077087 
L 173.257067 160.33568 
L 173.750763 160.084545 
L 174.244459 156.920973 
L 174.738155 156.147491 
L 175.231851 156.653623 
L 175.725547 155.39669 
L 176.219244 154.904611 
L 176.71294 161.394592 
L 177.206636 156.458127 
L 177.700332 153.151478 
L 178.687724 156.103259 
L 179.18142 152.775076 
L 179.675116 152.443259 
L 180.168812 152.767297 
L 180.662508 150.91525 
L 181.156204 150.365444 
L 181.6499 155.079327 
L 182.143597 155.187413 
L 182.637293 151.417947 
L 183.130989 151.738758 
L 183.624685 151.242292 
L 184.118381 148.493818 
L 184.612077 150.703179 
L 185.105773 148.655853 
L 185.599469 147.562713 
L 186.093165 147.669631 
L 186.586861 150.643432 
L 187.080557 152.379651 
L 187.574253 147.494125 
L 188.06795 148.835705 
L 188.561646 147.625434 
L 189.055342 147.84969 
L 189.549038 149.026534 
L 190.042734 148.636038 
L 190.53643 147.79375 
L 191.030126 145.447738 
L 191.523822 147.267929 
L 192.017518 150.896685 
L 192.511214 148.888305 
L 193.00491 145.487892 
L 193.992303 144.892098 
L 194.485999 142.648753 
L 194.979695 143.077739 
L 195.473391 144.257794 
L 195.967087 143.841823 
L 196.460783 142.435105 
L 196.954479 143.063693 
L 197.448175 142.860214 
L 197.941871 141.929604 
L 198.435567 139.991529 
L 198.929263 139.737633 
L 199.42296 138.68949 
L 199.916656 139.617971 
L 200.410352 141.196422 
L 200.904048 141.574799 
L 201.397744 141.760673 
L 201.89144 139.786942 
L 202.385136 139.195164 
L 202.878832 139.308788 
L 203.372528 139.776329 
L 203.866224 139.84499 
L 204.35992 137.476051 
L 204.853616 142.498584 
L 205.347313 140.301189 
L 205.841009 139.802763 
L 206.334705 138.642709 
L 206.828401 138.20467 
L 207.322097 138.376025 
L 207.815793 138.714959 
L 208.309489 138.178731 
L 208.803185 138.913426 
L 209.296881 141.668909 
L 209.790577 141.087117 
L 210.284273 138.702034 
L 211.271666 140.699853 
L 211.765362 140.349005 
L 212.259058 141.420125 
L 212.752754 141.594308 
L 213.24645 139.429064 
L 214.233842 139.132994 
L 215.221234 139.70353 
L 216.702322 141.604537 
L 217.689715 140.804373 
L 218.183411 140.721648 
L 218.677107 140.95477 
L 219.664499 139.841948 
L 220.158195 140.534671 
L 220.651891 140.364867 
L 221.145587 139.664645 
L 221.639283 141.108128 
L 222.132979 141.485041 
L 222.626676 140.064851 
L 223.120372 140.429882 
L 223.614068 142.12983 
L 224.107764 140.956527 
L 224.60146 138.059096 
L 225.095156 140.333273 
L 225.588852 140.147016 
L 226.082548 139.512361 
L 226.576244 139.647153 
L 227.06994 140.386877 
L 227.563636 140.230207 
L 228.057332 140.434804 
L 228.551029 141.387259 
L 229.044725 140.146784 
L 229.538421 141.730795 
L 230.032117 143.779204 
L 230.525813 144.744018 
L 231.019509 145.009257 
L 232.006901 146.028812 
L 232.994293 143.548245 
L 233.487989 143.400012 
L 233.981685 144.567067 
L 234.475382 143.320715 
L 234.969078 145.175439 
L 235.462774 146.226573 
L 235.95647 146.07682 
L 236.450166 146.330515 
L 236.943862 146.819773 
L 237.437558 146.565873 
L 237.931254 145.320692 
L 238.42495 146.22893 
L 238.918646 146.49668 
L 239.412342 149.053682 
L 240.399735 168.66483 
L 240.893431 164.017449 
L 241.387127 163.897929 
L 241.880823 165.321806 
L 242.868215 159.281304 
L 243.361911 157.673525 
L 243.855607 157.488572 
L 244.842999 161.466637 
L 245.336695 161.316047 
L 245.830392 159.987623 
L 246.324088 159.355654 
L 246.817784 159.205392 
L 247.31148 160.079641 
L 247.805176 160.375215 
L 248.298872 160.518256 
L 249.286264 164.042798 
L 249.77996 163.774562 
L 250.273656 162.674551 
L 251.261048 155.5284 
L 251.754745 154.784122 
L 252.248441 157.383321 
L 253.235833 160.46813 
L 253.729529 160.075187 
L 254.223225 159.239676 
L 254.716921 157.332516 
L 255.704313 159.1161 
L 256.198009 157.144044 
L 256.691705 154.401652 
L 257.185401 157.136288 
L 257.679098 156.695984 
L 258.172794 155.301006 
L 258.66649 164.846052 
L 259.160186 164.779585 
L 259.653882 163.401257 
L 260.147578 163.649728 
L 260.641274 167.321398 
L 261.628666 163.472599 
L 262.122362 164.017582 
L 262.616058 162.519064 
L 263.603451 165.241739 
L 264.097147 164.322306 
L 264.590843 166.42812 
L 265.084539 166.671073 
L 265.578235 172.519153 
L 266.071931 171.63096 
L 266.565627 172.539526 
L 267.059323 176.555335 
L 267.553019 176.832179 
L 268.046715 174.97009 
L 268.540411 173.75303 
L 269.034107 176.228375 
L 269.527804 175.392373 
L 270.0215 181.354185 
L 270.515196 185.224656 
L 271.008892 185.812133 
L 271.502588 187.018267 
L 271.996284 194.867003 
L 272.48998 193.282115 
L 272.983676 192.289999 
L 273.477372 191.858088 
L 273.971068 193.796211 
L 274.464764 192.756995 
L 274.958461 191.226113 
L 275.452157 191.731062 
L 275.945853 191.386537 
L 276.439549 189.08104 
L 276.933245 190.024202 
L 277.426941 197.593887 
L 277.920637 195.391604 
L 278.414333 195.400835 
L 278.908029 198.007519 
L 279.401725 198.527085 
L 279.895421 197.00962 
L 280.389117 197.419611 
L 280.882814 196.756372 
L 281.37651 195.34994 
L 281.870206 195.716861 
L 282.363902 198.099997 
L 282.857598 196.561226 
L 283.351294 196.114743 
L 284.338686 197.351814 
L 284.832382 198.829503 
L 285.326078 198.692584 
L 285.819774 207.082574 
L 286.31347 201.172474 
L 286.807167 200.77668 
L 287.300863 199.755576 
L 287.794559 200.304653 
L 288.288255 195.616672 
L 288.781951 194.764987 
L 289.275647 197.531946 
L 289.769343 194.992369 
L 290.263039 197.280409 
L 291.250431 207.097169 
L 291.744127 201.140077 
L 292.237823 200.666134 
L 292.73152 203.599217 
L 293.225216 201.147617 
L 293.718912 197.780638 
L 294.212608 204.07536 
L 294.706304 199.617528 
L 295.2 200.741851 
L 295.693696 201.397023 
L 296.187392 210.532934 
L 297.174784 208.058108 
L 297.66848 209.522637 
L 298.162177 207.922349 
L 298.655873 205.701853 
L 299.149569 206.320968 
L 299.643265 203.503231 
L 300.136961 202.992035 
L 300.630657 203.236799 
L 301.124353 207.626185 
L 302.111745 199.890184 
L 302.605441 203.501337 
L 303.099137 203.063534 
L 303.592833 203.427832 
L 304.580226 213.002122 
L 305.073922 208.903716 
L 305.567618 213.082266 
L 306.061314 214.420837 
L 306.55501 219.028179 
L 307.048706 217.292974 
L 307.542402 212.49146 
L 308.036098 211.638966 
L 308.529794 215.516496 
L 309.02349 211.909315 
L 309.517186 211.120103 
L 310.010883 211.604851 
L 310.504579 209.22015 
L 310.998275 207.778318 
L 311.491971 209.367162 
L 312.479363 205.938836 
L 312.973059 205.427468 
L 313.466755 203.326394 
L 314.454147 200.180222 
L 314.947843 200.582675 
L 315.441539 201.314783 
L 315.935236 200.24133 
L 316.428932 200.463324 
L 316.922628 206.316992 
L 317.416324 206.138249 
L 317.91002 202.099302 
L 318.403716 209.672395 
L 318.897412 203.496241 
L 319.391108 201.19004 
L 319.884804 200.214529 
L 320.3785 199.597395 
L 320.872196 203.732866 
L 321.365893 210.015012 
L 321.859589 208.475385 
L 322.353285 203.624026 
L 322.846981 203.608364 
L 323.340677 204.483563 
L 323.834373 198.119656 
L 324.328069 195.923136 
L 324.821765 192.323947 
L 325.315461 192.845751 
L 325.809157 195.542948 
L 326.796549 190.562401 
L 327.290246 191.297883 
L 328.277638 183.754248 
L 328.771334 182.636788 
L 329.26503 182.329224 
L 330.252422 187.378721 
L 330.746118 192.397726 
L 331.239814 190.756071 
L 332.227206 181.913906 
L 332.720902 181.378516 
L 333.214599 179.145855 
L 333.708295 181.064713 
L 334.201991 179.894986 
L 335.189383 173.690351 
L 335.683079 181.973439 
L 336.176775 182.718047 
L 336.670471 181.490136 
L 337.164167 179.27862 
L 337.657863 179.350606 
L 338.151559 175.835784 
L 338.645255 174.268607 
L 339.138952 171.46516 
L 339.632648 169.843332 
L 340.126344 180.921018 
L 340.62004 179.037117 
L 341.113736 176.376893 
L 341.607432 176.506167 
L 342.101128 176.377278 
L 342.594824 173.432582 
L 343.08852 175.317153 
L 343.582216 179.194464 
L 344.075912 179.71756 
L 344.569608 178.081453 
L 345.063305 179.572593 
L 345.557001 179.345699 
L 346.050697 178.338097 
L 346.544393 174.440651 
L 347.038089 167.161934 
L 347.531785 167.477018 
L 348.025481 172.621398 
L 348.519177 172.436038 
L 349.012873 175.938603 
L 349.506569 172.095146 
L 350.000265 170.188979 
L 350.493962 166.929495 
L 350.987658 165.978663 
L 351.481354 164.550941 
L 351.97505 163.870956 
L 352.468746 162.315308 
L 352.962442 163.501718 
L 353.456138 161.253888 
L 353.949834 160.866032 
L 354.44353 157.12891 
L 354.937226 156.914396 
L 355.430922 156.83568 
L 355.924618 157.740144 
L 356.418315 156.450692 
L 356.912011 156.935371 
L 357.405707 155.68011 
L 357.899403 153.034616 
L 358.393099 149.695937 
L 358.886795 151.175929 
L 359.380491 150.783591 
L 359.874187 146.351788 
L 360.367883 146.231954 
L 360.861579 149.706887 
L 361.355275 145.295404 
L 361.848971 144.792216 
L 362.342668 144.12407 
L 362.836364 145.117609 
L 363.33006 143.218411 
L 364.317452 142.245278 
L 364.811148 142.56375 
L 365.304844 140.762673 
L 365.79854 140.325275 
L 366.292236 139.638979 
L 367.279628 141.66533 
L 367.773324 141.13013 
L 368.267021 139.917122 
L 368.760717 136.397972 
L 369.254413 136.052413 
L 369.748109 136.50797 
L 370.241805 136.180246 
L 370.735501 136.24482 
L 371.229197 135.852542 
L 371.722893 135.739337 
L 372.216589 135.227477 
L 373.203981 135.954112 
L 373.697678 135.001829 
L 374.191374 134.666528 
L 374.68507 134.937552 
L 375.178766 135.949911 
L 375.672462 135.489726 
L 376.166158 135.806741 
L 376.659854 146.307512 
L 377.15355 141.219141 
L 377.647246 140.802678 
L 378.140942 141.113528 
L 378.634638 141.91598 
L 379.622031 138.467855 
L 380.115727 140.08256 
L 380.609423 138.81762 
L 381.103119 139.174965 
L 381.596815 141.996092 
L 382.090511 140.265878 
L 382.584207 141.19077 
L 383.077903 140.502262 
L 383.571599 140.209768 
L 384.065295 139.162686 
L 384.558991 138.920715 
L 385.052687 141.793292 
L 385.546384 140.963451 
L 386.04008 140.601476 
L 386.533776 145.228798 
L 387.027472 143.478058 
L 387.521168 142.906196 
L 388.014864 142.148503 
L 388.50856 143.593224 
L 389.002256 142.725337 
L 389.495952 143.857565 
L 389.989648 151.456239 
L 390.97704 149.210233 
L 391.470737 148.470707 
L 391.964433 148.473656 
L 392.458129 147.908773 
L 392.951825 143.923342 
L 393.445521 145.511457 
L 393.939217 146.083358 
L 394.432913 145.368113 
L 394.926609 145.727841 
L 395.420305 149.060573 
L 395.914001 149.433389 
L 396.407697 145.955083 
L 396.901393 148.54872 
L 397.39509 149.403017 
L 397.888786 146.590704 
L 398.382482 148.018635 
L 399.369874 161.179849 
L 399.86357 164.877446 
L 400.357266 163.825662 
L 400.850962 163.395195 
L 401.344658 163.945888 
L 401.838354 161.050711 
L 402.33205 159.545272 
L 402.825747 156.780301 
L 403.319443 157.447769 
L 403.813139 160.715474 
L 404.306835 161.94275 
L 404.800531 155.933036 
L 405.294227 154.662632 
L 405.787923 155.567061 
L 406.281619 152.988213 
L 406.775315 152.80459 
L 407.269011 155.623667 
L 408.256403 155.059084 
L 408.7501 157.522898 
L 409.243796 157.226291 
L 409.737492 153.785984 
L 410.231188 152.768615 
L 410.724884 152.23226 
L 411.712276 151.618159 
L 412.205972 154.004604 
L 412.699668 154.972329 
L 413.193364 154.713183 
L 414.180756 152.912916 
L 414.674453 153.191192 
L 415.168149 151.040231 
L 415.661845 154.130725 
L 416.155541 164.2845 
L 416.649237 159.674753 
L 417.142933 159.946187 
L 417.636629 165.435018 
L 418.130325 175.201459 
L 418.624021 166.157772 
L 419.117717 165.954857 
L 419.611413 167.398151 
L 420.105109 179.504133 
L 420.598806 171.418299 
L 421.092502 170.985741 
L 421.586198 168.802159 
L 422.079894 168.000355 
L 422.57359 168.85422 
L 423.067286 168.569168 
L 423.560982 166.723922 
L 424.054678 166.332557 
L 424.548374 168.194563 
L 425.04207 169.189832 
L 425.535766 165.956859 
L 426.029463 168.010414 
L 426.523159 167.236044 
L 427.016855 164.411267 
L 427.510551 163.084328 
L 428.004247 163.849463 
L 428.497943 162.333721 
L 428.991639 161.553609 
L 429.485335 163.773914 
L 429.979031 164.678151 
L 430.472727 162.410006 
L 430.966423 161.059914 
L 431.460119 162.244859 
L 431.953816 160.075966 
L 432.447512 153.708453 
L 433.434904 156.570414 
L 433.9286 154.901155 
L 434.422296 149.055909 
L 434.915992 151.848983 
L 435.409688 151.523122 
L 435.903384 148.242179 
L 436.39708 148.149518 
L 436.890776 152.928219 
L 437.384472 148.583359 
L 437.878169 145.382863 
L 438.865561 148.614258 
L 439.359257 146.419279 
L 439.852953 145.176589 
L 440.346649 147.786434 
L 440.840345 148.156894 
L 441.334041 146.998289 
L 441.827737 146.402803 
L 442.321433 144.532175 
L 442.815129 145.664463 
L 444.296218 153.109003 
L 444.789914 153.602123 
L 445.28361 155.495763 
L 445.777306 151.338436 
L 446.271002 149.449749 
L 446.764698 148.070136 
L 447.258394 150.776979 
L 447.75209 147.599483 
L 448.245786 148.906848 
L 448.739482 148.559922 
L 449.233179 148.367401 
L 449.726875 148.770171 
L 450.220571 147.202564 
L 450.714267 146.254427 
L 451.207963 147.392883 
L 451.701659 147.660928 
L 452.195355 147.705564 
L 452.689051 149.494552 
L 453.182747 150.406882 
L 453.676443 149.504704 
L 454.170139 149.951117 
L 454.663835 149.529985 
L 455.157532 148.02759 
L 455.651228 149.502557 
L 456.144924 150.076527 
L 456.63862 150.398687 
L 457.132316 151.011093 
L 457.626012 155.481141 
L 458.119708 158.515212 
L 458.613404 156.357535 
L 459.1071 164.600588 
L 459.600796 164.3081 
L 460.094492 170.339298 
L 460.588188 166.888011 
L 461.081885 175.266833 
L 461.575581 175.676701 
L 462.069277 172.63281 
L 463.056669 176.244054 
L 463.550365 173.27715 
L 464.044061 174.007638 
L 464.537757 174.446061 
L 465.031453 182.755268 
L 465.525149 177.685249 
L 466.018845 179.964756 
L 466.512541 179.802046 
L 467.006238 180.357936 
L 467.499934 181.827704 
L 467.99363 181.634338 
L 468.487326 182.368776 
L 469.474718 182.95566 
L 469.968414 184.335074 
L 470.46211 183.691281 
L 472.436894 193.205562 
L 472.930591 191.432727 
L 473.424287 193.646862 
L 473.917983 193.277469 
L 474.411679 192.367536 
L 474.905375 192.306742 
L 475.399071 187.799119 
L 475.892767 184.64845 
L 476.386463 185.456091 
L 476.880159 189.129251 
L 477.373855 185.130198 
L 477.867551 183.497263 
L 478.361248 185.885756 
L 478.854944 184.513502 
L 479.842336 194.621251 
L 480.336032 201.949861 
L 481.323424 209.519153 
L 481.81712 213.96091 
L 482.310816 215.463916 
L 482.804512 214.761787 
L 483.298208 211.047496 
L 483.791904 217.177076 
L 484.285601 215.600234 
L 484.779297 214.602433 
L 485.272993 216.108289 
L 485.766689 214.975032 
L 486.260385 215.584145 
L 486.754081 217.796834 
L 487.247777 217.007982 
L 487.741473 218.942441 
L 488.235169 227.680683 
L 488.728865 227.417152 
L 489.222561 225.591913 
L 489.716257 226.488341 
L 490.209954 225.982794 
L 490.70365 226.636297 
L 491.197346 227.586979 
L 491.691042 225.584035 
L 492.184738 226.093281 
L 492.678434 226.347734 
L 493.17213 225.716683 
L 493.665826 223.74606 
L 494.159522 227.856339 
L 494.653218 224.48011 
L 495.146914 224.578256 
L 495.64061 230.697869 
L 496.134307 230.345802 
L 496.628003 230.514177 
L 497.615395 222.645877 
L 498.109091 218.738492 
L 498.109091 218.738492 
" clip-path="url(#p09929e7e05)" style="fill: none; stroke: #ff7f0e; stroke-width: 1.5; stroke-linecap: round"/>
   </g>
   <g id="patch_3">
    <path d="M 72 384.48 
L 72 51.84 
" style="fill: none; stroke: #ffffff; stroke-width: 0.8; stroke-linejoin: miter; stroke-linecap: square"/>
   </g>
   <g id="patch_4">
    <path d="M 518.4 384.48 
L 518.4 51.84 
" style="fill: none; stroke: #ffffff; stroke-width: 0.8; stroke-linejoin: miter; stroke-linecap: square"/>
   </g>
   <g id="patch_5">
    <path d="M 72 384.48 
L 518.4 384.48 
" style="fill: none; stroke: #ffffff; stroke-width: 0.8; stroke-linejoin: miter; stroke-linecap: square"/>
   </g>
   <g id="patch_6">
    <path d="M 72 51.84 
L 518.4 51.84 
" style="fill: none; stroke: #ffffff; stroke-width: 0.8; stroke-linejoin: miter; stroke-linecap: square"/>
   </g>
   <g id="text_16">
    <!-- Maximum Temperature Prediction 2 Days Ahead -->
    <g style="fill: #262626" transform="translate(166.59 45.84) scale(0.12 -0.12)">
     <defs>
      <path id="ArialMT-4d" d="M 475 0 
L 475 4581 
L 1388 4581 
L 2472 1338 
Q 2622 884 2691 659 
Q 2769 909 2934 1394 
L 4031 4581 
L 4847 4581 
L 4847 0 
L 4263 0 
L 4263 3834 
L 2931 0 
L 2384 0 
L 1059 3900 
L 1059 0 
L 475 0 
z
" transform="scale(0.015625)"/>
      <path id="ArialMT-78" d="M 47 0 
L 1259 1725 
L 138 3319 
L 841 3319 
L 1350 2541 
Q 1494 2319 1581 2169 
Q 1719 2375 1834 2534 
L 2394 3319 
L 3066 3319 
L 1919 1756 
L 3153 0 
L 2463 0 
L 1781 1031 
L 1600 1309 
L 728 0 
L 47 0 
z
" transform="scale(0.015625)"/>
      <path id="ArialMT-69" d="M 425 3934 
L 425 4581 
L 988 4581 
L 988 3934 
L 425 3934 
z
M 425 0 
L 425 3319 
L 988 3319 
L 988 0 
L 425 0 
z
" transform="scale(0.015625)"/>
      <path id="ArialMT-6d" d="M 422 0 
L 422 3319 
L 925 3319 
L 925 2853 
Q 1081 3097 1340 3245 
Q 1600 3394 1931 3394 
Q 2300 3394 2536 3241 
Q 2772 3088 2869 2813 
Q 3263 3394 3894 3394 
Q 4388 3394 4653 3120 
Q 4919 2847 4919 2278 
L 4919 0 
L 4359 0 
L 4359 2091 
Q 4359 2428 4304 2576 
Q 4250 2725 4106 2815 
Q 3963 2906 3769 2906 
Q 3419 2906 3187 2673 
Q 2956 2441 2956 1928 
L 2956 0 
L 2394 0 
L 2394 2156 
Q 2394 2531 2256 2718 
Q 2119 2906 1806 2906 
Q 1569 2906 1367 2781 
Q 1166 2656 1075 2415 
Q 984 2175 984 1722 
L 984 0 
L 422 0 
z
" transform="scale(0.015625)"/>
      <path id="ArialMT-75" d="M 2597 0 
L 2597 488 
Q 2209 -75 1544 -75 
Q 1250 -75 995 37 
Q 741 150 617 320 
Q 494 491 444 738 
Q 409 903 409 1263 
L 409 3319 
L 972 3319 
L 972 1478 
Q 972 1038 1006 884 
Q 1059 663 1231 536 
Q 1403 409 1656 409 
Q 1909 409 2131 539 
Q 2353 669 2445 892 
Q 2538 1116 2538 1541 
L 2538 3319 
L 3100 3319 
L 3100 0 
L 2597 0 
z
" transform="scale(0.015625)"/>
      <path id="ArialMT-20" transform="scale(0.015625)"/>
      <path id="ArialMT-54" d="M 1659 0 
L 1659 4041 
L 150 4041 
L 150 4581 
L 3781 4581 
L 3781 4041 
L 2266 4041 
L 2266 0 
L 1659 0 
z
" transform="scale(0.015625)"/>
      <path id="ArialMT-65" d="M 2694 1069 
L 3275 997 
Q 3138 488 2766 206 
Q 2394 -75 1816 -75 
Q 1088 -75 661 373 
Q 234 822 234 1631 
Q 234 2469 665 2931 
Q 1097 3394 1784 3394 
Q 2450 3394 2872 2941 
Q 3294 2488 3294 1666 
Q 3294 1616 3291 1516 
L 816 1516 
Q 847 969 1125 678 
Q 1403 388 1819 388 
Q 2128 388 2347 550 
Q 2566 713 2694 1069 
z
M 847 1978 
L 2700 1978 
Q 2663 2397 2488 2606 
Q 2219 2931 1791 2931 
Q 1403 2931 1139 2672 
Q 875 2413 847 1978 
z
" transform="scale(0.015625)"/>
      <path id="ArialMT-70" d="M 422 -1272 
L 422 3319 
L 934 3319 
L 934 2888 
Q 1116 3141 1344 3267 
Q 1572 3394 1897 3394 
Q 2322 3394 2647 3175 
Q 2972 2956 3137 2557 
Q 3303 2159 3303 1684 
Q 3303 1175 3120 767 
Q 2938 359 2589 142 
Q 2241 -75 1856 -75 
Q 1575 -75 1351 44 
Q 1128 163 984 344 
L 984 -1272 
L 422 -1272 
z
M 931 1641 
Q 931 1000 1190 694 
Q 1450 388 1819 388 
Q 2194 388 2461 705 
Q 2728 1022 2728 1688 
Q 2728 2322 2467 2637 
Q 2206 2953 1844 2953 
Q 1484 2953 1207 2617 
Q 931 2281 931 1641 
z
" transform="scale(0.015625)"/>
      <path id="ArialMT-72" d="M 416 0 
L 416 3319 
L 922 3319 
L 922 2816 
Q 1116 3169 1280 3281 
Q 1444 3394 1641 3394 
Q 1925 3394 2219 3213 
L 2025 2691 
Q 1819 2813 1613 2813 
Q 1428 2813 1281 2702 
Q 1134 2591 1072 2394 
Q 978 2094 978 1738 
L 978 0 
L 416 0 
z
" transform="scale(0.015625)"/>
      <path id="ArialMT-74" d="M 1650 503 
L 1731 6 
Q 1494 -44 1306 -44 
Q 1000 -44 831 53 
Q 663 150 594 308 
Q 525 466 525 972 
L 525 2881 
L 113 2881 
L 113 3319 
L 525 3319 
L 525 4141 
L 1084 4478 
L 1084 3319 
L 1650 3319 
L 1650 2881 
L 1084 2881 
L 1084 941 
Q 1084 700 1114 631 
Q 1144 563 1211 522 
Q 1278 481 1403 481 
Q 1497 481 1650 503 
z
" transform="scale(0.015625)"/>
      <path id="ArialMT-50" d="M 494 0 
L 494 4581 
L 2222 4581 
Q 2678 4581 2919 4538 
Q 3256 4481 3484 4323 
Q 3713 4166 3852 3881 
Q 3991 3597 3991 3256 
Q 3991 2672 3619 2267 
Q 3247 1863 2275 1863 
L 1100 1863 
L 1100 0 
L 494 0 
z
M 1100 2403 
L 2284 2403 
Q 2872 2403 3119 2622 
Q 3366 2841 3366 3238 
Q 3366 3525 3220 3729 
Q 3075 3934 2838 4000 
Q 2684 4041 2272 4041 
L 1100 4041 
L 1100 2403 
z
" transform="scale(0.015625)"/>
      <path id="ArialMT-64" d="M 2575 0 
L 2575 419 
Q 2259 -75 1647 -75 
Q 1250 -75 917 144 
Q 584 363 401 755 
Q 219 1147 219 1656 
Q 219 2153 384 2558 
Q 550 2963 881 3178 
Q 1213 3394 1622 3394 
Q 1922 3394 2156 3267 
Q 2391 3141 2538 2938 
L 2538 4581 
L 3097 4581 
L 3097 0 
L 2575 0 
z
M 797 1656 
Q 797 1019 1065 703 
Q 1334 388 1700 388 
Q 2069 388 2326 689 
Q 2584 991 2584 1609 
Q 2584 2291 2321 2609 
Q 2059 2928 1675 2928 
Q 1300 2928 1048 2622 
Q 797 2316 797 1656 
z
" transform="scale(0.015625)"/>
      <path id="ArialMT-63" d="M 2588 1216 
L 3141 1144 
Q 3050 572 2676 248 
Q 2303 -75 1759 -75 
Q 1078 -75 664 370 
Q 250 816 250 1647 
Q 250 2184 428 2587 
Q 606 2991 970 3192 
Q 1334 3394 1763 3394 
Q 2303 3394 2647 3120 
Q 2991 2847 3088 2344 
L 2541 2259 
Q 2463 2594 2264 2762 
Q 2066 2931 1784 2931 
Q 1359 2931 1093 2626 
Q 828 2322 828 1663 
Q 828 994 1084 691 
Q 1341 388 1753 388 
Q 2084 388 2306 591 
Q 2528 794 2588 1216 
z
" transform="scale(0.015625)"/>
      <path id="ArialMT-6f" d="M 213 1659 
Q 213 2581 725 3025 
Q 1153 3394 1769 3394 
Q 2453 3394 2887 2945 
Q 3322 2497 3322 1706 
Q 3322 1066 3130 698 
Q 2938 331 2570 128 
Q 2203 -75 1769 -75 
Q 1072 -75 642 372 
Q 213 819 213 1659 
z
M 791 1659 
Q 791 1022 1069 705 
Q 1347 388 1769 388 
Q 2188 388 2466 706 
Q 2744 1025 2744 1678 
Q 2744 2294 2464 2611 
Q 2184 2928 1769 2928 
Q 1347 2928 1069 2612 
Q 791 2297 791 1659 
z
" transform="scale(0.015625)"/>
      <path id="ArialMT-6e" d="M 422 0 
L 422 3319 
L 928 3319 
L 928 2847 
Q 1294 3394 1984 3394 
Q 2284 3394 2536 3286 
Q 2788 3178 2913 3003 
Q 3038 2828 3088 2588 
Q 3119 2431 3119 2041 
L 3119 0 
L 2556 0 
L 2556 2019 
Q 2556 2363 2490 2533 
Q 2425 2703 2258 2804 
Q 2091 2906 1866 2906 
Q 1506 2906 1245 2678 
Q 984 2450 984 1813 
L 984 0 
L 422 0 
z
" transform="scale(0.015625)"/>
      <path id="ArialMT-41" d="M -9 0 
L 1750 4581 
L 2403 4581 
L 4278 0 
L 3588 0 
L 3053 1388 
L 1138 1388 
L 634 0 
L -9 0 
z
M 1313 1881 
L 2866 1881 
L 2388 3150 
Q 2169 3728 2063 4100 
Q 1975 3659 1816 3225 
L 1313 1881 
z
" transform="scale(0.015625)"/>
      <path id="ArialMT-68" d="M 422 0 
L 422 4581 
L 984 4581 
L 984 2938 
Q 1378 3394 1978 3394 
Q 2347 3394 2619 3248 
Q 2891 3103 3008 2847 
Q 3125 2591 3125 2103 
L 3125 0 
L 2563 0 
L 2563 2103 
Q 2563 2525 2380 2717 
Q 2197 2909 1863 2909 
Q 1613 2909 1392 2779 
Q 1172 2650 1078 2428 
Q 984 2206 984 1816 
L 984 0 
L 422 0 
z
" transform="scale(0.015625)"/>
     </defs>
     <use xlink:href="#ArialMT-4d"/>
     <use xlink:href="#ArialMT-61" x="83.300781"/>
     <use xlink:href="#ArialMT-78" x="138.916016"/>
     <use xlink:href="#ArialMT-69" x="188.916016"/>
     <use xlink:href="#ArialMT-6d" x="211.132812"/>
     <use xlink:href="#ArialMT-75" x="294.433594"/>
     <use xlink:href="#ArialMT-6d" x="350.048828"/>
     <use xlink:href="#ArialMT-20" x="433.349609"/>
     <use xlink:href="#ArialMT-54" x="459.382812"/>
     <use xlink:href="#ArialMT-65" x="509.341797"/>
     <use xlink:href="#ArialMT-6d" x="564.957031"/>
     <use xlink:href="#ArialMT-70" x="648.257812"/>
     <use xlink:href="#ArialMT-65" x="703.873047"/>
     <use xlink:href="#ArialMT-72" x="759.488281"/>
     <use xlink:href="#ArialMT-61" x="792.789062"/>
     <use xlink:href="#ArialMT-74" x="848.404297"/>
     <use xlink:href="#ArialMT-75" x="876.1875"/>
     <use xlink:href="#ArialMT-72" x="931.802734"/>
     <use xlink:href="#ArialMT-65" x="965.103516"/>
     <use xlink:href="#ArialMT-20" x="1020.71875"/>
     <use xlink:href="#ArialMT-50" x="1048.501953"/>
     <use xlink:href="#ArialMT-72" x="1115.201172"/>
     <use xlink:href="#ArialMT-65" x="1148.501953"/>
     <use xlink:href="#ArialMT-64" x="1204.117188"/>
     <use xlink:href="#ArialMT-69" x="1259.732422"/>
     <use xlink:href="#ArialMT-63" x="1281.949219"/>
     <use xlink:href="#ArialMT-74" x="1331.949219"/>
     <use xlink:href="#ArialMT-69" x="1359.732422"/>
     <use xlink:href="#ArialMT-6f" x="1381.949219"/>
     <use xlink:href="#ArialMT-6e" x="1437.564453"/>
     <use xlink:href="#ArialMT-20" x="1493.179688"/>
     <use xlink:href="#ArialMT-32" x="1520.962891"/>
     <use xlink:href="#ArialMT-20" x="1576.578125"/>
     <use xlink:href="#ArialMT-44" x="1604.361328"/>
     <use xlink:href="#ArialMT-61" x="1676.578125"/>
     <use xlink:href="#ArialMT-79" x="1732.193359"/>
     <use xlink:href="#ArialMT-73" x="1782.193359"/>
     <use xlink:href="#ArialMT-20" x="1832.193359"/>
     <use xlink:href="#ArialMT-41" x="1854.476562"/>
     <use xlink:href="#ArialMT-68" x="1921.175781"/>
     <use xlink:href="#ArialMT-65" x="1976.791016"/>
     <use xlink:href="#ArialMT-61" x="2032.40625"/>
     <use xlink:href="#ArialMT-64" x="2088.021484"/>
    </g>
   </g>
   <g id="legend_1">
    <g id="patch_7">
     <path d="M 437.15625 88.130625 
L 511.4 88.130625 
Q 513.4 88.130625 513.4 86.130625 
L 513.4 58.84 
Q 513.4 56.84 511.4 56.84 
L 437.15625 56.84 
Q 435.15625 56.84 435.15625 58.84 
L 435.15625 86.130625 
Q 435.15625 88.130625 437.15625 88.130625 
z
" style="fill: #eaeaf2; opacity: 0.8; stroke: #cccccc; stroke-linejoin: miter"/>
    </g>
    <g id="line2d_16">
     <path d="M 439.15625 64.497812 
L 449.15625 64.497812 
L 459.15625 64.497812 
" style="fill: none; stroke: #1f77b4; stroke-width: 1.5; stroke-linecap: round"/>
    </g>
    <g id="text_17">
     <!-- Real -->
     <g style="fill: #262626" transform="translate(467.15625 67.997812) scale(0.1 -0.1)">
      <defs>
       <path id="ArialMT-52" d="M 503 0 
L 503 4581 
L 2534 4581 
Q 3147 4581 3465 4457 
Q 3784 4334 3975 4021 
Q 4166 3709 4166 3331 
Q 4166 2844 3850 2509 
Q 3534 2175 2875 2084 
Q 3116 1969 3241 1856 
Q 3506 1613 3744 1247 
L 4541 0 
L 3778 0 
L 3172 953 
Q 2906 1366 2734 1584 
Q 2563 1803 2427 1890 
Q 2291 1978 2150 2013 
Q 2047 2034 1813 2034 
L 1109 2034 
L 1109 0 
L 503 0 
z
M 1109 2559 
L 2413 2559 
Q 2828 2559 3062 2645 
Q 3297 2731 3419 2920 
Q 3541 3109 3541 3331 
Q 3541 3656 3305 3865 
Q 3069 4075 2559 4075 
L 1109 4075 
L 1109 2559 
z
" transform="scale(0.015625)"/>
       <path id="ArialMT-6c" d="M 409 0 
L 409 4581 
L 972 4581 
L 972 0 
L 409 0 
z
" transform="scale(0.015625)"/>
      </defs>
      <use xlink:href="#ArialMT-52"/>
      <use xlink:href="#ArialMT-65" x="72.216797"/>
      <use xlink:href="#ArialMT-61" x="127.832031"/>
      <use xlink:href="#ArialMT-6c" x="183.447266"/>
     </g>
    </g>
    <g id="line2d_17">
     <path d="M 439.15625 78.643125 
L 449.15625 78.643125 
L 459.15625 78.643125 
" style="fill: none; stroke: #ff7f0e; stroke-width: 1.5; stroke-linecap: round"/>
    </g>
    <g id="text_18">
     <!-- Predicted -->
     <g style="fill: #262626" transform="translate(467.15625 82.143125) scale(0.1 -0.1)">
      <use xlink:href="#ArialMT-50"/>
      <use xlink:href="#ArialMT-72" x="66.699219"/>
      <use xlink:href="#ArialMT-65" x="100"/>
      <use xlink:href="#ArialMT-64" x="155.615234"/>
      <use xlink:href="#ArialMT-69" x="211.230469"/>
      <use xlink:href="#ArialMT-63" x="233.447266"/>
      <use xlink:href="#ArialMT-74" x="283.447266"/>
      <use xlink:href="#ArialMT-65" x="311.230469"/>
      <use xlink:href="#ArialMT-64" x="366.845703"/>
     </g>
    </g>
   </g>
  </g>
 </g>
 <defs>
  <clipPath id="p09929e7e05">
   <rect x="72" y="51.84" width="446.4" height="332.64"/>
  </clipPath>
 </defs>
</svg>
