<?xml version="1.0" encoding="utf-8" standalone="no"?>
<!DOCTYPE svg PUBLIC "-//W3C//DTD SVG 1.1//EN"
  "http://www.w3.org/Graphics/SVG/1.1/DTD/svg11.dtd">
<svg xmlns:xlink="http://www.w3.org/1999/xlink" width="576pt" height="432pt" viewBox="0 0 576 432" xmlns="http://www.w3.org/2000/svg" version="1.1">
 <metadata>
  <rdf:RDF xmlns:dc="http://purl.org/dc/elements/1.1/" xmlns:cc="http://creativecommons.org/ns#" xmlns:rdf="http://www.w3.org/1999/02/22-rdf-syntax-ns#">
   <cc:Work>
    <dc:type rdf:resource="http://purl.org/dc/dcmitype/StillImage"/>
    <dc:date>2023-11-17T05:11:56.717903</dc:date>
    <dc:format>image/svg+xml</dc:format>
    <dc:creator>
     <cc:Agent>
      <dc:title>Matplotlib v3.8.0, https://matplotlib.org/</dc:title>
     </cc:Agent>
    </dc:creator>
   </cc:Work>
  </rdf:RDF>
 </metadata>
 <defs>
  <style type="text/css">*{stroke-linejoin: round; stroke-linecap: butt}</style>
 </defs>
 <g id="figure_1">
  <g id="patch_1">
   <path d="M 0 432 
L 576 432 
L 576 0 
L 0 0 
z
" style="fill: #ffffff"/>
  </g>
  <g id="axes_1">
   <g id="patch_2">
    <path d="M 72 384.48 
L 518.4 384.48 
L 518.4 51.84 
L 72 51.84 
z
" style="fill: #eaeaf2"/>
   </g>
   <g id="matplotlib.axis_1">
    <g id="xtick_1">
     <g id="line2d_1">
      <path d="M 92.290909 384.48 
L 92.290909 51.84 
" clip-path="url(#p444cde1a48)" style="fill: none; stroke: #ffffff; stroke-width: 0.8; stroke-linecap: round"/>
     </g>
     <g id="text_1">
      <!-- 0 -->
      <g style="fill: #262626" transform="translate(89.51044 398.637812) scale(0.1 -0.1)">
       <defs>
        <path id="ArialMT-30" d="M 266 2259 
Q 266 3072 433 3567 
Q 600 4063 929 4331 
Q 1259 4600 1759 4600 
Q 2128 4600 2406 4451 
Q 2684 4303 2865 4023 
Q 3047 3744 3150 3342 
Q 3253 2941 3253 2259 
Q 3253 1453 3087 958 
Q 2922 463 2592 192 
Q 2263 -78 1759 -78 
Q 1097 -78 719 397 
Q 266 969 266 2259 
z
M 844 2259 
Q 844 1131 1108 757 
Q 1372 384 1759 384 
Q 2147 384 2411 759 
Q 2675 1134 2675 2259 
Q 2675 3391 2411 3762 
Q 2147 4134 1753 4134 
Q 1366 4134 1134 3806 
Q 844 3388 844 2259 
z
" transform="scale(0.015625)"/>
       </defs>
       <use xlink:href="#ArialMT-30"/>
      </g>
     </g>
    </g>
    <g id="xtick_2">
     <g id="line2d_2">
      <path d="M 191.030126 384.48 
L 191.030126 51.84 
" clip-path="url(#p444cde1a48)" style="fill: none; stroke: #ffffff; stroke-width: 0.8; stroke-linecap: round"/>
     </g>
     <g id="text_2">
      <!-- 200 -->
      <g style="fill: #262626" transform="translate(182.68872 398.637812) scale(0.1 -0.1)">
       <defs>
        <path id="ArialMT-32" d="M 3222 541 
L 3222 0 
L 194 0 
Q 188 203 259 391 
Q 375 700 629 1000 
Q 884 1300 1366 1694 
Q 2113 2306 2375 2664 
Q 2638 3022 2638 3341 
Q 2638 3675 2398 3904 
Q 2159 4134 1775 4134 
Q 1369 4134 1125 3890 
Q 881 3647 878 3216 
L 300 3275 
Q 359 3922 746 4261 
Q 1134 4600 1788 4600 
Q 2447 4600 2831 4234 
Q 3216 3869 3216 3328 
Q 3216 3053 3103 2787 
Q 2991 2522 2730 2228 
Q 2469 1934 1863 1422 
Q 1356 997 1212 845 
Q 1069 694 975 541 
L 3222 541 
z
" transform="scale(0.015625)"/>
       </defs>
       <use xlink:href="#ArialMT-32"/>
       <use xlink:href="#ArialMT-30" x="55.615234"/>
       <use xlink:href="#ArialMT-30" x="111.230469"/>
      </g>
     </g>
    </g>
    <g id="xtick_3">
     <g id="line2d_3">
      <path d="M 289.769343 384.48 
L 289.769343 51.84 
" clip-path="url(#p444cde1a48)" style="fill: none; stroke: #ffffff; stroke-width: 0.8; stroke-linecap: round"/>
     </g>
     <g id="text_3">
      <!-- 400 -->
      <g style="fill: #262626" transform="translate(281.427937 398.637812) scale(0.1 -0.1)">
       <defs>
        <path id="ArialMT-34" d="M 2069 0 
L 2069 1097 
L 81 1097 
L 81 1613 
L 2172 4581 
L 2631 4581 
L 2631 1613 
L 3250 1613 
L 3250 1097 
L 2631 1097 
L 2631 0 
L 2069 0 
z
M 2069 1613 
L 2069 3678 
L 634 1613 
L 2069 1613 
z
" transform="scale(0.015625)"/>
       </defs>
       <use xlink:href="#ArialMT-34"/>
       <use xlink:href="#ArialMT-30" x="55.615234"/>
       <use xlink:href="#ArialMT-30" x="111.230469"/>
      </g>
     </g>
    </g>
    <g id="xtick_4">
     <g id="line2d_4">
      <path d="M 388.50856 384.48 
L 388.50856 51.84 
" clip-path="url(#p444cde1a48)" style="fill: none; stroke: #ffffff; stroke-width: 0.8; stroke-linecap: round"/>
     </g>
     <g id="text_4">
      <!-- 600 -->
      <g style="fill: #262626" transform="translate(380.167154 398.637812) scale(0.1 -0.1)">
       <defs>
        <path id="ArialMT-36" d="M 3184 3459 
L 2625 3416 
Q 2550 3747 2413 3897 
Q 2184 4138 1850 4138 
Q 1581 4138 1378 3988 
Q 1113 3794 959 3422 
Q 806 3050 800 2363 
Q 1003 2672 1297 2822 
Q 1591 2972 1913 2972 
Q 2475 2972 2870 2558 
Q 3266 2144 3266 1488 
Q 3266 1056 3080 686 
Q 2894 316 2569 119 
Q 2244 -78 1831 -78 
Q 1128 -78 684 439 
Q 241 956 241 2144 
Q 241 3472 731 4075 
Q 1159 4600 1884 4600 
Q 2425 4600 2770 4297 
Q 3116 3994 3184 3459 
z
M 888 1484 
Q 888 1194 1011 928 
Q 1134 663 1356 523 
Q 1578 384 1822 384 
Q 2178 384 2434 671 
Q 2691 959 2691 1453 
Q 2691 1928 2437 2201 
Q 2184 2475 1800 2475 
Q 1419 2475 1153 2201 
Q 888 1928 888 1484 
z
" transform="scale(0.015625)"/>
       </defs>
       <use xlink:href="#ArialMT-36"/>
       <use xlink:href="#ArialMT-30" x="55.615234"/>
       <use xlink:href="#ArialMT-30" x="111.230469"/>
      </g>
     </g>
    </g>
    <g id="xtick_5">
     <g id="line2d_5">
      <path d="M 487.247777 384.48 
L 487.247777 51.84 
" clip-path="url(#p444cde1a48)" style="fill: none; stroke: #ffffff; stroke-width: 0.8; stroke-linecap: round"/>
     </g>
     <g id="text_5">
      <!-- 800 -->
      <g style="fill: #262626" transform="translate(478.906371 398.637812) scale(0.1 -0.1)">
       <defs>
        <path id="ArialMT-38" d="M 1131 2484 
Q 781 2613 612 2850 
Q 444 3088 444 3419 
Q 444 3919 803 4259 
Q 1163 4600 1759 4600 
Q 2359 4600 2725 4251 
Q 3091 3903 3091 3403 
Q 3091 3084 2923 2848 
Q 2756 2613 2416 2484 
Q 2838 2347 3058 2040 
Q 3278 1734 3278 1309 
Q 3278 722 2862 322 
Q 2447 -78 1769 -78 
Q 1091 -78 675 323 
Q 259 725 259 1325 
Q 259 1772 486 2073 
Q 713 2375 1131 2484 
z
M 1019 3438 
Q 1019 3113 1228 2906 
Q 1438 2700 1772 2700 
Q 2097 2700 2305 2904 
Q 2513 3109 2513 3406 
Q 2513 3716 2298 3927 
Q 2084 4138 1766 4138 
Q 1444 4138 1231 3931 
Q 1019 3725 1019 3438 
z
M 838 1322 
Q 838 1081 952 856 
Q 1066 631 1291 507 
Q 1516 384 1775 384 
Q 2178 384 2440 643 
Q 2703 903 2703 1303 
Q 2703 1709 2433 1975 
Q 2163 2241 1756 2241 
Q 1359 2241 1098 1978 
Q 838 1716 838 1322 
z
" transform="scale(0.015625)"/>
       </defs>
       <use xlink:href="#ArialMT-38"/>
       <use xlink:href="#ArialMT-30" x="55.615234"/>
       <use xlink:href="#ArialMT-30" x="111.230469"/>
      </g>
     </g>
    </g>
    <g id="text_6">
     <!-- Days -->
     <g style="fill: #262626" transform="translate(283.808594 411.783125) scale(0.1 -0.1)">
      <defs>
       <path id="ArialMT-44" d="M 494 0 
L 494 4581 
L 2072 4581 
Q 2606 4581 2888 4516 
Q 3281 4425 3559 4188 
Q 3922 3881 4101 3404 
Q 4281 2928 4281 2316 
Q 4281 1794 4159 1391 
Q 4038 988 3847 723 
Q 3656 459 3429 307 
Q 3203 156 2883 78 
Q 2563 0 2147 0 
L 494 0 
z
M 1100 541 
L 2078 541 
Q 2531 541 2789 625 
Q 3047 709 3200 863 
Q 3416 1078 3536 1442 
Q 3656 1806 3656 2325 
Q 3656 3044 3420 3430 
Q 3184 3816 2847 3947 
Q 2603 4041 2063 4041 
L 1100 4041 
L 1100 541 
z
" transform="scale(0.015625)"/>
       <path id="ArialMT-61" d="M 2588 409 
Q 2275 144 1986 34 
Q 1697 -75 1366 -75 
Q 819 -75 525 192 
Q 231 459 231 875 
Q 231 1119 342 1320 
Q 453 1522 633 1644 
Q 813 1766 1038 1828 
Q 1203 1872 1538 1913 
Q 2219 1994 2541 2106 
Q 2544 2222 2544 2253 
Q 2544 2597 2384 2738 
Q 2169 2928 1744 2928 
Q 1347 2928 1158 2789 
Q 969 2650 878 2297 
L 328 2372 
Q 403 2725 575 2942 
Q 747 3159 1072 3276 
Q 1397 3394 1825 3394 
Q 2250 3394 2515 3294 
Q 2781 3194 2906 3042 
Q 3031 2891 3081 2659 
Q 3109 2516 3109 2141 
L 3109 1391 
Q 3109 606 3145 398 
Q 3181 191 3288 0 
L 2700 0 
Q 2613 175 2588 409 
z
M 2541 1666 
Q 2234 1541 1622 1453 
Q 1275 1403 1131 1340 
Q 988 1278 909 1158 
Q 831 1038 831 891 
Q 831 666 1001 516 
Q 1172 366 1500 366 
Q 1825 366 2078 508 
Q 2331 650 2450 897 
Q 2541 1088 2541 1459 
L 2541 1666 
z
" transform="scale(0.015625)"/>
       <path id="ArialMT-79" d="M 397 -1278 
L 334 -750 
Q 519 -800 656 -800 
Q 844 -800 956 -737 
Q 1069 -675 1141 -563 
Q 1194 -478 1313 -144 
Q 1328 -97 1363 -6 
L 103 3319 
L 709 3319 
L 1400 1397 
Q 1534 1031 1641 628 
Q 1738 1016 1872 1384 
L 2581 3319 
L 3144 3319 
L 1881 -56 
Q 1678 -603 1566 -809 
Q 1416 -1088 1222 -1217 
Q 1028 -1347 759 -1347 
Q 597 -1347 397 -1278 
z
" transform="scale(0.015625)"/>
       <path id="ArialMT-73" d="M 197 991 
L 753 1078 
Q 800 744 1014 566 
Q 1228 388 1613 388 
Q 2000 388 2187 545 
Q 2375 703 2375 916 
Q 2375 1106 2209 1216 
Q 2094 1291 1634 1406 
Q 1016 1563 777 1677 
Q 538 1791 414 1992 
Q 291 2194 291 2438 
Q 291 2659 392 2848 
Q 494 3038 669 3163 
Q 800 3259 1026 3326 
Q 1253 3394 1513 3394 
Q 1903 3394 2198 3281 
Q 2494 3169 2634 2976 
Q 2775 2784 2828 2463 
L 2278 2388 
Q 2241 2644 2061 2787 
Q 1881 2931 1553 2931 
Q 1166 2931 1000 2803 
Q 834 2675 834 2503 
Q 834 2394 903 2306 
Q 972 2216 1119 2156 
Q 1203 2125 1616 2013 
Q 2213 1853 2448 1751 
Q 2684 1650 2818 1456 
Q 2953 1263 2953 975 
Q 2953 694 2789 445 
Q 2625 197 2315 61 
Q 2006 -75 1616 -75 
Q 969 -75 630 194 
Q 291 463 197 991 
z
" transform="scale(0.015625)"/>
      </defs>
      <use xlink:href="#ArialMT-44"/>
      <use xlink:href="#ArialMT-61" x="72.216797"/>
      <use xlink:href="#ArialMT-79" x="127.832031"/>
      <use xlink:href="#ArialMT-73" x="177.832031"/>
     </g>
    </g>
   </g>
   <g id="matplotlib.axis_2">
    <g id="ytick_1">
     <g id="line2d_6">
      <path d="M 72 375.36883 
L 518.4 375.36883 
" clip-path="url(#p444cde1a48)" style="fill: none; stroke: #ffffff; stroke-width: 0.8; stroke-linecap: round"/>
     </g>
     <g id="text_7">
      <!-- 5 -->
      <g style="fill: #262626" transform="translate(59.439062 378.947737) scale(0.1 -0.1)">
       <defs>
        <path id="ArialMT-35" d="M 266 1200 
L 856 1250 
Q 922 819 1161 601 
Q 1400 384 1738 384 
Q 2144 384 2425 690 
Q 2706 997 2706 1503 
Q 2706 1984 2436 2262 
Q 2166 2541 1728 2541 
Q 1456 2541 1237 2417 
Q 1019 2294 894 2097 
L 366 2166 
L 809 4519 
L 3088 4519 
L 3088 3981 
L 1259 3981 
L 1013 2750 
Q 1425 3038 1878 3038 
Q 2478 3038 2890 2622 
Q 3303 2206 3303 1553 
Q 3303 931 2941 478 
Q 2500 -78 1738 -78 
Q 1113 -78 717 272 
Q 322 622 266 1200 
z
" transform="scale(0.015625)"/>
       </defs>
       <use xlink:href="#ArialMT-35"/>
      </g>
     </g>
    </g>
    <g id="ytick_2">
     <g id="line2d_7">
      <path d="M 72 324.827267 
L 518.4 324.827267 
" clip-path="url(#p444cde1a48)" style="fill: none; stroke: #ffffff; stroke-width: 0.8; stroke-linecap: round"/>
     </g>
     <g id="text_8">
      <!-- 10 -->
      <g style="fill: #262626" transform="translate(53.878125 328.406173) scale(0.1 -0.1)">
       <defs>
        <path id="ArialMT-31" d="M 2384 0 
L 1822 0 
L 1822 3584 
Q 1619 3391 1289 3197 
Q 959 3003 697 2906 
L 697 3450 
Q 1169 3672 1522 3987 
Q 1875 4303 2022 4600 
L 2384 4600 
L 2384 0 
z
" transform="scale(0.015625)"/>
       </defs>
       <use xlink:href="#ArialMT-31"/>
       <use xlink:href="#ArialMT-30" x="55.615234"/>
      </g>
     </g>
    </g>
    <g id="ytick_3">
     <g id="line2d_8">
      <path d="M 72 274.285704 
L 518.4 274.285704 
" clip-path="url(#p444cde1a48)" style="fill: none; stroke: #ffffff; stroke-width: 0.8; stroke-linecap: round"/>
     </g>
     <g id="text_9">
      <!-- 15 -->
      <g style="fill: #262626" transform="translate(53.878125 277.86461) scale(0.1 -0.1)">
       <use xlink:href="#ArialMT-31"/>
       <use xlink:href="#ArialMT-35" x="55.615234"/>
      </g>
     </g>
    </g>
    <g id="ytick_4">
     <g id="line2d_9">
      <path d="M 72 223.744141 
L 518.4 223.744141 
" clip-path="url(#p444cde1a48)" style="fill: none; stroke: #ffffff; stroke-width: 0.8; stroke-linecap: round"/>
     </g>
     <g id="text_10">
      <!-- 20 -->
      <g style="fill: #262626" transform="translate(53.878125 227.323047) scale(0.1 -0.1)">
       <use xlink:href="#ArialMT-32"/>
       <use xlink:href="#ArialMT-30" x="55.615234"/>
      </g>
     </g>
    </g>
    <g id="ytick_5">
     <g id="line2d_10">
      <path d="M 72 173.202578 
L 518.4 173.202578 
" clip-path="url(#p444cde1a48)" style="fill: none; stroke: #ffffff; stroke-width: 0.8; stroke-linecap: round"/>
     </g>
     <g id="text_11">
      <!-- 25 -->
      <g style="fill: #262626" transform="translate(53.878125 176.781484) scale(0.1 -0.1)">
       <use xlink:href="#ArialMT-32"/>
       <use xlink:href="#ArialMT-35" x="55.615234"/>
      </g>
     </g>
    </g>
    <g id="ytick_6">
     <g id="line2d_11">
      <path d="M 72 122.661014 
L 518.4 122.661014 
" clip-path="url(#p444cde1a48)" style="fill: none; stroke: #ffffff; stroke-width: 0.8; stroke-linecap: round"/>
     </g>
     <g id="text_12">
      <!-- 30 -->
      <g style="fill: #262626" transform="translate(53.878125 126.239921) scale(0.1 -0.1)">
       <defs>
        <path id="ArialMT-33" d="M 269 1209 
L 831 1284 
Q 928 806 1161 595 
Q 1394 384 1728 384 
Q 2125 384 2398 659 
Q 2672 934 2672 1341 
Q 2672 1728 2419 1979 
Q 2166 2231 1775 2231 
Q 1616 2231 1378 2169 
L 1441 2663 
Q 1497 2656 1531 2656 
Q 1891 2656 2178 2843 
Q 2466 3031 2466 3422 
Q 2466 3731 2256 3934 
Q 2047 4138 1716 4138 
Q 1388 4138 1169 3931 
Q 950 3725 888 3313 
L 325 3413 
Q 428 3978 793 4289 
Q 1159 4600 1703 4600 
Q 2078 4600 2393 4439 
Q 2709 4278 2876 4000 
Q 3044 3722 3044 3409 
Q 3044 3113 2884 2869 
Q 2725 2625 2413 2481 
Q 2819 2388 3044 2092 
Q 3269 1797 3269 1353 
Q 3269 753 2831 336 
Q 2394 -81 1725 -81 
Q 1122 -81 723 278 
Q 325 638 269 1209 
z
" transform="scale(0.015625)"/>
       </defs>
       <use xlink:href="#ArialMT-33"/>
       <use xlink:href="#ArialMT-30" x="55.615234"/>
      </g>
     </g>
    </g>
    <g id="ytick_7">
     <g id="line2d_12">
      <path d="M 72 72.119451 
L 518.4 72.119451 
" clip-path="url(#p444cde1a48)" style="fill: none; stroke: #ffffff; stroke-width: 0.8; stroke-linecap: round"/>
     </g>
     <g id="text_13">
      <!-- 35 -->
      <g style="fill: #262626" transform="translate(53.878125 75.698357) scale(0.1 -0.1)">
       <use xlink:href="#ArialMT-33"/>
       <use xlink:href="#ArialMT-35" x="55.615234"/>
      </g>
     </g>
    </g>
    <g id="text_14">
     <!-- (°C) -->
     <g style="fill: #262626" transform="translate(47.773438 227.099844) rotate(-90) scale(0.1 -0.1)">
      <defs>
       <path id="ArialMT-28" d="M 1497 -1347 
Q 1031 -759 709 28 
Q 388 816 388 1659 
Q 388 2403 628 3084 
Q 909 3875 1497 4659 
L 1900 4659 
Q 1522 4009 1400 3731 
Q 1209 3300 1100 2831 
Q 966 2247 966 1656 
Q 966 153 1900 -1347 
L 1497 -1347 
z
" transform="scale(0.015625)"/>
       <path id="ArialMT-b0" d="M 400 3794 
Q 400 4153 654 4406 
Q 909 4659 1266 4659 
Q 1628 4659 1881 4406 
Q 2134 4153 2134 3794 
Q 2134 3434 1879 3179 
Q 1625 2925 1266 2925 
Q 909 2925 654 3178 
Q 400 3431 400 3794 
z
M 741 3794 
Q 741 3575 895 3420 
Q 1050 3266 1269 3266 
Q 1484 3266 1639 3420 
Q 1794 3575 1794 3794 
Q 1794 4013 1639 4167 
Q 1484 4322 1269 4322 
Q 1050 4322 895 4167 
Q 741 4013 741 3794 
z
" transform="scale(0.015625)"/>
       <path id="ArialMT-43" d="M 3763 1606 
L 4369 1453 
Q 4178 706 3683 314 
Q 3188 -78 2472 -78 
Q 1731 -78 1267 223 
Q 803 525 561 1097 
Q 319 1669 319 2325 
Q 319 3041 592 3573 
Q 866 4106 1370 4382 
Q 1875 4659 2481 4659 
Q 3169 4659 3637 4309 
Q 4106 3959 4291 3325 
L 3694 3184 
Q 3534 3684 3231 3912 
Q 2928 4141 2469 4141 
Q 1941 4141 1586 3887 
Q 1231 3634 1087 3207 
Q 944 2781 944 2328 
Q 944 1744 1114 1308 
Q 1284 872 1643 656 
Q 2003 441 2422 441 
Q 2931 441 3284 734 
Q 3638 1028 3763 1606 
z
" transform="scale(0.015625)"/>
       <path id="ArialMT-29" d="M 791 -1347 
L 388 -1347 
Q 1322 153 1322 1656 
Q 1322 2244 1188 2822 
Q 1081 3291 891 3722 
Q 769 4003 388 4659 
L 791 4659 
Q 1378 3875 1659 3084 
Q 1900 2403 1900 1659 
Q 1900 816 1576 28 
Q 1253 -759 791 -1347 
z
" transform="scale(0.015625)"/>
      </defs>
      <use xlink:href="#ArialMT-28"/>
      <use xlink:href="#ArialMT-b0" x="33.300781"/>
      <use xlink:href="#ArialMT-43" x="73.291016"/>
      <use xlink:href="#ArialMT-29" x="145.507812"/>
     </g>
    </g>
   </g>
   <g id="line2d_13">
    <path d="M 92.290909 156.734452 
L 92.784605 150.360599 
L 93.278301 170.900129 
L 94.265693 318.270903 
L 94.75939 262.506712 
L 95.253086 277.648122 
L 95.746782 336.318453 
L 97.22787 280.43859 
L 97.721566 307.362349 
L 98.215262 284.93831 
L 98.708958 236.008422 
L 99.202654 231.85185 
L 99.69635 218.479395 
L 100.190046 268.34707 
L 100.683743 280.947363 
L 101.177439 268.97182 
L 101.671135 221.146866 
L 102.164831 200.867064 
L 102.658527 199.034932 
L 103.152223 204.784035 
L 103.645919 222.431464 
L 104.633311 299.486289 
L 105.127007 257.28536 
L 105.620703 254.86932 
L 106.114399 282.66016 
L 106.608096 298.650949 
L 107.101792 286.80878 
L 107.595488 284.766059 
L 108.089184 260.926732 
L 108.58288 219.925445 
L 109.076576 261.848084 
L 109.570272 275.801951 
L 110.063968 277.781495 
L 110.557664 260.807954 
L 111.05136 277.802554 
L 111.545056 229.837207 
L 112.038752 217.623511 
L 112.532449 262.12765 
L 113.026145 225.730705 
L 113.519841 229.626617 
L 114.013537 245.820976 
L 114.507233 238.07829 
L 115.000929 218.689984 
L 115.494625 228.019115 
L 115.988321 248.895588 
L 116.482017 317.969058 
L 116.975713 352.702343 
L 117.469409 304.364954 
L 117.963106 297.902398 
L 118.456802 322.124697 
L 118.950498 303.213729 
L 119.444194 264.430099 
L 119.93789 252.222908 
L 120.431586 248.790293 
L 120.925282 213.467356 
L 121.418978 211.038553 
L 121.912674 273.11342 
L 122.40637 299.008952 
L 123.393762 229.170339 
L 123.887459 298.103416 
L 124.381155 322.335287 
L 124.874851 318.13051 
L 126.355939 225.134034 
L 126.849635 245.259403 
L 127.343331 279.592568 
L 127.837027 275.099985 
L 128.330723 233.045192 
L 128.824419 279.697863 
L 129.318115 282.119646 
L 129.811812 296.741601 
L 130.305508 298.159573 
L 130.799204 263.538602 
L 131.2929 242.479617 
L 131.786596 297.864747 
L 132.280292 320.025819 
L 132.773988 271.512938 
L 133.267684 250.31356 
L 133.76138 237.86068 
L 134.748772 206.812717 
L 135.242468 192.903034 
L 135.736165 166.874774 
L 136.229861 181.920997 
L 136.723557 305.782925 
L 137.217253 359.60969 
L 137.710949 329.712952 
L 138.204645 252.503694 
L 138.698341 253.784337 
L 139.192037 263.208678 
L 139.685733 218.57065 
L 140.179429 153.975725 
L 140.673125 136.784573 
L 141.166821 188.161476 
L 141.660518 259.270648 
L 142.154214 276.721526 
L 142.64791 273.071302 
L 143.635302 230.826979 
L 144.128998 216.675342 
L 145.11639 253.107385 
L 145.610086 210.680551 
L 146.103782 180.559183 
L 146.597478 189.937451 
L 147.091175 183.774188 
L 147.584871 179.316703 
L 148.078567 183.682932 
L 148.572263 347.334167 
L 149.065959 367.091324 
L 149.559655 344.910519 
L 150.053351 258.744173 
L 150.547047 197.181741 
L 151.040743 154.677691 
L 152.028135 183.360028 
L 152.521831 184.04604 
L 153.015528 153.519447 
L 153.509224 172.52167 
L 154.00292 268.54105 
L 154.496616 297.583961 
L 154.990312 284.11323 
L 155.484008 318.74824 
L 156.4714 255.150107 
L 156.965096 266.353486 
L 157.458792 245.729721 
L 157.952488 203.541555 
L 158.446184 186.63119 
L 158.939881 181.436641 
L 159.433577 227.766407 
L 159.927273 212.470564 
L 160.420969 215.503058 
L 160.914665 210.673531 
L 161.408361 201.140831 
L 161.902057 308.756922 
L 162.395753 303.677027 
L 162.889449 289.048204 
L 163.383145 235.509094 
L 163.876841 167.123453 
L 164.370537 173.237676 
L 164.864234 148.310858 
L 165.35793 158.41917 
L 165.851626 157.759322 
L 166.839018 124.802011 
L 167.332714 130.172052 
L 167.82641 164.301647 
L 168.320106 156.214997 
L 168.813802 217.995038 
L 169.801194 190.344591 
L 170.294891 157.281985 
L 170.788587 157.629111 
L 171.282283 159.284209 
L 171.775979 170.352595 
L 172.269675 167.993989 
L 173.257067 194.043953 
L 173.750763 163.325914 
L 174.244459 140.259306 
L 174.738155 140.118913 
L 175.231851 160.174086 
L 175.725547 161.493782 
L 176.219244 173.16997 
L 176.71294 154.179295 
L 177.206636 126.872811 
L 177.700332 142.295008 
L 178.194028 177.51265 
L 178.687724 169.06029 
L 179.18142 180.00463 
L 179.675116 182.931829 
L 180.168812 167.462753 
L 180.662508 116.518811 
L 181.156204 134.833108 
L 181.6499 208.069237 
L 182.143597 219.469167 
L 182.637293 197.546764 
L 183.130989 184.412977 
L 183.624685 187.143625 
L 184.118381 183.11434 
L 184.612077 169.292626 
L 185.105773 148.739057 
L 185.599469 117.796389 
L 186.093165 131.147785 
L 187.080557 113.521415 
L 187.574253 116.785558 
L 188.06795 127.449917 
L 188.561646 135.212169 
L 189.055342 136.215981 
L 189.549038 138.378037 
L 190.042734 138.890472 
L 190.53643 126.449864 
L 191.030126 122.639955 
L 191.523822 145.664445 
L 192.017518 137.06536 
L 192.511214 138.855374 
L 193.00491 130.340524 
L 193.498607 134.334712 
L 194.485999 124.078986 
L 194.979695 108.081177 
L 195.473391 80.065708 
L 195.967087 66.96 
L 196.460783 72.56871 
L 196.954479 127.983783 
L 197.448175 160.616324 
L 197.941871 148.170464 
L 198.435567 132.804425 
L 199.42296 125.047699 
L 199.916656 118.343923 
L 200.410352 115.739628 
L 200.904048 116.596027 
L 201.397744 110.860963 
L 201.89144 82.192666 
L 202.385136 117.599838 
L 202.878832 117.038266 
L 203.372528 103.602633 
L 203.866224 117.382229 
L 204.35992 166.765548 
L 204.853616 140.189109 
L 205.347313 136.096647 
L 205.841009 134.15922 
L 206.334705 129.308634 
L 206.828401 128.887454 
L 207.322097 136.124725 
L 207.815793 135.415739 
L 208.309489 124.61248 
L 208.803185 123.208548 
L 209.296881 116.687282 
L 209.790577 119.331633 
L 210.284273 117.059324 
L 210.777969 102.204052 
L 211.271666 94.484093 
L 211.765362 101.672226 
L 212.259058 124.254478 
L 212.752754 128.382876 
L 213.24645 82.560879 
L 213.740146 100.078763 
L 214.233842 105.43447 
L 214.727538 112.440387 
L 215.221234 113.296786 
L 215.71493 112.686075 
L 216.208626 112.447407 
L 216.702322 113.717966 
L 217.196019 110.053702 
L 218.183411 138.321879 
L 218.677107 165.284399 
L 219.170803 138.378037 
L 219.664499 136.770534 
L 220.158195 129.975502 
L 220.651891 120.590214 
L 221.145587 127.083401 
L 221.639283 114.967465 
L 222.626676 110.327364 
L 223.614068 101.468656 
L 224.107764 99.10303 
L 224.60146 98.092199 
L 225.095156 97.592399 
L 225.588852 105.568139 
L 226.082548 96.83568 
L 226.576244 93.901461 
L 227.06994 99.959429 
L 227.563636 101.166811 
L 228.057332 94.090992 
L 228.551029 91.577953 
L 229.044725 97.530626 
L 229.538421 89.710824 
L 230.032117 87.443372 
L 230.525813 96.260067 
L 231.019509 99.94539 
L 231.513205 104.739818 
L 232.006901 106.838996 
L 232.500597 118.581844 
L 232.994293 113.058117 
L 233.981685 135.219189 
L 234.475382 124.984522 
L 234.969078 103.399063 
L 235.95647 135.261307 
L 236.450166 126.627123 
L 236.943862 120.856961 
L 237.931254 137.697129 
L 238.42495 126.795595 
L 238.918646 138.462273 
L 239.412342 207.443603 
L 239.906038 217.679153 
L 240.399735 117.606858 
L 240.893431 150.585228 
L 241.387127 157.450457 
L 241.880823 155.73766 
L 242.868215 140.154011 
L 243.361911 141.782572 
L 243.855607 127.53266 
L 244.349303 135.686954 
L 244.842999 130.874018 
L 245.336695 139.936401 
L 245.830392 142.365204 
L 246.324088 142.007202 
L 246.817784 138.876433 
L 247.31148 141.235039 
L 247.805176 138.707961 
L 248.298872 133.373018 
L 248.792568 139.325691 
L 249.286264 137.963877 
L 249.77996 148.184504 
L 250.273656 149.644593 
L 250.767352 146.541903 
L 251.261048 151.329312 
L 251.754745 150.402717 
L 252.248441 151.546922 
L 252.742137 135.113894 
L 253.235833 128.501373 
L 253.729529 144.801027 
L 254.223225 155.358598 
L 255.210617 139.866205 
L 256.198009 256.132859 
L 256.691705 198.438261 
L 257.185401 159.191333 
L 257.679098 142.828502 
L 258.172794 185.451887 
L 258.66649 195.433846 
L 259.160186 174.487176 
L 259.653882 135.521034 
L 260.147578 156.088643 
L 260.641274 139.283573 
L 261.13497 170.029691 
L 261.628666 182.714219 
L 262.122362 171.440643 
L 262.616058 239.194416 
L 263.109754 240.521132 
L 263.603451 202.19378 
L 264.097147 193.243711 
L 264.590843 173.890504 
L 265.084539 205.331569 
L 265.578235 281.845879 
L 266.071931 267.090551 
L 266.565627 238.148486 
L 267.059323 239.292691 
L 267.553019 194.830155 
L 268.046715 176.659196 
L 268.540411 180.390711 
L 269.034107 169.060977 
L 269.527804 281.066697 
L 270.0215 273.703072 
L 270.515196 254.700848 
L 271.008892 211.796677 
L 271.502588 369.36 
L 271.996284 364.123332 
L 272.48998 288.570715 
L 272.983676 274.587549 
L 273.477372 267.385377 
L 273.971068 227.724289 
L 274.464764 218.612768 
L 274.958461 202.881707 
L 275.452157 203.190572 
L 275.945853 187.698179 
L 276.439549 189.649645 
L 276.933245 239.73493 
L 277.426941 229.331791 
L 277.920637 190.337571 
L 278.414333 183.984778 
L 279.401725 242.970994 
L 279.895421 211.593107 
L 280.389117 159.88628 
L 280.882814 214.078067 
L 281.37651 246.235136 
L 281.870206 237.881739 
L 282.363902 206.005456 
L 282.857598 209.431051 
L 283.351294 202.39033 
L 283.84499 221.462751 
L 284.338686 215.439881 
L 284.832382 179.604509 
L 285.326078 244.978617 
L 285.819774 294.411074 
L 286.31347 286.219129 
L 286.807167 216.450712 
L 287.300863 191.952094 
L 287.794559 177.667082 
L 288.288255 183.760149 
L 288.781951 296.797759 
L 289.275647 318.678044 
L 289.769343 309.538444 
L 290.263039 276.567094 
L 290.756735 281.20709 
L 291.250431 266.402624 
L 292.237823 247.758403 
L 292.73152 224.965562 
L 293.225216 233.452333 
L 293.718912 232.560836 
L 294.212608 187.47355 
L 295.693696 309.650759 
L 296.187392 288.977856 
L 296.681088 245.392777 
L 297.174784 260.898669 
L 297.66848 268.065204 
L 298.162177 257.810558 
L 298.655873 231.620201 
L 299.149569 249.822183 
L 299.643265 257.78248 
L 300.136961 239.882343 
L 300.630657 229.338811 
L 301.124353 234.652695 
L 301.618049 260.26042 
L 302.111745 239.966579 
L 302.605441 213.944693 
L 303.099137 214.808112 
L 303.592833 211.831775 
L 304.08653 229.788069 
L 304.580226 218.128412 
L 305.073922 275.942344 
L 305.567618 287.405451 
L 306.061314 304.638917 
L 306.55501 274.503313 
L 307.048706 235.642467 
L 307.542402 248.572684 
L 308.036098 256.610196 
L 308.529794 199.877291 
L 309.02349 201.112752 
L 309.517186 201.835777 
L 310.504579 289.377976 
L 310.998275 295.407866 
L 311.491971 265.342655 
L 311.985667 250.236343 
L 312.479363 228.987828 
L 312.973059 197.722255 
L 313.466755 273.253814 
L 313.960451 289.735979 
L 314.454147 243.88355 
L 314.947843 223.898573 
L 315.441539 190.793849 
L 315.935236 173.188538 
L 316.428932 244.234533 
L 316.922628 293.154554 
L 317.416324 267.659143 
L 317.91002 307.060504 
L 319.391108 186.666288 
L 319.884804 179.78702 
L 320.3785 273.366128 
L 321.365893 326.259278 
L 322.846981 191.453698 
L 323.340677 186.589072 
L 323.834373 284.071112 
L 324.328069 291.504934 
L 324.821765 254.855281 
L 325.315461 243.46939 
L 325.809157 191.418599 
L 326.302853 152.705166 
L 326.796549 199.828154 
L 327.290246 173.448266 
L 327.783942 233.985827 
L 328.277638 227.338207 
L 328.771334 245.596347 
L 329.26503 234.414026 
L 329.758726 214.253558 
L 330.252422 207.191779 
L 330.746118 185.887106 
L 331.239814 173.672895 
L 331.73351 153.968705 
L 332.227206 152.255908 
L 332.720902 187.796454 
L 333.214599 204.987605 
L 333.708295 174.845178 
L 334.201991 169.62957 
L 334.695687 144.291338 
L 335.683079 260.372735 
L 336.176775 241.503884 
L 336.670471 196.683345 
L 337.164167 137.149596 
L 337.657863 120.493909 
L 338.151559 132.846543 
L 338.645255 122.520621 
L 339.138952 135.738644 
L 339.632648 217.138639 
L 340.126344 195.511062 
L 340.62004 151.58904 
L 341.113736 194.008854 
L 341.607432 161.234055 
L 342.101128 171.875862 
L 342.594824 221.245141 
L 343.08852 249.351866 
L 344.075912 182.405354 
L 344.569608 137.591835 
L 345.063305 124.521225 
L 345.557001 169.390901 
L 346.050697 173.293833 
L 346.544393 125.065154 
L 347.038089 150.954843 
L 347.531785 235.452936 
L 348.025481 279.641706 
L 348.519177 257.045415 
L 349.012873 189.902352 
L 349.506569 166.891902 
L 350.000265 128.213567 
L 350.493962 122.303012 
L 350.987658 141.62814 
L 351.481354 122.562739 
L 351.97505 112.910705 
L 352.468746 111.998149 
L 352.962442 134.868206 
L 353.456138 203.036139 
L 353.949834 167.523671 
L 354.44353 140.79982 
L 354.937226 131.203943 
L 355.430922 169.447059 
L 355.924618 153.189523 
L 356.912011 130.0106 
L 357.405707 119.663619 
L 357.899403 125.195112 
L 358.393099 149.405925 
L 358.886795 152.171672 
L 359.380491 162.279984 
L 359.874187 205.787847 
L 360.367883 206.461734 
L 361.848971 152.62093 
L 362.342668 153.161444 
L 362.836364 139.037885 
L 363.33006 139.950441 
L 363.823756 145.467895 
L 364.317452 131.126726 
L 364.811148 121.200925 
L 365.304844 122.162618 
L 365.79854 143.2918 
L 366.292236 134.805029 
L 366.785932 134.496164 
L 367.279628 152.164652 
L 367.773324 153.624742 
L 368.267021 178.200577 
L 368.760717 151.231037 
L 369.254413 134.306633 
L 369.748109 165.789815 
L 370.241805 171.924999 
L 370.735501 175.21722 
L 371.229197 175.952321 
L 371.722893 167.221826 
L 372.216589 147.665049 
L 372.710285 139.178278 
L 373.203981 139.183646 
L 374.191374 117.613878 
L 374.68507 103.012982 
L 375.178766 112.861567 
L 375.672462 138.490351 
L 376.166158 181.744102 
L 376.659854 157.499595 
L 377.15355 153.701958 
L 377.647246 148.788195 
L 378.140942 149.51122 
L 378.634638 145.839937 
L 379.128334 139.367809 
L 379.622031 135.991352 
L 380.115727 145.896094 
L 380.609423 136.974104 
L 381.596815 116.308221 
L 382.090511 119.186282 
L 383.077903 155.246283 
L 383.571599 158.355993 
L 384.065295 160.440833 
L 384.558991 168.009951 
L 385.052687 122.408307 
L 385.546384 143.530468 
L 386.04008 135.572953 
L 386.533776 124.156202 
L 387.027472 128.581598 
L 387.521168 111.099632 
L 388.014864 109.653582 
L 388.50856 110.285351 
L 389.002256 112.707134 
L 389.495952 135.753106 
L 389.989648 101.559912 
L 390.483344 100.668415 
L 390.97704 104.199305 
L 391.470737 102.268898 
L 391.964433 87.253842 
L 392.951825 115.753667 
L 393.445521 110.741629 
L 393.939217 116.287162 
L 394.432913 149.279571 
L 394.926609 158.117325 
L 395.420305 135.528054 
L 395.914001 132.151597 
L 396.407697 127.1185 
L 396.901393 120.4779 
L 397.39509 108.993733 
L 397.888786 133.95565 
L 398.382482 181.973025 
L 398.876178 173.314892 
L 399.369874 195.354575 
L 400.850962 142.426525 
L 401.344658 147.475518 
L 402.33205 124.738834 
L 402.825747 125.110876 
L 403.319443 128.97871 
L 403.813139 146.64804 
L 404.306835 134.545301 
L 404.800531 132.355167 
L 405.294227 137.662031 
L 405.787923 138.532469 
L 406.281619 132.551718 
L 406.775315 124.900286 
L 407.269011 127.623915 
L 407.762707 126.999165 
L 408.7501 114.104541 
L 409.243796 122.843526 
L 409.737492 122.920742 
L 410.231188 104.957428 
L 410.724884 110.640546 
L 411.21858 110.695593 
L 411.712276 132.074381 
L 412.699668 100.963241 
L 413.193364 109.548287 
L 413.68706 114.820052 
L 414.180756 112.257876 
L 414.674453 104.599425 
L 415.168149 137.189828 
L 415.661845 105.308411 
L 416.155541 135.528212 
L 416.649237 135.61229 
L 417.142933 175.682484 
L 417.636629 179.233871 
L 418.130325 161.774569 
L 418.624021 155.943011 
L 419.117717 156.190097 
L 419.611413 87.123978 
L 420.105109 89.387819 
L 421.092502 107.582781 
L 421.586198 107.519604 
L 422.079894 107.309015 
L 422.57359 118.238628 
L 423.067286 108.818242 
L 423.560982 115.648373 
L 424.054678 124.654598 
L 424.548374 115.964257 
L 425.04207 116.574968 
L 426.029463 124.766913 
L 427.016855 92.841492 
L 427.510551 98.014983 
L 428.497943 114.756876 
L 428.991639 118.589611 
L 429.485335 116.869794 
L 429.979031 114.005772 
L 430.472727 106.894855 
L 430.966423 95.143941 
L 431.460119 127.174657 
L 431.953816 132.109479 
L 432.447512 143.018033 
L 432.941208 145.15201 
L 434.422296 110.046683 
L 434.915992 116.911912 
L 435.409688 116.32226 
L 435.903384 108.818242 
L 436.39708 103.181454 
L 436.890776 110.994337 
L 437.384472 114.560325 
L 437.878169 128.76812 
L 438.371865 155.856994 
L 438.865561 133.169448 
L 439.359257 127.960859 
L 439.852953 118.779142 
L 440.346649 132.390265 
L 440.840345 157.962892 
L 441.827737 136.44763 
L 443.308825 197.272997 
L 443.802522 184.511252 
L 444.789914 139.669654 
L 445.28361 129.694715 
L 445.777306 138.413135 
L 446.271002 133.169448 
L 446.764698 134.194318 
L 447.258394 139.080003 
L 447.75209 142.779364 
L 448.245786 161.437625 
L 449.233179 145.116912 
L 449.726875 146.331313 
L 450.220571 141.192921 
L 450.714267 143.972707 
L 451.207963 145.832917 
L 451.701659 139.480123 
L 452.195355 137.781365 
L 452.689051 140.947233 
L 453.182747 142.653011 
L 453.676443 174.381881 
L 454.663835 166.948059 
L 455.157532 172.53571 
L 455.651228 164.168273 
L 456.144924 163.494386 
L 457.132316 180.931225 
L 457.626012 189.75494 
L 458.119708 181.668289 
L 458.613404 192.303077 
L 459.1071 210.125997 
L 459.600796 214.127204 
L 460.094492 191.341383 
L 460.588188 202.460527 
L 461.081885 195.223256 
L 461.575581 157.19073 
L 462.069277 135.022638 
L 462.562973 149.616515 
L 463.056669 154.193334 
L 463.550365 152.066377 
L 464.044061 170.801853 
L 464.537757 273.064283 
L 466.018845 195.265374 
L 466.512541 181.471739 
L 467.006238 192.668099 
L 467.499934 155.548129 
L 467.99363 190.527102 
L 468.487326 206.826756 
L 468.981022 199.610544 
L 469.474718 183.640814 
L 469.968414 212.182758 
L 470.46211 210.097919 
L 470.955806 235.593329 
L 471.449502 219.665717 
L 471.943198 223.245745 
L 472.436894 185.781811 
L 472.930591 162.315083 
L 473.424287 186.43464 
L 473.917983 188.821325 
L 474.411679 179.393919 
L 474.905375 174.81008 
L 475.399071 185.157061 
L 475.892767 181.745506 
L 476.386463 171.005424 
L 476.880159 257.936912 
L 477.373855 276.770664 
L 477.867551 230.777842 
L 478.361248 255.718699 
L 478.854944 307.713332 
L 479.34864 338.803413 
L 479.842336 322.314228 
L 480.336032 334.472282 
L 480.829728 357.524851 
L 481.323424 341.063744 
L 481.81712 301.086772 
L 482.310816 281.305365 
L 482.804512 228.306921 
L 483.298208 264.149313 
L 483.791904 269.421078 
L 484.285601 226.832792 
L 484.779297 226.418632 
L 485.272993 196.304284 
L 486.260385 296.832857 
L 486.754081 251.534981 
L 487.247777 237.381496 
L 487.741473 204.101231 
L 488.235169 214.323755 
L 488.728865 210.06282 
L 489.222561 219.81313 
L 489.716257 208.778222 
L 490.209954 209.115166 
L 490.70365 213.17253 
L 491.197346 195.087428 
L 491.691042 234.982619 
L 492.184738 248.797313 
L 492.678434 241.019528 
L 493.17213 293.068526 
L 493.665826 326.161003 
L 494.159522 275.879167 
L 494.653218 252.17016 
L 495.146914 308.752242 
L 495.64061 245.785878 
L 496.134307 150.873034 
L 496.628003 136.981124 
L 497.121699 119.256479 
L 497.615395 119.565344 
L 498.109091 193.462679 
L 498.109091 193.462679 
" clip-path="url(#p444cde1a48)" style="fill: none; stroke: #1f77b4; stroke-width: 1.5; stroke-linecap: round"/>
   </g>
   <g id="line2d_14">
    <path d="M 92.290909 217.034893 
L 92.784605 211.226975 
L 93.278301 209.674824 
L 94.265693 204.974828 
L 95.253086 210.067818 
L 95.746782 209.860956 
L 96.240478 210.660623 
L 96.734174 209.902603 
L 97.22787 210.120421 
L 97.721566 209.88373 
L 98.215262 213.973661 
L 98.708958 213.522589 
L 99.202654 216.575917 
L 99.69635 215.709143 
L 100.190046 214.318964 
L 100.683743 214.3862 
L 101.177439 215.114125 
L 101.671135 215.420352 
L 102.658527 220.46489 
L 103.152223 221.003033 
L 103.645919 223.364206 
L 104.139615 223.861957 
L 104.633311 220.114187 
L 105.127007 218.973797 
L 105.620703 217.531499 
L 106.114399 213.119883 
L 106.608096 210.120416 
L 107.101792 211.546902 
L 107.595488 210.754567 
L 108.089184 212.207153 
L 108.58288 212.731041 
L 109.076576 212.524399 
L 109.570272 212.591146 
L 110.063968 213.012373 
L 110.557664 212.810302 
L 111.05136 210.193835 
L 111.545056 211.25719 
L 112.038752 210.896185 
L 112.532449 208.941609 
L 113.026145 209.580964 
L 114.013537 217.170068 
L 114.507233 213.65354 
L 115.000929 220.876326 
L 115.494625 222.319953 
L 115.988321 219.182764 
L 116.482017 221.124977 
L 116.975713 219.61203 
L 117.469409 216.873525 
L 117.963106 215.590272 
L 118.456802 211.662882 
L 118.950498 213.652355 
L 119.93789 221.779189 
L 120.431586 220.815256 
L 120.925282 226.847282 
L 121.912674 232.028159 
L 122.40637 230.969162 
L 122.900066 230.435061 
L 123.393762 229.527332 
L 124.381155 221.102888 
L 124.874851 220.515389 
L 125.368547 218.025445 
L 125.862243 217.483118 
L 126.355939 215.823475 
L 127.343331 223.529357 
L 127.837027 226.136833 
L 128.330723 227.307651 
L 128.824419 224.281661 
L 129.318115 218.654145 
L 129.811812 215.483059 
L 130.305508 215.069806 
L 130.799204 213.882093 
L 131.2929 210.567436 
L 131.786596 209.450401 
L 132.280292 210.336903 
L 132.773988 209.232706 
L 133.267684 207.237696 
L 133.76138 212.141682 
L 134.255076 218.570636 
L 135.242468 213.283153 
L 135.736165 217.637792 
L 136.229861 214.581672 
L 136.723557 209.421248 
L 137.217253 206.97031 
L 138.204645 203.827286 
L 138.698341 201.042019 
L 139.192037 201.691718 
L 139.685733 204.144417 
L 140.179429 203.326964 
L 140.673125 201.623042 
L 141.660518 194.596454 
L 142.154214 192.82605 
L 142.64791 193.769649 
L 143.141606 191.764156 
L 143.635302 191.03538 
L 144.128998 189.924925 
L 144.622694 190.919895 
L 145.11639 190.978493 
L 145.610086 197.383871 
L 146.103782 198.906031 
L 146.597478 198.453244 
L 147.091175 198.794859 
L 147.584871 201.695399 
L 148.078567 198.485617 
L 148.572263 191.459976 
L 149.065959 186.544746 
L 150.053351 183.057553 
L 151.040743 185.123951 
L 151.534439 183.497095 
L 152.028135 183.088033 
L 152.521831 191.725569 
L 153.015528 193.088987 
L 153.509224 191.532191 
L 154.00292 193.607934 
L 154.496616 194.6135 
L 154.990312 192.437397 
L 155.484008 191.072578 
L 155.977704 188.874467 
L 156.4714 188.502263 
L 156.965096 186.388118 
L 157.952488 187.309832 
L 158.939881 183.659959 
L 159.433577 184.295633 
L 159.927273 185.488261 
L 160.420969 185.238534 
L 161.408361 178.487934 
L 161.902057 173.200779 
L 162.395753 174.325586 
L 162.889449 172.254738 
L 163.383145 173.715355 
L 163.876841 171.064956 
L 164.370537 171.938462 
L 165.35793 171.295843 
L 165.851626 167.967465 
L 166.345322 167.444052 
L 166.839018 164.237463 
L 167.332714 162.437755 
L 167.82641 163.358309 
L 168.320106 161.433813 
L 168.813802 157.34979 
L 169.307498 156.547152 
L 169.801194 159.01648 
L 170.788587 156.516219 
L 171.282283 158.945993 
L 171.775979 157.348081 
L 172.269675 157.815226 
L 172.763371 157.704076 
L 173.257067 157.851201 
L 173.750763 152.084108 
L 174.244459 152.491431 
L 174.738155 154.537281 
L 175.231851 154.438589 
L 175.725547 152.664018 
L 177.206636 150.074099 
L 177.700332 150.884671 
L 178.194028 150.293464 
L 178.687724 148.806198 
L 179.18142 148.984304 
L 179.675116 149.338191 
L 180.168812 148.398392 
L 180.662508 147.030296 
L 181.156204 144.406481 
L 181.6499 142.509039 
L 182.143597 144.137368 
L 182.637293 144.386358 
L 183.130989 145.872804 
L 183.624685 143.088761 
L 184.118381 142.2926 
L 184.612077 141.914086 
L 185.599469 145.564562 
L 186.093165 144.039814 
L 186.586861 141.828092 
L 187.080557 140.770919 
L 187.574253 140.550536 
L 188.06795 141.910838 
L 188.561646 143.957934 
L 189.055342 141.751839 
L 189.549038 140.160939 
L 190.042734 140.931791 
L 190.53643 138.96865 
L 191.030126 138.387142 
L 191.523822 139.294585 
L 192.017518 140.603878 
L 192.511214 139.385054 
L 193.00491 137.516421 
L 193.498607 137.427581 
L 193.992303 137.76898 
L 194.485999 136.738798 
L 194.979695 136.143133 
L 195.473391 135.112816 
L 195.967087 134.844237 
L 196.460783 134.820234 
L 196.954479 136.51411 
L 197.448175 136.83106 
L 197.941871 134.425158 
L 198.435567 133.073527 
L 198.929263 132.721374 
L 199.42296 133.170203 
L 199.916656 134.520332 
L 200.904048 132.602816 
L 201.397744 134.341663 
L 201.89144 134.847689 
L 202.385136 133.69746 
L 203.372528 132.919349 
L 203.866224 132.873831 
L 204.35992 131.529026 
L 204.853616 132.934079 
L 205.347313 135.578129 
L 205.841009 133.866695 
L 206.334705 133.400841 
L 206.828401 134.733646 
L 207.322097 135.54605 
L 207.815793 134.296017 
L 208.309489 135.391059 
L 208.803185 135.330256 
L 209.296881 133.650664 
L 209.790577 133.598007 
L 210.284273 135.605879 
L 210.777969 133.628894 
L 212.259058 132.889196 
L 212.752754 134.119215 
L 213.24645 134.859637 
L 213.740146 135.374449 
L 214.233842 135.06438 
L 214.727538 136.469194 
L 215.221234 136.300421 
L 215.71493 133.74093 
L 216.208626 133.940362 
L 216.702322 132.786719 
L 217.196019 132.643234 
L 217.689715 133.375955 
L 218.183411 135.233914 
L 218.677107 134.434431 
L 219.170803 133.869332 
L 219.664499 135.576308 
L 220.158195 136.82111 
L 220.651891 134.772108 
L 221.145587 133.764178 
L 221.639283 134.021102 
L 222.132979 132.635164 
L 222.626676 132.299646 
L 223.120372 133.708887 
L 223.614068 133.98814 
L 224.107764 133.739719 
L 225.095156 135.311087 
L 226.576244 138.675452 
L 227.06994 139.155142 
L 227.563636 138.556769 
L 228.057332 138.916776 
L 229.044725 138.049942 
L 229.538421 137.242331 
L 230.525813 138.833068 
L 231.019509 138.919868 
L 231.513205 139.968987 
L 232.006901 139.796315 
L 232.500597 139.30008 
L 232.994293 140.269435 
L 233.487989 140.159555 
L 233.981685 139.759405 
L 234.475382 139.789719 
L 234.969078 140.004547 
L 235.462774 139.859731 
L 235.95647 141.470514 
L 236.943862 158.657668 
L 237.437558 160.994774 
L 237.931254 162.299987 
L 238.42495 160.225324 
L 239.412342 152.287998 
L 239.906038 150.840907 
L 240.399735 152.33454 
L 240.893431 153.324182 
L 241.387127 151.734018 
L 241.880823 151.993978 
L 242.374519 154.409273 
L 242.868215 155.006186 
L 243.855607 159.213576 
L 244.349303 156.801484 
L 244.842999 155.716589 
L 245.336695 158.976483 
L 245.830392 160.034305 
L 246.324088 157.349454 
L 246.817784 155.799423 
L 247.31148 153.379145 
L 247.805176 151.854095 
L 248.298872 152.929641 
L 249.286264 153.257483 
L 249.77996 153.283562 
L 250.273656 154.509576 
L 251.261048 151.428478 
L 251.754745 151.523391 
L 252.248441 150.578825 
L 252.742137 150.115029 
L 253.729529 152.607969 
L 254.223225 152.092814 
L 254.716921 155.449258 
L 255.210617 163.209013 
L 255.704313 163.013151 
L 256.198009 160.792795 
L 256.691705 161.363202 
L 257.185401 161.68071 
L 257.679098 160.416484 
L 258.66649 160.606751 
L 259.160186 160.645802 
L 260.147578 157.384161 
L 261.13497 160.677207 
L 261.628666 160.345585 
L 262.122362 167.537765 
L 262.616058 171.431811 
L 263.109754 172.160784 
L 263.603451 173.306041 
L 264.097147 171.575372 
L 264.590843 169.283775 
L 265.084539 168.434565 
L 265.578235 169.821399 
L 266.071931 169.512786 
L 267.553019 181.678273 
L 268.046715 183.399778 
L 268.540411 188.890189 
L 269.034107 189.992002 
L 269.527804 189.300832 
L 270.0215 189.391354 
L 270.515196 189.850468 
L 271.008892 189.809276 
L 271.502588 186.613016 
L 271.996284 187.022587 
L 272.48998 188.212526 
L 272.983676 187.627584 
L 273.477372 191.118804 
L 273.971068 196.307365 
L 274.464764 196.589831 
L 274.958461 196.672621 
L 275.452157 201.519629 
L 275.945853 200.181087 
L 276.439549 195.830217 
L 276.933245 195.491993 
L 277.426941 194.709414 
L 277.920637 195.705759 
L 278.414333 194.6059 
L 278.908029 196.510961 
L 279.401725 196.399364 
L 279.895421 196.500977 
L 280.389117 198.431353 
L 280.882814 202.359875 
L 281.37651 200.709124 
L 281.870206 200.491137 
L 282.363902 202.805542 
L 282.857598 201.161338 
L 283.351294 200.749552 
L 283.84499 202.623359 
L 284.338686 200.748101 
L 284.832382 199.963939 
L 285.326078 201.548779 
L 285.819774 201.074304 
L 286.31347 200.838446 
L 286.807167 201.774209 
L 287.300863 204.892535 
L 287.794559 206.919621 
L 288.288255 205.720828 
L 288.781951 207.472218 
L 289.275647 206.874139 
L 289.769343 202.489163 
L 290.263039 202.133522 
L 290.756735 205.336175 
L 291.250431 204.720336 
L 291.744127 204.599788 
L 292.237823 205.408443 
L 293.225216 212.187208 
L 293.718912 213.050626 
L 294.212608 213.340649 
L 294.706304 212.526893 
L 295.693696 208.178279 
L 296.187392 207.313691 
L 296.681088 207.327678 
L 297.174784 207.618945 
L 297.66848 206.412137 
L 298.162177 204.906179 
L 298.655873 204.453341 
L 299.149569 207.348025 
L 299.643265 209.038709 
L 300.136961 210.091976 
L 300.630657 213.868323 
L 301.124353 215.37755 
L 301.618049 215.343589 
L 302.111745 217.409975 
L 302.605441 217.40247 
L 303.099137 221.148317 
L 303.592833 219.490981 
L 304.08653 219.826001 
L 304.580226 218.897333 
L 305.073922 218.467226 
L 305.567618 215.663619 
L 306.061314 216.781594 
L 306.55501 217.196554 
L 307.048706 212.057735 
L 307.542402 213.448618 
L 308.036098 212.989848 
L 308.529794 210.559704 
L 309.02349 213.222595 
L 309.517186 212.502866 
L 310.010883 208.972104 
L 310.504579 207.484607 
L 310.998275 208.544725 
L 311.491971 209.027968 
L 311.985667 208.937895 
L 312.479363 207.595759 
L 312.973059 204.315806 
L 313.466755 208.772047 
L 313.960451 209.543517 
L 314.454147 212.071108 
L 314.947843 211.388967 
L 315.441539 207.758845 
L 315.935236 206.738251 
L 316.428932 205.286466 
L 316.922628 200.578205 
L 317.416324 205.882246 
L 318.403716 209.755417 
L 319.391108 214.442316 
L 319.884804 208.606443 
L 320.3785 204.36885 
L 320.872196 202.832421 
L 321.365893 200.838943 
L 321.859589 203.311402 
L 322.353285 200.387307 
L 322.846981 195.769024 
L 323.340677 194.10703 
L 323.834373 197.21523 
L 324.328069 192.941548 
L 324.821765 192.039511 
L 325.315461 189.731467 
L 325.809157 188.091441 
L 326.302853 190.53696 
L 327.290246 193.477672 
L 328.277638 185.764057 
L 328.771334 186.022741 
L 329.26503 183.796682 
L 329.758726 183.569277 
L 330.252422 180.734057 
L 330.746118 180.051479 
L 331.239814 176.285343 
L 331.73351 177.570801 
L 332.227206 179.698625 
L 332.720902 181.085265 
L 333.214599 181.995071 
L 333.708295 182.637266 
L 334.201991 182.140445 
L 334.695687 178.694881 
L 335.189383 176.217512 
L 335.683079 175.35563 
L 336.176775 178.569168 
L 336.670471 183.09973 
L 337.164167 179.084893 
L 337.657863 177.383842 
L 338.151559 177.354161 
L 338.645255 175.845116 
L 339.138952 176.953681 
L 339.632648 177.637126 
L 340.126344 179.588882 
L 340.62004 180.397098 
L 341.113736 179.78803 
L 341.607432 178.090012 
L 342.594824 173.187805 
L 343.08852 168.190708 
L 344.075912 173.080409 
L 345.063305 167.849208 
L 345.557001 172.166745 
L 346.050697 171.023942 
L 346.544393 168.529405 
L 347.038089 167.923305 
L 347.531785 163.610411 
L 348.025481 161.981955 
L 348.519177 161.167781 
L 349.012873 163.56485 
L 350.000265 158.923556 
L 350.493962 158.4017 
L 350.987658 157.629571 
L 351.481354 159.484422 
L 351.97505 156.965775 
L 352.468746 156.159593 
L 352.962442 155.037583 
L 353.456138 154.64656 
L 353.949834 153.510387 
L 354.44353 151.160864 
L 354.937226 151.442259 
L 355.430922 150.044286 
L 355.924618 147.264736 
L 356.418315 145.234769 
L 356.912011 145.961243 
L 357.405707 144.583595 
L 357.899403 143.678879 
L 358.393099 146.742596 
L 358.886795 146.513413 
L 359.874187 138.643917 
L 360.367883 137.5703 
L 360.861579 137.962602 
L 361.355275 138.092689 
L 361.848971 137.794546 
L 362.342668 138.102304 
L 362.836364 137.526819 
L 363.33006 139.117631 
L 363.823756 137.601696 
L 364.317452 136.953652 
L 364.811148 132.610586 
L 365.304844 131.566201 
L 365.79854 131.316703 
L 366.292236 132.423951 
L 366.785932 131.641463 
L 367.279628 132.367339 
L 367.773324 129.342622 
L 368.267021 129.695243 
L 368.760717 129.513332 
L 369.254413 129.798042 
L 369.748109 129.919339 
L 370.241805 128.737418 
L 370.735501 129.002387 
L 371.229197 130.16802 
L 371.722893 129.956208 
L 372.216589 130.559231 
L 372.710285 128.520443 
L 373.203981 135.849165 
L 373.697678 134.282013 
L 374.191374 136.239775 
L 374.68507 136.806244 
L 375.178766 135.509157 
L 376.166158 131.242503 
L 376.659854 131.383152 
L 377.15355 132.887238 
L 377.647246 132.547221 
L 378.140942 132.929567 
L 379.128334 135.007944 
L 379.622031 134.479721 
L 380.115727 137.106092 
L 380.609423 135.795287 
L 381.103119 133.691027 
L 381.596815 133.585937 
L 382.090511 134.674714 
L 382.584207 133.517861 
L 383.077903 135.000562 
L 383.571599 135.055881 
L 384.558991 136.308067 
L 385.052687 136.252261 
L 385.546384 136.999341 
L 386.04008 136.551737 
L 386.533776 141.821975 
L 387.027472 142.733102 
L 387.521168 140.814698 
L 388.014864 141.480642 
L 388.50856 140.995248 
L 389.002256 139.720798 
L 389.495952 137.200929 
L 389.989648 140.562735 
L 390.483344 141.15733 
L 390.97704 140.074467 
L 391.470737 142.411816 
L 391.964433 145.993781 
L 392.458129 143.617869 
L 392.951825 142.308068 
L 393.445521 144.63367 
L 393.939217 143.003035 
L 394.432913 140.26794 
L 395.420305 147.123794 
L 396.901393 158.929049 
L 397.39509 159.415165 
L 397.888786 158.160111 
L 398.382482 153.939376 
L 398.876178 152.389468 
L 399.369874 150.174297 
L 399.86357 153.072201 
L 400.357266 150.089781 
L 400.850962 149.859147 
L 401.344658 148.166453 
L 401.838354 149.870829 
L 402.33205 149.91048 
L 402.825747 149.822142 
L 403.319443 152.374197 
L 403.813139 151.125289 
L 404.306835 151.066491 
L 404.800531 154.752128 
L 405.294227 154.124231 
L 405.787923 150.627241 
L 406.281619 148.605698 
L 406.775315 149.012091 
L 407.269011 148.614912 
L 407.762707 149.924555 
L 408.256403 150.792201 
L 409.737492 149.953569 
L 410.231188 147.575069 
L 411.21858 145.05603 
L 411.712276 143.754763 
L 412.205972 146.855243 
L 412.699668 155.178728 
L 413.193364 157.902482 
L 413.68706 158.568975 
L 414.180756 164.955996 
L 414.674453 169.790969 
L 415.168149 166.581874 
L 416.155541 164.730217 
L 416.649237 169.84647 
L 417.142933 165.910401 
L 417.636629 166.762196 
L 418.130325 168.221963 
L 418.624021 167.145205 
L 419.117717 165.26766 
L 419.611413 164.989353 
L 420.105109 163.111188 
L 420.598806 162.670228 
L 421.092502 164.322276 
L 421.586198 168.355357 
L 423.067286 162.946663 
L 423.560982 164.167524 
L 424.054678 160.927422 
L 424.548374 158.941405 
L 425.04207 159.136371 
L 425.535766 160.910055 
L 426.029463 162.19838 
L 426.523159 160.412828 
L 427.016855 157.224922 
L 427.510551 157.216514 
L 428.004247 157.560718 
L 428.497943 153.283255 
L 428.991639 151.176037 
L 429.485335 152.557829 
L 429.979031 150.456601 
L 430.472727 149.277387 
L 430.966423 149.749839 
L 431.460119 152.71741 
L 431.953816 147.484515 
L 432.447512 147.276164 
L 432.941208 150.911693 
L 433.434904 151.324393 
L 433.9286 146.185631 
L 434.422296 146.728317 
L 434.915992 148.134071 
L 435.409688 148.092714 
L 435.903384 144.490455 
L 436.39708 144.746403 
L 436.890776 143.544236 
L 437.384472 144.132046 
L 437.878169 142.085908 
L 438.371865 143.964811 
L 438.865561 142.111981 
L 439.359257 142.974935 
L 439.852953 140.494895 
L 440.346649 143.774245 
L 440.840345 147.879065 
L 441.334041 148.757035 
L 442.321433 146.3333 
L 442.815129 144.019554 
L 443.308825 145.074078 
L 443.802522 142.115049 
L 444.296218 142.132386 
L 444.789914 141.04898 
L 445.28361 140.70385 
L 445.777306 141.386412 
L 446.271002 141.152347 
L 446.764698 140.735337 
L 447.258394 141.562201 
L 447.75209 142.633883 
L 448.245786 140.669671 
L 448.739482 141.301683 
L 449.233179 143.121523 
L 449.726875 143.774373 
L 450.220571 143.138137 
L 450.714267 143.68919 
L 451.207963 142.667575 
L 451.701659 143.032009 
L 452.195355 143.197162 
L 452.689051 142.52099 
L 453.182747 144.229735 
L 453.676443 144.839701 
L 454.170139 146.327908 
L 455.157532 150.170383 
L 455.651228 155.778813 
L 456.144924 156.550985 
L 456.63862 161.738222 
L 457.132316 162.229407 
L 458.613404 170.888527 
L 459.1071 172.750147 
L 459.600796 171.041646 
L 460.094492 168.679866 
L 460.588188 167.324305 
L 461.081885 168.544066 
L 461.575581 174.784458 
L 462.069277 175.700714 
L 462.562973 177.153979 
L 463.056669 177.591339 
L 463.550365 178.287778 
L 464.044061 176.361662 
L 464.537757 178.188662 
L 465.031453 179.22559 
L 465.525149 179.868568 
L 466.018845 179.519626 
L 467.006238 183.156234 
L 467.499934 181.359561 
L 467.99363 183.429813 
L 468.487326 184.618474 
L 468.981022 189.216291 
L 469.474718 190.424724 
L 470.46211 191.621632 
L 470.955806 188.469267 
L 471.449502 187.989275 
L 471.943198 183.311391 
L 472.436894 183.076781 
L 472.930591 186.05651 
L 473.424287 185.405835 
L 473.917983 183.63636 
L 474.411679 185.583991 
L 474.905375 188.089471 
L 475.399071 187.189565 
L 475.892767 191.160961 
L 476.386463 197.546817 
L 476.880159 201.712561 
L 477.373855 207.158869 
L 477.867551 211.011447 
L 478.361248 215.782291 
L 478.854944 214.536823 
L 479.34864 216.416433 
L 479.842336 217.769381 
L 480.336032 221.428041 
L 480.829728 217.632397 
L 481.323424 216.306779 
L 481.81712 215.501873 
L 482.310816 214.93777 
L 482.804512 213.832036 
L 483.298208 219.388344 
L 483.791904 216.764723 
L 484.779297 229.123821 
L 485.272993 231.324484 
L 485.766689 232.644648 
L 486.260385 233.420082 
L 486.754081 232.958117 
L 487.247777 235.678258 
L 488.235169 232.565245 
L 488.728865 230.43607 
L 489.222561 229.774002 
L 489.716257 227.647501 
L 490.209954 228.66835 
L 490.70365 231.554682 
L 491.197346 230.074608 
L 491.691042 232.813127 
L 492.184738 232.822035 
L 492.678434 232.17239 
L 493.17213 233.308202 
L 493.665826 231.628556 
L 494.159522 230.480889 
L 494.653218 230.026826 
L 494.653218 230.026826 
" clip-path="url(#p444cde1a48)" style="fill: none; stroke: #ff7f0e; stroke-width: 1.5; stroke-linecap: round"/>
   </g>
   <g id="patch_3">
    <path d="M 72 384.48 
L 72 51.84 
" style="fill: none; stroke: #ffffff; stroke-width: 0.8; stroke-linejoin: miter; stroke-linecap: square"/>
   </g>
   <g id="patch_4">
    <path d="M 518.4 384.48 
L 518.4 51.84 
" style="fill: none; stroke: #ffffff; stroke-width: 0.8; stroke-linejoin: miter; stroke-linecap: square"/>
   </g>
   <g id="patch_5">
    <path d="M 72 384.48 
L 518.4 384.48 
" style="fill: none; stroke: #ffffff; stroke-width: 0.8; stroke-linejoin: miter; stroke-linecap: square"/>
   </g>
   <g id="patch_6">
    <path d="M 72 51.84 
L 518.4 51.84 
" style="fill: none; stroke: #ffffff; stroke-width: 0.8; stroke-linejoin: miter; stroke-linecap: square"/>
   </g>
   <g id="text_15">
    <!-- Average Temperature Prediction 52 Days Ahead -->
    <g style="fill: #262626" transform="translate(167.011875 45.84) scale(0.12 -0.12)">
     <defs>
      <path id="ArialMT-41" d="M -9 0 
L 1750 4581 
L 2403 4581 
L 4278 0 
L 3588 0 
L 3053 1388 
L 1138 1388 
L 634 0 
L -9 0 
z
M 1313 1881 
L 2866 1881 
L 2388 3150 
Q 2169 3728 2063 4100 
Q 1975 3659 1816 3225 
L 1313 1881 
z
" transform="scale(0.015625)"/>
      <path id="ArialMT-76" d="M 1344 0 
L 81 3319 
L 675 3319 
L 1388 1331 
Q 1503 1009 1600 663 
Q 1675 925 1809 1294 
L 2547 3319 
L 3125 3319 
L 1869 0 
L 1344 0 
z
" transform="scale(0.015625)"/>
      <path id="ArialMT-65" d="M 2694 1069 
L 3275 997 
Q 3138 488 2766 206 
Q 2394 -75 1816 -75 
Q 1088 -75 661 373 
Q 234 822 234 1631 
Q 234 2469 665 2931 
Q 1097 3394 1784 3394 
Q 2450 3394 2872 2941 
Q 3294 2488 3294 1666 
Q 3294 1616 3291 1516 
L 816 1516 
Q 847 969 1125 678 
Q 1403 388 1819 388 
Q 2128 388 2347 550 
Q 2566 713 2694 1069 
z
M 847 1978 
L 2700 1978 
Q 2663 2397 2488 2606 
Q 2219 2931 1791 2931 
Q 1403 2931 1139 2672 
Q 875 2413 847 1978 
z
" transform="scale(0.015625)"/>
      <path id="ArialMT-72" d="M 416 0 
L 416 3319 
L 922 3319 
L 922 2816 
Q 1116 3169 1280 3281 
Q 1444 3394 1641 3394 
Q 1925 3394 2219 3213 
L 2025 2691 
Q 1819 2813 1613 2813 
Q 1428 2813 1281 2702 
Q 1134 2591 1072 2394 
Q 978 2094 978 1738 
L 978 0 
L 416 0 
z
" transform="scale(0.015625)"/>
      <path id="ArialMT-67" d="M 319 -275 
L 866 -356 
Q 900 -609 1056 -725 
Q 1266 -881 1628 -881 
Q 2019 -881 2231 -725 
Q 2444 -569 2519 -288 
Q 2563 -116 2559 434 
Q 2191 0 1641 0 
Q 956 0 581 494 
Q 206 988 206 1678 
Q 206 2153 378 2554 
Q 550 2956 876 3175 
Q 1203 3394 1644 3394 
Q 2231 3394 2613 2919 
L 2613 3319 
L 3131 3319 
L 3131 450 
Q 3131 -325 2973 -648 
Q 2816 -972 2473 -1159 
Q 2131 -1347 1631 -1347 
Q 1038 -1347 672 -1080 
Q 306 -813 319 -275 
z
M 784 1719 
Q 784 1066 1043 766 
Q 1303 466 1694 466 
Q 2081 466 2343 764 
Q 2606 1063 2606 1700 
Q 2606 2309 2336 2618 
Q 2066 2928 1684 2928 
Q 1309 2928 1046 2623 
Q 784 2319 784 1719 
z
" transform="scale(0.015625)"/>
      <path id="ArialMT-20" transform="scale(0.015625)"/>
      <path id="ArialMT-54" d="M 1659 0 
L 1659 4041 
L 150 4041 
L 150 4581 
L 3781 4581 
L 3781 4041 
L 2266 4041 
L 2266 0 
L 1659 0 
z
" transform="scale(0.015625)"/>
      <path id="ArialMT-6d" d="M 422 0 
L 422 3319 
L 925 3319 
L 925 2853 
Q 1081 3097 1340 3245 
Q 1600 3394 1931 3394 
Q 2300 3394 2536 3241 
Q 2772 3088 2869 2813 
Q 3263 3394 3894 3394 
Q 4388 3394 4653 3120 
Q 4919 2847 4919 2278 
L 4919 0 
L 4359 0 
L 4359 2091 
Q 4359 2428 4304 2576 
Q 4250 2725 4106 2815 
Q 3963 2906 3769 2906 
Q 3419 2906 3187 2673 
Q 2956 2441 2956 1928 
L 2956 0 
L 2394 0 
L 2394 2156 
Q 2394 2531 2256 2718 
Q 2119 2906 1806 2906 
Q 1569 2906 1367 2781 
Q 1166 2656 1075 2415 
Q 984 2175 984 1722 
L 984 0 
L 422 0 
z
" transform="scale(0.015625)"/>
      <path id="ArialMT-70" d="M 422 -1272 
L 422 3319 
L 934 3319 
L 934 2888 
Q 1116 3141 1344 3267 
Q 1572 3394 1897 3394 
Q 2322 3394 2647 3175 
Q 2972 2956 3137 2557 
Q 3303 2159 3303 1684 
Q 3303 1175 3120 767 
Q 2938 359 2589 142 
Q 2241 -75 1856 -75 
Q 1575 -75 1351 44 
Q 1128 163 984 344 
L 984 -1272 
L 422 -1272 
z
M 931 1641 
Q 931 1000 1190 694 
Q 1450 388 1819 388 
Q 2194 388 2461 705 
Q 2728 1022 2728 1688 
Q 2728 2322 2467 2637 
Q 2206 2953 1844 2953 
Q 1484 2953 1207 2617 
Q 931 2281 931 1641 
z
" transform="scale(0.015625)"/>
      <path id="ArialMT-74" d="M 1650 503 
L 1731 6 
Q 1494 -44 1306 -44 
Q 1000 -44 831 53 
Q 663 150 594 308 
Q 525 466 525 972 
L 525 2881 
L 113 2881 
L 113 3319 
L 525 3319 
L 525 4141 
L 1084 4478 
L 1084 3319 
L 1650 3319 
L 1650 2881 
L 1084 2881 
L 1084 941 
Q 1084 700 1114 631 
Q 1144 563 1211 522 
Q 1278 481 1403 481 
Q 1497 481 1650 503 
z
" transform="scale(0.015625)"/>
      <path id="ArialMT-75" d="M 2597 0 
L 2597 488 
Q 2209 -75 1544 -75 
Q 1250 -75 995 37 
Q 741 150 617 320 
Q 494 491 444 738 
Q 409 903 409 1263 
L 409 3319 
L 972 3319 
L 972 1478 
Q 972 1038 1006 884 
Q 1059 663 1231 536 
Q 1403 409 1656 409 
Q 1909 409 2131 539 
Q 2353 669 2445 892 
Q 2538 1116 2538 1541 
L 2538 3319 
L 3100 3319 
L 3100 0 
L 2597 0 
z
" transform="scale(0.015625)"/>
      <path id="ArialMT-50" d="M 494 0 
L 494 4581 
L 2222 4581 
Q 2678 4581 2919 4538 
Q 3256 4481 3484 4323 
Q 3713 4166 3852 3881 
Q 3991 3597 3991 3256 
Q 3991 2672 3619 2267 
Q 3247 1863 2275 1863 
L 1100 1863 
L 1100 0 
L 494 0 
z
M 1100 2403 
L 2284 2403 
Q 2872 2403 3119 2622 
Q 3366 2841 3366 3238 
Q 3366 3525 3220 3729 
Q 3075 3934 2838 4000 
Q 2684 4041 2272 4041 
L 1100 4041 
L 1100 2403 
z
" transform="scale(0.015625)"/>
      <path id="ArialMT-64" d="M 2575 0 
L 2575 419 
Q 2259 -75 1647 -75 
Q 1250 -75 917 144 
Q 584 363 401 755 
Q 219 1147 219 1656 
Q 219 2153 384 2558 
Q 550 2963 881 3178 
Q 1213 3394 1622 3394 
Q 1922 3394 2156 3267 
Q 2391 3141 2538 2938 
L 2538 4581 
L 3097 4581 
L 3097 0 
L 2575 0 
z
M 797 1656 
Q 797 1019 1065 703 
Q 1334 388 1700 388 
Q 2069 388 2326 689 
Q 2584 991 2584 1609 
Q 2584 2291 2321 2609 
Q 2059 2928 1675 2928 
Q 1300 2928 1048 2622 
Q 797 2316 797 1656 
z
" transform="scale(0.015625)"/>
      <path id="ArialMT-69" d="M 425 3934 
L 425 4581 
L 988 4581 
L 988 3934 
L 425 3934 
z
M 425 0 
L 425 3319 
L 988 3319 
L 988 0 
L 425 0 
z
" transform="scale(0.015625)"/>
      <path id="ArialMT-63" d="M 2588 1216 
L 3141 1144 
Q 3050 572 2676 248 
Q 2303 -75 1759 -75 
Q 1078 -75 664 370 
Q 250 816 250 1647 
Q 250 2184 428 2587 
Q 606 2991 970 3192 
Q 1334 3394 1763 3394 
Q 2303 3394 2647 3120 
Q 2991 2847 3088 2344 
L 2541 2259 
Q 2463 2594 2264 2762 
Q 2066 2931 1784 2931 
Q 1359 2931 1093 2626 
Q 828 2322 828 1663 
Q 828 994 1084 691 
Q 1341 388 1753 388 
Q 2084 388 2306 591 
Q 2528 794 2588 1216 
z
" transform="scale(0.015625)"/>
      <path id="ArialMT-6f" d="M 213 1659 
Q 213 2581 725 3025 
Q 1153 3394 1769 3394 
Q 2453 3394 2887 2945 
Q 3322 2497 3322 1706 
Q 3322 1066 3130 698 
Q 2938 331 2570 128 
Q 2203 -75 1769 -75 
Q 1072 -75 642 372 
Q 213 819 213 1659 
z
M 791 1659 
Q 791 1022 1069 705 
Q 1347 388 1769 388 
Q 2188 388 2466 706 
Q 2744 1025 2744 1678 
Q 2744 2294 2464 2611 
Q 2184 2928 1769 2928 
Q 1347 2928 1069 2612 
Q 791 2297 791 1659 
z
" transform="scale(0.015625)"/>
      <path id="ArialMT-6e" d="M 422 0 
L 422 3319 
L 928 3319 
L 928 2847 
Q 1294 3394 1984 3394 
Q 2284 3394 2536 3286 
Q 2788 3178 2913 3003 
Q 3038 2828 3088 2588 
Q 3119 2431 3119 2041 
L 3119 0 
L 2556 0 
L 2556 2019 
Q 2556 2363 2490 2533 
Q 2425 2703 2258 2804 
Q 2091 2906 1866 2906 
Q 1506 2906 1245 2678 
Q 984 2450 984 1813 
L 984 0 
L 422 0 
z
" transform="scale(0.015625)"/>
      <path id="ArialMT-68" d="M 422 0 
L 422 4581 
L 984 4581 
L 984 2938 
Q 1378 3394 1978 3394 
Q 2347 3394 2619 3248 
Q 2891 3103 3008 2847 
Q 3125 2591 3125 2103 
L 3125 0 
L 2563 0 
L 2563 2103 
Q 2563 2525 2380 2717 
Q 2197 2909 1863 2909 
Q 1613 2909 1392 2779 
Q 1172 2650 1078 2428 
Q 984 2206 984 1816 
L 984 0 
L 422 0 
z
" transform="scale(0.015625)"/>
     </defs>
     <use xlink:href="#ArialMT-41"/>
     <use xlink:href="#ArialMT-76" x="64.949219"/>
     <use xlink:href="#ArialMT-65" x="114.949219"/>
     <use xlink:href="#ArialMT-72" x="170.564453"/>
     <use xlink:href="#ArialMT-61" x="203.865234"/>
     <use xlink:href="#ArialMT-67" x="259.480469"/>
     <use xlink:href="#ArialMT-65" x="315.095703"/>
     <use xlink:href="#ArialMT-20" x="370.710938"/>
     <use xlink:href="#ArialMT-54" x="396.744141"/>
     <use xlink:href="#ArialMT-65" x="446.703125"/>
     <use xlink:href="#ArialMT-6d" x="502.318359"/>
     <use xlink:href="#ArialMT-70" x="585.619141"/>
     <use xlink:href="#ArialMT-65" x="641.234375"/>
     <use xlink:href="#ArialMT-72" x="696.849609"/>
     <use xlink:href="#ArialMT-61" x="730.150391"/>
     <use xlink:href="#ArialMT-74" x="785.765625"/>
     <use xlink:href="#ArialMT-75" x="813.548828"/>
     <use xlink:href="#ArialMT-72" x="869.164062"/>
     <use xlink:href="#ArialMT-65" x="902.464844"/>
     <use xlink:href="#ArialMT-20" x="958.080078"/>
     <use xlink:href="#ArialMT-50" x="985.863281"/>
     <use xlink:href="#ArialMT-72" x="1052.5625"/>
     <use xlink:href="#ArialMT-65" x="1085.863281"/>
     <use xlink:href="#ArialMT-64" x="1141.478516"/>
     <use xlink:href="#ArialMT-69" x="1197.09375"/>
     <use xlink:href="#ArialMT-63" x="1219.310547"/>
     <use xlink:href="#ArialMT-74" x="1269.310547"/>
     <use xlink:href="#ArialMT-69" x="1297.09375"/>
     <use xlink:href="#ArialMT-6f" x="1319.310547"/>
     <use xlink:href="#ArialMT-6e" x="1374.925781"/>
     <use xlink:href="#ArialMT-20" x="1430.541016"/>
     <use xlink:href="#ArialMT-35" x="1458.324219"/>
     <use xlink:href="#ArialMT-32" x="1513.939453"/>
     <use xlink:href="#ArialMT-20" x="1569.554688"/>
     <use xlink:href="#ArialMT-44" x="1597.337891"/>
     <use xlink:href="#ArialMT-61" x="1669.554688"/>
     <use xlink:href="#ArialMT-79" x="1725.169922"/>
     <use xlink:href="#ArialMT-73" x="1775.169922"/>
     <use xlink:href="#ArialMT-20" x="1825.169922"/>
     <use xlink:href="#ArialMT-41" x="1847.453125"/>
     <use xlink:href="#ArialMT-68" x="1914.152344"/>
     <use xlink:href="#ArialMT-65" x="1969.767578"/>
     <use xlink:href="#ArialMT-61" x="2025.382812"/>
     <use xlink:href="#ArialMT-64" x="2080.998047"/>
    </g>
   </g>
   <g id="legend_1">
    <g id="patch_7">
     <path d="M 437.15625 88.130625 
L 511.4 88.130625 
Q 513.4 88.130625 513.4 86.130625 
L 513.4 58.84 
Q 513.4 56.84 511.4 56.84 
L 437.15625 56.84 
Q 435.15625 56.84 435.15625 58.84 
L 435.15625 86.130625 
Q 435.15625 88.130625 437.15625 88.130625 
z
" style="fill: #eaeaf2; opacity: 0.8; stroke: #cccccc; stroke-linejoin: miter"/>
    </g>
    <g id="line2d_15">
     <path d="M 439.15625 64.497812 
L 449.15625 64.497812 
L 459.15625 64.497812 
" style="fill: none; stroke: #1f77b4; stroke-width: 1.5; stroke-linecap: round"/>
    </g>
    <g id="text_16">
     <!-- Real -->
     <g style="fill: #262626" transform="translate(467.15625 67.997812) scale(0.1 -0.1)">
      <defs>
       <path id="ArialMT-52" d="M 503 0 
L 503 4581 
L 2534 4581 
Q 3147 4581 3465 4457 
Q 3784 4334 3975 4021 
Q 4166 3709 4166 3331 
Q 4166 2844 3850 2509 
Q 3534 2175 2875 2084 
Q 3116 1969 3241 1856 
Q 3506 1613 3744 1247 
L 4541 0 
L 3778 0 
L 3172 953 
Q 2906 1366 2734 1584 
Q 2563 1803 2427 1890 
Q 2291 1978 2150 2013 
Q 2047 2034 1813 2034 
L 1109 2034 
L 1109 0 
L 503 0 
z
M 1109 2559 
L 2413 2559 
Q 2828 2559 3062 2645 
Q 3297 2731 3419 2920 
Q 3541 3109 3541 3331 
Q 3541 3656 3305 3865 
Q 3069 4075 2559 4075 
L 1109 4075 
L 1109 2559 
z
" transform="scale(0.015625)"/>
       <path id="ArialMT-6c" d="M 409 0 
L 409 4581 
L 972 4581 
L 972 0 
L 409 0 
z
" transform="scale(0.015625)"/>
      </defs>
      <use xlink:href="#ArialMT-52"/>
      <use xlink:href="#ArialMT-65" x="72.216797"/>
      <use xlink:href="#ArialMT-61" x="127.832031"/>
      <use xlink:href="#ArialMT-6c" x="183.447266"/>
     </g>
    </g>
    <g id="line2d_16">
     <path d="M 439.15625 78.643125 
L 449.15625 78.643125 
L 459.15625 78.643125 
" style="fill: none; stroke: #ff7f0e; stroke-width: 1.5; stroke-linecap: round"/>
    </g>
    <g id="text_17">
     <!-- Predicted -->
     <g style="fill: #262626" transform="translate(467.15625 82.143125) scale(0.1 -0.1)">
      <use xlink:href="#ArialMT-50"/>
      <use xlink:href="#ArialMT-72" x="66.699219"/>
      <use xlink:href="#ArialMT-65" x="100"/>
      <use xlink:href="#ArialMT-64" x="155.615234"/>
      <use xlink:href="#ArialMT-69" x="211.230469"/>
      <use xlink:href="#ArialMT-63" x="233.447266"/>
      <use xlink:href="#ArialMT-74" x="283.447266"/>
      <use xlink:href="#ArialMT-65" x="311.230469"/>
      <use xlink:href="#ArialMT-64" x="366.845703"/>
     </g>
    </g>
   </g>
  </g>
 </g>
 <defs>
  <clipPath id="p444cde1a48">
   <rect x="72" y="51.84" width="446.4" height="332.64"/>
  </clipPath>
 </defs>
</svg>
