<?xml version="1.0" encoding="utf-8" standalone="no"?>
<!DOCTYPE svg PUBLIC "-//W3C//DTD SVG 1.1//EN"
  "http://www.w3.org/Graphics/SVG/1.1/DTD/svg11.dtd">
<svg xmlns:xlink="http://www.w3.org/1999/xlink" width="576pt" height="432pt" viewBox="0 0 576 432" xmlns="http://www.w3.org/2000/svg" version="1.1">
 <metadata>
  <rdf:RDF xmlns:dc="http://purl.org/dc/elements/1.1/" xmlns:cc="http://creativecommons.org/ns#" xmlns:rdf="http://www.w3.org/1999/02/22-rdf-syntax-ns#">
   <cc:Work>
    <dc:type rdf:resource="http://purl.org/dc/dcmitype/StillImage"/>
    <dc:date>2023-11-17T05:10:39.201418</dc:date>
    <dc:format>image/svg+xml</dc:format>
    <dc:creator>
     <cc:Agent>
      <dc:title>Matplotlib v3.8.0, https://matplotlib.org/</dc:title>
     </cc:Agent>
    </dc:creator>
   </cc:Work>
  </rdf:RDF>
 </metadata>
 <defs>
  <style type="text/css">*{stroke-linejoin: round; stroke-linecap: butt}</style>
 </defs>
 <g id="figure_1">
  <g id="patch_1">
   <path d="M 0 432 
L 576 432 
L 576 0 
L 0 0 
z
" style="fill: #ffffff"/>
  </g>
  <g id="axes_1">
   <g id="patch_2">
    <path d="M 72 384.48 
L 518.4 384.48 
L 518.4 51.84 
L 72 51.84 
z
" style="fill: #eaeaf2"/>
   </g>
   <g id="matplotlib.axis_1">
    <g id="xtick_1">
     <g id="line2d_1">
      <path d="M 92.290909 384.48 
L 92.290909 51.84 
" clip-path="url(#p2f0fa3ecfa)" style="fill: none; stroke: #ffffff; stroke-width: 0.8; stroke-linecap: round"/>
     </g>
     <g id="text_1">
      <!-- 0 -->
      <g style="fill: #262626" transform="translate(89.51044 398.637812) scale(0.1 -0.1)">
       <defs>
        <path id="ArialMT-30" d="M 266 2259 
Q 266 3072 433 3567 
Q 600 4063 929 4331 
Q 1259 4600 1759 4600 
Q 2128 4600 2406 4451 
Q 2684 4303 2865 4023 
Q 3047 3744 3150 3342 
Q 3253 2941 3253 2259 
Q 3253 1453 3087 958 
Q 2922 463 2592 192 
Q 2263 -78 1759 -78 
Q 1097 -78 719 397 
Q 266 969 266 2259 
z
M 844 2259 
Q 844 1131 1108 757 
Q 1372 384 1759 384 
Q 2147 384 2411 759 
Q 2675 1134 2675 2259 
Q 2675 3391 2411 3762 
Q 2147 4134 1753 4134 
Q 1366 4134 1134 3806 
Q 844 3388 844 2259 
z
" transform="scale(0.015625)"/>
       </defs>
       <use xlink:href="#ArialMT-30"/>
      </g>
     </g>
    </g>
    <g id="xtick_2">
     <g id="line2d_2">
      <path d="M 191.030126 384.48 
L 191.030126 51.84 
" clip-path="url(#p2f0fa3ecfa)" style="fill: none; stroke: #ffffff; stroke-width: 0.8; stroke-linecap: round"/>
     </g>
     <g id="text_2">
      <!-- 200 -->
      <g style="fill: #262626" transform="translate(182.68872 398.637812) scale(0.1 -0.1)">
       <defs>
        <path id="ArialMT-32" d="M 3222 541 
L 3222 0 
L 194 0 
Q 188 203 259 391 
Q 375 700 629 1000 
Q 884 1300 1366 1694 
Q 2113 2306 2375 2664 
Q 2638 3022 2638 3341 
Q 2638 3675 2398 3904 
Q 2159 4134 1775 4134 
Q 1369 4134 1125 3890 
Q 881 3647 878 3216 
L 300 3275 
Q 359 3922 746 4261 
Q 1134 4600 1788 4600 
Q 2447 4600 2831 4234 
Q 3216 3869 3216 3328 
Q 3216 3053 3103 2787 
Q 2991 2522 2730 2228 
Q 2469 1934 1863 1422 
Q 1356 997 1212 845 
Q 1069 694 975 541 
L 3222 541 
z
" transform="scale(0.015625)"/>
       </defs>
       <use xlink:href="#ArialMT-32"/>
       <use xlink:href="#ArialMT-30" x="55.615234"/>
       <use xlink:href="#ArialMT-30" x="111.230469"/>
      </g>
     </g>
    </g>
    <g id="xtick_3">
     <g id="line2d_3">
      <path d="M 289.769343 384.48 
L 289.769343 51.84 
" clip-path="url(#p2f0fa3ecfa)" style="fill: none; stroke: #ffffff; stroke-width: 0.8; stroke-linecap: round"/>
     </g>
     <g id="text_3">
      <!-- 400 -->
      <g style="fill: #262626" transform="translate(281.427937 398.637812) scale(0.1 -0.1)">
       <defs>
        <path id="ArialMT-34" d="M 2069 0 
L 2069 1097 
L 81 1097 
L 81 1613 
L 2172 4581 
L 2631 4581 
L 2631 1613 
L 3250 1613 
L 3250 1097 
L 2631 1097 
L 2631 0 
L 2069 0 
z
M 2069 1613 
L 2069 3678 
L 634 1613 
L 2069 1613 
z
" transform="scale(0.015625)"/>
       </defs>
       <use xlink:href="#ArialMT-34"/>
       <use xlink:href="#ArialMT-30" x="55.615234"/>
       <use xlink:href="#ArialMT-30" x="111.230469"/>
      </g>
     </g>
    </g>
    <g id="xtick_4">
     <g id="line2d_4">
      <path d="M 388.50856 384.48 
L 388.50856 51.84 
" clip-path="url(#p2f0fa3ecfa)" style="fill: none; stroke: #ffffff; stroke-width: 0.8; stroke-linecap: round"/>
     </g>
     <g id="text_4">
      <!-- 600 -->
      <g style="fill: #262626" transform="translate(380.167154 398.637812) scale(0.1 -0.1)">
       <defs>
        <path id="ArialMT-36" d="M 3184 3459 
L 2625 3416 
Q 2550 3747 2413 3897 
Q 2184 4138 1850 4138 
Q 1581 4138 1378 3988 
Q 1113 3794 959 3422 
Q 806 3050 800 2363 
Q 1003 2672 1297 2822 
Q 1591 2972 1913 2972 
Q 2475 2972 2870 2558 
Q 3266 2144 3266 1488 
Q 3266 1056 3080 686 
Q 2894 316 2569 119 
Q 2244 -78 1831 -78 
Q 1128 -78 684 439 
Q 241 956 241 2144 
Q 241 3472 731 4075 
Q 1159 4600 1884 4600 
Q 2425 4600 2770 4297 
Q 3116 3994 3184 3459 
z
M 888 1484 
Q 888 1194 1011 928 
Q 1134 663 1356 523 
Q 1578 384 1822 384 
Q 2178 384 2434 671 
Q 2691 959 2691 1453 
Q 2691 1928 2437 2201 
Q 2184 2475 1800 2475 
Q 1419 2475 1153 2201 
Q 888 1928 888 1484 
z
" transform="scale(0.015625)"/>
       </defs>
       <use xlink:href="#ArialMT-36"/>
       <use xlink:href="#ArialMT-30" x="55.615234"/>
       <use xlink:href="#ArialMT-30" x="111.230469"/>
      </g>
     </g>
    </g>
    <g id="xtick_5">
     <g id="line2d_5">
      <path d="M 487.247777 384.48 
L 487.247777 51.84 
" clip-path="url(#p2f0fa3ecfa)" style="fill: none; stroke: #ffffff; stroke-width: 0.8; stroke-linecap: round"/>
     </g>
     <g id="text_5">
      <!-- 800 -->
      <g style="fill: #262626" transform="translate(478.906371 398.637812) scale(0.1 -0.1)">
       <defs>
        <path id="ArialMT-38" d="M 1131 2484 
Q 781 2613 612 2850 
Q 444 3088 444 3419 
Q 444 3919 803 4259 
Q 1163 4600 1759 4600 
Q 2359 4600 2725 4251 
Q 3091 3903 3091 3403 
Q 3091 3084 2923 2848 
Q 2756 2613 2416 2484 
Q 2838 2347 3058 2040 
Q 3278 1734 3278 1309 
Q 3278 722 2862 322 
Q 2447 -78 1769 -78 
Q 1091 -78 675 323 
Q 259 725 259 1325 
Q 259 1772 486 2073 
Q 713 2375 1131 2484 
z
M 1019 3438 
Q 1019 3113 1228 2906 
Q 1438 2700 1772 2700 
Q 2097 2700 2305 2904 
Q 2513 3109 2513 3406 
Q 2513 3716 2298 3927 
Q 2084 4138 1766 4138 
Q 1444 4138 1231 3931 
Q 1019 3725 1019 3438 
z
M 838 1322 
Q 838 1081 952 856 
Q 1066 631 1291 507 
Q 1516 384 1775 384 
Q 2178 384 2440 643 
Q 2703 903 2703 1303 
Q 2703 1709 2433 1975 
Q 2163 2241 1756 2241 
Q 1359 2241 1098 1978 
Q 838 1716 838 1322 
z
" transform="scale(0.015625)"/>
       </defs>
       <use xlink:href="#ArialMT-38"/>
       <use xlink:href="#ArialMT-30" x="55.615234"/>
       <use xlink:href="#ArialMT-30" x="111.230469"/>
      </g>
     </g>
    </g>
    <g id="text_6">
     <!-- Days -->
     <g style="fill: #262626" transform="translate(283.808594 411.783125) scale(0.1 -0.1)">
      <defs>
       <path id="ArialMT-44" d="M 494 0 
L 494 4581 
L 2072 4581 
Q 2606 4581 2888 4516 
Q 3281 4425 3559 4188 
Q 3922 3881 4101 3404 
Q 4281 2928 4281 2316 
Q 4281 1794 4159 1391 
Q 4038 988 3847 723 
Q 3656 459 3429 307 
Q 3203 156 2883 78 
Q 2563 0 2147 0 
L 494 0 
z
M 1100 541 
L 2078 541 
Q 2531 541 2789 625 
Q 3047 709 3200 863 
Q 3416 1078 3536 1442 
Q 3656 1806 3656 2325 
Q 3656 3044 3420 3430 
Q 3184 3816 2847 3947 
Q 2603 4041 2063 4041 
L 1100 4041 
L 1100 541 
z
" transform="scale(0.015625)"/>
       <path id="ArialMT-61" d="M 2588 409 
Q 2275 144 1986 34 
Q 1697 -75 1366 -75 
Q 819 -75 525 192 
Q 231 459 231 875 
Q 231 1119 342 1320 
Q 453 1522 633 1644 
Q 813 1766 1038 1828 
Q 1203 1872 1538 1913 
Q 2219 1994 2541 2106 
Q 2544 2222 2544 2253 
Q 2544 2597 2384 2738 
Q 2169 2928 1744 2928 
Q 1347 2928 1158 2789 
Q 969 2650 878 2297 
L 328 2372 
Q 403 2725 575 2942 
Q 747 3159 1072 3276 
Q 1397 3394 1825 3394 
Q 2250 3394 2515 3294 
Q 2781 3194 2906 3042 
Q 3031 2891 3081 2659 
Q 3109 2516 3109 2141 
L 3109 1391 
Q 3109 606 3145 398 
Q 3181 191 3288 0 
L 2700 0 
Q 2613 175 2588 409 
z
M 2541 1666 
Q 2234 1541 1622 1453 
Q 1275 1403 1131 1340 
Q 988 1278 909 1158 
Q 831 1038 831 891 
Q 831 666 1001 516 
Q 1172 366 1500 366 
Q 1825 366 2078 508 
Q 2331 650 2450 897 
Q 2541 1088 2541 1459 
L 2541 1666 
z
" transform="scale(0.015625)"/>
       <path id="ArialMT-79" d="M 397 -1278 
L 334 -750 
Q 519 -800 656 -800 
Q 844 -800 956 -737 
Q 1069 -675 1141 -563 
Q 1194 -478 1313 -144 
Q 1328 -97 1363 -6 
L 103 3319 
L 709 3319 
L 1400 1397 
Q 1534 1031 1641 628 
Q 1738 1016 1872 1384 
L 2581 3319 
L 3144 3319 
L 1881 -56 
Q 1678 -603 1566 -809 
Q 1416 -1088 1222 -1217 
Q 1028 -1347 759 -1347 
Q 597 -1347 397 -1278 
z
" transform="scale(0.015625)"/>
       <path id="ArialMT-73" d="M 197 991 
L 753 1078 
Q 800 744 1014 566 
Q 1228 388 1613 388 
Q 2000 388 2187 545 
Q 2375 703 2375 916 
Q 2375 1106 2209 1216 
Q 2094 1291 1634 1406 
Q 1016 1563 777 1677 
Q 538 1791 414 1992 
Q 291 2194 291 2438 
Q 291 2659 392 2848 
Q 494 3038 669 3163 
Q 800 3259 1026 3326 
Q 1253 3394 1513 3394 
Q 1903 3394 2198 3281 
Q 2494 3169 2634 2976 
Q 2775 2784 2828 2463 
L 2278 2388 
Q 2241 2644 2061 2787 
Q 1881 2931 1553 2931 
Q 1166 2931 1000 2803 
Q 834 2675 834 2503 
Q 834 2394 903 2306 
Q 972 2216 1119 2156 
Q 1203 2125 1616 2013 
Q 2213 1853 2448 1751 
Q 2684 1650 2818 1456 
Q 2953 1263 2953 975 
Q 2953 694 2789 445 
Q 2625 197 2315 61 
Q 2006 -75 1616 -75 
Q 969 -75 630 194 
Q 291 463 197 991 
z
" transform="scale(0.015625)"/>
      </defs>
      <use xlink:href="#ArialMT-44"/>
      <use xlink:href="#ArialMT-61" x="72.216797"/>
      <use xlink:href="#ArialMT-79" x="127.832031"/>
      <use xlink:href="#ArialMT-73" x="177.832031"/>
     </g>
    </g>
   </g>
   <g id="matplotlib.axis_2">
    <g id="ytick_1">
     <g id="line2d_6">
      <path d="M 72 353.878044 
L 518.4 353.878044 
" clip-path="url(#p2f0fa3ecfa)" style="fill: none; stroke: #ffffff; stroke-width: 0.8; stroke-linecap: round"/>
     </g>
     <g id="text_7">
      <!-- 1000 -->
      <g style="fill: #262626" transform="translate(42.75625 357.45695) scale(0.1 -0.1)">
       <defs>
        <path id="ArialMT-31" d="M 2384 0 
L 1822 0 
L 1822 3584 
Q 1619 3391 1289 3197 
Q 959 3003 697 2906 
L 697 3450 
Q 1169 3672 1522 3987 
Q 1875 4303 2022 4600 
L 2384 4600 
L 2384 0 
z
" transform="scale(0.015625)"/>
       </defs>
       <use xlink:href="#ArialMT-31"/>
       <use xlink:href="#ArialMT-30" x="55.615234"/>
       <use xlink:href="#ArialMT-30" x="111.230469"/>
       <use xlink:href="#ArialMT-30" x="166.845703"/>
      </g>
     </g>
    </g>
    <g id="ytick_2">
     <g id="line2d_7">
      <path d="M 72 313.504961 
L 518.4 313.504961 
" clip-path="url(#p2f0fa3ecfa)" style="fill: none; stroke: #ffffff; stroke-width: 0.8; stroke-linecap: round"/>
     </g>
     <g id="text_8">
      <!-- 1005 -->
      <g style="fill: #262626" transform="translate(42.75625 317.083867) scale(0.1 -0.1)">
       <defs>
        <path id="ArialMT-35" d="M 266 1200 
L 856 1250 
Q 922 819 1161 601 
Q 1400 384 1738 384 
Q 2144 384 2425 690 
Q 2706 997 2706 1503 
Q 2706 1984 2436 2262 
Q 2166 2541 1728 2541 
Q 1456 2541 1237 2417 
Q 1019 2294 894 2097 
L 366 2166 
L 809 4519 
L 3088 4519 
L 3088 3981 
L 1259 3981 
L 1013 2750 
Q 1425 3038 1878 3038 
Q 2478 3038 2890 2622 
Q 3303 2206 3303 1553 
Q 3303 931 2941 478 
Q 2500 -78 1738 -78 
Q 1113 -78 717 272 
Q 322 622 266 1200 
z
" transform="scale(0.015625)"/>
       </defs>
       <use xlink:href="#ArialMT-31"/>
       <use xlink:href="#ArialMT-30" x="55.615234"/>
       <use xlink:href="#ArialMT-30" x="111.230469"/>
       <use xlink:href="#ArialMT-35" x="166.845703"/>
      </g>
     </g>
    </g>
    <g id="ytick_3">
     <g id="line2d_8">
      <path d="M 72 273.131878 
L 518.4 273.131878 
" clip-path="url(#p2f0fa3ecfa)" style="fill: none; stroke: #ffffff; stroke-width: 0.8; stroke-linecap: round"/>
     </g>
     <g id="text_9">
      <!-- 1010 -->
      <g style="fill: #262626" transform="translate(42.75625 276.710784) scale(0.1 -0.1)">
       <use xlink:href="#ArialMT-31"/>
       <use xlink:href="#ArialMT-30" x="55.615234"/>
       <use xlink:href="#ArialMT-31" x="111.230469"/>
       <use xlink:href="#ArialMT-30" x="166.845703"/>
      </g>
     </g>
    </g>
    <g id="ytick_4">
     <g id="line2d_9">
      <path d="M 72 232.758795 
L 518.4 232.758795 
" clip-path="url(#p2f0fa3ecfa)" style="fill: none; stroke: #ffffff; stroke-width: 0.8; stroke-linecap: round"/>
     </g>
     <g id="text_10">
      <!-- 1015 -->
      <g style="fill: #262626" transform="translate(42.75625 236.337701) scale(0.1 -0.1)">
       <use xlink:href="#ArialMT-31"/>
       <use xlink:href="#ArialMT-30" x="55.615234"/>
       <use xlink:href="#ArialMT-31" x="111.230469"/>
       <use xlink:href="#ArialMT-35" x="166.845703"/>
      </g>
     </g>
    </g>
    <g id="ytick_5">
     <g id="line2d_10">
      <path d="M 72 192.385712 
L 518.4 192.385712 
" clip-path="url(#p2f0fa3ecfa)" style="fill: none; stroke: #ffffff; stroke-width: 0.8; stroke-linecap: round"/>
     </g>
     <g id="text_11">
      <!-- 1020 -->
      <g style="fill: #262626" transform="translate(42.75625 195.964618) scale(0.1 -0.1)">
       <use xlink:href="#ArialMT-31"/>
       <use xlink:href="#ArialMT-30" x="55.615234"/>
       <use xlink:href="#ArialMT-32" x="111.230469"/>
       <use xlink:href="#ArialMT-30" x="166.845703"/>
      </g>
     </g>
    </g>
    <g id="ytick_6">
     <g id="line2d_11">
      <path d="M 72 152.012628 
L 518.4 152.012628 
" clip-path="url(#p2f0fa3ecfa)" style="fill: none; stroke: #ffffff; stroke-width: 0.8; stroke-linecap: round"/>
     </g>
     <g id="text_12">
      <!-- 1025 -->
      <g style="fill: #262626" transform="translate(42.75625 155.591535) scale(0.1 -0.1)">
       <use xlink:href="#ArialMT-31"/>
       <use xlink:href="#ArialMT-30" x="55.615234"/>
       <use xlink:href="#ArialMT-32" x="111.230469"/>
       <use xlink:href="#ArialMT-35" x="166.845703"/>
      </g>
     </g>
    </g>
    <g id="ytick_7">
     <g id="line2d_12">
      <path d="M 72 111.639545 
L 518.4 111.639545 
" clip-path="url(#p2f0fa3ecfa)" style="fill: none; stroke: #ffffff; stroke-width: 0.8; stroke-linecap: round"/>
     </g>
     <g id="text_13">
      <!-- 1030 -->
      <g style="fill: #262626" transform="translate(42.75625 115.218452) scale(0.1 -0.1)">
       <defs>
        <path id="ArialMT-33" d="M 269 1209 
L 831 1284 
Q 928 806 1161 595 
Q 1394 384 1728 384 
Q 2125 384 2398 659 
Q 2672 934 2672 1341 
Q 2672 1728 2419 1979 
Q 2166 2231 1775 2231 
Q 1616 2231 1378 2169 
L 1441 2663 
Q 1497 2656 1531 2656 
Q 1891 2656 2178 2843 
Q 2466 3031 2466 3422 
Q 2466 3731 2256 3934 
Q 2047 4138 1716 4138 
Q 1388 4138 1169 3931 
Q 950 3725 888 3313 
L 325 3413 
Q 428 3978 793 4289 
Q 1159 4600 1703 4600 
Q 2078 4600 2393 4439 
Q 2709 4278 2876 4000 
Q 3044 3722 3044 3409 
Q 3044 3113 2884 2869 
Q 2725 2625 2413 2481 
Q 2819 2388 3044 2092 
Q 3269 1797 3269 1353 
Q 3269 753 2831 336 
Q 2394 -81 1725 -81 
Q 1122 -81 723 278 
Q 325 638 269 1209 
z
" transform="scale(0.015625)"/>
       </defs>
       <use xlink:href="#ArialMT-31"/>
       <use xlink:href="#ArialMT-30" x="55.615234"/>
       <use xlink:href="#ArialMT-33" x="111.230469"/>
       <use xlink:href="#ArialMT-30" x="166.845703"/>
      </g>
     </g>
    </g>
    <g id="ytick_8">
     <g id="line2d_13">
      <path d="M 72 71.266462 
L 518.4 71.266462 
" clip-path="url(#p2f0fa3ecfa)" style="fill: none; stroke: #ffffff; stroke-width: 0.8; stroke-linecap: round"/>
     </g>
     <g id="text_14">
      <!-- 1035 -->
      <g style="fill: #262626" transform="translate(42.75625 74.845368) scale(0.1 -0.1)">
       <use xlink:href="#ArialMT-31"/>
       <use xlink:href="#ArialMT-30" x="55.615234"/>
       <use xlink:href="#ArialMT-33" x="111.230469"/>
       <use xlink:href="#ArialMT-35" x="166.845703"/>
      </g>
     </g>
    </g>
    <g id="text_15">
     <!-- (hPa) -->
     <g style="fill: #262626" transform="translate(36.651562 230.385781) rotate(-90) scale(0.1 -0.1)">
      <defs>
       <path id="ArialMT-28" d="M 1497 -1347 
Q 1031 -759 709 28 
Q 388 816 388 1659 
Q 388 2403 628 3084 
Q 909 3875 1497 4659 
L 1900 4659 
Q 1522 4009 1400 3731 
Q 1209 3300 1100 2831 
Q 966 2247 966 1656 
Q 966 153 1900 -1347 
L 1497 -1347 
z
" transform="scale(0.015625)"/>
       <path id="ArialMT-68" d="M 422 0 
L 422 4581 
L 984 4581 
L 984 2938 
Q 1378 3394 1978 3394 
Q 2347 3394 2619 3248 
Q 2891 3103 3008 2847 
Q 3125 2591 3125 2103 
L 3125 0 
L 2563 0 
L 2563 2103 
Q 2563 2525 2380 2717 
Q 2197 2909 1863 2909 
Q 1613 2909 1392 2779 
Q 1172 2650 1078 2428 
Q 984 2206 984 1816 
L 984 0 
L 422 0 
z
" transform="scale(0.015625)"/>
       <path id="ArialMT-50" d="M 494 0 
L 494 4581 
L 2222 4581 
Q 2678 4581 2919 4538 
Q 3256 4481 3484 4323 
Q 3713 4166 3852 3881 
Q 3991 3597 3991 3256 
Q 3991 2672 3619 2267 
Q 3247 1863 2275 1863 
L 1100 1863 
L 1100 0 
L 494 0 
z
M 1100 2403 
L 2284 2403 
Q 2872 2403 3119 2622 
Q 3366 2841 3366 3238 
Q 3366 3525 3220 3729 
Q 3075 3934 2838 4000 
Q 2684 4041 2272 4041 
L 1100 4041 
L 1100 2403 
z
" transform="scale(0.015625)"/>
       <path id="ArialMT-29" d="M 791 -1347 
L 388 -1347 
Q 1322 153 1322 1656 
Q 1322 2244 1188 2822 
Q 1081 3291 891 3722 
Q 769 4003 388 4659 
L 791 4659 
Q 1378 3875 1659 3084 
Q 1900 2403 1900 1659 
Q 1900 816 1576 28 
Q 1253 -759 791 -1347 
z
" transform="scale(0.015625)"/>
      </defs>
      <use xlink:href="#ArialMT-28"/>
      <use xlink:href="#ArialMT-68" x="33.300781"/>
      <use xlink:href="#ArialMT-50" x="88.916016"/>
      <use xlink:href="#ArialMT-61" x="155.615234"/>
      <use xlink:href="#ArialMT-29" x="211.230469"/>
     </g>
    </g>
   </g>
   <g id="line2d_14">
    <path d="M 92.290909 281.240139 
L 92.784605 274.02345 
L 93.278301 264.541383 
L 93.771997 191.522176 
L 94.265693 140.982926 
L 94.75939 221.162748 
L 95.253086 200.275285 
L 95.746782 82.374667 
L 96.240478 94.71673 
L 96.734174 147.005245 
L 97.22787 168.230098 
L 97.721566 163.905213 
L 98.215262 172.587655 
L 98.708958 246.347866 
L 99.202654 277.908799 
L 99.69635 260.802948 
L 100.190046 157.289727 
L 100.683743 175.518735 
L 101.177439 234.638386 
L 101.671135 269.844275 
L 102.164831 314.931925 
L 102.658527 310.59866 
L 103.152223 300.645013 
L 104.139615 172.554117 
L 104.633311 152.061413 
L 105.127007 193.301023 
L 105.620703 201.761239 
L 106.114399 182.376551 
L 106.608096 136.586746 
L 107.101792 121.57581 
L 107.595488 150.773399 
L 108.089184 234.437618 
L 108.58288 261.720874 
L 109.076576 174.066864 
L 109.570272 149.466881 
L 110.063968 148.367836 
L 110.557664 174.29072 
L 111.545056 270.782389 
L 112.038752 220.565383 
L 112.532449 201.150035 
L 113.026145 235.349401 
L 113.519841 188.948392 
L 114.013537 192.9857 
L 114.507233 241.366112 
L 115.000929 300.675292 
L 115.494625 289.583909 
L 115.988321 247.971597 
L 116.482017 190.804432 
L 117.469409 231.155086 
L 117.963106 207.93076 
L 118.950498 206.981703 
L 119.444194 198.40803 
L 119.93789 196.972542 
L 120.431586 218.527283 
L 120.925282 220.495471 
L 121.418978 189.178294 
L 121.912674 130.177519 
L 122.40637 155.842464 
L 122.900066 221.773952 
L 123.393762 204.778005 
L 123.887459 145.866948 
L 124.381155 124.334637 
L 125.368547 169.412306 
L 125.862243 182.264404 
L 126.355939 242.784777 
L 127.343331 142.205334 
L 128.330723 287.716654 
L 128.824419 186.475541 
L 129.318115 200.135101 
L 129.811812 172.485146 
L 130.305508 193.43429 
L 130.799204 186.884879 
L 131.2929 256.354619 
L 131.786596 165.79555 
L 132.280292 186.223209 
L 132.773988 216.744138 
L 133.267684 214.002133 
L 133.76138 223.007574 
L 134.255076 258.709715 
L 134.748772 265.780612 
L 135.242468 268.092401 
L 135.736165 285.211504 
L 136.229861 246.009016 
L 136.723557 115.631995 
L 137.217253 116.344131 
L 138.204645 257.745247 
L 138.698341 170.919741 
L 139.192037 180.35229 
L 139.685733 258.990084 
L 140.673125 335.474647 
L 141.166821 302.839738 
L 141.660518 219.934733 
L 142.154214 260.823695 
L 142.64791 239.319421 
L 143.141606 272.352453 
L 143.635302 269.571196 
L 144.128998 252.109838 
L 144.622694 170.040332 
L 145.11639 190.395094 
L 145.610086 221.061815 
L 146.103782 240.446503 
L 146.597478 253.528503 
L 147.091175 247.382823 
L 147.584871 262.489085 
L 148.078567 261.345181 
L 148.572263 160.121125 
L 149.065959 101.85966 
L 149.559655 121.059931 
L 150.053351 205.949946 
L 150.547047 268.135709 
L 151.040743 300.619219 
L 152.028135 240.160527 
L 152.521831 275.413098 
L 153.015528 332.110223 
L 153.509224 264.928292 
L 154.00292 152.331064 
L 154.496616 137.640932 
L 154.990312 151.328529 
L 155.484008 156.526563 
L 155.977704 170.87583 
L 156.4714 181.698059 
L 156.965096 177.430849 
L 157.458792 217.058151 
L 157.952488 235.007351 
L 158.446184 237.59235 
L 158.939881 222.63188 
L 159.433577 184.944728 
L 159.927273 195.615558 
L 160.420969 221.622553 
L 160.914665 257.206939 
L 161.408361 264.732034 
L 161.902057 161.395632 
L 162.395753 169.143152 
L 162.889449 183.027289 
L 163.383145 224.280447 
L 163.876841 251.279594 
L 164.370537 269.509515 
L 164.864234 299.525781 
L 165.35793 276.956106 
L 165.851626 242.167966 
L 166.345322 261.143315 
L 166.839018 331.667241 
L 167.332714 346.599674 
L 167.82641 321.287994 
L 168.320106 339.685784 
L 168.813802 219.183346 
L 169.801194 265.948833 
L 170.294891 314.037661 
L 170.788587 298.731075 
L 171.282283 220.070918 
L 171.775979 235.226039 
L 172.269675 270.574916 
L 172.763371 263.814119 
L 173.257067 266.408638 
L 173.750763 301.953773 
L 174.738155 229.999967 
L 175.231851 265.539495 
L 175.725547 286.819474 
L 176.219244 284.221452 
L 177.206636 305.346234 
L 177.700332 291.552097 
L 178.194028 289.53905 
L 179.18142 282.249466 
L 179.675116 274.068309 
L 180.168812 282.104301 
L 180.662508 337.201718 
L 181.156204 323.379544 
L 181.6499 268.617943 
L 182.143597 266.010515 
L 182.637293 271.875826 
L 183.130989 269.845957 
L 183.624685 252.883655 
L 184.118381 243.54738 
L 184.612077 255.849955 
L 185.105773 304.544379 
L 185.599469 336.069029 
L 186.093165 307.101341 
L 187.080557 348.287494 
L 187.574253 334.061589 
L 188.06795 296.376466 
L 188.561646 282.17657 
L 189.549038 263.313368 
L 190.042734 285.126048 
L 190.53643 326.746203 
L 191.030126 336.4279 
L 191.523822 293.127769 
L 192.017518 271.561813 
L 192.511214 268.847845 
L 193.00491 279.058871 
L 193.498607 271.651531 
L 193.992303 279.283166 
L 194.485999 295.348288 
L 194.979695 304.101397 
L 195.473391 309.977924 
L 195.967087 309.338683 
L 196.460783 289.763345 
L 196.954479 210.579009 
L 197.448175 218.017012 
L 197.941871 242.739918 
L 198.435567 230.639208 
L 199.916656 297.165077 
L 200.410352 288.42879 
L 200.904048 275.503796 
L 201.89144 303.686451 
L 202.385136 299.755683 
L 202.878832 291.165188 
L 203.372528 298.914577 
L 203.866224 295.746412 
L 204.35992 253.192061 
L 204.853616 243.104397 
L 205.347313 226.383212 
L 205.841009 225.699113 
L 206.334705 235.618555 
L 206.828401 248.81831 
L 207.322097 255.558372 
L 208.309489 281.111169 
L 208.803185 275.397256 
L 209.296881 254.128492 
L 209.790577 241.38113 
L 210.284273 250.152865 
L 210.777969 270.64738 
L 211.271666 272.016011 
L 211.765362 263.840461 
L 212.259058 258.894759 
L 212.752754 270.005742 
L 213.24645 289.07007 
L 213.740146 276.894425 
L 214.233842 275.130769 
L 214.727538 266.621718 
L 215.221234 261.664801 
L 215.71493 265.707716 
L 216.208626 271.578636 
L 216.702322 273.59729 
L 217.196019 279.389706 
L 217.689715 261.23864 
L 218.183411 232.921409 
L 218.677107 218.970265 
L 219.170803 228.732701 
L 219.664499 224.863614 
L 220.158195 227.089741 
L 220.651891 247.360393 
L 221.145587 261.479757 
L 221.639283 256.39387 
L 222.132979 252.754686 
L 222.626676 251.227974 
L 223.120372 257.476093 
L 223.614068 266.840406 
L 224.107764 270.406695 
L 224.60146 270.569309 
L 225.095156 278.183358 
L 225.588852 277.914967 
L 226.082548 284.783998 
L 226.576244 285.440061 
L 227.06994 280.174738 
L 227.563636 268.94317 
L 228.057332 278.503741 
L 228.551029 285.473705 
L 229.044725 268.444114 
L 229.538421 262.024923 
L 230.525813 292.63432 
L 231.019509 292.196945 
L 231.513205 273.546823 
L 232.006901 259.74863 
L 232.500597 259.605463 
L 232.994293 279.221485 
L 233.487989 281.991527 
L 233.981685 270.193615 
L 234.475382 283.034498 
L 234.969078 305.413522 
L 235.462774 290.67174 
L 235.95647 249.894926 
L 236.450166 247.422074 
L 236.943862 255.687342 
L 237.437558 251.975261 
L 237.931254 242.257684 
L 238.42495 244.472596 
L 238.918646 254.582689 
L 239.412342 243.882003 
L 239.906038 245.355197 
L 240.399735 253.052998 
L 240.893431 237.345626 
L 241.387127 235.663414 
L 241.880823 221.145926 
L 242.374519 220.416967 
L 242.868215 236.179292 
L 243.361911 246.345459 
L 243.855607 263.363835 
L 244.349303 268.259581 
L 244.842999 285.838184 
L 245.336695 274.483255 
L 245.830392 254.442505 
L 246.324088 249.816422 
L 246.817784 248.655696 
L 247.31148 270.249688 
L 247.805176 278.22898 
L 248.298872 277.466377 
L 248.792568 293.122161 
L 249.286264 291.260514 
L 249.77996 268.662802 
L 250.273656 267.574972 
L 250.767352 268.550654 
L 251.261048 263.111503 
L 252.248441 234.037276 
L 252.742137 249.289329 
L 253.235833 255.513513 
L 253.729529 229.999967 
L 254.223225 233.482146 
L 254.716921 272.049655 
L 255.210617 292.090405 
L 256.198009 180.789665 
L 256.691705 236.728815 
L 257.185401 251.795825 
L 257.679098 271.69639 
L 258.172794 232.170021 
L 258.66649 240.766123 
L 259.160186 288.641871 
L 259.653882 309.89942 
L 260.147578 303.832243 
L 260.641274 290.211935 
L 261.13497 214.288109 
L 261.628666 236.285832 
L 262.122362 268.903919 
L 262.616058 201.357508 
L 263.109754 224.82997 
L 263.603451 262.253575 
L 264.097147 269.980534 
L 264.590843 282.333576 
L 265.084539 250.820142 
L 265.578235 113.175965 
L 266.071931 153.818202 
L 266.565627 151.451891 
L 267.059323 190.305376 
L 267.553019 240.911915 
L 268.046715 223.272532 
L 268.540411 214.433901 
L 269.034107 223.265513 
L 269.527804 145.491254 
L 270.0215 157.2387 
L 270.515196 204.581747 
L 271.008892 231.940118 
L 271.502588 92.159533 
L 271.996284 153.767736 
L 272.48998 175.232759 
L 272.983676 131.741976 
L 273.971068 227.11217 
L 274.464764 236.779281 
L 275.452157 267.120774 
L 275.945853 267.19367 
L 276.439549 250.455663 
L 276.933245 206.701334 
L 277.426941 220.557152 
L 277.920637 291.462379 
L 278.414333 316.813311 
L 278.908029 227.953276 
L 279.401725 196.394983 
L 279.895421 235.007351 
L 280.389117 286.073694 
L 280.882814 205.630326 
L 281.37651 164.309597 
L 281.870206 221.465546 
L 282.363902 224.757074 
L 282.857598 231.648535 
L 283.351294 195.542662 
L 283.84499 172.720656 
L 284.832382 290.699776 
L 285.819774 119.046885 
L 286.31347 171.173021 
L 286.807167 237.368055 
L 287.300863 274.954274 
L 287.794559 303.725703 
L 288.288255 274.802875 
L 288.781951 131.091521 
L 289.275647 101.013574 
L 289.769343 146.321145 
L 290.263039 169.159974 
L 290.756735 140.573588 
L 291.250431 156.907865 
L 292.73152 265.758183 
L 293.225216 242.818421 
L 293.718912 249.306151 
L 294.212608 306.764899 
L 294.706304 263.902142 
L 295.2 195.380049 
L 295.693696 177.57664 
L 296.187392 229.433623 
L 296.681088 309.826525 
L 297.174784 247.924581 
L 297.66848 122.085728 
L 298.162177 144.117448 
L 298.655873 197.875329 
L 299.149569 131.046662 
L 299.643265 179.511184 
L 300.630657 291.838073 
L 301.124353 202.635989 
L 301.618049 199.254743 
L 302.111745 203.168689 
L 302.605441 218.162804 
L 303.099137 227.790663 
L 303.592833 203.404199 
L 304.08653 202.097681 
L 304.580226 191.028727 
L 305.073922 121.783282 
L 305.567618 98.148207 
L 306.061314 138.449531 
L 306.55501 230.824251 
L 307.048706 234.917633 
L 307.542402 200.892096 
L 308.529794 236.487698 
L 309.02349 253.965878 
L 309.517186 260.70594 
L 310.010883 215.858174 
L 310.504579 231.026117 
L 311.491971 138.941843 
L 311.985667 191.802545 
L 312.479363 273.014123 
L 312.973059 304.364944 
L 313.466755 296.138928 
L 313.960451 257.156473 
L 314.454147 251.179014 
L 314.947843 231.345737 
L 315.441539 262.881601 
L 315.935236 281.139206 
L 316.428932 253.741583 
L 316.922628 246.109949 
L 317.416324 185.634435 
L 317.91002 143.147372 
L 319.391108 283.645702 
L 319.884804 270.064645 
L 320.3785 189.346516 
L 320.872196 140.478263 
L 321.365893 66.96 
L 322.353285 235.84285 
L 322.846981 278.756073 
L 323.340677 268.012347 
L 323.834373 118.676798 
L 324.328069 124.457999 
L 324.821765 136.783004 
L 325.315461 188.639987 
L 325.809157 265.668465 
L 326.302853 306.361168 
L 326.796549 314.721761 
L 327.290246 286.370885 
L 327.783942 159.453612 
L 328.277638 130.26163 
L 328.771334 156.150869 
L 329.26503 189.290442 
L 329.758726 193.204388 
L 330.252422 184.182125 
L 330.746118 225.36267 
L 331.239814 277.449555 
L 331.73351 281.784054 
L 332.720902 214.422686 
L 333.214599 215.179681 
L 333.708295 246.429569 
L 334.201991 258.249911 
L 334.695687 278.555914 
L 335.189383 209.970432 
L 335.683079 179.808375 
L 337.164167 274.999133 
L 337.657863 285.958319 
L 338.645255 333.214876 
L 339.138952 296.060425 
L 339.632648 223.170187 
L 340.126344 254.392038 
L 340.62004 248.106174 
L 341.113736 262.999355 
L 341.607432 294.647367 
L 342.101128 291.109115 
L 343.08852 233.437287 
L 343.582216 244.338019 
L 344.075912 244.95483 
L 345.063305 288.137207 
L 345.557001 259.70222 
L 346.544393 353.005113 
L 347.038089 256.507223 
L 348.025481 190.316591 
L 348.519177 210.777894 
L 349.012873 249.003353 
L 349.506569 266.750688 
L 350.000265 312.910579 
L 350.493962 295.617442 
L 350.987658 286.752186 
L 351.481354 320.80576 
L 351.97505 307.841515 
L 352.468746 302.789272 
L 352.962442 270.193615 
L 353.456138 199.148203 
L 354.44353 272.066477 
L 354.937226 261.36761 
L 355.430922 214.966601 
L 355.924618 247.640762 
L 356.912011 267.070308 
L 357.405707 290.475481 
L 357.899403 280.836408 
L 358.393099 222.912248 
L 358.886795 239.711937 
L 359.380491 268.713268 
L 359.874187 209.005964 
L 360.367883 200.028561 
L 360.861579 224.471098 
L 361.355275 263.896535 
L 361.848971 280.741083 
L 362.342668 281.913023 
L 362.836364 314.166631 
L 363.33006 312.041437 
L 363.823756 267.776837 
L 364.317452 268.780557 
L 364.811148 298.768786 
L 365.304844 317.660024 
L 365.79854 303.153751 
L 366.292236 299.262234 
L 366.785932 300.983698 
L 367.773324 317.783386 
L 368.267021 262.298434 
L 368.760717 269.139429 
L 369.254413 271.477703 
L 369.748109 215.401232 
L 370.241805 218.454387 
L 370.735501 226.6019 
L 371.229197 225.965953 
L 371.722893 234.076527 
L 372.710285 276.165466 
L 373.203981 269.682354 
L 373.697678 278.167298 
L 374.68507 332.233586 
L 375.178766 312.613389 
L 375.672462 237.267122 
L 376.166158 190.922187 
L 376.659854 188.286722 
L 377.15355 218.241307 
L 377.647246 231.149479 
L 378.140942 224.263625 
L 378.634638 233.084022 
L 379.622031 267.00302 
L 380.115727 264.395591 
L 380.609423 257.73964 
L 381.103119 271.29266 
L 381.596815 280.2981 
L 382.090511 282.120496 
L 382.584207 274.012235 
L 383.571599 247.298712 
L 384.065295 258.558316 
L 385.052687 294.395035 
L 385.546384 287.520396 
L 386.04008 282.84427 
L 387.027472 262.541153 
L 387.521168 269.75624 
L 388.014864 286.365277 
L 388.50856 287.133487 
L 389.002256 278.043936 
L 389.495952 279.251075 
L 389.989648 289.64559 
L 390.483344 265.264734 
L 390.97704 254.296713 
L 391.470737 266.34135 
L 391.964433 281.212102 
L 392.458129 280.006517 
L 393.939217 252.973373 
L 394.432913 250.573418 
L 394.926609 251.638818 
L 395.420305 266.644148 
L 395.914001 275.038385 
L 396.407697 269.576804 
L 396.901393 269.374938 
L 397.39509 277.337407 
L 397.888786 290.643703 
L 398.382482 307.187761 
L 398.876178 254.829413 
L 399.369874 246.584114 
L 399.86357 247.468149 
L 400.357266 250.607062 
L 400.850962 254.54024 
L 401.344658 241.141817 
L 401.838354 242.476372 
L 402.33205 238.214768 
L 402.825747 241.4334 
L 403.319443 252.491139 
L 403.813139 256.02984 
L 404.800531 235.954997 
L 405.294227 234.951277 
L 405.787923 243.99597 
L 406.281619 259.236808 
L 406.775315 262.803097 
L 407.269011 260.268565 
L 407.762707 262.147035 
L 408.256403 262.579402 
L 408.7501 228.118733 
L 409.243796 238.113836 
L 410.231188 283.572806 
L 410.724884 293.177114 
L 411.21858 255.762063 
L 411.712276 261.003131 
L 412.205972 288.955883 
L 412.699668 300.193058 
L 413.193364 292.746467 
L 413.68706 290.335297 
L 414.180756 308.46954 
L 414.674453 314.676902 
L 415.661845 284.705495 
L 416.155541 271.22554 
L 416.649237 243.053931 
L 417.142933 205.961834 
L 417.636629 218.655131 
L 418.624021 302.748849 
L 419.117717 286.051264 
L 419.611413 288.39795 
L 420.105109 287.509181 
L 420.598806 285.305484 
L 421.092502 267.474039 
L 421.586198 263.380657 
L 422.079894 262.528336 
L 422.57359 258.642427 
L 423.067286 261.692838 
L 423.560982 262.988141 
L 424.054678 263.515234 
L 424.548374 259.80876 
L 425.04207 238.769898 
L 425.535766 232.125162 
L 426.029463 241.231535 
L 426.523159 259.819975 
L 427.016855 288.249355 
L 427.510551 285.255018 
L 428.004247 269.705773 
L 428.497943 259.242416 
L 428.991639 245.240806 
L 429.485335 244.97726 
L 429.979031 249.003353 
L 430.472727 243.300655 
L 430.966423 252.216378 
L 431.460119 248.358505 
L 431.953816 249.810815 
L 432.941208 282.142926 
L 433.434904 278.268231 
L 433.9286 261.519009 
L 434.915992 279.137374 
L 435.409688 267.148811 
L 435.903384 264.44045 
L 436.39708 279.541105 
L 436.890776 283.079357 
L 437.384472 273.586075 
L 437.878169 252.653753 
L 438.371865 248.083744 
L 438.865561 277.494414 
L 439.359257 296.940782 
L 439.852953 288.316643 
L 440.840345 243.76046 
L 441.334041 253.629436 
L 441.827737 258.423739 
L 442.321433 237.278337 
L 442.815129 240.014735 
L 443.308825 235.915746 
L 443.802522 220.147814 
L 444.296218 228.160749 
L 444.789914 272.543104 
L 445.28361 306.310702 
L 445.777306 269.537552 
L 446.271002 224.280447 
L 446.764698 234.928848 
L 447.258394 259.870442 
L 447.75209 255.160248 
L 448.245786 239.02223 
L 448.739482 243.575417 
L 449.233179 256.051821 
L 449.726875 257.117222 
L 450.220571 252.513569 
L 450.714267 242.616556 
L 451.207963 243.749245 
L 451.701659 242.353009 
L 452.195355 242.43712 
L 452.689051 246.737975 
L 453.182747 255.664912 
L 453.676443 228.306541 
L 454.170139 211.265735 
L 454.663835 186.374608 
L 455.157532 188.415692 
L 455.651228 235.876494 
L 456.144924 246.743582 
L 456.63862 216.12172 
L 457.132316 207.783557 
L 457.626012 219.766512 
L 458.119708 221.588908 
L 459.1071 178.799048 
L 459.600796 167.466547 
L 460.588188 200.981814 
L 461.575581 247.960382 
L 462.069277 256.405085 
L 462.562973 257.07797 
L 463.056669 252.137875 
L 463.550365 267.064701 
L 464.044061 252.603287 
L 464.537757 160.575087 
L 465.031453 145.289389 
L 465.525149 197.073475 
L 466.512541 264.188118 
L 467.499934 299.800542 
L 467.99363 228.715879 
L 468.487326 237.603565 
L 468.981022 265.376881 
L 469.474718 240.979203 
L 469.968414 198.329527 
L 470.46211 231.727038 
L 470.955806 242.644593 
L 471.449502 211.119944 
L 471.943198 193.697837 
L 472.930591 289.3484 
L 473.424287 254.100455 
L 473.917983 261.967599 
L 474.411679 224.235588 
L 474.905375 207.469544 
L 475.399071 222.744027 
L 475.892767 274.601009 
L 476.386463 291.372661 
L 476.880159 174.918746 
L 477.373855 188.03439 
L 477.867551 251.487419 
L 478.361248 165.829195 
L 478.854944 125.366394 
L 479.34864 110.809654 
L 479.842336 159.206888 
L 480.336032 141.409087 
L 480.829728 112.878775 
L 481.323424 127.867282 
L 481.81712 153.156532 
L 482.804512 264.720819 
L 483.298208 216.037609 
L 483.791904 224.201944 
L 484.285601 250.511737 
L 484.779297 252.216378 
L 485.272993 284.312979 
L 485.766689 189.571647 
L 486.260385 157.087301 
L 486.754081 194.561372 
L 487.247777 162.212144 
L 487.741473 240.571532 
L 488.235169 205.02473 
L 488.728865 202.321976 
L 489.716257 236.762459 
L 490.209954 226.467323 
L 490.70365 267.389928 
L 491.197346 317.559209 
L 491.691042 268.595513 
L 492.184738 233.639152 
L 492.678434 236.958717 
L 493.17213 182.071964 
L 493.665826 175.40098 
L 494.159522 203.471487 
L 494.653218 158.108964 
L 495.146914 177.223376 
L 496.134307 288.10917 
L 496.628003 301.073416 
L 497.121699 324.98886 
L 497.615395 369.36 
L 498.109091 299.656559 
L 498.109091 299.656559 
" clip-path="url(#p2f0fa3ecfa)" style="fill: none; stroke: #1f77b4; stroke-width: 1.5; stroke-linecap: round"/>
   </g>
   <g id="line2d_15">
    <path d="M 92.290909 239.393115 
L 92.784605 227.622375 
L 93.278301 202.434344 
L 93.771997 189.936476 
L 94.265693 219.323733 
L 94.75939 203.393594 
L 95.253086 170.558501 
L 95.746782 171.228535 
L 96.240478 184.763527 
L 96.734174 217.955658 
L 97.22787 221.258876 
L 97.721566 215.035721 
L 98.215262 219.335452 
L 98.708958 220.922889 
L 99.202654 194.588641 
L 99.69635 175.277386 
L 100.190046 212.869123 
L 100.683743 228.265557 
L 101.177439 217.421929 
L 101.671135 213.967538 
L 102.164831 221.445645 
L 102.658527 219.096753 
L 103.152223 190.233133 
L 103.645919 194.692036 
L 104.139615 201.650713 
L 104.633311 201.165045 
L 105.127007 199.676719 
L 105.620703 203.177048 
L 106.114399 173.420835 
L 106.608096 174.544129 
L 107.101792 183.385934 
L 107.595488 215.687951 
L 108.089184 218.942881 
L 108.58288 184.626876 
L 109.076576 184.762574 
L 109.570272 185.619611 
L 110.063968 222.298144 
L 110.557664 221.104304 
L 111.05136 225.352205 
L 111.545056 198.867264 
L 112.532449 221.076516 
L 113.519841 209.778955 
L 114.013537 223.679943 
L 114.507233 224.86851 
L 115.000929 220.775541 
L 115.988321 197.310673 
L 116.482017 217.270392 
L 116.975713 230.529805 
L 117.469409 195.475396 
L 117.963106 200.579147 
L 118.456802 202.246708 
L 118.950498 210.308623 
L 119.444194 214.394394 
L 119.93789 220.864376 
L 120.925282 210.46058 
L 121.418978 169.961851 
L 121.912674 179.57926 
L 122.40637 230.418879 
L 122.900066 216.974176 
L 123.393762 197.04317 
L 123.887459 190.602459 
L 124.381155 204.697861 
L 124.874851 208.514815 
L 125.368547 209.240791 
L 125.862243 222.411374 
L 126.355939 204.256788 
L 126.849635 195.104107 
L 127.343331 222.146175 
L 127.837027 224.092633 
L 128.330723 206.262015 
L 128.824419 208.41984 
L 129.318115 189.254645 
L 129.811812 225.427971 
L 130.305508 210.065 
L 130.799204 230.826376 
L 131.2929 186.694332 
L 131.786596 217.982292 
L 132.280292 233.254496 
L 132.773988 208.687788 
L 133.267684 223.597049 
L 133.76138 218.54808 
L 134.255076 232.581578 
L 134.748772 228.23234 
L 135.242468 228.683837 
L 135.736165 223.563076 
L 136.229861 190.503331 
L 136.723557 185.839655 
L 137.217253 239.906565 
L 137.710949 221.760794 
L 138.204645 190.365063 
L 138.698341 225.876726 
L 139.192037 220.08915 
L 139.685733 224.103977 
L 140.179429 253.293784 
L 141.166821 197.816787 
L 141.660518 249.547373 
L 143.141606 211.490897 
L 143.635302 219.921794 
L 144.128998 217.512711 
L 144.622694 233.285632 
L 145.11639 231.339449 
L 145.610086 250.154952 
L 146.103782 243.445362 
L 146.597478 238.507396 
L 147.091175 246.71123 
L 147.584871 237.996338 
L 148.078567 197.242684 
L 148.572263 193.533748 
L 149.065959 182.09191 
L 149.559655 231.043485 
L 150.053351 226.998488 
L 150.547047 234.604245 
L 151.040743 238.327165 
L 151.534439 238.835335 
L 152.028135 233.679624 
L 152.521831 275.065626 
L 153.015528 244.499116 
L 153.509224 196.002399 
L 154.00292 187.268189 
L 154.496616 205.385667 
L 154.990312 201.731361 
L 155.977704 229.477181 
L 156.4714 195.973663 
L 156.965096 228.067349 
L 157.458792 251.946987 
L 157.952488 241.511951 
L 158.446184 226.087254 
L 158.939881 219.651538 
L 159.433577 223.84872 
L 159.927273 249.02138 
L 160.420969 241.741822 
L 160.914665 244.387956 
L 161.408361 184.657435 
L 161.902057 213.85062 
L 162.395753 233.987941 
L 162.889449 242.356058 
L 163.383145 235.076636 
L 163.876841 236.740792 
L 164.370537 252.319543 
L 164.864234 230.544277 
L 165.35793 231.885709 
L 165.851626 242.667061 
L 166.345322 267.792804 
L 166.839018 276.624501 
L 167.332714 273.655909 
L 167.82641 272.606862 
L 168.320106 207.337418 
L 168.813802 261.971983 
L 169.307498 264.068538 
L 169.801194 264.635234 
L 170.294891 257.023087 
L 170.788587 234.679399 
L 171.282283 256.404195 
L 171.775979 261.201474 
L 172.269675 259.758837 
L 172.763371 251.29249 
L 173.257067 272.937651 
L 173.750763 254.969832 
L 174.244459 224.355181 
L 174.738155 256.934739 
L 175.231851 250.917479 
L 175.725547 250.775196 
L 176.219244 249.191619 
L 176.71294 274.281652 
L 177.206636 256.808107 
L 177.700332 275.754972 
L 178.194028 260.104539 
L 178.687724 266.967242 
L 179.18142 268.798334 
L 180.168812 288.815395 
L 180.662508 282.184427 
L 181.156204 262.27853 
L 181.6499 261.942978 
L 182.143597 262.667075 
L 182.637293 266.511196 
L 183.130989 268.693625 
L 183.624685 260.699906 
L 184.118381 268.441559 
L 185.105773 299.308042 
L 185.599469 278.075754 
L 186.093165 286.010281 
L 186.586861 283.532841 
L 187.080557 285.022478 
L 187.574253 278.988571 
L 188.06795 277.457288 
L 188.561646 271.365987 
L 189.055342 268.81824 
L 189.549038 287.459389 
L 190.042734 300.836697 
L 190.53643 290.183765 
L 191.030126 283.75259 
L 191.523822 272.785977 
L 192.017518 271.618155 
L 192.511214 282.7721 
L 193.00491 275.413047 
L 193.498607 280.5029 
L 193.992303 281.516834 
L 194.485999 283.665246 
L 195.473391 276.741886 
L 195.967087 269.211835 
L 196.460783 231.197774 
L 197.448175 273.659956 
L 197.941871 241.009754 
L 198.435567 264.559119 
L 198.929263 274.276181 
L 199.42296 272.186929 
L 199.916656 271.505047 
L 200.410352 268.969337 
L 200.904048 275.404538 
L 201.397744 276.733096 
L 201.89144 276.147506 
L 202.385136 275.857749 
L 202.878832 277.759275 
L 203.372528 274.171999 
L 203.866224 255.527384 
L 204.35992 250.842275 
L 204.853616 234.053451 
L 205.347313 229.28472 
L 205.841009 253.254721 
L 206.334705 262.143142 
L 206.828401 263.791811 
L 207.322097 264.354096 
L 207.815793 269.189577 
L 208.309489 260.924913 
L 208.803185 258.835993 
L 209.296881 253.942393 
L 209.790577 261.167072 
L 210.284273 262.628805 
L 210.777969 266.031379 
L 211.271666 257.779486 
L 211.765362 255.077773 
L 212.259058 266.876491 
L 212.752754 264.187723 
L 213.24645 264.036265 
L 213.740146 260.643738 
L 214.727538 249.361624 
L 215.221234 265.557576 
L 215.71493 265.828934 
L 216.208626 263.625489 
L 216.702322 264.915776 
L 217.196019 255.469259 
L 217.689715 242.198586 
L 218.183411 233.674945 
L 218.677107 246.554701 
L 219.170803 232.181614 
L 219.664499 236.153524 
L 220.158195 256.793055 
L 220.651891 263.400073 
L 221.145587 252.326029 
L 221.639283 251.452182 
L 222.132979 253.161966 
L 222.626676 261.086773 
L 223.120372 262.992067 
L 223.614068 262.032458 
L 224.107764 255.957388 
L 224.60146 258.524422 
L 225.095156 255.691238 
L 225.588852 258.835085 
L 226.082548 264.394355 
L 226.576244 260.487968 
L 227.06994 254.198597 
L 227.563636 261.676642 
L 228.057332 263.917731 
L 228.551029 255.103369 
L 229.044725 253.564146 
L 229.538421 263.52205 
L 230.032117 263.397243 
L 230.525813 262.387699 
L 231.019509 254.020754 
L 231.513205 251.711138 
L 232.006901 267.10737 
L 232.500597 269.192672 
L 232.994293 268.12126 
L 233.487989 264.859768 
L 233.981685 271.630356 
L 234.475382 273.053584 
L 234.969078 267.326999 
L 235.462774 247.21143 
L 235.95647 252.484974 
L 236.450166 256.528739 
L 236.943862 251.563032 
L 237.437558 240.811149 
L 237.931254 245.28458 
L 238.42495 251.237031 
L 238.918646 247.373982 
L 239.412342 247.292344 
L 239.906038 252.395833 
L 240.399735 238.098549 
L 240.893431 245.808384 
L 241.387127 231.814547 
L 241.880823 234.246193 
L 242.374519 249.514806 
L 242.868215 249.546055 
L 243.361911 250.125827 
L 243.855607 250.242644 
L 244.349303 260.251479 
L 244.842999 251.510819 
L 245.336695 246.640148 
L 245.830392 254.445035 
L 246.324088 251.547382 
L 246.817784 262.386266 
L 247.31148 260.432418 
L 247.805176 251.75463 
L 248.298872 254.529523 
L 248.792568 268.077264 
L 249.286264 250.70007 
L 249.77996 255.620119 
L 250.273656 253.363726 
L 251.261048 244.501184 
L 251.754745 246.354212 
L 252.248441 256.868383 
L 252.742137 249.33514 
L 253.235833 230.491158 
L 253.729529 247.978509 
L 254.223225 257.27194 
L 254.716921 273.122986 
L 255.210617 227.534596 
L 255.704313 220.589185 
L 256.198009 241.814356 
L 256.691705 241.581969 
L 257.185401 257.539888 
L 257.679098 220.6422 
L 258.172794 246.313591 
L 258.66649 262.659006 
L 259.160186 269.097963 
L 259.653882 263.808784 
L 260.147578 255.940146 
L 260.641274 209.961131 
L 261.13497 241.080911 
L 261.628666 247.556341 
L 262.122362 216.72081 
L 262.616058 242.020795 
L 263.109754 254.900945 
L 263.603451 250.783978 
L 264.097147 255.175388 
L 264.590843 232.308609 
L 265.084539 192.294329 
L 265.578235 219.524038 
L 266.071931 215.394421 
L 266.565627 224.140025 
L 267.059323 236.424155 
L 267.553019 217.180015 
L 268.046715 224.426227 
L 268.540411 226.324976 
L 269.034107 212.256025 
L 270.0215 229.749361 
L 270.515196 222.91334 
L 271.008892 163.110563 
L 271.996284 204.646444 
L 272.48998 181.948521 
L 272.983676 210.388008 
L 273.477372 201.495562 
L 273.971068 214.413729 
L 274.464764 233.640402 
L 274.958461 227.820535 
L 275.452157 234.358447 
L 275.945853 227.091682 
L 276.439549 195.090701 
L 277.426941 261.41507 
L 277.920637 259.248184 
L 278.414333 192.582608 
L 278.908029 191.64331 
L 279.895421 252.105219 
L 280.389117 203.171015 
L 280.882814 213.805048 
L 281.37651 233.293275 
L 281.870206 232.596892 
L 282.363902 217.669687 
L 282.857598 221.391471 
L 283.351294 216.236137 
L 283.84499 233.63386 
L 284.832382 213.791188 
L 285.326078 175.200123 
L 285.819774 225.295236 
L 286.31347 222.750153 
L 286.807167 218.562507 
L 287.300863 241.125532 
L 287.794559 225.388565 
L 288.288255 192.474942 
L 288.781951 192.32502 
L 289.275647 213.505529 
L 289.769343 216.556394 
L 290.263039 184.13374 
L 290.756735 216.718423 
L 291.250431 217.622106 
L 291.744127 215.673506 
L 292.237823 227.392014 
L 292.73152 209.087435 
L 293.225216 220.465568 
L 293.718912 250.946739 
L 294.212608 199.004684 
L 294.706304 210.068056 
L 295.2 194.530573 
L 295.693696 234.329497 
L 297.174784 177.647536 
L 298.162177 223.68574 
L 298.655873 185.15037 
L 299.149569 216.390624 
L 299.643265 228.27265 
L 300.136961 233.168105 
L 300.630657 210.998463 
L 301.124353 221.403499 
L 301.618049 211.612441 
L 302.111745 222.519829 
L 302.605441 212.296392 
L 303.099137 211.679551 
L 303.592833 214.280508 
L 304.08653 206.780921 
L 304.580226 188.041669 
L 305.073922 187.177216 
L 305.567618 199.56942 
L 306.061314 218.223851 
L 306.55501 208.977539 
L 307.048706 207.937674 
L 307.542402 215.720678 
L 308.036098 216.377768 
L 308.529794 232.4143 
L 309.02349 229.444804 
L 309.517186 217.10089 
L 310.010883 229.563451 
L 310.504579 219.862194 
L 310.998275 182.763586 
L 311.491971 232.118625 
L 312.479363 220.547222 
L 312.973059 229.416157 
L 313.466755 211.061037 
L 313.960451 228.601874 
L 314.454147 226.067852 
L 314.947843 218.936266 
L 315.441539 238.102638 
L 315.935236 214.069811 
L 316.428932 227.614827 
L 316.922628 212.75062 
L 317.416324 209.709665 
L 317.91002 227.654564 
L 318.403716 230.932011 
L 318.897412 227.085152 
L 319.884804 222.439726 
L 320.3785 193.525557 
L 320.872196 174.056366 
L 321.365893 207.148888 
L 321.859589 219.203561 
L 322.353285 226.952116 
L 322.846981 228.92746 
L 323.340677 189.837064 
L 323.834373 186.799339 
L 324.328069 201.797128 
L 324.821765 231.594645 
L 325.315461 230.565989 
L 325.809157 252.143195 
L 326.302853 248.122504 
L 326.796549 238.247171 
L 327.290246 203.826362 
L 327.783942 196.101117 
L 328.277638 214.594622 
L 328.771334 208.007835 
L 329.26503 203.296377 
L 330.252422 233.175893 
L 330.746118 250.322934 
L 331.239814 237.721645 
L 331.73351 230.365618 
L 332.227206 229.686256 
L 332.720902 238.559223 
L 333.214599 255.158133 
L 333.708295 236.732865 
L 334.201991 255.399565 
L 334.695687 226.489943 
L 335.189383 221.209422 
L 335.683079 247.047604 
L 336.176775 248.824777 
L 336.670471 257.634957 
L 337.164167 243.959112 
L 337.657863 255.874053 
L 338.151559 276.648559 
L 338.645255 259.785288 
L 339.138952 225.790239 
L 339.632648 236.226413 
L 340.126344 241.472868 
L 340.62004 252.428175 
L 341.113736 258.612155 
L 341.607432 266.674425 
L 342.101128 243.164596 
L 342.594824 232.796087 
L 343.08852 242.839594 
L 343.582216 250.057246 
L 344.075912 260.110883 
L 344.569608 272.78789 
L 345.063305 246.832403 
L 345.557001 257.955854 
L 346.050697 282.97903 
L 346.544393 228.64691 
L 347.038089 230.982 
L 347.531785 226.898781 
L 348.025481 238.356392 
L 348.519177 270.31573 
L 349.012873 263.713973 
L 349.506569 279.915581 
L 350.000265 272.333737 
L 350.493962 254.243202 
L 350.987658 288.149677 
L 351.481354 273.78329 
L 351.97505 264.248434 
L 352.468746 261.119712 
L 352.962442 223.322765 
L 353.456138 259.665078 
L 353.949834 275.681543 
L 354.44353 270.389268 
L 354.937226 236.170204 
L 355.430922 269.639474 
L 355.924618 270.143048 
L 356.418315 263.677861 
L 356.912011 276.33131 
L 357.405707 264.8842 
L 357.899403 234.563947 
L 358.886795 270.605795 
L 359.380491 227.404281 
L 360.367883 240.254066 
L 360.861579 262.823935 
L 361.355275 272.403262 
L 361.848971 277.261001 
L 362.342668 279.742853 
L 362.836364 283.12593 
L 363.33006 251.684841 
L 364.811148 276.166604 
L 365.304844 268.385655 
L 365.79854 274.420061 
L 366.292236 278.536305 
L 366.785932 279.152109 
L 367.279628 285.506674 
L 367.773324 264.941436 
L 368.267021 264.748376 
L 368.760717 264.835402 
L 369.254413 223.716488 
L 370.241805 253.513285 
L 370.735501 241.97019 
L 371.229197 243.680751 
L 371.722893 264.844643 
L 372.216589 264.080334 
L 372.710285 259.136207 
L 373.203981 259.787903 
L 373.697678 273.98282 
L 374.191374 283.926695 
L 374.68507 273.721859 
L 375.178766 233.946803 
L 375.672462 231.235777 
L 376.166158 225.820611 
L 376.659854 240.618582 
L 377.15355 239.795643 
L 377.647246 225.076166 
L 378.140942 243.621879 
L 379.128334 264.372469 
L 379.622031 254.610588 
L 380.115727 250.557804 
L 380.609423 262.151443 
L 381.596815 266.985048 
L 382.090511 261.744537 
L 382.584207 257.791696 
L 383.077903 248.346765 
L 383.571599 269.383935 
L 384.065295 262.977868 
L 384.558991 272.448138 
L 385.052687 272.249888 
L 385.546384 260.105665 
L 386.04008 252.275155 
L 386.533776 247.906406 
L 387.027472 265.372873 
L 387.521168 270.352636 
L 388.014864 273.278219 
L 388.50856 260.836773 
L 389.002256 260.738482 
L 389.495952 267.255795 
L 389.989648 255.245859 
L 390.483344 254.036356 
L 390.97704 268.076042 
L 391.470737 267.389879 
L 392.458129 258.927865 
L 392.951825 260.384373 
L 393.445521 255.23845 
L 393.939217 248.41248 
L 394.432913 248.814635 
L 394.926609 265.149308 
L 395.420305 264.386894 
L 395.914001 259.364118 
L 396.407697 255.869694 
L 397.39509 275.490503 
L 397.888786 274.520537 
L 398.382482 239.280246 
L 398.876178 247.513376 
L 399.369874 253.433692 
L 400.357266 246.711123 
L 400.850962 236.287182 
L 401.344658 248.412527 
L 401.838354 241.914398 
L 402.825747 255.465187 
L 403.319443 248.855669 
L 404.306835 243.051907 
L 404.800531 245.391937 
L 405.294227 256.420481 
L 405.787923 255.030054 
L 406.281619 254.515036 
L 406.775315 249.342081 
L 407.269011 254.28157 
L 407.762707 251.945735 
L 408.256403 232.198035 
L 408.7501 251.744017 
L 409.243796 264.242089 
L 409.737492 263.566586 
L 410.231188 258.428265 
L 410.724884 246.478279 
L 411.712276 273.217792 
L 412.699668 272.249251 
L 413.193364 274.280861 
L 413.68706 275.155877 
L 414.180756 278.736002 
L 414.674453 270.942134 
L 415.661845 246.327698 
L 416.155541 243.342092 
L 416.649237 217.472 
L 417.142933 227.972704 
L 417.636629 266.297033 
L 418.130325 276.866385 
L 418.624021 260.466968 
L 419.117717 262.894388 
L 419.611413 264.187387 
L 420.105109 258.003465 
L 420.598806 245.566964 
L 421.092502 247.823573 
L 421.586198 243.911454 
L 422.079894 248.564307 
L 422.57359 256.119895 
L 423.067286 250.55088 
L 424.054678 263.469545 
L 424.548374 249.805277 
L 425.04207 233.045928 
L 425.535766 256.491724 
L 426.029463 268.816426 
L 426.523159 263.380673 
L 427.016855 264.033419 
L 427.510551 260.065545 
L 428.004247 252.635081 
L 428.497943 247.740846 
L 428.991639 254.269754 
L 429.485335 253.454076 
L 429.979031 252.190951 
L 430.472727 260.166927 
L 430.966423 247.82732 
L 431.460119 250.487706 
L 431.953816 262.852953 
L 432.447512 265.863382 
L 432.941208 258.505081 
L 433.434904 249.384956 
L 433.9286 257.743029 
L 434.422296 252.086253 
L 434.915992 249.636394 
L 435.409688 254.841196 
L 435.903384 255.024244 
L 436.39708 261.677615 
L 436.890776 255.679702 
L 437.384472 244.03404 
L 437.878169 254.243764 
L 438.371865 256.312679 
L 438.865561 259.576373 
L 439.359257 259.685379 
L 439.852953 254.242057 
L 440.346649 243.943198 
L 440.840345 250.71518 
L 441.334041 261.655386 
L 441.827737 240.611669 
L 442.321433 240.890988 
L 442.815129 244.141868 
L 443.308825 228.727966 
L 443.802522 234.659497 
L 444.296218 258.896266 
L 444.789914 266.288501 
L 445.28361 250.988573 
L 445.777306 218.139709 
L 446.764698 267.899879 
L 447.258394 244.771949 
L 447.75209 237.790048 
L 448.245786 248.653276 
L 448.739482 252.690404 
L 449.233179 257.842643 
L 449.726875 255.215938 
L 450.220571 243.82614 
L 450.714267 251.159162 
L 451.207963 253.68792 
L 451.701659 253.321413 
L 452.195355 254.922527 
L 452.689051 251.12651 
L 453.676443 225.481791 
L 454.170139 220.084417 
L 454.663835 223.236637 
L 455.157532 254.73251 
L 455.651228 251.990608 
L 456.144924 224.469743 
L 456.63862 217.655231 
L 457.132316 236.170159 
L 457.626012 244.511078 
L 458.119708 220.296566 
L 458.613404 218.732294 
L 459.1071 208.582849 
L 459.600796 219.603197 
L 460.094492 222.439943 
L 460.588188 223.158566 
L 461.081885 244.212347 
L 461.575581 234.327218 
L 462.069277 230.6382 
L 462.562973 230.603208 
L 463.056669 248.04579 
L 463.550365 232.265321 
L 464.044061 206.581362 
L 464.537757 211.059196 
L 465.525149 243.986813 
L 466.018845 238.233776 
L 466.512541 242.075404 
L 467.006238 266.131723 
L 467.499934 208.812276 
L 467.99363 241.380131 
L 468.487326 243.884039 
L 469.474718 208.42069 
L 469.968414 218.781821 
L 470.46211 243.609835 
L 470.955806 208.191011 
L 471.449502 211.665667 
L 471.943198 246.76161 
L 472.436894 248.38847 
L 472.930591 228.756483 
L 473.424287 233.071767 
L 473.917983 228.697093 
L 474.411679 220.797551 
L 474.905375 231.795036 
L 475.399071 251.239981 
L 475.892767 254.206987 
L 476.386463 209.735033 
L 476.880159 219.272646 
L 477.373855 238.308074 
L 477.867551 223.258579 
L 478.361248 187.330822 
L 478.854944 182.607013 
L 479.34864 212.23246 
L 479.842336 210.8919 
L 480.336032 177.12259 
L 480.829728 179.585149 
L 481.323424 192.778723 
L 481.81712 213.942896 
L 482.310816 221.082797 
L 482.804512 189.060979 
L 483.298208 191.862137 
L 483.791904 212.387821 
L 484.285601 206.994915 
L 484.779297 237.925318 
L 485.272993 201.336058 
L 485.766689 187.844301 
L 486.260385 206.96162 
L 486.754081 183.958037 
L 487.247777 231.844836 
L 487.741473 194.73473 
L 488.235169 201.714813 
L 488.728865 206.403258 
L 489.222561 203.707011 
L 489.716257 191.57872 
L 490.209954 223.984199 
L 490.70365 246.362962 
L 491.197346 215.556915 
L 491.691042 197.455255 
L 492.184738 204.237275 
L 492.678434 216.681152 
L 493.17213 214.754033 
L 493.665826 218.654055 
L 494.159522 183.949369 
L 494.653218 217.277272 
L 495.146914 221.818092 
L 495.64061 217.601277 
L 496.134307 229.040791 
L 496.628003 248.315538 
L 497.121699 259.111607 
L 497.121699 259.111607 
" clip-path="url(#p2f0fa3ecfa)" style="fill: none; stroke: #ff7f0e; stroke-width: 1.5; stroke-linecap: round"/>
   </g>
   <g id="patch_3">
    <path d="M 72 384.48 
L 72 51.84 
" style="fill: none; stroke: #ffffff; stroke-width: 0.8; stroke-linejoin: miter; stroke-linecap: square"/>
   </g>
   <g id="patch_4">
    <path d="M 518.4 384.48 
L 518.4 51.84 
" style="fill: none; stroke: #ffffff; stroke-width: 0.8; stroke-linejoin: miter; stroke-linecap: square"/>
   </g>
   <g id="patch_5">
    <path d="M 72 384.48 
L 518.4 384.48 
" style="fill: none; stroke: #ffffff; stroke-width: 0.8; stroke-linejoin: miter; stroke-linecap: square"/>
   </g>
   <g id="patch_6">
    <path d="M 72 51.84 
L 518.4 51.84 
" style="fill: none; stroke: #ffffff; stroke-width: 0.8; stroke-linejoin: miter; stroke-linecap: square"/>
   </g>
   <g id="text_16">
    <!-- Average Pressure Prediction 16 Days Ahead -->
    <g style="fill: #262626" transform="translate(176.57625 45.84) scale(0.12 -0.12)">
     <defs>
      <path id="ArialMT-41" d="M -9 0 
L 1750 4581 
L 2403 4581 
L 4278 0 
L 3588 0 
L 3053 1388 
L 1138 1388 
L 634 0 
L -9 0 
z
M 1313 1881 
L 2866 1881 
L 2388 3150 
Q 2169 3728 2063 4100 
Q 1975 3659 1816 3225 
L 1313 1881 
z
" transform="scale(0.015625)"/>
      <path id="ArialMT-76" d="M 1344 0 
L 81 3319 
L 675 3319 
L 1388 1331 
Q 1503 1009 1600 663 
Q 1675 925 1809 1294 
L 2547 3319 
L 3125 3319 
L 1869 0 
L 1344 0 
z
" transform="scale(0.015625)"/>
      <path id="ArialMT-65" d="M 2694 1069 
L 3275 997 
Q 3138 488 2766 206 
Q 2394 -75 1816 -75 
Q 1088 -75 661 373 
Q 234 822 234 1631 
Q 234 2469 665 2931 
Q 1097 3394 1784 3394 
Q 2450 3394 2872 2941 
Q 3294 2488 3294 1666 
Q 3294 1616 3291 1516 
L 816 1516 
Q 847 969 1125 678 
Q 1403 388 1819 388 
Q 2128 388 2347 550 
Q 2566 713 2694 1069 
z
M 847 1978 
L 2700 1978 
Q 2663 2397 2488 2606 
Q 2219 2931 1791 2931 
Q 1403 2931 1139 2672 
Q 875 2413 847 1978 
z
" transform="scale(0.015625)"/>
      <path id="ArialMT-72" d="M 416 0 
L 416 3319 
L 922 3319 
L 922 2816 
Q 1116 3169 1280 3281 
Q 1444 3394 1641 3394 
Q 1925 3394 2219 3213 
L 2025 2691 
Q 1819 2813 1613 2813 
Q 1428 2813 1281 2702 
Q 1134 2591 1072 2394 
Q 978 2094 978 1738 
L 978 0 
L 416 0 
z
" transform="scale(0.015625)"/>
      <path id="ArialMT-67" d="M 319 -275 
L 866 -356 
Q 900 -609 1056 -725 
Q 1266 -881 1628 -881 
Q 2019 -881 2231 -725 
Q 2444 -569 2519 -288 
Q 2563 -116 2559 434 
Q 2191 0 1641 0 
Q 956 0 581 494 
Q 206 988 206 1678 
Q 206 2153 378 2554 
Q 550 2956 876 3175 
Q 1203 3394 1644 3394 
Q 2231 3394 2613 2919 
L 2613 3319 
L 3131 3319 
L 3131 450 
Q 3131 -325 2973 -648 
Q 2816 -972 2473 -1159 
Q 2131 -1347 1631 -1347 
Q 1038 -1347 672 -1080 
Q 306 -813 319 -275 
z
M 784 1719 
Q 784 1066 1043 766 
Q 1303 466 1694 466 
Q 2081 466 2343 764 
Q 2606 1063 2606 1700 
Q 2606 2309 2336 2618 
Q 2066 2928 1684 2928 
Q 1309 2928 1046 2623 
Q 784 2319 784 1719 
z
" transform="scale(0.015625)"/>
      <path id="ArialMT-20" transform="scale(0.015625)"/>
      <path id="ArialMT-75" d="M 2597 0 
L 2597 488 
Q 2209 -75 1544 -75 
Q 1250 -75 995 37 
Q 741 150 617 320 
Q 494 491 444 738 
Q 409 903 409 1263 
L 409 3319 
L 972 3319 
L 972 1478 
Q 972 1038 1006 884 
Q 1059 663 1231 536 
Q 1403 409 1656 409 
Q 1909 409 2131 539 
Q 2353 669 2445 892 
Q 2538 1116 2538 1541 
L 2538 3319 
L 3100 3319 
L 3100 0 
L 2597 0 
z
" transform="scale(0.015625)"/>
      <path id="ArialMT-64" d="M 2575 0 
L 2575 419 
Q 2259 -75 1647 -75 
Q 1250 -75 917 144 
Q 584 363 401 755 
Q 219 1147 219 1656 
Q 219 2153 384 2558 
Q 550 2963 881 3178 
Q 1213 3394 1622 3394 
Q 1922 3394 2156 3267 
Q 2391 3141 2538 2938 
L 2538 4581 
L 3097 4581 
L 3097 0 
L 2575 0 
z
M 797 1656 
Q 797 1019 1065 703 
Q 1334 388 1700 388 
Q 2069 388 2326 689 
Q 2584 991 2584 1609 
Q 2584 2291 2321 2609 
Q 2059 2928 1675 2928 
Q 1300 2928 1048 2622 
Q 797 2316 797 1656 
z
" transform="scale(0.015625)"/>
      <path id="ArialMT-69" d="M 425 3934 
L 425 4581 
L 988 4581 
L 988 3934 
L 425 3934 
z
M 425 0 
L 425 3319 
L 988 3319 
L 988 0 
L 425 0 
z
" transform="scale(0.015625)"/>
      <path id="ArialMT-63" d="M 2588 1216 
L 3141 1144 
Q 3050 572 2676 248 
Q 2303 -75 1759 -75 
Q 1078 -75 664 370 
Q 250 816 250 1647 
Q 250 2184 428 2587 
Q 606 2991 970 3192 
Q 1334 3394 1763 3394 
Q 2303 3394 2647 3120 
Q 2991 2847 3088 2344 
L 2541 2259 
Q 2463 2594 2264 2762 
Q 2066 2931 1784 2931 
Q 1359 2931 1093 2626 
Q 828 2322 828 1663 
Q 828 994 1084 691 
Q 1341 388 1753 388 
Q 2084 388 2306 591 
Q 2528 794 2588 1216 
z
" transform="scale(0.015625)"/>
      <path id="ArialMT-74" d="M 1650 503 
L 1731 6 
Q 1494 -44 1306 -44 
Q 1000 -44 831 53 
Q 663 150 594 308 
Q 525 466 525 972 
L 525 2881 
L 113 2881 
L 113 3319 
L 525 3319 
L 525 4141 
L 1084 4478 
L 1084 3319 
L 1650 3319 
L 1650 2881 
L 1084 2881 
L 1084 941 
Q 1084 700 1114 631 
Q 1144 563 1211 522 
Q 1278 481 1403 481 
Q 1497 481 1650 503 
z
" transform="scale(0.015625)"/>
      <path id="ArialMT-6f" d="M 213 1659 
Q 213 2581 725 3025 
Q 1153 3394 1769 3394 
Q 2453 3394 2887 2945 
Q 3322 2497 3322 1706 
Q 3322 1066 3130 698 
Q 2938 331 2570 128 
Q 2203 -75 1769 -75 
Q 1072 -75 642 372 
Q 213 819 213 1659 
z
M 791 1659 
Q 791 1022 1069 705 
Q 1347 388 1769 388 
Q 2188 388 2466 706 
Q 2744 1025 2744 1678 
Q 2744 2294 2464 2611 
Q 2184 2928 1769 2928 
Q 1347 2928 1069 2612 
Q 791 2297 791 1659 
z
" transform="scale(0.015625)"/>
      <path id="ArialMT-6e" d="M 422 0 
L 422 3319 
L 928 3319 
L 928 2847 
Q 1294 3394 1984 3394 
Q 2284 3394 2536 3286 
Q 2788 3178 2913 3003 
Q 3038 2828 3088 2588 
Q 3119 2431 3119 2041 
L 3119 0 
L 2556 0 
L 2556 2019 
Q 2556 2363 2490 2533 
Q 2425 2703 2258 2804 
Q 2091 2906 1866 2906 
Q 1506 2906 1245 2678 
Q 984 2450 984 1813 
L 984 0 
L 422 0 
z
" transform="scale(0.015625)"/>
     </defs>
     <use xlink:href="#ArialMT-41"/>
     <use xlink:href="#ArialMT-76" x="64.949219"/>
     <use xlink:href="#ArialMT-65" x="114.949219"/>
     <use xlink:href="#ArialMT-72" x="170.564453"/>
     <use xlink:href="#ArialMT-61" x="203.865234"/>
     <use xlink:href="#ArialMT-67" x="259.480469"/>
     <use xlink:href="#ArialMT-65" x="315.095703"/>
     <use xlink:href="#ArialMT-20" x="370.710938"/>
     <use xlink:href="#ArialMT-50" x="398.494141"/>
     <use xlink:href="#ArialMT-72" x="465.193359"/>
     <use xlink:href="#ArialMT-65" x="498.494141"/>
     <use xlink:href="#ArialMT-73" x="554.109375"/>
     <use xlink:href="#ArialMT-73" x="604.109375"/>
     <use xlink:href="#ArialMT-75" x="654.109375"/>
     <use xlink:href="#ArialMT-72" x="709.724609"/>
     <use xlink:href="#ArialMT-65" x="743.025391"/>
     <use xlink:href="#ArialMT-20" x="798.640625"/>
     <use xlink:href="#ArialMT-50" x="826.423828"/>
     <use xlink:href="#ArialMT-72" x="893.123047"/>
     <use xlink:href="#ArialMT-65" x="926.423828"/>
     <use xlink:href="#ArialMT-64" x="982.039062"/>
     <use xlink:href="#ArialMT-69" x="1037.654297"/>
     <use xlink:href="#ArialMT-63" x="1059.871094"/>
     <use xlink:href="#ArialMT-74" x="1109.871094"/>
     <use xlink:href="#ArialMT-69" x="1137.654297"/>
     <use xlink:href="#ArialMT-6f" x="1159.871094"/>
     <use xlink:href="#ArialMT-6e" x="1215.486328"/>
     <use xlink:href="#ArialMT-20" x="1271.101562"/>
     <use xlink:href="#ArialMT-31" x="1298.884766"/>
     <use xlink:href="#ArialMT-36" x="1354.5"/>
     <use xlink:href="#ArialMT-20" x="1410.115234"/>
     <use xlink:href="#ArialMT-44" x="1437.898438"/>
     <use xlink:href="#ArialMT-61" x="1510.115234"/>
     <use xlink:href="#ArialMT-79" x="1565.730469"/>
     <use xlink:href="#ArialMT-73" x="1615.730469"/>
     <use xlink:href="#ArialMT-20" x="1665.730469"/>
     <use xlink:href="#ArialMT-41" x="1688.013672"/>
     <use xlink:href="#ArialMT-68" x="1754.712891"/>
     <use xlink:href="#ArialMT-65" x="1810.328125"/>
     <use xlink:href="#ArialMT-61" x="1865.943359"/>
     <use xlink:href="#ArialMT-64" x="1921.558594"/>
    </g>
   </g>
   <g id="legend_1">
    <g id="patch_7">
     <path d="M 437.15625 88.130625 
L 511.4 88.130625 
Q 513.4 88.130625 513.4 86.130625 
L 513.4 58.84 
Q 513.4 56.84 511.4 56.84 
L 437.15625 56.84 
Q 435.15625 56.84 435.15625 58.84 
L 435.15625 86.130625 
Q 435.15625 88.130625 437.15625 88.130625 
z
" style="fill: #eaeaf2; opacity: 0.8; stroke: #cccccc; stroke-linejoin: miter"/>
    </g>
    <g id="line2d_16">
     <path d="M 439.15625 64.497812 
L 449.15625 64.497812 
L 459.15625 64.497812 
" style="fill: none; stroke: #1f77b4; stroke-width: 1.5; stroke-linecap: round"/>
    </g>
    <g id="text_17">
     <!-- Real -->
     <g style="fill: #262626" transform="translate(467.15625 67.997812) scale(0.1 -0.1)">
      <defs>
       <path id="ArialMT-52" d="M 503 0 
L 503 4581 
L 2534 4581 
Q 3147 4581 3465 4457 
Q 3784 4334 3975 4021 
Q 4166 3709 4166 3331 
Q 4166 2844 3850 2509 
Q 3534 2175 2875 2084 
Q 3116 1969 3241 1856 
Q 3506 1613 3744 1247 
L 4541 0 
L 3778 0 
L 3172 953 
Q 2906 1366 2734 1584 
Q 2563 1803 2427 1890 
Q 2291 1978 2150 2013 
Q 2047 2034 1813 2034 
L 1109 2034 
L 1109 0 
L 503 0 
z
M 1109 2559 
L 2413 2559 
Q 2828 2559 3062 2645 
Q 3297 2731 3419 2920 
Q 3541 3109 3541 3331 
Q 3541 3656 3305 3865 
Q 3069 4075 2559 4075 
L 1109 4075 
L 1109 2559 
z
" transform="scale(0.015625)"/>
       <path id="ArialMT-6c" d="M 409 0 
L 409 4581 
L 972 4581 
L 972 0 
L 409 0 
z
" transform="scale(0.015625)"/>
      </defs>
      <use xlink:href="#ArialMT-52"/>
      <use xlink:href="#ArialMT-65" x="72.216797"/>
      <use xlink:href="#ArialMT-61" x="127.832031"/>
      <use xlink:href="#ArialMT-6c" x="183.447266"/>
     </g>
    </g>
    <g id="line2d_17">
     <path d="M 439.15625 78.643125 
L 449.15625 78.643125 
L 459.15625 78.643125 
" style="fill: none; stroke: #ff7f0e; stroke-width: 1.5; stroke-linecap: round"/>
    </g>
    <g id="text_18">
     <!-- Predicted -->
     <g style="fill: #262626" transform="translate(467.15625 82.143125) scale(0.1 -0.1)">
      <use xlink:href="#ArialMT-50"/>
      <use xlink:href="#ArialMT-72" x="66.699219"/>
      <use xlink:href="#ArialMT-65" x="100"/>
      <use xlink:href="#ArialMT-64" x="155.615234"/>
      <use xlink:href="#ArialMT-69" x="211.230469"/>
      <use xlink:href="#ArialMT-63" x="233.447266"/>
      <use xlink:href="#ArialMT-74" x="283.447266"/>
      <use xlink:href="#ArialMT-65" x="311.230469"/>
      <use xlink:href="#ArialMT-64" x="366.845703"/>
     </g>
    </g>
   </g>
  </g>
 </g>
 <defs>
  <clipPath id="p2f0fa3ecfa">
   <rect x="72" y="51.84" width="446.4" height="332.64"/>
  </clipPath>
 </defs>
</svg>
