<?xml version="1.0" encoding="utf-8" standalone="no"?>
<!DOCTYPE svg PUBLIC "-//W3C//DTD SVG 1.1//EN"
  "http://www.w3.org/Graphics/SVG/1.1/DTD/svg11.dtd">
<svg xmlns:xlink="http://www.w3.org/1999/xlink" width="576pt" height="432pt" viewBox="0 0 576 432" xmlns="http://www.w3.org/2000/svg" version="1.1">
 <metadata>
  <rdf:RDF xmlns:dc="http://purl.org/dc/elements/1.1/" xmlns:cc="http://creativecommons.org/ns#" xmlns:rdf="http://www.w3.org/1999/02/22-rdf-syntax-ns#">
   <cc:Work>
    <dc:type rdf:resource="http://purl.org/dc/dcmitype/StillImage"/>
    <dc:date>2023-11-17T05:10:40.639613</dc:date>
    <dc:format>image/svg+xml</dc:format>
    <dc:creator>
     <cc:Agent>
      <dc:title>Matplotlib v3.8.0, https://matplotlib.org/</dc:title>
     </cc:Agent>
    </dc:creator>
   </cc:Work>
  </rdf:RDF>
 </metadata>
 <defs>
  <style type="text/css">*{stroke-linejoin: round; stroke-linecap: butt}</style>
 </defs>
 <g id="figure_1">
  <g id="patch_1">
   <path d="M 0 432 
L 576 432 
L 576 0 
L 0 0 
z
" style="fill: #ffffff"/>
  </g>
  <g id="axes_1">
   <g id="patch_2">
    <path d="M 72 384.48 
L 518.4 384.48 
L 518.4 51.84 
L 72 51.84 
z
" style="fill: #eaeaf2"/>
   </g>
   <g id="matplotlib.axis_1">
    <g id="xtick_1">
     <g id="line2d_1">
      <path d="M 92.290909 384.48 
L 92.290909 51.84 
" clip-path="url(#p507d538314)" style="fill: none; stroke: #ffffff; stroke-width: 0.8; stroke-linecap: round"/>
     </g>
     <g id="text_1">
      <!-- 0 -->
      <g style="fill: #262626" transform="translate(89.51044 398.637812) scale(0.1 -0.1)">
       <defs>
        <path id="ArialMT-30" d="M 266 2259 
Q 266 3072 433 3567 
Q 600 4063 929 4331 
Q 1259 4600 1759 4600 
Q 2128 4600 2406 4451 
Q 2684 4303 2865 4023 
Q 3047 3744 3150 3342 
Q 3253 2941 3253 2259 
Q 3253 1453 3087 958 
Q 2922 463 2592 192 
Q 2263 -78 1759 -78 
Q 1097 -78 719 397 
Q 266 969 266 2259 
z
M 844 2259 
Q 844 1131 1108 757 
Q 1372 384 1759 384 
Q 2147 384 2411 759 
Q 2675 1134 2675 2259 
Q 2675 3391 2411 3762 
Q 2147 4134 1753 4134 
Q 1366 4134 1134 3806 
Q 844 3388 844 2259 
z
" transform="scale(0.015625)"/>
       </defs>
       <use xlink:href="#ArialMT-30"/>
      </g>
     </g>
    </g>
    <g id="xtick_2">
     <g id="line2d_2">
      <path d="M 191.030126 384.48 
L 191.030126 51.84 
" clip-path="url(#p507d538314)" style="fill: none; stroke: #ffffff; stroke-width: 0.8; stroke-linecap: round"/>
     </g>
     <g id="text_2">
      <!-- 200 -->
      <g style="fill: #262626" transform="translate(182.68872 398.637812) scale(0.1 -0.1)">
       <defs>
        <path id="ArialMT-32" d="M 3222 541 
L 3222 0 
L 194 0 
Q 188 203 259 391 
Q 375 700 629 1000 
Q 884 1300 1366 1694 
Q 2113 2306 2375 2664 
Q 2638 3022 2638 3341 
Q 2638 3675 2398 3904 
Q 2159 4134 1775 4134 
Q 1369 4134 1125 3890 
Q 881 3647 878 3216 
L 300 3275 
Q 359 3922 746 4261 
Q 1134 4600 1788 4600 
Q 2447 4600 2831 4234 
Q 3216 3869 3216 3328 
Q 3216 3053 3103 2787 
Q 2991 2522 2730 2228 
Q 2469 1934 1863 1422 
Q 1356 997 1212 845 
Q 1069 694 975 541 
L 3222 541 
z
" transform="scale(0.015625)"/>
       </defs>
       <use xlink:href="#ArialMT-32"/>
       <use xlink:href="#ArialMT-30" x="55.615234"/>
       <use xlink:href="#ArialMT-30" x="111.230469"/>
      </g>
     </g>
    </g>
    <g id="xtick_3">
     <g id="line2d_3">
      <path d="M 289.769343 384.48 
L 289.769343 51.84 
" clip-path="url(#p507d538314)" style="fill: none; stroke: #ffffff; stroke-width: 0.8; stroke-linecap: round"/>
     </g>
     <g id="text_3">
      <!-- 400 -->
      <g style="fill: #262626" transform="translate(281.427937 398.637812) scale(0.1 -0.1)">
       <defs>
        <path id="ArialMT-34" d="M 2069 0 
L 2069 1097 
L 81 1097 
L 81 1613 
L 2172 4581 
L 2631 4581 
L 2631 1613 
L 3250 1613 
L 3250 1097 
L 2631 1097 
L 2631 0 
L 2069 0 
z
M 2069 1613 
L 2069 3678 
L 634 1613 
L 2069 1613 
z
" transform="scale(0.015625)"/>
       </defs>
       <use xlink:href="#ArialMT-34"/>
       <use xlink:href="#ArialMT-30" x="55.615234"/>
       <use xlink:href="#ArialMT-30" x="111.230469"/>
      </g>
     </g>
    </g>
    <g id="xtick_4">
     <g id="line2d_4">
      <path d="M 388.50856 384.48 
L 388.50856 51.84 
" clip-path="url(#p507d538314)" style="fill: none; stroke: #ffffff; stroke-width: 0.8; stroke-linecap: round"/>
     </g>
     <g id="text_4">
      <!-- 600 -->
      <g style="fill: #262626" transform="translate(380.167154 398.637812) scale(0.1 -0.1)">
       <defs>
        <path id="ArialMT-36" d="M 3184 3459 
L 2625 3416 
Q 2550 3747 2413 3897 
Q 2184 4138 1850 4138 
Q 1581 4138 1378 3988 
Q 1113 3794 959 3422 
Q 806 3050 800 2363 
Q 1003 2672 1297 2822 
Q 1591 2972 1913 2972 
Q 2475 2972 2870 2558 
Q 3266 2144 3266 1488 
Q 3266 1056 3080 686 
Q 2894 316 2569 119 
Q 2244 -78 1831 -78 
Q 1128 -78 684 439 
Q 241 956 241 2144 
Q 241 3472 731 4075 
Q 1159 4600 1884 4600 
Q 2425 4600 2770 4297 
Q 3116 3994 3184 3459 
z
M 888 1484 
Q 888 1194 1011 928 
Q 1134 663 1356 523 
Q 1578 384 1822 384 
Q 2178 384 2434 671 
Q 2691 959 2691 1453 
Q 2691 1928 2437 2201 
Q 2184 2475 1800 2475 
Q 1419 2475 1153 2201 
Q 888 1928 888 1484 
z
" transform="scale(0.015625)"/>
       </defs>
       <use xlink:href="#ArialMT-36"/>
       <use xlink:href="#ArialMT-30" x="55.615234"/>
       <use xlink:href="#ArialMT-30" x="111.230469"/>
      </g>
     </g>
    </g>
    <g id="xtick_5">
     <g id="line2d_5">
      <path d="M 487.247777 384.48 
L 487.247777 51.84 
" clip-path="url(#p507d538314)" style="fill: none; stroke: #ffffff; stroke-width: 0.8; stroke-linecap: round"/>
     </g>
     <g id="text_5">
      <!-- 800 -->
      <g style="fill: #262626" transform="translate(478.906371 398.637812) scale(0.1 -0.1)">
       <defs>
        <path id="ArialMT-38" d="M 1131 2484 
Q 781 2613 612 2850 
Q 444 3088 444 3419 
Q 444 3919 803 4259 
Q 1163 4600 1759 4600 
Q 2359 4600 2725 4251 
Q 3091 3903 3091 3403 
Q 3091 3084 2923 2848 
Q 2756 2613 2416 2484 
Q 2838 2347 3058 2040 
Q 3278 1734 3278 1309 
Q 3278 722 2862 322 
Q 2447 -78 1769 -78 
Q 1091 -78 675 323 
Q 259 725 259 1325 
Q 259 1772 486 2073 
Q 713 2375 1131 2484 
z
M 1019 3438 
Q 1019 3113 1228 2906 
Q 1438 2700 1772 2700 
Q 2097 2700 2305 2904 
Q 2513 3109 2513 3406 
Q 2513 3716 2298 3927 
Q 2084 4138 1766 4138 
Q 1444 4138 1231 3931 
Q 1019 3725 1019 3438 
z
M 838 1322 
Q 838 1081 952 856 
Q 1066 631 1291 507 
Q 1516 384 1775 384 
Q 2178 384 2440 643 
Q 2703 903 2703 1303 
Q 2703 1709 2433 1975 
Q 2163 2241 1756 2241 
Q 1359 2241 1098 1978 
Q 838 1716 838 1322 
z
" transform="scale(0.015625)"/>
       </defs>
       <use xlink:href="#ArialMT-38"/>
       <use xlink:href="#ArialMT-30" x="55.615234"/>
       <use xlink:href="#ArialMT-30" x="111.230469"/>
      </g>
     </g>
    </g>
    <g id="text_6">
     <!-- Days -->
     <g style="fill: #262626" transform="translate(283.808594 411.783125) scale(0.1 -0.1)">
      <defs>
       <path id="ArialMT-44" d="M 494 0 
L 494 4581 
L 2072 4581 
Q 2606 4581 2888 4516 
Q 3281 4425 3559 4188 
Q 3922 3881 4101 3404 
Q 4281 2928 4281 2316 
Q 4281 1794 4159 1391 
Q 4038 988 3847 723 
Q 3656 459 3429 307 
Q 3203 156 2883 78 
Q 2563 0 2147 0 
L 494 0 
z
M 1100 541 
L 2078 541 
Q 2531 541 2789 625 
Q 3047 709 3200 863 
Q 3416 1078 3536 1442 
Q 3656 1806 3656 2325 
Q 3656 3044 3420 3430 
Q 3184 3816 2847 3947 
Q 2603 4041 2063 4041 
L 1100 4041 
L 1100 541 
z
" transform="scale(0.015625)"/>
       <path id="ArialMT-61" d="M 2588 409 
Q 2275 144 1986 34 
Q 1697 -75 1366 -75 
Q 819 -75 525 192 
Q 231 459 231 875 
Q 231 1119 342 1320 
Q 453 1522 633 1644 
Q 813 1766 1038 1828 
Q 1203 1872 1538 1913 
Q 2219 1994 2541 2106 
Q 2544 2222 2544 2253 
Q 2544 2597 2384 2738 
Q 2169 2928 1744 2928 
Q 1347 2928 1158 2789 
Q 969 2650 878 2297 
L 328 2372 
Q 403 2725 575 2942 
Q 747 3159 1072 3276 
Q 1397 3394 1825 3394 
Q 2250 3394 2515 3294 
Q 2781 3194 2906 3042 
Q 3031 2891 3081 2659 
Q 3109 2516 3109 2141 
L 3109 1391 
Q 3109 606 3145 398 
Q 3181 191 3288 0 
L 2700 0 
Q 2613 175 2588 409 
z
M 2541 1666 
Q 2234 1541 1622 1453 
Q 1275 1403 1131 1340 
Q 988 1278 909 1158 
Q 831 1038 831 891 
Q 831 666 1001 516 
Q 1172 366 1500 366 
Q 1825 366 2078 508 
Q 2331 650 2450 897 
Q 2541 1088 2541 1459 
L 2541 1666 
z
" transform="scale(0.015625)"/>
       <path id="ArialMT-79" d="M 397 -1278 
L 334 -750 
Q 519 -800 656 -800 
Q 844 -800 956 -737 
Q 1069 -675 1141 -563 
Q 1194 -478 1313 -144 
Q 1328 -97 1363 -6 
L 103 3319 
L 709 3319 
L 1400 1397 
Q 1534 1031 1641 628 
Q 1738 1016 1872 1384 
L 2581 3319 
L 3144 3319 
L 1881 -56 
Q 1678 -603 1566 -809 
Q 1416 -1088 1222 -1217 
Q 1028 -1347 759 -1347 
Q 597 -1347 397 -1278 
z
" transform="scale(0.015625)"/>
       <path id="ArialMT-73" d="M 197 991 
L 753 1078 
Q 800 744 1014 566 
Q 1228 388 1613 388 
Q 2000 388 2187 545 
Q 2375 703 2375 916 
Q 2375 1106 2209 1216 
Q 2094 1291 1634 1406 
Q 1016 1563 777 1677 
Q 538 1791 414 1992 
Q 291 2194 291 2438 
Q 291 2659 392 2848 
Q 494 3038 669 3163 
Q 800 3259 1026 3326 
Q 1253 3394 1513 3394 
Q 1903 3394 2198 3281 
Q 2494 3169 2634 2976 
Q 2775 2784 2828 2463 
L 2278 2388 
Q 2241 2644 2061 2787 
Q 1881 2931 1553 2931 
Q 1166 2931 1000 2803 
Q 834 2675 834 2503 
Q 834 2394 903 2306 
Q 972 2216 1119 2156 
Q 1203 2125 1616 2013 
Q 2213 1853 2448 1751 
Q 2684 1650 2818 1456 
Q 2953 1263 2953 975 
Q 2953 694 2789 445 
Q 2625 197 2315 61 
Q 2006 -75 1616 -75 
Q 969 -75 630 194 
Q 291 463 197 991 
z
" transform="scale(0.015625)"/>
      </defs>
      <use xlink:href="#ArialMT-44"/>
      <use xlink:href="#ArialMT-61" x="72.216797"/>
      <use xlink:href="#ArialMT-79" x="127.832031"/>
      <use xlink:href="#ArialMT-73" x="177.832031"/>
     </g>
    </g>
   </g>
   <g id="matplotlib.axis_2">
    <g id="ytick_1">
     <g id="line2d_6">
      <path d="M 72 353.878044 
L 518.4 353.878044 
" clip-path="url(#p507d538314)" style="fill: none; stroke: #ffffff; stroke-width: 0.8; stroke-linecap: round"/>
     </g>
     <g id="text_7">
      <!-- 1000 -->
      <g style="fill: #262626" transform="translate(42.75625 357.45695) scale(0.1 -0.1)">
       <defs>
        <path id="ArialMT-31" d="M 2384 0 
L 1822 0 
L 1822 3584 
Q 1619 3391 1289 3197 
Q 959 3003 697 2906 
L 697 3450 
Q 1169 3672 1522 3987 
Q 1875 4303 2022 4600 
L 2384 4600 
L 2384 0 
z
" transform="scale(0.015625)"/>
       </defs>
       <use xlink:href="#ArialMT-31"/>
       <use xlink:href="#ArialMT-30" x="55.615234"/>
       <use xlink:href="#ArialMT-30" x="111.230469"/>
       <use xlink:href="#ArialMT-30" x="166.845703"/>
      </g>
     </g>
    </g>
    <g id="ytick_2">
     <g id="line2d_7">
      <path d="M 72 313.504961 
L 518.4 313.504961 
" clip-path="url(#p507d538314)" style="fill: none; stroke: #ffffff; stroke-width: 0.8; stroke-linecap: round"/>
     </g>
     <g id="text_8">
      <!-- 1005 -->
      <g style="fill: #262626" transform="translate(42.75625 317.083867) scale(0.1 -0.1)">
       <defs>
        <path id="ArialMT-35" d="M 266 1200 
L 856 1250 
Q 922 819 1161 601 
Q 1400 384 1738 384 
Q 2144 384 2425 690 
Q 2706 997 2706 1503 
Q 2706 1984 2436 2262 
Q 2166 2541 1728 2541 
Q 1456 2541 1237 2417 
Q 1019 2294 894 2097 
L 366 2166 
L 809 4519 
L 3088 4519 
L 3088 3981 
L 1259 3981 
L 1013 2750 
Q 1425 3038 1878 3038 
Q 2478 3038 2890 2622 
Q 3303 2206 3303 1553 
Q 3303 931 2941 478 
Q 2500 -78 1738 -78 
Q 1113 -78 717 272 
Q 322 622 266 1200 
z
" transform="scale(0.015625)"/>
       </defs>
       <use xlink:href="#ArialMT-31"/>
       <use xlink:href="#ArialMT-30" x="55.615234"/>
       <use xlink:href="#ArialMT-30" x="111.230469"/>
       <use xlink:href="#ArialMT-35" x="166.845703"/>
      </g>
     </g>
    </g>
    <g id="ytick_3">
     <g id="line2d_8">
      <path d="M 72 273.131878 
L 518.4 273.131878 
" clip-path="url(#p507d538314)" style="fill: none; stroke: #ffffff; stroke-width: 0.8; stroke-linecap: round"/>
     </g>
     <g id="text_9">
      <!-- 1010 -->
      <g style="fill: #262626" transform="translate(42.75625 276.710784) scale(0.1 -0.1)">
       <use xlink:href="#ArialMT-31"/>
       <use xlink:href="#ArialMT-30" x="55.615234"/>
       <use xlink:href="#ArialMT-31" x="111.230469"/>
       <use xlink:href="#ArialMT-30" x="166.845703"/>
      </g>
     </g>
    </g>
    <g id="ytick_4">
     <g id="line2d_9">
      <path d="M 72 232.758795 
L 518.4 232.758795 
" clip-path="url(#p507d538314)" style="fill: none; stroke: #ffffff; stroke-width: 0.8; stroke-linecap: round"/>
     </g>
     <g id="text_10">
      <!-- 1015 -->
      <g style="fill: #262626" transform="translate(42.75625 236.337701) scale(0.1 -0.1)">
       <use xlink:href="#ArialMT-31"/>
       <use xlink:href="#ArialMT-30" x="55.615234"/>
       <use xlink:href="#ArialMT-31" x="111.230469"/>
       <use xlink:href="#ArialMT-35" x="166.845703"/>
      </g>
     </g>
    </g>
    <g id="ytick_5">
     <g id="line2d_10">
      <path d="M 72 192.385712 
L 518.4 192.385712 
" clip-path="url(#p507d538314)" style="fill: none; stroke: #ffffff; stroke-width: 0.8; stroke-linecap: round"/>
     </g>
     <g id="text_11">
      <!-- 1020 -->
      <g style="fill: #262626" transform="translate(42.75625 195.964618) scale(0.1 -0.1)">
       <use xlink:href="#ArialMT-31"/>
       <use xlink:href="#ArialMT-30" x="55.615234"/>
       <use xlink:href="#ArialMT-32" x="111.230469"/>
       <use xlink:href="#ArialMT-30" x="166.845703"/>
      </g>
     </g>
    </g>
    <g id="ytick_6">
     <g id="line2d_11">
      <path d="M 72 152.012628 
L 518.4 152.012628 
" clip-path="url(#p507d538314)" style="fill: none; stroke: #ffffff; stroke-width: 0.8; stroke-linecap: round"/>
     </g>
     <g id="text_12">
      <!-- 1025 -->
      <g style="fill: #262626" transform="translate(42.75625 155.591535) scale(0.1 -0.1)">
       <use xlink:href="#ArialMT-31"/>
       <use xlink:href="#ArialMT-30" x="55.615234"/>
       <use xlink:href="#ArialMT-32" x="111.230469"/>
       <use xlink:href="#ArialMT-35" x="166.845703"/>
      </g>
     </g>
    </g>
    <g id="ytick_7">
     <g id="line2d_12">
      <path d="M 72 111.639545 
L 518.4 111.639545 
" clip-path="url(#p507d538314)" style="fill: none; stroke: #ffffff; stroke-width: 0.8; stroke-linecap: round"/>
     </g>
     <g id="text_13">
      <!-- 1030 -->
      <g style="fill: #262626" transform="translate(42.75625 115.218452) scale(0.1 -0.1)">
       <defs>
        <path id="ArialMT-33" d="M 269 1209 
L 831 1284 
Q 928 806 1161 595 
Q 1394 384 1728 384 
Q 2125 384 2398 659 
Q 2672 934 2672 1341 
Q 2672 1728 2419 1979 
Q 2166 2231 1775 2231 
Q 1616 2231 1378 2169 
L 1441 2663 
Q 1497 2656 1531 2656 
Q 1891 2656 2178 2843 
Q 2466 3031 2466 3422 
Q 2466 3731 2256 3934 
Q 2047 4138 1716 4138 
Q 1388 4138 1169 3931 
Q 950 3725 888 3313 
L 325 3413 
Q 428 3978 793 4289 
Q 1159 4600 1703 4600 
Q 2078 4600 2393 4439 
Q 2709 4278 2876 4000 
Q 3044 3722 3044 3409 
Q 3044 3113 2884 2869 
Q 2725 2625 2413 2481 
Q 2819 2388 3044 2092 
Q 3269 1797 3269 1353 
Q 3269 753 2831 336 
Q 2394 -81 1725 -81 
Q 1122 -81 723 278 
Q 325 638 269 1209 
z
" transform="scale(0.015625)"/>
       </defs>
       <use xlink:href="#ArialMT-31"/>
       <use xlink:href="#ArialMT-30" x="55.615234"/>
       <use xlink:href="#ArialMT-33" x="111.230469"/>
       <use xlink:href="#ArialMT-30" x="166.845703"/>
      </g>
     </g>
    </g>
    <g id="ytick_8">
     <g id="line2d_13">
      <path d="M 72 71.266462 
L 518.4 71.266462 
" clip-path="url(#p507d538314)" style="fill: none; stroke: #ffffff; stroke-width: 0.8; stroke-linecap: round"/>
     </g>
     <g id="text_14">
      <!-- 1035 -->
      <g style="fill: #262626" transform="translate(42.75625 74.845368) scale(0.1 -0.1)">
       <use xlink:href="#ArialMT-31"/>
       <use xlink:href="#ArialMT-30" x="55.615234"/>
       <use xlink:href="#ArialMT-33" x="111.230469"/>
       <use xlink:href="#ArialMT-35" x="166.845703"/>
      </g>
     </g>
    </g>
    <g id="text_15">
     <!-- (hPa) -->
     <g style="fill: #262626" transform="translate(36.651562 230.385781) rotate(-90) scale(0.1 -0.1)">
      <defs>
       <path id="ArialMT-28" d="M 1497 -1347 
Q 1031 -759 709 28 
Q 388 816 388 1659 
Q 388 2403 628 3084 
Q 909 3875 1497 4659 
L 1900 4659 
Q 1522 4009 1400 3731 
Q 1209 3300 1100 2831 
Q 966 2247 966 1656 
Q 966 153 1900 -1347 
L 1497 -1347 
z
" transform="scale(0.015625)"/>
       <path id="ArialMT-68" d="M 422 0 
L 422 4581 
L 984 4581 
L 984 2938 
Q 1378 3394 1978 3394 
Q 2347 3394 2619 3248 
Q 2891 3103 3008 2847 
Q 3125 2591 3125 2103 
L 3125 0 
L 2563 0 
L 2563 2103 
Q 2563 2525 2380 2717 
Q 2197 2909 1863 2909 
Q 1613 2909 1392 2779 
Q 1172 2650 1078 2428 
Q 984 2206 984 1816 
L 984 0 
L 422 0 
z
" transform="scale(0.015625)"/>
       <path id="ArialMT-50" d="M 494 0 
L 494 4581 
L 2222 4581 
Q 2678 4581 2919 4538 
Q 3256 4481 3484 4323 
Q 3713 4166 3852 3881 
Q 3991 3597 3991 3256 
Q 3991 2672 3619 2267 
Q 3247 1863 2275 1863 
L 1100 1863 
L 1100 0 
L 494 0 
z
M 1100 2403 
L 2284 2403 
Q 2872 2403 3119 2622 
Q 3366 2841 3366 3238 
Q 3366 3525 3220 3729 
Q 3075 3934 2838 4000 
Q 2684 4041 2272 4041 
L 1100 4041 
L 1100 2403 
z
" transform="scale(0.015625)"/>
       <path id="ArialMT-29" d="M 791 -1347 
L 388 -1347 
Q 1322 153 1322 1656 
Q 1322 2244 1188 2822 
Q 1081 3291 891 3722 
Q 769 4003 388 4659 
L 791 4659 
Q 1378 3875 1659 3084 
Q 1900 2403 1900 1659 
Q 1900 816 1576 28 
Q 1253 -759 791 -1347 
z
" transform="scale(0.015625)"/>
      </defs>
      <use xlink:href="#ArialMT-28"/>
      <use xlink:href="#ArialMT-68" x="33.300781"/>
      <use xlink:href="#ArialMT-50" x="88.916016"/>
      <use xlink:href="#ArialMT-61" x="155.615234"/>
      <use xlink:href="#ArialMT-29" x="211.230469"/>
     </g>
    </g>
   </g>
   <g id="line2d_14">
    <path d="M 92.290909 281.240139 
L 92.784605 274.02345 
L 93.278301 264.541383 
L 93.771997 191.522176 
L 94.265693 140.982926 
L 94.75939 221.162748 
L 95.253086 200.275285 
L 95.746782 82.374667 
L 96.240478 94.71673 
L 96.734174 147.005245 
L 97.22787 168.230098 
L 97.721566 163.905213 
L 98.215262 172.587655 
L 98.708958 246.347866 
L 99.202654 277.908799 
L 99.69635 260.802948 
L 100.190046 157.289727 
L 100.683743 175.518735 
L 101.177439 234.638386 
L 101.671135 269.844275 
L 102.164831 314.931925 
L 102.658527 310.59866 
L 103.152223 300.645013 
L 104.139615 172.554117 
L 104.633311 152.061413 
L 105.127007 193.301023 
L 105.620703 201.761239 
L 106.114399 182.376551 
L 106.608096 136.586746 
L 107.101792 121.57581 
L 107.595488 150.773399 
L 108.089184 234.437618 
L 108.58288 261.720874 
L 109.076576 174.066864 
L 109.570272 149.466881 
L 110.063968 148.367836 
L 110.557664 174.29072 
L 111.545056 270.782389 
L 112.038752 220.565383 
L 112.532449 201.150035 
L 113.026145 235.349401 
L 113.519841 188.948392 
L 114.013537 192.9857 
L 114.507233 241.366112 
L 115.000929 300.675292 
L 115.494625 289.583909 
L 115.988321 247.971597 
L 116.482017 190.804432 
L 117.469409 231.155086 
L 117.963106 207.93076 
L 118.950498 206.981703 
L 119.444194 198.40803 
L 119.93789 196.972542 
L 120.431586 218.527283 
L 120.925282 220.495471 
L 121.418978 189.178294 
L 121.912674 130.177519 
L 122.40637 155.842464 
L 122.900066 221.773952 
L 123.393762 204.778005 
L 123.887459 145.866948 
L 124.381155 124.334637 
L 125.368547 169.412306 
L 125.862243 182.264404 
L 126.355939 242.784777 
L 127.343331 142.205334 
L 128.330723 287.716654 
L 128.824419 186.475541 
L 129.318115 200.135101 
L 129.811812 172.485146 
L 130.305508 193.43429 
L 130.799204 186.884879 
L 131.2929 256.354619 
L 131.786596 165.79555 
L 132.280292 186.223209 
L 132.773988 216.744138 
L 133.267684 214.002133 
L 133.76138 223.007574 
L 134.255076 258.709715 
L 134.748772 265.780612 
L 135.242468 268.092401 
L 135.736165 285.211504 
L 136.229861 246.009016 
L 136.723557 115.631995 
L 137.217253 116.344131 
L 138.204645 257.745247 
L 138.698341 170.919741 
L 139.192037 180.35229 
L 139.685733 258.990084 
L 140.673125 335.474647 
L 141.166821 302.839738 
L 141.660518 219.934733 
L 142.154214 260.823695 
L 142.64791 239.319421 
L 143.141606 272.352453 
L 143.635302 269.571196 
L 144.128998 252.109838 
L 144.622694 170.040332 
L 145.11639 190.395094 
L 145.610086 221.061815 
L 146.103782 240.446503 
L 146.597478 253.528503 
L 147.091175 247.382823 
L 147.584871 262.489085 
L 148.078567 261.345181 
L 148.572263 160.121125 
L 149.065959 101.85966 
L 149.559655 121.059931 
L 150.053351 205.949946 
L 150.547047 268.135709 
L 151.040743 300.619219 
L 152.028135 240.160527 
L 152.521831 275.413098 
L 153.015528 332.110223 
L 153.509224 264.928292 
L 154.00292 152.331064 
L 154.496616 137.640932 
L 154.990312 151.328529 
L 155.484008 156.526563 
L 155.977704 170.87583 
L 156.4714 181.698059 
L 156.965096 177.430849 
L 157.458792 217.058151 
L 157.952488 235.007351 
L 158.446184 237.59235 
L 158.939881 222.63188 
L 159.433577 184.944728 
L 159.927273 195.615558 
L 160.420969 221.622553 
L 160.914665 257.206939 
L 161.408361 264.732034 
L 161.902057 161.395632 
L 162.395753 169.143152 
L 162.889449 183.027289 
L 163.383145 224.280447 
L 163.876841 251.279594 
L 164.370537 269.509515 
L 164.864234 299.525781 
L 165.35793 276.956106 
L 165.851626 242.167966 
L 166.345322 261.143315 
L 166.839018 331.667241 
L 167.332714 346.599674 
L 167.82641 321.287994 
L 168.320106 339.685784 
L 168.813802 219.183346 
L 169.801194 265.948833 
L 170.294891 314.037661 
L 170.788587 298.731075 
L 171.282283 220.070918 
L 171.775979 235.226039 
L 172.269675 270.574916 
L 172.763371 263.814119 
L 173.257067 266.408638 
L 173.750763 301.953773 
L 174.738155 229.999967 
L 175.231851 265.539495 
L 175.725547 286.819474 
L 176.219244 284.221452 
L 177.206636 305.346234 
L 177.700332 291.552097 
L 178.194028 289.53905 
L 179.18142 282.249466 
L 179.675116 274.068309 
L 180.168812 282.104301 
L 180.662508 337.201718 
L 181.156204 323.379544 
L 181.6499 268.617943 
L 182.143597 266.010515 
L 182.637293 271.875826 
L 183.130989 269.845957 
L 183.624685 252.883655 
L 184.118381 243.54738 
L 184.612077 255.849955 
L 185.105773 304.544379 
L 185.599469 336.069029 
L 186.093165 307.101341 
L 187.080557 348.287494 
L 187.574253 334.061589 
L 188.06795 296.376466 
L 188.561646 282.17657 
L 189.549038 263.313368 
L 190.042734 285.126048 
L 190.53643 326.746203 
L 191.030126 336.4279 
L 191.523822 293.127769 
L 192.017518 271.561813 
L 192.511214 268.847845 
L 193.00491 279.058871 
L 193.498607 271.651531 
L 193.992303 279.283166 
L 194.485999 295.348288 
L 194.979695 304.101397 
L 195.473391 309.977924 
L 195.967087 309.338683 
L 196.460783 289.763345 
L 196.954479 210.579009 
L 197.448175 218.017012 
L 197.941871 242.739918 
L 198.435567 230.639208 
L 199.916656 297.165077 
L 200.410352 288.42879 
L 200.904048 275.503796 
L 201.89144 303.686451 
L 202.385136 299.755683 
L 202.878832 291.165188 
L 203.372528 298.914577 
L 203.866224 295.746412 
L 204.35992 253.192061 
L 204.853616 243.104397 
L 205.347313 226.383212 
L 205.841009 225.699113 
L 206.334705 235.618555 
L 206.828401 248.81831 
L 207.322097 255.558372 
L 208.309489 281.111169 
L 208.803185 275.397256 
L 209.296881 254.128492 
L 209.790577 241.38113 
L 210.284273 250.152865 
L 210.777969 270.64738 
L 211.271666 272.016011 
L 211.765362 263.840461 
L 212.259058 258.894759 
L 212.752754 270.005742 
L 213.24645 289.07007 
L 213.740146 276.894425 
L 214.233842 275.130769 
L 214.727538 266.621718 
L 215.221234 261.664801 
L 215.71493 265.707716 
L 216.208626 271.578636 
L 216.702322 273.59729 
L 217.196019 279.389706 
L 217.689715 261.23864 
L 218.183411 232.921409 
L 218.677107 218.970265 
L 219.170803 228.732701 
L 219.664499 224.863614 
L 220.158195 227.089741 
L 220.651891 247.360393 
L 221.145587 261.479757 
L 221.639283 256.39387 
L 222.132979 252.754686 
L 222.626676 251.227974 
L 223.120372 257.476093 
L 223.614068 266.840406 
L 224.107764 270.406695 
L 224.60146 270.569309 
L 225.095156 278.183358 
L 225.588852 277.914967 
L 226.082548 284.783998 
L 226.576244 285.440061 
L 227.06994 280.174738 
L 227.563636 268.94317 
L 228.057332 278.503741 
L 228.551029 285.473705 
L 229.044725 268.444114 
L 229.538421 262.024923 
L 230.525813 292.63432 
L 231.019509 292.196945 
L 231.513205 273.546823 
L 232.006901 259.74863 
L 232.500597 259.605463 
L 232.994293 279.221485 
L 233.487989 281.991527 
L 233.981685 270.193615 
L 234.475382 283.034498 
L 234.969078 305.413522 
L 235.462774 290.67174 
L 235.95647 249.894926 
L 236.450166 247.422074 
L 236.943862 255.687342 
L 237.437558 251.975261 
L 237.931254 242.257684 
L 238.42495 244.472596 
L 238.918646 254.582689 
L 239.412342 243.882003 
L 239.906038 245.355197 
L 240.399735 253.052998 
L 240.893431 237.345626 
L 241.387127 235.663414 
L 241.880823 221.145926 
L 242.374519 220.416967 
L 242.868215 236.179292 
L 243.361911 246.345459 
L 243.855607 263.363835 
L 244.349303 268.259581 
L 244.842999 285.838184 
L 245.336695 274.483255 
L 245.830392 254.442505 
L 246.324088 249.816422 
L 246.817784 248.655696 
L 247.31148 270.249688 
L 247.805176 278.22898 
L 248.298872 277.466377 
L 248.792568 293.122161 
L 249.286264 291.260514 
L 249.77996 268.662802 
L 250.273656 267.574972 
L 250.767352 268.550654 
L 251.261048 263.111503 
L 252.248441 234.037276 
L 252.742137 249.289329 
L 253.235833 255.513513 
L 253.729529 229.999967 
L 254.223225 233.482146 
L 254.716921 272.049655 
L 255.210617 292.090405 
L 256.198009 180.789665 
L 256.691705 236.728815 
L 257.185401 251.795825 
L 257.679098 271.69639 
L 258.172794 232.170021 
L 258.66649 240.766123 
L 259.160186 288.641871 
L 259.653882 309.89942 
L 260.147578 303.832243 
L 260.641274 290.211935 
L 261.13497 214.288109 
L 261.628666 236.285832 
L 262.122362 268.903919 
L 262.616058 201.357508 
L 263.109754 224.82997 
L 263.603451 262.253575 
L 264.097147 269.980534 
L 264.590843 282.333576 
L 265.084539 250.820142 
L 265.578235 113.175965 
L 266.071931 153.818202 
L 266.565627 151.451891 
L 267.059323 190.305376 
L 267.553019 240.911915 
L 268.046715 223.272532 
L 268.540411 214.433901 
L 269.034107 223.265513 
L 269.527804 145.491254 
L 270.0215 157.2387 
L 270.515196 204.581747 
L 271.008892 231.940118 
L 271.502588 92.159533 
L 271.996284 153.767736 
L 272.48998 175.232759 
L 272.983676 131.741976 
L 273.971068 227.11217 
L 274.464764 236.779281 
L 275.452157 267.120774 
L 275.945853 267.19367 
L 276.439549 250.455663 
L 276.933245 206.701334 
L 277.426941 220.557152 
L 277.920637 291.462379 
L 278.414333 316.813311 
L 278.908029 227.953276 
L 279.401725 196.394983 
L 279.895421 235.007351 
L 280.389117 286.073694 
L 280.882814 205.630326 
L 281.37651 164.309597 
L 281.870206 221.465546 
L 282.363902 224.757074 
L 282.857598 231.648535 
L 283.351294 195.542662 
L 283.84499 172.720656 
L 284.832382 290.699776 
L 285.819774 119.046885 
L 286.31347 171.173021 
L 286.807167 237.368055 
L 287.300863 274.954274 
L 287.794559 303.725703 
L 288.288255 274.802875 
L 288.781951 131.091521 
L 289.275647 101.013574 
L 289.769343 146.321145 
L 290.263039 169.159974 
L 290.756735 140.573588 
L 291.250431 156.907865 
L 292.73152 265.758183 
L 293.225216 242.818421 
L 293.718912 249.306151 
L 294.212608 306.764899 
L 294.706304 263.902142 
L 295.2 195.380049 
L 295.693696 177.57664 
L 296.187392 229.433623 
L 296.681088 309.826525 
L 297.174784 247.924581 
L 297.66848 122.085728 
L 298.162177 144.117448 
L 298.655873 197.875329 
L 299.149569 131.046662 
L 299.643265 179.511184 
L 300.630657 291.838073 
L 301.124353 202.635989 
L 301.618049 199.254743 
L 302.111745 203.168689 
L 302.605441 218.162804 
L 303.099137 227.790663 
L 303.592833 203.404199 
L 304.08653 202.097681 
L 304.580226 191.028727 
L 305.073922 121.783282 
L 305.567618 98.148207 
L 306.061314 138.449531 
L 306.55501 230.824251 
L 307.048706 234.917633 
L 307.542402 200.892096 
L 308.529794 236.487698 
L 309.02349 253.965878 
L 309.517186 260.70594 
L 310.010883 215.858174 
L 310.504579 231.026117 
L 311.491971 138.941843 
L 311.985667 191.802545 
L 312.479363 273.014123 
L 312.973059 304.364944 
L 313.466755 296.138928 
L 313.960451 257.156473 
L 314.454147 251.179014 
L 314.947843 231.345737 
L 315.441539 262.881601 
L 315.935236 281.139206 
L 316.428932 253.741583 
L 316.922628 246.109949 
L 317.416324 185.634435 
L 317.91002 143.147372 
L 319.391108 283.645702 
L 319.884804 270.064645 
L 320.3785 189.346516 
L 320.872196 140.478263 
L 321.365893 66.96 
L 322.353285 235.84285 
L 322.846981 278.756073 
L 323.340677 268.012347 
L 323.834373 118.676798 
L 324.328069 124.457999 
L 324.821765 136.783004 
L 325.315461 188.639987 
L 325.809157 265.668465 
L 326.302853 306.361168 
L 326.796549 314.721761 
L 327.290246 286.370885 
L 327.783942 159.453612 
L 328.277638 130.26163 
L 328.771334 156.150869 
L 329.26503 189.290442 
L 329.758726 193.204388 
L 330.252422 184.182125 
L 330.746118 225.36267 
L 331.239814 277.449555 
L 331.73351 281.784054 
L 332.720902 214.422686 
L 333.214599 215.179681 
L 333.708295 246.429569 
L 334.201991 258.249911 
L 334.695687 278.555914 
L 335.189383 209.970432 
L 335.683079 179.808375 
L 337.164167 274.999133 
L 337.657863 285.958319 
L 338.645255 333.214876 
L 339.138952 296.060425 
L 339.632648 223.170187 
L 340.126344 254.392038 
L 340.62004 248.106174 
L 341.113736 262.999355 
L 341.607432 294.647367 
L 342.101128 291.109115 
L 343.08852 233.437287 
L 343.582216 244.338019 
L 344.075912 244.95483 
L 345.063305 288.137207 
L 345.557001 259.70222 
L 346.544393 353.005113 
L 347.038089 256.507223 
L 348.025481 190.316591 
L 348.519177 210.777894 
L 349.012873 249.003353 
L 349.506569 266.750688 
L 350.000265 312.910579 
L 350.493962 295.617442 
L 350.987658 286.752186 
L 351.481354 320.80576 
L 351.97505 307.841515 
L 352.468746 302.789272 
L 352.962442 270.193615 
L 353.456138 199.148203 
L 354.44353 272.066477 
L 354.937226 261.36761 
L 355.430922 214.966601 
L 355.924618 247.640762 
L 356.912011 267.070308 
L 357.405707 290.475481 
L 357.899403 280.836408 
L 358.393099 222.912248 
L 358.886795 239.711937 
L 359.380491 268.713268 
L 359.874187 209.005964 
L 360.367883 200.028561 
L 360.861579 224.471098 
L 361.355275 263.896535 
L 361.848971 280.741083 
L 362.342668 281.913023 
L 362.836364 314.166631 
L 363.33006 312.041437 
L 363.823756 267.776837 
L 364.317452 268.780557 
L 364.811148 298.768786 
L 365.304844 317.660024 
L 365.79854 303.153751 
L 366.292236 299.262234 
L 366.785932 300.983698 
L 367.773324 317.783386 
L 368.267021 262.298434 
L 368.760717 269.139429 
L 369.254413 271.477703 
L 369.748109 215.401232 
L 370.241805 218.454387 
L 370.735501 226.6019 
L 371.229197 225.965953 
L 371.722893 234.076527 
L 372.710285 276.165466 
L 373.203981 269.682354 
L 373.697678 278.167298 
L 374.68507 332.233586 
L 375.178766 312.613389 
L 375.672462 237.267122 
L 376.166158 190.922187 
L 376.659854 188.286722 
L 377.15355 218.241307 
L 377.647246 231.149479 
L 378.140942 224.263625 
L 378.634638 233.084022 
L 379.622031 267.00302 
L 380.115727 264.395591 
L 380.609423 257.73964 
L 381.103119 271.29266 
L 381.596815 280.2981 
L 382.090511 282.120496 
L 382.584207 274.012235 
L 383.571599 247.298712 
L 384.065295 258.558316 
L 385.052687 294.395035 
L 385.546384 287.520396 
L 386.04008 282.84427 
L 387.027472 262.541153 
L 387.521168 269.75624 
L 388.014864 286.365277 
L 388.50856 287.133487 
L 389.002256 278.043936 
L 389.495952 279.251075 
L 389.989648 289.64559 
L 390.483344 265.264734 
L 390.97704 254.296713 
L 391.470737 266.34135 
L 391.964433 281.212102 
L 392.458129 280.006517 
L 393.939217 252.973373 
L 394.432913 250.573418 
L 394.926609 251.638818 
L 395.420305 266.644148 
L 395.914001 275.038385 
L 396.407697 269.576804 
L 396.901393 269.374938 
L 397.39509 277.337407 
L 397.888786 290.643703 
L 398.382482 307.187761 
L 398.876178 254.829413 
L 399.369874 246.584114 
L 399.86357 247.468149 
L 400.357266 250.607062 
L 400.850962 254.54024 
L 401.344658 241.141817 
L 401.838354 242.476372 
L 402.33205 238.214768 
L 402.825747 241.4334 
L 403.319443 252.491139 
L 403.813139 256.02984 
L 404.800531 235.954997 
L 405.294227 234.951277 
L 405.787923 243.99597 
L 406.281619 259.236808 
L 406.775315 262.803097 
L 407.269011 260.268565 
L 407.762707 262.147035 
L 408.256403 262.579402 
L 408.7501 228.118733 
L 409.243796 238.113836 
L 410.231188 283.572806 
L 410.724884 293.177114 
L 411.21858 255.762063 
L 411.712276 261.003131 
L 412.205972 288.955883 
L 412.699668 300.193058 
L 413.193364 292.746467 
L 413.68706 290.335297 
L 414.180756 308.46954 
L 414.674453 314.676902 
L 415.661845 284.705495 
L 416.155541 271.22554 
L 416.649237 243.053931 
L 417.142933 205.961834 
L 417.636629 218.655131 
L 418.624021 302.748849 
L 419.117717 286.051264 
L 419.611413 288.39795 
L 420.105109 287.509181 
L 420.598806 285.305484 
L 421.092502 267.474039 
L 421.586198 263.380657 
L 422.079894 262.528336 
L 422.57359 258.642427 
L 423.067286 261.692838 
L 423.560982 262.988141 
L 424.054678 263.515234 
L 424.548374 259.80876 
L 425.04207 238.769898 
L 425.535766 232.125162 
L 426.029463 241.231535 
L 426.523159 259.819975 
L 427.016855 288.249355 
L 427.510551 285.255018 
L 428.004247 269.705773 
L 428.497943 259.242416 
L 428.991639 245.240806 
L 429.485335 244.97726 
L 429.979031 249.003353 
L 430.472727 243.300655 
L 430.966423 252.216378 
L 431.460119 248.358505 
L 431.953816 249.810815 
L 432.941208 282.142926 
L 433.434904 278.268231 
L 433.9286 261.519009 
L 434.915992 279.137374 
L 435.409688 267.148811 
L 435.903384 264.44045 
L 436.39708 279.541105 
L 436.890776 283.079357 
L 437.384472 273.586075 
L 437.878169 252.653753 
L 438.371865 248.083744 
L 438.865561 277.494414 
L 439.359257 296.940782 
L 439.852953 288.316643 
L 440.840345 243.76046 
L 441.334041 253.629436 
L 441.827737 258.423739 
L 442.321433 237.278337 
L 442.815129 240.014735 
L 443.308825 235.915746 
L 443.802522 220.147814 
L 444.296218 228.160749 
L 444.789914 272.543104 
L 445.28361 306.310702 
L 445.777306 269.537552 
L 446.271002 224.280447 
L 446.764698 234.928848 
L 447.258394 259.870442 
L 447.75209 255.160248 
L 448.245786 239.02223 
L 448.739482 243.575417 
L 449.233179 256.051821 
L 449.726875 257.117222 
L 450.220571 252.513569 
L 450.714267 242.616556 
L 451.207963 243.749245 
L 451.701659 242.353009 
L 452.195355 242.43712 
L 452.689051 246.737975 
L 453.182747 255.664912 
L 453.676443 228.306541 
L 454.170139 211.265735 
L 454.663835 186.374608 
L 455.157532 188.415692 
L 455.651228 235.876494 
L 456.144924 246.743582 
L 456.63862 216.12172 
L 457.132316 207.783557 
L 457.626012 219.766512 
L 458.119708 221.588908 
L 459.1071 178.799048 
L 459.600796 167.466547 
L 460.588188 200.981814 
L 461.575581 247.960382 
L 462.069277 256.405085 
L 462.562973 257.07797 
L 463.056669 252.137875 
L 463.550365 267.064701 
L 464.044061 252.603287 
L 464.537757 160.575087 
L 465.031453 145.289389 
L 465.525149 197.073475 
L 466.512541 264.188118 
L 467.499934 299.800542 
L 467.99363 228.715879 
L 468.487326 237.603565 
L 468.981022 265.376881 
L 469.474718 240.979203 
L 469.968414 198.329527 
L 470.46211 231.727038 
L 470.955806 242.644593 
L 471.449502 211.119944 
L 471.943198 193.697837 
L 472.930591 289.3484 
L 473.424287 254.100455 
L 473.917983 261.967599 
L 474.411679 224.235588 
L 474.905375 207.469544 
L 475.399071 222.744027 
L 475.892767 274.601009 
L 476.386463 291.372661 
L 476.880159 174.918746 
L 477.373855 188.03439 
L 477.867551 251.487419 
L 478.361248 165.829195 
L 478.854944 125.366394 
L 479.34864 110.809654 
L 479.842336 159.206888 
L 480.336032 141.409087 
L 480.829728 112.878775 
L 481.323424 127.867282 
L 481.81712 153.156532 
L 482.804512 264.720819 
L 483.298208 216.037609 
L 483.791904 224.201944 
L 484.285601 250.511737 
L 484.779297 252.216378 
L 485.272993 284.312979 
L 485.766689 189.571647 
L 486.260385 157.087301 
L 486.754081 194.561372 
L 487.247777 162.212144 
L 487.741473 240.571532 
L 488.235169 205.02473 
L 488.728865 202.321976 
L 489.716257 236.762459 
L 490.209954 226.467323 
L 490.70365 267.389928 
L 491.197346 317.559209 
L 491.691042 268.595513 
L 492.184738 233.639152 
L 492.678434 236.958717 
L 493.17213 182.071964 
L 493.665826 175.40098 
L 494.159522 203.471487 
L 494.653218 158.108964 
L 495.146914 177.223376 
L 496.134307 288.10917 
L 496.628003 301.073416 
L 497.121699 324.98886 
L 497.615395 369.36 
L 498.109091 299.656559 
L 498.109091 299.656559 
" clip-path="url(#p507d538314)" style="fill: none; stroke: #1f77b4; stroke-width: 1.5; stroke-linecap: round"/>
   </g>
   <g id="line2d_15">
    <path d="M 92.290909 213.766719 
L 92.784605 209.240965 
L 93.278301 208.164042 
L 94.265693 214.783168 
L 94.75939 203.795397 
L 95.253086 196.943879 
L 95.746782 204.064619 
L 96.240478 196.777746 
L 96.734174 200.521918 
L 97.22787 211.378659 
L 97.721566 213.30078 
L 98.708958 208.710854 
L 99.202654 197.944093 
L 99.69635 192.557202 
L 100.190046 194.495858 
L 100.683743 185.945991 
L 101.177439 199.620843 
L 101.671135 196.884282 
L 102.164831 202.431777 
L 102.658527 204.931345 
L 103.152223 208.883646 
L 103.645919 207.203487 
L 104.633311 195.301554 
L 105.127007 217.094362 
L 105.620703 224.477876 
L 106.114399 224.986171 
L 106.608096 213.247242 
L 107.101792 219.339073 
L 107.595488 223.210167 
L 108.089184 214.613282 
L 108.58288 218.137945 
L 109.076576 198.159905 
L 109.570272 204.605783 
L 110.063968 208.809077 
L 110.557664 220.520732 
L 111.05136 206.130864 
L 111.545056 213.589597 
L 112.038752 204.274393 
L 112.532449 197.30642 
L 113.026145 212.662584 
L 113.519841 207.492285 
L 114.507233 214.959329 
L 115.000929 198.225285 
L 115.494625 216.37749 
L 115.988321 226.286 
L 116.482017 226.367108 
L 116.975713 208.444573 
L 117.469409 211.848703 
L 117.963106 223.545741 
L 118.456802 217.68653 
L 118.950498 220.896018 
L 119.444194 222.834997 
L 119.93789 218.12073 
L 120.431586 227.536477 
L 120.925282 227.494798 
L 121.912674 223.717416 
L 122.900066 226.251673 
L 123.393762 199.148716 
L 123.887459 197.430287 
L 124.381155 210.976114 
L 125.368547 212.411967 
L 125.862243 209.557494 
L 126.355939 194.172473 
L 126.849635 213.472412 
L 127.343331 220.944076 
L 127.837027 221.078878 
L 128.330723 213.579452 
L 128.824419 212.41139 
L 129.318115 219.776106 
L 129.811812 224.114577 
L 130.305508 225.929439 
L 130.799204 224.744037 
L 131.2929 225.739459 
L 131.786596 228.583572 
L 132.280292 230.224418 
L 132.773988 226.632932 
L 133.267684 228.029606 
L 133.76138 225.61229 
L 134.255076 225.783334 
L 134.748772 229.661233 
L 135.242468 224.572273 
L 135.736165 229.739144 
L 136.229861 227.313567 
L 136.723557 224.031178 
L 137.217253 217.936781 
L 137.710949 217.985804 
L 138.204645 218.356213 
L 138.698341 213.717143 
L 139.192037 218.200924 
L 139.685733 224.090221 
L 140.179429 234.439381 
L 140.673125 238.292527 
L 141.166821 223.127381 
L 141.660518 233.162868 
L 142.154214 239.206375 
L 142.64791 229.7564 
L 143.141606 242.44937 
L 143.635302 237.705236 
L 144.128998 242.905107 
L 144.622694 239.378614 
L 145.11639 243.615206 
L 145.610086 244.078659 
L 146.103782 251.751307 
L 146.597478 250.669094 
L 147.091175 242.435944 
L 147.584871 236.236512 
L 148.078567 240.545432 
L 148.572263 233.623975 
L 149.065959 236.425948 
L 149.559655 237.467712 
L 150.053351 224.161284 
L 150.547047 231.805192 
L 151.040743 245.054977 
L 151.534439 245.302236 
L 152.028135 243.827133 
L 153.015528 240.09802 
L 153.509224 235.532315 
L 154.496616 250.485377 
L 154.990312 231.213899 
L 155.484008 227.605807 
L 155.977704 240.1721 
L 156.4714 239.715619 
L 156.965096 240.597994 
L 157.458792 230.764385 
L 157.952488 234.284159 
L 158.446184 245.729844 
L 158.939881 242.642134 
L 159.433577 247.603474 
L 159.927273 248.904521 
L 160.420969 240.656935 
L 160.914665 235.551196 
L 161.408361 237.427167 
L 161.902057 228.272655 
L 162.395753 230.286125 
L 162.889449 228.97927 
L 163.383145 229.144363 
L 163.876841 252.222118 
L 164.370537 241.808219 
L 164.864234 256.053995 
L 165.35793 253.19547 
L 165.851626 257.520402 
L 166.839018 251.692383 
L 167.332714 254.100755 
L 167.82641 257.289698 
L 168.320106 256.515823 
L 168.813802 253.141897 
L 169.307498 254.000449 
L 169.801194 255.451549 
L 170.294891 254.649864 
L 170.788587 252.026609 
L 171.282283 257.556757 
L 171.775979 260.148746 
L 172.269675 251.314782 
L 172.763371 257.641765 
L 173.257067 256.311706 
L 173.750763 264.092782 
L 174.244459 259.035755 
L 174.738155 256.718893 
L 175.231851 267.895295 
L 175.725547 269.460068 
L 176.219244 272.969618 
L 176.71294 282.488765 
L 177.206636 274.072493 
L 177.700332 269.650999 
L 178.194028 259.4201 
L 178.687724 259.248298 
L 179.18142 263.105072 
L 179.675116 271.735148 
L 180.168812 268.500097 
L 180.662508 272.944819 
L 181.156204 271.189434 
L 181.6499 264.140825 
L 182.143597 268.727061 
L 182.637293 269.54903 
L 183.130989 266.096418 
L 183.624685 259.95902 
L 184.118381 267.702899 
L 184.612077 270.361237 
L 185.105773 272.250086 
L 185.599469 269.116107 
L 186.093165 268.037604 
L 186.586861 271.089575 
L 187.080557 274.954302 
L 187.574253 274.873932 
L 188.06795 273.373909 
L 188.561646 274.167935 
L 189.055342 279.842224 
L 189.549038 279.120703 
L 190.042734 273.991929 
L 190.53643 278.101934 
L 191.030126 277.911262 
L 191.523822 280.389712 
L 192.017518 270.341709 
L 192.511214 269.135333 
L 193.00491 267.108114 
L 193.498607 270.39134 
L 193.992303 271.707499 
L 194.485999 271.987201 
L 194.979695 268.72751 
L 195.473391 272.363206 
L 195.967087 273.639631 
L 196.460783 264.335403 
L 196.954479 258.323338 
L 197.448175 269.442096 
L 197.941871 273.254515 
L 198.435567 272.830638 
L 199.42296 268.214092 
L 200.410352 273.756342 
L 200.904048 273.779006 
L 201.397744 268.089074 
L 201.89144 263.883986 
L 202.385136 266.378917 
L 202.878832 265.828094 
L 203.372528 267.706672 
L 203.866224 256.730804 
L 204.35992 254.144498 
L 204.853616 260.996301 
L 205.347313 257.896519 
L 205.841009 256.832352 
L 206.334705 255.165486 
L 206.828401 262.246177 
L 207.322097 263.10326 
L 207.815793 259.079104 
L 208.309489 260.257573 
L 208.803185 260.391102 
L 209.296881 262.908975 
L 209.790577 266.32842 
L 210.284273 256.705412 
L 210.777969 252.052725 
L 211.271666 251.976874 
L 211.765362 254.598452 
L 212.259058 252.218291 
L 212.752754 252.081261 
L 213.24645 251.561419 
L 213.740146 251.826749 
L 214.233842 260.427405 
L 214.727538 250.797858 
L 215.221234 253.726574 
L 215.71493 259.355423 
L 216.208626 253.88743 
L 216.702322 254.780545 
L 217.196019 253.585587 
L 217.689715 250.208157 
L 218.183411 256.493391 
L 218.677107 252.503831 
L 219.170803 251.078255 
L 219.664499 250.87552 
L 220.158195 253.193103 
L 220.651891 252.609827 
L 221.145587 254.196063 
L 221.639283 252.249763 
L 222.132979 253.666997 
L 222.626676 252.39828 
L 223.120372 253.821644 
L 223.614068 252.648901 
L 224.107764 252.352952 
L 224.60146 251.812625 
L 225.095156 252.938884 
L 225.588852 257.022307 
L 226.082548 256.932887 
L 226.576244 255.703863 
L 227.06994 256.229309 
L 227.563636 261.876914 
L 228.057332 251.106137 
L 228.551029 250.314023 
L 229.044725 246.634429 
L 229.538421 251.17716 
L 230.032117 251.025963 
L 230.525813 250.49252 
L 231.019509 269.320292 
L 231.513205 266.546422 
L 232.006901 265.786125 
L 232.500597 257.143117 
L 232.994293 250.831894 
L 233.487989 251.180656 
L 233.981685 251.222569 
L 234.475382 250.188424 
L 234.969078 250.805112 
L 235.462774 254.174667 
L 235.95647 253.804757 
L 236.450166 255.55639 
L 236.943862 254.94273 
L 237.437558 252.983468 
L 237.931254 252.922604 
L 238.42495 248.633198 
L 238.918646 248.261861 
L 239.412342 248.292954 
L 239.906038 245.598478 
L 240.399735 240.091968 
L 240.893431 241.065687 
L 241.387127 247.371961 
L 241.880823 250.954205 
L 242.374519 252.455472 
L 242.868215 251.327096 
L 243.361911 243.896329 
L 243.855607 245.259004 
L 244.349303 246.14074 
L 244.842999 241.658877 
L 245.336695 241.309445 
L 245.830392 244.390508 
L 246.324088 248.408531 
L 246.817784 250.058287 
L 247.31148 255.175481 
L 247.805176 249.311567 
L 248.298872 251.255995 
L 248.792568 247.656209 
L 249.286264 251.467151 
L 249.77996 252.043524 
L 250.273656 246.982978 
L 250.767352 247.150568 
L 251.261048 249.914772 
L 251.754745 241.12487 
L 252.248441 238.539812 
L 253.235833 231.986291 
L 253.729529 230.860818 
L 254.223225 234.126483 
L 254.716921 232.029972 
L 255.210617 243.414536 
L 256.198009 239.744459 
L 256.691705 225.868767 
L 257.185401 233.382178 
L 257.679098 234.185364 
L 258.172794 238.628002 
L 259.160186 235.188274 
L 259.653882 228.281682 
L 260.147578 243.296933 
L 260.641274 240.557778 
L 261.13497 241.028442 
L 261.628666 242.902984 
L 262.122362 243.939356 
L 262.616058 244.46202 
L 263.109754 238.733263 
L 263.603451 236.417154 
L 264.097147 239.084517 
L 265.084539 231.488521 
L 266.071931 220.07838 
L 266.565627 223.877747 
L 267.059323 229.721711 
L 267.553019 231.206155 
L 268.046715 221.079316 
L 268.540411 231.463411 
L 269.034107 210.888444 
L 269.527804 206.538243 
L 270.0215 207.264642 
L 270.515196 194.512485 
L 271.008892 200.169263 
L 271.502588 213.454231 
L 271.996284 200.773035 
L 272.48998 202.597683 
L 272.983676 211.011386 
L 273.477372 200.307766 
L 273.971068 200.604575 
L 274.464764 210.012361 
L 274.958461 223.959406 
L 275.452157 210.611614 
L 275.945853 204.385044 
L 276.439549 204.510844 
L 276.933245 209.812612 
L 277.426941 205.505799 
L 277.920637 209.285369 
L 278.414333 216.164584 
L 278.908029 226.125997 
L 279.401725 222.780707 
L 279.895421 224.441842 
L 280.389117 216.805027 
L 280.882814 223.918185 
L 281.37651 225.564198 
L 281.870206 216.416664 
L 282.363902 224.372239 
L 282.857598 218.110172 
L 283.351294 217.444027 
L 283.84499 219.411855 
L 284.338686 217.942044 
L 284.832382 210.819063 
L 285.326078 214.311845 
L 285.819774 215.453253 
L 286.31347 215.093459 
L 287.794559 230.862356 
L 288.288255 233.041523 
L 289.769343 200.01301 
L 290.263039 209.553042 
L 290.756735 212.675564 
L 291.250431 209.213353 
L 291.744127 209.160288 
L 292.237823 228.384853 
L 292.73152 227.997911 
L 293.225216 211.375308 
L 294.212608 223.504781 
L 294.706304 201.52966 
L 295.2 218.890411 
L 295.693696 230.629347 
L 296.187392 232.490843 
L 296.681088 208.653415 
L 297.174784 211.092534 
L 297.66848 218.363348 
L 298.162177 212.101707 
L 298.655873 199.030201 
L 299.149569 215.570209 
L 299.643265 221.168136 
L 300.136961 197.815532 
L 300.630657 207.745103 
L 301.124353 210.267597 
L 301.618049 213.66915 
L 302.111745 222.168306 
L 302.605441 221.493762 
L 303.099137 216.770058 
L 303.592833 205.746223 
L 304.580226 214.273367 
L 305.073922 210.442102 
L 305.567618 215.81091 
L 306.061314 215.687152 
L 306.55501 211.557321 
L 307.048706 219.796997 
L 307.542402 220.327275 
L 308.036098 221.997374 
L 308.529794 230.979204 
L 309.517186 226.302854 
L 310.504579 209.728125 
L 310.998275 214.140555 
L 311.491971 225.21043 
L 311.985667 210.438687 
L 312.479363 217.352616 
L 312.973059 209.943099 
L 313.466755 221.146109 
L 313.960451 223.192447 
L 314.454147 213.745496 
L 315.441539 239.083836 
L 315.935236 233.804693 
L 316.428932 235.913788 
L 317.416324 221.941586 
L 317.91002 217.804298 
L 318.403716 225.210074 
L 318.897412 225.112286 
L 319.391108 222.829386 
L 319.884804 218.624523 
L 320.3785 225.138844 
L 321.365893 231.970866 
L 321.859589 225.973495 
L 322.353285 222.418723 
L 322.846981 229.891971 
L 323.340677 243.45087 
L 324.328069 221.068189 
L 324.821765 241.729086 
L 325.315461 215.252477 
L 325.809157 244.721431 
L 326.302853 201.93346 
L 327.290246 229.839596 
L 327.783942 233.680624 
L 328.277638 227.331583 
L 328.771334 226.194848 
L 329.26503 235.692932 
L 329.758726 247.96223 
L 330.252422 244.439634 
L 330.746118 234.058835 
L 331.239814 242.986681 
L 331.73351 244.644476 
L 332.227206 241.37338 
L 333.214599 251.315315 
L 333.708295 247.071209 
L 334.201991 247.49658 
L 334.695687 248.605873 
L 335.189383 244.619913 
L 335.683079 245.502728 
L 336.176775 234.246854 
L 336.670471 243.763948 
L 337.164167 248.975452 
L 337.657863 239.454225 
L 338.645255 256.312846 
L 339.138952 257.691556 
L 340.126344 248.152088 
L 340.62004 244.006278 
L 341.113736 244.775187 
L 341.607432 253.798611 
L 342.101128 253.361083 
L 342.594824 244.916104 
L 343.08852 239.289667 
L 343.582216 248.102928 
L 344.075912 251.674124 
L 344.569608 253.329384 
L 345.063305 251.206669 
L 345.557001 260.739054 
L 346.050697 261.70905 
L 346.544393 252.561478 
L 347.038089 260.020129 
L 348.025481 241.716745 
L 349.012873 255.172334 
L 349.506569 255.591551 
L 350.000265 266.084304 
L 350.493962 264.381436 
L 350.987658 269.085497 
L 351.481354 266.578844 
L 351.97505 255.06948 
L 352.962442 264.954262 
L 353.456138 269.867458 
L 353.949834 257.255601 
L 354.44353 264.948244 
L 354.937226 256.491921 
L 355.430922 256.208301 
L 355.924618 267.094185 
L 356.418315 263.410257 
L 356.912011 254.652551 
L 357.405707 258.337384 
L 357.899403 266.871885 
L 358.393099 254.062556 
L 358.886795 256.077118 
L 359.380491 261.800876 
L 359.874187 252.406772 
L 360.861579 241.278836 
L 361.355275 253.894978 
L 361.848971 252.468122 
L 362.836364 265.879861 
L 363.823756 260.78396 
L 364.811148 271.375863 
L 365.79854 264.069151 
L 367.279628 274.516966 
L 368.267021 256.60565 
L 368.760717 252.76679 
L 369.254413 259.104161 
L 369.748109 267.915147 
L 370.241805 252.344494 
L 370.735501 257.198327 
L 371.229197 253.606064 
L 371.722893 257.847565 
L 372.216589 267.600167 
L 372.710285 258.748417 
L 373.203981 260.92425 
L 373.697678 261.648093 
L 374.191374 270.051216 
L 374.68507 254.532566 
L 375.178766 251.384568 
L 375.672462 250.257351 
L 376.166158 251.144747 
L 376.659854 243.492177 
L 377.15355 254.20628 
L 377.647246 251.710799 
L 378.634638 256.034633 
L 379.128334 254.78555 
L 379.622031 261.988202 
L 380.115727 252.170679 
L 380.609423 255.987218 
L 381.103119 255.632489 
L 381.596815 267.776776 
L 382.090511 265.423842 
L 382.584207 253.026118 
L 383.077903 251.486781 
L 383.571599 251.533742 
L 384.065295 249.766536 
L 384.558991 248.795964 
L 385.052687 240.822194 
L 385.546384 241.94581 
L 386.04008 246.727217 
L 386.533776 248.043709 
L 387.027472 252.714466 
L 387.521168 254.906021 
L 388.014864 251.272887 
L 388.50856 251.44801 
L 389.002256 255.248887 
L 389.495952 253.413502 
L 389.989648 259.580849 
L 390.483344 257.675721 
L 390.97704 252.004226 
L 391.964433 260.58196 
L 392.458129 255.539467 
L 392.951825 254.867626 
L 393.445521 251.962716 
L 393.939217 261.563593 
L 394.432913 246.746785 
L 394.926609 245.802819 
L 395.420305 241.427736 
L 395.914001 251.511649 
L 396.407697 250.149987 
L 396.901393 253.184382 
L 397.39509 252.634534 
L 397.888786 253.171576 
L 398.382482 249.33694 
L 398.876178 238.705967 
L 399.369874 242.188388 
L 400.357266 246.525054 
L 400.850962 254.258574 
L 401.344658 250.252555 
L 401.838354 251.982729 
L 402.33205 249.650944 
L 402.825747 244.717088 
L 403.319443 243.220054 
L 403.813139 252.755848 
L 404.800531 253.94067 
L 405.294227 252.914547 
L 405.787923 250.317455 
L 406.281619 250.03042 
L 406.775315 253.53843 
L 407.269011 246.754503 
L 407.762707 248.475378 
L 408.256403 244.688479 
L 408.7501 245.521181 
L 409.243796 250.94249 
L 409.737492 250.163138 
L 410.231188 260.977388 
L 410.724884 246.955694 
L 411.21858 244.740604 
L 412.205972 250.000549 
L 412.699668 250.233476 
L 413.193364 249.241302 
L 413.68706 248.560152 
L 414.180756 251.508449 
L 414.674453 248.46731 
L 415.168149 250.120736 
L 415.661845 240.82028 
L 416.155541 239.009791 
L 416.649237 238.836155 
L 417.142933 235.532141 
L 417.636629 237.732091 
L 418.130325 244.65342 
L 418.624021 240.938186 
L 419.117717 246.195616 
L 419.611413 246.680987 
L 420.105109 246.42293 
L 420.598806 246.723766 
L 421.092502 247.685072 
L 421.586198 256.706335 
L 422.079894 253.921224 
L 422.57359 258.913122 
L 423.067286 252.141779 
L 423.560982 258.572127 
L 424.054678 259.486119 
L 424.548374 255.082218 
L 425.04207 255.44295 
L 425.535766 251.558436 
L 426.029463 250.18118 
L 426.523159 249.9365 
L 427.016855 251.678201 
L 427.510551 249.76282 
L 428.004247 251.933735 
L 428.497943 252.411009 
L 428.991639 250.760975 
L 429.485335 258.8012 
L 429.979031 251.491031 
L 430.472727 251.903385 
L 430.966423 252.96657 
L 431.460119 247.74793 
L 431.953816 246.664075 
L 432.447512 239.5296 
L 432.941208 239.757753 
L 433.434904 244.20992 
L 433.9286 244.940489 
L 434.422296 250.341163 
L 434.915992 252.427437 
L 435.409688 250.758132 
L 435.903384 251.936351 
L 436.39708 255.731317 
L 436.890776 252.354807 
L 437.384472 252.349303 
L 437.878169 247.306017 
L 438.371865 248.131472 
L 438.865561 239.088739 
L 439.359257 240.722036 
L 439.852953 253.768822 
L 440.346649 260.317115 
L 440.840345 252.818342 
L 441.334041 243.033091 
L 441.827737 245.35211 
L 442.321433 233.507738 
L 442.815129 241.657396 
L 443.308825 244.14912 
L 443.802522 239.938717 
L 444.296218 242.239354 
L 444.789914 239.380323 
L 445.28361 245.808292 
L 445.777306 254.810303 
L 446.271002 251.736776 
L 446.764698 252.194772 
L 447.258394 248.59895 
L 447.75209 249.6935 
L 448.245786 257.227954 
L 448.739482 250.881902 
L 449.233179 249.654617 
L 449.726875 252.065003 
L 450.714267 243.68363 
L 451.701659 251.552986 
L 452.195355 249.588551 
L 452.689051 242.049798 
L 453.182747 244.369839 
L 453.676443 238.434506 
L 454.663835 246.94633 
L 455.157532 249.345437 
L 455.651228 249.455769 
L 456.144924 246.282862 
L 456.63862 245.857499 
L 457.132316 219.597627 
L 457.626012 219.502895 
L 458.119708 214.824285 
L 458.613404 220.49845 
L 459.1071 218.211438 
L 459.600796 218.089619 
L 460.094492 241.674398 
L 460.588188 237.401905 
L 461.081885 224.068993 
L 461.575581 229.185051 
L 462.069277 238.878801 
L 462.562973 228.727755 
L 463.056669 222.195271 
L 463.550365 225.864599 
L 464.044061 226.876758 
L 464.537757 241.236145 
L 465.031453 234.329064 
L 465.525149 222.781731 
L 466.018845 225.160996 
L 466.512541 208.819251 
L 467.006238 222.453003 
L 467.499934 225.737664 
L 467.99363 221.568058 
L 468.487326 216.077568 
L 469.474718 239.666784 
L 469.968414 210.637806 
L 470.46211 217.653931 
L 470.955806 242.632819 
L 471.449502 234.248636 
L 472.436894 224.904968 
L 472.930591 226.239608 
L 473.424287 228.373617 
L 473.917983 225.109008 
L 474.411679 237.743509 
L 474.905375 232.081012 
L 475.399071 222.416201 
L 475.892767 237.890751 
L 476.386463 241.883621 
L 476.880159 241.077395 
L 477.373855 230.482673 
L 477.867551 205.33134 
L 478.361248 205.420368 
L 478.854944 207.887721 
L 479.34864 205.208021 
L 479.842336 199.464564 
L 480.336032 201.057134 
L 480.829728 211.703649 
L 481.323424 214.334854 
L 481.81712 204.0611 
L 482.310816 197.397833 
L 482.804512 201.362334 
L 483.298208 210.615986 
L 483.791904 197.588403 
L 484.285601 191.358211 
L 484.779297 194.255963 
L 485.272993 203.086424 
L 485.766689 200.895544 
L 486.260385 202.336989 
L 486.754081 197.397164 
L 487.247777 198.851273 
L 487.741473 202.658595 
L 488.235169 209.028136 
L 488.728865 207.846542 
L 489.222561 203.92337 
L 489.716257 213.886499 
L 490.209954 207.214431 
L 491.197346 227.565649 
L 491.691042 207.227881 
L 492.184738 201.027029 
L 492.678434 205.578457 
L 493.17213 217.2586 
L 493.665826 219.006434 
L 494.159522 215.786758 
L 494.653218 218.874617 
L 495.146914 215.230886 
L 495.64061 214.271613 
L 496.134307 223.164708 
L 496.134307 223.164708 
" clip-path="url(#p507d538314)" style="fill: none; stroke: #ff7f0e; stroke-width: 1.5; stroke-linecap: round"/>
   </g>
   <g id="patch_3">
    <path d="M 72 384.48 
L 72 51.84 
" style="fill: none; stroke: #ffffff; stroke-width: 0.8; stroke-linejoin: miter; stroke-linecap: square"/>
   </g>
   <g id="patch_4">
    <path d="M 518.4 384.48 
L 518.4 51.84 
" style="fill: none; stroke: #ffffff; stroke-width: 0.8; stroke-linejoin: miter; stroke-linecap: square"/>
   </g>
   <g id="patch_5">
    <path d="M 72 384.48 
L 518.4 384.48 
" style="fill: none; stroke: #ffffff; stroke-width: 0.8; stroke-linejoin: miter; stroke-linecap: square"/>
   </g>
   <g id="patch_6">
    <path d="M 72 51.84 
L 518.4 51.84 
" style="fill: none; stroke: #ffffff; stroke-width: 0.8; stroke-linejoin: miter; stroke-linecap: square"/>
   </g>
   <g id="text_16">
    <!-- Average Pressure Prediction 34 Days Ahead -->
    <g style="fill: #262626" transform="translate(176.57625 45.84) scale(0.12 -0.12)">
     <defs>
      <path id="ArialMT-41" d="M -9 0 
L 1750 4581 
L 2403 4581 
L 4278 0 
L 3588 0 
L 3053 1388 
L 1138 1388 
L 634 0 
L -9 0 
z
M 1313 1881 
L 2866 1881 
L 2388 3150 
Q 2169 3728 2063 4100 
Q 1975 3659 1816 3225 
L 1313 1881 
z
" transform="scale(0.015625)"/>
      <path id="ArialMT-76" d="M 1344 0 
L 81 3319 
L 675 3319 
L 1388 1331 
Q 1503 1009 1600 663 
Q 1675 925 1809 1294 
L 2547 3319 
L 3125 3319 
L 1869 0 
L 1344 0 
z
" transform="scale(0.015625)"/>
      <path id="ArialMT-65" d="M 2694 1069 
L 3275 997 
Q 3138 488 2766 206 
Q 2394 -75 1816 -75 
Q 1088 -75 661 373 
Q 234 822 234 1631 
Q 234 2469 665 2931 
Q 1097 3394 1784 3394 
Q 2450 3394 2872 2941 
Q 3294 2488 3294 1666 
Q 3294 1616 3291 1516 
L 816 1516 
Q 847 969 1125 678 
Q 1403 388 1819 388 
Q 2128 388 2347 550 
Q 2566 713 2694 1069 
z
M 847 1978 
L 2700 1978 
Q 2663 2397 2488 2606 
Q 2219 2931 1791 2931 
Q 1403 2931 1139 2672 
Q 875 2413 847 1978 
z
" transform="scale(0.015625)"/>
      <path id="ArialMT-72" d="M 416 0 
L 416 3319 
L 922 3319 
L 922 2816 
Q 1116 3169 1280 3281 
Q 1444 3394 1641 3394 
Q 1925 3394 2219 3213 
L 2025 2691 
Q 1819 2813 1613 2813 
Q 1428 2813 1281 2702 
Q 1134 2591 1072 2394 
Q 978 2094 978 1738 
L 978 0 
L 416 0 
z
" transform="scale(0.015625)"/>
      <path id="ArialMT-67" d="M 319 -275 
L 866 -356 
Q 900 -609 1056 -725 
Q 1266 -881 1628 -881 
Q 2019 -881 2231 -725 
Q 2444 -569 2519 -288 
Q 2563 -116 2559 434 
Q 2191 0 1641 0 
Q 956 0 581 494 
Q 206 988 206 1678 
Q 206 2153 378 2554 
Q 550 2956 876 3175 
Q 1203 3394 1644 3394 
Q 2231 3394 2613 2919 
L 2613 3319 
L 3131 3319 
L 3131 450 
Q 3131 -325 2973 -648 
Q 2816 -972 2473 -1159 
Q 2131 -1347 1631 -1347 
Q 1038 -1347 672 -1080 
Q 306 -813 319 -275 
z
M 784 1719 
Q 784 1066 1043 766 
Q 1303 466 1694 466 
Q 2081 466 2343 764 
Q 2606 1063 2606 1700 
Q 2606 2309 2336 2618 
Q 2066 2928 1684 2928 
Q 1309 2928 1046 2623 
Q 784 2319 784 1719 
z
" transform="scale(0.015625)"/>
      <path id="ArialMT-20" transform="scale(0.015625)"/>
      <path id="ArialMT-75" d="M 2597 0 
L 2597 488 
Q 2209 -75 1544 -75 
Q 1250 -75 995 37 
Q 741 150 617 320 
Q 494 491 444 738 
Q 409 903 409 1263 
L 409 3319 
L 972 3319 
L 972 1478 
Q 972 1038 1006 884 
Q 1059 663 1231 536 
Q 1403 409 1656 409 
Q 1909 409 2131 539 
Q 2353 669 2445 892 
Q 2538 1116 2538 1541 
L 2538 3319 
L 3100 3319 
L 3100 0 
L 2597 0 
z
" transform="scale(0.015625)"/>
      <path id="ArialMT-64" d="M 2575 0 
L 2575 419 
Q 2259 -75 1647 -75 
Q 1250 -75 917 144 
Q 584 363 401 755 
Q 219 1147 219 1656 
Q 219 2153 384 2558 
Q 550 2963 881 3178 
Q 1213 3394 1622 3394 
Q 1922 3394 2156 3267 
Q 2391 3141 2538 2938 
L 2538 4581 
L 3097 4581 
L 3097 0 
L 2575 0 
z
M 797 1656 
Q 797 1019 1065 703 
Q 1334 388 1700 388 
Q 2069 388 2326 689 
Q 2584 991 2584 1609 
Q 2584 2291 2321 2609 
Q 2059 2928 1675 2928 
Q 1300 2928 1048 2622 
Q 797 2316 797 1656 
z
" transform="scale(0.015625)"/>
      <path id="ArialMT-69" d="M 425 3934 
L 425 4581 
L 988 4581 
L 988 3934 
L 425 3934 
z
M 425 0 
L 425 3319 
L 988 3319 
L 988 0 
L 425 0 
z
" transform="scale(0.015625)"/>
      <path id="ArialMT-63" d="M 2588 1216 
L 3141 1144 
Q 3050 572 2676 248 
Q 2303 -75 1759 -75 
Q 1078 -75 664 370 
Q 250 816 250 1647 
Q 250 2184 428 2587 
Q 606 2991 970 3192 
Q 1334 3394 1763 3394 
Q 2303 3394 2647 3120 
Q 2991 2847 3088 2344 
L 2541 2259 
Q 2463 2594 2264 2762 
Q 2066 2931 1784 2931 
Q 1359 2931 1093 2626 
Q 828 2322 828 1663 
Q 828 994 1084 691 
Q 1341 388 1753 388 
Q 2084 388 2306 591 
Q 2528 794 2588 1216 
z
" transform="scale(0.015625)"/>
      <path id="ArialMT-74" d="M 1650 503 
L 1731 6 
Q 1494 -44 1306 -44 
Q 1000 -44 831 53 
Q 663 150 594 308 
Q 525 466 525 972 
L 525 2881 
L 113 2881 
L 113 3319 
L 525 3319 
L 525 4141 
L 1084 4478 
L 1084 3319 
L 1650 3319 
L 1650 2881 
L 1084 2881 
L 1084 941 
Q 1084 700 1114 631 
Q 1144 563 1211 522 
Q 1278 481 1403 481 
Q 1497 481 1650 503 
z
" transform="scale(0.015625)"/>
      <path id="ArialMT-6f" d="M 213 1659 
Q 213 2581 725 3025 
Q 1153 3394 1769 3394 
Q 2453 3394 2887 2945 
Q 3322 2497 3322 1706 
Q 3322 1066 3130 698 
Q 2938 331 2570 128 
Q 2203 -75 1769 -75 
Q 1072 -75 642 372 
Q 213 819 213 1659 
z
M 791 1659 
Q 791 1022 1069 705 
Q 1347 388 1769 388 
Q 2188 388 2466 706 
Q 2744 1025 2744 1678 
Q 2744 2294 2464 2611 
Q 2184 2928 1769 2928 
Q 1347 2928 1069 2612 
Q 791 2297 791 1659 
z
" transform="scale(0.015625)"/>
      <path id="ArialMT-6e" d="M 422 0 
L 422 3319 
L 928 3319 
L 928 2847 
Q 1294 3394 1984 3394 
Q 2284 3394 2536 3286 
Q 2788 3178 2913 3003 
Q 3038 2828 3088 2588 
Q 3119 2431 3119 2041 
L 3119 0 
L 2556 0 
L 2556 2019 
Q 2556 2363 2490 2533 
Q 2425 2703 2258 2804 
Q 2091 2906 1866 2906 
Q 1506 2906 1245 2678 
Q 984 2450 984 1813 
L 984 0 
L 422 0 
z
" transform="scale(0.015625)"/>
     </defs>
     <use xlink:href="#ArialMT-41"/>
     <use xlink:href="#ArialMT-76" x="64.949219"/>
     <use xlink:href="#ArialMT-65" x="114.949219"/>
     <use xlink:href="#ArialMT-72" x="170.564453"/>
     <use xlink:href="#ArialMT-61" x="203.865234"/>
     <use xlink:href="#ArialMT-67" x="259.480469"/>
     <use xlink:href="#ArialMT-65" x="315.095703"/>
     <use xlink:href="#ArialMT-20" x="370.710938"/>
     <use xlink:href="#ArialMT-50" x="398.494141"/>
     <use xlink:href="#ArialMT-72" x="465.193359"/>
     <use xlink:href="#ArialMT-65" x="498.494141"/>
     <use xlink:href="#ArialMT-73" x="554.109375"/>
     <use xlink:href="#ArialMT-73" x="604.109375"/>
     <use xlink:href="#ArialMT-75" x="654.109375"/>
     <use xlink:href="#ArialMT-72" x="709.724609"/>
     <use xlink:href="#ArialMT-65" x="743.025391"/>
     <use xlink:href="#ArialMT-20" x="798.640625"/>
     <use xlink:href="#ArialMT-50" x="826.423828"/>
     <use xlink:href="#ArialMT-72" x="893.123047"/>
     <use xlink:href="#ArialMT-65" x="926.423828"/>
     <use xlink:href="#ArialMT-64" x="982.039062"/>
     <use xlink:href="#ArialMT-69" x="1037.654297"/>
     <use xlink:href="#ArialMT-63" x="1059.871094"/>
     <use xlink:href="#ArialMT-74" x="1109.871094"/>
     <use xlink:href="#ArialMT-69" x="1137.654297"/>
     <use xlink:href="#ArialMT-6f" x="1159.871094"/>
     <use xlink:href="#ArialMT-6e" x="1215.486328"/>
     <use xlink:href="#ArialMT-20" x="1271.101562"/>
     <use xlink:href="#ArialMT-33" x="1298.884766"/>
     <use xlink:href="#ArialMT-34" x="1354.5"/>
     <use xlink:href="#ArialMT-20" x="1410.115234"/>
     <use xlink:href="#ArialMT-44" x="1437.898438"/>
     <use xlink:href="#ArialMT-61" x="1510.115234"/>
     <use xlink:href="#ArialMT-79" x="1565.730469"/>
     <use xlink:href="#ArialMT-73" x="1615.730469"/>
     <use xlink:href="#ArialMT-20" x="1665.730469"/>
     <use xlink:href="#ArialMT-41" x="1688.013672"/>
     <use xlink:href="#ArialMT-68" x="1754.712891"/>
     <use xlink:href="#ArialMT-65" x="1810.328125"/>
     <use xlink:href="#ArialMT-61" x="1865.943359"/>
     <use xlink:href="#ArialMT-64" x="1921.558594"/>
    </g>
   </g>
   <g id="legend_1">
    <g id="patch_7">
     <path d="M 437.15625 88.130625 
L 511.4 88.130625 
Q 513.4 88.130625 513.4 86.130625 
L 513.4 58.84 
Q 513.4 56.84 511.4 56.84 
L 437.15625 56.84 
Q 435.15625 56.84 435.15625 58.84 
L 435.15625 86.130625 
Q 435.15625 88.130625 437.15625 88.130625 
z
" style="fill: #eaeaf2; opacity: 0.8; stroke: #cccccc; stroke-linejoin: miter"/>
    </g>
    <g id="line2d_16">
     <path d="M 439.15625 64.497812 
L 449.15625 64.497812 
L 459.15625 64.497812 
" style="fill: none; stroke: #1f77b4; stroke-width: 1.5; stroke-linecap: round"/>
    </g>
    <g id="text_17">
     <!-- Real -->
     <g style="fill: #262626" transform="translate(467.15625 67.997812) scale(0.1 -0.1)">
      <defs>
       <path id="ArialMT-52" d="M 503 0 
L 503 4581 
L 2534 4581 
Q 3147 4581 3465 4457 
Q 3784 4334 3975 4021 
Q 4166 3709 4166 3331 
Q 4166 2844 3850 2509 
Q 3534 2175 2875 2084 
Q 3116 1969 3241 1856 
Q 3506 1613 3744 1247 
L 4541 0 
L 3778 0 
L 3172 953 
Q 2906 1366 2734 1584 
Q 2563 1803 2427 1890 
Q 2291 1978 2150 2013 
Q 2047 2034 1813 2034 
L 1109 2034 
L 1109 0 
L 503 0 
z
M 1109 2559 
L 2413 2559 
Q 2828 2559 3062 2645 
Q 3297 2731 3419 2920 
Q 3541 3109 3541 3331 
Q 3541 3656 3305 3865 
Q 3069 4075 2559 4075 
L 1109 4075 
L 1109 2559 
z
" transform="scale(0.015625)"/>
       <path id="ArialMT-6c" d="M 409 0 
L 409 4581 
L 972 4581 
L 972 0 
L 409 0 
z
" transform="scale(0.015625)"/>
      </defs>
      <use xlink:href="#ArialMT-52"/>
      <use xlink:href="#ArialMT-65" x="72.216797"/>
      <use xlink:href="#ArialMT-61" x="127.832031"/>
      <use xlink:href="#ArialMT-6c" x="183.447266"/>
     </g>
    </g>
    <g id="line2d_17">
     <path d="M 439.15625 78.643125 
L 449.15625 78.643125 
L 459.15625 78.643125 
" style="fill: none; stroke: #ff7f0e; stroke-width: 1.5; stroke-linecap: round"/>
    </g>
    <g id="text_18">
     <!-- Predicted -->
     <g style="fill: #262626" transform="translate(467.15625 82.143125) scale(0.1 -0.1)">
      <use xlink:href="#ArialMT-50"/>
      <use xlink:href="#ArialMT-72" x="66.699219"/>
      <use xlink:href="#ArialMT-65" x="100"/>
      <use xlink:href="#ArialMT-64" x="155.615234"/>
      <use xlink:href="#ArialMT-69" x="211.230469"/>
      <use xlink:href="#ArialMT-63" x="233.447266"/>
      <use xlink:href="#ArialMT-74" x="283.447266"/>
      <use xlink:href="#ArialMT-65" x="311.230469"/>
      <use xlink:href="#ArialMT-64" x="366.845703"/>
     </g>
    </g>
   </g>
  </g>
 </g>
 <defs>
  <clipPath id="p507d538314">
   <rect x="72" y="51.84" width="446.4" height="332.64"/>
  </clipPath>
 </defs>
</svg>
