<?xml version="1.0" encoding="utf-8" standalone="no"?>
<!DOCTYPE svg PUBLIC "-//W3C//DTD SVG 1.1//EN"
  "http://www.w3.org/Graphics/SVG/1.1/DTD/svg11.dtd">
<svg xmlns:xlink="http://www.w3.org/1999/xlink" width="576pt" height="432pt" viewBox="0 0 576 432" xmlns="http://www.w3.org/2000/svg" version="1.1">
 <metadata>
  <rdf:RDF xmlns:dc="http://purl.org/dc/elements/1.1/" xmlns:cc="http://creativecommons.org/ns#" xmlns:rdf="http://www.w3.org/1999/02/22-rdf-syntax-ns#">
   <cc:Work>
    <dc:type rdf:resource="http://purl.org/dc/dcmitype/StillImage"/>
    <dc:date>2023-11-17T05:10:42.449736</dc:date>
    <dc:format>image/svg+xml</dc:format>
    <dc:creator>
     <cc:Agent>
      <dc:title>Matplotlib v3.8.0, https://matplotlib.org/</dc:title>
     </cc:Agent>
    </dc:creator>
   </cc:Work>
  </rdf:RDF>
 </metadata>
 <defs>
  <style type="text/css">*{stroke-linejoin: round; stroke-linecap: butt}</style>
 </defs>
 <g id="figure_1">
  <g id="patch_1">
   <path d="M 0 432 
L 576 432 
L 576 0 
L 0 0 
z
" style="fill: #ffffff"/>
  </g>
  <g id="axes_1">
   <g id="patch_2">
    <path d="M 72 384.48 
L 518.4 384.48 
L 518.4 51.84 
L 72 51.84 
z
" style="fill: #eaeaf2"/>
   </g>
   <g id="matplotlib.axis_1">
    <g id="xtick_1">
     <g id="line2d_1">
      <path d="M 92.290909 384.48 
L 92.290909 51.84 
" clip-path="url(#pafa1751698)" style="fill: none; stroke: #ffffff; stroke-width: 0.8; stroke-linecap: round"/>
     </g>
     <g id="text_1">
      <!-- 0 -->
      <g style="fill: #262626" transform="translate(89.51044 398.637812) scale(0.1 -0.1)">
       <defs>
        <path id="ArialMT-30" d="M 266 2259 
Q 266 3072 433 3567 
Q 600 4063 929 4331 
Q 1259 4600 1759 4600 
Q 2128 4600 2406 4451 
Q 2684 4303 2865 4023 
Q 3047 3744 3150 3342 
Q 3253 2941 3253 2259 
Q 3253 1453 3087 958 
Q 2922 463 2592 192 
Q 2263 -78 1759 -78 
Q 1097 -78 719 397 
Q 266 969 266 2259 
z
M 844 2259 
Q 844 1131 1108 757 
Q 1372 384 1759 384 
Q 2147 384 2411 759 
Q 2675 1134 2675 2259 
Q 2675 3391 2411 3762 
Q 2147 4134 1753 4134 
Q 1366 4134 1134 3806 
Q 844 3388 844 2259 
z
" transform="scale(0.015625)"/>
       </defs>
       <use xlink:href="#ArialMT-30"/>
      </g>
     </g>
    </g>
    <g id="xtick_2">
     <g id="line2d_2">
      <path d="M 191.030126 384.48 
L 191.030126 51.84 
" clip-path="url(#pafa1751698)" style="fill: none; stroke: #ffffff; stroke-width: 0.8; stroke-linecap: round"/>
     </g>
     <g id="text_2">
      <!-- 200 -->
      <g style="fill: #262626" transform="translate(182.68872 398.637812) scale(0.1 -0.1)">
       <defs>
        <path id="ArialMT-32" d="M 3222 541 
L 3222 0 
L 194 0 
Q 188 203 259 391 
Q 375 700 629 1000 
Q 884 1300 1366 1694 
Q 2113 2306 2375 2664 
Q 2638 3022 2638 3341 
Q 2638 3675 2398 3904 
Q 2159 4134 1775 4134 
Q 1369 4134 1125 3890 
Q 881 3647 878 3216 
L 300 3275 
Q 359 3922 746 4261 
Q 1134 4600 1788 4600 
Q 2447 4600 2831 4234 
Q 3216 3869 3216 3328 
Q 3216 3053 3103 2787 
Q 2991 2522 2730 2228 
Q 2469 1934 1863 1422 
Q 1356 997 1212 845 
Q 1069 694 975 541 
L 3222 541 
z
" transform="scale(0.015625)"/>
       </defs>
       <use xlink:href="#ArialMT-32"/>
       <use xlink:href="#ArialMT-30" x="55.615234"/>
       <use xlink:href="#ArialMT-30" x="111.230469"/>
      </g>
     </g>
    </g>
    <g id="xtick_3">
     <g id="line2d_3">
      <path d="M 289.769343 384.48 
L 289.769343 51.84 
" clip-path="url(#pafa1751698)" style="fill: none; stroke: #ffffff; stroke-width: 0.8; stroke-linecap: round"/>
     </g>
     <g id="text_3">
      <!-- 400 -->
      <g style="fill: #262626" transform="translate(281.427937 398.637812) scale(0.1 -0.1)">
       <defs>
        <path id="ArialMT-34" d="M 2069 0 
L 2069 1097 
L 81 1097 
L 81 1613 
L 2172 4581 
L 2631 4581 
L 2631 1613 
L 3250 1613 
L 3250 1097 
L 2631 1097 
L 2631 0 
L 2069 0 
z
M 2069 1613 
L 2069 3678 
L 634 1613 
L 2069 1613 
z
" transform="scale(0.015625)"/>
       </defs>
       <use xlink:href="#ArialMT-34"/>
       <use xlink:href="#ArialMT-30" x="55.615234"/>
       <use xlink:href="#ArialMT-30" x="111.230469"/>
      </g>
     </g>
    </g>
    <g id="xtick_4">
     <g id="line2d_4">
      <path d="M 388.50856 384.48 
L 388.50856 51.84 
" clip-path="url(#pafa1751698)" style="fill: none; stroke: #ffffff; stroke-width: 0.8; stroke-linecap: round"/>
     </g>
     <g id="text_4">
      <!-- 600 -->
      <g style="fill: #262626" transform="translate(380.167154 398.637812) scale(0.1 -0.1)">
       <defs>
        <path id="ArialMT-36" d="M 3184 3459 
L 2625 3416 
Q 2550 3747 2413 3897 
Q 2184 4138 1850 4138 
Q 1581 4138 1378 3988 
Q 1113 3794 959 3422 
Q 806 3050 800 2363 
Q 1003 2672 1297 2822 
Q 1591 2972 1913 2972 
Q 2475 2972 2870 2558 
Q 3266 2144 3266 1488 
Q 3266 1056 3080 686 
Q 2894 316 2569 119 
Q 2244 -78 1831 -78 
Q 1128 -78 684 439 
Q 241 956 241 2144 
Q 241 3472 731 4075 
Q 1159 4600 1884 4600 
Q 2425 4600 2770 4297 
Q 3116 3994 3184 3459 
z
M 888 1484 
Q 888 1194 1011 928 
Q 1134 663 1356 523 
Q 1578 384 1822 384 
Q 2178 384 2434 671 
Q 2691 959 2691 1453 
Q 2691 1928 2437 2201 
Q 2184 2475 1800 2475 
Q 1419 2475 1153 2201 
Q 888 1928 888 1484 
z
" transform="scale(0.015625)"/>
       </defs>
       <use xlink:href="#ArialMT-36"/>
       <use xlink:href="#ArialMT-30" x="55.615234"/>
       <use xlink:href="#ArialMT-30" x="111.230469"/>
      </g>
     </g>
    </g>
    <g id="xtick_5">
     <g id="line2d_5">
      <path d="M 487.247777 384.48 
L 487.247777 51.84 
" clip-path="url(#pafa1751698)" style="fill: none; stroke: #ffffff; stroke-width: 0.8; stroke-linecap: round"/>
     </g>
     <g id="text_5">
      <!-- 800 -->
      <g style="fill: #262626" transform="translate(478.906371 398.637812) scale(0.1 -0.1)">
       <defs>
        <path id="ArialMT-38" d="M 1131 2484 
Q 781 2613 612 2850 
Q 444 3088 444 3419 
Q 444 3919 803 4259 
Q 1163 4600 1759 4600 
Q 2359 4600 2725 4251 
Q 3091 3903 3091 3403 
Q 3091 3084 2923 2848 
Q 2756 2613 2416 2484 
Q 2838 2347 3058 2040 
Q 3278 1734 3278 1309 
Q 3278 722 2862 322 
Q 2447 -78 1769 -78 
Q 1091 -78 675 323 
Q 259 725 259 1325 
Q 259 1772 486 2073 
Q 713 2375 1131 2484 
z
M 1019 3438 
Q 1019 3113 1228 2906 
Q 1438 2700 1772 2700 
Q 2097 2700 2305 2904 
Q 2513 3109 2513 3406 
Q 2513 3716 2298 3927 
Q 2084 4138 1766 4138 
Q 1444 4138 1231 3931 
Q 1019 3725 1019 3438 
z
M 838 1322 
Q 838 1081 952 856 
Q 1066 631 1291 507 
Q 1516 384 1775 384 
Q 2178 384 2440 643 
Q 2703 903 2703 1303 
Q 2703 1709 2433 1975 
Q 2163 2241 1756 2241 
Q 1359 2241 1098 1978 
Q 838 1716 838 1322 
z
" transform="scale(0.015625)"/>
       </defs>
       <use xlink:href="#ArialMT-38"/>
       <use xlink:href="#ArialMT-30" x="55.615234"/>
       <use xlink:href="#ArialMT-30" x="111.230469"/>
      </g>
     </g>
    </g>
    <g id="text_6">
     <!-- Days -->
     <g style="fill: #262626" transform="translate(283.808594 411.783125) scale(0.1 -0.1)">
      <defs>
       <path id="ArialMT-44" d="M 494 0 
L 494 4581 
L 2072 4581 
Q 2606 4581 2888 4516 
Q 3281 4425 3559 4188 
Q 3922 3881 4101 3404 
Q 4281 2928 4281 2316 
Q 4281 1794 4159 1391 
Q 4038 988 3847 723 
Q 3656 459 3429 307 
Q 3203 156 2883 78 
Q 2563 0 2147 0 
L 494 0 
z
M 1100 541 
L 2078 541 
Q 2531 541 2789 625 
Q 3047 709 3200 863 
Q 3416 1078 3536 1442 
Q 3656 1806 3656 2325 
Q 3656 3044 3420 3430 
Q 3184 3816 2847 3947 
Q 2603 4041 2063 4041 
L 1100 4041 
L 1100 541 
z
" transform="scale(0.015625)"/>
       <path id="ArialMT-61" d="M 2588 409 
Q 2275 144 1986 34 
Q 1697 -75 1366 -75 
Q 819 -75 525 192 
Q 231 459 231 875 
Q 231 1119 342 1320 
Q 453 1522 633 1644 
Q 813 1766 1038 1828 
Q 1203 1872 1538 1913 
Q 2219 1994 2541 2106 
Q 2544 2222 2544 2253 
Q 2544 2597 2384 2738 
Q 2169 2928 1744 2928 
Q 1347 2928 1158 2789 
Q 969 2650 878 2297 
L 328 2372 
Q 403 2725 575 2942 
Q 747 3159 1072 3276 
Q 1397 3394 1825 3394 
Q 2250 3394 2515 3294 
Q 2781 3194 2906 3042 
Q 3031 2891 3081 2659 
Q 3109 2516 3109 2141 
L 3109 1391 
Q 3109 606 3145 398 
Q 3181 191 3288 0 
L 2700 0 
Q 2613 175 2588 409 
z
M 2541 1666 
Q 2234 1541 1622 1453 
Q 1275 1403 1131 1340 
Q 988 1278 909 1158 
Q 831 1038 831 891 
Q 831 666 1001 516 
Q 1172 366 1500 366 
Q 1825 366 2078 508 
Q 2331 650 2450 897 
Q 2541 1088 2541 1459 
L 2541 1666 
z
" transform="scale(0.015625)"/>
       <path id="ArialMT-79" d="M 397 -1278 
L 334 -750 
Q 519 -800 656 -800 
Q 844 -800 956 -737 
Q 1069 -675 1141 -563 
Q 1194 -478 1313 -144 
Q 1328 -97 1363 -6 
L 103 3319 
L 709 3319 
L 1400 1397 
Q 1534 1031 1641 628 
Q 1738 1016 1872 1384 
L 2581 3319 
L 3144 3319 
L 1881 -56 
Q 1678 -603 1566 -809 
Q 1416 -1088 1222 -1217 
Q 1028 -1347 759 -1347 
Q 597 -1347 397 -1278 
z
" transform="scale(0.015625)"/>
       <path id="ArialMT-73" d="M 197 991 
L 753 1078 
Q 800 744 1014 566 
Q 1228 388 1613 388 
Q 2000 388 2187 545 
Q 2375 703 2375 916 
Q 2375 1106 2209 1216 
Q 2094 1291 1634 1406 
Q 1016 1563 777 1677 
Q 538 1791 414 1992 
Q 291 2194 291 2438 
Q 291 2659 392 2848 
Q 494 3038 669 3163 
Q 800 3259 1026 3326 
Q 1253 3394 1513 3394 
Q 1903 3394 2198 3281 
Q 2494 3169 2634 2976 
Q 2775 2784 2828 2463 
L 2278 2388 
Q 2241 2644 2061 2787 
Q 1881 2931 1553 2931 
Q 1166 2931 1000 2803 
Q 834 2675 834 2503 
Q 834 2394 903 2306 
Q 972 2216 1119 2156 
Q 1203 2125 1616 2013 
Q 2213 1853 2448 1751 
Q 2684 1650 2818 1456 
Q 2953 1263 2953 975 
Q 2953 694 2789 445 
Q 2625 197 2315 61 
Q 2006 -75 1616 -75 
Q 969 -75 630 194 
Q 291 463 197 991 
z
" transform="scale(0.015625)"/>
      </defs>
      <use xlink:href="#ArialMT-44"/>
      <use xlink:href="#ArialMT-61" x="72.216797"/>
      <use xlink:href="#ArialMT-79" x="127.832031"/>
      <use xlink:href="#ArialMT-73" x="177.832031"/>
     </g>
    </g>
   </g>
   <g id="matplotlib.axis_2">
    <g id="ytick_1">
     <g id="line2d_6">
      <path d="M 72 353.878044 
L 518.4 353.878044 
" clip-path="url(#pafa1751698)" style="fill: none; stroke: #ffffff; stroke-width: 0.8; stroke-linecap: round"/>
     </g>
     <g id="text_7">
      <!-- 1000 -->
      <g style="fill: #262626" transform="translate(42.75625 357.45695) scale(0.1 -0.1)">
       <defs>
        <path id="ArialMT-31" d="M 2384 0 
L 1822 0 
L 1822 3584 
Q 1619 3391 1289 3197 
Q 959 3003 697 2906 
L 697 3450 
Q 1169 3672 1522 3987 
Q 1875 4303 2022 4600 
L 2384 4600 
L 2384 0 
z
" transform="scale(0.015625)"/>
       </defs>
       <use xlink:href="#ArialMT-31"/>
       <use xlink:href="#ArialMT-30" x="55.615234"/>
       <use xlink:href="#ArialMT-30" x="111.230469"/>
       <use xlink:href="#ArialMT-30" x="166.845703"/>
      </g>
     </g>
    </g>
    <g id="ytick_2">
     <g id="line2d_7">
      <path d="M 72 313.504961 
L 518.4 313.504961 
" clip-path="url(#pafa1751698)" style="fill: none; stroke: #ffffff; stroke-width: 0.8; stroke-linecap: round"/>
     </g>
     <g id="text_8">
      <!-- 1005 -->
      <g style="fill: #262626" transform="translate(42.75625 317.083867) scale(0.1 -0.1)">
       <defs>
        <path id="ArialMT-35" d="M 266 1200 
L 856 1250 
Q 922 819 1161 601 
Q 1400 384 1738 384 
Q 2144 384 2425 690 
Q 2706 997 2706 1503 
Q 2706 1984 2436 2262 
Q 2166 2541 1728 2541 
Q 1456 2541 1237 2417 
Q 1019 2294 894 2097 
L 366 2166 
L 809 4519 
L 3088 4519 
L 3088 3981 
L 1259 3981 
L 1013 2750 
Q 1425 3038 1878 3038 
Q 2478 3038 2890 2622 
Q 3303 2206 3303 1553 
Q 3303 931 2941 478 
Q 2500 -78 1738 -78 
Q 1113 -78 717 272 
Q 322 622 266 1200 
z
" transform="scale(0.015625)"/>
       </defs>
       <use xlink:href="#ArialMT-31"/>
       <use xlink:href="#ArialMT-30" x="55.615234"/>
       <use xlink:href="#ArialMT-30" x="111.230469"/>
       <use xlink:href="#ArialMT-35" x="166.845703"/>
      </g>
     </g>
    </g>
    <g id="ytick_3">
     <g id="line2d_8">
      <path d="M 72 273.131878 
L 518.4 273.131878 
" clip-path="url(#pafa1751698)" style="fill: none; stroke: #ffffff; stroke-width: 0.8; stroke-linecap: round"/>
     </g>
     <g id="text_9">
      <!-- 1010 -->
      <g style="fill: #262626" transform="translate(42.75625 276.710784) scale(0.1 -0.1)">
       <use xlink:href="#ArialMT-31"/>
       <use xlink:href="#ArialMT-30" x="55.615234"/>
       <use xlink:href="#ArialMT-31" x="111.230469"/>
       <use xlink:href="#ArialMT-30" x="166.845703"/>
      </g>
     </g>
    </g>
    <g id="ytick_4">
     <g id="line2d_9">
      <path d="M 72 232.758795 
L 518.4 232.758795 
" clip-path="url(#pafa1751698)" style="fill: none; stroke: #ffffff; stroke-width: 0.8; stroke-linecap: round"/>
     </g>
     <g id="text_10">
      <!-- 1015 -->
      <g style="fill: #262626" transform="translate(42.75625 236.337701) scale(0.1 -0.1)">
       <use xlink:href="#ArialMT-31"/>
       <use xlink:href="#ArialMT-30" x="55.615234"/>
       <use xlink:href="#ArialMT-31" x="111.230469"/>
       <use xlink:href="#ArialMT-35" x="166.845703"/>
      </g>
     </g>
    </g>
    <g id="ytick_5">
     <g id="line2d_10">
      <path d="M 72 192.385712 
L 518.4 192.385712 
" clip-path="url(#pafa1751698)" style="fill: none; stroke: #ffffff; stroke-width: 0.8; stroke-linecap: round"/>
     </g>
     <g id="text_11">
      <!-- 1020 -->
      <g style="fill: #262626" transform="translate(42.75625 195.964618) scale(0.1 -0.1)">
       <use xlink:href="#ArialMT-31"/>
       <use xlink:href="#ArialMT-30" x="55.615234"/>
       <use xlink:href="#ArialMT-32" x="111.230469"/>
       <use xlink:href="#ArialMT-30" x="166.845703"/>
      </g>
     </g>
    </g>
    <g id="ytick_6">
     <g id="line2d_11">
      <path d="M 72 152.012628 
L 518.4 152.012628 
" clip-path="url(#pafa1751698)" style="fill: none; stroke: #ffffff; stroke-width: 0.8; stroke-linecap: round"/>
     </g>
     <g id="text_12">
      <!-- 1025 -->
      <g style="fill: #262626" transform="translate(42.75625 155.591535) scale(0.1 -0.1)">
       <use xlink:href="#ArialMT-31"/>
       <use xlink:href="#ArialMT-30" x="55.615234"/>
       <use xlink:href="#ArialMT-32" x="111.230469"/>
       <use xlink:href="#ArialMT-35" x="166.845703"/>
      </g>
     </g>
    </g>
    <g id="ytick_7">
     <g id="line2d_12">
      <path d="M 72 111.639545 
L 518.4 111.639545 
" clip-path="url(#pafa1751698)" style="fill: none; stroke: #ffffff; stroke-width: 0.8; stroke-linecap: round"/>
     </g>
     <g id="text_13">
      <!-- 1030 -->
      <g style="fill: #262626" transform="translate(42.75625 115.218452) scale(0.1 -0.1)">
       <defs>
        <path id="ArialMT-33" d="M 269 1209 
L 831 1284 
Q 928 806 1161 595 
Q 1394 384 1728 384 
Q 2125 384 2398 659 
Q 2672 934 2672 1341 
Q 2672 1728 2419 1979 
Q 2166 2231 1775 2231 
Q 1616 2231 1378 2169 
L 1441 2663 
Q 1497 2656 1531 2656 
Q 1891 2656 2178 2843 
Q 2466 3031 2466 3422 
Q 2466 3731 2256 3934 
Q 2047 4138 1716 4138 
Q 1388 4138 1169 3931 
Q 950 3725 888 3313 
L 325 3413 
Q 428 3978 793 4289 
Q 1159 4600 1703 4600 
Q 2078 4600 2393 4439 
Q 2709 4278 2876 4000 
Q 3044 3722 3044 3409 
Q 3044 3113 2884 2869 
Q 2725 2625 2413 2481 
Q 2819 2388 3044 2092 
Q 3269 1797 3269 1353 
Q 3269 753 2831 336 
Q 2394 -81 1725 -81 
Q 1122 -81 723 278 
Q 325 638 269 1209 
z
" transform="scale(0.015625)"/>
       </defs>
       <use xlink:href="#ArialMT-31"/>
       <use xlink:href="#ArialMT-30" x="55.615234"/>
       <use xlink:href="#ArialMT-33" x="111.230469"/>
       <use xlink:href="#ArialMT-30" x="166.845703"/>
      </g>
     </g>
    </g>
    <g id="ytick_8">
     <g id="line2d_13">
      <path d="M 72 71.266462 
L 518.4 71.266462 
" clip-path="url(#pafa1751698)" style="fill: none; stroke: #ffffff; stroke-width: 0.8; stroke-linecap: round"/>
     </g>
     <g id="text_14">
      <!-- 1035 -->
      <g style="fill: #262626" transform="translate(42.75625 74.845368) scale(0.1 -0.1)">
       <use xlink:href="#ArialMT-31"/>
       <use xlink:href="#ArialMT-30" x="55.615234"/>
       <use xlink:href="#ArialMT-33" x="111.230469"/>
       <use xlink:href="#ArialMT-35" x="166.845703"/>
      </g>
     </g>
    </g>
    <g id="text_15">
     <!-- (hPa) -->
     <g style="fill: #262626" transform="translate(36.651562 230.385781) rotate(-90) scale(0.1 -0.1)">
      <defs>
       <path id="ArialMT-28" d="M 1497 -1347 
Q 1031 -759 709 28 
Q 388 816 388 1659 
Q 388 2403 628 3084 
Q 909 3875 1497 4659 
L 1900 4659 
Q 1522 4009 1400 3731 
Q 1209 3300 1100 2831 
Q 966 2247 966 1656 
Q 966 153 1900 -1347 
L 1497 -1347 
z
" transform="scale(0.015625)"/>
       <path id="ArialMT-68" d="M 422 0 
L 422 4581 
L 984 4581 
L 984 2938 
Q 1378 3394 1978 3394 
Q 2347 3394 2619 3248 
Q 2891 3103 3008 2847 
Q 3125 2591 3125 2103 
L 3125 0 
L 2563 0 
L 2563 2103 
Q 2563 2525 2380 2717 
Q 2197 2909 1863 2909 
Q 1613 2909 1392 2779 
Q 1172 2650 1078 2428 
Q 984 2206 984 1816 
L 984 0 
L 422 0 
z
" transform="scale(0.015625)"/>
       <path id="ArialMT-50" d="M 494 0 
L 494 4581 
L 2222 4581 
Q 2678 4581 2919 4538 
Q 3256 4481 3484 4323 
Q 3713 4166 3852 3881 
Q 3991 3597 3991 3256 
Q 3991 2672 3619 2267 
Q 3247 1863 2275 1863 
L 1100 1863 
L 1100 0 
L 494 0 
z
M 1100 2403 
L 2284 2403 
Q 2872 2403 3119 2622 
Q 3366 2841 3366 3238 
Q 3366 3525 3220 3729 
Q 3075 3934 2838 4000 
Q 2684 4041 2272 4041 
L 1100 4041 
L 1100 2403 
z
" transform="scale(0.015625)"/>
       <path id="ArialMT-29" d="M 791 -1347 
L 388 -1347 
Q 1322 153 1322 1656 
Q 1322 2244 1188 2822 
Q 1081 3291 891 3722 
Q 769 4003 388 4659 
L 791 4659 
Q 1378 3875 1659 3084 
Q 1900 2403 1900 1659 
Q 1900 816 1576 28 
Q 1253 -759 791 -1347 
z
" transform="scale(0.015625)"/>
      </defs>
      <use xlink:href="#ArialMT-28"/>
      <use xlink:href="#ArialMT-68" x="33.300781"/>
      <use xlink:href="#ArialMT-50" x="88.916016"/>
      <use xlink:href="#ArialMT-61" x="155.615234"/>
      <use xlink:href="#ArialMT-29" x="211.230469"/>
     </g>
    </g>
   </g>
   <g id="line2d_14">
    <path d="M 92.290909 281.240139 
L 92.784605 274.02345 
L 93.278301 264.541383 
L 93.771997 191.522176 
L 94.265693 140.982926 
L 94.75939 221.162748 
L 95.253086 200.275285 
L 95.746782 82.374667 
L 96.240478 94.71673 
L 96.734174 147.005245 
L 97.22787 168.230098 
L 97.721566 163.905213 
L 98.215262 172.587655 
L 98.708958 246.347866 
L 99.202654 277.908799 
L 99.69635 260.802948 
L 100.190046 157.289727 
L 100.683743 175.518735 
L 101.177439 234.638386 
L 101.671135 269.844275 
L 102.164831 314.931925 
L 102.658527 310.59866 
L 103.152223 300.645013 
L 104.139615 172.554117 
L 104.633311 152.061413 
L 105.127007 193.301023 
L 105.620703 201.761239 
L 106.114399 182.376551 
L 106.608096 136.586746 
L 107.101792 121.57581 
L 107.595488 150.773399 
L 108.089184 234.437618 
L 108.58288 261.720874 
L 109.076576 174.066864 
L 109.570272 149.466881 
L 110.063968 148.367836 
L 110.557664 174.29072 
L 111.545056 270.782389 
L 112.038752 220.565383 
L 112.532449 201.150035 
L 113.026145 235.349401 
L 113.519841 188.948392 
L 114.013537 192.9857 
L 114.507233 241.366112 
L 115.000929 300.675292 
L 115.494625 289.583909 
L 115.988321 247.971597 
L 116.482017 190.804432 
L 117.469409 231.155086 
L 117.963106 207.93076 
L 118.950498 206.981703 
L 119.444194 198.40803 
L 119.93789 196.972542 
L 120.431586 218.527283 
L 120.925282 220.495471 
L 121.418978 189.178294 
L 121.912674 130.177519 
L 122.40637 155.842464 
L 122.900066 221.773952 
L 123.393762 204.778005 
L 123.887459 145.866948 
L 124.381155 124.334637 
L 125.368547 169.412306 
L 125.862243 182.264404 
L 126.355939 242.784777 
L 127.343331 142.205334 
L 128.330723 287.716654 
L 128.824419 186.475541 
L 129.318115 200.135101 
L 129.811812 172.485146 
L 130.305508 193.43429 
L 130.799204 186.884879 
L 131.2929 256.354619 
L 131.786596 165.79555 
L 132.280292 186.223209 
L 132.773988 216.744138 
L 133.267684 214.002133 
L 133.76138 223.007574 
L 134.255076 258.709715 
L 134.748772 265.780612 
L 135.242468 268.092401 
L 135.736165 285.211504 
L 136.229861 246.009016 
L 136.723557 115.631995 
L 137.217253 116.344131 
L 138.204645 257.745247 
L 138.698341 170.919741 
L 139.192037 180.35229 
L 139.685733 258.990084 
L 140.673125 335.474647 
L 141.166821 302.839738 
L 141.660518 219.934733 
L 142.154214 260.823695 
L 142.64791 239.319421 
L 143.141606 272.352453 
L 143.635302 269.571196 
L 144.128998 252.109838 
L 144.622694 170.040332 
L 145.11639 190.395094 
L 145.610086 221.061815 
L 146.103782 240.446503 
L 146.597478 253.528503 
L 147.091175 247.382823 
L 147.584871 262.489085 
L 148.078567 261.345181 
L 148.572263 160.121125 
L 149.065959 101.85966 
L 149.559655 121.059931 
L 150.053351 205.949946 
L 150.547047 268.135709 
L 151.040743 300.619219 
L 152.028135 240.160527 
L 152.521831 275.413098 
L 153.015528 332.110223 
L 153.509224 264.928292 
L 154.00292 152.331064 
L 154.496616 137.640932 
L 154.990312 151.328529 
L 155.484008 156.526563 
L 155.977704 170.87583 
L 156.4714 181.698059 
L 156.965096 177.430849 
L 157.458792 217.058151 
L 157.952488 235.007351 
L 158.446184 237.59235 
L 158.939881 222.63188 
L 159.433577 184.944728 
L 159.927273 195.615558 
L 160.420969 221.622553 
L 160.914665 257.206939 
L 161.408361 264.732034 
L 161.902057 161.395632 
L 162.395753 169.143152 
L 162.889449 183.027289 
L 163.383145 224.280447 
L 163.876841 251.279594 
L 164.370537 269.509515 
L 164.864234 299.525781 
L 165.35793 276.956106 
L 165.851626 242.167966 
L 166.345322 261.143315 
L 166.839018 331.667241 
L 167.332714 346.599674 
L 167.82641 321.287994 
L 168.320106 339.685784 
L 168.813802 219.183346 
L 169.801194 265.948833 
L 170.294891 314.037661 
L 170.788587 298.731075 
L 171.282283 220.070918 
L 171.775979 235.226039 
L 172.269675 270.574916 
L 172.763371 263.814119 
L 173.257067 266.408638 
L 173.750763 301.953773 
L 174.738155 229.999967 
L 175.231851 265.539495 
L 175.725547 286.819474 
L 176.219244 284.221452 
L 177.206636 305.346234 
L 177.700332 291.552097 
L 178.194028 289.53905 
L 179.18142 282.249466 
L 179.675116 274.068309 
L 180.168812 282.104301 
L 180.662508 337.201718 
L 181.156204 323.379544 
L 181.6499 268.617943 
L 182.143597 266.010515 
L 182.637293 271.875826 
L 183.130989 269.845957 
L 183.624685 252.883655 
L 184.118381 243.54738 
L 184.612077 255.849955 
L 185.105773 304.544379 
L 185.599469 336.069029 
L 186.093165 307.101341 
L 187.080557 348.287494 
L 187.574253 334.061589 
L 188.06795 296.376466 
L 188.561646 282.17657 
L 189.549038 263.313368 
L 190.042734 285.126048 
L 190.53643 326.746203 
L 191.030126 336.4279 
L 191.523822 293.127769 
L 192.017518 271.561813 
L 192.511214 268.847845 
L 193.00491 279.058871 
L 193.498607 271.651531 
L 193.992303 279.283166 
L 194.485999 295.348288 
L 194.979695 304.101397 
L 195.473391 309.977924 
L 195.967087 309.338683 
L 196.460783 289.763345 
L 196.954479 210.579009 
L 197.448175 218.017012 
L 197.941871 242.739918 
L 198.435567 230.639208 
L 199.916656 297.165077 
L 200.410352 288.42879 
L 200.904048 275.503796 
L 201.89144 303.686451 
L 202.385136 299.755683 
L 202.878832 291.165188 
L 203.372528 298.914577 
L 203.866224 295.746412 
L 204.35992 253.192061 
L 204.853616 243.104397 
L 205.347313 226.383212 
L 205.841009 225.699113 
L 206.334705 235.618555 
L 206.828401 248.81831 
L 207.322097 255.558372 
L 208.309489 281.111169 
L 208.803185 275.397256 
L 209.296881 254.128492 
L 209.790577 241.38113 
L 210.284273 250.152865 
L 210.777969 270.64738 
L 211.271666 272.016011 
L 211.765362 263.840461 
L 212.259058 258.894759 
L 212.752754 270.005742 
L 213.24645 289.07007 
L 213.740146 276.894425 
L 214.233842 275.130769 
L 214.727538 266.621718 
L 215.221234 261.664801 
L 215.71493 265.707716 
L 216.208626 271.578636 
L 216.702322 273.59729 
L 217.196019 279.389706 
L 217.689715 261.23864 
L 218.183411 232.921409 
L 218.677107 218.970265 
L 219.170803 228.732701 
L 219.664499 224.863614 
L 220.158195 227.089741 
L 220.651891 247.360393 
L 221.145587 261.479757 
L 221.639283 256.39387 
L 222.132979 252.754686 
L 222.626676 251.227974 
L 223.120372 257.476093 
L 223.614068 266.840406 
L 224.107764 270.406695 
L 224.60146 270.569309 
L 225.095156 278.183358 
L 225.588852 277.914967 
L 226.082548 284.783998 
L 226.576244 285.440061 
L 227.06994 280.174738 
L 227.563636 268.94317 
L 228.057332 278.503741 
L 228.551029 285.473705 
L 229.044725 268.444114 
L 229.538421 262.024923 
L 230.525813 292.63432 
L 231.019509 292.196945 
L 231.513205 273.546823 
L 232.006901 259.74863 
L 232.500597 259.605463 
L 232.994293 279.221485 
L 233.487989 281.991527 
L 233.981685 270.193615 
L 234.475382 283.034498 
L 234.969078 305.413522 
L 235.462774 290.67174 
L 235.95647 249.894926 
L 236.450166 247.422074 
L 236.943862 255.687342 
L 237.437558 251.975261 
L 237.931254 242.257684 
L 238.42495 244.472596 
L 238.918646 254.582689 
L 239.412342 243.882003 
L 239.906038 245.355197 
L 240.399735 253.052998 
L 240.893431 237.345626 
L 241.387127 235.663414 
L 241.880823 221.145926 
L 242.374519 220.416967 
L 242.868215 236.179292 
L 243.361911 246.345459 
L 243.855607 263.363835 
L 244.349303 268.259581 
L 244.842999 285.838184 
L 245.336695 274.483255 
L 245.830392 254.442505 
L 246.324088 249.816422 
L 246.817784 248.655696 
L 247.31148 270.249688 
L 247.805176 278.22898 
L 248.298872 277.466377 
L 248.792568 293.122161 
L 249.286264 291.260514 
L 249.77996 268.662802 
L 250.273656 267.574972 
L 250.767352 268.550654 
L 251.261048 263.111503 
L 252.248441 234.037276 
L 252.742137 249.289329 
L 253.235833 255.513513 
L 253.729529 229.999967 
L 254.223225 233.482146 
L 254.716921 272.049655 
L 255.210617 292.090405 
L 256.198009 180.789665 
L 256.691705 236.728815 
L 257.185401 251.795825 
L 257.679098 271.69639 
L 258.172794 232.170021 
L 258.66649 240.766123 
L 259.160186 288.641871 
L 259.653882 309.89942 
L 260.147578 303.832243 
L 260.641274 290.211935 
L 261.13497 214.288109 
L 261.628666 236.285832 
L 262.122362 268.903919 
L 262.616058 201.357508 
L 263.109754 224.82997 
L 263.603451 262.253575 
L 264.097147 269.980534 
L 264.590843 282.333576 
L 265.084539 250.820142 
L 265.578235 113.175965 
L 266.071931 153.818202 
L 266.565627 151.451891 
L 267.059323 190.305376 
L 267.553019 240.911915 
L 268.046715 223.272532 
L 268.540411 214.433901 
L 269.034107 223.265513 
L 269.527804 145.491254 
L 270.0215 157.2387 
L 270.515196 204.581747 
L 271.008892 231.940118 
L 271.502588 92.159533 
L 271.996284 153.767736 
L 272.48998 175.232759 
L 272.983676 131.741976 
L 273.971068 227.11217 
L 274.464764 236.779281 
L 275.452157 267.120774 
L 275.945853 267.19367 
L 276.439549 250.455663 
L 276.933245 206.701334 
L 277.426941 220.557152 
L 277.920637 291.462379 
L 278.414333 316.813311 
L 278.908029 227.953276 
L 279.401725 196.394983 
L 279.895421 235.007351 
L 280.389117 286.073694 
L 280.882814 205.630326 
L 281.37651 164.309597 
L 281.870206 221.465546 
L 282.363902 224.757074 
L 282.857598 231.648535 
L 283.351294 195.542662 
L 283.84499 172.720656 
L 284.832382 290.699776 
L 285.819774 119.046885 
L 286.31347 171.173021 
L 286.807167 237.368055 
L 287.300863 274.954274 
L 287.794559 303.725703 
L 288.288255 274.802875 
L 288.781951 131.091521 
L 289.275647 101.013574 
L 289.769343 146.321145 
L 290.263039 169.159974 
L 290.756735 140.573588 
L 291.250431 156.907865 
L 292.73152 265.758183 
L 293.225216 242.818421 
L 293.718912 249.306151 
L 294.212608 306.764899 
L 294.706304 263.902142 
L 295.2 195.380049 
L 295.693696 177.57664 
L 296.187392 229.433623 
L 296.681088 309.826525 
L 297.174784 247.924581 
L 297.66848 122.085728 
L 298.162177 144.117448 
L 298.655873 197.875329 
L 299.149569 131.046662 
L 299.643265 179.511184 
L 300.630657 291.838073 
L 301.124353 202.635989 
L 301.618049 199.254743 
L 302.111745 203.168689 
L 302.605441 218.162804 
L 303.099137 227.790663 
L 303.592833 203.404199 
L 304.08653 202.097681 
L 304.580226 191.028727 
L 305.073922 121.783282 
L 305.567618 98.148207 
L 306.061314 138.449531 
L 306.55501 230.824251 
L 307.048706 234.917633 
L 307.542402 200.892096 
L 308.529794 236.487698 
L 309.02349 253.965878 
L 309.517186 260.70594 
L 310.010883 215.858174 
L 310.504579 231.026117 
L 311.491971 138.941843 
L 311.985667 191.802545 
L 312.479363 273.014123 
L 312.973059 304.364944 
L 313.466755 296.138928 
L 313.960451 257.156473 
L 314.454147 251.179014 
L 314.947843 231.345737 
L 315.441539 262.881601 
L 315.935236 281.139206 
L 316.428932 253.741583 
L 316.922628 246.109949 
L 317.416324 185.634435 
L 317.91002 143.147372 
L 319.391108 283.645702 
L 319.884804 270.064645 
L 320.3785 189.346516 
L 320.872196 140.478263 
L 321.365893 66.96 
L 322.353285 235.84285 
L 322.846981 278.756073 
L 323.340677 268.012347 
L 323.834373 118.676798 
L 324.328069 124.457999 
L 324.821765 136.783004 
L 325.315461 188.639987 
L 325.809157 265.668465 
L 326.302853 306.361168 
L 326.796549 314.721761 
L 327.290246 286.370885 
L 327.783942 159.453612 
L 328.277638 130.26163 
L 328.771334 156.150869 
L 329.26503 189.290442 
L 329.758726 193.204388 
L 330.252422 184.182125 
L 330.746118 225.36267 
L 331.239814 277.449555 
L 331.73351 281.784054 
L 332.720902 214.422686 
L 333.214599 215.179681 
L 333.708295 246.429569 
L 334.201991 258.249911 
L 334.695687 278.555914 
L 335.189383 209.970432 
L 335.683079 179.808375 
L 337.164167 274.999133 
L 337.657863 285.958319 
L 338.645255 333.214876 
L 339.138952 296.060425 
L 339.632648 223.170187 
L 340.126344 254.392038 
L 340.62004 248.106174 
L 341.113736 262.999355 
L 341.607432 294.647367 
L 342.101128 291.109115 
L 343.08852 233.437287 
L 343.582216 244.338019 
L 344.075912 244.95483 
L 345.063305 288.137207 
L 345.557001 259.70222 
L 346.544393 353.005113 
L 347.038089 256.507223 
L 348.025481 190.316591 
L 348.519177 210.777894 
L 349.012873 249.003353 
L 349.506569 266.750688 
L 350.000265 312.910579 
L 350.493962 295.617442 
L 350.987658 286.752186 
L 351.481354 320.80576 
L 351.97505 307.841515 
L 352.468746 302.789272 
L 352.962442 270.193615 
L 353.456138 199.148203 
L 354.44353 272.066477 
L 354.937226 261.36761 
L 355.430922 214.966601 
L 355.924618 247.640762 
L 356.912011 267.070308 
L 357.405707 290.475481 
L 357.899403 280.836408 
L 358.393099 222.912248 
L 358.886795 239.711937 
L 359.380491 268.713268 
L 359.874187 209.005964 
L 360.367883 200.028561 
L 360.861579 224.471098 
L 361.355275 263.896535 
L 361.848971 280.741083 
L 362.342668 281.913023 
L 362.836364 314.166631 
L 363.33006 312.041437 
L 363.823756 267.776837 
L 364.317452 268.780557 
L 364.811148 298.768786 
L 365.304844 317.660024 
L 365.79854 303.153751 
L 366.292236 299.262234 
L 366.785932 300.983698 
L 367.773324 317.783386 
L 368.267021 262.298434 
L 368.760717 269.139429 
L 369.254413 271.477703 
L 369.748109 215.401232 
L 370.241805 218.454387 
L 370.735501 226.6019 
L 371.229197 225.965953 
L 371.722893 234.076527 
L 372.710285 276.165466 
L 373.203981 269.682354 
L 373.697678 278.167298 
L 374.68507 332.233586 
L 375.178766 312.613389 
L 375.672462 237.267122 
L 376.166158 190.922187 
L 376.659854 188.286722 
L 377.15355 218.241307 
L 377.647246 231.149479 
L 378.140942 224.263625 
L 378.634638 233.084022 
L 379.622031 267.00302 
L 380.115727 264.395591 
L 380.609423 257.73964 
L 381.103119 271.29266 
L 381.596815 280.2981 
L 382.090511 282.120496 
L 382.584207 274.012235 
L 383.571599 247.298712 
L 384.065295 258.558316 
L 385.052687 294.395035 
L 385.546384 287.520396 
L 386.04008 282.84427 
L 387.027472 262.541153 
L 387.521168 269.75624 
L 388.014864 286.365277 
L 388.50856 287.133487 
L 389.002256 278.043936 
L 389.495952 279.251075 
L 389.989648 289.64559 
L 390.483344 265.264734 
L 390.97704 254.296713 
L 391.470737 266.34135 
L 391.964433 281.212102 
L 392.458129 280.006517 
L 393.939217 252.973373 
L 394.432913 250.573418 
L 394.926609 251.638818 
L 395.420305 266.644148 
L 395.914001 275.038385 
L 396.407697 269.576804 
L 396.901393 269.374938 
L 397.39509 277.337407 
L 397.888786 290.643703 
L 398.382482 307.187761 
L 398.876178 254.829413 
L 399.369874 246.584114 
L 399.86357 247.468149 
L 400.357266 250.607062 
L 400.850962 254.54024 
L 401.344658 241.141817 
L 401.838354 242.476372 
L 402.33205 238.214768 
L 402.825747 241.4334 
L 403.319443 252.491139 
L 403.813139 256.02984 
L 404.800531 235.954997 
L 405.294227 234.951277 
L 405.787923 243.99597 
L 406.281619 259.236808 
L 406.775315 262.803097 
L 407.269011 260.268565 
L 407.762707 262.147035 
L 408.256403 262.579402 
L 408.7501 228.118733 
L 409.243796 238.113836 
L 410.231188 283.572806 
L 410.724884 293.177114 
L 411.21858 255.762063 
L 411.712276 261.003131 
L 412.205972 288.955883 
L 412.699668 300.193058 
L 413.193364 292.746467 
L 413.68706 290.335297 
L 414.180756 308.46954 
L 414.674453 314.676902 
L 415.661845 284.705495 
L 416.155541 271.22554 
L 416.649237 243.053931 
L 417.142933 205.961834 
L 417.636629 218.655131 
L 418.624021 302.748849 
L 419.117717 286.051264 
L 419.611413 288.39795 
L 420.105109 287.509181 
L 420.598806 285.305484 
L 421.092502 267.474039 
L 421.586198 263.380657 
L 422.079894 262.528336 
L 422.57359 258.642427 
L 423.067286 261.692838 
L 423.560982 262.988141 
L 424.054678 263.515234 
L 424.548374 259.80876 
L 425.04207 238.769898 
L 425.535766 232.125162 
L 426.029463 241.231535 
L 426.523159 259.819975 
L 427.016855 288.249355 
L 427.510551 285.255018 
L 428.004247 269.705773 
L 428.497943 259.242416 
L 428.991639 245.240806 
L 429.485335 244.97726 
L 429.979031 249.003353 
L 430.472727 243.300655 
L 430.966423 252.216378 
L 431.460119 248.358505 
L 431.953816 249.810815 
L 432.941208 282.142926 
L 433.434904 278.268231 
L 433.9286 261.519009 
L 434.915992 279.137374 
L 435.409688 267.148811 
L 435.903384 264.44045 
L 436.39708 279.541105 
L 436.890776 283.079357 
L 437.384472 273.586075 
L 437.878169 252.653753 
L 438.371865 248.083744 
L 438.865561 277.494414 
L 439.359257 296.940782 
L 439.852953 288.316643 
L 440.840345 243.76046 
L 441.334041 253.629436 
L 441.827737 258.423739 
L 442.321433 237.278337 
L 442.815129 240.014735 
L 443.308825 235.915746 
L 443.802522 220.147814 
L 444.296218 228.160749 
L 444.789914 272.543104 
L 445.28361 306.310702 
L 445.777306 269.537552 
L 446.271002 224.280447 
L 446.764698 234.928848 
L 447.258394 259.870442 
L 447.75209 255.160248 
L 448.245786 239.02223 
L 448.739482 243.575417 
L 449.233179 256.051821 
L 449.726875 257.117222 
L 450.220571 252.513569 
L 450.714267 242.616556 
L 451.207963 243.749245 
L 451.701659 242.353009 
L 452.195355 242.43712 
L 452.689051 246.737975 
L 453.182747 255.664912 
L 453.676443 228.306541 
L 454.170139 211.265735 
L 454.663835 186.374608 
L 455.157532 188.415692 
L 455.651228 235.876494 
L 456.144924 246.743582 
L 456.63862 216.12172 
L 457.132316 207.783557 
L 457.626012 219.766512 
L 458.119708 221.588908 
L 459.1071 178.799048 
L 459.600796 167.466547 
L 460.588188 200.981814 
L 461.575581 247.960382 
L 462.069277 256.405085 
L 462.562973 257.07797 
L 463.056669 252.137875 
L 463.550365 267.064701 
L 464.044061 252.603287 
L 464.537757 160.575087 
L 465.031453 145.289389 
L 465.525149 197.073475 
L 466.512541 264.188118 
L 467.499934 299.800542 
L 467.99363 228.715879 
L 468.487326 237.603565 
L 468.981022 265.376881 
L 469.474718 240.979203 
L 469.968414 198.329527 
L 470.46211 231.727038 
L 470.955806 242.644593 
L 471.449502 211.119944 
L 471.943198 193.697837 
L 472.930591 289.3484 
L 473.424287 254.100455 
L 473.917983 261.967599 
L 474.411679 224.235588 
L 474.905375 207.469544 
L 475.399071 222.744027 
L 475.892767 274.601009 
L 476.386463 291.372661 
L 476.880159 174.918746 
L 477.373855 188.03439 
L 477.867551 251.487419 
L 478.361248 165.829195 
L 478.854944 125.366394 
L 479.34864 110.809654 
L 479.842336 159.206888 
L 480.336032 141.409087 
L 480.829728 112.878775 
L 481.323424 127.867282 
L 481.81712 153.156532 
L 482.804512 264.720819 
L 483.298208 216.037609 
L 483.791904 224.201944 
L 484.285601 250.511737 
L 484.779297 252.216378 
L 485.272993 284.312979 
L 485.766689 189.571647 
L 486.260385 157.087301 
L 486.754081 194.561372 
L 487.247777 162.212144 
L 487.741473 240.571532 
L 488.235169 205.02473 
L 488.728865 202.321976 
L 489.716257 236.762459 
L 490.209954 226.467323 
L 490.70365 267.389928 
L 491.197346 317.559209 
L 491.691042 268.595513 
L 492.184738 233.639152 
L 492.678434 236.958717 
L 493.17213 182.071964 
L 493.665826 175.40098 
L 494.159522 203.471487 
L 494.653218 158.108964 
L 495.146914 177.223376 
L 496.134307 288.10917 
L 496.628003 301.073416 
L 497.121699 324.98886 
L 497.615395 369.36 
L 498.109091 299.656559 
L 498.109091 299.656559 
" clip-path="url(#pafa1751698)" style="fill: none; stroke: #1f77b4; stroke-width: 1.5; stroke-linecap: round"/>
   </g>
   <g id="line2d_15">
    <path d="M 92.290909 141.569993 
L 92.784605 139.893093 
L 93.278301 175.127293 
L 93.771997 183.879538 
L 94.265693 189.692136 
L 94.75939 187.492121 
L 95.253086 229.499061 
L 95.746782 246.263036 
L 96.240478 224.141123 
L 96.734174 160.440817 
L 97.22787 184.193636 
L 97.721566 232.641849 
L 98.708958 260.392282 
L 99.202654 259.84412 
L 99.69635 257.734452 
L 100.190046 204.25675 
L 100.683743 176.815871 
L 101.671135 202.599348 
L 102.164831 201.707921 
L 102.658527 192.298003 
L 103.152223 161.299601 
L 103.645919 147.151918 
L 104.139615 171.222019 
L 104.633311 224.431481 
L 105.127007 234.589595 
L 105.620703 169.789585 
L 106.114399 174.301918 
L 106.608096 172.547667 
L 107.101792 183.125119 
L 107.595488 227.629194 
L 108.089184 255.208338 
L 108.58288 190.65574 
L 109.570272 222.163885 
L 110.063968 203.150752 
L 110.557664 208.642933 
L 111.545056 261.126524 
L 112.038752 252.304079 
L 113.026145 189.375552 
L 113.519841 216.647639 
L 114.013537 230.089376 
L 114.507233 198.332756 
L 115.000929 199.942528 
L 115.494625 202.490809 
L 115.988321 203.89364 
L 116.482017 207.254846 
L 116.975713 224.347172 
L 117.469409 218.815025 
L 117.963106 200.820232 
L 118.456802 155.765029 
L 118.950498 167.817931 
L 119.444194 230.76412 
L 120.925282 146.115516 
L 121.418978 191.923647 
L 121.912674 200.853138 
L 122.40637 200.311744 
L 122.900066 235.493514 
L 123.393762 188.555197 
L 123.887459 173.224713 
L 124.874851 260.761959 
L 125.368547 194.131167 
L 125.862243 208.704308 
L 126.355939 176.827091 
L 126.849635 212.968348 
L 127.343331 209.166452 
L 127.837027 242.124625 
L 128.330723 170.43957 
L 128.824419 210.769763 
L 129.318115 226.379849 
L 129.811812 210.069046 
L 130.305508 227.126543 
L 130.799204 238.969 
L 131.2929 240.038086 
L 131.786596 255.663826 
L 132.280292 255.767982 
L 132.773988 227.075612 
L 133.267684 147.752938 
L 133.76138 148.076815 
L 134.255076 220.436438 
L 134.748772 232.942018 
L 135.242468 172.046321 
L 135.736165 211.751514 
L 136.229861 239.223308 
L 136.723557 251.057291 
L 137.217253 280.990904 
L 137.710949 263.045512 
L 138.204645 197.247581 
L 138.698341 259.23603 
L 139.192037 239.809519 
L 139.685733 248.060602 
L 140.179429 231.136336 
L 140.673125 226.399631 
L 141.166821 180.85658 
L 141.660518 222.592077 
L 142.64791 241.826852 
L 143.141606 254.519213 
L 143.635302 240.398278 
L 144.128998 256.287311 
L 144.622694 249.673899 
L 145.11639 174.30564 
L 145.610086 146.707952 
L 146.103782 146.772633 
L 146.597478 226.625194 
L 147.091175 245.328649 
L 147.584871 259.704639 
L 148.078567 240.818999 
L 148.572263 241.032857 
L 149.065959 253.207018 
L 149.559655 288.799892 
L 150.053351 259.87947 
L 150.547047 166.779745 
L 151.534439 180.763094 
L 152.028135 179.013133 
L 152.521831 192.34658 
L 153.015528 212.894364 
L 153.509224 194.448298 
L 154.496616 249.488878 
L 154.990312 238.308499 
L 155.484008 231.55596 
L 155.977704 202.769882 
L 156.4714 206.862696 
L 156.965096 240.167411 
L 157.458792 254.312673 
L 157.952488 254.421454 
L 158.446184 157.489621 
L 158.939881 192.049815 
L 159.433577 211.752834 
L 159.927273 240.360105 
L 160.420969 240.545236 
L 160.914665 247.242836 
L 161.408361 271.108939 
L 161.902057 252.88695 
L 162.395753 227.990702 
L 162.889449 250.312569 
L 163.383145 279.560358 
L 163.876841 298.054272 
L 164.370537 296.810732 
L 164.864234 302.695243 
L 165.35793 200.21033 
L 165.851626 257.062652 
L 166.345322 266.312083 
L 166.839018 278.630222 
L 167.332714 277.899832 
L 167.82641 219.899925 
L 168.320106 247.529503 
L 168.813802 265.87758 
L 169.307498 264.238345 
L 169.801194 258.299746 
L 170.294891 282.448562 
L 170.788587 258.176317 
L 171.282283 214.080607 
L 171.775979 273.325786 
L 172.269675 263.989163 
L 172.763371 259.277682 
L 173.257067 267.082337 
L 173.750763 285.404854 
L 174.244459 275.403102 
L 174.738155 286.322901 
L 175.231851 276.523147 
L 175.725547 270.694223 
L 176.219244 267.090842 
L 176.71294 279.235327 
L 177.206636 315.396827 
L 177.700332 307.916251 
L 178.194028 269.228321 
L 178.687724 262.465336 
L 179.18142 265.925732 
L 180.168812 261.94763 
L 180.662508 250.125002 
L 181.156204 262.192239 
L 182.143597 314.716802 
L 182.637293 283.243099 
L 183.130989 308.164473 
L 183.624685 316.524097 
L 184.118381 309.74804 
L 184.612077 281.477098 
L 185.105773 280.712957 
L 185.599469 267.177757 
L 186.093165 268.997722 
L 186.586861 289.466164 
L 187.080557 317.123473 
L 187.574253 310.555971 
L 188.06795 285.672902 
L 188.561646 273.583942 
L 189.055342 272.389015 
L 189.549038 283.694409 
L 190.042734 270.073457 
L 191.030126 288.737687 
L 191.523822 292.545308 
L 192.017518 290.30737 
L 192.511214 285.989499 
L 193.00491 277.088539 
L 193.498607 217.740517 
L 193.992303 233.596597 
L 194.485999 262.64012 
L 194.979695 232.441027 
L 195.967087 280.653547 
L 196.460783 280.780291 
L 196.954479 280.302608 
L 197.448175 266.920762 
L 197.941871 281.380203 
L 198.435567 285.381147 
L 198.929263 282.167744 
L 199.42296 281.926685 
L 200.410352 284.484246 
L 200.904048 250.562384 
L 201.397744 244.380959 
L 201.89144 232.07632 
L 202.385136 230.007363 
L 203.372528 257.400484 
L 203.866224 258.292271 
L 204.35992 269.302879 
L 204.853616 277.633267 
L 205.841009 256.222445 
L 206.334705 246.469292 
L 207.322097 269.986505 
L 208.309489 259.565489 
L 208.803185 256.224503 
L 209.296881 270.314314 
L 209.790577 276.429785 
L 210.284273 264.843359 
L 210.777969 268.438459 
L 211.765362 253.953567 
L 212.259058 266.045712 
L 212.752754 270.359701 
L 213.24645 266.072294 
L 213.740146 275.787716 
L 214.727538 235.570507 
L 215.221234 226.887791 
L 215.71493 233.820368 
L 216.208626 229.883654 
L 216.702322 231.432121 
L 217.196019 256.022189 
L 217.689715 265.324733 
L 218.183411 254.816474 
L 218.677107 251.506736 
L 219.170803 251.191047 
L 220.158195 266.085886 
L 220.651891 265.698294 
L 221.145587 262.852223 
L 221.639283 271.967059 
L 222.132979 267.87673 
L 222.626676 274.770144 
L 223.120372 274.801769 
L 223.614068 269.021085 
L 224.107764 261.206964 
L 224.60146 274.274663 
L 225.095156 274.01524 
L 225.588852 261.509728 
L 226.082548 255.534408 
L 226.576244 270.581935 
L 227.06994 276.275381 
L 227.563636 272.015875 
L 228.551029 251.797876 
L 229.044725 263.081409 
L 229.538421 277.783961 
L 230.032117 274.58209 
L 230.525813 266.03704 
L 231.019509 278.959578 
L 231.513205 283.61482 
L 232.006901 279.883727 
L 232.500597 246.416231 
L 232.994293 249.198961 
L 233.487989 258.662411 
L 233.981685 251.750147 
L 234.475382 240.856524 
L 234.969078 244.135299 
L 235.462774 253.308243 
L 235.95647 240.467201 
L 236.943862 252.025098 
L 237.437558 236.068218 
L 237.931254 238.418111 
L 238.42495 225.106254 
L 238.918646 230.081047 
L 239.412342 244.027409 
L 240.399735 259.300113 
L 240.893431 261.744424 
L 241.387127 276.582245 
L 241.880823 260.16788 
L 242.374519 247.972431 
L 242.868215 251.559816 
L 243.361911 250.282811 
L 243.855607 270.948202 
L 244.349303 269.864857 
L 244.842999 267.263815 
L 245.336695 275.602171 
L 245.830392 277.850649 
L 246.324088 254.150651 
L 246.817784 259.256098 
L 247.31148 262.05492 
L 247.805176 254.473132 
L 248.298872 244.652874 
L 248.792568 238.301689 
L 249.286264 256.970338 
L 249.77996 254.835554 
L 250.273656 225.271133 
L 250.767352 241.409006 
L 251.261048 265.812482 
L 251.754745 284.088751 
L 252.248441 230.340664 
L 252.742137 201.430159 
L 253.235833 242.381725 
L 253.729529 252.522941 
L 254.223225 269.318327 
L 254.716921 217.813857 
L 255.704313 277.480244 
L 256.198009 285.17676 
L 256.691705 278.128864 
L 257.185401 268.702141 
L 257.679098 205.95278 
L 258.172794 237.086134 
L 258.66649 261.202009 
L 259.160186 199.489249 
L 259.653882 235.230023 
L 260.147578 262.782874 
L 260.641274 263.625666 
L 261.13497 275.193829 
L 261.628666 233.683079 
L 262.122362 141.757966 
L 262.616058 194.48667 
L 263.109754 189.867038 
L 263.603451 212.451435 
L 264.097147 241.342694 
L 264.590843 212.901414 
L 265.084539 218.183275 
L 265.578235 228.831119 
L 266.071931 181.027859 
L 266.565627 188.324559 
L 267.059323 223.717841 
L 267.553019 230.781569 
L 268.046715 136.854891 
L 268.540411 172.931112 
L 269.034107 182.480928 
L 269.527804 161.904474 
L 270.0215 213.832301 
L 270.515196 214.213143 
L 271.502588 238.445747 
L 271.996284 254.094949 
L 272.48998 259.192624 
L 272.983676 232.555416 
L 273.477372 196.855839 
L 273.971068 228.831589 
L 274.464764 271.225962 
L 274.958461 277.910136 
L 275.452157 198.477205 
L 275.945853 189.893547 
L 276.439549 228.721833 
L 276.933245 277.587525 
L 277.426941 188.994108 
L 277.920637 185.002592 
L 278.414333 231.842511 
L 279.401725 229.040529 
L 279.895421 201.948197 
L 280.389117 186.315348 
L 280.882814 235.581402 
L 281.37651 256.720433 
L 281.870206 185.965522 
L 282.363902 140.090668 
L 283.351294 237.465806 
L 283.84499 245.878404 
L 284.338686 271.334223 
L 284.832382 247.248262 
L 285.326078 155.648122 
L 285.819774 147.111891 
L 286.31347 192.748184 
L 286.807167 199.598256 
L 287.300863 173.463474 
L 287.794559 185.923993 
L 288.288255 220.371183 
L 288.781951 226.31934 
L 289.275647 248.621967 
L 289.769343 229.603539 
L 290.263039 229.564036 
L 290.756735 268.656173 
L 291.744127 189.162398 
L 292.237823 179.640489 
L 292.73152 240.384318 
L 293.225216 257.101864 
L 293.718912 206.157524 
L 294.212608 140.484354 
L 295.2 214.836169 
L 295.693696 159.292143 
L 296.187392 202.495593 
L 297.174784 266.334911 
L 297.66848 189.986609 
L 298.162177 217.439946 
L 298.655873 208.944689 
L 299.149569 219.801013 
L 299.643265 225.942777 
L 300.136961 202.263424 
L 300.630657 210.474123 
L 301.124353 205.7584 
L 301.618049 149.929097 
L 302.111745 141.093245 
L 303.099137 227.337143 
L 303.592833 217.765114 
L 304.08653 198.739234 
L 304.580226 220.058852 
L 305.073922 226.509867 
L 305.567618 240.0341 
L 306.061314 242.283843 
L 306.55501 211.658635 
L 307.048706 231.888292 
L 308.036098 173.827737 
L 309.02349 259.607722 
L 309.517186 245.498217 
L 310.010883 247.445042 
L 310.504579 227.965483 
L 310.998275 241.010664 
L 311.491971 230.322476 
L 311.985667 244.629113 
L 312.479363 265.111251 
L 312.973059 220.337377 
L 313.466755 232.905919 
L 313.960451 188.162593 
L 314.454147 180.713307 
L 315.441539 238.457869 
L 315.935236 254.782488 
L 316.428932 240.72428 
L 316.922628 193.518522 
L 317.91002 138.044042 
L 318.897412 229.072388 
L 319.391108 259.884344 
L 319.884804 239.239194 
L 320.3785 148.272475 
L 320.872196 158.852148 
L 321.365893 174.064823 
L 321.859589 221.69239 
L 322.846981 277.937384 
L 323.340677 274.491712 
L 323.834373 256.760465 
L 324.328069 170.599643 
L 324.821765 163.010096 
L 325.315461 194.582935 
L 325.809157 209.708288 
L 326.302853 191.43147 
L 326.796549 201.854527 
L 327.783942 267.200672 
L 328.277638 263.592834 
L 328.771334 228.643426 
L 329.26503 217.678643 
L 329.758726 224.809958 
L 330.252422 259.835274 
L 330.746118 251.247922 
L 331.239814 274.422878 
L 331.73351 208.791378 
L 332.227206 200.224248 
L 332.720902 236.612767 
L 333.214599 246.20305 
L 333.708295 274.974389 
L 334.201991 263.385287 
L 334.695687 275.988219 
L 335.189383 300.137695 
L 335.683079 273.906825 
L 336.176775 212.860861 
L 336.670471 240.748165 
L 337.164167 238.061325 
L 338.151559 277.023337 
L 338.645255 278.070079 
L 339.138952 247.418916 
L 339.632648 229.779215 
L 340.126344 244.836225 
L 340.62004 245.428713 
L 341.113736 267.881372 
L 341.607432 281.352116 
L 342.101128 247.662483 
L 343.08852 309.130876 
L 343.582216 236.715245 
L 344.075912 219.844349 
L 344.569608 207.902571 
L 345.063305 224.720072 
L 345.557001 264.164379 
L 346.050697 267.573004 
L 346.544393 290.652113 
L 347.531785 275.882904 
L 348.025481 304.83556 
L 348.519177 287.074931 
L 349.012873 276.159466 
L 349.506569 262.264842 
L 350.000265 211.127611 
L 350.493962 250.275194 
L 350.987658 277.557793 
L 351.481354 261.36711 
L 351.97505 218.728046 
L 352.468746 263.161138 
L 352.962442 265.711485 
L 353.456138 266.279122 
L 353.949834 288.836212 
L 354.44353 271.583535 
L 354.937226 225.247195 
L 355.924618 272.332485 
L 356.418315 211.720475 
L 356.912011 218.801602 
L 357.405707 237.138936 
L 357.899403 269.846929 
L 358.393099 278.580428 
L 358.886795 280.71277 
L 359.380491 295.413319 
L 359.874187 288.455301 
L 360.367883 257.640193 
L 360.861579 268.101427 
L 361.355275 284.795592 
L 361.848971 294.659188 
L 362.342668 280.812905 
L 362.836364 280.721814 
L 363.33006 284.238036 
L 363.823756 285.148145 
L 364.317452 298.282798 
L 364.811148 259.149988 
L 365.304844 271.943632 
L 365.79854 266.613951 
L 366.292236 215.225661 
L 366.785932 231.807199 
L 367.279628 241.286525 
L 367.773324 235.727175 
L 368.267021 240.335891 
L 368.760717 263.137756 
L 369.254413 273.887867 
L 369.748109 263.193742 
L 370.735501 286.113968 
L 371.229197 310.65229 
L 371.722893 285.079874 
L 372.216589 229.32493 
L 372.710285 212.712421 
L 373.203981 211.484687 
L 373.697678 232.776117 
L 374.191374 235.233243 
L 374.68507 223.98383 
L 375.178766 236.970666 
L 376.166158 268.813873 
L 377.15355 253.667619 
L 377.647246 266.52954 
L 378.634638 275.318129 
L 379.128334 266.932695 
L 379.622031 255.894103 
L 380.115727 247.856669 
L 380.609423 265.392851 
L 381.103119 269.621025 
L 381.596815 279.707741 
L 382.090511 279.535836 
L 382.584207 273.744505 
L 383.077903 259.272364 
L 383.571599 252.976275 
L 384.558991 278.092083 
L 385.052687 280.672857 
L 385.546384 271.485378 
L 386.04008 267.585778 
L 386.533776 278.996749 
L 387.027472 256.371496 
L 387.521168 252.830843 
L 388.014864 269.037102 
L 388.50856 277.816563 
L 389.495952 262.78467 
L 389.989648 257.193801 
L 390.483344 255.918829 
L 390.97704 251.049966 
L 391.470737 249.375266 
L 391.964433 266.567952 
L 392.458129 269.184721 
L 392.951825 264.193386 
L 393.445521 263.67549 
L 393.939217 270.345004 
L 394.432913 281.31553 
L 394.926609 286.383855 
L 395.420305 245.257423 
L 395.914001 239.309758 
L 396.407697 250.107304 
L 396.901393 253.255167 
L 397.39509 249.710319 
L 397.888786 235.699117 
L 398.382482 246.537391 
L 398.876178 240.904469 
L 399.369874 243.967153 
L 399.86357 254.218002 
L 400.357266 253.401262 
L 400.850962 242.831689 
L 401.344658 239.350421 
L 401.838354 237.894061 
L 402.33205 253.55732 
L 402.825747 259.277325 
L 403.319443 257.846718 
L 403.813139 254.899131 
L 404.306835 259.73526 
L 404.800531 256.09059 
L 405.294227 222.092561 
L 405.787923 248.534978 
L 406.775315 276.738973 
L 407.269011 275.667327 
L 407.762707 249.094099 
L 408.256403 260.973009 
L 408.7501 282.047857 
L 409.243796 283.291448 
L 409.737492 281.03789 
L 410.231188 282.076486 
L 410.724884 284.661721 
L 411.21858 291.546418 
L 412.205972 273.831251 
L 412.699668 260.155885 
L 413.193364 239.941874 
L 413.68706 210.737334 
L 414.180756 221.061425 
L 414.674453 266.202061 
L 415.168149 286.250352 
L 415.661845 276.198593 
L 416.155541 275.970058 
L 416.649237 274.353428 
L 417.142933 271.255133 
L 417.636629 252.072153 
L 418.130325 254.18906 
L 418.624021 253.683371 
L 419.117717 250.618209 
L 419.611413 261.656591 
L 420.105109 256.380391 
L 420.598806 257.348802 
L 421.092502 258.720996 
L 421.586198 239.135048 
L 422.079894 229.735467 
L 423.067286 266.14433 
L 423.560982 279.471298 
L 424.548374 263.892903 
L 425.04207 256.132872 
L 425.535766 242.32153 
L 426.029463 250.055456 
L 426.523159 253.478605 
L 427.016855 246.884852 
L 427.510551 258.355024 
L 428.004247 247.4543 
L 428.497943 252.82382 
L 428.991639 268.060507 
L 429.485335 277.697572 
L 429.979031 267.713357 
L 430.472727 248.717538 
L 430.966423 269.414956 
L 431.460119 269.271994 
L 431.953816 251.807343 
L 432.447512 262.157937 
L 432.941208 269.726781 
L 433.434904 270.038856 
L 433.9286 263.776997 
L 434.422296 246.38329 
L 434.915992 248.877797 
L 435.409688 271.722253 
L 435.903384 277.7438 
L 436.890776 258.83866 
L 437.384472 237.65183 
L 437.878169 255.711641 
L 438.371865 260.84165 
L 438.865561 237.123994 
L 439.359257 240.741368 
L 439.852953 236.894499 
L 440.346649 224.362043 
L 440.840345 232.485413 
L 441.334041 266.454049 
L 441.827737 278.169872 
L 442.321433 258.27866 
L 442.815129 213.799446 
L 443.308825 236.507923 
L 443.802522 267.841663 
L 444.296218 247.941911 
L 444.789914 237.306833 
L 445.28361 247.300315 
L 445.777306 254.793557 
L 446.271002 257.250329 
L 446.764698 254.263184 
L 447.258394 241.968462 
L 448.245786 249.195829 
L 448.739482 248.606685 
L 449.233179 250.299764 
L 449.726875 256.589184 
L 450.220571 229.487457 
L 451.207963 207.107419 
L 451.701659 211.815638 
L 452.195355 249.243846 
L 452.689051 252.134987 
L 453.182747 219.01775 
L 453.676443 209.997324 
L 454.170139 225.250073 
L 454.663835 234.800987 
L 455.157532 211.001844 
L 456.144924 187.205792 
L 456.63862 209.952838 
L 457.626012 226.066598 
L 458.119708 245.620873 
L 458.613404 247.350313 
L 459.1071 241.911132 
L 459.600796 233.019997 
L 460.094492 260.452851 
L 460.588188 237.140518 
L 461.081885 181.682567 
L 461.575581 180.943816 
L 462.069277 217.641778 
L 462.562973 244.406907 
L 463.056669 247.329827 
L 464.044061 280.352012 
L 464.537757 203.578397 
L 465.031453 243.980551 
L 465.525149 264.250183 
L 466.512541 201.813111 
L 467.499934 247.884785 
L 467.99363 204.776354 
L 468.487326 205.827689 
L 468.981022 247.220258 
L 469.474718 274.902178 
L 469.968414 234.700614 
L 470.46211 242.361579 
L 471.449502 208.323347 
L 471.943198 229.717474 
L 472.436894 268.33899 
L 472.930591 276.869117 
L 473.424287 185.563052 
L 473.917983 210.440688 
L 474.411679 251.742775 
L 474.905375 183.332036 
L 475.399071 144.783268 
L 475.892767 140.502246 
L 476.386463 189.485577 
L 476.880159 182.08282 
L 477.373855 138.927848 
L 477.867551 152.71808 
L 478.361248 179.120574 
L 479.34864 249.902439 
L 479.842336 184.565977 
L 480.829728 227.1503 
L 481.323424 227.603184 
L 481.81712 267.176283 
L 482.310816 183.772185 
L 482.804512 166.973563 
L 483.298208 210.305615 
L 483.791904 175.962152 
L 484.285601 233.198414 
L 484.779297 190.599772 
L 485.272993 200.019036 
L 485.766689 219.254493 
L 486.260385 219.782123 
L 486.754081 210.408016 
L 487.247777 257.063068 
L 487.741473 276.524115 
L 488.235169 237.856569 
L 488.728865 209.036876 
L 489.222561 225.504341 
L 489.716257 188.816813 
L 490.209954 190.204678 
L 490.70365 216.497424 
L 491.197346 167.940692 
L 491.691042 187.193136 
L 492.184738 227.593533 
L 492.678434 232.946782 
L 493.665826 279.295697 
L 494.159522 286.191868 
L 494.159522 286.191868 
" clip-path="url(#pafa1751698)" style="fill: none; stroke: #ff7f0e; stroke-width: 1.5; stroke-linecap: round"/>
   </g>
   <g id="patch_3">
    <path d="M 72 384.48 
L 72 51.84 
" style="fill: none; stroke: #ffffff; stroke-width: 0.8; stroke-linejoin: miter; stroke-linecap: square"/>
   </g>
   <g id="patch_4">
    <path d="M 518.4 384.48 
L 518.4 51.84 
" style="fill: none; stroke: #ffffff; stroke-width: 0.8; stroke-linejoin: miter; stroke-linecap: square"/>
   </g>
   <g id="patch_5">
    <path d="M 72 384.48 
L 518.4 384.48 
" style="fill: none; stroke: #ffffff; stroke-width: 0.8; stroke-linejoin: miter; stroke-linecap: square"/>
   </g>
   <g id="patch_6">
    <path d="M 72 51.84 
L 518.4 51.84 
" style="fill: none; stroke: #ffffff; stroke-width: 0.8; stroke-linejoin: miter; stroke-linecap: square"/>
   </g>
   <g id="text_16">
    <!-- Average Pressure Prediction 57 Days Ahead -->
    <g style="fill: #262626" transform="translate(176.57625 45.84) scale(0.12 -0.12)">
     <defs>
      <path id="ArialMT-41" d="M -9 0 
L 1750 4581 
L 2403 4581 
L 4278 0 
L 3588 0 
L 3053 1388 
L 1138 1388 
L 634 0 
L -9 0 
z
M 1313 1881 
L 2866 1881 
L 2388 3150 
Q 2169 3728 2063 4100 
Q 1975 3659 1816 3225 
L 1313 1881 
z
" transform="scale(0.015625)"/>
      <path id="ArialMT-76" d="M 1344 0 
L 81 3319 
L 675 3319 
L 1388 1331 
Q 1503 1009 1600 663 
Q 1675 925 1809 1294 
L 2547 3319 
L 3125 3319 
L 1869 0 
L 1344 0 
z
" transform="scale(0.015625)"/>
      <path id="ArialMT-65" d="M 2694 1069 
L 3275 997 
Q 3138 488 2766 206 
Q 2394 -75 1816 -75 
Q 1088 -75 661 373 
Q 234 822 234 1631 
Q 234 2469 665 2931 
Q 1097 3394 1784 3394 
Q 2450 3394 2872 2941 
Q 3294 2488 3294 1666 
Q 3294 1616 3291 1516 
L 816 1516 
Q 847 969 1125 678 
Q 1403 388 1819 388 
Q 2128 388 2347 550 
Q 2566 713 2694 1069 
z
M 847 1978 
L 2700 1978 
Q 2663 2397 2488 2606 
Q 2219 2931 1791 2931 
Q 1403 2931 1139 2672 
Q 875 2413 847 1978 
z
" transform="scale(0.015625)"/>
      <path id="ArialMT-72" d="M 416 0 
L 416 3319 
L 922 3319 
L 922 2816 
Q 1116 3169 1280 3281 
Q 1444 3394 1641 3394 
Q 1925 3394 2219 3213 
L 2025 2691 
Q 1819 2813 1613 2813 
Q 1428 2813 1281 2702 
Q 1134 2591 1072 2394 
Q 978 2094 978 1738 
L 978 0 
L 416 0 
z
" transform="scale(0.015625)"/>
      <path id="ArialMT-67" d="M 319 -275 
L 866 -356 
Q 900 -609 1056 -725 
Q 1266 -881 1628 -881 
Q 2019 -881 2231 -725 
Q 2444 -569 2519 -288 
Q 2563 -116 2559 434 
Q 2191 0 1641 0 
Q 956 0 581 494 
Q 206 988 206 1678 
Q 206 2153 378 2554 
Q 550 2956 876 3175 
Q 1203 3394 1644 3394 
Q 2231 3394 2613 2919 
L 2613 3319 
L 3131 3319 
L 3131 450 
Q 3131 -325 2973 -648 
Q 2816 -972 2473 -1159 
Q 2131 -1347 1631 -1347 
Q 1038 -1347 672 -1080 
Q 306 -813 319 -275 
z
M 784 1719 
Q 784 1066 1043 766 
Q 1303 466 1694 466 
Q 2081 466 2343 764 
Q 2606 1063 2606 1700 
Q 2606 2309 2336 2618 
Q 2066 2928 1684 2928 
Q 1309 2928 1046 2623 
Q 784 2319 784 1719 
z
" transform="scale(0.015625)"/>
      <path id="ArialMT-20" transform="scale(0.015625)"/>
      <path id="ArialMT-75" d="M 2597 0 
L 2597 488 
Q 2209 -75 1544 -75 
Q 1250 -75 995 37 
Q 741 150 617 320 
Q 494 491 444 738 
Q 409 903 409 1263 
L 409 3319 
L 972 3319 
L 972 1478 
Q 972 1038 1006 884 
Q 1059 663 1231 536 
Q 1403 409 1656 409 
Q 1909 409 2131 539 
Q 2353 669 2445 892 
Q 2538 1116 2538 1541 
L 2538 3319 
L 3100 3319 
L 3100 0 
L 2597 0 
z
" transform="scale(0.015625)"/>
      <path id="ArialMT-64" d="M 2575 0 
L 2575 419 
Q 2259 -75 1647 -75 
Q 1250 -75 917 144 
Q 584 363 401 755 
Q 219 1147 219 1656 
Q 219 2153 384 2558 
Q 550 2963 881 3178 
Q 1213 3394 1622 3394 
Q 1922 3394 2156 3267 
Q 2391 3141 2538 2938 
L 2538 4581 
L 3097 4581 
L 3097 0 
L 2575 0 
z
M 797 1656 
Q 797 1019 1065 703 
Q 1334 388 1700 388 
Q 2069 388 2326 689 
Q 2584 991 2584 1609 
Q 2584 2291 2321 2609 
Q 2059 2928 1675 2928 
Q 1300 2928 1048 2622 
Q 797 2316 797 1656 
z
" transform="scale(0.015625)"/>
      <path id="ArialMT-69" d="M 425 3934 
L 425 4581 
L 988 4581 
L 988 3934 
L 425 3934 
z
M 425 0 
L 425 3319 
L 988 3319 
L 988 0 
L 425 0 
z
" transform="scale(0.015625)"/>
      <path id="ArialMT-63" d="M 2588 1216 
L 3141 1144 
Q 3050 572 2676 248 
Q 2303 -75 1759 -75 
Q 1078 -75 664 370 
Q 250 816 250 1647 
Q 250 2184 428 2587 
Q 606 2991 970 3192 
Q 1334 3394 1763 3394 
Q 2303 3394 2647 3120 
Q 2991 2847 3088 2344 
L 2541 2259 
Q 2463 2594 2264 2762 
Q 2066 2931 1784 2931 
Q 1359 2931 1093 2626 
Q 828 2322 828 1663 
Q 828 994 1084 691 
Q 1341 388 1753 388 
Q 2084 388 2306 591 
Q 2528 794 2588 1216 
z
" transform="scale(0.015625)"/>
      <path id="ArialMT-74" d="M 1650 503 
L 1731 6 
Q 1494 -44 1306 -44 
Q 1000 -44 831 53 
Q 663 150 594 308 
Q 525 466 525 972 
L 525 2881 
L 113 2881 
L 113 3319 
L 525 3319 
L 525 4141 
L 1084 4478 
L 1084 3319 
L 1650 3319 
L 1650 2881 
L 1084 2881 
L 1084 941 
Q 1084 700 1114 631 
Q 1144 563 1211 522 
Q 1278 481 1403 481 
Q 1497 481 1650 503 
z
" transform="scale(0.015625)"/>
      <path id="ArialMT-6f" d="M 213 1659 
Q 213 2581 725 3025 
Q 1153 3394 1769 3394 
Q 2453 3394 2887 2945 
Q 3322 2497 3322 1706 
Q 3322 1066 3130 698 
Q 2938 331 2570 128 
Q 2203 -75 1769 -75 
Q 1072 -75 642 372 
Q 213 819 213 1659 
z
M 791 1659 
Q 791 1022 1069 705 
Q 1347 388 1769 388 
Q 2188 388 2466 706 
Q 2744 1025 2744 1678 
Q 2744 2294 2464 2611 
Q 2184 2928 1769 2928 
Q 1347 2928 1069 2612 
Q 791 2297 791 1659 
z
" transform="scale(0.015625)"/>
      <path id="ArialMT-6e" d="M 422 0 
L 422 3319 
L 928 3319 
L 928 2847 
Q 1294 3394 1984 3394 
Q 2284 3394 2536 3286 
Q 2788 3178 2913 3003 
Q 3038 2828 3088 2588 
Q 3119 2431 3119 2041 
L 3119 0 
L 2556 0 
L 2556 2019 
Q 2556 2363 2490 2533 
Q 2425 2703 2258 2804 
Q 2091 2906 1866 2906 
Q 1506 2906 1245 2678 
Q 984 2450 984 1813 
L 984 0 
L 422 0 
z
" transform="scale(0.015625)"/>
      <path id="ArialMT-37" d="M 303 3981 
L 303 4522 
L 3269 4522 
L 3269 4084 
Q 2831 3619 2401 2847 
Q 1972 2075 1738 1259 
Q 1569 684 1522 0 
L 944 0 
Q 953 541 1156 1306 
Q 1359 2072 1739 2783 
Q 2119 3494 2547 3981 
L 303 3981 
z
" transform="scale(0.015625)"/>
     </defs>
     <use xlink:href="#ArialMT-41"/>
     <use xlink:href="#ArialMT-76" x="64.949219"/>
     <use xlink:href="#ArialMT-65" x="114.949219"/>
     <use xlink:href="#ArialMT-72" x="170.564453"/>
     <use xlink:href="#ArialMT-61" x="203.865234"/>
     <use xlink:href="#ArialMT-67" x="259.480469"/>
     <use xlink:href="#ArialMT-65" x="315.095703"/>
     <use xlink:href="#ArialMT-20" x="370.710938"/>
     <use xlink:href="#ArialMT-50" x="398.494141"/>
     <use xlink:href="#ArialMT-72" x="465.193359"/>
     <use xlink:href="#ArialMT-65" x="498.494141"/>
     <use xlink:href="#ArialMT-73" x="554.109375"/>
     <use xlink:href="#ArialMT-73" x="604.109375"/>
     <use xlink:href="#ArialMT-75" x="654.109375"/>
     <use xlink:href="#ArialMT-72" x="709.724609"/>
     <use xlink:href="#ArialMT-65" x="743.025391"/>
     <use xlink:href="#ArialMT-20" x="798.640625"/>
     <use xlink:href="#ArialMT-50" x="826.423828"/>
     <use xlink:href="#ArialMT-72" x="893.123047"/>
     <use xlink:href="#ArialMT-65" x="926.423828"/>
     <use xlink:href="#ArialMT-64" x="982.039062"/>
     <use xlink:href="#ArialMT-69" x="1037.654297"/>
     <use xlink:href="#ArialMT-63" x="1059.871094"/>
     <use xlink:href="#ArialMT-74" x="1109.871094"/>
     <use xlink:href="#ArialMT-69" x="1137.654297"/>
     <use xlink:href="#ArialMT-6f" x="1159.871094"/>
     <use xlink:href="#ArialMT-6e" x="1215.486328"/>
     <use xlink:href="#ArialMT-20" x="1271.101562"/>
     <use xlink:href="#ArialMT-35" x="1298.884766"/>
     <use xlink:href="#ArialMT-37" x="1354.5"/>
     <use xlink:href="#ArialMT-20" x="1410.115234"/>
     <use xlink:href="#ArialMT-44" x="1437.898438"/>
     <use xlink:href="#ArialMT-61" x="1510.115234"/>
     <use xlink:href="#ArialMT-79" x="1565.730469"/>
     <use xlink:href="#ArialMT-73" x="1615.730469"/>
     <use xlink:href="#ArialMT-20" x="1665.730469"/>
     <use xlink:href="#ArialMT-41" x="1688.013672"/>
     <use xlink:href="#ArialMT-68" x="1754.712891"/>
     <use xlink:href="#ArialMT-65" x="1810.328125"/>
     <use xlink:href="#ArialMT-61" x="1865.943359"/>
     <use xlink:href="#ArialMT-64" x="1921.558594"/>
    </g>
   </g>
   <g id="legend_1">
    <g id="patch_7">
     <path d="M 437.15625 88.130625 
L 511.4 88.130625 
Q 513.4 88.130625 513.4 86.130625 
L 513.4 58.84 
Q 513.4 56.84 511.4 56.84 
L 437.15625 56.84 
Q 435.15625 56.84 435.15625 58.84 
L 435.15625 86.130625 
Q 435.15625 88.130625 437.15625 88.130625 
z
" style="fill: #eaeaf2; opacity: 0.8; stroke: #cccccc; stroke-linejoin: miter"/>
    </g>
    <g id="line2d_16">
     <path d="M 439.15625 64.497812 
L 449.15625 64.497812 
L 459.15625 64.497812 
" style="fill: none; stroke: #1f77b4; stroke-width: 1.5; stroke-linecap: round"/>
    </g>
    <g id="text_17">
     <!-- Real -->
     <g style="fill: #262626" transform="translate(467.15625 67.997812) scale(0.1 -0.1)">
      <defs>
       <path id="ArialMT-52" d="M 503 0 
L 503 4581 
L 2534 4581 
Q 3147 4581 3465 4457 
Q 3784 4334 3975 4021 
Q 4166 3709 4166 3331 
Q 4166 2844 3850 2509 
Q 3534 2175 2875 2084 
Q 3116 1969 3241 1856 
Q 3506 1613 3744 1247 
L 4541 0 
L 3778 0 
L 3172 953 
Q 2906 1366 2734 1584 
Q 2563 1803 2427 1890 
Q 2291 1978 2150 2013 
Q 2047 2034 1813 2034 
L 1109 2034 
L 1109 0 
L 503 0 
z
M 1109 2559 
L 2413 2559 
Q 2828 2559 3062 2645 
Q 3297 2731 3419 2920 
Q 3541 3109 3541 3331 
Q 3541 3656 3305 3865 
Q 3069 4075 2559 4075 
L 1109 4075 
L 1109 2559 
z
" transform="scale(0.015625)"/>
       <path id="ArialMT-6c" d="M 409 0 
L 409 4581 
L 972 4581 
L 972 0 
L 409 0 
z
" transform="scale(0.015625)"/>
      </defs>
      <use xlink:href="#ArialMT-52"/>
      <use xlink:href="#ArialMT-65" x="72.216797"/>
      <use xlink:href="#ArialMT-61" x="127.832031"/>
      <use xlink:href="#ArialMT-6c" x="183.447266"/>
     </g>
    </g>
    <g id="line2d_17">
     <path d="M 439.15625 78.643125 
L 449.15625 78.643125 
L 459.15625 78.643125 
" style="fill: none; stroke: #ff7f0e; stroke-width: 1.5; stroke-linecap: round"/>
    </g>
    <g id="text_18">
     <!-- Predicted -->
     <g style="fill: #262626" transform="translate(467.15625 82.143125) scale(0.1 -0.1)">
      <use xlink:href="#ArialMT-50"/>
      <use xlink:href="#ArialMT-72" x="66.699219"/>
      <use xlink:href="#ArialMT-65" x="100"/>
      <use xlink:href="#ArialMT-64" x="155.615234"/>
      <use xlink:href="#ArialMT-69" x="211.230469"/>
      <use xlink:href="#ArialMT-63" x="233.447266"/>
      <use xlink:href="#ArialMT-74" x="283.447266"/>
      <use xlink:href="#ArialMT-65" x="311.230469"/>
      <use xlink:href="#ArialMT-64" x="366.845703"/>
     </g>
    </g>
   </g>
  </g>
 </g>
 <defs>
  <clipPath id="pafa1751698">
   <rect x="72" y="51.84" width="446.4" height="332.64"/>
  </clipPath>
 </defs>
</svg>
