<?xml version="1.0" encoding="utf-8" standalone="no"?>
<!DOCTYPE svg PUBLIC "-//W3C//DTD SVG 1.1//EN"
  "http://www.w3.org/Graphics/SVG/1.1/DTD/svg11.dtd">
<svg xmlns:xlink="http://www.w3.org/1999/xlink" width="576pt" height="432pt" viewBox="0 0 576 432" xmlns="http://www.w3.org/2000/svg" version="1.1">
 <metadata>
  <rdf:RDF xmlns:dc="http://purl.org/dc/elements/1.1/" xmlns:cc="http://creativecommons.org/ns#" xmlns:rdf="http://www.w3.org/1999/02/22-rdf-syntax-ns#">
   <cc:Work>
    <dc:type rdf:resource="http://purl.org/dc/dcmitype/StillImage"/>
    <dc:date>2023-11-17T05:10:44.723753</dc:date>
    <dc:format>image/svg+xml</dc:format>
    <dc:creator>
     <cc:Agent>
      <dc:title>Matplotlib v3.8.0, https://matplotlib.org/</dc:title>
     </cc:Agent>
    </dc:creator>
   </cc:Work>
  </rdf:RDF>
 </metadata>
 <defs>
  <style type="text/css">*{stroke-linejoin: round; stroke-linecap: butt}</style>
 </defs>
 <g id="figure_1">
  <g id="patch_1">
   <path d="M 0 432 
L 576 432 
L 576 0 
L 0 0 
z
" style="fill: #ffffff"/>
  </g>
  <g id="axes_1">
   <g id="patch_2">
    <path d="M 72 384.48 
L 518.4 384.48 
L 518.4 51.84 
L 72 51.84 
z
" style="fill: #eaeaf2"/>
   </g>
   <g id="matplotlib.axis_1">
    <g id="xtick_1">
     <g id="line2d_1">
      <path d="M 92.290909 384.48 
L 92.290909 51.84 
" clip-path="url(#p6b9830304f)" style="fill: none; stroke: #ffffff; stroke-width: 0.8; stroke-linecap: round"/>
     </g>
     <g id="text_1">
      <!-- 0 -->
      <g style="fill: #262626" transform="translate(89.51044 398.637812) scale(0.1 -0.1)">
       <defs>
        <path id="ArialMT-30" d="M 266 2259 
Q 266 3072 433 3567 
Q 600 4063 929 4331 
Q 1259 4600 1759 4600 
Q 2128 4600 2406 4451 
Q 2684 4303 2865 4023 
Q 3047 3744 3150 3342 
Q 3253 2941 3253 2259 
Q 3253 1453 3087 958 
Q 2922 463 2592 192 
Q 2263 -78 1759 -78 
Q 1097 -78 719 397 
Q 266 969 266 2259 
z
M 844 2259 
Q 844 1131 1108 757 
Q 1372 384 1759 384 
Q 2147 384 2411 759 
Q 2675 1134 2675 2259 
Q 2675 3391 2411 3762 
Q 2147 4134 1753 4134 
Q 1366 4134 1134 3806 
Q 844 3388 844 2259 
z
" transform="scale(0.015625)"/>
       </defs>
       <use xlink:href="#ArialMT-30"/>
      </g>
     </g>
    </g>
    <g id="xtick_2">
     <g id="line2d_2">
      <path d="M 191.030126 384.48 
L 191.030126 51.84 
" clip-path="url(#p6b9830304f)" style="fill: none; stroke: #ffffff; stroke-width: 0.8; stroke-linecap: round"/>
     </g>
     <g id="text_2">
      <!-- 200 -->
      <g style="fill: #262626" transform="translate(182.68872 398.637812) scale(0.1 -0.1)">
       <defs>
        <path id="ArialMT-32" d="M 3222 541 
L 3222 0 
L 194 0 
Q 188 203 259 391 
Q 375 700 629 1000 
Q 884 1300 1366 1694 
Q 2113 2306 2375 2664 
Q 2638 3022 2638 3341 
Q 2638 3675 2398 3904 
Q 2159 4134 1775 4134 
Q 1369 4134 1125 3890 
Q 881 3647 878 3216 
L 300 3275 
Q 359 3922 746 4261 
Q 1134 4600 1788 4600 
Q 2447 4600 2831 4234 
Q 3216 3869 3216 3328 
Q 3216 3053 3103 2787 
Q 2991 2522 2730 2228 
Q 2469 1934 1863 1422 
Q 1356 997 1212 845 
Q 1069 694 975 541 
L 3222 541 
z
" transform="scale(0.015625)"/>
       </defs>
       <use xlink:href="#ArialMT-32"/>
       <use xlink:href="#ArialMT-30" x="55.615234"/>
       <use xlink:href="#ArialMT-30" x="111.230469"/>
      </g>
     </g>
    </g>
    <g id="xtick_3">
     <g id="line2d_3">
      <path d="M 289.769343 384.48 
L 289.769343 51.84 
" clip-path="url(#p6b9830304f)" style="fill: none; stroke: #ffffff; stroke-width: 0.8; stroke-linecap: round"/>
     </g>
     <g id="text_3">
      <!-- 400 -->
      <g style="fill: #262626" transform="translate(281.427937 398.637812) scale(0.1 -0.1)">
       <defs>
        <path id="ArialMT-34" d="M 2069 0 
L 2069 1097 
L 81 1097 
L 81 1613 
L 2172 4581 
L 2631 4581 
L 2631 1613 
L 3250 1613 
L 3250 1097 
L 2631 1097 
L 2631 0 
L 2069 0 
z
M 2069 1613 
L 2069 3678 
L 634 1613 
L 2069 1613 
z
" transform="scale(0.015625)"/>
       </defs>
       <use xlink:href="#ArialMT-34"/>
       <use xlink:href="#ArialMT-30" x="55.615234"/>
       <use xlink:href="#ArialMT-30" x="111.230469"/>
      </g>
     </g>
    </g>
    <g id="xtick_4">
     <g id="line2d_4">
      <path d="M 388.50856 384.48 
L 388.50856 51.84 
" clip-path="url(#p6b9830304f)" style="fill: none; stroke: #ffffff; stroke-width: 0.8; stroke-linecap: round"/>
     </g>
     <g id="text_4">
      <!-- 600 -->
      <g style="fill: #262626" transform="translate(380.167154 398.637812) scale(0.1 -0.1)">
       <defs>
        <path id="ArialMT-36" d="M 3184 3459 
L 2625 3416 
Q 2550 3747 2413 3897 
Q 2184 4138 1850 4138 
Q 1581 4138 1378 3988 
Q 1113 3794 959 3422 
Q 806 3050 800 2363 
Q 1003 2672 1297 2822 
Q 1591 2972 1913 2972 
Q 2475 2972 2870 2558 
Q 3266 2144 3266 1488 
Q 3266 1056 3080 686 
Q 2894 316 2569 119 
Q 2244 -78 1831 -78 
Q 1128 -78 684 439 
Q 241 956 241 2144 
Q 241 3472 731 4075 
Q 1159 4600 1884 4600 
Q 2425 4600 2770 4297 
Q 3116 3994 3184 3459 
z
M 888 1484 
Q 888 1194 1011 928 
Q 1134 663 1356 523 
Q 1578 384 1822 384 
Q 2178 384 2434 671 
Q 2691 959 2691 1453 
Q 2691 1928 2437 2201 
Q 2184 2475 1800 2475 
Q 1419 2475 1153 2201 
Q 888 1928 888 1484 
z
" transform="scale(0.015625)"/>
       </defs>
       <use xlink:href="#ArialMT-36"/>
       <use xlink:href="#ArialMT-30" x="55.615234"/>
       <use xlink:href="#ArialMT-30" x="111.230469"/>
      </g>
     </g>
    </g>
    <g id="xtick_5">
     <g id="line2d_5">
      <path d="M 487.247777 384.48 
L 487.247777 51.84 
" clip-path="url(#p6b9830304f)" style="fill: none; stroke: #ffffff; stroke-width: 0.8; stroke-linecap: round"/>
     </g>
     <g id="text_5">
      <!-- 800 -->
      <g style="fill: #262626" transform="translate(478.906371 398.637812) scale(0.1 -0.1)">
       <defs>
        <path id="ArialMT-38" d="M 1131 2484 
Q 781 2613 612 2850 
Q 444 3088 444 3419 
Q 444 3919 803 4259 
Q 1163 4600 1759 4600 
Q 2359 4600 2725 4251 
Q 3091 3903 3091 3403 
Q 3091 3084 2923 2848 
Q 2756 2613 2416 2484 
Q 2838 2347 3058 2040 
Q 3278 1734 3278 1309 
Q 3278 722 2862 322 
Q 2447 -78 1769 -78 
Q 1091 -78 675 323 
Q 259 725 259 1325 
Q 259 1772 486 2073 
Q 713 2375 1131 2484 
z
M 1019 3438 
Q 1019 3113 1228 2906 
Q 1438 2700 1772 2700 
Q 2097 2700 2305 2904 
Q 2513 3109 2513 3406 
Q 2513 3716 2298 3927 
Q 2084 4138 1766 4138 
Q 1444 4138 1231 3931 
Q 1019 3725 1019 3438 
z
M 838 1322 
Q 838 1081 952 856 
Q 1066 631 1291 507 
Q 1516 384 1775 384 
Q 2178 384 2440 643 
Q 2703 903 2703 1303 
Q 2703 1709 2433 1975 
Q 2163 2241 1756 2241 
Q 1359 2241 1098 1978 
Q 838 1716 838 1322 
z
" transform="scale(0.015625)"/>
       </defs>
       <use xlink:href="#ArialMT-38"/>
       <use xlink:href="#ArialMT-30" x="55.615234"/>
       <use xlink:href="#ArialMT-30" x="111.230469"/>
      </g>
     </g>
    </g>
    <g id="text_6">
     <!-- Days -->
     <g style="fill: #262626" transform="translate(283.808594 411.783125) scale(0.1 -0.1)">
      <defs>
       <path id="ArialMT-44" d="M 494 0 
L 494 4581 
L 2072 4581 
Q 2606 4581 2888 4516 
Q 3281 4425 3559 4188 
Q 3922 3881 4101 3404 
Q 4281 2928 4281 2316 
Q 4281 1794 4159 1391 
Q 4038 988 3847 723 
Q 3656 459 3429 307 
Q 3203 156 2883 78 
Q 2563 0 2147 0 
L 494 0 
z
M 1100 541 
L 2078 541 
Q 2531 541 2789 625 
Q 3047 709 3200 863 
Q 3416 1078 3536 1442 
Q 3656 1806 3656 2325 
Q 3656 3044 3420 3430 
Q 3184 3816 2847 3947 
Q 2603 4041 2063 4041 
L 1100 4041 
L 1100 541 
z
" transform="scale(0.015625)"/>
       <path id="ArialMT-61" d="M 2588 409 
Q 2275 144 1986 34 
Q 1697 -75 1366 -75 
Q 819 -75 525 192 
Q 231 459 231 875 
Q 231 1119 342 1320 
Q 453 1522 633 1644 
Q 813 1766 1038 1828 
Q 1203 1872 1538 1913 
Q 2219 1994 2541 2106 
Q 2544 2222 2544 2253 
Q 2544 2597 2384 2738 
Q 2169 2928 1744 2928 
Q 1347 2928 1158 2789 
Q 969 2650 878 2297 
L 328 2372 
Q 403 2725 575 2942 
Q 747 3159 1072 3276 
Q 1397 3394 1825 3394 
Q 2250 3394 2515 3294 
Q 2781 3194 2906 3042 
Q 3031 2891 3081 2659 
Q 3109 2516 3109 2141 
L 3109 1391 
Q 3109 606 3145 398 
Q 3181 191 3288 0 
L 2700 0 
Q 2613 175 2588 409 
z
M 2541 1666 
Q 2234 1541 1622 1453 
Q 1275 1403 1131 1340 
Q 988 1278 909 1158 
Q 831 1038 831 891 
Q 831 666 1001 516 
Q 1172 366 1500 366 
Q 1825 366 2078 508 
Q 2331 650 2450 897 
Q 2541 1088 2541 1459 
L 2541 1666 
z
" transform="scale(0.015625)"/>
       <path id="ArialMT-79" d="M 397 -1278 
L 334 -750 
Q 519 -800 656 -800 
Q 844 -800 956 -737 
Q 1069 -675 1141 -563 
Q 1194 -478 1313 -144 
Q 1328 -97 1363 -6 
L 103 3319 
L 709 3319 
L 1400 1397 
Q 1534 1031 1641 628 
Q 1738 1016 1872 1384 
L 2581 3319 
L 3144 3319 
L 1881 -56 
Q 1678 -603 1566 -809 
Q 1416 -1088 1222 -1217 
Q 1028 -1347 759 -1347 
Q 597 -1347 397 -1278 
z
" transform="scale(0.015625)"/>
       <path id="ArialMT-73" d="M 197 991 
L 753 1078 
Q 800 744 1014 566 
Q 1228 388 1613 388 
Q 2000 388 2187 545 
Q 2375 703 2375 916 
Q 2375 1106 2209 1216 
Q 2094 1291 1634 1406 
Q 1016 1563 777 1677 
Q 538 1791 414 1992 
Q 291 2194 291 2438 
Q 291 2659 392 2848 
Q 494 3038 669 3163 
Q 800 3259 1026 3326 
Q 1253 3394 1513 3394 
Q 1903 3394 2198 3281 
Q 2494 3169 2634 2976 
Q 2775 2784 2828 2463 
L 2278 2388 
Q 2241 2644 2061 2787 
Q 1881 2931 1553 2931 
Q 1166 2931 1000 2803 
Q 834 2675 834 2503 
Q 834 2394 903 2306 
Q 972 2216 1119 2156 
Q 1203 2125 1616 2013 
Q 2213 1853 2448 1751 
Q 2684 1650 2818 1456 
Q 2953 1263 2953 975 
Q 2953 694 2789 445 
Q 2625 197 2315 61 
Q 2006 -75 1616 -75 
Q 969 -75 630 194 
Q 291 463 197 991 
z
" transform="scale(0.015625)"/>
      </defs>
      <use xlink:href="#ArialMT-44"/>
      <use xlink:href="#ArialMT-61" x="72.216797"/>
      <use xlink:href="#ArialMT-79" x="127.832031"/>
      <use xlink:href="#ArialMT-73" x="177.832031"/>
     </g>
    </g>
   </g>
   <g id="matplotlib.axis_2">
    <g id="ytick_1">
     <g id="line2d_6">
      <path d="M 72 368.555445 
L 518.4 368.555445 
" clip-path="url(#p6b9830304f)" style="fill: none; stroke: #ffffff; stroke-width: 0.8; stroke-linecap: round"/>
     </g>
     <g id="text_7">
      <!-- 0 -->
      <g style="fill: #262626" transform="translate(59.439062 372.134351) scale(0.1 -0.1)">
       <use xlink:href="#ArialMT-30"/>
      </g>
     </g>
    </g>
    <g id="ytick_2">
     <g id="line2d_7">
      <path d="M 72 328.32768 
L 518.4 328.32768 
" clip-path="url(#p6b9830304f)" style="fill: none; stroke: #ffffff; stroke-width: 0.8; stroke-linecap: round"/>
     </g>
     <g id="text_8">
      <!-- 50 -->
      <g style="fill: #262626" transform="translate(53.878125 331.906587) scale(0.1 -0.1)">
       <defs>
        <path id="ArialMT-35" d="M 266 1200 
L 856 1250 
Q 922 819 1161 601 
Q 1400 384 1738 384 
Q 2144 384 2425 690 
Q 2706 997 2706 1503 
Q 2706 1984 2436 2262 
Q 2166 2541 1728 2541 
Q 1456 2541 1237 2417 
Q 1019 2294 894 2097 
L 366 2166 
L 809 4519 
L 3088 4519 
L 3088 3981 
L 1259 3981 
L 1013 2750 
Q 1425 3038 1878 3038 
Q 2478 3038 2890 2622 
Q 3303 2206 3303 1553 
Q 3303 931 2941 478 
Q 2500 -78 1738 -78 
Q 1113 -78 717 272 
Q 322 622 266 1200 
z
" transform="scale(0.015625)"/>
       </defs>
       <use xlink:href="#ArialMT-35"/>
       <use xlink:href="#ArialMT-30" x="55.615234"/>
      </g>
     </g>
    </g>
    <g id="ytick_3">
     <g id="line2d_8">
      <path d="M 72 288.099916 
L 518.4 288.099916 
" clip-path="url(#p6b9830304f)" style="fill: none; stroke: #ffffff; stroke-width: 0.8; stroke-linecap: round"/>
     </g>
     <g id="text_9">
      <!-- 100 -->
      <g style="fill: #262626" transform="translate(48.317188 291.678822) scale(0.1 -0.1)">
       <defs>
        <path id="ArialMT-31" d="M 2384 0 
L 1822 0 
L 1822 3584 
Q 1619 3391 1289 3197 
Q 959 3003 697 2906 
L 697 3450 
Q 1169 3672 1522 3987 
Q 1875 4303 2022 4600 
L 2384 4600 
L 2384 0 
z
" transform="scale(0.015625)"/>
       </defs>
       <use xlink:href="#ArialMT-31"/>
       <use xlink:href="#ArialMT-30" x="55.615234"/>
       <use xlink:href="#ArialMT-30" x="111.230469"/>
      </g>
     </g>
    </g>
    <g id="ytick_4">
     <g id="line2d_9">
      <path d="M 72 247.872152 
L 518.4 247.872152 
" clip-path="url(#p6b9830304f)" style="fill: none; stroke: #ffffff; stroke-width: 0.8; stroke-linecap: round"/>
     </g>
     <g id="text_10">
      <!-- 150 -->
      <g style="fill: #262626" transform="translate(48.317188 251.451058) scale(0.1 -0.1)">
       <use xlink:href="#ArialMT-31"/>
       <use xlink:href="#ArialMT-35" x="55.615234"/>
       <use xlink:href="#ArialMT-30" x="111.230469"/>
      </g>
     </g>
    </g>
    <g id="ytick_5">
     <g id="line2d_10">
      <path d="M 72 207.644387 
L 518.4 207.644387 
" clip-path="url(#p6b9830304f)" style="fill: none; stroke: #ffffff; stroke-width: 0.8; stroke-linecap: round"/>
     </g>
     <g id="text_11">
      <!-- 200 -->
      <g style="fill: #262626" transform="translate(48.317188 211.223293) scale(0.1 -0.1)">
       <use xlink:href="#ArialMT-32"/>
       <use xlink:href="#ArialMT-30" x="55.615234"/>
       <use xlink:href="#ArialMT-30" x="111.230469"/>
      </g>
     </g>
    </g>
    <g id="ytick_6">
     <g id="line2d_11">
      <path d="M 72 167.416623 
L 518.4 167.416623 
" clip-path="url(#p6b9830304f)" style="fill: none; stroke: #ffffff; stroke-width: 0.8; stroke-linecap: round"/>
     </g>
     <g id="text_12">
      <!-- 250 -->
      <g style="fill: #262626" transform="translate(48.317188 170.995529) scale(0.1 -0.1)">
       <use xlink:href="#ArialMT-32"/>
       <use xlink:href="#ArialMT-35" x="55.615234"/>
       <use xlink:href="#ArialMT-30" x="111.230469"/>
      </g>
     </g>
    </g>
    <g id="ytick_7">
     <g id="line2d_12">
      <path d="M 72 127.188858 
L 518.4 127.188858 
" clip-path="url(#p6b9830304f)" style="fill: none; stroke: #ffffff; stroke-width: 0.8; stroke-linecap: round"/>
     </g>
     <g id="text_13">
      <!-- 300 -->
      <g style="fill: #262626" transform="translate(48.317188 130.767765) scale(0.1 -0.1)">
       <defs>
        <path id="ArialMT-33" d="M 269 1209 
L 831 1284 
Q 928 806 1161 595 
Q 1394 384 1728 384 
Q 2125 384 2398 659 
Q 2672 934 2672 1341 
Q 2672 1728 2419 1979 
Q 2166 2231 1775 2231 
Q 1616 2231 1378 2169 
L 1441 2663 
Q 1497 2656 1531 2656 
Q 1891 2656 2178 2843 
Q 2466 3031 2466 3422 
Q 2466 3731 2256 3934 
Q 2047 4138 1716 4138 
Q 1388 4138 1169 3931 
Q 950 3725 888 3313 
L 325 3413 
Q 428 3978 793 4289 
Q 1159 4600 1703 4600 
Q 2078 4600 2393 4439 
Q 2709 4278 2876 4000 
Q 3044 3722 3044 3409 
Q 3044 3113 2884 2869 
Q 2725 2625 2413 2481 
Q 2819 2388 3044 2092 
Q 3269 1797 3269 1353 
Q 3269 753 2831 336 
Q 2394 -81 1725 -81 
Q 1122 -81 723 278 
Q 325 638 269 1209 
z
" transform="scale(0.015625)"/>
       </defs>
       <use xlink:href="#ArialMT-33"/>
       <use xlink:href="#ArialMT-30" x="55.615234"/>
       <use xlink:href="#ArialMT-30" x="111.230469"/>
      </g>
     </g>
    </g>
    <g id="ytick_8">
     <g id="line2d_13">
      <path d="M 72 86.961094 
L 518.4 86.961094 
" clip-path="url(#p6b9830304f)" style="fill: none; stroke: #ffffff; stroke-width: 0.8; stroke-linecap: round"/>
     </g>
     <g id="text_14">
      <!-- 350 -->
      <g style="fill: #262626" transform="translate(48.317188 90.54) scale(0.1 -0.1)">
       <use xlink:href="#ArialMT-33"/>
       <use xlink:href="#ArialMT-35" x="55.615234"/>
       <use xlink:href="#ArialMT-30" x="111.230469"/>
      </g>
     </g>
    </g>
    <g id="text_15">
     <!-- (W/m^2) -->
     <g style="fill: #262626" transform="translate(42.2125 236.889687) rotate(-90) scale(0.1 -0.1)">
      <defs>
       <path id="ArialMT-28" d="M 1497 -1347 
Q 1031 -759 709 28 
Q 388 816 388 1659 
Q 388 2403 628 3084 
Q 909 3875 1497 4659 
L 1900 4659 
Q 1522 4009 1400 3731 
Q 1209 3300 1100 2831 
Q 966 2247 966 1656 
Q 966 153 1900 -1347 
L 1497 -1347 
z
" transform="scale(0.015625)"/>
       <path id="ArialMT-57" d="M 1294 0 
L 78 4581 
L 700 4581 
L 1397 1578 
Q 1509 1106 1591 641 
Q 1766 1375 1797 1488 
L 2669 4581 
L 3400 4581 
L 4056 2263 
Q 4303 1400 4413 641 
Q 4500 1075 4641 1638 
L 5359 4581 
L 5969 4581 
L 4713 0 
L 4128 0 
L 3163 3491 
Q 3041 3928 3019 4028 
Q 2947 3713 2884 3491 
L 1913 0 
L 1294 0 
z
" transform="scale(0.015625)"/>
       <path id="ArialMT-2f" d="M 0 -78 
L 1328 4659 
L 1778 4659 
L 453 -78 
L 0 -78 
z
" transform="scale(0.015625)"/>
       <path id="ArialMT-6d" d="M 422 0 
L 422 3319 
L 925 3319 
L 925 2853 
Q 1081 3097 1340 3245 
Q 1600 3394 1931 3394 
Q 2300 3394 2536 3241 
Q 2772 3088 2869 2813 
Q 3263 3394 3894 3394 
Q 4388 3394 4653 3120 
Q 4919 2847 4919 2278 
L 4919 0 
L 4359 0 
L 4359 2091 
Q 4359 2428 4304 2576 
Q 4250 2725 4106 2815 
Q 3963 2906 3769 2906 
Q 3419 2906 3187 2673 
Q 2956 2441 2956 1928 
L 2956 0 
L 2394 0 
L 2394 2156 
Q 2394 2531 2256 2718 
Q 2119 2906 1806 2906 
Q 1569 2906 1367 2781 
Q 1166 2656 1075 2415 
Q 984 2175 984 1722 
L 984 0 
L 422 0 
z
" transform="scale(0.015625)"/>
       <path id="ArialMT-5e" d="M 747 2156 
L 169 2156 
L 1272 4659 
L 1725 4659 
L 2834 2156 
L 2269 2156 
L 1497 4022 
L 747 2156 
z
" transform="scale(0.015625)"/>
       <path id="ArialMT-29" d="M 791 -1347 
L 388 -1347 
Q 1322 153 1322 1656 
Q 1322 2244 1188 2822 
Q 1081 3291 891 3722 
Q 769 4003 388 4659 
L 791 4659 
Q 1378 3875 1659 3084 
Q 1900 2403 1900 1659 
Q 1900 816 1576 28 
Q 1253 -759 791 -1347 
z
" transform="scale(0.015625)"/>
      </defs>
      <use xlink:href="#ArialMT-28"/>
      <use xlink:href="#ArialMT-57" x="33.300781"/>
      <use xlink:href="#ArialMT-2f" x="127.685547"/>
      <use xlink:href="#ArialMT-6d" x="155.46875"/>
      <use xlink:href="#ArialMT-5e" x="238.769531"/>
      <use xlink:href="#ArialMT-32" x="285.693359"/>
      <use xlink:href="#ArialMT-29" x="341.308594"/>
     </g>
    </g>
   </g>
   <g id="line2d_14">
    <path d="M 92.290909 224.093073 
L 92.784605 233.529836 
L 93.771997 355.00651 
L 94.265693 346.541918 
L 94.75939 242.480514 
L 95.253086 351.240744 
L 95.746782 253.97895 
L 96.240478 218.632474 
L 96.734174 239.200833 
L 97.22787 242.706673 
L 97.721566 346.24021 
L 98.215262 319.320037 
L 98.708958 256.170886 
L 99.202654 254.688523 
L 99.69635 294.73191 
L 100.190046 232.943181 
L 100.683743 242.08941 
L 101.177439 333.708144 
L 101.671135 276.729985 
L 102.164831 238.697986 
L 102.658527 235.837345 
L 103.152223 234.513181 
L 103.645919 270.287956 
L 104.139615 321.528071 
L 104.633311 350.05626 
L 105.127007 263.085561 
L 105.620703 348.313057 
L 106.114399 352.687827 
L 106.608096 292.681411 
L 107.101792 265.142154 
L 107.595488 266.66187 
L 108.089184 294.380078 
L 108.58288 235.166883 
L 109.076576 193.127411 
L 109.570272 234.552292 
L 110.063968 256.275285 
L 110.557664 261.292581 
L 111.05136 291.636607 
L 112.038752 193.228823 
L 112.532449 235.194819 
L 113.026145 231.842505 
L 114.013537 252.738594 
L 114.507233 272.455785 
L 115.000929 270.544967 
L 115.494625 246.078664 
L 115.988321 255.878594 
L 116.482017 355.470247 
L 116.975713 348.815904 
L 117.469409 297.128814 
L 117.963106 307.251708 
L 118.456802 353.861136 
L 118.950498 246.28539 
L 119.444194 236.10553 
L 119.93789 239.932755 
L 120.431586 248.598486 
L 120.925282 262.231229 
L 121.418978 257.074253 
L 121.912674 352.374944 
L 122.40637 338.954515 
L 122.900066 303.615541 
L 123.393762 233.267238 
L 123.887459 350.408253 
L 124.381155 350.251812 
L 124.874851 349.804837 
L 125.368547 281.41205 
L 125.862243 259.102402 
L 126.355939 264.516389 
L 126.849635 234.507594 
L 127.343331 219.656845 
L 127.837027 222.087272 
L 128.330723 253.470515 
L 128.824419 249.330408 
L 129.318115 224.104247 
L 129.811812 335.116116 
L 130.305508 347.553199 
L 130.799204 219.394247 
L 131.2929 217.89688 
L 131.786596 218.718197 
L 132.773988 243.374464 
L 133.267684 241.569802 
L 133.76138 248.542614 
L 134.255076 240.603218 
L 134.748772 308.58814 
L 135.242468 262.45759 
L 135.736165 202.913602 
L 136.229861 235.943502 
L 136.723557 319.393764 
L 137.217253 344.971918 
L 137.710949 304.688282 
L 138.204645 232.088341 
L 138.698341 324.480546 
L 139.192037 201.07944 
L 139.685733 221.260368 
L 140.673125 206.543711 
L 141.166821 229.300334 
L 141.660518 299.989455 
L 142.154214 289.60287 
L 142.64791 214.807164 
L 143.141606 230.428946 
L 143.635302 220.209976 
L 144.128998 264.225855 
L 144.622694 194.274243 
L 145.11639 213.510936 
L 145.610086 211.784495 
L 146.103782 200.459262 
L 146.597478 297.396999 
L 147.091175 226.80286 
L 147.584871 236.284321 
L 148.078567 223.199123 
L 148.572263 341.611282 
L 149.065959 329.199751 
L 149.559655 328.612627 
L 150.053351 185.887871 
L 150.547047 209.275847 
L 151.040743 200.08492 
L 151.534439 186.346021 
L 152.028135 292.826678 
L 152.521831 244.777708 
L 153.015528 179.836945 
L 153.509224 174.724667 
L 154.00292 303.244819 
L 154.496616 262.097136 
L 154.990312 250.732793 
L 155.484008 337.770031 
L 155.977704 301.643263 
L 156.4714 312.130418 
L 156.965096 331.713517 
L 157.458792 307.314261 
L 157.952488 189.944171 
L 158.446184 184.753672 
L 158.939881 249.844429 
L 159.433577 339.529995 
L 159.927273 247.525746 
L 160.420969 280.747175 
L 160.914665 224.640618 
L 161.408361 198.213211 
L 161.902057 309.010904 
L 162.395753 278.814007 
L 162.889449 276.14735 
L 163.383145 204.7167 
L 163.876841 169.689632 
L 164.370537 223.891934 
L 164.864234 156.979753 
L 165.35793 154.398471 
L 165.851626 159.097298 
L 166.345322 142.190462 
L 166.839018 143.581672 
L 167.332714 159.41018 
L 167.82641 200.626877 
L 168.320106 142.777117 
L 168.813802 138.927544 
L 169.307498 167.852424 
L 169.801194 205.878835 
L 170.294891 185.19506 
L 170.788587 136.737427 
L 171.282283 133.743452 
L 171.775979 137.368718 
L 172.269675 146.978684 
L 172.763371 218.022572 
L 173.257067 266.455144 
L 173.750763 170.316374 
L 174.244459 142.279857 
L 174.738155 142.112242 
L 175.231851 146.593168 
L 175.725547 161.628295 
L 176.219244 284.674068 
L 176.71294 245.123254 
L 177.206636 155.342706 
L 178.194028 296.815932 
L 178.687724 239.235841 
L 179.18142 284.043616 
L 179.675116 264.644894 
L 180.168812 214.204607 
L 180.662508 151.152314 
L 181.156204 187.770754 
L 181.6499 329.316613 
L 182.143597 265.779094 
L 182.637293 154.02413 
L 183.130989 153.700073 
L 183.624685 252.721832 
L 184.118381 272.640163 
L 184.612077 239.675745 
L 185.105773 178.205486 
L 185.599469 138.368825 
L 186.093165 166.662352 
L 186.586861 161.846195 
L 187.080557 142.028434 
L 187.574253 163.779362 
L 188.06795 192.198067 
L 188.561646 252.783291 
L 189.055342 197.637731 
L 189.549038 180.652675 
L 190.042734 193.894314 
L 190.53643 195.18222 
L 191.030126 160.996942 
L 191.523822 297.648423 
L 192.511214 155.67235 
L 193.00491 153.314557 
L 193.498607 152.800535 
L 193.992303 185.580576 
L 194.485999 183.077515 
L 194.979695 130.178005 
L 195.473391 135.804305 
L 195.967087 124.300281 
L 196.460783 125.903805 
L 196.954479 227.347552 
L 197.448175 216.332467 
L 197.941871 173.199364 
L 198.435567 119.249462 
L 198.929263 127.177684 
L 199.42296 132.574909 
L 199.916656 153.219574 
L 200.410352 152.498827 
L 200.904048 137.798931 
L 201.397744 231.328483 
L 201.89144 161.583597 
L 202.385136 237.709054 
L 202.878832 172.584773 
L 203.372528 139.715337 
L 203.866224 182.088582 
L 204.35992 266.287528 
L 204.853616 162.298757 
L 205.841009 119.020387 
L 206.334705 122.328004 
L 207.322097 157.119433 
L 207.815793 239.279054 
L 208.309489 206.158195 
L 208.803185 237.139161 
L 209.790577 131.847402 
L 210.284273 152.906692 
L 210.777969 168.558754 
L 211.271666 125.389783 
L 211.765362 176.892496 
L 212.259058 198.537268 
L 212.752754 111.49634 
L 213.24645 96.332335 
L 213.740146 147.386548 
L 214.233842 154.178031 
L 214.727538 151.940108 
L 215.221234 155.303596 
L 215.71493 142.760356 
L 216.208626 151.515482 
L 216.702322 132.032952 
L 217.196019 133.301244 
L 217.689715 165.35495 
L 218.183411 175.221927 
L 218.677107 257.459769 
L 219.170803 129.842773 
L 219.664499 126.473698 
L 220.158195 157.985447 
L 220.651891 159.041426 
L 221.145587 170.277264 
L 221.639283 153.795055 
L 222.132979 145.660107 
L 222.626676 169.932359 
L 223.120372 139.519786 
L 223.614068 172.931179 
L 224.107764 146.883701 
L 224.60146 167.28253 
L 225.095156 149.613423 
L 225.588852 147.408897 
L 226.082548 145.894769 
L 226.576244 140.134377 
L 227.06994 138.435871 
L 227.563636 138.933131 
L 228.057332 146.475837 
L 228.551029 142.91121 
L 229.044725 148.822456 
L 229.538421 164.094215 
L 230.032117 149.638186 
L 230.525813 175.004026 
L 231.019509 153.599503 
L 231.513205 158.639148 
L 232.006901 148.409717 
L 232.500597 166.064285 
L 232.994293 154.644308 
L 233.487989 210.627946 
L 233.981685 216.310118 
L 234.475382 153.482172 
L 234.969078 147.934093 
L 235.462774 166.075697 
L 235.95647 216.248659 
L 236.450166 161.594771 
L 236.943862 180.060433 
L 237.437558 216.924709 
L 237.931254 176.937194 
L 238.42495 183.988227 
L 238.918646 234.395851 
L 239.412342 364.656446 
L 239.906038 368.555445 
L 240.399735 159.242341 
L 240.893431 189.245772 
L 241.387127 179.423493 
L 241.880823 178.311642 
L 242.374519 171.668474 
L 242.868215 170.394595 
L 243.361911 194.721218 
L 243.855607 184.898939 
L 244.349303 153.391761 
L 244.842999 216.919122 
L 245.336695 260.21984 
L 245.830392 179.809009 
L 246.324088 208.465704 
L 246.817784 205.856487 
L 247.31148 210.326238 
L 247.805176 237.172684 
L 248.298872 235.122185 
L 248.792568 231.306135 
L 249.286264 203.778052 
L 250.273656 240.273574 
L 250.767352 190.50289 
L 251.261048 225.165813 
L 251.754745 210.577662 
L 252.248441 209.236736 
L 252.742137 188.100398 
L 253.235833 186.692427 
L 253.729529 193.072997 
L 254.223225 221.707343 
L 254.716921 203.370187 
L 255.210617 206.621932 
L 255.704313 247.374892 
L 256.198009 259.705819 
L 256.691705 197.905916 
L 257.185401 215.058588 
L 257.679098 217.04204 
L 258.172794 333.512592 
L 258.66649 222.835955 
L 259.160186 202.437127 
L 259.653882 205.834138 
L 260.147578 288.301055 
L 260.641274 232.267131 
L 261.13497 214.270794 
L 261.628666 250.509305 
L 262.122362 266.38251 
L 262.616058 217.941577 
L 263.109754 197.157233 
L 263.603451 206.487839 
L 264.097147 220.707236 
L 264.590843 261.873648 
L 265.084539 326.673872 
L 266.071931 207.661149 
L 266.565627 242.603432 
L 267.059323 245.922222 
L 267.553019 231.194391 
L 268.046715 241.323184 
L 268.540411 316.711913 
L 269.034107 237.653182 
L 269.527804 321.433088 
L 270.0215 320.667644 
L 270.515196 318.198106 
L 271.008892 258.443114 
L 271.502588 348.435975 
L 271.996284 315.158675 
L 272.48998 229.155067 
L 272.983676 234.664036 
L 273.477372 228.171721 
L 273.971068 241.614499 
L 274.464764 235.759125 
L 274.958461 237.452043 
L 275.452157 264.125286 
L 276.439549 245.039447 
L 276.933245 334.529461 
L 277.426941 235.557986 
L 277.920637 238.647702 
L 278.414333 279.66326 
L 279.401725 248.179447 
L 279.895421 245.313219 
L 280.389117 238.658876 
L 280.882814 268.706781 
L 281.37651 235.261865 
L 281.870206 244.408094 
L 282.363902 239.144962 
L 282.857598 246.307739 
L 283.351294 257.158061 
L 283.84499 246.408308 
L 284.338686 250.995391 
L 284.832382 247.63749 
L 285.326078 335.66366 
L 285.819774 285.133118 
L 286.31347 282.898243 
L 286.807167 243.028058 
L 287.300863 241.927382 
L 287.794559 242.798984 
L 288.288255 251.040088 
L 288.781951 267.505535 
L 289.275647 244.167845 
L 289.769343 262.085962 
L 290.263039 333.747254 
L 290.756735 343.547185 
L 291.250431 234.865174 
L 291.744127 236.993894 
L 292.237823 243.93877 
L 292.73152 244.061688 
L 293.225216 310.666574 
L 293.718912 327.746613 
L 294.212608 247.955959 
L 294.706304 282.523901 
L 295.2 237.267666 
L 295.693696 355.928396 
L 296.187392 348.586829 
L 296.681088 277.076391 
L 297.174784 271.183625 
L 297.66848 232.895045 
L 298.655873 234.468484 
L 299.149569 238.005175 
L 299.643265 257.169235 
L 300.136961 284.138599 
L 300.630657 286.524329 
L 301.124353 227.216312 
L 301.618049 242.474927 
L 302.111745 290.77618 
L 302.605441 258.459876 
L 303.592833 342.150387 
L 304.08653 336.350884 
L 304.580226 256.671975 
L 305.073922 327.193481 
L 305.567618 285.395716 
L 306.061314 351.367218 
L 306.55501 331.517966 
L 307.048706 229.948448 
L 307.542402 246.631796 
L 308.036098 338.110849 
L 308.529794 242.620193 
L 309.02349 227.322469 
L 309.517186 225.713358 
L 310.010883 219.265741 
L 310.504579 305.688388 
L 310.998275 259.040943 
L 311.491971 263.566567 
L 311.985667 265.617065 
L 312.479363 291.854507 
L 312.973059 261.219947 
L 313.466755 284.993439 
L 313.960451 215.896666 
L 314.454147 213.952324 
L 314.947843 214.404886 
L 315.441539 242.843681 
L 315.935236 229.892576 
L 316.428932 332.825368 
L 316.922628 313.622198 
L 317.416324 252.353078 
L 317.91002 333.406436 
L 318.403716 241.47482 
L 318.897412 230.484818 
L 319.391108 223.869585 
L 319.884804 249.185141 
L 320.3785 351.140175 
L 320.872196 351.285442 
L 321.365893 307.761236 
L 321.859589 224.674141 
L 322.353285 250.302579 
L 322.846981 199.788799 
L 323.340677 207.487946 
L 323.834373 221.478268 
L 324.328069 182.591429 
L 324.821765 186.58627 
L 325.315461 208.627733 
L 325.809157 195.402855 
L 326.302853 198.520507 
L 326.796549 303.649064 
L 327.290246 215.310011 
L 327.783942 191.190114 
L 328.277638 212.427021 
L 329.26503 284.546463 
L 330.252422 300.570523 
L 330.746118 225.305493 
L 331.239814 240.128307 
L 331.73351 193.56467 
L 332.227206 220.707236 
L 332.720902 313.644546 
L 333.214599 301.995256 
L 333.708295 197.447766 
L 334.201991 192.631609 
L 334.695687 196.847022 
L 335.189383 339.312095 
L 335.683079 335.440173 
L 336.176775 268.081016 
L 336.670471 233.803608 
L 337.164167 166.187441 
L 337.657863 166.368964 
L 338.151559 169.405662 
L 338.645255 186.58627 
L 339.138952 237.792862 
L 339.632648 342.077754 
L 340.126344 236.418413 
L 340.62004 185.100078 
L 341.113736 258.901264 
L 341.607432 180.429187 
L 342.101128 257.828523 
L 342.594824 310.152553 
L 343.08852 328.316506 
L 344.569608 182.881963 
L 345.063305 204.632892 
L 345.557001 271.109273 
L 346.050697 238.217488 
L 346.544393 69.645035 
L 347.038089 66.96 
L 347.531785 296.067248 
L 348.025481 315.560952 
L 348.519177 305.38668 
L 349.012873 188.659117 
L 349.506569 232.82585 
L 350.000265 158.985554 
L 350.493962 144.732633 
L 351.481354 204.124458 
L 351.97505 147.118363 
L 352.468746 135.597579 
L 352.962442 199.76645 
L 353.456138 286.205859 
L 353.949834 204.286486 
L 354.44353 170.187869 
L 354.937226 166.092459 
L 355.430922 252.062544 
L 355.924618 130.340033 
L 356.418315 134.547187 
L 356.912011 139.799145 
L 357.405707 143.117936 
L 357.899403 164.505697 
L 358.393099 133.412988 
L 358.886795 140.341103 
L 359.380491 233.546598 
L 359.874187 263.857101 
L 360.367883 263.750944 
L 360.861579 249.872365 
L 361.355275 166.991996 
L 361.848971 181.613671 
L 362.342668 167.8189 
L 362.836364 184.546946 
L 363.33006 175.551571 
L 363.823756 129.267293 
L 364.317452 121.529035 
L 364.811148 144.905836 
L 365.304844 159.309611 
L 365.79854 206.292287 
L 366.292236 159.002315 
L 366.785932 212.197947 
L 367.279628 197.16282 
L 367.773324 185.51353 
L 368.267021 243.173325 
L 368.760717 147.844698 
L 369.254413 195.464314 
L 369.748109 146.886198 
L 370.241805 268.69002 
L 370.735501 199.833496 
L 371.229197 223.234756 
L 371.722893 206.929227 
L 372.216589 159.577796 
L 372.710285 134.318112 
L 373.203981 144.954149 
L 373.697678 122.25537 
L 374.191374 118.405797 
L 374.68507 125.529463 
L 375.178766 203.560152 
L 375.672462 151.163489 
L 376.166158 359.192433 
L 376.659854 113.880173 
L 377.15355 123.24989 
L 377.647246 116.819035 
L 378.140942 156.231069 
L 378.634638 137.00555 
L 379.128334 145.29694 
L 379.622031 148.314022 
L 380.115727 126.272559 
L 380.609423 174.551464 
L 381.103119 133.86555 
L 381.596815 133.927009 
L 382.090511 162.036159 
L 382.584207 197.146058 
L 383.077903 131.071955 
L 384.065295 271.494789 
L 384.558991 261.03159 
L 385.052687 186.658903 
L 385.546384 265.890838 
L 386.04008 293.769754 
L 386.533776 197.352784 
L 387.027472 241.126818 
L 387.521168 122.97053 
L 388.014864 120.758003 
L 389.002256 138.089465 
L 389.495952 336.043656 
L 389.989648 135.167365 
L 390.483344 137.530746 
L 390.97704 133.373877 
L 391.470737 132.317898 
L 391.964433 123.126972 
L 392.458129 119.880815 
L 392.951825 143.838683 
L 393.445521 139.0337 
L 393.939217 149.25267 
L 394.432913 212.700794 
L 394.926609 248.023006 
L 395.420305 210.169797 
L 395.914001 227.277771 
L 396.407697 227.534782 
L 396.901393 162.181426 
L 397.39509 142.73242 
L 397.888786 272.68486 
L 398.382482 335.432613 
L 398.876178 298.952473 
L 399.369874 349.520844 
L 399.86357 277.815111 
L 400.357266 262.0692 
L 400.850962 273.28546 
L 401.344658 174.015094 
L 401.838354 142.693309 
L 402.33205 128.429215 
L 402.825747 132.91014 
L 403.319443 141.939039 
L 403.813139 319.421253 
L 404.306835 165.299078 
L 404.800531 185.848761 
L 405.294227 125.233342 
L 405.787923 134.089037 
L 406.281619 154.107937 
L 406.775315 165.578437 
L 407.269011 159.058187 
L 407.762707 145.699217 
L 408.256403 117.914977 
L 408.7501 114.633263 
L 409.243796 196.062143 
L 409.737492 189.597765 
L 410.231188 145.358399 
L 410.724884 113.531532 
L 411.21858 107.552096 
L 411.712276 174.171535 
L 412.205972 145.91153 
L 412.699668 172.037229 
L 413.193364 160.136515 
L 413.68706 168.360858 
L 414.180756 164.39954 
L 414.674453 162.566942 
L 415.168149 293.899919 
L 415.661845 369.36 
L 416.155541 229.107261 
L 416.649237 193.715524 
L 417.142933 324.079628 
L 417.636629 364.157209 
L 418.130325 232.244783 
L 418.624021 265.698455 
L 419.117717 275.060048 
L 419.611413 365.0858 
L 420.105109 176.00972 
L 420.598806 152.197119 
L 421.092502 139.743273 
L 421.586198 141.168007 
L 422.079894 140.223772 
L 422.57359 173.489898 
L 423.067286 152.130072 
L 423.560982 177.088048 
L 424.054678 181.870682 
L 424.548374 145.458968 
L 425.04207 134.033166 
L 425.535766 125.780887 
L 426.029463 168.617869 
L 426.523159 148.783346 
L 427.016855 138.055942 
L 427.510551 138.89402 
L 428.004247 145.866833 
L 428.991639 172.204844 
L 429.485335 140.972455 
L 429.979031 154.320251 
L 430.472727 139.514198 
L 430.966423 134.413094 
L 431.460119 177.657941 
L 431.953816 167.450146 
L 432.447512 234.088555 
L 432.941208 222.338696 
L 433.434904 221.048055 
L 433.9286 173.467549 
L 434.422296 178.702746 
L 434.915992 160.024771 
L 435.409688 149.850499 
L 435.903384 162.494309 
L 436.39708 160.834914 
L 436.890776 201.889582 
L 437.384472 191.609153 
L 438.371865 252.191049 
L 438.865561 179.646981 
L 439.359257 199.62677 
L 439.852953 188.564135 
L 440.840345 241.027844 
L 441.334041 190.352036 
L 441.827737 164.745946 
L 442.321433 198.822215 
L 443.308825 317.941095 
L 443.802522 279.48447 
L 444.789914 164.287797 
L 445.28361 182.80933 
L 445.777306 176.445521 
L 446.271002 158.387725 
L 446.764698 168.807833 
L 447.258394 167.606587 
L 447.75209 158.102778 
L 448.245786 227.177202 
L 448.739482 212.337626 
L 449.233179 173.819542 
L 449.726875 189.089331 
L 450.220571 181.440468 
L 450.714267 171.025947 
L 451.207963 206.180544 
L 451.701659 169.863812 
L 452.195355 197.185168 
L 452.689051 196.179474 
L 453.182747 196.721432 
L 453.676443 250.324928 
L 454.663835 179.669329 
L 455.157532 177.931713 
L 455.651228 175.75271 
L 456.144924 176.199685 
L 456.63862 197.106948 
L 457.132316 276.534434 
L 457.626012 307.135471 
L 458.119708 275.344362 
L 458.613404 324.260206 
L 459.1071 272.757494 
L 459.600796 325.746399 
L 460.094492 215.377057 
L 460.588188 328.137716 
L 461.081885 312.091308 
L 461.575581 196.88346 
L 462.562973 206.862181 
L 463.056669 224.573571 
L 463.550365 229.233287 
L 464.044061 255.951228 
L 464.537757 330.428464 
L 465.031453 248.090052 
L 465.525149 199.012179 
L 466.018845 201.096201 
L 466.512541 199.710578 
L 467.006238 269.254326 
L 467.499934 218.522645 
L 467.99363 204.761397 
L 468.487326 203.336664 
L 468.981022 221.517379 
L 469.474718 213.617093 
L 469.968414 210.292715 
L 470.46211 208.421007 
L 470.955806 328.914335 
L 471.449502 311.543763 
L 471.943198 325.824619 
L 472.436894 231.937487 
L 472.930591 218.880225 
L 473.424287 217.410794 
L 473.917983 214.572502 
L 474.411679 223.160012 
L 474.905375 220.897201 
L 475.399071 255.05169 
L 475.892767 244.486315 
L 476.386463 236.558093 
L 476.880159 235.714427 
L 477.373855 216.455385 
L 477.867551 223.322041 
L 478.361248 247.028486 
L 478.854944 336.328536 
L 479.34864 341.368181 
L 479.842336 344.92722 
L 480.336032 340.513341 
L 480.829728 347.106224 
L 481.81712 325.852555 
L 482.310816 333.657859 
L 482.804512 245.626101 
L 483.298208 332.143731 
L 483.791904 227.456561 
L 484.285601 222.009051 
L 485.272993 241.877097 
L 485.766689 300.750647 
L 486.260385 346.312843 
L 486.754081 264.382297 
L 487.247777 333.98074 
L 487.741473 369.294766 
L 488.728865 290.871162 
L 489.222561 295.58675 
L 489.716257 286.40141 
L 490.209954 312.493585 
L 490.70365 287.569133 
L 491.197346 243.331759 
L 491.691042 240.938449 
L 492.184738 240.647916 
L 492.678434 250.883647 
L 493.665826 348.503022 
L 494.159522 265.376816 
L 494.653218 237.315237 
L 495.146914 344.418786 
L 495.64061 341.658329 
L 496.134307 317.549992 
L 496.628003 214.254032 
L 497.121699 210.309477 
L 497.615395 224.232753 
L 498.109091 138.331517 
L 498.109091 138.331517 
" clip-path="url(#p6b9830304f)" style="fill: none; stroke: #1f77b4; stroke-width: 1.5; stroke-linecap: round"/>
   </g>
   <g id="line2d_15">
    <path d="M 92.290909 275.668807 
L 92.784605 275.373205 
L 93.278301 273.09062 
L 93.771997 272.622092 
L 94.265693 281.379996 
L 94.75939 276.852017 
L 95.253086 276.998429 
L 95.746782 273.90987 
L 96.240478 272.001263 
L 96.734174 273.785276 
L 97.22787 273.890565 
L 97.721566 284.932411 
L 98.215262 279.227276 
L 98.708958 277.672968 
L 99.202654 274.292555 
L 99.69635 283.656995 
L 100.190046 277.943169 
L 100.683743 295.216691 
L 101.177439 275.958171 
L 101.671135 281.407328 
L 102.164831 280.80989 
L 102.658527 272.765769 
L 103.645919 280.351513 
L 104.139615 279.184264 
L 104.633311 265.272837 
L 105.127007 265.45914 
L 105.620703 264.990277 
L 106.608096 280.665909 
L 107.101792 279.475101 
L 107.595488 267.939846 
L 108.089184 281.909434 
L 108.58288 260.486175 
L 109.076576 263.096002 
L 109.570272 264.133325 
L 110.557664 278.885684 
L 111.05136 265.518316 
L 111.545056 265.906082 
L 112.038752 267.214491 
L 112.532449 275.674141 
L 113.026145 262.794318 
L 113.519841 265.39014 
L 114.013537 269.38094 
L 115.000929 267.370007 
L 115.494625 261.752227 
L 115.988321 271.086032 
L 116.482017 266.932941 
L 116.975713 269.486182 
L 117.469409 275.982072 
L 118.456802 264.030813 
L 118.950498 265.396353 
L 119.444194 268.093453 
L 119.93789 273.483662 
L 120.431586 270.862219 
L 120.925282 266.447154 
L 121.418978 255.776638 
L 121.912674 269.884782 
L 122.40637 275.495077 
L 122.900066 274.869909 
L 123.393762 270.36327 
L 123.887459 274.40759 
L 124.381155 279.987436 
L 124.874851 272.974095 
L 125.368547 267.837344 
L 125.862243 272.05303 
L 126.355939 268.041988 
L 126.849635 256.081211 
L 127.343331 267.019857 
L 128.330723 269.441876 
L 128.824419 262.349268 
L 129.318115 261.313158 
L 130.305508 267.533443 
L 130.799204 267.838328 
L 131.2929 259.082752 
L 132.280292 262.577842 
L 132.773988 263.591046 
L 133.267684 259.022454 
L 134.255076 252.866966 
L 134.748772 257.691445 
L 135.242468 263.828614 
L 135.736165 262.75032 
L 136.229861 263.611984 
L 136.723557 263.105102 
L 137.217253 268.215385 
L 138.204645 274.915598 
L 138.698341 258.457669 
L 139.192037 262.443239 
L 139.685733 257.333962 
L 140.179429 253.785239 
L 140.673125 260.128296 
L 141.166821 262.519214 
L 141.660518 260.955973 
L 142.154214 253.969285 
L 142.64791 262.096572 
L 143.141606 251.783163 
L 143.635302 249.379922 
L 144.128998 251.872668 
L 144.622694 267.012977 
L 145.11639 255.485106 
L 145.610086 258.880309 
L 146.103782 239.264521 
L 146.597478 243.858906 
L 147.091175 253.911071 
L 147.584871 236.901128 
L 148.078567 268.523681 
L 148.572263 268.496912 
L 149.065959 274.503448 
L 149.559655 266.186827 
L 150.053351 262.036754 
L 150.547047 245.397622 
L 151.040743 249.902134 
L 151.534439 237.442643 
L 152.028135 247.368384 
L 152.521831 237.960574 
L 153.015528 234.828193 
L 153.509224 240.022068 
L 154.00292 243.052053 
L 154.496616 230.752265 
L 154.990312 246.210673 
L 155.484008 279.105855 
L 155.977704 270.291944 
L 156.4714 265.417329 
L 156.965096 256.9984 
L 157.458792 263.34818 
L 157.952488 254.045705 
L 158.446184 252.236971 
L 158.939881 245.042221 
L 159.433577 252.018295 
L 159.927273 256.509786 
L 160.420969 232.674777 
L 160.914665 231.546555 
L 161.902057 253.869942 
L 162.395753 259.216331 
L 163.383145 233.378054 
L 163.876841 239.531755 
L 164.370537 230.565895 
L 164.864234 237.334344 
L 165.35793 232.585955 
L 165.851626 216.785738 
L 166.345322 229.868464 
L 166.839018 216.125973 
L 167.332714 218.404353 
L 167.82641 215.336187 
L 168.320106 231.66236 
L 169.307498 212.074131 
L 169.801194 208.596202 
L 170.294891 224.909626 
L 170.788587 224.683393 
L 171.282283 223.631133 
L 171.775979 209.572849 
L 172.269675 230.489426 
L 172.763371 222.320921 
L 173.257067 220.728958 
L 174.244459 201.879762 
L 174.738155 214.012671 
L 175.231851 210.256006 
L 175.725547 219.027564 
L 176.219244 217.84999 
L 176.71294 192.380128 
L 177.206636 214.664002 
L 177.700332 205.847916 
L 178.194028 208.157857 
L 178.687724 217.782376 
L 179.18142 212.428107 
L 179.675116 222.149654 
L 180.168812 205.983997 
L 180.662508 204.912254 
L 181.156204 225.084469 
L 181.6499 214.554853 
L 182.143597 201.246906 
L 182.637293 192.805773 
L 183.130989 218.645273 
L 183.624685 217.013544 
L 184.118381 209.642159 
L 185.105773 188.614513 
L 185.599469 187.180032 
L 186.093165 194.653445 
L 186.586861 196.536317 
L 187.080557 199.132 
L 187.574253 196.21307 
L 188.06795 206.475889 
L 189.055342 188.38155 
L 189.549038 211.388616 
L 190.042734 223.889837 
L 190.53643 218.72657 
L 191.523822 198.491465 
L 192.017518 197.019525 
L 192.511214 195.18229 
L 193.00491 196.420524 
L 193.498607 187.322973 
L 193.992303 186.651869 
L 194.485999 191.566429 
L 194.979695 201.203965 
L 195.473391 180.512343 
L 195.967087 182.604664 
L 196.460783 187.709521 
L 196.954479 191.189099 
L 197.448175 186.80799 
L 197.941871 179.793929 
L 198.435567 181.023696 
L 198.929263 195.502077 
L 199.42296 195.928701 
L 199.916656 195.021996 
L 200.410352 181.620959 
L 200.904048 183.657722 
L 201.397744 183.892165 
L 201.89144 175.810753 
L 202.385136 197.640892 
L 202.878832 205.172163 
L 203.372528 181.327197 
L 203.866224 182.140481 
L 204.35992 190.915019 
L 204.853616 185.039391 
L 205.841009 201.451617 
L 206.334705 196.829008 
L 207.322097 184.683653 
L 207.815793 182.326647 
L 208.309489 185.317923 
L 208.803185 180.53272 
L 209.790577 201.091926 
L 210.284273 214.147547 
L 210.777969 206.449422 
L 211.271666 191.515123 
L 211.765362 188.288938 
L 212.259058 193.138835 
L 212.752754 163.808888 
L 213.24645 170.273425 
L 213.740146 172.528049 
L 214.233842 194.470248 
L 214.727538 199.050422 
L 215.221234 199.144607 
L 215.71493 201.904174 
L 216.208626 213.135308 
L 216.702322 190.089271 
L 217.196019 201.463038 
L 217.689715 195.789381 
L 218.183411 213.271814 
L 218.677107 196.002277 
L 219.170803 187.985386 
L 219.664499 199.467932 
L 220.158195 220.908392 
L 220.651891 216.4897 
L 221.639283 194.653583 
L 222.132979 188.389551 
L 222.626676 194.495887 
L 223.120372 194.300696 
L 223.614068 199.18922 
L 224.107764 183.010879 
L 224.60146 188.593748 
L 225.095156 187.022779 
L 225.588852 174.950793 
L 226.082548 178.846112 
L 226.576244 178.614131 
L 227.06994 171.631494 
L 227.563636 212.671334 
L 228.057332 179.204281 
L 228.551029 198.074051 
L 229.044725 194.41427 
L 229.538421 204.434507 
L 230.032117 199.732023 
L 230.525813 196.528048 
L 231.019509 211.93289 
L 231.513205 216.5971 
L 232.006901 211.364086 
L 232.500597 201.126241 
L 232.994293 213.202122 
L 233.487989 219.519672 
L 233.981685 215.755255 
L 234.475382 227.920004 
L 234.969078 231.910334 
L 235.95647 218.599878 
L 236.450166 220.234667 
L 236.943862 220.688295 
L 237.437558 215.765583 
L 237.931254 212.883119 
L 238.42495 219.28012 
L 238.918646 234.429092 
L 239.412342 234.727235 
L 239.906038 230.866595 
L 240.399735 222.661001 
L 240.893431 228.046902 
L 241.387127 234.740538 
L 241.880823 214.75951 
L 242.374519 224.879987 
L 242.868215 231.156499 
L 243.361911 226.036499 
L 243.855607 225.226906 
L 244.349303 226.523613 
L 244.842999 225.201277 
L 245.336695 234.952817 
L 245.830392 232.532857 
L 246.324088 238.487702 
L 246.817784 234.861209 
L 247.31148 241.716948 
L 247.805176 237.156539 
L 248.298872 245.349025 
L 248.792568 246.54574 
L 249.286264 249.482483 
L 249.77996 244.646395 
L 250.273656 236.327079 
L 250.767352 234.051547 
L 251.261048 226.618018 
L 251.754745 240.982726 
L 252.742137 249.444207 
L 253.235833 233.279245 
L 253.729529 233.779464 
L 254.223225 240.222806 
L 254.716921 237.389656 
L 255.210617 236.19848 
L 255.704313 240.393278 
L 256.198009 240.130583 
L 256.691705 260.411293 
L 257.185401 258.408322 
L 257.679098 258.868134 
L 258.172794 256.785827 
L 258.66649 257.961862 
L 259.160186 262.622553 
L 259.653882 256.073782 
L 260.147578 243.516909 
L 260.641274 248.068185 
L 261.13497 261.158208 
L 261.628666 236.753971 
L 262.122362 237.27382 
L 262.616058 253.90932 
L 263.109754 259.454662 
L 263.603451 267.820849 
L 264.097147 254.56773 
L 264.590843 254.790422 
L 265.084539 257.401059 
L 265.578235 262.531045 
L 266.071931 263.575048 
L 266.565627 273.851664 
L 267.553019 259.516309 
L 268.046715 263.605388 
L 268.540411 280.173037 
L 269.034107 277.899811 
L 270.0215 264.692623 
L 270.515196 275.509212 
L 271.008892 279.673206 
L 271.502588 271.45857 
L 271.996284 274.196266 
L 272.48998 277.584984 
L 272.983676 276.14187 
L 273.477372 273.1461 
L 273.971068 267.704652 
L 274.464764 265.508392 
L 274.958461 274.173236 
L 275.945853 269.54503 
L 276.439549 274.533054 
L 276.933245 267.602696 
L 277.426941 280.460236 
L 277.920637 270.098351 
L 278.414333 274.210824 
L 278.908029 276.836786 
L 279.401725 275.977032 
L 279.895421 258.77884 
L 280.389117 261.929737 
L 280.882814 273.382587 
L 281.37651 266.469295 
L 281.870206 267.506981 
L 282.363902 274.007132 
L 282.857598 269.418216 
L 283.351294 272.256848 
L 283.84499 273.081597 
L 284.338686 263.45871 
L 284.832382 271.216668 
L 285.326078 266.657297 
L 285.819774 272.183213 
L 286.31347 272.422845 
L 286.807167 261.972341 
L 287.300863 270.948753 
L 287.794559 264.835008 
L 288.288255 260.352566 
L 288.781951 265.295146 
L 289.275647 268.603565 
L 289.769343 278.4988 
L 290.263039 274.634352 
L 290.756735 277.785796 
L 291.744127 269.840184 
L 292.237823 267.813 
L 292.73152 268.267957 
L 293.225216 270.010365 
L 293.718912 265.092263 
L 294.212608 272.442985 
L 294.706304 262.38531 
L 295.2 260.631793 
L 295.693696 268.773516 
L 296.187392 272.708518 
L 296.681088 270.707578 
L 297.174784 269.524217 
L 297.66848 270.519827 
L 298.162177 266.192786 
L 298.655873 263.283002 
L 299.149569 272.094738 
L 299.643265 266.560211 
L 300.136961 255.963799 
L 300.630657 264.020124 
L 301.124353 264.090806 
L 301.618049 284.911901 
L 302.111745 273.326468 
L 302.605441 273.988277 
L 303.099137 267.120865 
L 303.592833 270.641148 
L 304.08653 267.47325 
L 304.580226 265.341415 
L 305.073922 273.232135 
L 305.567618 275.180254 
L 306.061314 255.9839 
L 306.55501 262.113073 
L 307.048706 258.983793 
L 307.542402 267.516056 
L 308.036098 262.784873 
L 308.529794 268.916907 
L 309.517186 262.458598 
L 310.010883 272.863187 
L 310.504579 269.450761 
L 310.998275 266.833992 
L 311.491971 274.72135 
L 311.985667 271.839419 
L 312.479363 260.164515 
L 313.466755 264.865962 
L 313.960451 277.792284 
L 314.454147 266.182207 
L 314.947843 271.490255 
L 315.441539 262.380362 
L 315.935236 263.528346 
L 316.428932 267.61641 
L 316.922628 257.59929 
L 317.416324 270.067073 
L 317.91002 264.619194 
L 318.403716 255.682134 
L 318.897412 259.020081 
L 319.391108 254.128596 
L 320.3785 269.387304 
L 320.872196 278.033156 
L 321.365893 269.988883 
L 321.859589 271.871887 
L 322.353285 260.398296 
L 322.846981 253.975265 
L 323.340677 252.16139 
L 323.834373 257.540518 
L 324.328069 251.454612 
L 324.821765 256.21112 
L 325.315461 237.888738 
L 325.809157 224.232393 
L 326.302853 247.001033 
L 326.796549 239.094375 
L 327.290246 238.658391 
L 327.783942 245.567473 
L 328.277638 241.752639 
L 328.771334 239.620314 
L 329.26503 247.033838 
L 329.758726 258.424953 
L 330.252422 249.245206 
L 330.746118 266.902415 
L 331.239814 254.475651 
L 331.73351 248.413779 
L 332.227206 247.869068 
L 332.720902 247.564916 
L 333.214599 235.900861 
L 333.708295 236.598706 
L 334.201991 234.029195 
L 334.695687 243.170481 
L 335.189383 243.228903 
L 335.683079 246.906174 
L 336.176775 244.752555 
L 336.670471 227.655971 
L 337.164167 234.310377 
L 337.657863 242.503171 
L 338.151559 238.074632 
L 338.645255 227.8732 
L 339.632648 242.548488 
L 340.126344 223.320675 
L 340.62004 223.454909 
L 341.113736 213.351875 
L 341.607432 214.135106 
L 342.101128 241.131335 
L 343.08852 256.27144 
L 343.582216 243.218345 
L 344.075912 236.466799 
L 344.569608 224.550497 
L 345.063305 231.030886 
L 346.050697 230.547639 
L 346.544393 223.345984 
L 347.038089 228.039496 
L 347.531785 222.276212 
L 348.025481 219.283154 
L 348.519177 227.263748 
L 349.012873 219.984111 
L 349.506569 223.05749 
L 350.000265 199.392462 
L 350.493962 204.769895 
L 350.987658 221.581475 
L 351.481354 208.759858 
L 351.97505 215.861588 
L 352.468746 219.25352 
L 352.962442 234.875788 
L 353.456138 207.006283 
L 353.949834 214.330662 
L 354.44353 224.271029 
L 354.937226 223.980919 
L 355.430922 224.438765 
L 356.418315 198.536662 
L 357.405707 179.58327 
L 357.899403 187.237561 
L 358.393099 188.970351 
L 358.886795 200.007613 
L 359.380491 207.292665 
L 359.874187 207.560559 
L 360.367883 211.773012 
L 360.861579 202.980799 
L 361.355275 201.180632 
L 361.848971 197.953572 
L 362.342668 200.031233 
L 362.836364 201.476882 
L 363.33006 162.596599 
L 363.823756 158.958975 
L 364.317452 161.947208 
L 364.811148 158.524973 
L 365.304844 175.61964 
L 365.79854 155.410974 
L 366.292236 183.954871 
L 366.785932 182.431846 
L 367.279628 173.338308 
L 367.773324 210.014304 
L 368.760717 192.04355 
L 369.254413 193.924432 
L 369.748109 212.717243 
L 370.241805 213.747095 
L 370.735501 220.17006 
L 371.229197 192.202917 
L 371.722893 187.83354 
L 372.216589 179.965045 
L 372.710285 164.831361 
L 373.697678 158.764208 
L 374.191374 165.468509 
L 374.68507 183.269894 
L 375.178766 164.170127 
L 375.672462 193.873963 
L 376.166158 160.273432 
L 376.659854 159.708029 
L 377.15355 158.579437 
L 377.647246 156.874569 
L 378.140942 157.607642 
L 378.634638 155.670812 
L 379.128334 164.930646 
L 379.622031 155.605795 
L 380.115727 183.432903 
L 380.609423 167.718939 
L 381.103119 155.979961 
L 381.596815 163.736312 
L 382.090511 163.486362 
L 382.584207 170.427844 
L 383.077903 167.22223 
L 383.571599 173.499668 
L 384.065295 187.823211 
L 384.558991 173.892406 
L 385.052687 176.986742 
L 385.546384 189.673567 
L 386.04008 161.951857 
L 386.533776 163.029484 
L 387.027472 157.714263 
L 387.521168 164.607329 
L 388.014864 158.126198 
L 388.50856 163.794408 
L 389.002256 194.476602 
L 389.495952 165.022808 
L 389.989648 159.486245 
L 390.483344 162.384468 
L 390.97704 164.018331 
L 391.470737 156.364371 
L 391.964433 153.560103 
L 392.458129 158.74173 
L 392.951825 161.281453 
L 393.445521 157.987626 
L 393.939217 190.102636 
L 394.432913 205.790134 
L 394.926609 200.08644 
L 395.420305 201.246629 
L 395.914001 199.75177 
L 396.407697 192.183801 
L 396.901393 191.506566 
L 397.39509 191.860299 
L 397.888786 191.804617 
L 398.382482 206.920366 
L 398.876178 234.6376 
L 399.369874 219.919987 
L 399.86357 232.586982 
L 400.357266 215.075716 
L 401.344658 223.645089 
L 401.838354 198.467353 
L 402.33205 198.545715 
L 402.825747 194.201308 
L 403.319443 226.809391 
L 403.813139 197.37049 
L 404.306835 198.151347 
L 404.800531 188.764471 
L 405.294227 187.294454 
L 405.787923 200.053768 
L 406.281619 202.956388 
L 406.775315 196.274869 
L 407.269011 207.091865 
L 407.762707 186.617496 
L 408.7501 219.233154 
L 409.243796 220.39903 
L 409.737492 219.1223 
L 410.231188 196.486451 
L 410.724884 167.946476 
L 411.21858 198.12736 
L 411.712276 185.434196 
L 412.205972 202.096246 
L 412.699668 202.064102 
L 413.193364 198.60674 
L 413.68706 203.800123 
L 414.180756 198.820177 
L 414.674453 226.465047 
L 415.168149 211.551015 
L 415.661845 228.563541 
L 416.649237 221.176937 
L 417.142933 223.274997 
L 417.636629 203.364936 
L 418.130325 227.780442 
L 418.624021 220.770581 
L 419.117717 239.473755 
L 420.598806 216.076955 
L 421.092502 199.649824 
L 421.586198 193.332099 
L 422.079894 193.916328 
L 422.57359 198.218125 
L 423.067286 196.243773 
L 424.054678 197.414516 
L 424.548374 199.53767 
L 425.04207 207.245595 
L 425.535766 208.484387 
L 426.029463 207.592278 
L 426.523159 201.010787 
L 427.016855 196.237612 
L 428.497943 214.744861 
L 428.991639 203.253254 
L 429.485335 218.40481 
L 429.979031 211.326052 
L 430.472727 198.720306 
L 430.966423 203.222436 
L 431.460119 193.48518 
L 431.953816 206.37404 
L 432.447512 200.956995 
L 432.941208 197.017224 
L 433.434904 196.977798 
L 433.9286 214.084968 
L 434.422296 219.627247 
L 434.915992 220.373299 
L 435.409688 224.161573 
L 435.903384 211.972321 
L 436.39708 214.0342 
L 436.890776 208.493152 
L 437.384472 205.814983 
L 437.878169 201.748449 
L 438.371865 214.231551 
L 438.865561 216.068135 
L 439.359257 213.937979 
L 439.852953 207.650507 
L 440.346649 218.792242 
L 440.840345 213.792829 
L 441.334041 202.802218 
L 441.827737 219.042722 
L 442.321433 225.75794 
L 442.815129 240.049634 
L 443.308825 233.266738 
L 443.802522 217.532304 
L 444.296218 205.791343 
L 444.789914 220.129415 
L 445.28361 226.105453 
L 445.777306 238.201921 
L 446.271002 225.367836 
L 446.764698 238.525996 
L 447.258394 234.232131 
L 447.75209 234.647991 
L 448.245786 238.588355 
L 448.739482 224.560141 
L 449.233179 232.990128 
L 449.726875 228.143185 
L 450.220571 234.201903 
L 450.714267 226.631271 
L 451.207963 203.45558 
L 451.701659 208.340021 
L 452.195355 226.866173 
L 452.689051 232.335339 
L 453.182747 232.177728 
L 453.676443 230.62786 
L 454.170139 236.286603 
L 454.663835 247.138657 
L 455.157532 233.206096 
L 455.651228 235.300407 
L 456.144924 245.089143 
L 456.63862 240.188643 
L 457.132316 248.888348 
L 457.626012 252.826755 
L 458.119708 255.840138 
L 458.613404 264.249057 
L 459.1071 262.840151 
L 459.600796 267.51933 
L 460.094492 257.500778 
L 460.588188 255.591604 
L 461.081885 265.577278 
L 461.575581 257.883651 
L 462.069277 258.522477 
L 462.562973 244.870418 
L 463.056669 244.423156 
L 463.550365 245.221447 
L 464.044061 251.416099 
L 464.537757 255.098721 
L 465.031453 265.268764 
L 465.525149 255.176271 
L 466.018845 262.615683 
L 466.512541 259.776506 
L 467.006238 262.338767 
L 467.499934 255.899201 
L 467.99363 260.735917 
L 468.487326 273.193356 
L 468.981022 268.016769 
L 469.474718 266.923704 
L 469.968414 270.027745 
L 470.46211 282.32109 
L 470.955806 286.097903 
L 471.449502 279.6463 
L 471.943198 275.280312 
L 472.436894 273.279287 
L 473.424287 280.823443 
L 473.917983 270.378058 
L 474.411679 266.187278 
L 474.905375 266.754728 
L 475.399071 263.893077 
L 475.892767 259.490744 
L 476.386463 257.448731 
L 476.880159 260.353529 
L 477.867551 274.272533 
L 478.361248 275.195987 
L 478.854944 275.663493 
L 479.34864 261.830746 
L 480.829728 280.952024 
L 481.81712 267.982987 
L 482.310816 268.113934 
L 483.298208 276.438662 
L 483.791904 266.822524 
L 484.285601 279.549784 
L 484.779297 269.9179 
L 485.272993 270.061009 
L 485.766689 260.89323 
L 486.260385 261.651827 
L 486.754081 266.00458 
L 487.247777 280.544239 
L 487.741473 282.101902 
L 488.235169 273.051182 
L 488.728865 273.640568 
L 489.222561 280.4403 
L 489.716257 304.131836 
L 490.209954 302.300066 
L 490.70365 269.323561 
L 491.691042 274.971317 
L 492.184738 277.207828 
L 493.17213 300.690015 
L 493.665826 289.571551 
L 494.159522 292.85687 
L 494.653218 300.88219 
L 495.64061 289.562478 
L 496.134307 262.55538 
L 496.628003 271.457129 
L 497.121699 272.179243 
L 497.121699 272.179243 
" clip-path="url(#p6b9830304f)" style="fill: none; stroke: #ff7f0e; stroke-width: 1.5; stroke-linecap: round"/>
   </g>
   <g id="patch_3">
    <path d="M 72 384.48 
L 72 51.84 
" style="fill: none; stroke: #ffffff; stroke-width: 0.8; stroke-linejoin: miter; stroke-linecap: square"/>
   </g>
   <g id="patch_4">
    <path d="M 518.4 384.48 
L 518.4 51.84 
" style="fill: none; stroke: #ffffff; stroke-width: 0.8; stroke-linejoin: miter; stroke-linecap: square"/>
   </g>
   <g id="patch_5">
    <path d="M 72 384.48 
L 518.4 384.48 
" style="fill: none; stroke: #ffffff; stroke-width: 0.8; stroke-linejoin: miter; stroke-linecap: square"/>
   </g>
   <g id="patch_6">
    <path d="M 72 51.84 
L 518.4 51.84 
" style="fill: none; stroke: #ffffff; stroke-width: 0.8; stroke-linejoin: miter; stroke-linecap: square"/>
   </g>
   <g id="text_16">
    <!-- Average Solar Radiation Prediction 20 Days Ahead -->
    <g style="fill: #262626" transform="translate(159.561562 45.84) scale(0.12 -0.12)">
     <defs>
      <path id="ArialMT-41" d="M -9 0 
L 1750 4581 
L 2403 4581 
L 4278 0 
L 3588 0 
L 3053 1388 
L 1138 1388 
L 634 0 
L -9 0 
z
M 1313 1881 
L 2866 1881 
L 2388 3150 
Q 2169 3728 2063 4100 
Q 1975 3659 1816 3225 
L 1313 1881 
z
" transform="scale(0.015625)"/>
      <path id="ArialMT-76" d="M 1344 0 
L 81 3319 
L 675 3319 
L 1388 1331 
Q 1503 1009 1600 663 
Q 1675 925 1809 1294 
L 2547 3319 
L 3125 3319 
L 1869 0 
L 1344 0 
z
" transform="scale(0.015625)"/>
      <path id="ArialMT-65" d="M 2694 1069 
L 3275 997 
Q 3138 488 2766 206 
Q 2394 -75 1816 -75 
Q 1088 -75 661 373 
Q 234 822 234 1631 
Q 234 2469 665 2931 
Q 1097 3394 1784 3394 
Q 2450 3394 2872 2941 
Q 3294 2488 3294 1666 
Q 3294 1616 3291 1516 
L 816 1516 
Q 847 969 1125 678 
Q 1403 388 1819 388 
Q 2128 388 2347 550 
Q 2566 713 2694 1069 
z
M 847 1978 
L 2700 1978 
Q 2663 2397 2488 2606 
Q 2219 2931 1791 2931 
Q 1403 2931 1139 2672 
Q 875 2413 847 1978 
z
" transform="scale(0.015625)"/>
      <path id="ArialMT-72" d="M 416 0 
L 416 3319 
L 922 3319 
L 922 2816 
Q 1116 3169 1280 3281 
Q 1444 3394 1641 3394 
Q 1925 3394 2219 3213 
L 2025 2691 
Q 1819 2813 1613 2813 
Q 1428 2813 1281 2702 
Q 1134 2591 1072 2394 
Q 978 2094 978 1738 
L 978 0 
L 416 0 
z
" transform="scale(0.015625)"/>
      <path id="ArialMT-67" d="M 319 -275 
L 866 -356 
Q 900 -609 1056 -725 
Q 1266 -881 1628 -881 
Q 2019 -881 2231 -725 
Q 2444 -569 2519 -288 
Q 2563 -116 2559 434 
Q 2191 0 1641 0 
Q 956 0 581 494 
Q 206 988 206 1678 
Q 206 2153 378 2554 
Q 550 2956 876 3175 
Q 1203 3394 1644 3394 
Q 2231 3394 2613 2919 
L 2613 3319 
L 3131 3319 
L 3131 450 
Q 3131 -325 2973 -648 
Q 2816 -972 2473 -1159 
Q 2131 -1347 1631 -1347 
Q 1038 -1347 672 -1080 
Q 306 -813 319 -275 
z
M 784 1719 
Q 784 1066 1043 766 
Q 1303 466 1694 466 
Q 2081 466 2343 764 
Q 2606 1063 2606 1700 
Q 2606 2309 2336 2618 
Q 2066 2928 1684 2928 
Q 1309 2928 1046 2623 
Q 784 2319 784 1719 
z
" transform="scale(0.015625)"/>
      <path id="ArialMT-20" transform="scale(0.015625)"/>
      <path id="ArialMT-53" d="M 288 1472 
L 859 1522 
Q 900 1178 1048 958 
Q 1197 738 1509 602 
Q 1822 466 2213 466 
Q 2559 466 2825 569 
Q 3091 672 3220 851 
Q 3350 1031 3350 1244 
Q 3350 1459 3225 1620 
Q 3100 1781 2813 1891 
Q 2628 1963 1997 2114 
Q 1366 2266 1113 2400 
Q 784 2572 623 2826 
Q 463 3081 463 3397 
Q 463 3744 659 4045 
Q 856 4347 1234 4503 
Q 1613 4659 2075 4659 
Q 2584 4659 2973 4495 
Q 3363 4331 3572 4012 
Q 3781 3694 3797 3291 
L 3216 3247 
Q 3169 3681 2898 3903 
Q 2628 4125 2100 4125 
Q 1550 4125 1298 3923 
Q 1047 3722 1047 3438 
Q 1047 3191 1225 3031 
Q 1400 2872 2139 2705 
Q 2878 2538 3153 2413 
Q 3553 2228 3743 1945 
Q 3934 1663 3934 1294 
Q 3934 928 3725 604 
Q 3516 281 3123 101 
Q 2731 -78 2241 -78 
Q 1619 -78 1198 103 
Q 778 284 539 648 
Q 300 1013 288 1472 
z
" transform="scale(0.015625)"/>
      <path id="ArialMT-6f" d="M 213 1659 
Q 213 2581 725 3025 
Q 1153 3394 1769 3394 
Q 2453 3394 2887 2945 
Q 3322 2497 3322 1706 
Q 3322 1066 3130 698 
Q 2938 331 2570 128 
Q 2203 -75 1769 -75 
Q 1072 -75 642 372 
Q 213 819 213 1659 
z
M 791 1659 
Q 791 1022 1069 705 
Q 1347 388 1769 388 
Q 2188 388 2466 706 
Q 2744 1025 2744 1678 
Q 2744 2294 2464 2611 
Q 2184 2928 1769 2928 
Q 1347 2928 1069 2612 
Q 791 2297 791 1659 
z
" transform="scale(0.015625)"/>
      <path id="ArialMT-6c" d="M 409 0 
L 409 4581 
L 972 4581 
L 972 0 
L 409 0 
z
" transform="scale(0.015625)"/>
      <path id="ArialMT-52" d="M 503 0 
L 503 4581 
L 2534 4581 
Q 3147 4581 3465 4457 
Q 3784 4334 3975 4021 
Q 4166 3709 4166 3331 
Q 4166 2844 3850 2509 
Q 3534 2175 2875 2084 
Q 3116 1969 3241 1856 
Q 3506 1613 3744 1247 
L 4541 0 
L 3778 0 
L 3172 953 
Q 2906 1366 2734 1584 
Q 2563 1803 2427 1890 
Q 2291 1978 2150 2013 
Q 2047 2034 1813 2034 
L 1109 2034 
L 1109 0 
L 503 0 
z
M 1109 2559 
L 2413 2559 
Q 2828 2559 3062 2645 
Q 3297 2731 3419 2920 
Q 3541 3109 3541 3331 
Q 3541 3656 3305 3865 
Q 3069 4075 2559 4075 
L 1109 4075 
L 1109 2559 
z
" transform="scale(0.015625)"/>
      <path id="ArialMT-64" d="M 2575 0 
L 2575 419 
Q 2259 -75 1647 -75 
Q 1250 -75 917 144 
Q 584 363 401 755 
Q 219 1147 219 1656 
Q 219 2153 384 2558 
Q 550 2963 881 3178 
Q 1213 3394 1622 3394 
Q 1922 3394 2156 3267 
Q 2391 3141 2538 2938 
L 2538 4581 
L 3097 4581 
L 3097 0 
L 2575 0 
z
M 797 1656 
Q 797 1019 1065 703 
Q 1334 388 1700 388 
Q 2069 388 2326 689 
Q 2584 991 2584 1609 
Q 2584 2291 2321 2609 
Q 2059 2928 1675 2928 
Q 1300 2928 1048 2622 
Q 797 2316 797 1656 
z
" transform="scale(0.015625)"/>
      <path id="ArialMT-69" d="M 425 3934 
L 425 4581 
L 988 4581 
L 988 3934 
L 425 3934 
z
M 425 0 
L 425 3319 
L 988 3319 
L 988 0 
L 425 0 
z
" transform="scale(0.015625)"/>
      <path id="ArialMT-74" d="M 1650 503 
L 1731 6 
Q 1494 -44 1306 -44 
Q 1000 -44 831 53 
Q 663 150 594 308 
Q 525 466 525 972 
L 525 2881 
L 113 2881 
L 113 3319 
L 525 3319 
L 525 4141 
L 1084 4478 
L 1084 3319 
L 1650 3319 
L 1650 2881 
L 1084 2881 
L 1084 941 
Q 1084 700 1114 631 
Q 1144 563 1211 522 
Q 1278 481 1403 481 
Q 1497 481 1650 503 
z
" transform="scale(0.015625)"/>
      <path id="ArialMT-6e" d="M 422 0 
L 422 3319 
L 928 3319 
L 928 2847 
Q 1294 3394 1984 3394 
Q 2284 3394 2536 3286 
Q 2788 3178 2913 3003 
Q 3038 2828 3088 2588 
Q 3119 2431 3119 2041 
L 3119 0 
L 2556 0 
L 2556 2019 
Q 2556 2363 2490 2533 
Q 2425 2703 2258 2804 
Q 2091 2906 1866 2906 
Q 1506 2906 1245 2678 
Q 984 2450 984 1813 
L 984 0 
L 422 0 
z
" transform="scale(0.015625)"/>
      <path id="ArialMT-50" d="M 494 0 
L 494 4581 
L 2222 4581 
Q 2678 4581 2919 4538 
Q 3256 4481 3484 4323 
Q 3713 4166 3852 3881 
Q 3991 3597 3991 3256 
Q 3991 2672 3619 2267 
Q 3247 1863 2275 1863 
L 1100 1863 
L 1100 0 
L 494 0 
z
M 1100 2403 
L 2284 2403 
Q 2872 2403 3119 2622 
Q 3366 2841 3366 3238 
Q 3366 3525 3220 3729 
Q 3075 3934 2838 4000 
Q 2684 4041 2272 4041 
L 1100 4041 
L 1100 2403 
z
" transform="scale(0.015625)"/>
      <path id="ArialMT-63" d="M 2588 1216 
L 3141 1144 
Q 3050 572 2676 248 
Q 2303 -75 1759 -75 
Q 1078 -75 664 370 
Q 250 816 250 1647 
Q 250 2184 428 2587 
Q 606 2991 970 3192 
Q 1334 3394 1763 3394 
Q 2303 3394 2647 3120 
Q 2991 2847 3088 2344 
L 2541 2259 
Q 2463 2594 2264 2762 
Q 2066 2931 1784 2931 
Q 1359 2931 1093 2626 
Q 828 2322 828 1663 
Q 828 994 1084 691 
Q 1341 388 1753 388 
Q 2084 388 2306 591 
Q 2528 794 2588 1216 
z
" transform="scale(0.015625)"/>
      <path id="ArialMT-68" d="M 422 0 
L 422 4581 
L 984 4581 
L 984 2938 
Q 1378 3394 1978 3394 
Q 2347 3394 2619 3248 
Q 2891 3103 3008 2847 
Q 3125 2591 3125 2103 
L 3125 0 
L 2563 0 
L 2563 2103 
Q 2563 2525 2380 2717 
Q 2197 2909 1863 2909 
Q 1613 2909 1392 2779 
Q 1172 2650 1078 2428 
Q 984 2206 984 1816 
L 984 0 
L 422 0 
z
" transform="scale(0.015625)"/>
     </defs>
     <use xlink:href="#ArialMT-41"/>
     <use xlink:href="#ArialMT-76" x="64.949219"/>
     <use xlink:href="#ArialMT-65" x="114.949219"/>
     <use xlink:href="#ArialMT-72" x="170.564453"/>
     <use xlink:href="#ArialMT-61" x="203.865234"/>
     <use xlink:href="#ArialMT-67" x="259.480469"/>
     <use xlink:href="#ArialMT-65" x="315.095703"/>
     <use xlink:href="#ArialMT-20" x="370.710938"/>
     <use xlink:href="#ArialMT-53" x="398.494141"/>
     <use xlink:href="#ArialMT-6f" x="465.193359"/>
     <use xlink:href="#ArialMT-6c" x="520.808594"/>
     <use xlink:href="#ArialMT-61" x="543.025391"/>
     <use xlink:href="#ArialMT-72" x="598.640625"/>
     <use xlink:href="#ArialMT-20" x="631.941406"/>
     <use xlink:href="#ArialMT-52" x="659.724609"/>
     <use xlink:href="#ArialMT-61" x="731.941406"/>
     <use xlink:href="#ArialMT-64" x="787.556641"/>
     <use xlink:href="#ArialMT-69" x="843.171875"/>
     <use xlink:href="#ArialMT-61" x="865.388672"/>
     <use xlink:href="#ArialMT-74" x="921.003906"/>
     <use xlink:href="#ArialMT-69" x="948.787109"/>
     <use xlink:href="#ArialMT-6f" x="971.003906"/>
     <use xlink:href="#ArialMT-6e" x="1026.619141"/>
     <use xlink:href="#ArialMT-20" x="1082.234375"/>
     <use xlink:href="#ArialMT-50" x="1110.017578"/>
     <use xlink:href="#ArialMT-72" x="1176.716797"/>
     <use xlink:href="#ArialMT-65" x="1210.017578"/>
     <use xlink:href="#ArialMT-64" x="1265.632812"/>
     <use xlink:href="#ArialMT-69" x="1321.248047"/>
     <use xlink:href="#ArialMT-63" x="1343.464844"/>
     <use xlink:href="#ArialMT-74" x="1393.464844"/>
     <use xlink:href="#ArialMT-69" x="1421.248047"/>
     <use xlink:href="#ArialMT-6f" x="1443.464844"/>
     <use xlink:href="#ArialMT-6e" x="1499.080078"/>
     <use xlink:href="#ArialMT-20" x="1554.695312"/>
     <use xlink:href="#ArialMT-32" x="1582.478516"/>
     <use xlink:href="#ArialMT-30" x="1638.09375"/>
     <use xlink:href="#ArialMT-20" x="1693.708984"/>
     <use xlink:href="#ArialMT-44" x="1721.492188"/>
     <use xlink:href="#ArialMT-61" x="1793.708984"/>
     <use xlink:href="#ArialMT-79" x="1849.324219"/>
     <use xlink:href="#ArialMT-73" x="1899.324219"/>
     <use xlink:href="#ArialMT-20" x="1949.324219"/>
     <use xlink:href="#ArialMT-41" x="1971.607422"/>
     <use xlink:href="#ArialMT-68" x="2038.306641"/>
     <use xlink:href="#ArialMT-65" x="2093.921875"/>
     <use xlink:href="#ArialMT-61" x="2149.537109"/>
     <use xlink:href="#ArialMT-64" x="2205.152344"/>
    </g>
   </g>
   <g id="legend_1">
    <g id="patch_7">
     <path d="M 437.15625 88.130625 
L 511.4 88.130625 
Q 513.4 88.130625 513.4 86.130625 
L 513.4 58.84 
Q 513.4 56.84 511.4 56.84 
L 437.15625 56.84 
Q 435.15625 56.84 435.15625 58.84 
L 435.15625 86.130625 
Q 435.15625 88.130625 437.15625 88.130625 
z
" style="fill: #eaeaf2; opacity: 0.8; stroke: #cccccc; stroke-linejoin: miter"/>
    </g>
    <g id="line2d_16">
     <path d="M 439.15625 64.497812 
L 449.15625 64.497812 
L 459.15625 64.497812 
" style="fill: none; stroke: #1f77b4; stroke-width: 1.5; stroke-linecap: round"/>
    </g>
    <g id="text_17">
     <!-- Real -->
     <g style="fill: #262626" transform="translate(467.15625 67.997812) scale(0.1 -0.1)">
      <use xlink:href="#ArialMT-52"/>
      <use xlink:href="#ArialMT-65" x="72.216797"/>
      <use xlink:href="#ArialMT-61" x="127.832031"/>
      <use xlink:href="#ArialMT-6c" x="183.447266"/>
     </g>
    </g>
    <g id="line2d_17">
     <path d="M 439.15625 78.643125 
L 449.15625 78.643125 
L 459.15625 78.643125 
" style="fill: none; stroke: #ff7f0e; stroke-width: 1.5; stroke-linecap: round"/>
    </g>
    <g id="text_18">
     <!-- Predicted -->
     <g style="fill: #262626" transform="translate(467.15625 82.143125) scale(0.1 -0.1)">
      <use xlink:href="#ArialMT-50"/>
      <use xlink:href="#ArialMT-72" x="66.699219"/>
      <use xlink:href="#ArialMT-65" x="100"/>
      <use xlink:href="#ArialMT-64" x="155.615234"/>
      <use xlink:href="#ArialMT-69" x="211.230469"/>
      <use xlink:href="#ArialMT-63" x="233.447266"/>
      <use xlink:href="#ArialMT-74" x="283.447266"/>
      <use xlink:href="#ArialMT-65" x="311.230469"/>
      <use xlink:href="#ArialMT-64" x="366.845703"/>
     </g>
    </g>
   </g>
  </g>
 </g>
 <defs>
  <clipPath id="p6b9830304f">
   <rect x="72" y="51.84" width="446.4" height="332.64"/>
  </clipPath>
 </defs>
</svg>
