<?xml version="1.0" encoding="utf-8" standalone="no"?>
<!DOCTYPE svg PUBLIC "-//W3C//DTD SVG 1.1//EN"
  "http://www.w3.org/Graphics/SVG/1.1/DTD/svg11.dtd">
<svg xmlns:xlink="http://www.w3.org/1999/xlink" width="576pt" height="432pt" viewBox="0 0 576 432" xmlns="http://www.w3.org/2000/svg" version="1.1">
 <metadata>
  <rdf:RDF xmlns:dc="http://purl.org/dc/elements/1.1/" xmlns:cc="http://creativecommons.org/ns#" xmlns:rdf="http://www.w3.org/1999/02/22-rdf-syntax-ns#">
   <cc:Work>
    <dc:type rdf:resource="http://purl.org/dc/dcmitype/StillImage"/>
    <dc:date>2023-11-17T05:10:33.199717</dc:date>
    <dc:format>image/svg+xml</dc:format>
    <dc:creator>
     <cc:Agent>
      <dc:title>Matplotlib v3.8.0, https://matplotlib.org/</dc:title>
     </cc:Agent>
    </dc:creator>
   </cc:Work>
  </rdf:RDF>
 </metadata>
 <defs>
  <style type="text/css">*{stroke-linejoin: round; stroke-linecap: butt}</style>
 </defs>
 <g id="figure_1">
  <g id="patch_1">
   <path d="M 0 432 
L 576 432 
L 576 0 
L 0 0 
z
" style="fill: #ffffff"/>
  </g>
  <g id="axes_1">
   <g id="patch_2">
    <path d="M 72 384.48 
L 518.4 384.48 
L 518.4 51.84 
L 72 51.84 
z
" style="fill: #eaeaf2"/>
   </g>
   <g id="matplotlib.axis_1">
    <g id="xtick_1">
     <g id="line2d_1">
      <path d="M 92.290909 384.48 
L 92.290909 51.84 
" clip-path="url(#pad2444a1f1)" style="fill: none; stroke: #ffffff; stroke-width: 0.8; stroke-linecap: round"/>
     </g>
     <g id="text_1">
      <!-- 0 -->
      <g style="fill: #262626" transform="translate(89.51044 398.637812) scale(0.1 -0.1)">
       <defs>
        <path id="ArialMT-30" d="M 266 2259 
Q 266 3072 433 3567 
Q 600 4063 929 4331 
Q 1259 4600 1759 4600 
Q 2128 4600 2406 4451 
Q 2684 4303 2865 4023 
Q 3047 3744 3150 3342 
Q 3253 2941 3253 2259 
Q 3253 1453 3087 958 
Q 2922 463 2592 192 
Q 2263 -78 1759 -78 
Q 1097 -78 719 397 
Q 266 969 266 2259 
z
M 844 2259 
Q 844 1131 1108 757 
Q 1372 384 1759 384 
Q 2147 384 2411 759 
Q 2675 1134 2675 2259 
Q 2675 3391 2411 3762 
Q 2147 4134 1753 4134 
Q 1366 4134 1134 3806 
Q 844 3388 844 2259 
z
" transform="scale(0.015625)"/>
       </defs>
       <use xlink:href="#ArialMT-30"/>
      </g>
     </g>
    </g>
    <g id="xtick_2">
     <g id="line2d_2">
      <path d="M 191.030126 384.48 
L 191.030126 51.84 
" clip-path="url(#pad2444a1f1)" style="fill: none; stroke: #ffffff; stroke-width: 0.8; stroke-linecap: round"/>
     </g>
     <g id="text_2">
      <!-- 200 -->
      <g style="fill: #262626" transform="translate(182.68872 398.637812) scale(0.1 -0.1)">
       <defs>
        <path id="ArialMT-32" d="M 3222 541 
L 3222 0 
L 194 0 
Q 188 203 259 391 
Q 375 700 629 1000 
Q 884 1300 1366 1694 
Q 2113 2306 2375 2664 
Q 2638 3022 2638 3341 
Q 2638 3675 2398 3904 
Q 2159 4134 1775 4134 
Q 1369 4134 1125 3890 
Q 881 3647 878 3216 
L 300 3275 
Q 359 3922 746 4261 
Q 1134 4600 1788 4600 
Q 2447 4600 2831 4234 
Q 3216 3869 3216 3328 
Q 3216 3053 3103 2787 
Q 2991 2522 2730 2228 
Q 2469 1934 1863 1422 
Q 1356 997 1212 845 
Q 1069 694 975 541 
L 3222 541 
z
" transform="scale(0.015625)"/>
       </defs>
       <use xlink:href="#ArialMT-32"/>
       <use xlink:href="#ArialMT-30" x="55.615234"/>
       <use xlink:href="#ArialMT-30" x="111.230469"/>
      </g>
     </g>
    </g>
    <g id="xtick_3">
     <g id="line2d_3">
      <path d="M 289.769343 384.48 
L 289.769343 51.84 
" clip-path="url(#pad2444a1f1)" style="fill: none; stroke: #ffffff; stroke-width: 0.8; stroke-linecap: round"/>
     </g>
     <g id="text_3">
      <!-- 400 -->
      <g style="fill: #262626" transform="translate(281.427937 398.637812) scale(0.1 -0.1)">
       <defs>
        <path id="ArialMT-34" d="M 2069 0 
L 2069 1097 
L 81 1097 
L 81 1613 
L 2172 4581 
L 2631 4581 
L 2631 1613 
L 3250 1613 
L 3250 1097 
L 2631 1097 
L 2631 0 
L 2069 0 
z
M 2069 1613 
L 2069 3678 
L 634 1613 
L 2069 1613 
z
" transform="scale(0.015625)"/>
       </defs>
       <use xlink:href="#ArialMT-34"/>
       <use xlink:href="#ArialMT-30" x="55.615234"/>
       <use xlink:href="#ArialMT-30" x="111.230469"/>
      </g>
     </g>
    </g>
    <g id="xtick_4">
     <g id="line2d_4">
      <path d="M 388.50856 384.48 
L 388.50856 51.84 
" clip-path="url(#pad2444a1f1)" style="fill: none; stroke: #ffffff; stroke-width: 0.8; stroke-linecap: round"/>
     </g>
     <g id="text_4">
      <!-- 600 -->
      <g style="fill: #262626" transform="translate(380.167154 398.637812) scale(0.1 -0.1)">
       <defs>
        <path id="ArialMT-36" d="M 3184 3459 
L 2625 3416 
Q 2550 3747 2413 3897 
Q 2184 4138 1850 4138 
Q 1581 4138 1378 3988 
Q 1113 3794 959 3422 
Q 806 3050 800 2363 
Q 1003 2672 1297 2822 
Q 1591 2972 1913 2972 
Q 2475 2972 2870 2558 
Q 3266 2144 3266 1488 
Q 3266 1056 3080 686 
Q 2894 316 2569 119 
Q 2244 -78 1831 -78 
Q 1128 -78 684 439 
Q 241 956 241 2144 
Q 241 3472 731 4075 
Q 1159 4600 1884 4600 
Q 2425 4600 2770 4297 
Q 3116 3994 3184 3459 
z
M 888 1484 
Q 888 1194 1011 928 
Q 1134 663 1356 523 
Q 1578 384 1822 384 
Q 2178 384 2434 671 
Q 2691 959 2691 1453 
Q 2691 1928 2437 2201 
Q 2184 2475 1800 2475 
Q 1419 2475 1153 2201 
Q 888 1928 888 1484 
z
" transform="scale(0.015625)"/>
       </defs>
       <use xlink:href="#ArialMT-36"/>
       <use xlink:href="#ArialMT-30" x="55.615234"/>
       <use xlink:href="#ArialMT-30" x="111.230469"/>
      </g>
     </g>
    </g>
    <g id="xtick_5">
     <g id="line2d_5">
      <path d="M 487.247777 384.48 
L 487.247777 51.84 
" clip-path="url(#pad2444a1f1)" style="fill: none; stroke: #ffffff; stroke-width: 0.8; stroke-linecap: round"/>
     </g>
     <g id="text_5">
      <!-- 800 -->
      <g style="fill: #262626" transform="translate(478.906371 398.637812) scale(0.1 -0.1)">
       <defs>
        <path id="ArialMT-38" d="M 1131 2484 
Q 781 2613 612 2850 
Q 444 3088 444 3419 
Q 444 3919 803 4259 
Q 1163 4600 1759 4600 
Q 2359 4600 2725 4251 
Q 3091 3903 3091 3403 
Q 3091 3084 2923 2848 
Q 2756 2613 2416 2484 
Q 2838 2347 3058 2040 
Q 3278 1734 3278 1309 
Q 3278 722 2862 322 
Q 2447 -78 1769 -78 
Q 1091 -78 675 323 
Q 259 725 259 1325 
Q 259 1772 486 2073 
Q 713 2375 1131 2484 
z
M 1019 3438 
Q 1019 3113 1228 2906 
Q 1438 2700 1772 2700 
Q 2097 2700 2305 2904 
Q 2513 3109 2513 3406 
Q 2513 3716 2298 3927 
Q 2084 4138 1766 4138 
Q 1444 4138 1231 3931 
Q 1019 3725 1019 3438 
z
M 838 1322 
Q 838 1081 952 856 
Q 1066 631 1291 507 
Q 1516 384 1775 384 
Q 2178 384 2440 643 
Q 2703 903 2703 1303 
Q 2703 1709 2433 1975 
Q 2163 2241 1756 2241 
Q 1359 2241 1098 1978 
Q 838 1716 838 1322 
z
" transform="scale(0.015625)"/>
       </defs>
       <use xlink:href="#ArialMT-38"/>
       <use xlink:href="#ArialMT-30" x="55.615234"/>
       <use xlink:href="#ArialMT-30" x="111.230469"/>
      </g>
     </g>
    </g>
    <g id="text_6">
     <!-- Days -->
     <g style="fill: #262626" transform="translate(283.808594 411.783125) scale(0.1 -0.1)">
      <defs>
       <path id="ArialMT-44" d="M 494 0 
L 494 4581 
L 2072 4581 
Q 2606 4581 2888 4516 
Q 3281 4425 3559 4188 
Q 3922 3881 4101 3404 
Q 4281 2928 4281 2316 
Q 4281 1794 4159 1391 
Q 4038 988 3847 723 
Q 3656 459 3429 307 
Q 3203 156 2883 78 
Q 2563 0 2147 0 
L 494 0 
z
M 1100 541 
L 2078 541 
Q 2531 541 2789 625 
Q 3047 709 3200 863 
Q 3416 1078 3536 1442 
Q 3656 1806 3656 2325 
Q 3656 3044 3420 3430 
Q 3184 3816 2847 3947 
Q 2603 4041 2063 4041 
L 1100 4041 
L 1100 541 
z
" transform="scale(0.015625)"/>
       <path id="ArialMT-61" d="M 2588 409 
Q 2275 144 1986 34 
Q 1697 -75 1366 -75 
Q 819 -75 525 192 
Q 231 459 231 875 
Q 231 1119 342 1320 
Q 453 1522 633 1644 
Q 813 1766 1038 1828 
Q 1203 1872 1538 1913 
Q 2219 1994 2541 2106 
Q 2544 2222 2544 2253 
Q 2544 2597 2384 2738 
Q 2169 2928 1744 2928 
Q 1347 2928 1158 2789 
Q 969 2650 878 2297 
L 328 2372 
Q 403 2725 575 2942 
Q 747 3159 1072 3276 
Q 1397 3394 1825 3394 
Q 2250 3394 2515 3294 
Q 2781 3194 2906 3042 
Q 3031 2891 3081 2659 
Q 3109 2516 3109 2141 
L 3109 1391 
Q 3109 606 3145 398 
Q 3181 191 3288 0 
L 2700 0 
Q 2613 175 2588 409 
z
M 2541 1666 
Q 2234 1541 1622 1453 
Q 1275 1403 1131 1340 
Q 988 1278 909 1158 
Q 831 1038 831 891 
Q 831 666 1001 516 
Q 1172 366 1500 366 
Q 1825 366 2078 508 
Q 2331 650 2450 897 
Q 2541 1088 2541 1459 
L 2541 1666 
z
" transform="scale(0.015625)"/>
       <path id="ArialMT-79" d="M 397 -1278 
L 334 -750 
Q 519 -800 656 -800 
Q 844 -800 956 -737 
Q 1069 -675 1141 -563 
Q 1194 -478 1313 -144 
Q 1328 -97 1363 -6 
L 103 3319 
L 709 3319 
L 1400 1397 
Q 1534 1031 1641 628 
Q 1738 1016 1872 1384 
L 2581 3319 
L 3144 3319 
L 1881 -56 
Q 1678 -603 1566 -809 
Q 1416 -1088 1222 -1217 
Q 1028 -1347 759 -1347 
Q 597 -1347 397 -1278 
z
" transform="scale(0.015625)"/>
       <path id="ArialMT-73" d="M 197 991 
L 753 1078 
Q 800 744 1014 566 
Q 1228 388 1613 388 
Q 2000 388 2187 545 
Q 2375 703 2375 916 
Q 2375 1106 2209 1216 
Q 2094 1291 1634 1406 
Q 1016 1563 777 1677 
Q 538 1791 414 1992 
Q 291 2194 291 2438 
Q 291 2659 392 2848 
Q 494 3038 669 3163 
Q 800 3259 1026 3326 
Q 1253 3394 1513 3394 
Q 1903 3394 2198 3281 
Q 2494 3169 2634 2976 
Q 2775 2784 2828 2463 
L 2278 2388 
Q 2241 2644 2061 2787 
Q 1881 2931 1553 2931 
Q 1166 2931 1000 2803 
Q 834 2675 834 2503 
Q 834 2394 903 2306 
Q 972 2216 1119 2156 
Q 1203 2125 1616 2013 
Q 2213 1853 2448 1751 
Q 2684 1650 2818 1456 
Q 2953 1263 2953 975 
Q 2953 694 2789 445 
Q 2625 197 2315 61 
Q 2006 -75 1616 -75 
Q 969 -75 630 194 
Q 291 463 197 991 
z
" transform="scale(0.015625)"/>
      </defs>
      <use xlink:href="#ArialMT-44"/>
      <use xlink:href="#ArialMT-61" x="72.216797"/>
      <use xlink:href="#ArialMT-79" x="127.832031"/>
      <use xlink:href="#ArialMT-73" x="177.832031"/>
     </g>
    </g>
   </g>
   <g id="matplotlib.axis_2">
    <g id="ytick_1">
     <g id="line2d_6">
      <path d="M 72 347.878033 
L 518.4 347.878033 
" clip-path="url(#pad2444a1f1)" style="fill: none; stroke: #ffffff; stroke-width: 0.8; stroke-linecap: round"/>
     </g>
     <g id="text_7">
      <!-- 10 -->
      <g style="fill: #262626" transform="translate(53.878125 351.456939) scale(0.1 -0.1)">
       <defs>
        <path id="ArialMT-31" d="M 2384 0 
L 1822 0 
L 1822 3584 
Q 1619 3391 1289 3197 
Q 959 3003 697 2906 
L 697 3450 
Q 1169 3672 1522 3987 
Q 1875 4303 2022 4600 
L 2384 4600 
L 2384 0 
z
" transform="scale(0.015625)"/>
       </defs>
       <use xlink:href="#ArialMT-31"/>
       <use xlink:href="#ArialMT-30" x="55.615234"/>
      </g>
     </g>
    </g>
    <g id="ytick_2">
     <g id="line2d_7">
      <path d="M 72 306.566557 
L 518.4 306.566557 
" clip-path="url(#pad2444a1f1)" style="fill: none; stroke: #ffffff; stroke-width: 0.8; stroke-linecap: round"/>
     </g>
     <g id="text_8">
      <!-- 15 -->
      <g style="fill: #262626" transform="translate(53.878125 310.145464) scale(0.1 -0.1)">
       <defs>
        <path id="ArialMT-35" d="M 266 1200 
L 856 1250 
Q 922 819 1161 601 
Q 1400 384 1738 384 
Q 2144 384 2425 690 
Q 2706 997 2706 1503 
Q 2706 1984 2436 2262 
Q 2166 2541 1728 2541 
Q 1456 2541 1237 2417 
Q 1019 2294 894 2097 
L 366 2166 
L 809 4519 
L 3088 4519 
L 3088 3981 
L 1259 3981 
L 1013 2750 
Q 1425 3038 1878 3038 
Q 2478 3038 2890 2622 
Q 3303 2206 3303 1553 
Q 3303 931 2941 478 
Q 2500 -78 1738 -78 
Q 1113 -78 717 272 
Q 322 622 266 1200 
z
" transform="scale(0.015625)"/>
       </defs>
       <use xlink:href="#ArialMT-31"/>
       <use xlink:href="#ArialMT-35" x="55.615234"/>
      </g>
     </g>
    </g>
    <g id="ytick_3">
     <g id="line2d_8">
      <path d="M 72 265.255082 
L 518.4 265.255082 
" clip-path="url(#pad2444a1f1)" style="fill: none; stroke: #ffffff; stroke-width: 0.8; stroke-linecap: round"/>
     </g>
     <g id="text_9">
      <!-- 20 -->
      <g style="fill: #262626" transform="translate(53.878125 268.833988) scale(0.1 -0.1)">
       <use xlink:href="#ArialMT-32"/>
       <use xlink:href="#ArialMT-30" x="55.615234"/>
      </g>
     </g>
    </g>
    <g id="ytick_4">
     <g id="line2d_9">
      <path d="M 72 223.943607 
L 518.4 223.943607 
" clip-path="url(#pad2444a1f1)" style="fill: none; stroke: #ffffff; stroke-width: 0.8; stroke-linecap: round"/>
     </g>
     <g id="text_10">
      <!-- 25 -->
      <g style="fill: #262626" transform="translate(53.878125 227.522513) scale(0.1 -0.1)">
       <use xlink:href="#ArialMT-32"/>
       <use xlink:href="#ArialMT-35" x="55.615234"/>
      </g>
     </g>
    </g>
    <g id="ytick_5">
     <g id="line2d_10">
      <path d="M 72 182.632131 
L 518.4 182.632131 
" clip-path="url(#pad2444a1f1)" style="fill: none; stroke: #ffffff; stroke-width: 0.8; stroke-linecap: round"/>
     </g>
     <g id="text_11">
      <!-- 30 -->
      <g style="fill: #262626" transform="translate(53.878125 186.211037) scale(0.1 -0.1)">
       <defs>
        <path id="ArialMT-33" d="M 269 1209 
L 831 1284 
Q 928 806 1161 595 
Q 1394 384 1728 384 
Q 2125 384 2398 659 
Q 2672 934 2672 1341 
Q 2672 1728 2419 1979 
Q 2166 2231 1775 2231 
Q 1616 2231 1378 2169 
L 1441 2663 
Q 1497 2656 1531 2656 
Q 1891 2656 2178 2843 
Q 2466 3031 2466 3422 
Q 2466 3731 2256 3934 
Q 2047 4138 1716 4138 
Q 1388 4138 1169 3931 
Q 950 3725 888 3313 
L 325 3413 
Q 428 3978 793 4289 
Q 1159 4600 1703 4600 
Q 2078 4600 2393 4439 
Q 2709 4278 2876 4000 
Q 3044 3722 3044 3409 
Q 3044 3113 2884 2869 
Q 2725 2625 2413 2481 
Q 2819 2388 3044 2092 
Q 3269 1797 3269 1353 
Q 3269 753 2831 336 
Q 2394 -81 1725 -81 
Q 1122 -81 723 278 
Q 325 638 269 1209 
z
" transform="scale(0.015625)"/>
       </defs>
       <use xlink:href="#ArialMT-33"/>
       <use xlink:href="#ArialMT-30" x="55.615234"/>
      </g>
     </g>
    </g>
    <g id="ytick_6">
     <g id="line2d_11">
      <path d="M 72 141.320656 
L 518.4 141.320656 
" clip-path="url(#pad2444a1f1)" style="fill: none; stroke: #ffffff; stroke-width: 0.8; stroke-linecap: round"/>
     </g>
     <g id="text_12">
      <!-- 35 -->
      <g style="fill: #262626" transform="translate(53.878125 144.899562) scale(0.1 -0.1)">
       <use xlink:href="#ArialMT-33"/>
       <use xlink:href="#ArialMT-35" x="55.615234"/>
      </g>
     </g>
    </g>
    <g id="ytick_7">
     <g id="line2d_12">
      <path d="M 72 100.00918 
L 518.4 100.00918 
" clip-path="url(#pad2444a1f1)" style="fill: none; stroke: #ffffff; stroke-width: 0.8; stroke-linecap: round"/>
     </g>
     <g id="text_13">
      <!-- 40 -->
      <g style="fill: #262626" transform="translate(53.878125 103.588087) scale(0.1 -0.1)">
       <use xlink:href="#ArialMT-34"/>
       <use xlink:href="#ArialMT-30" x="55.615234"/>
      </g>
     </g>
    </g>
    <g id="ytick_8">
     <g id="line2d_13">
      <path d="M 72 58.697705 
L 518.4 58.697705 
" clip-path="url(#pad2444a1f1)" style="fill: none; stroke: #ffffff; stroke-width: 0.8; stroke-linecap: round"/>
     </g>
     <g id="text_14">
      <!-- 45 -->
      <g style="fill: #262626" transform="translate(53.878125 62.276611) scale(0.1 -0.1)">
       <use xlink:href="#ArialMT-34"/>
       <use xlink:href="#ArialMT-35" x="55.615234"/>
      </g>
     </g>
    </g>
    <g id="text_15">
     <!-- (°C) -->
     <g style="fill: #262626" transform="translate(47.773438 227.099844) rotate(-90) scale(0.1 -0.1)">
      <defs>
       <path id="ArialMT-28" d="M 1497 -1347 
Q 1031 -759 709 28 
Q 388 816 388 1659 
Q 388 2403 628 3084 
Q 909 3875 1497 4659 
L 1900 4659 
Q 1522 4009 1400 3731 
Q 1209 3300 1100 2831 
Q 966 2247 966 1656 
Q 966 153 1900 -1347 
L 1497 -1347 
z
" transform="scale(0.015625)"/>
       <path id="ArialMT-b0" d="M 400 3794 
Q 400 4153 654 4406 
Q 909 4659 1266 4659 
Q 1628 4659 1881 4406 
Q 2134 4153 2134 3794 
Q 2134 3434 1879 3179 
Q 1625 2925 1266 2925 
Q 909 2925 654 3178 
Q 400 3431 400 3794 
z
M 741 3794 
Q 741 3575 895 3420 
Q 1050 3266 1269 3266 
Q 1484 3266 1639 3420 
Q 1794 3575 1794 3794 
Q 1794 4013 1639 4167 
Q 1484 4322 1269 4322 
Q 1050 4322 895 4167 
Q 741 4013 741 3794 
z
" transform="scale(0.015625)"/>
       <path id="ArialMT-43" d="M 3763 1606 
L 4369 1453 
Q 4178 706 3683 314 
Q 3188 -78 2472 -78 
Q 1731 -78 1267 223 
Q 803 525 561 1097 
Q 319 1669 319 2325 
Q 319 3041 592 3573 
Q 866 4106 1370 4382 
Q 1875 4659 2481 4659 
Q 3169 4659 3637 4309 
Q 4106 3959 4291 3325 
L 3694 3184 
Q 3534 3684 3231 3912 
Q 2928 4141 2469 4141 
Q 1941 4141 1586 3887 
Q 1231 3634 1087 3207 
Q 944 2781 944 2328 
Q 944 1744 1114 1308 
Q 1284 872 1643 656 
Q 2003 441 2422 441 
Q 2931 441 3284 734 
Q 3638 1028 3763 1606 
z
" transform="scale(0.015625)"/>
       <path id="ArialMT-29" d="M 791 -1347 
L 388 -1347 
Q 1322 153 1322 1656 
Q 1322 2244 1188 2822 
Q 1081 3291 891 3722 
Q 769 4003 388 4659 
L 791 4659 
Q 1378 3875 1659 3084 
Q 1900 2403 1900 1659 
Q 1900 816 1576 28 
Q 1253 -759 791 -1347 
z
" transform="scale(0.015625)"/>
      </defs>
      <use xlink:href="#ArialMT-28"/>
      <use xlink:href="#ArialMT-b0" x="33.300781"/>
      <use xlink:href="#ArialMT-43" x="73.291016"/>
      <use xlink:href="#ArialMT-29" x="145.507812"/>
     </g>
    </g>
   </g>
   <g id="line2d_14">
    <path d="M 92.290909 141.320656 
L 92.784605 146.278033 
L 93.278301 195.025574 
L 93.771997 223.117377 
L 94.265693 337.137049 
L 94.75939 229.727213 
L 95.253086 268.56 
L 95.746782 296.651803 
L 96.240478 271.038689 
L 96.734174 266.081311 
L 97.22787 242.946885 
L 97.721566 317.307541 
L 98.215262 286.737049 
L 98.708958 201.63541 
L 99.202654 208.245246 
L 99.69635 171.891148 
L 100.190046 263.602623 
L 100.683743 261.950164 
L 101.177439 275.169836 
L 101.671135 190.894426 
L 102.164831 174.369836 
L 102.658527 185.937049 
L 103.152223 171.064918 
L 103.645919 208.245246 
L 104.139615 285.08459 
L 104.633311 320.612459 
L 105.127007 250.382951 
L 106.114399 299.130492 
L 106.608096 290.041967 
L 107.101792 273.517377 
L 107.595488 281.779672 
L 108.089184 230.553443 
L 108.58288 192.546885 
L 109.076576 260.297705 
L 109.570272 239.641967 
L 110.063968 253.687869 
L 110.557664 240.468197 
L 111.05136 261.950164 
L 111.545056 198.330492 
L 112.038752 220.638689 
L 112.532449 231.379672 
L 113.026145 169.412459 
L 113.519841 186.763279 
L 114.013537 238.815738 
L 114.507233 237.163279 
L 115.000929 210.723934 
L 115.494625 211.550164 
L 115.988321 233.032131 
L 116.482017 305.740328 
L 116.975713 358.619016 
L 117.469409 275.996066 
L 117.963106 280.953443 
L 118.456802 334.658361 
L 118.950498 236.337049 
L 119.444194 225.596066 
L 119.93789 218.98623 
L 120.431586 227.248525 
L 120.925282 182.632131 
L 121.418978 195.025574 
L 121.912674 263.602623 
L 122.40637 309.045246 
L 123.393762 204.114098 
L 123.887459 281.779672 
L 124.381155 335.48459 
L 124.874851 326.396066 
L 125.368547 276.822295 
L 125.862243 246.251803 
L 126.355939 200.80918 
L 127.343331 259.471475 
L 127.837027 236.337049 
L 128.330723 188.415738 
L 128.824419 267.73377 
L 129.318115 249.556721 
L 129.811812 305.740328 
L 130.305508 308.219016 
L 130.799204 230.553443 
L 131.2929 194.199344 
L 131.786596 282.605902 
L 132.280292 294.999344 
L 132.773988 237.163279 
L 133.267684 241.294426 
L 133.76138 227.248525 
L 134.255076 204.940328 
L 134.748772 200.80918 
L 135.242468 192.546885 
L 135.736165 168.58623 
L 136.229861 157.845246 
L 136.723557 282.605902 
L 137.217253 369.36 
L 137.710949 322.264918 
L 138.204645 228.900984 
L 138.698341 266.907541 
L 139.192037 234.68459 
L 140.179429 115.707541 
L 140.673125 114.055082 
L 141.660518 257.819016 
L 142.154214 276.822295 
L 144.128998 191.720656 
L 144.622694 233.032131 
L 145.11639 239.641967 
L 145.610086 193.373115 
L 146.103782 176.848525 
L 146.597478 198.330492 
L 147.091175 181.805902 
L 147.584871 177.674754 
L 148.078567 157.845246 
L 148.572263 315.655082 
L 149.065959 363.576393 
L 149.559655 344.573115 
L 150.053351 204.940328 
L 150.547047 176.022295 
L 151.040743 123.143607 
L 151.534439 167.76 
L 152.028135 199.156721 
L 152.521831 185.11082 
L 153.015528 142.146885 
L 153.509224 172.717377 
L 154.00292 262.776393 
L 154.496616 285.08459 
L 154.990312 266.907541 
L 155.484008 330.527213 
L 155.977704 287.563279 
L 156.4714 261.950164 
L 156.965096 285.08459 
L 157.458792 248.730492 
L 157.952488 195.851803 
L 158.446184 183.458361 
L 158.939881 181.805902 
L 159.433577 239.641967 
L 159.927273 199.982951 
L 160.420969 208.245246 
L 160.914665 204.940328 
L 161.408361 171.891148 
L 161.902057 301.60918 
L 162.395753 275.169836 
L 162.889449 278.474754 
L 163.383145 226.422295 
L 163.876841 141.320656 
L 164.370537 177.674754 
L 164.864234 136.363279 
L 165.35793 157.845246 
L 166.345322 130.579672 
L 166.839018 107.445246 
L 167.82641 170.238689 
L 168.320106 128.100984 
L 168.813802 209.897705 
L 169.307498 181.805902 
L 169.801194 180.153443 
L 170.294891 143.799344 
L 170.788587 144.625574 
L 171.282283 148.756721 
L 171.775979 157.845246 
L 172.269675 151.23541 
L 172.763371 188.415738 
L 173.257067 210.723934 
L 173.750763 147.930492 
L 174.244459 119.012459 
L 174.738155 140.494426 
L 175.231851 147.930492 
L 175.725547 157.845246 
L 176.219244 185.937049 
L 176.71294 156.192787 
L 177.206636 112.402623 
L 177.700332 149.582951 
L 178.194028 200.80918 
L 178.687724 175.196066 
L 179.18142 185.937049 
L 179.675116 185.11082 
L 180.168812 164.455082 
L 180.662508 89.268197 
L 181.156204 130.579672 
L 181.6499 218.98623 
L 182.143597 204.114098 
L 182.637293 195.851803 
L 183.130989 190.068197 
L 183.624685 199.982951 
L 184.118381 189.241967 
L 184.612077 187.589508 
L 185.105773 162.802623 
L 185.599469 109.097705 
L 186.093165 152.061639 
L 186.586861 131.405902 
L 187.080557 119.838689 
L 187.574253 129.753443 
L 188.06795 132.232131 
L 188.561646 146.278033 
L 189.055342 140.494426 
L 189.549038 143.799344 
L 190.042734 138.841967 
L 190.53643 127.274754 
L 191.030126 125.622295 
L 191.523822 177.674754 
L 192.017518 142.146885 
L 192.511214 149.582951 
L 193.00491 137.189508 
L 193.498607 133.88459 
L 193.992303 140.494426 
L 194.485999 110.750164 
L 194.979695 108.271475 
L 195.473391 83.48459 
L 195.967087 66.96 
L 196.460783 76.874754 
L 196.954479 129.753443 
L 197.448175 162.802623 
L 197.941871 150.40918 
L 198.929263 133.058361 
L 199.42296 130.579672 
L 199.916656 120.664918 
L 200.410352 131.405902 
L 200.904048 120.664918 
L 201.397744 115.707541 
L 201.89144 97.530492 
L 202.385136 136.363279 
L 203.372528 102.487869 
L 203.866224 123.969836 
L 204.35992 171.064918 
L 204.853616 147.930492 
L 205.347313 142.973115 
L 205.841009 139.668197 
L 206.334705 138.015738 
L 206.828401 128.100984 
L 207.322097 132.232131 
L 207.815793 148.756721 
L 208.309489 135.537049 
L 208.803185 127.274754 
L 209.296881 115.707541 
L 209.790577 126.448525 
L 210.284273 128.100984 
L 210.777969 94.225574 
L 211.271666 91.746885 
L 211.765362 88.441967 
L 212.259058 97.530492 
L 212.752754 117.36 
L 213.24645 113.228852 
L 213.740146 102.487869 
L 214.727538 117.36 
L 215.221234 113.228852 
L 215.71493 117.36 
L 216.208626 112.402623 
L 216.702322 114.055082 
L 217.196019 104.140328 
L 217.689715 117.36 
L 218.183411 127.274754 
L 218.677107 171.064918 
L 219.170803 136.363279 
L 219.664499 140.494426 
L 220.158195 138.015738 
L 220.651891 115.707541 
L 221.145587 121.491148 
L 221.639283 113.228852 
L 222.132979 114.055082 
L 222.626676 109.923934 
L 223.614068 104.966557 
L 224.107764 99.182951 
L 224.60146 97.530492 
L 225.095156 98.356721 
L 225.588852 109.097705 
L 226.082548 87.615738 
L 227.06994 98.356721 
L 227.563636 100.00918 
L 228.057332 84.31082 
L 228.551029 89.268197 
L 229.044725 99.182951 
L 229.538421 90.094426 
L 230.032117 90.094426 
L 230.525813 100.83541 
L 231.019509 97.530492 
L 231.513205 108.271475 
L 232.006901 109.097705 
L 232.500597 119.012459 
L 232.994293 110.750164 
L 233.487989 95.051803 
L 233.981685 103.314098 
L 234.475382 106.619016 
L 234.969078 100.83541 
L 235.462774 109.097705 
L 235.95647 140.494426 
L 236.450166 127.274754 
L 236.943862 129.753443 
L 237.437558 140.494426 
L 237.931254 133.88459 
L 238.42495 124.796066 
L 238.918646 146.278033 
L 239.412342 223.943607 
L 239.906038 260.297705 
L 240.399735 157.019016 
L 240.893431 154.540328 
L 241.387127 150.40918 
L 241.880823 161.976393 
L 242.374519 152.061639 
L 242.868215 151.23541 
L 243.855607 138.015738 
L 244.349303 133.88459 
L 244.842999 145.451803 
L 245.336695 152.887869 
L 245.830392 152.887869 
L 246.324088 154.540328 
L 246.817784 148.756721 
L 247.31148 150.40918 
L 247.805176 142.146885 
L 248.298872 142.973115 
L 248.792568 146.278033 
L 249.286264 146.278033 
L 249.77996 154.540328 
L 250.273656 166.93377 
L 250.767352 149.582951 
L 251.261048 161.976393 
L 251.754745 157.019016 
L 252.248441 153.714098 
L 252.742137 135.537049 
L 253.235833 128.927213 
L 253.729529 133.058361 
L 254.223225 166.93377 
L 254.716921 148.756721 
L 255.210617 140.494426 
L 255.704313 175.196066 
L 256.198009 236.337049 
L 256.691705 180.153443 
L 257.679098 145.451803 
L 258.172794 195.851803 
L 259.160186 167.76 
L 259.653882 119.012459 
L 260.147578 167.76 
L 260.641274 143.799344 
L 261.13497 182.632131 
L 261.628666 172.717377 
L 262.122362 176.848525 
L 262.616058 222.291148 
L 263.109754 221.464918 
L 263.603451 176.848525 
L 264.097147 190.068197 
L 264.590843 186.763279 
L 265.084539 202.461639 
L 265.578235 273.517377 
L 266.565627 226.422295 
L 267.059323 245.425574 
L 267.553019 176.848525 
L 268.046715 172.717377 
L 268.540411 199.982951 
L 269.034107 156.192787 
L 269.527804 283.432131 
L 270.0215 280.953443 
L 270.515196 266.907541 
L 271.008892 185.11082 
L 271.502588 342.094426 
L 271.996284 348.704262 
L 272.48998 239.641967 
L 272.983676 254.514098 
L 273.477372 249.556721 
L 273.971068 186.763279 
L 274.464764 202.461639 
L 274.958461 187.589508 
L 275.452157 209.071475 
L 275.945853 179.327213 
L 276.439549 187.589508 
L 276.933245 262.776393 
L 277.920637 152.887869 
L 278.414333 145.451803 
L 278.908029 218.16 
L 279.401725 228.900984 
L 279.895421 192.546885 
L 280.389117 128.927213 
L 280.882814 220.638689 
L 281.37651 239.641967 
L 281.870206 207.419016 
L 282.363902 182.632131 
L 282.857598 185.11082 
L 283.351294 181.805902 
L 283.84499 218.98623 
L 284.338686 194.199344 
L 284.832382 149.582951 
L 285.326078 251.20918 
L 285.819774 283.432131 
L 286.31347 262.776393 
L 286.807167 161.150164 
L 287.300863 157.845246 
L 287.794559 127.274754 
L 288.288255 139.668197 
L 288.781951 285.08459 
L 289.275647 299.130492 
L 289.769343 285.91082 
L 290.263039 282.605902 
L 290.756735 283.432131 
L 291.250431 218.98623 
L 291.744127 214.028852 
L 292.237823 214.028852 
L 292.73152 186.763279 
L 293.718912 253.687869 
L 294.212608 157.845246 
L 294.706304 225.596066 
L 295.693696 313.176393 
L 296.187392 294.999344 
L 296.681088 218.98623 
L 297.174784 251.20918 
L 297.66848 237.163279 
L 298.162177 214.855082 
L 298.655873 186.763279 
L 299.149569 246.251803 
L 299.643265 256.166557 
L 300.136961 217.33377 
L 300.630657 206.592787 
L 301.124353 215.681311 
L 301.618049 242.120656 
L 302.111745 216.507541 
L 302.605441 196.678033 
L 303.099137 218.16 
L 303.592833 231.379672 
L 304.08653 254.514098 
L 304.580226 212.376393 
L 305.073922 276.822295 
L 306.061314 317.307541 
L 306.55501 275.996066 
L 307.048706 204.114098 
L 307.542402 246.251803 
L 308.036098 269.38623 
L 308.529794 175.196066 
L 309.02349 185.11082 
L 309.517186 172.717377 
L 310.504579 290.041967 
L 311.985667 233.032131 
L 312.479363 202.461639 
L 312.973059 162.802623 
L 313.466755 265.255082 
L 313.960451 224.769836 
L 314.454147 196.678033 
L 314.947843 192.546885 
L 315.441539 174.369836 
L 315.935236 148.756721 
L 316.428932 230.553443 
L 316.922628 289.215738 
L 317.416324 261.123934 
L 317.91002 316.481311 
L 318.897412 190.068197 
L 319.391108 164.455082 
L 319.884804 159.497705 
L 320.3785 256.992787 
L 320.872196 304.087869 
L 321.365893 325.569836 
L 322.353285 208.245246 
L 322.846981 171.891148 
L 323.340677 161.976393 
L 323.834373 270.212459 
L 324.328069 264.428852 
L 324.821765 220.638689 
L 325.315461 214.855082 
L 325.809157 152.061639 
L 326.302853 110.750164 
L 326.796549 223.117377 
L 327.290246 161.976393 
L 327.783942 214.028852 
L 328.277638 219.812459 
L 328.771334 237.989508 
L 329.26503 239.641967 
L 329.758726 219.812459 
L 330.252422 222.291148 
L 330.746118 179.327213 
L 331.239814 164.455082 
L 331.73351 138.015738 
L 332.227206 143.799344 
L 332.720902 209.071475 
L 333.214599 217.33377 
L 333.708295 166.93377 
L 334.201991 164.455082 
L 334.695687 125.622295 
L 335.189383 213.202623 
L 335.683079 277.648525 
L 336.670471 186.763279 
L 337.164167 110.750164 
L 337.657863 114.055082 
L 338.151559 114.881311 
L 338.645255 96.704262 
L 339.138952 130.579672 
L 339.632648 226.422295 
L 340.62004 151.23541 
L 341.113736 197.504262 
L 341.607432 157.019016 
L 342.101128 185.937049 
L 343.08852 264.428852 
L 344.075912 180.153443 
L 344.569608 123.143607 
L 345.063305 119.012459 
L 345.557001 176.022295 
L 346.050697 169.412459 
L 346.544393 114.881311 
L 347.038089 161.976393 
L 347.531785 242.120656 
L 348.025481 286.737049 
L 348.519177 261.950164 
L 349.012873 162.802623 
L 349.506569 177.674754 
L 350.000265 105.792787 
L 350.493962 121.491148 
L 350.987658 142.973115 
L 351.481354 122.317377 
L 351.97505 115.707541 
L 352.468746 100.00918 
L 352.962442 139.668197 
L 353.456138 222.291148 
L 353.949834 161.976393 
L 354.937226 101.661639 
L 355.430922 180.979672 
L 355.924618 143.799344 
L 356.418315 134.71082 
L 356.912011 129.753443 
L 357.899403 106.619016 
L 358.393099 141.320656 
L 358.886795 147.930492 
L 359.380491 126.448525 
L 359.874187 218.16 
L 360.367883 223.943607 
L 360.861579 186.763279 
L 361.355275 160.323934 
L 361.848971 151.23541 
L 362.342668 152.887869 
L 363.33006 141.320656 
L 363.823756 142.973115 
L 364.811148 114.881311 
L 365.304844 137.189508 
L 365.79854 153.714098 
L 366.292236 136.363279 
L 366.785932 144.625574 
L 367.279628 142.973115 
L 367.773324 156.192787 
L 368.267021 186.763279 
L 369.254413 125.622295 
L 369.748109 171.891148 
L 370.241805 173.543607 
L 370.735501 172.717377 
L 371.229197 174.369836 
L 371.722893 174.369836 
L 372.216589 154.540328 
L 372.710285 147.104262 
L 373.203981 148.756721 
L 373.697678 138.015738 
L 374.68507 109.097705 
L 375.178766 109.923934 
L 375.672462 135.537049 
L 376.166158 221.464918 
L 376.659854 164.455082 
L 377.647246 156.192787 
L 378.140942 161.150164 
L 378.634638 157.845246 
L 379.128334 148.756721 
L 379.622031 145.451803 
L 380.115727 149.582951 
L 380.609423 147.930492 
L 381.103119 135.537049 
L 381.596815 126.448525 
L 382.090511 131.405902 
L 382.584207 128.100984 
L 383.077903 154.540328 
L 383.571599 168.58623 
L 384.065295 167.76 
L 384.558991 165.281311 
L 385.052687 135.537049 
L 385.546384 167.76 
L 386.04008 133.058361 
L 386.533776 135.537049 
L 387.027472 127.274754 
L 387.521168 115.707541 
L 388.014864 112.402623 
L 388.50856 115.707541 
L 389.002256 123.969836 
L 389.495952 151.23541 
L 389.989648 109.097705 
L 390.483344 107.445246 
L 390.97704 104.140328 
L 391.964433 90.920656 
L 392.458129 101.661639 
L 392.951825 120.664918 
L 393.445521 107.445246 
L 393.939217 115.707541 
L 394.926609 163.628852 
L 395.420305 137.189508 
L 395.914001 139.668197 
L 396.407697 136.363279 
L 396.901393 119.012459 
L 397.39509 105.792787 
L 397.888786 138.841967 
L 398.382482 193.373115 
L 398.876178 215.681311 
L 399.369874 218.98623 
L 399.86357 169.412459 
L 400.357266 160.323934 
L 400.850962 142.973115 
L 401.344658 156.192787 
L 401.838354 130.579672 
L 402.33205 132.232131 
L 402.825747 138.841967 
L 403.319443 139.668197 
L 403.813139 152.061639 
L 404.306835 148.756721 
L 405.294227 138.841967 
L 405.787923 136.363279 
L 406.281619 131.405902 
L 406.775315 132.232131 
L 407.269011 138.015738 
L 407.762707 138.841967 
L 408.256403 128.100984 
L 408.7501 143.799344 
L 409.737492 133.058361 
L 410.231188 110.750164 
L 410.724884 114.055082 
L 411.21858 136.363279 
L 411.712276 131.405902 
L 412.205972 117.36 
L 412.699668 114.055082 
L 413.68706 128.927213 
L 414.180756 119.012459 
L 414.674453 116.53377 
L 415.168149 158.671475 
L 415.661845 157.845246 
L 416.155541 128.927213 
L 416.649237 129.753443 
L 417.142933 210.723934 
L 417.636629 223.117377 
L 418.130325 160.323934 
L 418.624021 171.064918 
L 419.117717 178.500984 
L 420.105109 86.789508 
L 420.598806 105.792787 
L 421.092502 104.966557 
L 422.079894 104.966557 
L 422.57359 115.707541 
L 423.067286 106.619016 
L 423.560982 114.055082 
L 424.054678 114.055082 
L 424.548374 111.576393 
L 425.04207 112.402623 
L 425.535766 112.402623 
L 426.029463 119.838689 
L 427.016855 90.094426 
L 428.497943 114.881311 
L 428.991639 119.012459 
L 429.485335 115.707541 
L 429.979031 117.36 
L 430.472727 104.966557 
L 430.966423 97.530492 
L 431.460119 109.097705 
L 431.953816 124.796066 
L 432.447512 119.838689 
L 432.941208 144.625574 
L 433.434904 140.494426 
L 433.9286 129.753443 
L 434.422296 115.707541 
L 434.915992 114.055082 
L 435.409688 120.664918 
L 436.39708 105.792787 
L 436.890776 129.753443 
L 437.384472 113.228852 
L 437.878169 127.274754 
L 438.371865 144.625574 
L 438.865561 130.579672 
L 439.359257 126.448525 
L 439.852953 120.664918 
L 440.346649 137.189508 
L 440.840345 160.323934 
L 441.334041 152.887869 
L 441.827737 137.189508 
L 442.321433 145.451803 
L 442.815129 181.805902 
L 443.308825 205.766557 
L 443.802522 191.720656 
L 444.296218 149.582951 
L 444.789914 136.363279 
L 445.28361 135.537049 
L 445.777306 143.799344 
L 446.271002 139.668197 
L 446.764698 145.451803 
L 447.75209 152.887869 
L 448.245786 156.192787 
L 448.739482 162.802623 
L 449.233179 148.756721 
L 449.726875 150.40918 
L 450.220571 150.40918 
L 450.714267 149.582951 
L 451.207963 153.714098 
L 451.701659 142.973115 
L 452.195355 149.582951 
L 452.689051 148.756721 
L 453.182747 140.494426 
L 453.676443 161.150164 
L 454.170139 161.976393 
L 454.663835 171.064918 
L 455.157532 173.543607 
L 455.651228 158.671475 
L 456.144924 161.976393 
L 456.63862 177.674754 
L 457.132316 204.114098 
L 457.626012 218.98623 
L 458.119708 184.28459 
L 458.613404 220.638689 
L 459.1071 211.550164 
L 459.600796 228.074754 
L 460.094492 185.937049 
L 460.588188 219.812459 
L 461.081885 210.723934 
L 461.575581 142.146885 
L 462.069277 125.622295 
L 462.562973 158.671475 
L 463.056669 163.628852 
L 463.550365 156.192787 
L 464.044061 158.671475 
L 464.537757 275.996066 
L 465.525149 196.678033 
L 466.018845 176.022295 
L 466.512541 162.802623 
L 467.006238 190.068197 
L 467.499934 135.537049 
L 467.99363 190.068197 
L 468.487326 200.80918 
L 468.981022 188.415738 
L 469.474718 170.238689 
L 469.968414 200.80918 
L 470.46211 203.287869 
L 470.955806 239.641967 
L 471.449502 219.812459 
L 471.943198 242.946885 
L 472.436894 186.763279 
L 472.930591 152.061639 
L 473.424287 184.28459 
L 473.917983 161.150164 
L 474.411679 176.848525 
L 475.399071 196.678033 
L 475.892767 181.805902 
L 476.386463 148.756721 
L 476.880159 256.166557 
L 477.373855 270.212459 
L 477.867551 184.28459 
L 478.854944 314.002623 
L 479.34864 337.137049 
L 479.842336 329.700984 
L 480.336032 345.399344 
L 480.829728 366.881311 
L 481.323424 338.789508 
L 481.81712 295.825574 
L 482.310816 290.041967 
L 482.804512 199.156721 
L 483.298208 271.864918 
L 483.791904 242.946885 
L 484.285601 162.802623 
L 484.779297 202.461639 
L 485.272993 153.714098 
L 485.766689 208.245246 
L 486.260385 311.523934 
L 486.754081 237.989508 
L 487.247777 255.340328 
L 487.741473 226.422295 
L 488.235169 224.769836 
L 488.728865 202.461639 
L 489.222561 215.681311 
L 489.716257 210.723934 
L 490.209954 209.897705 
L 490.70365 223.117377 
L 491.197346 159.497705 
L 491.691042 223.117377 
L 492.184738 231.379672 
L 492.678434 214.028852 
L 493.17213 295.825574 
L 493.665826 337.963279 
L 494.159522 247.078033 
L 494.653218 210.723934 
L 495.146914 322.264918 
L 495.64061 193.373115 
L 496.134307 133.058361 
L 496.628003 129.753443 
L 497.121699 98.356721 
L 497.615395 110.750164 
L 498.109091 175.196066 
L 498.109091 175.196066 
" clip-path="url(#pad2444a1f1)" style="fill: none; stroke: #1f77b4; stroke-width: 1.5; stroke-linecap: round"/>
   </g>
   <g id="line2d_15">
    <path d="M 92.290909 191.076197 
L 92.784605 185.945311 
L 93.278301 194.281967 
L 93.771997 200.115148 
L 94.265693 242.971672 
L 94.75939 267.700721 
L 95.253086 248.870951 
L 95.746782 267.585049 
L 96.240478 278.342557 
L 96.734174 251.481836 
L 97.22787 254.687607 
L 97.721566 252.712918 
L 98.215262 265.75082 
L 98.708958 252.712918 
L 99.202654 224.943344 
L 99.69635 233.974033 
L 100.190046 232.88341 
L 100.683743 240.269902 
L 101.177439 256.802754 
L 101.671135 259.512787 
L 102.164831 231.693639 
L 102.658527 232.495082 
L 103.152223 238.460459 
L 103.645919 232.924721 
L 104.139615 230.446033 
L 104.633311 238.906623 
L 105.127007 263.12341 
L 105.620703 231.420984 
L 106.114399 238.096918 
L 106.608096 272.021902 
L 107.101792 269.67541 
L 107.595488 266.767082 
L 108.089184 269.229246 
L 108.58288 245.16118 
L 109.076576 211.442754 
L 110.063968 246.144393 
L 110.557664 245.417311 
L 111.05136 219.168 
L 111.545056 270.25377 
L 112.038752 220.820459 
L 112.532449 196.983738 
L 113.026145 236.973246 
L 113.519841 223.613115 
L 114.013537 206.551475 
L 114.507233 230.793049 
L 115.000929 226.711475 
L 115.494625 226.752787 
L 115.988321 229.900721 
L 116.482017 259.636721 
L 116.975713 259.694557 
L 117.469409 284.597115 
L 117.963106 272.211934 
L 118.456802 274.054426 
L 118.950498 278.036852 
L 119.444194 272.674623 
L 119.93789 239.955934 
L 120.431586 233.445246 
L 120.925282 237.824262 
L 121.418978 225.777836 
L 121.912674 217.796459 
L 122.40637 243.616131 
L 122.900066 255.96 
L 123.393762 245.276852 
L 123.887459 215.796984 
L 124.381155 252.233705 
L 124.874851 248.58177 
L 125.368547 249.755016 
L 125.862243 257.488525 
L 126.355939 217.722098 
L 126.849635 221.440131 
L 127.837027 247.309377 
L 128.330723 252.002361 
L 128.824419 229.074492 
L 129.318115 250.407738 
L 129.811812 249.267541 
L 130.305508 253.679607 
L 130.799204 267.171934 
L 131.2929 231.057443 
L 131.786596 249.399738 
L 132.280292 263.30518 
L 132.773988 251.556197 
L 133.267684 247.557246 
L 133.76138 231.98282 
L 134.255076 222.357246 
L 134.748772 227.603803 
L 135.242468 226.050492 
L 135.736165 203.296131 
L 136.229861 198.594885 
L 136.723557 200.379541 
L 137.217253 252.498098 
L 137.710949 278.416918 
L 138.204645 256.75318 
L 138.698341 253.877902 
L 139.685733 212.211148 
L 140.179429 231.87541 
L 140.673125 202.75082 
L 141.166821 187.151607 
L 141.660518 201.899803 
L 142.64791 275.178098 
L 143.141606 255.555148 
L 143.635302 266.568787 
L 144.128998 228.587016 
L 144.622694 218.837508 
L 145.610086 207.336393 
L 146.103782 207.889967 
L 146.597478 181.458885 
L 147.091175 190.720918 
L 147.584871 187.424262 
L 148.078567 194.876852 
L 148.572263 195.174295 
L 149.065959 273.038164 
L 149.559655 279.43318 
L 150.053351 280.424656 
L 150.547047 235.494295 
L 151.040743 218.424393 
L 151.534439 183.731016 
L 152.028135 197.867803 
L 152.521831 197.380328 
L 153.015528 194.951213 
L 153.509224 185.226492 
L 154.00292 178.864525 
L 154.496616 233.189115 
L 154.990312 243.103869 
L 155.484008 245.863475 
L 155.977704 240.294689 
L 156.4714 253.481311 
L 156.965096 214.169311 
L 157.458792 215.540852 
L 157.952488 225.810885 
L 158.939881 184.491148 
L 159.433577 174.485508 
L 159.927273 196.504525 
L 160.420969 181.640656 
L 160.914665 197.17377 
L 161.408361 202.866492 
L 161.902057 213.186098 
L 162.395753 259.77718 
L 162.889449 249.639344 
L 163.383145 262.602885 
L 163.876841 212.211148 
L 164.370537 178.434885 
L 165.35793 182.070295 
L 165.851626 185.590033 
L 166.345322 180.665705 
L 166.839018 186.30059 
L 167.332714 180.789639 
L 167.82641 181.483672 
L 168.320106 173.824525 
L 168.813802 160.745311 
L 169.307498 197.520787 
L 169.801194 194.306754 
L 170.294891 175.220852 
L 171.282283 178.798426 
L 171.775979 177.402098 
L 172.269675 169.131541 
L 172.763371 167.024656 
L 173.257067 180.483934 
L 174.244459 167.528656 
L 174.738155 152.714361 
L 175.231851 153.557115 
L 175.725547 170.09823 
L 176.219244 170.866623 
L 176.71294 170.907934 
L 177.206636 172.560393 
L 177.700332 157.556066 
L 178.194028 159.613377 
L 178.687724 177.435148 
L 179.18142 164.132852 
L 179.675116 159.01023 
L 180.168812 159.580328 
L 180.662508 158.688 
L 181.156204 140.246557 
L 181.6499 152.268197 
L 182.143597 201.81718 
L 182.637293 206.187934 
L 183.624685 172.659541 
L 184.118381 176.204066 
L 184.612077 168.313574 
L 185.105773 165.620066 
L 185.599469 161.596328 
L 186.093165 134.049836 
L 186.586861 158.274885 
L 187.080557 140.477902 
L 187.574253 133.471475 
L 188.06795 139.188984 
L 188.561646 136.288918 
L 189.055342 147.963541 
L 189.549038 136.123672 
L 190.042734 140.510951 
L 190.53643 141.543738 
L 191.030126 136.221746 
L 191.523822 135.79318 
L 192.017518 151.23541 
L 192.511214 137.470426 
L 193.00491 144.402492 
L 193.498607 135.330492 
L 193.992303 136.198033 
L 194.485999 136.627672 
L 194.979695 135.61141 
L 195.473391 108.139279 
L 195.967087 107.131279 
L 196.460783 107.825311 
L 196.954479 102.256525 
L 197.448175 136.024525 
L 197.941871 155.391344 
L 198.435567 154.664262 
L 198.929263 138.311032 
L 199.42296 136.823819 
L 199.916656 133.519975 
L 200.410352 124.118557 
L 200.904048 125.349639 
L 201.89144 118.673705 
L 202.385136 104.702164 
L 202.878832 128.819803 
L 203.372528 125.010885 
L 203.866224 104.619541 
L 204.853616 156.011016 
L 205.347313 135.776656 
L 205.841009 130.918426 
L 206.334705 131.619647 
L 206.828401 131.867516 
L 207.322097 132.546098 
L 207.815793 133.992 
L 208.309489 141.386754 
L 208.803185 138.080762 
L 209.296881 133.653246 
L 209.790577 127.596984 
L 210.284273 132.248656 
L 210.777969 131.488525 
L 211.271666 104.958295 
L 211.765362 105.66059 
L 212.259058 104.950033 
L 212.752754 132.199082 
L 213.24645 136.487213 
L 213.740146 119.004197 
L 214.233842 106.181115 
L 214.727538 119.813902 
L 215.221234 120.450098 
L 216.208626 119.615607 
L 216.702322 119.805639 
L 217.196019 119.450361 
L 217.689715 106.726426 
L 218.183411 138.97309 
L 218.677107 141.575713 
L 219.170803 157.853508 
L 219.664499 139.69191 
L 220.158195 139.473868 
L 220.651891 138.632188 
L 221.145587 127.65482 
L 221.639283 134.164434 
L 222.132979 124.639082 
L 222.626676 122.771803 
L 223.120372 108.97377 
L 223.614068 108.668066 
L 224.107764 107.073443 
L 224.60146 108.940721 
L 225.095156 109.362098 
L 225.588852 107.982295 
L 226.082548 107.370885 
L 226.576244 108.825049 
L 227.06994 107.635279 
L 227.563636 106.899934 
L 228.057332 107.866623 
L 228.551029 105.701902 
L 229.044725 108.221902 
L 229.538421 106.16459 
L 230.032117 111.576393 
L 230.525813 111.188066 
L 231.019509 116.112393 
L 231.513205 111.303738 
L 232.006901 115.724066 
L 232.500597 111.824262 
L 232.994293 118.029246 
L 233.487989 119.69823 
L 233.981685 132.94054 
L 234.475382 135.222008 
L 234.969078 133.212122 
L 235.462774 117.830951 
L 235.95647 120.359213 
L 236.450166 136.292884 
L 236.943862 133.865917 
L 237.437558 128.289942 
L 237.931254 137.238008 
L 238.42495 136.081287 
L 238.918646 131.248918 
L 239.412342 136.355016 
L 239.906038 204.742033 
L 240.399735 204.510689 
L 240.893431 132.066885 
L 241.387127 163.463607 
L 241.880823 158.332721 
L 242.374519 165.008656 
L 243.855607 148.986991 
L 244.349303 145.584 
L 244.842999 147.83027 
L 246.324088 152.036852 
L 246.817784 149.839082 
L 247.31148 150.706623 
L 247.805176 161.157352 
L 248.298872 160.718376 
L 248.792568 148.846532 
L 249.286264 152.81136 
L 249.77996 150.053902 
L 250.273656 173.072656 
L 250.767352 172.51082 
L 251.261048 168.611016 
L 251.754745 173.642754 
L 252.248441 166.661115 
L 252.742137 167.603016 
L 253.235833 147.796147 
L 253.729529 143.765221 
L 254.223225 153.482754 
L 254.716921 172.428197 
L 255.210617 164.653377 
L 255.704313 148.682361 
L 256.198009 190.803541 
L 256.691705 217.722098 
L 257.185401 207.889967 
L 257.679098 172.097705 
L 258.172794 150.433967 
L 258.66649 182.574295 
L 259.653882 179.550295 
L 260.147578 145.592262 
L 260.641274 178.963672 
L 261.13497 156.250623 
L 261.628666 181.194492 
L 262.122362 179.707279 
L 262.616058 178.963672 
L 263.109754 221.043541 
L 263.603451 224.687213 
L 264.097147 217.664262 
L 264.590843 181.995934 
L 265.084539 179.426361 
L 265.578235 207.749508 
L 266.071931 255.398164 
L 267.059323 211.872393 
L 267.553019 216.920656 
L 268.046715 181.847213 
L 268.540411 185.994885 
L 269.034107 191.423213 
L 269.527804 179.508984 
L 270.0215 250.845639 
L 270.515196 246.27659 
L 271.008892 225.32341 
L 271.502588 227.884721 
L 271.996284 283.605639 
L 272.48998 284.605377 
L 273.477372 251.597508 
L 274.464764 223.323934 
L 274.958461 231.58623 
L 275.452157 230.305574 
L 275.945853 218.135213 
L 276.439549 201.825443 
L 276.933245 198.206557 
L 277.426941 237.890361 
L 278.414333 201.85023 
L 278.908029 203.444852 
L 279.401725 219.176262 
L 279.895421 238.551344 
L 280.389117 220.655213 
L 280.882814 189.415475 
L 281.870206 230.76 
L 282.363902 229.545443 
L 282.857598 216.061377 
L 283.351294 218.55659 
L 283.84499 210.6 
L 284.338686 209.939016 
L 284.832382 221.142689 
L 285.326078 195.281705 
L 285.819774 230.247738 
L 286.31347 256.216131 
L 286.807167 245.491672 
L 287.300863 225.670426 
L 287.794559 196.264918 
L 288.288255 200.850492 
L 288.781951 198.247869 
L 289.275647 262.181508 
L 289.769343 253.357377 
L 290.756735 245.566033 
L 291.250431 251.704918 
L 291.744127 227.55423 
L 292.237823 230.743475 
L 292.73152 235.609967 
L 293.225216 231.470557 
L 294.212608 214.441967 
L 294.706304 190.563934 
L 295.2 218.003016 
L 295.693696 232.908197 
L 296.187392 267.105836 
L 296.681088 250.085508 
L 297.174784 252.308066 
L 297.66848 243.343475 
L 298.162177 227.306361 
L 298.655873 231.181377 
L 299.149569 216.813246 
L 299.643265 229.024918 
L 300.136961 212.855607 
L 300.630657 234.692852 
L 301.124353 234.238426 
L 301.618049 217.391607 
L 302.111745 229.115803 
L 302.605441 237.659016 
L 303.099137 217.342033 
L 303.592833 224.563279 
L 304.08653 213.078689 
L 304.580226 217.887344 
L 305.073922 213.392656 
L 305.567618 244.574557 
L 306.061314 252.118033 
L 306.55501 251.076984 
L 307.048706 265.668197 
L 307.542402 223.332197 
L 308.036098 233.321311 
L 308.529794 247.813377 
L 309.02349 221.324459 
L 309.517186 229.305836 
L 310.010883 211.913705 
L 310.998275 267.940328 
L 311.491971 249.22623 
L 311.985667 220.35777 
L 312.479363 223.48918 
L 312.973059 240.336 
L 313.466755 227.388984 
L 313.960451 264.271869 
L 314.454147 263.80918 
L 314.947843 253.952262 
L 315.441539 206.295344 
L 315.935236 199.049311 
L 316.428932 194.521574 
L 316.922628 259.967213 
L 317.416324 278.805246 
L 317.91002 225.885246 
L 318.403716 237.09718 
L 318.897412 227.008918 
L 319.391108 219.705049 
L 319.884804 187.242492 
L 320.3785 202.007213 
L 320.872196 252.308066 
L 321.365893 260.586885 
L 321.859589 252.688131 
L 322.353285 258.380852 
L 322.846981 250.614295 
L 323.340677 201.891541 
L 323.834373 186.284066 
L 324.328069 251.151344 
L 324.821765 238.815738 
L 325.315461 207.559475 
L 325.809157 206.881967 
L 326.302853 183.755803 
L 326.796549 189.53941 
L 327.290246 221.671475 
L 327.783942 198.867541 
L 328.277638 198.446164 
L 328.771334 198.247869 
L 329.26503 213.450492 
L 329.758726 213.541377 
L 330.252422 213.425705 
L 330.746118 212.277246 
L 331.239814 183.334426 
L 331.73351 189.390689 
L 332.227206 187.333377 
L 332.720902 173.882361 
L 333.214599 189.233705 
L 333.708295 199.264131 
L 334.201991 179.360262 
L 335.189383 184.879475 
L 335.683079 195.199082 
L 336.176775 213.433967 
L 336.670471 220.812197 
L 337.164167 187.225967 
L 338.151559 158.184 
L 338.645255 163.901508 
L 339.138952 161.621115 
L 339.632648 178.45141 
L 340.126344 201.660197 
L 340.62004 192.472525 
L 341.113736 170.131279 
L 341.607432 183.664918 
L 342.101128 172.452984 
L 343.08852 201.354492 
L 343.582216 227.636852 
L 344.075912 205.551738 
L 344.569608 175.600918 
L 345.063305 164.05023 
L 345.557001 163.067016 
L 346.050697 185.961836 
L 346.544393 189.291541 
L 347.038089 153.664525 
L 347.531785 171.230164 
L 348.025481 201.767607 
L 348.519177 257.207607 
L 349.012873 228.173902 
L 349.506569 173.882361 
L 350.000265 175.237377 
L 350.493962 141.038664 
L 350.987658 149.581877 
L 351.481354 151.747672 
L 351.97505 156.614164 
L 352.468746 137.396066 
L 352.962442 129.555148 
L 353.456138 156.27541 
L 353.949834 190.687869 
L 354.937226 145.170885 
L 355.430922 139.296393 
L 355.924618 170.940984 
L 356.418315 162.339934 
L 356.912011 142.674598 
L 357.405707 139.940852 
L 357.899403 134.793443 
L 358.393099 145.245246 
L 358.886795 168.941508 
L 359.380491 157.564328 
L 359.874187 158.646689 
L 360.367883 203.444852 
L 360.861579 198.90059 
L 361.355275 170.197377 
L 361.848971 170.147803 
L 362.342668 166.371934 
L 362.836364 163.686689 
L 363.33006 151.854008 
L 363.823756 153.300984 
L 364.317452 160.067803 
L 364.811148 140.577049 
L 365.304844 138.767607 
L 365.79854 144.088525 
L 366.292236 151.698098 
L 366.785932 144.584262 
L 367.773324 156.572852 
L 368.267021 153.243148 
L 368.760717 165.107803 
L 369.254413 157.101639 
L 369.748109 138.470164 
L 370.241805 168.420984 
L 370.735501 167.156852 
L 371.229197 166.834623 
L 371.722893 163.00918 
L 372.216589 164.752525 
L 372.710285 158.737574 
L 373.203981 147.880918 
L 373.697678 145.236984 
L 374.68507 131.281967 
L 375.178766 118.409311 
L 375.672462 127.76223 
L 376.166158 146.468066 
L 376.659854 170.213902 
L 377.15355 162.273836 
L 377.647246 158.704525 
L 378.140942 159.274623 
L 378.634638 166.785049 
L 379.128334 155.622689 
L 379.622031 147.434754 
L 380.115727 141.609836 
L 380.609423 156.391082 
L 381.103119 151.367607 
L 381.596815 144.105049 
L 382.090511 126.712918 
L 382.584207 127.861377 
L 383.077903 145.005639 
L 383.571599 156.746361 
L 384.065295 161.786361 
L 384.558991 160.976656 
L 385.052687 159.795148 
L 385.546384 132.645246 
L 386.04008 151.962492 
L 386.533776 141.509614 
L 387.027472 139.544262 
L 387.521168 141.692459 
L 388.014864 121.036721 
L 388.50856 118.938098 
L 389.495952 125.390951 
L 389.989648 143.229246 
L 390.483344 103.826361 
L 390.97704 103.875934 
L 391.470737 104.726951 
L 391.964433 107.866623 
L 392.458129 109.758689 
L 392.951825 113.030557 
L 393.445521 122.044721 
L 393.939217 110.072656 
L 394.432913 120.507934 
L 394.926609 164.248525 
L 395.420305 156.638951 
L 395.914001 136.272393 
L 396.407697 133.635647 
L 397.39509 130.637508 
L 397.888786 116.161967 
L 398.382482 131.951213 
L 398.876178 167.512131 
L 399.369874 170.246951 
L 399.86357 178.360525 
L 400.357266 167.371672 
L 400.850962 161.959869 
L 401.344658 142.698311 
L 401.838354 168.363148 
L 402.33205 138.337967 
L 402.825747 137.743082 
L 403.319443 139.345967 
L 403.813139 138.387541 
L 404.306835 155.854033 
L 404.800531 155.936656 
L 405.294227 150.078689 
L 405.787923 141.055188 
L 406.281619 139.048525 
L 406.775315 138.337967 
L 407.269011 140.146336 
L 407.762707 138.280131 
L 409.243796 130.521836 
L 409.737492 142.830508 
L 410.231188 149.500328 
L 410.724884 124.12682 
L 411.21858 125.440525 
L 411.712276 131.79423 
L 412.205972 140.566639 
L 412.699668 122.21823 
L 413.193364 119.442098 
L 413.68706 120.177443 
L 414.180756 126.622033 
L 414.674453 120.805377 
L 415.168149 122.284328 
L 415.661845 143.163148 
L 416.155541 130.447475 
L 416.649237 147.740459 
L 417.142933 142.403016 
L 417.636629 179.45941 
L 418.130325 177.831738 
L 418.624021 171.453246 
L 419.117717 171.841574 
L 419.611413 170.403934 
L 420.105109 131.298492 
L 420.598806 127.910951 
L 421.092502 130.009574 
L 421.586198 125.861902 
L 422.079894 113.427148 
L 422.57359 112.832262 
L 423.067286 124.044197 
L 423.560982 125.167869 
L 424.054678 130.364852 
L 424.548374 134.322492 
L 425.04207 122.226492 
L 425.535766 123.160131 
L 426.029463 132.736131 
L 426.523159 136.173246 
L 427.016855 118.946361 
L 427.510551 106.66859 
L 428.004247 106.503344 
L 428.497943 110.427934 
L 428.991639 122.780066 
L 429.485335 119.995672 
L 429.979031 122.680918 
L 430.472727 133.975475 
L 430.966423 104.660852 
L 431.460119 106.759475 
L 431.953816 135.10741 
L 432.447512 139.699098 
L 432.941208 140.319844 
L 433.434904 148.434492 
L 433.9286 137.106885 
L 434.422296 132.009049 
L 435.409688 120.020459 
L 435.903384 118.946361 
L 436.39708 119.012459 
L 436.890776 111.477246 
L 437.384472 126.671607 
L 437.878169 126.440262 
L 438.865561 160.406557 
L 439.359257 143.310795 
L 439.852953 139.849967 
L 440.346649 128.365377 
L 440.840345 143.376893 
L 441.334041 168.230951 
L 441.827737 153.871082 
L 442.321433 144.063738 
L 443.308825 165.363934 
L 443.802522 196.355803 
L 444.296218 165.653115 
L 444.789914 170.255213 
L 445.28361 146.075441 
L 445.777306 140.69991 
L 446.764698 142.427803 
L 447.258394 146.880106 
L 447.75209 146.797483 
L 448.245786 149.285508 
L 448.739482 169.974295 
L 449.233179 167.925246 
L 449.726875 159.762098 
L 450.220571 164.562492 
L 450.714267 151.920106 
L 451.207963 149.153311 
L 451.701659 153.705836 
L 452.195355 146.344131 
L 452.689051 146.203672 
L 453.182747 147.302557 
L 453.676443 145.889705 
L 454.170139 172.51082 
L 454.663835 168.891934 
L 455.157532 169.784262 
L 455.651228 173.791475 
L 456.144924 173.01482 
L 456.63862 175.328262 
L 457.132316 174.559869 
L 457.626012 187.118557 
L 458.119708 178.418361 
L 458.613404 172.122492 
L 459.600796 208.931016 
L 460.094492 209.897705 
L 460.588188 181.756328 
L 461.081885 205.840918 
L 462.069277 178.624918 
L 462.562973 147.831344 
L 463.056669 178.881049 
L 463.550365 172.47777 
L 464.044061 176.402361 
L 464.537757 178.335738 
L 465.031453 246.854951 
L 465.525149 222.811672 
L 466.512541 194.976 
L 467.006238 196.88459 
L 467.499934 195.248656 
L 467.99363 184.441574 
L 468.487326 194.736393 
L 468.981022 211.971541 
L 469.474718 223.745311 
L 469.968414 180.690492 
L 470.46211 211.054426 
L 470.955806 207.121574 
L 471.449502 221.919344 
L 471.943198 210.252984 
L 472.436894 212.29377 
L 472.930591 192.85259 
L 473.424287 188.076984 
L 473.917983 202.676459 
L 474.411679 197.033311 
L 474.905375 188.721443 
L 475.399071 196.562361 
L 475.892767 193.64577 
L 476.386463 191.604984 
L 476.880159 194.141508 
L 477.867551 245.508197 
L 478.361248 232.585967 
L 478.854944 227.008918 
L 479.34864 262.702033 
L 479.842336 277.84682 
L 480.336032 265.271607 
L 480.829728 291.471344 
L 481.81712 285.48118 
L 482.310816 264.470164 
L 482.804512 268.460852 
L 483.298208 230.611279 
L 483.791904 251.382689 
L 484.285601 245.98741 
L 484.779297 234.296262 
L 485.272993 234.825049 
L 485.766689 215.045115 
L 486.260385 231.115279 
L 486.754081 262.536787 
L 487.247777 237.849049 
L 487.741473 229.652852 
L 488.235169 225.290361 
L 488.728865 226.43882 
L 489.222561 222.026754 
L 489.716257 223.290885 
L 490.209954 222.390295 
L 490.70365 226.661902 
L 491.197346 227.884721 
L 491.691042 206.807607 
L 492.678434 257.612459 
L 493.17213 247.904262 
L 493.665826 255.984787 
L 494.159522 259.620197 
L 494.653218 255.414689 
L 495.146914 224.902033 
L 495.64061 271.889705 
L 496.134307 233.263475 
L 496.628003 206.468852 
L 497.121699 169.528131 
L 497.615395 159.026754 
L 498.109091 162.529967 
L 498.109091 162.529967 
" clip-path="url(#pad2444a1f1)" style="fill: none; stroke: #ff7f0e; stroke-width: 1.5; stroke-linecap: round"/>
   </g>
   <g id="patch_3">
    <path d="M 72 384.48 
L 72 51.84 
" style="fill: none; stroke: #ffffff; stroke-width: 0.8; stroke-linejoin: miter; stroke-linecap: square"/>
   </g>
   <g id="patch_4">
    <path d="M 518.4 384.48 
L 518.4 51.84 
" style="fill: none; stroke: #ffffff; stroke-width: 0.8; stroke-linejoin: miter; stroke-linecap: square"/>
   </g>
   <g id="patch_5">
    <path d="M 72 384.48 
L 518.4 384.48 
" style="fill: none; stroke: #ffffff; stroke-width: 0.8; stroke-linejoin: miter; stroke-linecap: square"/>
   </g>
   <g id="patch_6">
    <path d="M 72 51.84 
L 518.4 51.84 
" style="fill: none; stroke: #ffffff; stroke-width: 0.8; stroke-linejoin: miter; stroke-linecap: square"/>
   </g>
   <g id="text_16">
    <!-- Maximum Temperature Prediction 2 Days Ahead -->
    <g style="fill: #262626" transform="translate(166.59 45.84) scale(0.12 -0.12)">
     <defs>
      <path id="ArialMT-4d" d="M 475 0 
L 475 4581 
L 1388 4581 
L 2472 1338 
Q 2622 884 2691 659 
Q 2769 909 2934 1394 
L 4031 4581 
L 4847 4581 
L 4847 0 
L 4263 0 
L 4263 3834 
L 2931 0 
L 2384 0 
L 1059 3900 
L 1059 0 
L 475 0 
z
" transform="scale(0.015625)"/>
      <path id="ArialMT-78" d="M 47 0 
L 1259 1725 
L 138 3319 
L 841 3319 
L 1350 2541 
Q 1494 2319 1581 2169 
Q 1719 2375 1834 2534 
L 2394 3319 
L 3066 3319 
L 1919 1756 
L 3153 0 
L 2463 0 
L 1781 1031 
L 1600 1309 
L 728 0 
L 47 0 
z
" transform="scale(0.015625)"/>
      <path id="ArialMT-69" d="M 425 3934 
L 425 4581 
L 988 4581 
L 988 3934 
L 425 3934 
z
M 425 0 
L 425 3319 
L 988 3319 
L 988 0 
L 425 0 
z
" transform="scale(0.015625)"/>
      <path id="ArialMT-6d" d="M 422 0 
L 422 3319 
L 925 3319 
L 925 2853 
Q 1081 3097 1340 3245 
Q 1600 3394 1931 3394 
Q 2300 3394 2536 3241 
Q 2772 3088 2869 2813 
Q 3263 3394 3894 3394 
Q 4388 3394 4653 3120 
Q 4919 2847 4919 2278 
L 4919 0 
L 4359 0 
L 4359 2091 
Q 4359 2428 4304 2576 
Q 4250 2725 4106 2815 
Q 3963 2906 3769 2906 
Q 3419 2906 3187 2673 
Q 2956 2441 2956 1928 
L 2956 0 
L 2394 0 
L 2394 2156 
Q 2394 2531 2256 2718 
Q 2119 2906 1806 2906 
Q 1569 2906 1367 2781 
Q 1166 2656 1075 2415 
Q 984 2175 984 1722 
L 984 0 
L 422 0 
z
" transform="scale(0.015625)"/>
      <path id="ArialMT-75" d="M 2597 0 
L 2597 488 
Q 2209 -75 1544 -75 
Q 1250 -75 995 37 
Q 741 150 617 320 
Q 494 491 444 738 
Q 409 903 409 1263 
L 409 3319 
L 972 3319 
L 972 1478 
Q 972 1038 1006 884 
Q 1059 663 1231 536 
Q 1403 409 1656 409 
Q 1909 409 2131 539 
Q 2353 669 2445 892 
Q 2538 1116 2538 1541 
L 2538 3319 
L 3100 3319 
L 3100 0 
L 2597 0 
z
" transform="scale(0.015625)"/>
      <path id="ArialMT-20" transform="scale(0.015625)"/>
      <path id="ArialMT-54" d="M 1659 0 
L 1659 4041 
L 150 4041 
L 150 4581 
L 3781 4581 
L 3781 4041 
L 2266 4041 
L 2266 0 
L 1659 0 
z
" transform="scale(0.015625)"/>
      <path id="ArialMT-65" d="M 2694 1069 
L 3275 997 
Q 3138 488 2766 206 
Q 2394 -75 1816 -75 
Q 1088 -75 661 373 
Q 234 822 234 1631 
Q 234 2469 665 2931 
Q 1097 3394 1784 3394 
Q 2450 3394 2872 2941 
Q 3294 2488 3294 1666 
Q 3294 1616 3291 1516 
L 816 1516 
Q 847 969 1125 678 
Q 1403 388 1819 388 
Q 2128 388 2347 550 
Q 2566 713 2694 1069 
z
M 847 1978 
L 2700 1978 
Q 2663 2397 2488 2606 
Q 2219 2931 1791 2931 
Q 1403 2931 1139 2672 
Q 875 2413 847 1978 
z
" transform="scale(0.015625)"/>
      <path id="ArialMT-70" d="M 422 -1272 
L 422 3319 
L 934 3319 
L 934 2888 
Q 1116 3141 1344 3267 
Q 1572 3394 1897 3394 
Q 2322 3394 2647 3175 
Q 2972 2956 3137 2557 
Q 3303 2159 3303 1684 
Q 3303 1175 3120 767 
Q 2938 359 2589 142 
Q 2241 -75 1856 -75 
Q 1575 -75 1351 44 
Q 1128 163 984 344 
L 984 -1272 
L 422 -1272 
z
M 931 1641 
Q 931 1000 1190 694 
Q 1450 388 1819 388 
Q 2194 388 2461 705 
Q 2728 1022 2728 1688 
Q 2728 2322 2467 2637 
Q 2206 2953 1844 2953 
Q 1484 2953 1207 2617 
Q 931 2281 931 1641 
z
" transform="scale(0.015625)"/>
      <path id="ArialMT-72" d="M 416 0 
L 416 3319 
L 922 3319 
L 922 2816 
Q 1116 3169 1280 3281 
Q 1444 3394 1641 3394 
Q 1925 3394 2219 3213 
L 2025 2691 
Q 1819 2813 1613 2813 
Q 1428 2813 1281 2702 
Q 1134 2591 1072 2394 
Q 978 2094 978 1738 
L 978 0 
L 416 0 
z
" transform="scale(0.015625)"/>
      <path id="ArialMT-74" d="M 1650 503 
L 1731 6 
Q 1494 -44 1306 -44 
Q 1000 -44 831 53 
Q 663 150 594 308 
Q 525 466 525 972 
L 525 2881 
L 113 2881 
L 113 3319 
L 525 3319 
L 525 4141 
L 1084 4478 
L 1084 3319 
L 1650 3319 
L 1650 2881 
L 1084 2881 
L 1084 941 
Q 1084 700 1114 631 
Q 1144 563 1211 522 
Q 1278 481 1403 481 
Q 1497 481 1650 503 
z
" transform="scale(0.015625)"/>
      <path id="ArialMT-50" d="M 494 0 
L 494 4581 
L 2222 4581 
Q 2678 4581 2919 4538 
Q 3256 4481 3484 4323 
Q 3713 4166 3852 3881 
Q 3991 3597 3991 3256 
Q 3991 2672 3619 2267 
Q 3247 1863 2275 1863 
L 1100 1863 
L 1100 0 
L 494 0 
z
M 1100 2403 
L 2284 2403 
Q 2872 2403 3119 2622 
Q 3366 2841 3366 3238 
Q 3366 3525 3220 3729 
Q 3075 3934 2838 4000 
Q 2684 4041 2272 4041 
L 1100 4041 
L 1100 2403 
z
" transform="scale(0.015625)"/>
      <path id="ArialMT-64" d="M 2575 0 
L 2575 419 
Q 2259 -75 1647 -75 
Q 1250 -75 917 144 
Q 584 363 401 755 
Q 219 1147 219 1656 
Q 219 2153 384 2558 
Q 550 2963 881 3178 
Q 1213 3394 1622 3394 
Q 1922 3394 2156 3267 
Q 2391 3141 2538 2938 
L 2538 4581 
L 3097 4581 
L 3097 0 
L 2575 0 
z
M 797 1656 
Q 797 1019 1065 703 
Q 1334 388 1700 388 
Q 2069 388 2326 689 
Q 2584 991 2584 1609 
Q 2584 2291 2321 2609 
Q 2059 2928 1675 2928 
Q 1300 2928 1048 2622 
Q 797 2316 797 1656 
z
" transform="scale(0.015625)"/>
      <path id="ArialMT-63" d="M 2588 1216 
L 3141 1144 
Q 3050 572 2676 248 
Q 2303 -75 1759 -75 
Q 1078 -75 664 370 
Q 250 816 250 1647 
Q 250 2184 428 2587 
Q 606 2991 970 3192 
Q 1334 3394 1763 3394 
Q 2303 3394 2647 3120 
Q 2991 2847 3088 2344 
L 2541 2259 
Q 2463 2594 2264 2762 
Q 2066 2931 1784 2931 
Q 1359 2931 1093 2626 
Q 828 2322 828 1663 
Q 828 994 1084 691 
Q 1341 388 1753 388 
Q 2084 388 2306 591 
Q 2528 794 2588 1216 
z
" transform="scale(0.015625)"/>
      <path id="ArialMT-6f" d="M 213 1659 
Q 213 2581 725 3025 
Q 1153 3394 1769 3394 
Q 2453 3394 2887 2945 
Q 3322 2497 3322 1706 
Q 3322 1066 3130 698 
Q 2938 331 2570 128 
Q 2203 -75 1769 -75 
Q 1072 -75 642 372 
Q 213 819 213 1659 
z
M 791 1659 
Q 791 1022 1069 705 
Q 1347 388 1769 388 
Q 2188 388 2466 706 
Q 2744 1025 2744 1678 
Q 2744 2294 2464 2611 
Q 2184 2928 1769 2928 
Q 1347 2928 1069 2612 
Q 791 2297 791 1659 
z
" transform="scale(0.015625)"/>
      <path id="ArialMT-6e" d="M 422 0 
L 422 3319 
L 928 3319 
L 928 2847 
Q 1294 3394 1984 3394 
Q 2284 3394 2536 3286 
Q 2788 3178 2913 3003 
Q 3038 2828 3088 2588 
Q 3119 2431 3119 2041 
L 3119 0 
L 2556 0 
L 2556 2019 
Q 2556 2363 2490 2533 
Q 2425 2703 2258 2804 
Q 2091 2906 1866 2906 
Q 1506 2906 1245 2678 
Q 984 2450 984 1813 
L 984 0 
L 422 0 
z
" transform="scale(0.015625)"/>
      <path id="ArialMT-41" d="M -9 0 
L 1750 4581 
L 2403 4581 
L 4278 0 
L 3588 0 
L 3053 1388 
L 1138 1388 
L 634 0 
L -9 0 
z
M 1313 1881 
L 2866 1881 
L 2388 3150 
Q 2169 3728 2063 4100 
Q 1975 3659 1816 3225 
L 1313 1881 
z
" transform="scale(0.015625)"/>
      <path id="ArialMT-68" d="M 422 0 
L 422 4581 
L 984 4581 
L 984 2938 
Q 1378 3394 1978 3394 
Q 2347 3394 2619 3248 
Q 2891 3103 3008 2847 
Q 3125 2591 3125 2103 
L 3125 0 
L 2563 0 
L 2563 2103 
Q 2563 2525 2380 2717 
Q 2197 2909 1863 2909 
Q 1613 2909 1392 2779 
Q 1172 2650 1078 2428 
Q 984 2206 984 1816 
L 984 0 
L 422 0 
z
" transform="scale(0.015625)"/>
     </defs>
     <use xlink:href="#ArialMT-4d"/>
     <use xlink:href="#ArialMT-61" x="83.300781"/>
     <use xlink:href="#ArialMT-78" x="138.916016"/>
     <use xlink:href="#ArialMT-69" x="188.916016"/>
     <use xlink:href="#ArialMT-6d" x="211.132812"/>
     <use xlink:href="#ArialMT-75" x="294.433594"/>
     <use xlink:href="#ArialMT-6d" x="350.048828"/>
     <use xlink:href="#ArialMT-20" x="433.349609"/>
     <use xlink:href="#ArialMT-54" x="459.382812"/>
     <use xlink:href="#ArialMT-65" x="509.341797"/>
     <use xlink:href="#ArialMT-6d" x="564.957031"/>
     <use xlink:href="#ArialMT-70" x="648.257812"/>
     <use xlink:href="#ArialMT-65" x="703.873047"/>
     <use xlink:href="#ArialMT-72" x="759.488281"/>
     <use xlink:href="#ArialMT-61" x="792.789062"/>
     <use xlink:href="#ArialMT-74" x="848.404297"/>
     <use xlink:href="#ArialMT-75" x="876.1875"/>
     <use xlink:href="#ArialMT-72" x="931.802734"/>
     <use xlink:href="#ArialMT-65" x="965.103516"/>
     <use xlink:href="#ArialMT-20" x="1020.71875"/>
     <use xlink:href="#ArialMT-50" x="1048.501953"/>
     <use xlink:href="#ArialMT-72" x="1115.201172"/>
     <use xlink:href="#ArialMT-65" x="1148.501953"/>
     <use xlink:href="#ArialMT-64" x="1204.117188"/>
     <use xlink:href="#ArialMT-69" x="1259.732422"/>
     <use xlink:href="#ArialMT-63" x="1281.949219"/>
     <use xlink:href="#ArialMT-74" x="1331.949219"/>
     <use xlink:href="#ArialMT-69" x="1359.732422"/>
     <use xlink:href="#ArialMT-6f" x="1381.949219"/>
     <use xlink:href="#ArialMT-6e" x="1437.564453"/>
     <use xlink:href="#ArialMT-20" x="1493.179688"/>
     <use xlink:href="#ArialMT-32" x="1520.962891"/>
     <use xlink:href="#ArialMT-20" x="1576.578125"/>
     <use xlink:href="#ArialMT-44" x="1604.361328"/>
     <use xlink:href="#ArialMT-61" x="1676.578125"/>
     <use xlink:href="#ArialMT-79" x="1732.193359"/>
     <use xlink:href="#ArialMT-73" x="1782.193359"/>
     <use xlink:href="#ArialMT-20" x="1832.193359"/>
     <use xlink:href="#ArialMT-41" x="1854.476562"/>
     <use xlink:href="#ArialMT-68" x="1921.175781"/>
     <use xlink:href="#ArialMT-65" x="1976.791016"/>
     <use xlink:href="#ArialMT-61" x="2032.40625"/>
     <use xlink:href="#ArialMT-64" x="2088.021484"/>
    </g>
   </g>
   <g id="legend_1">
    <g id="patch_7">
     <path d="M 437.15625 88.130625 
L 511.4 88.130625 
Q 513.4 88.130625 513.4 86.130625 
L 513.4 58.84 
Q 513.4 56.84 511.4 56.84 
L 437.15625 56.84 
Q 435.15625 56.84 435.15625 58.84 
L 435.15625 86.130625 
Q 435.15625 88.130625 437.15625 88.130625 
z
" style="fill: #eaeaf2; opacity: 0.8; stroke: #cccccc; stroke-linejoin: miter"/>
    </g>
    <g id="line2d_16">
     <path d="M 439.15625 64.497812 
L 449.15625 64.497812 
L 459.15625 64.497812 
" style="fill: none; stroke: #1f77b4; stroke-width: 1.5; stroke-linecap: round"/>
    </g>
    <g id="text_17">
     <!-- Real -->
     <g style="fill: #262626" transform="translate(467.15625 67.997812) scale(0.1 -0.1)">
      <defs>
       <path id="ArialMT-52" d="M 503 0 
L 503 4581 
L 2534 4581 
Q 3147 4581 3465 4457 
Q 3784 4334 3975 4021 
Q 4166 3709 4166 3331 
Q 4166 2844 3850 2509 
Q 3534 2175 2875 2084 
Q 3116 1969 3241 1856 
Q 3506 1613 3744 1247 
L 4541 0 
L 3778 0 
L 3172 953 
Q 2906 1366 2734 1584 
Q 2563 1803 2427 1890 
Q 2291 1978 2150 2013 
Q 2047 2034 1813 2034 
L 1109 2034 
L 1109 0 
L 503 0 
z
M 1109 2559 
L 2413 2559 
Q 2828 2559 3062 2645 
Q 3297 2731 3419 2920 
Q 3541 3109 3541 3331 
Q 3541 3656 3305 3865 
Q 3069 4075 2559 4075 
L 1109 4075 
L 1109 2559 
z
" transform="scale(0.015625)"/>
       <path id="ArialMT-6c" d="M 409 0 
L 409 4581 
L 972 4581 
L 972 0 
L 409 0 
z
" transform="scale(0.015625)"/>
      </defs>
      <use xlink:href="#ArialMT-52"/>
      <use xlink:href="#ArialMT-65" x="72.216797"/>
      <use xlink:href="#ArialMT-61" x="127.832031"/>
      <use xlink:href="#ArialMT-6c" x="183.447266"/>
     </g>
    </g>
    <g id="line2d_17">
     <path d="M 439.15625 78.643125 
L 449.15625 78.643125 
L 459.15625 78.643125 
" style="fill: none; stroke: #ff7f0e; stroke-width: 1.5; stroke-linecap: round"/>
    </g>
    <g id="text_18">
     <!-- Predicted -->
     <g style="fill: #262626" transform="translate(467.15625 82.143125) scale(0.1 -0.1)">
      <use xlink:href="#ArialMT-50"/>
      <use xlink:href="#ArialMT-72" x="66.699219"/>
      <use xlink:href="#ArialMT-65" x="100"/>
      <use xlink:href="#ArialMT-64" x="155.615234"/>
      <use xlink:href="#ArialMT-69" x="211.230469"/>
      <use xlink:href="#ArialMT-63" x="233.447266"/>
      <use xlink:href="#ArialMT-74" x="283.447266"/>
      <use xlink:href="#ArialMT-65" x="311.230469"/>
      <use xlink:href="#ArialMT-64" x="366.845703"/>
     </g>
    </g>
   </g>
  </g>
 </g>
 <defs>
  <clipPath id="pad2444a1f1">
   <rect x="72" y="51.84" width="446.4" height="332.64"/>
  </clipPath>
 </defs>
</svg>
