<?xml version="1.0" encoding="utf-8" standalone="no"?>
<!DOCTYPE svg PUBLIC "-//W3C//DTD SVG 1.1//EN"
  "http://www.w3.org/Graphics/SVG/1.1/DTD/svg11.dtd">
<svg xmlns:xlink="http://www.w3.org/1999/xlink" width="576pt" height="432pt" viewBox="0 0 576 432" xmlns="http://www.w3.org/2000/svg" version="1.1">
 <metadata>
  <rdf:RDF xmlns:dc="http://purl.org/dc/elements/1.1/" xmlns:cc="http://creativecommons.org/ns#" xmlns:rdf="http://www.w3.org/1999/02/22-rdf-syntax-ns#">
   <cc:Work>
    <dc:type rdf:resource="http://purl.org/dc/dcmitype/StillImage"/>
    <dc:date>2023-11-17T05:10:31.265210</dc:date>
    <dc:format>image/svg+xml</dc:format>
    <dc:creator>
     <cc:Agent>
      <dc:title>Matplotlib v3.8.0, https://matplotlib.org/</dc:title>
     </cc:Agent>
    </dc:creator>
   </cc:Work>
  </rdf:RDF>
 </metadata>
 <defs>
  <style type="text/css">*{stroke-linejoin: round; stroke-linecap: butt}</style>
 </defs>
 <g id="figure_1">
  <g id="patch_1">
   <path d="M 0 432 
L 576 432 
L 576 0 
L 0 0 
z
" style="fill: #ffffff"/>
  </g>
  <g id="axes_1">
   <g id="patch_2">
    <path d="M 72 384.48 
L 518.4 384.48 
L 518.4 51.84 
L 72 51.84 
z
" style="fill: #eaeaf2"/>
   </g>
   <g id="matplotlib.axis_1">
    <g id="xtick_1">
     <g id="line2d_1">
      <path d="M 92.290909 384.48 
L 92.290909 51.84 
" clip-path="url(#pe164547057)" style="fill: none; stroke: #ffffff; stroke-width: 0.8; stroke-linecap: round"/>
     </g>
     <g id="text_1">
      <!-- 0 -->
      <g style="fill: #262626" transform="translate(89.51044 398.637812) scale(0.1 -0.1)">
       <defs>
        <path id="ArialMT-30" d="M 266 2259 
Q 266 3072 433 3567 
Q 600 4063 929 4331 
Q 1259 4600 1759 4600 
Q 2128 4600 2406 4451 
Q 2684 4303 2865 4023 
Q 3047 3744 3150 3342 
Q 3253 2941 3253 2259 
Q 3253 1453 3087 958 
Q 2922 463 2592 192 
Q 2263 -78 1759 -78 
Q 1097 -78 719 397 
Q 266 969 266 2259 
z
M 844 2259 
Q 844 1131 1108 757 
Q 1372 384 1759 384 
Q 2147 384 2411 759 
Q 2675 1134 2675 2259 
Q 2675 3391 2411 3762 
Q 2147 4134 1753 4134 
Q 1366 4134 1134 3806 
Q 844 3388 844 2259 
z
" transform="scale(0.015625)"/>
       </defs>
       <use xlink:href="#ArialMT-30"/>
      </g>
     </g>
    </g>
    <g id="xtick_2">
     <g id="line2d_2">
      <path d="M 191.030126 384.48 
L 191.030126 51.84 
" clip-path="url(#pe164547057)" style="fill: none; stroke: #ffffff; stroke-width: 0.8; stroke-linecap: round"/>
     </g>
     <g id="text_2">
      <!-- 200 -->
      <g style="fill: #262626" transform="translate(182.68872 398.637812) scale(0.1 -0.1)">
       <defs>
        <path id="ArialMT-32" d="M 3222 541 
L 3222 0 
L 194 0 
Q 188 203 259 391 
Q 375 700 629 1000 
Q 884 1300 1366 1694 
Q 2113 2306 2375 2664 
Q 2638 3022 2638 3341 
Q 2638 3675 2398 3904 
Q 2159 4134 1775 4134 
Q 1369 4134 1125 3890 
Q 881 3647 878 3216 
L 300 3275 
Q 359 3922 746 4261 
Q 1134 4600 1788 4600 
Q 2447 4600 2831 4234 
Q 3216 3869 3216 3328 
Q 3216 3053 3103 2787 
Q 2991 2522 2730 2228 
Q 2469 1934 1863 1422 
Q 1356 997 1212 845 
Q 1069 694 975 541 
L 3222 541 
z
" transform="scale(0.015625)"/>
       </defs>
       <use xlink:href="#ArialMT-32"/>
       <use xlink:href="#ArialMT-30" x="55.615234"/>
       <use xlink:href="#ArialMT-30" x="111.230469"/>
      </g>
     </g>
    </g>
    <g id="xtick_3">
     <g id="line2d_3">
      <path d="M 289.769343 384.48 
L 289.769343 51.84 
" clip-path="url(#pe164547057)" style="fill: none; stroke: #ffffff; stroke-width: 0.8; stroke-linecap: round"/>
     </g>
     <g id="text_3">
      <!-- 400 -->
      <g style="fill: #262626" transform="translate(281.427937 398.637812) scale(0.1 -0.1)">
       <defs>
        <path id="ArialMT-34" d="M 2069 0 
L 2069 1097 
L 81 1097 
L 81 1613 
L 2172 4581 
L 2631 4581 
L 2631 1613 
L 3250 1613 
L 3250 1097 
L 2631 1097 
L 2631 0 
L 2069 0 
z
M 2069 1613 
L 2069 3678 
L 634 1613 
L 2069 1613 
z
" transform="scale(0.015625)"/>
       </defs>
       <use xlink:href="#ArialMT-34"/>
       <use xlink:href="#ArialMT-30" x="55.615234"/>
       <use xlink:href="#ArialMT-30" x="111.230469"/>
      </g>
     </g>
    </g>
    <g id="xtick_4">
     <g id="line2d_4">
      <path d="M 388.50856 384.48 
L 388.50856 51.84 
" clip-path="url(#pe164547057)" style="fill: none; stroke: #ffffff; stroke-width: 0.8; stroke-linecap: round"/>
     </g>
     <g id="text_4">
      <!-- 600 -->
      <g style="fill: #262626" transform="translate(380.167154 398.637812) scale(0.1 -0.1)">
       <defs>
        <path id="ArialMT-36" d="M 3184 3459 
L 2625 3416 
Q 2550 3747 2413 3897 
Q 2184 4138 1850 4138 
Q 1581 4138 1378 3988 
Q 1113 3794 959 3422 
Q 806 3050 800 2363 
Q 1003 2672 1297 2822 
Q 1591 2972 1913 2972 
Q 2475 2972 2870 2558 
Q 3266 2144 3266 1488 
Q 3266 1056 3080 686 
Q 2894 316 2569 119 
Q 2244 -78 1831 -78 
Q 1128 -78 684 439 
Q 241 956 241 2144 
Q 241 3472 731 4075 
Q 1159 4600 1884 4600 
Q 2425 4600 2770 4297 
Q 3116 3994 3184 3459 
z
M 888 1484 
Q 888 1194 1011 928 
Q 1134 663 1356 523 
Q 1578 384 1822 384 
Q 2178 384 2434 671 
Q 2691 959 2691 1453 
Q 2691 1928 2437 2201 
Q 2184 2475 1800 2475 
Q 1419 2475 1153 2201 
Q 888 1928 888 1484 
z
" transform="scale(0.015625)"/>
       </defs>
       <use xlink:href="#ArialMT-36"/>
       <use xlink:href="#ArialMT-30" x="55.615234"/>
       <use xlink:href="#ArialMT-30" x="111.230469"/>
      </g>
     </g>
    </g>
    <g id="xtick_5">
     <g id="line2d_5">
      <path d="M 487.247777 384.48 
L 487.247777 51.84 
" clip-path="url(#pe164547057)" style="fill: none; stroke: #ffffff; stroke-width: 0.8; stroke-linecap: round"/>
     </g>
     <g id="text_5">
      <!-- 800 -->
      <g style="fill: #262626" transform="translate(478.906371 398.637812) scale(0.1 -0.1)">
       <defs>
        <path id="ArialMT-38" d="M 1131 2484 
Q 781 2613 612 2850 
Q 444 3088 444 3419 
Q 444 3919 803 4259 
Q 1163 4600 1759 4600 
Q 2359 4600 2725 4251 
Q 3091 3903 3091 3403 
Q 3091 3084 2923 2848 
Q 2756 2613 2416 2484 
Q 2838 2347 3058 2040 
Q 3278 1734 3278 1309 
Q 3278 722 2862 322 
Q 2447 -78 1769 -78 
Q 1091 -78 675 323 
Q 259 725 259 1325 
Q 259 1772 486 2073 
Q 713 2375 1131 2484 
z
M 1019 3438 
Q 1019 3113 1228 2906 
Q 1438 2700 1772 2700 
Q 2097 2700 2305 2904 
Q 2513 3109 2513 3406 
Q 2513 3716 2298 3927 
Q 2084 4138 1766 4138 
Q 1444 4138 1231 3931 
Q 1019 3725 1019 3438 
z
M 838 1322 
Q 838 1081 952 856 
Q 1066 631 1291 507 
Q 1516 384 1775 384 
Q 2178 384 2440 643 
Q 2703 903 2703 1303 
Q 2703 1709 2433 1975 
Q 2163 2241 1756 2241 
Q 1359 2241 1098 1978 
Q 838 1716 838 1322 
z
" transform="scale(0.015625)"/>
       </defs>
       <use xlink:href="#ArialMT-38"/>
       <use xlink:href="#ArialMT-30" x="55.615234"/>
       <use xlink:href="#ArialMT-30" x="111.230469"/>
      </g>
     </g>
    </g>
    <g id="text_6">
     <!-- Days -->
     <g style="fill: #262626" transform="translate(283.808594 411.783125) scale(0.1 -0.1)">
      <defs>
       <path id="ArialMT-44" d="M 494 0 
L 494 4581 
L 2072 4581 
Q 2606 4581 2888 4516 
Q 3281 4425 3559 4188 
Q 3922 3881 4101 3404 
Q 4281 2928 4281 2316 
Q 4281 1794 4159 1391 
Q 4038 988 3847 723 
Q 3656 459 3429 307 
Q 3203 156 2883 78 
Q 2563 0 2147 0 
L 494 0 
z
M 1100 541 
L 2078 541 
Q 2531 541 2789 625 
Q 3047 709 3200 863 
Q 3416 1078 3536 1442 
Q 3656 1806 3656 2325 
Q 3656 3044 3420 3430 
Q 3184 3816 2847 3947 
Q 2603 4041 2063 4041 
L 1100 4041 
L 1100 541 
z
" transform="scale(0.015625)"/>
       <path id="ArialMT-61" d="M 2588 409 
Q 2275 144 1986 34 
Q 1697 -75 1366 -75 
Q 819 -75 525 192 
Q 231 459 231 875 
Q 231 1119 342 1320 
Q 453 1522 633 1644 
Q 813 1766 1038 1828 
Q 1203 1872 1538 1913 
Q 2219 1994 2541 2106 
Q 2544 2222 2544 2253 
Q 2544 2597 2384 2738 
Q 2169 2928 1744 2928 
Q 1347 2928 1158 2789 
Q 969 2650 878 2297 
L 328 2372 
Q 403 2725 575 2942 
Q 747 3159 1072 3276 
Q 1397 3394 1825 3394 
Q 2250 3394 2515 3294 
Q 2781 3194 2906 3042 
Q 3031 2891 3081 2659 
Q 3109 2516 3109 2141 
L 3109 1391 
Q 3109 606 3145 398 
Q 3181 191 3288 0 
L 2700 0 
Q 2613 175 2588 409 
z
M 2541 1666 
Q 2234 1541 1622 1453 
Q 1275 1403 1131 1340 
Q 988 1278 909 1158 
Q 831 1038 831 891 
Q 831 666 1001 516 
Q 1172 366 1500 366 
Q 1825 366 2078 508 
Q 2331 650 2450 897 
Q 2541 1088 2541 1459 
L 2541 1666 
z
" transform="scale(0.015625)"/>
       <path id="ArialMT-79" d="M 397 -1278 
L 334 -750 
Q 519 -800 656 -800 
Q 844 -800 956 -737 
Q 1069 -675 1141 -563 
Q 1194 -478 1313 -144 
Q 1328 -97 1363 -6 
L 103 3319 
L 709 3319 
L 1400 1397 
Q 1534 1031 1641 628 
Q 1738 1016 1872 1384 
L 2581 3319 
L 3144 3319 
L 1881 -56 
Q 1678 -603 1566 -809 
Q 1416 -1088 1222 -1217 
Q 1028 -1347 759 -1347 
Q 597 -1347 397 -1278 
z
" transform="scale(0.015625)"/>
       <path id="ArialMT-73" d="M 197 991 
L 753 1078 
Q 800 744 1014 566 
Q 1228 388 1613 388 
Q 2000 388 2187 545 
Q 2375 703 2375 916 
Q 2375 1106 2209 1216 
Q 2094 1291 1634 1406 
Q 1016 1563 777 1677 
Q 538 1791 414 1992 
Q 291 2194 291 2438 
Q 291 2659 392 2848 
Q 494 3038 669 3163 
Q 800 3259 1026 3326 
Q 1253 3394 1513 3394 
Q 1903 3394 2198 3281 
Q 2494 3169 2634 2976 
Q 2775 2784 2828 2463 
L 2278 2388 
Q 2241 2644 2061 2787 
Q 1881 2931 1553 2931 
Q 1166 2931 1000 2803 
Q 834 2675 834 2503 
Q 834 2394 903 2306 
Q 972 2216 1119 2156 
Q 1203 2125 1616 2013 
Q 2213 1853 2448 1751 
Q 2684 1650 2818 1456 
Q 2953 1263 2953 975 
Q 2953 694 2789 445 
Q 2625 197 2315 61 
Q 2006 -75 1616 -75 
Q 969 -75 630 194 
Q 291 463 197 991 
z
" transform="scale(0.015625)"/>
      </defs>
      <use xlink:href="#ArialMT-44"/>
      <use xlink:href="#ArialMT-61" x="72.216797"/>
      <use xlink:href="#ArialMT-79" x="127.832031"/>
      <use xlink:href="#ArialMT-73" x="177.832031"/>
     </g>
    </g>
   </g>
   <g id="matplotlib.axis_2">
    <g id="ytick_1">
     <g id="line2d_6">
      <path d="M 72 351.892852 
L 518.4 351.892852 
" clip-path="url(#pe164547057)" style="fill: none; stroke: #ffffff; stroke-width: 0.8; stroke-linecap: round"/>
     </g>
     <g id="text_7">
      <!-- 5 -->
      <g style="fill: #262626" transform="translate(59.439062 355.471758) scale(0.1 -0.1)">
       <defs>
        <path id="ArialMT-35" d="M 266 1200 
L 856 1250 
Q 922 819 1161 601 
Q 1400 384 1738 384 
Q 2144 384 2425 690 
Q 2706 997 2706 1503 
Q 2706 1984 2436 2262 
Q 2166 2541 1728 2541 
Q 1456 2541 1237 2417 
Q 1019 2294 894 2097 
L 366 2166 
L 809 4519 
L 3088 4519 
L 3088 3981 
L 1259 3981 
L 1013 2750 
Q 1425 3038 1878 3038 
Q 2478 3038 2890 2622 
Q 3303 2206 3303 1553 
Q 3303 931 2941 478 
Q 2500 -78 1738 -78 
Q 1113 -78 717 272 
Q 322 622 266 1200 
z
" transform="scale(0.015625)"/>
       </defs>
       <use xlink:href="#ArialMT-35"/>
      </g>
     </g>
    </g>
    <g id="ytick_2">
     <g id="line2d_7">
      <path d="M 72 297.308014 
L 518.4 297.308014 
" clip-path="url(#pe164547057)" style="fill: none; stroke: #ffffff; stroke-width: 0.8; stroke-linecap: round"/>
     </g>
     <g id="text_8">
      <!-- 10 -->
      <g style="fill: #262626" transform="translate(53.878125 300.886921) scale(0.1 -0.1)">
       <defs>
        <path id="ArialMT-31" d="M 2384 0 
L 1822 0 
L 1822 3584 
Q 1619 3391 1289 3197 
Q 959 3003 697 2906 
L 697 3450 
Q 1169 3672 1522 3987 
Q 1875 4303 2022 4600 
L 2384 4600 
L 2384 0 
z
" transform="scale(0.015625)"/>
       </defs>
       <use xlink:href="#ArialMT-31"/>
       <use xlink:href="#ArialMT-30" x="55.615234"/>
      </g>
     </g>
    </g>
    <g id="ytick_3">
     <g id="line2d_8">
      <path d="M 72 242.723177 
L 518.4 242.723177 
" clip-path="url(#pe164547057)" style="fill: none; stroke: #ffffff; stroke-width: 0.8; stroke-linecap: round"/>
     </g>
     <g id="text_9">
      <!-- 15 -->
      <g style="fill: #262626" transform="translate(53.878125 246.302083) scale(0.1 -0.1)">
       <use xlink:href="#ArialMT-31"/>
       <use xlink:href="#ArialMT-35" x="55.615234"/>
      </g>
     </g>
    </g>
    <g id="ytick_4">
     <g id="line2d_9">
      <path d="M 72 188.138339 
L 518.4 188.138339 
" clip-path="url(#pe164547057)" style="fill: none; stroke: #ffffff; stroke-width: 0.8; stroke-linecap: round"/>
     </g>
     <g id="text_10">
      <!-- 20 -->
      <g style="fill: #262626" transform="translate(53.878125 191.717246) scale(0.1 -0.1)">
       <use xlink:href="#ArialMT-32"/>
       <use xlink:href="#ArialMT-30" x="55.615234"/>
      </g>
     </g>
    </g>
    <g id="ytick_5">
     <g id="line2d_10">
      <path d="M 72 133.553502 
L 518.4 133.553502 
" clip-path="url(#pe164547057)" style="fill: none; stroke: #ffffff; stroke-width: 0.8; stroke-linecap: round"/>
     </g>
     <g id="text_11">
      <!-- 25 -->
      <g style="fill: #262626" transform="translate(53.878125 137.132408) scale(0.1 -0.1)">
       <use xlink:href="#ArialMT-32"/>
       <use xlink:href="#ArialMT-35" x="55.615234"/>
      </g>
     </g>
    </g>
    <g id="ytick_6">
     <g id="line2d_11">
      <path d="M 72 78.968664 
L 518.4 78.968664 
" clip-path="url(#pe164547057)" style="fill: none; stroke: #ffffff; stroke-width: 0.8; stroke-linecap: round"/>
     </g>
     <g id="text_12">
      <!-- 30 -->
      <g style="fill: #262626" transform="translate(53.878125 82.547571) scale(0.1 -0.1)">
       <defs>
        <path id="ArialMT-33" d="M 269 1209 
L 831 1284 
Q 928 806 1161 595 
Q 1394 384 1728 384 
Q 2125 384 2398 659 
Q 2672 934 2672 1341 
Q 2672 1728 2419 1979 
Q 2166 2231 1775 2231 
Q 1616 2231 1378 2169 
L 1441 2663 
Q 1497 2656 1531 2656 
Q 1891 2656 2178 2843 
Q 2466 3031 2466 3422 
Q 2466 3731 2256 3934 
Q 2047 4138 1716 4138 
Q 1388 4138 1169 3931 
Q 950 3725 888 3313 
L 325 3413 
Q 428 3978 793 4289 
Q 1159 4600 1703 4600 
Q 2078 4600 2393 4439 
Q 2709 4278 2876 4000 
Q 3044 3722 3044 3409 
Q 3044 3113 2884 2869 
Q 2725 2625 2413 2481 
Q 2819 2388 3044 2092 
Q 3269 1797 3269 1353 
Q 3269 753 2831 336 
Q 2394 -81 1725 -81 
Q 1122 -81 723 278 
Q 325 638 269 1209 
z
" transform="scale(0.015625)"/>
       </defs>
       <use xlink:href="#ArialMT-33"/>
       <use xlink:href="#ArialMT-30" x="55.615234"/>
      </g>
     </g>
    </g>
    <g id="text_13">
     <!-- (°C) -->
     <g style="fill: #262626" transform="translate(47.773438 227.099844) rotate(-90) scale(0.1 -0.1)">
      <defs>
       <path id="ArialMT-28" d="M 1497 -1347 
Q 1031 -759 709 28 
Q 388 816 388 1659 
Q 388 2403 628 3084 
Q 909 3875 1497 4659 
L 1900 4659 
Q 1522 4009 1400 3731 
Q 1209 3300 1100 2831 
Q 966 2247 966 1656 
Q 966 153 1900 -1347 
L 1497 -1347 
z
" transform="scale(0.015625)"/>
       <path id="ArialMT-b0" d="M 400 3794 
Q 400 4153 654 4406 
Q 909 4659 1266 4659 
Q 1628 4659 1881 4406 
Q 2134 4153 2134 3794 
Q 2134 3434 1879 3179 
Q 1625 2925 1266 2925 
Q 909 2925 654 3178 
Q 400 3431 400 3794 
z
M 741 3794 
Q 741 3575 895 3420 
Q 1050 3266 1269 3266 
Q 1484 3266 1639 3420 
Q 1794 3575 1794 3794 
Q 1794 4013 1639 4167 
Q 1484 4322 1269 4322 
Q 1050 4322 895 4167 
Q 741 4013 741 3794 
z
" transform="scale(0.015625)"/>
       <path id="ArialMT-43" d="M 3763 1606 
L 4369 1453 
Q 4178 706 3683 314 
Q 3188 -78 2472 -78 
Q 1731 -78 1267 223 
Q 803 525 561 1097 
Q 319 1669 319 2325 
Q 319 3041 592 3573 
Q 866 4106 1370 4382 
Q 1875 4659 2481 4659 
Q 3169 4659 3637 4309 
Q 4106 3959 4291 3325 
L 3694 3184 
Q 3534 3684 3231 3912 
Q 2928 4141 2469 4141 
Q 1941 4141 1586 3887 
Q 1231 3634 1087 3207 
Q 944 2781 944 2328 
Q 944 1744 1114 1308 
Q 1284 872 1643 656 
Q 2003 441 2422 441 
Q 2931 441 3284 734 
Q 3638 1028 3763 1606 
z
" transform="scale(0.015625)"/>
       <path id="ArialMT-29" d="M 791 -1347 
L 388 -1347 
Q 1322 153 1322 1656 
Q 1322 2244 1188 2822 
Q 1081 3291 891 3722 
Q 769 4003 388 4659 
L 791 4659 
Q 1378 3875 1659 3084 
Q 1900 2403 1900 1659 
Q 1900 816 1576 28 
Q 1253 -759 791 -1347 
z
" transform="scale(0.015625)"/>
      </defs>
      <use xlink:href="#ArialMT-28"/>
      <use xlink:href="#ArialMT-b0" x="33.300781"/>
      <use xlink:href="#ArialMT-43" x="73.291016"/>
      <use xlink:href="#ArialMT-29" x="145.507812"/>
     </g>
    </g>
   </g>
   <g id="line2d_12">
    <path d="M 92.290909 200.147004 
L 93.278301 164.121011 
L 93.771997 291.849531 
L 94.265693 298.399711 
L 94.75939 290.757834 
L 95.253086 315.866859 
L 95.746782 351.892852 
L 96.240478 366.08491 
L 97.22787 336.609097 
L 97.721566 300.583105 
L 98.708958 268.923899 
L 99.69635 244.90657 
L 100.683743 313.683466 
L 101.177439 268.923899 
L 101.671135 249.273357 
L 102.164831 245.998267 
L 102.658527 219.797545 
L 103.152223 255.823538 
L 103.645919 230.714513 
L 104.139615 262.373718 
L 104.633311 276.565776 
L 105.127007 274.382383 
L 105.620703 252.548448 
L 106.114399 289.666137 
L 107.101792 298.399711 
L 107.595488 297.308014 
L 108.089184 283.115957 
L 108.58288 251.456751 
L 109.076576 272.198989 
L 109.570272 322.41704 
L 110.063968 327.875523 
L 110.557664 291.849531 
L 111.05136 296.216318 
L 111.545056 287.482744 
L 112.038752 219.797545 
L 112.532449 300.583105 
L 113.026145 294.032924 
L 113.519841 271.107292 
L 114.013537 266.740505 
L 114.507233 258.006931 
L 115.000929 223.072635 
L 115.988321 275.474079 
L 116.482017 330.058917 
L 116.975713 345.342671 
L 117.469409 332.24231 
L 117.963106 315.866859 
L 118.456802 315.866859 
L 118.950498 352.984549 
L 119.444194 313.683466 
L 119.93789 307.133285 
L 120.431586 280.932563 
L 120.925282 244.90657 
L 121.418978 236.172996 
L 121.912674 282.02426 
L 122.40637 285.29935 
L 122.900066 264.557112 
L 123.393762 264.557112 
L 123.887459 304.949892 
L 124.381155 306.041588 
L 124.874851 309.316679 
L 125.368547 283.115957 
L 125.862243 267.832202 
L 126.355939 238.35639 
L 126.849635 266.740505 
L 127.343331 314.775162 
L 127.837027 332.24231 
L 128.330723 295.124621 
L 128.824419 297.308014 
L 129.318115 328.96722 
L 130.305508 279.840866 
L 130.799204 289.666137 
L 131.2929 303.858195 
L 131.786596 308.224982 
L 132.280292 347.526065 
L 132.773988 298.399711 
L 133.76138 243.814874 
L 134.255076 243.814874 
L 135.242468 219.797545 
L 135.736165 208.880578 
L 136.229861 208.880578 
L 136.723557 327.875523 
L 137.217253 347.526065 
L 137.710949 336.609097 
L 138.204645 285.29935 
L 138.698341 263.465415 
L 139.192037 309.316679 
L 139.685733 282.02426 
L 140.179429 226.347726 
L 140.673125 188.138339 
L 141.166821 189.230036 
L 141.660518 260.190325 
L 142.154214 265.648809 
L 142.64791 299.491408 
L 143.141606 291.849531 
L 143.635302 267.832202 
L 144.128998 238.35639 
L 145.11639 274.382383 
L 145.610086 253.640144 
L 146.597478 183.771552 
L 147.091175 193.596823 
L 147.584871 196.871913 
L 148.078567 252.548448 
L 148.572263 361.718123 
L 149.065959 366.08491 
L 149.559655 338.792491 
L 150.053351 343.159278 
L 150.547047 250.365054 
L 151.534439 194.68852 
L 152.028135 172.854585 
L 152.521831 191.41343 
L 153.015528 191.41343 
L 153.509224 185.954946 
L 154.00292 302.766498 
L 154.990312 294.032924 
L 155.484008 310.408375 
L 155.977704 300.583105 
L 156.4714 252.548448 
L 156.965096 247.089964 
L 157.458792 236.172996 
L 157.952488 221.980939 
L 158.939881 184.863249 
L 159.433577 203.422094 
L 160.420969 216.522455 
L 160.914665 215.430758 
L 161.408361 249.273357 
L 161.902057 308.224982 
L 162.395753 326.783827 
L 162.889449 302.766498 
L 163.383145 250.365054 
L 163.876841 228.531119 
L 164.370537 195.780217 
L 164.864234 195.780217 
L 165.35793 185.954946 
L 165.851626 193.596823 
L 166.345322 191.41343 
L 166.839018 203.422094 
L 167.332714 157.57083 
L 168.320106 196.871913 
L 168.813802 259.098628 
L 169.307498 252.548448 
L 169.801194 226.347726 
L 170.294891 190.321733 
L 170.788587 178.313069 
L 171.775979 221.980939 
L 172.269675 213.247365 
L 172.763371 207.788881 
L 173.257067 189.230036 
L 173.750763 178.313069 
L 174.244459 194.68852 
L 174.738155 173.946282 
L 175.231851 200.147004 
L 175.725547 197.96361 
L 176.219244 183.771552 
L 176.71294 163.029314 
L 177.206636 169.579495 
L 177.700332 155.387437 
L 178.194028 164.121011 
L 178.687724 169.579495 
L 179.675116 195.780217 
L 180.168812 187.046643 
L 180.662508 153.204043 
L 181.156204 132.461805 
L 181.6499 203.422094 
L 182.143597 215.430758 
L 182.637293 207.788881 
L 183.624685 172.854585 
L 184.118381 180.496462 
L 184.612077 171.762888 
L 185.105773 157.57083 
L 185.599469 146.653863 
L 186.093165 130.278412 
L 187.080557 147.74556 
L 187.574253 140.103682 
L 188.06795 135.736895 
L 188.561646 133.553502 
L 189.549038 152.112347 
L 190.042734 149.928953 
L 190.53643 151.02065 
L 191.030126 147.74556 
L 191.523822 131.370108 
L 192.017518 143.378773 
L 192.511214 151.02065 
L 193.00491 141.195379 
L 193.498607 140.103682 
L 193.992303 146.653863 
L 194.485999 142.287076 
L 194.979695 147.74556 
L 195.473391 116.086354 
L 195.967087 111.719567 
L 196.460783 118.269747 
L 196.954479 166.304404 
L 197.448175 159.754224 
L 197.941871 165.212708 
L 198.435567 151.02065 
L 198.929263 153.204043 
L 199.42296 145.562166 
L 199.916656 142.287076 
L 200.410352 136.828592 
L 200.904048 141.195379 
L 201.397744 119.361444 
L 201.89144 104.07769 
L 202.878832 128.095018 
L 203.372528 128.095018 
L 203.866224 154.29574 
L 204.35992 172.854585 
L 204.853616 151.02065 
L 205.347313 151.02065 
L 205.841009 155.387437 
L 206.334705 156.479134 
L 206.828401 160.845921 
L 207.322097 159.754224 
L 207.815793 146.653863 
L 208.309489 136.828592 
L 208.803185 133.553502 
L 209.296881 135.736895 
L 209.790577 146.653863 
L 210.284273 135.736895 
L 210.777969 136.828592 
L 211.271666 136.828592 
L 211.765362 127.003321 
L 212.752754 166.304404 
L 213.24645 80.060361 
L 213.740146 118.269747 
L 214.233842 120.453141 
L 214.727538 130.278412 
L 215.221234 131.370108 
L 215.71493 143.378773 
L 216.208626 140.103682 
L 216.702322 141.195379 
L 217.196019 149.928953 
L 217.689715 133.553502 
L 218.183411 144.470469 
L 218.677107 168.487798 
L 219.170803 165.212708 
L 220.158195 154.29574 
L 220.651891 141.195379 
L 221.145587 151.02065 
L 221.639283 141.195379 
L 222.132979 142.287076 
L 223.120372 132.461805 
L 224.107764 123.728231 
L 224.60146 121.544838 
L 225.095156 121.544838 
L 225.588852 128.095018 
L 226.082548 128.095018 
L 226.576244 129.186715 
L 227.06994 128.095018 
L 227.563636 129.186715 
L 228.057332 129.186715 
L 228.551029 124.819928 
L 229.044725 127.003321 
L 229.538421 112.811264 
L 230.032117 118.269747 
L 230.525813 121.544838 
L 231.019509 131.370108 
L 231.513205 119.361444 
L 232.006901 119.361444 
L 232.500597 154.29574 
L 232.994293 131.370108 
L 233.487989 127.003321 
L 233.981685 146.653863 
L 234.475382 144.470469 
L 234.969078 135.736895 
L 235.462774 135.736895 
L 235.95647 163.029314 
L 236.450166 145.562166 
L 236.943862 137.920289 
L 237.437558 135.736895 
L 237.931254 145.562166 
L 238.42495 144.470469 
L 238.918646 156.479134 
L 239.412342 184.863249 
L 239.906038 181.588159 
L 240.399735 122.636534 
L 240.893431 149.928953 
L 241.387127 158.662527 
L 241.880823 157.57083 
L 242.374519 165.212708 
L 242.868215 161.937617 
L 243.361911 152.112347 
L 243.855607 148.837256 
L 244.842999 130.278412 
L 245.336695 132.461805 
L 245.830392 151.02065 
L 246.324088 152.112347 
L 246.817784 145.562166 
L 247.31148 144.470469 
L 247.805176 140.103682 
L 248.298872 134.645199 
L 249.286264 151.02065 
L 249.77996 141.195379 
L 250.273656 147.74556 
L 250.767352 146.653863 
L 251.261048 157.57083 
L 251.754745 154.29574 
L 252.248441 163.029314 
L 252.742137 159.754224 
L 253.235833 154.29574 
L 253.729529 160.845921 
L 254.223225 164.121011 
L 254.716921 160.845921 
L 255.210617 156.479134 
L 255.704313 267.832202 
L 256.198009 273.290686 
L 257.185401 179.404765 
L 257.679098 158.662527 
L 258.172794 204.513791 
L 258.66649 213.247365 
L 259.160186 204.513791 
L 259.653882 184.863249 
L 260.147578 151.02065 
L 260.641274 156.479134 
L 261.13497 180.496462 
L 261.628666 195.780217 
L 262.122362 178.313069 
L 262.616058 262.373718 
L 263.109754 271.107292 
L 263.603451 252.548448 
L 264.590843 180.496462 
L 265.084539 284.207653 
L 265.578235 286.391047 
L 266.071931 302.766498 
L 266.565627 266.740505 
L 267.059323 251.456751 
L 267.553019 231.806209 
L 268.046715 197.96361 
L 268.540411 176.129675 
L 269.527804 284.207653 
L 270.0215 272.198989 
L 270.515196 243.814874 
L 271.008892 285.29935 
L 271.502588 362.809819 
L 271.996284 369.36 
L 272.48998 338.792491 
L 272.983676 290.757834 
L 273.477372 300.583105 
L 274.464764 251.456751 
L 274.958461 240.539783 
L 275.452157 204.513791 
L 275.945853 191.41343 
L 276.439549 197.96361 
L 276.933245 237.264693 
L 277.426941 265.648809 
L 278.414333 229.622816 
L 278.908029 224.164332 
L 279.401725 253.640144 
L 279.895421 256.915235 
L 280.389117 217.614152 
L 280.882814 220.889242 
L 281.37651 267.832202 
L 281.870206 285.29935 
L 282.363902 254.731841 
L 282.857598 252.548448 
L 283.351294 233.989603 
L 283.84499 241.63148 
L 284.338686 251.456751 
L 284.832382 235.0813 
L 285.326078 262.373718 
L 285.819774 300.583105 
L 286.31347 315.866859 
L 286.807167 296.216318 
L 287.300863 240.539783 
L 287.794559 250.365054 
L 288.288255 219.797545 
L 288.781951 315.866859 
L 289.769343 352.984549 
L 290.263039 270.015596 
L 290.756735 289.666137 
L 291.250431 319.141949 
L 291.744127 321.325343 
L 292.73152 272.198989 
L 293.225216 236.172996 
L 293.718912 225.256029 
L 294.212608 219.797545 
L 294.706304 229.622816 
L 295.2 275.474079 
L 295.693696 296.216318 
L 296.681088 271.107292 
L 297.174784 272.198989 
L 297.66848 308.224982 
L 298.162177 314.775162 
L 299.149569 262.373718 
L 299.643265 275.474079 
L 300.136961 259.098628 
L 300.630657 262.373718 
L 301.124353 277.657473 
L 301.618049 306.041588 
L 302.111745 262.373718 
L 302.605441 260.190325 
L 303.099137 226.347726 
L 303.592833 200.147004 
L 304.08653 202.330397 
L 304.580226 215.430758 
L 305.073922 266.740505 
L 306.061314 292.941227 
L 306.55501 265.648809 
L 307.048706 286.391047 
L 307.542402 273.290686 
L 308.529794 231.806209 
L 309.02349 244.90657 
L 309.517186 235.0813 
L 310.010883 270.015596 
L 310.504579 286.391047 
L 310.998275 313.683466 
L 311.491971 288.57444 
L 311.985667 297.308014 
L 312.479363 252.548448 
L 312.973059 245.998267 
L 313.960451 361.718123 
L 314.947843 285.29935 
L 315.441539 204.513791 
L 315.935236 213.247365 
L 316.428932 273.290686 
L 316.922628 287.482744 
L 317.416324 296.216318 
L 317.91002 292.941227 
L 318.897412 261.282022 
L 319.391108 228.531119 
L 319.884804 203.422094 
L 320.872196 316.958556 
L 321.365893 330.058917 
L 321.859589 308.224982 
L 322.353285 278.74917 
L 322.846981 237.264693 
L 323.340677 215.430758 
L 323.834373 301.674801 
L 324.328069 336.609097 
L 324.821765 327.875523 
L 325.809157 264.557112 
L 326.302853 219.797545 
L 326.796549 194.68852 
L 327.290246 193.596823 
L 327.783942 273.290686 
L 328.277638 261.282022 
L 328.771334 262.373718 
L 329.758726 214.339061 
L 330.746118 202.330397 
L 331.239814 205.605487 
L 331.73351 199.055307 
L 332.227206 171.762888 
L 332.720902 179.404765 
L 333.214599 199.055307 
L 333.708295 195.780217 
L 334.201991 190.321733 
L 334.695687 196.871913 
L 335.189383 217.614152 
L 335.683079 245.998267 
L 336.176775 248.181661 
L 336.670471 214.339061 
L 337.164167 199.055307 
L 337.657863 169.579495 
L 338.151559 176.129675 
L 338.645255 176.129675 
L 339.138952 143.378773 
L 339.632648 211.063971 
L 340.126344 227.439422 
L 340.62004 171.762888 
L 341.113736 204.513791 
L 341.607432 178.313069 
L 342.101128 158.662527 
L 342.594824 232.897906 
L 343.08852 230.714513 
L 343.582216 219.797545 
L 344.075912 185.954946 
L 344.569608 177.221372 
L 345.063305 154.29574 
L 345.557001 181.588159 
L 346.050697 187.046643 
L 346.544393 190.321733 
L 347.038089 192.505126 
L 347.531785 239.448087 
L 348.025481 275.474079 
L 348.519177 253.640144 
L 349.012873 218.705848 
L 349.506569 166.304404 
L 350.000265 179.404765 
L 350.493962 171.762888 
L 350.987658 152.112347 
L 351.481354 137.920289 
L 352.468746 165.212708 
L 352.962442 151.02065 
L 353.456138 202.330397 
L 353.949834 176.129675 
L 354.937226 159.754224 
L 355.430922 176.129675 
L 355.924618 205.605487 
L 356.418315 177.221372 
L 356.912011 156.479134 
L 357.405707 153.204043 
L 357.899403 178.313069 
L 358.393099 168.487798 
L 358.886795 188.138339 
L 359.874187 199.055307 
L 360.367883 201.2387 
L 360.861579 190.321733 
L 361.355275 183.771552 
L 361.848971 165.212708 
L 362.342668 163.029314 
L 362.836364 147.74556 
L 363.33006 165.212708 
L 363.823756 188.138339 
L 364.811148 156.479134 
L 365.304844 132.461805 
L 365.79854 142.287076 
L 366.292236 167.396101 
L 366.785932 151.02065 
L 367.279628 155.387437 
L 367.773324 175.037978 
L 368.267021 178.313069 
L 368.760717 175.037978 
L 369.254413 145.562166 
L 369.748109 196.871913 
L 370.241805 165.212708 
L 370.735501 184.863249 
L 371.229197 190.321733 
L 372.216589 158.662527 
L 372.710285 149.928953 
L 373.203981 151.02065 
L 373.697678 148.837256 
L 374.191374 144.470469 
L 374.68507 143.378773 
L 375.178766 183.771552 
L 375.672462 154.29574 
L 376.166158 166.304404 
L 376.659854 182.679856 
L 377.15355 176.129675 
L 377.647246 176.129675 
L 378.140942 175.037978 
L 378.634638 160.845921 
L 379.128334 149.928953 
L 379.622031 155.387437 
L 380.115727 175.037978 
L 380.609423 142.287076 
L 381.103119 135.736895 
L 381.596815 134.645199 
L 382.090511 136.828592 
L 382.584207 180.496462 
L 383.077903 176.129675 
L 383.571599 157.57083 
L 384.065295 144.470469 
L 384.558991 158.662527 
L 385.052687 131.370108 
L 385.546384 140.103682 
L 386.04008 133.553502 
L 386.533776 136.828592 
L 387.027472 143.378773 
L 387.521168 136.828592 
L 388.014864 148.837256 
L 388.50856 136.828592 
L 389.002256 129.186715 
L 389.495952 125.911625 
L 389.989648 121.544838 
L 390.483344 129.186715 
L 390.97704 134.645199 
L 391.470737 137.920289 
L 391.964433 132.461805 
L 392.458129 137.920289 
L 392.951825 137.920289 
L 393.445521 130.278412 
L 393.939217 127.003321 
L 394.432913 159.754224 
L 394.926609 156.479134 
L 395.420305 142.287076 
L 395.914001 140.103682 
L 396.407697 145.562166 
L 397.39509 131.370108 
L 397.888786 140.103682 
L 398.382482 173.946282 
L 398.876178 145.562166 
L 399.369874 169.579495 
L 399.86357 176.129675 
L 400.357266 161.937617 
L 400.850962 143.378773 
L 401.344658 180.496462 
L 401.838354 161.937617 
L 402.33205 157.57083 
L 403.319443 141.195379 
L 403.813139 142.287076 
L 404.306835 141.195379 
L 404.800531 141.195379 
L 405.294227 163.029314 
L 405.787923 163.029314 
L 406.281619 159.754224 
L 406.775315 142.287076 
L 407.269011 143.378773 
L 407.762707 151.02065 
L 408.256403 149.928953 
L 408.7501 129.186715 
L 409.243796 137.920289 
L 409.737492 132.461805 
L 410.231188 135.736895 
L 410.724884 142.287076 
L 411.21858 106.261083 
L 411.712276 148.837256 
L 412.205972 142.287076 
L 412.699668 123.728231 
L 413.193364 131.370108 
L 413.68706 133.553502 
L 414.674453 127.003321 
L 415.168149 119.361444 
L 415.661845 66.96 
L 416.155541 134.645199 
L 416.649237 133.553502 
L 417.142933 161.937617 
L 417.636629 152.112347 
L 418.130325 163.029314 
L 418.624021 146.653863 
L 419.117717 146.653863 
L 419.611413 66.96 
L 420.105109 120.453141 
L 420.598806 117.178051 
L 421.092502 136.828592 
L 421.586198 135.736895 
L 422.57359 135.736895 
L 423.067286 137.920289 
L 423.560982 137.920289 
L 424.054678 140.103682 
L 424.548374 134.645199 
L 425.04207 142.287076 
L 425.535766 144.470469 
L 426.029463 145.562166 
L 426.523159 141.195379 
L 427.016855 128.095018 
L 427.510551 129.186715 
L 428.004247 128.095018 
L 428.497943 141.195379 
L 429.485335 139.011986 
L 430.472727 141.195379 
L 430.966423 131.370108 
L 431.460119 149.928953 
L 431.953816 146.653863 
L 432.447512 146.653863 
L 432.941208 148.837256 
L 433.434904 131.370108 
L 433.9286 139.011986 
L 434.422296 133.553502 
L 434.915992 133.553502 
L 435.409688 137.920289 
L 436.39708 125.911625 
L 436.890776 117.178051 
L 437.384472 125.911625 
L 437.878169 140.103682 
L 438.371865 151.02065 
L 438.865561 149.928953 
L 439.359257 140.103682 
L 439.852953 125.911625 
L 440.346649 154.29574 
L 440.840345 163.029314 
L 441.334041 160.845921 
L 441.827737 146.653863 
L 442.815129 171.762888 
L 443.308825 181.588159 
L 443.802522 182.679856 
L 444.296218 173.946282 
L 444.789914 175.037978 
L 445.28361 156.479134 
L 445.777306 161.937617 
L 446.271002 158.662527 
L 446.764698 163.029314 
L 447.75209 156.479134 
L 448.245786 160.845921 
L 448.739482 160.845921 
L 449.233179 167.396101 
L 449.726875 155.387437 
L 450.220571 151.02065 
L 450.714267 154.29574 
L 451.207963 154.29574 
L 452.195355 165.212708 
L 452.689051 155.387437 
L 453.182747 156.479134 
L 453.676443 178.313069 
L 454.170139 192.505126 
L 454.663835 169.579495 
L 455.157532 189.230036 
L 455.651228 201.2387 
L 456.144924 202.330397 
L 457.132316 179.404765 
L 457.626012 173.946282 
L 458.119708 175.037978 
L 459.1071 221.980939 
L 459.600796 196.871913 
L 460.094492 205.605487 
L 460.588188 189.230036 
L 461.081885 196.871913 
L 461.575581 194.68852 
L 462.069277 172.854585 
L 462.562973 175.037978 
L 463.056669 163.029314 
L 463.550365 155.387437 
L 464.044061 201.2387 
L 464.537757 259.098628 
L 465.031453 243.814874 
L 465.525149 270.015596 
L 466.018845 243.814874 
L 466.512541 231.806209 
L 467.499934 187.046643 
L 467.99363 196.871913 
L 468.487326 242.723177 
L 468.981022 230.714513 
L 469.474718 199.055307 
L 469.968414 233.989603 
L 470.46211 242.723177 
L 471.449502 209.972274 
L 471.943198 208.880578 
L 472.436894 192.505126 
L 472.930591 180.496462 
L 473.424287 197.96361 
L 473.917983 239.448087 
L 474.411679 203.422094 
L 474.905375 176.129675 
L 475.399071 189.230036 
L 475.892767 182.679856 
L 476.386463 189.230036 
L 476.880159 261.282022 
L 477.373855 299.491408 
L 478.361248 273.290686 
L 479.34864 338.792491 
L 479.842336 314.775162 
L 480.336032 332.24231 
L 480.829728 340.975884 
L 481.323424 337.700794 
L 482.804512 243.814874 
L 483.298208 273.290686 
L 484.285601 299.491408 
L 484.779297 275.474079 
L 485.272993 237.264693 
L 486.260385 291.849531 
L 486.754081 267.832202 
L 487.247777 220.889242 
L 487.741473 185.954946 
L 488.235169 201.2387 
L 488.728865 212.155668 
L 489.222561 232.897906 
L 489.716257 199.055307 
L 490.209954 208.880578 
L 490.70365 213.247365 
L 491.197346 238.35639 
L 491.691042 250.365054 
L 492.184738 274.382383 
L 492.678434 283.115957 
L 493.17213 288.57444 
L 493.665826 320.233646 
L 494.159522 295.124621 
L 494.653218 302.766498 
L 495.146914 298.399711 
L 495.64061 302.766498 
L 496.134307 196.871913 
L 496.628003 189.230036 
L 497.121699 171.762888 
L 497.615395 169.579495 
L 498.109091 215.430758 
L 498.109091 215.430758 
" clip-path="url(#pe164547057)" style="fill: none; stroke: #1f77b4; stroke-width: 1.5; stroke-linecap: round"/>
   </g>
   <g id="line2d_13">
    <path d="M 92.290909 238.279971 
L 92.784605 288.847365 
L 93.278301 236.620592 
L 93.771997 240.823625 
L 94.265693 310.069949 
L 94.75939 298.421545 
L 95.253086 301.423711 
L 95.746782 245.801762 
L 96.240478 305.681329 
L 96.734174 254.710007 
L 97.22787 242.952433 
L 97.721566 250.321386 
L 98.215262 246.391278 
L 99.202654 276.718614 
L 99.69635 274.884563 
L 100.190046 254.08774 
L 100.683743 241.151134 
L 101.177439 238.225386 
L 101.671135 237.614036 
L 102.164831 252.744953 
L 102.658527 259.557141 
L 103.152223 307.930224 
L 103.645919 263.192491 
L 104.139615 257.286412 
L 104.633311 278.257906 
L 105.127007 309.13109 
L 105.620703 292.046036 
L 106.114399 306.93678 
L 107.101792 252.384693 
L 107.595488 288.585357 
L 108.089184 310.46296 
L 108.58288 299.644245 
L 109.076576 273.891119 
L 109.570272 276.303769 
L 110.063968 255.408693 
L 110.557664 262.2973 
L 111.05136 274.731726 
L 111.545056 252.701285 
L 112.038752 252.39561 
L 112.532449 258.487278 
L 113.026145 261.675032 
L 113.519841 250.081213 
L 114.013537 253.97857 
L 114.507233 260.354079 
L 115.000929 304.764303 
L 115.494625 336.434426 
L 115.988321 309.109256 
L 116.482017 312.995697 
L 116.975713 312.864693 
L 117.469409 308.847249 
L 117.963106 268.017791 
L 118.456802 274.840895 
L 118.950498 268.902065 
L 119.444194 256.827899 
L 119.93789 261.096433 
L 120.925282 312.690022 
L 121.418978 305.113646 
L 121.912674 263.705588 
L 122.40637 308.290484 
L 122.900066 311.030643 
L 123.393762 305.877834 
L 123.887459 286.816809 
L 124.381155 276.402022 
L 124.874851 254.600838 
L 125.368547 263.607336 
L 125.862243 299.676996 
L 126.355939 297.351682 
L 126.849635 258.760202 
L 127.343331 289.567884 
L 127.837027 286.642137 
L 128.330723 305.724996 
L 128.824419 306.729357 
L 129.318115 276.565776 
L 129.811812 274.076708 
L 130.305508 319.28387 
L 130.799204 322.657213 
L 131.2929 312.340679 
L 131.786596 267.166267 
L 132.280292 255.954542 
L 132.773988 259.469805 
L 133.267684 309.567769 
L 133.76138 230.277834 
L 134.255076 221.271336 
L 134.748772 217.024635 
L 135.242468 311.696578 
L 135.736165 323.02839 
L 136.229861 309.982614 
L 136.723557 282.471856 
L 137.217253 301.0307 
L 137.710949 307.198787 
L 138.204645 254.55717 
L 138.698341 218.694931 
L 139.192037 220.82374 
L 139.685733 227.646845 
L 140.179429 304.742469 
L 140.673125 310.342874 
L 141.166821 312.362513 
L 141.660518 294.818946 
L 142.154214 258.956708 
L 142.64791 255.998209 
L 143.141606 259.63356 
L 143.635302 270.321271 
L 144.128998 245.441502 
L 144.622694 214.699321 
L 145.11639 224.950354 
L 145.610086 214.382729 
L 146.103782 211.948245 
L 146.597478 212.188419 
L 147.091175 339.556679 
L 147.584871 335.561069 
L 148.078567 314.829747 
L 148.572263 304.720635 
L 149.065959 217.679653 
L 149.559655 197.865357 
L 150.053351 214.131639 
L 150.547047 218.476592 
L 151.040743 217.821574 
L 151.534439 197.526931 
L 152.028135 211.86091 
L 152.521831 282.897617 
L 153.015528 315.321011 
L 153.509224 305.080895 
L 154.00292 313.814469 
L 154.496616 266.849675 
L 154.990312 239.950267 
L 155.484008 239.972101 
L 155.977704 238.203552 
L 156.4714 225.714542 
L 156.965096 223.59665 
L 157.458792 220.485314 
L 157.952488 239.895682 
L 158.446184 234.677372 
L 158.939881 234.175191 
L 159.433577 233.902267 
L 159.927273 219.24078 
L 160.420969 310.386542 
L 160.914665 316.238036 
L 161.408361 315.932361 
L 161.902057 239.044159 
L 162.395753 212.352173 
L 162.889449 221.282253 
L 163.383145 195.649213 
L 163.876841 193.640491 
L 164.370537 187.996419 
L 164.864234 190.157978 
L 165.35793 191.020419 
L 165.851626 190.605574 
L 166.345322 202.799827 
L 166.839018 189.994224 
L 167.332714 223.563899 
L 167.82641 204.317285 
L 168.813802 191.009502 
L 169.307498 192.494209 
L 169.801194 192.264953 
L 170.294891 200.62735 
L 170.788587 193.553155 
L 171.282283 194.448347 
L 171.775979 193.302065 
L 172.269675 188.78244 
L 172.763371 187.930917 
L 173.257067 183.138368 
L 174.244459 182.636188 
L 174.738155 185.441848 
L 175.231851 180.954975 
L 175.725547 162.003119 
L 176.219244 166.042397 
L 176.71294 182.352347 
L 177.206636 171.195206 
L 177.700332 181.631827 
L 178.687724 181.173314 
L 179.18142 152.614527 
L 179.675116 159.852477 
L 180.168812 183.662383 
L 180.662508 186.358874 
L 181.156204 179.983365 
L 181.6499 177.232289 
L 182.143597 178.924419 
L 182.637293 181.107812 
L 183.130989 176.893863 
L 184.118381 145.584 
L 184.612077 154.022816 
L 185.105773 150.125458 
L 185.599469 141.086209 
L 186.093165 147.068708 
L 186.586861 154.787004 
L 187.080557 155.147264 
L 187.574253 152.8547 
L 188.06795 151.970426 
L 188.561646 153.4333 
L 189.055342 144.514137 
L 189.549038 143.793617 
L 190.042734 154.830671 
L 190.53643 151.031567 
L 191.030126 155.212765 
L 191.523822 149.623278 
L 192.017518 149.601444 
L 192.511214 147.27613 
L 193.00491 145.966094 
L 193.498607 135.103711 
L 193.992303 130.081906 
L 194.485999 131.752202 
L 194.979695 132.756563 
L 195.473391 147.559971 
L 195.967087 156.621054 
L 196.460783 155.038094 
L 196.954479 147.494469 
L 197.448175 146.44644 
L 197.941871 144.241213 
L 198.435567 141.11896 
L 198.929263 139.579668 
L 199.42296 140.431191 
L 199.916656 135.507639 
L 200.410352 129.306801 
L 200.904048 139.907177 
L 201.397744 142.09057 
L 201.89144 130.82426 
L 202.385136 144.623307 
L 202.878832 165.190874 
L 203.372528 150.616722 
L 204.853616 146.097097 
L 205.347313 146.184433 
L 206.828401 144.61239 
L 207.322097 145.321993 
L 207.815793 138.717227 
L 208.309489 142.428996 
L 209.296881 132.723812 
L 209.790577 131.817704 
L 210.284273 133.062238 
L 210.777969 149.656029 
L 211.271666 154.088318 
L 211.765362 130.464 
L 212.259058 135.485805 
L 212.752754 135.68231 
L 213.24645 137.188852 
L 213.740146 141.861314 
L 214.233842 137.800202 
L 214.727538 138.45522 
L 215.71493 135.245632 
L 216.208626 144.961733 
L 216.702322 148.935509 
L 217.196019 166.544578 
L 217.689715 149.546859 
L 218.183411 148.96826 
L 218.677107 153.225877 
L 219.170803 147.156043 
L 219.664499 151.391827 
L 220.158195 141.763061 
L 220.651891 137.429025 
L 221.145587 136.140823 
L 221.639283 132.385386 
L 222.132979 132.40722 
L 222.626676 132.079711 
L 223.120372 132.177964 
L 224.107764 133.149574 
L 224.60146 133.01857 
L 225.095156 132.723812 
L 226.082548 132.996736 
L 226.576244 132.65831 
L 227.06994 131.064433 
L 227.563636 132.778397 
L 228.057332 131.970542 
L 228.551029 130.464 
L 229.044725 133.608087 
L 229.538421 134.219437 
L 230.032117 133.215076 
L 230.525813 134.983625 
L 231.019509 145.94426 
L 231.513205 137.210686 
L 232.006901 150.638556 
L 232.500597 149.481357 
L 232.994293 153.160375 
L 233.487989 131.959625 
L 233.981685 140.878787 
L 234.475382 152.014094 
L 234.969078 149.950787 
L 235.462774 144.656058 
L 235.95647 149.164765 
L 236.450166 154.743336 
L 236.943862 149.852534 
L 237.437558 155.813199 
L 237.931254 177.439711 
L 238.42495 175.900419 
L 238.918646 139.121155 
L 239.412342 156.511884 
L 239.906038 162.723639 
L 240.399735 164.317516 
L 240.893431 160.34374 
L 241.387127 158.880866 
L 241.880823 154.077401 
L 242.374519 153.149458 
L 242.868215 159.62322 
L 243.361911 154.40491 
L 243.855607 156.195292 
L 244.349303 155.190931 
L 244.842999 156.806643 
L 245.336695 151.555581 
L 245.830392 152.374354 
L 246.817784 158.302267 
L 247.31148 153.837227 
L 247.805176 156.85031 
L 248.298872 156.173458 
L 248.792568 157.374325 
L 249.286264 157.123235 
L 249.77996 160.900505 
L 250.273656 157.920173 
L 250.767352 164.208347 
L 251.261048 151.129819 
L 251.754745 152.614527 
L 252.248441 156.795726 
L 252.742137 169.546744 
L 253.235833 159.786975 
L 253.729529 155.321935 
L 254.223225 192.537877 
L 254.716921 210.343451 
L 255.210617 189.055365 
L 255.704313 181.064144 
L 256.198009 155.671278 
L 256.691705 194.644852 
L 257.185401 188.946195 
L 257.679098 189.273704 
L 258.172794 182.144924 
L 259.160186 159.252043 
L 259.653882 189.382874 
L 260.147578 190.780245 
L 260.641274 183.935307 
L 261.13497 221.511509 
L 261.628666 218.98969 
L 262.616058 201.511625 
L 263.109754 203.487596 
L 263.603451 223.814989 
L 264.097147 234.884794 
L 264.590843 232.144635 
L 265.084539 222.635957 
L 265.578235 229.349892 
L 266.071931 213.749545 
L 266.565627 213.80413 
L 267.059323 215.234253 
L 267.553019 210.791047 
L 268.046715 243.127105 
L 268.540411 230.135913 
L 269.034107 232.515812 
L 269.527804 232.395726 
L 270.0215 335.146224 
L 270.515196 327.406094 
L 271.008892 239.983018 
L 271.502588 237.308361 
L 271.996284 237.308361 
L 272.48998 243.192606 
L 272.983676 240.5507 
L 273.477372 232.384809 
L 273.971068 234.415365 
L 274.464764 219.917632 
L 274.958461 228.159942 
L 275.452157 249.950209 
L 275.945853 249.535365 
L 276.439549 220.638152 
L 276.933245 217.373978 
L 277.426941 239.164245 
L 277.920637 241.686065 
L 278.414333 245.758094 
L 278.908029 219.590123 
L 279.895421 263.956679 
L 280.389117 257.744924 
L 280.882814 241.696982 
L 281.37651 237.821458 
L 281.870206 230.387004 
L 282.363902 246.336693 
L 282.857598 239.273415 
L 283.351294 218.476592 
L 284.338686 307.515379 
L 284.832382 270.53961 
L 285.326078 250.332303 
L 285.819774 223.367394 
L 286.31347 224.022412 
L 286.807167 219.568289 
L 287.300863 301.216289 
L 288.288255 307.329791 
L 288.781951 243.880375 
L 289.275647 285.725112 
L 289.769343 259.764563 
L 290.263039 249.655451 
L 290.756735 242.581256 
L 291.250431 246.052852 
L 291.744127 244.895653 
L 292.237823 255.801704 
L 292.73152 230.911018 
L 294.212608 308.748996 
L 294.706304 291.292765 
L 295.2 253.159798 
L 295.693696 259.327884 
L 296.187392 267.930455 
L 296.681088 272.908592 
L 297.174784 257.83226 
L 298.162177 291.063509 
L 298.655873 270.157516 
L 299.149569 259.142296 
L 299.643265 252.319191 
L 300.136961 291.620274 
L 300.630657 254.80826 
L 301.124353 245.703509 
L 301.618049 259.88465 
L 302.111745 245.463336 
L 302.605441 251.926181 
L 303.099137 254.022238 
L 304.08653 284.415076 
L 304.580226 311.500072 
L 305.567618 247.406556 
L 306.061314 253.705646 
L 306.55501 253.47639 
L 307.048706 231.467783 
L 307.542402 236.260332 
L 308.036098 238.520144 
L 308.529794 308.257733 
L 309.02349 307.264289 
L 309.517186 310.801386 
L 310.010883 276.281935 
L 310.504579 270.528693 
L 310.998275 255.572448 
L 311.491971 224.513675 
L 311.985667 296.118065 
L 312.479363 292.373545 
L 312.973059 277.657473 
L 313.466755 274.273213 
L 313.960451 236.991769 
L 314.454147 230.714513 
L 314.947843 263.094238 
L 315.441539 312.482599 
L 315.935236 268.454469 
L 316.428932 312.286094 
L 316.922628 289.142123 
L 317.91002 221.970022 
L 318.403716 224.306253 
L 318.897412 312.526267 
L 319.391108 312.438931 
L 319.884804 314.45857 
L 320.3785 298.497964 
L 320.872196 276.325603 
L 321.365893 224.240751 
L 321.859589 220.201473 
L 322.353285 303.159509 
L 322.846981 314.480404 
L 323.340677 268.618224 
L 323.834373 260.081155 
L 324.328069 220.288809 
L 324.821765 208.018137 
L 325.315461 230.714513 
L 325.809157 215.791018 
L 326.302853 238.345473 
L 327.290246 243.312693 
L 327.783942 241.620563 
L 328.277638 240.725372 
L 328.771334 242.046325 
L 329.26503 211.424231 
L 329.758726 214.830325 
L 330.252422 199.240895 
L 330.746118 196.435235 
L 331.239814 222.330282 
L 331.73351 220.277892 
L 332.227206 206.129502 
L 333.214599 190.736578 
L 333.708295 210.725545 
L 334.201991 225.135942 
L 334.695687 235.659899 
L 335.189383 208.640404 
L 335.683079 191.41343 
L 336.176775 190.900332 
L 336.670471 188.64052 
L 337.164167 188.258426 
L 337.657863 188.607769 
L 338.151559 217.865242 
L 338.645255 210.387119 
L 339.138952 187.112144 
L 339.632648 199.098975 
L 340.126344 184.983336 
L 340.62004 199.273646 
L 341.113736 227.48309 
L 341.607432 231.729791 
L 343.08852 186.216953 
L 343.582216 186.031365 
L 344.075912 193.924332 
L 344.569608 197.385011 
L 345.063305 178.968087 
L 345.557001 178.59691 
L 346.050697 211.413314 
L 346.544393 219.153444 
L 347.038089 213.247365 
L 347.531785 202.996332 
L 348.025481 184.437487 
L 348.519177 190.529155 
L 349.012873 165.791307 
L 349.506569 166.50091 
L 350.000265 155.813199 
L 350.493962 153.597054 
L 350.987658 154.252072 
L 351.481354 159.546801 
L 351.97505 182.286845 
L 352.468746 181.98117 
L 352.962442 160.256404 
L 353.456138 154.383076 
L 353.949834 178.029227 
L 354.44353 161.817531 
L 354.937226 157.090484 
L 355.430922 150.234628 
L 355.924618 150.76956 
L 356.418315 158.138513 
L 356.912011 160.736751 
L 357.405707 159.000953 
L 357.899403 178.979004 
L 358.393099 183.695134 
L 358.886795 183.411292 
L 359.380491 181.031394 
L 359.874187 174.404794 
L 360.367883 164.415769 
L 360.861579 166.260736 
L 361.355275 161.67561 
L 361.848971 160.201819 
L 362.342668 160.005314 
L 362.836364 156.424549 
L 363.33006 151.948592 
L 363.823756 151.981343 
L 364.317452 155.704029 
L 364.811148 156.839394 
L 365.304844 152.723697 
L 365.79854 161.839365 
L 366.292236 161.380852 
L 366.785932 170.234513 
L 367.279628 157.963841 
L 367.773324 148.902758 
L 368.267021 178.345819 
L 368.760717 167.810946 
L 369.254413 172.712664 
L 369.748109 180.114368 
L 370.241805 164.874282 
L 370.735501 157.592664 
L 371.229197 153.68439 
L 371.722893 153.607971 
L 372.216589 149.011928 
L 372.710285 142.45083 
L 373.203981 137.37444 
L 374.191374 154.808838 
L 374.68507 175.965921 
L 375.178766 165.016202 
L 375.672462 162.625386 
L 376.166158 152.8547 
L 377.15355 161.075177 
L 377.647246 154.077401 
L 378.140942 150.529386 
L 378.634638 156.522801 
L 379.622031 149.459523 
L 380.115727 145.070903 
L 380.609423 146.970455 
L 381.103119 151.086152 
L 381.596815 158.837199 
L 382.090511 161.490022 
L 382.584207 162.428881 
L 383.077903 166.915755 
L 383.571599 141.992318 
L 384.065295 154.568664 
L 384.558991 149.885285 
L 385.052687 149.197516 
L 385.546384 147.931148 
L 386.04008 139.514166 
L 386.533776 136.784924 
L 387.027472 137.112433 
L 387.521168 135.332968 
L 388.014864 145.594917 
L 388.50856 136.162657 
L 389.002256 135.769646 
L 389.989648 130.365747 
L 390.483344 130.485834 
L 391.470737 139.42683 
L 391.964433 137.134267 
L 392.458129 139.961762 
L 392.951825 154.448578 
L 393.445521 158.116679 
L 393.939217 148.302325 
L 394.432913 148.378744 
L 394.926609 151.228072 
L 395.420305 149.208433 
L 395.914001 136.566585 
L 396.407697 149.43769 
L 396.901393 169.208318 
L 397.39509 166.970339 
L 397.888786 168.040202 
L 398.382482 167.931032 
L 398.876178 161.031509 
L 399.369874 155.867783 
L 399.86357 160.518412 
L 400.357266 148.575249 
L 400.850962 146.064347 
L 401.838354 144.208462 
L 402.33205 156.315379 
L 402.825747 145.813256 
L 403.319443 146.380939 
L 403.813139 153.498801 
L 404.306835 150.878729 
L 404.800531 146.55561 
L 405.294227 144.437718 
L 405.787923 145.802339 
L 406.281619 145.496664 
L 406.775315 144.219379 
L 407.269011 141.271798 
L 407.762707 143.706282 
L 408.256403 144.699726 
L 408.7501 132.2653 
L 409.243796 138.575307 
L 409.737492 136.479249 
L 410.231188 151.326325 
L 410.724884 139.383162 
L 411.21858 132.920318 
L 411.712276 134.732534 
L 412.205972 139.317661 
L 413.193364 132.40722 
L 413.68706 149.634195 
L 414.180756 131.042599 
L 414.674453 147.461718 
L 415.168149 148.520664 
L 415.661845 166.675581 
L 416.155541 168.498715 
L 417.142933 161.795697 
L 417.636629 160.922339 
L 418.130325 130.169242 
L 418.624021 130.016404 
L 419.117717 135.136462 
L 419.611413 132.287134 
L 420.105109 135.660477 
L 420.598806 134.536029 
L 421.092502 146.795783 
L 421.586198 134.961791 
L 422.57359 148.444245 
L 423.067286 143.42244 
L 423.560982 141.741227 
L 424.054678 144.75431 
L 424.548374 149.263018 
L 425.04207 137.167018 
L 425.535766 131.512029 
L 426.029463 136.26091 
L 426.523159 132.985819 
L 427.510551 147.319798 
L 428.004247 143.597112 
L 428.497943 134.56878 
L 428.991639 133.619004 
L 429.485335 132.942152 
L 429.979031 147.330715 
L 430.472727 132.319884 
L 430.966423 151.828505 
L 431.460119 155.37652 
L 431.953816 151.042484 
L 432.447512 149.32852 
L 432.941208 136.653921 
L 433.434904 140.813285 
L 433.9286 141.11896 
L 434.422296 139.077487 
L 434.915992 135.016375 
L 435.409688 137.942123 
L 435.903384 141.69756 
L 436.39708 159.590469 
L 436.890776 158.029343 
L 437.384472 150.19096 
L 437.878169 146.326354 
L 438.371865 143.859119 
L 438.865561 151.653834 
L 439.359257 164.634108 
L 439.852953 154.950758 
L 440.346649 150.518469 
L 440.840345 164.44852 
L 441.334041 182.374181 
L 441.827737 179.786859 
L 442.321433 176.271596 
L 442.815129 174.644968 
L 443.308825 153.695307 
L 443.802522 147.27613 
L 444.296218 152.920202 
L 444.789914 148.389661 
L 445.28361 148.487913 
L 445.777306 154.317574 
L 446.271002 153.335047 
L 446.764698 166.249819 
L 447.258394 161.468188 
L 447.75209 155.180014 
L 448.245786 154.699668 
L 449.233179 151.806671 
L 449.726875 153.466051 
L 450.220571 153.68439 
L 450.714267 153.597054 
L 451.207963 154.634166 
L 451.701659 153.160375 
L 452.195355 179.917863 
L 452.689051 180.114368 
L 453.182747 166.380823 
L 453.676443 179.197343 
L 454.170139 177.98556 
L 454.663835 177.920058 
L 455.157532 181.216982 
L 455.651228 180.398209 
L 456.144924 180.048866 
L 456.63862 181.959336 
L 457.626012 201.882801 
L 458.119708 203.323841 
L 458.613404 205.943913 
L 459.1071 202.472318 
L 459.600796 202.341314 
L 460.588188 165.682137 
L 461.081885 185.660188 
L 461.575581 170.310931 
L 462.069277 172.396072 
L 462.562973 204.339119 
L 463.056669 227.723264 
L 463.550365 222.133776 
L 464.044061 224.579177 
L 464.537757 217.614152 
L 465.031453 220.037718 
L 465.525149 218.465675 
L 466.018845 193.935249 
L 466.512541 224.852101 
L 467.006238 227.941603 
L 467.99363 208.422065 
L 468.487326 241.500477 
L 468.981022 228.651206 
L 469.474718 232.81057 
L 469.968414 220.780072 
L 470.46211 223.301892 
L 471.449502 195.616462 
L 471.943198 219.164361 
L 472.436894 219.49187 
L 472.930591 215.114166 
L 473.424287 214.786657 
L 473.917983 218.389256 
L 474.411679 215.714599 
L 474.905375 216.729877 
L 475.399071 235.812736 
L 475.892767 240.921877 
L 476.386463 233.334585 
L 476.880159 235.987408 
L 477.373855 306.947697 
L 477.867551 285.288433 
L 478.361248 291.620274 
L 478.854944 302.94117 
L 479.34864 329.79691 
L 479.842336 300.856029 
L 480.336032 281.849588 
L 480.829728 238.028881 
L 481.323424 243.531032 
L 482.310816 259.207798 
L 482.804512 246.183856 
L 483.298208 250.419639 
L 483.791904 229.590065 
L 484.779297 299.578744 
L 485.272993 259.229632 
L 485.766689 243.520116 
L 486.260385 240.332361 
L 486.754081 246.948043 
L 487.247777 250.244968 
L 487.741473 252.384693 
L 488.235169 253.159798 
L 488.728865 255.332274 
L 489.222561 256.926152 
L 489.716257 238.771235 
L 490.209954 259.917401 
L 490.70365 254.666339 
L 491.197346 259.011292 
L 491.691042 302.963004 
L 492.184738 302.58091 
L 492.678434 286.074455 
L 493.17213 264.7427 
L 493.665826 304.655134 
L 494.159522 288.519856 
L 494.653218 221.620679 
L 495.146914 221.271336 
L 495.64061 210.234282 
L 496.134307 211.806325 
L 496.134307 211.806325 
" clip-path="url(#pe164547057)" style="fill: none; stroke: #ff7f0e; stroke-width: 1.5; stroke-linecap: round"/>
   </g>
   <g id="patch_3">
    <path d="M 72 384.48 
L 72 51.84 
" style="fill: none; stroke: #ffffff; stroke-width: 0.8; stroke-linejoin: miter; stroke-linecap: square"/>
   </g>
   <g id="patch_4">
    <path d="M 518.4 384.48 
L 518.4 51.84 
" style="fill: none; stroke: #ffffff; stroke-width: 0.8; stroke-linejoin: miter; stroke-linecap: square"/>
   </g>
   <g id="patch_5">
    <path d="M 72 384.48 
L 518.4 384.48 
" style="fill: none; stroke: #ffffff; stroke-width: 0.8; stroke-linejoin: miter; stroke-linecap: square"/>
   </g>
   <g id="patch_6">
    <path d="M 72 51.84 
L 518.4 51.84 
" style="fill: none; stroke: #ffffff; stroke-width: 0.8; stroke-linejoin: miter; stroke-linecap: square"/>
   </g>
   <g id="text_14">
    <!-- Minimum Temperature Prediction 35 Days Ahead -->
    <g style="fill: #262626" transform="translate(164.920312 45.84) scale(0.12 -0.12)">
     <defs>
      <path id="ArialMT-4d" d="M 475 0 
L 475 4581 
L 1388 4581 
L 2472 1338 
Q 2622 884 2691 659 
Q 2769 909 2934 1394 
L 4031 4581 
L 4847 4581 
L 4847 0 
L 4263 0 
L 4263 3834 
L 2931 0 
L 2384 0 
L 1059 3900 
L 1059 0 
L 475 0 
z
" transform="scale(0.015625)"/>
      <path id="ArialMT-69" d="M 425 3934 
L 425 4581 
L 988 4581 
L 988 3934 
L 425 3934 
z
M 425 0 
L 425 3319 
L 988 3319 
L 988 0 
L 425 0 
z
" transform="scale(0.015625)"/>
      <path id="ArialMT-6e" d="M 422 0 
L 422 3319 
L 928 3319 
L 928 2847 
Q 1294 3394 1984 3394 
Q 2284 3394 2536 3286 
Q 2788 3178 2913 3003 
Q 3038 2828 3088 2588 
Q 3119 2431 3119 2041 
L 3119 0 
L 2556 0 
L 2556 2019 
Q 2556 2363 2490 2533 
Q 2425 2703 2258 2804 
Q 2091 2906 1866 2906 
Q 1506 2906 1245 2678 
Q 984 2450 984 1813 
L 984 0 
L 422 0 
z
" transform="scale(0.015625)"/>
      <path id="ArialMT-6d" d="M 422 0 
L 422 3319 
L 925 3319 
L 925 2853 
Q 1081 3097 1340 3245 
Q 1600 3394 1931 3394 
Q 2300 3394 2536 3241 
Q 2772 3088 2869 2813 
Q 3263 3394 3894 3394 
Q 4388 3394 4653 3120 
Q 4919 2847 4919 2278 
L 4919 0 
L 4359 0 
L 4359 2091 
Q 4359 2428 4304 2576 
Q 4250 2725 4106 2815 
Q 3963 2906 3769 2906 
Q 3419 2906 3187 2673 
Q 2956 2441 2956 1928 
L 2956 0 
L 2394 0 
L 2394 2156 
Q 2394 2531 2256 2718 
Q 2119 2906 1806 2906 
Q 1569 2906 1367 2781 
Q 1166 2656 1075 2415 
Q 984 2175 984 1722 
L 984 0 
L 422 0 
z
" transform="scale(0.015625)"/>
      <path id="ArialMT-75" d="M 2597 0 
L 2597 488 
Q 2209 -75 1544 -75 
Q 1250 -75 995 37 
Q 741 150 617 320 
Q 494 491 444 738 
Q 409 903 409 1263 
L 409 3319 
L 972 3319 
L 972 1478 
Q 972 1038 1006 884 
Q 1059 663 1231 536 
Q 1403 409 1656 409 
Q 1909 409 2131 539 
Q 2353 669 2445 892 
Q 2538 1116 2538 1541 
L 2538 3319 
L 3100 3319 
L 3100 0 
L 2597 0 
z
" transform="scale(0.015625)"/>
      <path id="ArialMT-20" transform="scale(0.015625)"/>
      <path id="ArialMT-54" d="M 1659 0 
L 1659 4041 
L 150 4041 
L 150 4581 
L 3781 4581 
L 3781 4041 
L 2266 4041 
L 2266 0 
L 1659 0 
z
" transform="scale(0.015625)"/>
      <path id="ArialMT-65" d="M 2694 1069 
L 3275 997 
Q 3138 488 2766 206 
Q 2394 -75 1816 -75 
Q 1088 -75 661 373 
Q 234 822 234 1631 
Q 234 2469 665 2931 
Q 1097 3394 1784 3394 
Q 2450 3394 2872 2941 
Q 3294 2488 3294 1666 
Q 3294 1616 3291 1516 
L 816 1516 
Q 847 969 1125 678 
Q 1403 388 1819 388 
Q 2128 388 2347 550 
Q 2566 713 2694 1069 
z
M 847 1978 
L 2700 1978 
Q 2663 2397 2488 2606 
Q 2219 2931 1791 2931 
Q 1403 2931 1139 2672 
Q 875 2413 847 1978 
z
" transform="scale(0.015625)"/>
      <path id="ArialMT-70" d="M 422 -1272 
L 422 3319 
L 934 3319 
L 934 2888 
Q 1116 3141 1344 3267 
Q 1572 3394 1897 3394 
Q 2322 3394 2647 3175 
Q 2972 2956 3137 2557 
Q 3303 2159 3303 1684 
Q 3303 1175 3120 767 
Q 2938 359 2589 142 
Q 2241 -75 1856 -75 
Q 1575 -75 1351 44 
Q 1128 163 984 344 
L 984 -1272 
L 422 -1272 
z
M 931 1641 
Q 931 1000 1190 694 
Q 1450 388 1819 388 
Q 2194 388 2461 705 
Q 2728 1022 2728 1688 
Q 2728 2322 2467 2637 
Q 2206 2953 1844 2953 
Q 1484 2953 1207 2617 
Q 931 2281 931 1641 
z
" transform="scale(0.015625)"/>
      <path id="ArialMT-72" d="M 416 0 
L 416 3319 
L 922 3319 
L 922 2816 
Q 1116 3169 1280 3281 
Q 1444 3394 1641 3394 
Q 1925 3394 2219 3213 
L 2025 2691 
Q 1819 2813 1613 2813 
Q 1428 2813 1281 2702 
Q 1134 2591 1072 2394 
Q 978 2094 978 1738 
L 978 0 
L 416 0 
z
" transform="scale(0.015625)"/>
      <path id="ArialMT-74" d="M 1650 503 
L 1731 6 
Q 1494 -44 1306 -44 
Q 1000 -44 831 53 
Q 663 150 594 308 
Q 525 466 525 972 
L 525 2881 
L 113 2881 
L 113 3319 
L 525 3319 
L 525 4141 
L 1084 4478 
L 1084 3319 
L 1650 3319 
L 1650 2881 
L 1084 2881 
L 1084 941 
Q 1084 700 1114 631 
Q 1144 563 1211 522 
Q 1278 481 1403 481 
Q 1497 481 1650 503 
z
" transform="scale(0.015625)"/>
      <path id="ArialMT-50" d="M 494 0 
L 494 4581 
L 2222 4581 
Q 2678 4581 2919 4538 
Q 3256 4481 3484 4323 
Q 3713 4166 3852 3881 
Q 3991 3597 3991 3256 
Q 3991 2672 3619 2267 
Q 3247 1863 2275 1863 
L 1100 1863 
L 1100 0 
L 494 0 
z
M 1100 2403 
L 2284 2403 
Q 2872 2403 3119 2622 
Q 3366 2841 3366 3238 
Q 3366 3525 3220 3729 
Q 3075 3934 2838 4000 
Q 2684 4041 2272 4041 
L 1100 4041 
L 1100 2403 
z
" transform="scale(0.015625)"/>
      <path id="ArialMT-64" d="M 2575 0 
L 2575 419 
Q 2259 -75 1647 -75 
Q 1250 -75 917 144 
Q 584 363 401 755 
Q 219 1147 219 1656 
Q 219 2153 384 2558 
Q 550 2963 881 3178 
Q 1213 3394 1622 3394 
Q 1922 3394 2156 3267 
Q 2391 3141 2538 2938 
L 2538 4581 
L 3097 4581 
L 3097 0 
L 2575 0 
z
M 797 1656 
Q 797 1019 1065 703 
Q 1334 388 1700 388 
Q 2069 388 2326 689 
Q 2584 991 2584 1609 
Q 2584 2291 2321 2609 
Q 2059 2928 1675 2928 
Q 1300 2928 1048 2622 
Q 797 2316 797 1656 
z
" transform="scale(0.015625)"/>
      <path id="ArialMT-63" d="M 2588 1216 
L 3141 1144 
Q 3050 572 2676 248 
Q 2303 -75 1759 -75 
Q 1078 -75 664 370 
Q 250 816 250 1647 
Q 250 2184 428 2587 
Q 606 2991 970 3192 
Q 1334 3394 1763 3394 
Q 2303 3394 2647 3120 
Q 2991 2847 3088 2344 
L 2541 2259 
Q 2463 2594 2264 2762 
Q 2066 2931 1784 2931 
Q 1359 2931 1093 2626 
Q 828 2322 828 1663 
Q 828 994 1084 691 
Q 1341 388 1753 388 
Q 2084 388 2306 591 
Q 2528 794 2588 1216 
z
" transform="scale(0.015625)"/>
      <path id="ArialMT-6f" d="M 213 1659 
Q 213 2581 725 3025 
Q 1153 3394 1769 3394 
Q 2453 3394 2887 2945 
Q 3322 2497 3322 1706 
Q 3322 1066 3130 698 
Q 2938 331 2570 128 
Q 2203 -75 1769 -75 
Q 1072 -75 642 372 
Q 213 819 213 1659 
z
M 791 1659 
Q 791 1022 1069 705 
Q 1347 388 1769 388 
Q 2188 388 2466 706 
Q 2744 1025 2744 1678 
Q 2744 2294 2464 2611 
Q 2184 2928 1769 2928 
Q 1347 2928 1069 2612 
Q 791 2297 791 1659 
z
" transform="scale(0.015625)"/>
      <path id="ArialMT-41" d="M -9 0 
L 1750 4581 
L 2403 4581 
L 4278 0 
L 3588 0 
L 3053 1388 
L 1138 1388 
L 634 0 
L -9 0 
z
M 1313 1881 
L 2866 1881 
L 2388 3150 
Q 2169 3728 2063 4100 
Q 1975 3659 1816 3225 
L 1313 1881 
z
" transform="scale(0.015625)"/>
      <path id="ArialMT-68" d="M 422 0 
L 422 4581 
L 984 4581 
L 984 2938 
Q 1378 3394 1978 3394 
Q 2347 3394 2619 3248 
Q 2891 3103 3008 2847 
Q 3125 2591 3125 2103 
L 3125 0 
L 2563 0 
L 2563 2103 
Q 2563 2525 2380 2717 
Q 2197 2909 1863 2909 
Q 1613 2909 1392 2779 
Q 1172 2650 1078 2428 
Q 984 2206 984 1816 
L 984 0 
L 422 0 
z
" transform="scale(0.015625)"/>
     </defs>
     <use xlink:href="#ArialMT-4d"/>
     <use xlink:href="#ArialMT-69" x="83.300781"/>
     <use xlink:href="#ArialMT-6e" x="105.517578"/>
     <use xlink:href="#ArialMT-69" x="161.132812"/>
     <use xlink:href="#ArialMT-6d" x="183.349609"/>
     <use xlink:href="#ArialMT-75" x="266.650391"/>
     <use xlink:href="#ArialMT-6d" x="322.265625"/>
     <use xlink:href="#ArialMT-20" x="405.566406"/>
     <use xlink:href="#ArialMT-54" x="431.599609"/>
     <use xlink:href="#ArialMT-65" x="481.558594"/>
     <use xlink:href="#ArialMT-6d" x="537.173828"/>
     <use xlink:href="#ArialMT-70" x="620.474609"/>
     <use xlink:href="#ArialMT-65" x="676.089844"/>
     <use xlink:href="#ArialMT-72" x="731.705078"/>
     <use xlink:href="#ArialMT-61" x="765.005859"/>
     <use xlink:href="#ArialMT-74" x="820.621094"/>
     <use xlink:href="#ArialMT-75" x="848.404297"/>
     <use xlink:href="#ArialMT-72" x="904.019531"/>
     <use xlink:href="#ArialMT-65" x="937.320312"/>
     <use xlink:href="#ArialMT-20" x="992.935547"/>
     <use xlink:href="#ArialMT-50" x="1020.71875"/>
     <use xlink:href="#ArialMT-72" x="1087.417969"/>
     <use xlink:href="#ArialMT-65" x="1120.71875"/>
     <use xlink:href="#ArialMT-64" x="1176.333984"/>
     <use xlink:href="#ArialMT-69" x="1231.949219"/>
     <use xlink:href="#ArialMT-63" x="1254.166016"/>
     <use xlink:href="#ArialMT-74" x="1304.166016"/>
     <use xlink:href="#ArialMT-69" x="1331.949219"/>
     <use xlink:href="#ArialMT-6f" x="1354.166016"/>
     <use xlink:href="#ArialMT-6e" x="1409.78125"/>
     <use xlink:href="#ArialMT-20" x="1465.396484"/>
     <use xlink:href="#ArialMT-33" x="1493.179688"/>
     <use xlink:href="#ArialMT-35" x="1548.794922"/>
     <use xlink:href="#ArialMT-20" x="1604.410156"/>
     <use xlink:href="#ArialMT-44" x="1632.193359"/>
     <use xlink:href="#ArialMT-61" x="1704.410156"/>
     <use xlink:href="#ArialMT-79" x="1760.025391"/>
     <use xlink:href="#ArialMT-73" x="1810.025391"/>
     <use xlink:href="#ArialMT-20" x="1860.025391"/>
     <use xlink:href="#ArialMT-41" x="1882.308594"/>
     <use xlink:href="#ArialMT-68" x="1949.007812"/>
     <use xlink:href="#ArialMT-65" x="2004.623047"/>
     <use xlink:href="#ArialMT-61" x="2060.238281"/>
     <use xlink:href="#ArialMT-64" x="2115.853516"/>
    </g>
   </g>
   <g id="legend_1">
    <g id="patch_7">
     <path d="M 437.15625 88.130625 
L 511.4 88.130625 
Q 513.4 88.130625 513.4 86.130625 
L 513.4 58.84 
Q 513.4 56.84 511.4 56.84 
L 437.15625 56.84 
Q 435.15625 56.84 435.15625 58.84 
L 435.15625 86.130625 
Q 435.15625 88.130625 437.15625 88.130625 
z
" style="fill: #eaeaf2; opacity: 0.8; stroke: #cccccc; stroke-linejoin: miter"/>
    </g>
    <g id="line2d_14">
     <path d="M 439.15625 64.497812 
L 449.15625 64.497812 
L 459.15625 64.497812 
" style="fill: none; stroke: #1f77b4; stroke-width: 1.5; stroke-linecap: round"/>
    </g>
    <g id="text_15">
     <!-- Real -->
     <g style="fill: #262626" transform="translate(467.15625 67.997812) scale(0.1 -0.1)">
      <defs>
       <path id="ArialMT-52" d="M 503 0 
L 503 4581 
L 2534 4581 
Q 3147 4581 3465 4457 
Q 3784 4334 3975 4021 
Q 4166 3709 4166 3331 
Q 4166 2844 3850 2509 
Q 3534 2175 2875 2084 
Q 3116 1969 3241 1856 
Q 3506 1613 3744 1247 
L 4541 0 
L 3778 0 
L 3172 953 
Q 2906 1366 2734 1584 
Q 2563 1803 2427 1890 
Q 2291 1978 2150 2013 
Q 2047 2034 1813 2034 
L 1109 2034 
L 1109 0 
L 503 0 
z
M 1109 2559 
L 2413 2559 
Q 2828 2559 3062 2645 
Q 3297 2731 3419 2920 
Q 3541 3109 3541 3331 
Q 3541 3656 3305 3865 
Q 3069 4075 2559 4075 
L 1109 4075 
L 1109 2559 
z
" transform="scale(0.015625)"/>
       <path id="ArialMT-6c" d="M 409 0 
L 409 4581 
L 972 4581 
L 972 0 
L 409 0 
z
" transform="scale(0.015625)"/>
      </defs>
      <use xlink:href="#ArialMT-52"/>
      <use xlink:href="#ArialMT-65" x="72.216797"/>
      <use xlink:href="#ArialMT-61" x="127.832031"/>
      <use xlink:href="#ArialMT-6c" x="183.447266"/>
     </g>
    </g>
    <g id="line2d_15">
     <path d="M 439.15625 78.643125 
L 449.15625 78.643125 
L 459.15625 78.643125 
" style="fill: none; stroke: #ff7f0e; stroke-width: 1.5; stroke-linecap: round"/>
    </g>
    <g id="text_16">
     <!-- Predicted -->
     <g style="fill: #262626" transform="translate(467.15625 82.143125) scale(0.1 -0.1)">
      <use xlink:href="#ArialMT-50"/>
      <use xlink:href="#ArialMT-72" x="66.699219"/>
      <use xlink:href="#ArialMT-65" x="100"/>
      <use xlink:href="#ArialMT-64" x="155.615234"/>
      <use xlink:href="#ArialMT-69" x="211.230469"/>
      <use xlink:href="#ArialMT-63" x="233.447266"/>
      <use xlink:href="#ArialMT-74" x="283.447266"/>
      <use xlink:href="#ArialMT-65" x="311.230469"/>
      <use xlink:href="#ArialMT-64" x="366.845703"/>
     </g>
    </g>
   </g>
  </g>
 </g>
 <defs>
  <clipPath id="pe164547057">
   <rect x="72" y="51.84" width="446.4" height="332.64"/>
  </clipPath>
 </defs>
</svg>
