<?xml version="1.0" encoding="utf-8" standalone="no"?>
<!DOCTYPE svg PUBLIC "-//W3C//DTD SVG 1.1//EN"
  "http://www.w3.org/Graphics/SVG/1.1/DTD/svg11.dtd">
<svg xmlns:xlink="http://www.w3.org/1999/xlink" width="576pt" height="432pt" viewBox="0 0 576 432" xmlns="http://www.w3.org/2000/svg" version="1.1">
 <metadata>
  <rdf:RDF xmlns:dc="http://purl.org/dc/elements/1.1/" xmlns:cc="http://creativecommons.org/ns#" xmlns:rdf="http://www.w3.org/1999/02/22-rdf-syntax-ns#">
   <cc:Work>
    <dc:type rdf:resource="http://purl.org/dc/dcmitype/StillImage"/>
    <dc:date>2023-11-17T05:04:54.891478</dc:date>
    <dc:format>image/svg+xml</dc:format>
    <dc:creator>
     <cc:Agent>
      <dc:title>Matplotlib v3.8.0, https://matplotlib.org/</dc:title>
     </cc:Agent>
    </dc:creator>
   </cc:Work>
  </rdf:RDF>
 </metadata>
 <defs>
  <style type="text/css">*{stroke-linejoin: round; stroke-linecap: butt}</style>
 </defs>
 <g id="figure_1">
  <g id="patch_1">
   <path d="M 0 432 
L 576 432 
L 576 0 
L 0 0 
z
" style="fill: #ffffff"/>
  </g>
  <g id="axes_1">
   <g id="patch_2">
    <path d="M 72 384.48 
L 518.4 384.48 
L 518.4 51.84 
L 72 51.84 
z
" style="fill: #eaeaf2"/>
   </g>
   <g id="matplotlib.axis_1">
    <g id="xtick_1">
     <g id="line2d_1">
      <path d="M 92.290909 384.48 
L 92.290909 51.84 
" clip-path="url(#p56d59c98a6)" style="fill: none; stroke: #ffffff; stroke-width: 0.8; stroke-linecap: round"/>
     </g>
     <g id="text_1">
      <!-- 0 -->
      <g style="fill: #262626" transform="translate(89.51044 398.637812) scale(0.1 -0.1)">
       <defs>
        <path id="ArialMT-30" d="M 266 2259 
Q 266 3072 433 3567 
Q 600 4063 929 4331 
Q 1259 4600 1759 4600 
Q 2128 4600 2406 4451 
Q 2684 4303 2865 4023 
Q 3047 3744 3150 3342 
Q 3253 2941 3253 2259 
Q 3253 1453 3087 958 
Q 2922 463 2592 192 
Q 2263 -78 1759 -78 
Q 1097 -78 719 397 
Q 266 969 266 2259 
z
M 844 2259 
Q 844 1131 1108 757 
Q 1372 384 1759 384 
Q 2147 384 2411 759 
Q 2675 1134 2675 2259 
Q 2675 3391 2411 3762 
Q 2147 4134 1753 4134 
Q 1366 4134 1134 3806 
Q 844 3388 844 2259 
z
" transform="scale(0.015625)"/>
       </defs>
       <use xlink:href="#ArialMT-30"/>
      </g>
     </g>
    </g>
    <g id="xtick_2">
     <g id="line2d_2">
      <path d="M 185.049351 384.48 
L 185.049351 51.84 
" clip-path="url(#p56d59c98a6)" style="fill: none; stroke: #ffffff; stroke-width: 0.8; stroke-linecap: round"/>
     </g>
     <g id="text_2">
      <!-- 200 -->
      <g style="fill: #262626" transform="translate(176.707944 398.637812) scale(0.1 -0.1)">
       <defs>
        <path id="ArialMT-32" d="M 3222 541 
L 3222 0 
L 194 0 
Q 188 203 259 391 
Q 375 700 629 1000 
Q 884 1300 1366 1694 
Q 2113 2306 2375 2664 
Q 2638 3022 2638 3341 
Q 2638 3675 2398 3904 
Q 2159 4134 1775 4134 
Q 1369 4134 1125 3890 
Q 881 3647 878 3216 
L 300 3275 
Q 359 3922 746 4261 
Q 1134 4600 1788 4600 
Q 2447 4600 2831 4234 
Q 3216 3869 3216 3328 
Q 3216 3053 3103 2787 
Q 2991 2522 2730 2228 
Q 2469 1934 1863 1422 
Q 1356 997 1212 845 
Q 1069 694 975 541 
L 3222 541 
z
" transform="scale(0.015625)"/>
       </defs>
       <use xlink:href="#ArialMT-32"/>
       <use xlink:href="#ArialMT-30" x="55.615234"/>
       <use xlink:href="#ArialMT-30" x="111.230469"/>
      </g>
     </g>
    </g>
    <g id="xtick_3">
     <g id="line2d_3">
      <path d="M 277.807792 384.48 
L 277.807792 51.84 
" clip-path="url(#p56d59c98a6)" style="fill: none; stroke: #ffffff; stroke-width: 0.8; stroke-linecap: round"/>
     </g>
     <g id="text_3">
      <!-- 400 -->
      <g style="fill: #262626" transform="translate(269.466386 398.637812) scale(0.1 -0.1)">
       <defs>
        <path id="ArialMT-34" d="M 2069 0 
L 2069 1097 
L 81 1097 
L 81 1613 
L 2172 4581 
L 2631 4581 
L 2631 1613 
L 3250 1613 
L 3250 1097 
L 2631 1097 
L 2631 0 
L 2069 0 
z
M 2069 1613 
L 2069 3678 
L 634 1613 
L 2069 1613 
z
" transform="scale(0.015625)"/>
       </defs>
       <use xlink:href="#ArialMT-34"/>
       <use xlink:href="#ArialMT-30" x="55.615234"/>
       <use xlink:href="#ArialMT-30" x="111.230469"/>
      </g>
     </g>
    </g>
    <g id="xtick_4">
     <g id="line2d_4">
      <path d="M 370.566234 384.48 
L 370.566234 51.84 
" clip-path="url(#p56d59c98a6)" style="fill: none; stroke: #ffffff; stroke-width: 0.8; stroke-linecap: round"/>
     </g>
     <g id="text_4">
      <!-- 600 -->
      <g style="fill: #262626" transform="translate(362.224828 398.637812) scale(0.1 -0.1)">
       <defs>
        <path id="ArialMT-36" d="M 3184 3459 
L 2625 3416 
Q 2550 3747 2413 3897 
Q 2184 4138 1850 4138 
Q 1581 4138 1378 3988 
Q 1113 3794 959 3422 
Q 806 3050 800 2363 
Q 1003 2672 1297 2822 
Q 1591 2972 1913 2972 
Q 2475 2972 2870 2558 
Q 3266 2144 3266 1488 
Q 3266 1056 3080 686 
Q 2894 316 2569 119 
Q 2244 -78 1831 -78 
Q 1128 -78 684 439 
Q 241 956 241 2144 
Q 241 3472 731 4075 
Q 1159 4600 1884 4600 
Q 2425 4600 2770 4297 
Q 3116 3994 3184 3459 
z
M 888 1484 
Q 888 1194 1011 928 
Q 1134 663 1356 523 
Q 1578 384 1822 384 
Q 2178 384 2434 671 
Q 2691 959 2691 1453 
Q 2691 1928 2437 2201 
Q 2184 2475 1800 2475 
Q 1419 2475 1153 2201 
Q 888 1928 888 1484 
z
" transform="scale(0.015625)"/>
       </defs>
       <use xlink:href="#ArialMT-36"/>
       <use xlink:href="#ArialMT-30" x="55.615234"/>
       <use xlink:href="#ArialMT-30" x="111.230469"/>
      </g>
     </g>
    </g>
    <g id="xtick_5">
     <g id="line2d_5">
      <path d="M 463.324675 384.48 
L 463.324675 51.84 
" clip-path="url(#p56d59c98a6)" style="fill: none; stroke: #ffffff; stroke-width: 0.8; stroke-linecap: round"/>
     </g>
     <g id="text_5">
      <!-- 800 -->
      <g style="fill: #262626" transform="translate(454.983269 398.637812) scale(0.1 -0.1)">
       <defs>
        <path id="ArialMT-38" d="M 1131 2484 
Q 781 2613 612 2850 
Q 444 3088 444 3419 
Q 444 3919 803 4259 
Q 1163 4600 1759 4600 
Q 2359 4600 2725 4251 
Q 3091 3903 3091 3403 
Q 3091 3084 2923 2848 
Q 2756 2613 2416 2484 
Q 2838 2347 3058 2040 
Q 3278 1734 3278 1309 
Q 3278 722 2862 322 
Q 2447 -78 1769 -78 
Q 1091 -78 675 323 
Q 259 725 259 1325 
Q 259 1772 486 2073 
Q 713 2375 1131 2484 
z
M 1019 3438 
Q 1019 3113 1228 2906 
Q 1438 2700 1772 2700 
Q 2097 2700 2305 2904 
Q 2513 3109 2513 3406 
Q 2513 3716 2298 3927 
Q 2084 4138 1766 4138 
Q 1444 4138 1231 3931 
Q 1019 3725 1019 3438 
z
M 838 1322 
Q 838 1081 952 856 
Q 1066 631 1291 507 
Q 1516 384 1775 384 
Q 2178 384 2440 643 
Q 2703 903 2703 1303 
Q 2703 1709 2433 1975 
Q 2163 2241 1756 2241 
Q 1359 2241 1098 1978 
Q 838 1716 838 1322 
z
" transform="scale(0.015625)"/>
       </defs>
       <use xlink:href="#ArialMT-38"/>
       <use xlink:href="#ArialMT-30" x="55.615234"/>
       <use xlink:href="#ArialMT-30" x="111.230469"/>
      </g>
     </g>
    </g>
    <g id="text_6">
     <!-- Days -->
     <g style="fill: #262626" transform="translate(283.808594 411.783125) scale(0.1 -0.1)">
      <defs>
       <path id="ArialMT-44" d="M 494 0 
L 494 4581 
L 2072 4581 
Q 2606 4581 2888 4516 
Q 3281 4425 3559 4188 
Q 3922 3881 4101 3404 
Q 4281 2928 4281 2316 
Q 4281 1794 4159 1391 
Q 4038 988 3847 723 
Q 3656 459 3429 307 
Q 3203 156 2883 78 
Q 2563 0 2147 0 
L 494 0 
z
M 1100 541 
L 2078 541 
Q 2531 541 2789 625 
Q 3047 709 3200 863 
Q 3416 1078 3536 1442 
Q 3656 1806 3656 2325 
Q 3656 3044 3420 3430 
Q 3184 3816 2847 3947 
Q 2603 4041 2063 4041 
L 1100 4041 
L 1100 541 
z
" transform="scale(0.015625)"/>
       <path id="ArialMT-61" d="M 2588 409 
Q 2275 144 1986 34 
Q 1697 -75 1366 -75 
Q 819 -75 525 192 
Q 231 459 231 875 
Q 231 1119 342 1320 
Q 453 1522 633 1644 
Q 813 1766 1038 1828 
Q 1203 1872 1538 1913 
Q 2219 1994 2541 2106 
Q 2544 2222 2544 2253 
Q 2544 2597 2384 2738 
Q 2169 2928 1744 2928 
Q 1347 2928 1158 2789 
Q 969 2650 878 2297 
L 328 2372 
Q 403 2725 575 2942 
Q 747 3159 1072 3276 
Q 1397 3394 1825 3394 
Q 2250 3394 2515 3294 
Q 2781 3194 2906 3042 
Q 3031 2891 3081 2659 
Q 3109 2516 3109 2141 
L 3109 1391 
Q 3109 606 3145 398 
Q 3181 191 3288 0 
L 2700 0 
Q 2613 175 2588 409 
z
M 2541 1666 
Q 2234 1541 1622 1453 
Q 1275 1403 1131 1340 
Q 988 1278 909 1158 
Q 831 1038 831 891 
Q 831 666 1001 516 
Q 1172 366 1500 366 
Q 1825 366 2078 508 
Q 2331 650 2450 897 
Q 2541 1088 2541 1459 
L 2541 1666 
z
" transform="scale(0.015625)"/>
       <path id="ArialMT-79" d="M 397 -1278 
L 334 -750 
Q 519 -800 656 -800 
Q 844 -800 956 -737 
Q 1069 -675 1141 -563 
Q 1194 -478 1313 -144 
Q 1328 -97 1363 -6 
L 103 3319 
L 709 3319 
L 1400 1397 
Q 1534 1031 1641 628 
Q 1738 1016 1872 1384 
L 2581 3319 
L 3144 3319 
L 1881 -56 
Q 1678 -603 1566 -809 
Q 1416 -1088 1222 -1217 
Q 1028 -1347 759 -1347 
Q 597 -1347 397 -1278 
z
" transform="scale(0.015625)"/>
       <path id="ArialMT-73" d="M 197 991 
L 753 1078 
Q 800 744 1014 566 
Q 1228 388 1613 388 
Q 2000 388 2187 545 
Q 2375 703 2375 916 
Q 2375 1106 2209 1216 
Q 2094 1291 1634 1406 
Q 1016 1563 777 1677 
Q 538 1791 414 1992 
Q 291 2194 291 2438 
Q 291 2659 392 2848 
Q 494 3038 669 3163 
Q 800 3259 1026 3326 
Q 1253 3394 1513 3394 
Q 1903 3394 2198 3281 
Q 2494 3169 2634 2976 
Q 2775 2784 2828 2463 
L 2278 2388 
Q 2241 2644 2061 2787 
Q 1881 2931 1553 2931 
Q 1166 2931 1000 2803 
Q 834 2675 834 2503 
Q 834 2394 903 2306 
Q 972 2216 1119 2156 
Q 1203 2125 1616 2013 
Q 2213 1853 2448 1751 
Q 2684 1650 2818 1456 
Q 2953 1263 2953 975 
Q 2953 694 2789 445 
Q 2625 197 2315 61 
Q 2006 -75 1616 -75 
Q 969 -75 630 194 
Q 291 463 197 991 
z
" transform="scale(0.015625)"/>
      </defs>
      <use xlink:href="#ArialMT-44"/>
      <use xlink:href="#ArialMT-61" x="72.216797"/>
      <use xlink:href="#ArialMT-79" x="127.832031"/>
      <use xlink:href="#ArialMT-73" x="177.832031"/>
     </g>
    </g>
   </g>
   <g id="matplotlib.axis_2">
    <g id="ytick_1">
     <g id="line2d_6">
      <path d="M 72 369.107579 
L 518.4 369.107579 
" clip-path="url(#p56d59c98a6)" style="fill: none; stroke: #ffffff; stroke-width: 0.8; stroke-linecap: round"/>
     </g>
     <g id="text_7">
      <!-- 0 -->
      <g style="fill: #262626" transform="translate(59.439062 372.686486) scale(0.1 -0.1)">
       <use xlink:href="#ArialMT-30"/>
      </g>
     </g>
    </g>
    <g id="ytick_2">
     <g id="line2d_7">
      <path d="M 72 318.623439 
L 518.4 318.623439 
" clip-path="url(#p56d59c98a6)" style="fill: none; stroke: #ffffff; stroke-width: 0.8; stroke-linecap: round"/>
     </g>
     <g id="text_8">
      <!-- 200 -->
      <g style="fill: #262626" transform="translate(48.317188 322.202345) scale(0.1 -0.1)">
       <use xlink:href="#ArialMT-32"/>
       <use xlink:href="#ArialMT-30" x="55.615234"/>
       <use xlink:href="#ArialMT-30" x="111.230469"/>
      </g>
     </g>
    </g>
    <g id="ytick_3">
     <g id="line2d_8">
      <path d="M 72 268.139299 
L 518.4 268.139299 
" clip-path="url(#p56d59c98a6)" style="fill: none; stroke: #ffffff; stroke-width: 0.8; stroke-linecap: round"/>
     </g>
     <g id="text_9">
      <!-- 400 -->
      <g style="fill: #262626" transform="translate(48.317188 271.718205) scale(0.1 -0.1)">
       <use xlink:href="#ArialMT-34"/>
       <use xlink:href="#ArialMT-30" x="55.615234"/>
       <use xlink:href="#ArialMT-30" x="111.230469"/>
      </g>
     </g>
    </g>
    <g id="ytick_4">
     <g id="line2d_9">
      <path d="M 72 217.655159 
L 518.4 217.655159 
" clip-path="url(#p56d59c98a6)" style="fill: none; stroke: #ffffff; stroke-width: 0.8; stroke-linecap: round"/>
     </g>
     <g id="text_10">
      <!-- 600 -->
      <g style="fill: #262626" transform="translate(48.317188 221.234065) scale(0.1 -0.1)">
       <use xlink:href="#ArialMT-36"/>
       <use xlink:href="#ArialMT-30" x="55.615234"/>
       <use xlink:href="#ArialMT-30" x="111.230469"/>
      </g>
     </g>
    </g>
    <g id="ytick_5">
     <g id="line2d_10">
      <path d="M 72 167.171018 
L 518.4 167.171018 
" clip-path="url(#p56d59c98a6)" style="fill: none; stroke: #ffffff; stroke-width: 0.8; stroke-linecap: round"/>
     </g>
     <g id="text_11">
      <!-- 800 -->
      <g style="fill: #262626" transform="translate(48.317188 170.749925) scale(0.1 -0.1)">
       <use xlink:href="#ArialMT-38"/>
       <use xlink:href="#ArialMT-30" x="55.615234"/>
       <use xlink:href="#ArialMT-30" x="111.230469"/>
      </g>
     </g>
    </g>
    <g id="ytick_6">
     <g id="line2d_11">
      <path d="M 72 116.686878 
L 518.4 116.686878 
" clip-path="url(#p56d59c98a6)" style="fill: none; stroke: #ffffff; stroke-width: 0.8; stroke-linecap: round"/>
     </g>
     <g id="text_12">
      <!-- 1000 -->
      <g style="fill: #262626" transform="translate(42.75625 120.265784) scale(0.1 -0.1)">
       <defs>
        <path id="ArialMT-31" d="M 2384 0 
L 1822 0 
L 1822 3584 
Q 1619 3391 1289 3197 
Q 959 3003 697 2906 
L 697 3450 
Q 1169 3672 1522 3987 
Q 1875 4303 2022 4600 
L 2384 4600 
L 2384 0 
z
" transform="scale(0.015625)"/>
       </defs>
       <use xlink:href="#ArialMT-31"/>
       <use xlink:href="#ArialMT-30" x="55.615234"/>
       <use xlink:href="#ArialMT-30" x="111.230469"/>
       <use xlink:href="#ArialMT-30" x="166.845703"/>
      </g>
     </g>
    </g>
    <g id="ytick_7">
     <g id="line2d_12">
      <path d="M 72 66.202738 
L 518.4 66.202738 
" clip-path="url(#p56d59c98a6)" style="fill: none; stroke: #ffffff; stroke-width: 0.8; stroke-linecap: round"/>
     </g>
     <g id="text_13">
      <!-- 1200 -->
      <g style="fill: #262626" transform="translate(42.75625 69.781644) scale(0.1 -0.1)">
       <use xlink:href="#ArialMT-31"/>
       <use xlink:href="#ArialMT-32" x="55.615234"/>
       <use xlink:href="#ArialMT-30" x="111.230469"/>
       <use xlink:href="#ArialMT-30" x="166.845703"/>
      </g>
     </g>
    </g>
    <g id="text_14">
     <!-- (W/m^2) -->
     <g style="fill: #262626" transform="translate(36.651562 236.889687) rotate(-90) scale(0.1 -0.1)">
      <defs>
       <path id="ArialMT-28" d="M 1497 -1347 
Q 1031 -759 709 28 
Q 388 816 388 1659 
Q 388 2403 628 3084 
Q 909 3875 1497 4659 
L 1900 4659 
Q 1522 4009 1400 3731 
Q 1209 3300 1100 2831 
Q 966 2247 966 1656 
Q 966 153 1900 -1347 
L 1497 -1347 
z
" transform="scale(0.015625)"/>
       <path id="ArialMT-57" d="M 1294 0 
L 78 4581 
L 700 4581 
L 1397 1578 
Q 1509 1106 1591 641 
Q 1766 1375 1797 1488 
L 2669 4581 
L 3400 4581 
L 4056 2263 
Q 4303 1400 4413 641 
Q 4500 1075 4641 1638 
L 5359 4581 
L 5969 4581 
L 4713 0 
L 4128 0 
L 3163 3491 
Q 3041 3928 3019 4028 
Q 2947 3713 2884 3491 
L 1913 0 
L 1294 0 
z
" transform="scale(0.015625)"/>
       <path id="ArialMT-2f" d="M 0 -78 
L 1328 4659 
L 1778 4659 
L 453 -78 
L 0 -78 
z
" transform="scale(0.015625)"/>
       <path id="ArialMT-6d" d="M 422 0 
L 422 3319 
L 925 3319 
L 925 2853 
Q 1081 3097 1340 3245 
Q 1600 3394 1931 3394 
Q 2300 3394 2536 3241 
Q 2772 3088 2869 2813 
Q 3263 3394 3894 3394 
Q 4388 3394 4653 3120 
Q 4919 2847 4919 2278 
L 4919 0 
L 4359 0 
L 4359 2091 
Q 4359 2428 4304 2576 
Q 4250 2725 4106 2815 
Q 3963 2906 3769 2906 
Q 3419 2906 3187 2673 
Q 2956 2441 2956 1928 
L 2956 0 
L 2394 0 
L 2394 2156 
Q 2394 2531 2256 2718 
Q 2119 2906 1806 2906 
Q 1569 2906 1367 2781 
Q 1166 2656 1075 2415 
Q 984 2175 984 1722 
L 984 0 
L 422 0 
z
" transform="scale(0.015625)"/>
       <path id="ArialMT-5e" d="M 747 2156 
L 169 2156 
L 1272 4659 
L 1725 4659 
L 2834 2156 
L 2269 2156 
L 1497 4022 
L 747 2156 
z
" transform="scale(0.015625)"/>
       <path id="ArialMT-29" d="M 791 -1347 
L 388 -1347 
Q 1322 153 1322 1656 
Q 1322 2244 1188 2822 
Q 1081 3291 891 3722 
Q 769 4003 388 4659 
L 791 4659 
Q 1378 3875 1659 3084 
Q 1900 2403 1900 1659 
Q 1900 816 1576 28 
Q 1253 -759 791 -1347 
z
" transform="scale(0.015625)"/>
      </defs>
      <use xlink:href="#ArialMT-28"/>
      <use xlink:href="#ArialMT-57" x="33.300781"/>
      <use xlink:href="#ArialMT-2f" x="127.685547"/>
      <use xlink:href="#ArialMT-6d" x="155.46875"/>
      <use xlink:href="#ArialMT-5e" x="238.769531"/>
      <use xlink:href="#ArialMT-32" x="285.693359"/>
      <use xlink:href="#ArialMT-29" x="341.308594"/>
     </g>
    </g>
   </g>
   <g id="line2d_13">
    <path d="M 92.290909 97.250484 
L 92.754701 132.589382 
L 93.218494 146.472521 
L 93.682286 179.539633 
L 94.146078 126.026444 
L 94.60987 267.129616 
L 95.073662 120.725609 
L 95.537455 151.773356 
L 96.001247 249.207746 
L 96.465039 112.395726 
L 96.928831 120.725609 
L 97.392623 156.064508 
L 97.856416 138.395058 
L 98.320208 245.421436 
L 98.784 125.774023 
L 99.247792 101.289215 
L 99.711584 96.240801 
L 100.175377 108.861836 
L 100.639169 117.948982 
L 101.102961 143.948314 
L 101.566753 151.268514 
L 102.030545 155.812087 
L 102.494338 142.43379 
L 102.95813 116.434457 
L 103.421922 132.084541 
L 103.885714 170.957329 
L 104.349506 116.686878 
L 104.813299 152.025776 
L 105.277091 143.443472 
L 105.740883 148.239466 
L 106.204675 159.598397 
L 106.668468 338.564674 
L 107.13226 330.234791 
L 107.596052 274.954658 
L 108.059844 278.993389 
L 108.523636 236.586711 
L 108.987429 300.95399 
L 109.451221 277.983706 
L 109.915013 330.234791 
L 110.378805 332.758998 
L 110.842597 227.247145 
L 111.30639 167.423439 
L 111.770182 226.994725 
L 112.233974 181.811419 
L 112.697766 182.821102 
L 113.625351 186.607412 
L 114.552935 166.918598 
L 115.016727 233.810083 
L 115.480519 192.91793 
L 115.944312 207.30591 
L 116.408104 188.121937 
L 116.871896 194.937295 
L 117.335688 207.810751 
L 117.799481 196.45182 
L 118.263273 342.603406 
L 118.727065 328.467846 
L 119.190857 173.733957 
L 119.654649 321.147646 
L 120.118442 120.725609 
L 120.582234 186.607412 
L 121.046026 151.268514 
L 121.509818 193.422771 
L 121.97361 329.477529 
L 122.437403 272.430451 
L 122.901195 156.82177 
L 123.828779 241.887546 
L 124.292571 203.267179 
L 124.756364 192.665509 
L 125.220156 305.749983 
L 125.683948 196.45182 
L 126.14774 209.830117 
L 127.075325 206.043806 
L 127.539117 206.043806 
L 128.002909 295.653155 
L 128.466701 341.593723 
L 128.930494 216.393055 
L 129.394286 298.682204 
L 129.858078 323.419432 
L 130.32187 218.664841 
L 130.785662 199.733289 
L 131.249455 195.442137 
L 131.713247 220.431786 
L 132.177039 203.519599 
L 132.640831 196.45182 
L 133.104623 197.461503 
L 133.568416 190.898564 
L 134.032208 168.937963 
L 134.496 241.382705 
L 134.959792 208.820434 
L 135.887377 203.77202 
L 136.351169 202.509917 
L 136.814961 204.529282 
L 137.278753 203.267179 
L 137.742545 214.373689 
L 138.206338 217.655159 
L 138.67013 211.849482 
L 139.133922 197.713923 
L 139.597714 340.836461 
L 140.061506 319.380701 
L 140.525299 221.441469 
L 140.989091 273.944975 
L 141.452883 341.088881 
L 141.916675 207.558331 
L 142.380468 201.752654 
L 142.84426 205.538965 
L 143.308052 216.140634 
L 143.771844 207.558331 
L 144.235636 212.354324 
L 144.699429 340.58404 
L 145.163221 320.390384 
L 145.627013 200.490551 
L 146.090805 198.471185 
L 146.554597 337.05015 
L 147.482182 331.496895 
L 147.945974 213.616427 
L 148.409766 202.509917 
L 148.873558 170.704908 
L 149.337351 195.442137 
L 149.801143 190.898564 
L 150.264935 194.937295 
L 150.728727 176.258164 
L 151.192519 199.480868 
L 151.656312 196.956661 
L 152.120104 304.992721 
L 152.583896 332.506578 
L 153.047688 187.617095 
L 153.975273 188.121937 
L 154.439065 180.044474 
L 154.902857 184.588047 
L 155.366649 182.821102 
L 155.830442 148.996728 
L 156.294234 162.375025 
L 156.758026 207.30591 
L 157.221818 189.888881 
L 157.68561 201.500234 
L 158.149403 193.170351 
L 158.613195 289.090217 
L 159.076987 334.525943 
L 159.540779 245.926277 
L 160.004571 179.792053 
L 160.468364 311.80808 
L 160.932156 176.510584 
L 161.395948 158.336294 
L 161.85974 184.083205 
L 162.323532 181.054157 
L 162.787325 180.801736 
L 163.714909 196.956661 
L 164.178701 150.258831 
L 164.642494 139.657162 
L 165.106286 170.452487 
L 165.570078 171.714591 
L 166.03387 166.666177 
L 166.497662 165.404073 
L 166.961455 176.763005 
L 167.425247 178.52995 
L 167.889039 244.411753 
L 168.352831 166.666177 
L 168.816623 180.549316 
L 169.280416 167.171018 
L 169.744208 326.953322 
L 170.208 284.041803 
L 170.671792 300.449149 
L 171.135584 161.617763 
L 171.599377 147.987045 
L 172.063169 141.171686 
L 172.990753 189.636461 
L 173.454545 158.083873 
L 173.918338 161.870184 
L 174.38213 120.473189 
L 174.845922 252.741636 
L 175.309714 173.481536 
L 175.773506 154.297563 
L 176.701091 242.644808 
L 177.164883 196.45182 
L 177.628675 298.682204 
L 178.092468 211.09222 
L 178.55626 157.07419 
L 179.020052 148.491886 
L 179.483844 135.870851 
L 179.947636 308.02177 
L 180.411429 135.618431 
L 180.875221 169.947646 
L 181.339013 132.841803 
L 181.802805 143.695893 
L 182.266597 197.713923 
L 182.73039 235.324608 
L 183.194182 132.084541 
L 183.657974 87.658497 
L 184.121766 132.336962 
L 184.585558 143.695893 
L 185.049351 137.385376 
L 185.513143 147.734624 
L 185.976935 140.919265 
L 186.440727 137.890217 
L 186.904519 140.162003 
L 187.368312 148.239466 
L 187.832104 127.036127 
L 188.295896 139.404741 
L 188.759688 142.181369 
L 189.223481 121.230451 
L 189.687273 126.026444 
L 190.151065 154.549983 
L 190.614857 136.628114 
L 191.078649 131.327279 
L 191.542442 142.43379 
L 192.006234 150.511252 
L 192.470026 178.025109 
L 192.933818 158.841135 
L 193.39761 147.734624 
L 193.861403 129.055492 
L 194.325195 139.909583 
L 194.788987 145.210417 
L 195.252779 138.142638 
L 195.716571 247.440801 
L 196.180364 137.132955 
L 196.644156 147.734624 
L 197.107948 151.268514 
L 197.57174 152.530618 
L 198.035532 133.094224 
L 198.499325 151.773356 
L 198.963117 111.638464 
L 199.890701 121.230451 
L 200.354494 145.210417 
L 200.818286 193.170351 
L 201.282078 100.784374 
L 201.74587 112.648147 
L 202.209662 92.454491 
L 202.673455 93.716594 
L 203.137247 147.987045 
L 203.601039 126.026444 
L 204.064831 125.774023 
L 204.528623 140.162003 
L 204.992416 148.491886 
L 205.456208 152.278197 
L 205.92 140.666845 
L 206.383792 162.122604 
L 206.847584 150.763673 
L 207.311377 124.764341 
L 207.775169 106.59005 
L 208.238961 113.65783 
L 208.702753 144.453155 
L 209.166545 116.434457 
L 210.09413 195.694558 
L 210.557922 111.638464 
L 211.021714 121.987713 
L 211.485506 118.958664 
L 211.949299 116.686878 
L 212.413091 110.376361 
L 212.876883 132.589382 
L 213.340675 139.152321 
L 213.804468 138.395058 
L 214.26826 128.04581 
L 214.732052 134.861169 
L 215.195844 113.91025 
L 215.659636 109.871519 
L 216.123429 110.12394 
L 217.051013 138.647479 
L 217.514805 141.424107 
L 218.44239 119.463506 
L 218.906182 138.8999 
L 219.369974 88.41576 
L 219.833766 113.91025 
L 220.297558 148.239466 
L 220.761351 146.724942 
L 221.225143 109.871519 
L 221.688935 98.512588 
L 222.152727 204.276861 
L 222.616519 111.890885 
L 223.080312 111.638464 
L 223.544104 130.065175 
L 224.007896 129.560334 
L 224.471688 132.841803 
L 224.935481 138.647479 
L 225.399273 131.327279 
L 225.863065 113.152988 
L 226.326857 133.094224 
L 226.790649 146.724942 
L 227.718234 132.589382 
L 228.182026 143.191052 
L 228.645818 136.628114 
L 229.10961 136.123272 
L 229.573403 119.463506 
L 230.037195 109.871519 
L 230.500987 129.560334 
L 230.964779 107.599733 
L 231.428571 134.861169 
L 231.892364 129.307913 
L 232.356156 145.210417 
L 232.819948 143.948314 
L 233.28374 143.443472 
L 233.747532 143.191052 
L 234.211325 132.084541 
L 234.675117 129.307913 
L 235.138909 102.551319 
L 235.602701 96.240801 
L 236.066494 128.803072 
L 236.530286 127.036127 
L 236.994078 121.482871 
L 237.45787 141.928948 
L 237.921662 144.957997 
L 238.385455 141.424107 
L 238.849247 142.181369 
L 239.313039 141.676528 
L 239.776831 135.36601 
L 240.240623 94.473856 
L 240.704416 82.105242 
L 241.168208 134.608748 
L 241.632 129.560334 
L 242.095792 148.744307 
L 243.023377 144.200735 
L 243.487169 145.967679 
L 243.950961 147.229783 
L 244.414753 146.977362 
L 244.878545 145.462838 
L 245.342338 150.006411 
L 245.80613 145.210417 
L 246.269922 150.763673 
L 246.733714 151.773356 
L 247.197506 155.307245 
L 247.661299 147.229783 
L 248.125091 146.2201 
L 248.588883 125.774023 
L 249.052675 142.938631 
L 249.516468 147.987045 
L 249.98026 98.260167 
L 250.444052 145.210417 
L 250.907844 144.200735 
L 251.371636 145.462838 
L 251.835429 138.142638 
L 252.299221 141.171686 
L 252.763013 146.724942 
L 253.226805 122.997396 
L 253.690597 137.385376 
L 254.15439 142.181369 
L 254.618182 205.791386 
L 255.081974 359.768013 
L 255.545766 369.107579 
L 256.009558 127.540968 
L 256.473351 118.201402 
L 256.937143 131.83212 
L 257.400935 110.376361 
L 257.864727 132.336962 
L 258.328519 129.560334 
L 258.792312 115.677195 
L 259.256104 149.249149 
L 259.719896 158.336294 
L 260.183688 151.773356 
L 260.647481 171.20975 
L 261.111273 138.142638 
L 261.575065 139.404741 
L 262.038857 163.132287 
L 262.502649 148.491886 
L 262.966442 137.385376 
L 263.430234 157.579032 
L 263.894026 158.083873 
L 264.357818 145.715259 
L 264.82161 144.957997 
L 265.285403 103.308581 
L 265.749195 128.29823 
L 266.212987 106.59005 
L 266.676779 140.666845 
L 267.140571 153.035459 
L 267.604364 158.083873 
L 268.068156 153.035459 
L 268.531948 134.861169 
L 268.99574 143.191052 
L 269.459532 172.471853 
L 269.923325 172.976694 
L 270.387117 144.957997 
L 270.850909 137.637796 
L 271.314701 177.015426 
L 271.778494 172.219432 
L 272.242286 177.772688 
L 272.706078 300.196728 
L 273.16987 172.471853 
L 273.633662 179.287212 
L 274.097455 169.695225 
L 274.561247 152.783038 
L 275.025039 150.511252 
L 275.488831 172.976694 
L 275.952623 163.132287 
L 276.416416 134.608748 
L 276.880208 147.482204 
L 277.344 173.481536 
L 277.807792 179.034791 
L 278.271584 191.655826 
L 278.735377 170.452487 
L 279.199169 287.575693 
L 279.662961 200.995392 
L 280.126753 183.073523 
L 280.590545 199.733289 
L 281.054338 176.258164 
L 281.51813 197.209082 
L 281.981922 165.908915 
L 282.445714 200.742972 
L 282.909506 195.189716 
L 283.373299 292.119265 
L 283.837091 265.11025 
L 284.300883 250.46985 
L 284.764675 199.480868 
L 285.228468 330.992053 
L 285.69226 198.723606 
L 286.156052 198.723606 
L 286.619844 199.480868 
L 287.083636 194.180033 
L 287.547429 161.112922 
L 288.011221 172.471853 
L 288.475013 208.063172 
L 288.938805 194.684875 
L 289.402597 190.393723 
L 289.86639 198.976027 
L 290.330182 310.545977 
L 290.793974 203.77202 
L 291.257766 202.005075 
L 291.721558 196.956661 
L 292.185351 152.025776 
L 293.112935 218.664841 
L 293.576727 210.8398 
L 294.040519 205.791386 
L 294.504312 206.043806 
L 294.968104 217.150317 
L 295.431896 211.09222 
L 295.895688 215.130952 
L 296.359481 213.364007 
L 297.287065 223.208414 
L 297.750857 221.441469 
L 298.214649 304.992721 
L 298.678442 183.325943 
L 299.142234 219.926945 
L 299.606026 212.859165 
L 300.069818 214.62611 
L 300.53361 217.402738 
L 300.997403 169.695225 
L 301.461195 206.801068 
L 301.924987 193.927613 
L 302.852571 241.130284 
L 303.316364 324.681536 
L 303.780156 202.762337 
L 304.243948 204.276861 
L 304.70774 211.849482 
L 305.171532 212.859165 
L 305.635325 198.976027 
L 306.099117 297.4201 
L 306.562909 145.462838 
L 307.026701 214.878531 
L 307.490494 206.043806 
L 307.954286 343.360668 
L 308.418078 319.633122 
L 308.88187 197.713923 
L 309.345662 199.228447 
L 309.809455 202.005075 
L 310.273247 199.98571 
L 310.737039 202.257496 
L 311.200831 202.005075 
L 311.664623 191.403406 
L 312.128416 200.995392 
L 312.592208 218.16 
L 313.056 196.70424 
L 313.519792 190.393723 
L 313.983584 246.431119 
L 314.447377 217.655159 
L 314.911169 253.498898 
L 315.374961 305.749983 
L 315.838753 290.352321 
L 316.302545 195.946978 
L 316.766338 300.701569 
L 317.23013 243.149649 
L 317.693922 340.079199 
L 318.157714 254.00374 
L 318.621506 200.23813 
L 319.085299 167.171018 
L 319.549091 285.303907 
L 320.012883 192.91793 
L 320.476675 198.723606 
L 321.40426 190.646144 
L 321.868052 214.373689 
L 322.331844 197.461503 
L 322.795636 190.646144 
L 323.259429 207.810751 
L 323.723221 162.627446 
L 324.187013 167.171018 
L 324.650805 221.69389 
L 325.114597 190.141302 
L 325.57839 189.636461 
L 326.042182 195.189716 
L 326.505974 184.335626 
L 326.969766 194.432454 
L 327.433558 314.837129 
L 327.897351 270.411085 
L 328.361143 182.06384 
L 328.824935 299.439466 
L 329.288727 178.025109 
L 329.752519 166.918598 
L 330.216312 165.404073 
L 330.680104 169.947646 
L 331.143896 343.360668 
L 331.607688 340.58404 
L 332.071481 278.488548 
L 332.535273 150.258831 
L 332.999065 188.879199 
L 333.462857 169.190384 
L 333.926649 164.646811 
L 334.390442 161.870184 
L 334.854234 162.375025 
L 335.318026 159.850818 
L 335.781818 169.947646 
L 336.24561 166.413756 
L 336.709403 157.07419 
L 337.173195 193.170351 
L 337.636987 113.65783 
L 338.100779 161.365342 
L 339.028364 152.025776 
L 339.492156 189.888881 
L 339.955948 183.325943 
L 340.41974 254.508581 
L 340.883532 168.180701 
L 341.347325 155.812087 
L 341.811117 165.404073 
L 342.274909 165.908915 
L 342.738701 143.191052 
L 343.202494 173.733957 
L 343.666286 135.113589 
L 344.130078 140.414424 
L 344.59387 154.802404 
L 345.057662 283.284541 
L 345.521455 291.362003 
L 346.449039 142.181369 
L 346.912831 153.035459 
L 347.376623 154.045142 
L 347.840416 152.530618 
L 348.304208 155.054825 
L 348.768 121.987713 
L 349.231792 327.205743 
L 349.695584 172.976694 
L 350.159377 139.657162 
L 350.623169 158.083873 
L 351.086961 148.996728 
L 351.550753 131.579699 
L 352.014545 229.518932 
L 352.478338 269.653823 
L 352.94213 189.888881 
L 353.405922 131.579699 
L 353.869714 141.676528 
L 354.333506 155.559666 
L 354.797299 162.375025 
L 355.261091 131.83212 
L 355.724883 129.560334 
L 356.188675 136.123272 
L 356.652468 163.889549 
L 357.11626 136.123272 
L 357.580052 256.527947 
L 358.043844 130.570017 
L 358.507636 114.415092 
L 358.971429 126.278865 
L 359.435221 142.938631 
L 359.899013 145.462838 
L 360.362805 146.977362 
L 360.826597 137.890217 
L 361.29039 134.103907 
L 361.754182 108.104574 
L 362.217974 128.550651 
L 362.681766 135.870851 
L 363.145558 140.666845 
L 363.609351 133.094224 
L 364.073143 121.735292 
L 364.536935 136.123272 
L 365.000727 137.637796 
L 365.464519 135.618431 
L 365.928312 137.385376 
L 366.392104 140.919265 
L 366.855896 106.59005 
L 367.319688 135.618431 
L 368.247273 66.96 
L 368.711065 114.919933 
L 369.174857 98.260167 
L 369.638649 128.803072 
L 370.102442 94.978698 
L 370.566234 111.386043 
L 371.030026 132.841803 
L 371.493818 133.599065 
L 371.95761 135.113589 
L 372.421403 134.356327 
L 372.885195 138.8999 
L 373.348987 121.482871 
L 373.812779 126.278865 
L 374.276571 132.589382 
L 374.740364 112.648147 
L 375.204156 115.677195 
L 375.667948 108.104574 
L 376.13174 78.823773 
L 376.595532 116.686878 
L 377.059325 115.677195 
L 377.523117 118.201402 
L 377.986909 99.52227 
L 378.450701 95.231119 
L 378.914494 130.822437 
L 379.378286 108.104574 
L 379.842078 122.240134 
L 380.30587 130.822437 
L 380.769662 111.890885 
L 381.233455 135.870851 
L 381.697247 134.356327 
L 382.161039 138.647479 
L 382.624831 116.686878 
L 383.088623 114.919933 
L 383.552416 335.535626 
L 384.016208 128.803072 
L 384.48 129.812755 
L 385.407584 103.05616 
L 385.871377 100.027112 
L 386.335169 86.901235 
L 386.798961 138.647479 
L 387.262753 139.152321 
L 387.726545 104.318264 
L 388.190338 142.938631 
L 389.581714 131.327279 
L 390.045506 119.463506 
L 390.509299 86.648815 
L 390.973091 87.658497 
L 391.436883 142.181369 
L 392.364468 109.114257 
L 392.82826 189.636461 
L 393.292052 128.550651 
L 393.755844 153.035459 
L 394.219636 137.385376 
L 394.683429 137.637796 
L 395.147221 145.967679 
L 395.611013 142.938631 
L 396.074805 249.207746 
L 396.538597 142.68621 
L 397.00239 143.191052 
L 397.929974 138.142638 
L 398.393766 133.346644 
L 398.857558 134.608748 
L 399.321351 142.938631 
L 399.785143 141.676528 
L 400.248935 134.608748 
L 400.712727 114.919933 
L 401.176519 146.2201 
L 401.640312 132.841803 
L 402.104104 96.493222 
L 402.567896 125.016761 
L 403.031688 128.803072 
L 403.495481 117.696561 
L 403.959273 150.511252 
L 404.423065 249.965008 
L 404.886857 311.050818 
L 405.350649 291.614424 
L 405.814442 144.453155 
L 406.278234 129.055492 
L 406.742026 149.75399 
L 407.205818 90.182705 
L 407.66961 134.356327 
L 408.133403 136.123272 
L 408.597195 135.618431 
L 409.060987 127.288548 
L 409.524779 213.364007 
L 409.988571 86.396394 
L 410.452364 114.162671 
L 410.916156 133.851486 
L 411.379948 141.424107 
L 411.84374 142.68621 
L 412.307532 141.676528 
L 412.771325 141.424107 
L 413.235117 140.919265 
L 413.698909 144.200735 
L 414.162701 142.938631 
L 414.626494 157.07419 
L 415.090286 134.608748 
L 415.554078 146.472521 
L 416.01787 142.43379 
L 416.481662 118.706244 
L 416.945455 133.599065 
L 417.409247 128.803072 
L 417.873039 143.695893 
L 418.336831 148.239466 
L 418.800623 144.453155 
L 419.264416 149.75399 
L 419.728208 150.258831 
L 420.192 211.09222 
L 420.655792 369.36 
L 421.119584 150.511252 
L 421.583377 134.103907 
L 422.047169 279.24581 
L 422.510961 351.18571 
L 422.974753 91.949649 
L 423.438545 113.65783 
L 423.902338 118.706244 
L 424.36613 356.991386 
L 424.829922 137.385376 
L 425.293714 153.792721 
L 425.757506 151.268514 
L 426.221299 129.307913 
L 426.685091 148.744307 
L 427.148883 111.133623 
L 427.612675 142.181369 
L 428.076468 137.890217 
L 428.54026 140.666845 
L 429.004052 133.094224 
L 429.467844 139.909583 
L 429.931636 131.579699 
L 430.395429 126.531285 
L 430.859221 139.152321 
L 431.323013 143.948314 
L 431.786805 145.967679 
L 432.250597 145.210417 
L 432.71439 131.83212 
L 433.178182 135.113589 
L 433.641974 127.540968 
L 434.105766 141.676528 
L 434.569558 140.414424 
L 435.033351 140.919265 
L 435.497143 113.91025 
L 435.960935 123.502237 
L 436.424727 102.551319 
L 436.888519 121.735292 
L 437.352312 151.268514 
L 437.816104 120.97803 
L 438.279896 125.269182 
L 438.743688 144.705576 
L 439.207481 147.229783 
L 439.671273 135.618431 
L 440.135065 148.996728 
L 440.598857 112.395726 
L 441.062649 130.822437 
L 441.526442 114.415092 
L 441.990234 107.599733 
L 442.917818 143.443472 
L 443.38161 143.695893 
L 443.845403 129.307913 
L 444.309195 102.80374 
L 444.772987 130.822437 
L 445.236779 112.395726 
L 445.700571 115.172354 
L 446.164364 147.229783 
L 446.628156 258.042471 
L 447.091948 232.043139 
L 447.55574 114.919933 
L 448.019532 150.763673 
L 448.483325 115.677195 
L 448.947117 143.443472 
L 449.410909 132.589382 
L 449.874701 151.773356 
L 450.338494 144.453155 
L 450.802286 148.996728 
L 451.266078 107.599733 
L 451.72987 126.026444 
L 452.193662 151.016093 
L 452.657455 127.793389 
L 453.121247 123.249816 
L 453.585039 151.520935 
L 454.048831 138.142638 
L 454.512623 137.637796 
L 454.976416 151.016093 
L 455.440208 158.588715 
L 455.904 129.307913 
L 456.367792 133.851486 
L 456.831584 150.006411 
L 457.295377 144.200735 
L 457.759169 156.064508 
L 458.222961 159.598397 
L 458.686753 156.316928 
L 459.150545 133.851486 
L 459.614338 216.645476 
L 460.07813 252.741636 
L 460.541922 166.413756 
L 461.005714 297.4201 
L 461.469506 172.724274 
L 461.933299 296.157997 
L 462.397091 153.035459 
L 462.860883 283.536962 
L 463.324675 273.944975 
L 463.788468 175.500902 
L 464.25226 169.190384 
L 464.716052 176.258164 
L 465.179844 148.239466 
L 466.107429 174.99606 
L 466.571221 294.643472 
L 467.035013 170.704908 
L 467.498805 173.229115 
L 467.962597 172.976694 
L 468.42639 174.238798 
L 468.890182 202.257496 
L 469.353974 179.792053 
L 469.817766 178.025109 
L 470.281558 181.054157 
L 470.745351 173.481536 
L 471.209143 186.859833 
L 471.672935 187.617095 
L 472.136727 184.335626 
L 472.600519 242.644808 
L 473.064312 248.955326 
L 473.528104 315.846811 
L 473.991896 168.685543 
L 474.455688 188.626778 
L 474.919481 185.092888 
L 475.383273 185.092888 
L 475.847065 173.481536 
L 476.310857 150.006411 
L 476.774649 154.802404 
L 477.238442 199.228447 
L 477.702234 198.218765 
L 478.166026 172.976694 
L 478.629818 188.626778 
L 479.09361 195.946978 
L 479.557403 168.937963 
L 480.021195 315.594391 
L 480.484987 327.205743 
L 480.948779 332.758998 
L 481.412571 322.66217 
L 481.876364 335.030785 
L 482.340156 310.798397 
L 482.803948 305.245142 
L 483.26774 296.410417 
L 483.731532 205.538965 
L 484.195325 307.012087 
L 484.659117 199.480868 
L 485.122909 195.442137 
L 485.586701 204.529282 
L 486.050494 200.23813 
L 486.514286 226.742304 
L 486.978078 322.914591 
L 487.44187 220.179366 
L 487.905662 316.604073 
L 488.369455 368.602738 
L 488.833247 273.187713 
L 489.297039 216.140634 
L 489.760831 216.140634 
L 490.224623 215.635793 
L 490.688416 258.042471 
L 491.152208 247.693222 
L 491.616 193.927613 
L 492.079792 208.315593 
L 492.543584 208.568013 
L 493.007377 217.907579 
L 493.471169 240.877863 
L 493.934961 332.254157 
L 494.398753 217.402738 
L 494.862545 197.713923 
L 495.326338 316.856494 
L 496.253922 257.537629 
L 496.717714 170.704908 
L 497.181506 186.607412 
L 497.645299 157.579032 
L 498.109091 172.219432 
L 498.109091 172.219432 
" clip-path="url(#p56d59c98a6)" style="fill: none; stroke: #1f77b4; stroke-width: 1.5; stroke-linecap: round"/>
   </g>
   <g id="line2d_14">
    <path d="M 92.290909 146.343521 
L 92.754701 147.852009 
L 93.218494 144.62357 
L 93.682286 146.540278 
L 94.146078 147.396974 
L 94.60987 146.651104 
L 95.073662 159.44336 
L 95.537455 160.245112 
L 96.001247 161.756277 
L 96.465039 170.06814 
L 96.928831 164.882973 
L 97.392623 164.211519 
L 97.856416 156.8967 
L 98.320208 156.956784 
L 98.784 164.921149 
L 99.247792 156.059605 
L 99.711584 154.488583 
L 100.175377 153.569079 
L 100.639169 151.16554 
L 101.102961 149.657413 
L 101.566753 142.950935 
L 102.030545 143.483382 
L 102.95813 148.785406 
L 103.421922 148.907861 
L 103.885714 150.092592 
L 104.349506 152.130901 
L 104.813299 149.720952 
L 105.740883 150.166523 
L 106.668468 154.721928 
L 107.596052 182.273736 
L 109.451221 212.013015 
L 109.915013 210.276593 
L 110.378805 210.439718 
L 110.842597 212.520995 
L 111.30639 209.520602 
L 111.770182 205.137062 
L 112.233974 201.947135 
L 112.697766 195.552904 
L 113.625351 176.5596 
L 114.089143 172.407622 
L 114.552935 172.535648 
L 115.016727 168.280303 
L 115.480519 172.567919 
L 115.944312 172.980073 
L 116.408104 174.875719 
L 116.871896 174.951408 
L 117.335688 176.039949 
L 117.799481 178.86636 
L 118.263273 176.744507 
L 118.727065 187.526593 
L 119.190857 194.733931 
L 119.654649 192.948991 
L 120.118442 201.241416 
L 120.582234 194.80083 
L 121.046026 194.19985 
L 121.97361 174.600385 
L 122.437403 184.76953 
L 122.901195 182.092674 
L 123.364987 182.933229 
L 123.828779 184.429454 
L 124.292571 190.752421 
L 124.756364 191.332477 
L 125.220156 183.195704 
L 125.683948 185.598528 
L 126.611532 188.260954 
L 127.075325 185.994069 
L 127.539117 185.880633 
L 128.002909 187.017418 
L 128.466701 187.445669 
L 128.930494 195.724488 
L 129.394286 195.580526 
L 130.32187 207.94006 
L 130.785662 208.265972 
L 131.249455 203.632958 
L 131.713247 195.908492 
L 132.177039 195.98723 
L 132.640831 190.059859 
L 133.104623 181.145734 
L 133.568416 178.716616 
L 134.032208 177.852515 
L 134.496 175.787833 
L 134.959792 177.806592 
L 135.423584 177.768534 
L 136.814961 179.433139 
L 137.278753 181.719249 
L 137.742545 179.301533 
L 138.206338 179.764717 
L 138.67013 181.078823 
L 139.133922 181.668038 
L 139.597714 181.4535 
L 140.061506 191.256199 
L 140.525299 197.972313 
L 140.989091 198.084476 
L 141.452883 201.737428 
L 141.916675 208.331084 
L 142.380468 208.141815 
L 143.308052 195.153178 
L 143.771844 194.143664 
L 144.235636 190.171917 
L 144.699429 182.119875 
L 145.627013 197.70672 
L 146.090805 197.19024 
L 146.554597 196.135925 
L 147.01839 203.662586 
L 147.482182 209.323354 
L 147.945974 209.389446 
L 148.409766 203.781686 
L 148.873558 203.258677 
L 149.337351 201.72502 
L 149.801143 194.639341 
L 150.728727 176.13906 
L 151.192519 172.486793 
L 151.656312 172.215561 
L 152.120104 173.543314 
L 153.047688 191.585398 
L 153.511481 190.208048 
L 153.975273 190.847466 
L 154.439065 190.076117 
L 154.902857 189.016673 
L 155.366649 181.732762 
L 155.830442 171.245889 
L 156.294234 167.562435 
L 156.758026 166.002878 
L 157.221818 168.363851 
L 157.68561 169.047999 
L 158.613195 170.638996 
L 159.540779 192.540649 
L 160.004571 194.589761 
L 160.468364 193.334649 
L 160.932156 200.832814 
L 161.395948 198.770277 
L 162.787325 176.119625 
L 163.251117 175.806863 
L 163.714909 168.251842 
L 164.178701 169.451178 
L 164.642494 168.398059 
L 165.106286 165.554869 
L 165.570078 165.069058 
L 166.03387 164.758341 
L 166.961455 159.53262 
L 167.425247 161.077758 
L 167.889039 163.519862 
L 168.352831 169.998293 
L 168.816623 168.818629 
L 169.280416 170.163906 
L 169.744208 170.322136 
L 170.208 182.09988 
L 170.671792 189.204079 
L 171.135584 192.900975 
L 172.063169 188.904382 
L 172.526961 187.041105 
L 172.990753 176.973896 
L 173.454545 170.561661 
L 173.918338 159.812259 
L 174.38213 158.748177 
L 174.845922 156.346239 
L 175.309714 165.769238 
L 175.773506 166.651413 
L 176.237299 164.030102 
L 176.701091 168.150471 
L 177.628675 180.548699 
L 178.092468 184.971105 
L 178.55626 186.746707 
L 179.020052 186.056261 
L 179.483844 181.606109 
L 179.947636 174.199642 
L 180.411429 182.081352 
L 180.875221 170.337758 
L 181.339013 167.169291 
L 181.802805 165.184533 
L 182.266597 164.939259 
L 182.73039 170.018347 
L 183.194182 165.768272 
L 183.657974 164.083844 
L 184.121766 157.912879 
L 184.585558 157.464361 
L 185.049351 157.85083 
L 185.513143 152.858704 
L 185.976935 146.107454 
L 186.440727 145.128514 
L 186.904519 147.483538 
L 187.368312 148.038124 
L 187.832104 148.0034 
L 188.759688 146.899775 
L 189.223481 146.837649 
L 189.687273 145.855529 
L 190.151065 145.477668 
L 190.614857 146.257344 
L 191.078649 146.175498 
L 191.542442 145.607353 
L 192.006234 145.685933 
L 192.470026 147.385681 
L 192.933818 151.250651 
L 193.39761 152.24651 
L 193.861403 152.929012 
L 194.325195 152.735384 
L 194.788987 152.758785 
L 195.252779 152.47492 
L 195.716571 149.504579 
L 196.180364 156.480507 
L 196.644156 155.484293 
L 197.107948 156.711293 
L 198.035532 160.121653 
L 198.499325 160.170359 
L 198.963117 154.383509 
L 199.426909 151.921028 
L 199.890701 150.244025 
L 200.354494 147.788653 
L 200.818286 146.673608 
L 201.282078 151.635253 
L 201.74587 147.733285 
L 202.209662 146.72635 
L 202.673455 144.836863 
L 203.137247 144.04801 
L 203.601039 145.264473 
L 204.064831 140.413247 
L 204.528623 140.647173 
L 204.992416 142.236938 
L 205.92 148.881646 
L 206.383792 147.59315 
L 207.311377 151.08303 
L 207.775169 150.911176 
L 208.702753 146.014899 
L 209.166545 146.761128 
L 209.630338 144.00985 
L 210.09413 144.064098 
L 210.557922 149.393919 
L 211.021714 149.165986 
L 211.485506 149.572512 
L 211.949299 147.85161 
L 212.413091 147.389117 
L 212.876883 144.998881 
L 213.340675 140.369094 
L 213.804468 140.865849 
L 214.26826 141.764465 
L 214.732052 142.038631 
L 215.195844 143.004233 
L 215.659636 143.545585 
L 216.123429 142.441203 
L 216.587221 140.91491 
L 217.051013 140.047463 
L 217.514805 140.752504 
L 218.44239 141.658161 
L 218.906182 141.6767 
L 219.369974 143.270156 
L 220.297558 140.574824 
L 220.761351 142.05845 
L 221.225143 143.062869 
L 221.688935 142.109216 
L 222.152727 140.105193 
L 222.616519 148.193317 
L 223.080312 147.526409 
L 223.544104 144.774125 
L 224.007896 143.40745 
L 224.471688 144.277361 
L 224.935481 146.127398 
L 225.399273 141.548082 
L 225.863065 142.790983 
L 226.326857 143.189237 
L 227.254442 146.024956 
L 227.718234 146.306223 
L 228.182026 145.941397 
L 228.645818 146.243614 
L 229.10961 146.938424 
L 229.573403 146.869745 
L 230.037195 145.190986 
L 230.500987 142.973017 
L 230.964779 142.499014 
L 231.428571 140.165445 
L 231.892364 140.297085 
L 232.356156 139.690326 
L 232.819948 140.983847 
L 233.28374 143.188833 
L 233.747532 144.560657 
L 234.211325 146.635037 
L 234.675117 146.40519 
L 235.138909 146.503461 
L 236.066494 141.859305 
L 236.994078 139.779111 
L 237.45787 139.272134 
L 237.921662 140.078069 
L 238.849247 144.538677 
L 240.240623 147.556052 
L 240.704416 144.591812 
L 241.168208 140.534007 
L 241.632 140.458469 
L 242.095792 139.646054 
L 242.559584 140.014706 
L 243.023377 140.68167 
L 243.487169 143.282848 
L 243.950961 147.16004 
L 244.878545 149.190937 
L 245.342338 149.029367 
L 246.733714 149.947979 
L 247.661299 151.18405 
L 248.125091 151.376427 
L 248.588883 151.13864 
L 249.052675 149.754027 
L 249.516468 149.369213 
L 249.98026 149.499926 
L 250.444052 146.006055 
L 251.371636 145.841197 
L 251.835429 147.040438 
L 252.299221 147.280653 
L 252.763013 146.471587 
L 253.226805 149.131946 
L 253.690597 148.283443 
L 254.15439 148.055649 
L 254.618182 148.046299 
L 255.081974 153.214669 
L 256.009558 184.541374 
L 256.473351 183.068841 
L 256.937143 182.21138 
L 257.400935 181.71421 
L 257.864727 175.80582 
L 258.328519 161.735962 
L 258.792312 143.753135 
L 259.256104 141.64981 
L 260.647481 148.196956 
L 261.111273 151.743168 
L 261.575065 152.080103 
L 262.502649 155.255289 
L 262.966442 154.944062 
L 263.894026 153.215699 
L 264.357818 154.708782 
L 264.82161 155.044838 
L 265.285403 154.087302 
L 265.749195 151.032334 
L 266.212987 150.113267 
L 266.676779 146.781547 
L 267.140571 145.626885 
L 268.068156 146.709155 
L 268.531948 149.271525 
L 268.99574 149.73878 
L 269.923325 154.568748 
L 270.387117 156.001856 
L 271.314701 154.940402 
L 271.778494 157.94867 
L 272.242286 160.014276 
L 272.706078 160.686949 
L 273.16987 171.216681 
L 273.633662 171.906019 
L 274.097455 174.466915 
L 274.561247 174.230582 
L 275.025039 173.368643 
L 275.488831 171.595787 
L 275.952623 162.77957 
L 276.416416 161.45103 
L 276.880208 158.682432 
L 277.344 157.209887 
L 277.807792 158.045253 
L 278.735377 161.389715 
L 279.199169 161.870057 
L 279.662961 173.49371 
L 280.126753 177.001972 
L 280.590545 177.814325 
L 281.054338 179.769808 
L 281.51813 178.821322 
L 281.981922 180.518216 
L 282.445714 172.171709 
L 282.909506 172.245768 
L 283.373299 173.016515 
L 284.300883 186.471649 
L 284.764675 190.422724 
L 285.228468 192.383122 
L 285.69226 200.626919 
L 286.156052 200.537967 
L 287.083636 190.736383 
L 287.547429 186.444227 
L 288.011221 183.321473 
L 288.475013 172.999431 
L 288.938805 172.451656 
L 289.402597 172.281184 
L 289.86639 171.737888 
L 290.330182 172.187263 
L 290.793974 183.314649 
L 291.257766 184.760674 
L 291.721558 184.651048 
L 292.185351 184.921528 
L 292.649143 182.018157 
L 293.112935 181.217294 
L 293.576727 175.47393 
L 294.040519 175.202414 
L 294.504312 175.690056 
L 294.968104 175.946908 
L 295.431896 180.194628 
L 295.895688 182.280558 
L 296.359481 182.288373 
L 296.823273 182.550661 
L 297.287065 183.238239 
L 297.750857 184.53272 
L 298.214649 184.889348 
L 298.678442 191.787029 
L 299.142234 189.199558 
L 299.606026 190.075437 
L 300.069818 189.688277 
L 300.53361 189.092833 
L 300.997403 188.866083 
L 301.461195 179.725603 
L 301.924987 180.766213 
L 302.388779 178.798641 
L 302.852571 179.335918 
L 303.316364 181.982455 
L 303.780156 189.506785 
L 304.243948 190.57946 
L 304.70774 190.567529 
L 305.171532 191.737333 
L 305.635325 191.444897 
L 306.099117 188.848593 
L 306.562909 188.072284 
L 307.026701 182.540082 
L 307.490494 184.090497 
L 307.954286 183.6182 
L 308.418078 192.474747 
L 308.88187 198.867993 
L 309.345662 192.866097 
L 309.809455 195.981969 
L 310.273247 195.275119 
L 310.737039 194.892505 
L 311.664623 178.635315 
L 312.128416 177.263638 
L 312.592208 177.568287 
L 313.056 179.14635 
L 313.519792 178.657741 
L 313.983584 177.919465 
L 314.447377 181.675499 
L 314.911169 183.181027 
L 315.374961 187.085904 
L 316.302545 198.804736 
L 316.766338 198.739802 
L 317.23013 202.631405 
L 317.693922 203.715163 
L 318.157714 208.294597 
L 318.621506 205.702573 
L 319.085299 199.963238 
L 319.549091 197.654752 
L 320.012883 198.051949 
L 320.476675 193.946938 
L 320.940468 185.603112 
L 321.40426 180.586607 
L 321.868052 179.389157 
L 322.331844 183.161273 
L 322.795636 177.330853 
L 323.259429 176.694481 
L 323.723221 177.772639 
L 324.187013 175.704037 
L 324.650805 174.342624 
L 325.114597 175.238115 
L 325.57839 173.968099 
L 326.042182 173.497976 
L 326.505974 172.362176 
L 326.969766 173.22033 
L 327.433558 174.992096 
L 327.897351 182.408939 
L 328.361143 187.600613 
L 328.824935 186.857771 
L 329.288727 194.591259 
L 329.752519 193.367048 
L 330.216312 191.702139 
L 331.143896 175.264989 
L 331.607688 186.27742 
L 332.071481 188.775438 
L 332.535273 194.022409 
L 332.999065 192.270048 
L 333.462857 194.221355 
L 333.926649 193.893352 
L 335.318026 161.950138 
L 335.781818 161.466054 
L 336.24561 160.133491 
L 336.709403 159.678375 
L 337.173195 159.003993 
L 337.636987 162.176252 
L 338.100779 158.412594 
L 338.564571 158.817379 
L 339.492156 157.426302 
L 339.955948 160.57839 
L 340.41974 160.031403 
L 340.883532 170.372459 
L 341.347325 170.810032 
L 341.811117 170.956595 
L 342.274909 171.503901 
L 342.738701 169.61293 
L 343.202494 166.911398 
L 343.666286 161.778525 
L 344.130078 158.32868 
L 344.59387 156.917605 
L 345.057662 156.323683 
L 345.985247 176.088962 
L 346.449039 178.263865 
L 346.912831 178.428578 
L 347.376623 179.19498 
L 347.840416 179.115629 
L 349.231792 152.073401 
L 349.695584 166.449219 
L 350.159377 167.293522 
L 350.623169 166.354851 
L 351.086961 167.667711 
L 351.550753 167.072564 
L 352.014545 167.804489 
L 352.478338 162.677511 
L 352.94213 169.168027 
L 353.405922 172.613198 
L 353.869714 170.458434 
L 354.333506 169.925239 
L 354.797299 171.315771 
L 355.261091 167.144752 
L 355.724883 156.832872 
L 356.188675 150.37812 
L 356.652468 149.185727 
L 357.11626 151.989982 
L 357.580052 151.455556 
L 358.043844 158.938172 
L 358.507636 157.503775 
L 359.435221 157.700598 
L 359.899013 155.543257 
L 360.362805 155.013281 
L 360.826597 147.229072 
L 361.29039 146.425908 
L 361.754182 146.893238 
L 362.217974 146.005798 
L 362.681766 146.437444 
L 363.145558 145.979397 
L 363.609351 145.354249 
L 364.073143 145.075054 
L 364.536935 145.167217 
L 365.000727 146.273294 
L 365.464519 145.902827 
L 366.392104 144.957442 
L 366.855896 145.452025 
L 367.319688 143.397565 
L 367.783481 143.58892 
L 368.247273 142.083363 
L 368.711065 138.852037 
L 369.174857 138.658971 
L 369.638649 136.779438 
L 370.102442 138.163105 
L 370.566234 136.148328 
L 371.030026 136.152556 
L 371.493818 139.188421 
L 371.95761 139.81783 
L 372.421403 140.995393 
L 372.885195 141.111521 
L 373.348987 143.43368 
L 373.812779 143.985673 
L 374.276571 143.929563 
L 374.740364 143.712806 
L 375.667948 142.220272 
L 376.595532 138.645313 
L 377.523117 137.1143 
L 378.450701 136.550661 
L 378.914494 135.804537 
L 379.378286 138.688027 
L 379.842078 138.601154 
L 380.30587 138.764515 
L 380.769662 139.451101 
L 381.233455 139.154233 
L 381.697247 141.046527 
L 382.161039 140.676999 
L 382.624831 141.86305 
L 383.088623 141.844072 
L 383.552416 140.925512 
L 384.016208 159.168993 
L 384.48 157.389682 
L 384.943792 157.291492 
L 385.871377 154.63591 
L 386.335169 153.623782 
L 386.798961 136.502793 
L 387.262753 136.230221 
L 387.726545 136.77727 
L 388.190338 136.298822 
L 389.117922 140.885072 
L 389.581714 143.910832 
L 390.045506 144.069297 
L 390.509299 142.707548 
L 390.973091 141.73076 
L 391.436883 139.688728 
L 391.900675 141.01961 
L 392.82826 139.63196 
L 393.292052 145.581767 
L 393.755844 147.490719 
L 394.219636 151.695617 
L 394.683429 150.414713 
L 395.147221 150.634129 
L 395.611013 152.084154 
L 396.074805 148.111554 
L 396.538597 157.904593 
L 397.00239 155.692094 
L 397.929974 156.466687 
L 398.393766 155.961276 
L 398.857558 155.205583 
L 399.321351 146.316934 
L 399.785143 145.667231 
L 400.248935 145.557308 
L 400.712727 145.232721 
L 401.176519 144.310843 
L 401.640312 146.241917 
L 402.104104 146.677679 
L 402.567896 144.295355 
L 403.495481 143.687261 
L 403.959273 143.23579 
L 404.423065 144.200329 
L 404.886857 153.548527 
L 405.814442 180.049506 
L 406.278234 181.108715 
L 406.742026 182.714697 
L 407.205818 183.192958 
L 408.597195 147.215936 
L 409.060987 144.592837 
L 409.524779 143.436221 
L 409.988571 148.83626 
L 410.452364 147.278726 
L 410.916156 146.755823 
L 411.379948 146.688397 
L 411.84374 147.088119 
L 412.307532 148.163758 
L 412.771325 142.697415 
L 413.235117 145.242624 
L 413.698909 146.818259 
L 414.162701 147.50657 
L 414.626494 147.515305 
L 415.090286 148.97884 
L 415.554078 148.535081 
L 416.01787 148.778787 
L 416.481662 148.610254 
L 416.945455 146.74721 
L 417.409247 146.712944 
L 417.873039 144.543481 
L 418.336831 144.971257 
L 418.800623 145.234109 
L 419.264416 145.688671 
L 419.728208 148.022126 
L 420.192 149.172401 
L 420.655792 156.435745 
L 421.119584 173.942141 
L 421.583377 173.241186 
L 422.047169 172.813804 
L 422.974753 195.332467 
L 423.438545 186.559759 
L 423.902338 172.340396 
L 424.36613 169.623686 
L 424.829922 184.424285 
L 425.293714 174.831677 
L 425.757506 162.037765 
L 426.221299 163.824053 
L 426.685091 163.945034 
L 427.148883 165.141015 
L 427.612675 147.939778 
L 428.076468 146.734375 
L 428.54026 145.951322 
L 429.004052 145.547959 
L 429.467844 145.621623 
L 429.931636 145.143134 
L 430.395429 145.88175 
L 430.859221 145.159731 
L 431.786805 144.979399 
L 432.250597 145.720323 
L 432.71439 146.176255 
L 433.178182 146.332411 
L 433.641974 146.952882 
L 434.105766 146.122586 
L 434.569558 146.211651 
L 435.497143 145.465033 
L 435.960935 144.313441 
L 436.424727 143.59707 
L 436.888519 142.666698 
L 437.352312 142.079072 
L 437.816104 143.494164 
L 438.279896 142.318802 
L 438.743688 142.958929 
L 439.207481 144.372532 
L 439.671273 146.50627 
L 440.135065 146.996552 
L 440.598857 146.602994 
L 441.062649 145.924466 
L 441.526442 146.491284 
L 442.454026 143.354309 
L 442.917818 142.868464 
L 443.38161 142.990104 
L 443.845403 144.676532 
L 444.309195 144.769839 
L 444.772987 144.044328 
L 445.236779 145.087949 
L 445.700571 144.04115 
L 446.164364 142.430545 
L 446.628156 143.375264 
L 447.55574 162.041146 
L 448.019532 160.67301 
L 448.483325 163.355569 
L 448.947117 163.207108 
L 449.410909 162.750241 
L 449.874701 153.505717 
L 450.338494 146.966235 
L 450.802286 147.70896 
L 451.266078 147.702336 
L 451.72987 147.228496 
L 452.193662 146.58511 
L 452.657455 147.930452 
L 453.585039 145.187154 
L 454.048831 145.595469 
L 454.512623 147.181543 
L 455.440208 148.041084 
L 455.904 150.061235 
L 456.367792 150.386755 
L 456.831584 150.075524 
L 457.295377 150.911672 
L 458.222961 151.722127 
L 458.686753 151.682109 
L 459.150545 153.163803 
L 459.614338 152.725474 
L 460.07813 158.492477 
L 460.541922 167.174955 
L 461.005714 168.166754 
L 461.469506 179.295288 
L 461.933299 180.333323 
L 462.397091 192.239619 
L 462.860883 187.314267 
L 463.324675 190.155538 
L 463.788468 196.35628 
L 464.25226 188.316456 
L 464.716052 187.120577 
L 465.179844 179.435218 
L 465.643636 178.201307 
L 466.571221 162.780253 
L 467.035013 172.053854 
L 467.498805 171.642917 
L 467.962597 171.472654 
L 468.42639 172.953267 
L 468.890182 173.747121 
L 469.353974 176.110564 
L 469.817766 167.910106 
L 470.281558 167.239424 
L 470.745351 167.848591 
L 471.209143 168.009017 
L 471.672935 169.101783 
L 472.136727 167.828253 
L 472.600519 167.872597 
L 473.528104 179.219689 
L 473.991896 189.259882 
L 474.455688 187.352468 
L 474.919481 187.678571 
L 475.383273 187.841166 
L 475.847065 183.724352 
L 476.310857 178.115623 
L 476.774649 166.230326 
L 477.238442 164.521596 
L 478.166026 166.825899 
L 478.629818 165.994439 
L 479.09361 167.031493 
L 479.557403 170.229894 
L 480.021195 171.141822 
L 481.412571 198.256028 
L 482.803948 218.608669 
L 483.26774 218.728876 
L 483.731532 217.911034 
L 484.195325 212.146656 
L 484.659117 212.182527 
L 486.050494 192.140298 
L 486.514286 185.564087 
L 486.978078 187.050779 
L 487.44187 188.985972 
L 487.905662 189.276008 
L 488.833247 205.986985 
L 489.297039 209.492666 
L 489.760831 208.952862 
L 490.224623 204.260823 
L 490.688416 203.799159 
L 491.152208 201.670824 
L 492.079792 189.467785 
L 493.007377 187.557304 
L 493.471169 187.529543 
L 493.934961 186.794293 
L 494.398753 192.317894 
L 494.862545 192.925551 
L 495.326338 192.287216 
L 495.79013 199.567027 
L 496.253922 203.338795 
L 496.717714 204.313569 
L 497.181506 194.721825 
L 498.109091 189.065229 
L 498.109091 189.065229 
" clip-path="url(#p56d59c98a6)" style="fill: none; stroke: #ff7f0e; stroke-width: 1.5; stroke-linecap: round"/>
   </g>
   <g id="patch_3">
    <path d="M 72 384.48 
L 72 51.84 
" style="fill: none; stroke: #ffffff; stroke-width: 0.8; stroke-linejoin: miter; stroke-linecap: square"/>
   </g>
   <g id="patch_4">
    <path d="M 518.4 384.48 
L 518.4 51.84 
" style="fill: none; stroke: #ffffff; stroke-width: 0.8; stroke-linejoin: miter; stroke-linecap: square"/>
   </g>
   <g id="patch_5">
    <path d="M 72 384.48 
L 518.4 384.48 
" style="fill: none; stroke: #ffffff; stroke-width: 0.8; stroke-linejoin: miter; stroke-linecap: square"/>
   </g>
   <g id="patch_6">
    <path d="M 72 51.84 
L 518.4 51.84 
" style="fill: none; stroke: #ffffff; stroke-width: 0.8; stroke-linejoin: miter; stroke-linecap: square"/>
   </g>
   <g id="text_15">
    <!-- Maximum Solar Radiation Prediction 2 Days Ahead -->
    <g style="fill: #262626" transform="translate(159.139687 45.84) scale(0.12 -0.12)">
     <defs>
      <path id="ArialMT-4d" d="M 475 0 
L 475 4581 
L 1388 4581 
L 2472 1338 
Q 2622 884 2691 659 
Q 2769 909 2934 1394 
L 4031 4581 
L 4847 4581 
L 4847 0 
L 4263 0 
L 4263 3834 
L 2931 0 
L 2384 0 
L 1059 3900 
L 1059 0 
L 475 0 
z
" transform="scale(0.015625)"/>
      <path id="ArialMT-78" d="M 47 0 
L 1259 1725 
L 138 3319 
L 841 3319 
L 1350 2541 
Q 1494 2319 1581 2169 
Q 1719 2375 1834 2534 
L 2394 3319 
L 3066 3319 
L 1919 1756 
L 3153 0 
L 2463 0 
L 1781 1031 
L 1600 1309 
L 728 0 
L 47 0 
z
" transform="scale(0.015625)"/>
      <path id="ArialMT-69" d="M 425 3934 
L 425 4581 
L 988 4581 
L 988 3934 
L 425 3934 
z
M 425 0 
L 425 3319 
L 988 3319 
L 988 0 
L 425 0 
z
" transform="scale(0.015625)"/>
      <path id="ArialMT-75" d="M 2597 0 
L 2597 488 
Q 2209 -75 1544 -75 
Q 1250 -75 995 37 
Q 741 150 617 320 
Q 494 491 444 738 
Q 409 903 409 1263 
L 409 3319 
L 972 3319 
L 972 1478 
Q 972 1038 1006 884 
Q 1059 663 1231 536 
Q 1403 409 1656 409 
Q 1909 409 2131 539 
Q 2353 669 2445 892 
Q 2538 1116 2538 1541 
L 2538 3319 
L 3100 3319 
L 3100 0 
L 2597 0 
z
" transform="scale(0.015625)"/>
      <path id="ArialMT-20" transform="scale(0.015625)"/>
      <path id="ArialMT-53" d="M 288 1472 
L 859 1522 
Q 900 1178 1048 958 
Q 1197 738 1509 602 
Q 1822 466 2213 466 
Q 2559 466 2825 569 
Q 3091 672 3220 851 
Q 3350 1031 3350 1244 
Q 3350 1459 3225 1620 
Q 3100 1781 2813 1891 
Q 2628 1963 1997 2114 
Q 1366 2266 1113 2400 
Q 784 2572 623 2826 
Q 463 3081 463 3397 
Q 463 3744 659 4045 
Q 856 4347 1234 4503 
Q 1613 4659 2075 4659 
Q 2584 4659 2973 4495 
Q 3363 4331 3572 4012 
Q 3781 3694 3797 3291 
L 3216 3247 
Q 3169 3681 2898 3903 
Q 2628 4125 2100 4125 
Q 1550 4125 1298 3923 
Q 1047 3722 1047 3438 
Q 1047 3191 1225 3031 
Q 1400 2872 2139 2705 
Q 2878 2538 3153 2413 
Q 3553 2228 3743 1945 
Q 3934 1663 3934 1294 
Q 3934 928 3725 604 
Q 3516 281 3123 101 
Q 2731 -78 2241 -78 
Q 1619 -78 1198 103 
Q 778 284 539 648 
Q 300 1013 288 1472 
z
" transform="scale(0.015625)"/>
      <path id="ArialMT-6f" d="M 213 1659 
Q 213 2581 725 3025 
Q 1153 3394 1769 3394 
Q 2453 3394 2887 2945 
Q 3322 2497 3322 1706 
Q 3322 1066 3130 698 
Q 2938 331 2570 128 
Q 2203 -75 1769 -75 
Q 1072 -75 642 372 
Q 213 819 213 1659 
z
M 791 1659 
Q 791 1022 1069 705 
Q 1347 388 1769 388 
Q 2188 388 2466 706 
Q 2744 1025 2744 1678 
Q 2744 2294 2464 2611 
Q 2184 2928 1769 2928 
Q 1347 2928 1069 2612 
Q 791 2297 791 1659 
z
" transform="scale(0.015625)"/>
      <path id="ArialMT-6c" d="M 409 0 
L 409 4581 
L 972 4581 
L 972 0 
L 409 0 
z
" transform="scale(0.015625)"/>
      <path id="ArialMT-72" d="M 416 0 
L 416 3319 
L 922 3319 
L 922 2816 
Q 1116 3169 1280 3281 
Q 1444 3394 1641 3394 
Q 1925 3394 2219 3213 
L 2025 2691 
Q 1819 2813 1613 2813 
Q 1428 2813 1281 2702 
Q 1134 2591 1072 2394 
Q 978 2094 978 1738 
L 978 0 
L 416 0 
z
" transform="scale(0.015625)"/>
      <path id="ArialMT-52" d="M 503 0 
L 503 4581 
L 2534 4581 
Q 3147 4581 3465 4457 
Q 3784 4334 3975 4021 
Q 4166 3709 4166 3331 
Q 4166 2844 3850 2509 
Q 3534 2175 2875 2084 
Q 3116 1969 3241 1856 
Q 3506 1613 3744 1247 
L 4541 0 
L 3778 0 
L 3172 953 
Q 2906 1366 2734 1584 
Q 2563 1803 2427 1890 
Q 2291 1978 2150 2013 
Q 2047 2034 1813 2034 
L 1109 2034 
L 1109 0 
L 503 0 
z
M 1109 2559 
L 2413 2559 
Q 2828 2559 3062 2645 
Q 3297 2731 3419 2920 
Q 3541 3109 3541 3331 
Q 3541 3656 3305 3865 
Q 3069 4075 2559 4075 
L 1109 4075 
L 1109 2559 
z
" transform="scale(0.015625)"/>
      <path id="ArialMT-64" d="M 2575 0 
L 2575 419 
Q 2259 -75 1647 -75 
Q 1250 -75 917 144 
Q 584 363 401 755 
Q 219 1147 219 1656 
Q 219 2153 384 2558 
Q 550 2963 881 3178 
Q 1213 3394 1622 3394 
Q 1922 3394 2156 3267 
Q 2391 3141 2538 2938 
L 2538 4581 
L 3097 4581 
L 3097 0 
L 2575 0 
z
M 797 1656 
Q 797 1019 1065 703 
Q 1334 388 1700 388 
Q 2069 388 2326 689 
Q 2584 991 2584 1609 
Q 2584 2291 2321 2609 
Q 2059 2928 1675 2928 
Q 1300 2928 1048 2622 
Q 797 2316 797 1656 
z
" transform="scale(0.015625)"/>
      <path id="ArialMT-74" d="M 1650 503 
L 1731 6 
Q 1494 -44 1306 -44 
Q 1000 -44 831 53 
Q 663 150 594 308 
Q 525 466 525 972 
L 525 2881 
L 113 2881 
L 113 3319 
L 525 3319 
L 525 4141 
L 1084 4478 
L 1084 3319 
L 1650 3319 
L 1650 2881 
L 1084 2881 
L 1084 941 
Q 1084 700 1114 631 
Q 1144 563 1211 522 
Q 1278 481 1403 481 
Q 1497 481 1650 503 
z
" transform="scale(0.015625)"/>
      <path id="ArialMT-6e" d="M 422 0 
L 422 3319 
L 928 3319 
L 928 2847 
Q 1294 3394 1984 3394 
Q 2284 3394 2536 3286 
Q 2788 3178 2913 3003 
Q 3038 2828 3088 2588 
Q 3119 2431 3119 2041 
L 3119 0 
L 2556 0 
L 2556 2019 
Q 2556 2363 2490 2533 
Q 2425 2703 2258 2804 
Q 2091 2906 1866 2906 
Q 1506 2906 1245 2678 
Q 984 2450 984 1813 
L 984 0 
L 422 0 
z
" transform="scale(0.015625)"/>
      <path id="ArialMT-50" d="M 494 0 
L 494 4581 
L 2222 4581 
Q 2678 4581 2919 4538 
Q 3256 4481 3484 4323 
Q 3713 4166 3852 3881 
Q 3991 3597 3991 3256 
Q 3991 2672 3619 2267 
Q 3247 1863 2275 1863 
L 1100 1863 
L 1100 0 
L 494 0 
z
M 1100 2403 
L 2284 2403 
Q 2872 2403 3119 2622 
Q 3366 2841 3366 3238 
Q 3366 3525 3220 3729 
Q 3075 3934 2838 4000 
Q 2684 4041 2272 4041 
L 1100 4041 
L 1100 2403 
z
" transform="scale(0.015625)"/>
      <path id="ArialMT-65" d="M 2694 1069 
L 3275 997 
Q 3138 488 2766 206 
Q 2394 -75 1816 -75 
Q 1088 -75 661 373 
Q 234 822 234 1631 
Q 234 2469 665 2931 
Q 1097 3394 1784 3394 
Q 2450 3394 2872 2941 
Q 3294 2488 3294 1666 
Q 3294 1616 3291 1516 
L 816 1516 
Q 847 969 1125 678 
Q 1403 388 1819 388 
Q 2128 388 2347 550 
Q 2566 713 2694 1069 
z
M 847 1978 
L 2700 1978 
Q 2663 2397 2488 2606 
Q 2219 2931 1791 2931 
Q 1403 2931 1139 2672 
Q 875 2413 847 1978 
z
" transform="scale(0.015625)"/>
      <path id="ArialMT-63" d="M 2588 1216 
L 3141 1144 
Q 3050 572 2676 248 
Q 2303 -75 1759 -75 
Q 1078 -75 664 370 
Q 250 816 250 1647 
Q 250 2184 428 2587 
Q 606 2991 970 3192 
Q 1334 3394 1763 3394 
Q 2303 3394 2647 3120 
Q 2991 2847 3088 2344 
L 2541 2259 
Q 2463 2594 2264 2762 
Q 2066 2931 1784 2931 
Q 1359 2931 1093 2626 
Q 828 2322 828 1663 
Q 828 994 1084 691 
Q 1341 388 1753 388 
Q 2084 388 2306 591 
Q 2528 794 2588 1216 
z
" transform="scale(0.015625)"/>
      <path id="ArialMT-41" d="M -9 0 
L 1750 4581 
L 2403 4581 
L 4278 0 
L 3588 0 
L 3053 1388 
L 1138 1388 
L 634 0 
L -9 0 
z
M 1313 1881 
L 2866 1881 
L 2388 3150 
Q 2169 3728 2063 4100 
Q 1975 3659 1816 3225 
L 1313 1881 
z
" transform="scale(0.015625)"/>
      <path id="ArialMT-68" d="M 422 0 
L 422 4581 
L 984 4581 
L 984 2938 
Q 1378 3394 1978 3394 
Q 2347 3394 2619 3248 
Q 2891 3103 3008 2847 
Q 3125 2591 3125 2103 
L 3125 0 
L 2563 0 
L 2563 2103 
Q 2563 2525 2380 2717 
Q 2197 2909 1863 2909 
Q 1613 2909 1392 2779 
Q 1172 2650 1078 2428 
Q 984 2206 984 1816 
L 984 0 
L 422 0 
z
" transform="scale(0.015625)"/>
     </defs>
     <use xlink:href="#ArialMT-4d"/>
     <use xlink:href="#ArialMT-61" x="83.300781"/>
     <use xlink:href="#ArialMT-78" x="138.916016"/>
     <use xlink:href="#ArialMT-69" x="188.916016"/>
     <use xlink:href="#ArialMT-6d" x="211.132812"/>
     <use xlink:href="#ArialMT-75" x="294.433594"/>
     <use xlink:href="#ArialMT-6d" x="350.048828"/>
     <use xlink:href="#ArialMT-20" x="433.349609"/>
     <use xlink:href="#ArialMT-53" x="461.132812"/>
     <use xlink:href="#ArialMT-6f" x="527.832031"/>
     <use xlink:href="#ArialMT-6c" x="583.447266"/>
     <use xlink:href="#ArialMT-61" x="605.664062"/>
     <use xlink:href="#ArialMT-72" x="661.279297"/>
     <use xlink:href="#ArialMT-20" x="694.580078"/>
     <use xlink:href="#ArialMT-52" x="722.363281"/>
     <use xlink:href="#ArialMT-61" x="794.580078"/>
     <use xlink:href="#ArialMT-64" x="850.195312"/>
     <use xlink:href="#ArialMT-69" x="905.810547"/>
     <use xlink:href="#ArialMT-61" x="928.027344"/>
     <use xlink:href="#ArialMT-74" x="983.642578"/>
     <use xlink:href="#ArialMT-69" x="1011.425781"/>
     <use xlink:href="#ArialMT-6f" x="1033.642578"/>
     <use xlink:href="#ArialMT-6e" x="1089.257812"/>
     <use xlink:href="#ArialMT-20" x="1144.873047"/>
     <use xlink:href="#ArialMT-50" x="1172.65625"/>
     <use xlink:href="#ArialMT-72" x="1239.355469"/>
     <use xlink:href="#ArialMT-65" x="1272.65625"/>
     <use xlink:href="#ArialMT-64" x="1328.271484"/>
     <use xlink:href="#ArialMT-69" x="1383.886719"/>
     <use xlink:href="#ArialMT-63" x="1406.103516"/>
     <use xlink:href="#ArialMT-74" x="1456.103516"/>
     <use xlink:href="#ArialMT-69" x="1483.886719"/>
     <use xlink:href="#ArialMT-6f" x="1506.103516"/>
     <use xlink:href="#ArialMT-6e" x="1561.71875"/>
     <use xlink:href="#ArialMT-20" x="1617.333984"/>
     <use xlink:href="#ArialMT-32" x="1645.117188"/>
     <use xlink:href="#ArialMT-20" x="1700.732422"/>
     <use xlink:href="#ArialMT-44" x="1728.515625"/>
     <use xlink:href="#ArialMT-61" x="1800.732422"/>
     <use xlink:href="#ArialMT-79" x="1856.347656"/>
     <use xlink:href="#ArialMT-73" x="1906.347656"/>
     <use xlink:href="#ArialMT-20" x="1956.347656"/>
     <use xlink:href="#ArialMT-41" x="1978.630859"/>
     <use xlink:href="#ArialMT-68" x="2045.330078"/>
     <use xlink:href="#ArialMT-65" x="2100.945312"/>
     <use xlink:href="#ArialMT-61" x="2156.560547"/>
     <use xlink:href="#ArialMT-64" x="2212.175781"/>
    </g>
   </g>
   <g id="legend_1">
    <g id="patch_7">
     <path d="M 437.15625 88.130625 
L 511.4 88.130625 
Q 513.4 88.130625 513.4 86.130625 
L 513.4 58.84 
Q 513.4 56.84 511.4 56.84 
L 437.15625 56.84 
Q 435.15625 56.84 435.15625 58.84 
L 435.15625 86.130625 
Q 435.15625 88.130625 437.15625 88.130625 
z
" style="fill: #eaeaf2; opacity: 0.8; stroke: #cccccc; stroke-linejoin: miter"/>
    </g>
    <g id="line2d_15">
     <path d="M 439.15625 64.497812 
L 449.15625 64.497812 
L 459.15625 64.497812 
" style="fill: none; stroke: #1f77b4; stroke-width: 1.5; stroke-linecap: round"/>
    </g>
    <g id="text_16">
     <!-- Real -->
     <g style="fill: #262626" transform="translate(467.15625 67.997812) scale(0.1 -0.1)">
      <use xlink:href="#ArialMT-52"/>
      <use xlink:href="#ArialMT-65" x="72.216797"/>
      <use xlink:href="#ArialMT-61" x="127.832031"/>
      <use xlink:href="#ArialMT-6c" x="183.447266"/>
     </g>
    </g>
    <g id="line2d_16">
     <path d="M 439.15625 78.643125 
L 449.15625 78.643125 
L 459.15625 78.643125 
" style="fill: none; stroke: #ff7f0e; stroke-width: 1.5; stroke-linecap: round"/>
    </g>
    <g id="text_17">
     <!-- Predicted -->
     <g style="fill: #262626" transform="translate(467.15625 82.143125) scale(0.1 -0.1)">
      <use xlink:href="#ArialMT-50"/>
      <use xlink:href="#ArialMT-72" x="66.699219"/>
      <use xlink:href="#ArialMT-65" x="100"/>
      <use xlink:href="#ArialMT-64" x="155.615234"/>
      <use xlink:href="#ArialMT-69" x="211.230469"/>
      <use xlink:href="#ArialMT-63" x="233.447266"/>
      <use xlink:href="#ArialMT-74" x="283.447266"/>
      <use xlink:href="#ArialMT-65" x="311.230469"/>
      <use xlink:href="#ArialMT-64" x="366.845703"/>
     </g>
    </g>
   </g>
  </g>
 </g>
 <defs>
  <clipPath id="p56d59c98a6">
   <rect x="72" y="51.84" width="446.4" height="332.64"/>
  </clipPath>
 </defs>
</svg>
