<?xml version="1.0" encoding="utf-8" standalone="no"?>
<!DOCTYPE svg PUBLIC "-//W3C//DTD SVG 1.1//EN"
  "http://www.w3.org/Graphics/SVG/1.1/DTD/svg11.dtd">
<svg xmlns:xlink="http://www.w3.org/1999/xlink" width="576pt" height="432pt" viewBox="0 0 576 432" xmlns="http://www.w3.org/2000/svg" version="1.1">
 <metadata>
  <rdf:RDF xmlns:dc="http://purl.org/dc/elements/1.1/" xmlns:cc="http://creativecommons.org/ns#" xmlns:rdf="http://www.w3.org/1999/02/22-rdf-syntax-ns#">
   <cc:Work>
    <dc:type rdf:resource="http://purl.org/dc/dcmitype/StillImage"/>
    <dc:date>2023-11-17T05:04:55.387308</dc:date>
    <dc:format>image/svg+xml</dc:format>
    <dc:creator>
     <cc:Agent>
      <dc:title>Matplotlib v3.8.0, https://matplotlib.org/</dc:title>
     </cc:Agent>
    </dc:creator>
   </cc:Work>
  </rdf:RDF>
 </metadata>
 <defs>
  <style type="text/css">*{stroke-linejoin: round; stroke-linecap: butt}</style>
 </defs>
 <g id="figure_1">
  <g id="patch_1">
   <path d="M 0 432 
L 576 432 
L 576 0 
L 0 0 
z
" style="fill: #ffffff"/>
  </g>
  <g id="axes_1">
   <g id="patch_2">
    <path d="M 72 384.48 
L 518.4 384.48 
L 518.4 51.84 
L 72 51.84 
z
" style="fill: #eaeaf2"/>
   </g>
   <g id="matplotlib.axis_1">
    <g id="xtick_1">
     <g id="line2d_1">
      <path d="M 92.290909 384.48 
L 92.290909 51.84 
" clip-path="url(#p14011e944a)" style="fill: none; stroke: #ffffff; stroke-width: 0.8; stroke-linecap: round"/>
     </g>
     <g id="text_1">
      <!-- 0 -->
      <g style="fill: #262626" transform="translate(89.51044 398.637812) scale(0.1 -0.1)">
       <defs>
        <path id="ArialMT-30" d="M 266 2259 
Q 266 3072 433 3567 
Q 600 4063 929 4331 
Q 1259 4600 1759 4600 
Q 2128 4600 2406 4451 
Q 2684 4303 2865 4023 
Q 3047 3744 3150 3342 
Q 3253 2941 3253 2259 
Q 3253 1453 3087 958 
Q 2922 463 2592 192 
Q 2263 -78 1759 -78 
Q 1097 -78 719 397 
Q 266 969 266 2259 
z
M 844 2259 
Q 844 1131 1108 757 
Q 1372 384 1759 384 
Q 2147 384 2411 759 
Q 2675 1134 2675 2259 
Q 2675 3391 2411 3762 
Q 2147 4134 1753 4134 
Q 1366 4134 1134 3806 
Q 844 3388 844 2259 
z
" transform="scale(0.015625)"/>
       </defs>
       <use xlink:href="#ArialMT-30"/>
      </g>
     </g>
    </g>
    <g id="xtick_2">
     <g id="line2d_2">
      <path d="M 185.049351 384.48 
L 185.049351 51.84 
" clip-path="url(#p14011e944a)" style="fill: none; stroke: #ffffff; stroke-width: 0.8; stroke-linecap: round"/>
     </g>
     <g id="text_2">
      <!-- 200 -->
      <g style="fill: #262626" transform="translate(176.707944 398.637812) scale(0.1 -0.1)">
       <defs>
        <path id="ArialMT-32" d="M 3222 541 
L 3222 0 
L 194 0 
Q 188 203 259 391 
Q 375 700 629 1000 
Q 884 1300 1366 1694 
Q 2113 2306 2375 2664 
Q 2638 3022 2638 3341 
Q 2638 3675 2398 3904 
Q 2159 4134 1775 4134 
Q 1369 4134 1125 3890 
Q 881 3647 878 3216 
L 300 3275 
Q 359 3922 746 4261 
Q 1134 4600 1788 4600 
Q 2447 4600 2831 4234 
Q 3216 3869 3216 3328 
Q 3216 3053 3103 2787 
Q 2991 2522 2730 2228 
Q 2469 1934 1863 1422 
Q 1356 997 1212 845 
Q 1069 694 975 541 
L 3222 541 
z
" transform="scale(0.015625)"/>
       </defs>
       <use xlink:href="#ArialMT-32"/>
       <use xlink:href="#ArialMT-30" x="55.615234"/>
       <use xlink:href="#ArialMT-30" x="111.230469"/>
      </g>
     </g>
    </g>
    <g id="xtick_3">
     <g id="line2d_3">
      <path d="M 277.807792 384.48 
L 277.807792 51.84 
" clip-path="url(#p14011e944a)" style="fill: none; stroke: #ffffff; stroke-width: 0.8; stroke-linecap: round"/>
     </g>
     <g id="text_3">
      <!-- 400 -->
      <g style="fill: #262626" transform="translate(269.466386 398.637812) scale(0.1 -0.1)">
       <defs>
        <path id="ArialMT-34" d="M 2069 0 
L 2069 1097 
L 81 1097 
L 81 1613 
L 2172 4581 
L 2631 4581 
L 2631 1613 
L 3250 1613 
L 3250 1097 
L 2631 1097 
L 2631 0 
L 2069 0 
z
M 2069 1613 
L 2069 3678 
L 634 1613 
L 2069 1613 
z
" transform="scale(0.015625)"/>
       </defs>
       <use xlink:href="#ArialMT-34"/>
       <use xlink:href="#ArialMT-30" x="55.615234"/>
       <use xlink:href="#ArialMT-30" x="111.230469"/>
      </g>
     </g>
    </g>
    <g id="xtick_4">
     <g id="line2d_4">
      <path d="M 370.566234 384.48 
L 370.566234 51.84 
" clip-path="url(#p14011e944a)" style="fill: none; stroke: #ffffff; stroke-width: 0.8; stroke-linecap: round"/>
     </g>
     <g id="text_4">
      <!-- 600 -->
      <g style="fill: #262626" transform="translate(362.224828 398.637812) scale(0.1 -0.1)">
       <defs>
        <path id="ArialMT-36" d="M 3184 3459 
L 2625 3416 
Q 2550 3747 2413 3897 
Q 2184 4138 1850 4138 
Q 1581 4138 1378 3988 
Q 1113 3794 959 3422 
Q 806 3050 800 2363 
Q 1003 2672 1297 2822 
Q 1591 2972 1913 2972 
Q 2475 2972 2870 2558 
Q 3266 2144 3266 1488 
Q 3266 1056 3080 686 
Q 2894 316 2569 119 
Q 2244 -78 1831 -78 
Q 1128 -78 684 439 
Q 241 956 241 2144 
Q 241 3472 731 4075 
Q 1159 4600 1884 4600 
Q 2425 4600 2770 4297 
Q 3116 3994 3184 3459 
z
M 888 1484 
Q 888 1194 1011 928 
Q 1134 663 1356 523 
Q 1578 384 1822 384 
Q 2178 384 2434 671 
Q 2691 959 2691 1453 
Q 2691 1928 2437 2201 
Q 2184 2475 1800 2475 
Q 1419 2475 1153 2201 
Q 888 1928 888 1484 
z
" transform="scale(0.015625)"/>
       </defs>
       <use xlink:href="#ArialMT-36"/>
       <use xlink:href="#ArialMT-30" x="55.615234"/>
       <use xlink:href="#ArialMT-30" x="111.230469"/>
      </g>
     </g>
    </g>
    <g id="xtick_5">
     <g id="line2d_5">
      <path d="M 463.324675 384.48 
L 463.324675 51.84 
" clip-path="url(#p14011e944a)" style="fill: none; stroke: #ffffff; stroke-width: 0.8; stroke-linecap: round"/>
     </g>
     <g id="text_5">
      <!-- 800 -->
      <g style="fill: #262626" transform="translate(454.983269 398.637812) scale(0.1 -0.1)">
       <defs>
        <path id="ArialMT-38" d="M 1131 2484 
Q 781 2613 612 2850 
Q 444 3088 444 3419 
Q 444 3919 803 4259 
Q 1163 4600 1759 4600 
Q 2359 4600 2725 4251 
Q 3091 3903 3091 3403 
Q 3091 3084 2923 2848 
Q 2756 2613 2416 2484 
Q 2838 2347 3058 2040 
Q 3278 1734 3278 1309 
Q 3278 722 2862 322 
Q 2447 -78 1769 -78 
Q 1091 -78 675 323 
Q 259 725 259 1325 
Q 259 1772 486 2073 
Q 713 2375 1131 2484 
z
M 1019 3438 
Q 1019 3113 1228 2906 
Q 1438 2700 1772 2700 
Q 2097 2700 2305 2904 
Q 2513 3109 2513 3406 
Q 2513 3716 2298 3927 
Q 2084 4138 1766 4138 
Q 1444 4138 1231 3931 
Q 1019 3725 1019 3438 
z
M 838 1322 
Q 838 1081 952 856 
Q 1066 631 1291 507 
Q 1516 384 1775 384 
Q 2178 384 2440 643 
Q 2703 903 2703 1303 
Q 2703 1709 2433 1975 
Q 2163 2241 1756 2241 
Q 1359 2241 1098 1978 
Q 838 1716 838 1322 
z
" transform="scale(0.015625)"/>
       </defs>
       <use xlink:href="#ArialMT-38"/>
       <use xlink:href="#ArialMT-30" x="55.615234"/>
       <use xlink:href="#ArialMT-30" x="111.230469"/>
      </g>
     </g>
    </g>
    <g id="text_6">
     <!-- Days -->
     <g style="fill: #262626" transform="translate(283.808594 411.783125) scale(0.1 -0.1)">
      <defs>
       <path id="ArialMT-44" d="M 494 0 
L 494 4581 
L 2072 4581 
Q 2606 4581 2888 4516 
Q 3281 4425 3559 4188 
Q 3922 3881 4101 3404 
Q 4281 2928 4281 2316 
Q 4281 1794 4159 1391 
Q 4038 988 3847 723 
Q 3656 459 3429 307 
Q 3203 156 2883 78 
Q 2563 0 2147 0 
L 494 0 
z
M 1100 541 
L 2078 541 
Q 2531 541 2789 625 
Q 3047 709 3200 863 
Q 3416 1078 3536 1442 
Q 3656 1806 3656 2325 
Q 3656 3044 3420 3430 
Q 3184 3816 2847 3947 
Q 2603 4041 2063 4041 
L 1100 4041 
L 1100 541 
z
" transform="scale(0.015625)"/>
       <path id="ArialMT-61" d="M 2588 409 
Q 2275 144 1986 34 
Q 1697 -75 1366 -75 
Q 819 -75 525 192 
Q 231 459 231 875 
Q 231 1119 342 1320 
Q 453 1522 633 1644 
Q 813 1766 1038 1828 
Q 1203 1872 1538 1913 
Q 2219 1994 2541 2106 
Q 2544 2222 2544 2253 
Q 2544 2597 2384 2738 
Q 2169 2928 1744 2928 
Q 1347 2928 1158 2789 
Q 969 2650 878 2297 
L 328 2372 
Q 403 2725 575 2942 
Q 747 3159 1072 3276 
Q 1397 3394 1825 3394 
Q 2250 3394 2515 3294 
Q 2781 3194 2906 3042 
Q 3031 2891 3081 2659 
Q 3109 2516 3109 2141 
L 3109 1391 
Q 3109 606 3145 398 
Q 3181 191 3288 0 
L 2700 0 
Q 2613 175 2588 409 
z
M 2541 1666 
Q 2234 1541 1622 1453 
Q 1275 1403 1131 1340 
Q 988 1278 909 1158 
Q 831 1038 831 891 
Q 831 666 1001 516 
Q 1172 366 1500 366 
Q 1825 366 2078 508 
Q 2331 650 2450 897 
Q 2541 1088 2541 1459 
L 2541 1666 
z
" transform="scale(0.015625)"/>
       <path id="ArialMT-79" d="M 397 -1278 
L 334 -750 
Q 519 -800 656 -800 
Q 844 -800 956 -737 
Q 1069 -675 1141 -563 
Q 1194 -478 1313 -144 
Q 1328 -97 1363 -6 
L 103 3319 
L 709 3319 
L 1400 1397 
Q 1534 1031 1641 628 
Q 1738 1016 1872 1384 
L 2581 3319 
L 3144 3319 
L 1881 -56 
Q 1678 -603 1566 -809 
Q 1416 -1088 1222 -1217 
Q 1028 -1347 759 -1347 
Q 597 -1347 397 -1278 
z
" transform="scale(0.015625)"/>
       <path id="ArialMT-73" d="M 197 991 
L 753 1078 
Q 800 744 1014 566 
Q 1228 388 1613 388 
Q 2000 388 2187 545 
Q 2375 703 2375 916 
Q 2375 1106 2209 1216 
Q 2094 1291 1634 1406 
Q 1016 1563 777 1677 
Q 538 1791 414 1992 
Q 291 2194 291 2438 
Q 291 2659 392 2848 
Q 494 3038 669 3163 
Q 800 3259 1026 3326 
Q 1253 3394 1513 3394 
Q 1903 3394 2198 3281 
Q 2494 3169 2634 2976 
Q 2775 2784 2828 2463 
L 2278 2388 
Q 2241 2644 2061 2787 
Q 1881 2931 1553 2931 
Q 1166 2931 1000 2803 
Q 834 2675 834 2503 
Q 834 2394 903 2306 
Q 972 2216 1119 2156 
Q 1203 2125 1616 2013 
Q 2213 1853 2448 1751 
Q 2684 1650 2818 1456 
Q 2953 1263 2953 975 
Q 2953 694 2789 445 
Q 2625 197 2315 61 
Q 2006 -75 1616 -75 
Q 969 -75 630 194 
Q 291 463 197 991 
z
" transform="scale(0.015625)"/>
      </defs>
      <use xlink:href="#ArialMT-44"/>
      <use xlink:href="#ArialMT-61" x="72.216797"/>
      <use xlink:href="#ArialMT-79" x="127.832031"/>
      <use xlink:href="#ArialMT-73" x="177.832031"/>
     </g>
    </g>
   </g>
   <g id="matplotlib.axis_2">
    <g id="ytick_1">
     <g id="line2d_6">
      <path d="M 72 377.823157 
L 518.4 377.823157 
" clip-path="url(#p14011e944a)" style="fill: none; stroke: #ffffff; stroke-width: 0.8; stroke-linecap: round"/>
     </g>
     <g id="text_7">
      <!-- 2.5 -->
      <g style="fill: #262626" transform="translate(51.1 381.402063) scale(0.1 -0.1)">
       <defs>
        <path id="ArialMT-2e" d="M 581 0 
L 581 641 
L 1222 641 
L 1222 0 
L 581 0 
z
" transform="scale(0.015625)"/>
        <path id="ArialMT-35" d="M 266 1200 
L 856 1250 
Q 922 819 1161 601 
Q 1400 384 1738 384 
Q 2144 384 2425 690 
Q 2706 997 2706 1503 
Q 2706 1984 2436 2262 
Q 2166 2541 1728 2541 
Q 1456 2541 1237 2417 
Q 1019 2294 894 2097 
L 366 2166 
L 809 4519 
L 3088 4519 
L 3088 3981 
L 1259 3981 
L 1013 2750 
Q 1425 3038 1878 3038 
Q 2478 3038 2890 2622 
Q 3303 2206 3303 1553 
Q 3303 931 2941 478 
Q 2500 -78 1738 -78 
Q 1113 -78 717 272 
Q 322 622 266 1200 
z
" transform="scale(0.015625)"/>
       </defs>
       <use xlink:href="#ArialMT-32"/>
       <use xlink:href="#ArialMT-2e" x="55.615234"/>
       <use xlink:href="#ArialMT-35" x="83.398438"/>
      </g>
     </g>
    </g>
    <g id="ytick_2">
     <g id="line2d_7">
      <path d="M 72 335.783796 
L 518.4 335.783796 
" clip-path="url(#p14011e944a)" style="fill: none; stroke: #ffffff; stroke-width: 0.8; stroke-linecap: round"/>
     </g>
     <g id="text_8">
      <!-- 5.0 -->
      <g style="fill: #262626" transform="translate(51.1 339.362703) scale(0.1 -0.1)">
       <use xlink:href="#ArialMT-35"/>
       <use xlink:href="#ArialMT-2e" x="55.615234"/>
       <use xlink:href="#ArialMT-30" x="83.398438"/>
      </g>
     </g>
    </g>
    <g id="ytick_3">
     <g id="line2d_8">
      <path d="M 72 293.744436 
L 518.4 293.744436 
" clip-path="url(#p14011e944a)" style="fill: none; stroke: #ffffff; stroke-width: 0.8; stroke-linecap: round"/>
     </g>
     <g id="text_9">
      <!-- 7.5 -->
      <g style="fill: #262626" transform="translate(51.1 297.323342) scale(0.1 -0.1)">
       <defs>
        <path id="ArialMT-37" d="M 303 3981 
L 303 4522 
L 3269 4522 
L 3269 4084 
Q 2831 3619 2401 2847 
Q 1972 2075 1738 1259 
Q 1569 684 1522 0 
L 944 0 
Q 953 541 1156 1306 
Q 1359 2072 1739 2783 
Q 2119 3494 2547 3981 
L 303 3981 
z
" transform="scale(0.015625)"/>
       </defs>
       <use xlink:href="#ArialMT-37"/>
       <use xlink:href="#ArialMT-2e" x="55.615234"/>
       <use xlink:href="#ArialMT-35" x="83.398438"/>
      </g>
     </g>
    </g>
    <g id="ytick_4">
     <g id="line2d_9">
      <path d="M 72 251.705076 
L 518.4 251.705076 
" clip-path="url(#p14011e944a)" style="fill: none; stroke: #ffffff; stroke-width: 0.8; stroke-linecap: round"/>
     </g>
     <g id="text_10">
      <!-- 10.0 -->
      <g style="fill: #262626" transform="translate(45.539062 255.283982) scale(0.1 -0.1)">
       <defs>
        <path id="ArialMT-31" d="M 2384 0 
L 1822 0 
L 1822 3584 
Q 1619 3391 1289 3197 
Q 959 3003 697 2906 
L 697 3450 
Q 1169 3672 1522 3987 
Q 1875 4303 2022 4600 
L 2384 4600 
L 2384 0 
z
" transform="scale(0.015625)"/>
       </defs>
       <use xlink:href="#ArialMT-31"/>
       <use xlink:href="#ArialMT-30" x="55.615234"/>
       <use xlink:href="#ArialMT-2e" x="111.230469"/>
       <use xlink:href="#ArialMT-30" x="139.013672"/>
      </g>
     </g>
    </g>
    <g id="ytick_5">
     <g id="line2d_10">
      <path d="M 72 209.665716 
L 518.4 209.665716 
" clip-path="url(#p14011e944a)" style="fill: none; stroke: #ffffff; stroke-width: 0.8; stroke-linecap: round"/>
     </g>
     <g id="text_11">
      <!-- 12.5 -->
      <g style="fill: #262626" transform="translate(45.539062 213.244622) scale(0.1 -0.1)">
       <use xlink:href="#ArialMT-31"/>
       <use xlink:href="#ArialMT-32" x="55.615234"/>
       <use xlink:href="#ArialMT-2e" x="111.230469"/>
       <use xlink:href="#ArialMT-35" x="139.013672"/>
      </g>
     </g>
    </g>
    <g id="ytick_6">
     <g id="line2d_11">
      <path d="M 72 167.626355 
L 518.4 167.626355 
" clip-path="url(#p14011e944a)" style="fill: none; stroke: #ffffff; stroke-width: 0.8; stroke-linecap: round"/>
     </g>
     <g id="text_12">
      <!-- 15.0 -->
      <g style="fill: #262626" transform="translate(45.539062 171.205262) scale(0.1 -0.1)">
       <use xlink:href="#ArialMT-31"/>
       <use xlink:href="#ArialMT-35" x="55.615234"/>
       <use xlink:href="#ArialMT-2e" x="111.230469"/>
       <use xlink:href="#ArialMT-30" x="139.013672"/>
      </g>
     </g>
    </g>
    <g id="ytick_7">
     <g id="line2d_12">
      <path d="M 72 125.586995 
L 518.4 125.586995 
" clip-path="url(#p14011e944a)" style="fill: none; stroke: #ffffff; stroke-width: 0.8; stroke-linecap: round"/>
     </g>
     <g id="text_13">
      <!-- 17.5 -->
      <g style="fill: #262626" transform="translate(45.539062 129.165901) scale(0.1 -0.1)">
       <use xlink:href="#ArialMT-31"/>
       <use xlink:href="#ArialMT-37" x="55.615234"/>
       <use xlink:href="#ArialMT-2e" x="111.230469"/>
       <use xlink:href="#ArialMT-35" x="139.013672"/>
      </g>
     </g>
    </g>
    <g id="ytick_8">
     <g id="line2d_13">
      <path d="M 72 83.547635 
L 518.4 83.547635 
" clip-path="url(#p14011e944a)" style="fill: none; stroke: #ffffff; stroke-width: 0.8; stroke-linecap: round"/>
     </g>
     <g id="text_14">
      <!-- 20.0 -->
      <g style="fill: #262626" transform="translate(45.539062 87.126541) scale(0.1 -0.1)">
       <use xlink:href="#ArialMT-32"/>
       <use xlink:href="#ArialMT-30" x="55.615234"/>
       <use xlink:href="#ArialMT-2e" x="111.230469"/>
       <use xlink:href="#ArialMT-30" x="139.013672"/>
      </g>
     </g>
    </g>
    <g id="text_15">
     <!-- (m/s) -->
     <g style="fill: #262626" transform="translate(39.434375 229.543594) rotate(-90) scale(0.1 -0.1)">
      <defs>
       <path id="ArialMT-28" d="M 1497 -1347 
Q 1031 -759 709 28 
Q 388 816 388 1659 
Q 388 2403 628 3084 
Q 909 3875 1497 4659 
L 1900 4659 
Q 1522 4009 1400 3731 
Q 1209 3300 1100 2831 
Q 966 2247 966 1656 
Q 966 153 1900 -1347 
L 1497 -1347 
z
" transform="scale(0.015625)"/>
       <path id="ArialMT-6d" d="M 422 0 
L 422 3319 
L 925 3319 
L 925 2853 
Q 1081 3097 1340 3245 
Q 1600 3394 1931 3394 
Q 2300 3394 2536 3241 
Q 2772 3088 2869 2813 
Q 3263 3394 3894 3394 
Q 4388 3394 4653 3120 
Q 4919 2847 4919 2278 
L 4919 0 
L 4359 0 
L 4359 2091 
Q 4359 2428 4304 2576 
Q 4250 2725 4106 2815 
Q 3963 2906 3769 2906 
Q 3419 2906 3187 2673 
Q 2956 2441 2956 1928 
L 2956 0 
L 2394 0 
L 2394 2156 
Q 2394 2531 2256 2718 
Q 2119 2906 1806 2906 
Q 1569 2906 1367 2781 
Q 1166 2656 1075 2415 
Q 984 2175 984 1722 
L 984 0 
L 422 0 
z
" transform="scale(0.015625)"/>
       <path id="ArialMT-2f" d="M 0 -78 
L 1328 4659 
L 1778 4659 
L 453 -78 
L 0 -78 
z
" transform="scale(0.015625)"/>
       <path id="ArialMT-29" d="M 791 -1347 
L 388 -1347 
Q 1322 153 1322 1656 
Q 1322 2244 1188 2822 
Q 1081 3291 891 3722 
Q 769 4003 388 4659 
L 791 4659 
Q 1378 3875 1659 3084 
Q 1900 2403 1900 1659 
Q 1900 816 1576 28 
Q 1253 -759 791 -1347 
z
" transform="scale(0.015625)"/>
      </defs>
      <use xlink:href="#ArialMT-28"/>
      <use xlink:href="#ArialMT-6d" x="33.300781"/>
      <use xlink:href="#ArialMT-2f" x="116.601562"/>
      <use xlink:href="#ArialMT-73" x="144.384766"/>
      <use xlink:href="#ArialMT-29" x="194.384766"/>
     </g>
    </g>
   </g>
   <g id="line2d_14">
    <path d="M 92.290909 300.933167 
L 92.754701 309.92959 
L 93.218494 271.547654 
L 93.682286 214.248006 
L 94.146078 236.276631 
L 94.60987 263.770372 
L 95.073662 308.290055 
L 95.537455 276.045866 
L 96.465039 331.243546 
L 96.928831 313.418857 
L 97.392623 315.310628 
L 97.856416 285.24249 
L 98.320208 290.255169 
L 98.784 263.728333 
L 99.247792 283.528872 
L 99.711584 278.147834 
L 100.175377 235.940316 
L 100.639169 207.857141 
L 101.102961 269.15141 
L 101.566753 248.426006 
L 102.030545 235.057489 
L 102.494338 241.699708 
L 102.95813 261.82768 
L 103.421922 263.89649 
L 103.885714 268.941214 
L 104.349506 280.249802 
L 104.813299 216.686289 
L 105.277091 256.581642 
L 105.740883 279.913487 
L 106.204675 291.053917 
L 106.668468 243.044968 
L 107.13226 292.525295 
L 107.596052 310.476102 
L 108.059844 316.277533 
L 108.523636 332.504726 
L 108.987429 358.358933 
L 109.451221 285.714918 
L 109.915013 326.829413 
L 110.378805 338.264119 
L 111.30639 311.148731 
L 111.770182 312.325833 
L 112.233974 293.282003 
L 112.697766 309.245495 
L 113.161558 312.53603 
L 113.625351 306.860717 
L 114.089143 317.79095 
L 114.552935 255.824933 
L 115.016727 311.8634 
L 115.944312 321.574493 
L 116.408104 307.575386 
L 116.871896 311.022613 
L 117.335688 311.737282 
L 117.799481 307.28111 
L 118.263273 281.805258 
L 118.727065 322.499359 
L 119.190857 327.754279 
L 119.654649 303.119214 
L 120.118442 190.411689 
L 120.582234 316.140165 
L 121.046026 324.307051 
L 121.509818 315.370945 
L 121.97361 322.877713 
L 122.437403 313.309496 
L 122.901195 330.115832 
L 123.364987 328.006515 
L 124.292571 282.35177 
L 124.756364 299.251592 
L 125.220156 339.525299 
L 125.683948 322.331201 
L 126.14774 329.225656 
L 126.611532 296.476995 
L 127.075325 321.910808 
L 127.539117 293.996672 
L 128.002909 232.114734 
L 128.466701 237.579851 
L 128.930494 332.6135 
L 129.394286 328.34283 
L 129.858078 325.69435 
L 130.32187 314.301683 
L 130.785662 295.383971 
L 131.249455 298.663041 
L 131.713247 328.142916 
L 132.640831 66.96 
L 133.104623 335.069127 
L 133.568416 327.165728 
L 134.032208 280.922431 
L 134.496 323.466264 
L 134.959792 233.796308 
L 135.423584 169.420035 
L 135.887377 315.249904 
L 136.351169 326.661255 
L 136.814961 304.212237 
L 137.278753 317.580753 
L 137.742545 318.474163 
L 138.206338 311.90544 
L 138.67013 287.816886 
L 139.133922 256.455524 
L 139.597714 290.633524 
L 140.061506 302.133493 
L 140.525299 323.04587 
L 140.989091 331.512833 
L 141.452883 318.841934 
L 141.916675 292.609373 
L 142.380468 311.443007 
L 143.308052 326.871452 
L 143.771844 320.565548 
L 144.235636 302.824938 
L 144.699429 306.524402 
L 145.163221 300.807049 
L 145.627013 346.293636 
L 146.554597 223.83298 
L 147.01839 276.466259 
L 147.482182 315.646943 
L 148.409766 302.530662 
L 148.873558 320.019036 
L 149.337351 230.024608 
L 150.264935 308.878606 
L 150.728727 281.048549 
L 151.192519 227.574483 
L 151.656312 302.824938 
L 152.120104 304.296316 
L 152.583896 301.984151 
L 153.047688 298.242648 
L 153.511481 307.112953 
L 153.975273 199.366072 
L 154.439065 267.049442 
L 154.902857 314.890234 
L 155.366649 277.853558 
L 155.830442 303.077174 
L 156.294234 319.430485 
L 156.758026 323.508303 
L 157.221818 318.648674 
L 157.68561 299.33399 
L 158.149403 253.849083 
L 158.613195 139.670181 
L 159.076987 285.967155 
L 159.540779 322.793634 
L 160.004571 327.249806 
L 160.468364 330.5496 
L 160.932156 244.8947 
L 161.395948 308.079858 
L 161.85974 312.031558 
L 162.323532 280.922431 
L 162.787325 274.952842 
L 163.251117 229.466254 
L 163.714909 247.248904 
L 164.178701 245.945684 
L 164.642494 278.257489 
L 165.570078 307.911701 
L 166.03387 167.584316 
L 166.961455 308.58433 
L 167.425247 259.061964 
L 167.889039 279.156778 
L 168.352831 232.997561 
L 168.816623 260.65946 
L 169.280416 256.287366 
L 169.744208 226.949478 
L 170.208 291.973491 
L 170.671792 300.891127 
L 171.135584 322.667516 
L 171.599377 308.416173 
L 172.063169 274.700606 
L 172.990753 226.145145 
L 173.454545 159.767956 
L 173.918338 290.171091 
L 174.38213 232.240852 
L 174.845922 221.894697 
L 175.309714 284.748013 
L 175.773506 300.807049 
L 176.237299 291.169158 
L 177.164883 318.589698 
L 177.628675 225.934948 
L 178.092468 269.235489 
L 178.55626 249.43495 
L 179.020052 268.604899 
L 179.947636 234.006505 
L 180.411429 137.358016 
L 180.875221 226.901853 
L 181.339013 277.601322 
L 181.802805 273.439425 
L 182.266597 250.191659 
L 182.73039 304.212237 
L 183.194182 300.226361 
L 183.657974 290.84372 
L 184.121766 289.518158 
L 184.585558 245.819565 
L 185.049351 243.044968 
L 185.513143 259.482358 
L 185.976935 294.979159 
L 186.440727 282.393809 
L 186.904519 276.928692 
L 187.368312 201.718807 
L 187.832104 212.482353 
L 188.295896 243.538782 
L 188.759688 224.46357 
L 189.223481 228.541388 
L 189.687273 243.927794 
L 190.151065 250.317483 
L 190.614857 180.775898 
L 191.078649 276.902822 
L 191.542442 242.866815 
L 192.006234 241.237275 
L 192.470026 216.070428 
L 192.933818 204.158559 
L 193.39761 255.016484 
L 193.861403 271.085221 
L 194.325195 218.830296 
L 194.788987 213.191142 
L 195.252779 188.435839 
L 195.716571 279.065919 
L 196.180364 253.050335 
L 196.644156 243.801676 
L 197.107948 205.756055 
L 197.57174 252.68815 
L 198.035532 248.581816 
L 198.499325 245.651408 
L 198.963117 216.097738 
L 199.426909 267.970487 
L 199.890701 208.153475 
L 200.354494 223.622783 
L 200.818286 262.677349 
L 201.282078 257.884862 
L 201.74587 194.23727 
L 202.209662 193.018129 
L 203.137247 294.290948 
L 203.601039 212.776628 
L 204.064831 198.945679 
L 204.528623 220.259634 
L 204.992416 212.608471 
L 205.456208 146.516129 
L 205.92 232.997561 
L 206.383792 227.78468 
L 206.847584 121.257835 
L 207.311377 133.78467 
L 207.775169 152.366068 
L 208.238961 156.948358 
L 209.166545 229.447146 
L 209.630338 191.126358 
L 210.09413 207.101315 
L 210.557922 180.467469 
L 211.021714 184.870137 
L 211.485506 164.473403 
L 211.949299 149.885745 
L 212.413091 237.832087 
L 212.876883 267.589486 
L 213.340675 284.243541 
L 213.804468 288.657674 
L 214.732052 215.761423 
L 215.195844 220.26081 
L 215.659636 285.792823 
L 216.123429 264.064648 
L 216.587221 208.782889 
L 217.051013 174.352653 
L 217.514805 235.737224 
L 217.978597 217.400958 
L 218.44239 216.560171 
L 218.906182 229.701146 
L 219.369974 278.40007 
L 219.833766 254.73191 
L 220.297558 239.051228 
L 220.761351 252.714021 
L 221.225143 254.000484 
L 221.688935 208.362495 
L 222.152727 248.089691 
L 222.616519 145.892006 
L 223.080312 132.565529 
L 223.544104 122.434043 
L 224.007896 188.856232 
L 224.471688 227.490404 
L 224.935481 217.316879 
L 225.399273 267.511875 
L 225.863065 247.585219 
L 226.326857 272.262323 
L 227.254442 165.989466 
L 227.718234 192.177342 
L 228.182026 241.300481 
L 228.645818 222.193445 
L 230.037195 298.233777 
L 230.500987 276.174883 
L 230.964779 276.928692 
L 231.428571 254.23928 
L 231.892364 208.488614 
L 232.356156 174.058378 
L 232.819948 195.918845 
L 233.28374 188.856232 
L 233.747532 202.476985 
L 234.211325 230.979671 
L 234.675117 214.920636 
L 235.138909 282.120257 
L 235.602701 289.58254 
L 236.066494 265.536025 
L 236.530286 204.494874 
L 236.994078 213.32314 
L 237.45787 224.715807 
L 237.921662 230.420812 
L 238.385455 224.127256 
L 238.849247 224.799885 
L 239.313039 208.029318 
L 240.240623 249.098636 
L 240.704416 256.70776 
L 241.168208 234.048545 
L 241.632 225.119927 
L 242.095792 219.25069 
L 242.559584 231.568222 
L 243.023377 218.536021 
L 243.487169 181.036911 
L 243.950961 200.627253 
L 244.414753 242.120102 
L 244.878545 212.860707 
L 245.342338 215.467147 
L 245.80613 238.426687 
L 246.269922 240.665481 
L 246.733714 221.562855 
L 247.197506 218.956414 
L 247.661299 155.533131 
L 248.125091 134.778 
L 249.052675 200.711332 
L 249.516468 269.19345 
L 249.98026 309.105974 
L 250.444052 291.380825 
L 250.907844 293.786476 
L 251.371636 246.224564 
L 251.835429 263.518136 
L 252.299221 263.349979 
L 252.763013 244.726542 
L 253.226805 250.401856 
L 253.690597 252.377706 
L 254.15439 295.383971 
L 254.618182 283.528872 
L 255.081974 296.757159 
L 255.545766 298.789159 
L 256.009558 139.214474 
L 256.473351 221.403811 
L 256.937143 210.100808 
L 257.864727 287.690768 
L 259.256104 309.298999 
L 259.719896 329.195082 
L 260.183688 273.229228 
L 260.647481 171.199701 
L 261.111273 166.869647 
L 261.575065 251.999351 
L 262.038857 234.865813 
L 262.502649 239.135307 
L 262.966442 274.027976 
L 263.430234 276.171984 
L 264.82161 134.289143 
L 265.285403 121.046744 
L 265.749195 124.073578 
L 266.212987 181.078951 
L 266.676779 221.773051 
L 267.140571 288.825831 
L 267.604364 305.30526 
L 268.068156 305.137103 
L 268.531948 298.831199 
L 268.99574 253.38665 
L 269.459532 281.300786 
L 269.923325 265.199711 
L 270.387117 232.030655 
L 270.850909 274.784685 
L 271.314701 299.37771 
L 271.778494 310.013669 
L 272.242286 303.497568 
L 272.706078 274.490409 
L 273.16987 293.954633 
L 273.633662 296.434955 
L 274.561247 320.817784 
L 275.025039 292.357137 
L 275.488831 140.38485 
L 275.952623 164.095049 
L 276.416416 267.680033 
L 276.880208 208.407475 
L 277.344 301.858033 
L 277.807792 316.151415 
L 278.735377 298.663041 
L 279.199169 264.190766 
L 279.662961 245.104896 
L 280.126753 302.69882 
L 281.054338 262.803467 
L 281.51813 325.946586 
L 281.981922 265.176486 
L 282.445714 176.664818 
L 282.909506 290.110824 
L 283.373299 311.443007 
L 283.837091 302.740859 
L 284.300883 312.914384 
L 284.764675 304.67467 
L 285.228468 245.020818 
L 285.69226 300.470734 
L 286.156052 310.097747 
L 286.619844 303.917961 
L 287.083636 293.576279 
L 287.547429 340.239969 
L 288.011221 323.844618 
L 288.475013 288.90991 
L 288.938805 309.25696 
L 289.402597 289.204185 
L 289.86639 292.81957 
L 290.330182 316.067336 
L 290.793974 320.901863 
L 291.257766 329.60401 
L 291.721558 327.291846 
L 292.185351 242.540495 
L 292.649143 303.917961 
L 293.112935 340.197929 
L 293.576727 318.379501 
L 294.040519 272.514559 
L 294.504312 260.911696 
L 294.968104 339.146945 
L 295.431896 289.204185 
L 295.895688 337.339253 
L 296.359481 314.469841 
L 296.823273 281.721179 
L 297.287065 335.783796 
L 297.750857 305.137103 
L 298.214649 226.607578 
L 298.678442 256.245327 
L 299.142234 327.586121 
L 299.606026 325.358035 
L 300.069818 322.205083 
L 300.53361 328.468948 
L 300.997403 271.79989 
L 301.461195 265.493986 
L 301.924987 265.704183 
L 302.388779 275.331196 
L 302.852571 344.10759 
L 303.316364 353.398288 
L 303.780156 333.051238 
L 304.243948 317.622793 
L 304.70774 318.043186 
L 305.171532 313.334778 
L 305.635325 315.268589 
L 306.099117 289.5405 
L 306.562909 311.90544 
L 307.026701 297.485939 
L 307.490494 194.405428 
L 307.954286 232.324931 
L 308.418078 345.158574 
L 308.88187 306.734598 
L 309.345662 247.255371 
L 309.809455 328.337832 
L 310.737039 336.036033 
L 311.200831 264.61116 
L 311.664623 282.856242 
L 312.128416 337.633528 
L 312.592208 322.877713 
L 313.056 263.223861 
L 313.519792 333.429592 
L 313.983584 362.352672 
L 314.447377 343.43496 
L 314.911169 355.205981 
L 315.374961 269.025292 
L 315.838753 249.43495 
L 316.302545 312.283794 
L 316.766338 300.176458 
L 317.23013 196.25516 
L 317.693922 213.064142 
L 318.157714 337.885764 
L 318.621506 316.992202 
L 319.085299 215.425108 
L 319.549091 326.829413 
L 320.012883 321.196138 
L 320.476675 285.378603 
L 320.940468 269.992198 
L 321.40426 243.591479 
L 321.868052 264.022608 
L 322.331844 276.970731 
L 322.795636 321.952847 
L 323.259429 332.000254 
L 323.723221 319.724761 
L 324.187013 321.238178 
L 324.650805 274.658567 
L 325.114597 247.162457 
L 325.57839 306.061969 
L 326.042182 247.795415 
L 326.505974 304.254276 
L 326.969766 297.948372 
L 327.433558 301.605797 
L 327.897351 315.478785 
L 328.824935 191.126358 
L 329.288727 306.188087 
L 329.752519 330.94927 
L 330.216312 302.740859 
L 330.680104 308.962685 
L 331.607688 303.203292 
L 332.071481 285.168407 
L 332.535273 259.566436 
L 332.999065 328.97342 
L 333.462857 286.219391 
L 333.926649 285.504722 
L 334.390442 224.253374 
L 334.854234 276.508298 
L 335.318026 278.694345 
L 335.781818 271.968048 
L 336.24561 277.811519 
L 336.709403 258.851767 
L 337.173195 309.214921 
L 337.636987 277.495488 
L 338.100779 286.26143 
L 338.564571 196.717593 
L 339.028364 168.551221 
L 339.955948 298.242648 
L 340.883532 254.773949 
L 341.347325 295.594168 
L 341.811117 237.495772 
L 342.274909 262.130837 
L 342.738701 211.010975 
L 343.202494 289.58254 
L 343.666286 231.231907 
L 344.130078 212.566432 
L 344.59387 251.895167 
L 345.057662 314.764116 
L 345.521455 268.899174 
L 345.985247 311.947479 
L 346.449039 301.942111 
L 346.912831 275.415275 
L 347.376623 222.007746 
L 348.304208 267.680033 
L 348.768 269.86608 
L 349.231792 265.788262 
L 349.695584 328.090594 
L 350.159377 277.138889 
L 350.623169 169.518127 
L 351.086961 221.310618 
L 351.550753 229.886648 
L 352.014545 284.705974 
L 352.478338 281.6371 
L 352.94213 303.749804 
L 353.405922 290.88576 
L 353.869714 292.567334 
L 354.333506 296.884159 
L 354.797299 247.080746 
L 355.261091 287.396493 
L 355.724883 180.388142 
L 356.188675 156.585074 
L 356.652468 259.272161 
L 357.11626 288.363398 
L 357.580052 261.752483 
L 358.043844 310.56018 
L 358.507636 287.816886 
L 358.971429 255.609151 
L 359.435221 244.011873 
L 359.899013 193.648719 
L 360.826597 284.327619 
L 361.29039 286.051233 
L 362.217974 214.962675 
L 362.681766 220.007398 
L 363.145558 273.77574 
L 363.609351 233.754269 
L 364.073143 222.319563 
L 364.536935 250.612053 
L 365.000727 239.892016 
L 365.464519 235.604001 
L 365.928312 242.372338 
L 366.392104 243.717597 
L 366.855896 250.906328 
L 367.319688 201.636198 
L 367.783481 277.307046 
L 368.247273 277.769479 
L 369.174857 166.197017 
L 369.638649 285.63084 
L 370.102442 203.612048 
L 370.566234 223.917059 
L 371.030026 217.90543 
L 371.493818 235.20448 
L 371.95761 265.451947 
L 372.421403 257.968941 
L 372.885195 268.52082 
L 373.348987 248.13173 
L 373.812779 203.233694 
L 374.276571 276.760535 
L 374.740364 180.784675 
L 375.204156 211.935841 
L 375.667948 214.584321 
L 376.13174 279.913487 
L 376.595532 258.305255 
L 377.059325 264.400963 
L 377.523117 242.374127 
L 377.986909 325.882498 
L 378.450701 284.916171 
L 378.914494 281.940489 
L 379.378286 240.312409 
L 379.842078 211.557487 
L 380.30587 201.804355 
L 380.769662 189.110941 
L 381.697247 259.188082 
L 382.161039 257.800783 
L 382.624831 259.969485 
L 383.088623 249.266793 
L 383.552416 315.436746 
L 384.016208 283.930156 
L 384.48 289.498461 
L 384.943792 267.427797 
L 385.407584 220.385753 
L 385.871377 150.978769 
L 386.798961 194.111152 
L 387.262753 198.735482 
L 388.190338 228.120995 
L 388.65413 235.814198 
L 389.117922 236.9913 
L 389.581714 253.512768 
L 390.045506 240.858921 
L 390.509299 202.266788 
L 391.436883 369.36 
L 391.900675 267.231613 
L 392.364468 276.129944 
L 392.82826 260.182749 
L 393.292052 248.972517 
L 393.755844 204.146548 
L 394.219636 243.885755 
L 394.683429 263.2659 
L 395.147221 218.872336 
L 395.611013 215.214911 
L 396.074805 249.326263 
L 396.538597 204.074481 
L 397.00239 192.765893 
L 397.466182 198.777521 
L 397.929974 229.592372 
L 398.393766 238.336559 
L 399.321351 168.130828 
L 399.785143 167.090133 
L 400.248935 195.834766 
L 400.712727 243.798148 
L 401.176519 312.57807 
L 401.640312 262.845506 
L 402.104104 290.044972 
L 402.567896 272.220284 
L 403.031688 231.315986 
L 403.959273 304.296316 
L 404.423065 204.245111 
L 404.886857 180.540847 
L 405.350649 289.118056 
L 405.814442 265.642153 
L 406.278234 295.762325 
L 406.742026 315.499284 
L 407.205818 273.10311 
L 407.66961 289.5405 
L 408.133403 280.204822 
L 408.597195 267.84819 
L 409.060987 214.332085 
L 409.524779 216.277666 
L 409.988571 160.7319 
L 410.452364 152.019463 
L 410.916156 154.636193 
L 411.84374 254.647831 
L 412.771325 220.806146 
L 413.235117 245.441211 
L 413.698909 248.511368 
L 414.162701 259.007913 
L 414.626494 283.125823 
L 415.090286 298.11653 
L 416.01787 280.224578 
L 416.481662 246.585176 
L 416.945455 258.095059 
L 417.409247 293.534239 
L 417.873039 269.277529 
L 418.336831 254.521713 
L 418.800623 230.012766 
L 419.264416 254.185398 
L 419.728208 261.205971 
L 420.192 279.182504 
L 420.655792 313.923329 
L 421.119584 299.568798 
L 421.583377 273.177488 
L 422.047169 294.995528 
L 422.510961 306.457139 
L 422.974753 313.460896 
L 423.438545 274.484135 
L 423.902338 267.492839 
L 424.36613 309.761432 
L 424.829922 262.803467 
L 425.293714 193.648719 
L 425.757506 157.480464 
L 426.221299 144.672865 
L 426.685091 156.864279 
L 427.148883 151.609359 
L 427.612675 166.323135 
L 428.076468 170.569111 
L 428.54026 206.344606 
L 429.004052 146.102203 
L 429.467844 136.43315 
L 429.931636 145.849967 
L 430.395429 223.286468 
L 430.859221 218.115627 
L 431.323013 208.278417 
L 431.786805 212.314195 
L 432.250597 133.574474 
L 432.71439 129.959089 
L 433.178182 135.214009 
L 433.641974 174.352653 
L 434.569558 196.297199 
L 435.497143 234.763214 
L 435.960935 309.172881 
L 436.424727 304.128158 
L 436.888519 275.289157 
L 437.352312 166.112938 
L 438.279896 218.662139 
L 438.743688 205.167504 
L 439.207481 182.634407 
L 439.671273 235.561962 
L 440.135065 254.017241 
L 440.598857 239.765898 
L 441.062649 265.409907 
L 441.526442 269.739961 
L 441.990234 305.179142 
L 442.917818 240.312409 
L 443.38161 221.268579 
L 443.845403 215.887541 
L 444.309195 253.470729 
L 444.772987 238.126363 
L 445.236779 196.339238 
L 445.700571 236.823142 
L 446.164364 254.900067 
L 446.628156 319.220288 
L 447.091948 311.148731 
L 447.55574 309.298999 
L 448.019532 305.893811 
L 448.947117 261.584326 
L 449.410909 257.548547 
L 449.874701 265.325829 
L 450.338494 226.607578 
L 450.802286 176.076267 
L 451.266078 256.623681 
L 451.72987 253.008296 
L 452.193662 206.260527 
L 452.657455 198.020813 
L 453.121247 201.972513 
L 454.048831 248.468045 
L 454.512623 260.028869 
L 454.976416 256.203287 
L 455.440208 273.355346 
L 455.904 300.765009 
L 456.367792 315.142471 
L 456.831584 308.920645 
L 457.295377 262.130837 
L 457.759169 263.223861 
L 458.686753 245.777526 
L 459.150545 223.790941 
L 459.614338 252.461784 
L 460.07813 248.80436 
L 460.541922 293.996672 
L 461.005714 303.749804 
L 461.469506 305.515457 
L 461.933299 313.83925 
L 462.397091 254.437634 
L 462.860883 276.718495 
L 463.324675 328.553026 
L 463.788468 333.55571 
L 464.25226 313.040503 
L 465.179844 250.023502 
L 465.643636 240.858921 
L 466.107429 254.311516 
L 466.571221 301.731915 
L 467.035013 285.126367 
L 467.498805 318.169304 
L 467.962597 312.57807 
L 468.42639 295.426011 
L 468.890182 313.587014 
L 469.353974 315.8151 
L 470.281558 241.615629 
L 470.745351 305.809733 
L 471.209143 288.111162 
L 471.672935 305.809733 
L 472.136727 280.670195 
L 472.600519 316.151415 
L 473.064312 303.203292 
L 473.528104 269.908119 
L 474.455688 293.071806 
L 474.919481 292.357137 
L 475.383273 330.612955 
L 475.847065 227.196129 
L 476.310857 187.595052 
L 477.238442 287.690768 
L 477.702234 280.249802 
L 478.166026 269.833154 
L 478.629818 194.741743 
L 479.09361 325.147838 
L 479.557403 222.739957 
L 480.484987 314.722077 
L 480.948779 312.493991 
L 481.412571 300.554813 
L 481.876364 326.535137 
L 482.803948 339.861614 
L 483.26774 333.849986 
L 483.731532 302.572702 
L 484.195325 321.490414 
L 484.659117 305.767693 
L 485.122909 334.438537 
L 485.586701 308.794527 
L 486.050494 334.186301 
L 486.514286 294.452203 
L 486.978078 321.74265 
L 487.44187 317.538714 
L 487.905662 315.463297 
L 488.369455 341.328447 
L 488.833247 335.53156 
L 489.297039 341.332992 
L 489.760831 333.892025 
L 490.224623 302.782899 
L 490.688416 350.371454 
L 491.152208 329.393814 
L 491.616 322.321727 
L 492.079792 306.314205 
L 492.543584 301.479678 
L 493.007377 317.16036 
L 493.471169 266.358796 
L 493.934961 291.474311 
L 494.398753 335.993993 
L 494.862545 254.088525 
L 495.326338 248.510085 
L 495.79013 279.156778 
L 496.253922 254.521713 
L 496.717714 275.709551 
L 497.181506 307.911701 
L 497.645299 277.265007 
L 498.109091 279.391385 
L 498.109091 279.391385 
" clip-path="url(#p14011e944a)" style="fill: none; stroke: #1f77b4; stroke-width: 1.5; stroke-linecap: round"/>
   </g>
   <g id="line2d_15">
    <path d="M 92.290909 236.222616 
L 92.754701 232.428235 
L 93.218494 243.803268 
L 93.682286 241.050567 
L 94.146078 250.750592 
L 94.60987 240.564215 
L 95.073662 258.476177 
L 96.001247 254.139481 
L 96.465039 271.745082 
L 96.928831 269.769502 
L 97.392623 254.939506 
L 97.856416 260.46696 
L 98.320208 252.335905 
L 98.784 268.002273 
L 99.247792 267.36364 
L 99.711584 247.742316 
L 100.175377 245.968191 
L 100.639169 249.534118 
L 101.102961 244.822551 
L 101.566753 249.648723 
L 102.030545 239.237843 
L 102.494338 239.029046 
L 102.95813 240.702742 
L 103.421922 240.046587 
L 103.885714 241.131316 
L 104.349506 248.105255 
L 104.813299 246.205999 
L 105.277091 246.977221 
L 105.740883 247.344902 
L 106.204675 248.169141 
L 106.668468 252.371072 
L 107.13226 279.101162 
L 107.596052 294.342871 
L 108.059844 297.62783 
L 108.523636 298.142126 
L 108.987429 298.313261 
L 109.915013 314.259955 
L 110.378805 314.826616 
L 110.842597 316.623187 
L 111.30639 310.261325 
L 111.770182 298.662792 
L 112.233974 299.247828 
L 112.697766 298.658238 
L 113.161558 294.754445 
L 113.625351 287.834008 
L 114.089143 278.048205 
L 114.552935 273.500864 
L 115.016727 274.747941 
L 115.480519 278.420416 
L 115.944312 278.338671 
L 116.408104 278.618861 
L 116.871896 276.932195 
L 117.335688 276.118382 
L 117.799481 278.788692 
L 118.263273 285.022469 
L 119.190857 307.887633 
L 119.654649 294.643437 
L 120.118442 298.254239 
L 120.582234 295.274143 
L 121.046026 289.911066 
L 121.509818 291.861569 
L 121.97361 290.062803 
L 122.437403 296.741019 
L 122.901195 306.714743 
L 123.364987 283.357718 
L 123.828779 281.932099 
L 124.292571 291.133747 
L 124.756364 294.958836 
L 125.220156 295.229847 
L 125.683948 298.41319 
L 126.14774 292.509942 
L 126.611532 289.32628 
L 127.075325 289.504474 
L 127.539117 287.447572 
L 128.002909 289.028352 
L 128.466701 300.397326 
L 128.930494 306.893188 
L 129.394286 301.537938 
L 129.858078 301.87905 
L 130.32187 309.833342 
L 130.785662 307.639514 
L 131.713247 299.73331 
L 132.177039 299.250068 
L 132.640831 300.396436 
L 133.568416 284.475341 
L 134.032208 283.212567 
L 134.496 280.376324 
L 134.959792 287.821394 
L 135.423584 286.958013 
L 135.887377 282.037294 
L 136.351169 282.167966 
L 136.814961 282.132787 
L 137.278753 282.55307 
L 137.742545 286.916312 
L 138.206338 286.322468 
L 138.67013 287.302477 
L 139.133922 287.096106 
L 139.597714 285.608228 
L 140.061506 300.132795 
L 140.525299 310.465747 
L 140.989091 304.250711 
L 141.452883 301.678296 
L 141.916675 308.985254 
L 142.380468 307.015737 
L 143.308052 296.960402 
L 143.771844 295.676439 
L 144.235636 297.874543 
L 144.699429 295.85631 
L 145.163221 300.993799 
L 145.627013 309.92597 
L 146.090805 301.989599 
L 146.554597 291.868602 
L 147.482182 313.972183 
L 147.945974 318.118279 
L 148.873558 295.52446 
L 149.337351 295.694315 
L 149.801143 298.877572 
L 150.264935 296.170078 
L 150.728727 290.592625 
L 151.192519 279.350387 
L 151.656312 278.114013 
L 152.120104 277.407881 
L 153.047688 306.076499 
L 153.975273 284.209904 
L 154.439065 286.51349 
L 154.902857 288.04063 
L 155.366649 291.813131 
L 155.830442 286.73734 
L 156.294234 271.667448 
L 156.758026 269.514249 
L 157.221818 276.491891 
L 157.68561 277.38776 
L 158.149403 274.520154 
L 158.613195 273.646231 
L 159.076987 286.446345 
L 159.540779 302.590418 
L 160.004571 304.349287 
L 160.468364 291.325573 
L 160.932156 298.068064 
L 161.395948 298.387757 
L 162.323532 287.260822 
L 163.251117 275.989656 
L 163.714909 283.024204 
L 164.642494 268.512929 
L 165.106286 265.588315 
L 165.570078 266.26343 
L 166.03387 269.048003 
L 166.497662 266.850773 
L 167.425247 260.766985 
L 167.889039 261.868973 
L 168.352831 275.387375 
L 168.816623 273.157348 
L 169.280416 268.9647 
L 169.744208 268.941982 
L 170.208 289.182194 
L 170.671792 301.232226 
L 171.135584 306.164237 
L 171.599377 288.813974 
L 172.063169 279.683852 
L 172.526961 279.57691 
L 172.990753 284.075401 
L 173.454545 282.773819 
L 173.918338 275.320889 
L 174.38213 255.654412 
L 174.845922 249.13052 
L 175.309714 266.926256 
L 175.773506 271.386067 
L 176.237299 268.469497 
L 176.701091 273.633161 
L 177.164883 284.552976 
L 177.628675 285.90537 
L 178.092468 302.075257 
L 178.55626 297.545957 
L 179.020052 283.68831 
L 179.483844 278.852572 
L 179.947636 277.385539 
L 180.411429 290.68364 
L 180.875221 286.316505 
L 181.339013 272.478097 
L 181.802805 262.513642 
L 182.266597 261.202718 
L 182.73039 271.932662 
L 183.194182 287.069449 
L 183.657974 266.591735 
L 184.121766 255.09417 
L 184.585558 249.796127 
L 185.049351 255.551598 
L 185.513143 255.290797 
L 185.976935 247.869686 
L 186.440727 237.327103 
L 186.904519 233.775049 
L 187.832104 239.568389 
L 188.759688 237.445334 
L 189.687273 236.106036 
L 190.151065 236.621012 
L 190.614857 239.621168 
L 191.542442 235.465184 
L 192.006234 235.432813 
L 192.470026 236.250315 
L 192.933818 245.164151 
L 193.39761 251.545154 
L 194.325195 242.138483 
L 194.788987 243.401298 
L 195.252779 243.663568 
L 195.716571 243.588217 
L 196.180364 258.672414 
L 196.644156 254.930625 
L 197.107948 246.959751 
L 197.57174 250.644436 
L 198.035532 258.870104 
L 198.499325 255.621078 
L 198.963117 262.267069 
L 199.426909 250.1876 
L 200.354494 239.892936 
L 200.818286 241.903611 
L 201.282078 251.925946 
L 201.74587 246.92471 
L 202.209662 234.761563 
L 202.673455 231.628766 
L 203.137247 234.838965 
L 203.601039 241.554609 
L 204.064831 243.411615 
L 204.528623 231.771156 
L 204.992416 230.411197 
L 205.456208 232.505914 
L 205.92 236.532057 
L 206.383792 238.234617 
L 206.847584 238.932053 
L 207.311377 241.631025 
L 207.775169 242.979211 
L 208.238961 239.169104 
L 208.702753 236.663425 
L 209.166545 239.128129 
L 209.630338 237.796321 
L 210.09413 235.452971 
L 210.557922 246.644242 
L 211.485506 235.74113 
L 211.949299 236.586872 
L 212.876883 234.122727 
L 213.340675 236.716672 
L 213.804468 228.386732 
L 214.26826 228.962565 
L 214.732052 227.129581 
L 215.195844 226.872447 
L 216.123429 232.756317 
L 216.587221 229.93416 
L 217.051013 228.626162 
L 217.514805 228.608637 
L 217.978597 228.985418 
L 218.906182 227.194442 
L 219.369974 229.356373 
L 219.833766 229.766727 
L 220.297558 228.891707 
L 220.761351 234.070915 
L 221.225143 235.915796 
L 221.688935 228.322801 
L 222.152727 225.463494 
L 222.616519 240.041745 
L 223.080312 237.506082 
L 224.007896 230.620161 
L 224.471688 229.860374 
L 224.935481 230.567706 
L 225.399273 237.936733 
L 225.863065 232.563875 
L 226.326857 232.434245 
L 226.790649 236.401022 
L 227.254442 238.699267 
L 228.182026 234.593038 
L 228.645818 235.849602 
L 229.10961 232.849241 
L 229.573403 236.289662 
L 230.037195 236.457922 
L 230.500987 229.42967 
L 230.964779 227.361819 
L 231.428571 227.695699 
L 232.356156 227.09189 
L 232.819948 229.499102 
L 233.28374 229.836586 
L 233.747532 232.271266 
L 234.211325 232.122593 
L 234.675117 233.601488 
L 235.138909 233.883422 
L 235.602701 232.552561 
L 236.066494 232.604256 
L 236.530286 231.25417 
L 236.994078 229.182577 
L 237.45787 227.883005 
L 238.385455 229.273613 
L 238.849247 232.751734 
L 239.776831 235.623946 
L 240.240623 235.149349 
L 240.704416 232.001125 
L 241.168208 226.426197 
L 241.632 228.677793 
L 242.559584 230.196401 
L 243.023377 228.66203 
L 243.487169 227.867084 
L 243.950961 229.900788 
L 244.414753 236.105328 
L 244.878545 236.947698 
L 245.342338 238.322455 
L 245.80613 238.71926 
L 246.733714 239.829842 
L 247.197506 241.273882 
L 247.661299 242.047913 
L 248.125091 241.274257 
L 248.588883 240.904233 
L 249.052675 238.802073 
L 249.516468 238.979903 
L 249.98026 242.400236 
L 250.444052 238.378358 
L 250.907844 236.320324 
L 251.371636 236.613354 
L 251.835429 237.367499 
L 252.299221 238.663645 
L 253.226805 237.355679 
L 253.690597 241.222027 
L 254.15439 239.709608 
L 254.618182 240.074063 
L 255.081974 251.432075 
L 255.545766 279.341284 
L 256.009558 297.287437 
L 256.473351 275.720536 
L 256.937143 261.443559 
L 257.400935 267.144979 
L 257.864727 269.879156 
L 258.328519 270.547667 
L 258.792312 257.982163 
L 259.256104 231.555945 
L 260.647481 240.022491 
L 261.111273 247.876625 
L 261.575065 244.469012 
L 262.038857 244.466723 
L 262.502649 251.048439 
L 262.966442 251.039956 
L 263.430234 249.738895 
L 263.894026 252.440421 
L 264.357818 250.903601 
L 264.82161 250.325607 
L 265.285403 250.489319 
L 265.749195 244.770465 
L 266.212987 241.918588 
L 266.676779 240.88175 
L 267.140571 241.942276 
L 267.604364 241.481503 
L 268.068156 242.288865 
L 268.531948 240.312556 
L 268.99574 240.938348 
L 269.459532 242.990336 
L 269.923325 250.361467 
L 270.387117 254.082706 
L 270.850909 253.699316 
L 271.314701 252.412072 
L 271.778494 254.242974 
L 272.242286 259.111725 
L 272.706078 262.2105 
L 273.16987 279.135933 
L 273.633662 274.902872 
L 274.097455 268.982955 
L 274.561247 269.609493 
L 275.025039 272.184003 
L 275.488831 270.005298 
L 275.952623 273.028095 
L 276.416416 263.249673 
L 276.880208 260.015231 
L 277.344 255.021459 
L 277.807792 257.206614 
L 278.735377 263.478358 
L 279.199169 263.254474 
L 279.662961 278.703017 
L 280.126753 282.653034 
L 280.590545 278.042489 
L 281.51813 281.305594 
L 281.981922 281.690908 
L 282.445714 283.25052 
L 282.909506 280.371834 
L 283.373299 278.319205 
L 283.837091 290.965439 
L 284.300883 298.442768 
L 284.764675 298.625632 
L 285.228468 292.184966 
L 285.69226 303.701703 
L 286.156052 306.708409 
L 287.083636 294.68057 
L 287.547429 292.909364 
L 288.011221 286.469491 
L 288.475013 286.055628 
L 288.938805 279.315197 
L 289.402597 279.930716 
L 290.330182 276.360218 
L 290.793974 290.447635 
L 291.257766 290.641598 
L 291.721558 285.294521 
L 292.185351 285.149229 
L 292.649143 282.414964 
L 293.112935 282.588131 
L 293.576727 289.187044 
L 294.040519 282.536946 
L 294.504312 281.785642 
L 294.968104 280.317041 
L 295.431896 281.04026 
L 295.895688 285.227814 
L 296.359481 287.219282 
L 296.823273 286.942569 
L 297.750857 288.94295 
L 298.214649 289.614308 
L 298.678442 298.935752 
L 299.142234 296.481266 
L 299.606026 292.671184 
L 300.069818 292.93527 
L 300.997403 292.924379 
L 301.461195 289.370861 
L 301.924987 283.134841 
L 302.388779 285.662896 
L 302.852571 286.960068 
L 303.316364 293.868953 
L 303.780156 303.803057 
L 304.70774 291.623162 
L 305.171532 291.64071 
L 305.635325 293.525299 
L 306.099117 296.674462 
L 306.562909 303.373449 
L 307.026701 288.400451 
L 307.490494 286.06671 
L 307.954286 288.016723 
L 308.88187 312.062939 
L 309.345662 302.067363 
L 309.809455 288.475672 
L 310.273247 292.885128 
L 310.737039 294.422791 
L 311.200831 297.835886 
L 311.664623 291.47658 
L 312.128416 282.80023 
L 312.592208 284.739745 
L 313.056 287.455307 
L 313.983584 282.752018 
L 314.447377 289.132324 
L 314.911169 290.153063 
L 315.374961 294.548109 
L 315.838753 303.849221 
L 316.302545 306.670434 
L 316.766338 299.169578 
L 317.693922 306.271812 
L 318.157714 311.636993 
L 318.621506 314.382778 
L 319.085299 301.207998 
L 319.549091 292.26967 
L 320.012883 302.770284 
L 320.476675 300.907988 
L 320.940468 295.534955 
L 321.40426 286.158028 
L 321.868052 280.833242 
L 322.795636 290.618753 
L 323.259429 282.099565 
L 323.723221 284.528994 
L 324.187013 282.594849 
L 324.650805 278.537674 
L 325.114597 285.060664 
L 325.57839 281.986198 
L 326.042182 277.734454 
L 326.505974 276.171419 
L 326.969766 274.198965 
L 327.433558 275.542886 
L 327.897351 293.312951 
L 328.361143 298.799449 
L 328.824935 289.37026 
L 329.288727 295.669787 
L 329.752519 295.435845 
L 330.216312 288.838815 
L 330.680104 288.166465 
L 331.143896 283.53583 
L 331.607688 295.696886 
L 332.071481 310.833783 
L 332.535273 303.032728 
L 332.999065 287.154366 
L 333.462857 283.827619 
L 334.390442 291.557424 
L 334.854234 284.285568 
L 335.781818 259.388181 
L 336.24561 263.194907 
L 336.709403 260.014973 
L 337.173195 257.744777 
L 337.636987 265.889534 
L 338.100779 257.916177 
L 338.564571 255.143571 
L 339.028364 258.030355 
L 339.492156 259.170337 
L 339.955948 263.217109 
L 340.883532 275.791199 
L 341.347325 275.528803 
L 341.811117 269.329567 
L 342.274909 267.572137 
L 342.738701 270.375508 
L 343.202494 270.631875 
L 343.666286 273.769829 
L 344.130078 258.297104 
L 344.59387 254.032714 
L 345.057662 253.813173 
L 345.985247 288.383091 
L 346.449039 286.351968 
L 346.912831 271.858399 
L 347.376623 268.626731 
L 347.840416 270.622313 
L 348.304208 274.767843 
L 348.768 266.413628 
L 349.231792 252.509601 
L 349.695584 271.323719 
L 350.159377 271.316017 
L 350.623169 259.851491 
L 351.086961 260.684455 
L 351.550753 262.521652 
L 352.014545 261.454971 
L 352.478338 280.611133 
L 352.94213 281.426175 
L 353.405922 277.31677 
L 354.333506 261.45944 
L 354.797299 265.118312 
L 355.261091 273.815381 
L 355.724883 266.415599 
L 356.188675 244.311457 
L 356.652468 235.000827 
L 357.11626 247.60369 
L 357.580052 251.780466 
L 358.043844 265.605275 
L 358.971429 250.62467 
L 359.435221 246.794029 
L 359.899013 250.616787 
L 360.362805 249.095771 
L 360.826597 252.694388 
L 361.29039 235.483295 
L 361.754182 233.832805 
L 362.217974 234.068384 
L 362.681766 240.239111 
L 363.145558 240.564893 
L 363.609351 239.774637 
L 364.073143 236.981741 
L 364.536935 237.408894 
L 365.000727 233.896688 
L 365.464519 235.895799 
L 365.928312 235.732083 
L 366.392104 234.204362 
L 366.855896 233.842146 
L 367.319688 230.876286 
L 367.783481 231.262616 
L 368.247273 232.552486 
L 368.711065 229.479097 
L 369.174857 231.296572 
L 369.638649 232.199094 
L 371.030026 222.14033 
L 371.493818 223.654776 
L 371.95761 229.751176 
L 372.421403 227.68741 
L 373.348987 228.286448 
L 373.812779 229.744726 
L 374.276571 233.325432 
L 374.740364 233.748018 
L 375.204156 233.196007 
L 375.667948 232.166117 
L 376.13174 229.813572 
L 376.595532 226.648686 
L 377.059325 226.238157 
L 377.523117 226.173484 
L 377.986909 224.691009 
L 378.450701 225.49259 
L 378.914494 223.100797 
L 379.378286 226.99043 
L 379.842078 229.661956 
L 380.30587 228.255323 
L 380.769662 225.91175 
L 381.233455 225.145678 
L 381.697247 224.94381 
L 382.161039 227.785937 
L 382.624831 227.56686 
L 383.088623 229.351712 
L 383.552416 227.949547 
L 384.016208 260.405868 
L 384.48 254.191257 
L 384.943792 242.698651 
L 385.407584 239.435586 
L 385.871377 242.253274 
L 386.335169 238.124645 
L 386.798961 244.249368 
L 387.262753 224.253036 
L 387.726545 225.526518 
L 388.190338 222.202 
L 388.65413 223.423226 
L 389.117922 225.937335 
L 389.581714 229.207837 
L 390.045506 234.552925 
L 390.973091 227.098754 
L 391.900675 236.051169 
L 392.364468 234.072911 
L 392.82826 233.664929 
L 393.292052 242.393055 
L 393.755844 238.657561 
L 394.219636 243.180203 
L 394.683429 242.83419 
L 395.147221 237.447533 
L 395.611013 238.249974 
L 396.074805 242.406521 
L 396.538597 256.178722 
L 397.00239 252.594231 
L 397.466182 242.945527 
L 397.929974 243.269538 
L 398.393766 244.731994 
L 398.857558 241.094578 
L 399.321351 245.102045 
L 399.785143 233.841573 
L 400.248935 234.34074 
L 400.712727 233.539256 
L 401.176519 233.732925 
L 401.640312 239.060922 
L 402.104104 239.79794 
L 402.567896 236.809268 
L 403.031688 236.695748 
L 403.495481 234.601731 
L 403.959273 230.727344 
L 404.423065 239.636728 
L 405.814442 288.549147 
L 406.742026 268.937329 
L 407.205818 277.137941 
L 407.66961 274.496102 
L 408.133403 265.256792 
L 408.597195 252.82236 
L 409.060987 235.769204 
L 409.524779 230.846455 
L 409.988571 248.832791 
L 410.452364 235.652508 
L 410.916156 234.484742 
L 411.379948 235.16576 
L 411.84374 237.629263 
L 412.307532 236.061757 
L 412.771325 241.199022 
L 413.235117 230.222733 
L 413.698909 234.905375 
L 414.162701 235.843489 
L 414.626494 235.766956 
L 415.090286 240.54505 
L 415.554078 240.538213 
L 416.481662 237.752169 
L 416.945455 234.15722 
L 417.873039 234.990989 
L 418.336831 234.982502 
L 418.800623 236.91154 
L 419.264416 236.574954 
L 419.728208 235.972243 
L 420.192 239.315321 
L 420.655792 252.834752 
L 421.119584 282.291283 
L 421.583377 273.818635 
L 422.047169 260.052731 
L 422.974753 298.235382 
L 423.438545 288.092525 
L 423.902338 273.725188 
L 424.36613 263.546067 
L 424.829922 286.646664 
L 425.293714 285.710223 
L 425.757506 268.730858 
L 426.221299 247.047635 
L 426.685091 250.862178 
L 427.148883 251.856654 
L 427.612675 256.901769 
L 428.076468 235.454889 
L 428.54026 237.17428 
L 429.004052 237.885302 
L 429.467844 233.705639 
L 429.931636 233.964485 
L 430.395429 231.315336 
L 430.859221 233.636047 
L 431.323013 233.758486 
L 431.786805 234.391886 
L 432.250597 234.398371 
L 432.71439 235.111085 
L 433.178182 233.651321 
L 433.641974 234.955481 
L 434.105766 234.410211 
L 434.569558 235.633211 
L 435.033351 235.558328 
L 435.497143 234.383675 
L 435.960935 231.767282 
L 436.424727 232.140435 
L 436.888519 231.747541 
L 437.816104 237.769986 
L 438.743688 230.973182 
L 439.671273 234.147455 
L 440.135065 235.524282 
L 440.598857 237.942386 
L 441.062649 233.888169 
L 441.526442 235.727542 
L 441.990234 236.855555 
L 442.454026 237.014621 
L 442.917818 234.205069 
L 443.38161 236.469647 
L 443.845403 235.843272 
L 444.309195 236.020369 
L 444.772987 233.321875 
L 445.236779 234.833867 
L 445.700571 233.329472 
L 446.164364 234.199195 
L 446.628156 238.315184 
L 447.091948 257.130469 
L 447.55574 266.461877 
L 448.019532 256.518421 
L 448.483325 250.310187 
L 448.947117 252.114536 
L 449.410909 256.232925 
L 449.874701 256.285835 
L 450.338494 248.527886 
L 450.802286 237.886341 
L 451.266078 239.774565 
L 451.72987 236.367232 
L 452.193662 239.260266 
L 453.121247 241.027919 
L 453.585039 237.123447 
L 454.048831 237.277085 
L 454.512623 238.009851 
L 454.976416 239.172226 
L 455.904 243.594864 
L 456.367792 242.092221 
L 456.831584 245.023142 
L 457.295377 246.618508 
L 457.759169 245.689133 
L 458.222961 247.523756 
L 458.686753 247.905757 
L 459.150545 245.784037 
L 459.614338 245.934509 
L 460.541922 273.488443 
L 461.005714 272.127692 
L 461.469506 284.260378 
L 461.933299 284.310384 
L 462.397091 292.550122 
L 462.860883 291.555004 
L 463.324675 295.192786 
L 463.788468 302.331347 
L 464.25226 295.203412 
L 464.716052 280.63455 
L 465.179844 282.11961 
L 465.643636 272.555357 
L 466.107429 276.850921 
L 466.571221 272.749667 
L 467.035013 281.100084 
L 467.498805 278.039998 
L 467.962597 269.905764 
L 468.42639 268.132438 
L 468.890182 271.452752 
L 469.353974 278.364843 
L 469.817766 280.293381 
L 470.281558 267.120652 
L 470.745351 266.919467 
L 471.672935 268.298087 
L 472.136727 270.937093 
L 472.600519 268.744605 
L 473.064312 279.945735 
L 473.991896 297.957062 
L 474.919481 282.076992 
L 475.383273 282.810929 
L 475.847065 286.073753 
L 476.310857 282.526558 
L 476.774649 276.230693 
L 477.238442 263.71496 
L 477.702234 269.451373 
L 478.166026 271.704792 
L 478.629818 269.530245 
L 479.09361 267.952739 
L 479.557403 269.656763 
L 480.021195 272.020177 
L 480.484987 290.982061 
L 480.948779 304.362116 
L 481.412571 308.867815 
L 481.876364 310.804892 
L 482.340156 309.753312 
L 482.803948 311.688087 
L 483.731532 311.982704 
L 484.195325 307.235945 
L 484.659117 307.580646 
L 485.122909 307.07948 
L 485.586701 298.753108 
L 486.050494 295.078114 
L 486.514286 292.628882 
L 486.978078 291.871884 
L 487.44187 305.271218 
L 487.905662 297.98124 
L 488.369455 301.774204 
L 488.833247 311.975292 
L 489.297039 310.064095 
L 490.224623 300.34081 
L 490.688416 300.294768 
L 491.152208 307.210082 
L 491.616 307.991161 
L 492.079792 296.945427 
L 492.543584 289.354185 
L 493.007377 289.7622 
L 493.471169 291.185683 
L 493.934961 296.859465 
L 494.398753 305.32715 
L 494.862545 300.237031 
L 495.326338 291.865751 
L 496.253922 310.136981 
L 496.717714 310.129504 
L 497.645299 285.911121 
L 498.109091 284.216137 
L 498.109091 284.216137 
" clip-path="url(#p14011e944a)" style="fill: none; stroke: #ff7f0e; stroke-width: 1.5; stroke-linecap: round"/>
   </g>
   <g id="patch_3">
    <path d="M 72 384.48 
L 72 51.84 
" style="fill: none; stroke: #ffffff; stroke-width: 0.8; stroke-linejoin: miter; stroke-linecap: square"/>
   </g>
   <g id="patch_4">
    <path d="M 518.4 384.48 
L 518.4 51.84 
" style="fill: none; stroke: #ffffff; stroke-width: 0.8; stroke-linejoin: miter; stroke-linecap: square"/>
   </g>
   <g id="patch_5">
    <path d="M 72 384.48 
L 518.4 384.48 
" style="fill: none; stroke: #ffffff; stroke-width: 0.8; stroke-linejoin: miter; stroke-linecap: square"/>
   </g>
   <g id="patch_6">
    <path d="M 72 51.84 
L 518.4 51.84 
" style="fill: none; stroke: #ffffff; stroke-width: 0.8; stroke-linejoin: miter; stroke-linecap: square"/>
   </g>
   <g id="text_16">
    <!-- Average Wind Speed Prediction 1 Day Ahead -->
    <g style="fill: #262626" transform="translate(174.235312 45.84) scale(0.12 -0.12)">
     <defs>
      <path id="ArialMT-41" d="M -9 0 
L 1750 4581 
L 2403 4581 
L 4278 0 
L 3588 0 
L 3053 1388 
L 1138 1388 
L 634 0 
L -9 0 
z
M 1313 1881 
L 2866 1881 
L 2388 3150 
Q 2169 3728 2063 4100 
Q 1975 3659 1816 3225 
L 1313 1881 
z
" transform="scale(0.015625)"/>
      <path id="ArialMT-76" d="M 1344 0 
L 81 3319 
L 675 3319 
L 1388 1331 
Q 1503 1009 1600 663 
Q 1675 925 1809 1294 
L 2547 3319 
L 3125 3319 
L 1869 0 
L 1344 0 
z
" transform="scale(0.015625)"/>
      <path id="ArialMT-65" d="M 2694 1069 
L 3275 997 
Q 3138 488 2766 206 
Q 2394 -75 1816 -75 
Q 1088 -75 661 373 
Q 234 822 234 1631 
Q 234 2469 665 2931 
Q 1097 3394 1784 3394 
Q 2450 3394 2872 2941 
Q 3294 2488 3294 1666 
Q 3294 1616 3291 1516 
L 816 1516 
Q 847 969 1125 678 
Q 1403 388 1819 388 
Q 2128 388 2347 550 
Q 2566 713 2694 1069 
z
M 847 1978 
L 2700 1978 
Q 2663 2397 2488 2606 
Q 2219 2931 1791 2931 
Q 1403 2931 1139 2672 
Q 875 2413 847 1978 
z
" transform="scale(0.015625)"/>
      <path id="ArialMT-72" d="M 416 0 
L 416 3319 
L 922 3319 
L 922 2816 
Q 1116 3169 1280 3281 
Q 1444 3394 1641 3394 
Q 1925 3394 2219 3213 
L 2025 2691 
Q 1819 2813 1613 2813 
Q 1428 2813 1281 2702 
Q 1134 2591 1072 2394 
Q 978 2094 978 1738 
L 978 0 
L 416 0 
z
" transform="scale(0.015625)"/>
      <path id="ArialMT-67" d="M 319 -275 
L 866 -356 
Q 900 -609 1056 -725 
Q 1266 -881 1628 -881 
Q 2019 -881 2231 -725 
Q 2444 -569 2519 -288 
Q 2563 -116 2559 434 
Q 2191 0 1641 0 
Q 956 0 581 494 
Q 206 988 206 1678 
Q 206 2153 378 2554 
Q 550 2956 876 3175 
Q 1203 3394 1644 3394 
Q 2231 3394 2613 2919 
L 2613 3319 
L 3131 3319 
L 3131 450 
Q 3131 -325 2973 -648 
Q 2816 -972 2473 -1159 
Q 2131 -1347 1631 -1347 
Q 1038 -1347 672 -1080 
Q 306 -813 319 -275 
z
M 784 1719 
Q 784 1066 1043 766 
Q 1303 466 1694 466 
Q 2081 466 2343 764 
Q 2606 1063 2606 1700 
Q 2606 2309 2336 2618 
Q 2066 2928 1684 2928 
Q 1309 2928 1046 2623 
Q 784 2319 784 1719 
z
" transform="scale(0.015625)"/>
      <path id="ArialMT-20" transform="scale(0.015625)"/>
      <path id="ArialMT-57" d="M 1294 0 
L 78 4581 
L 700 4581 
L 1397 1578 
Q 1509 1106 1591 641 
Q 1766 1375 1797 1488 
L 2669 4581 
L 3400 4581 
L 4056 2263 
Q 4303 1400 4413 641 
Q 4500 1075 4641 1638 
L 5359 4581 
L 5969 4581 
L 4713 0 
L 4128 0 
L 3163 3491 
Q 3041 3928 3019 4028 
Q 2947 3713 2884 3491 
L 1913 0 
L 1294 0 
z
" transform="scale(0.015625)"/>
      <path id="ArialMT-69" d="M 425 3934 
L 425 4581 
L 988 4581 
L 988 3934 
L 425 3934 
z
M 425 0 
L 425 3319 
L 988 3319 
L 988 0 
L 425 0 
z
" transform="scale(0.015625)"/>
      <path id="ArialMT-6e" d="M 422 0 
L 422 3319 
L 928 3319 
L 928 2847 
Q 1294 3394 1984 3394 
Q 2284 3394 2536 3286 
Q 2788 3178 2913 3003 
Q 3038 2828 3088 2588 
Q 3119 2431 3119 2041 
L 3119 0 
L 2556 0 
L 2556 2019 
Q 2556 2363 2490 2533 
Q 2425 2703 2258 2804 
Q 2091 2906 1866 2906 
Q 1506 2906 1245 2678 
Q 984 2450 984 1813 
L 984 0 
L 422 0 
z
" transform="scale(0.015625)"/>
      <path id="ArialMT-64" d="M 2575 0 
L 2575 419 
Q 2259 -75 1647 -75 
Q 1250 -75 917 144 
Q 584 363 401 755 
Q 219 1147 219 1656 
Q 219 2153 384 2558 
Q 550 2963 881 3178 
Q 1213 3394 1622 3394 
Q 1922 3394 2156 3267 
Q 2391 3141 2538 2938 
L 2538 4581 
L 3097 4581 
L 3097 0 
L 2575 0 
z
M 797 1656 
Q 797 1019 1065 703 
Q 1334 388 1700 388 
Q 2069 388 2326 689 
Q 2584 991 2584 1609 
Q 2584 2291 2321 2609 
Q 2059 2928 1675 2928 
Q 1300 2928 1048 2622 
Q 797 2316 797 1656 
z
" transform="scale(0.015625)"/>
      <path id="ArialMT-53" d="M 288 1472 
L 859 1522 
Q 900 1178 1048 958 
Q 1197 738 1509 602 
Q 1822 466 2213 466 
Q 2559 466 2825 569 
Q 3091 672 3220 851 
Q 3350 1031 3350 1244 
Q 3350 1459 3225 1620 
Q 3100 1781 2813 1891 
Q 2628 1963 1997 2114 
Q 1366 2266 1113 2400 
Q 784 2572 623 2826 
Q 463 3081 463 3397 
Q 463 3744 659 4045 
Q 856 4347 1234 4503 
Q 1613 4659 2075 4659 
Q 2584 4659 2973 4495 
Q 3363 4331 3572 4012 
Q 3781 3694 3797 3291 
L 3216 3247 
Q 3169 3681 2898 3903 
Q 2628 4125 2100 4125 
Q 1550 4125 1298 3923 
Q 1047 3722 1047 3438 
Q 1047 3191 1225 3031 
Q 1400 2872 2139 2705 
Q 2878 2538 3153 2413 
Q 3553 2228 3743 1945 
Q 3934 1663 3934 1294 
Q 3934 928 3725 604 
Q 3516 281 3123 101 
Q 2731 -78 2241 -78 
Q 1619 -78 1198 103 
Q 778 284 539 648 
Q 300 1013 288 1472 
z
" transform="scale(0.015625)"/>
      <path id="ArialMT-70" d="M 422 -1272 
L 422 3319 
L 934 3319 
L 934 2888 
Q 1116 3141 1344 3267 
Q 1572 3394 1897 3394 
Q 2322 3394 2647 3175 
Q 2972 2956 3137 2557 
Q 3303 2159 3303 1684 
Q 3303 1175 3120 767 
Q 2938 359 2589 142 
Q 2241 -75 1856 -75 
Q 1575 -75 1351 44 
Q 1128 163 984 344 
L 984 -1272 
L 422 -1272 
z
M 931 1641 
Q 931 1000 1190 694 
Q 1450 388 1819 388 
Q 2194 388 2461 705 
Q 2728 1022 2728 1688 
Q 2728 2322 2467 2637 
Q 2206 2953 1844 2953 
Q 1484 2953 1207 2617 
Q 931 2281 931 1641 
z
" transform="scale(0.015625)"/>
      <path id="ArialMT-50" d="M 494 0 
L 494 4581 
L 2222 4581 
Q 2678 4581 2919 4538 
Q 3256 4481 3484 4323 
Q 3713 4166 3852 3881 
Q 3991 3597 3991 3256 
Q 3991 2672 3619 2267 
Q 3247 1863 2275 1863 
L 1100 1863 
L 1100 0 
L 494 0 
z
M 1100 2403 
L 2284 2403 
Q 2872 2403 3119 2622 
Q 3366 2841 3366 3238 
Q 3366 3525 3220 3729 
Q 3075 3934 2838 4000 
Q 2684 4041 2272 4041 
L 1100 4041 
L 1100 2403 
z
" transform="scale(0.015625)"/>
      <path id="ArialMT-63" d="M 2588 1216 
L 3141 1144 
Q 3050 572 2676 248 
Q 2303 -75 1759 -75 
Q 1078 -75 664 370 
Q 250 816 250 1647 
Q 250 2184 428 2587 
Q 606 2991 970 3192 
Q 1334 3394 1763 3394 
Q 2303 3394 2647 3120 
Q 2991 2847 3088 2344 
L 2541 2259 
Q 2463 2594 2264 2762 
Q 2066 2931 1784 2931 
Q 1359 2931 1093 2626 
Q 828 2322 828 1663 
Q 828 994 1084 691 
Q 1341 388 1753 388 
Q 2084 388 2306 591 
Q 2528 794 2588 1216 
z
" transform="scale(0.015625)"/>
      <path id="ArialMT-74" d="M 1650 503 
L 1731 6 
Q 1494 -44 1306 -44 
Q 1000 -44 831 53 
Q 663 150 594 308 
Q 525 466 525 972 
L 525 2881 
L 113 2881 
L 113 3319 
L 525 3319 
L 525 4141 
L 1084 4478 
L 1084 3319 
L 1650 3319 
L 1650 2881 
L 1084 2881 
L 1084 941 
Q 1084 700 1114 631 
Q 1144 563 1211 522 
Q 1278 481 1403 481 
Q 1497 481 1650 503 
z
" transform="scale(0.015625)"/>
      <path id="ArialMT-6f" d="M 213 1659 
Q 213 2581 725 3025 
Q 1153 3394 1769 3394 
Q 2453 3394 2887 2945 
Q 3322 2497 3322 1706 
Q 3322 1066 3130 698 
Q 2938 331 2570 128 
Q 2203 -75 1769 -75 
Q 1072 -75 642 372 
Q 213 819 213 1659 
z
M 791 1659 
Q 791 1022 1069 705 
Q 1347 388 1769 388 
Q 2188 388 2466 706 
Q 2744 1025 2744 1678 
Q 2744 2294 2464 2611 
Q 2184 2928 1769 2928 
Q 1347 2928 1069 2612 
Q 791 2297 791 1659 
z
" transform="scale(0.015625)"/>
      <path id="ArialMT-68" d="M 422 0 
L 422 4581 
L 984 4581 
L 984 2938 
Q 1378 3394 1978 3394 
Q 2347 3394 2619 3248 
Q 2891 3103 3008 2847 
Q 3125 2591 3125 2103 
L 3125 0 
L 2563 0 
L 2563 2103 
Q 2563 2525 2380 2717 
Q 2197 2909 1863 2909 
Q 1613 2909 1392 2779 
Q 1172 2650 1078 2428 
Q 984 2206 984 1816 
L 984 0 
L 422 0 
z
" transform="scale(0.015625)"/>
     </defs>
     <use xlink:href="#ArialMT-41"/>
     <use xlink:href="#ArialMT-76" x="64.949219"/>
     <use xlink:href="#ArialMT-65" x="114.949219"/>
     <use xlink:href="#ArialMT-72" x="170.564453"/>
     <use xlink:href="#ArialMT-61" x="203.865234"/>
     <use xlink:href="#ArialMT-67" x="259.480469"/>
     <use xlink:href="#ArialMT-65" x="315.095703"/>
     <use xlink:href="#ArialMT-20" x="370.710938"/>
     <use xlink:href="#ArialMT-57" x="398.494141"/>
     <use xlink:href="#ArialMT-69" x="492.878906"/>
     <use xlink:href="#ArialMT-6e" x="515.095703"/>
     <use xlink:href="#ArialMT-64" x="570.710938"/>
     <use xlink:href="#ArialMT-20" x="626.326172"/>
     <use xlink:href="#ArialMT-53" x="654.109375"/>
     <use xlink:href="#ArialMT-70" x="720.808594"/>
     <use xlink:href="#ArialMT-65" x="776.423828"/>
     <use xlink:href="#ArialMT-65" x="832.039062"/>
     <use xlink:href="#ArialMT-64" x="887.654297"/>
     <use xlink:href="#ArialMT-20" x="943.269531"/>
     <use xlink:href="#ArialMT-50" x="971.052734"/>
     <use xlink:href="#ArialMT-72" x="1037.751953"/>
     <use xlink:href="#ArialMT-65" x="1071.052734"/>
     <use xlink:href="#ArialMT-64" x="1126.667969"/>
     <use xlink:href="#ArialMT-69" x="1182.283203"/>
     <use xlink:href="#ArialMT-63" x="1204.5"/>
     <use xlink:href="#ArialMT-74" x="1254.5"/>
     <use xlink:href="#ArialMT-69" x="1282.283203"/>
     <use xlink:href="#ArialMT-6f" x="1304.5"/>
     <use xlink:href="#ArialMT-6e" x="1360.115234"/>
     <use xlink:href="#ArialMT-20" x="1415.730469"/>
     <use xlink:href="#ArialMT-31" x="1443.513672"/>
     <use xlink:href="#ArialMT-20" x="1499.128906"/>
     <use xlink:href="#ArialMT-44" x="1526.912109"/>
     <use xlink:href="#ArialMT-61" x="1599.128906"/>
     <use xlink:href="#ArialMT-79" x="1654.744141"/>
     <use xlink:href="#ArialMT-20" x="1704.744141"/>
     <use xlink:href="#ArialMT-41" x="1727.027344"/>
     <use xlink:href="#ArialMT-68" x="1793.726562"/>
     <use xlink:href="#ArialMT-65" x="1849.341797"/>
     <use xlink:href="#ArialMT-61" x="1904.957031"/>
     <use xlink:href="#ArialMT-64" x="1960.572266"/>
    </g>
   </g>
   <g id="legend_1">
    <g id="patch_7">
     <path d="M 437.15625 88.130625 
L 511.4 88.130625 
Q 513.4 88.130625 513.4 86.130625 
L 513.4 58.84 
Q 513.4 56.84 511.4 56.84 
L 437.15625 56.84 
Q 435.15625 56.84 435.15625 58.84 
L 435.15625 86.130625 
Q 435.15625 88.130625 437.15625 88.130625 
z
" style="fill: #eaeaf2; opacity: 0.8; stroke: #cccccc; stroke-linejoin: miter"/>
    </g>
    <g id="line2d_16">
     <path d="M 439.15625 64.497812 
L 449.15625 64.497812 
L 459.15625 64.497812 
" style="fill: none; stroke: #1f77b4; stroke-width: 1.5; stroke-linecap: round"/>
    </g>
    <g id="text_17">
     <!-- Real -->
     <g style="fill: #262626" transform="translate(467.15625 67.997812) scale(0.1 -0.1)">
      <defs>
       <path id="ArialMT-52" d="M 503 0 
L 503 4581 
L 2534 4581 
Q 3147 4581 3465 4457 
Q 3784 4334 3975 4021 
Q 4166 3709 4166 3331 
Q 4166 2844 3850 2509 
Q 3534 2175 2875 2084 
Q 3116 1969 3241 1856 
Q 3506 1613 3744 1247 
L 4541 0 
L 3778 0 
L 3172 953 
Q 2906 1366 2734 1584 
Q 2563 1803 2427 1890 
Q 2291 1978 2150 2013 
Q 2047 2034 1813 2034 
L 1109 2034 
L 1109 0 
L 503 0 
z
M 1109 2559 
L 2413 2559 
Q 2828 2559 3062 2645 
Q 3297 2731 3419 2920 
Q 3541 3109 3541 3331 
Q 3541 3656 3305 3865 
Q 3069 4075 2559 4075 
L 1109 4075 
L 1109 2559 
z
" transform="scale(0.015625)"/>
       <path id="ArialMT-6c" d="M 409 0 
L 409 4581 
L 972 4581 
L 972 0 
L 409 0 
z
" transform="scale(0.015625)"/>
      </defs>
      <use xlink:href="#ArialMT-52"/>
      <use xlink:href="#ArialMT-65" x="72.216797"/>
      <use xlink:href="#ArialMT-61" x="127.832031"/>
      <use xlink:href="#ArialMT-6c" x="183.447266"/>
     </g>
    </g>
    <g id="line2d_17">
     <path d="M 439.15625 78.643125 
L 449.15625 78.643125 
L 459.15625 78.643125 
" style="fill: none; stroke: #ff7f0e; stroke-width: 1.5; stroke-linecap: round"/>
    </g>
    <g id="text_18">
     <!-- Predicted -->
     <g style="fill: #262626" transform="translate(467.15625 82.143125) scale(0.1 -0.1)">
      <use xlink:href="#ArialMT-50"/>
      <use xlink:href="#ArialMT-72" x="66.699219"/>
      <use xlink:href="#ArialMT-65" x="100"/>
      <use xlink:href="#ArialMT-64" x="155.615234"/>
      <use xlink:href="#ArialMT-69" x="211.230469"/>
      <use xlink:href="#ArialMT-63" x="233.447266"/>
      <use xlink:href="#ArialMT-74" x="283.447266"/>
      <use xlink:href="#ArialMT-65" x="311.230469"/>
      <use xlink:href="#ArialMT-64" x="366.845703"/>
     </g>
    </g>
   </g>
  </g>
 </g>
 <defs>
  <clipPath id="p14011e944a">
   <rect x="72" y="51.84" width="446.4" height="332.64"/>
  </clipPath>
 </defs>
</svg>
