<?xml version="1.0" encoding="utf-8" standalone="no"?>
<!DOCTYPE svg PUBLIC "-//W3C//DTD SVG 1.1//EN"
  "http://www.w3.org/Graphics/SVG/1.1/DTD/svg11.dtd">
<svg xmlns:xlink="http://www.w3.org/1999/xlink" width="576pt" height="432pt" viewBox="0 0 576 432" xmlns="http://www.w3.org/2000/svg" version="1.1">
 <metadata>
  <rdf:RDF xmlns:dc="http://purl.org/dc/elements/1.1/" xmlns:cc="http://creativecommons.org/ns#" xmlns:rdf="http://www.w3.org/1999/02/22-rdf-syntax-ns#">
   <cc:Work>
    <dc:type rdf:resource="http://purl.org/dc/dcmitype/StillImage"/>
    <dc:date>2023-11-17T05:15:14.050216</dc:date>
    <dc:format>image/svg+xml</dc:format>
    <dc:creator>
     <cc:Agent>
      <dc:title>Matplotlib v3.8.0, https://matplotlib.org/</dc:title>
     </cc:Agent>
    </dc:creator>
   </cc:Work>
  </rdf:RDF>
 </metadata>
 <defs>
  <style type="text/css">*{stroke-linejoin: round; stroke-linecap: butt}</style>
 </defs>
 <g id="figure_1">
  <g id="patch_1">
   <path d="M 0 432 
L 576 432 
L 576 0 
L 0 0 
z
" style="fill: #ffffff"/>
  </g>
  <g id="axes_1">
   <g id="patch_2">
    <path d="M 55.8425 392.2225 
L 565.2 392.2225 
L 565.2 10.8 
L 55.8425 10.8 
z
" style="fill: #eaeaf2"/>
   </g>
   <g id="matplotlib.axis_1">
    <g id="xtick_1">
     <g id="line2d_1">
      <path d="M 114.962914 392.2225 
L 114.962914 10.8 
" clip-path="url(#pacf47ea596)" style="fill: none; stroke: #ffffff; stroke-width: 0.8; stroke-linecap: round"/>
     </g>
     <g id="text_1">
      <!-- −20 -->
      <g style="fill: #262626" transform="translate(106.481664 406.380313) scale(0.1 -0.1)">
       <defs>
        <path id="ArialMT-2212" d="M 3381 1997 
L 356 1997 
L 356 2522 
L 3381 2522 
L 3381 1997 
z
" transform="scale(0.015625)"/>
        <path id="ArialMT-32" d="M 3222 541 
L 3222 0 
L 194 0 
Q 188 203 259 391 
Q 375 700 629 1000 
Q 884 1300 1366 1694 
Q 2113 2306 2375 2664 
Q 2638 3022 2638 3341 
Q 2638 3675 2398 3904 
Q 2159 4134 1775 4134 
Q 1369 4134 1125 3890 
Q 881 3647 878 3216 
L 300 3275 
Q 359 3922 746 4261 
Q 1134 4600 1788 4600 
Q 2447 4600 2831 4234 
Q 3216 3869 3216 3328 
Q 3216 3053 3103 2787 
Q 2991 2522 2730 2228 
Q 2469 1934 1863 1422 
Q 1356 997 1212 845 
Q 1069 694 975 541 
L 3222 541 
z
" transform="scale(0.015625)"/>
        <path id="ArialMT-30" d="M 266 2259 
Q 266 3072 433 3567 
Q 600 4063 929 4331 
Q 1259 4600 1759 4600 
Q 2128 4600 2406 4451 
Q 2684 4303 2865 4023 
Q 3047 3744 3150 3342 
Q 3253 2941 3253 2259 
Q 3253 1453 3087 958 
Q 2922 463 2592 192 
Q 2263 -78 1759 -78 
Q 1097 -78 719 397 
Q 266 969 266 2259 
z
M 844 2259 
Q 844 1131 1108 757 
Q 1372 384 1759 384 
Q 2147 384 2411 759 
Q 2675 1134 2675 2259 
Q 2675 3391 2411 3762 
Q 2147 4134 1753 4134 
Q 1366 4134 1134 3806 
Q 844 3388 844 2259 
z
" transform="scale(0.015625)"/>
       </defs>
       <use xlink:href="#ArialMT-2212"/>
       <use xlink:href="#ArialMT-32" x="58.398438"/>
       <use xlink:href="#ArialMT-30" x="114.013672"/>
      </g>
     </g>
    </g>
    <g id="xtick_2">
     <g id="line2d_2">
      <path d="M 221.505988 392.2225 
L 221.505988 10.8 
" clip-path="url(#pacf47ea596)" style="fill: none; stroke: #ffffff; stroke-width: 0.8; stroke-linecap: round"/>
     </g>
     <g id="text_2">
      <!-- −10 -->
      <g style="fill: #262626" transform="translate(213.024738 406.380313) scale(0.1 -0.1)">
       <defs>
        <path id="ArialMT-31" d="M 2384 0 
L 1822 0 
L 1822 3584 
Q 1619 3391 1289 3197 
Q 959 3003 697 2906 
L 697 3450 
Q 1169 3672 1522 3987 
Q 1875 4303 2022 4600 
L 2384 4600 
L 2384 0 
z
" transform="scale(0.015625)"/>
       </defs>
       <use xlink:href="#ArialMT-2212"/>
       <use xlink:href="#ArialMT-31" x="58.398438"/>
       <use xlink:href="#ArialMT-30" x="114.013672"/>
      </g>
     </g>
    </g>
    <g id="xtick_3">
     <g id="line2d_3">
      <path d="M 328.049062 392.2225 
L 328.049062 10.8 
" clip-path="url(#pacf47ea596)" style="fill: none; stroke: #ffffff; stroke-width: 0.8; stroke-linecap: round"/>
     </g>
     <g id="text_3">
      <!-- 0 -->
      <g style="fill: #262626" transform="translate(325.268593 406.380313) scale(0.1 -0.1)">
       <use xlink:href="#ArialMT-30"/>
      </g>
     </g>
    </g>
    <g id="xtick_4">
     <g id="line2d_4">
      <path d="M 434.592136 392.2225 
L 434.592136 10.8 
" clip-path="url(#pacf47ea596)" style="fill: none; stroke: #ffffff; stroke-width: 0.8; stroke-linecap: round"/>
     </g>
     <g id="text_4">
      <!-- 10 -->
      <g style="fill: #262626" transform="translate(429.031198 406.380313) scale(0.1 -0.1)">
       <use xlink:href="#ArialMT-31"/>
       <use xlink:href="#ArialMT-30" x="55.615234"/>
      </g>
     </g>
    </g>
    <g id="xtick_5">
     <g id="line2d_5">
      <path d="M 541.13521 392.2225 
L 541.13521 10.8 
" clip-path="url(#pacf47ea596)" style="fill: none; stroke: #ffffff; stroke-width: 0.8; stroke-linecap: round"/>
     </g>
     <g id="text_5">
      <!-- 20 -->
      <g style="fill: #262626" transform="translate(535.574272 406.380313) scale(0.1 -0.1)">
       <use xlink:href="#ArialMT-32"/>
       <use xlink:href="#ArialMT-30" x="55.615234"/>
      </g>
     </g>
    </g>
    <g id="text_6">
     <!-- Maximum Temperature Predictive Error (°C) -->
     <g style="fill: #262626" transform="translate(213.319687 419.6475) scale(0.1 -0.1)">
      <defs>
       <path id="ArialMT-4d" d="M 475 0 
L 475 4581 
L 1388 4581 
L 2472 1338 
Q 2622 884 2691 659 
Q 2769 909 2934 1394 
L 4031 4581 
L 4847 4581 
L 4847 0 
L 4263 0 
L 4263 3834 
L 2931 0 
L 2384 0 
L 1059 3900 
L 1059 0 
L 475 0 
z
" transform="scale(0.015625)"/>
       <path id="ArialMT-61" d="M 2588 409 
Q 2275 144 1986 34 
Q 1697 -75 1366 -75 
Q 819 -75 525 192 
Q 231 459 231 875 
Q 231 1119 342 1320 
Q 453 1522 633 1644 
Q 813 1766 1038 1828 
Q 1203 1872 1538 1913 
Q 2219 1994 2541 2106 
Q 2544 2222 2544 2253 
Q 2544 2597 2384 2738 
Q 2169 2928 1744 2928 
Q 1347 2928 1158 2789 
Q 969 2650 878 2297 
L 328 2372 
Q 403 2725 575 2942 
Q 747 3159 1072 3276 
Q 1397 3394 1825 3394 
Q 2250 3394 2515 3294 
Q 2781 3194 2906 3042 
Q 3031 2891 3081 2659 
Q 3109 2516 3109 2141 
L 3109 1391 
Q 3109 606 3145 398 
Q 3181 191 3288 0 
L 2700 0 
Q 2613 175 2588 409 
z
M 2541 1666 
Q 2234 1541 1622 1453 
Q 1275 1403 1131 1340 
Q 988 1278 909 1158 
Q 831 1038 831 891 
Q 831 666 1001 516 
Q 1172 366 1500 366 
Q 1825 366 2078 508 
Q 2331 650 2450 897 
Q 2541 1088 2541 1459 
L 2541 1666 
z
" transform="scale(0.015625)"/>
       <path id="ArialMT-78" d="M 47 0 
L 1259 1725 
L 138 3319 
L 841 3319 
L 1350 2541 
Q 1494 2319 1581 2169 
Q 1719 2375 1834 2534 
L 2394 3319 
L 3066 3319 
L 1919 1756 
L 3153 0 
L 2463 0 
L 1781 1031 
L 1600 1309 
L 728 0 
L 47 0 
z
" transform="scale(0.015625)"/>
       <path id="ArialMT-69" d="M 425 3934 
L 425 4581 
L 988 4581 
L 988 3934 
L 425 3934 
z
M 425 0 
L 425 3319 
L 988 3319 
L 988 0 
L 425 0 
z
" transform="scale(0.015625)"/>
       <path id="ArialMT-6d" d="M 422 0 
L 422 3319 
L 925 3319 
L 925 2853 
Q 1081 3097 1340 3245 
Q 1600 3394 1931 3394 
Q 2300 3394 2536 3241 
Q 2772 3088 2869 2813 
Q 3263 3394 3894 3394 
Q 4388 3394 4653 3120 
Q 4919 2847 4919 2278 
L 4919 0 
L 4359 0 
L 4359 2091 
Q 4359 2428 4304 2576 
Q 4250 2725 4106 2815 
Q 3963 2906 3769 2906 
Q 3419 2906 3187 2673 
Q 2956 2441 2956 1928 
L 2956 0 
L 2394 0 
L 2394 2156 
Q 2394 2531 2256 2718 
Q 2119 2906 1806 2906 
Q 1569 2906 1367 2781 
Q 1166 2656 1075 2415 
Q 984 2175 984 1722 
L 984 0 
L 422 0 
z
" transform="scale(0.015625)"/>
       <path id="ArialMT-75" d="M 2597 0 
L 2597 488 
Q 2209 -75 1544 -75 
Q 1250 -75 995 37 
Q 741 150 617 320 
Q 494 491 444 738 
Q 409 903 409 1263 
L 409 3319 
L 972 3319 
L 972 1478 
Q 972 1038 1006 884 
Q 1059 663 1231 536 
Q 1403 409 1656 409 
Q 1909 409 2131 539 
Q 2353 669 2445 892 
Q 2538 1116 2538 1541 
L 2538 3319 
L 3100 3319 
L 3100 0 
L 2597 0 
z
" transform="scale(0.015625)"/>
       <path id="ArialMT-20" transform="scale(0.015625)"/>
       <path id="ArialMT-54" d="M 1659 0 
L 1659 4041 
L 150 4041 
L 150 4581 
L 3781 4581 
L 3781 4041 
L 2266 4041 
L 2266 0 
L 1659 0 
z
" transform="scale(0.015625)"/>
       <path id="ArialMT-65" d="M 2694 1069 
L 3275 997 
Q 3138 488 2766 206 
Q 2394 -75 1816 -75 
Q 1088 -75 661 373 
Q 234 822 234 1631 
Q 234 2469 665 2931 
Q 1097 3394 1784 3394 
Q 2450 3394 2872 2941 
Q 3294 2488 3294 1666 
Q 3294 1616 3291 1516 
L 816 1516 
Q 847 969 1125 678 
Q 1403 388 1819 388 
Q 2128 388 2347 550 
Q 2566 713 2694 1069 
z
M 847 1978 
L 2700 1978 
Q 2663 2397 2488 2606 
Q 2219 2931 1791 2931 
Q 1403 2931 1139 2672 
Q 875 2413 847 1978 
z
" transform="scale(0.015625)"/>
       <path id="ArialMT-70" d="M 422 -1272 
L 422 3319 
L 934 3319 
L 934 2888 
Q 1116 3141 1344 3267 
Q 1572 3394 1897 3394 
Q 2322 3394 2647 3175 
Q 2972 2956 3137 2557 
Q 3303 2159 3303 1684 
Q 3303 1175 3120 767 
Q 2938 359 2589 142 
Q 2241 -75 1856 -75 
Q 1575 -75 1351 44 
Q 1128 163 984 344 
L 984 -1272 
L 422 -1272 
z
M 931 1641 
Q 931 1000 1190 694 
Q 1450 388 1819 388 
Q 2194 388 2461 705 
Q 2728 1022 2728 1688 
Q 2728 2322 2467 2637 
Q 2206 2953 1844 2953 
Q 1484 2953 1207 2617 
Q 931 2281 931 1641 
z
" transform="scale(0.015625)"/>
       <path id="ArialMT-72" d="M 416 0 
L 416 3319 
L 922 3319 
L 922 2816 
Q 1116 3169 1280 3281 
Q 1444 3394 1641 3394 
Q 1925 3394 2219 3213 
L 2025 2691 
Q 1819 2813 1613 2813 
Q 1428 2813 1281 2702 
Q 1134 2591 1072 2394 
Q 978 2094 978 1738 
L 978 0 
L 416 0 
z
" transform="scale(0.015625)"/>
       <path id="ArialMT-74" d="M 1650 503 
L 1731 6 
Q 1494 -44 1306 -44 
Q 1000 -44 831 53 
Q 663 150 594 308 
Q 525 466 525 972 
L 525 2881 
L 113 2881 
L 113 3319 
L 525 3319 
L 525 4141 
L 1084 4478 
L 1084 3319 
L 1650 3319 
L 1650 2881 
L 1084 2881 
L 1084 941 
Q 1084 700 1114 631 
Q 1144 563 1211 522 
Q 1278 481 1403 481 
Q 1497 481 1650 503 
z
" transform="scale(0.015625)"/>
       <path id="ArialMT-50" d="M 494 0 
L 494 4581 
L 2222 4581 
Q 2678 4581 2919 4538 
Q 3256 4481 3484 4323 
Q 3713 4166 3852 3881 
Q 3991 3597 3991 3256 
Q 3991 2672 3619 2267 
Q 3247 1863 2275 1863 
L 1100 1863 
L 1100 0 
L 494 0 
z
M 1100 2403 
L 2284 2403 
Q 2872 2403 3119 2622 
Q 3366 2841 3366 3238 
Q 3366 3525 3220 3729 
Q 3075 3934 2838 4000 
Q 2684 4041 2272 4041 
L 1100 4041 
L 1100 2403 
z
" transform="scale(0.015625)"/>
       <path id="ArialMT-64" d="M 2575 0 
L 2575 419 
Q 2259 -75 1647 -75 
Q 1250 -75 917 144 
Q 584 363 401 755 
Q 219 1147 219 1656 
Q 219 2153 384 2558 
Q 550 2963 881 3178 
Q 1213 3394 1622 3394 
Q 1922 3394 2156 3267 
Q 2391 3141 2538 2938 
L 2538 4581 
L 3097 4581 
L 3097 0 
L 2575 0 
z
M 797 1656 
Q 797 1019 1065 703 
Q 1334 388 1700 388 
Q 2069 388 2326 689 
Q 2584 991 2584 1609 
Q 2584 2291 2321 2609 
Q 2059 2928 1675 2928 
Q 1300 2928 1048 2622 
Q 797 2316 797 1656 
z
" transform="scale(0.015625)"/>
       <path id="ArialMT-63" d="M 2588 1216 
L 3141 1144 
Q 3050 572 2676 248 
Q 2303 -75 1759 -75 
Q 1078 -75 664 370 
Q 250 816 250 1647 
Q 250 2184 428 2587 
Q 606 2991 970 3192 
Q 1334 3394 1763 3394 
Q 2303 3394 2647 3120 
Q 2991 2847 3088 2344 
L 2541 2259 
Q 2463 2594 2264 2762 
Q 2066 2931 1784 2931 
Q 1359 2931 1093 2626 
Q 828 2322 828 1663 
Q 828 994 1084 691 
Q 1341 388 1753 388 
Q 2084 388 2306 591 
Q 2528 794 2588 1216 
z
" transform="scale(0.015625)"/>
       <path id="ArialMT-76" d="M 1344 0 
L 81 3319 
L 675 3319 
L 1388 1331 
Q 1503 1009 1600 663 
Q 1675 925 1809 1294 
L 2547 3319 
L 3125 3319 
L 1869 0 
L 1344 0 
z
" transform="scale(0.015625)"/>
       <path id="ArialMT-45" d="M 506 0 
L 506 4581 
L 3819 4581 
L 3819 4041 
L 1113 4041 
L 1113 2638 
L 3647 2638 
L 3647 2100 
L 1113 2100 
L 1113 541 
L 3925 541 
L 3925 0 
L 506 0 
z
" transform="scale(0.015625)"/>
       <path id="ArialMT-6f" d="M 213 1659 
Q 213 2581 725 3025 
Q 1153 3394 1769 3394 
Q 2453 3394 2887 2945 
Q 3322 2497 3322 1706 
Q 3322 1066 3130 698 
Q 2938 331 2570 128 
Q 2203 -75 1769 -75 
Q 1072 -75 642 372 
Q 213 819 213 1659 
z
M 791 1659 
Q 791 1022 1069 705 
Q 1347 388 1769 388 
Q 2188 388 2466 706 
Q 2744 1025 2744 1678 
Q 2744 2294 2464 2611 
Q 2184 2928 1769 2928 
Q 1347 2928 1069 2612 
Q 791 2297 791 1659 
z
" transform="scale(0.015625)"/>
       <path id="ArialMT-28" d="M 1497 -1347 
Q 1031 -759 709 28 
Q 388 816 388 1659 
Q 388 2403 628 3084 
Q 909 3875 1497 4659 
L 1900 4659 
Q 1522 4009 1400 3731 
Q 1209 3300 1100 2831 
Q 966 2247 966 1656 
Q 966 153 1900 -1347 
L 1497 -1347 
z
" transform="scale(0.015625)"/>
       <path id="ArialMT-b0" d="M 400 3794 
Q 400 4153 654 4406 
Q 909 4659 1266 4659 
Q 1628 4659 1881 4406 
Q 2134 4153 2134 3794 
Q 2134 3434 1879 3179 
Q 1625 2925 1266 2925 
Q 909 2925 654 3178 
Q 400 3431 400 3794 
z
M 741 3794 
Q 741 3575 895 3420 
Q 1050 3266 1269 3266 
Q 1484 3266 1639 3420 
Q 1794 3575 1794 3794 
Q 1794 4013 1639 4167 
Q 1484 4322 1269 4322 
Q 1050 4322 895 4167 
Q 741 4013 741 3794 
z
" transform="scale(0.015625)"/>
       <path id="ArialMT-43" d="M 3763 1606 
L 4369 1453 
Q 4178 706 3683 314 
Q 3188 -78 2472 -78 
Q 1731 -78 1267 223 
Q 803 525 561 1097 
Q 319 1669 319 2325 
Q 319 3041 592 3573 
Q 866 4106 1370 4382 
Q 1875 4659 2481 4659 
Q 3169 4659 3637 4309 
Q 4106 3959 4291 3325 
L 3694 3184 
Q 3534 3684 3231 3912 
Q 2928 4141 2469 4141 
Q 1941 4141 1586 3887 
Q 1231 3634 1087 3207 
Q 944 2781 944 2328 
Q 944 1744 1114 1308 
Q 1284 872 1643 656 
Q 2003 441 2422 441 
Q 2931 441 3284 734 
Q 3638 1028 3763 1606 
z
" transform="scale(0.015625)"/>
       <path id="ArialMT-29" d="M 791 -1347 
L 388 -1347 
Q 1322 153 1322 1656 
Q 1322 2244 1188 2822 
Q 1081 3291 891 3722 
Q 769 4003 388 4659 
L 791 4659 
Q 1378 3875 1659 3084 
Q 1900 2403 1900 1659 
Q 1900 816 1576 28 
Q 1253 -759 791 -1347 
z
" transform="scale(0.015625)"/>
      </defs>
      <use xlink:href="#ArialMT-4d"/>
      <use xlink:href="#ArialMT-61" x="83.300781"/>
      <use xlink:href="#ArialMT-78" x="138.916016"/>
      <use xlink:href="#ArialMT-69" x="188.916016"/>
      <use xlink:href="#ArialMT-6d" x="211.132812"/>
      <use xlink:href="#ArialMT-75" x="294.433594"/>
      <use xlink:href="#ArialMT-6d" x="350.048828"/>
      <use xlink:href="#ArialMT-20" x="433.349609"/>
      <use xlink:href="#ArialMT-54" x="459.382812"/>
      <use xlink:href="#ArialMT-65" x="509.341797"/>
      <use xlink:href="#ArialMT-6d" x="564.957031"/>
      <use xlink:href="#ArialMT-70" x="648.257812"/>
      <use xlink:href="#ArialMT-65" x="703.873047"/>
      <use xlink:href="#ArialMT-72" x="759.488281"/>
      <use xlink:href="#ArialMT-61" x="792.789062"/>
      <use xlink:href="#ArialMT-74" x="848.404297"/>
      <use xlink:href="#ArialMT-75" x="876.1875"/>
      <use xlink:href="#ArialMT-72" x="931.802734"/>
      <use xlink:href="#ArialMT-65" x="965.103516"/>
      <use xlink:href="#ArialMT-20" x="1020.71875"/>
      <use xlink:href="#ArialMT-50" x="1048.501953"/>
      <use xlink:href="#ArialMT-72" x="1115.201172"/>
      <use xlink:href="#ArialMT-65" x="1148.501953"/>
      <use xlink:href="#ArialMT-64" x="1204.117188"/>
      <use xlink:href="#ArialMT-69" x="1259.732422"/>
      <use xlink:href="#ArialMT-63" x="1281.949219"/>
      <use xlink:href="#ArialMT-74" x="1331.949219"/>
      <use xlink:href="#ArialMT-69" x="1359.732422"/>
      <use xlink:href="#ArialMT-76" x="1381.949219"/>
      <use xlink:href="#ArialMT-65" x="1431.949219"/>
      <use xlink:href="#ArialMT-20" x="1487.564453"/>
      <use xlink:href="#ArialMT-45" x="1515.347656"/>
      <use xlink:href="#ArialMT-72" x="1582.046875"/>
      <use xlink:href="#ArialMT-72" x="1615.347656"/>
      <use xlink:href="#ArialMT-6f" x="1648.648438"/>
      <use xlink:href="#ArialMT-72" x="1704.263672"/>
      <use xlink:href="#ArialMT-20" x="1737.564453"/>
      <use xlink:href="#ArialMT-28" x="1765.347656"/>
      <use xlink:href="#ArialMT-b0" x="1798.648438"/>
      <use xlink:href="#ArialMT-43" x="1838.638672"/>
      <use xlink:href="#ArialMT-29" x="1910.855469"/>
     </g>
    </g>
   </g>
   <g id="matplotlib.axis_2">
    <g id="ytick_1">
     <g id="line2d_6">
      <path d="M 55.8425 392.2225 
L 565.2 392.2225 
" clip-path="url(#pacf47ea596)" style="fill: none; stroke: #ffffff; stroke-width: 0.8; stroke-linecap: round"/>
     </g>
     <g id="text_7">
      <!-- 0.000 -->
      <g style="fill: #262626" transform="translate(23.820625 395.801406) scale(0.1 -0.1)">
       <defs>
        <path id="ArialMT-2e" d="M 581 0 
L 581 641 
L 1222 641 
L 1222 0 
L 581 0 
z
" transform="scale(0.015625)"/>
       </defs>
       <use xlink:href="#ArialMT-30"/>
       <use xlink:href="#ArialMT-2e" x="55.615234"/>
       <use xlink:href="#ArialMT-30" x="83.398438"/>
       <use xlink:href="#ArialMT-30" x="139.013672"/>
       <use xlink:href="#ArialMT-30" x="194.628906"/>
      </g>
     </g>
    </g>
    <g id="ytick_2">
     <g id="line2d_7">
      <path d="M 55.8425 347.978443 
L 565.2 347.978443 
" clip-path="url(#pacf47ea596)" style="fill: none; stroke: #ffffff; stroke-width: 0.8; stroke-linecap: round"/>
     </g>
     <g id="text_8">
      <!-- 0.025 -->
      <g style="fill: #262626" transform="translate(23.820625 351.557349) scale(0.1 -0.1)">
       <defs>
        <path id="ArialMT-35" d="M 266 1200 
L 856 1250 
Q 922 819 1161 601 
Q 1400 384 1738 384 
Q 2144 384 2425 690 
Q 2706 997 2706 1503 
Q 2706 1984 2436 2262 
Q 2166 2541 1728 2541 
Q 1456 2541 1237 2417 
Q 1019 2294 894 2097 
L 366 2166 
L 809 4519 
L 3088 4519 
L 3088 3981 
L 1259 3981 
L 1013 2750 
Q 1425 3038 1878 3038 
Q 2478 3038 2890 2622 
Q 3303 2206 3303 1553 
Q 3303 931 2941 478 
Q 2500 -78 1738 -78 
Q 1113 -78 717 272 
Q 322 622 266 1200 
z
" transform="scale(0.015625)"/>
       </defs>
       <use xlink:href="#ArialMT-30"/>
       <use xlink:href="#ArialMT-2e" x="55.615234"/>
       <use xlink:href="#ArialMT-30" x="83.398438"/>
       <use xlink:href="#ArialMT-32" x="139.013672"/>
       <use xlink:href="#ArialMT-35" x="194.628906"/>
      </g>
     </g>
    </g>
    <g id="ytick_3">
     <g id="line2d_8">
      <path d="M 55.8425 303.734385 
L 565.2 303.734385 
" clip-path="url(#pacf47ea596)" style="fill: none; stroke: #ffffff; stroke-width: 0.8; stroke-linecap: round"/>
     </g>
     <g id="text_9">
      <!-- 0.050 -->
      <g style="fill: #262626" transform="translate(23.820625 307.313291) scale(0.1 -0.1)">
       <use xlink:href="#ArialMT-30"/>
       <use xlink:href="#ArialMT-2e" x="55.615234"/>
       <use xlink:href="#ArialMT-30" x="83.398438"/>
       <use xlink:href="#ArialMT-35" x="139.013672"/>
       <use xlink:href="#ArialMT-30" x="194.628906"/>
      </g>
     </g>
    </g>
    <g id="ytick_4">
     <g id="line2d_9">
      <path d="M 55.8425 259.490328 
L 565.2 259.490328 
" clip-path="url(#pacf47ea596)" style="fill: none; stroke: #ffffff; stroke-width: 0.8; stroke-linecap: round"/>
     </g>
     <g id="text_10">
      <!-- 0.075 -->
      <g style="fill: #262626" transform="translate(23.820625 263.069234) scale(0.1 -0.1)">
       <defs>
        <path id="ArialMT-37" d="M 303 3981 
L 303 4522 
L 3269 4522 
L 3269 4084 
Q 2831 3619 2401 2847 
Q 1972 2075 1738 1259 
Q 1569 684 1522 0 
L 944 0 
Q 953 541 1156 1306 
Q 1359 2072 1739 2783 
Q 2119 3494 2547 3981 
L 303 3981 
z
" transform="scale(0.015625)"/>
       </defs>
       <use xlink:href="#ArialMT-30"/>
       <use xlink:href="#ArialMT-2e" x="55.615234"/>
       <use xlink:href="#ArialMT-30" x="83.398438"/>
       <use xlink:href="#ArialMT-37" x="139.013672"/>
       <use xlink:href="#ArialMT-35" x="194.628906"/>
      </g>
     </g>
    </g>
    <g id="ytick_5">
     <g id="line2d_10">
      <path d="M 55.8425 215.24627 
L 565.2 215.24627 
" clip-path="url(#pacf47ea596)" style="fill: none; stroke: #ffffff; stroke-width: 0.8; stroke-linecap: round"/>
     </g>
     <g id="text_11">
      <!-- 0.100 -->
      <g style="fill: #262626" transform="translate(23.820625 218.825177) scale(0.1 -0.1)">
       <use xlink:href="#ArialMT-30"/>
       <use xlink:href="#ArialMT-2e" x="55.615234"/>
       <use xlink:href="#ArialMT-31" x="83.398438"/>
       <use xlink:href="#ArialMT-30" x="139.013672"/>
       <use xlink:href="#ArialMT-30" x="194.628906"/>
      </g>
     </g>
    </g>
    <g id="ytick_6">
     <g id="line2d_11">
      <path d="M 55.8425 171.002213 
L 565.2 171.002213 
" clip-path="url(#pacf47ea596)" style="fill: none; stroke: #ffffff; stroke-width: 0.8; stroke-linecap: round"/>
     </g>
     <g id="text_12">
      <!-- 0.125 -->
      <g style="fill: #262626" transform="translate(23.820625 174.581119) scale(0.1 -0.1)">
       <use xlink:href="#ArialMT-30"/>
       <use xlink:href="#ArialMT-2e" x="55.615234"/>
       <use xlink:href="#ArialMT-31" x="83.398438"/>
       <use xlink:href="#ArialMT-32" x="139.013672"/>
       <use xlink:href="#ArialMT-35" x="194.628906"/>
      </g>
     </g>
    </g>
    <g id="ytick_7">
     <g id="line2d_12">
      <path d="M 55.8425 126.758156 
L 565.2 126.758156 
" clip-path="url(#pacf47ea596)" style="fill: none; stroke: #ffffff; stroke-width: 0.8; stroke-linecap: round"/>
     </g>
     <g id="text_13">
      <!-- 0.150 -->
      <g style="fill: #262626" transform="translate(23.820625 130.337062) scale(0.1 -0.1)">
       <use xlink:href="#ArialMT-30"/>
       <use xlink:href="#ArialMT-2e" x="55.615234"/>
       <use xlink:href="#ArialMT-31" x="83.398438"/>
       <use xlink:href="#ArialMT-35" x="139.013672"/>
       <use xlink:href="#ArialMT-30" x="194.628906"/>
      </g>
     </g>
    </g>
    <g id="ytick_8">
     <g id="line2d_13">
      <path d="M 55.8425 82.514098 
L 565.2 82.514098 
" clip-path="url(#pacf47ea596)" style="fill: none; stroke: #ffffff; stroke-width: 0.8; stroke-linecap: round"/>
     </g>
     <g id="text_14">
      <!-- 0.175 -->
      <g style="fill: #262626" transform="translate(23.820625 86.093005) scale(0.1 -0.1)">
       <use xlink:href="#ArialMT-30"/>
       <use xlink:href="#ArialMT-2e" x="55.615234"/>
       <use xlink:href="#ArialMT-31" x="83.398438"/>
       <use xlink:href="#ArialMT-37" x="139.013672"/>
       <use xlink:href="#ArialMT-35" x="194.628906"/>
      </g>
     </g>
    </g>
    <g id="ytick_9">
     <g id="line2d_14">
      <path d="M 55.8425 38.270041 
L 565.2 38.270041 
" clip-path="url(#pacf47ea596)" style="fill: none; stroke: #ffffff; stroke-width: 0.8; stroke-linecap: round"/>
     </g>
     <g id="text_15">
      <!-- 0.200 -->
      <g style="fill: #262626" transform="translate(23.820625 41.848947) scale(0.1 -0.1)">
       <use xlink:href="#ArialMT-30"/>
       <use xlink:href="#ArialMT-2e" x="55.615234"/>
       <use xlink:href="#ArialMT-32" x="83.398438"/>
       <use xlink:href="#ArialMT-30" x="139.013672"/>
       <use xlink:href="#ArialMT-30" x="194.628906"/>
      </g>
     </g>
    </g>
    <g id="text_16">
     <!-- Density -->
     <g style="fill: #262626" transform="translate(17.715938 218.183125) rotate(-90) scale(0.1 -0.1)">
      <defs>
       <path id="ArialMT-44" d="M 494 0 
L 494 4581 
L 2072 4581 
Q 2606 4581 2888 4516 
Q 3281 4425 3559 4188 
Q 3922 3881 4101 3404 
Q 4281 2928 4281 2316 
Q 4281 1794 4159 1391 
Q 4038 988 3847 723 
Q 3656 459 3429 307 
Q 3203 156 2883 78 
Q 2563 0 2147 0 
L 494 0 
z
M 1100 541 
L 2078 541 
Q 2531 541 2789 625 
Q 3047 709 3200 863 
Q 3416 1078 3536 1442 
Q 3656 1806 3656 2325 
Q 3656 3044 3420 3430 
Q 3184 3816 2847 3947 
Q 2603 4041 2063 4041 
L 1100 4041 
L 1100 541 
z
" transform="scale(0.015625)"/>
       <path id="ArialMT-6e" d="M 422 0 
L 422 3319 
L 928 3319 
L 928 2847 
Q 1294 3394 1984 3394 
Q 2284 3394 2536 3286 
Q 2788 3178 2913 3003 
Q 3038 2828 3088 2588 
Q 3119 2431 3119 2041 
L 3119 0 
L 2556 0 
L 2556 2019 
Q 2556 2363 2490 2533 
Q 2425 2703 2258 2804 
Q 2091 2906 1866 2906 
Q 1506 2906 1245 2678 
Q 984 2450 984 1813 
L 984 0 
L 422 0 
z
" transform="scale(0.015625)"/>
       <path id="ArialMT-73" d="M 197 991 
L 753 1078 
Q 800 744 1014 566 
Q 1228 388 1613 388 
Q 2000 388 2187 545 
Q 2375 703 2375 916 
Q 2375 1106 2209 1216 
Q 2094 1291 1634 1406 
Q 1016 1563 777 1677 
Q 538 1791 414 1992 
Q 291 2194 291 2438 
Q 291 2659 392 2848 
Q 494 3038 669 3163 
Q 800 3259 1026 3326 
Q 1253 3394 1513 3394 
Q 1903 3394 2198 3281 
Q 2494 3169 2634 2976 
Q 2775 2784 2828 2463 
L 2278 2388 
Q 2241 2644 2061 2787 
Q 1881 2931 1553 2931 
Q 1166 2931 1000 2803 
Q 834 2675 834 2503 
Q 834 2394 903 2306 
Q 972 2216 1119 2156 
Q 1203 2125 1616 2013 
Q 2213 1853 2448 1751 
Q 2684 1650 2818 1456 
Q 2953 1263 2953 975 
Q 2953 694 2789 445 
Q 2625 197 2315 61 
Q 2006 -75 1616 -75 
Q 969 -75 630 194 
Q 291 463 197 991 
z
" transform="scale(0.015625)"/>
       <path id="ArialMT-79" d="M 397 -1278 
L 334 -750 
Q 519 -800 656 -800 
Q 844 -800 956 -737 
Q 1069 -675 1141 -563 
Q 1194 -478 1313 -144 
Q 1328 -97 1363 -6 
L 103 3319 
L 709 3319 
L 1400 1397 
Q 1534 1031 1641 628 
Q 1738 1016 1872 1384 
L 2581 3319 
L 3144 3319 
L 1881 -56 
Q 1678 -603 1566 -809 
Q 1416 -1088 1222 -1217 
Q 1028 -1347 759 -1347 
Q 597 -1347 397 -1278 
z
" transform="scale(0.015625)"/>
      </defs>
      <use xlink:href="#ArialMT-44"/>
      <use xlink:href="#ArialMT-65" x="72.216797"/>
      <use xlink:href="#ArialMT-6e" x="127.832031"/>
      <use xlink:href="#ArialMT-73" x="183.447266"/>
      <use xlink:href="#ArialMT-69" x="233.447266"/>
      <use xlink:href="#ArialMT-74" x="255.664062"/>
      <use xlink:href="#ArialMT-79" x="283.447266"/>
     </g>
    </g>
   </g>
   <g id="line2d_15">
    <path d="M 175.399205 392.211129 
L 184.611471 392.097902 
L 190.13883 391.843278 
L 193.823737 391.521028 
L 197.508643 391.04258 
L 201.193549 390.403282 
L 206.720909 389.188558 
L 212.248269 387.720369 
L 215.933175 386.55505 
L 219.618081 385.141637 
L 223.302988 383.379282 
L 226.987894 381.199141 
L 230.6728 378.586557 
L 234.357707 375.571272 
L 238.042613 372.200045 
L 241.727519 368.513586 
L 245.412426 364.535624 
L 249.097332 360.267842 
L 252.782238 355.68506 
L 256.467145 350.731532 
L 260.152051 345.320357 
L 263.836957 339.339379 
L 267.521864 332.672702 
L 271.20677 325.239737 
L 274.891676 317.020388 
L 278.576583 308.006997 
L 282.261489 298.060314 
L 284.103942 292.617036 
L 285.946395 286.755799 
L 287.788849 280.380631 
L 289.631302 273.395072 
L 291.473755 265.717929 
L 293.316208 257.300383 
L 295.158661 248.141492 
L 298.843568 227.894955 
L 306.21338 184.952759 
L 308.055833 175.232787 
L 309.898287 166.475373 
L 311.74074 158.928069 
L 313.583193 152.805937 
L 315.425646 148.286265 
L 317.268099 145.504299 
L 319.110553 144.548833 
L 320.953006 145.457248 
L 322.795459 148.210554 
L 324.637912 152.729752 
L 326.480365 158.875256 
L 328.322818 166.450896 
L 330.165272 175.213277 
L 332.007725 184.886244 
L 335.692631 205.80623 
L 341.219991 237.281388 
L 344.904897 256.326169 
L 346.74735 265.045638 
L 348.589803 273.224103 
L 350.432256 280.885667 
L 352.27471 288.063681 
L 354.117163 294.791703 
L 355.959616 301.097249 
L 357.802069 306.998334 
L 359.644522 312.50233 
L 361.486975 317.606425 
L 363.329429 322.299107 
L 365.171882 326.562398 
L 367.014335 330.374924 
L 368.856788 333.716039 
L 370.699241 336.571119 
L 372.541695 338.937703 
L 374.384148 340.831619 
L 376.226601 342.291767 
L 378.069054 343.382137 
L 379.911507 344.189965 
L 387.28132 346.726373 
L 389.123773 347.66425 
L 390.966226 348.8368 
L 392.808679 350.246641 
L 394.651133 351.86715 
L 398.336039 355.529116 
L 402.020945 359.312591 
L 405.705852 362.741554 
L 407.548305 364.228286 
L 409.390758 365.545791 
L 411.233211 366.702227 
L 414.918117 368.637623 
L 422.28793 372.17588 
L 425.972837 374.365326 
L 429.657743 376.902224 
L 435.185102 380.814202 
L 438.870009 383.050804 
L 440.712462 383.986779 
L 444.397368 385.491549 
L 448.082275 386.604971 
L 453.609634 387.883597 
L 464.664353 390.079773 
L 470.191713 390.969325 
L 473.876619 391.394285 
L 477.561525 391.654292 
L 481.246432 391.747433 
L 486.773791 391.622418 
L 503.35587 390.844028 
L 508.883229 390.925911 
L 516.253042 391.330554 
L 527.307761 391.97591 
L 534.677574 392.162012 
L 542.047386 392.213218 
L 542.047386 392.213218 
" clip-path="url(#pacf47ea596)" style="fill: none; stroke: #1f77b4; stroke-width: 1.5; stroke-linecap: round"/>
   </g>
   <g id="line2d_16">
    <path d="M 140.651835 392.209238 
L 150.453452 392.100487 
L 156.334423 391.884934 
L 162.215394 391.481192 
L 177.897983 390.141579 
L 183.778953 390.00047 
L 189.659924 389.904578 
L 193.580571 389.622049 
L 197.501218 388.972366 
L 199.461542 388.470313 
L 201.421866 387.838587 
L 203.382189 387.075767 
L 207.302836 385.179502 
L 211.223483 382.870897 
L 215.144131 380.277243 
L 221.025101 376.094354 
L 228.866396 370.226487 
L 234.747366 365.598629 
L 240.628337 360.713932 
L 246.509308 355.539413 
L 252.390279 350.085056 
L 258.271249 344.308806 
L 262.191897 340.119791 
L 264.15222 337.844755 
L 266.112544 335.398677 
L 268.072867 332.737233 
L 270.033191 329.813088 
L 271.993514 326.577771 
L 273.953838 322.983466 
L 275.914162 318.984563 
L 277.874485 314.538902 
L 279.834809 309.608707 
L 281.795132 304.161305 
L 283.755456 298.169793 
L 285.71578 291.613889 
L 287.676103 284.481236 
L 289.636427 276.769499 
L 291.59675 268.489488 
L 295.517397 250.360655 
L 299.438045 230.63204 
L 305.319015 200.587594 
L 307.279339 191.345599 
L 309.239663 182.948937 
L 311.199986 175.685584 
L 313.16031 169.824683 
L 315.120633 165.595185 
L 317.080957 163.166579 
L 319.04128 162.634462 
L 321.001604 164.013047 
L 322.961928 167.235683 
L 324.922251 172.163152 
L 326.882575 178.598269 
L 328.842898 186.304402 
L 330.803222 195.025069 
L 334.723869 214.489012 
L 342.565163 255.446927 
L 346.485811 274.350754 
L 348.446134 283.00197 
L 350.406458 291.006865 
L 352.366781 298.301703 
L 354.327105 304.842394 
L 356.287428 310.607357 
L 358.247752 315.599514 
L 360.208076 319.846667 
L 362.168399 323.399863 
L 364.128723 326.32974 
L 366.089046 328.721285 
L 368.04937 330.667662 
L 370.009694 332.263954 
L 371.970017 333.601577 
L 375.890664 335.824119 
L 381.771635 338.947729 
L 385.692282 341.364665 
L 389.612929 344.258975 
L 393.533577 347.684716 
L 397.454224 351.566048 
L 405.295518 359.708988 
L 409.216165 363.29117 
L 411.176489 364.83065 
L 413.136812 366.178414 
L 415.097136 367.333392 
L 417.057459 368.308067 
L 419.017783 369.126719 
L 422.93843 370.432905 
L 430.779725 372.729962 
L 434.700372 374.108366 
L 438.621019 375.699326 
L 444.50199 378.362323 
L 460.184578 385.694187 
L 464.105225 387.209482 
L 468.025873 388.432288 
L 471.94652 389.326274 
L 475.867167 389.909507 
L 479.787814 390.246546 
L 485.668785 390.491016 
L 495.470403 390.867815 
L 517.033962 392.064597 
L 526.83558 392.199805 
L 530.756227 392.213777 
L 530.756227 392.213777 
" clip-path="url(#pacf47ea596)" style="fill: none; stroke: #ff7f0e; stroke-width: 1.5; stroke-linecap: round"/>
   </g>
   <g id="line2d_17">
    <path d="M 145.501496 392.213831 
L 159.210768 392.076308 
L 167.044638 391.774494 
L 174.878508 391.217399 
L 182.712377 390.411773 
L 188.58778 389.559197 
L 192.504715 388.762401 
L 196.42165 387.69004 
L 200.338585 386.282421 
L 204.255519 384.528313 
L 208.172454 382.480002 
L 223.840194 373.759655 
L 231.674064 369.749731 
L 235.590999 367.317158 
L 237.549466 365.880112 
L 239.507934 364.266394 
L 241.466401 362.467568 
L 243.424869 360.487979 
L 247.341804 356.063832 
L 253.217206 348.742009 
L 263.009543 336.150358 
L 266.926478 330.650893 
L 268.884946 327.616258 
L 270.843413 324.315016 
L 272.801881 320.692663 
L 274.760348 316.700535 
L 276.718816 312.297896 
L 278.677283 307.453542 
L 280.635751 302.147106 
L 282.594218 296.370227 
L 284.552686 290.127622 
L 286.511153 283.437983 
L 290.428088 268.865027 
L 294.345023 253.088154 
L 302.178893 220.66496 
L 306.095828 205.803388 
L 308.054295 199.178266 
L 310.012763 193.292776 
L 311.97123 188.3041 
L 313.929698 184.36573 
L 315.888165 181.617941 
L 317.846632 180.176657 
L 319.8051 180.122126 
L 321.763567 181.489132 
L 323.722035 184.260431 
L 325.680502 188.364709 
L 327.63897 193.679663 
L 329.597437 200.040016 
L 331.555905 207.249471 
L 335.47284 223.36191 
L 343.30671 256.963763 
L 347.223644 272.339171 
L 351.140579 286.157335 
L 353.099047 292.461316 
L 355.057514 298.369364 
L 357.015982 303.889857 
L 358.974449 309.02978 
L 360.932917 313.793816 
L 362.891384 318.185039 
L 364.849852 322.206748 
L 366.808319 325.864824 
L 368.766787 329.169919 
L 370.725254 332.138932 
L 372.683721 334.795349 
L 374.642189 337.168393 
L 376.600656 339.291141 
L 378.559124 341.198049 
L 380.517591 342.922411 
L 384.434526 345.938987 
L 388.351461 348.524715 
L 392.268396 350.796983 
L 396.185331 352.840916 
L 411.853071 360.595685 
L 415.770006 362.875716 
L 421.645408 366.66894 
L 429.479278 371.885352 
L 433.396213 374.191289 
L 437.313148 376.108734 
L 441.230083 377.605466 
L 445.147018 378.755839 
L 451.02242 380.150199 
L 458.85629 382.027192 
L 474.52403 386.010165 
L 484.316367 388.179195 
L 490.191769 389.311109 
L 496.067172 390.243214 
L 501.942574 390.957182 
L 507.817977 391.477509 
L 515.651846 391.918691 
L 523.485716 392.130186 
L 535.236521 392.214543 
L 535.236521 392.214543 
" clip-path="url(#pacf47ea596)" style="fill: none; stroke: #2ca02c; stroke-width: 1.5; stroke-linecap: round"/>
   </g>
   <g id="line2d_18">
    <path d="M 147.562178 392.213931 
L 161.253807 392.071103 
L 169.077595 391.761329 
L 176.901382 391.212337 
L 184.72517 390.466017 
L 190.593011 389.731222 
L 196.460852 388.725981 
L 202.328692 387.399716 
L 208.196533 385.802997 
L 212.108427 384.572691 
L 216.020321 383.109576 
L 219.932215 381.268814 
L 221.888162 380.162461 
L 223.844109 378.915983 
L 225.800056 377.524729 
L 229.71195 374.320725 
L 233.623843 370.623574 
L 237.535737 366.544265 
L 243.403578 359.931269 
L 251.227366 350.608215 
L 259.051154 340.991605 
L 262.963047 335.87138 
L 266.874941 330.222983 
L 268.830888 327.100838 
L 270.786835 323.725513 
L 272.742782 320.058268 
L 274.698729 316.063443 
L 276.654676 311.709064 
L 278.610623 306.967242 
L 280.56657 301.81463 
L 282.522517 296.233227 
L 284.478464 290.211762 
L 286.434411 283.747709 
L 288.390358 276.849852 
L 292.302251 261.861346 
L 296.214145 245.64487 
L 302.081986 220.676147 
L 305.99388 205.195408 
L 307.949827 198.292746 
L 309.905774 192.175773 
L 311.861721 187.007003 
L 313.817668 182.932789 
L 315.773615 180.07461 
L 317.729562 178.520825 
L 319.685508 178.319931 
L 321.641455 179.476321 
L 323.597402 181.949341 
L 325.553349 185.655946 
L 327.509296 190.476726 
L 329.465243 196.264519 
L 331.42119 202.854472 
L 333.377137 210.074264 
L 337.289031 225.730571 
L 345.112819 257.971936 
L 349.024712 272.983532 
L 352.936606 286.708413 
L 356.8485 299.024225 
L 358.804447 304.647218 
L 360.760394 309.912856 
L 362.716341 314.817616 
L 364.672288 319.354698 
L 366.628235 323.515279 
L 368.584182 327.291287 
L 370.540129 330.679054 
L 372.496076 333.683056 
L 374.452023 336.318855 
L 376.40797 338.614549 
L 378.363916 340.610339 
L 380.319863 342.356194 
L 384.231757 345.322688 
L 409.659067 362.526946 
L 415.526908 366.063445 
L 419.438802 368.241489 
L 423.350696 370.22513 
L 427.26259 371.95947 
L 431.174484 373.432346 
L 437.042324 375.29972 
L 444.866112 377.76566 
L 450.733953 379.892169 
L 462.469635 384.271007 
L 466.381528 385.519589 
L 470.293422 386.585503 
L 474.205316 387.456401 
L 480.073157 388.445798 
L 487.896945 389.424485 
L 499.632626 390.653927 
L 509.412361 391.463409 
L 517.236149 391.898436 
L 525.059936 392.123155 
L 536.795618 392.214343 
L 536.795618 392.214343 
" clip-path="url(#pacf47ea596)" style="fill: none; stroke: #d62728; stroke-width: 1.5; stroke-linecap: round"/>
   </g>
   <g id="line2d_19">
    <path d="M 162.992839 392.209765 
L 174.252747 392.054583 
L 179.882701 391.782971 
L 185.512655 391.288586 
L 193.01926 390.320248 
L 202.402516 388.890279 
L 206.155819 388.178718 
L 209.909122 387.223593 
L 211.785773 386.606042 
L 213.662424 385.869923 
L 215.539076 384.999344 
L 217.415727 383.982467 
L 219.292378 382.812585 
L 221.16903 381.488844 
L 224.922332 378.406894 
L 228.675635 374.84493 
L 234.305589 368.967553 
L 247.442148 354.713948 
L 253.072102 348.276405 
L 256.825404 343.646028 
L 260.578707 338.585659 
L 264.33201 332.934789 
L 268.085312 326.53612 
L 271.838615 319.262371 
L 275.591918 311.028053 
L 279.34522 301.789017 
L 283.098523 291.543848 
L 286.851826 280.335541 
L 290.605128 268.235708 
L 294.358431 255.313154 
L 298.111733 241.633718 
L 309.371641 199.022005 
L 311.248293 192.709435 
L 313.124944 187.041561 
L 315.001595 182.201249 
L 316.878247 178.360482 
L 318.754898 175.668043 
L 320.631549 174.239015 
L 322.508201 174.147235 
L 324.384852 175.421312 
L 326.261503 178.044301 
L 328.138154 181.956669 
L 330.014806 187.061854 
L 331.891457 193.233529 
L 333.768108 200.323653 
L 335.64476 208.170479 
L 339.398062 225.461393 
L 348.781319 270.641968 
L 352.534622 286.752549 
L 354.411273 294.013847 
L 356.287924 300.676904 
L 358.164575 306.716976 
L 360.041227 312.131456 
L 361.917878 316.93901 
L 363.794529 321.177328 
L 365.671181 324.899527 
L 367.547832 328.169448 
L 369.424483 331.056284 
L 371.301135 333.629069 
L 373.177786 335.951622 
L 376.931089 340.052212 
L 380.684391 343.646534 
L 384.437694 346.839341 
L 388.190997 349.635939 
L 391.944299 352.061748 
L 405.080858 359.829305 
L 412.587464 364.685211 
L 416.340766 366.777029 
L 420.094069 368.468634 
L 423.847371 369.831233 
L 431.353977 372.385234 
L 435.107279 373.925783 
L 438.860582 375.695164 
L 450.12049 381.342494 
L 453.873793 382.9733 
L 457.627095 384.388876 
L 461.380398 385.60203 
L 467.010352 387.130775 
L 472.640306 388.412953 
L 478.27026 389.440531 
L 482.023562 389.937931 
L 485.776865 390.271999 
L 491.406819 390.53867 
L 502.666727 390.961305 
L 523.309891 392.074671 
L 532.693148 392.200335 
L 536.44645 392.213765 
L 536.44645 392.213765 
" clip-path="url(#pacf47ea596)" style="fill: none; stroke: #9467bd; stroke-width: 1.5; stroke-linecap: round"/>
   </g>
   <g id="line2d_20">
    <path d="M 158.58952 392.209336 
L 168.028631 392.096927 
L 173.692097 391.864823 
L 179.355563 391.408461 
L 185.019029 390.725762 
L 202.009427 388.331996 
L 205.785071 387.533477 
L 209.560715 386.414759 
L 213.336359 384.931415 
L 217.112003 383.127339 
L 222.775469 380.028657 
L 226.551113 377.780391 
L 230.326757 375.316054 
L 234.102401 372.467255 
L 235.990223 370.84028 
L 237.878045 369.055803 
L 241.653689 365.002739 
L 245.429333 360.395979 
L 252.980621 350.464284 
L 260.531909 340.495672 
L 264.307553 335.048155 
L 266.195375 332.008873 
L 268.083197 328.673573 
L 269.971019 324.985497 
L 271.858841 320.899908 
L 273.746663 316.388274 
L 275.634485 311.441496 
L 277.522307 306.071893 
L 281.297951 294.221313 
L 285.073595 281.32982 
L 294.512705 248.459095 
L 305.839637 209.926865 
L 309.615281 196.997667 
L 311.503103 190.92552 
L 313.390925 185.393968 
L 315.278747 180.64331 
L 317.166569 176.911577 
L 319.054391 174.410162 
L 320.942213 173.301909 
L 322.830035 173.684727 
L 324.717857 175.582741 
L 326.605679 178.945769 
L 328.493501 183.656566 
L 330.381323 189.544209 
L 332.269145 196.401315 
L 334.156967 204.002599 
L 337.932612 220.550218 
L 343.596078 246.002011 
L 347.371722 262.04501 
L 351.147366 276.947695 
L 354.92301 290.718837 
L 358.698654 303.403539 
L 362.474298 314.899547 
L 364.36212 320.119526 
L 366.249942 324.93078 
L 368.137764 329.293007 
L 370.025586 333.175257 
L 371.913408 336.561032 
L 373.80123 339.451506 
L 375.689052 341.866557 
L 377.576874 343.843736 
L 379.464696 345.435606 
L 381.352518 346.706022 
L 383.24034 347.725958 
L 387.015984 349.308998 
L 390.791628 350.742723 
L 394.567272 352.463591 
L 396.455094 353.514303 
L 398.342916 354.706251 
L 402.11856 357.468172 
L 411.55767 365.05465 
L 415.333314 367.612783 
L 419.108958 369.678222 
L 422.884602 371.306393 
L 428.548068 373.291932 
L 434.211534 375.29053 
L 437.987178 376.822525 
L 445.538466 380.256336 
L 451.201932 382.731234 
L 454.977576 384.165034 
L 458.75322 385.404229 
L 464.416686 386.970224 
L 470.080152 388.293666 
L 475.743618 389.378631 
L 479.519262 389.915158 
L 483.294906 390.269329 
L 488.958372 390.495601 
L 500.285304 390.717054 
L 507.836592 391.216244 
L 517.275703 391.869142 
L 524.826991 392.125971 
L 534.266101 392.211876 
L 534.266101 392.211876 
" clip-path="url(#pacf47ea596)" style="fill: none; stroke: #8c564b; stroke-width: 1.5; stroke-linecap: round"/>
   </g>
   <g id="line2d_21">
    <path d="M 151.880085 392.211133 
L 163.496557 392.064162 
L 169.304792 391.810655 
L 175.113028 391.371694 
L 200.28205 389.004592 
L 204.154207 388.311835 
L 208.026364 387.253167 
L 209.962443 386.557315 
L 211.898521 385.740844 
L 215.770679 383.740112 
L 219.642836 381.279685 
L 223.514993 378.445317 
L 229.323229 373.741524 
L 235.131465 368.736428 
L 240.9397 363.41742 
L 244.811858 359.578859 
L 248.684015 355.402139 
L 252.556172 350.791771 
L 256.428329 345.637957 
L 260.300486 339.828428 
L 264.172643 333.290369 
L 268.044801 326.033383 
L 271.916958 318.150985 
L 275.789115 309.764658 
L 279.661272 300.934218 
L 283.533429 291.577046 
L 287.405587 281.43121 
L 289.341665 275.937231 
L 291.277744 270.084899 
L 293.213822 263.818108 
L 295.149901 257.091055 
L 297.08598 249.876925 
L 300.958137 234.031113 
L 306.766373 208.009211 
L 310.63853 191.299688 
L 312.574608 183.932092 
L 314.510687 177.616296 
L 316.446766 172.627828 
L 318.382844 169.19846 
L 320.318923 167.495202 
L 322.255001 167.604606 
L 324.19108 169.524761 
L 326.127158 173.166348 
L 328.063237 178.362765 
L 329.999316 184.887872 
L 331.935394 192.478664 
L 333.871473 200.859465 
L 337.74363 218.954 
L 343.551866 246.439854 
L 347.424023 263.597043 
L 351.29618 279.347368 
L 355.168337 293.567875 
L 357.104416 300.091095 
L 359.040495 306.218719 
L 360.976573 311.9466 
L 362.912652 317.268587 
L 364.84873 322.176072 
L 366.784809 326.658282 
L 368.720888 330.703498 
L 370.656966 334.301218 
L 372.593045 337.445027 
L 374.529123 340.135786 
L 376.465202 342.384613 
L 378.40128 344.215147 
L 380.337359 345.664727 
L 382.273438 346.784244 
L 384.209516 347.636652 
L 388.081673 348.834998 
L 391.953831 349.878566 
L 393.889909 350.523433 
L 395.825988 351.325802 
L 397.762066 352.321454 
L 399.698145 353.525869 
L 401.634224 354.93296 
L 405.506381 358.228902 
L 411.314617 363.534001 
L 413.250695 365.14439 
L 415.186774 366.590311 
L 417.122852 367.845562 
L 419.058931 368.905387 
L 420.99501 369.786385 
L 424.867167 371.165799 
L 430.675402 373.061564 
L 434.54756 374.719248 
L 438.419717 376.817958 
L 450.036188 383.839424 
L 453.908346 385.684167 
L 457.780503 387.113633 
L 461.65266 388.152877 
L 465.524817 388.873569 
L 469.396974 389.368122 
L 475.20521 389.869065 
L 482.949524 390.305881 
L 492.629917 390.573148 
L 502.31031 390.89327 
L 525.543254 392.107195 
L 537.159725 392.213766 
L 537.159725 392.213766 
" clip-path="url(#pacf47ea596)" style="fill: none; stroke: #e377c2; stroke-width: 1.5; stroke-linecap: round"/>
   </g>
   <g id="line2d_22">
    <path d="M 203.173195 392.209256 
L 209.780482 392.087386 
L 213.744853 391.840426 
L 217.709225 391.363609 
L 221.673596 390.601281 
L 224.316511 389.901901 
L 226.959425 389.019309 
L 230.923797 387.371333 
L 236.209626 385.0813 
L 238.85254 384.162286 
L 244.138369 382.534501 
L 246.781284 381.434124 
L 249.424198 379.980641 
L 252.067112 378.237412 
L 256.031484 375.309478 
L 258.674399 373.087981 
L 259.995856 371.814754 
L 261.317313 370.386532 
L 262.63877 368.775825 
L 263.960227 366.967925 
L 266.603142 362.775801 
L 269.246056 357.945459 
L 271.888971 352.629341 
L 274.531885 346.783586 
L 277.1748 340.094097 
L 278.496257 336.288833 
L 279.817714 332.10265 
L 281.139171 327.49705 
L 283.782086 316.991656 
L 286.425 304.983527 
L 291.710829 278.924412 
L 295.675201 258.867193 
L 296.996658 251.632717 
L 298.318115 243.769651 
L 299.639572 235.036609 
L 300.96103 225.223941 
L 302.282487 214.190846 
L 303.603944 201.893232 
L 306.246858 173.869485 
L 310.21123 126.871889 
L 312.854144 95.884415 
L 315.497059 68.036771 
L 316.818516 56.043759 
L 318.139973 45.778126 
L 319.461431 37.601366 
L 320.782888 31.882046 
L 322.104345 28.962617 
L 323.425802 29.116226 
L 324.747259 32.502201 
L 326.068717 39.129942 
L 327.390174 48.83949 
L 328.711631 61.303659 
L 330.033088 76.052097 
L 332.676003 110.067004 
L 336.640374 163.446678 
L 339.283289 195.259527 
L 340.604746 209.295888 
L 341.926203 222.001026 
L 343.247661 233.412091 
L 344.569118 243.623934 
L 345.890575 252.771 
L 347.212032 261.010676 
L 349.854947 275.420499 
L 352.497861 288.012839 
L 355.140775 299.480161 
L 357.78369 309.904613 
L 359.105147 314.619296 
L 360.426604 318.920817 
L 361.748062 322.755832 
L 363.069519 326.090582 
L 364.390976 328.917871 
L 365.712433 331.259778 
L 367.03389 333.166382 
L 368.355348 334.711332 
L 369.676805 335.985328 
L 374.962634 340.358768 
L 376.284091 341.710856 
L 377.605548 343.286055 
L 378.927005 345.105034 
L 380.248463 347.164065 
L 382.891377 351.879469 
L 389.498663 364.578529 
L 392.141578 368.960937 
L 394.784492 372.659374 
L 397.427406 375.689955 
L 400.070321 378.138189 
L 402.713235 380.107076 
L 405.35615 381.693663 
L 407.999064 382.990732 
L 411.963436 384.602147 
L 417.249265 386.474005 
L 421.213636 387.661278 
L 425.178008 388.603545 
L 431.785294 389.892553 
L 435.749666 390.445548 
L 439.714037 390.717561 
L 447.642781 391.126793 
L 458.214438 392.035976 
L 463.500267 392.186363 
L 466.143182 392.20939 
L 466.143182 392.20939 
" clip-path="url(#pacf47ea596)" style="fill: none; stroke: #7f7f7f; stroke-width: 1.5; stroke-linecap: round"/>
   </g>
   <g id="line2d_23">
    <path d="M 185.20942 392.208082 
L 192.668417 392.091341 
L 197.143816 391.834799 
L 200.127414 391.497141 
L 203.111013 390.962364 
L 206.094612 390.184211 
L 209.078211 389.143247 
L 212.061809 387.861964 
L 216.537208 385.649377 
L 222.504405 382.70918 
L 225.488004 381.435323 
L 229.963402 379.792589 
L 234.4388 378.1865 
L 237.422399 376.852379 
L 238.914198 376.028378 
L 240.405998 375.066621 
L 241.897797 373.946809 
L 243.389596 372.654613 
L 244.881396 371.183244 
L 246.373195 369.534314 
L 249.356794 365.750578 
L 252.340393 361.453692 
L 256.815791 354.415853 
L 261.291189 346.875511 
L 265.766587 338.722605 
L 273.225584 324.217651 
L 279.192782 312.497702 
L 282.176381 305.896971 
L 283.66818 302.14311 
L 285.159979 297.979789 
L 286.651779 293.341656 
L 288.143578 288.181907 
L 289.635377 282.474475 
L 291.127177 276.213215 
L 292.618976 269.408581 
L 295.602575 254.264307 
L 298.586174 237.272621 
L 301.569773 218.680333 
L 306.045171 188.527509 
L 310.520569 157.806765 
L 313.504168 139.237455 
L 314.995967 131.23063 
L 316.487766 124.424036 
L 317.979566 119.070855 
L 319.471365 115.398445 
L 320.963165 113.59233 
L 322.454964 113.781965 
L 323.946763 116.029589 
L 325.438563 120.323252 
L 326.930362 126.574757 
L 328.422161 134.622786 
L 329.913961 144.241066 
L 331.40576 155.15092 
L 334.389359 179.566038 
L 338.864757 217.76788 
L 341.848356 241.039745 
L 343.340155 251.446076 
L 344.831955 260.900638 
L 346.323754 269.366111 
L 347.815553 276.847653 
L 349.307353 283.385616 
L 350.799152 289.047947 
L 352.290952 293.922916 
L 353.782751 298.112556 
L 355.27455 301.726938 
L 356.76635 304.879213 
L 358.258149 307.681251 
L 361.241748 312.652344 
L 365.717146 319.792091 
L 368.700745 324.943243 
L 373.176143 333.346964 
L 377.651541 341.673679 
L 380.63514 346.519801 
L 382.126939 348.616726 
L 383.618739 350.473523 
L 385.110538 352.091036 
L 386.602338 353.48355 
L 388.094137 354.676649 
L 391.077736 356.604567 
L 395.553134 358.923321 
L 400.028532 361.251674 
L 404.50393 363.850403 
L 413.454726 369.178749 
L 420.913723 373.571836 
L 423.897322 375.557282 
L 428.37272 378.871137 
L 434.339918 383.357538 
L 437.323517 385.234972 
L 440.307115 386.684258 
L 443.290714 387.689529 
L 446.274313 388.342437 
L 452.24151 389.203281 
L 458.208708 390.162399 
L 465.667705 391.380384 
L 470.143103 391.843228 
L 474.618501 392.083121 
L 482.077498 392.205857 
L 482.077498 392.205857 
" clip-path="url(#pacf47ea596)" style="fill: none; stroke: #bcbd22; stroke-width: 1.5; stroke-linecap: round"/>
   </g>
   <g id="line2d_24">
    <path d="M 178.218872 392.211542 
L 188.037295 392.071461 
L 192.946506 391.828549 
L 197.855718 391.3965 
L 204.401333 390.565386 
L 210.946948 389.547506 
L 215.856159 388.560801 
L 219.128967 387.704216 
L 222.401775 386.662278 
L 227.310986 384.805062 
L 232.220197 382.666796 
L 235.493005 381.014047 
L 238.765813 379.02303 
L 240.402217 377.845322 
L 242.03862 376.517502 
L 243.675024 375.021526 
L 245.311428 373.343347 
L 246.947832 371.47325 
L 248.584236 369.405655 
L 250.220639 367.13864 
L 253.493447 362.014506 
L 256.766255 356.150025 
L 260.039062 349.663151 
L 266.584677 335.751585 
L 271.493889 325.61198 
L 281.312312 306.206981 
L 282.948715 302.502417 
L 284.585119 298.468924 
L 286.221523 294.036672 
L 287.857927 289.1424 
L 289.494331 283.729288 
L 291.130735 277.745626 
L 292.767138 271.143113 
L 294.403542 263.875826 
L 296.039946 255.901034 
L 297.67635 247.182791 
L 299.312754 237.698824 
L 300.949157 227.450524 
L 304.221965 204.857971 
L 312.403984 144.467608 
L 314.040388 134.197509 
L 315.676792 125.436578 
L 317.313195 118.553049 
L 318.949599 113.855993 
L 320.586003 111.571755 
L 322.222407 111.826608 
L 323.858811 114.637184 
L 325.495214 119.909291 
L 327.131618 127.444923 
L 328.768022 136.95653 
L 330.404426 148.087113 
L 333.677233 173.576718 
L 338.586445 213.800751 
L 341.859253 238.147459 
L 343.495656 248.989455 
L 345.13206 258.843386 
L 346.768464 267.706078 
L 348.404868 275.615851 
L 350.041272 282.637398 
L 351.677675 288.847763 
L 353.314079 294.325208 
L 354.950483 299.14211 
L 356.586887 303.362278 
L 358.223291 307.042229 
L 359.859694 310.235307 
L 361.496098 312.997063 
L 363.132502 315.390227 
L 364.768906 317.48782 
L 368.041713 321.138609 
L 371.314521 324.678463 
L 372.950925 326.61951 
L 374.587329 328.758434 
L 376.223732 331.129387 
L 377.860136 333.739992 
L 381.132944 339.580518 
L 387.678559 351.985606 
L 389.314963 354.783916 
L 390.951367 357.325747 
L 392.587771 359.571894 
L 394.224174 361.505434 
L 395.860578 363.132153 
L 397.496982 364.47847 
L 399.133386 365.587181 
L 402.406193 367.309054 
L 410.588212 370.980275 
L 415.497424 373.562075 
L 422.043039 376.9918 
L 426.95225 379.223108 
L 443.316288 385.977097 
L 446.589096 387.137506 
L 449.861904 388.064193 
L 453.134711 388.742867 
L 456.407519 389.209062 
L 461.31673 389.622665 
L 469.498749 389.937129 
L 474.407961 390.201175 
L 479.317172 390.673382 
L 489.135595 391.739517 
L 494.044806 392.033987 
L 500.590422 392.185967 
L 503.863229 392.208893 
L 503.863229 392.208893 
" clip-path="url(#pacf47ea596)" style="fill: none; stroke: #17becf; stroke-width: 1.5; stroke-linecap: round"/>
   </g>
   <g id="line2d_25">
    <path d="M 199.792829 392.210859 
L 208.603154 392.065605 
L 213.008317 391.80662 
L 217.413479 391.31333 
L 221.818642 390.540626 
L 226.223804 389.511594 
L 232.097354 387.855399 
L 236.502517 386.382271 
L 239.439292 385.136402 
L 240.907679 384.366676 
L 242.376067 383.459315 
L 243.844455 382.382917 
L 245.312842 381.108208 
L 246.78123 379.611168 
L 248.249617 377.875898 
L 249.718005 375.896769 
L 251.186392 373.679467 
L 254.123167 368.606511 
L 257.059942 362.885542 
L 261.465105 353.675114 
L 268.807042 337.738103 
L 273.212205 327.638963 
L 277.617367 316.978274 
L 282.02253 305.734996 
L 284.959305 297.571579 
L 286.427692 293.101529 
L 287.89608 288.25779 
L 289.364467 282.949799 
L 290.832855 277.093163 
L 292.301242 270.617291 
L 293.76963 263.471381 
L 295.238017 255.628259 
L 296.706405 247.086089 
L 299.64318 228.023797 
L 302.579955 206.765258 
L 311.39028 140.054102 
L 312.858667 130.385032 
L 314.327055 121.668026 
L 315.795442 114.097857 
L 317.26383 107.855917 
L 318.732217 103.106618 
L 320.200605 99.994086 
L 321.668992 98.638233 
L 323.13738 99.129409 
L 324.605767 101.521271 
L 326.074155 105.82226 
L 327.542542 111.986932 
L 329.01093 119.909006 
L 330.479317 129.41827 
L 331.947705 140.28313 
L 334.88448 164.907629 
L 340.75803 216.654787 
L 343.694805 239.48359 
L 345.163193 249.609659 
L 346.63158 258.827732 
L 348.099968 267.152592 
L 349.568355 274.623974 
L 351.036743 281.294033 
L 352.50513 287.218112 
L 353.973518 292.449945 
L 355.441905 297.041357 
L 356.910293 301.045544 
L 358.37868 304.52225 
L 359.847068 307.542777 
L 361.315455 310.192919 
L 364.25223 314.79071 
L 367.189005 319.179222 
L 370.12578 324.08937 
L 373.062555 329.853654 
L 375.99933 336.323572 
L 380.404493 346.266245 
L 383.341268 352.273068 
L 384.809655 354.945621 
L 386.278043 357.364685 
L 387.74643 359.522025 
L 389.214818 361.421511 
L 390.683205 363.078287 
L 392.151593 364.517937 
L 395.088368 366.892473 
L 409.772243 377.154398 
L 411.24063 377.950489 
L 412.709018 378.571906 
L 414.177405 379.005396 
L 415.645793 379.258412 
L 418.582568 379.351658 
L 422.98773 379.250286 
L 424.456118 379.364234 
L 425.924505 379.608892 
L 427.392893 379.9921 
L 430.329668 381.119611 
L 437.671605 384.537659 
L 440.60838 385.588664 
L 443.545155 386.40568 
L 449.418706 387.684036 
L 456.760643 389.045695 
L 464.102581 390.145805 
L 474.381293 391.469498 
L 480.254843 391.946323 
L 486.128393 392.153779 
L 492.001943 392.211223 
L 492.001943 392.211223 
" clip-path="url(#pacf47ea596)" style="fill: none; stroke: #1f77b4; stroke-width: 1.5; stroke-linecap: round"/>
   </g>
   <g id="line2d_26">
    <path d="M 208.39719 392.191066 
L 214.052065 392.010337 
L 216.879503 391.753326 
L 219.706941 391.289068 
L 222.534378 390.54855 
L 225.361816 389.509053 
L 229.602973 387.543743 
L 233.844129 385.569454 
L 236.671567 384.500373 
L 240.912723 383.27139 
L 243.740161 382.440353 
L 245.15388 381.916695 
L 246.567599 381.269741 
L 247.981318 380.463269 
L 249.395036 379.465184 
L 250.808755 378.249176 
L 252.222474 376.796132 
L 253.636193 375.095221 
L 255.049912 373.144503 
L 256.463631 370.950833 
L 259.291068 365.899263 
L 262.118506 360.112932 
L 264.945944 353.772938 
L 269.1871 343.495119 
L 274.841976 328.85143 
L 281.91057 309.953435 
L 284.738008 301.71681 
L 287.565446 292.34274 
L 288.979164 287.042286 
L 290.392883 281.246085 
L 291.806602 274.902708 
L 293.220321 267.972989 
L 294.63404 260.429959 
L 297.461477 243.456213 
L 300.288915 224.016577 
L 303.116353 202.397432 
L 307.357509 167.296787 
L 311.598666 132.144069 
L 314.426104 110.960813 
L 315.839823 101.641593 
L 317.253541 93.46332 
L 318.66726 86.658398 
L 320.080979 81.464189 
L 321.494698 78.113716 
L 322.908417 76.821692 
L 324.322136 77.766523 
L 325.735855 81.069982 
L 327.149573 86.777159 
L 328.563292 94.83977 
L 329.977011 105.105874 
L 331.39073 117.31839 
L 332.804449 131.123703 
L 335.631887 161.735624 
L 338.459324 193.077757 
L 341.286762 221.546762 
L 342.700481 233.889909 
L 344.1142 244.744888 
L 345.527919 254.080637 
L 346.941637 261.968328 
L 348.355356 268.563482 
L 349.769075 274.081948 
L 351.182794 278.772685 
L 354.010232 286.671659 
L 358.251388 297.729368 
L 361.078826 305.69364 
L 369.561139 330.418124 
L 372.388577 337.642139 
L 375.216014 344.053474 
L 378.043452 349.680968 
L 380.87089 354.628239 
L 383.698328 359.026398 
L 386.525765 362.978764 
L 389.353203 366.515374 
L 392.180641 369.586837 
L 395.008078 372.102764 
L 396.421797 373.127625 
L 397.835516 373.991134 
L 399.249235 374.695598 
L 400.662954 375.249517 
L 403.490391 375.970169 
L 406.317829 376.330367 
L 413.386423 376.997345 
L 416.213861 377.512441 
L 419.041299 378.211534 
L 421.868737 379.08641 
L 424.696174 380.151091 
L 427.523612 381.423034 
L 431.764769 383.633592 
L 436.005925 385.830647 
L 438.833363 387.040617 
L 441.660801 387.952542 
L 444.488238 388.578635 
L 447.315676 388.986026 
L 451.556833 389.360733 
L 462.866583 390.214348 
L 471.348896 391.257464 
L 477.003772 391.829516 
L 482.658647 392.114544 
L 489.727242 392.210672 
L 489.727242 392.210672 
" clip-path="url(#pacf47ea596)" style="fill: none; stroke: #ff7f0e; stroke-width: 1.5; stroke-linecap: round"/>
   </g>
   <g id="line2d_27">
    <path d="M 207.377728 392.20818 
L 214.219843 392.078351 
L 218.325112 391.791151 
L 221.061958 391.422907 
L 223.798804 390.862599 
L 226.53565 390.090646 
L 229.272496 389.124874 
L 233.377765 387.438567 
L 240.21988 384.363096 
L 242.956726 382.86273 
L 244.32515 381.959926 
L 245.693573 380.914849 
L 247.061996 379.700747 
L 248.430419 378.298073 
L 249.798842 376.697516 
L 252.535688 372.926992 
L 255.272534 368.554678 
L 264.851495 352.109499 
L 268.956764 344.784923 
L 271.69361 339.444594 
L 274.430456 333.677656 
L 277.167302 327.505743 
L 279.904148 320.852356 
L 282.640994 313.422871 
L 284.009417 309.268586 
L 285.37784 304.731268 
L 286.746263 299.74866 
L 288.114686 294.270359 
L 289.483109 288.261907 
L 290.851532 281.70608 
L 293.588378 266.958486 
L 296.325224 250.133986 
L 299.062071 231.403387 
L 301.798917 210.953964 
L 305.904186 177.698097 
L 312.746301 120.722402 
L 315.483147 100.600335 
L 316.85157 91.906743 
L 318.219993 84.458849 
L 319.588416 78.524551 
L 320.956839 74.370018 
L 322.325262 72.240529 
L 323.693685 72.337555 
L 325.062108 74.794766 
L 326.430531 79.656512 
L 327.798954 86.86253 
L 329.167377 96.242124 
L 330.5358 107.51978 
L 331.904223 120.332412 
L 334.641069 148.841353 
L 338.746338 192.366058 
L 341.483184 218.077935 
L 342.851607 229.433033 
L 344.22003 239.740574 
L 345.588453 249.035472 
L 346.956876 257.387983 
L 348.325299 264.887714 
L 349.693723 271.630902 
L 351.062146 277.711772 
L 352.430569 283.2179 
L 353.798992 288.22891 
L 356.535838 297.051444 
L 359.272684 304.715397 
L 363.377953 315.129886 
L 370.220068 332.385466 
L 374.325337 342.543125 
L 377.062183 348.622832 
L 379.799029 353.863364 
L 381.167452 356.14299 
L 382.535875 358.202906 
L 385.272721 361.736672 
L 388.009567 364.661689 
L 390.746413 367.196618 
L 393.483259 369.49423 
L 396.220105 371.585548 
L 398.956951 373.395729 
L 401.693797 374.827654 
L 404.430644 375.857006 
L 407.16749 376.574588 
L 414.009605 378.130974 
L 416.746451 378.981204 
L 420.85172 380.511016 
L 433.167527 385.320213 
L 440.009642 387.793646 
L 444.114911 389.04647 
L 446.851757 389.691569 
L 449.588603 390.1683 
L 453.693872 390.64898 
L 468.746526 391.950571 
L 474.220218 392.151796 
L 479.69391 392.210684 
L 479.69391 392.210684 
" clip-path="url(#pacf47ea596)" style="fill: none; stroke: #2ca02c; stroke-width: 1.5; stroke-linecap: round"/>
   </g>
   <g id="line2d_28">
    <path d="M 208.653893 392.193446 
L 213.753389 392.047278 
L 217.578011 391.690961 
L 220.127759 391.225632 
L 222.677507 390.508376 
L 225.227255 389.513844 
L 227.777002 388.276387 
L 235.426246 384.274404 
L 239.250868 382.723588 
L 243.07549 381.218727 
L 245.625238 379.880878 
L 246.900112 379.026148 
L 248.174986 378.018551 
L 249.44986 376.844439 
L 250.724734 375.49762 
L 253.274482 372.298375 
L 255.82423 368.508923 
L 258.373978 364.28067 
L 262.1986 357.403927 
L 266.023222 349.936508 
L 268.57297 344.476154 
L 271.122718 338.535283 
L 274.94734 328.849888 
L 280.046836 315.194756 
L 283.871458 304.320952 
L 286.421206 296.32255 
L 288.970954 287.38796 
L 291.520702 277.29765 
L 294.07045 265.860111 
L 296.620197 252.83884 
L 299.169945 237.947807 
L 301.719693 220.964064 
L 304.269441 201.905913 
L 306.819189 181.167499 
L 313.193559 127.79023 
L 315.743307 108.928926 
L 317.018181 100.682306 
L 318.293055 93.451339 
L 319.567929 87.407861 
L 320.842803 82.722052 
L 322.117677 79.556812 
L 323.392551 78.059428 
L 324.667425 78.350913 
L 325.942299 80.514039 
L 327.217173 84.581556 
L 328.492047 90.526398 
L 329.766921 98.255684 
L 331.041795 107.609891 
L 332.316669 118.368007 
L 334.866417 142.975281 
L 341.240787 208.194397 
L 343.790535 230.603833 
L 345.065409 240.494244 
L 346.340283 249.474113 
L 347.615157 257.561268 
L 348.890031 264.798769 
L 350.164905 271.247825 
L 351.439779 276.982073 
L 352.714653 282.083196 
L 353.989527 286.637603 
L 356.539275 294.459783 
L 359.089023 301.138306 
L 368.01314 322.94228 
L 378.212132 349.497832 
L 380.76188 354.94194 
L 383.311628 359.486924 
L 385.861376 363.165334 
L 388.411124 366.133873 
L 390.960872 368.595147 
L 393.51062 370.716936 
L 396.060368 372.580479 
L 398.610116 374.176808 
L 401.159864 375.452834 
L 403.709612 376.385255 
L 406.25936 377.039861 
L 411.358856 378.185425 
L 413.908604 379.005232 
L 416.458352 380.05124 
L 422.832722 382.854824 
L 425.38247 383.697412 
L 427.932218 384.32872 
L 435.581461 386.002026 
L 438.131209 386.825886 
L 441.955831 388.32083 
L 445.780453 389.82252 
L 448.330201 390.652133 
L 450.879949 391.278708 
L 453.429697 391.703027 
L 457.254319 392.043439 
L 462.353815 392.191193 
L 462.353815 392.191193 
" clip-path="url(#pacf47ea596)" style="fill: none; stroke: #d62728; stroke-width: 1.5; stroke-linecap: round"/>
   </g>
   <g id="line2d_29">
    <path d="M 78.995114 392.214959 
L 95.086487 392.071302 
L 104.281557 391.777205 
L 134.165535 390.357381 
L 147.958141 389.772662 
L 157.153211 389.466287 
L 161.750746 389.073475 
L 166.348282 388.330463 
L 170.945817 387.194436 
L 177.842119 385.014133 
L 182.439655 383.572982 
L 187.03719 382.38475 
L 191.634725 381.536505 
L 196.23226 380.99052 
L 210.024866 379.741763 
L 212.323633 379.35035 
L 214.622401 378.841563 
L 216.921168 378.19435 
L 219.219936 377.393069 
L 221.518703 376.429959 
L 223.817471 375.30707 
L 228.415006 372.642174 
L 233.012541 369.597787 
L 244.506379 361.543059 
L 249.103914 358.037955 
L 251.402682 356.103264 
L 253.701449 354.004448 
L 256.000217 351.722757 
L 258.298985 349.254213 
L 262.89652 343.813159 
L 267.494055 337.880016 
L 272.09159 331.619743 
L 276.689125 324.900019 
L 278.987893 321.205042 
L 281.28666 317.14866 
L 283.585428 312.609636 
L 285.884196 307.467711 
L 288.182963 301.617645 
L 290.481731 294.982237 
L 292.780498 287.522813 
L 295.079266 279.246375 
L 297.378033 270.209399 
L 299.676801 260.51884 
L 304.274336 239.849315 
L 308.871871 219.023013 
L 311.170639 209.269011 
L 313.469406 200.379307 
L 315.768174 192.672166 
L 318.066942 186.442023 
L 320.365709 181.93826 
L 322.664477 179.345416 
L 324.963244 178.76752 
L 327.262012 180.218841 
L 329.56078 183.622373 
L 331.859547 188.816211 
L 334.158315 195.56683 
L 336.457082 203.587458 
L 338.75585 212.559332 
L 343.353385 232.052265 
L 347.95092 251.648413 
L 350.249688 260.906631 
L 352.548455 269.605225 
L 354.847223 277.666316 
L 357.14599 285.064234 
L 359.444758 291.816256 
L 361.743526 297.970745 
L 364.042293 303.594496 
L 366.341061 308.761107 
L 368.639828 313.541862 
L 370.938596 317.999898 
L 375.536131 326.14674 
L 380.133666 333.499976 
L 384.731201 340.227216 
L 389.328737 346.382515 
L 393.926272 351.905998 
L 396.225039 354.390429 
L 398.523807 356.668858 
L 400.822574 358.73324 
L 403.121342 360.586236 
L 405.42011 362.243069 
L 410.017645 365.08754 
L 416.913947 368.782611 
L 423.81025 372.551152 
L 433.00532 377.711538 
L 437.602856 379.958274 
L 439.901623 380.922215 
L 442.200391 381.763439 
L 444.499158 382.477194 
L 446.797926 383.064743 
L 451.395461 383.894588 
L 455.992996 384.369247 
L 467.486834 385.182365 
L 472.084369 385.770821 
L 476.681904 386.586905 
L 492.773277 389.857156 
L 497.370813 390.52937 
L 504.267115 391.255559 
L 511.163418 391.725342 
L 520.358488 392.065619 
L 531.852326 392.201684 
L 536.449861 392.214923 
L 536.449861 392.214923 
" clip-path="url(#pacf47ea596)" style="fill: none; stroke: #9467bd; stroke-width: 1.5; stroke-linecap: round"/>
   </g>
   <g id="patch_3">
    <path d="M 55.8425 392.2225 
L 55.8425 10.8 
" style="fill: none; stroke: #ffffff; stroke-width: 0.8; stroke-linejoin: miter; stroke-linecap: square"/>
   </g>
   <g id="patch_4">
    <path d="M 565.2 392.2225 
L 565.2 10.8 
" style="fill: none; stroke: #ffffff; stroke-width: 0.8; stroke-linejoin: miter; stroke-linecap: square"/>
   </g>
   <g id="patch_5">
    <path d="M 55.8425 392.2225 
L 565.2 392.2225 
" style="fill: none; stroke: #ffffff; stroke-width: 0.8; stroke-linejoin: miter; stroke-linecap: square"/>
   </g>
   <g id="patch_6">
    <path d="M 55.8425 10.8 
L 565.2 10.8 
" style="fill: none; stroke: #ffffff; stroke-width: 0.8; stroke-linejoin: miter; stroke-linecap: square"/>
   </g>
   <g id="legend_1">
    <g id="patch_7">
     <path d="M 494.517187 233.09375 
L 558.2 233.09375 
Q 560.2 233.09375 560.2 231.09375 
L 560.2 17.8 
Q 560.2 15.8 558.2 15.8 
L 494.517187 15.8 
Q 492.517187 15.8 492.517187 17.8 
L 492.517187 231.09375 
Q 492.517187 233.09375 494.517187 233.09375 
z
" style="fill: #eaeaf2; opacity: 0.8; stroke: #cccccc; stroke-linejoin: miter"/>
    </g>
    <g id="line2d_30">
     <path d="M 496.517187 23.4875 
L 506.517187 23.4875 
L 516.517187 23.4875 
" style="fill: none; stroke: #1f77b4; stroke-width: 1.5; stroke-linecap: round"/>
    </g>
    <g id="text_17">
     <!-- Day 1 -->
     <g style="fill: #262626" transform="translate(524.517187 26.9875) scale(0.1 -0.1)">
      <use xlink:href="#ArialMT-44"/>
      <use xlink:href="#ArialMT-61" x="72.216797"/>
      <use xlink:href="#ArialMT-79" x="127.832031"/>
      <use xlink:href="#ArialMT-20" x="177.832031"/>
      <use xlink:href="#ArialMT-31" x="205.615234"/>
     </g>
    </g>
    <g id="line2d_31">
     <path d="M 496.517187 37.779687 
L 506.517187 37.779687 
L 516.517187 37.779687 
" style="fill: none; stroke: #ff7f0e; stroke-width: 1.5; stroke-linecap: round"/>
    </g>
    <g id="text_18">
     <!-- Day 2 -->
     <g style="fill: #262626" transform="translate(524.517187 41.279687) scale(0.1 -0.1)">
      <use xlink:href="#ArialMT-44"/>
      <use xlink:href="#ArialMT-61" x="72.216797"/>
      <use xlink:href="#ArialMT-79" x="127.832031"/>
      <use xlink:href="#ArialMT-20" x="177.832031"/>
      <use xlink:href="#ArialMT-32" x="205.615234"/>
     </g>
    </g>
    <g id="line2d_32">
     <path d="M 496.517187 52.071875 
L 506.517187 52.071875 
L 516.517187 52.071875 
" style="fill: none; stroke: #2ca02c; stroke-width: 1.5; stroke-linecap: round"/>
    </g>
    <g id="text_19">
     <!-- Day 3 -->
     <g style="fill: #262626" transform="translate(524.517187 55.571875) scale(0.1 -0.1)">
      <defs>
       <path id="ArialMT-33" d="M 269 1209 
L 831 1284 
Q 928 806 1161 595 
Q 1394 384 1728 384 
Q 2125 384 2398 659 
Q 2672 934 2672 1341 
Q 2672 1728 2419 1979 
Q 2166 2231 1775 2231 
Q 1616 2231 1378 2169 
L 1441 2663 
Q 1497 2656 1531 2656 
Q 1891 2656 2178 2843 
Q 2466 3031 2466 3422 
Q 2466 3731 2256 3934 
Q 2047 4138 1716 4138 
Q 1388 4138 1169 3931 
Q 950 3725 888 3313 
L 325 3413 
Q 428 3978 793 4289 
Q 1159 4600 1703 4600 
Q 2078 4600 2393 4439 
Q 2709 4278 2876 4000 
Q 3044 3722 3044 3409 
Q 3044 3113 2884 2869 
Q 2725 2625 2413 2481 
Q 2819 2388 3044 2092 
Q 3269 1797 3269 1353 
Q 3269 753 2831 336 
Q 2394 -81 1725 -81 
Q 1122 -81 723 278 
Q 325 638 269 1209 
z
" transform="scale(0.015625)"/>
      </defs>
      <use xlink:href="#ArialMT-44"/>
      <use xlink:href="#ArialMT-61" x="72.216797"/>
      <use xlink:href="#ArialMT-79" x="127.832031"/>
      <use xlink:href="#ArialMT-20" x="177.832031"/>
      <use xlink:href="#ArialMT-33" x="205.615234"/>
     </g>
    </g>
    <g id="line2d_33">
     <path d="M 496.517187 66.334375 
L 506.517187 66.334375 
L 516.517187 66.334375 
" style="fill: none; stroke: #d62728; stroke-width: 1.5; stroke-linecap: round"/>
    </g>
    <g id="text_20">
     <!-- Day 4 -->
     <g style="fill: #262626" transform="translate(524.517187 69.834375) scale(0.1 -0.1)">
      <defs>
       <path id="ArialMT-34" d="M 2069 0 
L 2069 1097 
L 81 1097 
L 81 1613 
L 2172 4581 
L 2631 4581 
L 2631 1613 
L 3250 1613 
L 3250 1097 
L 2631 1097 
L 2631 0 
L 2069 0 
z
M 2069 1613 
L 2069 3678 
L 634 1613 
L 2069 1613 
z
" transform="scale(0.015625)"/>
      </defs>
      <use xlink:href="#ArialMT-44"/>
      <use xlink:href="#ArialMT-61" x="72.216797"/>
      <use xlink:href="#ArialMT-79" x="127.832031"/>
      <use xlink:href="#ArialMT-20" x="177.832031"/>
      <use xlink:href="#ArialMT-34" x="205.615234"/>
     </g>
    </g>
    <g id="line2d_34">
     <path d="M 496.517187 80.596875 
L 506.517187 80.596875 
L 516.517187 80.596875 
" style="fill: none; stroke: #9467bd; stroke-width: 1.5; stroke-linecap: round"/>
    </g>
    <g id="text_21">
     <!-- Day 5 -->
     <g style="fill: #262626" transform="translate(524.517187 84.096875) scale(0.1 -0.1)">
      <use xlink:href="#ArialMT-44"/>
      <use xlink:href="#ArialMT-61" x="72.216797"/>
      <use xlink:href="#ArialMT-79" x="127.832031"/>
      <use xlink:href="#ArialMT-20" x="177.832031"/>
      <use xlink:href="#ArialMT-35" x="205.615234"/>
     </g>
    </g>
    <g id="line2d_35">
     <path d="M 496.517187 94.889062 
L 506.517187 94.889062 
L 516.517187 94.889062 
" style="fill: none; stroke: #8c564b; stroke-width: 1.5; stroke-linecap: round"/>
    </g>
    <g id="text_22">
     <!-- Day 6 -->
     <g style="fill: #262626" transform="translate(524.517187 98.389062) scale(0.1 -0.1)">
      <defs>
       <path id="ArialMT-36" d="M 3184 3459 
L 2625 3416 
Q 2550 3747 2413 3897 
Q 2184 4138 1850 4138 
Q 1581 4138 1378 3988 
Q 1113 3794 959 3422 
Q 806 3050 800 2363 
Q 1003 2672 1297 2822 
Q 1591 2972 1913 2972 
Q 2475 2972 2870 2558 
Q 3266 2144 3266 1488 
Q 3266 1056 3080 686 
Q 2894 316 2569 119 
Q 2244 -78 1831 -78 
Q 1128 -78 684 439 
Q 241 956 241 2144 
Q 241 3472 731 4075 
Q 1159 4600 1884 4600 
Q 2425 4600 2770 4297 
Q 3116 3994 3184 3459 
z
M 888 1484 
Q 888 1194 1011 928 
Q 1134 663 1356 523 
Q 1578 384 1822 384 
Q 2178 384 2434 671 
Q 2691 959 2691 1453 
Q 2691 1928 2437 2201 
Q 2184 2475 1800 2475 
Q 1419 2475 1153 2201 
Q 888 1928 888 1484 
z
" transform="scale(0.015625)"/>
      </defs>
      <use xlink:href="#ArialMT-44"/>
      <use xlink:href="#ArialMT-61" x="72.216797"/>
      <use xlink:href="#ArialMT-79" x="127.832031"/>
      <use xlink:href="#ArialMT-20" x="177.832031"/>
      <use xlink:href="#ArialMT-36" x="205.615234"/>
     </g>
    </g>
    <g id="line2d_36">
     <path d="M 496.517187 109.151562 
L 506.517187 109.151562 
L 516.517187 109.151562 
" style="fill: none; stroke: #e377c2; stroke-width: 1.5; stroke-linecap: round"/>
    </g>
    <g id="text_23">
     <!-- Day 7 -->
     <g style="fill: #262626" transform="translate(524.517187 112.651562) scale(0.1 -0.1)">
      <use xlink:href="#ArialMT-44"/>
      <use xlink:href="#ArialMT-61" x="72.216797"/>
      <use xlink:href="#ArialMT-79" x="127.832031"/>
      <use xlink:href="#ArialMT-20" x="177.832031"/>
      <use xlink:href="#ArialMT-37" x="205.615234"/>
     </g>
    </g>
    <g id="line2d_37">
     <path d="M 496.517187 123.44375 
L 506.517187 123.44375 
L 516.517187 123.44375 
" style="fill: none; stroke: #7f7f7f; stroke-width: 1.5; stroke-linecap: round"/>
    </g>
    <g id="text_24">
     <!-- Day 8 -->
     <g style="fill: #262626" transform="translate(524.517187 126.94375) scale(0.1 -0.1)">
      <defs>
       <path id="ArialMT-38" d="M 1131 2484 
Q 781 2613 612 2850 
Q 444 3088 444 3419 
Q 444 3919 803 4259 
Q 1163 4600 1759 4600 
Q 2359 4600 2725 4251 
Q 3091 3903 3091 3403 
Q 3091 3084 2923 2848 
Q 2756 2613 2416 2484 
Q 2838 2347 3058 2040 
Q 3278 1734 3278 1309 
Q 3278 722 2862 322 
Q 2447 -78 1769 -78 
Q 1091 -78 675 323 
Q 259 725 259 1325 
Q 259 1772 486 2073 
Q 713 2375 1131 2484 
z
M 1019 3438 
Q 1019 3113 1228 2906 
Q 1438 2700 1772 2700 
Q 2097 2700 2305 2904 
Q 2513 3109 2513 3406 
Q 2513 3716 2298 3927 
Q 2084 4138 1766 4138 
Q 1444 4138 1231 3931 
Q 1019 3725 1019 3438 
z
M 838 1322 
Q 838 1081 952 856 
Q 1066 631 1291 507 
Q 1516 384 1775 384 
Q 2178 384 2440 643 
Q 2703 903 2703 1303 
Q 2703 1709 2433 1975 
Q 2163 2241 1756 2241 
Q 1359 2241 1098 1978 
Q 838 1716 838 1322 
z
" transform="scale(0.015625)"/>
      </defs>
      <use xlink:href="#ArialMT-44"/>
      <use xlink:href="#ArialMT-61" x="72.216797"/>
      <use xlink:href="#ArialMT-79" x="127.832031"/>
      <use xlink:href="#ArialMT-20" x="177.832031"/>
      <use xlink:href="#ArialMT-38" x="205.615234"/>
     </g>
    </g>
    <g id="line2d_38">
     <path d="M 496.517187 137.735937 
L 506.517187 137.735937 
L 516.517187 137.735937 
" style="fill: none; stroke: #bcbd22; stroke-width: 1.5; stroke-linecap: round"/>
    </g>
    <g id="text_25">
     <!-- Day 9 -->
     <g style="fill: #262626" transform="translate(524.517187 141.235937) scale(0.1 -0.1)">
      <defs>
       <path id="ArialMT-39" d="M 350 1059 
L 891 1109 
Q 959 728 1153 556 
Q 1347 384 1650 384 
Q 1909 384 2104 503 
Q 2300 622 2425 820 
Q 2550 1019 2634 1356 
Q 2719 1694 2719 2044 
Q 2719 2081 2716 2156 
Q 2547 1888 2255 1720 
Q 1963 1553 1622 1553 
Q 1053 1553 659 1965 
Q 266 2378 266 3053 
Q 266 3750 677 4175 
Q 1088 4600 1706 4600 
Q 2153 4600 2523 4359 
Q 2894 4119 3086 3673 
Q 3278 3228 3278 2384 
Q 3278 1506 3087 986 
Q 2897 466 2520 194 
Q 2144 -78 1638 -78 
Q 1100 -78 759 220 
Q 419 519 350 1059 
z
M 2653 3081 
Q 2653 3566 2395 3850 
Q 2138 4134 1775 4134 
Q 1400 4134 1122 3828 
Q 844 3522 844 3034 
Q 844 2597 1108 2323 
Q 1372 2050 1759 2050 
Q 2150 2050 2401 2323 
Q 2653 2597 2653 3081 
z
" transform="scale(0.015625)"/>
      </defs>
      <use xlink:href="#ArialMT-44"/>
      <use xlink:href="#ArialMT-61" x="72.216797"/>
      <use xlink:href="#ArialMT-79" x="127.832031"/>
      <use xlink:href="#ArialMT-20" x="177.832031"/>
      <use xlink:href="#ArialMT-39" x="205.615234"/>
     </g>
    </g>
    <g id="line2d_39">
     <path d="M 496.517187 152.028125 
L 506.517187 152.028125 
L 516.517187 152.028125 
" style="fill: none; stroke: #17becf; stroke-width: 1.5; stroke-linecap: round"/>
    </g>
    <g id="text_26">
     <!-- Day 10 -->
     <g style="fill: #262626" transform="translate(524.517187 155.528125) scale(0.1 -0.1)">
      <use xlink:href="#ArialMT-44"/>
      <use xlink:href="#ArialMT-61" x="72.216797"/>
      <use xlink:href="#ArialMT-79" x="127.832031"/>
      <use xlink:href="#ArialMT-20" x="177.832031"/>
      <use xlink:href="#ArialMT-31" x="205.615234"/>
      <use xlink:href="#ArialMT-30" x="261.230469"/>
     </g>
    </g>
    <g id="line2d_40">
     <path d="M 496.517187 166.320312 
L 506.517187 166.320312 
L 516.517187 166.320312 
" style="fill: none; stroke: #1f77b4; stroke-width: 1.5; stroke-linecap: round"/>
    </g>
    <g id="text_27">
     <!-- Day 11 -->
     <g style="fill: #262626" transform="translate(524.517187 169.820312) scale(0.1 -0.1)">
      <use xlink:href="#ArialMT-44"/>
      <use xlink:href="#ArialMT-61" x="72.216797"/>
      <use xlink:href="#ArialMT-79" x="127.832031"/>
      <use xlink:href="#ArialMT-20" x="177.832031"/>
      <use xlink:href="#ArialMT-31" x="205.615234"/>
      <use xlink:href="#ArialMT-31" x="253.855469"/>
     </g>
    </g>
    <g id="line2d_41">
     <path d="M 496.517187 180.6125 
L 506.517187 180.6125 
L 516.517187 180.6125 
" style="fill: none; stroke: #ff7f0e; stroke-width: 1.5; stroke-linecap: round"/>
    </g>
    <g id="text_28">
     <!-- Day 12 -->
     <g style="fill: #262626" transform="translate(524.517187 184.1125) scale(0.1 -0.1)">
      <use xlink:href="#ArialMT-44"/>
      <use xlink:href="#ArialMT-61" x="72.216797"/>
      <use xlink:href="#ArialMT-79" x="127.832031"/>
      <use xlink:href="#ArialMT-20" x="177.832031"/>
      <use xlink:href="#ArialMT-31" x="205.615234"/>
      <use xlink:href="#ArialMT-32" x="261.230469"/>
     </g>
    </g>
    <g id="line2d_42">
     <path d="M 496.517187 194.904687 
L 506.517187 194.904687 
L 516.517187 194.904687 
" style="fill: none; stroke: #2ca02c; stroke-width: 1.5; stroke-linecap: round"/>
    </g>
    <g id="text_29">
     <!-- Day 13 -->
     <g style="fill: #262626" transform="translate(524.517187 198.404687) scale(0.1 -0.1)">
      <use xlink:href="#ArialMT-44"/>
      <use xlink:href="#ArialMT-61" x="72.216797"/>
      <use xlink:href="#ArialMT-79" x="127.832031"/>
      <use xlink:href="#ArialMT-20" x="177.832031"/>
      <use xlink:href="#ArialMT-31" x="205.615234"/>
      <use xlink:href="#ArialMT-33" x="261.230469"/>
     </g>
    </g>
    <g id="line2d_43">
     <path d="M 496.517187 209.196875 
L 506.517187 209.196875 
L 516.517187 209.196875 
" style="fill: none; stroke: #d62728; stroke-width: 1.5; stroke-linecap: round"/>
    </g>
    <g id="text_30">
     <!-- Day 14 -->
     <g style="fill: #262626" transform="translate(524.517187 212.696875) scale(0.1 -0.1)">
      <use xlink:href="#ArialMT-44"/>
      <use xlink:href="#ArialMT-61" x="72.216797"/>
      <use xlink:href="#ArialMT-79" x="127.832031"/>
      <use xlink:href="#ArialMT-20" x="177.832031"/>
      <use xlink:href="#ArialMT-31" x="205.615234"/>
      <use xlink:href="#ArialMT-34" x="261.230469"/>
     </g>
    </g>
    <g id="line2d_44">
     <path d="M 496.517187 223.489063 
L 506.517187 223.489063 
L 516.517187 223.489063 
" style="fill: none; stroke: #9467bd; stroke-width: 1.5; stroke-linecap: round"/>
    </g>
    <g id="text_31">
     <!-- Day 15 -->
     <g style="fill: #262626" transform="translate(524.517187 226.989063) scale(0.1 -0.1)">
      <use xlink:href="#ArialMT-44"/>
      <use xlink:href="#ArialMT-61" x="72.216797"/>
      <use xlink:href="#ArialMT-79" x="127.832031"/>
      <use xlink:href="#ArialMT-20" x="177.832031"/>
      <use xlink:href="#ArialMT-31" x="205.615234"/>
      <use xlink:href="#ArialMT-35" x="261.230469"/>
     </g>
    </g>
   </g>
  </g>
 </g>
 <defs>
  <clipPath id="pacf47ea596">
   <rect x="55.8425" y="10.8" width="509.3575" height="381.4225"/>
  </clipPath>
 </defs>
</svg>
