<?xml version="1.0" encoding="utf-8" standalone="no"?>
<!DOCTYPE svg PUBLIC "-//W3C//DTD SVG 1.1//EN"
  "http://www.w3.org/Graphics/SVG/1.1/DTD/svg11.dtd">
<svg xmlns:xlink="http://www.w3.org/1999/xlink" width="576pt" height="432pt" viewBox="0 0 576 432" xmlns="http://www.w3.org/2000/svg" version="1.1">
 <metadata>
  <rdf:RDF xmlns:dc="http://purl.org/dc/elements/1.1/" xmlns:cc="http://creativecommons.org/ns#" xmlns:rdf="http://www.w3.org/1999/02/22-rdf-syntax-ns#">
   <cc:Work>
    <dc:type rdf:resource="http://purl.org/dc/dcmitype/StillImage"/>
    <dc:date>2023-11-17T01:15:22.130705</dc:date>
    <dc:format>image/svg+xml</dc:format>
    <dc:creator>
     <cc:Agent>
      <dc:title>Matplotlib v3.8.1, https://matplotlib.org/</dc:title>
     </cc:Agent>
    </dc:creator>
   </cc:Work>
  </rdf:RDF>
 </metadata>
 <defs>
  <style type="text/css">*{stroke-linejoin: round; stroke-linecap: butt}</style>
 </defs>
 <g id="figure_1">
  <g id="patch_1">
   <path d="M 0 432 
L 576 432 
L 576 0 
L 0 0 
z
" style="fill: #ffffff"/>
  </g>
  <g id="axes_1">
   <g id="patch_2">
    <path d="M 72 384.48 
L 518.4 384.48 
L 518.4 51.84 
L 72 51.84 
z
" style="fill: #eaeaf2"/>
   </g>
   <g id="matplotlib.axis_1">
    <g id="xtick_1">
     <g id="line2d_1">
      <path d="M 118.943888 384.48 
L 118.943888 51.84 
" clip-path="url(#p70565355c5)" style="fill: none; stroke: #ffffff; stroke-width: 0.8; stroke-linecap: round"/>
     </g>
     <g id="text_1">
      <!-- −1000 -->
      <g style="fill: #262626" transform="translate(104.9017 398.637812) scale(0.1 -0.1)">
       <defs>
        <path id="ArialMT-2212" d="M 3381 1997 
L 356 1997 
L 356 2522 
L 3381 2522 
L 3381 1997 
z
" transform="scale(0.015625)"/>
        <path id="ArialMT-31" d="M 2384 0 
L 1822 0 
L 1822 3584 
Q 1619 3391 1289 3197 
Q 959 3003 697 2906 
L 697 3450 
Q 1169 3672 1522 3987 
Q 1875 4303 2022 4600 
L 2384 4600 
L 2384 0 
z
" transform="scale(0.015625)"/>
        <path id="ArialMT-30" d="M 266 2259 
Q 266 3072 433 3567 
Q 600 4063 929 4331 
Q 1259 4600 1759 4600 
Q 2128 4600 2406 4451 
Q 2684 4303 2865 4023 
Q 3047 3744 3150 3342 
Q 3253 2941 3253 2259 
Q 3253 1453 3087 958 
Q 2922 463 2592 192 
Q 2263 -78 1759 -78 
Q 1097 -78 719 397 
Q 266 969 266 2259 
z
M 844 2259 
Q 844 1131 1108 757 
Q 1372 384 1759 384 
Q 2147 384 2411 759 
Q 2675 1134 2675 2259 
Q 2675 3391 2411 3762 
Q 2147 4134 1753 4134 
Q 1366 4134 1134 3806 
Q 844 3388 844 2259 
z
" transform="scale(0.015625)"/>
       </defs>
       <use xlink:href="#ArialMT-2212"/>
       <use xlink:href="#ArialMT-31" x="58.398438"/>
       <use xlink:href="#ArialMT-30" x="114.013672"/>
       <use xlink:href="#ArialMT-30" x="169.628906"/>
       <use xlink:href="#ArialMT-30" x="225.244141"/>
      </g>
     </g>
    </g>
    <g id="xtick_2">
     <g id="line2d_2">
      <path d="M 180.298178 384.48 
L 180.298178 51.84 
" clip-path="url(#p70565355c5)" style="fill: none; stroke: #ffffff; stroke-width: 0.8; stroke-linecap: round"/>
     </g>
     <g id="text_2">
      <!-- −750 -->
      <g style="fill: #262626" transform="translate(169.036459 398.637812) scale(0.1 -0.1)">
       <defs>
        <path id="ArialMT-37" d="M 303 3981 
L 303 4522 
L 3269 4522 
L 3269 4084 
Q 2831 3619 2401 2847 
Q 1972 2075 1738 1259 
Q 1569 684 1522 0 
L 944 0 
Q 953 541 1156 1306 
Q 1359 2072 1739 2783 
Q 2119 3494 2547 3981 
L 303 3981 
z
" transform="scale(0.015625)"/>
        <path id="ArialMT-35" d="M 266 1200 
L 856 1250 
Q 922 819 1161 601 
Q 1400 384 1738 384 
Q 2144 384 2425 690 
Q 2706 997 2706 1503 
Q 2706 1984 2436 2262 
Q 2166 2541 1728 2541 
Q 1456 2541 1237 2417 
Q 1019 2294 894 2097 
L 366 2166 
L 809 4519 
L 3088 4519 
L 3088 3981 
L 1259 3981 
L 1013 2750 
Q 1425 3038 1878 3038 
Q 2478 3038 2890 2622 
Q 3303 2206 3303 1553 
Q 3303 931 2941 478 
Q 2500 -78 1738 -78 
Q 1113 -78 717 272 
Q 322 622 266 1200 
z
" transform="scale(0.015625)"/>
       </defs>
       <use xlink:href="#ArialMT-2212"/>
       <use xlink:href="#ArialMT-37" x="58.398438"/>
       <use xlink:href="#ArialMT-35" x="114.013672"/>
       <use xlink:href="#ArialMT-30" x="169.628906"/>
      </g>
     </g>
    </g>
    <g id="xtick_3">
     <g id="line2d_3">
      <path d="M 241.652468 384.48 
L 241.652468 51.84 
" clip-path="url(#p70565355c5)" style="fill: none; stroke: #ffffff; stroke-width: 0.8; stroke-linecap: round"/>
     </g>
     <g id="text_3">
      <!-- −500 -->
      <g style="fill: #262626" transform="translate(230.39075 398.637812) scale(0.1 -0.1)">
       <use xlink:href="#ArialMT-2212"/>
       <use xlink:href="#ArialMT-35" x="58.398438"/>
       <use xlink:href="#ArialMT-30" x="114.013672"/>
       <use xlink:href="#ArialMT-30" x="169.628906"/>
      </g>
     </g>
    </g>
    <g id="xtick_4">
     <g id="line2d_4">
      <path d="M 303.006759 384.48 
L 303.006759 51.84 
" clip-path="url(#p70565355c5)" style="fill: none; stroke: #ffffff; stroke-width: 0.8; stroke-linecap: round"/>
     </g>
     <g id="text_4">
      <!-- −250 -->
      <g style="fill: #262626" transform="translate(291.74504 398.637812) scale(0.1 -0.1)">
       <defs>
        <path id="ArialMT-32" d="M 3222 541 
L 3222 0 
L 194 0 
Q 188 203 259 391 
Q 375 700 629 1000 
Q 884 1300 1366 1694 
Q 2113 2306 2375 2664 
Q 2638 3022 2638 3341 
Q 2638 3675 2398 3904 
Q 2159 4134 1775 4134 
Q 1369 4134 1125 3890 
Q 881 3647 878 3216 
L 300 3275 
Q 359 3922 746 4261 
Q 1134 4600 1788 4600 
Q 2447 4600 2831 4234 
Q 3216 3869 3216 3328 
Q 3216 3053 3103 2787 
Q 2991 2522 2730 2228 
Q 2469 1934 1863 1422 
Q 1356 997 1212 845 
Q 1069 694 975 541 
L 3222 541 
z
" transform="scale(0.015625)"/>
       </defs>
       <use xlink:href="#ArialMT-2212"/>
       <use xlink:href="#ArialMT-32" x="58.398438"/>
       <use xlink:href="#ArialMT-35" x="114.013672"/>
       <use xlink:href="#ArialMT-30" x="169.628906"/>
      </g>
     </g>
    </g>
    <g id="xtick_5">
     <g id="line2d_5">
      <path d="M 364.361049 384.48 
L 364.361049 51.84 
" clip-path="url(#p70565355c5)" style="fill: none; stroke: #ffffff; stroke-width: 0.8; stroke-linecap: round"/>
     </g>
     <g id="text_5">
      <!-- 0 -->
      <g style="fill: #262626" transform="translate(361.58058 398.637812) scale(0.1 -0.1)">
       <use xlink:href="#ArialMT-30"/>
      </g>
     </g>
    </g>
    <g id="xtick_6">
     <g id="line2d_6">
      <path d="M 425.715339 384.48 
L 425.715339 51.84 
" clip-path="url(#p70565355c5)" style="fill: none; stroke: #ffffff; stroke-width: 0.8; stroke-linecap: round"/>
     </g>
     <g id="text_6">
      <!-- 250 -->
      <g style="fill: #262626" transform="translate(417.373933 398.637812) scale(0.1 -0.1)">
       <use xlink:href="#ArialMT-32"/>
       <use xlink:href="#ArialMT-35" x="55.615234"/>
       <use xlink:href="#ArialMT-30" x="111.230469"/>
      </g>
     </g>
    </g>
    <g id="xtick_7">
     <g id="line2d_7">
      <path d="M 487.069629 384.48 
L 487.069629 51.84 
" clip-path="url(#p70565355c5)" style="fill: none; stroke: #ffffff; stroke-width: 0.8; stroke-linecap: round"/>
     </g>
     <g id="text_7">
      <!-- 500 -->
      <g style="fill: #262626" transform="translate(478.728223 398.637812) scale(0.1 -0.1)">
       <use xlink:href="#ArialMT-35"/>
       <use xlink:href="#ArialMT-30" x="55.615234"/>
       <use xlink:href="#ArialMT-30" x="111.230469"/>
      </g>
     </g>
    </g>
    <g id="text_8">
     <!-- Maximum Solar Radiation Predictive Error (W/m^2) -->
     <g style="fill: #262626" transform="translate(182 411.905) scale(0.1 -0.1)">
      <defs>
       <path id="ArialMT-4d" d="M 475 0 
L 475 4581 
L 1388 4581 
L 2472 1338 
Q 2622 884 2691 659 
Q 2769 909 2934 1394 
L 4031 4581 
L 4847 4581 
L 4847 0 
L 4263 0 
L 4263 3834 
L 2931 0 
L 2384 0 
L 1059 3900 
L 1059 0 
L 475 0 
z
" transform="scale(0.015625)"/>
       <path id="ArialMT-61" d="M 2588 409 
Q 2275 144 1986 34 
Q 1697 -75 1366 -75 
Q 819 -75 525 192 
Q 231 459 231 875 
Q 231 1119 342 1320 
Q 453 1522 633 1644 
Q 813 1766 1038 1828 
Q 1203 1872 1538 1913 
Q 2219 1994 2541 2106 
Q 2544 2222 2544 2253 
Q 2544 2597 2384 2738 
Q 2169 2928 1744 2928 
Q 1347 2928 1158 2789 
Q 969 2650 878 2297 
L 328 2372 
Q 403 2725 575 2942 
Q 747 3159 1072 3276 
Q 1397 3394 1825 3394 
Q 2250 3394 2515 3294 
Q 2781 3194 2906 3042 
Q 3031 2891 3081 2659 
Q 3109 2516 3109 2141 
L 3109 1391 
Q 3109 606 3145 398 
Q 3181 191 3288 0 
L 2700 0 
Q 2613 175 2588 409 
z
M 2541 1666 
Q 2234 1541 1622 1453 
Q 1275 1403 1131 1340 
Q 988 1278 909 1158 
Q 831 1038 831 891 
Q 831 666 1001 516 
Q 1172 366 1500 366 
Q 1825 366 2078 508 
Q 2331 650 2450 897 
Q 2541 1088 2541 1459 
L 2541 1666 
z
" transform="scale(0.015625)"/>
       <path id="ArialMT-78" d="M 47 0 
L 1259 1725 
L 138 3319 
L 841 3319 
L 1350 2541 
Q 1494 2319 1581 2169 
Q 1719 2375 1834 2534 
L 2394 3319 
L 3066 3319 
L 1919 1756 
L 3153 0 
L 2463 0 
L 1781 1031 
L 1600 1309 
L 728 0 
L 47 0 
z
" transform="scale(0.015625)"/>
       <path id="ArialMT-69" d="M 425 3934 
L 425 4581 
L 988 4581 
L 988 3934 
L 425 3934 
z
M 425 0 
L 425 3319 
L 988 3319 
L 988 0 
L 425 0 
z
" transform="scale(0.015625)"/>
       <path id="ArialMT-6d" d="M 422 0 
L 422 3319 
L 925 3319 
L 925 2853 
Q 1081 3097 1340 3245 
Q 1600 3394 1931 3394 
Q 2300 3394 2536 3241 
Q 2772 3088 2869 2813 
Q 3263 3394 3894 3394 
Q 4388 3394 4653 3120 
Q 4919 2847 4919 2278 
L 4919 0 
L 4359 0 
L 4359 2091 
Q 4359 2428 4304 2576 
Q 4250 2725 4106 2815 
Q 3963 2906 3769 2906 
Q 3419 2906 3187 2673 
Q 2956 2441 2956 1928 
L 2956 0 
L 2394 0 
L 2394 2156 
Q 2394 2531 2256 2718 
Q 2119 2906 1806 2906 
Q 1569 2906 1367 2781 
Q 1166 2656 1075 2415 
Q 984 2175 984 1722 
L 984 0 
L 422 0 
z
" transform="scale(0.015625)"/>
       <path id="ArialMT-75" d="M 2597 0 
L 2597 488 
Q 2209 -75 1544 -75 
Q 1250 -75 995 37 
Q 741 150 617 320 
Q 494 491 444 738 
Q 409 903 409 1263 
L 409 3319 
L 972 3319 
L 972 1478 
Q 972 1038 1006 884 
Q 1059 663 1231 536 
Q 1403 409 1656 409 
Q 1909 409 2131 539 
Q 2353 669 2445 892 
Q 2538 1116 2538 1541 
L 2538 3319 
L 3100 3319 
L 3100 0 
L 2597 0 
z
" transform="scale(0.015625)"/>
       <path id="ArialMT-20" transform="scale(0.015625)"/>
       <path id="ArialMT-53" d="M 288 1472 
L 859 1522 
Q 900 1178 1048 958 
Q 1197 738 1509 602 
Q 1822 466 2213 466 
Q 2559 466 2825 569 
Q 3091 672 3220 851 
Q 3350 1031 3350 1244 
Q 3350 1459 3225 1620 
Q 3100 1781 2813 1891 
Q 2628 1963 1997 2114 
Q 1366 2266 1113 2400 
Q 784 2572 623 2826 
Q 463 3081 463 3397 
Q 463 3744 659 4045 
Q 856 4347 1234 4503 
Q 1613 4659 2075 4659 
Q 2584 4659 2973 4495 
Q 3363 4331 3572 4012 
Q 3781 3694 3797 3291 
L 3216 3247 
Q 3169 3681 2898 3903 
Q 2628 4125 2100 4125 
Q 1550 4125 1298 3923 
Q 1047 3722 1047 3438 
Q 1047 3191 1225 3031 
Q 1400 2872 2139 2705 
Q 2878 2538 3153 2413 
Q 3553 2228 3743 1945 
Q 3934 1663 3934 1294 
Q 3934 928 3725 604 
Q 3516 281 3123 101 
Q 2731 -78 2241 -78 
Q 1619 -78 1198 103 
Q 778 284 539 648 
Q 300 1013 288 1472 
z
" transform="scale(0.015625)"/>
       <path id="ArialMT-6f" d="M 213 1659 
Q 213 2581 725 3025 
Q 1153 3394 1769 3394 
Q 2453 3394 2887 2945 
Q 3322 2497 3322 1706 
Q 3322 1066 3130 698 
Q 2938 331 2570 128 
Q 2203 -75 1769 -75 
Q 1072 -75 642 372 
Q 213 819 213 1659 
z
M 791 1659 
Q 791 1022 1069 705 
Q 1347 388 1769 388 
Q 2188 388 2466 706 
Q 2744 1025 2744 1678 
Q 2744 2294 2464 2611 
Q 2184 2928 1769 2928 
Q 1347 2928 1069 2612 
Q 791 2297 791 1659 
z
" transform="scale(0.015625)"/>
       <path id="ArialMT-6c" d="M 409 0 
L 409 4581 
L 972 4581 
L 972 0 
L 409 0 
z
" transform="scale(0.015625)"/>
       <path id="ArialMT-72" d="M 416 0 
L 416 3319 
L 922 3319 
L 922 2816 
Q 1116 3169 1280 3281 
Q 1444 3394 1641 3394 
Q 1925 3394 2219 3213 
L 2025 2691 
Q 1819 2813 1613 2813 
Q 1428 2813 1281 2702 
Q 1134 2591 1072 2394 
Q 978 2094 978 1738 
L 978 0 
L 416 0 
z
" transform="scale(0.015625)"/>
       <path id="ArialMT-52" d="M 503 0 
L 503 4581 
L 2534 4581 
Q 3147 4581 3465 4457 
Q 3784 4334 3975 4021 
Q 4166 3709 4166 3331 
Q 4166 2844 3850 2509 
Q 3534 2175 2875 2084 
Q 3116 1969 3241 1856 
Q 3506 1613 3744 1247 
L 4541 0 
L 3778 0 
L 3172 953 
Q 2906 1366 2734 1584 
Q 2563 1803 2427 1890 
Q 2291 1978 2150 2013 
Q 2047 2034 1813 2034 
L 1109 2034 
L 1109 0 
L 503 0 
z
M 1109 2559 
L 2413 2559 
Q 2828 2559 3062 2645 
Q 3297 2731 3419 2920 
Q 3541 3109 3541 3331 
Q 3541 3656 3305 3865 
Q 3069 4075 2559 4075 
L 1109 4075 
L 1109 2559 
z
" transform="scale(0.015625)"/>
       <path id="ArialMT-64" d="M 2575 0 
L 2575 419 
Q 2259 -75 1647 -75 
Q 1250 -75 917 144 
Q 584 363 401 755 
Q 219 1147 219 1656 
Q 219 2153 384 2558 
Q 550 2963 881 3178 
Q 1213 3394 1622 3394 
Q 1922 3394 2156 3267 
Q 2391 3141 2538 2938 
L 2538 4581 
L 3097 4581 
L 3097 0 
L 2575 0 
z
M 797 1656 
Q 797 1019 1065 703 
Q 1334 388 1700 388 
Q 2069 388 2326 689 
Q 2584 991 2584 1609 
Q 2584 2291 2321 2609 
Q 2059 2928 1675 2928 
Q 1300 2928 1048 2622 
Q 797 2316 797 1656 
z
" transform="scale(0.015625)"/>
       <path id="ArialMT-74" d="M 1650 503 
L 1731 6 
Q 1494 -44 1306 -44 
Q 1000 -44 831 53 
Q 663 150 594 308 
Q 525 466 525 972 
L 525 2881 
L 113 2881 
L 113 3319 
L 525 3319 
L 525 4141 
L 1084 4478 
L 1084 3319 
L 1650 3319 
L 1650 2881 
L 1084 2881 
L 1084 941 
Q 1084 700 1114 631 
Q 1144 563 1211 522 
Q 1278 481 1403 481 
Q 1497 481 1650 503 
z
" transform="scale(0.015625)"/>
       <path id="ArialMT-6e" d="M 422 0 
L 422 3319 
L 928 3319 
L 928 2847 
Q 1294 3394 1984 3394 
Q 2284 3394 2536 3286 
Q 2788 3178 2913 3003 
Q 3038 2828 3088 2588 
Q 3119 2431 3119 2041 
L 3119 0 
L 2556 0 
L 2556 2019 
Q 2556 2363 2490 2533 
Q 2425 2703 2258 2804 
Q 2091 2906 1866 2906 
Q 1506 2906 1245 2678 
Q 984 2450 984 1813 
L 984 0 
L 422 0 
z
" transform="scale(0.015625)"/>
       <path id="ArialMT-50" d="M 494 0 
L 494 4581 
L 2222 4581 
Q 2678 4581 2919 4538 
Q 3256 4481 3484 4323 
Q 3713 4166 3852 3881 
Q 3991 3597 3991 3256 
Q 3991 2672 3619 2267 
Q 3247 1863 2275 1863 
L 1100 1863 
L 1100 0 
L 494 0 
z
M 1100 2403 
L 2284 2403 
Q 2872 2403 3119 2622 
Q 3366 2841 3366 3238 
Q 3366 3525 3220 3729 
Q 3075 3934 2838 4000 
Q 2684 4041 2272 4041 
L 1100 4041 
L 1100 2403 
z
" transform="scale(0.015625)"/>
       <path id="ArialMT-65" d="M 2694 1069 
L 3275 997 
Q 3138 488 2766 206 
Q 2394 -75 1816 -75 
Q 1088 -75 661 373 
Q 234 822 234 1631 
Q 234 2469 665 2931 
Q 1097 3394 1784 3394 
Q 2450 3394 2872 2941 
Q 3294 2488 3294 1666 
Q 3294 1616 3291 1516 
L 816 1516 
Q 847 969 1125 678 
Q 1403 388 1819 388 
Q 2128 388 2347 550 
Q 2566 713 2694 1069 
z
M 847 1978 
L 2700 1978 
Q 2663 2397 2488 2606 
Q 2219 2931 1791 2931 
Q 1403 2931 1139 2672 
Q 875 2413 847 1978 
z
" transform="scale(0.015625)"/>
       <path id="ArialMT-63" d="M 2588 1216 
L 3141 1144 
Q 3050 572 2676 248 
Q 2303 -75 1759 -75 
Q 1078 -75 664 370 
Q 250 816 250 1647 
Q 250 2184 428 2587 
Q 606 2991 970 3192 
Q 1334 3394 1763 3394 
Q 2303 3394 2647 3120 
Q 2991 2847 3088 2344 
L 2541 2259 
Q 2463 2594 2264 2762 
Q 2066 2931 1784 2931 
Q 1359 2931 1093 2626 
Q 828 2322 828 1663 
Q 828 994 1084 691 
Q 1341 388 1753 388 
Q 2084 388 2306 591 
Q 2528 794 2588 1216 
z
" transform="scale(0.015625)"/>
       <path id="ArialMT-76" d="M 1344 0 
L 81 3319 
L 675 3319 
L 1388 1331 
Q 1503 1009 1600 663 
Q 1675 925 1809 1294 
L 2547 3319 
L 3125 3319 
L 1869 0 
L 1344 0 
z
" transform="scale(0.015625)"/>
       <path id="ArialMT-45" d="M 506 0 
L 506 4581 
L 3819 4581 
L 3819 4041 
L 1113 4041 
L 1113 2638 
L 3647 2638 
L 3647 2100 
L 1113 2100 
L 1113 541 
L 3925 541 
L 3925 0 
L 506 0 
z
" transform="scale(0.015625)"/>
       <path id="ArialMT-28" d="M 1497 -1347 
Q 1031 -759 709 28 
Q 388 816 388 1659 
Q 388 2403 628 3084 
Q 909 3875 1497 4659 
L 1900 4659 
Q 1522 4009 1400 3731 
Q 1209 3300 1100 2831 
Q 966 2247 966 1656 
Q 966 153 1900 -1347 
L 1497 -1347 
z
" transform="scale(0.015625)"/>
       <path id="ArialMT-57" d="M 1294 0 
L 78 4581 
L 700 4581 
L 1397 1578 
Q 1509 1106 1591 641 
Q 1766 1375 1797 1488 
L 2669 4581 
L 3400 4581 
L 4056 2263 
Q 4303 1400 4413 641 
Q 4500 1075 4641 1638 
L 5359 4581 
L 5969 4581 
L 4713 0 
L 4128 0 
L 3163 3491 
Q 3041 3928 3019 4028 
Q 2947 3713 2884 3491 
L 1913 0 
L 1294 0 
z
" transform="scale(0.015625)"/>
       <path id="ArialMT-2f" d="M 0 -78 
L 1328 4659 
L 1778 4659 
L 453 -78 
L 0 -78 
z
" transform="scale(0.015625)"/>
       <path id="ArialMT-5e" d="M 747 2156 
L 169 2156 
L 1272 4659 
L 1725 4659 
L 2834 2156 
L 2269 2156 
L 1497 4022 
L 747 2156 
z
" transform="scale(0.015625)"/>
       <path id="ArialMT-29" d="M 791 -1347 
L 388 -1347 
Q 1322 153 1322 1656 
Q 1322 2244 1188 2822 
Q 1081 3291 891 3722 
Q 769 4003 388 4659 
L 791 4659 
Q 1378 3875 1659 3084 
Q 1900 2403 1900 1659 
Q 1900 816 1576 28 
Q 1253 -759 791 -1347 
z
" transform="scale(0.015625)"/>
      </defs>
      <use xlink:href="#ArialMT-4d"/>
      <use xlink:href="#ArialMT-61" x="83.300781"/>
      <use xlink:href="#ArialMT-78" x="138.916016"/>
      <use xlink:href="#ArialMT-69" x="188.916016"/>
      <use xlink:href="#ArialMT-6d" x="211.132812"/>
      <use xlink:href="#ArialMT-75" x="294.433594"/>
      <use xlink:href="#ArialMT-6d" x="350.048828"/>
      <use xlink:href="#ArialMT-20" x="433.349609"/>
      <use xlink:href="#ArialMT-53" x="461.132812"/>
      <use xlink:href="#ArialMT-6f" x="527.832031"/>
      <use xlink:href="#ArialMT-6c" x="583.447266"/>
      <use xlink:href="#ArialMT-61" x="605.664062"/>
      <use xlink:href="#ArialMT-72" x="661.279297"/>
      <use xlink:href="#ArialMT-20" x="694.580078"/>
      <use xlink:href="#ArialMT-52" x="722.363281"/>
      <use xlink:href="#ArialMT-61" x="794.580078"/>
      <use xlink:href="#ArialMT-64" x="850.195312"/>
      <use xlink:href="#ArialMT-69" x="905.810547"/>
      <use xlink:href="#ArialMT-61" x="928.027344"/>
      <use xlink:href="#ArialMT-74" x="983.642578"/>
      <use xlink:href="#ArialMT-69" x="1011.425781"/>
      <use xlink:href="#ArialMT-6f" x="1033.642578"/>
      <use xlink:href="#ArialMT-6e" x="1089.257812"/>
      <use xlink:href="#ArialMT-20" x="1144.873047"/>
      <use xlink:href="#ArialMT-50" x="1172.65625"/>
      <use xlink:href="#ArialMT-72" x="1239.355469"/>
      <use xlink:href="#ArialMT-65" x="1272.65625"/>
      <use xlink:href="#ArialMT-64" x="1328.271484"/>
      <use xlink:href="#ArialMT-69" x="1383.886719"/>
      <use xlink:href="#ArialMT-63" x="1406.103516"/>
      <use xlink:href="#ArialMT-74" x="1456.103516"/>
      <use xlink:href="#ArialMT-69" x="1483.886719"/>
      <use xlink:href="#ArialMT-76" x="1506.103516"/>
      <use xlink:href="#ArialMT-65" x="1556.103516"/>
      <use xlink:href="#ArialMT-20" x="1611.71875"/>
      <use xlink:href="#ArialMT-45" x="1639.501953"/>
      <use xlink:href="#ArialMT-72" x="1706.201172"/>
      <use xlink:href="#ArialMT-72" x="1739.501953"/>
      <use xlink:href="#ArialMT-6f" x="1772.802734"/>
      <use xlink:href="#ArialMT-72" x="1828.417969"/>
      <use xlink:href="#ArialMT-20" x="1861.71875"/>
      <use xlink:href="#ArialMT-28" x="1889.501953"/>
      <use xlink:href="#ArialMT-57" x="1922.802734"/>
      <use xlink:href="#ArialMT-2f" x="2017.1875"/>
      <use xlink:href="#ArialMT-6d" x="2044.970703"/>
      <use xlink:href="#ArialMT-5e" x="2128.271484"/>
      <use xlink:href="#ArialMT-32" x="2175.195312"/>
      <use xlink:href="#ArialMT-29" x="2230.810547"/>
     </g>
    </g>
   </g>
   <g id="matplotlib.axis_2">
    <g id="ytick_1">
     <g id="line2d_8">
      <path d="M 72 384.48 
L 518.4 384.48 
" clip-path="url(#p70565355c5)" style="fill: none; stroke: #ffffff; stroke-width: 0.8; stroke-linecap: round"/>
     </g>
     <g id="text_9">
      <!-- 0.0000 -->
      <g style="fill: #262626" transform="translate(34.417187 388.058906) scale(0.1 -0.1)">
       <defs>
        <path id="ArialMT-2e" d="M 581 0 
L 581 641 
L 1222 641 
L 1222 0 
L 581 0 
z
" transform="scale(0.015625)"/>
       </defs>
       <use xlink:href="#ArialMT-30"/>
       <use xlink:href="#ArialMT-2e" x="55.615234"/>
       <use xlink:href="#ArialMT-30" x="83.398438"/>
       <use xlink:href="#ArialMT-30" x="139.013672"/>
       <use xlink:href="#ArialMT-30" x="194.628906"/>
       <use xlink:href="#ArialMT-30" x="250.244141"/>
      </g>
     </g>
    </g>
    <g id="ytick_2">
     <g id="line2d_9">
      <path d="M 72 345.459311 
L 518.4 345.459311 
" clip-path="url(#p70565355c5)" style="fill: none; stroke: #ffffff; stroke-width: 0.8; stroke-linecap: round"/>
     </g>
     <g id="text_10">
      <!-- 0.0005 -->
      <g style="fill: #262626" transform="translate(34.417187 349.038218) scale(0.1 -0.1)">
       <use xlink:href="#ArialMT-30"/>
       <use xlink:href="#ArialMT-2e" x="55.615234"/>
       <use xlink:href="#ArialMT-30" x="83.398438"/>
       <use xlink:href="#ArialMT-30" x="139.013672"/>
       <use xlink:href="#ArialMT-30" x="194.628906"/>
       <use xlink:href="#ArialMT-35" x="250.244141"/>
      </g>
     </g>
    </g>
    <g id="ytick_3">
     <g id="line2d_10">
      <path d="M 72 306.438623 
L 518.4 306.438623 
" clip-path="url(#p70565355c5)" style="fill: none; stroke: #ffffff; stroke-width: 0.8; stroke-linecap: round"/>
     </g>
     <g id="text_11">
      <!-- 0.0010 -->
      <g style="fill: #262626" transform="translate(34.417187 310.017529) scale(0.1 -0.1)">
       <use xlink:href="#ArialMT-30"/>
       <use xlink:href="#ArialMT-2e" x="55.615234"/>
       <use xlink:href="#ArialMT-30" x="83.398438"/>
       <use xlink:href="#ArialMT-30" x="139.013672"/>
       <use xlink:href="#ArialMT-31" x="194.628906"/>
       <use xlink:href="#ArialMT-30" x="250.244141"/>
      </g>
     </g>
    </g>
    <g id="ytick_4">
     <g id="line2d_11">
      <path d="M 72 267.417934 
L 518.4 267.417934 
" clip-path="url(#p70565355c5)" style="fill: none; stroke: #ffffff; stroke-width: 0.8; stroke-linecap: round"/>
     </g>
     <g id="text_12">
      <!-- 0.0015 -->
      <g style="fill: #262626" transform="translate(34.417187 270.99684) scale(0.1 -0.1)">
       <use xlink:href="#ArialMT-30"/>
       <use xlink:href="#ArialMT-2e" x="55.615234"/>
       <use xlink:href="#ArialMT-30" x="83.398438"/>
       <use xlink:href="#ArialMT-30" x="139.013672"/>
       <use xlink:href="#ArialMT-31" x="194.628906"/>
       <use xlink:href="#ArialMT-35" x="250.244141"/>
      </g>
     </g>
    </g>
    <g id="ytick_5">
     <g id="line2d_12">
      <path d="M 72 228.397246 
L 518.4 228.397246 
" clip-path="url(#p70565355c5)" style="fill: none; stroke: #ffffff; stroke-width: 0.8; stroke-linecap: round"/>
     </g>
     <g id="text_13">
      <!-- 0.0020 -->
      <g style="fill: #262626" transform="translate(34.417187 231.976152) scale(0.1 -0.1)">
       <use xlink:href="#ArialMT-30"/>
       <use xlink:href="#ArialMT-2e" x="55.615234"/>
       <use xlink:href="#ArialMT-30" x="83.398438"/>
       <use xlink:href="#ArialMT-30" x="139.013672"/>
       <use xlink:href="#ArialMT-32" x="194.628906"/>
       <use xlink:href="#ArialMT-30" x="250.244141"/>
      </g>
     </g>
    </g>
    <g id="ytick_6">
     <g id="line2d_13">
      <path d="M 72 189.376557 
L 518.4 189.376557 
" clip-path="url(#p70565355c5)" style="fill: none; stroke: #ffffff; stroke-width: 0.8; stroke-linecap: round"/>
     </g>
     <g id="text_14">
      <!-- 0.0025 -->
      <g style="fill: #262626" transform="translate(34.417187 192.955463) scale(0.1 -0.1)">
       <use xlink:href="#ArialMT-30"/>
       <use xlink:href="#ArialMT-2e" x="55.615234"/>
       <use xlink:href="#ArialMT-30" x="83.398438"/>
       <use xlink:href="#ArialMT-30" x="139.013672"/>
       <use xlink:href="#ArialMT-32" x="194.628906"/>
       <use xlink:href="#ArialMT-35" x="250.244141"/>
      </g>
     </g>
    </g>
    <g id="ytick_7">
     <g id="line2d_14">
      <path d="M 72 150.355868 
L 518.4 150.355868 
" clip-path="url(#p70565355c5)" style="fill: none; stroke: #ffffff; stroke-width: 0.8; stroke-linecap: round"/>
     </g>
     <g id="text_15">
      <!-- 0.0030 -->
      <g style="fill: #262626" transform="translate(34.417187 153.934775) scale(0.1 -0.1)">
       <defs>
        <path id="ArialMT-33" d="M 269 1209 
L 831 1284 
Q 928 806 1161 595 
Q 1394 384 1728 384 
Q 2125 384 2398 659 
Q 2672 934 2672 1341 
Q 2672 1728 2419 1979 
Q 2166 2231 1775 2231 
Q 1616 2231 1378 2169 
L 1441 2663 
Q 1497 2656 1531 2656 
Q 1891 2656 2178 2843 
Q 2466 3031 2466 3422 
Q 2466 3731 2256 3934 
Q 2047 4138 1716 4138 
Q 1388 4138 1169 3931 
Q 950 3725 888 3313 
L 325 3413 
Q 428 3978 793 4289 
Q 1159 4600 1703 4600 
Q 2078 4600 2393 4439 
Q 2709 4278 2876 4000 
Q 3044 3722 3044 3409 
Q 3044 3113 2884 2869 
Q 2725 2625 2413 2481 
Q 2819 2388 3044 2092 
Q 3269 1797 3269 1353 
Q 3269 753 2831 336 
Q 2394 -81 1725 -81 
Q 1122 -81 723 278 
Q 325 638 269 1209 
z
" transform="scale(0.015625)"/>
       </defs>
       <use xlink:href="#ArialMT-30"/>
       <use xlink:href="#ArialMT-2e" x="55.615234"/>
       <use xlink:href="#ArialMT-30" x="83.398438"/>
       <use xlink:href="#ArialMT-30" x="139.013672"/>
       <use xlink:href="#ArialMT-33" x="194.628906"/>
       <use xlink:href="#ArialMT-30" x="250.244141"/>
      </g>
     </g>
    </g>
    <g id="ytick_8">
     <g id="line2d_15">
      <path d="M 72 111.33518 
L 518.4 111.33518 
" clip-path="url(#p70565355c5)" style="fill: none; stroke: #ffffff; stroke-width: 0.8; stroke-linecap: round"/>
     </g>
     <g id="text_16">
      <!-- 0.0035 -->
      <g style="fill: #262626" transform="translate(34.417187 114.914086) scale(0.1 -0.1)">
       <use xlink:href="#ArialMT-30"/>
       <use xlink:href="#ArialMT-2e" x="55.615234"/>
       <use xlink:href="#ArialMT-30" x="83.398438"/>
       <use xlink:href="#ArialMT-30" x="139.013672"/>
       <use xlink:href="#ArialMT-33" x="194.628906"/>
       <use xlink:href="#ArialMT-35" x="250.244141"/>
      </g>
     </g>
    </g>
    <g id="ytick_9">
     <g id="line2d_16">
      <path d="M 72 72.314491 
L 518.4 72.314491 
" clip-path="url(#p70565355c5)" style="fill: none; stroke: #ffffff; stroke-width: 0.8; stroke-linecap: round"/>
     </g>
     <g id="text_17">
      <!-- 0.0040 -->
      <g style="fill: #262626" transform="translate(34.417187 75.893397) scale(0.1 -0.1)">
       <defs>
        <path id="ArialMT-34" d="M 2069 0 
L 2069 1097 
L 81 1097 
L 81 1613 
L 2172 4581 
L 2631 4581 
L 2631 1613 
L 3250 1613 
L 3250 1097 
L 2631 1097 
L 2631 0 
L 2069 0 
z
M 2069 1613 
L 2069 3678 
L 634 1613 
L 2069 1613 
z
" transform="scale(0.015625)"/>
       </defs>
       <use xlink:href="#ArialMT-30"/>
       <use xlink:href="#ArialMT-2e" x="55.615234"/>
       <use xlink:href="#ArialMT-30" x="83.398438"/>
       <use xlink:href="#ArialMT-30" x="139.013672"/>
       <use xlink:href="#ArialMT-34" x="194.628906"/>
       <use xlink:href="#ArialMT-30" x="250.244141"/>
      </g>
     </g>
    </g>
    <g id="text_18">
     <!-- Density -->
     <g style="fill: #262626" transform="translate(28.3125 234.831875) rotate(-90) scale(0.1 -0.1)">
      <defs>
       <path id="ArialMT-44" d="M 494 0 
L 494 4581 
L 2072 4581 
Q 2606 4581 2888 4516 
Q 3281 4425 3559 4188 
Q 3922 3881 4101 3404 
Q 4281 2928 4281 2316 
Q 4281 1794 4159 1391 
Q 4038 988 3847 723 
Q 3656 459 3429 307 
Q 3203 156 2883 78 
Q 2563 0 2147 0 
L 494 0 
z
M 1100 541 
L 2078 541 
Q 2531 541 2789 625 
Q 3047 709 3200 863 
Q 3416 1078 3536 1442 
Q 3656 1806 3656 2325 
Q 3656 3044 3420 3430 
Q 3184 3816 2847 3947 
Q 2603 4041 2063 4041 
L 1100 4041 
L 1100 541 
z
" transform="scale(0.015625)"/>
       <path id="ArialMT-73" d="M 197 991 
L 753 1078 
Q 800 744 1014 566 
Q 1228 388 1613 388 
Q 2000 388 2187 545 
Q 2375 703 2375 916 
Q 2375 1106 2209 1216 
Q 2094 1291 1634 1406 
Q 1016 1563 777 1677 
Q 538 1791 414 1992 
Q 291 2194 291 2438 
Q 291 2659 392 2848 
Q 494 3038 669 3163 
Q 800 3259 1026 3326 
Q 1253 3394 1513 3394 
Q 1903 3394 2198 3281 
Q 2494 3169 2634 2976 
Q 2775 2784 2828 2463 
L 2278 2388 
Q 2241 2644 2061 2787 
Q 1881 2931 1553 2931 
Q 1166 2931 1000 2803 
Q 834 2675 834 2503 
Q 834 2394 903 2306 
Q 972 2216 1119 2156 
Q 1203 2125 1616 2013 
Q 2213 1853 2448 1751 
Q 2684 1650 2818 1456 
Q 2953 1263 2953 975 
Q 2953 694 2789 445 
Q 2625 197 2315 61 
Q 2006 -75 1616 -75 
Q 969 -75 630 194 
Q 291 463 197 991 
z
" transform="scale(0.015625)"/>
       <path id="ArialMT-79" d="M 397 -1278 
L 334 -750 
Q 519 -800 656 -800 
Q 844 -800 956 -737 
Q 1069 -675 1141 -563 
Q 1194 -478 1313 -144 
Q 1328 -97 1363 -6 
L 103 3319 
L 709 3319 
L 1400 1397 
Q 1534 1031 1641 628 
Q 1738 1016 1872 1384 
L 2581 3319 
L 3144 3319 
L 1881 -56 
Q 1678 -603 1566 -809 
Q 1416 -1088 1222 -1217 
Q 1028 -1347 759 -1347 
Q 597 -1347 397 -1278 
z
" transform="scale(0.015625)"/>
      </defs>
      <use xlink:href="#ArialMT-44"/>
      <use xlink:href="#ArialMT-65" x="72.216797"/>
      <use xlink:href="#ArialMT-6e" x="127.832031"/>
      <use xlink:href="#ArialMT-73" x="183.447266"/>
      <use xlink:href="#ArialMT-69" x="233.447266"/>
      <use xlink:href="#ArialMT-74" x="255.664062"/>
      <use xlink:href="#ArialMT-79" x="283.447266"/>
     </g>
    </g>
   </g>
   <g id="line2d_17">
    <path d="M 110.627798 384.470759 
L 121.816765 384.364689 
L 129.276076 384.068571 
L 134.87056 383.602325 
L 140.465043 382.877094 
L 149.789182 381.301405 
L 155.383666 380.466722 
L 159.113321 380.093538 
L 162.842977 379.899942 
L 168.43746 379.895907 
L 188.950566 380.374749 
L 192.680222 380.255161 
L 196.409878 379.918037 
L 200.139533 379.25483 
L 203.869189 378.172669 
L 205.734017 377.456461 
L 209.463672 375.667581 
L 213.193328 373.43801 
L 216.922984 370.859986 
L 228.111951 362.706737 
L 231.841606 360.517879 
L 233.706434 359.615214 
L 235.571262 358.851702 
L 237.43609 358.227418 
L 239.300917 357.735831 
L 243.030573 357.096629 
L 246.760229 356.790348 
L 252.354712 356.622214 
L 257.949196 356.591236 
L 261.678851 356.7482 
L 265.408507 357.235503 
L 267.273335 357.652388 
L 269.138162 358.198918 
L 272.867818 359.661271 
L 278.462301 362.403476 
L 282.191957 364.119881 
L 284.056785 364.814084 
L 285.921613 365.356143 
L 287.786441 365.729051 
L 289.651268 365.929807 
L 291.516096 365.969141 
L 295.245752 365.662797 
L 313.89403 362.810087 
L 315.758858 362.161777 
L 317.623686 361.194228 
L 319.488513 359.790779 
L 321.353341 357.819678 
L 323.218169 355.135699 
L 325.082997 351.58284 
L 326.947825 346.99853 
L 328.812652 341.219761 
L 330.67748 334.091328 
L 332.542308 325.476182 
L 334.407136 315.267447 
L 336.271964 303.401349 
L 338.136791 289.869868 
L 340.001619 274.731749 
L 341.866447 258.120411 
L 345.596103 221.401199 
L 353.055414 144.174317 
L 354.920242 126.681574 
L 356.78507 110.830117 
L 358.649897 97.021509 
L 360.514725 85.595188 
L 362.379553 76.814683 
L 364.244381 70.858183 
L 366.109209 67.813809 
L 367.974036 67.679632 
L 369.838864 70.368183 
L 371.703692 75.714946 
L 373.56852 83.490063 
L 375.433348 93.412278 
L 377.298176 105.164024 
L 379.163003 118.406577 
L 382.892659 147.987504 
L 392.216798 225.709819 
L 395.946454 253.515472 
L 397.811282 266.177252 
L 399.676109 277.943387 
L 401.540937 288.801486 
L 403.405765 298.764281 
L 405.270593 307.863968 
L 407.135421 316.146394 
L 409.000248 323.665564 
L 410.865076 330.478853 
L 412.729904 336.643242 
L 414.594732 342.212721 
L 416.45956 347.236853 
L 418.324387 351.760353 
L 420.189215 355.823407 
L 422.054043 359.462446 
L 423.918871 362.711056 
L 425.783699 365.600808 
L 427.648527 368.16185 
L 429.513354 370.423205 
L 431.378182 372.412809 
L 433.24301 374.157367 
L 435.107838 375.682125 
L 436.972666 377.010648 
L 438.837493 378.16467 
L 440.702321 379.164031 
L 444.431977 380.768892 
L 448.161632 381.948414 
L 451.891288 382.801229 
L 455.620944 383.405193 
L 459.350599 383.82113 
L 464.945083 384.194272 
L 472.404394 384.405817 
L 481.728533 384.471239 
L 481.728533 384.471239 
" clip-path="url(#p70565355c5)" style="fill: none; stroke: #1f77b4; stroke-width: 1.5; stroke-linecap: round"/>
   </g>
   <g id="line2d_18">
    <path d="M 111.521596 384.468952 
L 122.561135 384.344121 
L 128.080905 384.118909 
L 133.600674 383.674848 
L 139.120443 382.958909 
L 146.480136 381.673506 
L 153.839828 380.374628 
L 159.359598 379.642574 
L 164.879367 379.204472 
L 170.399136 379.057769 
L 175.918906 379.188704 
L 183.278598 379.700244 
L 188.798368 380.067399 
L 192.478214 380.097981 
L 196.15806 379.811597 
L 197.997983 379.515938 
L 199.837906 379.105006 
L 201.67783 378.571906 
L 203.517753 377.912682 
L 205.357676 377.126483 
L 209.037522 375.186311 
L 212.717368 372.813229 
L 216.397215 370.12811 
L 223.756907 364.556643 
L 227.436753 362.083031 
L 231.1166 360.039961 
L 232.956523 359.206315 
L 234.796446 358.500842 
L 238.476292 357.453741 
L 242.156138 356.824811 
L 245.835985 356.5163 
L 249.515831 356.443104 
L 253.195677 356.558 
L 256.875523 356.862117 
L 260.55537 357.398183 
L 264.235216 358.223764 
L 267.915062 359.367578 
L 271.594908 360.784262 
L 278.954601 363.792913 
L 282.634447 364.93486 
L 284.47437 365.329804 
L 286.314293 365.591743 
L 288.154216 365.720194 
L 291.834063 365.619096 
L 295.513909 365.180203 
L 304.713525 363.8671 
L 310.233294 363.17124 
L 312.073217 362.796795 
L 313.91314 362.245691 
L 315.753063 361.431104 
L 317.592986 360.250762 
L 319.43291 358.587555 
L 321.272833 356.310661 
L 323.112756 353.277422 
L 324.952679 349.336342 
L 326.792602 344.331581 
L 328.632525 338.10929 
L 330.472448 330.525941 
L 332.312371 321.458589 
L 334.152295 310.816602 
L 335.992218 298.554068 
L 337.832141 284.681723 
L 339.672064 269.277049 
L 341.511987 252.491169 
L 345.191833 215.758082 
L 350.711603 158.154678 
L 352.551526 140.028216 
L 354.391449 123.20122 
L 356.231372 108.097963 
L 358.071295 95.092474 
L 359.911218 84.492376 
L 361.751141 76.527126 
L 363.591065 71.341156 
L 365.430988 68.992001 
L 367.270911 69.453069 
L 369.110834 72.620364 
L 370.950757 78.322219 
L 372.79068 86.330992 
L 374.630603 96.375677 
L 376.470526 108.154529 
L 378.31045 121.347049 
L 381.990296 150.662041 
L 389.349988 212.422141 
L 393.029835 240.874767 
L 394.869758 253.911625 
L 396.709681 266.048757 
L 398.549604 277.258641 
L 400.389527 287.550215 
L 402.22945 296.961835 
L 404.069373 305.552945 
L 405.909296 313.395334 
L 407.74922 320.564898 
L 409.589143 327.134674 
L 411.429066 333.169722 
L 413.268989 338.724083 
L 415.108912 343.839788 
L 416.948835 348.547586 
L 418.788758 352.868949 
L 420.628681 356.818782 
L 422.468605 360.408351 
L 424.308528 363.647967 
L 426.148451 366.549129 
L 427.988374 369.125973 
L 429.828297 371.395957 
L 431.66822 373.379871 
L 433.508143 375.101291 
L 435.348066 376.585654 
L 437.18799 377.859151 
L 439.027913 378.947603 
L 440.867836 379.875465 
L 444.547682 381.336173 
L 448.227528 382.388144 
L 451.907375 383.137053 
L 455.587221 383.657057 
L 461.10699 384.125856 
L 466.62676 384.349244 
L 475.826375 384.463117 
L 477.666298 384.469459 
L 477.666298 384.469459 
" clip-path="url(#p70565355c5)" style="fill: none; stroke: #ff7f0e; stroke-width: 1.5; stroke-linecap: round"/>
   </g>
   <g id="line2d_19">
    <path d="M 111.016272 384.469586 
L 122.159297 384.350297 
L 127.730809 384.134077 
L 133.302322 383.708372 
L 138.873834 383.028137 
L 146.302517 381.832485 
L 153.731201 380.640607 
L 161.159884 379.70995 
L 166.731396 379.208788 
L 172.302908 378.944537 
L 176.01725 378.967308 
L 179.731592 379.175033 
L 187.160275 379.942559 
L 190.874616 380.255277 
L 194.588958 380.305237 
L 196.446129 380.184146 
L 198.3033 379.945596 
L 200.16047 379.579189 
L 202.017641 379.07886 
L 203.874812 378.443103 
L 205.731983 377.674966 
L 209.446324 375.774832 
L 213.160666 373.479482 
L 218.732178 369.606142 
L 224.303691 365.679882 
L 228.018032 363.273314 
L 231.732374 361.172901 
L 235.446715 359.454946 
L 239.161057 358.144629 
L 242.875399 357.216059 
L 246.58974 356.611677 
L 250.304082 356.273285 
L 254.018423 356.167612 
L 257.732765 356.294268 
L 261.447107 356.676788 
L 265.161448 357.344917 
L 268.87579 358.313714 
L 272.590131 359.561331 
L 278.161644 361.770219 
L 283.733156 363.932671 
L 287.447498 365.064086 
L 291.161839 365.805517 
L 294.876181 366.128371 
L 298.590522 366.089048 
L 302.304864 365.790445 
L 306.019206 365.312774 
L 309.733547 364.63175 
L 311.590718 364.160567 
L 313.447889 363.546393 
L 315.30506 362.728704 
L 317.16223 361.631431 
L 319.019401 360.162754 
L 320.876572 358.215172 
L 322.733743 355.665992 
L 324.590914 352.378515 
L 326.448084 348.204346 
L 328.305255 342.987363 
L 330.162426 336.569816 
L 332.019597 328.800914 
L 333.876768 319.54792 
L 335.733938 308.709377 
L 337.591109 296.229586 
L 339.44828 282.113025 
L 341.305451 266.43705 
L 343.162622 249.361095 
L 346.876963 212.075162 
L 352.448475 154.26086 
L 354.305646 136.404688 
L 356.162817 120.080031 
L 358.019988 105.728185 
L 359.877159 93.719842 
L 361.734329 84.336385 
L 363.5915 77.758268 
L 365.448671 74.061223 
L 367.305842 73.220172 
L 369.163013 75.119802 
L 371.020183 79.570148 
L 372.877354 86.325011 
L 374.734525 95.100985 
L 376.591696 105.595079 
L 378.448867 117.499412 
L 380.306037 130.512184 
L 384.020379 158.726269 
L 391.449062 217.006923 
L 395.163404 243.910414 
L 397.020575 256.3153 
L 398.877745 267.920001 
L 400.734916 278.690226 
L 402.592087 288.623773 
L 404.449258 297.746386 
L 406.306429 306.105698 
L 408.163599 313.763949 
L 410.02077 320.790328 
L 411.877941 327.253828 
L 413.735112 333.217372 
L 415.592282 338.733727 
L 417.449453 343.84344 
L 419.306624 348.574723 
L 421.163795 352.944981 
L 423.020966 356.96349 
L 424.878136 360.63467 
L 426.735307 363.961395 
L 428.592478 366.947874 
L 430.449649 369.60179 
L 432.30682 371.935512 
L 434.16399 373.966395 
L 436.021161 375.716294 
L 437.878332 377.210497 
L 439.735503 378.476337 
L 441.592674 379.541735 
L 443.449844 380.43387 
L 445.307015 381.178119 
L 449.021357 382.311512 
L 452.735698 383.090008 
L 456.45004 383.618508 
L 462.021552 384.09436 
L 467.593065 384.3288 
L 476.878919 384.457876 
L 480.59326 384.471092 
L 480.59326 384.471092 
" clip-path="url(#p70565355c5)" style="fill: none; stroke: #2ca02c; stroke-width: 1.5; stroke-linecap: round"/>
   </g>
   <g id="line2d_20">
    <path d="M 109.766559 384.468838 
L 120.959194 384.338406 
L 126.555512 384.100219 
L 132.15183 383.632503 
L 137.748148 382.897733 
L 152.671662 380.644035 
L 158.26798 380.180123 
L 165.729737 379.842185 
L 175.056934 379.586052 
L 180.653252 379.617846 
L 191.845887 379.946237 
L 195.576766 379.740387 
L 197.442205 379.49099 
L 199.307645 379.122677 
L 201.173084 378.625514 
L 203.038523 377.995676 
L 204.903962 377.23589 
L 208.634841 375.368311 
L 212.36572 373.153001 
L 227.289234 363.773961 
L 231.020112 361.738779 
L 234.750991 359.937244 
L 238.48187 358.445467 
L 242.212748 357.34166 
L 245.943627 356.677533 
L 249.674505 356.456952 
L 253.405384 356.631006 
L 257.136263 357.109709 
L 262.73258 358.170896 
L 270.194338 359.874942 
L 275.790655 361.360357 
L 288.848731 365.084507 
L 292.579609 365.701467 
L 296.310488 365.93451 
L 300.041366 365.805582 
L 303.772245 365.396037 
L 307.503123 364.76893 
L 311.234002 363.871058 
L 313.099441 363.249721 
L 314.964881 362.443985 
L 316.83032 361.379695 
L 318.695759 359.964517 
L 320.561198 358.088286 
L 322.426638 355.624179 
L 324.292077 352.430899 
L 326.157516 348.356139 
L 328.022956 343.241671 
L 329.888395 336.930313 
L 331.753834 329.274962 
L 333.619274 320.149584 
L 335.484713 309.461765 
L 337.350152 297.166004 
L 339.215591 283.276584 
L 341.081031 267.878565 
L 342.94647 251.135341 
L 346.677349 214.668711 
L 352.273666 158.27183 
L 354.139106 140.85054 
L 356.004545 124.897636 
L 357.869984 110.829126 
L 359.735424 98.994624 
L 361.600863 89.660623 
L 363.466302 83.000185 
L 365.331741 79.089571 
L 367.197181 77.911642 
L 369.06262 79.365115 
L 370.928059 83.278247 
L 372.793499 89.425178 
L 374.658938 97.543091 
L 376.524377 107.348495 
L 378.389817 118.551319 
L 380.255256 130.866003 
L 383.986134 157.755342 
L 393.313331 227.647268 
L 397.044209 253.074958 
L 398.909649 264.797258 
L 400.775088 275.785488 
L 402.640527 286.016724 
L 404.505967 295.491024 
L 406.371406 304.227891 
L 408.236845 312.261821 
L 410.102284 319.637354 
L 411.967724 326.404133 
L 413.833163 332.61244 
L 415.698602 338.30959 
L 417.564042 343.537413 
L 419.429481 348.330935 
L 421.29492 352.718188 
L 423.16036 356.72098 
L 425.025799 360.356377 
L 426.891238 363.638558 
L 428.756677 366.580755 
L 430.622117 369.196968 
L 432.487556 371.503248 
L 434.352995 373.518403 
L 436.218435 375.264105 
L 438.083874 376.764452 
L 439.949313 378.045122 
L 441.814752 379.132292 
L 443.680192 380.051526 
L 445.545631 380.826781 
L 449.27651 382.02905 
L 453.007388 382.878376 
L 456.738267 383.471925 
L 460.469145 383.87601 
L 466.065463 384.23027 
L 473.52722 384.420307 
L 480.988978 384.469682 
L 480.988978 384.469682 
" clip-path="url(#p70565355c5)" style="fill: none; stroke: #d62728; stroke-width: 1.5; stroke-linecap: round"/>
   </g>
   <g id="line2d_21">
    <path d="M 107.962992 384.469585 
L 119.085324 384.350352 
L 124.64649 384.131769 
L 130.207656 383.696154 
L 135.768822 382.995642 
L 150.598597 380.776258 
L 156.159763 380.376112 
L 163.574651 380.191629 
L 172.843261 379.936253 
L 191.38048 379.230921 
L 195.087924 378.750519 
L 198.795368 377.903236 
L 202.502812 376.61654 
L 206.210256 374.893092 
L 209.9177 372.80868 
L 215.478866 369.271066 
L 224.747476 363.258095 
L 228.45492 361.109562 
L 232.162364 359.280131 
L 234.016085 358.525784 
L 235.869807 357.897965 
L 237.723529 357.407611 
L 239.577251 357.061061 
L 241.430973 356.859156 
L 243.284695 356.796854 
L 245.138417 356.863427 
L 248.845861 357.316527 
L 252.553305 358.055075 
L 261.821915 360.0587 
L 267.383081 360.925508 
L 274.797969 361.974416 
L 278.505412 362.684122 
L 284.066578 364.042578 
L 289.627744 365.405268 
L 293.335188 366.033997 
L 297.042632 366.294669 
L 300.750076 366.154196 
L 304.45752 365.630795 
L 308.164964 364.714016 
L 310.018686 364.072302 
L 311.872408 363.264761 
L 313.72613 362.239105 
L 315.579852 360.92539 
L 317.433574 359.235208 
L 319.287296 357.061743 
L 321.141018 354.280857 
L 322.99474 350.753428 
L 324.848461 346.329169 
L 326.702183 340.852181 
L 328.555905 334.168443 
L 330.409627 326.135302 
L 332.263349 316.632818 
L 334.117071 305.576543 
L 335.970793 292.930915 
L 337.824515 278.722121 
L 339.678237 263.048971 
L 341.531959 246.090175 
L 345.239403 209.436659 
L 350.800569 153.590228 
L 352.654291 136.6068 
L 354.508013 121.213173 
L 356.361735 107.808692 
L 358.215457 96.71748 
L 360.069179 88.173318 
L 361.922901 82.312065 
L 363.776623 79.171796 
L 365.630345 78.699912 
L 367.484067 80.765692 
L 369.337788 85.176305 
L 371.19151 91.6942 
L 373.045232 100.053973 
L 374.898954 109.977286 
L 376.752676 121.184953 
L 378.606398 133.40593 
L 382.313842 159.878549 
L 391.582452 228.215274 
L 395.289896 253.195091 
L 398.99734 275.727836 
L 400.851062 285.978892 
L 402.704784 295.535996 
L 404.558506 304.403723 
L 406.412228 312.59719 
L 408.26595 320.139358 
L 410.119672 327.058592 
L 411.973394 333.386594 
L 413.827115 339.156715 
L 415.680837 344.402682 
L 417.534559 349.15769 
L 419.388281 353.453857 
L 421.242003 357.321978 
L 423.095725 360.791551 
L 424.949447 363.890973 
L 426.803169 366.64785 
L 428.656891 369.089286 
L 430.510613 371.24208 
L 432.364335 373.132759 
L 434.218057 374.787404 
L 436.071779 376.231309 
L 437.925501 377.488524 
L 439.779223 378.581364 
L 441.632945 379.530005 
L 445.340389 381.063317 
L 449.047833 382.20201 
L 452.755277 383.027984 
L 456.462721 383.603885 
L 460.170164 383.983868 
L 465.73133 384.29502 
L 473.146218 384.442251 
L 476.853662 384.464941 
L 476.853662 384.464941 
" clip-path="url(#p70565355c5)" style="fill: none; stroke: #9467bd; stroke-width: 1.5; stroke-linecap: round"/>
   </g>
   <g id="line2d_22">
    <path d="M 107.080695 384.469903 
L 118.282111 384.354721 
L 123.882819 384.144737 
L 129.483527 383.727931 
L 135.084236 383.058797 
L 150.019457 380.930075 
L 155.620165 380.549803 
L 163.087776 380.381605 
L 170.555387 380.16226 
L 183.623706 379.456127 
L 189.224414 379.005131 
L 192.958219 378.462795 
L 196.692025 377.599345 
L 200.42583 376.359093 
L 204.159636 374.770492 
L 209.760344 371.981836 
L 219.094857 367.26034 
L 235.896982 359.166001 
L 237.763884 358.482479 
L 239.630787 357.931487 
L 241.49769 357.534861 
L 243.364592 357.305914 
L 245.231495 357.247651 
L 247.098398 357.352202 
L 248.9653 357.601525 
L 252.699106 358.423316 
L 262.033619 360.868248 
L 265.767425 361.54385 
L 271.368133 362.222187 
L 278.835744 363.089109 
L 286.303355 364.294233 
L 291.904063 365.136933 
L 295.637868 365.484021 
L 299.371673 365.561463 
L 303.105479 365.2866 
L 304.972382 364.982935 
L 306.839284 364.542456 
L 308.706187 363.938395 
L 310.57309 363.136342 
L 312.439992 362.092541 
L 314.306895 360.752049 
L 316.173798 359.046851 
L 318.0407 356.894181 
L 319.907603 354.195365 
L 321.774506 350.835651 
L 323.641409 346.685519 
L 325.508311 341.603974 
L 327.375214 335.444224 
L 329.242117 328.061979 
L 331.109019 319.326292 
L 332.975922 309.132545 
L 334.842825 297.416724 
L 336.709728 284.169752 
L 338.57663 269.450323 
L 340.443533 253.39449 
L 344.177338 218.226471 
L 349.778046 163.293152 
L 351.644949 146.180344 
L 353.511852 130.434633 
L 355.378755 116.467779 
L 357.245657 104.626336 
L 359.11256 95.175427 
L 360.979463 88.289651 
L 362.846365 84.051361 
L 364.713268 82.455567 
L 366.580171 83.419947 
L 368.447073 86.797973 
L 370.313976 92.393156 
L 372.180879 99.972682 
L 374.047782 109.279312 
L 375.914684 120.041101 
L 377.781587 131.97909 
L 381.515392 158.27001 
L 388.983003 213.331268 
L 392.716809 238.841675 
L 396.450614 261.758699 
L 398.317517 272.166715 
L 400.184419 281.893631 
L 402.051322 290.977772 
L 403.918225 299.46569 
L 405.785128 307.404011 
L 407.65203 314.833248 
L 409.518933 321.784156 
L 411.385836 328.276757 
L 413.252738 334.321687 
L 415.119641 339.923152 
L 416.986544 345.082657 
L 418.853446 349.802651 
L 420.720349 354.08942 
L 422.587252 357.954838 
L 424.454155 361.416878 
L 426.321057 364.49904 
L 428.18796 367.229021 
L 430.054863 369.63701 
L 431.921765 371.753972 
L 433.788668 373.610173 
L 435.655571 375.234107 
L 437.522474 376.651844 
L 439.389376 377.886757 
L 441.256279 378.959538 
L 443.123182 379.888396 
L 446.856987 381.376502 
L 450.590792 382.45845 
L 454.324598 383.220672 
L 458.058403 383.735573 
L 463.659111 384.178269 
L 469.259819 384.375427 
L 478.594333 384.46791 
L 478.594333 384.46791 
" clip-path="url(#p70565355c5)" style="fill: none; stroke: #8c564b; stroke-width: 1.5; stroke-linecap: round"/>
   </g>
   <g id="line2d_23">
    <path d="M 107.085107 384.470222 
L 119.925021 384.323438 
L 127.262116 383.98193 
L 132.764936 383.502367 
L 140.102031 382.595873 
L 149.273398 381.465514 
L 154.776219 381.04048 
L 162.113313 380.764349 
L 169.450407 380.467522 
L 174.953228 380.001922 
L 180.456049 379.288626 
L 185.958869 378.382288 
L 191.46169 377.276218 
L 195.130237 376.362944 
L 198.798784 375.254141 
L 202.467332 373.940481 
L 207.970152 371.692297 
L 218.975794 366.862447 
L 222.644341 365.065607 
L 228.147161 362.043527 
L 233.649982 358.986396 
L 235.484256 358.102005 
L 237.318529 357.34253 
L 239.152803 356.735918 
L 240.987076 356.301284 
L 242.82135 356.047027 
L 244.655623 355.97024 
L 246.489897 356.057403 
L 248.32417 356.286199 
L 251.992718 357.05158 
L 262.998359 359.827697 
L 277.672547 362.862588 
L 290.512462 366.123328 
L 294.181009 366.728172 
L 297.849556 367.026783 
L 299.68383 367.03066 
L 301.518104 366.915431 
L 303.352377 366.659834 
L 305.186651 366.239005 
L 307.020924 365.625038 
L 308.855198 364.787628 
L 310.689471 363.694444 
L 312.523745 362.310875 
L 314.358018 360.598889 
L 316.192292 358.514947 
L 318.026566 356.007125 
L 319.860839 353.011871 
L 321.695113 349.451019 
L 323.529386 345.229871 
L 325.36366 340.237144 
L 327.197933 334.347545 
L 329.032207 327.427499 
L 330.866481 319.344205 
L 332.700754 309.977766 
L 334.535028 299.235671 
L 336.369301 287.068379 
L 338.203575 273.484411 
L 340.037848 258.563078 
L 343.706395 225.424535 
L 351.04349 155.122482 
L 352.877763 139.178061 
L 354.712037 124.762002 
L 356.54631 112.245007 
L 358.380584 101.925121 
L 360.214857 94.015124 
L 362.049131 88.637298 
L 363.883405 85.825277 
L 365.717678 85.531749 
L 367.551952 87.640214 
L 369.386225 91.978745 
L 371.220499 98.333895 
L 373.054772 106.463363 
L 374.889046 116.106689 
L 376.723319 126.993906 
L 380.391867 151.414076 
L 389.563234 216.393076 
L 393.231781 240.068146 
L 396.900329 261.361986 
L 400.568876 280.32972 
L 404.237423 297.314715 
L 407.90597 312.664698 
L 411.574517 326.538183 
L 413.408791 332.90839 
L 415.243064 338.874304 
L 417.077338 344.412249 
L 418.911611 349.501794 
L 420.745885 354.129956 
L 422.580158 358.293932 
L 424.414432 362.002189 
L 426.248705 365.273958 
L 428.082979 368.137487 
L 429.917253 370.627455 
L 431.751526 372.782084 
L 433.5858 374.640357 
L 435.420073 376.239701 
L 437.254347 377.614338 
L 439.08862 378.79435 
L 440.922894 379.805414 
L 442.757167 380.669062 
L 446.425715 382.02325 
L 450.094262 382.971733 
L 453.762809 383.605743 
L 457.431356 384.004866 
L 462.934177 384.313221 
L 470.271271 384.448342 
L 472.105544 384.460115 
L 472.105544 384.460115 
" clip-path="url(#p70565355c5)" style="fill: none; stroke: #e377c2; stroke-width: 1.5; stroke-linecap: round"/>
   </g>
   <g id="line2d_24">
    <path d="M 104.335557 384.470504 
L 117.225497 384.329517 
L 124.591177 384.003011 
L 130.115437 383.544624 
L 137.481118 382.674708 
L 146.688218 381.580056 
L 152.212478 381.171689 
L 159.578158 380.938664 
L 166.943838 380.703691 
L 172.468098 380.248733 
L 177.992358 379.486868 
L 185.358038 378.167047 
L 192.723718 376.636454 
L 196.406558 375.716574 
L 200.089398 374.627946 
L 203.772238 373.350624 
L 209.296498 371.113106 
L 214.820758 368.54762 
L 218.503598 366.643441 
L 224.027858 363.463582 
L 231.393538 359.013551 
L 235.076379 357.134812 
L 236.917799 356.390777 
L 238.759219 355.811649 
L 240.600639 355.414494 
L 242.442059 355.207106 
L 244.283479 355.187237 
L 246.124899 355.34276 
L 247.966319 355.652742 
L 251.649159 356.619951 
L 262.697679 360.0696 
L 266.380519 360.911164 
L 277.429039 363.153111 
L 282.953299 364.592601 
L 288.477559 366.054846 
L 292.160399 366.815294 
L 295.843239 367.2292 
L 297.684659 367.258694 
L 299.526079 367.143692 
L 301.367499 366.863833 
L 303.208919 366.398343 
L 305.050339 365.726303 
L 306.891759 364.82679 
L 308.733179 363.678608 
L 310.574599 362.259322 
L 312.416019 360.543384 
L 314.257439 358.499327 
L 316.098859 356.086201 
L 317.940279 353.249705 
L 319.781699 349.918657 
L 321.623119 346.002619 
L 323.464539 341.391512 
L 325.305959 335.957986 
L 327.147379 329.563059 
L 328.988799 322.065202 
L 330.830219 313.332574 
L 332.671639 303.257657 
L 334.513059 291.773038 
L 336.35448 278.866765 
L 338.1959 264.595439 
L 340.03732 249.093273 
L 343.72016 215.335557 
L 349.24442 163.12754 
L 351.08584 147.010434 
L 352.92726 132.258429 
L 354.76868 119.251703 
L 356.6101 108.305221 
L 358.45152 99.654497 
L 360.29294 93.448108 
L 362.13436 89.74705 
L 363.97578 88.530201 
L 365.8172 89.704512 
L 367.65862 93.118162 
L 369.50004 98.574838 
L 371.34146 105.847528 
L 373.18288 114.690658 
L 375.0243 124.849958 
L 376.86572 136.069986 
L 380.54856 160.69676 
L 389.75566 224.791722 
L 393.4385 247.976944 
L 397.12134 268.750575 
L 400.80418 287.100268 
L 404.48702 303.308591 
L 408.16986 317.719463 
L 411.8527 330.554149 
L 413.69412 336.399151 
L 415.53554 341.854191 
L 417.37696 346.907941 
L 419.21838 351.550209 
L 421.0598 355.775646 
L 422.90122 359.586308 
L 424.74264 362.992829 
L 426.58406 366.014185 
L 428.42548 368.676314 
L 430.2669 371.009959 
L 432.10832 373.048206 
L 433.94974 374.824134 
L 435.79116 376.368906 
L 437.632581 377.710494 
L 439.474001 378.873085 
L 441.315421 379.877104 
L 443.156841 380.739671 
L 446.839681 382.096838 
L 450.522521 383.043404 
L 454.205361 383.667077 
L 457.888201 384.050792 
L 463.412461 384.336769 
L 470.778141 384.454825 
L 470.778141 384.454825 
" clip-path="url(#p70565355c5)" style="fill: none; stroke: #7f7f7f; stroke-width: 1.5; stroke-linecap: round"/>
   </g>
   <g id="line2d_25">
    <path d="M 102.562762 384.47021 
L 114.323332 384.355296 
L 122.163711 384.043391 
L 128.043996 383.585305 
L 135.884375 382.716956 
L 143.724755 381.860418 
L 149.605039 381.429869 
L 159.405514 381.048391 
L 167.245893 380.636369 
L 173.126178 380.075687 
L 179.006462 379.284668 
L 184.886747 378.299386 
L 190.767031 377.106106 
L 194.687221 376.148539 
L 198.607411 375.020274 
L 202.527601 373.69765 
L 206.44779 372.168727 
L 210.36798 370.421274 
L 214.28817 368.435585 
L 218.20836 366.20187 
L 224.088644 362.50401 
L 228.008834 360.038022 
L 231.929024 357.853684 
L 233.889119 356.944238 
L 235.849214 356.188213 
L 237.809308 355.599613 
L 239.769403 355.183669 
L 241.729498 354.937297 
L 243.689593 354.850489 
L 245.649688 354.908277 
L 249.569878 355.385671 
L 253.490067 356.225346 
L 257.410257 357.304813 
L 263.290542 359.18732 
L 273.091016 362.655786 
L 278.971301 364.733781 
L 282.89149 365.948131 
L 286.81168 366.868659 
L 288.771775 367.174951 
L 290.73187 367.357949 
L 292.691965 367.404733 
L 294.65206 367.304455 
L 296.612155 367.048046 
L 298.572249 366.627795 
L 300.532344 366.036876 
L 302.492439 365.268792 
L 304.452534 364.316594 
L 306.412629 363.171631 
L 308.372724 361.821573 
L 310.332819 360.247516 
L 312.292914 358.420156 
L 314.253008 356.295283 
L 316.213103 353.809133 
L 318.173198 350.87441 
L 320.133293 347.377963 
L 322.093388 343.181135 
L 324.053483 338.123656 
L 326.013578 332.031626 
L 327.973672 324.729635 
L 329.933767 316.056508 
L 331.893862 305.883531 
L 333.853957 294.13349 
L 335.814052 280.798472 
L 337.774147 265.9542 
L 339.734242 249.768862 
L 343.654431 214.511987 
L 349.534716 160.624779 
L 351.494811 144.327961 
L 353.454906 129.654402 
L 355.415001 117.0033 
L 357.375096 106.692214 
L 359.33519 98.94344 
L 361.295285 93.878343 
L 363.25538 91.519378 
L 365.215475 91.79873 
L 367.17557 94.571834 
L 369.135665 99.63378 
L 371.09576 106.736597 
L 373.055855 115.605736 
L 375.015949 125.954493 
L 376.976044 137.495726 
L 380.896234 163.055307 
L 390.696708 230.538632 
L 394.616898 255.329321 
L 396.576993 266.824522 
L 398.537088 277.656124 
L 400.497183 287.804885 
L 402.457278 297.269785 
L 404.417372 306.063538 
L 406.377467 314.208038 
L 408.337562 321.730232 
L 410.297657 328.658844 
L 412.257752 335.022202 
L 414.217847 340.847188 
L 416.177942 346.159141 
L 418.138037 350.982395 
L 420.098131 355.341087 
L 422.058226 359.25991 
L 424.018321 362.764549 
L 425.978416 365.881724 
L 427.938511 368.638856 
L 429.898606 371.0635 
L 431.858701 373.18271 
L 433.818796 375.022522 
L 435.77889 376.607664 
L 437.738985 377.961535 
L 439.69908 379.106418 
L 441.659175 380.063813 
L 443.61927 380.854782 
L 445.579365 381.500159 
L 449.499554 382.436173 
L 453.419744 383.028825 
L 459.300029 383.557742 
L 467.140408 383.990362 
L 476.940883 384.323178 
L 488.701452 384.460932 
L 492.621642 384.472217 
L 492.621642 384.472217 
" clip-path="url(#p70565355c5)" style="fill: none; stroke: #bcbd22; stroke-width: 1.5; stroke-linecap: round"/>
   </g>
   <g id="line2d_26">
    <path d="M 102.303315 384.470716 
L 115.80955 384.327884 
L 123.527399 384.006924 
L 131.245248 383.402459 
L 148.610408 381.766614 
L 156.328257 381.32997 
L 167.90503 380.734263 
L 173.693417 380.208985 
L 179.481804 379.390704 
L 183.340728 378.656795 
L 189.129115 377.272833 
L 194.917502 375.587411 
L 200.705888 373.674946 
L 206.494275 371.567674 
L 210.3532 369.992158 
L 214.212124 368.181433 
L 218.071048 366.058265 
L 221.929973 363.622709 
L 229.647822 358.437586 
L 233.506746 356.238201 
L 235.436209 355.361935 
L 237.365671 354.668659 
L 239.295133 354.172962 
L 241.224595 353.880006 
L 243.154057 353.786046 
L 245.08352 353.879658 
L 247.012982 354.143415 
L 248.942444 354.555704 
L 252.801369 355.728562 
L 256.660293 357.199727 
L 266.307604 361.033585 
L 270.166529 362.3012 
L 274.025453 363.331957 
L 277.884378 364.138351 
L 281.743302 364.760286 
L 287.531689 365.418358 
L 291.390613 365.660713 
L 295.249538 365.665921 
L 299.108462 365.307466 
L 301.037924 364.942209 
L 302.967387 364.423867 
L 304.896849 363.72991 
L 306.826311 362.837287 
L 308.755773 361.721824 
L 310.685235 360.356875 
L 312.614698 358.711216 
L 314.54416 356.746268 
L 316.473622 354.412922 
L 318.403084 351.648403 
L 320.332547 348.373731 
L 322.262009 344.492454 
L 324.191471 339.89128 
L 326.120933 334.443164 
L 328.050396 328.013205 
L 329.979858 320.467408 
L 331.90932 311.684041 
L 333.838782 301.566909 
L 335.768244 290.059537 
L 337.697707 277.158953 
L 339.627169 262.927567 
L 341.556631 247.501654 
L 345.415556 213.997254 
L 351.203942 162.370267 
L 353.133405 146.505307 
L 355.062867 132.052667 
L 356.992329 119.412503 
L 358.921791 108.923568 
L 360.851253 100.84547 
L 362.780716 95.346775 
L 364.710178 92.499774 
L 366.63964 92.282039 
L 368.569102 94.584227 
L 370.498565 99.223036 
L 372.428027 105.957763 
L 374.357489 114.50874 
L 376.286951 124.575838 
L 378.216414 135.855477 
L 382.075338 160.902728 
L 393.652111 240.1825 
L 397.511036 264.233671 
L 401.36996 286.072543 
L 403.299423 296.063473 
L 405.228885 305.400901 
L 407.158347 314.069109 
L 409.087809 322.060214 
L 411.017271 329.374174 
L 412.946734 336.018894 
L 414.876196 342.010306 
L 416.805658 347.372263 
L 418.73512 352.136142 
L 420.664583 356.340034 
L 422.594045 360.027505 
L 424.523507 363.245985 
L 426.452969 366.044886 
L 428.382431 368.473658 
L 430.311894 370.579958 
L 432.241356 372.408127 
L 434.170818 373.998106 
L 436.10028 375.384838 
L 438.029743 376.598133 
L 439.959205 377.66293 
L 443.818129 379.425653 
L 447.677054 380.797132 
L 451.535978 381.861759 
L 455.394903 382.678734 
L 459.253827 383.291562 
L 465.042214 383.902905 
L 470.830601 384.237225 
L 478.548449 384.421059 
L 486.266298 384.469707 
L 486.266298 384.469707 
" clip-path="url(#p70565355c5)" style="fill: none; stroke: #17becf; stroke-width: 1.5; stroke-linecap: round"/>
   </g>
   <g id="line2d_27">
    <path d="M 97.696029 384.471028 
L 111.348594 384.330716 
L 119.15006 384.016933 
L 126.951526 383.435432 
L 142.554458 382.085667 
L 150.355924 381.723873 
L 169.85959 381.109776 
L 173.760323 380.771898 
L 177.661056 380.275844 
L 181.561789 379.610366 
L 187.412888 378.334038 
L 195.214354 376.295712 
L 201.065454 374.570406 
L 204.966187 373.252158 
L 208.86692 371.698559 
L 212.767653 369.815727 
L 216.668386 367.545366 
L 220.569119 364.906692 
L 230.320951 357.77572 
L 232.271318 356.532991 
L 234.221684 355.443426 
L 236.172051 354.542393 
L 238.122417 353.859231 
L 240.072784 353.415423 
L 242.02315 353.223201 
L 243.973517 353.284668 
L 245.923883 353.591485 
L 247.87425 354.12512 
L 249.824616 354.857649 
L 253.725349 356.768925 
L 261.526815 361.088949 
L 263.477182 362.005002 
L 265.427548 362.781315 
L 267.377915 363.395185 
L 269.328281 363.834446 
L 271.278648 364.098 
L 273.229014 364.195588 
L 275.179381 364.146774 
L 279.080114 363.725926 
L 286.88158 362.547291 
L 290.782313 362.215814 
L 294.683046 362.124823 
L 300.534146 362.104597 
L 302.484512 361.996819 
L 304.434879 361.769823 
L 306.385245 361.376769 
L 308.335612 360.766659 
L 310.285978 359.883375 
L 312.236345 358.664465 
L 314.186711 357.039958 
L 316.137078 354.931463 
L 318.087444 352.251828 
L 320.037811 348.905568 
L 321.988177 344.790282 
L 323.938544 339.799233 
L 325.88891 333.825286 
L 327.839277 326.766325 
L 329.789643 318.532199 
L 331.74001 309.053104 
L 333.690376 298.289059 
L 335.640743 286.239863 
L 337.591109 272.954635 
L 339.541476 258.539808 
L 343.442209 227.060743 
L 349.293308 177.549797 
L 351.243675 161.89734 
L 353.194041 147.331605 
L 355.144408 134.226799 
L 357.094774 122.913276 
L 359.045141 113.660562 
L 360.995507 106.665229 
L 362.945874 102.044543 
L 364.89624 99.836056 
L 366.846607 100.002621 
L 368.796973 102.441681 
L 370.74734 106.997356 
L 372.697706 113.473693 
L 374.648073 121.647629 
L 376.598439 131.280528 
L 378.548806 142.127649 
L 380.499172 153.945358 
L 384.399905 179.553186 
L 392.201372 232.786686 
L 396.102105 257.678818 
L 398.052471 269.263801 
L 400.002838 280.174597 
L 401.953204 290.365508 
L 403.903571 299.812235 
L 405.853937 308.509282 
L 407.804304 316.466975 
L 409.75467 323.708424 
L 411.705037 330.266643 
L 413.655403 336.181984 
L 415.60577 341.499887 
L 417.556136 346.268939 
L 419.506503 350.539145 
L 421.456869 354.360365 
L 423.407236 357.78089 
L 425.357602 360.846186 
L 427.307969 363.597852 
L 429.258335 366.072874 
L 431.208702 368.30321 
L 433.159068 370.315745 
L 435.109435 372.132582 
L 437.059801 373.771609 
L 439.010168 375.247252 
L 440.960534 376.571314 
L 442.910901 377.753796 
L 446.811634 379.729205 
L 450.712367 381.241037 
L 454.6131 382.35765 
L 458.513833 383.149608 
L 462.414566 383.686372 
L 466.315299 384.032069 
L 472.166398 384.311049 
L 481.918231 384.456774 
L 485.818964 384.470865 
L 485.818964 384.470865 
" clip-path="url(#p70565355c5)" style="fill: none; stroke: #1f77b4; stroke-width: 1.5; stroke-linecap: round"/>
   </g>
   <g id="line2d_28">
    <path d="M 93.93629 384.471254 
L 107.239455 384.343953 
L 114.841264 384.064509 
L 122.443072 383.541848 
L 141.447594 382.009493 
L 149.049403 381.749364 
L 169.954376 381.338024 
L 173.755281 380.923596 
L 177.556185 380.277066 
L 181.357089 379.398386 
L 187.058446 377.751103 
L 200.361611 373.451309 
L 206.062968 371.376653 
L 209.863872 369.709755 
L 213.664776 367.716228 
L 217.465681 365.375027 
L 221.266585 362.753201 
L 228.868393 357.41291 
L 230.768846 356.254225 
L 232.669298 355.240452 
L 234.56975 354.405192 
L 236.470202 353.776174 
L 238.370654 353.373064 
L 240.271106 353.20575 
L 242.171559 353.273297 
L 244.072011 353.563716 
L 245.972463 354.054607 
L 247.872915 354.714604 
L 251.673819 356.384805 
L 257.375176 359.122415 
L 261.17608 360.661625 
L 263.076532 361.268353 
L 264.976985 361.750521 
L 266.877437 362.105986 
L 270.678341 362.462125 
L 274.479245 362.438667 
L 280.180602 362.033942 
L 285.881958 361.65457 
L 289.682863 361.5826 
L 299.185123 361.711388 
L 301.085576 361.598387 
L 302.986028 361.350228 
L 304.88648 360.917682 
L 306.786932 360.24622 
L 308.687384 359.275832 
L 310.587836 357.940721 
L 312.488289 356.169033 
L 314.388741 353.88282 
L 316.289193 350.998407 
L 318.189645 347.427347 
L 320.090097 343.078084 
L 321.990549 337.858418 
L 323.891002 331.678826 
L 325.791454 324.456671 
L 327.691906 316.121316 
L 329.592358 306.620113 
L 331.49281 295.925162 
L 333.393262 284.040612 
L 335.293715 271.010098 
L 337.194167 256.923691 
L 340.995071 226.207239 
L 348.59688 161.960908 
L 350.497332 147.336507 
L 352.397784 134.051474 
L 354.298236 122.459553 
L 356.198688 112.865401 
L 358.09914 105.507099 
L 359.999593 100.543316 
L 361.900045 98.046358 
L 363.800497 98.001668 
L 365.700949 100.313583 
L 367.601401 104.816448 
L 369.501853 111.28965 
L 371.402306 119.474811 
L 373.302758 129.093302 
L 375.20321 139.862432 
L 379.004114 163.779397 
L 390.406827 239.721179 
L 394.207732 262.80098 
L 398.008636 283.710173 
L 399.909088 293.246165 
L 401.80954 302.137448 
L 403.709992 310.374289 
L 405.610444 317.95807 
L 407.510897 324.90045 
L 409.411349 331.22218 
L 411.311801 336.951683 
L 413.212253 342.123532 
L 415.112705 346.776931 
L 417.013157 350.954259 
L 418.91361 354.699679 
L 420.814062 358.057793 
L 422.714514 361.072309 
L 424.614966 363.784735 
L 426.515418 366.233132 
L 428.41587 368.45104 
L 430.316323 370.466685 
L 432.216775 372.302579 
L 434.117227 373.975591 
L 436.017679 375.497503 
L 437.918131 376.875974 
L 439.818583 378.115788 
L 441.719036 379.220218 
L 443.619488 380.192318 
L 445.51994 381.035983 
L 449.320844 382.361762 
L 453.121749 383.263648 
L 456.922653 383.830905 
L 460.723557 384.15922 
L 466.424914 384.384035 
L 472.12627 384.456138 
L 472.12627 384.456138 
" clip-path="url(#p70565355c5)" style="fill: none; stroke: #ff7f0e; stroke-width: 1.5; stroke-linecap: round"/>
   </g>
   <g id="line2d_29">
    <path d="M 92.290909 384.471116 
L 104.526633 384.365185 
L 112.683783 384.084804 
L 120.840932 383.51835 
L 139.194518 381.997377 
L 145.31238 381.802388 
L 153.469529 381.803203 
L 163.665966 381.824454 
L 167.744541 381.675708 
L 171.823116 381.344594 
L 175.90169 380.784603 
L 179.980265 379.988185 
L 186.098127 378.446559 
L 194.255276 376.087739 
L 200.373138 374.169558 
L 204.451713 372.706291 
L 208.530288 370.976847 
L 212.608862 368.900734 
L 216.687437 366.462528 
L 222.805299 362.331592 
L 226.883874 359.559451 
L 230.962449 357.086543 
L 233.001736 356.04416 
L 235.041023 355.165898 
L 237.080311 354.469222 
L 239.119598 353.96368 
L 241.158885 353.650947 
L 243.198173 353.525588 
L 245.23746 353.576362 
L 247.276747 353.787818 
L 249.316035 354.141867 
L 253.394609 355.199448 
L 257.473184 356.588392 
L 267.669621 360.361848 
L 271.748196 361.506849 
L 275.82677 362.244497 
L 279.905345 362.586084 
L 286.023207 362.66659 
L 292.141069 362.754907 
L 298.258931 362.951617 
L 300.298218 362.921839 
L 302.337506 362.760766 
L 304.376793 362.403098 
L 306.41608 361.775751 
L 308.455368 360.79917 
L 310.494655 359.3881 
L 312.533942 357.45179 
L 314.57323 354.893795 
L 316.612517 351.611711 
L 318.651804 347.497392 
L 320.691092 342.438225 
L 322.730379 336.320081 
L 324.769667 329.032408 
L 326.808954 320.47571 
L 328.848241 310.57132 
L 330.887529 299.273014 
L 332.926816 286.579573 
L 334.966103 272.547062 
L 337.005391 257.299291 
L 341.083965 224.028972 
L 347.201827 172.329292 
L 349.241115 156.352765 
L 351.280402 141.779648 
L 353.319689 129.036609 
L 355.358977 118.486061 
L 357.398264 110.403706 
L 359.437551 104.963292 
L 361.476839 102.230186 
L 363.516126 102.164193 
L 365.555413 104.630819 
L 367.594701 109.41909 
L 369.633988 116.263296 
L 371.673275 124.865777 
L 373.712563 134.918052 
L 375.75185 146.118244 
L 379.830425 170.858121 
L 392.066149 248.87214 
L 396.144724 272.337602 
L 398.184011 283.170886 
L 400.223298 293.328201 
L 402.262586 302.770721 
L 404.301873 311.474816 
L 406.34116 319.432231 
L 408.380448 326.649902 
L 410.419735 333.149265 
L 412.459022 338.964932 
L 414.49831 344.142668 
L 416.537597 348.736705 
L 418.576884 352.80656 
L 420.616172 356.41361 
L 422.655459 359.617779 
L 424.694746 362.474662 
L 426.734034 365.033379 
L 428.773321 367.335309 
L 430.812608 369.413727 
L 432.851896 371.294234 
L 434.891183 372.99578 
L 436.930471 374.532042 
L 438.969758 375.91293 
L 441.009045 377.146047 
L 443.048333 378.237972 
L 445.08762 379.1953 
L 449.166195 380.7369 
L 453.244769 381.845536 
L 457.323344 382.614941 
L 461.401919 383.14471 
L 467.519781 383.671604 
L 475.67693 384.112488 
L 485.873367 384.389144 
L 498.109091 384.472274 
L 498.109091 384.472274 
" clip-path="url(#p70565355c5)" style="fill: none; stroke: #2ca02c; stroke-width: 1.5; stroke-linecap: round"/>
   </g>
   <g id="line2d_30">
    <path d="M 93.173016 384.471589 
L 107.259741 384.333837 
L 115.309298 384.022543 
L 123.358855 383.442515 
L 139.45797 382.119081 
L 145.495138 381.905469 
L 153.544695 381.897623 
L 163.606642 381.931233 
L 169.64381 381.71205 
L 173.668589 381.375285 
L 177.693367 380.846523 
L 181.718146 380.116219 
L 185.742925 379.203647 
L 191.780092 377.577396 
L 197.81726 375.715834 
L 201.842039 374.313326 
L 205.866818 372.709823 
L 209.891596 370.832131 
L 213.916375 368.629911 
L 217.941154 366.104378 
L 223.978322 361.890658 
L 230.01549 357.682006 
L 234.040268 355.247761 
L 236.052658 354.221721 
L 238.065047 353.35164 
L 240.077436 352.654263 
L 242.089826 352.142817 
L 244.102215 351.827488 
L 246.114604 351.715836 
L 248.126994 351.812818 
L 250.139383 352.120242 
L 252.151772 352.635565 
L 254.164162 353.350233 
L 256.176551 354.247867 
L 260.20133 356.479433 
L 268.250887 361.414714 
L 270.263276 362.43508 
L 272.275665 363.277668 
L 274.288055 363.91694 
L 276.300444 364.34417 
L 278.312833 364.567985 
L 280.325223 364.612826 
L 284.350001 364.320284 
L 292.399559 363.395636 
L 298.436727 363.078568 
L 302.461505 362.797768 
L 304.473895 362.49002 
L 306.486284 361.984842 
L 308.498673 361.210274 
L 310.511063 360.089605 
L 312.523452 358.541798 
L 314.535841 356.481414 
L 316.548231 353.818183 
L 318.56062 350.456475 
L 320.573009 346.295086 
L 322.585399 341.227838 
L 324.597788 335.145637 
L 326.610177 327.940587 
L 328.622567 319.512649 
L 330.634956 309.779014 
L 332.647345 298.685902 
L 334.659735 286.22194 
L 336.672124 272.431714 
L 338.684513 257.427663 
L 342.709292 224.610403 
L 348.74646 173.394788 
L 350.758849 157.496222 
L 352.771238 142.939319 
L 354.783628 130.133829 
L 356.796017 119.423677 
L 358.808406 111.06742 
L 360.820796 105.226752 
L 362.833185 101.963916 
L 364.845574 101.247618 
L 366.857964 102.965859 
L 368.870353 106.943316 
L 370.882742 112.960504 
L 372.895132 120.77213 
L 374.907521 130.122589 
L 376.91991 140.757419 
L 378.9323 152.430436 
L 382.957078 177.96531 
L 393.019025 245.022658 
L 397.043804 269.532844 
L 399.056193 280.791637 
L 401.068582 291.294854 
L 403.080972 301.008901 
L 405.093361 309.926052 
L 407.10575 318.060682 
L 409.11814 325.44425 
L 411.130529 332.119706 
L 413.142918 338.136017 
L 415.155307 343.54346 
L 417.167697 348.390152 
L 419.180086 352.720055 
L 421.192475 356.572436 
L 423.204865 359.982528 
L 425.217254 362.982972 
L 427.229643 365.605535 
L 429.242033 367.882639 
L 431.254422 369.848316 
L 433.266811 371.53841 
L 435.279201 372.989996 
L 437.29159 374.240192 
L 439.303979 375.324622 
L 443.328758 377.12218 
L 447.353537 378.58695 
L 451.378315 379.840505 
L 457.415483 381.424385 
L 461.440262 382.288169 
L 465.465041 382.98923 
L 469.489819 383.52638 
L 475.526987 384.052308 
L 481.564155 384.319445 
L 491.626102 384.459804 
L 493.638491 384.467559 
L 493.638491 384.467559 
" clip-path="url(#p70565355c5)" style="fill: none; stroke: #d62728; stroke-width: 1.5; stroke-linecap: round"/>
   </g>
   <g id="line2d_31">
    <path d="M 92.302386 384.471867 
L 106.013447 384.349372 
L 113.848339 384.07884 
L 121.683232 383.564439 
L 143.229185 381.819488 
L 149.105355 381.669863 
L 156.940247 381.729039 
L 166.733862 381.826092 
L 170.651308 381.697195 
L 174.568755 381.372265 
L 178.486201 380.79867 
L 182.403647 379.959222 
L 186.321093 378.882514 
L 192.197262 376.97029 
L 200.032154 374.183075 
L 205.908324 371.86111 
L 209.82577 370.022945 
L 213.743216 367.821924 
L 217.660662 365.209699 
L 221.578108 362.236787 
L 231.371723 354.420265 
L 233.330447 353.049585 
L 235.28917 351.826784 
L 237.247893 350.7875 
L 239.206616 349.965724 
L 241.165339 349.392522 
L 243.124062 349.094366 
L 245.082785 349.091087 
L 247.041508 349.393644 
L 249.000231 350.001981 
L 250.958954 350.903337 
L 252.917677 352.071348 
L 254.8764 353.466225 
L 258.793846 356.71978 
L 264.670016 361.777504 
L 266.628739 363.249986 
L 268.587462 364.527274 
L 270.546185 365.574845 
L 272.504908 366.373241 
L 274.463631 366.918342 
L 276.422354 367.220388 
L 278.381077 367.301919 
L 280.3398 367.194853 
L 284.257246 366.568444 
L 290.133416 365.158124 
L 301.885754 362.131033 
L 303.844477 361.401245 
L 305.8032 360.481926 
L 307.761923 359.304931 
L 309.720646 357.794365 
L 311.679369 355.867457 
L 313.638092 353.435466 
L 315.596815 350.404681 
L 317.555538 346.677622 
L 319.514262 342.154654 
L 321.472985 336.736255 
L 323.431708 330.326279 
L 325.390431 322.836517 
L 327.349154 314.192783 
L 329.307877 304.342549 
L 331.2666 293.263845 
L 333.225323 280.974795 
L 335.184046 267.54274 
L 337.142769 253.091659 
L 341.060215 221.932724 
L 346.936384 173.993555 
L 348.895108 159.131305 
L 350.853831 145.4486 
L 352.812554 133.279728 
L 354.771277 122.907708 
L 356.73 114.551746 
L 358.688723 108.360698 
L 360.647446 104.412637 
L 362.606169 102.719668 
L 364.564892 103.236456 
L 366.523615 105.870552 
L 368.482338 110.492719 
L 370.441061 116.94588 
L 372.399784 125.051953 
L 374.358507 134.616582 
L 376.31723 145.432339 
L 378.275954 157.281283 
L 382.1934 183.172662 
L 391.987015 250.437695 
L 395.904461 274.572525 
L 397.863184 285.580382 
L 399.821907 295.811114 
L 401.78063 305.241501 
L 403.739353 313.867622 
L 405.698076 321.701116 
L 407.6568 328.765945 
L 409.615523 335.095822 
L 411.574246 340.73224 
L 413.532969 345.722913 
L 415.491692 350.120405 
L 417.450415 353.980724 
L 419.409138 357.361769 
L 421.367861 360.321645 
L 423.326584 362.916913 
L 425.285307 365.20095 
L 427.24403 367.222571 
L 429.202753 369.025029 
L 431.161476 370.645447 
L 435.078922 373.457436 
L 438.996369 375.834997 
L 442.913815 377.874493 
L 446.831261 379.614361 
L 450.748707 381.059668 
L 454.666153 382.206654 
L 458.583599 383.062802 
L 462.501045 383.656894 
L 466.418492 384.036989 
L 472.294661 384.329684 
L 480.129553 384.45359 
L 482.088276 384.463815 
L 482.088276 384.463815 
" clip-path="url(#p70565355c5)" style="fill: none; stroke: #9467bd; stroke-width: 1.5; stroke-linecap: round"/>
   </g>
   <g id="patch_3">
    <path d="M 72 384.48 
L 72 51.84 
" style="fill: none; stroke: #ffffff; stroke-width: 0.8; stroke-linejoin: miter; stroke-linecap: square"/>
   </g>
   <g id="patch_4">
    <path d="M 518.4 384.48 
L 518.4 51.84 
" style="fill: none; stroke: #ffffff; stroke-width: 0.8; stroke-linejoin: miter; stroke-linecap: square"/>
   </g>
   <g id="patch_5">
    <path d="M 72 384.48 
L 518.4 384.48 
" style="fill: none; stroke: #ffffff; stroke-width: 0.8; stroke-linejoin: miter; stroke-linecap: square"/>
   </g>
   <g id="patch_6">
    <path d="M 72 51.84 
L 518.4 51.84 
" style="fill: none; stroke: #ffffff; stroke-width: 0.8; stroke-linejoin: miter; stroke-linecap: square"/>
   </g>
   <g id="legend_1">
    <g id="patch_7">
     <path d="M 447.717187 274.13375 
L 511.4 274.13375 
Q 513.4 274.13375 513.4 272.13375 
L 513.4 58.84 
Q 513.4 56.84 511.4 56.84 
L 447.717187 56.84 
Q 445.717187 56.84 445.717187 58.84 
L 445.717187 272.13375 
Q 445.717187 274.13375 447.717187 274.13375 
z
" style="fill: #eaeaf2; opacity: 0.8; stroke: #cccccc; stroke-linejoin: miter"/>
    </g>
    <g id="line2d_32">
     <path d="M 449.717187 64.5275 
L 459.717187 64.5275 
L 469.717187 64.5275 
" style="fill: none; stroke: #1f77b4; stroke-width: 1.5; stroke-linecap: round"/>
    </g>
    <g id="text_19">
     <!-- Day 1 -->
     <g style="fill: #262626" transform="translate(477.717187 68.0275) scale(0.1 -0.1)">
      <use xlink:href="#ArialMT-44"/>
      <use xlink:href="#ArialMT-61" x="72.216797"/>
      <use xlink:href="#ArialMT-79" x="127.832031"/>
      <use xlink:href="#ArialMT-20" x="177.832031"/>
      <use xlink:href="#ArialMT-31" x="205.615234"/>
     </g>
    </g>
    <g id="line2d_33">
     <path d="M 449.717187 78.819687 
L 459.717187 78.819687 
L 469.717187 78.819687 
" style="fill: none; stroke: #ff7f0e; stroke-width: 1.5; stroke-linecap: round"/>
    </g>
    <g id="text_20">
     <!-- Day 2 -->
     <g style="fill: #262626" transform="translate(477.717187 82.319687) scale(0.1 -0.1)">
      <use xlink:href="#ArialMT-44"/>
      <use xlink:href="#ArialMT-61" x="72.216797"/>
      <use xlink:href="#ArialMT-79" x="127.832031"/>
      <use xlink:href="#ArialMT-20" x="177.832031"/>
      <use xlink:href="#ArialMT-32" x="205.615234"/>
     </g>
    </g>
    <g id="line2d_34">
     <path d="M 449.717187 93.111875 
L 459.717187 93.111875 
L 469.717187 93.111875 
" style="fill: none; stroke: #2ca02c; stroke-width: 1.5; stroke-linecap: round"/>
    </g>
    <g id="text_21">
     <!-- Day 3 -->
     <g style="fill: #262626" transform="translate(477.717187 96.611875) scale(0.1 -0.1)">
      <use xlink:href="#ArialMT-44"/>
      <use xlink:href="#ArialMT-61" x="72.216797"/>
      <use xlink:href="#ArialMT-79" x="127.832031"/>
      <use xlink:href="#ArialMT-20" x="177.832031"/>
      <use xlink:href="#ArialMT-33" x="205.615234"/>
     </g>
    </g>
    <g id="line2d_35">
     <path d="M 449.717187 107.374375 
L 459.717187 107.374375 
L 469.717187 107.374375 
" style="fill: none; stroke: #d62728; stroke-width: 1.5; stroke-linecap: round"/>
    </g>
    <g id="text_22">
     <!-- Day 4 -->
     <g style="fill: #262626" transform="translate(477.717187 110.874375) scale(0.1 -0.1)">
      <use xlink:href="#ArialMT-44"/>
      <use xlink:href="#ArialMT-61" x="72.216797"/>
      <use xlink:href="#ArialMT-79" x="127.832031"/>
      <use xlink:href="#ArialMT-20" x="177.832031"/>
      <use xlink:href="#ArialMT-34" x="205.615234"/>
     </g>
    </g>
    <g id="line2d_36">
     <path d="M 449.717187 121.636875 
L 459.717187 121.636875 
L 469.717187 121.636875 
" style="fill: none; stroke: #9467bd; stroke-width: 1.5; stroke-linecap: round"/>
    </g>
    <g id="text_23">
     <!-- Day 5 -->
     <g style="fill: #262626" transform="translate(477.717187 125.136875) scale(0.1 -0.1)">
      <use xlink:href="#ArialMT-44"/>
      <use xlink:href="#ArialMT-61" x="72.216797"/>
      <use xlink:href="#ArialMT-79" x="127.832031"/>
      <use xlink:href="#ArialMT-20" x="177.832031"/>
      <use xlink:href="#ArialMT-35" x="205.615234"/>
     </g>
    </g>
    <g id="line2d_37">
     <path d="M 449.717187 135.929062 
L 459.717187 135.929062 
L 469.717187 135.929062 
" style="fill: none; stroke: #8c564b; stroke-width: 1.5; stroke-linecap: round"/>
    </g>
    <g id="text_24">
     <!-- Day 6 -->
     <g style="fill: #262626" transform="translate(477.717187 139.429062) scale(0.1 -0.1)">
      <defs>
       <path id="ArialMT-36" d="M 3184 3459 
L 2625 3416 
Q 2550 3747 2413 3897 
Q 2184 4138 1850 4138 
Q 1581 4138 1378 3988 
Q 1113 3794 959 3422 
Q 806 3050 800 2363 
Q 1003 2672 1297 2822 
Q 1591 2972 1913 2972 
Q 2475 2972 2870 2558 
Q 3266 2144 3266 1488 
Q 3266 1056 3080 686 
Q 2894 316 2569 119 
Q 2244 -78 1831 -78 
Q 1128 -78 684 439 
Q 241 956 241 2144 
Q 241 3472 731 4075 
Q 1159 4600 1884 4600 
Q 2425 4600 2770 4297 
Q 3116 3994 3184 3459 
z
M 888 1484 
Q 888 1194 1011 928 
Q 1134 663 1356 523 
Q 1578 384 1822 384 
Q 2178 384 2434 671 
Q 2691 959 2691 1453 
Q 2691 1928 2437 2201 
Q 2184 2475 1800 2475 
Q 1419 2475 1153 2201 
Q 888 1928 888 1484 
z
" transform="scale(0.015625)"/>
      </defs>
      <use xlink:href="#ArialMT-44"/>
      <use xlink:href="#ArialMT-61" x="72.216797"/>
      <use xlink:href="#ArialMT-79" x="127.832031"/>
      <use xlink:href="#ArialMT-20" x="177.832031"/>
      <use xlink:href="#ArialMT-36" x="205.615234"/>
     </g>
    </g>
    <g id="line2d_38">
     <path d="M 449.717187 150.191562 
L 459.717187 150.191562 
L 469.717187 150.191562 
" style="fill: none; stroke: #e377c2; stroke-width: 1.5; stroke-linecap: round"/>
    </g>
    <g id="text_25">
     <!-- Day 7 -->
     <g style="fill: #262626" transform="translate(477.717187 153.691562) scale(0.1 -0.1)">
      <use xlink:href="#ArialMT-44"/>
      <use xlink:href="#ArialMT-61" x="72.216797"/>
      <use xlink:href="#ArialMT-79" x="127.832031"/>
      <use xlink:href="#ArialMT-20" x="177.832031"/>
      <use xlink:href="#ArialMT-37" x="205.615234"/>
     </g>
    </g>
    <g id="line2d_39">
     <path d="M 449.717187 164.48375 
L 459.717187 164.48375 
L 469.717187 164.48375 
" style="fill: none; stroke: #7f7f7f; stroke-width: 1.5; stroke-linecap: round"/>
    </g>
    <g id="text_26">
     <!-- Day 8 -->
     <g style="fill: #262626" transform="translate(477.717187 167.98375) scale(0.1 -0.1)">
      <defs>
       <path id="ArialMT-38" d="M 1131 2484 
Q 781 2613 612 2850 
Q 444 3088 444 3419 
Q 444 3919 803 4259 
Q 1163 4600 1759 4600 
Q 2359 4600 2725 4251 
Q 3091 3903 3091 3403 
Q 3091 3084 2923 2848 
Q 2756 2613 2416 2484 
Q 2838 2347 3058 2040 
Q 3278 1734 3278 1309 
Q 3278 722 2862 322 
Q 2447 -78 1769 -78 
Q 1091 -78 675 323 
Q 259 725 259 1325 
Q 259 1772 486 2073 
Q 713 2375 1131 2484 
z
M 1019 3438 
Q 1019 3113 1228 2906 
Q 1438 2700 1772 2700 
Q 2097 2700 2305 2904 
Q 2513 3109 2513 3406 
Q 2513 3716 2298 3927 
Q 2084 4138 1766 4138 
Q 1444 4138 1231 3931 
Q 1019 3725 1019 3438 
z
M 838 1322 
Q 838 1081 952 856 
Q 1066 631 1291 507 
Q 1516 384 1775 384 
Q 2178 384 2440 643 
Q 2703 903 2703 1303 
Q 2703 1709 2433 1975 
Q 2163 2241 1756 2241 
Q 1359 2241 1098 1978 
Q 838 1716 838 1322 
z
" transform="scale(0.015625)"/>
      </defs>
      <use xlink:href="#ArialMT-44"/>
      <use xlink:href="#ArialMT-61" x="72.216797"/>
      <use xlink:href="#ArialMT-79" x="127.832031"/>
      <use xlink:href="#ArialMT-20" x="177.832031"/>
      <use xlink:href="#ArialMT-38" x="205.615234"/>
     </g>
    </g>
    <g id="line2d_40">
     <path d="M 449.717187 178.775937 
L 459.717187 178.775937 
L 469.717187 178.775937 
" style="fill: none; stroke: #bcbd22; stroke-width: 1.5; stroke-linecap: round"/>
    </g>
    <g id="text_27">
     <!-- Day 9 -->
     <g style="fill: #262626" transform="translate(477.717187 182.275937) scale(0.1 -0.1)">
      <defs>
       <path id="ArialMT-39" d="M 350 1059 
L 891 1109 
Q 959 728 1153 556 
Q 1347 384 1650 384 
Q 1909 384 2104 503 
Q 2300 622 2425 820 
Q 2550 1019 2634 1356 
Q 2719 1694 2719 2044 
Q 2719 2081 2716 2156 
Q 2547 1888 2255 1720 
Q 1963 1553 1622 1553 
Q 1053 1553 659 1965 
Q 266 2378 266 3053 
Q 266 3750 677 4175 
Q 1088 4600 1706 4600 
Q 2153 4600 2523 4359 
Q 2894 4119 3086 3673 
Q 3278 3228 3278 2384 
Q 3278 1506 3087 986 
Q 2897 466 2520 194 
Q 2144 -78 1638 -78 
Q 1100 -78 759 220 
Q 419 519 350 1059 
z
M 2653 3081 
Q 2653 3566 2395 3850 
Q 2138 4134 1775 4134 
Q 1400 4134 1122 3828 
Q 844 3522 844 3034 
Q 844 2597 1108 2323 
Q 1372 2050 1759 2050 
Q 2150 2050 2401 2323 
Q 2653 2597 2653 3081 
z
" transform="scale(0.015625)"/>
      </defs>
      <use xlink:href="#ArialMT-44"/>
      <use xlink:href="#ArialMT-61" x="72.216797"/>
      <use xlink:href="#ArialMT-79" x="127.832031"/>
      <use xlink:href="#ArialMT-20" x="177.832031"/>
      <use xlink:href="#ArialMT-39" x="205.615234"/>
     </g>
    </g>
    <g id="line2d_41">
     <path d="M 449.717187 193.068125 
L 459.717187 193.068125 
L 469.717187 193.068125 
" style="fill: none; stroke: #17becf; stroke-width: 1.5; stroke-linecap: round"/>
    </g>
    <g id="text_28">
     <!-- Day 10 -->
     <g style="fill: #262626" transform="translate(477.717187 196.568125) scale(0.1 -0.1)">
      <use xlink:href="#ArialMT-44"/>
      <use xlink:href="#ArialMT-61" x="72.216797"/>
      <use xlink:href="#ArialMT-79" x="127.832031"/>
      <use xlink:href="#ArialMT-20" x="177.832031"/>
      <use xlink:href="#ArialMT-31" x="205.615234"/>
      <use xlink:href="#ArialMT-30" x="261.230469"/>
     </g>
    </g>
    <g id="line2d_42">
     <path d="M 449.717187 207.360312 
L 459.717187 207.360312 
L 469.717187 207.360312 
" style="fill: none; stroke: #1f77b4; stroke-width: 1.5; stroke-linecap: round"/>
    </g>
    <g id="text_29">
     <!-- Day 11 -->
     <g style="fill: #262626" transform="translate(477.717187 210.860312) scale(0.1 -0.1)">
      <use xlink:href="#ArialMT-44"/>
      <use xlink:href="#ArialMT-61" x="72.216797"/>
      <use xlink:href="#ArialMT-79" x="127.832031"/>
      <use xlink:href="#ArialMT-20" x="177.832031"/>
      <use xlink:href="#ArialMT-31" x="205.615234"/>
      <use xlink:href="#ArialMT-31" x="253.855469"/>
     </g>
    </g>
    <g id="line2d_43">
     <path d="M 449.717187 221.6525 
L 459.717187 221.6525 
L 469.717187 221.6525 
" style="fill: none; stroke: #ff7f0e; stroke-width: 1.5; stroke-linecap: round"/>
    </g>
    <g id="text_30">
     <!-- Day 12 -->
     <g style="fill: #262626" transform="translate(477.717187 225.1525) scale(0.1 -0.1)">
      <use xlink:href="#ArialMT-44"/>
      <use xlink:href="#ArialMT-61" x="72.216797"/>
      <use xlink:href="#ArialMT-79" x="127.832031"/>
      <use xlink:href="#ArialMT-20" x="177.832031"/>
      <use xlink:href="#ArialMT-31" x="205.615234"/>
      <use xlink:href="#ArialMT-32" x="261.230469"/>
     </g>
    </g>
    <g id="line2d_44">
     <path d="M 449.717187 235.944687 
L 459.717187 235.944687 
L 469.717187 235.944687 
" style="fill: none; stroke: #2ca02c; stroke-width: 1.5; stroke-linecap: round"/>
    </g>
    <g id="text_31">
     <!-- Day 13 -->
     <g style="fill: #262626" transform="translate(477.717187 239.444687) scale(0.1 -0.1)">
      <use xlink:href="#ArialMT-44"/>
      <use xlink:href="#ArialMT-61" x="72.216797"/>
      <use xlink:href="#ArialMT-79" x="127.832031"/>
      <use xlink:href="#ArialMT-20" x="177.832031"/>
      <use xlink:href="#ArialMT-31" x="205.615234"/>
      <use xlink:href="#ArialMT-33" x="261.230469"/>
     </g>
    </g>
    <g id="line2d_45">
     <path d="M 449.717187 250.236875 
L 459.717187 250.236875 
L 469.717187 250.236875 
" style="fill: none; stroke: #d62728; stroke-width: 1.5; stroke-linecap: round"/>
    </g>
    <g id="text_32">
     <!-- Day 14 -->
     <g style="fill: #262626" transform="translate(477.717187 253.736875) scale(0.1 -0.1)">
      <use xlink:href="#ArialMT-44"/>
      <use xlink:href="#ArialMT-61" x="72.216797"/>
      <use xlink:href="#ArialMT-79" x="127.832031"/>
      <use xlink:href="#ArialMT-20" x="177.832031"/>
      <use xlink:href="#ArialMT-31" x="205.615234"/>
      <use xlink:href="#ArialMT-34" x="261.230469"/>
     </g>
    </g>
    <g id="line2d_46">
     <path d="M 449.717187 264.529063 
L 459.717187 264.529063 
L 469.717187 264.529063 
" style="fill: none; stroke: #9467bd; stroke-width: 1.5; stroke-linecap: round"/>
    </g>
    <g id="text_33">
     <!-- Day 15 -->
     <g style="fill: #262626" transform="translate(477.717187 268.029063) scale(0.1 -0.1)">
      <use xlink:href="#ArialMT-44"/>
      <use xlink:href="#ArialMT-61" x="72.216797"/>
      <use xlink:href="#ArialMT-79" x="127.832031"/>
      <use xlink:href="#ArialMT-20" x="177.832031"/>
      <use xlink:href="#ArialMT-31" x="205.615234"/>
      <use xlink:href="#ArialMT-35" x="261.230469"/>
     </g>
    </g>
   </g>
  </g>
 </g>
 <defs>
  <clipPath id="p70565355c5">
   <rect x="72" y="51.84" width="446.4" height="332.64"/>
  </clipPath>
 </defs>
</svg>
