<?xml version="1.0" encoding="utf-8" standalone="no"?>
<!DOCTYPE svg PUBLIC "-//W3C//DTD SVG 1.1//EN"
  "http://www.w3.org/Graphics/SVG/1.1/DTD/svg11.dtd">
<svg xmlns:xlink="http://www.w3.org/1999/xlink" width="576pt" height="432pt" viewBox="0 0 576 432" xmlns="http://www.w3.org/2000/svg" version="1.1">
 <metadata>
  <rdf:RDF xmlns:dc="http://purl.org/dc/elements/1.1/" xmlns:cc="http://creativecommons.org/ns#" xmlns:rdf="http://www.w3.org/1999/02/22-rdf-syntax-ns#">
   <cc:Work>
    <dc:type rdf:resource="http://purl.org/dc/dcmitype/StillImage"/>
    <dc:date>2023-11-17T01:12:15.584106</dc:date>
    <dc:format>image/svg+xml</dc:format>
    <dc:creator>
     <cc:Agent>
      <dc:title>Matplotlib v3.8.1, https://matplotlib.org/</dc:title>
     </cc:Agent>
    </dc:creator>
   </cc:Work>
  </rdf:RDF>
 </metadata>
 <defs>
  <style type="text/css">*{stroke-linejoin: round; stroke-linecap: butt}</style>
 </defs>
 <g id="figure_1">
  <g id="patch_1">
   <path d="M 0 432 
L 576 432 
L 576 0 
L 0 0 
z
" style="fill: #ffffff"/>
  </g>
  <g id="axes_1">
   <g id="patch_2">
    <path d="M 72 384.48 
L 518.4 384.48 
L 518.4 51.84 
L 72 51.84 
z
" style="fill: #eaeaf2"/>
   </g>
   <g id="matplotlib.axis_1">
    <g id="xtick_1">
     <g id="line2d_1">
      <path d="M 148.562226 384.48 
L 148.562226 51.84 
" clip-path="url(#p2f222dc370)" style="fill: none; stroke: #ffffff; stroke-width: 0.8; stroke-linecap: round"/>
     </g>
     <g id="text_1">
      <!-- −20 -->
      <g style="fill: #262626" transform="translate(140.080976 398.637812) scale(0.1 -0.1)">
       <defs>
        <path id="ArialMT-2212" d="M 3381 1997 
L 356 1997 
L 356 2522 
L 3381 2522 
L 3381 1997 
z
" transform="scale(0.015625)"/>
        <path id="ArialMT-32" d="M 3222 541 
L 3222 0 
L 194 0 
Q 188 203 259 391 
Q 375 700 629 1000 
Q 884 1300 1366 1694 
Q 2113 2306 2375 2664 
Q 2638 3022 2638 3341 
Q 2638 3675 2398 3904 
Q 2159 4134 1775 4134 
Q 1369 4134 1125 3890 
Q 881 3647 878 3216 
L 300 3275 
Q 359 3922 746 4261 
Q 1134 4600 1788 4600 
Q 2447 4600 2831 4234 
Q 3216 3869 3216 3328 
Q 3216 3053 3103 2787 
Q 2991 2522 2730 2228 
Q 2469 1934 1863 1422 
Q 1356 997 1212 845 
Q 1069 694 975 541 
L 3222 541 
z
" transform="scale(0.015625)"/>
        <path id="ArialMT-30" d="M 266 2259 
Q 266 3072 433 3567 
Q 600 4063 929 4331 
Q 1259 4600 1759 4600 
Q 2128 4600 2406 4451 
Q 2684 4303 2865 4023 
Q 3047 3744 3150 3342 
Q 3253 2941 3253 2259 
Q 3253 1453 3087 958 
Q 2922 463 2592 192 
Q 2263 -78 1759 -78 
Q 1097 -78 719 397 
Q 266 969 266 2259 
z
M 844 2259 
Q 844 1131 1108 757 
Q 1372 384 1759 384 
Q 2147 384 2411 759 
Q 2675 1134 2675 2259 
Q 2675 3391 2411 3762 
Q 2147 4134 1753 4134 
Q 1366 4134 1134 3806 
Q 844 3388 844 2259 
z
" transform="scale(0.015625)"/>
       </defs>
       <use xlink:href="#ArialMT-2212"/>
       <use xlink:href="#ArialMT-32" x="58.398438"/>
       <use xlink:href="#ArialMT-30" x="114.013672"/>
      </g>
     </g>
    </g>
    <g id="xtick_2">
     <g id="line2d_2">
      <path d="M 237.291247 384.48 
L 237.291247 51.84 
" clip-path="url(#p2f222dc370)" style="fill: none; stroke: #ffffff; stroke-width: 0.8; stroke-linecap: round"/>
     </g>
     <g id="text_2">
      <!-- −10 -->
      <g style="fill: #262626" transform="translate(228.809997 398.637812) scale(0.1 -0.1)">
       <defs>
        <path id="ArialMT-31" d="M 2384 0 
L 1822 0 
L 1822 3584 
Q 1619 3391 1289 3197 
Q 959 3003 697 2906 
L 697 3450 
Q 1169 3672 1522 3987 
Q 1875 4303 2022 4600 
L 2384 4600 
L 2384 0 
z
" transform="scale(0.015625)"/>
       </defs>
       <use xlink:href="#ArialMT-2212"/>
       <use xlink:href="#ArialMT-31" x="58.398438"/>
       <use xlink:href="#ArialMT-30" x="114.013672"/>
      </g>
     </g>
    </g>
    <g id="xtick_3">
     <g id="line2d_3">
      <path d="M 326.020268 384.48 
L 326.020268 51.84 
" clip-path="url(#p2f222dc370)" style="fill: none; stroke: #ffffff; stroke-width: 0.8; stroke-linecap: round"/>
     </g>
     <g id="text_3">
      <!-- 0 -->
      <g style="fill: #262626" transform="translate(323.239799 398.637812) scale(0.1 -0.1)">
       <use xlink:href="#ArialMT-30"/>
      </g>
     </g>
    </g>
    <g id="xtick_4">
     <g id="line2d_4">
      <path d="M 414.749289 384.48 
L 414.749289 51.84 
" clip-path="url(#p2f222dc370)" style="fill: none; stroke: #ffffff; stroke-width: 0.8; stroke-linecap: round"/>
     </g>
     <g id="text_4">
      <!-- 10 -->
      <g style="fill: #262626" transform="translate(409.188351 398.637812) scale(0.1 -0.1)">
       <use xlink:href="#ArialMT-31"/>
       <use xlink:href="#ArialMT-30" x="55.615234"/>
      </g>
     </g>
    </g>
    <g id="xtick_5">
     <g id="line2d_5">
      <path d="M 503.478309 384.48 
L 503.478309 51.84 
" clip-path="url(#p2f222dc370)" style="fill: none; stroke: #ffffff; stroke-width: 0.8; stroke-linecap: round"/>
     </g>
     <g id="text_5">
      <!-- 20 -->
      <g style="fill: #262626" transform="translate(497.917372 398.637812) scale(0.1 -0.1)">
       <use xlink:href="#ArialMT-32"/>
       <use xlink:href="#ArialMT-30" x="55.615234"/>
      </g>
     </g>
    </g>
    <g id="text_6">
     <!-- Maximum Temperature Predictive Error (°C) -->
     <g style="fill: #262626" transform="translate(197.998437 411.905) scale(0.1 -0.1)">
      <defs>
       <path id="ArialMT-4d" d="M 475 0 
L 475 4581 
L 1388 4581 
L 2472 1338 
Q 2622 884 2691 659 
Q 2769 909 2934 1394 
L 4031 4581 
L 4847 4581 
L 4847 0 
L 4263 0 
L 4263 3834 
L 2931 0 
L 2384 0 
L 1059 3900 
L 1059 0 
L 475 0 
z
" transform="scale(0.015625)"/>
       <path id="ArialMT-61" d="M 2588 409 
Q 2275 144 1986 34 
Q 1697 -75 1366 -75 
Q 819 -75 525 192 
Q 231 459 231 875 
Q 231 1119 342 1320 
Q 453 1522 633 1644 
Q 813 1766 1038 1828 
Q 1203 1872 1538 1913 
Q 2219 1994 2541 2106 
Q 2544 2222 2544 2253 
Q 2544 2597 2384 2738 
Q 2169 2928 1744 2928 
Q 1347 2928 1158 2789 
Q 969 2650 878 2297 
L 328 2372 
Q 403 2725 575 2942 
Q 747 3159 1072 3276 
Q 1397 3394 1825 3394 
Q 2250 3394 2515 3294 
Q 2781 3194 2906 3042 
Q 3031 2891 3081 2659 
Q 3109 2516 3109 2141 
L 3109 1391 
Q 3109 606 3145 398 
Q 3181 191 3288 0 
L 2700 0 
Q 2613 175 2588 409 
z
M 2541 1666 
Q 2234 1541 1622 1453 
Q 1275 1403 1131 1340 
Q 988 1278 909 1158 
Q 831 1038 831 891 
Q 831 666 1001 516 
Q 1172 366 1500 366 
Q 1825 366 2078 508 
Q 2331 650 2450 897 
Q 2541 1088 2541 1459 
L 2541 1666 
z
" transform="scale(0.015625)"/>
       <path id="ArialMT-78" d="M 47 0 
L 1259 1725 
L 138 3319 
L 841 3319 
L 1350 2541 
Q 1494 2319 1581 2169 
Q 1719 2375 1834 2534 
L 2394 3319 
L 3066 3319 
L 1919 1756 
L 3153 0 
L 2463 0 
L 1781 1031 
L 1600 1309 
L 728 0 
L 47 0 
z
" transform="scale(0.015625)"/>
       <path id="ArialMT-69" d="M 425 3934 
L 425 4581 
L 988 4581 
L 988 3934 
L 425 3934 
z
M 425 0 
L 425 3319 
L 988 3319 
L 988 0 
L 425 0 
z
" transform="scale(0.015625)"/>
       <path id="ArialMT-6d" d="M 422 0 
L 422 3319 
L 925 3319 
L 925 2853 
Q 1081 3097 1340 3245 
Q 1600 3394 1931 3394 
Q 2300 3394 2536 3241 
Q 2772 3088 2869 2813 
Q 3263 3394 3894 3394 
Q 4388 3394 4653 3120 
Q 4919 2847 4919 2278 
L 4919 0 
L 4359 0 
L 4359 2091 
Q 4359 2428 4304 2576 
Q 4250 2725 4106 2815 
Q 3963 2906 3769 2906 
Q 3419 2906 3187 2673 
Q 2956 2441 2956 1928 
L 2956 0 
L 2394 0 
L 2394 2156 
Q 2394 2531 2256 2718 
Q 2119 2906 1806 2906 
Q 1569 2906 1367 2781 
Q 1166 2656 1075 2415 
Q 984 2175 984 1722 
L 984 0 
L 422 0 
z
" transform="scale(0.015625)"/>
       <path id="ArialMT-75" d="M 2597 0 
L 2597 488 
Q 2209 -75 1544 -75 
Q 1250 -75 995 37 
Q 741 150 617 320 
Q 494 491 444 738 
Q 409 903 409 1263 
L 409 3319 
L 972 3319 
L 972 1478 
Q 972 1038 1006 884 
Q 1059 663 1231 536 
Q 1403 409 1656 409 
Q 1909 409 2131 539 
Q 2353 669 2445 892 
Q 2538 1116 2538 1541 
L 2538 3319 
L 3100 3319 
L 3100 0 
L 2597 0 
z
" transform="scale(0.015625)"/>
       <path id="ArialMT-20" transform="scale(0.015625)"/>
       <path id="ArialMT-54" d="M 1659 0 
L 1659 4041 
L 150 4041 
L 150 4581 
L 3781 4581 
L 3781 4041 
L 2266 4041 
L 2266 0 
L 1659 0 
z
" transform="scale(0.015625)"/>
       <path id="ArialMT-65" d="M 2694 1069 
L 3275 997 
Q 3138 488 2766 206 
Q 2394 -75 1816 -75 
Q 1088 -75 661 373 
Q 234 822 234 1631 
Q 234 2469 665 2931 
Q 1097 3394 1784 3394 
Q 2450 3394 2872 2941 
Q 3294 2488 3294 1666 
Q 3294 1616 3291 1516 
L 816 1516 
Q 847 969 1125 678 
Q 1403 388 1819 388 
Q 2128 388 2347 550 
Q 2566 713 2694 1069 
z
M 847 1978 
L 2700 1978 
Q 2663 2397 2488 2606 
Q 2219 2931 1791 2931 
Q 1403 2931 1139 2672 
Q 875 2413 847 1978 
z
" transform="scale(0.015625)"/>
       <path id="ArialMT-70" d="M 422 -1272 
L 422 3319 
L 934 3319 
L 934 2888 
Q 1116 3141 1344 3267 
Q 1572 3394 1897 3394 
Q 2322 3394 2647 3175 
Q 2972 2956 3137 2557 
Q 3303 2159 3303 1684 
Q 3303 1175 3120 767 
Q 2938 359 2589 142 
Q 2241 -75 1856 -75 
Q 1575 -75 1351 44 
Q 1128 163 984 344 
L 984 -1272 
L 422 -1272 
z
M 931 1641 
Q 931 1000 1190 694 
Q 1450 388 1819 388 
Q 2194 388 2461 705 
Q 2728 1022 2728 1688 
Q 2728 2322 2467 2637 
Q 2206 2953 1844 2953 
Q 1484 2953 1207 2617 
Q 931 2281 931 1641 
z
" transform="scale(0.015625)"/>
       <path id="ArialMT-72" d="M 416 0 
L 416 3319 
L 922 3319 
L 922 2816 
Q 1116 3169 1280 3281 
Q 1444 3394 1641 3394 
Q 1925 3394 2219 3213 
L 2025 2691 
Q 1819 2813 1613 2813 
Q 1428 2813 1281 2702 
Q 1134 2591 1072 2394 
Q 978 2094 978 1738 
L 978 0 
L 416 0 
z
" transform="scale(0.015625)"/>
       <path id="ArialMT-74" d="M 1650 503 
L 1731 6 
Q 1494 -44 1306 -44 
Q 1000 -44 831 53 
Q 663 150 594 308 
Q 525 466 525 972 
L 525 2881 
L 113 2881 
L 113 3319 
L 525 3319 
L 525 4141 
L 1084 4478 
L 1084 3319 
L 1650 3319 
L 1650 2881 
L 1084 2881 
L 1084 941 
Q 1084 700 1114 631 
Q 1144 563 1211 522 
Q 1278 481 1403 481 
Q 1497 481 1650 503 
z
" transform="scale(0.015625)"/>
       <path id="ArialMT-50" d="M 494 0 
L 494 4581 
L 2222 4581 
Q 2678 4581 2919 4538 
Q 3256 4481 3484 4323 
Q 3713 4166 3852 3881 
Q 3991 3597 3991 3256 
Q 3991 2672 3619 2267 
Q 3247 1863 2275 1863 
L 1100 1863 
L 1100 0 
L 494 0 
z
M 1100 2403 
L 2284 2403 
Q 2872 2403 3119 2622 
Q 3366 2841 3366 3238 
Q 3366 3525 3220 3729 
Q 3075 3934 2838 4000 
Q 2684 4041 2272 4041 
L 1100 4041 
L 1100 2403 
z
" transform="scale(0.015625)"/>
       <path id="ArialMT-64" d="M 2575 0 
L 2575 419 
Q 2259 -75 1647 -75 
Q 1250 -75 917 144 
Q 584 363 401 755 
Q 219 1147 219 1656 
Q 219 2153 384 2558 
Q 550 2963 881 3178 
Q 1213 3394 1622 3394 
Q 1922 3394 2156 3267 
Q 2391 3141 2538 2938 
L 2538 4581 
L 3097 4581 
L 3097 0 
L 2575 0 
z
M 797 1656 
Q 797 1019 1065 703 
Q 1334 388 1700 388 
Q 2069 388 2326 689 
Q 2584 991 2584 1609 
Q 2584 2291 2321 2609 
Q 2059 2928 1675 2928 
Q 1300 2928 1048 2622 
Q 797 2316 797 1656 
z
" transform="scale(0.015625)"/>
       <path id="ArialMT-63" d="M 2588 1216 
L 3141 1144 
Q 3050 572 2676 248 
Q 2303 -75 1759 -75 
Q 1078 -75 664 370 
Q 250 816 250 1647 
Q 250 2184 428 2587 
Q 606 2991 970 3192 
Q 1334 3394 1763 3394 
Q 2303 3394 2647 3120 
Q 2991 2847 3088 2344 
L 2541 2259 
Q 2463 2594 2264 2762 
Q 2066 2931 1784 2931 
Q 1359 2931 1093 2626 
Q 828 2322 828 1663 
Q 828 994 1084 691 
Q 1341 388 1753 388 
Q 2084 388 2306 591 
Q 2528 794 2588 1216 
z
" transform="scale(0.015625)"/>
       <path id="ArialMT-76" d="M 1344 0 
L 81 3319 
L 675 3319 
L 1388 1331 
Q 1503 1009 1600 663 
Q 1675 925 1809 1294 
L 2547 3319 
L 3125 3319 
L 1869 0 
L 1344 0 
z
" transform="scale(0.015625)"/>
       <path id="ArialMT-45" d="M 506 0 
L 506 4581 
L 3819 4581 
L 3819 4041 
L 1113 4041 
L 1113 2638 
L 3647 2638 
L 3647 2100 
L 1113 2100 
L 1113 541 
L 3925 541 
L 3925 0 
L 506 0 
z
" transform="scale(0.015625)"/>
       <path id="ArialMT-6f" d="M 213 1659 
Q 213 2581 725 3025 
Q 1153 3394 1769 3394 
Q 2453 3394 2887 2945 
Q 3322 2497 3322 1706 
Q 3322 1066 3130 698 
Q 2938 331 2570 128 
Q 2203 -75 1769 -75 
Q 1072 -75 642 372 
Q 213 819 213 1659 
z
M 791 1659 
Q 791 1022 1069 705 
Q 1347 388 1769 388 
Q 2188 388 2466 706 
Q 2744 1025 2744 1678 
Q 2744 2294 2464 2611 
Q 2184 2928 1769 2928 
Q 1347 2928 1069 2612 
Q 791 2297 791 1659 
z
" transform="scale(0.015625)"/>
       <path id="ArialMT-28" d="M 1497 -1347 
Q 1031 -759 709 28 
Q 388 816 388 1659 
Q 388 2403 628 3084 
Q 909 3875 1497 4659 
L 1900 4659 
Q 1522 4009 1400 3731 
Q 1209 3300 1100 2831 
Q 966 2247 966 1656 
Q 966 153 1900 -1347 
L 1497 -1347 
z
" transform="scale(0.015625)"/>
       <path id="ArialMT-b0" d="M 400 3794 
Q 400 4153 654 4406 
Q 909 4659 1266 4659 
Q 1628 4659 1881 4406 
Q 2134 4153 2134 3794 
Q 2134 3434 1879 3179 
Q 1625 2925 1266 2925 
Q 909 2925 654 3178 
Q 400 3431 400 3794 
z
M 741 3794 
Q 741 3575 895 3420 
Q 1050 3266 1269 3266 
Q 1484 3266 1639 3420 
Q 1794 3575 1794 3794 
Q 1794 4013 1639 4167 
Q 1484 4322 1269 4322 
Q 1050 4322 895 4167 
Q 741 4013 741 3794 
z
" transform="scale(0.015625)"/>
       <path id="ArialMT-43" d="M 3763 1606 
L 4369 1453 
Q 4178 706 3683 314 
Q 3188 -78 2472 -78 
Q 1731 -78 1267 223 
Q 803 525 561 1097 
Q 319 1669 319 2325 
Q 319 3041 592 3573 
Q 866 4106 1370 4382 
Q 1875 4659 2481 4659 
Q 3169 4659 3637 4309 
Q 4106 3959 4291 3325 
L 3694 3184 
Q 3534 3684 3231 3912 
Q 2928 4141 2469 4141 
Q 1941 4141 1586 3887 
Q 1231 3634 1087 3207 
Q 944 2781 944 2328 
Q 944 1744 1114 1308 
Q 1284 872 1643 656 
Q 2003 441 2422 441 
Q 2931 441 3284 734 
Q 3638 1028 3763 1606 
z
" transform="scale(0.015625)"/>
       <path id="ArialMT-29" d="M 791 -1347 
L 388 -1347 
Q 1322 153 1322 1656 
Q 1322 2244 1188 2822 
Q 1081 3291 891 3722 
Q 769 4003 388 4659 
L 791 4659 
Q 1378 3875 1659 3084 
Q 1900 2403 1900 1659 
Q 1900 816 1576 28 
Q 1253 -759 791 -1347 
z
" transform="scale(0.015625)"/>
      </defs>
      <use xlink:href="#ArialMT-4d"/>
      <use xlink:href="#ArialMT-61" x="83.300781"/>
      <use xlink:href="#ArialMT-78" x="138.916016"/>
      <use xlink:href="#ArialMT-69" x="188.916016"/>
      <use xlink:href="#ArialMT-6d" x="211.132812"/>
      <use xlink:href="#ArialMT-75" x="294.433594"/>
      <use xlink:href="#ArialMT-6d" x="350.048828"/>
      <use xlink:href="#ArialMT-20" x="433.349609"/>
      <use xlink:href="#ArialMT-54" x="459.382812"/>
      <use xlink:href="#ArialMT-65" x="509.341797"/>
      <use xlink:href="#ArialMT-6d" x="564.957031"/>
      <use xlink:href="#ArialMT-70" x="648.257812"/>
      <use xlink:href="#ArialMT-65" x="703.873047"/>
      <use xlink:href="#ArialMT-72" x="759.488281"/>
      <use xlink:href="#ArialMT-61" x="792.789062"/>
      <use xlink:href="#ArialMT-74" x="848.404297"/>
      <use xlink:href="#ArialMT-75" x="876.1875"/>
      <use xlink:href="#ArialMT-72" x="931.802734"/>
      <use xlink:href="#ArialMT-65" x="965.103516"/>
      <use xlink:href="#ArialMT-20" x="1020.71875"/>
      <use xlink:href="#ArialMT-50" x="1048.501953"/>
      <use xlink:href="#ArialMT-72" x="1115.201172"/>
      <use xlink:href="#ArialMT-65" x="1148.501953"/>
      <use xlink:href="#ArialMT-64" x="1204.117188"/>
      <use xlink:href="#ArialMT-69" x="1259.732422"/>
      <use xlink:href="#ArialMT-63" x="1281.949219"/>
      <use xlink:href="#ArialMT-74" x="1331.949219"/>
      <use xlink:href="#ArialMT-69" x="1359.732422"/>
      <use xlink:href="#ArialMT-76" x="1381.949219"/>
      <use xlink:href="#ArialMT-65" x="1431.949219"/>
      <use xlink:href="#ArialMT-20" x="1487.564453"/>
      <use xlink:href="#ArialMT-45" x="1515.347656"/>
      <use xlink:href="#ArialMT-72" x="1582.046875"/>
      <use xlink:href="#ArialMT-72" x="1615.347656"/>
      <use xlink:href="#ArialMT-6f" x="1648.648438"/>
      <use xlink:href="#ArialMT-72" x="1704.263672"/>
      <use xlink:href="#ArialMT-20" x="1737.564453"/>
      <use xlink:href="#ArialMT-28" x="1765.347656"/>
      <use xlink:href="#ArialMT-b0" x="1798.648438"/>
      <use xlink:href="#ArialMT-43" x="1838.638672"/>
      <use xlink:href="#ArialMT-29" x="1910.855469"/>
     </g>
    </g>
   </g>
   <g id="matplotlib.axis_2">
    <g id="ytick_1">
     <g id="line2d_6">
      <path d="M 72 384.48 
L 518.4 384.48 
" clip-path="url(#p2f222dc370)" style="fill: none; stroke: #ffffff; stroke-width: 0.8; stroke-linecap: round"/>
     </g>
     <g id="text_7">
      <!-- 0.00 -->
      <g style="fill: #262626" transform="translate(45.539062 388.058906) scale(0.1 -0.1)">
       <defs>
        <path id="ArialMT-2e" d="M 581 0 
L 581 641 
L 1222 641 
L 1222 0 
L 581 0 
z
" transform="scale(0.015625)"/>
       </defs>
       <use xlink:href="#ArialMT-30"/>
       <use xlink:href="#ArialMT-2e" x="55.615234"/>
       <use xlink:href="#ArialMT-30" x="83.398438"/>
       <use xlink:href="#ArialMT-30" x="139.013672"/>
      </g>
     </g>
    </g>
    <g id="ytick_2">
     <g id="line2d_7">
      <path d="M 72 336.900959 
L 518.4 336.900959 
" clip-path="url(#p2f222dc370)" style="fill: none; stroke: #ffffff; stroke-width: 0.8; stroke-linecap: round"/>
     </g>
     <g id="text_8">
      <!-- 0.02 -->
      <g style="fill: #262626" transform="translate(45.539062 340.479866) scale(0.1 -0.1)">
       <use xlink:href="#ArialMT-30"/>
       <use xlink:href="#ArialMT-2e" x="55.615234"/>
       <use xlink:href="#ArialMT-30" x="83.398438"/>
       <use xlink:href="#ArialMT-32" x="139.013672"/>
      </g>
     </g>
    </g>
    <g id="ytick_3">
     <g id="line2d_8">
      <path d="M 72 289.321919 
L 518.4 289.321919 
" clip-path="url(#p2f222dc370)" style="fill: none; stroke: #ffffff; stroke-width: 0.8; stroke-linecap: round"/>
     </g>
     <g id="text_9">
      <!-- 0.04 -->
      <g style="fill: #262626" transform="translate(45.539062 292.900825) scale(0.1 -0.1)">
       <defs>
        <path id="ArialMT-34" d="M 2069 0 
L 2069 1097 
L 81 1097 
L 81 1613 
L 2172 4581 
L 2631 4581 
L 2631 1613 
L 3250 1613 
L 3250 1097 
L 2631 1097 
L 2631 0 
L 2069 0 
z
M 2069 1613 
L 2069 3678 
L 634 1613 
L 2069 1613 
z
" transform="scale(0.015625)"/>
       </defs>
       <use xlink:href="#ArialMT-30"/>
       <use xlink:href="#ArialMT-2e" x="55.615234"/>
       <use xlink:href="#ArialMT-30" x="83.398438"/>
       <use xlink:href="#ArialMT-34" x="139.013672"/>
      </g>
     </g>
    </g>
    <g id="ytick_4">
     <g id="line2d_9">
      <path d="M 72 241.742878 
L 518.4 241.742878 
" clip-path="url(#p2f222dc370)" style="fill: none; stroke: #ffffff; stroke-width: 0.8; stroke-linecap: round"/>
     </g>
     <g id="text_10">
      <!-- 0.06 -->
      <g style="fill: #262626" transform="translate(45.539062 245.321785) scale(0.1 -0.1)">
       <defs>
        <path id="ArialMT-36" d="M 3184 3459 
L 2625 3416 
Q 2550 3747 2413 3897 
Q 2184 4138 1850 4138 
Q 1581 4138 1378 3988 
Q 1113 3794 959 3422 
Q 806 3050 800 2363 
Q 1003 2672 1297 2822 
Q 1591 2972 1913 2972 
Q 2475 2972 2870 2558 
Q 3266 2144 3266 1488 
Q 3266 1056 3080 686 
Q 2894 316 2569 119 
Q 2244 -78 1831 -78 
Q 1128 -78 684 439 
Q 241 956 241 2144 
Q 241 3472 731 4075 
Q 1159 4600 1884 4600 
Q 2425 4600 2770 4297 
Q 3116 3994 3184 3459 
z
M 888 1484 
Q 888 1194 1011 928 
Q 1134 663 1356 523 
Q 1578 384 1822 384 
Q 2178 384 2434 671 
Q 2691 959 2691 1453 
Q 2691 1928 2437 2201 
Q 2184 2475 1800 2475 
Q 1419 2475 1153 2201 
Q 888 1928 888 1484 
z
" transform="scale(0.015625)"/>
       </defs>
       <use xlink:href="#ArialMT-30"/>
       <use xlink:href="#ArialMT-2e" x="55.615234"/>
       <use xlink:href="#ArialMT-30" x="83.398438"/>
       <use xlink:href="#ArialMT-36" x="139.013672"/>
      </g>
     </g>
    </g>
    <g id="ytick_5">
     <g id="line2d_10">
      <path d="M 72 194.163838 
L 518.4 194.163838 
" clip-path="url(#p2f222dc370)" style="fill: none; stroke: #ffffff; stroke-width: 0.8; stroke-linecap: round"/>
     </g>
     <g id="text_11">
      <!-- 0.08 -->
      <g style="fill: #262626" transform="translate(45.539062 197.742744) scale(0.1 -0.1)">
       <defs>
        <path id="ArialMT-38" d="M 1131 2484 
Q 781 2613 612 2850 
Q 444 3088 444 3419 
Q 444 3919 803 4259 
Q 1163 4600 1759 4600 
Q 2359 4600 2725 4251 
Q 3091 3903 3091 3403 
Q 3091 3084 2923 2848 
Q 2756 2613 2416 2484 
Q 2838 2347 3058 2040 
Q 3278 1734 3278 1309 
Q 3278 722 2862 322 
Q 2447 -78 1769 -78 
Q 1091 -78 675 323 
Q 259 725 259 1325 
Q 259 1772 486 2073 
Q 713 2375 1131 2484 
z
M 1019 3438 
Q 1019 3113 1228 2906 
Q 1438 2700 1772 2700 
Q 2097 2700 2305 2904 
Q 2513 3109 2513 3406 
Q 2513 3716 2298 3927 
Q 2084 4138 1766 4138 
Q 1444 4138 1231 3931 
Q 1019 3725 1019 3438 
z
M 838 1322 
Q 838 1081 952 856 
Q 1066 631 1291 507 
Q 1516 384 1775 384 
Q 2178 384 2440 643 
Q 2703 903 2703 1303 
Q 2703 1709 2433 1975 
Q 2163 2241 1756 2241 
Q 1359 2241 1098 1978 
Q 838 1716 838 1322 
z
" transform="scale(0.015625)"/>
       </defs>
       <use xlink:href="#ArialMT-30"/>
       <use xlink:href="#ArialMT-2e" x="55.615234"/>
       <use xlink:href="#ArialMT-30" x="83.398438"/>
       <use xlink:href="#ArialMT-38" x="139.013672"/>
      </g>
     </g>
    </g>
    <g id="ytick_6">
     <g id="line2d_11">
      <path d="M 72 146.584797 
L 518.4 146.584797 
" clip-path="url(#p2f222dc370)" style="fill: none; stroke: #ffffff; stroke-width: 0.8; stroke-linecap: round"/>
     </g>
     <g id="text_12">
      <!-- 0.10 -->
      <g style="fill: #262626" transform="translate(45.539062 150.163703) scale(0.1 -0.1)">
       <use xlink:href="#ArialMT-30"/>
       <use xlink:href="#ArialMT-2e" x="55.615234"/>
       <use xlink:href="#ArialMT-31" x="83.398438"/>
       <use xlink:href="#ArialMT-30" x="139.013672"/>
      </g>
     </g>
    </g>
    <g id="ytick_7">
     <g id="line2d_12">
      <path d="M 72 99.005757 
L 518.4 99.005757 
" clip-path="url(#p2f222dc370)" style="fill: none; stroke: #ffffff; stroke-width: 0.8; stroke-linecap: round"/>
     </g>
     <g id="text_13">
      <!-- 0.12 -->
      <g style="fill: #262626" transform="translate(45.539062 102.584663) scale(0.1 -0.1)">
       <use xlink:href="#ArialMT-30"/>
       <use xlink:href="#ArialMT-2e" x="55.615234"/>
       <use xlink:href="#ArialMT-31" x="83.398438"/>
       <use xlink:href="#ArialMT-32" x="139.013672"/>
      </g>
     </g>
    </g>
    <g id="text_14">
     <!-- Density -->
     <g style="fill: #262626" transform="translate(39.434375 234.831875) rotate(-90) scale(0.1 -0.1)">
      <defs>
       <path id="ArialMT-44" d="M 494 0 
L 494 4581 
L 2072 4581 
Q 2606 4581 2888 4516 
Q 3281 4425 3559 4188 
Q 3922 3881 4101 3404 
Q 4281 2928 4281 2316 
Q 4281 1794 4159 1391 
Q 4038 988 3847 723 
Q 3656 459 3429 307 
Q 3203 156 2883 78 
Q 2563 0 2147 0 
L 494 0 
z
M 1100 541 
L 2078 541 
Q 2531 541 2789 625 
Q 3047 709 3200 863 
Q 3416 1078 3536 1442 
Q 3656 1806 3656 2325 
Q 3656 3044 3420 3430 
Q 3184 3816 2847 3947 
Q 2603 4041 2063 4041 
L 1100 4041 
L 1100 541 
z
" transform="scale(0.015625)"/>
       <path id="ArialMT-6e" d="M 422 0 
L 422 3319 
L 928 3319 
L 928 2847 
Q 1294 3394 1984 3394 
Q 2284 3394 2536 3286 
Q 2788 3178 2913 3003 
Q 3038 2828 3088 2588 
Q 3119 2431 3119 2041 
L 3119 0 
L 2556 0 
L 2556 2019 
Q 2556 2363 2490 2533 
Q 2425 2703 2258 2804 
Q 2091 2906 1866 2906 
Q 1506 2906 1245 2678 
Q 984 2450 984 1813 
L 984 0 
L 422 0 
z
" transform="scale(0.015625)"/>
       <path id="ArialMT-73" d="M 197 991 
L 753 1078 
Q 800 744 1014 566 
Q 1228 388 1613 388 
Q 2000 388 2187 545 
Q 2375 703 2375 916 
Q 2375 1106 2209 1216 
Q 2094 1291 1634 1406 
Q 1016 1563 777 1677 
Q 538 1791 414 1992 
Q 291 2194 291 2438 
Q 291 2659 392 2848 
Q 494 3038 669 3163 
Q 800 3259 1026 3326 
Q 1253 3394 1513 3394 
Q 1903 3394 2198 3281 
Q 2494 3169 2634 2976 
Q 2775 2784 2828 2463 
L 2278 2388 
Q 2241 2644 2061 2787 
Q 1881 2931 1553 2931 
Q 1166 2931 1000 2803 
Q 834 2675 834 2503 
Q 834 2394 903 2306 
Q 972 2216 1119 2156 
Q 1203 2125 1616 2013 
Q 2213 1853 2448 1751 
Q 2684 1650 2818 1456 
Q 2953 1263 2953 975 
Q 2953 694 2789 445 
Q 2625 197 2315 61 
Q 2006 -75 1616 -75 
Q 969 -75 630 194 
Q 291 463 197 991 
z
" transform="scale(0.015625)"/>
       <path id="ArialMT-79" d="M 397 -1278 
L 334 -750 
Q 519 -800 656 -800 
Q 844 -800 956 -737 
Q 1069 -675 1141 -563 
Q 1194 -478 1313 -144 
Q 1328 -97 1363 -6 
L 103 3319 
L 709 3319 
L 1400 1397 
Q 1534 1031 1641 628 
Q 1738 1016 1872 1384 
L 2581 3319 
L 3144 3319 
L 1881 -56 
Q 1678 -603 1566 -809 
Q 1416 -1088 1222 -1217 
Q 1028 -1347 759 -1347 
Q 597 -1347 397 -1278 
z
" transform="scale(0.015625)"/>
      </defs>
      <use xlink:href="#ArialMT-44"/>
      <use xlink:href="#ArialMT-65" x="72.216797"/>
      <use xlink:href="#ArialMT-6e" x="127.832031"/>
      <use xlink:href="#ArialMT-73" x="183.447266"/>
      <use xlink:href="#ArialMT-69" x="233.447266"/>
      <use xlink:href="#ArialMT-74" x="255.664062"/>
      <use xlink:href="#ArialMT-79" x="283.447266"/>
     </g>
    </g>
   </g>
   <g id="line2d_13">
    <path d="M 141.342876 384.468447 
L 150.936367 384.328551 
L 155.733112 384.091542 
L 160.529857 383.671008 
L 166.925517 382.852687 
L 176.519008 381.548623 
L 181.315753 381.136447 
L 187.711413 380.90276 
L 192.508158 380.645827 
L 195.705988 380.221133 
L 198.903819 379.50069 
L 202.101649 378.472554 
L 205.299479 377.176347 
L 210.096224 374.884442 
L 218.090799 370.877043 
L 229.283205 365.568948 
L 232.481035 363.615597 
L 235.678865 361.358761 
L 242.074525 356.391942 
L 251.668016 348.919743 
L 254.865846 346.034491 
L 258.063676 342.606935 
L 261.261506 338.533367 
L 264.459336 333.891092 
L 277.250657 314.071358 
L 280.448487 308.778566 
L 282.047402 305.832596 
L 283.646317 302.602004 
L 285.245232 299.033112 
L 286.844147 295.084704 
L 288.443062 290.728844 
L 290.041977 285.948986 
L 291.640892 280.73575 
L 293.239807 275.081206 
L 294.838722 268.972821 
L 296.437637 262.388345 
L 298.036552 255.292825 
L 299.635468 247.638632 
L 301.234383 239.368949 
L 302.833298 230.424695 
L 304.432213 220.754304 
L 306.031128 210.32538 
L 309.228958 187.230539 
L 312.426788 161.693718 
L 317.223533 122.161339 
L 318.822448 109.816989 
L 320.421363 98.460903 
L 322.020278 88.443266 
L 323.619193 80.09371 
L 325.218109 73.703526 
L 326.817024 69.5094 
L 328.415939 67.679572 
L 330.014854 68.30324 
L 331.613769 71.384062 
L 333.212684 76.838567 
L 334.811599 84.500093 
L 336.410514 94.128517 
L 338.009429 105.425367 
L 339.608344 118.053193 
L 342.806174 145.887245 
L 349.201834 203.121721 
L 352.399665 228.955029 
L 353.99858 240.7002 
L 355.597495 251.551548 
L 357.19641 261.443569 
L 358.795325 270.3262 
L 360.39424 278.169592 
L 361.993155 284.97128 
L 363.59207 290.763551 
L 365.190985 295.618637 
L 366.7899 299.649744 
L 368.388815 303.006787 
L 369.98773 305.866745 
L 376.383391 315.986243 
L 377.982306 318.90671 
L 379.581221 322.128996 
L 382.779051 329.392005 
L 389.174711 344.867208 
L 390.773626 348.350175 
L 392.372541 351.524875 
L 393.971456 354.356537 
L 395.570371 356.837115 
L 397.169286 358.982538 
L 398.768201 360.827914 
L 400.367117 362.421483 
L 403.564947 365.073129 
L 408.361692 368.44732 
L 419.554097 376.082148 
L 422.751927 377.982524 
L 425.949758 379.605816 
L 429.147588 380.929076 
L 432.345418 381.968544 
L 435.543248 382.762667 
L 438.741078 383.354491 
L 443.537823 383.943137 
L 448.334568 384.263105 
L 454.730229 384.432823 
L 459.526974 384.468477 
L 459.526974 384.468477 
" clip-path="url(#p2f222dc370)" style="fill: none; stroke: #1f77b4; stroke-width: 1.5; stroke-linecap: round"/>
   </g>
   <g id="line2d_14">
    <path d="M 106.777335 384.470561 
L 118.451673 384.35696 
L 128.180288 384.010793 
L 141.800349 383.436654 
L 151.528963 383.072796 
L 155.420409 382.74696 
L 159.311855 382.24153 
L 163.203301 381.542224 
L 167.094747 380.662691 
L 172.931916 379.096277 
L 182.660531 376.41857 
L 188.4977 375.084989 
L 198.226315 372.933238 
L 207.95493 370.373193 
L 213.792098 368.727977 
L 217.683544 367.376458 
L 221.57499 365.613596 
L 225.466436 363.372409 
L 229.357882 360.75167 
L 260.48945 338.433919 
L 264.380896 335.184208 
L 266.326619 333.370908 
L 268.272342 331.382458 
L 270.218065 329.17474 
L 272.163788 326.697817 
L 274.10951 323.896674 
L 276.055233 320.713274 
L 278.000956 317.090163 
L 279.946679 312.975371 
L 281.892402 308.328 
L 283.838125 303.123451 
L 285.783848 297.357132 
L 287.729571 291.045499 
L 289.675294 284.223698 
L 293.56674 269.245554 
L 297.458186 252.79723 
L 301.349632 235.043379 
L 305.241078 215.874648 
L 309.132524 195.215434 
L 316.915416 152.548789 
L 318.861139 143.012213 
L 320.806862 134.609297 
L 322.752585 127.69397 
L 324.698308 122.578876 
L 326.644031 119.507711 
L 328.589754 118.634558 
L 330.535477 120.012268 
L 332.4812 123.590548 
L 334.426922 129.223119 
L 336.372645 136.682373 
L 338.318368 145.679336 
L 340.264091 155.886588 
L 344.155537 178.569956 
L 349.992706 213.715184 
L 353.884152 235.369089 
L 355.829875 245.31686 
L 357.775598 254.625113 
L 359.721321 263.289453 
L 361.667044 271.322008 
L 363.612767 278.743178 
L 365.55849 285.575938 
L 367.504213 291.842965 
L 369.449936 297.566288 
L 371.395659 302.768751 
L 373.341382 307.476365 
L 375.287105 311.720656 
L 377.232828 315.540257 
L 379.178551 318.981323 
L 381.124274 322.096574 
L 383.069997 324.943105 
L 386.961443 330.061211 
L 392.798612 337.041255 
L 412.255841 359.6798 
L 418.09301 366.013815 
L 421.984456 369.860308 
L 425.875902 373.225995 
L 427.821625 374.685332 
L 429.767348 375.981104 
L 431.713071 377.109825 
L 433.658794 378.074333 
L 435.604517 378.883277 
L 437.55024 379.550057 
L 441.441686 380.526069 
L 445.333132 381.151804 
L 451.170301 381.743906 
L 462.844638 382.81138 
L 472.573253 383.783631 
L 478.410422 384.170629 
L 486.193314 384.407626 
L 493.976206 384.469116 
L 493.976206 384.469116 
" clip-path="url(#p2f222dc370)" style="fill: none; stroke: #ff7f0e; stroke-width: 1.5; stroke-linecap: round"/>
   </g>
   <g id="line2d_15">
    <path d="M 103.225736 384.470885 
L 116.900134 384.324355 
L 124.714076 384.033022 
L 134.481504 383.412171 
L 140.34196 382.881707 
L 146.202417 382.119785 
L 152.062873 381.066822 
L 167.690757 377.961355 
L 179.41167 376.082809 
L 195.039554 373.623173 
L 198.946525 372.808867 
L 202.853496 371.749559 
L 206.760467 370.37833 
L 210.667438 368.683698 
L 214.574409 366.713317 
L 220.434865 363.44924 
L 226.295322 360.178646 
L 230.202292 358.180905 
L 236.062749 355.504989 
L 239.96972 353.728595 
L 243.876691 351.653646 
L 245.830176 350.420255 
L 247.783662 349.024685 
L 249.737147 347.456266 
L 251.690633 345.715282 
L 255.597604 341.758977 
L 259.504575 337.271459 
L 263.411546 332.312425 
L 267.318517 326.776698 
L 269.272002 323.71036 
L 271.225488 320.387108 
L 273.178973 316.763304 
L 275.132459 312.802081 
L 277.085944 308.478648 
L 279.03943 303.784295 
L 280.992915 298.728485 
L 284.899886 287.657203 
L 288.806857 275.63461 
L 294.667314 256.684968 
L 300.52777 236.956943 
L 304.434741 222.886925 
L 308.341712 207.605948 
L 312.248683 191.130061 
L 318.109139 166.111 
L 320.062625 158.526813 
L 322.01611 151.761074 
L 323.969596 146.084664 
L 325.923081 141.745569 
L 327.876567 138.95097 
L 329.830052 137.852587 
L 331.783538 138.536389 
L 333.737023 141.017368 
L 335.690509 145.239555 
L 337.643994 151.081079 
L 339.59748 158.363629 
L 341.550965 166.865326 
L 343.504451 176.335741 
L 347.411422 197.13211 
L 353.271878 229.340571 
L 357.178849 249.325911 
L 359.132335 258.522199 
L 361.08582 267.105771 
L 363.039306 275.045745 
L 364.992791 282.329391 
L 366.946277 288.95787 
L 368.899762 294.94339 
L 370.853248 300.30788 
L 372.806733 305.082929 
L 374.760219 309.310422 
L 376.713704 313.043119 
L 378.66719 316.344481 
L 380.620675 319.287218 
L 382.57416 321.950412 
L 386.481131 326.761243 
L 392.341588 333.742328 
L 396.248559 338.773802 
L 400.15553 344.225036 
L 411.876443 361.164081 
L 413.829928 363.665803 
L 415.783414 365.977526 
L 417.736899 368.077057 
L 419.690385 369.952637 
L 421.64387 371.603431 
L 423.597356 373.038886 
L 425.550841 374.277019 
L 427.504327 375.341833 
L 431.411298 377.059097 
L 435.318269 378.389317 
L 439.22524 379.465349 
L 443.132211 380.344484 
L 447.039182 381.046913 
L 452.899638 381.840265 
L 468.527522 383.525465 
L 474.387978 384.004995 
L 480.248435 384.291861 
L 488.062377 384.442312 
L 491.969348 384.465666 
L 491.969348 384.465666 
" clip-path="url(#p2f222dc370)" style="fill: none; stroke: #2ca02c; stroke-width: 1.5; stroke-linecap: round"/>
   </g>
   <g id="line2d_16">
    <path d="M 101.02527 384.470584 
L 112.631184 384.361997 
L 120.368461 384.088122 
L 128.105737 383.554849 
L 135.843013 382.798667 
L 143.580289 381.855619 
L 151.317565 380.675971 
L 160.989161 378.923025 
L 172.595075 376.541594 
L 178.398032 375.505566 
L 182.26667 375.076359 
L 186.135308 374.893079 
L 193.872585 374.775004 
L 197.741223 374.406902 
L 199.675542 374.054105 
L 201.609861 373.566508 
L 203.54418 372.935471 
L 205.478499 372.158584 
L 207.412818 371.238988 
L 211.281456 369.007808 
L 215.150094 366.355916 
L 224.821689 359.203152 
L 228.690327 356.775559 
L 232.558966 354.835041 
L 236.427604 353.294654 
L 240.296242 351.858519 
L 242.230561 351.053065 
L 244.16488 350.122184 
L 246.099199 349.024833 
L 248.033518 347.732242 
L 249.967837 346.229917 
L 251.902156 344.517566 
L 253.836475 342.607018 
L 257.705113 338.275631 
L 261.573751 333.408841 
L 265.442389 328.083673 
L 269.311028 322.190306 
L 271.245347 318.947171 
L 273.179666 315.449964 
L 275.113985 311.658148 
L 277.048304 307.539831 
L 278.982623 303.077228 
L 280.916942 298.270746 
L 284.78558 287.728119 
L 288.654218 276.288988 
L 304.128771 229.040789 
L 307.997409 216.047006 
L 309.931728 208.979946 
L 313.800366 193.609484 
L 321.537642 161.007644 
L 323.471961 153.786229 
L 325.40628 147.536285 
L 327.340599 142.560221 
L 329.274918 139.124376 
L 331.209237 137.437764 
L 333.143556 137.635454 
L 335.077875 139.76825 
L 337.012194 143.799596 
L 338.946513 149.609845 
L 340.880833 157.007145 
L 342.815152 165.743527 
L 344.749471 175.53426 
L 348.618109 197.077831 
L 354.421066 230.204104 
L 358.289704 250.480678 
L 360.224023 259.731704 
L 362.158342 268.329388 
L 364.092661 276.263924 
L 366.02698 283.5458 
L 367.961299 290.198891 
L 369.895618 296.254759 
L 371.829937 301.748524 
L 373.764256 306.716415 
L 375.698575 311.194877 
L 377.632894 315.220963 
L 379.567214 318.833601 
L 381.501533 322.075252 
L 383.435852 324.993473 
L 385.370171 327.64187 
L 389.238809 332.372359 
L 396.976085 341.350626 
L 400.844723 346.375091 
L 404.713361 351.866261 
L 410.516318 360.323457 
L 414.384956 365.461414 
L 416.319276 367.733055 
L 418.253595 369.767108 
L 420.187914 371.551797 
L 422.122233 373.088738 
L 424.056552 374.390757 
L 425.990871 375.478987 
L 427.92519 376.379774 
L 429.859509 377.121834 
L 433.728147 378.243423 
L 437.596785 379.050569 
L 458.874295 382.678253 
L 464.677252 383.519888 
L 470.480209 384.06248 
L 476.283166 384.333818 
L 485.954761 384.464598 
L 485.954761 384.464598 
" clip-path="url(#p2f222dc370)" style="fill: none; stroke: #d62728; stroke-width: 1.5; stroke-linecap: round"/>
   </g>
   <g id="line2d_17">
    <path d="M 102.892511 384.468976 
L 114.58086 384.33739 
L 122.373092 383.998742 
L 128.217266 383.533673 
L 136.009499 382.669005 
L 141.853673 381.85027 
L 147.697848 380.768785 
L 151.593964 379.835646 
L 157.438138 378.173108 
L 163.282313 376.548375 
L 167.178429 375.757141 
L 171.074545 375.344101 
L 174.970661 375.326963 
L 178.866777 375.603751 
L 184.710952 376.11505 
L 188.607068 376.172967 
L 190.555126 376.046495 
L 192.503184 375.800565 
L 194.451242 375.43329 
L 198.347359 374.361998 
L 202.243475 372.928906 
L 206.139591 371.238933 
L 210.035707 369.335321 
L 213.931823 367.183257 
L 217.82794 364.723318 
L 221.724056 361.958738 
L 231.464346 354.664407 
L 235.360463 352.036809 
L 247.048811 344.658006 
L 250.944928 341.817561 
L 254.841044 338.637575 
L 258.73716 335.06529 
L 260.685218 333.088698 
L 262.633276 330.941925 
L 264.581334 328.57952 
L 266.529393 325.948178 
L 268.477451 322.990838 
L 270.425509 319.652022 
L 272.373567 315.883756 
L 274.321625 311.651379 
L 276.269683 306.938502 
L 278.217741 301.750455 
L 280.165799 296.115778 
L 284.061916 283.730083 
L 289.90609 263.598367 
L 295.750264 243.695622 
L 299.64638 231.278937 
L 305.490555 213.720964 
L 311.334729 196.151316 
L 319.126962 172.280145 
L 321.07502 166.909616 
L 323.023078 162.169523 
L 324.971136 158.288039 
L 326.919194 155.480805 
L 328.867252 153.931046 
L 330.81531 153.77319 
L 332.763368 155.081945 
L 334.711426 157.867812 
L 336.659485 162.078891 
L 338.607543 167.607889 
L 340.555601 174.302677 
L 342.503659 181.97858 
L 344.451717 190.43081 
L 348.347833 208.812181 
L 354.192008 237.089086 
L 358.088124 254.553912 
L 360.036182 262.560815 
L 361.98424 270.01843 
L 363.932298 276.912459 
L 365.880356 283.250738 
L 367.828414 289.056966 
L 369.776473 294.364272 
L 371.724531 299.209684 
L 373.672589 303.630336 
L 375.620647 307.66189 
L 377.568705 311.339143 
L 379.516763 314.698267 
L 381.464821 317.779779 
L 385.360937 323.308001 
L 395.101228 336.309243 
L 398.997344 342.263738 
L 402.89346 348.731915 
L 408.737635 358.505554 
L 410.685693 361.516004 
L 412.633751 364.304947 
L 414.581809 366.833504 
L 416.529867 369.079583 
L 418.477925 371.037633 
L 420.425983 372.716673 
L 422.374042 374.137145 
L 424.3221 375.327218 
L 426.270158 376.319096 
L 428.218216 377.145761 
L 432.114332 378.424892 
L 436.010448 379.368255 
L 441.854623 380.434479 
L 449.646855 381.551877 
L 463.283262 383.260645 
L 469.127436 383.823427 
L 474.971611 384.18895 
L 482.763843 384.40934 
L 490.556076 384.46846 
L 490.556076 384.46846 
" clip-path="url(#p2f222dc370)" style="fill: none; stroke: #9467bd; stroke-width: 1.5; stroke-linecap: round"/>
   </g>
   <g id="line2d_18">
    <path d="M 100.900685 384.466646 
L 112.507371 384.316461 
L 118.310713 384.067463 
L 124.114056 383.630889 
L 131.851846 382.78118 
L 139.589636 381.692101 
L 145.392979 380.625987 
L 151.196321 379.252609 
L 160.868559 376.800635 
L 164.737454 376.121081 
L 168.606349 375.760616 
L 172.475244 375.718677 
L 178.278587 376.052943 
L 184.08193 376.418626 
L 187.950825 376.433358 
L 191.81972 376.139266 
L 195.688615 375.472787 
L 199.55751 374.399813 
L 203.426405 372.906045 
L 207.2953 370.995618 
L 211.164195 368.699718 
L 215.03309 366.088582 
L 220.836433 361.829714 
L 228.574223 356.12229 
L 245.984251 343.520014 
L 255.656489 336.196209 
L 259.525384 332.833838 
L 261.459831 330.897543 
L 263.394279 328.715165 
L 265.328726 326.226357 
L 267.263174 323.372105 
L 269.197621 320.098729 
L 271.132069 316.362446 
L 273.066516 312.134348 
L 275.000964 307.405371 
L 276.935411 302.190608 
L 278.869859 296.532113 
L 282.738754 284.186368 
L 290.476544 258.455883 
L 294.345439 246.712994 
L 298.214334 236.07858 
L 304.017677 220.897239 
L 307.886572 209.898063 
L 309.82102 203.863122 
L 313.689915 190.762472 
L 317.55881 177.127988 
L 319.493257 170.655358 
L 321.427705 164.783491 
L 323.362152 159.802088 
L 325.2966 155.97981 
L 327.231047 153.540948 
L 329.165495 152.646805 
L 331.099943 153.383783 
L 333.03439 155.759192 
L 334.968838 159.704697 
L 336.903285 165.0863 
L 338.837733 171.718978 
L 340.77218 179.383718 
L 342.706628 187.844679 
L 346.575523 206.217009 
L 352.378865 234.327841 
L 356.247761 251.634066 
L 358.182208 259.554742 
L 360.116656 266.912795 
L 362.051103 273.682683 
L 363.985551 279.86177 
L 365.919998 285.468781 
L 367.854446 290.541483 
L 369.788893 295.133433 
L 371.723341 299.309847 
L 373.657788 303.142827 
L 377.526683 310.071502 
L 383.330026 319.563773 
L 400.740054 347.353874 
L 404.608949 353.054889 
L 408.477844 358.330159 
L 412.346739 363.073669 
L 416.215634 367.199593 
L 418.150082 369.014086 
L 420.084529 370.65998 
L 422.018977 372.139075 
L 423.953424 373.456146 
L 425.887872 374.618541 
L 427.822319 375.635733 
L 431.691215 377.280646 
L 435.56011 378.495716 
L 439.429005 379.40073 
L 445.232347 380.444608 
L 462.642375 383.242635 
L 468.445718 383.880867 
L 474.24906 384.243993 
L 481.986851 384.431312 
L 485.855746 384.460916 
L 485.855746 384.460916 
" clip-path="url(#p2f222dc370)" style="fill: none; stroke: #8c564b; stroke-width: 1.5; stroke-linecap: round"/>
   </g>
   <g id="line2d_19">
    <path d="M 96.71904 384.470799 
L 108.615153 384.364479 
L 116.545895 384.096257 
L 124.476637 383.575769 
L 132.407379 382.842989 
L 140.338121 381.902688 
L 146.286178 380.939388 
L 152.234235 379.667284 
L 162.147662 377.295912 
L 166.113033 376.59334 
L 170.078404 376.188342 
L 174.043776 376.086684 
L 185.939889 376.320876 
L 189.90526 375.989596 
L 193.870631 375.2549 
L 197.836002 374.110113 
L 201.801373 372.612543 
L 205.766744 370.853558 
L 211.714801 367.917966 
L 217.662857 364.759626 
L 223.610914 361.316891 
L 227.576285 358.781027 
L 233.524342 354.602192 
L 241.455084 348.843129 
L 247.40314 344.875696 
L 253.351197 340.944794 
L 255.333882 339.46965 
L 257.316568 337.82964 
L 259.299253 335.974577 
L 261.281939 333.857447 
L 263.264625 331.435868 
L 265.24731 328.672833 
L 267.229996 325.537174 
L 269.212681 322.004254 
L 271.195367 318.057254 
L 273.178052 313.689122 
L 275.160738 308.904859 
L 277.143423 303.723542 
L 281.108794 292.320779 
L 285.074165 279.909285 
L 298.952964 235.209881 
L 308.866392 204.537369 
L 312.831763 192.85583 
L 314.814448 187.415538 
L 316.797134 182.400058 
L 318.77982 177.938887 
L 320.762505 174.15664 
L 322.745191 171.161304 
L 324.727876 169.034462 
L 326.710562 167.825116 
L 328.693247 167.548075 
L 330.675933 168.186963 
L 332.658618 169.700977 
L 334.641304 172.033797 
L 336.623989 175.122679 
L 338.606675 178.905879 
L 340.58936 183.327065 
L 342.572046 188.336198 
L 344.554731 193.887237 
L 346.537417 199.933788 
L 348.520103 206.424214 
L 352.485474 220.482822 
L 358.43353 243.064306 
L 364.381587 265.393298 
L 368.346958 279.236914 
L 372.312329 291.874202 
L 374.295014 297.68429 
L 376.2777 303.136988 
L 378.260386 308.225055 
L 380.243071 312.947314 
L 382.225757 317.309848 
L 384.208442 321.327048 
L 386.191128 325.02209 
L 388.173813 328.426583 
L 392.139184 334.524182 
L 396.104555 339.975463 
L 409.983354 357.986886 
L 413.948725 363.043621 
L 417.914096 367.723885 
L 419.896782 369.834224 
L 421.879467 371.750725 
L 423.862153 373.451759 
L 425.844838 374.924985 
L 427.827524 376.168179 
L 429.810209 377.189144 
L 431.792895 378.004775 
L 433.775581 378.639416 
L 435.758266 379.122736 
L 439.723637 379.766306 
L 455.585121 381.672945 
L 465.498549 383.22 
L 471.446606 383.872917 
L 477.394662 384.240915 
L 485.325404 384.430284 
L 491.273461 384.468132 
L 491.273461 384.468132 
" clip-path="url(#p2f222dc370)" style="fill: none; stroke: #e377c2; stroke-width: 1.5; stroke-linecap: round"/>
   </g>
   <g id="line2d_20">
    <path d="M 98.120346 384.468854 
L 109.937297 384.338327 
L 117.815264 384.00721 
L 125.693231 383.380197 
L 135.54069 382.324917 
L 141.449166 381.527443 
L 145.38815 380.838052 
L 151.296625 379.508301 
L 159.174592 377.563542 
L 163.113576 376.832455 
L 167.05256 376.413266 
L 170.991543 376.303439 
L 180.839002 376.408929 
L 184.777986 376.047377 
L 186.747478 375.696651 
L 188.71697 375.223843 
L 192.655953 373.933587 
L 196.594937 372.286902 
L 220.228839 361.397555 
L 224.167823 359.122023 
L 228.106806 356.562241 
L 239.923757 348.303451 
L 245.832233 344.124628 
L 249.771216 341.055053 
L 253.7102 337.522155 
L 255.679692 335.523254 
L 257.649184 333.340141 
L 259.618675 330.950171 
L 261.588167 328.328544 
L 263.557659 325.447639 
L 265.527151 322.277449 
L 267.496643 318.787333 
L 269.466135 314.949057 
L 271.435626 310.740758 
L 273.405118 306.15125 
L 275.37461 301.18392 
L 279.313594 290.216822 
L 283.252577 278.213992 
L 293.100036 247.432462 
L 297.03902 235.96036 
L 300.978004 225.103701 
L 306.886479 209.645162 
L 310.825463 199.86786 
L 314.764446 190.877061 
L 316.733938 186.870465 
L 318.70343 183.318169 
L 320.672922 180.320504 
L 322.642414 177.971797 
L 324.611906 176.352883 
L 326.581397 175.524578 
L 328.550889 175.522747 
L 330.520381 176.355488 
L 332.489873 178.002755 
L 334.459365 180.418511 
L 336.428857 183.535212 
L 338.398348 187.270147 
L 340.36784 191.532931 
L 342.337332 196.233265 
L 346.276316 206.627036 
L 350.215299 217.958925 
L 354.154283 229.992594 
L 358.093267 242.670059 
L 364.001742 262.749087 
L 371.879709 289.908734 
L 375.818693 302.463366 
L 377.788185 308.245147 
L 379.757677 313.633316 
L 381.727169 318.602291 
L 383.69666 323.145768 
L 385.666152 327.276265 
L 387.635644 331.023126 
L 389.605136 334.429271 
L 391.574628 337.547032 
L 395.513611 343.145612 
L 399.452595 348.24822 
L 407.330562 357.973553 
L 411.269546 362.614496 
L 415.20853 366.887062 
L 417.178021 368.822753 
L 419.147513 370.599854 
L 421.117005 372.208055 
L 423.086497 373.644195 
L 425.055989 374.911639 
L 427.02548 376.01906 
L 428.994972 376.978956 
L 432.933956 378.516634 
L 436.87294 379.651017 
L 440.811923 380.502433 
L 446.720399 381.468376 
L 456.567858 382.759203 
L 464.445825 383.606237 
L 470.354301 384.046843 
L 478.232268 384.35396 
L 488.079727 384.464002 
L 490.049219 384.470152 
L 490.049219 384.470152 
" clip-path="url(#p2f222dc370)" style="fill: none; stroke: #7f7f7f; stroke-width: 1.5; stroke-linecap: round"/>
   </g>
   <g id="line2d_21">
    <path d="M 92.290909 384.471015 
L 106.237277 384.326638 
L 114.20663 384.027755 
L 124.168322 383.396709 
L 136.122351 382.467271 
L 142.099366 381.770087 
L 146.084043 381.104899 
L 150.068719 380.25649 
L 158.038072 378.223627 
L 162.022749 377.263682 
L 166.007425 376.512255 
L 169.992102 376.053211 
L 173.976779 375.890321 
L 183.93847 375.930075 
L 185.930808 375.795721 
L 187.923147 375.546146 
L 189.915485 375.160089 
L 191.907823 374.624249 
L 193.900161 373.93478 
L 195.8925 373.097939 
L 199.877176 371.05454 
L 205.854191 367.501961 
L 209.838868 365.166954 
L 213.823544 363.032418 
L 225.777574 357.057967 
L 229.76225 354.565925 
L 231.754589 353.127694 
L 233.746927 351.548511 
L 237.731604 347.970857 
L 241.71628 343.911385 
L 247.693295 337.316315 
L 255.662648 328.553483 
L 261.639663 321.959497 
L 263.632001 319.558282 
L 265.624339 316.951982 
L 267.616678 314.074397 
L 269.609016 310.865185 
L 271.601354 307.276111 
L 273.593693 303.276328 
L 275.586031 298.855925 
L 277.578369 294.027223 
L 279.570707 288.823634 
L 283.555384 277.509225 
L 289.532399 259.302143 
L 295.509414 241.181811 
L 299.49409 229.769801 
L 303.478767 219.131123 
L 307.463443 209.368789 
L 311.44812 200.560682 
L 313.440458 196.55031 
L 315.432796 192.834166 
L 317.425135 189.446653 
L 319.417473 186.430792 
L 321.409811 183.836814 
L 323.40215 181.719494 
L 325.394488 180.13453 
L 327.386826 179.134431 
L 329.379164 178.764436 
L 331.371503 179.058983 
L 333.363841 180.039138 
L 335.356179 181.711252 
L 337.348518 184.066963 
L 339.340856 187.084496 
L 341.333194 190.731082 
L 343.325532 194.966177 
L 345.317871 199.745042 
L 347.310209 205.022164 
L 349.302547 210.753969 
L 351.294885 216.900331 
L 355.279562 230.291649 
L 359.264239 244.904491 
L 365.241253 268.244982 
L 371.218268 291.401445 
L 375.202945 305.432024 
L 377.195283 311.764507 
L 379.187621 317.569393 
L 381.17996 322.824857 
L 383.172298 327.535872 
L 385.164636 331.731547 
L 387.156975 335.460155 
L 389.149313 338.782702 
L 391.141651 341.766086 
L 393.133989 344.476823 
L 397.118666 349.31646 
L 401.103342 353.680158 
L 407.080357 359.783659 
L 413.057372 365.527909 
L 417.042049 369.080845 
L 421.026725 372.28231 
L 425.011402 375.011903 
L 427.00374 376.173217 
L 428.996078 377.193853 
L 430.988417 378.076803 
L 434.973093 379.466835 
L 438.95777 380.454212 
L 442.942446 381.177472 
L 450.911799 382.280932 
L 460.873491 383.429212 
L 466.850506 383.929903 
L 472.827521 384.240533 
L 480.796874 384.422331 
L 488.766227 384.470542 
L 488.766227 384.470542 
" clip-path="url(#p2f222dc370)" style="fill: none; stroke: #bcbd22; stroke-width: 1.5; stroke-linecap: round"/>
   </g>
   <g id="line2d_22">
    <path d="M 97.750535 384.470722 
L 109.639944 384.364931 
L 117.566216 384.096041 
L 125.492489 383.566869 
L 135.400329 382.609771 
L 143.326602 381.652538 
L 151.252875 380.429705 
L 190.884237 373.455748 
L 194.847374 372.510814 
L 198.81051 371.314306 
L 202.773646 369.777806 
L 206.736782 367.855629 
L 210.699919 365.56324 
L 214.663055 362.96982 
L 220.607759 358.723366 
L 236.460305 347.072536 
L 248.349713 338.559082 
L 252.31285 335.336324 
L 254.294418 333.551698 
L 256.275986 331.615401 
L 258.257554 329.498419 
L 260.239122 327.170282 
L 262.22069 324.5994 
L 264.202259 321.75387 
L 266.183827 318.602919 
L 268.165395 315.118998 
L 270.146963 311.280416 
L 272.128531 307.074193 
L 274.110099 302.498728 
L 276.091667 297.565773 
L 280.054804 286.744806 
L 284.01794 274.968378 
L 295.907349 238.58586 
L 299.870485 227.292507 
L 303.833621 216.698581 
L 307.796758 206.875624 
L 311.759894 197.93591 
L 313.741462 193.86251 
L 315.72303 190.108195 
L 317.704598 186.727912 
L 319.686166 183.786478 
L 321.667735 181.355528 
L 323.649303 179.508773 
L 325.630871 178.315983 
L 327.612439 177.836481 
L 329.594007 178.113131 
L 331.575575 179.167834 
L 333.557143 180.99932 
L 335.538712 183.583607 
L 337.52028 186.877026 
L 339.501848 190.821188 
L 341.483416 195.348915 
L 343.464984 200.390038 
L 345.446552 205.87606 
L 349.409689 217.932291 
L 353.372825 231.063942 
L 359.317529 251.863829 
L 365.262234 272.663141 
L 369.22537 285.803909 
L 373.188506 297.963969 
L 377.151642 308.93182 
L 379.133211 313.935021 
L 381.114779 318.613865 
L 383.096347 322.974092 
L 385.077915 327.028256 
L 387.059483 330.795281 
L 389.041051 334.299448 
L 393.004188 340.632638 
L 396.967324 346.255858 
L 400.93046 351.353377 
L 404.893596 356.031764 
L 408.856733 360.334411 
L 412.819869 364.278627 
L 416.783005 367.876482 
L 420.746142 371.126405 
L 424.709278 373.99561 
L 428.672414 376.420967 
L 430.653982 377.445692 
L 432.63555 378.336979 
L 434.617119 379.093078 
L 436.598687 379.716837 
L 440.561823 380.603759 
L 444.524959 381.115462 
L 452.451232 381.672153 
L 458.395936 382.191081 
L 476.230049 384.073976 
L 482.174754 384.333076 
L 492.082595 384.463768 
L 492.082595 384.463768 
" clip-path="url(#p2f222dc370)" style="fill: none; stroke: #17becf; stroke-width: 1.5; stroke-linecap: round"/>
   </g>
   <g id="line2d_23">
    <path d="M 97.978282 384.470117 
L 109.611243 384.360916 
L 117.366551 384.082387 
L 125.121859 383.530007 
L 134.815993 382.558752 
L 144.510128 381.412538 
L 152.265435 380.227349 
L 167.776051 377.656009 
L 173.592532 376.666611 
L 177.470185 375.839103 
L 181.347839 374.831135 
L 187.16432 373.027313 
L 192.980801 370.992121 
L 198.797282 368.742479 
L 204.613762 366.18001 
L 210.430243 363.264244 
L 216.246724 360.03643 
L 220.124378 357.694992 
L 224.002032 355.138909 
L 227.879685 352.30178 
L 231.757339 349.155981 
L 237.57382 343.981342 
L 245.329128 336.925216 
L 256.962089 326.732132 
L 258.900916 324.784875 
L 260.839743 322.6463 
L 262.77857 320.270236 
L 264.717397 317.617587 
L 266.656224 314.659178 
L 268.595051 311.377347 
L 270.533878 307.766132 
L 272.472705 303.830167 
L 274.411531 299.582677 
L 278.289185 290.23478 
L 282.166839 279.916732 
L 286.044493 268.855333 
L 293.799801 245.617646 
L 299.616281 228.512139 
L 303.493935 217.815045 
L 307.371589 207.897021 
L 311.249243 198.90973 
L 313.18807 194.837651 
L 315.126897 191.107558 
L 317.065724 187.780635 
L 319.004551 184.927756 
L 320.943378 182.624597 
L 322.882204 180.945205 
L 324.821031 179.954968 
L 326.759858 179.704039 
L 328.698685 180.222145 
L 330.637512 181.515455 
L 332.576339 183.565796 
L 334.515166 186.332184 
L 336.453993 189.754307 
L 338.39282 193.757416 
L 340.331647 198.257974 
L 342.270474 203.169468 
L 346.148128 213.895851 
L 350.025781 225.36634 
L 357.781089 249.186479 
L 369.414051 285.119788 
L 373.291704 296.53836 
L 377.169358 307.267007 
L 381.047012 317.104913 
L 384.924666 325.96254 
L 388.80232 333.853522 
L 392.679974 340.849567 
L 396.557627 347.041129 
L 400.435281 352.527142 
L 404.312935 357.41968 
L 408.190589 361.833823 
L 412.068243 365.853434 
L 415.945897 369.495714 
L 419.823551 372.706662 
L 421.762377 374.122478 
L 423.701204 375.397714 
L 425.640031 376.525469 
L 427.578858 377.503474 
L 429.517685 378.334821 
L 431.456512 379.028059 
L 435.334166 380.058206 
L 439.21182 380.741195 
L 446.967127 381.690451 
L 466.355397 383.93618 
L 472.171877 384.259822 
L 479.927185 384.432618 
L 483.804839 384.460967 
L 483.804839 384.460967 
" clip-path="url(#p2f222dc370)" style="fill: none; stroke: #1f77b4; stroke-width: 1.5; stroke-linecap: round"/>
   </g>
   <g id="line2d_24">
    <path d="M 101.881355 384.468096 
L 113.384309 384.338572 
L 121.052945 384.021457 
L 128.721581 383.443672 
L 147.893171 381.648774 
L 151.727489 381.081378 
L 157.478966 379.937612 
L 167.064761 377.838589 
L 170.899079 377.200137 
L 178.567715 376.2511 
L 182.402033 375.706513 
L 186.236351 374.922848 
L 190.070669 373.793541 
L 193.904987 372.27792 
L 197.739305 370.411763 
L 203.490782 367.194216 
L 213.076577 361.744997 
L 218.828054 358.515215 
L 222.662372 356.132805 
L 226.49669 353.425963 
L 230.331008 350.390821 
L 243.751121 339.208247 
L 253.336916 331.689622 
L 255.254075 329.964946 
L 257.171234 328.070186 
L 259.088393 325.963458 
L 261.005552 323.607075 
L 262.922711 320.969949 
L 264.83987 318.029684 
L 266.757029 314.77416 
L 268.674188 311.202437 
L 270.591347 307.324837 
L 274.425665 298.744066 
L 278.259983 289.291275 
L 284.01146 274.187748 
L 293.597255 248.824555 
L 301.265891 229.390841 
L 314.686004 195.918461 
L 316.603163 191.522675 
L 318.520322 187.47068 
L 320.437481 183.885514 
L 322.35464 180.889494 
L 324.271799 178.593263 
L 326.188958 177.085742 
L 328.106117 176.42648 
L 330.023276 176.641529 
L 331.940435 177.723358 
L 333.857594 179.634634 
L 335.774753 182.315045 
L 337.691912 185.689837 
L 339.609071 189.67856 
L 341.52623 194.202609 
L 343.443389 199.190502 
L 345.360548 204.580393 
L 349.194867 216.363911 
L 353.029185 229.200204 
L 358.780662 249.661471 
L 366.449298 277.003158 
L 370.283616 289.769833 
L 374.117934 301.523082 
L 377.952252 312.088721 
L 379.869411 316.90021 
L 381.78657 321.396065 
L 383.703729 325.582695 
L 385.620888 329.472044 
L 387.538047 333.080868 
L 389.455206 336.429697 
L 391.372365 339.54155 
L 395.206683 345.150794 
L 399.041001 350.094712 
L 402.875319 354.533741 
L 406.709637 358.593208 
L 410.543955 362.357881 
L 414.378273 365.86159 
L 418.212591 369.080534 
L 422.046909 371.947852 
L 425.881227 374.39368 
L 429.715545 376.391116 
L 433.549863 377.978944 
L 437.384181 379.247182 
L 441.218499 380.297656 
L 446.969976 381.619473 
L 452.721453 382.699462 
L 458.47293 383.506322 
L 464.224407 384.02298 
L 469.975884 384.29886 
L 479.561679 384.454271 
L 483.395997 384.469872 
L 483.395997 384.469872 
" clip-path="url(#p2f222dc370)" style="fill: none; stroke: #ff7f0e; stroke-width: 1.5; stroke-linecap: round"/>
   </g>
   <g id="line2d_25">
    <path d="M 116.193988 384.468467 
L 126.983052 384.347601 
L 132.377584 384.128661 
L 137.772117 383.679176 
L 141.368471 383.199372 
L 144.964826 382.55215 
L 150.359358 381.28006 
L 164.744777 377.388568 
L 168.341132 376.693522 
L 171.937487 376.180548 
L 179.130196 375.482677 
L 184.524728 374.851083 
L 188.121083 374.181495 
L 191.717438 373.229269 
L 195.313793 371.962797 
L 198.910147 370.37966 
L 202.506502 368.493728 
L 206.102857 366.324467 
L 209.699212 363.894669 
L 213.295566 361.237604 
L 218.690099 356.957613 
L 225.882808 351.25806 
L 229.479163 348.719183 
L 233.075518 346.538986 
L 236.671872 344.732729 
L 245.662759 340.769321 
L 247.460937 339.761633 
L 249.259114 338.576756 
L 251.057291 337.175316 
L 252.855469 335.525925 
L 254.653646 333.606957 
L 256.451824 331.407296 
L 258.250001 328.925988 
L 260.048178 326.170893 
L 261.846356 323.156574 
L 265.44271 316.427027 
L 269.039065 308.896523 
L 272.63542 300.70552 
L 276.231775 291.976797 
L 281.626307 278.206365 
L 288.819016 259.725092 
L 294.213549 246.619083 
L 301.406258 230.064665 
L 313.9935 201.185477 
L 315.791677 197.411071 
L 317.589854 193.915719 
L 319.388032 190.779211 
L 321.186209 188.07783 
L 322.984387 185.879938 
L 324.782564 184.242364 
L 326.580741 183.20785 
L 328.378919 182.803664 
L 330.177096 183.041386 
L 331.975274 183.917718 
L 333.773451 185.416147 
L 335.571628 187.509176 
L 337.369806 190.160852 
L 339.167983 193.329335 
L 340.96616 196.969275 
L 342.764338 201.033803 
L 344.562515 205.476046 
L 348.15887 215.311474 
L 351.755225 226.125595 
L 357.149757 243.463778 
L 366.140644 272.838903 
L 369.736998 284.053862 
L 373.333353 294.736418 
L 376.929708 304.798243 
L 380.526063 314.154974 
L 384.122417 322.706666 
L 387.718772 330.350443 
L 389.51695 333.808454 
L 391.315127 337.020052 
L 393.113304 339.989753 
L 394.911482 342.728527 
L 398.507837 347.587 
L 402.104191 351.785458 
L 405.700546 355.541108 
L 411.095078 360.722279 
L 416.48961 365.567472 
L 420.085965 368.566018 
L 423.68232 371.301977 
L 427.278675 373.730232 
L 430.875029 375.84549 
L 434.471384 377.673428 
L 438.067739 379.248083 
L 441.664094 380.592574 
L 445.260448 381.713977 
L 448.856803 382.611765 
L 452.453158 383.291055 
L 456.049513 383.771263 
L 461.444045 384.194195 
L 468.636754 384.414484 
L 474.031286 384.462316 
L 474.031286 384.462316 
" clip-path="url(#p2f222dc370)" style="fill: none; stroke: #2ca02c; stroke-width: 1.5; stroke-linecap: round"/>
   </g>
   <g id="line2d_26">
    <path d="M 118.814294 384.456406 
L 128.186148 384.289981 
L 133.80926 383.968343 
L 137.558002 383.588912 
L 141.306743 383.049475 
L 146.929856 381.960575 
L 161.924822 378.702573 
L 167.547935 377.763749 
L 175.045418 376.723648 
L 188.166013 374.966427 
L 191.914755 374.170071 
L 195.663497 373.010977 
L 197.537867 372.252977 
L 199.412238 371.359921 
L 201.286609 370.326673 
L 205.035351 367.854806 
L 208.784092 364.942704 
L 218.155946 357.184861 
L 221.904688 354.476583 
L 225.653429 352.169196 
L 229.402171 350.232198 
L 235.025283 347.756498 
L 240.648396 345.272354 
L 244.397137 343.288165 
L 246.271508 342.127251 
L 248.145879 340.826396 
L 250.02025 339.368381 
L 251.894621 337.739047 
L 253.768991 335.92723 
L 255.643362 333.924344 
L 257.517733 331.723684 
L 259.392104 329.319627 
L 261.266475 326.706971 
L 263.140845 323.880633 
L 265.015216 320.835895 
L 268.763958 314.079775 
L 272.512699 306.451413 
L 276.261441 298.053317 
L 281.884553 284.497778 
L 291.256407 261.544172 
L 304.377003 230.051696 
L 315.623228 202.284564 
L 317.497599 198.186127 
L 319.371969 194.463227 
L 321.24634 191.205337 
L 323.120711 188.492069 
L 324.995082 186.387542 
L 326.869453 184.936265 
L 328.743823 184.161052 
L 330.618194 184.063224 
L 332.492565 184.624959 
L 334.366936 185.813399 
L 336.241307 187.585839 
L 338.115677 189.895219 
L 339.990048 192.695151 
L 341.864419 195.9438 
L 343.73879 199.606167 
L 345.613161 203.654552 
L 347.487531 208.067277 
L 349.361902 212.825975 
L 353.110644 223.302594 
L 356.859385 234.867281 
L 362.482498 253.433076 
L 368.10561 271.959227 
L 371.854352 283.539383 
L 375.603093 294.234008 
L 379.351835 304.040175 
L 383.100577 313.076147 
L 386.849318 321.474656 
L 390.59806 329.305215 
L 394.346801 336.552245 
L 398.095543 343.142167 
L 401.844285 348.993306 
L 403.718655 351.625774 
L 405.593026 354.061819 
L 407.467397 356.306146 
L 409.341768 358.367764 
L 413.090509 361.997397 
L 416.839251 365.084821 
L 420.587993 367.779277 
L 424.336734 370.207669 
L 429.959847 373.500286 
L 433.708588 375.468654 
L 437.45733 377.216836 
L 441.206071 378.712954 
L 444.954813 379.951751 
L 448.703555 380.957668 
L 452.452296 381.772384 
L 458.075409 382.72435 
L 463.698521 383.427423 
L 469.321633 383.91709 
L 476.819117 384.285057 
L 486.190971 384.446085 
L 491.814083 384.47071 
L 491.814083 384.47071 
" clip-path="url(#p2f222dc370)" style="fill: none; stroke: #d62728; stroke-width: 1.5; stroke-linecap: round"/>
   </g>
   <g id="line2d_27">
    <path d="M 114.972413 384.468467 
L 126.524272 384.333433 
L 132.300202 384.08226 
L 138.076132 383.569052 
L 141.926752 383.031819 
L 145.777372 382.327106 
L 151.553301 381.011749 
L 161.179851 378.693339 
L 165.030471 377.962818 
L 168.881091 377.423638 
L 174.657021 376.916057 
L 180.432951 376.436226 
L 184.28357 375.832271 
L 186.20888 375.369875 
L 188.13419 374.772151 
L 190.0595 374.024492 
L 191.98481 373.119836 
L 193.91012 372.059998 
L 197.76074 369.529319 
L 201.61136 366.626141 
L 207.38729 362.196938 
L 211.23791 359.578773 
L 215.08853 357.39 
L 218.939149 355.604472 
L 224.715079 353.368272 
L 230.491009 351.157237 
L 234.341629 349.500305 
L 238.192249 347.616264 
L 242.042869 345.422221 
L 243.968179 344.167622 
L 245.893489 342.777655 
L 247.818799 341.225766 
L 249.744108 339.484272 
L 251.669418 337.526257 
L 253.594728 335.327338 
L 255.520038 332.867003 
L 257.445348 330.129365 
L 259.370658 327.10337 
L 261.295968 323.782664 
L 263.221278 320.165428 
L 265.146588 316.254522 
L 267.071898 312.058179 
L 270.922518 302.876932 
L 274.773138 292.848627 
L 284.399687 266.898767 
L 288.250307 257.443293 
L 292.100927 248.922463 
L 295.951547 241.216962 
L 301.727477 230.446343 
L 309.428717 216.005316 
L 315.204646 205.150591 
L 317.129956 201.755497 
L 319.055266 198.591079 
L 320.980576 195.741432 
L 322.905886 193.294371 
L 324.831196 191.33702 
L 326.756506 189.950809 
L 328.681816 189.206231 
L 330.607126 189.157907 
L 332.532436 189.840523 
L 334.457746 191.266137 
L 336.383056 193.423183 
L 338.308366 196.277271 
L 340.233676 199.773608 
L 342.158986 203.840718 
L 344.084296 208.394983 
L 347.934915 218.598966 
L 353.710845 235.29451 
L 359.486775 251.927084 
L 363.337395 262.453456 
L 369.113325 277.433128 
L 378.739875 302.15521 
L 386.441114 322.205544 
L 390.291734 331.464389 
L 392.217044 335.712615 
L 394.142354 339.659765 
L 396.067664 343.291365 
L 397.992974 346.609919 
L 399.918284 349.632565 
L 401.843594 352.386998 
L 403.768904 354.906436 
L 407.619524 359.371 
L 411.470144 363.232108 
L 415.320763 366.576835 
L 419.171383 369.400251 
L 421.096693 370.60911 
L 423.022003 371.684007 
L 426.872623 373.463514 
L 430.723243 374.844292 
L 434.573863 375.970311 
L 444.200413 378.429551 
L 453.826962 380.77167 
L 459.602892 381.967172 
L 465.378822 382.909645 
L 471.154752 383.588776 
L 476.930682 384.031247 
L 484.631921 384.337182 
L 494.258471 384.457964 
L 498.109091 384.471013 
L 498.109091 384.471013 
" clip-path="url(#p2f222dc370)" style="fill: none; stroke: #9467bd; stroke-width: 1.5; stroke-linecap: round"/>
   </g>
   <g id="patch_3">
    <path d="M 72 384.48 
L 72 51.84 
" style="fill: none; stroke: #ffffff; stroke-width: 0.8; stroke-linejoin: miter; stroke-linecap: square"/>
   </g>
   <g id="patch_4">
    <path d="M 518.4 384.48 
L 518.4 51.84 
" style="fill: none; stroke: #ffffff; stroke-width: 0.8; stroke-linejoin: miter; stroke-linecap: square"/>
   </g>
   <g id="patch_5">
    <path d="M 72 384.48 
L 518.4 384.48 
" style="fill: none; stroke: #ffffff; stroke-width: 0.8; stroke-linejoin: miter; stroke-linecap: square"/>
   </g>
   <g id="patch_6">
    <path d="M 72 51.84 
L 518.4 51.84 
" style="fill: none; stroke: #ffffff; stroke-width: 0.8; stroke-linejoin: miter; stroke-linecap: square"/>
   </g>
   <g id="legend_1">
    <g id="patch_7">
     <path d="M 447.717187 274.13375 
L 511.4 274.13375 
Q 513.4 274.13375 513.4 272.13375 
L 513.4 58.84 
Q 513.4 56.84 511.4 56.84 
L 447.717187 56.84 
Q 445.717187 56.84 445.717187 58.84 
L 445.717187 272.13375 
Q 445.717187 274.13375 447.717187 274.13375 
z
" style="fill: #eaeaf2; opacity: 0.8; stroke: #cccccc; stroke-linejoin: miter"/>
    </g>
    <g id="line2d_28">
     <path d="M 449.717187 64.5275 
L 459.717187 64.5275 
L 469.717187 64.5275 
" style="fill: none; stroke: #1f77b4; stroke-width: 1.5; stroke-linecap: round"/>
    </g>
    <g id="text_15">
     <!-- Day 1 -->
     <g style="fill: #262626" transform="translate(477.717187 68.0275) scale(0.1 -0.1)">
      <use xlink:href="#ArialMT-44"/>
      <use xlink:href="#ArialMT-61" x="72.216797"/>
      <use xlink:href="#ArialMT-79" x="127.832031"/>
      <use xlink:href="#ArialMT-20" x="177.832031"/>
      <use xlink:href="#ArialMT-31" x="205.615234"/>
     </g>
    </g>
    <g id="line2d_29">
     <path d="M 449.717187 78.819687 
L 459.717187 78.819687 
L 469.717187 78.819687 
" style="fill: none; stroke: #ff7f0e; stroke-width: 1.5; stroke-linecap: round"/>
    </g>
    <g id="text_16">
     <!-- Day 2 -->
     <g style="fill: #262626" transform="translate(477.717187 82.319687) scale(0.1 -0.1)">
      <use xlink:href="#ArialMT-44"/>
      <use xlink:href="#ArialMT-61" x="72.216797"/>
      <use xlink:href="#ArialMT-79" x="127.832031"/>
      <use xlink:href="#ArialMT-20" x="177.832031"/>
      <use xlink:href="#ArialMT-32" x="205.615234"/>
     </g>
    </g>
    <g id="line2d_30">
     <path d="M 449.717187 93.111875 
L 459.717187 93.111875 
L 469.717187 93.111875 
" style="fill: none; stroke: #2ca02c; stroke-width: 1.5; stroke-linecap: round"/>
    </g>
    <g id="text_17">
     <!-- Day 3 -->
     <g style="fill: #262626" transform="translate(477.717187 96.611875) scale(0.1 -0.1)">
      <defs>
       <path id="ArialMT-33" d="M 269 1209 
L 831 1284 
Q 928 806 1161 595 
Q 1394 384 1728 384 
Q 2125 384 2398 659 
Q 2672 934 2672 1341 
Q 2672 1728 2419 1979 
Q 2166 2231 1775 2231 
Q 1616 2231 1378 2169 
L 1441 2663 
Q 1497 2656 1531 2656 
Q 1891 2656 2178 2843 
Q 2466 3031 2466 3422 
Q 2466 3731 2256 3934 
Q 2047 4138 1716 4138 
Q 1388 4138 1169 3931 
Q 950 3725 888 3313 
L 325 3413 
Q 428 3978 793 4289 
Q 1159 4600 1703 4600 
Q 2078 4600 2393 4439 
Q 2709 4278 2876 4000 
Q 3044 3722 3044 3409 
Q 3044 3113 2884 2869 
Q 2725 2625 2413 2481 
Q 2819 2388 3044 2092 
Q 3269 1797 3269 1353 
Q 3269 753 2831 336 
Q 2394 -81 1725 -81 
Q 1122 -81 723 278 
Q 325 638 269 1209 
z
" transform="scale(0.015625)"/>
      </defs>
      <use xlink:href="#ArialMT-44"/>
      <use xlink:href="#ArialMT-61" x="72.216797"/>
      <use xlink:href="#ArialMT-79" x="127.832031"/>
      <use xlink:href="#ArialMT-20" x="177.832031"/>
      <use xlink:href="#ArialMT-33" x="205.615234"/>
     </g>
    </g>
    <g id="line2d_31">
     <path d="M 449.717187 107.374375 
L 459.717187 107.374375 
L 469.717187 107.374375 
" style="fill: none; stroke: #d62728; stroke-width: 1.5; stroke-linecap: round"/>
    </g>
    <g id="text_18">
     <!-- Day 4 -->
     <g style="fill: #262626" transform="translate(477.717187 110.874375) scale(0.1 -0.1)">
      <use xlink:href="#ArialMT-44"/>
      <use xlink:href="#ArialMT-61" x="72.216797"/>
      <use xlink:href="#ArialMT-79" x="127.832031"/>
      <use xlink:href="#ArialMT-20" x="177.832031"/>
      <use xlink:href="#ArialMT-34" x="205.615234"/>
     </g>
    </g>
    <g id="line2d_32">
     <path d="M 449.717187 121.636875 
L 459.717187 121.636875 
L 469.717187 121.636875 
" style="fill: none; stroke: #9467bd; stroke-width: 1.5; stroke-linecap: round"/>
    </g>
    <g id="text_19">
     <!-- Day 5 -->
     <g style="fill: #262626" transform="translate(477.717187 125.136875) scale(0.1 -0.1)">
      <defs>
       <path id="ArialMT-35" d="M 266 1200 
L 856 1250 
Q 922 819 1161 601 
Q 1400 384 1738 384 
Q 2144 384 2425 690 
Q 2706 997 2706 1503 
Q 2706 1984 2436 2262 
Q 2166 2541 1728 2541 
Q 1456 2541 1237 2417 
Q 1019 2294 894 2097 
L 366 2166 
L 809 4519 
L 3088 4519 
L 3088 3981 
L 1259 3981 
L 1013 2750 
Q 1425 3038 1878 3038 
Q 2478 3038 2890 2622 
Q 3303 2206 3303 1553 
Q 3303 931 2941 478 
Q 2500 -78 1738 -78 
Q 1113 -78 717 272 
Q 322 622 266 1200 
z
" transform="scale(0.015625)"/>
      </defs>
      <use xlink:href="#ArialMT-44"/>
      <use xlink:href="#ArialMT-61" x="72.216797"/>
      <use xlink:href="#ArialMT-79" x="127.832031"/>
      <use xlink:href="#ArialMT-20" x="177.832031"/>
      <use xlink:href="#ArialMT-35" x="205.615234"/>
     </g>
    </g>
    <g id="line2d_33">
     <path d="M 449.717187 135.929062 
L 459.717187 135.929062 
L 469.717187 135.929062 
" style="fill: none; stroke: #8c564b; stroke-width: 1.5; stroke-linecap: round"/>
    </g>
    <g id="text_20">
     <!-- Day 6 -->
     <g style="fill: #262626" transform="translate(477.717187 139.429062) scale(0.1 -0.1)">
      <use xlink:href="#ArialMT-44"/>
      <use xlink:href="#ArialMT-61" x="72.216797"/>
      <use xlink:href="#ArialMT-79" x="127.832031"/>
      <use xlink:href="#ArialMT-20" x="177.832031"/>
      <use xlink:href="#ArialMT-36" x="205.615234"/>
     </g>
    </g>
    <g id="line2d_34">
     <path d="M 449.717187 150.191562 
L 459.717187 150.191562 
L 469.717187 150.191562 
" style="fill: none; stroke: #e377c2; stroke-width: 1.5; stroke-linecap: round"/>
    </g>
    <g id="text_21">
     <!-- Day 7 -->
     <g style="fill: #262626" transform="translate(477.717187 153.691562) scale(0.1 -0.1)">
      <defs>
       <path id="ArialMT-37" d="M 303 3981 
L 303 4522 
L 3269 4522 
L 3269 4084 
Q 2831 3619 2401 2847 
Q 1972 2075 1738 1259 
Q 1569 684 1522 0 
L 944 0 
Q 953 541 1156 1306 
Q 1359 2072 1739 2783 
Q 2119 3494 2547 3981 
L 303 3981 
z
" transform="scale(0.015625)"/>
      </defs>
      <use xlink:href="#ArialMT-44"/>
      <use xlink:href="#ArialMT-61" x="72.216797"/>
      <use xlink:href="#ArialMT-79" x="127.832031"/>
      <use xlink:href="#ArialMT-20" x="177.832031"/>
      <use xlink:href="#ArialMT-37" x="205.615234"/>
     </g>
    </g>
    <g id="line2d_35">
     <path d="M 449.717187 164.48375 
L 459.717187 164.48375 
L 469.717187 164.48375 
" style="fill: none; stroke: #7f7f7f; stroke-width: 1.5; stroke-linecap: round"/>
    </g>
    <g id="text_22">
     <!-- Day 8 -->
     <g style="fill: #262626" transform="translate(477.717187 167.98375) scale(0.1 -0.1)">
      <use xlink:href="#ArialMT-44"/>
      <use xlink:href="#ArialMT-61" x="72.216797"/>
      <use xlink:href="#ArialMT-79" x="127.832031"/>
      <use xlink:href="#ArialMT-20" x="177.832031"/>
      <use xlink:href="#ArialMT-38" x="205.615234"/>
     </g>
    </g>
    <g id="line2d_36">
     <path d="M 449.717187 178.775937 
L 459.717187 178.775937 
L 469.717187 178.775937 
" style="fill: none; stroke: #bcbd22; stroke-width: 1.5; stroke-linecap: round"/>
    </g>
    <g id="text_23">
     <!-- Day 9 -->
     <g style="fill: #262626" transform="translate(477.717187 182.275937) scale(0.1 -0.1)">
      <defs>
       <path id="ArialMT-39" d="M 350 1059 
L 891 1109 
Q 959 728 1153 556 
Q 1347 384 1650 384 
Q 1909 384 2104 503 
Q 2300 622 2425 820 
Q 2550 1019 2634 1356 
Q 2719 1694 2719 2044 
Q 2719 2081 2716 2156 
Q 2547 1888 2255 1720 
Q 1963 1553 1622 1553 
Q 1053 1553 659 1965 
Q 266 2378 266 3053 
Q 266 3750 677 4175 
Q 1088 4600 1706 4600 
Q 2153 4600 2523 4359 
Q 2894 4119 3086 3673 
Q 3278 3228 3278 2384 
Q 3278 1506 3087 986 
Q 2897 466 2520 194 
Q 2144 -78 1638 -78 
Q 1100 -78 759 220 
Q 419 519 350 1059 
z
M 2653 3081 
Q 2653 3566 2395 3850 
Q 2138 4134 1775 4134 
Q 1400 4134 1122 3828 
Q 844 3522 844 3034 
Q 844 2597 1108 2323 
Q 1372 2050 1759 2050 
Q 2150 2050 2401 2323 
Q 2653 2597 2653 3081 
z
" transform="scale(0.015625)"/>
      </defs>
      <use xlink:href="#ArialMT-44"/>
      <use xlink:href="#ArialMT-61" x="72.216797"/>
      <use xlink:href="#ArialMT-79" x="127.832031"/>
      <use xlink:href="#ArialMT-20" x="177.832031"/>
      <use xlink:href="#ArialMT-39" x="205.615234"/>
     </g>
    </g>
    <g id="line2d_37">
     <path d="M 449.717187 193.068125 
L 459.717187 193.068125 
L 469.717187 193.068125 
" style="fill: none; stroke: #17becf; stroke-width: 1.5; stroke-linecap: round"/>
    </g>
    <g id="text_24">
     <!-- Day 10 -->
     <g style="fill: #262626" transform="translate(477.717187 196.568125) scale(0.1 -0.1)">
      <use xlink:href="#ArialMT-44"/>
      <use xlink:href="#ArialMT-61" x="72.216797"/>
      <use xlink:href="#ArialMT-79" x="127.832031"/>
      <use xlink:href="#ArialMT-20" x="177.832031"/>
      <use xlink:href="#ArialMT-31" x="205.615234"/>
      <use xlink:href="#ArialMT-30" x="261.230469"/>
     </g>
    </g>
    <g id="line2d_38">
     <path d="M 449.717187 207.360312 
L 459.717187 207.360312 
L 469.717187 207.360312 
" style="fill: none; stroke: #1f77b4; stroke-width: 1.5; stroke-linecap: round"/>
    </g>
    <g id="text_25">
     <!-- Day 11 -->
     <g style="fill: #262626" transform="translate(477.717187 210.860312) scale(0.1 -0.1)">
      <use xlink:href="#ArialMT-44"/>
      <use xlink:href="#ArialMT-61" x="72.216797"/>
      <use xlink:href="#ArialMT-79" x="127.832031"/>
      <use xlink:href="#ArialMT-20" x="177.832031"/>
      <use xlink:href="#ArialMT-31" x="205.615234"/>
      <use xlink:href="#ArialMT-31" x="253.855469"/>
     </g>
    </g>
    <g id="line2d_39">
     <path d="M 449.717187 221.6525 
L 459.717187 221.6525 
L 469.717187 221.6525 
" style="fill: none; stroke: #ff7f0e; stroke-width: 1.5; stroke-linecap: round"/>
    </g>
    <g id="text_26">
     <!-- Day 12 -->
     <g style="fill: #262626" transform="translate(477.717187 225.1525) scale(0.1 -0.1)">
      <use xlink:href="#ArialMT-44"/>
      <use xlink:href="#ArialMT-61" x="72.216797"/>
      <use xlink:href="#ArialMT-79" x="127.832031"/>
      <use xlink:href="#ArialMT-20" x="177.832031"/>
      <use xlink:href="#ArialMT-31" x="205.615234"/>
      <use xlink:href="#ArialMT-32" x="261.230469"/>
     </g>
    </g>
    <g id="line2d_40">
     <path d="M 449.717187 235.944687 
L 459.717187 235.944687 
L 469.717187 235.944687 
" style="fill: none; stroke: #2ca02c; stroke-width: 1.5; stroke-linecap: round"/>
    </g>
    <g id="text_27">
     <!-- Day 13 -->
     <g style="fill: #262626" transform="translate(477.717187 239.444687) scale(0.1 -0.1)">
      <use xlink:href="#ArialMT-44"/>
      <use xlink:href="#ArialMT-61" x="72.216797"/>
      <use xlink:href="#ArialMT-79" x="127.832031"/>
      <use xlink:href="#ArialMT-20" x="177.832031"/>
      <use xlink:href="#ArialMT-31" x="205.615234"/>
      <use xlink:href="#ArialMT-33" x="261.230469"/>
     </g>
    </g>
    <g id="line2d_41">
     <path d="M 449.717187 250.236875 
L 459.717187 250.236875 
L 469.717187 250.236875 
" style="fill: none; stroke: #d62728; stroke-width: 1.5; stroke-linecap: round"/>
    </g>
    <g id="text_28">
     <!-- Day 14 -->
     <g style="fill: #262626" transform="translate(477.717187 253.736875) scale(0.1 -0.1)">
      <use xlink:href="#ArialMT-44"/>
      <use xlink:href="#ArialMT-61" x="72.216797"/>
      <use xlink:href="#ArialMT-79" x="127.832031"/>
      <use xlink:href="#ArialMT-20" x="177.832031"/>
      <use xlink:href="#ArialMT-31" x="205.615234"/>
      <use xlink:href="#ArialMT-34" x="261.230469"/>
     </g>
    </g>
    <g id="line2d_42">
     <path d="M 449.717187 264.529063 
L 459.717187 264.529063 
L 469.717187 264.529063 
" style="fill: none; stroke: #9467bd; stroke-width: 1.5; stroke-linecap: round"/>
    </g>
    <g id="text_29">
     <!-- Day 15 -->
     <g style="fill: #262626" transform="translate(477.717187 268.029063) scale(0.1 -0.1)">
      <use xlink:href="#ArialMT-44"/>
      <use xlink:href="#ArialMT-61" x="72.216797"/>
      <use xlink:href="#ArialMT-79" x="127.832031"/>
      <use xlink:href="#ArialMT-20" x="177.832031"/>
      <use xlink:href="#ArialMT-31" x="205.615234"/>
      <use xlink:href="#ArialMT-35" x="261.230469"/>
     </g>
    </g>
   </g>
  </g>
 </g>
 <defs>
  <clipPath id="p2f222dc370">
   <rect x="72" y="51.84" width="446.4" height="332.64"/>
  </clipPath>
 </defs>
</svg>
