<?xml version="1.0" encoding="utf-8" standalone="no"?>
<!DOCTYPE svg PUBLIC "-//W3C//DTD SVG 1.1//EN"
  "http://www.w3.org/Graphics/SVG/1.1/DTD/svg11.dtd">
<svg xmlns:xlink="http://www.w3.org/1999/xlink" width="576pt" height="432pt" viewBox="0 0 576 432" xmlns="http://www.w3.org/2000/svg" version="1.1">
 <metadata>
  <rdf:RDF xmlns:dc="http://purl.org/dc/elements/1.1/" xmlns:cc="http://creativecommons.org/ns#" xmlns:rdf="http://www.w3.org/1999/02/22-rdf-syntax-ns#">
   <cc:Work>
    <dc:type rdf:resource="http://purl.org/dc/dcmitype/StillImage"/>
    <dc:date>2023-11-17T05:03:58.871682</dc:date>
    <dc:format>image/svg+xml</dc:format>
    <dc:creator>
     <cc:Agent>
      <dc:title>Matplotlib v3.8.0, https://matplotlib.org/</dc:title>
     </cc:Agent>
    </dc:creator>
   </cc:Work>
  </rdf:RDF>
 </metadata>
 <defs>
  <style type="text/css">*{stroke-linejoin: round; stroke-linecap: butt}</style>
 </defs>
 <g id="figure_1">
  <g id="patch_1">
   <path d="M 0 432 
L 576 432 
L 576 0 
L 0 0 
z
" style="fill: #ffffff"/>
  </g>
  <g id="axes_1">
   <g id="patch_2">
    <path d="M 50.2625 392.2225 
L 565.2 392.2225 
L 565.2 10.8 
L 50.2625 10.8 
z
" style="fill: #eaeaf2"/>
   </g>
   <g id="matplotlib.axis_1">
    <g id="xtick_1">
     <g id="line2d_1">
      <path d="M 62.227334 392.2225 
L 62.227334 10.8 
" clip-path="url(#p327c821f00)" style="fill: none; stroke: #ffffff; stroke-width: 0.8; stroke-linecap: round"/>
     </g>
     <g id="text_1">
      <!-- −20 -->
      <g style="fill: #262626" transform="translate(53.746084 406.380313) scale(0.1 -0.1)">
       <defs>
        <path id="ArialMT-2212" d="M 3381 1997 
L 356 1997 
L 356 2522 
L 3381 2522 
L 3381 1997 
z
" transform="scale(0.015625)"/>
        <path id="ArialMT-32" d="M 3222 541 
L 3222 0 
L 194 0 
Q 188 203 259 391 
Q 375 700 629 1000 
Q 884 1300 1366 1694 
Q 2113 2306 2375 2664 
Q 2638 3022 2638 3341 
Q 2638 3675 2398 3904 
Q 2159 4134 1775 4134 
Q 1369 4134 1125 3890 
Q 881 3647 878 3216 
L 300 3275 
Q 359 3922 746 4261 
Q 1134 4600 1788 4600 
Q 2447 4600 2831 4234 
Q 3216 3869 3216 3328 
Q 3216 3053 3103 2787 
Q 2991 2522 2730 2228 
Q 2469 1934 1863 1422 
Q 1356 997 1212 845 
Q 1069 694 975 541 
L 3222 541 
z
" transform="scale(0.015625)"/>
        <path id="ArialMT-30" d="M 266 2259 
Q 266 3072 433 3567 
Q 600 4063 929 4331 
Q 1259 4600 1759 4600 
Q 2128 4600 2406 4451 
Q 2684 4303 2865 4023 
Q 3047 3744 3150 3342 
Q 3253 2941 3253 2259 
Q 3253 1453 3087 958 
Q 2922 463 2592 192 
Q 2263 -78 1759 -78 
Q 1097 -78 719 397 
Q 266 969 266 2259 
z
M 844 2259 
Q 844 1131 1108 757 
Q 1372 384 1759 384 
Q 2147 384 2411 759 
Q 2675 1134 2675 2259 
Q 2675 3391 2411 3762 
Q 2147 4134 1753 4134 
Q 1366 4134 1134 3806 
Q 844 3388 844 2259 
z
" transform="scale(0.015625)"/>
       </defs>
       <use xlink:href="#ArialMT-2212"/>
       <use xlink:href="#ArialMT-32" x="58.398438"/>
       <use xlink:href="#ArialMT-30" x="114.013672"/>
      </g>
     </g>
    </g>
    <g id="xtick_2">
     <g id="line2d_2">
      <path d="M 120.555142 392.2225 
L 120.555142 10.8 
" clip-path="url(#p327c821f00)" style="fill: none; stroke: #ffffff; stroke-width: 0.8; stroke-linecap: round"/>
     </g>
     <g id="text_2">
      <!-- −15 -->
      <g style="fill: #262626" transform="translate(112.073892 406.380313) scale(0.1 -0.1)">
       <defs>
        <path id="ArialMT-31" d="M 2384 0 
L 1822 0 
L 1822 3584 
Q 1619 3391 1289 3197 
Q 959 3003 697 2906 
L 697 3450 
Q 1169 3672 1522 3987 
Q 1875 4303 2022 4600 
L 2384 4600 
L 2384 0 
z
" transform="scale(0.015625)"/>
        <path id="ArialMT-35" d="M 266 1200 
L 856 1250 
Q 922 819 1161 601 
Q 1400 384 1738 384 
Q 2144 384 2425 690 
Q 2706 997 2706 1503 
Q 2706 1984 2436 2262 
Q 2166 2541 1728 2541 
Q 1456 2541 1237 2417 
Q 1019 2294 894 2097 
L 366 2166 
L 809 4519 
L 3088 4519 
L 3088 3981 
L 1259 3981 
L 1013 2750 
Q 1425 3038 1878 3038 
Q 2478 3038 2890 2622 
Q 3303 2206 3303 1553 
Q 3303 931 2941 478 
Q 2500 -78 1738 -78 
Q 1113 -78 717 272 
Q 322 622 266 1200 
z
" transform="scale(0.015625)"/>
       </defs>
       <use xlink:href="#ArialMT-2212"/>
       <use xlink:href="#ArialMT-31" x="58.398438"/>
       <use xlink:href="#ArialMT-35" x="114.013672"/>
      </g>
     </g>
    </g>
    <g id="xtick_3">
     <g id="line2d_3">
      <path d="M 178.882951 392.2225 
L 178.882951 10.8 
" clip-path="url(#p327c821f00)" style="fill: none; stroke: #ffffff; stroke-width: 0.8; stroke-linecap: round"/>
     </g>
     <g id="text_3">
      <!-- −10 -->
      <g style="fill: #262626" transform="translate(170.401701 406.380313) scale(0.1 -0.1)">
       <use xlink:href="#ArialMT-2212"/>
       <use xlink:href="#ArialMT-31" x="58.398438"/>
       <use xlink:href="#ArialMT-30" x="114.013672"/>
      </g>
     </g>
    </g>
    <g id="xtick_4">
     <g id="line2d_4">
      <path d="M 237.210759 392.2225 
L 237.210759 10.8 
" clip-path="url(#p327c821f00)" style="fill: none; stroke: #ffffff; stroke-width: 0.8; stroke-linecap: round"/>
     </g>
     <g id="text_4">
      <!-- −5 -->
      <g style="fill: #262626" transform="translate(231.509978 406.380313) scale(0.1 -0.1)">
       <use xlink:href="#ArialMT-2212"/>
       <use xlink:href="#ArialMT-35" x="58.398438"/>
      </g>
     </g>
    </g>
    <g id="xtick_5">
     <g id="line2d_5">
      <path d="M 295.538567 392.2225 
L 295.538567 10.8 
" clip-path="url(#p327c821f00)" style="fill: none; stroke: #ffffff; stroke-width: 0.8; stroke-linecap: round"/>
     </g>
     <g id="text_5">
      <!-- 0 -->
      <g style="fill: #262626" transform="translate(292.758099 406.380313) scale(0.1 -0.1)">
       <use xlink:href="#ArialMT-30"/>
      </g>
     </g>
    </g>
    <g id="xtick_6">
     <g id="line2d_6">
      <path d="M 353.866376 392.2225 
L 353.866376 10.8 
" clip-path="url(#p327c821f00)" style="fill: none; stroke: #ffffff; stroke-width: 0.8; stroke-linecap: round"/>
     </g>
     <g id="text_6">
      <!-- 5 -->
      <g style="fill: #262626" transform="translate(351.085907 406.380313) scale(0.1 -0.1)">
       <use xlink:href="#ArialMT-35"/>
      </g>
     </g>
    </g>
    <g id="xtick_7">
     <g id="line2d_7">
      <path d="M 412.194184 392.2225 
L 412.194184 10.8 
" clip-path="url(#p327c821f00)" style="fill: none; stroke: #ffffff; stroke-width: 0.8; stroke-linecap: round"/>
     </g>
     <g id="text_7">
      <!-- 10 -->
      <g style="fill: #262626" transform="translate(406.633247 406.380313) scale(0.1 -0.1)">
       <use xlink:href="#ArialMT-31"/>
       <use xlink:href="#ArialMT-30" x="55.615234"/>
      </g>
     </g>
    </g>
    <g id="xtick_8">
     <g id="line2d_8">
      <path d="M 470.521993 392.2225 
L 470.521993 10.8 
" clip-path="url(#p327c821f00)" style="fill: none; stroke: #ffffff; stroke-width: 0.8; stroke-linecap: round"/>
     </g>
     <g id="text_8">
      <!-- 15 -->
      <g style="fill: #262626" transform="translate(464.961055 406.380313) scale(0.1 -0.1)">
       <use xlink:href="#ArialMT-31"/>
       <use xlink:href="#ArialMT-35" x="55.615234"/>
      </g>
     </g>
    </g>
    <g id="xtick_9">
     <g id="line2d_9">
      <path d="M 528.849801 392.2225 
L 528.849801 10.8 
" clip-path="url(#p327c821f00)" style="fill: none; stroke: #ffffff; stroke-width: 0.8; stroke-linecap: round"/>
     </g>
     <g id="text_9">
      <!-- 20 -->
      <g style="fill: #262626" transform="translate(523.288863 406.380313) scale(0.1 -0.1)">
       <use xlink:href="#ArialMT-32"/>
       <use xlink:href="#ArialMT-30" x="55.615234"/>
      </g>
     </g>
    </g>
    <g id="text_10">
     <!-- Maximum Temperature Predictive Error (°C) -->
     <g style="fill: #262626" transform="translate(210.529687 419.6475) scale(0.1 -0.1)">
      <defs>
       <path id="ArialMT-4d" d="M 475 0 
L 475 4581 
L 1388 4581 
L 2472 1338 
Q 2622 884 2691 659 
Q 2769 909 2934 1394 
L 4031 4581 
L 4847 4581 
L 4847 0 
L 4263 0 
L 4263 3834 
L 2931 0 
L 2384 0 
L 1059 3900 
L 1059 0 
L 475 0 
z
" transform="scale(0.015625)"/>
       <path id="ArialMT-61" d="M 2588 409 
Q 2275 144 1986 34 
Q 1697 -75 1366 -75 
Q 819 -75 525 192 
Q 231 459 231 875 
Q 231 1119 342 1320 
Q 453 1522 633 1644 
Q 813 1766 1038 1828 
Q 1203 1872 1538 1913 
Q 2219 1994 2541 2106 
Q 2544 2222 2544 2253 
Q 2544 2597 2384 2738 
Q 2169 2928 1744 2928 
Q 1347 2928 1158 2789 
Q 969 2650 878 2297 
L 328 2372 
Q 403 2725 575 2942 
Q 747 3159 1072 3276 
Q 1397 3394 1825 3394 
Q 2250 3394 2515 3294 
Q 2781 3194 2906 3042 
Q 3031 2891 3081 2659 
Q 3109 2516 3109 2141 
L 3109 1391 
Q 3109 606 3145 398 
Q 3181 191 3288 0 
L 2700 0 
Q 2613 175 2588 409 
z
M 2541 1666 
Q 2234 1541 1622 1453 
Q 1275 1403 1131 1340 
Q 988 1278 909 1158 
Q 831 1038 831 891 
Q 831 666 1001 516 
Q 1172 366 1500 366 
Q 1825 366 2078 508 
Q 2331 650 2450 897 
Q 2541 1088 2541 1459 
L 2541 1666 
z
" transform="scale(0.015625)"/>
       <path id="ArialMT-78" d="M 47 0 
L 1259 1725 
L 138 3319 
L 841 3319 
L 1350 2541 
Q 1494 2319 1581 2169 
Q 1719 2375 1834 2534 
L 2394 3319 
L 3066 3319 
L 1919 1756 
L 3153 0 
L 2463 0 
L 1781 1031 
L 1600 1309 
L 728 0 
L 47 0 
z
" transform="scale(0.015625)"/>
       <path id="ArialMT-69" d="M 425 3934 
L 425 4581 
L 988 4581 
L 988 3934 
L 425 3934 
z
M 425 0 
L 425 3319 
L 988 3319 
L 988 0 
L 425 0 
z
" transform="scale(0.015625)"/>
       <path id="ArialMT-6d" d="M 422 0 
L 422 3319 
L 925 3319 
L 925 2853 
Q 1081 3097 1340 3245 
Q 1600 3394 1931 3394 
Q 2300 3394 2536 3241 
Q 2772 3088 2869 2813 
Q 3263 3394 3894 3394 
Q 4388 3394 4653 3120 
Q 4919 2847 4919 2278 
L 4919 0 
L 4359 0 
L 4359 2091 
Q 4359 2428 4304 2576 
Q 4250 2725 4106 2815 
Q 3963 2906 3769 2906 
Q 3419 2906 3187 2673 
Q 2956 2441 2956 1928 
L 2956 0 
L 2394 0 
L 2394 2156 
Q 2394 2531 2256 2718 
Q 2119 2906 1806 2906 
Q 1569 2906 1367 2781 
Q 1166 2656 1075 2415 
Q 984 2175 984 1722 
L 984 0 
L 422 0 
z
" transform="scale(0.015625)"/>
       <path id="ArialMT-75" d="M 2597 0 
L 2597 488 
Q 2209 -75 1544 -75 
Q 1250 -75 995 37 
Q 741 150 617 320 
Q 494 491 444 738 
Q 409 903 409 1263 
L 409 3319 
L 972 3319 
L 972 1478 
Q 972 1038 1006 884 
Q 1059 663 1231 536 
Q 1403 409 1656 409 
Q 1909 409 2131 539 
Q 2353 669 2445 892 
Q 2538 1116 2538 1541 
L 2538 3319 
L 3100 3319 
L 3100 0 
L 2597 0 
z
" transform="scale(0.015625)"/>
       <path id="ArialMT-20" transform="scale(0.015625)"/>
       <path id="ArialMT-54" d="M 1659 0 
L 1659 4041 
L 150 4041 
L 150 4581 
L 3781 4581 
L 3781 4041 
L 2266 4041 
L 2266 0 
L 1659 0 
z
" transform="scale(0.015625)"/>
       <path id="ArialMT-65" d="M 2694 1069 
L 3275 997 
Q 3138 488 2766 206 
Q 2394 -75 1816 -75 
Q 1088 -75 661 373 
Q 234 822 234 1631 
Q 234 2469 665 2931 
Q 1097 3394 1784 3394 
Q 2450 3394 2872 2941 
Q 3294 2488 3294 1666 
Q 3294 1616 3291 1516 
L 816 1516 
Q 847 969 1125 678 
Q 1403 388 1819 388 
Q 2128 388 2347 550 
Q 2566 713 2694 1069 
z
M 847 1978 
L 2700 1978 
Q 2663 2397 2488 2606 
Q 2219 2931 1791 2931 
Q 1403 2931 1139 2672 
Q 875 2413 847 1978 
z
" transform="scale(0.015625)"/>
       <path id="ArialMT-70" d="M 422 -1272 
L 422 3319 
L 934 3319 
L 934 2888 
Q 1116 3141 1344 3267 
Q 1572 3394 1897 3394 
Q 2322 3394 2647 3175 
Q 2972 2956 3137 2557 
Q 3303 2159 3303 1684 
Q 3303 1175 3120 767 
Q 2938 359 2589 142 
Q 2241 -75 1856 -75 
Q 1575 -75 1351 44 
Q 1128 163 984 344 
L 984 -1272 
L 422 -1272 
z
M 931 1641 
Q 931 1000 1190 694 
Q 1450 388 1819 388 
Q 2194 388 2461 705 
Q 2728 1022 2728 1688 
Q 2728 2322 2467 2637 
Q 2206 2953 1844 2953 
Q 1484 2953 1207 2617 
Q 931 2281 931 1641 
z
" transform="scale(0.015625)"/>
       <path id="ArialMT-72" d="M 416 0 
L 416 3319 
L 922 3319 
L 922 2816 
Q 1116 3169 1280 3281 
Q 1444 3394 1641 3394 
Q 1925 3394 2219 3213 
L 2025 2691 
Q 1819 2813 1613 2813 
Q 1428 2813 1281 2702 
Q 1134 2591 1072 2394 
Q 978 2094 978 1738 
L 978 0 
L 416 0 
z
" transform="scale(0.015625)"/>
       <path id="ArialMT-74" d="M 1650 503 
L 1731 6 
Q 1494 -44 1306 -44 
Q 1000 -44 831 53 
Q 663 150 594 308 
Q 525 466 525 972 
L 525 2881 
L 113 2881 
L 113 3319 
L 525 3319 
L 525 4141 
L 1084 4478 
L 1084 3319 
L 1650 3319 
L 1650 2881 
L 1084 2881 
L 1084 941 
Q 1084 700 1114 631 
Q 1144 563 1211 522 
Q 1278 481 1403 481 
Q 1497 481 1650 503 
z
" transform="scale(0.015625)"/>
       <path id="ArialMT-50" d="M 494 0 
L 494 4581 
L 2222 4581 
Q 2678 4581 2919 4538 
Q 3256 4481 3484 4323 
Q 3713 4166 3852 3881 
Q 3991 3597 3991 3256 
Q 3991 2672 3619 2267 
Q 3247 1863 2275 1863 
L 1100 1863 
L 1100 0 
L 494 0 
z
M 1100 2403 
L 2284 2403 
Q 2872 2403 3119 2622 
Q 3366 2841 3366 3238 
Q 3366 3525 3220 3729 
Q 3075 3934 2838 4000 
Q 2684 4041 2272 4041 
L 1100 4041 
L 1100 2403 
z
" transform="scale(0.015625)"/>
       <path id="ArialMT-64" d="M 2575 0 
L 2575 419 
Q 2259 -75 1647 -75 
Q 1250 -75 917 144 
Q 584 363 401 755 
Q 219 1147 219 1656 
Q 219 2153 384 2558 
Q 550 2963 881 3178 
Q 1213 3394 1622 3394 
Q 1922 3394 2156 3267 
Q 2391 3141 2538 2938 
L 2538 4581 
L 3097 4581 
L 3097 0 
L 2575 0 
z
M 797 1656 
Q 797 1019 1065 703 
Q 1334 388 1700 388 
Q 2069 388 2326 689 
Q 2584 991 2584 1609 
Q 2584 2291 2321 2609 
Q 2059 2928 1675 2928 
Q 1300 2928 1048 2622 
Q 797 2316 797 1656 
z
" transform="scale(0.015625)"/>
       <path id="ArialMT-63" d="M 2588 1216 
L 3141 1144 
Q 3050 572 2676 248 
Q 2303 -75 1759 -75 
Q 1078 -75 664 370 
Q 250 816 250 1647 
Q 250 2184 428 2587 
Q 606 2991 970 3192 
Q 1334 3394 1763 3394 
Q 2303 3394 2647 3120 
Q 2991 2847 3088 2344 
L 2541 2259 
Q 2463 2594 2264 2762 
Q 2066 2931 1784 2931 
Q 1359 2931 1093 2626 
Q 828 2322 828 1663 
Q 828 994 1084 691 
Q 1341 388 1753 388 
Q 2084 388 2306 591 
Q 2528 794 2588 1216 
z
" transform="scale(0.015625)"/>
       <path id="ArialMT-76" d="M 1344 0 
L 81 3319 
L 675 3319 
L 1388 1331 
Q 1503 1009 1600 663 
Q 1675 925 1809 1294 
L 2547 3319 
L 3125 3319 
L 1869 0 
L 1344 0 
z
" transform="scale(0.015625)"/>
       <path id="ArialMT-45" d="M 506 0 
L 506 4581 
L 3819 4581 
L 3819 4041 
L 1113 4041 
L 1113 2638 
L 3647 2638 
L 3647 2100 
L 1113 2100 
L 1113 541 
L 3925 541 
L 3925 0 
L 506 0 
z
" transform="scale(0.015625)"/>
       <path id="ArialMT-6f" d="M 213 1659 
Q 213 2581 725 3025 
Q 1153 3394 1769 3394 
Q 2453 3394 2887 2945 
Q 3322 2497 3322 1706 
Q 3322 1066 3130 698 
Q 2938 331 2570 128 
Q 2203 -75 1769 -75 
Q 1072 -75 642 372 
Q 213 819 213 1659 
z
M 791 1659 
Q 791 1022 1069 705 
Q 1347 388 1769 388 
Q 2188 388 2466 706 
Q 2744 1025 2744 1678 
Q 2744 2294 2464 2611 
Q 2184 2928 1769 2928 
Q 1347 2928 1069 2612 
Q 791 2297 791 1659 
z
" transform="scale(0.015625)"/>
       <path id="ArialMT-28" d="M 1497 -1347 
Q 1031 -759 709 28 
Q 388 816 388 1659 
Q 388 2403 628 3084 
Q 909 3875 1497 4659 
L 1900 4659 
Q 1522 4009 1400 3731 
Q 1209 3300 1100 2831 
Q 966 2247 966 1656 
Q 966 153 1900 -1347 
L 1497 -1347 
z
" transform="scale(0.015625)"/>
       <path id="ArialMT-b0" d="M 400 3794 
Q 400 4153 654 4406 
Q 909 4659 1266 4659 
Q 1628 4659 1881 4406 
Q 2134 4153 2134 3794 
Q 2134 3434 1879 3179 
Q 1625 2925 1266 2925 
Q 909 2925 654 3178 
Q 400 3431 400 3794 
z
M 741 3794 
Q 741 3575 895 3420 
Q 1050 3266 1269 3266 
Q 1484 3266 1639 3420 
Q 1794 3575 1794 3794 
Q 1794 4013 1639 4167 
Q 1484 4322 1269 4322 
Q 1050 4322 895 4167 
Q 741 4013 741 3794 
z
" transform="scale(0.015625)"/>
       <path id="ArialMT-43" d="M 3763 1606 
L 4369 1453 
Q 4178 706 3683 314 
Q 3188 -78 2472 -78 
Q 1731 -78 1267 223 
Q 803 525 561 1097 
Q 319 1669 319 2325 
Q 319 3041 592 3573 
Q 866 4106 1370 4382 
Q 1875 4659 2481 4659 
Q 3169 4659 3637 4309 
Q 4106 3959 4291 3325 
L 3694 3184 
Q 3534 3684 3231 3912 
Q 2928 4141 2469 4141 
Q 1941 4141 1586 3887 
Q 1231 3634 1087 3207 
Q 944 2781 944 2328 
Q 944 1744 1114 1308 
Q 1284 872 1643 656 
Q 2003 441 2422 441 
Q 2931 441 3284 734 
Q 3638 1028 3763 1606 
z
" transform="scale(0.015625)"/>
       <path id="ArialMT-29" d="M 791 -1347 
L 388 -1347 
Q 1322 153 1322 1656 
Q 1322 2244 1188 2822 
Q 1081 3291 891 3722 
Q 769 4003 388 4659 
L 791 4659 
Q 1378 3875 1659 3084 
Q 1900 2403 1900 1659 
Q 1900 816 1576 28 
Q 1253 -759 791 -1347 
z
" transform="scale(0.015625)"/>
      </defs>
      <use xlink:href="#ArialMT-4d"/>
      <use xlink:href="#ArialMT-61" x="83.300781"/>
      <use xlink:href="#ArialMT-78" x="138.916016"/>
      <use xlink:href="#ArialMT-69" x="188.916016"/>
      <use xlink:href="#ArialMT-6d" x="211.132812"/>
      <use xlink:href="#ArialMT-75" x="294.433594"/>
      <use xlink:href="#ArialMT-6d" x="350.048828"/>
      <use xlink:href="#ArialMT-20" x="433.349609"/>
      <use xlink:href="#ArialMT-54" x="459.382812"/>
      <use xlink:href="#ArialMT-65" x="509.341797"/>
      <use xlink:href="#ArialMT-6d" x="564.957031"/>
      <use xlink:href="#ArialMT-70" x="648.257812"/>
      <use xlink:href="#ArialMT-65" x="703.873047"/>
      <use xlink:href="#ArialMT-72" x="759.488281"/>
      <use xlink:href="#ArialMT-61" x="792.789062"/>
      <use xlink:href="#ArialMT-74" x="848.404297"/>
      <use xlink:href="#ArialMT-75" x="876.1875"/>
      <use xlink:href="#ArialMT-72" x="931.802734"/>
      <use xlink:href="#ArialMT-65" x="965.103516"/>
      <use xlink:href="#ArialMT-20" x="1020.71875"/>
      <use xlink:href="#ArialMT-50" x="1048.501953"/>
      <use xlink:href="#ArialMT-72" x="1115.201172"/>
      <use xlink:href="#ArialMT-65" x="1148.501953"/>
      <use xlink:href="#ArialMT-64" x="1204.117188"/>
      <use xlink:href="#ArialMT-69" x="1259.732422"/>
      <use xlink:href="#ArialMT-63" x="1281.949219"/>
      <use xlink:href="#ArialMT-74" x="1331.949219"/>
      <use xlink:href="#ArialMT-69" x="1359.732422"/>
      <use xlink:href="#ArialMT-76" x="1381.949219"/>
      <use xlink:href="#ArialMT-65" x="1431.949219"/>
      <use xlink:href="#ArialMT-20" x="1487.564453"/>
      <use xlink:href="#ArialMT-45" x="1515.347656"/>
      <use xlink:href="#ArialMT-72" x="1582.046875"/>
      <use xlink:href="#ArialMT-72" x="1615.347656"/>
      <use xlink:href="#ArialMT-6f" x="1648.648438"/>
      <use xlink:href="#ArialMT-72" x="1704.263672"/>
      <use xlink:href="#ArialMT-20" x="1737.564453"/>
      <use xlink:href="#ArialMT-28" x="1765.347656"/>
      <use xlink:href="#ArialMT-b0" x="1798.648438"/>
      <use xlink:href="#ArialMT-43" x="1838.638672"/>
      <use xlink:href="#ArialMT-29" x="1910.855469"/>
     </g>
    </g>
   </g>
   <g id="matplotlib.axis_2">
    <g id="ytick_1">
     <g id="line2d_10">
      <path d="M 50.2625 392.2225 
L 565.2 392.2225 
" clip-path="url(#p327c821f00)" style="fill: none; stroke: #ffffff; stroke-width: 0.8; stroke-linecap: round"/>
     </g>
     <g id="text_11">
      <!-- 0.00 -->
      <g style="fill: #262626" transform="translate(23.801563 395.801406) scale(0.1 -0.1)">
       <defs>
        <path id="ArialMT-2e" d="M 581 0 
L 581 641 
L 1222 641 
L 1222 0 
L 581 0 
z
" transform="scale(0.015625)"/>
       </defs>
       <use xlink:href="#ArialMT-30"/>
       <use xlink:href="#ArialMT-2e" x="55.615234"/>
       <use xlink:href="#ArialMT-30" x="83.398438"/>
       <use xlink:href="#ArialMT-30" x="139.013672"/>
      </g>
     </g>
    </g>
    <g id="ytick_2">
     <g id="line2d_11">
      <path d="M 50.2625 340.015991 
L 565.2 340.015991 
" clip-path="url(#p327c821f00)" style="fill: none; stroke: #ffffff; stroke-width: 0.8; stroke-linecap: round"/>
     </g>
     <g id="text_12">
      <!-- 0.02 -->
      <g style="fill: #262626" transform="translate(23.801563 343.594897) scale(0.1 -0.1)">
       <use xlink:href="#ArialMT-30"/>
       <use xlink:href="#ArialMT-2e" x="55.615234"/>
       <use xlink:href="#ArialMT-30" x="83.398438"/>
       <use xlink:href="#ArialMT-32" x="139.013672"/>
      </g>
     </g>
    </g>
    <g id="ytick_3">
     <g id="line2d_12">
      <path d="M 50.2625 287.809481 
L 565.2 287.809481 
" clip-path="url(#p327c821f00)" style="fill: none; stroke: #ffffff; stroke-width: 0.8; stroke-linecap: round"/>
     </g>
     <g id="text_13">
      <!-- 0.04 -->
      <g style="fill: #262626" transform="translate(23.801563 291.388388) scale(0.1 -0.1)">
       <defs>
        <path id="ArialMT-34" d="M 2069 0 
L 2069 1097 
L 81 1097 
L 81 1613 
L 2172 4581 
L 2631 4581 
L 2631 1613 
L 3250 1613 
L 3250 1097 
L 2631 1097 
L 2631 0 
L 2069 0 
z
M 2069 1613 
L 2069 3678 
L 634 1613 
L 2069 1613 
z
" transform="scale(0.015625)"/>
       </defs>
       <use xlink:href="#ArialMT-30"/>
       <use xlink:href="#ArialMT-2e" x="55.615234"/>
       <use xlink:href="#ArialMT-30" x="83.398438"/>
       <use xlink:href="#ArialMT-34" x="139.013672"/>
      </g>
     </g>
    </g>
    <g id="ytick_4">
     <g id="line2d_13">
      <path d="M 50.2625 235.602972 
L 565.2 235.602972 
" clip-path="url(#p327c821f00)" style="fill: none; stroke: #ffffff; stroke-width: 0.8; stroke-linecap: round"/>
     </g>
     <g id="text_14">
      <!-- 0.06 -->
      <g style="fill: #262626" transform="translate(23.801563 239.181878) scale(0.1 -0.1)">
       <defs>
        <path id="ArialMT-36" d="M 3184 3459 
L 2625 3416 
Q 2550 3747 2413 3897 
Q 2184 4138 1850 4138 
Q 1581 4138 1378 3988 
Q 1113 3794 959 3422 
Q 806 3050 800 2363 
Q 1003 2672 1297 2822 
Q 1591 2972 1913 2972 
Q 2475 2972 2870 2558 
Q 3266 2144 3266 1488 
Q 3266 1056 3080 686 
Q 2894 316 2569 119 
Q 2244 -78 1831 -78 
Q 1128 -78 684 439 
Q 241 956 241 2144 
Q 241 3472 731 4075 
Q 1159 4600 1884 4600 
Q 2425 4600 2770 4297 
Q 3116 3994 3184 3459 
z
M 888 1484 
Q 888 1194 1011 928 
Q 1134 663 1356 523 
Q 1578 384 1822 384 
Q 2178 384 2434 671 
Q 2691 959 2691 1453 
Q 2691 1928 2437 2201 
Q 2184 2475 1800 2475 
Q 1419 2475 1153 2201 
Q 888 1928 888 1484 
z
" transform="scale(0.015625)"/>
       </defs>
       <use xlink:href="#ArialMT-30"/>
       <use xlink:href="#ArialMT-2e" x="55.615234"/>
       <use xlink:href="#ArialMT-30" x="83.398438"/>
       <use xlink:href="#ArialMT-36" x="139.013672"/>
      </g>
     </g>
    </g>
    <g id="ytick_5">
     <g id="line2d_14">
      <path d="M 50.2625 183.396463 
L 565.2 183.396463 
" clip-path="url(#p327c821f00)" style="fill: none; stroke: #ffffff; stroke-width: 0.8; stroke-linecap: round"/>
     </g>
     <g id="text_15">
      <!-- 0.08 -->
      <g style="fill: #262626" transform="translate(23.801563 186.975369) scale(0.1 -0.1)">
       <defs>
        <path id="ArialMT-38" d="M 1131 2484 
Q 781 2613 612 2850 
Q 444 3088 444 3419 
Q 444 3919 803 4259 
Q 1163 4600 1759 4600 
Q 2359 4600 2725 4251 
Q 3091 3903 3091 3403 
Q 3091 3084 2923 2848 
Q 2756 2613 2416 2484 
Q 2838 2347 3058 2040 
Q 3278 1734 3278 1309 
Q 3278 722 2862 322 
Q 2447 -78 1769 -78 
Q 1091 -78 675 323 
Q 259 725 259 1325 
Q 259 1772 486 2073 
Q 713 2375 1131 2484 
z
M 1019 3438 
Q 1019 3113 1228 2906 
Q 1438 2700 1772 2700 
Q 2097 2700 2305 2904 
Q 2513 3109 2513 3406 
Q 2513 3716 2298 3927 
Q 2084 4138 1766 4138 
Q 1444 4138 1231 3931 
Q 1019 3725 1019 3438 
z
M 838 1322 
Q 838 1081 952 856 
Q 1066 631 1291 507 
Q 1516 384 1775 384 
Q 2178 384 2440 643 
Q 2703 903 2703 1303 
Q 2703 1709 2433 1975 
Q 2163 2241 1756 2241 
Q 1359 2241 1098 1978 
Q 838 1716 838 1322 
z
" transform="scale(0.015625)"/>
       </defs>
       <use xlink:href="#ArialMT-30"/>
       <use xlink:href="#ArialMT-2e" x="55.615234"/>
       <use xlink:href="#ArialMT-30" x="83.398438"/>
       <use xlink:href="#ArialMT-38" x="139.013672"/>
      </g>
     </g>
    </g>
    <g id="ytick_6">
     <g id="line2d_15">
      <path d="M 50.2625 131.189954 
L 565.2 131.189954 
" clip-path="url(#p327c821f00)" style="fill: none; stroke: #ffffff; stroke-width: 0.8; stroke-linecap: round"/>
     </g>
     <g id="text_16">
      <!-- 0.10 -->
      <g style="fill: #262626" transform="translate(23.801563 134.76886) scale(0.1 -0.1)">
       <use xlink:href="#ArialMT-30"/>
       <use xlink:href="#ArialMT-2e" x="55.615234"/>
       <use xlink:href="#ArialMT-31" x="83.398438"/>
       <use xlink:href="#ArialMT-30" x="139.013672"/>
      </g>
     </g>
    </g>
    <g id="ytick_7">
     <g id="line2d_16">
      <path d="M 50.2625 78.983444 
L 565.2 78.983444 
" clip-path="url(#p327c821f00)" style="fill: none; stroke: #ffffff; stroke-width: 0.8; stroke-linecap: round"/>
     </g>
     <g id="text_17">
      <!-- 0.12 -->
      <g style="fill: #262626" transform="translate(23.801563 82.562351) scale(0.1 -0.1)">
       <use xlink:href="#ArialMT-30"/>
       <use xlink:href="#ArialMT-2e" x="55.615234"/>
       <use xlink:href="#ArialMT-31" x="83.398438"/>
       <use xlink:href="#ArialMT-32" x="139.013672"/>
      </g>
     </g>
    </g>
    <g id="ytick_8">
     <g id="line2d_17">
      <path d="M 50.2625 26.776935 
L 565.2 26.776935 
" clip-path="url(#p327c821f00)" style="fill: none; stroke: #ffffff; stroke-width: 0.8; stroke-linecap: round"/>
     </g>
     <g id="text_18">
      <!-- 0.14 -->
      <g style="fill: #262626" transform="translate(23.801563 30.355841) scale(0.1 -0.1)">
       <use xlink:href="#ArialMT-30"/>
       <use xlink:href="#ArialMT-2e" x="55.615234"/>
       <use xlink:href="#ArialMT-31" x="83.398438"/>
       <use xlink:href="#ArialMT-34" x="139.013672"/>
      </g>
     </g>
    </g>
    <g id="text_19">
     <!-- Density -->
     <g style="fill: #262626" transform="translate(17.696875 218.183125) rotate(-90) scale(0.1 -0.1)">
      <defs>
       <path id="ArialMT-44" d="M 494 0 
L 494 4581 
L 2072 4581 
Q 2606 4581 2888 4516 
Q 3281 4425 3559 4188 
Q 3922 3881 4101 3404 
Q 4281 2928 4281 2316 
Q 4281 1794 4159 1391 
Q 4038 988 3847 723 
Q 3656 459 3429 307 
Q 3203 156 2883 78 
Q 2563 0 2147 0 
L 494 0 
z
M 1100 541 
L 2078 541 
Q 2531 541 2789 625 
Q 3047 709 3200 863 
Q 3416 1078 3536 1442 
Q 3656 1806 3656 2325 
Q 3656 3044 3420 3430 
Q 3184 3816 2847 3947 
Q 2603 4041 2063 4041 
L 1100 4041 
L 1100 541 
z
" transform="scale(0.015625)"/>
       <path id="ArialMT-6e" d="M 422 0 
L 422 3319 
L 928 3319 
L 928 2847 
Q 1294 3394 1984 3394 
Q 2284 3394 2536 3286 
Q 2788 3178 2913 3003 
Q 3038 2828 3088 2588 
Q 3119 2431 3119 2041 
L 3119 0 
L 2556 0 
L 2556 2019 
Q 2556 2363 2490 2533 
Q 2425 2703 2258 2804 
Q 2091 2906 1866 2906 
Q 1506 2906 1245 2678 
Q 984 2450 984 1813 
L 984 0 
L 422 0 
z
" transform="scale(0.015625)"/>
       <path id="ArialMT-73" d="M 197 991 
L 753 1078 
Q 800 744 1014 566 
Q 1228 388 1613 388 
Q 2000 388 2187 545 
Q 2375 703 2375 916 
Q 2375 1106 2209 1216 
Q 2094 1291 1634 1406 
Q 1016 1563 777 1677 
Q 538 1791 414 1992 
Q 291 2194 291 2438 
Q 291 2659 392 2848 
Q 494 3038 669 3163 
Q 800 3259 1026 3326 
Q 1253 3394 1513 3394 
Q 1903 3394 2198 3281 
Q 2494 3169 2634 2976 
Q 2775 2784 2828 2463 
L 2278 2388 
Q 2241 2644 2061 2787 
Q 1881 2931 1553 2931 
Q 1166 2931 1000 2803 
Q 834 2675 834 2503 
Q 834 2394 903 2306 
Q 972 2216 1119 2156 
Q 1203 2125 1616 2013 
Q 2213 1853 2448 1751 
Q 2684 1650 2818 1456 
Q 2953 1263 2953 975 
Q 2953 694 2789 445 
Q 2625 197 2315 61 
Q 2006 -75 1616 -75 
Q 969 -75 630 194 
Q 291 463 197 991 
z
" transform="scale(0.015625)"/>
       <path id="ArialMT-79" d="M 397 -1278 
L 334 -750 
Q 519 -800 656 -800 
Q 844 -800 956 -737 
Q 1069 -675 1141 -563 
Q 1194 -478 1313 -144 
Q 1328 -97 1363 -6 
L 103 3319 
L 709 3319 
L 1400 1397 
Q 1534 1031 1641 628 
Q 1738 1016 1872 1384 
L 2581 3319 
L 3144 3319 
L 1881 -56 
Q 1678 -603 1566 -809 
Q 1416 -1088 1222 -1217 
Q 1028 -1347 759 -1347 
Q 597 -1347 397 -1278 
z
" transform="scale(0.015625)"/>
      </defs>
      <use xlink:href="#ArialMT-44"/>
      <use xlink:href="#ArialMT-65" x="72.216797"/>
      <use xlink:href="#ArialMT-6e" x="127.832031"/>
      <use xlink:href="#ArialMT-73" x="183.447266"/>
      <use xlink:href="#ArialMT-69" x="233.447266"/>
      <use xlink:href="#ArialMT-74" x="255.664062"/>
      <use xlink:href="#ArialMT-79" x="283.447266"/>
     </g>
    </g>
   </g>
   <g id="line2d_18">
    <path d="M 137.949136 392.195227 
L 145.787898 392.023195 
L 149.70728 391.761947 
L 153.626661 391.259813 
L 157.546042 390.394279 
L 159.505733 389.788021 
L 161.465424 389.050639 
L 163.425114 388.175377 
L 165.384805 387.160337 
L 169.304186 384.728573 
L 173.223568 381.833229 
L 177.142949 378.595605 
L 183.022021 373.374603 
L 192.820475 364.561788 
L 206.538309 352.658015 
L 210.457691 348.832383 
L 214.377072 344.492877 
L 216.336763 342.045971 
L 218.296453 339.349409 
L 220.256144 336.340153 
L 222.215835 332.946063 
L 224.175525 329.091053 
L 226.135216 324.702292 
L 228.094907 319.718209 
L 230.054597 314.095723 
L 232.014288 307.815172 
L 233.973979 300.881838 
L 235.933669 293.323644 
L 237.89336 285.185401 
L 241.812742 267.382978 
L 245.732123 247.856083 
L 249.651504 226.793838 
L 253.570886 204.186045 
L 257.490267 180.011711 
L 261.409648 154.499474 
L 269.248411 102.464316 
L 273.167792 78.31189 
L 275.127483 67.309963 
L 277.087174 57.27249 
L 279.046864 48.397624 
L 281.006555 40.897618 
L 282.966246 34.999859 
L 284.925936 30.942448 
L 286.885627 28.962433 
L 288.845318 29.276395 
L 290.805009 32.055116 
L 292.764699 37.395958 
L 294.72439 45.297932 
L 296.684081 55.644647 
L 298.643771 68.1994 
L 300.603462 82.614594 
L 302.563153 98.454989 
L 312.361606 182.198582 
L 314.321297 197.037607 
L 316.280987 210.665067 
L 318.240678 223.006127 
L 320.200369 234.054545 
L 322.160059 243.857363 
L 324.11975 252.500866 
L 326.079441 260.099182 
L 328.039131 266.785547 
L 329.998822 272.705287 
L 331.958513 278.009223 
L 333.918203 282.846488 
L 337.837585 291.660333 
L 345.676348 308.24311 
L 349.595729 316.284683 
L 353.51511 323.726586 
L 355.474801 327.085943 
L 357.434492 330.149991 
L 359.394182 332.897919 
L 361.353873 335.326744 
L 363.313564 337.450492 
L 365.273254 339.297764 
L 367.232945 340.908141 
L 369.192636 342.327875 
L 373.112017 344.786523 
L 384.870161 351.424136 
L 394.668615 356.992021 
L 398.587996 359.506623 
L 400.547687 360.943864 
L 402.507377 362.537787 
L 404.467068 364.300926 
L 408.386449 368.296361 
L 416.225212 376.948898 
L 418.184903 378.894828 
L 420.144593 380.645678 
L 422.104284 382.172908 
L 424.063975 383.467716 
L 426.023665 384.540284 
L 427.983356 385.416526 
L 429.943047 386.133015 
L 433.862428 387.250618 
L 443.660882 389.526 
L 449.539954 390.729615 
L 453.459335 391.323084 
L 457.378716 391.702629 
L 461.298098 391.875199 
L 465.217479 391.86364 
L 469.13686 391.688392 
L 475.015932 391.16897 
L 484.814386 390.123276 
L 488.733767 389.923313 
L 492.653148 389.958521 
L 496.57253 390.218431 
L 504.411293 391.083288 
L 510.290365 391.660699 
L 516.169437 392.005858 
L 524.008199 392.181247 
L 527.927581 392.207287 
L 527.927581 392.207287 
" clip-path="url(#p327c821f00)" style="fill: none; stroke: #1f77b4; stroke-width: 1.5; stroke-linecap: round"/>
   </g>
   <g id="line2d_19">
    <path d="M 73.66875 392.210566 
L 87.35067 392.057865 
L 96.47195 391.70149 
L 116.99483 390.663423 
L 126.11611 390.581095 
L 137.51771 390.554946 
L 142.078351 390.300095 
L 144.358671 390.043644 
L 146.638991 389.668776 
L 148.919311 389.15047 
L 151.199631 388.464416 
L 153.479951 387.58818 
L 155.760271 386.502525 
L 158.040591 385.193007 
L 160.320911 383.651898 
L 162.601231 381.880363 
L 164.881551 379.890677 
L 167.161871 377.708036 
L 171.722511 372.933102 
L 178.563471 365.659672 
L 180.843791 363.469311 
L 183.124111 361.481666 
L 185.404431 359.718117 
L 187.684751 358.172881 
L 192.245391 355.576107 
L 196.806031 353.156083 
L 199.086351 351.796003 
L 201.366671 350.229261 
L 203.646991 348.396477 
L 205.927311 346.260362 
L 208.207631 343.805604 
L 210.487951 341.034711 
L 212.768271 337.96074 
L 215.048591 334.598468 
L 217.328911 330.955829 
L 219.609231 327.027315 
L 221.889551 322.7906 
L 224.169871 318.206873 
L 226.450191 313.224565 
L 228.730511 307.785431 
L 231.010831 301.831496 
L 233.291151 295.311369 
L 235.571471 288.184777 
L 237.851791 280.424828 
L 240.132111 272.01826 
L 242.412431 262.964503 
L 244.692751 253.274629 
L 246.973071 242.971098 
L 251.533711 220.676401 
L 256.094351 196.542198 
L 269.776271 121.877588 
L 272.056591 110.710894 
L 274.336911 100.414808 
L 276.617232 91.214612 
L 278.897552 83.349614 
L 281.177872 77.066705 
L 283.458192 72.609282 
L 285.738512 70.201692 
L 288.018832 70.030269 
L 290.299152 72.222963 
L 292.579472 76.830171 
L 294.859792 83.80974 
L 297.140112 93.01886 
L 299.420432 104.214924 
L 301.700752 117.066214 
L 303.981072 131.171902 
L 315.382672 205.3237 
L 317.662992 218.348386 
L 319.943312 230.275047 
L 322.223632 241.066788 
L 324.503952 250.7612 
L 326.784272 259.451225 
L 329.064592 267.262989 
L 331.344912 274.33373 
L 333.625232 280.79278 
L 335.905552 286.747815 
L 338.185872 292.277585 
L 340.466192 297.431103 
L 342.746512 302.232159 
L 345.026832 306.687286 
L 347.307152 310.794946 
L 349.587472 314.553986 
L 351.867792 317.969942 
L 354.148112 321.05853 
L 356.428432 323.846381 
L 358.708752 326.369575 
L 360.989072 328.670778 
L 365.549712 332.789975 
L 372.390672 338.378918 
L 390.633232 352.983275 
L 395.193872 356.24038 
L 399.754512 359.135899 
L 404.315152 361.68958 
L 411.156113 365.133491 
L 417.997073 368.587525 
L 422.557713 371.10262 
L 427.118353 373.826842 
L 440.800273 382.258231 
L 445.360913 384.63496 
L 449.921553 386.586855 
L 454.482193 388.07132 
L 459.042833 389.103947 
L 463.603473 389.750264 
L 468.164113 390.110066 
L 475.005073 390.351411 
L 488.686993 390.749647 
L 500.088593 391.424703 
L 509.209873 391.909267 
L 518.331153 392.144668 
L 527.452433 392.210545 
L 527.452433 392.210545 
" clip-path="url(#p327c821f00)" style="fill: none; stroke: #ff7f0e; stroke-width: 1.5; stroke-linecap: round"/>
   </g>
   <g id="line2d_20">
    <path d="M 82.354233 392.21018 
L 96.14129 392.053027 
L 103.034819 391.786033 
L 112.226191 391.153579 
L 121.417563 390.463181 
L 128.311091 390.178673 
L 137.502463 389.968269 
L 142.098149 389.591605 
L 144.395992 389.237875 
L 146.693835 388.73837 
L 148.991678 388.072805 
L 151.289521 387.22863 
L 153.587364 386.202449 
L 155.885206 385.000403 
L 158.183049 383.637321 
L 162.778735 380.517355 
L 167.374421 377.034689 
L 171.970107 373.328103 
L 176.565793 369.419908 
L 181.161479 365.245448 
L 185.757164 360.759435 
L 199.544222 346.771792 
L 208.735594 338.078709 
L 211.033437 335.632755 
L 213.33128 332.885241 
L 215.629122 329.736262 
L 217.926965 326.102788 
L 220.224808 321.928536 
L 222.522651 317.189707 
L 224.820494 311.895501 
L 227.118337 306.083363 
L 229.41618 299.809964 
L 234.011866 286.132451 
L 238.607552 271.266402 
L 243.203238 255.292276 
L 247.798923 237.926895 
L 250.096766 228.579223 
L 252.394609 218.719464 
L 254.692452 208.321434 
L 259.288138 185.979954 
L 266.181667 150.021231 
L 270.777353 126.551984 
L 273.075196 115.730677 
L 275.373039 105.905973 
L 277.670881 97.374264 
L 279.968724 90.421905 
L 282.266567 85.311536 
L 284.56441 82.267267 
L 286.862253 81.459468 
L 289.160096 82.990428 
L 291.457939 86.882495 
L 293.755782 93.070386 
L 296.053625 101.399111 
L 298.351468 111.628423 
L 300.649311 123.44402 
L 302.947154 136.474935 
L 307.542839 164.552487 
L 312.138525 192.664791 
L 314.436368 205.889169 
L 316.734211 218.239942 
L 319.032054 229.576722 
L 321.329897 239.837399 
L 323.62774 249.029046 
L 325.925583 257.213511 
L 328.223426 264.490146 
L 330.521269 270.978279 
L 332.819112 276.801729 
L 335.116955 282.077005 
L 337.414797 286.905897 
L 339.71264 291.372278 
L 342.010483 295.542265 
L 346.606169 303.183364 
L 351.201855 310.105009 
L 355.797541 316.470064 
L 360.393227 322.376648 
L 364.988913 327.88547 
L 369.584598 333.043985 
L 374.180284 337.897022 
L 378.77597 342.470044 
L 383.371656 346.743212 
L 387.967342 350.65787 
L 392.563028 354.170986 
L 397.158713 357.317216 
L 404.052242 361.61818 
L 413.243614 367.109268 
L 417.8393 369.704578 
L 422.434986 372.071425 
L 427.030671 374.17362 
L 433.9242 376.984845 
L 447.711258 382.308407 
L 452.306944 383.783289 
L 456.90263 384.915057 
L 461.498315 385.721624 
L 479.881059 388.374728 
L 486.774588 389.46377 
L 493.668116 390.273801 
L 500.561645 390.82072 
L 514.348703 391.653954 
L 523.540074 392.020532 
L 535.029289 392.192598 
L 539.624975 392.211089 
L 539.624975 392.211089 
" clip-path="url(#p327c821f00)" style="fill: none; stroke: #2ca02c; stroke-width: 1.5; stroke-linecap: round"/>
   </g>
   <g id="line2d_21">
    <path d="M 107.517869 392.203629 
L 118.429323 392.039699 
L 124.976196 391.692729 
L 129.340777 391.263139 
L 133.705359 390.625397 
L 138.069941 389.753759 
L 142.434522 388.635102 
L 146.799104 387.255873 
L 151.163686 385.593009 
L 155.528268 383.624487 
L 159.892849 381.357433 
L 164.257431 378.84863 
L 172.986594 373.457957 
L 179.533467 369.200516 
L 183.898049 366.075894 
L 186.08034 364.35184 
L 188.262631 362.482562 
L 190.444921 360.443312 
L 192.627212 358.215544 
L 194.809503 355.789644 
L 196.991794 353.166951 
L 201.356376 347.394435 
L 205.720957 341.114396 
L 212.26783 331.277073 
L 216.632412 324.507376 
L 220.996993 317.22287 
L 223.179284 313.213436 
L 225.361575 308.855934 
L 227.543866 304.081203 
L 229.726157 298.835953 
L 231.908448 293.08793 
L 234.090739 286.827923 
L 236.273029 280.068314 
L 238.45532 272.838444 
L 242.819902 257.12711 
L 247.184484 239.987304 
L 251.549065 221.551945 
L 255.913647 201.770711 
L 260.278229 180.591209 
L 264.642811 158.237199 
L 271.189683 124.219399 
L 273.371974 113.416083 
L 275.554265 103.246343 
L 277.736556 93.964759 
L 279.918847 85.84121 
L 282.101138 79.152551 
L 284.283428 74.171377 
L 286.465719 71.15142 
L 288.64801 70.30988 
L 290.830301 71.807961 
L 293.012592 75.731775 
L 295.194883 82.076359 
L 297.377174 90.735605 
L 299.559464 101.500393 
L 301.741755 114.066169 
L 303.924046 128.049907 
L 308.288628 158.501481 
L 312.65321 189.273227 
L 314.8355 203.799606 
L 317.017791 217.373105 
L 319.200082 229.821254 
L 321.382373 241.062896 
L 323.564664 251.099295 
L 325.746955 259.998646 
L 327.929246 267.876489 
L 330.111536 274.874807 
L 332.293827 281.142407 
L 334.476118 286.81871 
L 336.658409 292.022333 
L 338.8407 296.845003 
L 341.022991 301.350541 
L 343.205282 305.577985 
L 345.387573 309.547457 
L 347.569863 313.267227 
L 349.752154 316.740489 
L 351.934445 319.970695 
L 354.116736 322.964743 
L 356.299027 325.7339 
L 358.481318 328.292792 
L 360.663609 330.657202 
L 362.845899 332.841554 
L 365.02819 334.856903 
L 367.210481 336.710034 
L 369.392772 338.403904 
L 371.575063 339.939341 
L 373.757354 341.317638 
L 375.939645 342.543527 
L 380.304226 344.590539 
L 386.851099 347.083094 
L 391.215681 348.879744 
L 393.397971 349.966867 
L 395.580262 351.23113 
L 397.762553 352.692602 
L 399.944844 354.352129 
L 404.309426 358.168173 
L 413.038589 366.345445 
L 415.22088 368.180006 
L 417.403171 369.859605 
L 419.585462 371.378515 
L 423.950044 373.989516 
L 428.314625 376.215203 
L 439.22608 381.335026 
L 445.772952 384.186056 
L 450.137534 385.79744 
L 454.502116 387.087529 
L 458.866697 388.036662 
L 463.231279 388.668539 
L 467.595861 389.041369 
L 474.142733 389.308096 
L 485.054188 389.695792 
L 502.512515 390.727446 
L 522.153132 391.874422 
L 530.882296 392.121796 
L 541.79375 392.210772 
L 541.79375 392.210772 
" clip-path="url(#p327c821f00)" style="fill: none; stroke: #d62728; stroke-width: 1.5; stroke-linecap: round"/>
   </g>
   <g id="line2d_22">
    <path d="M 90.879596 392.210366 
L 104.403341 392.053978 
L 113.419172 391.697765 
L 140.466663 390.147895 
L 144.974578 389.515179 
L 149.482493 388.513376 
L 151.736451 387.843645 
L 153.990408 387.046483 
L 156.244366 386.111733 
L 158.498324 385.030976 
L 160.752281 383.798941 
L 163.006239 382.415178 
L 167.514154 379.22268 
L 172.022069 375.579308 
L 178.783942 369.681789 
L 187.799772 361.526597 
L 192.307688 357.155489 
L 196.815603 352.380236 
L 201.323518 347.117031 
L 205.831433 341.36647 
L 210.339348 335.116303 
L 212.593306 331.758177 
L 214.847264 328.188574 
L 217.101221 324.344846 
L 219.355179 320.153014 
L 221.609136 315.53602 
L 223.863094 310.424172 
L 226.117051 304.7659 
L 228.371009 298.536676 
L 230.624967 291.744105 
L 232.878924 284.427869 
L 237.386839 268.505692 
L 241.894755 251.416975 
L 248.656627 224.567737 
L 253.164543 205.805553 
L 257.672458 185.92356 
L 262.180373 164.694615 
L 273.450161 109.662877 
L 275.704119 99.782305 
L 277.958076 90.872791 
L 280.212034 83.21789 
L 282.465991 77.095319 
L 284.719949 72.764779 
L 286.973907 70.455273 
L 289.227864 70.352155 
L 291.481822 72.584258 
L 293.735779 77.211714 
L 295.989737 84.215308 
L 298.243695 93.488592 
L 300.497652 104.834231 
L 302.75161 117.966258 
L 305.005567 132.519688 
L 309.513483 164.150508 
L 314.021398 196.083344 
L 316.275355 211.125919 
L 318.529313 225.143221 
L 320.783271 237.952213 
L 323.037228 249.473221 
L 325.291186 259.718524 
L 327.545143 268.77105 
L 329.799101 276.757744 
L 332.053059 283.822844 
L 334.307016 290.105617 
L 336.560974 295.725533 
L 338.814931 300.775763 
L 341.068889 305.323992 
L 343.322847 309.418234 
L 345.576804 313.094904 
L 347.830762 316.386656 
L 350.084719 319.328317 
L 352.338677 321.960101 
L 354.592635 324.328141 
L 356.846592 326.48284 
L 361.354507 330.355827 
L 368.11638 335.69233 
L 377.13221 342.540821 
L 381.640126 345.680229 
L 388.401998 349.955112 
L 392.909914 352.820412 
L 397.417829 356.052633 
L 401.925744 359.81319 
L 406.433659 363.994015 
L 413.195532 370.296992 
L 415.44949 372.213753 
L 417.703447 373.980946 
L 419.957405 375.58461 
L 422.211362 377.025525 
L 426.719278 379.483754 
L 431.227193 381.556267 
L 440.243023 385.308823 
L 444.750938 387.067178 
L 449.258854 388.589595 
L 453.766769 389.716573 
L 456.020726 390.10106 
L 458.274684 390.364119 
L 462.782599 390.563933 
L 467.290514 390.447585 
L 478.560302 389.898854 
L 485.322175 389.911684 
L 494.338006 390.274677 
L 507.861751 391.091753 
L 519.131539 391.79653 
L 528.147369 392.103654 
L 539.417157 392.210328 
L 539.417157 392.210328 
" clip-path="url(#p327c821f00)" style="fill: none; stroke: #9467bd; stroke-width: 1.5; stroke-linecap: round"/>
   </g>
   <g id="line2d_23">
    <path d="M 79.481509 392.210192 
L 90.885581 392.097335 
L 100.008838 391.779632 
L 118.255353 390.92431 
L 131.940239 390.577476 
L 136.501868 390.253371 
L 141.063497 389.748722 
L 145.625125 389.050714 
L 150.186754 388.139708 
L 154.748383 386.962494 
L 159.310011 385.411317 
L 161.590826 384.446209 
L 163.87164 383.324327 
L 166.152454 382.023826 
L 168.433269 380.526853 
L 170.714083 378.822108 
L 172.994897 376.90671 
L 175.275712 374.786919 
L 177.556526 372.477556 
L 182.118155 367.38076 
L 186.679783 361.823827 
L 193.522226 353.05328 
L 202.645484 341.334648 
L 209.487927 332.938867 
L 214.049556 327.321346 
L 216.33037 324.329683 
L 218.611184 321.090163 
L 220.891999 317.492956 
L 223.172813 313.427797 
L 225.453627 308.795962 
L 227.734442 303.521889 
L 230.015256 297.562333 
L 232.29607 290.911189 
L 234.576885 283.598793 
L 236.857699 275.685577 
L 239.138513 267.251078 
L 243.700142 249.151179 
L 248.261771 229.833313 
L 252.823399 209.520593 
L 257.385028 188.246299 
L 264.227471 154.982347 
L 268.7891 132.789312 
L 273.350728 111.723749 
L 275.631543 102.010468 
L 277.912357 93.100526 
L 280.193171 85.221404 
L 282.473986 78.62734 
L 284.7548 73.590951 
L 287.035615 70.387552 
L 289.316429 69.27349 
L 291.597243 70.461287 
L 293.878058 74.095089 
L 296.158872 80.229868 
L 298.439686 88.817054 
L 300.720501 99.698322 
L 303.001315 112.608218 
L 305.282129 127.185603 
L 309.843758 159.544177 
L 314.405387 192.871986 
L 316.686201 208.719879 
L 318.967015 223.515706 
L 321.24783 236.998225 
L 323.528644 249.018263 
L 325.809458 259.539429 
L 328.090273 268.627836 
L 330.371087 276.432389 
L 332.651901 283.1583 
L 334.932716 289.037224 
L 337.21353 294.297646 
L 339.494344 299.139057 
L 344.055973 308.111884 
L 348.617602 316.468099 
L 350.898416 320.35232 
L 353.17923 323.949178 
L 355.460045 327.186344 
L 357.740859 330.008794 
L 360.021673 332.39047 
L 362.302488 334.340027 
L 364.583302 335.900762 
L 366.864117 337.145697 
L 371.425745 339.077075 
L 375.987374 340.960159 
L 378.268188 342.109549 
L 380.549003 343.475964 
L 382.829817 345.082889 
L 385.110631 346.924325 
L 387.391446 348.967904 
L 391.953074 353.440535 
L 396.514703 358.00172 
L 401.076332 362.248202 
L 405.63796 366.027118 
L 410.199589 369.405349 
L 414.761218 372.525483 
L 421.603661 376.89593 
L 426.165289 379.590085 
L 430.726918 382.06389 
L 435.288547 384.300706 
L 439.850175 386.295933 
L 444.411804 388.024092 
L 448.973433 389.428199 
L 453.535062 390.447306 
L 458.09669 391.057945 
L 462.658319 391.296611 
L 467.219948 391.252937 
L 476.343205 390.787539 
L 483.185648 390.501586 
L 490.028091 390.468424 
L 496.870534 390.713482 
L 508.274606 391.474556 
L 517.397863 391.961928 
L 526.52112 392.167043 
L 533.363564 392.210103 
L 533.363564 392.210103 
" clip-path="url(#p327c821f00)" style="fill: none; stroke: #8c564b; stroke-width: 1.5; stroke-linecap: round"/>
   </g>
   <g id="line2d_24">
    <path d="M 79.647223 392.210157 
L 91.121226 392.094944 
L 100.300429 391.772641 
L 114.069233 391.126665 
L 120.953635 391.082236 
L 130.132838 391.155162 
L 134.722439 391.003892 
L 139.31204 390.607426 
L 143.901641 389.942084 
L 148.491243 389.017735 
L 153.080844 387.832273 
L 157.670445 386.343913 
L 162.260047 384.481276 
L 164.554847 383.3852 
L 166.849648 382.165917 
L 169.144449 380.812207 
L 171.439249 379.311213 
L 173.73405 377.64875 
L 176.028851 375.810813 
L 178.323651 373.786162 
L 180.618452 371.569375 
L 182.913253 369.163408 
L 187.502854 363.842449 
L 192.092455 358.009648 
L 198.976857 348.761648 
L 205.861259 339.219822 
L 210.450861 332.582615 
L 215.040462 325.387569 
L 217.335263 321.432585 
L 219.630063 317.151161 
L 221.924864 312.486768 
L 224.219665 307.402377 
L 226.514465 301.887403 
L 228.809266 295.959172 
L 233.398867 283.033994 
L 237.988469 268.990011 
L 242.57807 253.915325 
L 244.872871 245.882469 
L 247.167671 237.411973 
L 249.462472 228.418103 
L 251.757273 218.83358 
L 254.052073 208.626816 
L 256.346874 197.814109 
L 260.936475 174.699803 
L 270.115678 127.121613 
L 272.410479 116.137143 
L 274.705279 105.927468 
L 277.00008 96.684102 
L 279.294881 88.594354 
L 281.589681 81.846942 
L 283.884482 76.636205 
L 286.179283 73.162182 
L 288.474083 71.624487 
L 290.768884 72.209089 
L 293.063685 75.068586 
L 295.358485 80.298218 
L 297.653286 87.911292 
L 299.948087 97.818603 
L 302.242887 109.816573 
L 304.537688 123.587928 
L 306.832489 138.716898 
L 316.011691 202.928338 
L 318.306492 217.627658 
L 320.601293 231.154316 
L 322.896093 243.385484 
L 325.190894 254.302728 
L 327.485695 263.969153 
L 329.780495 272.500468 
L 332.075296 280.035811 
L 334.370097 286.713235 
L 336.664897 292.652897 
L 338.959698 297.948893 
L 341.254499 302.668803 
L 343.549299 306.858875 
L 345.8441 310.552381 
L 348.138901 313.778861 
L 350.433701 316.572525 
L 352.728502 318.978643 
L 355.023303 321.057182 
L 357.318103 322.8833 
L 366.497306 329.465429 
L 368.792106 331.350494 
L 371.086907 333.440951 
L 373.381708 335.74583 
L 377.971309 340.900192 
L 387.150512 351.809168 
L 389.445312 354.310262 
L 391.740113 356.638276 
L 394.034914 358.778496 
L 396.329714 360.731048 
L 398.624515 362.508211 
L 403.214116 365.624009 
L 407.803718 368.325098 
L 414.68812 371.974939 
L 423.867322 376.716202 
L 430.751724 380.568916 
L 439.930927 385.84072 
L 444.520528 388.067704 
L 446.815329 388.984814 
L 449.11013 389.752471 
L 451.40493 390.368056 
L 453.699731 390.837033 
L 455.994532 391.171122 
L 460.584133 391.500104 
L 465.173734 391.498501 
L 472.058136 391.17753 
L 481.237339 390.705162 
L 488.121741 390.555497 
L 495.006143 390.623099 
L 501.890545 390.904224 
L 522.543751 392.035299 
L 531.722954 392.187524 
L 536.312555 392.210114 
L 536.312555 392.210114 
" clip-path="url(#p327c821f00)" style="fill: none; stroke: #e377c2; stroke-width: 1.5; stroke-linecap: round"/>
   </g>
   <g id="patch_3">
    <path d="M 50.2625 392.2225 
L 50.2625 10.8 
" style="fill: none; stroke: #ffffff; stroke-width: 0.8; stroke-linejoin: miter; stroke-linecap: square"/>
   </g>
   <g id="patch_4">
    <path d="M 565.2 392.2225 
L 565.2 10.8 
" style="fill: none; stroke: #ffffff; stroke-width: 0.8; stroke-linejoin: miter; stroke-linecap: square"/>
   </g>
   <g id="patch_5">
    <path d="M 50.2625 392.2225 
L 565.2 392.2225 
" style="fill: none; stroke: #ffffff; stroke-width: 0.8; stroke-linejoin: miter; stroke-linecap: square"/>
   </g>
   <g id="patch_6">
    <path d="M 50.2625 10.8 
L 565.2 10.8 
" style="fill: none; stroke: #ffffff; stroke-width: 0.8; stroke-linejoin: miter; stroke-linecap: square"/>
   </g>
   <g id="legend_1">
    <g id="patch_7">
     <path d="M 500.078125 118.75625 
L 558.2 118.75625 
Q 560.2 118.75625 560.2 116.75625 
L 560.2 17.8 
Q 560.2 15.8 558.2 15.8 
L 500.078125 15.8 
Q 498.078125 15.8 498.078125 17.8 
L 498.078125 116.75625 
Q 498.078125 118.75625 500.078125 118.75625 
z
" style="fill: #eaeaf2; opacity: 0.8; stroke: #cccccc; stroke-linejoin: miter"/>
    </g>
    <g id="line2d_25">
     <path d="M 502.078125 23.4875 
L 512.078125 23.4875 
L 522.078125 23.4875 
" style="fill: none; stroke: #1f77b4; stroke-width: 1.5; stroke-linecap: round"/>
    </g>
    <g id="text_20">
     <!-- Day 1 -->
     <g style="fill: #262626" transform="translate(530.078125 26.9875) scale(0.1 -0.1)">
      <use xlink:href="#ArialMT-44"/>
      <use xlink:href="#ArialMT-61" x="72.216797"/>
      <use xlink:href="#ArialMT-79" x="127.832031"/>
      <use xlink:href="#ArialMT-20" x="177.832031"/>
      <use xlink:href="#ArialMT-31" x="205.615234"/>
     </g>
    </g>
    <g id="line2d_26">
     <path d="M 502.078125 37.779688 
L 512.078125 37.779688 
L 522.078125 37.779688 
" style="fill: none; stroke: #ff7f0e; stroke-width: 1.5; stroke-linecap: round"/>
    </g>
    <g id="text_21">
     <!-- Day 2 -->
     <g style="fill: #262626" transform="translate(530.078125 41.279688) scale(0.1 -0.1)">
      <use xlink:href="#ArialMT-44"/>
      <use xlink:href="#ArialMT-61" x="72.216797"/>
      <use xlink:href="#ArialMT-79" x="127.832031"/>
      <use xlink:href="#ArialMT-20" x="177.832031"/>
      <use xlink:href="#ArialMT-32" x="205.615234"/>
     </g>
    </g>
    <g id="line2d_27">
     <path d="M 502.078125 52.071875 
L 512.078125 52.071875 
L 522.078125 52.071875 
" style="fill: none; stroke: #2ca02c; stroke-width: 1.5; stroke-linecap: round"/>
    </g>
    <g id="text_22">
     <!-- Day 3 -->
     <g style="fill: #262626" transform="translate(530.078125 55.571875) scale(0.1 -0.1)">
      <defs>
       <path id="ArialMT-33" d="M 269 1209 
L 831 1284 
Q 928 806 1161 595 
Q 1394 384 1728 384 
Q 2125 384 2398 659 
Q 2672 934 2672 1341 
Q 2672 1728 2419 1979 
Q 2166 2231 1775 2231 
Q 1616 2231 1378 2169 
L 1441 2663 
Q 1497 2656 1531 2656 
Q 1891 2656 2178 2843 
Q 2466 3031 2466 3422 
Q 2466 3731 2256 3934 
Q 2047 4138 1716 4138 
Q 1388 4138 1169 3931 
Q 950 3725 888 3313 
L 325 3413 
Q 428 3978 793 4289 
Q 1159 4600 1703 4600 
Q 2078 4600 2393 4439 
Q 2709 4278 2876 4000 
Q 3044 3722 3044 3409 
Q 3044 3113 2884 2869 
Q 2725 2625 2413 2481 
Q 2819 2388 3044 2092 
Q 3269 1797 3269 1353 
Q 3269 753 2831 336 
Q 2394 -81 1725 -81 
Q 1122 -81 723 278 
Q 325 638 269 1209 
z
" transform="scale(0.015625)"/>
      </defs>
      <use xlink:href="#ArialMT-44"/>
      <use xlink:href="#ArialMT-61" x="72.216797"/>
      <use xlink:href="#ArialMT-79" x="127.832031"/>
      <use xlink:href="#ArialMT-20" x="177.832031"/>
      <use xlink:href="#ArialMT-33" x="205.615234"/>
     </g>
    </g>
    <g id="line2d_28">
     <path d="M 502.078125 66.334375 
L 512.078125 66.334375 
L 522.078125 66.334375 
" style="fill: none; stroke: #d62728; stroke-width: 1.5; stroke-linecap: round"/>
    </g>
    <g id="text_23">
     <!-- Day 4 -->
     <g style="fill: #262626" transform="translate(530.078125 69.834375) scale(0.1 -0.1)">
      <use xlink:href="#ArialMT-44"/>
      <use xlink:href="#ArialMT-61" x="72.216797"/>
      <use xlink:href="#ArialMT-79" x="127.832031"/>
      <use xlink:href="#ArialMT-20" x="177.832031"/>
      <use xlink:href="#ArialMT-34" x="205.615234"/>
     </g>
    </g>
    <g id="line2d_29">
     <path d="M 502.078125 80.596875 
L 512.078125 80.596875 
L 522.078125 80.596875 
" style="fill: none; stroke: #9467bd; stroke-width: 1.5; stroke-linecap: round"/>
    </g>
    <g id="text_24">
     <!-- Day 5 -->
     <g style="fill: #262626" transform="translate(530.078125 84.096875) scale(0.1 -0.1)">
      <use xlink:href="#ArialMT-44"/>
      <use xlink:href="#ArialMT-61" x="72.216797"/>
      <use xlink:href="#ArialMT-79" x="127.832031"/>
      <use xlink:href="#ArialMT-20" x="177.832031"/>
      <use xlink:href="#ArialMT-35" x="205.615234"/>
     </g>
    </g>
    <g id="line2d_30">
     <path d="M 502.078125 94.889063 
L 512.078125 94.889063 
L 522.078125 94.889063 
" style="fill: none; stroke: #8c564b; stroke-width: 1.5; stroke-linecap: round"/>
    </g>
    <g id="text_25">
     <!-- Day 6 -->
     <g style="fill: #262626" transform="translate(530.078125 98.389063) scale(0.1 -0.1)">
      <use xlink:href="#ArialMT-44"/>
      <use xlink:href="#ArialMT-61" x="72.216797"/>
      <use xlink:href="#ArialMT-79" x="127.832031"/>
      <use xlink:href="#ArialMT-20" x="177.832031"/>
      <use xlink:href="#ArialMT-36" x="205.615234"/>
     </g>
    </g>
    <g id="line2d_31">
     <path d="M 502.078125 109.151563 
L 512.078125 109.151563 
L 522.078125 109.151563 
" style="fill: none; stroke: #e377c2; stroke-width: 1.5; stroke-linecap: round"/>
    </g>
    <g id="text_26">
     <!-- Day 7 -->
     <g style="fill: #262626" transform="translate(530.078125 112.651563) scale(0.1 -0.1)">
      <defs>
       <path id="ArialMT-37" d="M 303 3981 
L 303 4522 
L 3269 4522 
L 3269 4084 
Q 2831 3619 2401 2847 
Q 1972 2075 1738 1259 
Q 1569 684 1522 0 
L 944 0 
Q 953 541 1156 1306 
Q 1359 2072 1739 2783 
Q 2119 3494 2547 3981 
L 303 3981 
z
" transform="scale(0.015625)"/>
      </defs>
      <use xlink:href="#ArialMT-44"/>
      <use xlink:href="#ArialMT-61" x="72.216797"/>
      <use xlink:href="#ArialMT-79" x="127.832031"/>
      <use xlink:href="#ArialMT-20" x="177.832031"/>
      <use xlink:href="#ArialMT-37" x="205.615234"/>
     </g>
    </g>
   </g>
  </g>
 </g>
 <defs>
  <clipPath id="p327c821f00">
   <rect x="50.2625" y="10.8" width="514.9375" height="381.4225"/>
  </clipPath>
 </defs>
</svg>
