<?xml version="1.0" encoding="utf-8" standalone="no"?>
<!DOCTYPE svg PUBLIC "-//W3C//DTD SVG 1.1//EN"
  "http://www.w3.org/Graphics/SVG/1.1/DTD/svg11.dtd">
<svg xmlns:xlink="http://www.w3.org/1999/xlink" width="576pt" height="432pt" viewBox="0 0 576 432" xmlns="http://www.w3.org/2000/svg" version="1.1">
 <metadata>
  <rdf:RDF xmlns:dc="http://purl.org/dc/elements/1.1/" xmlns:cc="http://creativecommons.org/ns#" xmlns:rdf="http://www.w3.org/1999/02/22-rdf-syntax-ns#">
   <cc:Work>
    <dc:type rdf:resource="http://purl.org/dc/dcmitype/StillImage"/>
    <dc:date>2023-11-17T05:15:17.062882</dc:date>
    <dc:format>image/svg+xml</dc:format>
    <dc:creator>
     <cc:Agent>
      <dc:title>Matplotlib v3.8.0, https://matplotlib.org/</dc:title>
     </cc:Agent>
    </dc:creator>
   </cc:Work>
  </rdf:RDF>
 </metadata>
 <defs>
  <style type="text/css">*{stroke-linejoin: round; stroke-linecap: butt}</style>
 </defs>
 <g id="figure_1">
  <g id="patch_1">
   <path d="M 0 432 
L 576 432 
L 576 0 
L 0 0 
z
" style="fill: #ffffff"/>
  </g>
  <g id="axes_1">
   <g id="patch_2">
    <path d="M 50.2625 392.2225 
L 565.2 392.2225 
L 565.2 10.8 
L 50.2625 10.8 
z
" style="fill: #eaeaf2"/>
   </g>
   <g id="matplotlib.axis_1">
    <g id="xtick_1">
     <g id="line2d_1">
      <path d="M 101.594384 392.2225 
L 101.594384 10.8 
" clip-path="url(#p538190f13d)" style="fill: none; stroke: #ffffff; stroke-width: 0.8; stroke-linecap: round"/>
     </g>
     <g id="text_1">
      <!-- −15 -->
      <g style="fill: #262626" transform="translate(93.113134 406.380313) scale(0.1 -0.1)">
       <defs>
        <path id="ArialMT-2212" d="M 3381 1997 
L 356 1997 
L 356 2522 
L 3381 2522 
L 3381 1997 
z
" transform="scale(0.015625)"/>
        <path id="ArialMT-31" d="M 2384 0 
L 1822 0 
L 1822 3584 
Q 1619 3391 1289 3197 
Q 959 3003 697 2906 
L 697 3450 
Q 1169 3672 1522 3987 
Q 1875 4303 2022 4600 
L 2384 4600 
L 2384 0 
z
" transform="scale(0.015625)"/>
        <path id="ArialMT-35" d="M 266 1200 
L 856 1250 
Q 922 819 1161 601 
Q 1400 384 1738 384 
Q 2144 384 2425 690 
Q 2706 997 2706 1503 
Q 2706 1984 2436 2262 
Q 2166 2541 1728 2541 
Q 1456 2541 1237 2417 
Q 1019 2294 894 2097 
L 366 2166 
L 809 4519 
L 3088 4519 
L 3088 3981 
L 1259 3981 
L 1013 2750 
Q 1425 3038 1878 3038 
Q 2478 3038 2890 2622 
Q 3303 2206 3303 1553 
Q 3303 931 2941 478 
Q 2500 -78 1738 -78 
Q 1113 -78 717 272 
Q 322 622 266 1200 
z
" transform="scale(0.015625)"/>
       </defs>
       <use xlink:href="#ArialMT-2212"/>
       <use xlink:href="#ArialMT-31" x="58.398438"/>
       <use xlink:href="#ArialMT-35" x="114.013672"/>
      </g>
     </g>
    </g>
    <g id="xtick_2">
     <g id="line2d_2">
      <path d="M 165.384591 392.2225 
L 165.384591 10.8 
" clip-path="url(#p538190f13d)" style="fill: none; stroke: #ffffff; stroke-width: 0.8; stroke-linecap: round"/>
     </g>
     <g id="text_2">
      <!-- −10 -->
      <g style="fill: #262626" transform="translate(156.903341 406.380313) scale(0.1 -0.1)">
       <defs>
        <path id="ArialMT-30" d="M 266 2259 
Q 266 3072 433 3567 
Q 600 4063 929 4331 
Q 1259 4600 1759 4600 
Q 2128 4600 2406 4451 
Q 2684 4303 2865 4023 
Q 3047 3744 3150 3342 
Q 3253 2941 3253 2259 
Q 3253 1453 3087 958 
Q 2922 463 2592 192 
Q 2263 -78 1759 -78 
Q 1097 -78 719 397 
Q 266 969 266 2259 
z
M 844 2259 
Q 844 1131 1108 757 
Q 1372 384 1759 384 
Q 2147 384 2411 759 
Q 2675 1134 2675 2259 
Q 2675 3391 2411 3762 
Q 2147 4134 1753 4134 
Q 1366 4134 1134 3806 
Q 844 3388 844 2259 
z
" transform="scale(0.015625)"/>
       </defs>
       <use xlink:href="#ArialMT-2212"/>
       <use xlink:href="#ArialMT-31" x="58.398438"/>
       <use xlink:href="#ArialMT-30" x="114.013672"/>
      </g>
     </g>
    </g>
    <g id="xtick_3">
     <g id="line2d_3">
      <path d="M 229.174799 392.2225 
L 229.174799 10.8 
" clip-path="url(#p538190f13d)" style="fill: none; stroke: #ffffff; stroke-width: 0.8; stroke-linecap: round"/>
     </g>
     <g id="text_3">
      <!-- −5 -->
      <g style="fill: #262626" transform="translate(223.474017 406.380313) scale(0.1 -0.1)">
       <use xlink:href="#ArialMT-2212"/>
       <use xlink:href="#ArialMT-35" x="58.398438"/>
      </g>
     </g>
    </g>
    <g id="xtick_4">
     <g id="line2d_4">
      <path d="M 292.965006 392.2225 
L 292.965006 10.8 
" clip-path="url(#p538190f13d)" style="fill: none; stroke: #ffffff; stroke-width: 0.8; stroke-linecap: round"/>
     </g>
     <g id="text_4">
      <!-- 0 -->
      <g style="fill: #262626" transform="translate(290.184537 406.380313) scale(0.1 -0.1)">
       <use xlink:href="#ArialMT-30"/>
      </g>
     </g>
    </g>
    <g id="xtick_5">
     <g id="line2d_5">
      <path d="M 356.755213 392.2225 
L 356.755213 10.8 
" clip-path="url(#p538190f13d)" style="fill: none; stroke: #ffffff; stroke-width: 0.8; stroke-linecap: round"/>
     </g>
     <g id="text_5">
      <!-- 5 -->
      <g style="fill: #262626" transform="translate(353.974744 406.380313) scale(0.1 -0.1)">
       <use xlink:href="#ArialMT-35"/>
      </g>
     </g>
    </g>
    <g id="xtick_6">
     <g id="line2d_6">
      <path d="M 420.54542 392.2225 
L 420.54542 10.8 
" clip-path="url(#p538190f13d)" style="fill: none; stroke: #ffffff; stroke-width: 0.8; stroke-linecap: round"/>
     </g>
     <g id="text_6">
      <!-- 10 -->
      <g style="fill: #262626" transform="translate(414.984483 406.380313) scale(0.1 -0.1)">
       <use xlink:href="#ArialMT-31"/>
       <use xlink:href="#ArialMT-30" x="55.615234"/>
      </g>
     </g>
    </g>
    <g id="xtick_7">
     <g id="line2d_7">
      <path d="M 484.335628 392.2225 
L 484.335628 10.8 
" clip-path="url(#p538190f13d)" style="fill: none; stroke: #ffffff; stroke-width: 0.8; stroke-linecap: round"/>
     </g>
     <g id="text_7">
      <!-- 15 -->
      <g style="fill: #262626" transform="translate(478.77469 406.380313) scale(0.1 -0.1)">
       <use xlink:href="#ArialMT-31"/>
       <use xlink:href="#ArialMT-35" x="55.615234"/>
      </g>
     </g>
    </g>
    <g id="xtick_8">
     <g id="line2d_8">
      <path d="M 548.125835 392.2225 
L 548.125835 10.8 
" clip-path="url(#p538190f13d)" style="fill: none; stroke: #ffffff; stroke-width: 0.8; stroke-linecap: round"/>
     </g>
     <g id="text_8">
      <!-- 20 -->
      <g style="fill: #262626" transform="translate(542.564897 406.380313) scale(0.1 -0.1)">
       <defs>
        <path id="ArialMT-32" d="M 3222 541 
L 3222 0 
L 194 0 
Q 188 203 259 391 
Q 375 700 629 1000 
Q 884 1300 1366 1694 
Q 2113 2306 2375 2664 
Q 2638 3022 2638 3341 
Q 2638 3675 2398 3904 
Q 2159 4134 1775 4134 
Q 1369 4134 1125 3890 
Q 881 3647 878 3216 
L 300 3275 
Q 359 3922 746 4261 
Q 1134 4600 1788 4600 
Q 2447 4600 2831 4234 
Q 3216 3869 3216 3328 
Q 3216 3053 3103 2787 
Q 2991 2522 2730 2228 
Q 2469 1934 1863 1422 
Q 1356 997 1212 845 
Q 1069 694 975 541 
L 3222 541 
z
" transform="scale(0.015625)"/>
       </defs>
       <use xlink:href="#ArialMT-32"/>
       <use xlink:href="#ArialMT-30" x="55.615234"/>
      </g>
     </g>
    </g>
    <g id="text_9">
     <!-- Minimum Temperature Predictive Error (°C) -->
     <g style="fill: #262626" transform="translate(211.91875 419.6475) scale(0.1 -0.1)">
      <defs>
       <path id="ArialMT-4d" d="M 475 0 
L 475 4581 
L 1388 4581 
L 2472 1338 
Q 2622 884 2691 659 
Q 2769 909 2934 1394 
L 4031 4581 
L 4847 4581 
L 4847 0 
L 4263 0 
L 4263 3834 
L 2931 0 
L 2384 0 
L 1059 3900 
L 1059 0 
L 475 0 
z
" transform="scale(0.015625)"/>
       <path id="ArialMT-69" d="M 425 3934 
L 425 4581 
L 988 4581 
L 988 3934 
L 425 3934 
z
M 425 0 
L 425 3319 
L 988 3319 
L 988 0 
L 425 0 
z
" transform="scale(0.015625)"/>
       <path id="ArialMT-6e" d="M 422 0 
L 422 3319 
L 928 3319 
L 928 2847 
Q 1294 3394 1984 3394 
Q 2284 3394 2536 3286 
Q 2788 3178 2913 3003 
Q 3038 2828 3088 2588 
Q 3119 2431 3119 2041 
L 3119 0 
L 2556 0 
L 2556 2019 
Q 2556 2363 2490 2533 
Q 2425 2703 2258 2804 
Q 2091 2906 1866 2906 
Q 1506 2906 1245 2678 
Q 984 2450 984 1813 
L 984 0 
L 422 0 
z
" transform="scale(0.015625)"/>
       <path id="ArialMT-6d" d="M 422 0 
L 422 3319 
L 925 3319 
L 925 2853 
Q 1081 3097 1340 3245 
Q 1600 3394 1931 3394 
Q 2300 3394 2536 3241 
Q 2772 3088 2869 2813 
Q 3263 3394 3894 3394 
Q 4388 3394 4653 3120 
Q 4919 2847 4919 2278 
L 4919 0 
L 4359 0 
L 4359 2091 
Q 4359 2428 4304 2576 
Q 4250 2725 4106 2815 
Q 3963 2906 3769 2906 
Q 3419 2906 3187 2673 
Q 2956 2441 2956 1928 
L 2956 0 
L 2394 0 
L 2394 2156 
Q 2394 2531 2256 2718 
Q 2119 2906 1806 2906 
Q 1569 2906 1367 2781 
Q 1166 2656 1075 2415 
Q 984 2175 984 1722 
L 984 0 
L 422 0 
z
" transform="scale(0.015625)"/>
       <path id="ArialMT-75" d="M 2597 0 
L 2597 488 
Q 2209 -75 1544 -75 
Q 1250 -75 995 37 
Q 741 150 617 320 
Q 494 491 444 738 
Q 409 903 409 1263 
L 409 3319 
L 972 3319 
L 972 1478 
Q 972 1038 1006 884 
Q 1059 663 1231 536 
Q 1403 409 1656 409 
Q 1909 409 2131 539 
Q 2353 669 2445 892 
Q 2538 1116 2538 1541 
L 2538 3319 
L 3100 3319 
L 3100 0 
L 2597 0 
z
" transform="scale(0.015625)"/>
       <path id="ArialMT-20" transform="scale(0.015625)"/>
       <path id="ArialMT-54" d="M 1659 0 
L 1659 4041 
L 150 4041 
L 150 4581 
L 3781 4581 
L 3781 4041 
L 2266 4041 
L 2266 0 
L 1659 0 
z
" transform="scale(0.015625)"/>
       <path id="ArialMT-65" d="M 2694 1069 
L 3275 997 
Q 3138 488 2766 206 
Q 2394 -75 1816 -75 
Q 1088 -75 661 373 
Q 234 822 234 1631 
Q 234 2469 665 2931 
Q 1097 3394 1784 3394 
Q 2450 3394 2872 2941 
Q 3294 2488 3294 1666 
Q 3294 1616 3291 1516 
L 816 1516 
Q 847 969 1125 678 
Q 1403 388 1819 388 
Q 2128 388 2347 550 
Q 2566 713 2694 1069 
z
M 847 1978 
L 2700 1978 
Q 2663 2397 2488 2606 
Q 2219 2931 1791 2931 
Q 1403 2931 1139 2672 
Q 875 2413 847 1978 
z
" transform="scale(0.015625)"/>
       <path id="ArialMT-70" d="M 422 -1272 
L 422 3319 
L 934 3319 
L 934 2888 
Q 1116 3141 1344 3267 
Q 1572 3394 1897 3394 
Q 2322 3394 2647 3175 
Q 2972 2956 3137 2557 
Q 3303 2159 3303 1684 
Q 3303 1175 3120 767 
Q 2938 359 2589 142 
Q 2241 -75 1856 -75 
Q 1575 -75 1351 44 
Q 1128 163 984 344 
L 984 -1272 
L 422 -1272 
z
M 931 1641 
Q 931 1000 1190 694 
Q 1450 388 1819 388 
Q 2194 388 2461 705 
Q 2728 1022 2728 1688 
Q 2728 2322 2467 2637 
Q 2206 2953 1844 2953 
Q 1484 2953 1207 2617 
Q 931 2281 931 1641 
z
" transform="scale(0.015625)"/>
       <path id="ArialMT-72" d="M 416 0 
L 416 3319 
L 922 3319 
L 922 2816 
Q 1116 3169 1280 3281 
Q 1444 3394 1641 3394 
Q 1925 3394 2219 3213 
L 2025 2691 
Q 1819 2813 1613 2813 
Q 1428 2813 1281 2702 
Q 1134 2591 1072 2394 
Q 978 2094 978 1738 
L 978 0 
L 416 0 
z
" transform="scale(0.015625)"/>
       <path id="ArialMT-61" d="M 2588 409 
Q 2275 144 1986 34 
Q 1697 -75 1366 -75 
Q 819 -75 525 192 
Q 231 459 231 875 
Q 231 1119 342 1320 
Q 453 1522 633 1644 
Q 813 1766 1038 1828 
Q 1203 1872 1538 1913 
Q 2219 1994 2541 2106 
Q 2544 2222 2544 2253 
Q 2544 2597 2384 2738 
Q 2169 2928 1744 2928 
Q 1347 2928 1158 2789 
Q 969 2650 878 2297 
L 328 2372 
Q 403 2725 575 2942 
Q 747 3159 1072 3276 
Q 1397 3394 1825 3394 
Q 2250 3394 2515 3294 
Q 2781 3194 2906 3042 
Q 3031 2891 3081 2659 
Q 3109 2516 3109 2141 
L 3109 1391 
Q 3109 606 3145 398 
Q 3181 191 3288 0 
L 2700 0 
Q 2613 175 2588 409 
z
M 2541 1666 
Q 2234 1541 1622 1453 
Q 1275 1403 1131 1340 
Q 988 1278 909 1158 
Q 831 1038 831 891 
Q 831 666 1001 516 
Q 1172 366 1500 366 
Q 1825 366 2078 508 
Q 2331 650 2450 897 
Q 2541 1088 2541 1459 
L 2541 1666 
z
" transform="scale(0.015625)"/>
       <path id="ArialMT-74" d="M 1650 503 
L 1731 6 
Q 1494 -44 1306 -44 
Q 1000 -44 831 53 
Q 663 150 594 308 
Q 525 466 525 972 
L 525 2881 
L 113 2881 
L 113 3319 
L 525 3319 
L 525 4141 
L 1084 4478 
L 1084 3319 
L 1650 3319 
L 1650 2881 
L 1084 2881 
L 1084 941 
Q 1084 700 1114 631 
Q 1144 563 1211 522 
Q 1278 481 1403 481 
Q 1497 481 1650 503 
z
" transform="scale(0.015625)"/>
       <path id="ArialMT-50" d="M 494 0 
L 494 4581 
L 2222 4581 
Q 2678 4581 2919 4538 
Q 3256 4481 3484 4323 
Q 3713 4166 3852 3881 
Q 3991 3597 3991 3256 
Q 3991 2672 3619 2267 
Q 3247 1863 2275 1863 
L 1100 1863 
L 1100 0 
L 494 0 
z
M 1100 2403 
L 2284 2403 
Q 2872 2403 3119 2622 
Q 3366 2841 3366 3238 
Q 3366 3525 3220 3729 
Q 3075 3934 2838 4000 
Q 2684 4041 2272 4041 
L 1100 4041 
L 1100 2403 
z
" transform="scale(0.015625)"/>
       <path id="ArialMT-64" d="M 2575 0 
L 2575 419 
Q 2259 -75 1647 -75 
Q 1250 -75 917 144 
Q 584 363 401 755 
Q 219 1147 219 1656 
Q 219 2153 384 2558 
Q 550 2963 881 3178 
Q 1213 3394 1622 3394 
Q 1922 3394 2156 3267 
Q 2391 3141 2538 2938 
L 2538 4581 
L 3097 4581 
L 3097 0 
L 2575 0 
z
M 797 1656 
Q 797 1019 1065 703 
Q 1334 388 1700 388 
Q 2069 388 2326 689 
Q 2584 991 2584 1609 
Q 2584 2291 2321 2609 
Q 2059 2928 1675 2928 
Q 1300 2928 1048 2622 
Q 797 2316 797 1656 
z
" transform="scale(0.015625)"/>
       <path id="ArialMT-63" d="M 2588 1216 
L 3141 1144 
Q 3050 572 2676 248 
Q 2303 -75 1759 -75 
Q 1078 -75 664 370 
Q 250 816 250 1647 
Q 250 2184 428 2587 
Q 606 2991 970 3192 
Q 1334 3394 1763 3394 
Q 2303 3394 2647 3120 
Q 2991 2847 3088 2344 
L 2541 2259 
Q 2463 2594 2264 2762 
Q 2066 2931 1784 2931 
Q 1359 2931 1093 2626 
Q 828 2322 828 1663 
Q 828 994 1084 691 
Q 1341 388 1753 388 
Q 2084 388 2306 591 
Q 2528 794 2588 1216 
z
" transform="scale(0.015625)"/>
       <path id="ArialMT-76" d="M 1344 0 
L 81 3319 
L 675 3319 
L 1388 1331 
Q 1503 1009 1600 663 
Q 1675 925 1809 1294 
L 2547 3319 
L 3125 3319 
L 1869 0 
L 1344 0 
z
" transform="scale(0.015625)"/>
       <path id="ArialMT-45" d="M 506 0 
L 506 4581 
L 3819 4581 
L 3819 4041 
L 1113 4041 
L 1113 2638 
L 3647 2638 
L 3647 2100 
L 1113 2100 
L 1113 541 
L 3925 541 
L 3925 0 
L 506 0 
z
" transform="scale(0.015625)"/>
       <path id="ArialMT-6f" d="M 213 1659 
Q 213 2581 725 3025 
Q 1153 3394 1769 3394 
Q 2453 3394 2887 2945 
Q 3322 2497 3322 1706 
Q 3322 1066 3130 698 
Q 2938 331 2570 128 
Q 2203 -75 1769 -75 
Q 1072 -75 642 372 
Q 213 819 213 1659 
z
M 791 1659 
Q 791 1022 1069 705 
Q 1347 388 1769 388 
Q 2188 388 2466 706 
Q 2744 1025 2744 1678 
Q 2744 2294 2464 2611 
Q 2184 2928 1769 2928 
Q 1347 2928 1069 2612 
Q 791 2297 791 1659 
z
" transform="scale(0.015625)"/>
       <path id="ArialMT-28" d="M 1497 -1347 
Q 1031 -759 709 28 
Q 388 816 388 1659 
Q 388 2403 628 3084 
Q 909 3875 1497 4659 
L 1900 4659 
Q 1522 4009 1400 3731 
Q 1209 3300 1100 2831 
Q 966 2247 966 1656 
Q 966 153 1900 -1347 
L 1497 -1347 
z
" transform="scale(0.015625)"/>
       <path id="ArialMT-b0" d="M 400 3794 
Q 400 4153 654 4406 
Q 909 4659 1266 4659 
Q 1628 4659 1881 4406 
Q 2134 4153 2134 3794 
Q 2134 3434 1879 3179 
Q 1625 2925 1266 2925 
Q 909 2925 654 3178 
Q 400 3431 400 3794 
z
M 741 3794 
Q 741 3575 895 3420 
Q 1050 3266 1269 3266 
Q 1484 3266 1639 3420 
Q 1794 3575 1794 3794 
Q 1794 4013 1639 4167 
Q 1484 4322 1269 4322 
Q 1050 4322 895 4167 
Q 741 4013 741 3794 
z
" transform="scale(0.015625)"/>
       <path id="ArialMT-43" d="M 3763 1606 
L 4369 1453 
Q 4178 706 3683 314 
Q 3188 -78 2472 -78 
Q 1731 -78 1267 223 
Q 803 525 561 1097 
Q 319 1669 319 2325 
Q 319 3041 592 3573 
Q 866 4106 1370 4382 
Q 1875 4659 2481 4659 
Q 3169 4659 3637 4309 
Q 4106 3959 4291 3325 
L 3694 3184 
Q 3534 3684 3231 3912 
Q 2928 4141 2469 4141 
Q 1941 4141 1586 3887 
Q 1231 3634 1087 3207 
Q 944 2781 944 2328 
Q 944 1744 1114 1308 
Q 1284 872 1643 656 
Q 2003 441 2422 441 
Q 2931 441 3284 734 
Q 3638 1028 3763 1606 
z
" transform="scale(0.015625)"/>
       <path id="ArialMT-29" d="M 791 -1347 
L 388 -1347 
Q 1322 153 1322 1656 
Q 1322 2244 1188 2822 
Q 1081 3291 891 3722 
Q 769 4003 388 4659 
L 791 4659 
Q 1378 3875 1659 3084 
Q 1900 2403 1900 1659 
Q 1900 816 1576 28 
Q 1253 -759 791 -1347 
z
" transform="scale(0.015625)"/>
      </defs>
      <use xlink:href="#ArialMT-4d"/>
      <use xlink:href="#ArialMT-69" x="83.300781"/>
      <use xlink:href="#ArialMT-6e" x="105.517578"/>
      <use xlink:href="#ArialMT-69" x="161.132812"/>
      <use xlink:href="#ArialMT-6d" x="183.349609"/>
      <use xlink:href="#ArialMT-75" x="266.650391"/>
      <use xlink:href="#ArialMT-6d" x="322.265625"/>
      <use xlink:href="#ArialMT-20" x="405.566406"/>
      <use xlink:href="#ArialMT-54" x="431.599609"/>
      <use xlink:href="#ArialMT-65" x="481.558594"/>
      <use xlink:href="#ArialMT-6d" x="537.173828"/>
      <use xlink:href="#ArialMT-70" x="620.474609"/>
      <use xlink:href="#ArialMT-65" x="676.089844"/>
      <use xlink:href="#ArialMT-72" x="731.705078"/>
      <use xlink:href="#ArialMT-61" x="765.005859"/>
      <use xlink:href="#ArialMT-74" x="820.621094"/>
      <use xlink:href="#ArialMT-75" x="848.404297"/>
      <use xlink:href="#ArialMT-72" x="904.019531"/>
      <use xlink:href="#ArialMT-65" x="937.320312"/>
      <use xlink:href="#ArialMT-20" x="992.935547"/>
      <use xlink:href="#ArialMT-50" x="1020.71875"/>
      <use xlink:href="#ArialMT-72" x="1087.417969"/>
      <use xlink:href="#ArialMT-65" x="1120.71875"/>
      <use xlink:href="#ArialMT-64" x="1176.333984"/>
      <use xlink:href="#ArialMT-69" x="1231.949219"/>
      <use xlink:href="#ArialMT-63" x="1254.166016"/>
      <use xlink:href="#ArialMT-74" x="1304.166016"/>
      <use xlink:href="#ArialMT-69" x="1331.949219"/>
      <use xlink:href="#ArialMT-76" x="1354.166016"/>
      <use xlink:href="#ArialMT-65" x="1404.166016"/>
      <use xlink:href="#ArialMT-20" x="1459.78125"/>
      <use xlink:href="#ArialMT-45" x="1487.564453"/>
      <use xlink:href="#ArialMT-72" x="1554.263672"/>
      <use xlink:href="#ArialMT-72" x="1587.564453"/>
      <use xlink:href="#ArialMT-6f" x="1620.865234"/>
      <use xlink:href="#ArialMT-72" x="1676.480469"/>
      <use xlink:href="#ArialMT-20" x="1709.78125"/>
      <use xlink:href="#ArialMT-28" x="1737.564453"/>
      <use xlink:href="#ArialMT-b0" x="1770.865234"/>
      <use xlink:href="#ArialMT-43" x="1810.855469"/>
      <use xlink:href="#ArialMT-29" x="1883.072266"/>
     </g>
    </g>
   </g>
   <g id="matplotlib.axis_2">
    <g id="ytick_1">
     <g id="line2d_9">
      <path d="M 50.2625 392.2225 
L 565.2 392.2225 
" clip-path="url(#p538190f13d)" style="fill: none; stroke: #ffffff; stroke-width: 0.8; stroke-linecap: round"/>
     </g>
     <g id="text_10">
      <!-- 0.00 -->
      <g style="fill: #262626" transform="translate(23.801563 395.801406) scale(0.1 -0.1)">
       <defs>
        <path id="ArialMT-2e" d="M 581 0 
L 581 641 
L 1222 641 
L 1222 0 
L 581 0 
z
" transform="scale(0.015625)"/>
       </defs>
       <use xlink:href="#ArialMT-30"/>
       <use xlink:href="#ArialMT-2e" x="55.615234"/>
       <use xlink:href="#ArialMT-30" x="83.398438"/>
       <use xlink:href="#ArialMT-30" x="139.013672"/>
      </g>
     </g>
    </g>
    <g id="ytick_2">
     <g id="line2d_10">
      <path d="M 50.2625 335.326098 
L 565.2 335.326098 
" clip-path="url(#p538190f13d)" style="fill: none; stroke: #ffffff; stroke-width: 0.8; stroke-linecap: round"/>
     </g>
     <g id="text_11">
      <!-- 0.02 -->
      <g style="fill: #262626" transform="translate(23.801563 338.905004) scale(0.1 -0.1)">
       <use xlink:href="#ArialMT-30"/>
       <use xlink:href="#ArialMT-2e" x="55.615234"/>
       <use xlink:href="#ArialMT-30" x="83.398438"/>
       <use xlink:href="#ArialMT-32" x="139.013672"/>
      </g>
     </g>
    </g>
    <g id="ytick_3">
     <g id="line2d_11">
      <path d="M 50.2625 278.429695 
L 565.2 278.429695 
" clip-path="url(#p538190f13d)" style="fill: none; stroke: #ffffff; stroke-width: 0.8; stroke-linecap: round"/>
     </g>
     <g id="text_12">
      <!-- 0.04 -->
      <g style="fill: #262626" transform="translate(23.801563 282.008602) scale(0.1 -0.1)">
       <defs>
        <path id="ArialMT-34" d="M 2069 0 
L 2069 1097 
L 81 1097 
L 81 1613 
L 2172 4581 
L 2631 4581 
L 2631 1613 
L 3250 1613 
L 3250 1097 
L 2631 1097 
L 2631 0 
L 2069 0 
z
M 2069 1613 
L 2069 3678 
L 634 1613 
L 2069 1613 
z
" transform="scale(0.015625)"/>
       </defs>
       <use xlink:href="#ArialMT-30"/>
       <use xlink:href="#ArialMT-2e" x="55.615234"/>
       <use xlink:href="#ArialMT-30" x="83.398438"/>
       <use xlink:href="#ArialMT-34" x="139.013672"/>
      </g>
     </g>
    </g>
    <g id="ytick_4">
     <g id="line2d_12">
      <path d="M 50.2625 221.533293 
L 565.2 221.533293 
" clip-path="url(#p538190f13d)" style="fill: none; stroke: #ffffff; stroke-width: 0.8; stroke-linecap: round"/>
     </g>
     <g id="text_13">
      <!-- 0.06 -->
      <g style="fill: #262626" transform="translate(23.801563 225.112199) scale(0.1 -0.1)">
       <defs>
        <path id="ArialMT-36" d="M 3184 3459 
L 2625 3416 
Q 2550 3747 2413 3897 
Q 2184 4138 1850 4138 
Q 1581 4138 1378 3988 
Q 1113 3794 959 3422 
Q 806 3050 800 2363 
Q 1003 2672 1297 2822 
Q 1591 2972 1913 2972 
Q 2475 2972 2870 2558 
Q 3266 2144 3266 1488 
Q 3266 1056 3080 686 
Q 2894 316 2569 119 
Q 2244 -78 1831 -78 
Q 1128 -78 684 439 
Q 241 956 241 2144 
Q 241 3472 731 4075 
Q 1159 4600 1884 4600 
Q 2425 4600 2770 4297 
Q 3116 3994 3184 3459 
z
M 888 1484 
Q 888 1194 1011 928 
Q 1134 663 1356 523 
Q 1578 384 1822 384 
Q 2178 384 2434 671 
Q 2691 959 2691 1453 
Q 2691 1928 2437 2201 
Q 2184 2475 1800 2475 
Q 1419 2475 1153 2201 
Q 888 1928 888 1484 
z
" transform="scale(0.015625)"/>
       </defs>
       <use xlink:href="#ArialMT-30"/>
       <use xlink:href="#ArialMT-2e" x="55.615234"/>
       <use xlink:href="#ArialMT-30" x="83.398438"/>
       <use xlink:href="#ArialMT-36" x="139.013672"/>
      </g>
     </g>
    </g>
    <g id="ytick_5">
     <g id="line2d_13">
      <path d="M 50.2625 164.636891 
L 565.2 164.636891 
" clip-path="url(#p538190f13d)" style="fill: none; stroke: #ffffff; stroke-width: 0.8; stroke-linecap: round"/>
     </g>
     <g id="text_14">
      <!-- 0.08 -->
      <g style="fill: #262626" transform="translate(23.801563 168.215797) scale(0.1 -0.1)">
       <defs>
        <path id="ArialMT-38" d="M 1131 2484 
Q 781 2613 612 2850 
Q 444 3088 444 3419 
Q 444 3919 803 4259 
Q 1163 4600 1759 4600 
Q 2359 4600 2725 4251 
Q 3091 3903 3091 3403 
Q 3091 3084 2923 2848 
Q 2756 2613 2416 2484 
Q 2838 2347 3058 2040 
Q 3278 1734 3278 1309 
Q 3278 722 2862 322 
Q 2447 -78 1769 -78 
Q 1091 -78 675 323 
Q 259 725 259 1325 
Q 259 1772 486 2073 
Q 713 2375 1131 2484 
z
M 1019 3438 
Q 1019 3113 1228 2906 
Q 1438 2700 1772 2700 
Q 2097 2700 2305 2904 
Q 2513 3109 2513 3406 
Q 2513 3716 2298 3927 
Q 2084 4138 1766 4138 
Q 1444 4138 1231 3931 
Q 1019 3725 1019 3438 
z
M 838 1322 
Q 838 1081 952 856 
Q 1066 631 1291 507 
Q 1516 384 1775 384 
Q 2178 384 2440 643 
Q 2703 903 2703 1303 
Q 2703 1709 2433 1975 
Q 2163 2241 1756 2241 
Q 1359 2241 1098 1978 
Q 838 1716 838 1322 
z
" transform="scale(0.015625)"/>
       </defs>
       <use xlink:href="#ArialMT-30"/>
       <use xlink:href="#ArialMT-2e" x="55.615234"/>
       <use xlink:href="#ArialMT-30" x="83.398438"/>
       <use xlink:href="#ArialMT-38" x="139.013672"/>
      </g>
     </g>
    </g>
    <g id="ytick_6">
     <g id="line2d_14">
      <path d="M 50.2625 107.740488 
L 565.2 107.740488 
" clip-path="url(#p538190f13d)" style="fill: none; stroke: #ffffff; stroke-width: 0.8; stroke-linecap: round"/>
     </g>
     <g id="text_15">
      <!-- 0.10 -->
      <g style="fill: #262626" transform="translate(23.801563 111.319394) scale(0.1 -0.1)">
       <use xlink:href="#ArialMT-30"/>
       <use xlink:href="#ArialMT-2e" x="55.615234"/>
       <use xlink:href="#ArialMT-31" x="83.398438"/>
       <use xlink:href="#ArialMT-30" x="139.013672"/>
      </g>
     </g>
    </g>
    <g id="ytick_7">
     <g id="line2d_15">
      <path d="M 50.2625 50.844086 
L 565.2 50.844086 
" clip-path="url(#p538190f13d)" style="fill: none; stroke: #ffffff; stroke-width: 0.8; stroke-linecap: round"/>
     </g>
     <g id="text_16">
      <!-- 0.12 -->
      <g style="fill: #262626" transform="translate(23.801563 54.422992) scale(0.1 -0.1)">
       <use xlink:href="#ArialMT-30"/>
       <use xlink:href="#ArialMT-2e" x="55.615234"/>
       <use xlink:href="#ArialMT-31" x="83.398438"/>
       <use xlink:href="#ArialMT-32" x="139.013672"/>
      </g>
     </g>
    </g>
    <g id="text_17">
     <!-- Density -->
     <g style="fill: #262626" transform="translate(17.696875 218.183125) rotate(-90) scale(0.1 -0.1)">
      <defs>
       <path id="ArialMT-44" d="M 494 0 
L 494 4581 
L 2072 4581 
Q 2606 4581 2888 4516 
Q 3281 4425 3559 4188 
Q 3922 3881 4101 3404 
Q 4281 2928 4281 2316 
Q 4281 1794 4159 1391 
Q 4038 988 3847 723 
Q 3656 459 3429 307 
Q 3203 156 2883 78 
Q 2563 0 2147 0 
L 494 0 
z
M 1100 541 
L 2078 541 
Q 2531 541 2789 625 
Q 3047 709 3200 863 
Q 3416 1078 3536 1442 
Q 3656 1806 3656 2325 
Q 3656 3044 3420 3430 
Q 3184 3816 2847 3947 
Q 2603 4041 2063 4041 
L 1100 4041 
L 1100 541 
z
" transform="scale(0.015625)"/>
       <path id="ArialMT-73" d="M 197 991 
L 753 1078 
Q 800 744 1014 566 
Q 1228 388 1613 388 
Q 2000 388 2187 545 
Q 2375 703 2375 916 
Q 2375 1106 2209 1216 
Q 2094 1291 1634 1406 
Q 1016 1563 777 1677 
Q 538 1791 414 1992 
Q 291 2194 291 2438 
Q 291 2659 392 2848 
Q 494 3038 669 3163 
Q 800 3259 1026 3326 
Q 1253 3394 1513 3394 
Q 1903 3394 2198 3281 
Q 2494 3169 2634 2976 
Q 2775 2784 2828 2463 
L 2278 2388 
Q 2241 2644 2061 2787 
Q 1881 2931 1553 2931 
Q 1166 2931 1000 2803 
Q 834 2675 834 2503 
Q 834 2394 903 2306 
Q 972 2216 1119 2156 
Q 1203 2125 1616 2013 
Q 2213 1853 2448 1751 
Q 2684 1650 2818 1456 
Q 2953 1263 2953 975 
Q 2953 694 2789 445 
Q 2625 197 2315 61 
Q 2006 -75 1616 -75 
Q 969 -75 630 194 
Q 291 463 197 991 
z
" transform="scale(0.015625)"/>
       <path id="ArialMT-79" d="M 397 -1278 
L 334 -750 
Q 519 -800 656 -800 
Q 844 -800 956 -737 
Q 1069 -675 1141 -563 
Q 1194 -478 1313 -144 
Q 1328 -97 1363 -6 
L 103 3319 
L 709 3319 
L 1400 1397 
Q 1534 1031 1641 628 
Q 1738 1016 1872 1384 
L 2581 3319 
L 3144 3319 
L 1881 -56 
Q 1678 -603 1566 -809 
Q 1416 -1088 1222 -1217 
Q 1028 -1347 759 -1347 
Q 597 -1347 397 -1278 
z
" transform="scale(0.015625)"/>
      </defs>
      <use xlink:href="#ArialMT-44"/>
      <use xlink:href="#ArialMT-65" x="72.216797"/>
      <use xlink:href="#ArialMT-6e" x="127.832031"/>
      <use xlink:href="#ArialMT-73" x="183.447266"/>
      <use xlink:href="#ArialMT-69" x="233.447266"/>
      <use xlink:href="#ArialMT-74" x="255.664062"/>
      <use xlink:href="#ArialMT-79" x="283.447266"/>
     </g>
    </g>
   </g>
   <g id="line2d_16">
    <path d="M 109.528327 392.207734 
L 120.120783 392.092348 
L 128.594748 391.776829 
L 160.372118 389.925204 
L 164.6091 389.261476 
L 168.846083 388.331335 
L 177.320048 386.074606 
L 190.030996 382.696182 
L 192.149487 381.969155 
L 194.267978 381.116062 
L 196.38647 380.109826 
L 198.504961 378.931058 
L 200.623452 377.569726 
L 202.741944 376.02511 
L 204.860435 374.3039 
L 206.978926 372.416644 
L 211.215909 368.176818 
L 213.3344 365.821019 
L 215.452891 363.284345 
L 217.571383 360.529028 
L 219.689874 357.500341 
L 221.808365 354.127546 
L 223.926857 350.325896 
L 226.045348 345.999227 
L 228.163839 341.042783 
L 230.28233 335.346127 
L 232.400822 328.796231 
L 234.519313 321.281084 
L 236.637804 312.694262 
L 238.756296 302.940909 
L 240.874787 291.945349 
L 242.993278 279.66025 
L 245.11177 266.076752 
L 247.230261 251.234527 
L 249.348752 235.230327 
L 253.585735 200.436118 
L 262.0597 127.70346 
L 264.178191 110.902625 
L 266.296683 95.342871 
L 268.415174 81.301837 
L 270.533665 68.996442 
L 272.652156 58.577218 
L 274.770648 50.128655 
L 276.889139 43.674498 
L 279.00763 39.186363 
L 281.126122 36.593906 
L 283.244613 35.794976 
L 285.363104 36.664691 
L 287.481595 39.062919 
L 289.600087 42.840128 
L 291.718578 47.841826 
L 293.837069 53.911842 
L 295.955561 60.894606 
L 298.074052 68.63645 
L 300.192543 76.985903 
L 304.429526 94.908834 
L 310.785 122.616513 
L 315.021982 139.966687 
L 317.140474 147.949736 
L 319.258965 155.378207 
L 321.377456 162.235096 
L 323.495947 168.552273 
L 325.614439 174.410272 
L 329.851421 185.271691 
L 334.088404 196.068307 
L 336.206895 201.823497 
L 338.325387 207.954694 
L 340.443878 214.498285 
L 344.68086 228.659584 
L 351.036334 250.663145 
L 353.154826 257.525756 
L 355.273317 263.900911 
L 357.391808 269.69673 
L 359.510299 274.874432 
L 361.628791 279.44817 
L 363.747282 283.477957 
L 365.865773 287.057578 
L 367.984265 290.299913 
L 372.221247 296.23309 
L 378.576721 305.083159 
L 382.813704 311.432755 
L 393.40616 327.878722 
L 397.643143 333.866897 
L 399.761634 336.607215 
L 401.880125 339.157329 
L 403.998617 341.511493 
L 406.117108 343.671938 
L 408.235599 345.648952 
L 412.472582 349.134527 
L 416.709564 352.206511 
L 423.065038 356.734391 
L 427.302021 360.093081 
L 431.539003 363.824291 
L 442.13146 373.50829 
L 446.368443 376.792452 
L 448.486934 378.218445 
L 450.605425 379.499247 
L 454.842408 381.672036 
L 459.07939 383.445393 
L 463.316373 384.956016 
L 467.553355 386.280097 
L 471.790338 387.424943 
L 476.027321 388.363951 
L 480.264303 389.082081 
L 484.501286 389.603414 
L 492.975251 390.317826 
L 514.160164 391.872256 
L 522.634129 392.132533 
L 531.108094 392.207684 
L 531.108094 392.207684 
" clip-path="url(#p538190f13d)" style="fill: none; stroke: #1f77b4; stroke-width: 1.5; stroke-linecap: round"/>
   </g>
   <g id="line2d_17">
    <path d="M 103.57449 392.208167 
L 116.543763 392.046805 
L 125.189944 391.688264 
L 140.320762 390.932587 
L 146.805399 390.935229 
L 157.613126 391.057588 
L 161.936217 390.84234 
L 166.259308 390.348069 
L 170.582398 389.56257 
L 174.905489 388.52712 
L 179.22858 387.299245 
L 183.551671 385.902247 
L 187.874762 384.297516 
L 192.197853 382.407665 
L 196.520944 380.175306 
L 200.844034 377.596674 
L 205.167125 374.674889 
L 207.328671 373.060373 
L 209.490216 371.306795 
L 211.651762 369.369086 
L 213.813307 367.189169 
L 215.974852 364.698855 
L 218.136398 361.8236 
L 220.297943 358.486107 
L 222.459489 354.60884 
L 224.621034 350.114951 
L 226.78258 344.927658 
L 228.944125 338.968787 
L 231.10567 332.157567 
L 233.267216 324.410969 
L 235.428761 315.646631 
L 237.590307 305.788893 
L 239.751852 294.777752 
L 241.913398 282.579761 
L 244.074943 269.199349 
L 246.236488 254.688697 
L 248.398034 239.15437 
L 252.721125 205.719634 
L 261.367306 136.706924 
L 263.528852 120.749774 
L 265.690397 105.874229 
L 267.851943 92.307892 
L 270.013488 80.23694 
L 272.175034 69.80517 
L 274.336579 61.115714 
L 276.498124 54.234114 
L 278.65967 49.191514 
L 280.821215 45.987082 
L 282.982761 44.58933 
L 285.144306 44.936586 
L 287.305852 46.937314 
L 289.467397 50.471131 
L 291.628942 55.391217 
L 293.790488 61.528427 
L 295.952033 68.696893 
L 298.113579 76.700468 
L 302.43667 94.415208 
L 311.082851 131.44512 
L 313.244397 140.100431 
L 315.405942 148.27461 
L 317.567488 155.897689 
L 319.729033 162.936425 
L 321.890578 169.397584 
L 324.052124 175.328461 
L 326.213669 180.813823 
L 330.53676 190.929695 
L 334.859851 200.832704 
L 339.182942 211.50627 
L 341.344487 217.312244 
L 345.667578 229.847908 
L 354.31376 256.066793 
L 356.475305 262.107078 
L 358.636851 267.70924 
L 360.798396 272.810333 
L 362.959942 277.390157 
L 365.121487 281.471093 
L 367.283032 285.112501 
L 369.444578 288.400768 
L 373.767669 294.322762 
L 380.252305 302.903058 
L 384.575396 308.996148 
L 393.221578 321.886769 
L 397.544668 328.187464 
L 401.867759 334.064281 
L 406.19085 339.356038 
L 410.513941 344.005157 
L 414.837032 348.072834 
L 419.160123 351.711181 
L 425.644759 356.711253 
L 432.129395 361.374099 
L 438.614032 365.709235 
L 449.421759 372.778775 
L 462.391031 381.643497 
L 466.714122 384.096991 
L 468.875668 385.127012 
L 471.037213 386.012429 
L 473.198758 386.752843 
L 475.360304 387.355304 
L 479.683395 388.205493 
L 484.006486 388.721142 
L 499.137304 390.102182 
L 512.106576 391.511316 
L 518.591212 391.924644 
L 525.075849 392.12343 
L 533.72203 392.206699 
L 533.72203 392.206699 
" clip-path="url(#p538190f13d)" style="fill: none; stroke: #ff7f0e; stroke-width: 1.5; stroke-linecap: round"/>
   </g>
   <g id="line2d_18">
    <path d="M 101.468937 392.208456 
L 114.613373 392.05273 
L 123.376331 391.707126 
L 138.711507 390.966818 
L 145.283725 390.96877 
L 156.237422 391.159681 
L 160.618901 391.019826 
L 165.00038 390.628512 
L 169.381859 389.965514 
L 173.763338 389.066582 
L 180.335556 387.413697 
L 186.907774 385.464546 
L 191.289253 383.899439 
L 195.670732 381.978536 
L 197.861471 380.844909 
L 200.052211 379.577188 
L 202.24295 378.162394 
L 204.433689 376.586701 
L 206.624429 374.833481 
L 208.815168 372.881223 
L 211.005908 370.701629 
L 213.196647 368.258113 
L 215.387387 365.504806 
L 217.578126 362.386113 
L 219.768865 358.836799 
L 221.959605 354.782659 
L 224.150344 350.141833 
L 226.341084 344.826937 
L 228.531823 338.748132 
L 230.722562 331.81721 
L 232.913302 323.952627 
L 235.104041 315.085202 
L 237.294781 305.164036 
L 239.48552 294.16206 
L 241.67626 282.080638 
L 243.866999 268.952755 
L 246.057738 254.844569 
L 250.439217 224.11641 
L 254.820696 191.060842 
L 261.392914 140.72544 
L 263.583654 124.746736 
L 265.774393 109.62788 
L 267.965133 95.65048 
L 270.155872 83.084803 
L 272.346611 72.175919 
L 274.537351 63.128959 
L 276.72809 56.095344 
L 278.91883 51.162 
L 281.109569 48.34538 
L 283.300309 47.591419 
L 285.491048 48.781623 
L 287.681787 51.744449 
L 289.872527 56.270235 
L 292.063266 62.127413 
L 294.254006 69.077672 
L 296.444745 76.888197 
L 300.826224 94.231254 
L 309.589182 130.784639 
L 313.97066 147.722744 
L 316.1614 155.503761 
L 318.352139 162.75799 
L 320.542879 169.474412 
L 322.733618 175.675645 
L 324.924357 181.415937 
L 329.305836 191.857125 
L 338.068794 211.577013 
L 342.450273 222.311814 
L 346.831752 233.986755 
L 355.594709 258.292131 
L 357.785449 263.956695 
L 359.976188 269.241962 
L 362.166928 274.07346 
L 364.357667 278.409272 
L 366.548406 282.243688 
L 368.739146 285.606892 
L 370.929885 288.560972 
L 373.120625 291.19301 
L 377.502103 295.909914 
L 381.883582 300.598921 
L 384.074322 303.149296 
L 386.265061 305.907146 
L 388.455801 308.889497 
L 392.837279 315.452766 
L 401.600237 329.326634 
L 403.790976 332.529086 
L 405.981716 335.508548 
L 408.172455 338.236676 
L 410.363195 340.705749 
L 412.553934 342.927534 
L 414.744674 344.930297 
L 419.126152 348.447285 
L 434.461328 359.822136 
L 443.224286 366.656203 
L 449.796504 371.452031 
L 456.368723 375.97354 
L 462.940941 380.26024 
L 467.32242 382.840577 
L 471.703898 385.020691 
L 473.894638 385.920318 
L 476.085377 386.682283 
L 478.276117 387.307478 
L 482.657596 388.187123 
L 487.039074 388.695394 
L 502.37425 389.955713 
L 515.518687 391.437624 
L 522.090905 391.89224 
L 528.663123 392.112596 
L 537.426081 392.204996 
L 537.426081 392.204996 
" clip-path="url(#p538190f13d)" style="fill: none; stroke: #2ca02c; stroke-width: 1.5; stroke-linecap: round"/>
   </g>
   <g id="line2d_19">
    <path d="M 99.525862 392.208641 
L 112.842354 392.055027 
L 121.720016 391.714099 
L 137.255924 390.981131 
L 143.914171 390.975387 
L 155.011248 391.118404 
L 159.450079 390.949622 
L 163.88891 390.537068 
L 168.327741 389.88141 
L 174.985987 388.590449 
L 186.083065 386.173616 
L 190.521896 384.992126 
L 192.741311 384.271913 
L 194.960726 383.429124 
L 197.180142 382.438209 
L 199.399557 381.276804 
L 201.618973 379.926282 
L 203.838388 378.37119 
L 206.057804 376.597564 
L 208.277219 374.590264 
L 210.496635 372.32964 
L 212.71605 369.787995 
L 214.935466 366.926398 
L 217.154881 363.692477 
L 219.374297 360.019717 
L 221.593712 355.82869 
L 223.813127 351.030341 
L 226.032543 345.531196 
L 228.251958 339.240003 
L 230.471374 332.075072 
L 232.690789 323.971419 
L 234.910205 314.886803 
L 237.12962 304.805885 
L 239.349036 293.741994 
L 241.568451 281.736403 
L 243.787867 268.855371 
L 248.226698 240.829492 
L 252.665529 210.5191 
L 265.982021 116.946127 
L 268.201437 102.890607 
L 270.420852 89.90837 
L 272.640268 78.266277 
L 274.859683 68.219665 
L 277.079099 59.995003 
L 279.298514 53.773301 
L 281.51793 49.676548 
L 283.737345 47.758875 
L 285.95676 48.003271 
L 288.176176 50.323735 
L 290.395591 54.571981 
L 292.615007 60.547334 
L 294.834422 68.008357 
L 297.053838 76.684955 
L 299.273253 86.290123 
L 303.712084 107.118677 
L 308.150915 128.258619 
L 310.370331 138.33875 
L 312.589746 147.838525 
L 314.809161 156.624246 
L 317.028577 164.613978 
L 319.247992 171.779966 
L 321.467408 178.147746 
L 323.686823 183.79156 
L 325.906239 188.826124 
L 328.125654 193.395227 
L 332.564485 201.77506 
L 337.003316 210.134951 
L 339.222732 214.588668 
L 341.442147 219.304281 
L 345.880978 229.528046 
L 352.539224 246.083781 
L 356.978055 257.004242 
L 361.416886 267.143789 
L 363.636302 271.807821 
L 365.855717 276.176275 
L 368.075133 280.250234 
L 370.294548 284.043789 
L 372.513964 287.581379 
L 376.952794 294.023721 
L 381.391625 299.892682 
L 392.488703 314.15063 
L 399.146949 323.248439 
L 405.805195 332.326162 
L 410.244026 337.877024 
L 412.463442 340.398617 
L 414.682857 342.723669 
L 416.902273 344.846949 
L 419.121688 346.776594 
L 421.341104 348.533351 
L 425.779935 351.65958 
L 436.877012 358.961816 
L 441.315843 362.189237 
L 447.974089 367.375075 
L 456.851751 374.33089 
L 461.290582 377.574271 
L 465.729413 380.540876 
L 470.168244 383.143717 
L 474.607075 385.29473 
L 476.82649 386.178653 
L 479.045906 386.929519 
L 481.265321 387.549554 
L 485.704152 388.434911 
L 490.142983 388.960948 
L 510.117722 390.683911 
L 518.995384 391.538401 
L 525.65363 391.934873 
L 534.531292 392.159177 
L 541.189539 392.207024 
L 541.189539 392.207024 
" clip-path="url(#p538190f13d)" style="fill: none; stroke: #d62728; stroke-width: 1.5; stroke-linecap: round"/>
   </g>
   <g id="line2d_20">
    <path d="M 98.235654 392.208813 
L 111.609265 392.05978 
L 120.525005 391.729372 
L 136.127552 390.994545 
L 142.814357 390.953936 
L 153.959033 390.973762 
L 158.416903 390.742877 
L 162.874773 390.285878 
L 169.561579 389.274961 
L 178.477319 387.907706 
L 189.621995 386.445175 
L 191.85093 385.986445 
L 194.079866 385.391978 
L 196.308801 384.627384 
L 198.537736 383.662008 
L 200.766671 382.469692 
L 202.995606 381.028437 
L 205.224541 379.31898 
L 207.453477 377.322459 
L 209.682412 375.017466 
L 211.911347 372.376928 
L 214.140282 369.365342 
L 216.369217 365.936922 
L 218.598152 362.035206 
L 220.827087 357.594463 
L 223.056023 352.543036 
L 225.284958 346.808366 
L 227.513893 340.323107 
L 229.742828 333.031387 
L 231.971763 324.894161 
L 234.200698 315.892641 
L 236.429634 306.029112 
L 238.658569 295.325008 
L 240.887504 283.816724 
L 243.116439 271.550334 
L 247.574309 244.948903 
L 252.03218 215.961093 
L 256.49005 185.17706 
L 263.176855 138.05367 
L 265.405791 122.995386 
L 267.634726 108.756032 
L 269.863661 95.659667 
L 272.092596 84.016458 
L 274.321531 74.09686 
L 276.550466 66.108741 
L 278.779402 60.181036 
L 281.008337 56.356433 
L 283.237272 54.593881 
L 285.466207 54.779998 
L 287.695142 56.746938 
L 289.924077 60.293359 
L 292.153012 65.20494 
L 294.381948 71.271361 
L 296.610883 78.29771 
L 298.839818 86.109527 
L 301.068753 94.552017 
L 305.526623 112.775775 
L 316.671299 159.875326 
L 318.900234 168.488168 
L 321.12917 176.577885 
L 323.358105 184.092412 
L 325.58704 191.019205 
L 327.815975 197.384305 
L 330.04491 203.246239 
L 332.273845 208.685715 
L 336.731716 218.654754 
L 341.189586 227.913837 
L 347.876391 241.112706 
L 352.334262 249.471019 
L 356.792132 257.45242 
L 363.478937 268.958175 
L 370.165743 280.159141 
L 374.623613 287.209679 
L 376.852548 290.485463 
L 379.081484 293.547092 
L 381.310419 296.380582 
L 383.539354 298.996966 
L 387.997224 303.752049 
L 392.455095 308.343844 
L 394.68403 310.773509 
L 396.912965 313.3737 
L 399.1419 316.17455 
L 403.59977 322.346412 
L 412.515511 335.418903 
L 414.744446 338.415193 
L 416.973381 341.189569 
L 419.202316 343.719846 
L 421.431252 346.006139 
L 423.660187 348.068177 
L 425.889122 349.940692 
L 430.346992 353.297449 
L 439.262733 359.67478 
L 443.720603 363.129141 
L 450.407409 368.664111 
L 457.094214 374.156355 
L 461.552084 377.484777 
L 466.009955 380.383924 
L 468.23889 381.64836 
L 470.467825 382.784339 
L 472.69676 383.792597 
L 477.15463 385.445139 
L 481.612501 386.67271 
L 486.070371 387.577178 
L 492.757177 388.579295 
L 510.588658 390.789298 
L 517.275463 391.442288 
L 523.962269 391.872095 
L 530.649074 392.095024 
L 541.79375 392.208149 
L 541.79375 392.208149 
" clip-path="url(#p538190f13d)" style="fill: none; stroke: #9467bd; stroke-width: 1.5; stroke-linecap: round"/>
   </g>
   <g id="line2d_21">
    <path d="M 92.100922 392.209001 
L 105.59029 392.063699 
L 114.583202 391.742023 
L 130.320798 391.02725 
L 137.065482 391.013203 
L 150.55485 391.218331 
L 155.051306 391.045575 
L 159.547762 390.652992 
L 166.292446 389.736721 
L 173.03713 388.772262 
L 177.533586 388.302548 
L 191.022954 387.198368 
L 193.271182 386.758796 
L 195.519409 386.147603 
L 197.767637 385.332031 
L 200.015865 384.283955 
L 202.264093 382.979261 
L 204.512321 381.396056 
L 206.760549 379.51201 
L 209.008777 377.301274 
L 211.257005 374.73156 
L 213.505233 371.761978 
L 215.753461 368.342134 
L 218.001689 364.412829 
L 220.249917 359.908409 
L 222.498145 354.76054 
L 224.746373 348.902904 
L 226.994601 342.276095 
L 229.242829 334.831982 
L 231.491057 326.536857 
L 233.739285 317.372977 
L 235.987513 307.338444 
L 238.235741 296.445744 
L 240.483969 284.719612 
L 242.732197 272.195104 
L 244.980425 258.916758 
L 249.476881 230.332407 
L 253.973337 199.604762 
L 262.966249 136.508532 
L 265.214477 121.745228 
L 267.462705 107.970056 
L 269.710933 95.487298 
L 271.959161 84.57646 
L 274.207389 75.470704 
L 276.455617 68.338319 
L 278.703845 63.269988 
L 280.952073 60.273794 
L 283.200301 59.278677 
L 285.448529 60.14572 
L 287.696757 62.68537 
L 289.944985 66.677909 
L 292.193213 71.894121 
L 294.441441 78.113325 
L 296.689669 85.136672 
L 298.937897 92.794505 
L 303.434353 109.483906 
L 307.930808 127.343209 
L 316.92372 163.82628 
L 321.420176 180.885797 
L 323.668404 188.760565 
L 325.916632 196.089438 
L 328.16486 202.820176 
L 330.413088 208.930161 
L 332.661316 214.42806 
L 334.909544 219.352568 
L 337.157772 223.768626 
L 339.406 227.761711 
L 341.654228 231.430938 
L 346.150684 238.217774 
L 350.64714 244.915008 
L 355.143596 252.08465 
L 359.640052 259.929373 
L 373.12942 284.508621 
L 375.377648 288.113026 
L 377.625876 291.456131 
L 379.874104 294.530864 
L 382.122332 297.349765 
L 384.37056 299.942554 
L 388.867016 304.628687 
L 400.108156 315.669409 
L 404.604612 320.441579 
L 411.349296 328.026285 
L 427.086891 346.05554 
L 431.583347 350.836464 
L 436.079803 355.283055 
L 440.576259 359.390986 
L 445.072715 363.232263 
L 451.817399 368.70238 
L 458.562083 373.918672 
L 463.058539 377.152277 
L 467.554995 380.050988 
L 472.051451 382.503153 
L 474.299679 383.540677 
L 476.547907 384.450602 
L 481.044363 385.913294 
L 485.540819 386.98712 
L 490.037275 387.812037 
L 503.526643 389.882085 
L 510.271327 390.814619 
L 517.016011 391.516645 
L 523.760695 391.933296 
L 532.753606 392.15947 
L 539.49829 392.206996 
L 539.49829 392.206996 
" clip-path="url(#p538190f13d)" style="fill: none; stroke: #8c564b; stroke-width: 1.5; stroke-linecap: round"/>
   </g>
   <g id="line2d_22">
    <path d="M 89.527198 392.209153 
L 103.12679 392.066464 
L 112.193184 391.750813 
L 128.059374 391.048106 
L 134.85917 391.047252 
L 152.991959 391.460774 
L 157.525156 391.291864 
L 162.058353 390.937224 
L 168.858149 390.125478 
L 184.724339 387.819852 
L 189.257537 387.00711 
L 193.790734 385.926473 
L 196.057332 385.235052 
L 198.323931 384.414282 
L 200.59053 383.440945 
L 202.857128 382.288829 
L 205.123727 380.926752 
L 207.390325 379.316336 
L 209.656924 377.40991 
L 211.923523 375.149012 
L 214.190121 372.463921 
L 216.45672 369.274591 
L 218.723318 365.493164 
L 220.989917 361.027995 
L 223.256516 355.788884 
L 225.523114 349.692949 
L 227.789713 342.670451 
L 230.056311 334.669858 
L 232.32291 325.661549 
L 234.589509 315.639807 
L 236.856107 304.623044 
L 239.122706 292.652514 
L 241.389304 279.790006 
L 243.655903 266.11517 
L 248.1891 236.722976 
L 252.722297 205.404065 
L 261.788692 141.982854 
L 264.05529 127.139372 
L 266.321889 113.184088 
L 268.588488 100.37878 
L 270.855086 88.979468 
L 273.121685 79.221198 
L 275.388283 71.301804 
L 277.654882 65.366732 
L 279.921481 61.497036 
L 282.188079 59.702359 
L 284.454678 59.920069 
L 286.721276 62.020808 
L 288.987875 65.819855 
L 291.254474 71.09282 
L 293.521072 77.593697 
L 295.787671 85.072969 
L 298.054269 93.293586 
L 302.587467 111.14011 
L 313.92046 157.54143 
L 318.453657 174.927846 
L 320.720255 183.070481 
L 322.986854 190.755492 
L 325.253453 197.930155 
L 327.520051 204.562002 
L 329.78665 210.643492 
L 332.053248 216.19342 
L 334.319847 221.254641 
L 336.586446 225.888623 
L 338.853044 230.168001 
L 343.386242 237.962633 
L 347.919439 245.171719 
L 361.51903 266.008927 
L 368.318826 276.119742 
L 372.852023 282.423343 
L 377.385221 288.176906 
L 381.918418 293.314371 
L 386.451615 297.907524 
L 393.251411 304.197288 
L 400.051207 310.465803 
L 404.584404 314.959589 
L 409.117601 319.840532 
L 413.650798 325.127885 
L 420.450594 333.625309 
L 429.516988 345.068174 
L 434.050186 350.43981 
L 438.583383 355.45475 
L 443.11658 360.107206 
L 447.649777 364.424769 
L 452.182974 368.434554 
L 456.716172 372.144245 
L 461.249369 375.536254 
L 465.782566 378.568988 
L 470.315763 381.187125 
L 474.84896 383.345793 
L 479.382158 385.042209 
L 483.915355 386.334904 
L 488.448552 387.333432 
L 495.248348 388.542472 
L 506.581341 390.300456 
L 513.381137 391.147266 
L 520.180932 391.720856 
L 526.980728 392.030784 
L 536.047123 392.184299 
L 540.58032 392.207782 
L 540.58032 392.207782 
" clip-path="url(#p538190f13d)" style="fill: none; stroke: #e377c2; stroke-width: 1.5; stroke-linecap: round"/>
   </g>
   <g id="line2d_23">
    <path d="M 78.372921 392.207533 
L 89.131904 392.083673 
L 97.739091 391.742569 
L 114.953464 390.821682 
L 121.408854 390.837342 
L 132.167837 390.966643 
L 164.444786 390.572812 
L 168.748379 390.192904 
L 173.051972 389.635115 
L 179.507362 388.530824 
L 183.810955 387.61581 
L 188.114548 386.476765 
L 192.418141 384.969082 
L 194.569938 384.022096 
L 196.721735 382.918703 
L 198.873531 381.642676 
L 201.025328 380.182878 
L 203.177124 378.533241 
L 205.328921 376.691469 
L 207.480718 374.656608 
L 209.632514 372.425897 
L 211.784311 369.991452 
L 213.936108 367.337343 
L 216.087904 364.437407 
L 218.239701 361.253945 
L 220.391497 357.737151 
L 222.543294 353.825025 
L 224.695091 349.44355 
L 226.846887 344.507086 
L 228.998684 338.919215 
L 231.15048 332.574476 
L 233.302277 325.361568 
L 235.454074 317.168476 
L 237.60587 307.889748 
L 239.757667 297.435713 
L 241.909463 285.743016 
L 244.06126 272.785396 
L 246.213057 258.583374 
L 248.364853 243.211436 
L 252.668446 209.541451 
L 263.427429 119.921853 
L 265.579226 103.459353 
L 267.731023 88.159773 
L 269.882819 74.263198 
L 272.034616 61.976198 
L 274.186412 51.470513 
L 276.338209 42.881764 
L 278.490006 36.306963 
L 280.641802 31.800329 
L 282.793599 29.367893 
L 284.945395 28.962341 
L 287.097192 30.480133 
L 289.248989 33.762973 
L 291.400785 38.605026 
L 293.552582 44.766075 
L 295.704378 51.989273 
L 297.856175 60.020826 
L 302.159768 77.613093 
L 317.222344 141.644259 
L 321.525938 158.38455 
L 325.829531 173.942455 
L 330.133124 188.54797 
L 343.043904 230.759704 
L 347.347497 244.293987 
L 351.65109 256.812676 
L 353.802887 262.545903 
L 355.954683 267.88275 
L 358.10648 272.813161 
L 360.258277 277.345695 
L 362.410073 281.504798 
L 364.56187 285.326722 
L 366.713666 288.85462 
L 368.865463 292.133511 
L 373.169056 298.109324 
L 377.472649 303.530585 
L 383.928039 311.116128 
L 388.231632 316.222257 
L 392.535226 321.765537 
L 396.838819 327.936189 
L 407.597802 344.169354 
L 409.749598 346.983377 
L 411.901395 349.531378 
L 414.053192 351.814455 
L 416.204988 353.862654 
L 420.508581 357.470503 
L 431.267565 366.001646 
L 439.874751 372.948672 
L 444.178344 376.072698 
L 448.481937 378.802479 
L 452.785531 381.067128 
L 457.089124 382.848356 
L 461.392717 384.221182 
L 467.848107 385.892766 
L 476.455293 388.171784 
L 482.910683 389.86661 
L 487.214276 390.775228 
L 491.517869 391.425469 
L 495.821463 391.830613 
L 502.276852 392.113821 
L 506.580446 392.182606 
L 506.580446 392.182606 
" clip-path="url(#p538190f13d)" style="fill: none; stroke: #7f7f7f; stroke-width: 1.5; stroke-linecap: round"/>
   </g>
   <g id="line2d_24">
    <path d="M 84.474712 392.208027 
L 95.403843 392.092618 
L 104.147148 391.777095 
L 121.633758 390.906748 
L 128.191236 390.949157 
L 141.306193 391.238334 
L 147.863672 391.101454 
L 167.536108 390.340831 
L 171.90776 389.946368 
L 176.279413 389.276254 
L 180.651065 388.298962 
L 185.022718 387.04242 
L 189.39437 385.548452 
L 193.766023 383.817028 
L 198.137675 381.776849 
L 200.323501 380.59982 
L 202.509327 379.289056 
L 204.695154 377.818499 
L 206.88098 376.158175 
L 209.066806 374.273336 
L 211.252632 372.123542 
L 213.438458 369.66203 
L 215.624285 366.835669 
L 217.810111 363.585625 
L 219.995937 359.84871 
L 222.181763 355.559158 
L 224.367589 350.650487 
L 226.553416 345.057111 
L 228.739242 338.715493 
L 230.925068 331.564914 
L 233.110894 323.548161 
L 235.29672 314.612703 
L 237.482547 304.71291 
L 239.668373 293.81375 
L 241.854199 281.896006 
L 244.040025 268.962589 
L 246.225852 255.045061 
L 248.411678 240.209233 
L 252.78333 208.235797 
L 265.898287 108.043788 
L 268.084114 93.343214 
L 270.26994 79.928545 
L 272.455766 68.051041 
L 274.641592 57.936306 
L 276.827418 49.771864 
L 279.013245 43.694178 
L 281.199071 39.777143 
L 283.384897 38.024381 
L 285.570723 38.367323 
L 287.756549 40.670142 
L 289.942376 44.741295 
L 292.128202 50.350056 
L 294.314028 57.245348 
L 296.499854 65.173747 
L 298.685681 73.893789 
L 303.057333 92.848892 
L 311.800638 131.915044 
L 313.986464 141.051586 
L 316.17229 149.682624 
L 318.358116 157.718217 
L 320.543943 165.106125 
L 322.729769 171.841587 
L 324.915595 177.972697 
L 327.101421 183.599322 
L 331.473074 193.940287 
L 335.844726 204.227317 
L 338.030552 209.736648 
L 340.216378 215.61537 
L 342.402205 221.885631 
L 346.773857 235.393902 
L 353.331336 256.200755 
L 355.517162 262.675131 
L 357.702988 268.700559 
L 359.888814 274.193046 
L 362.074641 279.10705 
L 364.260467 283.434446 
L 366.446293 287.200322 
L 368.632119 290.456999 
L 370.817945 293.277493 
L 373.003772 295.749169 
L 377.375424 300.032475 
L 381.747076 304.077697 
L 383.932903 306.222938 
L 386.118729 308.533116 
L 388.304555 311.044427 
L 390.490381 313.769164 
L 394.862034 319.790641 
L 405.791165 335.758722 
L 407.976991 338.631143 
L 410.162817 341.299876 
L 412.348643 343.754953 
L 414.53447 346.003391 
L 418.906122 349.978742 
L 423.277774 353.508102 
L 432.021079 360.426655 
L 436.392732 364.160796 
L 451.693515 377.650936 
L 453.879341 379.289084 
L 456.065168 380.770995 
L 458.250994 382.079456 
L 460.43682 383.206052 
L 462.622646 384.152056 
L 464.808472 384.928375 
L 466.994299 385.554547 
L 471.365951 386.465991 
L 488.852561 389.323477 
L 495.410039 390.538568 
L 499.781692 391.187788 
L 504.153344 391.650565 
L 510.710823 392.03097 
L 519.454128 392.192367 
L 519.454128 392.192367 
" clip-path="url(#p538190f13d)" style="fill: none; stroke: #bcbd22; stroke-width: 1.5; stroke-linecap: round"/>
   </g>
   <g id="line2d_25">
    <path d="M 85.499827 392.208283 
L 98.785162 392.042969 
L 107.642052 391.674975 
L 120.927387 390.987057 
L 127.570054 390.943514 
L 147.498056 391.279507 
L 154.140724 390.950013 
L 167.426058 389.926641 
L 174.068726 389.29406 
L 178.497171 388.734899 
L 182.925616 387.983128 
L 187.354061 386.950066 
L 191.782506 385.53436 
L 193.996728 384.65137 
L 196.210951 383.636459 
L 198.425173 382.47958 
L 200.639396 381.171055 
L 202.853618 379.700242 
L 205.067841 378.053628 
L 207.282063 376.212566 
L 209.496285 374.150953 
L 211.710508 371.833169 
L 213.92473 369.212623 
L 216.138953 366.23116 
L 218.353175 362.819581 
L 220.567398 358.899371 
L 222.78162 354.385672 
L 224.995843 349.191357 
L 227.210065 343.231973 
L 229.424288 336.43113 
L 231.63851 328.725881 
L 233.852733 320.071533 
L 236.066955 310.445405 
L 238.281178 299.849113 
L 240.4954 288.309138 
L 242.709623 275.87564 
L 244.923845 262.61972 
L 249.35229 234.006413 
L 253.780735 203.308588 
L 264.851847 124.162454 
L 267.06607 109.219344 
L 269.280292 95.069956 
L 271.494515 81.977122 
L 273.708737 70.216093 
L 275.92296 60.059367 
L 278.137182 51.758034 
L 280.351405 45.521918 
L 282.565627 41.501219 
L 284.77985 39.772247 
L 286.994072 40.329289 
L 289.208294 43.083715 
L 291.422517 47.870286 
L 293.636739 54.459563 
L 295.850962 62.574393 
L 298.065184 71.90808 
L 300.279407 82.141826 
L 304.707852 104.059859 
L 309.136297 126.018323 
L 311.350519 136.407062 
L 313.564742 146.148932 
L 315.778964 155.107465 
L 317.993187 163.196958 
L 320.207409 170.388779 
L 322.421632 176.71525 
L 324.635854 182.26904 
L 326.850077 187.196508 
L 331.278521 195.941438 
L 335.706966 204.569602 
L 337.921189 209.266506 
L 340.135411 214.350809 
L 342.349634 219.845887 
L 346.778079 231.879495 
L 355.634969 257.014136 
L 357.849191 262.835916 
L 360.063414 268.310948 
L 362.277636 273.404357 
L 364.491859 278.104246 
L 366.706081 282.416601 
L 368.920303 286.360398 
L 371.134526 289.963845 
L 373.348748 293.262134 
L 375.562971 296.296384 
L 379.991416 301.763528 
L 393.276751 317.015242 
L 397.705196 322.616859 
L 408.776308 336.930895 
L 413.204753 341.993157 
L 415.418975 344.271175 
L 417.633198 346.374906 
L 422.061643 350.11771 
L 426.490088 353.433366 
L 435.346978 359.910659 
L 439.775423 363.472193 
L 446.41809 369.27257 
L 453.060757 375.134365 
L 457.489202 378.679743 
L 459.703425 380.258779 
L 461.917647 381.682085 
L 464.13187 382.938738 
L 466.346092 384.025914 
L 468.560315 384.948827 
L 470.774537 385.720018 
L 475.202982 386.885905 
L 479.631427 387.711626 
L 499.559429 390.72843 
L 506.202097 391.497484 
L 512.844764 391.94381 
L 519.487432 392.138525 
L 526.130099 392.20277 
L 526.130099 392.20277 
" clip-path="url(#p538190f13d)" style="fill: none; stroke: #17becf; stroke-width: 1.5; stroke-linecap: round"/>
   </g>
   <g id="line2d_26">
    <path d="M 84.973734 392.208474 
L 98.301406 392.049021 
L 107.186521 391.69452 
L 120.514194 391.013406 
L 127.178031 390.951233 
L 136.063146 391.190764 
L 142.726982 391.307842 
L 147.16954 391.227209 
L 153.833376 390.83208 
L 162.718491 389.9886 
L 173.824885 388.974174 
L 184.931279 388.114785 
L 189.373837 387.494564 
L 191.595115 387.027011 
L 193.816394 386.415729 
L 196.037673 385.632996 
L 198.258952 384.653712 
L 200.480231 383.455942 
L 202.701509 382.020593 
L 204.922788 380.330206 
L 207.144067 378.366931 
L 209.365346 376.109952 
L 211.586625 373.532714 
L 213.807903 370.60042 
L 216.029182 367.268313 
L 218.250461 363.481206 
L 220.47174 359.174632 
L 222.693018 354.277731 
L 224.914297 348.717724 
L 227.135576 342.425475 
L 229.356855 335.341373 
L 231.578134 327.420617 
L 233.799412 318.636983 
L 236.020691 308.98442 
L 238.24197 298.476245 
L 240.463249 287.142205 
L 242.684528 275.024226 
L 244.905806 262.172061 
L 249.348364 234.487023 
L 253.790921 204.589618 
L 260.454758 157.292961 
L 264.897315 126.10119 
L 267.118594 111.354208 
L 269.339873 97.574888 
L 271.561152 85.069523 
L 273.782431 74.121119 
L 276.003709 64.966364 
L 278.224988 57.776405 
L 280.446267 52.644468 
L 282.667546 49.582268 
L 284.888825 48.525577 
L 287.110103 49.347766 
L 289.331382 51.878776 
L 291.552661 55.9261 
L 293.77394 61.294195 
L 295.995218 67.799138 
L 298.216497 75.27641 
L 300.437776 83.581086 
L 302.659055 92.581333 
L 307.101612 112.140435 
L 315.986728 152.918136 
L 318.208006 162.339615 
L 320.429285 171.097925 
L 322.650564 179.086868 
L 324.871843 186.265508 
L 327.093122 192.66266 
L 329.3144 198.371427 
L 331.535679 203.534554 
L 335.978237 212.912421 
L 340.420794 222.08155 
L 344.863352 231.792672 
L 358.191025 262.223626 
L 362.633582 271.244103 
L 367.07614 279.379489 
L 369.297419 283.121734 
L 371.518697 286.645539 
L 373.739976 289.943692 
L 375.961255 293.007601 
L 378.182534 295.833298 
L 380.403812 298.428226 
L 384.84637 303.043203 
L 391.510206 309.428927 
L 393.731485 311.713848 
L 395.952764 314.182846 
L 398.174043 316.86708 
L 400.395322 319.767994 
L 404.837879 326.079259 
L 411.501716 335.779231 
L 413.722994 338.76527 
L 415.944273 341.529914 
L 418.165552 344.04705 
L 420.386831 346.31565 
L 422.608109 348.357902 
L 427.050667 351.939357 
L 435.935782 358.631987 
L 440.37834 362.397251 
L 444.820897 366.52106 
L 453.706013 374.932813 
L 455.927291 376.843278 
L 458.14857 378.606369 
L 460.369849 380.198039 
L 462.591128 381.603123 
L 464.812406 382.816008 
L 467.033685 383.840694 
L 469.254964 384.690233 
L 471.476243 385.3855 
L 475.9188 386.424091 
L 482.582637 387.551952 
L 491.467752 389.090448 
L 500.352867 390.661646 
L 504.795425 391.263657 
L 509.237982 391.688988 
L 515.901819 392.0395 
L 524.786934 392.19194 
L 527.008213 392.204206 
L 527.008213 392.204206 
" clip-path="url(#p538190f13d)" style="fill: none; stroke: #1f77b4; stroke-width: 1.5; stroke-linecap: round"/>
   </g>
   <g id="line2d_27">
    <path d="M 78.798059 392.208662 
L 92.226012 392.053372 
L 101.17798 391.708519 
L 114.605933 391.040215 
L 121.319909 390.983184 
L 128.033885 391.179765 
L 136.985854 391.488155 
L 143.69983 391.443478 
L 150.413807 391.055195 
L 159.365775 390.169506 
L 168.317744 389.301866 
L 175.03172 388.947014 
L 188.459673 388.648969 
L 190.697665 388.415529 
L 192.935657 388.04213 
L 195.173649 387.492866 
L 197.411641 386.733714 
L 199.649633 385.733518 
L 201.887625 384.464233 
L 204.125617 382.900389 
L 206.36361 381.017815 
L 208.601602 378.791848 
L 210.839594 376.195312 
L 213.077586 373.196653 
L 215.315578 369.758629 
L 217.55357 365.837867 
L 219.791562 361.385487 
L 222.029554 356.3488 
L 224.267546 350.673853 
L 226.505539 344.308432 
L 228.743531 337.205054 
L 230.981523 329.323481 
L 233.219515 320.632457 
L 235.457507 311.110627 
L 237.695499 300.74684 
L 239.933491 289.540282 
L 242.171483 277.500974 
L 244.409475 264.651144 
L 246.647468 251.027806 
L 251.123452 221.706393 
L 255.599436 190.292026 
L 262.313412 142.185607 
L 264.551405 126.835312 
L 266.789397 112.297376 
L 269.027389 98.865255 
L 271.265381 86.817913 
L 273.503373 76.402253 
L 275.741365 67.816682 
L 277.979357 61.197877 
L 280.217349 56.612533 
L 282.455341 54.055281 
L 284.693334 53.453174 
L 286.931326 54.676167 
L 289.169318 57.552125 
L 291.40731 61.884216 
L 293.645302 67.468116 
L 295.883294 74.10655 
L 298.121286 81.61914 
L 300.359278 89.846445 
L 304.835263 107.896964 
L 311.549239 137.064961 
L 316.025223 156.297897 
L 318.263215 165.401467 
L 320.501207 173.981715 
L 322.7392 181.93729 
L 324.977192 189.207893 
L 327.215184 195.780177 
L 329.453176 201.687666 
L 331.691168 207.004739 
L 333.92916 211.835887 
L 338.405144 220.527829 
L 347.357113 237.004173 
L 351.833097 245.723454 
L 365.26105 272.709755 
L 369.737034 280.90539 
L 374.213018 288.298438 
L 376.45101 291.678354 
L 380.926995 297.846562 
L 385.402979 303.340549 
L 389.878963 308.326437 
L 394.354947 312.978105 
L 410.020892 328.888268 
L 421.210853 340.941353 
L 430.162821 350.444229 
L 439.11479 359.537671 
L 448.066758 368.255698 
L 452.542742 372.399405 
L 457.018727 376.229344 
L 459.256719 377.966497 
L 461.494711 379.553967 
L 463.732703 380.974223 
L 465.970695 382.217648 
L 468.208687 383.28428 
L 470.446679 384.184309 
L 472.684671 384.937201 
L 477.160656 386.111794 
L 486.112624 387.93467 
L 499.540577 390.590387 
L 504.016561 391.238463 
L 508.492545 391.687501 
L 515.206522 392.046832 
L 524.15849 392.19526 
L 524.15849 392.19526 
" clip-path="url(#p538190f13d)" style="fill: none; stroke: #ff7f0e; stroke-width: 1.5; stroke-linecap: round"/>
   </g>
   <g id="line2d_28">
    <path d="M 75.378838 392.208831 
L 88.953318 392.055933 
L 98.002972 391.716491 
L 111.577453 391.057603 
L 118.364693 391.004247 
L 125.151934 391.214717 
L 136.464001 391.648182 
L 143.251241 391.621871 
L 150.038481 391.306674 
L 183.974683 388.951499 
L 188.49951 388.301194 
L 193.024337 387.298588 
L 195.28675 386.625366 
L 197.549164 385.814246 
L 199.811577 384.84553 
L 202.073991 383.696629 
L 204.336404 382.340771 
L 206.598817 380.745459 
L 208.861231 378.870806 
L 211.123644 376.667991 
L 213.386058 374.078189 
L 215.648471 371.032367 
L 217.910885 367.452321 
L 220.173298 363.253196 
L 222.435712 358.347486 
L 224.698125 352.650222 
L 226.960538 346.084769 
L 229.222952 338.588468 
L 231.485365 330.117326 
L 233.747779 320.649149 
L 236.010192 310.184831 
L 238.272606 298.74791 
L 240.535019 286.382872 
L 242.797433 273.152911 
L 247.322259 244.43291 
L 251.847086 213.410467 
L 263.159154 133.653124 
L 265.421567 118.917251 
L 267.68398 105.143345 
L 269.946394 92.584791 
L 272.208807 81.484668 
L 274.471221 72.062466 
L 276.733634 64.500363 
L 278.996048 58.930643 
L 281.258461 55.425927 
L 283.520874 53.993651 
L 285.783288 54.575718 
L 288.045701 57.053522 
L 290.308115 61.257797 
L 292.570528 66.981966 
L 294.832942 73.997189 
L 297.095355 82.06706 
L 299.357769 90.96003 
L 303.882595 110.361553 
L 312.932249 150.619949 
L 315.194663 160.103985 
L 317.457076 169.097962 
L 319.71949 177.501117 
L 321.981903 185.239758 
L 324.244316 192.274945 
L 326.50673 198.60782 
L 328.769143 204.28086 
L 331.031557 209.374165 
L 333.29397 213.996992 
L 337.818797 222.3401 
L 344.606037 234.33312 
L 349.130864 242.777638 
L 362.705345 268.845529 
L 367.230172 276.481395 
L 369.492585 279.966088 
L 371.754999 283.230378 
L 374.017412 286.287128 
L 378.542239 291.851712 
L 383.067066 296.817719 
L 387.591893 301.345103 
L 403.428787 316.556873 
L 407.953614 321.431724 
L 414.740854 329.197798 
L 439.627402 358.140966 
L 444.152229 363.15714 
L 448.677056 367.880663 
L 453.201883 372.215982 
L 457.72671 376.076001 
L 459.989123 377.799616 
L 462.251536 379.371251 
L 464.51395 380.782775 
L 466.776363 382.030365 
L 469.038777 383.11618 
L 471.30119 384.049367 
L 475.826017 385.528251 
L 480.350844 386.652363 
L 491.662911 389.017624 
L 498.450152 390.325235 
L 502.974978 391.028706 
L 507.499805 391.542618 
L 512.024632 391.87341 
L 518.811872 392.117224 
L 525.599113 392.197572 
L 525.599113 392.197572 
" clip-path="url(#p538190f13d)" style="fill: none; stroke: #2ca02c; stroke-width: 1.5; stroke-linecap: round"/>
   </g>
   <g id="line2d_29">
    <path d="M 73.66875 392.208961 
L 87.271509 392.05998 
L 96.340016 391.729616 
L 112.209902 391.022251 
L 119.011281 391.046623 
L 139.415421 391.584816 
L 146.2168 391.394162 
L 159.81956 390.892753 
L 173.422319 390.601912 
L 177.956572 390.243329 
L 182.490825 389.622336 
L 187.025079 388.721713 
L 191.559332 387.553688 
L 196.093585 386.112784 
L 200.627838 384.319113 
L 202.894965 383.233008 
L 205.162091 381.97276 
L 207.429218 380.49074 
L 209.696344 378.730002 
L 211.963471 376.624565 
L 214.230597 374.099981 
L 216.497724 371.074311 
L 218.764851 367.459689 
L 221.031977 363.164668 
L 223.299104 358.097455 
L 225.56623 352.170063 
L 227.833357 345.303153 
L 230.100483 337.431268 
L 232.36761 328.507943 
L 234.634737 318.510194 
L 236.901863 307.441903 
L 239.16899 295.335755 
L 241.436116 282.253552 
L 243.703243 268.284933 
L 248.237496 238.169444 
L 255.038876 189.83882 
L 259.573129 157.578431 
L 264.107382 127.110883 
L 266.374509 113.071963 
L 268.641635 100.117121 
L 270.908762 88.46013 
L 273.175888 78.304038 
L 275.443015 69.830826 
L 277.710141 63.190094 
L 279.977268 58.488441 
L 282.244395 55.781327 
L 284.511521 55.06886 
L 286.778648 56.296275 
L 289.045774 59.358978 
L 291.312901 64.11116 
L 293.580027 70.376353 
L 295.847154 77.958036 
L 298.114281 86.648639 
L 300.381407 96.235857 
L 304.91566 117.245259 
L 311.71704 150.140589 
L 313.984167 160.634982 
L 316.251293 170.57292 
L 318.51842 179.797027 
L 320.785546 188.188471 
L 323.052673 195.676337 
L 325.319799 202.243487 
L 327.586926 207.927476 
L 329.854053 212.815944 
L 332.121179 217.036856 
L 334.388306 220.744839 
L 338.922559 227.279398 
L 343.456812 233.606617 
L 347.991065 240.480883 
L 352.525318 248.093397 
L 363.860951 268.139403 
L 368.395204 275.391359 
L 370.662331 278.713479 
L 372.929457 281.82466 
L 375.196584 284.732447 
L 379.730837 290.009639 
L 384.26509 294.745936 
L 400.134976 310.528175 
L 406.936356 317.928919 
L 425.073368 338.341898 
L 431.874748 346.284147 
L 440.943254 357.392633 
L 445.477508 362.880645 
L 450.011761 368.025324 
L 454.546014 372.615129 
L 456.81314 374.654781 
L 459.080267 376.510109 
L 461.347394 378.177559 
L 463.61452 379.659019 
L 465.881647 380.961579 
L 468.148773 382.09724 
L 470.4159 383.082485 
L 474.950153 384.68551 
L 479.484406 385.955711 
L 488.552912 388.125781 
L 495.354292 389.632935 
L 499.888545 390.496056 
L 504.422798 391.172652 
L 508.957052 391.643856 
L 513.491305 391.934555 
L 520.292684 392.139466 
L 524.826938 392.190772 
L 524.826938 392.190772 
" clip-path="url(#p538190f13d)" style="fill: none; stroke: #d62728; stroke-width: 1.5; stroke-linecap: round"/>
   </g>
   <g id="line2d_30">
    <path d="M 90.934475 392.207612 
L 101.430709 392.092072 
L 109.827695 391.777485 
L 128.720916 390.819547 
L 135.018656 390.865727 
L 145.514889 390.978957 
L 153.911876 390.766753 
L 168.606603 390.175831 
L 172.805096 389.783338 
L 177.00359 389.160551 
L 181.202083 388.280847 
L 185.400577 387.13019 
L 189.59907 385.65272 
L 191.698317 384.753276 
L 193.797563 383.718322 
L 195.89681 382.525528 
L 197.996057 381.155769 
L 200.095304 379.596503 
L 202.19455 377.844199 
L 204.293797 375.905032 
L 208.49229 371.527508 
L 212.690784 366.591163 
L 216.889277 361.077978 
L 218.988524 358.009647 
L 221.087771 354.630968 
L 223.187017 350.835243 
L 225.286264 346.498917 
L 227.385511 341.490286 
L 229.484757 335.679375 
L 231.584004 328.947709 
L 233.683251 321.196911 
L 235.782497 312.355429 
L 237.881744 302.383159 
L 239.980991 291.274104 
L 242.080238 279.05742 
L 244.179484 265.797169 
L 246.278731 251.590924 
L 250.477224 220.881339 
L 256.774964 171.686713 
L 260.973458 139.080456 
L 265.171951 108.423755 
L 267.271198 94.278301 
L 269.370445 81.156894 
L 271.469691 69.238018 
L 273.568938 58.702349 
L 275.668185 49.728821 
L 277.767431 42.486151 
L 279.866678 37.120407 
L 281.965925 33.740209 
L 284.065172 32.40189 
L 286.164418 33.097229 
L 288.263665 35.746168 
L 290.362912 40.196295 
L 292.462158 46.229853 
L 294.561405 53.577907 
L 296.660652 61.940071 
L 300.859145 80.484414 
L 307.156885 109.003733 
L 311.355379 126.611852 
L 315.553872 142.566499 
L 319.752365 156.883453 
L 323.950859 169.706034 
L 328.149352 181.285871 
L 338.645586 208.707487 
L 340.744832 214.751038 
L 342.844079 221.168235 
L 347.042573 235.11722 
L 357.538806 271.915334 
L 359.638053 278.406761 
L 361.737299 284.284817 
L 363.836546 289.468759 
L 365.935793 293.917899 
L 368.03504 297.631315 
L 370.134286 300.644664 
L 372.233533 303.025164 
L 374.33278 304.865713 
L 376.432026 306.278849 
L 378.531273 307.390874 
L 384.829013 310.266128 
L 386.92826 311.502332 
L 389.027507 313.059373 
L 391.126753 315.010411 
L 393.226 317.395448 
L 395.325247 320.217559 
L 397.424493 323.442462 
L 399.52374 327.001924 
L 403.722233 334.727291 
L 407.920727 342.499585 
L 410.019974 346.139141 
L 412.11922 349.510563 
L 414.218467 352.568594 
L 416.317714 355.294965 
L 418.41696 357.695721 
L 420.516207 359.79654 
L 422.615454 361.637034 
L 424.7147 363.264905 
L 428.913194 366.082626 
L 437.310181 371.079563 
L 445.707167 375.959894 
L 449.905661 378.153443 
L 454.104154 380.055937 
L 458.302648 381.702692 
L 477.195868 388.491507 
L 481.394361 389.74138 
L 485.592855 390.7067 
L 489.791348 391.37526 
L 493.989842 391.790567 
L 500.287582 392.090901 
L 508.684569 392.203369 
L 508.684569 392.203369 
" clip-path="url(#p538190f13d)" style="fill: none; stroke: #9467bd; stroke-width: 1.5; stroke-linecap: round"/>
   </g>
   <g id="patch_3">
    <path d="M 50.2625 392.2225 
L 50.2625 10.8 
" style="fill: none; stroke: #ffffff; stroke-width: 0.8; stroke-linejoin: miter; stroke-linecap: square"/>
   </g>
   <g id="patch_4">
    <path d="M 565.2 392.2225 
L 565.2 10.8 
" style="fill: none; stroke: #ffffff; stroke-width: 0.8; stroke-linejoin: miter; stroke-linecap: square"/>
   </g>
   <g id="patch_5">
    <path d="M 50.2625 392.2225 
L 565.2 392.2225 
" style="fill: none; stroke: #ffffff; stroke-width: 0.8; stroke-linejoin: miter; stroke-linecap: square"/>
   </g>
   <g id="patch_6">
    <path d="M 50.2625 10.8 
L 565.2 10.8 
" style="fill: none; stroke: #ffffff; stroke-width: 0.8; stroke-linejoin: miter; stroke-linecap: square"/>
   </g>
   <g id="legend_1">
    <g id="patch_7">
     <path d="M 494.517187 233.09375 
L 558.2 233.09375 
Q 560.2 233.09375 560.2 231.09375 
L 560.2 17.8 
Q 560.2 15.8 558.2 15.8 
L 494.517187 15.8 
Q 492.517187 15.8 492.517187 17.8 
L 492.517187 231.09375 
Q 492.517187 233.09375 494.517187 233.09375 
z
" style="fill: #eaeaf2; opacity: 0.8; stroke: #cccccc; stroke-linejoin: miter"/>
    </g>
    <g id="line2d_31">
     <path d="M 496.517187 23.4875 
L 506.517187 23.4875 
L 516.517187 23.4875 
" style="fill: none; stroke: #1f77b4; stroke-width: 1.5; stroke-linecap: round"/>
    </g>
    <g id="text_18">
     <!-- Day 1 -->
     <g style="fill: #262626" transform="translate(524.517187 26.9875) scale(0.1 -0.1)">
      <use xlink:href="#ArialMT-44"/>
      <use xlink:href="#ArialMT-61" x="72.216797"/>
      <use xlink:href="#ArialMT-79" x="127.832031"/>
      <use xlink:href="#ArialMT-20" x="177.832031"/>
      <use xlink:href="#ArialMT-31" x="205.615234"/>
     </g>
    </g>
    <g id="line2d_32">
     <path d="M 496.517187 37.779687 
L 506.517187 37.779687 
L 516.517187 37.779687 
" style="fill: none; stroke: #ff7f0e; stroke-width: 1.5; stroke-linecap: round"/>
    </g>
    <g id="text_19">
     <!-- Day 2 -->
     <g style="fill: #262626" transform="translate(524.517187 41.279687) scale(0.1 -0.1)">
      <use xlink:href="#ArialMT-44"/>
      <use xlink:href="#ArialMT-61" x="72.216797"/>
      <use xlink:href="#ArialMT-79" x="127.832031"/>
      <use xlink:href="#ArialMT-20" x="177.832031"/>
      <use xlink:href="#ArialMT-32" x="205.615234"/>
     </g>
    </g>
    <g id="line2d_33">
     <path d="M 496.517187 52.071875 
L 506.517187 52.071875 
L 516.517187 52.071875 
" style="fill: none; stroke: #2ca02c; stroke-width: 1.5; stroke-linecap: round"/>
    </g>
    <g id="text_20">
     <!-- Day 3 -->
     <g style="fill: #262626" transform="translate(524.517187 55.571875) scale(0.1 -0.1)">
      <defs>
       <path id="ArialMT-33" d="M 269 1209 
L 831 1284 
Q 928 806 1161 595 
Q 1394 384 1728 384 
Q 2125 384 2398 659 
Q 2672 934 2672 1341 
Q 2672 1728 2419 1979 
Q 2166 2231 1775 2231 
Q 1616 2231 1378 2169 
L 1441 2663 
Q 1497 2656 1531 2656 
Q 1891 2656 2178 2843 
Q 2466 3031 2466 3422 
Q 2466 3731 2256 3934 
Q 2047 4138 1716 4138 
Q 1388 4138 1169 3931 
Q 950 3725 888 3313 
L 325 3413 
Q 428 3978 793 4289 
Q 1159 4600 1703 4600 
Q 2078 4600 2393 4439 
Q 2709 4278 2876 4000 
Q 3044 3722 3044 3409 
Q 3044 3113 2884 2869 
Q 2725 2625 2413 2481 
Q 2819 2388 3044 2092 
Q 3269 1797 3269 1353 
Q 3269 753 2831 336 
Q 2394 -81 1725 -81 
Q 1122 -81 723 278 
Q 325 638 269 1209 
z
" transform="scale(0.015625)"/>
      </defs>
      <use xlink:href="#ArialMT-44"/>
      <use xlink:href="#ArialMT-61" x="72.216797"/>
      <use xlink:href="#ArialMT-79" x="127.832031"/>
      <use xlink:href="#ArialMT-20" x="177.832031"/>
      <use xlink:href="#ArialMT-33" x="205.615234"/>
     </g>
    </g>
    <g id="line2d_34">
     <path d="M 496.517187 66.334375 
L 506.517187 66.334375 
L 516.517187 66.334375 
" style="fill: none; stroke: #d62728; stroke-width: 1.5; stroke-linecap: round"/>
    </g>
    <g id="text_21">
     <!-- Day 4 -->
     <g style="fill: #262626" transform="translate(524.517187 69.834375) scale(0.1 -0.1)">
      <use xlink:href="#ArialMT-44"/>
      <use xlink:href="#ArialMT-61" x="72.216797"/>
      <use xlink:href="#ArialMT-79" x="127.832031"/>
      <use xlink:href="#ArialMT-20" x="177.832031"/>
      <use xlink:href="#ArialMT-34" x="205.615234"/>
     </g>
    </g>
    <g id="line2d_35">
     <path d="M 496.517187 80.596875 
L 506.517187 80.596875 
L 516.517187 80.596875 
" style="fill: none; stroke: #9467bd; stroke-width: 1.5; stroke-linecap: round"/>
    </g>
    <g id="text_22">
     <!-- Day 5 -->
     <g style="fill: #262626" transform="translate(524.517187 84.096875) scale(0.1 -0.1)">
      <use xlink:href="#ArialMT-44"/>
      <use xlink:href="#ArialMT-61" x="72.216797"/>
      <use xlink:href="#ArialMT-79" x="127.832031"/>
      <use xlink:href="#ArialMT-20" x="177.832031"/>
      <use xlink:href="#ArialMT-35" x="205.615234"/>
     </g>
    </g>
    <g id="line2d_36">
     <path d="M 496.517187 94.889062 
L 506.517187 94.889062 
L 516.517187 94.889062 
" style="fill: none; stroke: #8c564b; stroke-width: 1.5; stroke-linecap: round"/>
    </g>
    <g id="text_23">
     <!-- Day 6 -->
     <g style="fill: #262626" transform="translate(524.517187 98.389062) scale(0.1 -0.1)">
      <use xlink:href="#ArialMT-44"/>
      <use xlink:href="#ArialMT-61" x="72.216797"/>
      <use xlink:href="#ArialMT-79" x="127.832031"/>
      <use xlink:href="#ArialMT-20" x="177.832031"/>
      <use xlink:href="#ArialMT-36" x="205.615234"/>
     </g>
    </g>
    <g id="line2d_37">
     <path d="M 496.517187 109.151562 
L 506.517187 109.151562 
L 516.517187 109.151562 
" style="fill: none; stroke: #e377c2; stroke-width: 1.5; stroke-linecap: round"/>
    </g>
    <g id="text_24">
     <!-- Day 7 -->
     <g style="fill: #262626" transform="translate(524.517187 112.651562) scale(0.1 -0.1)">
      <defs>
       <path id="ArialMT-37" d="M 303 3981 
L 303 4522 
L 3269 4522 
L 3269 4084 
Q 2831 3619 2401 2847 
Q 1972 2075 1738 1259 
Q 1569 684 1522 0 
L 944 0 
Q 953 541 1156 1306 
Q 1359 2072 1739 2783 
Q 2119 3494 2547 3981 
L 303 3981 
z
" transform="scale(0.015625)"/>
      </defs>
      <use xlink:href="#ArialMT-44"/>
      <use xlink:href="#ArialMT-61" x="72.216797"/>
      <use xlink:href="#ArialMT-79" x="127.832031"/>
      <use xlink:href="#ArialMT-20" x="177.832031"/>
      <use xlink:href="#ArialMT-37" x="205.615234"/>
     </g>
    </g>
    <g id="line2d_38">
     <path d="M 496.517187 123.44375 
L 506.517187 123.44375 
L 516.517187 123.44375 
" style="fill: none; stroke: #7f7f7f; stroke-width: 1.5; stroke-linecap: round"/>
    </g>
    <g id="text_25">
     <!-- Day 8 -->
     <g style="fill: #262626" transform="translate(524.517187 126.94375) scale(0.1 -0.1)">
      <use xlink:href="#ArialMT-44"/>
      <use xlink:href="#ArialMT-61" x="72.216797"/>
      <use xlink:href="#ArialMT-79" x="127.832031"/>
      <use xlink:href="#ArialMT-20" x="177.832031"/>
      <use xlink:href="#ArialMT-38" x="205.615234"/>
     </g>
    </g>
    <g id="line2d_39">
     <path d="M 496.517187 137.735937 
L 506.517187 137.735937 
L 516.517187 137.735937 
" style="fill: none; stroke: #bcbd22; stroke-width: 1.5; stroke-linecap: round"/>
    </g>
    <g id="text_26">
     <!-- Day 9 -->
     <g style="fill: #262626" transform="translate(524.517187 141.235937) scale(0.1 -0.1)">
      <defs>
       <path id="ArialMT-39" d="M 350 1059 
L 891 1109 
Q 959 728 1153 556 
Q 1347 384 1650 384 
Q 1909 384 2104 503 
Q 2300 622 2425 820 
Q 2550 1019 2634 1356 
Q 2719 1694 2719 2044 
Q 2719 2081 2716 2156 
Q 2547 1888 2255 1720 
Q 1963 1553 1622 1553 
Q 1053 1553 659 1965 
Q 266 2378 266 3053 
Q 266 3750 677 4175 
Q 1088 4600 1706 4600 
Q 2153 4600 2523 4359 
Q 2894 4119 3086 3673 
Q 3278 3228 3278 2384 
Q 3278 1506 3087 986 
Q 2897 466 2520 194 
Q 2144 -78 1638 -78 
Q 1100 -78 759 220 
Q 419 519 350 1059 
z
M 2653 3081 
Q 2653 3566 2395 3850 
Q 2138 4134 1775 4134 
Q 1400 4134 1122 3828 
Q 844 3522 844 3034 
Q 844 2597 1108 2323 
Q 1372 2050 1759 2050 
Q 2150 2050 2401 2323 
Q 2653 2597 2653 3081 
z
" transform="scale(0.015625)"/>
      </defs>
      <use xlink:href="#ArialMT-44"/>
      <use xlink:href="#ArialMT-61" x="72.216797"/>
      <use xlink:href="#ArialMT-79" x="127.832031"/>
      <use xlink:href="#ArialMT-20" x="177.832031"/>
      <use xlink:href="#ArialMT-39" x="205.615234"/>
     </g>
    </g>
    <g id="line2d_40">
     <path d="M 496.517187 152.028125 
L 506.517187 152.028125 
L 516.517187 152.028125 
" style="fill: none; stroke: #17becf; stroke-width: 1.5; stroke-linecap: round"/>
    </g>
    <g id="text_27">
     <!-- Day 10 -->
     <g style="fill: #262626" transform="translate(524.517187 155.528125) scale(0.1 -0.1)">
      <use xlink:href="#ArialMT-44"/>
      <use xlink:href="#ArialMT-61" x="72.216797"/>
      <use xlink:href="#ArialMT-79" x="127.832031"/>
      <use xlink:href="#ArialMT-20" x="177.832031"/>
      <use xlink:href="#ArialMT-31" x="205.615234"/>
      <use xlink:href="#ArialMT-30" x="261.230469"/>
     </g>
    </g>
    <g id="line2d_41">
     <path d="M 496.517187 166.320312 
L 506.517187 166.320312 
L 516.517187 166.320312 
" style="fill: none; stroke: #1f77b4; stroke-width: 1.5; stroke-linecap: round"/>
    </g>
    <g id="text_28">
     <!-- Day 11 -->
     <g style="fill: #262626" transform="translate(524.517187 169.820312) scale(0.1 -0.1)">
      <use xlink:href="#ArialMT-44"/>
      <use xlink:href="#ArialMT-61" x="72.216797"/>
      <use xlink:href="#ArialMT-79" x="127.832031"/>
      <use xlink:href="#ArialMT-20" x="177.832031"/>
      <use xlink:href="#ArialMT-31" x="205.615234"/>
      <use xlink:href="#ArialMT-31" x="253.855469"/>
     </g>
    </g>
    <g id="line2d_42">
     <path d="M 496.517187 180.6125 
L 506.517187 180.6125 
L 516.517187 180.6125 
" style="fill: none; stroke: #ff7f0e; stroke-width: 1.5; stroke-linecap: round"/>
    </g>
    <g id="text_29">
     <!-- Day 12 -->
     <g style="fill: #262626" transform="translate(524.517187 184.1125) scale(0.1 -0.1)">
      <use xlink:href="#ArialMT-44"/>
      <use xlink:href="#ArialMT-61" x="72.216797"/>
      <use xlink:href="#ArialMT-79" x="127.832031"/>
      <use xlink:href="#ArialMT-20" x="177.832031"/>
      <use xlink:href="#ArialMT-31" x="205.615234"/>
      <use xlink:href="#ArialMT-32" x="261.230469"/>
     </g>
    </g>
    <g id="line2d_43">
     <path d="M 496.517187 194.904687 
L 506.517187 194.904687 
L 516.517187 194.904687 
" style="fill: none; stroke: #2ca02c; stroke-width: 1.5; stroke-linecap: round"/>
    </g>
    <g id="text_30">
     <!-- Day 13 -->
     <g style="fill: #262626" transform="translate(524.517187 198.404687) scale(0.1 -0.1)">
      <use xlink:href="#ArialMT-44"/>
      <use xlink:href="#ArialMT-61" x="72.216797"/>
      <use xlink:href="#ArialMT-79" x="127.832031"/>
      <use xlink:href="#ArialMT-20" x="177.832031"/>
      <use xlink:href="#ArialMT-31" x="205.615234"/>
      <use xlink:href="#ArialMT-33" x="261.230469"/>
     </g>
    </g>
    <g id="line2d_44">
     <path d="M 496.517187 209.196875 
L 506.517187 209.196875 
L 516.517187 209.196875 
" style="fill: none; stroke: #d62728; stroke-width: 1.5; stroke-linecap: round"/>
    </g>
    <g id="text_31">
     <!-- Day 14 -->
     <g style="fill: #262626" transform="translate(524.517187 212.696875) scale(0.1 -0.1)">
      <use xlink:href="#ArialMT-44"/>
      <use xlink:href="#ArialMT-61" x="72.216797"/>
      <use xlink:href="#ArialMT-79" x="127.832031"/>
      <use xlink:href="#ArialMT-20" x="177.832031"/>
      <use xlink:href="#ArialMT-31" x="205.615234"/>
      <use xlink:href="#ArialMT-34" x="261.230469"/>
     </g>
    </g>
    <g id="line2d_45">
     <path d="M 496.517187 223.489063 
L 506.517187 223.489063 
L 516.517187 223.489063 
" style="fill: none; stroke: #9467bd; stroke-width: 1.5; stroke-linecap: round"/>
    </g>
    <g id="text_32">
     <!-- Day 15 -->
     <g style="fill: #262626" transform="translate(524.517187 226.989063) scale(0.1 -0.1)">
      <use xlink:href="#ArialMT-44"/>
      <use xlink:href="#ArialMT-61" x="72.216797"/>
      <use xlink:href="#ArialMT-79" x="127.832031"/>
      <use xlink:href="#ArialMT-20" x="177.832031"/>
      <use xlink:href="#ArialMT-31" x="205.615234"/>
      <use xlink:href="#ArialMT-35" x="261.230469"/>
     </g>
    </g>
   </g>
  </g>
 </g>
 <defs>
  <clipPath id="p538190f13d">
   <rect x="50.2625" y="10.8" width="514.9375" height="381.4225"/>
  </clipPath>
 </defs>
</svg>
