<?xml version="1.0" encoding="utf-8" standalone="no"?>
<!DOCTYPE svg PUBLIC "-//W3C//DTD SVG 1.1//EN"
  "http://www.w3.org/Graphics/SVG/1.1/DTD/svg11.dtd">
<svg xmlns:xlink="http://www.w3.org/1999/xlink" width="576pt" height="432pt" viewBox="0 0 576 432" xmlns="http://www.w3.org/2000/svg" version="1.1">
 <metadata>
  <rdf:RDF xmlns:dc="http://purl.org/dc/elements/1.1/" xmlns:cc="http://creativecommons.org/ns#" xmlns:rdf="http://www.w3.org/1999/02/22-rdf-syntax-ns#">
   <cc:Work>
    <dc:type rdf:resource="http://purl.org/dc/dcmitype/StillImage"/>
    <dc:date>2023-11-17T05:15:18.158532</dc:date>
    <dc:format>image/svg+xml</dc:format>
    <dc:creator>
     <cc:Agent>
      <dc:title>Matplotlib v3.8.0, https://matplotlib.org/</dc:title>
     </cc:Agent>
    </dc:creator>
   </cc:Work>
  </rdf:RDF>
 </metadata>
 <defs>
  <style type="text/css">*{stroke-linejoin: round; stroke-linecap: butt}</style>
 </defs>
 <g id="figure_1">
  <g id="patch_1">
   <path d="M 0 432 
L 576 432 
L 576 0 
L 0 0 
z
" style="fill: #ffffff"/>
  </g>
  <g id="axes_1">
   <g id="patch_2">
    <path d="M 61.4225 392.6275 
L 565.2 392.6275 
L 565.2 10.8 
L 61.4225 10.8 
z
" style="fill: #eaeaf2"/>
   </g>
   <g id="matplotlib.axis_1">
    <g id="xtick_1">
     <g id="line2d_1">
      <path d="M 114.382237 392.6275 
L 114.382237 10.8 
" clip-path="url(#pb1aeb3b046)" style="fill: none; stroke: #ffffff; stroke-width: 0.8; stroke-linecap: round"/>
     </g>
     <g id="text_1">
      <!-- −400 -->
      <g style="fill: #262626" transform="translate(103.120518 406.785312) scale(0.1 -0.1)">
       <defs>
        <path id="ArialMT-2212" d="M 3381 1997 
L 356 1997 
L 356 2522 
L 3381 2522 
L 3381 1997 
z
" transform="scale(0.015625)"/>
        <path id="ArialMT-34" d="M 2069 0 
L 2069 1097 
L 81 1097 
L 81 1613 
L 2172 4581 
L 2631 4581 
L 2631 1613 
L 3250 1613 
L 3250 1097 
L 2631 1097 
L 2631 0 
L 2069 0 
z
M 2069 1613 
L 2069 3678 
L 634 1613 
L 2069 1613 
z
" transform="scale(0.015625)"/>
        <path id="ArialMT-30" d="M 266 2259 
Q 266 3072 433 3567 
Q 600 4063 929 4331 
Q 1259 4600 1759 4600 
Q 2128 4600 2406 4451 
Q 2684 4303 2865 4023 
Q 3047 3744 3150 3342 
Q 3253 2941 3253 2259 
Q 3253 1453 3087 958 
Q 2922 463 2592 192 
Q 2263 -78 1759 -78 
Q 1097 -78 719 397 
Q 266 969 266 2259 
z
M 844 2259 
Q 844 1131 1108 757 
Q 1372 384 1759 384 
Q 2147 384 2411 759 
Q 2675 1134 2675 2259 
Q 2675 3391 2411 3762 
Q 2147 4134 1753 4134 
Q 1366 4134 1134 3806 
Q 844 3388 844 2259 
z
" transform="scale(0.015625)"/>
       </defs>
       <use xlink:href="#ArialMT-2212"/>
       <use xlink:href="#ArialMT-34" x="58.398438"/>
       <use xlink:href="#ArialMT-30" x="114.013672"/>
       <use xlink:href="#ArialMT-30" x="169.628906"/>
      </g>
     </g>
    </g>
    <g id="xtick_2">
     <g id="line2d_2">
      <path d="M 174.403965 392.6275 
L 174.403965 10.8 
" clip-path="url(#pb1aeb3b046)" style="fill: none; stroke: #ffffff; stroke-width: 0.8; stroke-linecap: round"/>
     </g>
     <g id="text_2">
      <!-- −200 -->
      <g style="fill: #262626" transform="translate(163.142247 406.785312) scale(0.1 -0.1)">
       <defs>
        <path id="ArialMT-32" d="M 3222 541 
L 3222 0 
L 194 0 
Q 188 203 259 391 
Q 375 700 629 1000 
Q 884 1300 1366 1694 
Q 2113 2306 2375 2664 
Q 2638 3022 2638 3341 
Q 2638 3675 2398 3904 
Q 2159 4134 1775 4134 
Q 1369 4134 1125 3890 
Q 881 3647 878 3216 
L 300 3275 
Q 359 3922 746 4261 
Q 1134 4600 1788 4600 
Q 2447 4600 2831 4234 
Q 3216 3869 3216 3328 
Q 3216 3053 3103 2787 
Q 2991 2522 2730 2228 
Q 2469 1934 1863 1422 
Q 1356 997 1212 845 
Q 1069 694 975 541 
L 3222 541 
z
" transform="scale(0.015625)"/>
       </defs>
       <use xlink:href="#ArialMT-2212"/>
       <use xlink:href="#ArialMT-32" x="58.398438"/>
       <use xlink:href="#ArialMT-30" x="114.013672"/>
       <use xlink:href="#ArialMT-30" x="169.628906"/>
      </g>
     </g>
    </g>
    <g id="xtick_3">
     <g id="line2d_3">
      <path d="M 234.425694 392.6275 
L 234.425694 10.8 
" clip-path="url(#pb1aeb3b046)" style="fill: none; stroke: #ffffff; stroke-width: 0.8; stroke-linecap: round"/>
     </g>
     <g id="text_3">
      <!-- 0 -->
      <g style="fill: #262626" transform="translate(231.645225 406.785312) scale(0.1 -0.1)">
       <use xlink:href="#ArialMT-30"/>
      </g>
     </g>
    </g>
    <g id="xtick_4">
     <g id="line2d_4">
      <path d="M 294.447423 392.6275 
L 294.447423 10.8 
" clip-path="url(#pb1aeb3b046)" style="fill: none; stroke: #ffffff; stroke-width: 0.8; stroke-linecap: round"/>
     </g>
     <g id="text_4">
      <!-- 200 -->
      <g style="fill: #262626" transform="translate(286.106017 406.785312) scale(0.1 -0.1)">
       <use xlink:href="#ArialMT-32"/>
       <use xlink:href="#ArialMT-30" x="55.615234"/>
       <use xlink:href="#ArialMT-30" x="111.230469"/>
      </g>
     </g>
    </g>
    <g id="xtick_5">
     <g id="line2d_5">
      <path d="M 354.469152 392.6275 
L 354.469152 10.8 
" clip-path="url(#pb1aeb3b046)" style="fill: none; stroke: #ffffff; stroke-width: 0.8; stroke-linecap: round"/>
     </g>
     <g id="text_5">
      <!-- 400 -->
      <g style="fill: #262626" transform="translate(346.127745 406.785312) scale(0.1 -0.1)">
       <use xlink:href="#ArialMT-34"/>
       <use xlink:href="#ArialMT-30" x="55.615234"/>
       <use xlink:href="#ArialMT-30" x="111.230469"/>
      </g>
     </g>
    </g>
    <g id="xtick_6">
     <g id="line2d_6">
      <path d="M 414.49088 392.6275 
L 414.49088 10.8 
" clip-path="url(#pb1aeb3b046)" style="fill: none; stroke: #ffffff; stroke-width: 0.8; stroke-linecap: round"/>
     </g>
     <g id="text_6">
      <!-- 600 -->
      <g style="fill: #262626" transform="translate(406.149474 406.785312) scale(0.1 -0.1)">
       <defs>
        <path id="ArialMT-36" d="M 3184 3459 
L 2625 3416 
Q 2550 3747 2413 3897 
Q 2184 4138 1850 4138 
Q 1581 4138 1378 3988 
Q 1113 3794 959 3422 
Q 806 3050 800 2363 
Q 1003 2672 1297 2822 
Q 1591 2972 1913 2972 
Q 2475 2972 2870 2558 
Q 3266 2144 3266 1488 
Q 3266 1056 3080 686 
Q 2894 316 2569 119 
Q 2244 -78 1831 -78 
Q 1128 -78 684 439 
Q 241 956 241 2144 
Q 241 3472 731 4075 
Q 1159 4600 1884 4600 
Q 2425 4600 2770 4297 
Q 3116 3994 3184 3459 
z
M 888 1484 
Q 888 1194 1011 928 
Q 1134 663 1356 523 
Q 1578 384 1822 384 
Q 2178 384 2434 671 
Q 2691 959 2691 1453 
Q 2691 1928 2437 2201 
Q 2184 2475 1800 2475 
Q 1419 2475 1153 2201 
Q 888 1928 888 1484 
z
" transform="scale(0.015625)"/>
       </defs>
       <use xlink:href="#ArialMT-36"/>
       <use xlink:href="#ArialMT-30" x="55.615234"/>
       <use xlink:href="#ArialMT-30" x="111.230469"/>
      </g>
     </g>
    </g>
    <g id="xtick_7">
     <g id="line2d_7">
      <path d="M 474.512609 392.6275 
L 474.512609 10.8 
" clip-path="url(#pb1aeb3b046)" style="fill: none; stroke: #ffffff; stroke-width: 0.8; stroke-linecap: round"/>
     </g>
     <g id="text_7">
      <!-- 800 -->
      <g style="fill: #262626" transform="translate(466.171203 406.785312) scale(0.1 -0.1)">
       <defs>
        <path id="ArialMT-38" d="M 1131 2484 
Q 781 2613 612 2850 
Q 444 3088 444 3419 
Q 444 3919 803 4259 
Q 1163 4600 1759 4600 
Q 2359 4600 2725 4251 
Q 3091 3903 3091 3403 
Q 3091 3084 2923 2848 
Q 2756 2613 2416 2484 
Q 2838 2347 3058 2040 
Q 3278 1734 3278 1309 
Q 3278 722 2862 322 
Q 2447 -78 1769 -78 
Q 1091 -78 675 323 
Q 259 725 259 1325 
Q 259 1772 486 2073 
Q 713 2375 1131 2484 
z
M 1019 3438 
Q 1019 3113 1228 2906 
Q 1438 2700 1772 2700 
Q 2097 2700 2305 2904 
Q 2513 3109 2513 3406 
Q 2513 3716 2298 3927 
Q 2084 4138 1766 4138 
Q 1444 4138 1231 3931 
Q 1019 3725 1019 3438 
z
M 838 1322 
Q 838 1081 952 856 
Q 1066 631 1291 507 
Q 1516 384 1775 384 
Q 2178 384 2440 643 
Q 2703 903 2703 1303 
Q 2703 1709 2433 1975 
Q 2163 2241 1756 2241 
Q 1359 2241 1098 1978 
Q 838 1716 838 1322 
z
" transform="scale(0.015625)"/>
       </defs>
       <use xlink:href="#ArialMT-38"/>
       <use xlink:href="#ArialMT-30" x="55.615234"/>
       <use xlink:href="#ArialMT-30" x="111.230469"/>
      </g>
     </g>
    </g>
    <g id="xtick_8">
     <g id="line2d_8">
      <path d="M 534.534338 392.6275 
L 534.534338 10.8 
" clip-path="url(#pb1aeb3b046)" style="fill: none; stroke: #ffffff; stroke-width: 0.8; stroke-linecap: round"/>
     </g>
     <g id="text_8">
      <!-- 1000 -->
      <g style="fill: #262626" transform="translate(523.412463 406.785312) scale(0.1 -0.1)">
       <defs>
        <path id="ArialMT-31" d="M 2384 0 
L 1822 0 
L 1822 3584 
Q 1619 3391 1289 3197 
Q 959 3003 697 2906 
L 697 3450 
Q 1169 3672 1522 3987 
Q 1875 4303 2022 4600 
L 2384 4600 
L 2384 0 
z
" transform="scale(0.015625)"/>
       </defs>
       <use xlink:href="#ArialMT-31"/>
       <use xlink:href="#ArialMT-30" x="55.615234"/>
       <use xlink:href="#ArialMT-30" x="111.230469"/>
       <use xlink:href="#ArialMT-30" x="166.845703"/>
      </g>
     </g>
    </g>
    <g id="text_9">
     <!-- Maximum Solar Radiation Predictive Error (W/m^2) -->
     <g style="fill: #262626" transform="translate(200.11125 420.0525) scale(0.1 -0.1)">
      <defs>
       <path id="ArialMT-4d" d="M 475 0 
L 475 4581 
L 1388 4581 
L 2472 1338 
Q 2622 884 2691 659 
Q 2769 909 2934 1394 
L 4031 4581 
L 4847 4581 
L 4847 0 
L 4263 0 
L 4263 3834 
L 2931 0 
L 2384 0 
L 1059 3900 
L 1059 0 
L 475 0 
z
" transform="scale(0.015625)"/>
       <path id="ArialMT-61" d="M 2588 409 
Q 2275 144 1986 34 
Q 1697 -75 1366 -75 
Q 819 -75 525 192 
Q 231 459 231 875 
Q 231 1119 342 1320 
Q 453 1522 633 1644 
Q 813 1766 1038 1828 
Q 1203 1872 1538 1913 
Q 2219 1994 2541 2106 
Q 2544 2222 2544 2253 
Q 2544 2597 2384 2738 
Q 2169 2928 1744 2928 
Q 1347 2928 1158 2789 
Q 969 2650 878 2297 
L 328 2372 
Q 403 2725 575 2942 
Q 747 3159 1072 3276 
Q 1397 3394 1825 3394 
Q 2250 3394 2515 3294 
Q 2781 3194 2906 3042 
Q 3031 2891 3081 2659 
Q 3109 2516 3109 2141 
L 3109 1391 
Q 3109 606 3145 398 
Q 3181 191 3288 0 
L 2700 0 
Q 2613 175 2588 409 
z
M 2541 1666 
Q 2234 1541 1622 1453 
Q 1275 1403 1131 1340 
Q 988 1278 909 1158 
Q 831 1038 831 891 
Q 831 666 1001 516 
Q 1172 366 1500 366 
Q 1825 366 2078 508 
Q 2331 650 2450 897 
Q 2541 1088 2541 1459 
L 2541 1666 
z
" transform="scale(0.015625)"/>
       <path id="ArialMT-78" d="M 47 0 
L 1259 1725 
L 138 3319 
L 841 3319 
L 1350 2541 
Q 1494 2319 1581 2169 
Q 1719 2375 1834 2534 
L 2394 3319 
L 3066 3319 
L 1919 1756 
L 3153 0 
L 2463 0 
L 1781 1031 
L 1600 1309 
L 728 0 
L 47 0 
z
" transform="scale(0.015625)"/>
       <path id="ArialMT-69" d="M 425 3934 
L 425 4581 
L 988 4581 
L 988 3934 
L 425 3934 
z
M 425 0 
L 425 3319 
L 988 3319 
L 988 0 
L 425 0 
z
" transform="scale(0.015625)"/>
       <path id="ArialMT-6d" d="M 422 0 
L 422 3319 
L 925 3319 
L 925 2853 
Q 1081 3097 1340 3245 
Q 1600 3394 1931 3394 
Q 2300 3394 2536 3241 
Q 2772 3088 2869 2813 
Q 3263 3394 3894 3394 
Q 4388 3394 4653 3120 
Q 4919 2847 4919 2278 
L 4919 0 
L 4359 0 
L 4359 2091 
Q 4359 2428 4304 2576 
Q 4250 2725 4106 2815 
Q 3963 2906 3769 2906 
Q 3419 2906 3187 2673 
Q 2956 2441 2956 1928 
L 2956 0 
L 2394 0 
L 2394 2156 
Q 2394 2531 2256 2718 
Q 2119 2906 1806 2906 
Q 1569 2906 1367 2781 
Q 1166 2656 1075 2415 
Q 984 2175 984 1722 
L 984 0 
L 422 0 
z
" transform="scale(0.015625)"/>
       <path id="ArialMT-75" d="M 2597 0 
L 2597 488 
Q 2209 -75 1544 -75 
Q 1250 -75 995 37 
Q 741 150 617 320 
Q 494 491 444 738 
Q 409 903 409 1263 
L 409 3319 
L 972 3319 
L 972 1478 
Q 972 1038 1006 884 
Q 1059 663 1231 536 
Q 1403 409 1656 409 
Q 1909 409 2131 539 
Q 2353 669 2445 892 
Q 2538 1116 2538 1541 
L 2538 3319 
L 3100 3319 
L 3100 0 
L 2597 0 
z
" transform="scale(0.015625)"/>
       <path id="ArialMT-20" transform="scale(0.015625)"/>
       <path id="ArialMT-53" d="M 288 1472 
L 859 1522 
Q 900 1178 1048 958 
Q 1197 738 1509 602 
Q 1822 466 2213 466 
Q 2559 466 2825 569 
Q 3091 672 3220 851 
Q 3350 1031 3350 1244 
Q 3350 1459 3225 1620 
Q 3100 1781 2813 1891 
Q 2628 1963 1997 2114 
Q 1366 2266 1113 2400 
Q 784 2572 623 2826 
Q 463 3081 463 3397 
Q 463 3744 659 4045 
Q 856 4347 1234 4503 
Q 1613 4659 2075 4659 
Q 2584 4659 2973 4495 
Q 3363 4331 3572 4012 
Q 3781 3694 3797 3291 
L 3216 3247 
Q 3169 3681 2898 3903 
Q 2628 4125 2100 4125 
Q 1550 4125 1298 3923 
Q 1047 3722 1047 3438 
Q 1047 3191 1225 3031 
Q 1400 2872 2139 2705 
Q 2878 2538 3153 2413 
Q 3553 2228 3743 1945 
Q 3934 1663 3934 1294 
Q 3934 928 3725 604 
Q 3516 281 3123 101 
Q 2731 -78 2241 -78 
Q 1619 -78 1198 103 
Q 778 284 539 648 
Q 300 1013 288 1472 
z
" transform="scale(0.015625)"/>
       <path id="ArialMT-6f" d="M 213 1659 
Q 213 2581 725 3025 
Q 1153 3394 1769 3394 
Q 2453 3394 2887 2945 
Q 3322 2497 3322 1706 
Q 3322 1066 3130 698 
Q 2938 331 2570 128 
Q 2203 -75 1769 -75 
Q 1072 -75 642 372 
Q 213 819 213 1659 
z
M 791 1659 
Q 791 1022 1069 705 
Q 1347 388 1769 388 
Q 2188 388 2466 706 
Q 2744 1025 2744 1678 
Q 2744 2294 2464 2611 
Q 2184 2928 1769 2928 
Q 1347 2928 1069 2612 
Q 791 2297 791 1659 
z
" transform="scale(0.015625)"/>
       <path id="ArialMT-6c" d="M 409 0 
L 409 4581 
L 972 4581 
L 972 0 
L 409 0 
z
" transform="scale(0.015625)"/>
       <path id="ArialMT-72" d="M 416 0 
L 416 3319 
L 922 3319 
L 922 2816 
Q 1116 3169 1280 3281 
Q 1444 3394 1641 3394 
Q 1925 3394 2219 3213 
L 2025 2691 
Q 1819 2813 1613 2813 
Q 1428 2813 1281 2702 
Q 1134 2591 1072 2394 
Q 978 2094 978 1738 
L 978 0 
L 416 0 
z
" transform="scale(0.015625)"/>
       <path id="ArialMT-52" d="M 503 0 
L 503 4581 
L 2534 4581 
Q 3147 4581 3465 4457 
Q 3784 4334 3975 4021 
Q 4166 3709 4166 3331 
Q 4166 2844 3850 2509 
Q 3534 2175 2875 2084 
Q 3116 1969 3241 1856 
Q 3506 1613 3744 1247 
L 4541 0 
L 3778 0 
L 3172 953 
Q 2906 1366 2734 1584 
Q 2563 1803 2427 1890 
Q 2291 1978 2150 2013 
Q 2047 2034 1813 2034 
L 1109 2034 
L 1109 0 
L 503 0 
z
M 1109 2559 
L 2413 2559 
Q 2828 2559 3062 2645 
Q 3297 2731 3419 2920 
Q 3541 3109 3541 3331 
Q 3541 3656 3305 3865 
Q 3069 4075 2559 4075 
L 1109 4075 
L 1109 2559 
z
" transform="scale(0.015625)"/>
       <path id="ArialMT-64" d="M 2575 0 
L 2575 419 
Q 2259 -75 1647 -75 
Q 1250 -75 917 144 
Q 584 363 401 755 
Q 219 1147 219 1656 
Q 219 2153 384 2558 
Q 550 2963 881 3178 
Q 1213 3394 1622 3394 
Q 1922 3394 2156 3267 
Q 2391 3141 2538 2938 
L 2538 4581 
L 3097 4581 
L 3097 0 
L 2575 0 
z
M 797 1656 
Q 797 1019 1065 703 
Q 1334 388 1700 388 
Q 2069 388 2326 689 
Q 2584 991 2584 1609 
Q 2584 2291 2321 2609 
Q 2059 2928 1675 2928 
Q 1300 2928 1048 2622 
Q 797 2316 797 1656 
z
" transform="scale(0.015625)"/>
       <path id="ArialMT-74" d="M 1650 503 
L 1731 6 
Q 1494 -44 1306 -44 
Q 1000 -44 831 53 
Q 663 150 594 308 
Q 525 466 525 972 
L 525 2881 
L 113 2881 
L 113 3319 
L 525 3319 
L 525 4141 
L 1084 4478 
L 1084 3319 
L 1650 3319 
L 1650 2881 
L 1084 2881 
L 1084 941 
Q 1084 700 1114 631 
Q 1144 563 1211 522 
Q 1278 481 1403 481 
Q 1497 481 1650 503 
z
" transform="scale(0.015625)"/>
       <path id="ArialMT-6e" d="M 422 0 
L 422 3319 
L 928 3319 
L 928 2847 
Q 1294 3394 1984 3394 
Q 2284 3394 2536 3286 
Q 2788 3178 2913 3003 
Q 3038 2828 3088 2588 
Q 3119 2431 3119 2041 
L 3119 0 
L 2556 0 
L 2556 2019 
Q 2556 2363 2490 2533 
Q 2425 2703 2258 2804 
Q 2091 2906 1866 2906 
Q 1506 2906 1245 2678 
Q 984 2450 984 1813 
L 984 0 
L 422 0 
z
" transform="scale(0.015625)"/>
       <path id="ArialMT-50" d="M 494 0 
L 494 4581 
L 2222 4581 
Q 2678 4581 2919 4538 
Q 3256 4481 3484 4323 
Q 3713 4166 3852 3881 
Q 3991 3597 3991 3256 
Q 3991 2672 3619 2267 
Q 3247 1863 2275 1863 
L 1100 1863 
L 1100 0 
L 494 0 
z
M 1100 2403 
L 2284 2403 
Q 2872 2403 3119 2622 
Q 3366 2841 3366 3238 
Q 3366 3525 3220 3729 
Q 3075 3934 2838 4000 
Q 2684 4041 2272 4041 
L 1100 4041 
L 1100 2403 
z
" transform="scale(0.015625)"/>
       <path id="ArialMT-65" d="M 2694 1069 
L 3275 997 
Q 3138 488 2766 206 
Q 2394 -75 1816 -75 
Q 1088 -75 661 373 
Q 234 822 234 1631 
Q 234 2469 665 2931 
Q 1097 3394 1784 3394 
Q 2450 3394 2872 2941 
Q 3294 2488 3294 1666 
Q 3294 1616 3291 1516 
L 816 1516 
Q 847 969 1125 678 
Q 1403 388 1819 388 
Q 2128 388 2347 550 
Q 2566 713 2694 1069 
z
M 847 1978 
L 2700 1978 
Q 2663 2397 2488 2606 
Q 2219 2931 1791 2931 
Q 1403 2931 1139 2672 
Q 875 2413 847 1978 
z
" transform="scale(0.015625)"/>
       <path id="ArialMT-63" d="M 2588 1216 
L 3141 1144 
Q 3050 572 2676 248 
Q 2303 -75 1759 -75 
Q 1078 -75 664 370 
Q 250 816 250 1647 
Q 250 2184 428 2587 
Q 606 2991 970 3192 
Q 1334 3394 1763 3394 
Q 2303 3394 2647 3120 
Q 2991 2847 3088 2344 
L 2541 2259 
Q 2463 2594 2264 2762 
Q 2066 2931 1784 2931 
Q 1359 2931 1093 2626 
Q 828 2322 828 1663 
Q 828 994 1084 691 
Q 1341 388 1753 388 
Q 2084 388 2306 591 
Q 2528 794 2588 1216 
z
" transform="scale(0.015625)"/>
       <path id="ArialMT-76" d="M 1344 0 
L 81 3319 
L 675 3319 
L 1388 1331 
Q 1503 1009 1600 663 
Q 1675 925 1809 1294 
L 2547 3319 
L 3125 3319 
L 1869 0 
L 1344 0 
z
" transform="scale(0.015625)"/>
       <path id="ArialMT-45" d="M 506 0 
L 506 4581 
L 3819 4581 
L 3819 4041 
L 1113 4041 
L 1113 2638 
L 3647 2638 
L 3647 2100 
L 1113 2100 
L 1113 541 
L 3925 541 
L 3925 0 
L 506 0 
z
" transform="scale(0.015625)"/>
       <path id="ArialMT-28" d="M 1497 -1347 
Q 1031 -759 709 28 
Q 388 816 388 1659 
Q 388 2403 628 3084 
Q 909 3875 1497 4659 
L 1900 4659 
Q 1522 4009 1400 3731 
Q 1209 3300 1100 2831 
Q 966 2247 966 1656 
Q 966 153 1900 -1347 
L 1497 -1347 
z
" transform="scale(0.015625)"/>
       <path id="ArialMT-57" d="M 1294 0 
L 78 4581 
L 700 4581 
L 1397 1578 
Q 1509 1106 1591 641 
Q 1766 1375 1797 1488 
L 2669 4581 
L 3400 4581 
L 4056 2263 
Q 4303 1400 4413 641 
Q 4500 1075 4641 1638 
L 5359 4581 
L 5969 4581 
L 4713 0 
L 4128 0 
L 3163 3491 
Q 3041 3928 3019 4028 
Q 2947 3713 2884 3491 
L 1913 0 
L 1294 0 
z
" transform="scale(0.015625)"/>
       <path id="ArialMT-2f" d="M 0 -78 
L 1328 4659 
L 1778 4659 
L 453 -78 
L 0 -78 
z
" transform="scale(0.015625)"/>
       <path id="ArialMT-5e" d="M 747 2156 
L 169 2156 
L 1272 4659 
L 1725 4659 
L 2834 2156 
L 2269 2156 
L 1497 4022 
L 747 2156 
z
" transform="scale(0.015625)"/>
       <path id="ArialMT-29" d="M 791 -1347 
L 388 -1347 
Q 1322 153 1322 1656 
Q 1322 2244 1188 2822 
Q 1081 3291 891 3722 
Q 769 4003 388 4659 
L 791 4659 
Q 1378 3875 1659 3084 
Q 1900 2403 1900 1659 
Q 1900 816 1576 28 
Q 1253 -759 791 -1347 
z
" transform="scale(0.015625)"/>
      </defs>
      <use xlink:href="#ArialMT-4d"/>
      <use xlink:href="#ArialMT-61" x="83.300781"/>
      <use xlink:href="#ArialMT-78" x="138.916016"/>
      <use xlink:href="#ArialMT-69" x="188.916016"/>
      <use xlink:href="#ArialMT-6d" x="211.132812"/>
      <use xlink:href="#ArialMT-75" x="294.433594"/>
      <use xlink:href="#ArialMT-6d" x="350.048828"/>
      <use xlink:href="#ArialMT-20" x="433.349609"/>
      <use xlink:href="#ArialMT-53" x="461.132812"/>
      <use xlink:href="#ArialMT-6f" x="527.832031"/>
      <use xlink:href="#ArialMT-6c" x="583.447266"/>
      <use xlink:href="#ArialMT-61" x="605.664062"/>
      <use xlink:href="#ArialMT-72" x="661.279297"/>
      <use xlink:href="#ArialMT-20" x="694.580078"/>
      <use xlink:href="#ArialMT-52" x="722.363281"/>
      <use xlink:href="#ArialMT-61" x="794.580078"/>
      <use xlink:href="#ArialMT-64" x="850.195312"/>
      <use xlink:href="#ArialMT-69" x="905.810547"/>
      <use xlink:href="#ArialMT-61" x="928.027344"/>
      <use xlink:href="#ArialMT-74" x="983.642578"/>
      <use xlink:href="#ArialMT-69" x="1011.425781"/>
      <use xlink:href="#ArialMT-6f" x="1033.642578"/>
      <use xlink:href="#ArialMT-6e" x="1089.257812"/>
      <use xlink:href="#ArialMT-20" x="1144.873047"/>
      <use xlink:href="#ArialMT-50" x="1172.65625"/>
      <use xlink:href="#ArialMT-72" x="1239.355469"/>
      <use xlink:href="#ArialMT-65" x="1272.65625"/>
      <use xlink:href="#ArialMT-64" x="1328.271484"/>
      <use xlink:href="#ArialMT-69" x="1383.886719"/>
      <use xlink:href="#ArialMT-63" x="1406.103516"/>
      <use xlink:href="#ArialMT-74" x="1456.103516"/>
      <use xlink:href="#ArialMT-69" x="1483.886719"/>
      <use xlink:href="#ArialMT-76" x="1506.103516"/>
      <use xlink:href="#ArialMT-65" x="1556.103516"/>
      <use xlink:href="#ArialMT-20" x="1611.71875"/>
      <use xlink:href="#ArialMT-45" x="1639.501953"/>
      <use xlink:href="#ArialMT-72" x="1706.201172"/>
      <use xlink:href="#ArialMT-72" x="1739.501953"/>
      <use xlink:href="#ArialMT-6f" x="1772.802734"/>
      <use xlink:href="#ArialMT-72" x="1828.417969"/>
      <use xlink:href="#ArialMT-20" x="1861.71875"/>
      <use xlink:href="#ArialMT-28" x="1889.501953"/>
      <use xlink:href="#ArialMT-57" x="1922.802734"/>
      <use xlink:href="#ArialMT-2f" x="2017.1875"/>
      <use xlink:href="#ArialMT-6d" x="2044.970703"/>
      <use xlink:href="#ArialMT-5e" x="2128.271484"/>
      <use xlink:href="#ArialMT-32" x="2175.195312"/>
      <use xlink:href="#ArialMT-29" x="2230.810547"/>
     </g>
    </g>
   </g>
   <g id="matplotlib.axis_2">
    <g id="ytick_1">
     <g id="line2d_9">
      <path d="M 61.4225 392.6275 
L 565.2 392.6275 
" clip-path="url(#pb1aeb3b046)" style="fill: none; stroke: #ffffff; stroke-width: 0.8; stroke-linecap: round"/>
     </g>
     <g id="text_10">
      <!-- 0.0000 -->
      <g style="fill: #262626" transform="translate(23.839688 396.206406) scale(0.1 -0.1)">
       <defs>
        <path id="ArialMT-2e" d="M 581 0 
L 581 641 
L 1222 641 
L 1222 0 
L 581 0 
z
" transform="scale(0.015625)"/>
       </defs>
       <use xlink:href="#ArialMT-30"/>
       <use xlink:href="#ArialMT-2e" x="55.615234"/>
       <use xlink:href="#ArialMT-30" x="83.398438"/>
       <use xlink:href="#ArialMT-30" x="139.013672"/>
       <use xlink:href="#ArialMT-30" x="194.628906"/>
       <use xlink:href="#ArialMT-30" x="250.244141"/>
      </g>
     </g>
    </g>
    <g id="ytick_2">
     <g id="line2d_10">
      <path d="M 61.4225 344.03645 
L 565.2 344.03645 
" clip-path="url(#pb1aeb3b046)" style="fill: none; stroke: #ffffff; stroke-width: 0.8; stroke-linecap: round"/>
     </g>
     <g id="text_11">
      <!-- 0.0005 -->
      <g style="fill: #262626" transform="translate(23.839688 347.615356) scale(0.1 -0.1)">
       <defs>
        <path id="ArialMT-35" d="M 266 1200 
L 856 1250 
Q 922 819 1161 601 
Q 1400 384 1738 384 
Q 2144 384 2425 690 
Q 2706 997 2706 1503 
Q 2706 1984 2436 2262 
Q 2166 2541 1728 2541 
Q 1456 2541 1237 2417 
Q 1019 2294 894 2097 
L 366 2166 
L 809 4519 
L 3088 4519 
L 3088 3981 
L 1259 3981 
L 1013 2750 
Q 1425 3038 1878 3038 
Q 2478 3038 2890 2622 
Q 3303 2206 3303 1553 
Q 3303 931 2941 478 
Q 2500 -78 1738 -78 
Q 1113 -78 717 272 
Q 322 622 266 1200 
z
" transform="scale(0.015625)"/>
       </defs>
       <use xlink:href="#ArialMT-30"/>
       <use xlink:href="#ArialMT-2e" x="55.615234"/>
       <use xlink:href="#ArialMT-30" x="83.398438"/>
       <use xlink:href="#ArialMT-30" x="139.013672"/>
       <use xlink:href="#ArialMT-30" x="194.628906"/>
       <use xlink:href="#ArialMT-35" x="250.244141"/>
      </g>
     </g>
    </g>
    <g id="ytick_3">
     <g id="line2d_11">
      <path d="M 61.4225 295.445399 
L 565.2 295.445399 
" clip-path="url(#pb1aeb3b046)" style="fill: none; stroke: #ffffff; stroke-width: 0.8; stroke-linecap: round"/>
     </g>
     <g id="text_12">
      <!-- 0.0010 -->
      <g style="fill: #262626" transform="translate(23.839688 299.024305) scale(0.1 -0.1)">
       <use xlink:href="#ArialMT-30"/>
       <use xlink:href="#ArialMT-2e" x="55.615234"/>
       <use xlink:href="#ArialMT-30" x="83.398438"/>
       <use xlink:href="#ArialMT-30" x="139.013672"/>
       <use xlink:href="#ArialMT-31" x="194.628906"/>
       <use xlink:href="#ArialMT-30" x="250.244141"/>
      </g>
     </g>
    </g>
    <g id="ytick_4">
     <g id="line2d_12">
      <path d="M 61.4225 246.854349 
L 565.2 246.854349 
" clip-path="url(#pb1aeb3b046)" style="fill: none; stroke: #ffffff; stroke-width: 0.8; stroke-linecap: round"/>
     </g>
     <g id="text_13">
      <!-- 0.0015 -->
      <g style="fill: #262626" transform="translate(23.839688 250.433255) scale(0.1 -0.1)">
       <use xlink:href="#ArialMT-30"/>
       <use xlink:href="#ArialMT-2e" x="55.615234"/>
       <use xlink:href="#ArialMT-30" x="83.398438"/>
       <use xlink:href="#ArialMT-30" x="139.013672"/>
       <use xlink:href="#ArialMT-31" x="194.628906"/>
       <use xlink:href="#ArialMT-35" x="250.244141"/>
      </g>
     </g>
    </g>
    <g id="ytick_5">
     <g id="line2d_13">
      <path d="M 61.4225 198.263298 
L 565.2 198.263298 
" clip-path="url(#pb1aeb3b046)" style="fill: none; stroke: #ffffff; stroke-width: 0.8; stroke-linecap: round"/>
     </g>
     <g id="text_14">
      <!-- 0.0020 -->
      <g style="fill: #262626" transform="translate(23.839688 201.842205) scale(0.1 -0.1)">
       <use xlink:href="#ArialMT-30"/>
       <use xlink:href="#ArialMT-2e" x="55.615234"/>
       <use xlink:href="#ArialMT-30" x="83.398438"/>
       <use xlink:href="#ArialMT-30" x="139.013672"/>
       <use xlink:href="#ArialMT-32" x="194.628906"/>
       <use xlink:href="#ArialMT-30" x="250.244141"/>
      </g>
     </g>
    </g>
    <g id="ytick_6">
     <g id="line2d_14">
      <path d="M 61.4225 149.672248 
L 565.2 149.672248 
" clip-path="url(#pb1aeb3b046)" style="fill: none; stroke: #ffffff; stroke-width: 0.8; stroke-linecap: round"/>
     </g>
     <g id="text_15">
      <!-- 0.0025 -->
      <g style="fill: #262626" transform="translate(23.839688 153.251154) scale(0.1 -0.1)">
       <use xlink:href="#ArialMT-30"/>
       <use xlink:href="#ArialMT-2e" x="55.615234"/>
       <use xlink:href="#ArialMT-30" x="83.398438"/>
       <use xlink:href="#ArialMT-30" x="139.013672"/>
       <use xlink:href="#ArialMT-32" x="194.628906"/>
       <use xlink:href="#ArialMT-35" x="250.244141"/>
      </g>
     </g>
    </g>
    <g id="ytick_7">
     <g id="line2d_15">
      <path d="M 61.4225 101.081198 
L 565.2 101.081198 
" clip-path="url(#pb1aeb3b046)" style="fill: none; stroke: #ffffff; stroke-width: 0.8; stroke-linecap: round"/>
     </g>
     <g id="text_16">
      <!-- 0.0030 -->
      <g style="fill: #262626" transform="translate(23.839688 104.660104) scale(0.1 -0.1)">
       <defs>
        <path id="ArialMT-33" d="M 269 1209 
L 831 1284 
Q 928 806 1161 595 
Q 1394 384 1728 384 
Q 2125 384 2398 659 
Q 2672 934 2672 1341 
Q 2672 1728 2419 1979 
Q 2166 2231 1775 2231 
Q 1616 2231 1378 2169 
L 1441 2663 
Q 1497 2656 1531 2656 
Q 1891 2656 2178 2843 
Q 2466 3031 2466 3422 
Q 2466 3731 2256 3934 
Q 2047 4138 1716 4138 
Q 1388 4138 1169 3931 
Q 950 3725 888 3313 
L 325 3413 
Q 428 3978 793 4289 
Q 1159 4600 1703 4600 
Q 2078 4600 2393 4439 
Q 2709 4278 2876 4000 
Q 3044 3722 3044 3409 
Q 3044 3113 2884 2869 
Q 2725 2625 2413 2481 
Q 2819 2388 3044 2092 
Q 3269 1797 3269 1353 
Q 3269 753 2831 336 
Q 2394 -81 1725 -81 
Q 1122 -81 723 278 
Q 325 638 269 1209 
z
" transform="scale(0.015625)"/>
       </defs>
       <use xlink:href="#ArialMT-30"/>
       <use xlink:href="#ArialMT-2e" x="55.615234"/>
       <use xlink:href="#ArialMT-30" x="83.398438"/>
       <use xlink:href="#ArialMT-30" x="139.013672"/>
       <use xlink:href="#ArialMT-33" x="194.628906"/>
       <use xlink:href="#ArialMT-30" x="250.244141"/>
      </g>
     </g>
    </g>
    <g id="ytick_8">
     <g id="line2d_16">
      <path d="M 61.4225 52.490147 
L 565.2 52.490147 
" clip-path="url(#pb1aeb3b046)" style="fill: none; stroke: #ffffff; stroke-width: 0.8; stroke-linecap: round"/>
     </g>
     <g id="text_17">
      <!-- 0.0035 -->
      <g style="fill: #262626" transform="translate(23.839688 56.069054) scale(0.1 -0.1)">
       <use xlink:href="#ArialMT-30"/>
       <use xlink:href="#ArialMT-2e" x="55.615234"/>
       <use xlink:href="#ArialMT-30" x="83.398438"/>
       <use xlink:href="#ArialMT-30" x="139.013672"/>
       <use xlink:href="#ArialMT-33" x="194.628906"/>
       <use xlink:href="#ArialMT-35" x="250.244141"/>
      </g>
     </g>
    </g>
    <g id="text_18">
     <!-- Density -->
     <g style="fill: #262626" transform="translate(17.735 218.385625) rotate(-90) scale(0.1 -0.1)">
      <defs>
       <path id="ArialMT-44" d="M 494 0 
L 494 4581 
L 2072 4581 
Q 2606 4581 2888 4516 
Q 3281 4425 3559 4188 
Q 3922 3881 4101 3404 
Q 4281 2928 4281 2316 
Q 4281 1794 4159 1391 
Q 4038 988 3847 723 
Q 3656 459 3429 307 
Q 3203 156 2883 78 
Q 2563 0 2147 0 
L 494 0 
z
M 1100 541 
L 2078 541 
Q 2531 541 2789 625 
Q 3047 709 3200 863 
Q 3416 1078 3536 1442 
Q 3656 1806 3656 2325 
Q 3656 3044 3420 3430 
Q 3184 3816 2847 3947 
Q 2603 4041 2063 4041 
L 1100 4041 
L 1100 541 
z
" transform="scale(0.015625)"/>
       <path id="ArialMT-73" d="M 197 991 
L 753 1078 
Q 800 744 1014 566 
Q 1228 388 1613 388 
Q 2000 388 2187 545 
Q 2375 703 2375 916 
Q 2375 1106 2209 1216 
Q 2094 1291 1634 1406 
Q 1016 1563 777 1677 
Q 538 1791 414 1992 
Q 291 2194 291 2438 
Q 291 2659 392 2848 
Q 494 3038 669 3163 
Q 800 3259 1026 3326 
Q 1253 3394 1513 3394 
Q 1903 3394 2198 3281 
Q 2494 3169 2634 2976 
Q 2775 2784 2828 2463 
L 2278 2388 
Q 2241 2644 2061 2787 
Q 1881 2931 1553 2931 
Q 1166 2931 1000 2803 
Q 834 2675 834 2503 
Q 834 2394 903 2306 
Q 972 2216 1119 2156 
Q 1203 2125 1616 2013 
Q 2213 1853 2448 1751 
Q 2684 1650 2818 1456 
Q 2953 1263 2953 975 
Q 2953 694 2789 445 
Q 2625 197 2315 61 
Q 2006 -75 1616 -75 
Q 969 -75 630 194 
Q 291 463 197 991 
z
" transform="scale(0.015625)"/>
       <path id="ArialMT-79" d="M 397 -1278 
L 334 -750 
Q 519 -800 656 -800 
Q 844 -800 956 -737 
Q 1069 -675 1141 -563 
Q 1194 -478 1313 -144 
Q 1328 -97 1363 -6 
L 103 3319 
L 709 3319 
L 1400 1397 
Q 1534 1031 1641 628 
Q 1738 1016 1872 1384 
L 2581 3319 
L 3144 3319 
L 1881 -56 
Q 1678 -603 1566 -809 
Q 1416 -1088 1222 -1217 
Q 1028 -1347 759 -1347 
Q 597 -1347 397 -1278 
z
" transform="scale(0.015625)"/>
      </defs>
      <use xlink:href="#ArialMT-44"/>
      <use xlink:href="#ArialMT-65" x="72.216797"/>
      <use xlink:href="#ArialMT-6e" x="127.832031"/>
      <use xlink:href="#ArialMT-73" x="183.447266"/>
      <use xlink:href="#ArialMT-69" x="233.447266"/>
      <use xlink:href="#ArialMT-74" x="255.664062"/>
      <use xlink:href="#ArialMT-79" x="283.447266"/>
     </g>
    </g>
   </g>
   <g id="line2d_17">
    <path d="M 84.321477 392.61499 
L 98.09907 392.478997 
L 104.987867 392.228332 
L 109.580398 391.918275 
L 114.172929 391.443309 
L 118.76546 390.758416 
L 123.357991 389.818319 
L 127.950522 388.571496 
L 132.543054 386.945124 
L 134.839319 385.955612 
L 137.135585 384.822876 
L 139.43185 383.521811 
L 141.728116 382.022133 
L 144.024381 380.288259 
L 146.320647 378.279476 
L 148.616912 375.950421 
L 150.913178 373.251859 
L 153.209443 370.131744 
L 155.505709 366.536524 
L 157.801974 362.412663 
L 160.09824 357.708328 
L 162.394505 352.375198 
L 164.690771 346.370322 
L 166.987037 339.657949 
L 169.283302 332.211221 
L 171.579568 324.013622 
L 173.875833 315.060045 
L 176.172099 305.357366 
L 178.468364 294.924443 
L 180.76463 283.791497 
L 183.060895 271.998914 
L 187.653426 246.637244 
L 192.245957 219.302038 
L 196.838489 190.527963 
L 208.319816 117.048494 
L 210.616082 103.205563 
L 212.912347 90.137114 
L 215.208613 78.123009 
L 217.504878 67.468633 
L 219.801144 58.491479 
L 222.097409 51.503359 
L 224.393675 46.789672 
L 226.68994 44.587743 
L 228.986206 45.066598 
L 231.282472 48.310518 
L 233.578737 54.308383 
L 235.875003 62.950188 
L 238.171268 74.031251 
L 240.467534 87.263777 
L 242.763799 102.294524 
L 245.060065 118.726728 
L 249.652596 154.133691 
L 256.541392 207.876767 
L 258.837658 224.74159 
L 261.133924 240.73754 
L 263.430189 255.741676 
L 265.726455 269.678101 
L 268.02272 282.509027 
L 270.318986 294.225624 
L 272.615251 304.839782 
L 274.911517 314.377613 
L 277.207782 322.875034 
L 279.504048 330.375393 
L 281.800313 336.928729 
L 284.096579 342.592073 
L 286.392844 347.430069 
L 288.68911 351.515279 
L 290.985376 354.927674 
L 293.281641 357.75305 
L 295.577907 360.080336 
L 297.874172 361.998033 
L 300.170438 363.59017 
L 302.466703 364.932287 
L 304.762969 366.087982 
L 309.3555 368.021296 
L 313.948031 369.599828 
L 318.540562 370.822643 
L 320.836827 371.264252 
L 323.133093 371.567623 
L 325.429359 371.715787 
L 327.725624 371.695806 
L 330.02189 371.499988 
L 332.318155 371.126366 
L 334.614421 370.578615 
L 336.910686 369.865633 
L 339.206952 369.000988 
L 343.799483 366.891108 
L 348.392014 364.431712 
L 357.577076 359.391151 
L 362.169607 357.290002 
L 364.465873 356.430807 
L 366.762138 355.718997 
L 369.058404 355.16135 
L 371.354669 354.758179 
L 373.650935 354.504042 
L 375.9472 354.389024 
L 378.243466 354.40045 
L 382.835997 354.749922 
L 387.428528 355.468397 
L 392.021059 356.531793 
L 396.61359 357.980731 
L 398.909856 358.871655 
L 401.206121 359.883665 
L 405.798652 362.279656 
L 410.391183 365.133713 
L 414.983714 368.327897 
L 426.465042 376.616668 
L 431.057573 379.579234 
L 435.650104 382.124795 
L 437.94637 383.212193 
L 440.242635 384.167326 
L 442.538901 384.988722 
L 444.835166 385.679268 
L 449.427697 386.700468 
L 454.020229 387.330074 
L 458.61276 387.69817 
L 467.797822 388.112812 
L 479.279149 388.654637 
L 488.464212 389.336096 
L 497.649274 390.291662 
L 509.130601 391.526687 
L 516.019398 392.057061 
L 522.908195 392.377497 
L 532.093257 392.564076 
L 541.278319 392.615823 
L 541.278319 392.615823 
" clip-path="url(#pb1aeb3b046)" style="fill: none; stroke: #1f77b4; stroke-width: 1.5; stroke-linecap: round"/>
   </g>
   <g id="line2d_18">
    <path d="M 86.589701 392.612682 
L 100.318613 392.449721 
L 107.183069 392.147394 
L 111.759373 391.773062 
L 116.335678 391.200777 
L 120.911982 390.379294 
L 125.488286 389.25899 
L 130.06459 387.783678 
L 132.352742 386.888922 
L 134.640894 385.871099 
L 136.929046 384.711476 
L 139.217198 383.386476 
L 141.50535 381.867229 
L 143.793502 380.119467 
L 146.081654 378.103771 
L 148.369806 375.776201 
L 150.657958 373.089256 
L 152.94611 369.99311 
L 155.234262 366.437037 
L 157.522414 362.370934 
L 159.810566 357.746876 
L 162.098718 352.520631 
L 164.38687 346.653098 
L 166.675022 340.11164 
L 168.963174 332.871297 
L 171.251326 324.915853 
L 173.539478 316.238726 
L 175.82763 306.843618 
L 178.115782 296.744847 
L 180.403935 285.967289 
L 182.692087 274.545859 
L 187.268391 249.955109 
L 191.844695 223.409025 
L 196.420999 195.429963 
L 207.861759 123.725558 
L 210.149911 110.104203 
L 212.438063 97.167712 
L 214.726215 85.174177 
L 217.014367 74.409283 
L 219.302519 65.174945 
L 221.590671 57.7733 
L 223.878823 52.487265 
L 226.166975 49.559536 
L 228.455127 49.172328 
L 230.743279 51.430227 
L 233.031431 56.3483 
L 235.319583 63.846994 
L 237.607735 73.754536 
L 239.895887 85.816653 
L 242.184039 99.712514 
L 244.472191 115.075132 
L 249.048496 148.637608 
L 255.912952 200.585019 
L 260.489256 232.95205 
L 262.777408 247.906713 
L 265.06556 261.911754 
L 267.353712 274.917227 
L 269.641864 286.901545 
L 271.930016 297.86383 
L 274.218168 307.817691 
L 276.50632 316.786795 
L 278.794472 324.802239 
L 281.082624 331.901441 
L 283.370776 338.128085 
L 285.658928 343.532562 
L 287.94708 348.172382 
L 290.235232 352.112133 
L 292.523384 355.422712 
L 294.811536 358.17973 
L 297.099688 360.461161 
L 299.38784 362.344429 
L 301.675992 363.903236 
L 303.964144 365.204465 
L 306.252296 366.305517 
L 308.540448 367.252358 
L 313.116753 368.805048 
L 317.693057 369.988412 
L 322.269361 370.780402 
L 324.557513 371.001599 
L 326.845665 371.090084 
L 329.133817 371.036676 
L 331.421969 370.836158 
L 333.710121 370.487837 
L 335.998273 369.995551 
L 338.286425 369.367289 
L 342.862729 367.751899 
L 347.439033 365.765791 
L 361.167945 359.237249 
L 365.744249 357.465424 
L 368.032401 356.740074 
L 370.320553 356.135777 
L 372.608705 355.657298 
L 374.896857 355.305013 
L 377.18501 355.075634 
L 381.761314 354.961146 
L 386.337618 355.262057 
L 390.913922 355.949484 
L 395.490226 357.037731 
L 397.778378 357.746022 
L 400.06653 358.572048 
L 402.354682 359.520198 
L 406.930986 361.784875 
L 411.50729 364.504124 
L 416.083594 367.578279 
L 429.812506 377.336897 
L 434.38881 380.188937 
L 438.965114 382.596591 
L 441.253266 383.608328 
L 443.541419 384.487564 
L 445.829571 385.237137 
L 450.405875 386.381073 
L 454.982179 387.139968 
L 459.558483 387.637791 
L 466.422939 388.127324 
L 489.304459 389.478738 
L 498.457067 390.366065 
L 512.18598 391.745286 
L 519.050436 392.192705 
L 528.203044 392.497513 
L 539.643804 392.608977 
L 541.931956 392.615683 
L 541.931956 392.615683 
" clip-path="url(#pb1aeb3b046)" style="fill: none; stroke: #ff7f0e; stroke-width: 1.5; stroke-linecap: round"/>
   </g>
   <g id="line2d_19">
    <path d="M 87.288959 392.609511 
L 98.712714 392.480762 
L 105.566966 392.216859 
L 110.136468 391.883274 
L 114.70597 391.368519 
L 119.275472 390.628774 
L 123.844973 389.626931 
L 128.414475 388.324315 
L 132.983977 386.657499 
L 135.268728 385.652776 
L 137.553479 384.505222 
L 139.83823 383.185871 
L 142.12298 381.65962 
L 144.407731 379.885704 
L 146.692482 377.818685 
L 148.977233 375.40986 
L 151.261984 372.608957 
L 153.546735 369.365928 
L 155.831486 365.632691 
L 158.116237 361.364653 
L 160.400988 356.521948 
L 162.685738 351.070338 
L 164.970489 344.981839 
L 167.25524 338.235111 
L 169.539991 330.815734 
L 171.824742 322.716412 
L 174.109493 313.937159 
L 176.394244 304.48545 
L 178.678995 294.376286 
L 180.963746 283.632116 
L 183.248496 272.28256 
L 187.817998 247.918846 
L 192.3875 221.648169 
L 196.957002 193.932287 
L 208.380756 122.955138 
L 210.665507 109.589669 
L 212.950258 96.981645 
L 215.235009 85.398269 
L 217.51976 75.127071 
L 219.804511 66.463122 
L 222.089262 59.692553 
L 224.374012 55.073715 
L 226.658763 52.817795 
L 228.943514 53.071017 
L 231.228265 55.900543 
L 233.513016 61.285844 
L 235.797767 69.116749 
L 238.082518 79.198545 
L 240.367269 91.263678 
L 242.65202 104.988789 
L 244.93677 120.015217 
L 249.506272 152.49059 
L 256.360525 202.24211 
L 260.930027 233.170828 
L 263.214778 247.499865 
L 265.499528 260.965868 
L 267.784279 273.528548 
L 270.06903 285.169737 
L 272.353781 295.886773 
L 274.638532 305.687545 
L 276.923283 314.587339 
L 279.208034 322.607322 
L 281.492785 329.774275 
L 283.777536 336.121054 
L 286.062286 341.687265 
L 288.347037 346.519704 
L 290.631788 350.672252 
L 292.916539 354.205053 
L 295.20129 357.182989 
L 297.486041 359.673537 
L 299.770792 361.744247 
L 302.055543 363.460079 
L 304.340294 364.880896 
L 306.625044 366.059348 
L 308.909795 367.03938 
L 311.194546 367.855477 
L 313.479297 368.532713 
L 318.048799 369.529217 
L 322.618301 370.08517 
L 327.187802 370.201798 
L 331.757304 369.87809 
L 336.326806 369.138198 
L 340.896308 368.030976 
L 345.46581 366.616472 
L 350.035311 364.958189 
L 356.889564 362.180182 
L 363.743817 359.375862 
L 368.313318 357.718926 
L 372.88282 356.389753 
L 375.167571 355.880975 
L 377.452322 355.488021 
L 379.737073 355.216378 
L 382.021824 355.069252 
L 384.306575 355.048208 
L 386.591326 355.15385 
L 388.876076 355.386374 
L 391.160827 355.74591 
L 393.445578 356.232568 
L 395.730329 356.846199 
L 398.01508 357.585944 
L 400.299831 358.449668 
L 404.869333 360.531084 
L 409.438834 363.031876 
L 414.008336 365.859111 
L 420.862589 370.454041 
L 427.716842 375.088776 
L 432.286343 377.982723 
L 436.855845 380.574541 
L 441.425347 382.766436 
L 445.994849 384.509632 
L 450.56435 385.817587 
L 455.133852 386.757782 
L 459.703354 387.424347 
L 466.557607 388.100729 
L 475.69661 388.694461 
L 489.405115 389.550112 
L 498.544119 390.411801 
L 512.252624 391.761028 
L 519.106877 392.199698 
L 528.245881 392.499076 
L 541.954386 392.615693 
L 541.954386 392.615693 
" clip-path="url(#pb1aeb3b046)" style="fill: none; stroke: #2ca02c; stroke-width: 1.5; stroke-linecap: round"/>
   </g>
   <g id="line2d_20">
    <path d="M 90.129441 392.602624 
L 101.490536 392.432859 
L 108.307193 392.096729 
L 112.851631 391.681835 
L 117.396069 391.053656 
L 121.940507 390.165825 
L 126.484945 388.978372 
L 131.029383 387.44464 
L 133.301602 386.524793 
L 135.573821 385.483193 
L 137.84604 384.298557 
L 140.118259 382.943606 
L 142.390478 381.384893 
L 144.662697 379.583169 
L 146.934916 377.494296 
L 149.207135 375.07064 
L 151.479354 372.262823 
L 153.751573 369.021651 
L 156.023792 365.300047 
L 158.296011 361.054796 
L 160.56823 356.247981 
L 162.840449 350.848033 
L 165.112668 344.830351 
L 167.384887 338.177538 
L 169.657106 330.879294 
L 171.929325 322.932056 
L 174.201544 314.338453 
L 176.473763 305.106646 
L 178.745982 295.249638 
L 181.018201 284.784626 
L 183.29042 273.732495 
L 187.834858 249.968012 
L 192.379296 224.201501 
L 196.923734 196.785854 
L 210.557048 112.111315 
L 212.829267 99.400751 
L 215.101486 87.739935 
L 217.373705 77.42095 
L 219.645924 68.735796 
L 221.918143 61.960045 
L 224.190362 57.335203 
L 226.462581 55.05142 
L 228.7348 55.232327 
L 231.007019 57.923719 
L 233.279238 63.08748 
L 235.551457 70.60164 
L 237.823676 80.266751 
L 240.095895 91.818073 
L 242.368114 104.94236 
L 244.640333 119.297507 
L 249.184771 150.309315 
L 256.001428 197.96034 
L 260.545866 227.84442 
L 262.818085 241.813549 
L 265.090304 255.040892 
L 267.362523 267.488702 
L 269.634742 279.135793 
L 271.906961 289.971501 
L 274.17918 299.991614 
L 276.451399 309.196279 
L 278.723618 317.589624 
L 280.995837 325.180575 
L 283.268056 331.984262 
L 285.540275 338.023437 
L 287.812494 343.329446 
L 290.084713 347.942446 
L 292.356932 351.910764 
L 294.629151 355.28943 
L 296.90137 358.138059 
L 299.173589 360.518337 
L 301.445808 362.491381 
L 303.718027 364.115263 
L 305.990246 365.442939 
L 308.262465 366.520743 
L 310.534684 367.387588 
L 312.806903 368.074846 
L 315.079122 368.606883 
L 317.351341 369.002085 
L 319.62356 369.274198 
L 324.167998 369.489407 
L 328.712436 369.31986 
L 333.256874 368.826107 
L 337.801312 368.064614 
L 342.34575 367.076644 
L 346.890188 365.881123 
L 351.434626 364.484552 
L 358.251283 362.066935 
L 367.340159 358.690978 
L 371.884597 357.251841 
L 376.429035 356.16801 
L 378.701254 355.790661 
L 380.973473 355.533239 
L 383.245692 355.399788 
L 385.517911 355.392224 
L 387.79013 355.511093 
L 390.062349 355.756236 
L 392.334568 356.12723 
L 394.606787 356.623536 
L 396.879006 357.244339 
L 399.151225 357.988145 
L 403.695663 359.832332 
L 408.240101 362.112231 
L 412.784539 364.750283 
L 419.601196 369.142424 
L 428.690072 375.160596 
L 433.23451 377.958572 
L 437.778948 380.46488 
L 442.323386 382.598199 
L 446.867825 384.323092 
L 451.412263 385.65646 
L 455.956701 386.656307 
L 460.501139 387.397656 
L 465.045577 387.949411 
L 471.862234 388.533844 
L 496.856643 390.28732 
L 512.762176 391.807773 
L 519.578833 392.22251 
L 528.667709 392.505164 
L 542.301023 392.616023 
L 542.301023 392.616023 
" clip-path="url(#pb1aeb3b046)" style="fill: none; stroke: #d62728; stroke-width: 1.5; stroke-linecap: round"/>
   </g>
   <g id="line2d_21">
    <path d="M 87.880231 392.611059 
L 99.288701 392.491137 
L 106.133783 392.238928 
L 110.69717 391.912542 
L 115.260558 391.397178 
L 119.823946 390.638192 
L 124.387334 389.585933 
L 128.950722 388.19282 
L 133.51411 386.396875 
L 135.795804 385.317556 
L 138.077498 384.092888 
L 140.359192 382.697785 
L 142.640886 381.101156 
L 144.92258 379.265895 
L 147.204274 377.149385 
L 149.485968 374.704503 
L 151.767662 371.881085 
L 154.049356 368.627753 
L 156.33105 364.893976 
L 158.612744 360.632214 
L 160.894438 355.799987 
L 163.176131 350.361722 
L 165.457825 344.290235 
L 167.739519 337.567727 
L 170.021213 330.186177 
L 172.302907 322.147094 
L 174.584601 313.460584 
L 176.866295 304.143815 
L 179.147989 294.219028 
L 181.429683 283.711341 
L 185.993071 261.0506 
L 190.556459 236.361686 
L 195.119847 209.860065 
L 199.683235 181.892355 
L 208.810011 124.804885 
L 211.091705 111.349223 
L 213.373399 98.732297 
L 215.655093 87.25833 
L 217.936786 77.239485 
L 220.21848 68.978853 
L 222.500174 62.75191 
L 224.781868 58.788008 
L 227.063562 57.253619 
L 229.345256 58.238976 
L 231.62695 61.749544 
L 233.908644 67.703313 
L 236.190338 75.934409 
L 238.472032 86.202844 
L 240.753726 98.209615 
L 243.03542 111.615764 
L 247.598808 141.197825 
L 256.725584 202.550704 
L 261.288972 230.808119 
L 263.570666 243.948223 
L 265.85236 256.384816 
L 268.134054 268.110521 
L 270.415748 279.127424 
L 272.697441 289.440062 
L 274.979135 299.05111 
L 277.260829 307.959815 
L 279.542523 316.162749 
L 281.824217 323.656213 
L 284.105911 330.439453 
L 286.387605 336.517892 
L 288.669299 341.905716 
L 290.950993 346.627365 
L 293.232687 350.717744 
L 295.514381 354.221182 
L 297.796075 357.189364 
L 300.077769 359.678581 
L 302.359463 361.74669 
L 304.641157 363.45017 
L 306.922851 364.841613 
L 309.204545 365.967876 
L 311.486239 366.869024 
L 313.767933 367.578072 
L 316.049627 368.121428 
L 318.331321 368.519872 
L 320.613015 368.789834 
L 325.176402 368.99625 
L 329.73979 368.831637 
L 334.303178 368.377613 
L 338.866566 367.705512 
L 343.429954 366.862353 
L 347.993342 365.860674 
L 352.55673 364.685245 
L 357.120118 363.318394 
L 363.9652 360.954484 
L 370.810282 358.495644 
L 375.37367 357.063656 
L 379.937057 355.995146 
L 382.218751 355.639949 
L 384.500445 355.419779 
L 386.782139 355.341528 
L 389.063833 355.408552 
L 391.345527 355.621275 
L 393.627221 355.977908 
L 395.908915 356.475133 
L 398.190609 357.108642 
L 400.472303 357.873451 
L 402.753997 358.763983 
L 407.317385 360.896 
L 411.880773 363.440421 
L 416.444161 366.30794 
L 425.570937 372.515428 
L 430.134325 375.559975 
L 434.697712 378.369707 
L 439.2611 380.831803 
L 443.824488 382.883945 
L 448.387876 384.52145 
L 452.951264 385.787668 
L 457.514652 386.751229 
L 462.07804 387.481598 
L 468.923122 388.259496 
L 475.768204 388.785512 
L 491.740061 389.890251 
L 516.838695 392.115151 
L 523.683777 392.400541 
L 532.810553 392.568484 
L 541.937328 392.616217 
L 541.937328 392.616217 
" clip-path="url(#pb1aeb3b046)" style="fill: none; stroke: #9467bd; stroke-width: 1.5; stroke-linecap: round"/>
   </g>
   <g id="line2d_22">
    <path d="M 86.394436 392.613198 
L 100.126054 392.459312 
L 106.991863 392.174677 
L 111.569069 391.821361 
L 116.146275 391.278634 
L 120.723481 390.494041 
L 125.300687 389.41398 
L 129.877893 387.975507 
L 132.166496 387.095222 
L 134.455099 386.087714 
L 136.743702 384.933181 
L 139.032305 383.607163 
L 141.320908 382.080242 
L 143.609511 380.318107 
L 145.898114 378.282031 
L 148.186717 375.929742 
L 150.47532 373.216664 
L 152.763923 370.097425 
L 155.052526 366.527519 
L 157.341129 362.465017 
L 159.629732 357.872175 
L 161.918335 352.716849 
L 164.206938 346.973606 
L 166.495541 340.624463 
L 168.784144 333.659175 
L 171.072747 326.075055 
L 173.36135 317.876293 
L 175.649953 309.072821 
L 177.938556 299.678818 
L 180.227159 289.711017 
L 182.515762 279.18709 
L 187.092967 256.539823 
L 191.670173 231.87458 
L 196.247379 205.38097 
L 200.824585 177.449396 
L 207.690394 134.777633 
L 209.978997 121.090232 
L 212.2676 108.096492 
L 214.556203 96.098183 
L 216.844806 85.411494 
L 219.133409 76.350302 
L 221.422012 69.207198 
L 223.710615 64.233917 
L 225.999218 61.622975 
L 228.287821 61.492373 
L 230.576424 63.875002 
L 232.865027 68.714006 
L 235.15363 75.864776 
L 237.442233 85.103595 
L 239.730836 96.142232 
L 242.019439 108.647154 
L 244.308042 122.261481 
L 248.885248 151.407789 
L 255.751057 195.488637 
L 260.328263 222.85519 
L 264.905469 247.861605 
L 267.194072 259.454332 
L 269.482675 270.454715 
L 271.771278 280.873768 
L 274.059881 290.714852 
L 276.348484 299.97118 
L 278.637087 308.626478 
L 280.92569 316.658113 
L 283.214293 324.041769 
L 285.502896 330.756662 
L 287.791499 336.790352 
L 290.080102 342.142411 
L 292.368705 346.826478 
L 294.657308 350.870562 
L 296.945911 354.31567 
L 299.234514 357.21312 
L 301.523117 359.621 
L 303.81172 361.600286 
L 306.100323 363.21115 
L 308.388926 364.509828 
L 310.677529 365.546374 
L 312.966132 366.363392 
L 315.254735 366.995746 
L 317.543338 367.471098 
L 319.831941 367.811035 
L 324.409147 368.149297 
L 328.986353 368.115543 
L 333.563559 367.796285 
L 338.140765 367.269792 
L 345.006574 366.217576 
L 351.872383 364.907027 
L 356.449589 363.864304 
L 361.026795 362.661801 
L 367.892604 360.593445 
L 377.047016 357.804116 
L 381.624222 356.728578 
L 383.912825 356.340818 
L 386.201428 356.07484 
L 388.490031 355.942631 
L 390.778634 355.952276 
L 393.067237 356.108075 
L 395.35584 356.41097 
L 397.644443 356.859215 
L 399.933046 357.449105 
L 402.221649 358.17565 
L 404.510252 359.03305 
L 409.087458 361.114183 
L 413.664664 363.631356 
L 418.24187 366.500066 
L 425.107679 371.188231 
L 431.973488 375.844287 
L 436.550694 378.650318 
L 441.1279 381.076374 
L 445.705106 383.07487 
L 450.282312 384.662672 
L 454.859518 385.898274 
L 459.436724 386.85228 
L 464.01393 387.586404 
L 470.879739 388.378834 
L 480.034151 389.093394 
L 491.477166 389.970483 
L 514.363196 392.010632 
L 521.229005 392.338581 
L 530.383417 392.546103 
L 541.826432 392.616602 
L 541.826432 392.616602 
" clip-path="url(#pb1aeb3b046)" style="fill: none; stroke: #8c564b; stroke-width: 1.5; stroke-linecap: round"/>
   </g>
   <g id="line2d_23">
    <path d="M 85.645732 392.613271 
L 99.393632 392.463431 
L 106.267582 392.190773 
L 110.850216 391.856064 
L 115.432849 391.346392 
L 120.015482 390.614733 
L 124.598116 389.611404 
L 129.180749 388.274213 
L 131.472066 387.453001 
L 133.763383 386.509426 
L 136.0547 385.423043 
L 138.346016 384.168827 
L 140.637333 382.716979 
L 142.92865 381.033083 
L 145.219966 379.078618 
L 147.511283 376.811835 
L 149.8026 374.188942 
L 152.093917 371.16553 
L 154.385233 367.698137 
L 156.67655 363.745861 
L 158.967867 359.271914 
L 161.259183 354.245004 
L 163.5505 348.640474 
L 165.841817 342.441072 
L 168.133134 335.637314 
L 170.42445 328.227336 
L 172.715767 320.216234 
L 175.007084 311.61489 
L 177.2984 302.438382 
L 179.589717 292.704156 
L 181.881034 282.430233 
L 186.463667 260.330688 
L 191.046301 236.265913 
L 195.628934 210.398305 
L 200.211568 183.073285 
L 209.376835 127.597121 
L 211.668151 114.691595 
L 213.959468 102.703823 
L 216.250785 91.938095 
L 218.542101 82.698112 
L 220.833418 75.269229 
L 223.124735 69.900074 
L 225.416052 66.785172 
L 227.707368 66.050198 
L 229.998685 67.741318 
L 232.290002 71.819786 
L 234.581319 78.162497 
L 236.872635 86.568697 
L 239.163952 96.772408 
L 241.455269 108.459593 
L 243.746585 121.288527 
L 248.329219 148.995789 
L 255.203169 191.265442 
L 259.785802 217.63609 
L 264.368436 241.839507 
L 268.951069 263.90353 
L 273.533703 284.01072 
L 275.825019 293.354219 
L 278.116336 302.207655 
L 280.407653 310.541595 
L 282.69897 318.318382 
L 284.990286 325.498338 
L 287.281603 332.046239 
L 289.57292 337.937088 
L 291.864237 343.16043 
L 294.155553 347.722738 
L 296.44687 351.647718 
L 298.738187 354.974689 
L 301.029503 357.755386 
L 303.32082 360.049756 
L 305.612137 361.921324 
L 307.903454 363.432741 
L 310.19477 364.642016 
L 312.486087 365.599787 
L 314.777404 366.347831 
L 317.06872 366.918804 
L 319.360037 367.337063 
L 321.651354 367.620292 
L 326.233987 367.831516 
L 330.816621 367.638453 
L 335.399254 367.135236 
L 342.273204 366.052857 
L 362.895055 362.46067 
L 367.477688 361.402556 
L 374.351638 359.50548 
L 381.225589 357.584505 
L 385.808222 356.620175 
L 388.099539 356.310961 
L 390.390855 356.144382 
L 392.682172 356.134264 
L 394.973489 356.288453 
L 397.264806 356.609036 
L 399.556122 357.093069 
L 401.847439 357.733661 
L 404.138756 358.5212 
L 406.430073 359.444477 
L 411.012706 361.650376 
L 415.595339 364.254072 
L 420.177973 367.152456 
L 436.21719 377.709229 
L 440.799823 380.253644 
L 445.382457 382.408994 
L 449.96509 384.164477 
L 454.547724 385.553815 
L 459.130357 386.631741 
L 463.712991 387.454756 
L 468.295624 388.07445 
L 475.169574 388.734841 
L 495.791425 390.402783 
L 509.539325 391.693904 
L 516.413275 392.141778 
L 525.578542 392.468903 
L 537.035126 392.601715 
L 541.617759 392.616597 
L 541.617759 392.616597 
" clip-path="url(#pb1aeb3b046)" style="fill: none; stroke: #e377c2; stroke-width: 1.5; stroke-linecap: round"/>
   </g>
   <g id="line2d_24">
    <path d="M 92.905935 392.611381 
L 103.8227 392.494227 
L 110.372759 392.248839 
L 114.739465 391.931869 
L 119.10617 391.431329 
L 123.472876 390.692444 
L 127.839582 389.662796 
L 132.206288 388.288972 
L 136.572994 386.501693 
L 138.756347 385.420983 
L 140.939699 384.190944 
L 143.123052 382.787114 
L 145.306405 381.179714 
L 147.489758 379.333623 
L 149.673111 377.208718 
L 151.856464 374.760593 
L 154.039817 371.941584 
L 156.22317 368.702036 
L 158.406523 364.991714 
L 160.589876 360.761262 
L 162.773229 355.963658 
L 164.956581 350.555584 
L 167.139934 344.498725 
L 169.323287 337.760959 
L 171.50664 330.317472 
L 173.689993 322.151769 
L 175.873346 313.256563 
L 178.056699 303.634483 
L 180.240052 293.298501 
L 182.423405 282.271978 
L 184.606758 270.588249 
L 188.973464 245.426433 
L 193.340169 218.235614 
L 197.706875 189.519559 
L 210.806993 101.106641 
L 212.990346 87.484658 
L 215.173698 74.755999 
L 217.357051 63.214004 
L 219.540404 53.173255 
L 221.723757 44.953669 
L 223.90711 38.8606 
L 226.090463 35.16281 
L 228.273816 34.070638 
L 230.457169 35.716913 
L 232.640522 40.142918 
L 234.823875 47.291214 
L 237.007228 57.006266 
L 239.19058 69.042903 
L 241.373933 83.081673 
L 243.557286 98.74936 
L 247.923992 133.350776 
L 256.657404 205.02575 
L 258.840757 221.730433 
L 261.02411 237.569056 
L 263.207463 252.440334 
L 265.390815 266.282941 
L 267.574168 279.066857 
L 269.757521 290.785261 
L 271.940874 301.447782 
L 274.124227 311.075577 
L 276.30758 319.6983 
L 278.490933 327.352703 
L 280.674286 334.082402 
L 282.857639 339.938248 
L 285.040992 344.978744 
L 287.224345 349.270046 
L 289.407697 352.88525 
L 291.59105 355.902833 
L 293.774403 358.404291 
L 295.957756 360.471166 
L 298.141109 362.181743 
L 300.324462 363.607783 
L 302.507815 364.811626 
L 304.691168 365.843996 
L 309.057874 367.532614 
L 313.424579 368.825542 
L 317.791285 369.713477 
L 319.974638 369.978255 
L 322.157991 370.106831 
L 324.341344 370.089418 
L 326.524697 369.920279 
L 328.70805 369.598429 
L 330.891403 369.127689 
L 333.074756 368.516255 
L 337.441461 366.921626 
L 341.808167 364.939924 
L 348.358226 361.58155 
L 354.908285 358.283122 
L 359.274991 356.408717 
L 361.458344 355.623849 
L 363.641696 354.957106 
L 365.825049 354.415367 
L 368.008402 354.000934 
L 370.191755 353.71199 
L 372.375108 353.543534 
L 376.741814 353.540133 
L 381.10852 353.939362 
L 385.475226 354.72261 
L 389.841931 355.917938 
L 392.025284 356.687339 
L 394.208637 357.580324 
L 396.39199 358.601183 
L 400.758696 361.02577 
L 405.125402 363.916495 
L 409.492108 367.161882 
L 422.592225 377.290025 
L 426.958931 380.174458 
L 429.142284 381.437265 
L 431.325637 382.56603 
L 433.50899 383.556206 
L 435.692342 384.408591 
L 437.875695 385.129107 
L 442.242401 386.219543 
L 446.609107 386.943891 
L 450.975813 387.43086 
L 459.709225 388.078191 
L 474.992695 389.103158 
L 483.726107 389.982447 
L 499.009577 391.694055 
L 505.559636 392.166837 
L 512.109694 392.435502 
L 523.026459 392.597194 
L 527.393165 392.61489 
L 527.393165 392.61489 
" clip-path="url(#pb1aeb3b046)" style="fill: none; stroke: #7f7f7f; stroke-width: 1.5; stroke-linecap: round"/>
   </g>
   <g id="line2d_25">
    <path d="M 92.76276 392.607834 
L 103.73115 392.468631 
L 110.312183 392.185217 
L 114.699539 391.828506 
L 119.086894 391.279915 
L 123.47425 390.493949 
L 127.861606 389.432289 
L 132.248961 388.054802 
L 136.636317 386.295193 
L 138.829995 385.235823 
L 141.023673 384.02699 
L 143.217351 382.638743 
L 145.411028 381.034944 
L 147.604706 379.173842 
L 149.798384 377.00915 
L 151.992062 374.491549 
L 154.18574 371.570454 
L 156.379418 368.195866 
L 158.573095 364.320126 
L 160.766773 359.899411 
L 162.960451 354.89491 
L 165.154129 349.273631 
L 167.347807 343.008892 
L 169.541485 336.08059 
L 171.735162 328.475333 
L 173.92884 320.186533 
L 176.122518 311.214505 
L 178.316196 301.566563 
L 180.509874 291.257063 
L 182.703552 280.307341 
L 187.090907 256.605798 
L 191.478263 230.759274 
L 195.865619 203.155013 
L 202.446652 159.58148 
L 209.027686 115.817556 
L 211.221363 101.916804 
L 213.415041 88.729796 
L 215.608719 76.527906 
L 217.802397 65.606382 
L 219.996075 56.271854 
L 222.189753 48.825813 
L 224.38343 43.545318 
L 226.577108 40.662736 
L 228.770786 40.346681 
L 230.964464 42.686374 
L 233.158142 47.681359 
L 235.35182 55.237959 
L 237.545497 65.173053 
L 239.739175 77.224891 
L 241.932853 91.069775 
L 244.126531 106.342798 
L 248.513887 139.642289 
L 255.09492 191.197806 
L 259.482276 223.498435 
L 261.675954 238.519836 
L 263.869631 252.668544 
L 266.063309 265.896817 
L 268.256987 278.180964 
L 270.450665 289.514246 
L 272.644343 299.901459 
L 274.838021 309.355418 
L 277.031699 317.89521 
L 279.225376 325.545819 
L 281.419054 332.338597 
L 283.612732 338.31203 
L 285.80641 343.512295 
L 288.000088 347.993271 
L 290.193766 351.815807 
L 292.387443 355.046216 
L 294.581121 357.754107 
L 296.774799 360.009773 
L 298.968477 361.881392 
L 301.162155 363.432349 
L 303.355833 364.718933 
L 305.54951 365.788656 
L 307.743188 366.679332 
L 309.936866 367.418981 
L 312.130544 368.026533 
L 314.324222 368.513196 
L 316.5179 368.884296 
L 318.711577 369.14133 
L 320.905255 369.283968 
L 323.098933 369.311777 
L 325.292611 369.225473 
L 329.679967 368.722858 
L 334.067322 367.819166 
L 338.454678 366.576107 
L 342.842034 365.058003 
L 347.229389 363.327849 
L 362.585134 356.89827 
L 366.97249 355.473462 
L 371.359845 354.455827 
L 373.553523 354.122002 
L 375.747201 353.911219 
L 377.940879 353.825619 
L 380.134557 353.866054 
L 382.328235 354.032763 
L 384.521912 354.325887 
L 386.71559 354.745711 
L 388.909268 355.292615 
L 391.102946 355.966742 
L 393.296624 356.767479 
L 395.490302 357.692875 
L 399.877657 359.900129 
L 404.265013 362.530457 
L 408.652369 365.490324 
L 415.233402 370.279746 
L 421.814436 375.067804 
L 426.201791 378.015885 
L 430.589147 380.61462 
L 434.976503 382.773734 
L 439.363858 384.463685 
L 443.751214 385.720101 
L 448.13857 386.625736 
L 452.525925 387.278494 
L 459.106959 387.961957 
L 467.88167 388.596253 
L 478.850059 389.397195 
L 487.624771 390.305582 
L 500.786838 391.717716 
L 507.367871 392.177577 
L 513.948905 392.439375 
L 524.917294 392.597548 
L 529.304649 392.614978 
L 529.304649 392.614978 
" clip-path="url(#pb1aeb3b046)" style="fill: none; stroke: #bcbd22; stroke-width: 1.5; stroke-linecap: round"/>
   </g>
   <g id="line2d_26">
    <path d="M 94.790997 392.602283 
L 105.734885 392.429842 
L 112.301219 392.087209 
L 116.678774 391.662908 
L 121.056329 391.018488 
L 125.433885 390.104872 
L 129.81144 388.879777 
L 134.188996 387.295402 
L 136.377773 386.345435 
L 138.566551 385.270746 
L 140.755329 384.050298 
L 142.944106 382.657069 
L 145.132884 381.057834 
L 147.321662 379.213489 
L 149.51044 377.079927 
L 151.699217 374.609421 
L 153.887995 371.752376 
L 156.076773 368.459291 
L 158.26555 364.682725 
L 160.454328 360.379095 
L 162.643106 355.510155 
L 164.831883 350.044073 
L 167.020661 343.956061 
L 169.209439 337.22859 
L 171.398217 329.851247 
L 173.586994 321.820309 
L 175.775772 313.138125 
L 177.96455 303.812388 
L 180.153327 293.855362 
L 182.342105 283.283164 
L 186.719661 260.37372 
L 191.097216 235.275902 
L 195.474771 208.24926 
L 199.852327 179.688228 
L 210.796215 106.932594 
L 212.984993 93.558443 
L 215.173771 81.16021 
L 217.362548 70.037316 
L 219.551326 60.494436 
L 221.740104 52.82519 
L 223.928882 47.294046 
L 226.117659 44.118009 
L 228.306437 43.449937 
L 230.495215 45.365312 
L 232.683992 49.854048 
L 234.87277 56.818433 
L 237.061548 66.077669 
L 239.250325 77.378689 
L 241.439103 90.412223 
L 243.627881 104.832466 
L 248.005436 136.39387 
L 256.760547 201.508726 
L 261.138103 231.484296 
L 263.32688 245.398759 
L 265.515658 258.527876 
L 267.704436 270.84503 
L 269.893213 282.335737 
L 272.081991 292.9928 
L 274.270769 302.813599 
L 276.459546 311.799319 
L 278.648324 319.955613 
L 280.837102 327.294079 
L 283.02588 333.833913 
L 285.214657 339.603198 
L 287.403435 344.639462 
L 289.592213 348.989308 
L 291.78099 352.707135 
L 293.969768 355.853092 
L 296.158546 358.490506 
L 298.347324 360.683102 
L 300.536101 362.4923 
L 302.724879 363.974877 
L 304.913657 365.181187 
L 307.102434 366.154097 
L 309.291212 366.928654 
L 311.47999 367.532461 
L 313.668767 367.986618 
L 315.857545 368.307055 
L 320.235101 368.593498 
L 324.612656 368.469352 
L 328.990211 368.003972 
L 333.367767 367.263929 
L 337.745322 366.301003 
L 342.122878 365.140968 
L 346.500433 363.78902 
L 350.877988 362.254257 
L 366.199432 356.523146 
L 370.576988 355.335489 
L 372.765766 354.897765 
L 374.954543 354.576281 
L 377.143321 354.376121 
L 379.332099 354.299802 
L 381.520876 354.348064 
L 383.709654 354.520685 
L 385.898432 354.81714 
L 388.087209 355.237003 
L 390.275987 355.780017 
L 392.464765 356.445856 
L 394.653543 357.233667 
L 399.031098 359.165759 
L 403.408653 361.538652 
L 407.786209 364.27995 
L 412.163764 367.284626 
L 425.29643 376.543077 
L 429.673986 379.248095 
L 434.051541 381.574977 
L 438.429097 383.476454 
L 442.806652 384.962974 
L 447.184208 386.090835 
L 451.561763 386.936823 
L 455.939318 387.573304 
L 462.505651 388.254817 
L 473.44954 389.031861 
L 482.204651 389.733469 
L 493.148539 390.906169 
L 501.90365 391.767625 
L 508.469983 392.202177 
L 517.225094 392.498827 
L 530.35776 392.615388 
L 530.35776 392.615388 
" clip-path="url(#pb1aeb3b046)" style="fill: none; stroke: #17becf; stroke-width: 1.5; stroke-linecap: round"/>
   </g>
   <g id="line2d_27">
    <path d="M 92.77109 392.610736 
L 103.742095 392.489028 
L 110.324699 392.232981 
L 114.713101 391.901003 
L 119.101503 391.375466 
L 123.489905 390.599011 
L 127.878308 389.518852 
L 132.26671 388.084685 
L 136.655112 386.233367 
L 138.849313 385.121287 
L 141.043514 383.860962 
L 143.237715 382.427839 
L 145.431916 380.791444 
L 147.626117 378.9153 
L 149.820319 376.757367 
L 152.01452 374.270969 
L 154.208721 371.406203 
L 156.402922 368.111727 
L 158.597123 364.336789 
L 160.791324 360.033376 
L 162.985525 355.158302 
L 165.179726 349.675091 
L 167.373927 343.555515 
L 169.568129 336.780652 
L 171.76233 329.341362 
L 173.956531 321.238108 
L 176.150732 312.48009 
L 178.344933 303.083756 
L 180.539134 293.070793 
L 182.733335 282.465854 
L 187.121737 259.580793 
L 191.51014 234.617587 
L 195.898542 207.76238 
L 200.286944 179.304098 
L 211.25795 106.371972 
L 213.452151 93.007831 
L 215.646352 80.695166 
L 217.840553 69.757147 
L 220.034754 60.514646 
L 222.228955 53.267259 
L 224.423156 48.273755 
L 226.617357 45.733697 
L 228.811558 45.772008 
L 231.005759 48.428093 
L 233.199961 53.650719 
L 235.394162 61.29938 
L 237.588363 71.152205 
L 239.782564 82.919814 
L 241.976765 96.263885 
L 244.170966 110.818656 
L 248.559368 142.092868 
L 255.141972 189.670958 
L 259.530374 219.274509 
L 261.724575 233.094501 
L 263.918776 246.202158 
L 266.112977 258.585471 
L 268.307178 270.245045 
L 270.501379 281.185828 
L 272.69558 291.411546 
L 274.889782 300.922077 
L 277.083983 309.713474 
L 279.278184 317.780033 
L 281.472385 325.117541 
L 283.666586 331.726862 
L 285.860787 337.617073 
L 288.054988 342.807596 
L 290.249189 347.329003 
L 292.44339 351.222464 
L 294.637591 354.537978 
L 296.831793 357.331716 
L 299.025994 359.662898 
L 301.220195 361.590612 
L 303.414396 363.170958 
L 305.608597 364.45482 
L 307.802798 365.486435 
L 309.996999 366.302821 
L 312.1912 366.933989 
L 314.385401 367.403794 
L 316.579603 367.731192 
L 318.773804 367.931658 
L 323.162206 368.00399 
L 327.550608 367.717808 
L 331.93901 367.163666 
L 336.327412 366.417191 
L 342.910016 365.02114 
L 347.298418 363.900423 
L 351.68682 362.598828 
L 356.075222 361.112403 
L 369.240429 356.346538 
L 373.628831 355.159177 
L 375.823032 354.729815 
L 378.017233 354.42819 
L 380.211435 354.263046 
L 382.405636 354.239364 
L 384.599837 354.358906 
L 386.794038 354.620961 
L 388.988239 355.023159 
L 391.18244 355.562191 
L 393.376641 356.234323 
L 395.570842 357.035639 
L 399.959244 359.008753 
L 404.347647 361.439416 
L 408.736049 364.261601 
L 413.124451 367.372199 
L 424.095457 375.410596 
L 428.483859 378.287478 
L 432.872261 380.77126 
L 437.260663 382.810196 
L 441.649065 384.419185 
L 446.037468 385.659916 
L 450.42587 386.610575 
L 454.814272 387.340804 
L 461.396875 388.134312 
L 470.17368 388.856316 
L 481.144685 389.752437 
L 505.280897 392.089882 
L 511.863501 392.389286 
L 520.640305 392.565508 
L 529.41711 392.615624 
L 529.41711 392.615624 
" clip-path="url(#pb1aeb3b046)" style="fill: none; stroke: #1f77b4; stroke-width: 1.5; stroke-linecap: round"/>
   </g>
   <g id="line2d_28">
    <path d="M 91.429133 392.612858 
L 104.620555 392.456495 
L 111.216266 392.16758 
L 115.613406 391.808557 
L 120.010547 391.255968 
L 124.407687 390.454937 
L 128.804828 389.348897 
L 133.201969 387.872033 
L 135.400539 386.967267 
L 137.599109 385.931646 
L 139.79768 384.745473 
L 141.99625 383.384551 
L 144.19482 381.819871 
L 146.39339 380.01765 
L 148.591961 377.939762 
L 150.790531 375.544553 
L 152.989101 372.788021 
L 155.187672 369.625263 
L 157.386242 366.012089 
L 159.584812 361.906687 
L 161.783382 357.271213 
L 163.981953 352.073191 
L 166.180523 346.286639 
L 168.379093 339.892829 
L 170.577664 332.880623 
L 172.776234 325.246348 
L 174.974804 316.993183 
L 177.173374 308.13008 
L 179.371945 298.67031 
L 181.570515 288.629752 
L 183.769085 278.025189 
L 188.166226 255.188019 
L 192.563367 230.278752 
L 196.960507 203.44785 
L 201.357648 175.015088 
L 210.151929 116.768038 
L 212.350499 103.056119 
L 214.549069 90.234887 
L 216.74764 78.628438 
L 218.94621 68.566186 
L 221.14478 60.363767 
L 223.343351 54.302581 
L 225.541921 50.60982 
L 227.740491 49.440963 
L 229.939061 50.866556 
L 232.137632 54.864803 
L 234.336202 61.320921 
L 236.534772 70.033544 
L 238.733343 80.727728 
L 240.931913 93.07338 
L 243.130483 106.707335 
L 247.527624 136.362641 
L 254.123335 181.998355 
L 258.520475 210.618247 
L 262.917616 236.877255 
L 267.314756 260.670573 
L 269.513327 271.673109 
L 271.711897 282.092462 
L 273.910467 291.926149 
L 276.109038 301.160564 
L 278.307608 309.773299 
L 280.506178 317.737525 
L 282.704748 325.02738 
L 284.903319 331.623369 
L 287.101889 337.516875 
L 289.300459 342.713186 
L 291.49903 347.232708 
L 293.6976 351.110373 
L 295.89617 354.39346 
L 298.09474 357.138293 
L 300.293311 359.406313 
L 302.491881 361.2601 
L 304.690451 362.759799 
L 306.889022 363.960332 
L 309.087592 364.909585 
L 311.286162 365.647645 
L 313.484732 366.206964 
L 315.683303 366.613258 
L 317.881873 366.886864 
L 322.279014 367.099455 
L 326.676154 366.953365 
L 331.073295 366.543417 
L 337.669006 365.61179 
L 344.264717 364.441455 
L 350.860427 363.027984 
L 355.257568 361.903558 
L 361.853279 359.929906 
L 370.64756 357.118564 
L 375.044701 355.94092 
L 379.441841 355.129114 
L 381.640412 354.901965 
L 383.838982 354.809513 
L 386.037552 354.858686 
L 388.236122 355.052878 
L 390.434693 355.392516 
L 392.633263 355.875805 
L 394.831833 356.499503 
L 397.030404 357.259556 
L 399.228974 358.151482 
L 403.626114 360.310857 
L 408.023255 362.927339 
L 412.420396 365.919907 
L 419.016106 370.817652 
L 425.611817 375.648604 
L 430.008958 378.521066 
L 434.406098 380.969909 
L 438.803239 382.960391 
L 443.20038 384.52845 
L 447.59752 385.748374 
L 451.994661 386.698016 
L 456.391801 387.439068 
L 462.987512 388.258888 
L 471.781793 389.045614 
L 482.774645 390.056085 
L 500.363207 391.82318 
L 506.958918 392.230222 
L 515.753199 392.506953 
L 528.944621 392.616038 
L 528.944621 392.616038 
" clip-path="url(#pb1aeb3b046)" style="fill: none; stroke: #ff7f0e; stroke-width: 1.5; stroke-linecap: round"/>
   </g>
   <g id="line2d_29">
    <path d="M 90.968281 392.612908 
L 104.14609 392.46029 
L 110.734994 392.182766 
L 115.127597 391.841702 
L 119.5202 391.321425 
L 123.912803 390.57282 
L 128.305405 389.543797 
L 132.698008 388.169931 
L 134.89431 387.325796 
L 137.090611 386.356177 
L 139.286913 385.240738 
L 141.483214 383.954702 
L 143.679515 382.468656 
L 145.875817 380.748686 
L 148.072118 378.756861 
L 150.26842 376.452046 
L 152.464721 373.791023 
L 154.661023 370.72983 
L 156.857324 367.225252 
L 159.053625 363.236355 
L 161.249927 358.725988 
L 163.446228 353.662149 
L 165.64253 348.019139 
L 167.838831 341.778406 
L 170.035133 334.929003 
L 172.231434 327.467584 
L 174.427735 319.397889 
L 176.624037 310.729705 
L 178.820338 301.477359 
L 181.01664 291.657897 
L 185.409243 270.388257 
L 189.801846 247.049265 
L 194.194448 221.755382 
L 198.587051 194.689446 
L 205.175956 151.838644 
L 209.568558 123.324696 
L 211.76486 109.725467 
L 213.961161 96.937646 
L 216.157463 85.271126 
L 218.353764 75.042731 
L 220.550066 66.558485 
L 222.746367 60.094551 
L 224.942668 55.878467 
L 227.13897 54.07241 
L 229.335271 54.760115 
L 231.531573 57.938815 
L 233.727874 63.517174 
L 235.924176 71.319632 
L 238.120477 81.096985 
L 240.316778 92.542394 
L 242.51308 105.31144 
L 246.905683 133.388531 
L 253.494587 177.065408 
L 257.88719 204.615481 
L 262.279793 229.995429 
L 266.672396 253.173446 
L 271.064999 274.357338 
L 275.457601 293.653777 
L 277.653903 302.56026 
L 279.850204 310.926148 
L 282.046506 318.708024 
L 284.242807 325.863455 
L 286.439109 332.357603 
L 288.63541 338.168682 
L 290.831711 343.291608 
L 293.028013 347.739514 
L 295.224314 351.543129 
L 297.420616 354.748276 
L 299.616917 357.411996 
L 301.813219 359.597886 
L 304.00952 361.371294 
L 306.205821 362.794966 
L 308.402123 363.925599 
L 310.598424 364.811596 
L 312.794726 365.492125 
L 314.991027 365.9974 
L 317.187329 366.349952 
L 319.38363 366.566554 
L 323.776233 366.643254 
L 328.168836 366.324988 
L 332.561439 365.724455 
L 354.524453 361.981805 
L 358.917056 361.120596 
L 363.309659 360.073216 
L 369.898563 358.185445 
L 376.487467 356.300469 
L 380.88007 355.382327 
L 383.076372 355.101013 
L 385.272673 354.9639 
L 387.468975 354.983544 
L 389.665276 355.166768 
L 391.861577 355.515072 
L 394.057879 356.025494 
L 396.25418 356.691741 
L 398.450482 357.50536 
L 400.646783 358.456729 
L 405.039386 360.731901 
L 409.431989 363.431686 
L 413.824592 366.455341 
L 427.0024 376.010871 
L 431.395003 378.801401 
L 435.787606 381.190322 
L 440.180209 383.150694 
L 444.572812 384.713274 
L 448.965415 385.938129 
L 453.358018 386.888432 
L 457.75062 387.619149 
L 464.339525 388.414508 
L 501.676649 391.981577 
L 508.265553 392.324968 
L 517.050759 392.542133 
L 528.032266 392.616003 
L 528.032266 392.616003 
" clip-path="url(#pb1aeb3b046)" style="fill: none; stroke: #2ca02c; stroke-width: 1.5; stroke-linecap: round"/>
   </g>
   <g id="line2d_30">
    <path d="M 89.55079 392.613367 
L 102.73165 392.46754 
L 109.32208 392.204389 
L 113.7157 391.88257 
L 118.10932 391.39378 
L 122.502941 390.693839 
L 126.896561 389.73697 
L 131.290181 388.467715 
L 135.683801 386.805032 
L 137.880611 385.789084 
L 140.077421 384.623264 
L 142.274231 383.282579 
L 144.471041 381.73813 
L 146.667851 379.957389 
L 148.864661 377.904676 
L 151.061471 375.541791 
L 153.258281 372.828751 
L 155.455091 369.7246 
L 157.651901 366.18827 
L 159.848711 362.1795 
L 162.045521 357.659831 
L 164.242331 352.593688 
L 166.439141 346.949534 
L 168.635951 340.701065 
L 170.832761 333.828324 
L 173.029571 326.318611 
L 175.226381 318.167027 
L 177.423192 309.376515 
L 179.620002 299.957311 
L 181.816812 289.925859 
L 184.013622 279.303329 
L 188.407242 256.3844 
L 192.800862 231.418082 
L 197.194482 204.674867 
L 203.784912 162.259646 
L 208.178532 133.773338 
L 212.572152 106.918232 
L 214.768962 94.761542 
L 216.965772 83.849585 
L 219.162582 74.485203 
L 221.359392 66.953846 
L 223.556202 61.504594 
L 225.753012 58.332058 
L 227.949822 57.560983 
L 230.146632 59.235172 
L 232.343442 63.311988 
L 234.540253 69.663151 
L 236.737063 78.081908 
L 238.933873 88.296038 
L 241.130683 99.985543 
L 243.327493 112.803407 
L 247.721113 140.431645 
L 254.311543 182.404612 
L 258.705163 208.463534 
L 263.098783 232.316657 
L 267.492403 254.094336 
L 271.886023 274.121106 
L 276.279643 292.58015 
L 278.476453 301.199793 
L 280.673263 309.36661 
L 282.870073 317.032584 
L 285.066883 324.147197 
L 287.263693 330.664536 
L 289.460503 336.549584 
L 291.657314 341.782964 
L 293.854124 346.363643 
L 296.050934 350.309448 
L 298.247744 353.655485 
L 300.444554 356.450844 
L 302.641364 358.754116 
L 304.838174 360.628398 
L 307.034984 362.136407 
L 309.231794 363.336313 
L 311.428604 364.278714 
L 313.625414 365.004991 
L 315.822224 365.547081 
L 318.019034 365.928498 
L 320.215844 366.166278 
L 322.412654 366.273426 
L 326.806274 366.142267 
L 331.199894 365.641619 
L 337.790324 364.513187 
L 344.380754 363.366507 
L 359.758425 361.009803 
L 364.152045 360.028415 
L 370.742475 358.188822 
L 377.332905 356.347468 
L 381.726525 355.482618 
L 383.923335 355.236282 
L 386.120145 355.138329 
L 388.316955 355.199617 
L 390.513765 355.425004 
L 392.710575 355.813948 
L 394.907385 356.361534 
L 397.104195 357.059713 
L 399.301005 357.89854 
L 403.694625 359.954803 
L 408.088246 362.443366 
L 412.481866 365.274846 
L 419.072296 369.925074 
L 425.662726 374.619896 
L 430.056346 377.502615 
L 434.449966 380.034457 
L 438.843586 382.153196 
L 443.237206 383.863666 
L 447.630826 385.216913 
L 452.024446 386.280267 
L 456.418066 387.116134 
L 463.008497 388.058515 
L 471.795737 389.004155 
L 484.976597 390.436626 
L 495.960647 391.605948 
L 502.551077 392.096306 
L 509.141507 392.391992 
L 517.928747 392.565959 
L 526.715988 392.615619 
L 526.715988 392.615619 
" clip-path="url(#pb1aeb3b046)" style="fill: none; stroke: #d62728; stroke-width: 1.5; stroke-linecap: round"/>
   </g>
   <g id="line2d_31">
    <path d="M 95.494067 392.607114 
L 106.381944 392.458649 
L 112.91467 392.151737 
L 117.269821 391.761729 
L 121.624971 391.156839 
L 125.980122 390.281887 
L 130.335273 389.086849 
L 134.690424 387.517526 
L 136.867999 386.568765 
L 139.045575 385.491654 
L 141.22315 384.26633 
L 143.400725 382.867559 
L 145.578301 381.264485 
L 147.755876 379.420838 
L 149.933452 377.29562 
L 152.111027 374.844203 
L 154.288602 372.01971 
L 156.466178 368.774522 
L 158.643753 365.061744 
L 160.821329 360.836519 
L 162.998904 356.057099 
L 165.176479 350.685673 
L 167.354055 344.689004 
L 169.53163 338.038957 
L 171.709206 330.713003 
L 173.886781 322.694772 
L 176.064356 313.974646 
L 178.241932 304.550341 
L 180.419507 294.42738 
L 182.597083 283.619317 
L 184.774658 272.147621 
L 189.129809 247.335523 
L 193.48496 220.296944 
L 197.84011 191.426797 
L 204.372837 145.870652 
L 210.905563 100.340579 
L 213.083138 86.033604 
L 215.260714 72.6041 
L 217.438289 60.373328 
L 219.615864 49.68554 
L 221.79344 40.890682 
L 223.971015 34.322838 
L 226.148591 30.276304 
L 228.326166 28.981743 
L 230.503741 30.585133 
L 232.681317 35.132095 
L 234.858892 42.559659 
L 237.036468 52.696681 
L 239.214043 65.273082 
L 241.391618 79.936977 
L 243.569194 96.277828 
L 247.924345 132.215268 
L 254.457071 187.970878 
L 258.812222 222.569721 
L 260.989797 238.486344 
L 263.167372 253.345578 
L 265.344948 267.102299 
L 267.522523 279.744133 
L 269.700099 291.281875 
L 271.877674 301.741783 
L 274.055249 311.160134 
L 276.232825 319.580022 
L 278.4104 327.04997 
L 280.587976 333.623712 
L 282.765551 339.360473 
L 284.943126 344.325123 
L 287.120702 348.587787 
L 289.298277 352.22269 
L 291.475853 355.306267 
L 293.653428 357.914686 
L 295.831003 360.121088 
L 298.008579 361.992856 
L 300.186154 363.589211 
L 302.36373 364.959387 
L 304.541305 366.141542 
L 306.71888 367.162487 
L 308.896456 368.038224 
L 311.074031 368.77522 
L 313.251607 369.372286 
L 315.429182 369.822877 
L 317.606757 370.117614 
L 319.784333 370.246798 
L 321.961908 370.202731 
L 324.139484 369.981645 
L 326.317059 369.585124 
L 328.494634 369.020932 
L 330.67221 368.303246 
L 335.027361 366.49358 
L 341.560087 363.275732 
L 345.915238 361.163254 
L 350.270388 359.328582 
L 354.625539 357.892082 
L 358.98069 356.863696 
L 363.335841 356.156429 
L 369.868567 355.405528 
L 378.578869 354.610824 
L 382.934019 354.457507 
L 385.111595 354.524329 
L 387.28917 354.724547 
L 389.466746 355.084004 
L 391.644321 355.623803 
L 393.821896 356.358508 
L 395.999472 357.294973 
L 398.177047 358.431839 
L 400.354623 359.7597 
L 402.532198 361.261803 
L 406.887349 364.691925 
L 413.420075 370.440214 
L 417.775226 374.283717 
L 422.130377 377.842628 
L 424.307952 379.450547 
L 426.485527 380.917883 
L 428.663103 382.231286 
L 430.840678 383.382975 
L 433.018254 384.370923 
L 435.195829 385.198763 
L 437.373404 385.875392 
L 439.55098 386.414274 
L 443.906131 387.149507 
L 448.261281 387.562575 
L 456.971583 388.015529 
L 465.681885 388.539218 
L 476.569762 389.457851 
L 504.878242 392.083466 
L 513.588543 392.445148 
L 524.47642 392.597734 
L 528.831571 392.615006 
L 528.831571 392.615006 
" clip-path="url(#pb1aeb3b046)" style="fill: none; stroke: #9467bd; stroke-width: 1.5; stroke-linecap: round"/>
   </g>
   <g id="patch_3">
    <path d="M 61.4225 392.6275 
L 61.4225 10.8 
" style="fill: none; stroke: #ffffff; stroke-width: 0.8; stroke-linejoin: miter; stroke-linecap: square"/>
   </g>
   <g id="patch_4">
    <path d="M 565.2 392.6275 
L 565.2 10.8 
" style="fill: none; stroke: #ffffff; stroke-width: 0.8; stroke-linejoin: miter; stroke-linecap: square"/>
   </g>
   <g id="patch_5">
    <path d="M 61.4225 392.6275 
L 565.2 392.6275 
" style="fill: none; stroke: #ffffff; stroke-width: 0.8; stroke-linejoin: miter; stroke-linecap: square"/>
   </g>
   <g id="patch_6">
    <path d="M 61.4225 10.8 
L 565.2 10.8 
" style="fill: none; stroke: #ffffff; stroke-width: 0.8; stroke-linejoin: miter; stroke-linecap: square"/>
   </g>
   <g id="legend_1">
    <g id="patch_7">
     <path d="M 494.517187 233.09375 
L 558.2 233.09375 
Q 560.2 233.09375 560.2 231.09375 
L 560.2 17.8 
Q 560.2 15.8 558.2 15.8 
L 494.517187 15.8 
Q 492.517187 15.8 492.517187 17.8 
L 492.517187 231.09375 
Q 492.517187 233.09375 494.517187 233.09375 
z
" style="fill: #eaeaf2; opacity: 0.8; stroke: #cccccc; stroke-linejoin: miter"/>
    </g>
    <g id="line2d_32">
     <path d="M 496.517187 23.4875 
L 506.517187 23.4875 
L 516.517187 23.4875 
" style="fill: none; stroke: #1f77b4; stroke-width: 1.5; stroke-linecap: round"/>
    </g>
    <g id="text_19">
     <!-- Day 1 -->
     <g style="fill: #262626" transform="translate(524.517187 26.9875) scale(0.1 -0.1)">
      <use xlink:href="#ArialMT-44"/>
      <use xlink:href="#ArialMT-61" x="72.216797"/>
      <use xlink:href="#ArialMT-79" x="127.832031"/>
      <use xlink:href="#ArialMT-20" x="177.832031"/>
      <use xlink:href="#ArialMT-31" x="205.615234"/>
     </g>
    </g>
    <g id="line2d_33">
     <path d="M 496.517187 37.779687 
L 506.517187 37.779687 
L 516.517187 37.779687 
" style="fill: none; stroke: #ff7f0e; stroke-width: 1.5; stroke-linecap: round"/>
    </g>
    <g id="text_20">
     <!-- Day 2 -->
     <g style="fill: #262626" transform="translate(524.517187 41.279687) scale(0.1 -0.1)">
      <use xlink:href="#ArialMT-44"/>
      <use xlink:href="#ArialMT-61" x="72.216797"/>
      <use xlink:href="#ArialMT-79" x="127.832031"/>
      <use xlink:href="#ArialMT-20" x="177.832031"/>
      <use xlink:href="#ArialMT-32" x="205.615234"/>
     </g>
    </g>
    <g id="line2d_34">
     <path d="M 496.517187 52.071875 
L 506.517187 52.071875 
L 516.517187 52.071875 
" style="fill: none; stroke: #2ca02c; stroke-width: 1.5; stroke-linecap: round"/>
    </g>
    <g id="text_21">
     <!-- Day 3 -->
     <g style="fill: #262626" transform="translate(524.517187 55.571875) scale(0.1 -0.1)">
      <use xlink:href="#ArialMT-44"/>
      <use xlink:href="#ArialMT-61" x="72.216797"/>
      <use xlink:href="#ArialMT-79" x="127.832031"/>
      <use xlink:href="#ArialMT-20" x="177.832031"/>
      <use xlink:href="#ArialMT-33" x="205.615234"/>
     </g>
    </g>
    <g id="line2d_35">
     <path d="M 496.517187 66.334375 
L 506.517187 66.334375 
L 516.517187 66.334375 
" style="fill: none; stroke: #d62728; stroke-width: 1.5; stroke-linecap: round"/>
    </g>
    <g id="text_22">
     <!-- Day 4 -->
     <g style="fill: #262626" transform="translate(524.517187 69.834375) scale(0.1 -0.1)">
      <use xlink:href="#ArialMT-44"/>
      <use xlink:href="#ArialMT-61" x="72.216797"/>
      <use xlink:href="#ArialMT-79" x="127.832031"/>
      <use xlink:href="#ArialMT-20" x="177.832031"/>
      <use xlink:href="#ArialMT-34" x="205.615234"/>
     </g>
    </g>
    <g id="line2d_36">
     <path d="M 496.517187 80.596875 
L 506.517187 80.596875 
L 516.517187 80.596875 
" style="fill: none; stroke: #9467bd; stroke-width: 1.5; stroke-linecap: round"/>
    </g>
    <g id="text_23">
     <!-- Day 5 -->
     <g style="fill: #262626" transform="translate(524.517187 84.096875) scale(0.1 -0.1)">
      <use xlink:href="#ArialMT-44"/>
      <use xlink:href="#ArialMT-61" x="72.216797"/>
      <use xlink:href="#ArialMT-79" x="127.832031"/>
      <use xlink:href="#ArialMT-20" x="177.832031"/>
      <use xlink:href="#ArialMT-35" x="205.615234"/>
     </g>
    </g>
    <g id="line2d_37">
     <path d="M 496.517187 94.889062 
L 506.517187 94.889062 
L 516.517187 94.889062 
" style="fill: none; stroke: #8c564b; stroke-width: 1.5; stroke-linecap: round"/>
    </g>
    <g id="text_24">
     <!-- Day 6 -->
     <g style="fill: #262626" transform="translate(524.517187 98.389062) scale(0.1 -0.1)">
      <use xlink:href="#ArialMT-44"/>
      <use xlink:href="#ArialMT-61" x="72.216797"/>
      <use xlink:href="#ArialMT-79" x="127.832031"/>
      <use xlink:href="#ArialMT-20" x="177.832031"/>
      <use xlink:href="#ArialMT-36" x="205.615234"/>
     </g>
    </g>
    <g id="line2d_38">
     <path d="M 496.517187 109.151562 
L 506.517187 109.151562 
L 516.517187 109.151562 
" style="fill: none; stroke: #e377c2; stroke-width: 1.5; stroke-linecap: round"/>
    </g>
    <g id="text_25">
     <!-- Day 7 -->
     <g style="fill: #262626" transform="translate(524.517187 112.651562) scale(0.1 -0.1)">
      <defs>
       <path id="ArialMT-37" d="M 303 3981 
L 303 4522 
L 3269 4522 
L 3269 4084 
Q 2831 3619 2401 2847 
Q 1972 2075 1738 1259 
Q 1569 684 1522 0 
L 944 0 
Q 953 541 1156 1306 
Q 1359 2072 1739 2783 
Q 2119 3494 2547 3981 
L 303 3981 
z
" transform="scale(0.015625)"/>
      </defs>
      <use xlink:href="#ArialMT-44"/>
      <use xlink:href="#ArialMT-61" x="72.216797"/>
      <use xlink:href="#ArialMT-79" x="127.832031"/>
      <use xlink:href="#ArialMT-20" x="177.832031"/>
      <use xlink:href="#ArialMT-37" x="205.615234"/>
     </g>
    </g>
    <g id="line2d_39">
     <path d="M 496.517187 123.44375 
L 506.517187 123.44375 
L 516.517187 123.44375 
" style="fill: none; stroke: #7f7f7f; stroke-width: 1.5; stroke-linecap: round"/>
    </g>
    <g id="text_26">
     <!-- Day 8 -->
     <g style="fill: #262626" transform="translate(524.517187 126.94375) scale(0.1 -0.1)">
      <use xlink:href="#ArialMT-44"/>
      <use xlink:href="#ArialMT-61" x="72.216797"/>
      <use xlink:href="#ArialMT-79" x="127.832031"/>
      <use xlink:href="#ArialMT-20" x="177.832031"/>
      <use xlink:href="#ArialMT-38" x="205.615234"/>
     </g>
    </g>
    <g id="line2d_40">
     <path d="M 496.517187 137.735937 
L 506.517187 137.735937 
L 516.517187 137.735937 
" style="fill: none; stroke: #bcbd22; stroke-width: 1.5; stroke-linecap: round"/>
    </g>
    <g id="text_27">
     <!-- Day 9 -->
     <g style="fill: #262626" transform="translate(524.517187 141.235937) scale(0.1 -0.1)">
      <defs>
       <path id="ArialMT-39" d="M 350 1059 
L 891 1109 
Q 959 728 1153 556 
Q 1347 384 1650 384 
Q 1909 384 2104 503 
Q 2300 622 2425 820 
Q 2550 1019 2634 1356 
Q 2719 1694 2719 2044 
Q 2719 2081 2716 2156 
Q 2547 1888 2255 1720 
Q 1963 1553 1622 1553 
Q 1053 1553 659 1965 
Q 266 2378 266 3053 
Q 266 3750 677 4175 
Q 1088 4600 1706 4600 
Q 2153 4600 2523 4359 
Q 2894 4119 3086 3673 
Q 3278 3228 3278 2384 
Q 3278 1506 3087 986 
Q 2897 466 2520 194 
Q 2144 -78 1638 -78 
Q 1100 -78 759 220 
Q 419 519 350 1059 
z
M 2653 3081 
Q 2653 3566 2395 3850 
Q 2138 4134 1775 4134 
Q 1400 4134 1122 3828 
Q 844 3522 844 3034 
Q 844 2597 1108 2323 
Q 1372 2050 1759 2050 
Q 2150 2050 2401 2323 
Q 2653 2597 2653 3081 
z
" transform="scale(0.015625)"/>
      </defs>
      <use xlink:href="#ArialMT-44"/>
      <use xlink:href="#ArialMT-61" x="72.216797"/>
      <use xlink:href="#ArialMT-79" x="127.832031"/>
      <use xlink:href="#ArialMT-20" x="177.832031"/>
      <use xlink:href="#ArialMT-39" x="205.615234"/>
     </g>
    </g>
    <g id="line2d_41">
     <path d="M 496.517187 152.028125 
L 506.517187 152.028125 
L 516.517187 152.028125 
" style="fill: none; stroke: #17becf; stroke-width: 1.5; stroke-linecap: round"/>
    </g>
    <g id="text_28">
     <!-- Day 10 -->
     <g style="fill: #262626" transform="translate(524.517187 155.528125) scale(0.1 -0.1)">
      <use xlink:href="#ArialMT-44"/>
      <use xlink:href="#ArialMT-61" x="72.216797"/>
      <use xlink:href="#ArialMT-79" x="127.832031"/>
      <use xlink:href="#ArialMT-20" x="177.832031"/>
      <use xlink:href="#ArialMT-31" x="205.615234"/>
      <use xlink:href="#ArialMT-30" x="261.230469"/>
     </g>
    </g>
    <g id="line2d_42">
     <path d="M 496.517187 166.320312 
L 506.517187 166.320312 
L 516.517187 166.320312 
" style="fill: none; stroke: #1f77b4; stroke-width: 1.5; stroke-linecap: round"/>
    </g>
    <g id="text_29">
     <!-- Day 11 -->
     <g style="fill: #262626" transform="translate(524.517187 169.820312) scale(0.1 -0.1)">
      <use xlink:href="#ArialMT-44"/>
      <use xlink:href="#ArialMT-61" x="72.216797"/>
      <use xlink:href="#ArialMT-79" x="127.832031"/>
      <use xlink:href="#ArialMT-20" x="177.832031"/>
      <use xlink:href="#ArialMT-31" x="205.615234"/>
      <use xlink:href="#ArialMT-31" x="253.855469"/>
     </g>
    </g>
    <g id="line2d_43">
     <path d="M 496.517187 180.6125 
L 506.517187 180.6125 
L 516.517187 180.6125 
" style="fill: none; stroke: #ff7f0e; stroke-width: 1.5; stroke-linecap: round"/>
    </g>
    <g id="text_30">
     <!-- Day 12 -->
     <g style="fill: #262626" transform="translate(524.517187 184.1125) scale(0.1 -0.1)">
      <use xlink:href="#ArialMT-44"/>
      <use xlink:href="#ArialMT-61" x="72.216797"/>
      <use xlink:href="#ArialMT-79" x="127.832031"/>
      <use xlink:href="#ArialMT-20" x="177.832031"/>
      <use xlink:href="#ArialMT-31" x="205.615234"/>
      <use xlink:href="#ArialMT-32" x="261.230469"/>
     </g>
    </g>
    <g id="line2d_44">
     <path d="M 496.517187 194.904687 
L 506.517187 194.904687 
L 516.517187 194.904687 
" style="fill: none; stroke: #2ca02c; stroke-width: 1.5; stroke-linecap: round"/>
    </g>
    <g id="text_31">
     <!-- Day 13 -->
     <g style="fill: #262626" transform="translate(524.517187 198.404687) scale(0.1 -0.1)">
      <use xlink:href="#ArialMT-44"/>
      <use xlink:href="#ArialMT-61" x="72.216797"/>
      <use xlink:href="#ArialMT-79" x="127.832031"/>
      <use xlink:href="#ArialMT-20" x="177.832031"/>
      <use xlink:href="#ArialMT-31" x="205.615234"/>
      <use xlink:href="#ArialMT-33" x="261.230469"/>
     </g>
    </g>
    <g id="line2d_45">
     <path d="M 496.517187 209.196875 
L 506.517187 209.196875 
L 516.517187 209.196875 
" style="fill: none; stroke: #d62728; stroke-width: 1.5; stroke-linecap: round"/>
    </g>
    <g id="text_32">
     <!-- Day 14 -->
     <g style="fill: #262626" transform="translate(524.517187 212.696875) scale(0.1 -0.1)">
      <use xlink:href="#ArialMT-44"/>
      <use xlink:href="#ArialMT-61" x="72.216797"/>
      <use xlink:href="#ArialMT-79" x="127.832031"/>
      <use xlink:href="#ArialMT-20" x="177.832031"/>
      <use xlink:href="#ArialMT-31" x="205.615234"/>
      <use xlink:href="#ArialMT-34" x="261.230469"/>
     </g>
    </g>
    <g id="line2d_46">
     <path d="M 496.517187 223.489063 
L 506.517187 223.489063 
L 516.517187 223.489063 
" style="fill: none; stroke: #9467bd; stroke-width: 1.5; stroke-linecap: round"/>
    </g>
    <g id="text_33">
     <!-- Day 15 -->
     <g style="fill: #262626" transform="translate(524.517187 226.989063) scale(0.1 -0.1)">
      <use xlink:href="#ArialMT-44"/>
      <use xlink:href="#ArialMT-61" x="72.216797"/>
      <use xlink:href="#ArialMT-79" x="127.832031"/>
      <use xlink:href="#ArialMT-20" x="177.832031"/>
      <use xlink:href="#ArialMT-31" x="205.615234"/>
      <use xlink:href="#ArialMT-35" x="261.230469"/>
     </g>
    </g>
   </g>
  </g>
 </g>
 <defs>
  <clipPath id="pb1aeb3b046">
   <rect x="61.4225" y="10.8" width="503.7775" height="381.8275"/>
  </clipPath>
 </defs>
</svg>
