<?xml version="1.0" encoding="utf-8" standalone="no"?>
<!DOCTYPE svg PUBLIC "-//W3C//DTD SVG 1.1//EN"
  "http://www.w3.org/Graphics/SVG/1.1/DTD/svg11.dtd">
<svg xmlns:xlink="http://www.w3.org/1999/xlink" width="576pt" height="432pt" viewBox="0 0 576 432" xmlns="http://www.w3.org/2000/svg" version="1.1">
 <metadata>
  <rdf:RDF xmlns:dc="http://purl.org/dc/elements/1.1/" xmlns:cc="http://creativecommons.org/ns#" xmlns:rdf="http://www.w3.org/1999/02/22-rdf-syntax-ns#">
   <cc:Work>
    <dc:type rdf:resource="http://purl.org/dc/dcmitype/StillImage"/>
    <dc:date>2023-11-17T05:06:12.835150</dc:date>
    <dc:format>image/svg+xml</dc:format>
    <dc:creator>
     <cc:Agent>
      <dc:title>Matplotlib v3.8.0, https://matplotlib.org/</dc:title>
     </cc:Agent>
    </dc:creator>
   </cc:Work>
  </rdf:RDF>
 </metadata>
 <defs>
  <style type="text/css">*{stroke-linejoin: round; stroke-linecap: butt}</style>
 </defs>
 <g id="figure_1">
  <g id="patch_1">
   <path d="M 0 432 
L 576 432 
L 576 0 
L 0 0 
z
" style="fill: #ffffff"/>
  </g>
  <g id="axes_1">
   <g id="patch_2">
    <path d="M 72 384.48 
L 518.4 384.48 
L 518.4 51.84 
L 72 51.84 
z
" style="fill: #eaeaf2"/>
   </g>
   <g id="matplotlib.axis_1">
    <g id="xtick_1">
     <g id="line2d_1">
      <path d="M 92.290909 384.48 
L 92.290909 51.84 
" clip-path="url(#p621eb1cfe8)" style="fill: none; stroke: #ffffff; stroke-width: 0.8; stroke-linecap: round"/>
     </g>
     <g id="text_1">
      <!-- 0 -->
      <g style="fill: #262626" transform="translate(89.51044 398.637812) scale(0.1 -0.1)">
       <defs>
        <path id="ArialMT-30" d="M 266 2259 
Q 266 3072 433 3567 
Q 600 4063 929 4331 
Q 1259 4600 1759 4600 
Q 2128 4600 2406 4451 
Q 2684 4303 2865 4023 
Q 3047 3744 3150 3342 
Q 3253 2941 3253 2259 
Q 3253 1453 3087 958 
Q 2922 463 2592 192 
Q 2263 -78 1759 -78 
Q 1097 -78 719 397 
Q 266 969 266 2259 
z
M 844 2259 
Q 844 1131 1108 757 
Q 1372 384 1759 384 
Q 2147 384 2411 759 
Q 2675 1134 2675 2259 
Q 2675 3391 2411 3762 
Q 2147 4134 1753 4134 
Q 1366 4134 1134 3806 
Q 844 3388 844 2259 
z
" transform="scale(0.015625)"/>
       </defs>
       <use xlink:href="#ArialMT-30"/>
      </g>
     </g>
    </g>
    <g id="xtick_2">
     <g id="line2d_2">
      <path d="M 187.553393 384.48 
L 187.553393 51.84 
" clip-path="url(#p621eb1cfe8)" style="fill: none; stroke: #ffffff; stroke-width: 0.8; stroke-linecap: round"/>
     </g>
     <g id="text_2">
      <!-- 200 -->
      <g style="fill: #262626" transform="translate(179.211987 398.637812) scale(0.1 -0.1)">
       <defs>
        <path id="ArialMT-32" d="M 3222 541 
L 3222 0 
L 194 0 
Q 188 203 259 391 
Q 375 700 629 1000 
Q 884 1300 1366 1694 
Q 2113 2306 2375 2664 
Q 2638 3022 2638 3341 
Q 2638 3675 2398 3904 
Q 2159 4134 1775 4134 
Q 1369 4134 1125 3890 
Q 881 3647 878 3216 
L 300 3275 
Q 359 3922 746 4261 
Q 1134 4600 1788 4600 
Q 2447 4600 2831 4234 
Q 3216 3869 3216 3328 
Q 3216 3053 3103 2787 
Q 2991 2522 2730 2228 
Q 2469 1934 1863 1422 
Q 1356 997 1212 845 
Q 1069 694 975 541 
L 3222 541 
z
" transform="scale(0.015625)"/>
       </defs>
       <use xlink:href="#ArialMT-32"/>
       <use xlink:href="#ArialMT-30" x="55.615234"/>
       <use xlink:href="#ArialMT-30" x="111.230469"/>
      </g>
     </g>
    </g>
    <g id="xtick_3">
     <g id="line2d_3">
      <path d="M 282.815877 384.48 
L 282.815877 51.84 
" clip-path="url(#p621eb1cfe8)" style="fill: none; stroke: #ffffff; stroke-width: 0.8; stroke-linecap: round"/>
     </g>
     <g id="text_3">
      <!-- 400 -->
      <g style="fill: #262626" transform="translate(274.474471 398.637812) scale(0.1 -0.1)">
       <defs>
        <path id="ArialMT-34" d="M 2069 0 
L 2069 1097 
L 81 1097 
L 81 1613 
L 2172 4581 
L 2631 4581 
L 2631 1613 
L 3250 1613 
L 3250 1097 
L 2631 1097 
L 2631 0 
L 2069 0 
z
M 2069 1613 
L 2069 3678 
L 634 1613 
L 2069 1613 
z
" transform="scale(0.015625)"/>
       </defs>
       <use xlink:href="#ArialMT-34"/>
       <use xlink:href="#ArialMT-30" x="55.615234"/>
       <use xlink:href="#ArialMT-30" x="111.230469"/>
      </g>
     </g>
    </g>
    <g id="xtick_4">
     <g id="line2d_4">
      <path d="M 378.078361 384.48 
L 378.078361 51.84 
" clip-path="url(#p621eb1cfe8)" style="fill: none; stroke: #ffffff; stroke-width: 0.8; stroke-linecap: round"/>
     </g>
     <g id="text_4">
      <!-- 600 -->
      <g style="fill: #262626" transform="translate(369.736955 398.637812) scale(0.1 -0.1)">
       <defs>
        <path id="ArialMT-36" d="M 3184 3459 
L 2625 3416 
Q 2550 3747 2413 3897 
Q 2184 4138 1850 4138 
Q 1581 4138 1378 3988 
Q 1113 3794 959 3422 
Q 806 3050 800 2363 
Q 1003 2672 1297 2822 
Q 1591 2972 1913 2972 
Q 2475 2972 2870 2558 
Q 3266 2144 3266 1488 
Q 3266 1056 3080 686 
Q 2894 316 2569 119 
Q 2244 -78 1831 -78 
Q 1128 -78 684 439 
Q 241 956 241 2144 
Q 241 3472 731 4075 
Q 1159 4600 1884 4600 
Q 2425 4600 2770 4297 
Q 3116 3994 3184 3459 
z
M 888 1484 
Q 888 1194 1011 928 
Q 1134 663 1356 523 
Q 1578 384 1822 384 
Q 2178 384 2434 671 
Q 2691 959 2691 1453 
Q 2691 1928 2437 2201 
Q 2184 2475 1800 2475 
Q 1419 2475 1153 2201 
Q 888 1928 888 1484 
z
" transform="scale(0.015625)"/>
       </defs>
       <use xlink:href="#ArialMT-36"/>
       <use xlink:href="#ArialMT-30" x="55.615234"/>
       <use xlink:href="#ArialMT-30" x="111.230469"/>
      </g>
     </g>
    </g>
    <g id="xtick_5">
     <g id="line2d_5">
      <path d="M 473.340845 384.48 
L 473.340845 51.84 
" clip-path="url(#p621eb1cfe8)" style="fill: none; stroke: #ffffff; stroke-width: 0.8; stroke-linecap: round"/>
     </g>
     <g id="text_5">
      <!-- 800 -->
      <g style="fill: #262626" transform="translate(464.999439 398.637812) scale(0.1 -0.1)">
       <defs>
        <path id="ArialMT-38" d="M 1131 2484 
Q 781 2613 612 2850 
Q 444 3088 444 3419 
Q 444 3919 803 4259 
Q 1163 4600 1759 4600 
Q 2359 4600 2725 4251 
Q 3091 3903 3091 3403 
Q 3091 3084 2923 2848 
Q 2756 2613 2416 2484 
Q 2838 2347 3058 2040 
Q 3278 1734 3278 1309 
Q 3278 722 2862 322 
Q 2447 -78 1769 -78 
Q 1091 -78 675 323 
Q 259 725 259 1325 
Q 259 1772 486 2073 
Q 713 2375 1131 2484 
z
M 1019 3438 
Q 1019 3113 1228 2906 
Q 1438 2700 1772 2700 
Q 2097 2700 2305 2904 
Q 2513 3109 2513 3406 
Q 2513 3716 2298 3927 
Q 2084 4138 1766 4138 
Q 1444 4138 1231 3931 
Q 1019 3725 1019 3438 
z
M 838 1322 
Q 838 1081 952 856 
Q 1066 631 1291 507 
Q 1516 384 1775 384 
Q 2178 384 2440 643 
Q 2703 903 2703 1303 
Q 2703 1709 2433 1975 
Q 2163 2241 1756 2241 
Q 1359 2241 1098 1978 
Q 838 1716 838 1322 
z
" transform="scale(0.015625)"/>
       </defs>
       <use xlink:href="#ArialMT-38"/>
       <use xlink:href="#ArialMT-30" x="55.615234"/>
       <use xlink:href="#ArialMT-30" x="111.230469"/>
      </g>
     </g>
    </g>
    <g id="text_6">
     <!-- Days -->
     <g style="fill: #262626" transform="translate(283.808594 411.783125) scale(0.1 -0.1)">
      <defs>
       <path id="ArialMT-44" d="M 494 0 
L 494 4581 
L 2072 4581 
Q 2606 4581 2888 4516 
Q 3281 4425 3559 4188 
Q 3922 3881 4101 3404 
Q 4281 2928 4281 2316 
Q 4281 1794 4159 1391 
Q 4038 988 3847 723 
Q 3656 459 3429 307 
Q 3203 156 2883 78 
Q 2563 0 2147 0 
L 494 0 
z
M 1100 541 
L 2078 541 
Q 2531 541 2789 625 
Q 3047 709 3200 863 
Q 3416 1078 3536 1442 
Q 3656 1806 3656 2325 
Q 3656 3044 3420 3430 
Q 3184 3816 2847 3947 
Q 2603 4041 2063 4041 
L 1100 4041 
L 1100 541 
z
" transform="scale(0.015625)"/>
       <path id="ArialMT-61" d="M 2588 409 
Q 2275 144 1986 34 
Q 1697 -75 1366 -75 
Q 819 -75 525 192 
Q 231 459 231 875 
Q 231 1119 342 1320 
Q 453 1522 633 1644 
Q 813 1766 1038 1828 
Q 1203 1872 1538 1913 
Q 2219 1994 2541 2106 
Q 2544 2222 2544 2253 
Q 2544 2597 2384 2738 
Q 2169 2928 1744 2928 
Q 1347 2928 1158 2789 
Q 969 2650 878 2297 
L 328 2372 
Q 403 2725 575 2942 
Q 747 3159 1072 3276 
Q 1397 3394 1825 3394 
Q 2250 3394 2515 3294 
Q 2781 3194 2906 3042 
Q 3031 2891 3081 2659 
Q 3109 2516 3109 2141 
L 3109 1391 
Q 3109 606 3145 398 
Q 3181 191 3288 0 
L 2700 0 
Q 2613 175 2588 409 
z
M 2541 1666 
Q 2234 1541 1622 1453 
Q 1275 1403 1131 1340 
Q 988 1278 909 1158 
Q 831 1038 831 891 
Q 831 666 1001 516 
Q 1172 366 1500 366 
Q 1825 366 2078 508 
Q 2331 650 2450 897 
Q 2541 1088 2541 1459 
L 2541 1666 
z
" transform="scale(0.015625)"/>
       <path id="ArialMT-79" d="M 397 -1278 
L 334 -750 
Q 519 -800 656 -800 
Q 844 -800 956 -737 
Q 1069 -675 1141 -563 
Q 1194 -478 1313 -144 
Q 1328 -97 1363 -6 
L 103 3319 
L 709 3319 
L 1400 1397 
Q 1534 1031 1641 628 
Q 1738 1016 1872 1384 
L 2581 3319 
L 3144 3319 
L 1881 -56 
Q 1678 -603 1566 -809 
Q 1416 -1088 1222 -1217 
Q 1028 -1347 759 -1347 
Q 597 -1347 397 -1278 
z
" transform="scale(0.015625)"/>
       <path id="ArialMT-73" d="M 197 991 
L 753 1078 
Q 800 744 1014 566 
Q 1228 388 1613 388 
Q 2000 388 2187 545 
Q 2375 703 2375 916 
Q 2375 1106 2209 1216 
Q 2094 1291 1634 1406 
Q 1016 1563 777 1677 
Q 538 1791 414 1992 
Q 291 2194 291 2438 
Q 291 2659 392 2848 
Q 494 3038 669 3163 
Q 800 3259 1026 3326 
Q 1253 3394 1513 3394 
Q 1903 3394 2198 3281 
Q 2494 3169 2634 2976 
Q 2775 2784 2828 2463 
L 2278 2388 
Q 2241 2644 2061 2787 
Q 1881 2931 1553 2931 
Q 1166 2931 1000 2803 
Q 834 2675 834 2503 
Q 834 2394 903 2306 
Q 972 2216 1119 2156 
Q 1203 2125 1616 2013 
Q 2213 1853 2448 1751 
Q 2684 1650 2818 1456 
Q 2953 1263 2953 975 
Q 2953 694 2789 445 
Q 2625 197 2315 61 
Q 2006 -75 1616 -75 
Q 969 -75 630 194 
Q 291 463 197 991 
z
" transform="scale(0.015625)"/>
      </defs>
      <use xlink:href="#ArialMT-44"/>
      <use xlink:href="#ArialMT-61" x="72.216797"/>
      <use xlink:href="#ArialMT-79" x="127.832031"/>
      <use xlink:href="#ArialMT-73" x="177.832031"/>
     </g>
    </g>
   </g>
   <g id="matplotlib.axis_2">
    <g id="ytick_1">
     <g id="line2d_6">
      <path d="M 72 347.878033 
L 518.4 347.878033 
" clip-path="url(#p621eb1cfe8)" style="fill: none; stroke: #ffffff; stroke-width: 0.8; stroke-linecap: round"/>
     </g>
     <g id="text_7">
      <!-- 10 -->
      <g style="fill: #262626" transform="translate(53.878125 351.456939) scale(0.1 -0.1)">
       <defs>
        <path id="ArialMT-31" d="M 2384 0 
L 1822 0 
L 1822 3584 
Q 1619 3391 1289 3197 
Q 959 3003 697 2906 
L 697 3450 
Q 1169 3672 1522 3987 
Q 1875 4303 2022 4600 
L 2384 4600 
L 2384 0 
z
" transform="scale(0.015625)"/>
       </defs>
       <use xlink:href="#ArialMT-31"/>
       <use xlink:href="#ArialMT-30" x="55.615234"/>
      </g>
     </g>
    </g>
    <g id="ytick_2">
     <g id="line2d_7">
      <path d="M 72 306.566557 
L 518.4 306.566557 
" clip-path="url(#p621eb1cfe8)" style="fill: none; stroke: #ffffff; stroke-width: 0.8; stroke-linecap: round"/>
     </g>
     <g id="text_8">
      <!-- 15 -->
      <g style="fill: #262626" transform="translate(53.878125 310.145464) scale(0.1 -0.1)">
       <defs>
        <path id="ArialMT-35" d="M 266 1200 
L 856 1250 
Q 922 819 1161 601 
Q 1400 384 1738 384 
Q 2144 384 2425 690 
Q 2706 997 2706 1503 
Q 2706 1984 2436 2262 
Q 2166 2541 1728 2541 
Q 1456 2541 1237 2417 
Q 1019 2294 894 2097 
L 366 2166 
L 809 4519 
L 3088 4519 
L 3088 3981 
L 1259 3981 
L 1013 2750 
Q 1425 3038 1878 3038 
Q 2478 3038 2890 2622 
Q 3303 2206 3303 1553 
Q 3303 931 2941 478 
Q 2500 -78 1738 -78 
Q 1113 -78 717 272 
Q 322 622 266 1200 
z
" transform="scale(0.015625)"/>
       </defs>
       <use xlink:href="#ArialMT-31"/>
       <use xlink:href="#ArialMT-35" x="55.615234"/>
      </g>
     </g>
    </g>
    <g id="ytick_3">
     <g id="line2d_8">
      <path d="M 72 265.255082 
L 518.4 265.255082 
" clip-path="url(#p621eb1cfe8)" style="fill: none; stroke: #ffffff; stroke-width: 0.8; stroke-linecap: round"/>
     </g>
     <g id="text_9">
      <!-- 20 -->
      <g style="fill: #262626" transform="translate(53.878125 268.833988) scale(0.1 -0.1)">
       <use xlink:href="#ArialMT-32"/>
       <use xlink:href="#ArialMT-30" x="55.615234"/>
      </g>
     </g>
    </g>
    <g id="ytick_4">
     <g id="line2d_9">
      <path d="M 72 223.943607 
L 518.4 223.943607 
" clip-path="url(#p621eb1cfe8)" style="fill: none; stroke: #ffffff; stroke-width: 0.8; stroke-linecap: round"/>
     </g>
     <g id="text_10">
      <!-- 25 -->
      <g style="fill: #262626" transform="translate(53.878125 227.522513) scale(0.1 -0.1)">
       <use xlink:href="#ArialMT-32"/>
       <use xlink:href="#ArialMT-35" x="55.615234"/>
      </g>
     </g>
    </g>
    <g id="ytick_5">
     <g id="line2d_10">
      <path d="M 72 182.632131 
L 518.4 182.632131 
" clip-path="url(#p621eb1cfe8)" style="fill: none; stroke: #ffffff; stroke-width: 0.8; stroke-linecap: round"/>
     </g>
     <g id="text_11">
      <!-- 30 -->
      <g style="fill: #262626" transform="translate(53.878125 186.211037) scale(0.1 -0.1)">
       <defs>
        <path id="ArialMT-33" d="M 269 1209 
L 831 1284 
Q 928 806 1161 595 
Q 1394 384 1728 384 
Q 2125 384 2398 659 
Q 2672 934 2672 1341 
Q 2672 1728 2419 1979 
Q 2166 2231 1775 2231 
Q 1616 2231 1378 2169 
L 1441 2663 
Q 1497 2656 1531 2656 
Q 1891 2656 2178 2843 
Q 2466 3031 2466 3422 
Q 2466 3731 2256 3934 
Q 2047 4138 1716 4138 
Q 1388 4138 1169 3931 
Q 950 3725 888 3313 
L 325 3413 
Q 428 3978 793 4289 
Q 1159 4600 1703 4600 
Q 2078 4600 2393 4439 
Q 2709 4278 2876 4000 
Q 3044 3722 3044 3409 
Q 3044 3113 2884 2869 
Q 2725 2625 2413 2481 
Q 2819 2388 3044 2092 
Q 3269 1797 3269 1353 
Q 3269 753 2831 336 
Q 2394 -81 1725 -81 
Q 1122 -81 723 278 
Q 325 638 269 1209 
z
" transform="scale(0.015625)"/>
       </defs>
       <use xlink:href="#ArialMT-33"/>
       <use xlink:href="#ArialMT-30" x="55.615234"/>
      </g>
     </g>
    </g>
    <g id="ytick_6">
     <g id="line2d_11">
      <path d="M 72 141.320656 
L 518.4 141.320656 
" clip-path="url(#p621eb1cfe8)" style="fill: none; stroke: #ffffff; stroke-width: 0.8; stroke-linecap: round"/>
     </g>
     <g id="text_12">
      <!-- 35 -->
      <g style="fill: #262626" transform="translate(53.878125 144.899562) scale(0.1 -0.1)">
       <use xlink:href="#ArialMT-33"/>
       <use xlink:href="#ArialMT-35" x="55.615234"/>
      </g>
     </g>
    </g>
    <g id="ytick_7">
     <g id="line2d_12">
      <path d="M 72 100.00918 
L 518.4 100.00918 
" clip-path="url(#p621eb1cfe8)" style="fill: none; stroke: #ffffff; stroke-width: 0.8; stroke-linecap: round"/>
     </g>
     <g id="text_13">
      <!-- 40 -->
      <g style="fill: #262626" transform="translate(53.878125 103.588087) scale(0.1 -0.1)">
       <use xlink:href="#ArialMT-34"/>
       <use xlink:href="#ArialMT-30" x="55.615234"/>
      </g>
     </g>
    </g>
    <g id="ytick_8">
     <g id="line2d_13">
      <path d="M 72 58.697705 
L 518.4 58.697705 
" clip-path="url(#p621eb1cfe8)" style="fill: none; stroke: #ffffff; stroke-width: 0.8; stroke-linecap: round"/>
     </g>
     <g id="text_14">
      <!-- 45 -->
      <g style="fill: #262626" transform="translate(53.878125 62.276611) scale(0.1 -0.1)">
       <use xlink:href="#ArialMT-34"/>
       <use xlink:href="#ArialMT-35" x="55.615234"/>
      </g>
     </g>
    </g>
    <g id="text_15">
     <!-- (°C) -->
     <g style="fill: #262626" transform="translate(47.773438 227.099844) rotate(-90) scale(0.1 -0.1)">
      <defs>
       <path id="ArialMT-28" d="M 1497 -1347 
Q 1031 -759 709 28 
Q 388 816 388 1659 
Q 388 2403 628 3084 
Q 909 3875 1497 4659 
L 1900 4659 
Q 1522 4009 1400 3731 
Q 1209 3300 1100 2831 
Q 966 2247 966 1656 
Q 966 153 1900 -1347 
L 1497 -1347 
z
" transform="scale(0.015625)"/>
       <path id="ArialMT-b0" d="M 400 3794 
Q 400 4153 654 4406 
Q 909 4659 1266 4659 
Q 1628 4659 1881 4406 
Q 2134 4153 2134 3794 
Q 2134 3434 1879 3179 
Q 1625 2925 1266 2925 
Q 909 2925 654 3178 
Q 400 3431 400 3794 
z
M 741 3794 
Q 741 3575 895 3420 
Q 1050 3266 1269 3266 
Q 1484 3266 1639 3420 
Q 1794 3575 1794 3794 
Q 1794 4013 1639 4167 
Q 1484 4322 1269 4322 
Q 1050 4322 895 4167 
Q 741 4013 741 3794 
z
" transform="scale(0.015625)"/>
       <path id="ArialMT-43" d="M 3763 1606 
L 4369 1453 
Q 4178 706 3683 314 
Q 3188 -78 2472 -78 
Q 1731 -78 1267 223 
Q 803 525 561 1097 
Q 319 1669 319 2325 
Q 319 3041 592 3573 
Q 866 4106 1370 4382 
Q 1875 4659 2481 4659 
Q 3169 4659 3637 4309 
Q 4106 3959 4291 3325 
L 3694 3184 
Q 3534 3684 3231 3912 
Q 2928 4141 2469 4141 
Q 1941 4141 1586 3887 
Q 1231 3634 1087 3207 
Q 944 2781 944 2328 
Q 944 1744 1114 1308 
Q 1284 872 1643 656 
Q 2003 441 2422 441 
Q 2931 441 3284 734 
Q 3638 1028 3763 1606 
z
" transform="scale(0.015625)"/>
       <path id="ArialMT-29" d="M 791 -1347 
L 388 -1347 
Q 1322 153 1322 1656 
Q 1322 2244 1188 2822 
Q 1081 3291 891 3722 
Q 769 4003 388 4659 
L 791 4659 
Q 1378 3875 1659 3084 
Q 1900 2403 1900 1659 
Q 1900 816 1576 28 
Q 1253 -759 791 -1347 
z
" transform="scale(0.015625)"/>
      </defs>
      <use xlink:href="#ArialMT-28"/>
      <use xlink:href="#ArialMT-b0" x="33.300781"/>
      <use xlink:href="#ArialMT-43" x="73.291016"/>
      <use xlink:href="#ArialMT-29" x="145.507812"/>
     </g>
    </g>
   </g>
   <g id="line2d_14">
    <path d="M 92.290909 165.281311 
L 92.767222 176.848525 
L 93.243534 133.88459 
L 93.719846 163.628852 
L 94.196159 183.458361 
L 94.672471 178.500984 
L 95.148784 154.540328 
L 95.625096 170.238689 
L 96.101408 209.897705 
L 96.577721 320.612459 
L 97.054033 280.953443 
L 97.530346 275.996066 
L 98.006658 237.163279 
L 98.482971 249.556721 
L 98.959283 271.864918 
L 99.435595 276.822295 
L 99.911908 289.215738 
L 100.38822 240.468197 
L 100.864533 211.550164 
L 101.340845 218.98623 
L 101.817157 195.851803 
L 102.29347 192.546885 
L 102.769782 185.937049 
L 103.246095 160.323934 
L 103.722407 152.887869 
L 104.19872 223.117377 
L 104.675032 243.773115 
L 105.151344 199.982951 
L 105.627657 193.373115 
L 106.103969 179.327213 
L 106.580282 141.320656 
L 107.056594 146.278033 
L 107.532907 195.025574 
L 108.009219 223.117377 
L 108.485531 337.137049 
L 108.961844 229.727213 
L 109.438156 268.56 
L 109.914469 296.651803 
L 110.390781 271.038689 
L 110.867093 266.081311 
L 111.343406 242.946885 
L 111.819718 317.307541 
L 112.296031 286.737049 
L 112.772343 201.63541 
L 113.248656 208.245246 
L 113.724968 171.891148 
L 114.20128 263.602623 
L 114.677593 261.950164 
L 115.153905 275.169836 
L 115.630218 190.894426 
L 116.10653 174.369836 
L 116.582843 185.937049 
L 117.059155 171.064918 
L 117.535467 208.245246 
L 118.01178 285.08459 
L 118.488092 320.612459 
L 118.964405 250.382951 
L 119.917029 299.130492 
L 120.393342 290.041967 
L 120.869654 273.517377 
L 121.345967 281.779672 
L 121.822279 230.553443 
L 122.298592 192.546885 
L 122.774904 260.297705 
L 123.251216 239.641967 
L 123.727529 253.687869 
L 124.203841 240.468197 
L 124.680154 261.950164 
L 125.156466 198.330492 
L 125.632778 220.638689 
L 126.109091 231.379672 
L 126.585403 169.412459 
L 127.061716 186.763279 
L 127.538028 238.815738 
L 128.014341 237.163279 
L 128.490653 210.723934 
L 128.966965 211.550164 
L 129.443278 233.032131 
L 129.91959 305.740328 
L 130.395903 358.619016 
L 130.872215 275.996066 
L 131.348528 280.953443 
L 131.82484 334.658361 
L 132.301152 236.337049 
L 132.777465 225.596066 
L 133.253777 218.98623 
L 133.73009 227.248525 
L 134.206402 182.632131 
L 134.682714 195.025574 
L 135.159027 263.602623 
L 135.635339 309.045246 
L 136.587964 204.114098 
L 137.064277 281.779672 
L 137.540589 335.48459 
L 138.016901 326.396066 
L 138.493214 276.822295 
L 138.969526 246.251803 
L 139.445839 200.80918 
L 140.398464 259.471475 
L 140.874776 236.337049 
L 141.351088 188.415738 
L 141.827401 267.73377 
L 142.303713 249.556721 
L 142.780026 305.740328 
L 143.256338 308.219016 
L 143.73265 230.553443 
L 144.208963 194.199344 
L 144.685275 282.605902 
L 145.161588 294.999344 
L 145.6379 237.163279 
L 146.114213 241.294426 
L 146.590525 227.248525 
L 147.066837 204.940328 
L 147.54315 200.80918 
L 148.019462 192.546885 
L 148.495775 168.58623 
L 148.972087 157.845246 
L 149.448399 282.605902 
L 149.924712 369.36 
L 150.401024 322.264918 
L 150.877337 228.900984 
L 151.353649 266.907541 
L 151.829962 234.68459 
L 152.782586 115.707541 
L 153.258899 114.055082 
L 154.211524 257.819016 
L 154.687836 276.822295 
L 156.593086 191.720656 
L 157.069398 233.032131 
L 157.545711 239.641967 
L 158.022023 193.373115 
L 158.498335 176.848525 
L 158.974648 198.330492 
L 159.45096 181.805902 
L 159.927273 177.674754 
L 160.403585 157.845246 
L 160.879898 315.655082 
L 161.35621 363.576393 
L 161.832522 344.573115 
L 162.308835 204.940328 
L 162.785147 176.022295 
L 163.26146 123.143607 
L 163.737772 167.76 
L 164.214085 199.156721 
L 164.690397 185.11082 
L 165.166709 142.146885 
L 165.643022 172.717377 
L 166.119334 262.776393 
L 166.595647 285.08459 
L 167.071959 266.907541 
L 167.548271 330.527213 
L 168.024584 287.563279 
L 168.500896 261.950164 
L 168.977209 285.08459 
L 169.453521 248.730492 
L 169.929834 195.851803 
L 170.406146 183.458361 
L 170.882458 181.805902 
L 171.358771 239.641967 
L 171.835083 199.982951 
L 172.311396 208.245246 
L 172.787708 204.940328 
L 173.26402 171.891148 
L 173.740333 301.60918 
L 174.216645 275.169836 
L 174.692958 278.474754 
L 175.16927 226.422295 
L 175.645583 141.320656 
L 176.121895 177.674754 
L 176.598207 136.363279 
L 177.07452 157.845246 
L 178.027145 130.579672 
L 178.503457 107.445246 
L 179.456082 170.238689 
L 179.932394 128.100984 
L 180.408707 209.897705 
L 180.885019 181.805902 
L 181.361332 180.153443 
L 181.837644 143.799344 
L 182.313956 144.625574 
L 182.790269 148.756721 
L 183.266581 157.845246 
L 183.742894 151.23541 
L 184.219206 188.415738 
L 184.695519 210.723934 
L 185.171831 147.930492 
L 185.648143 119.012459 
L 186.124456 140.494426 
L 186.600768 147.930492 
L 187.077081 157.845246 
L 187.553393 185.937049 
L 188.029706 156.192787 
L 188.506018 112.402623 
L 188.98233 149.582951 
L 189.458643 200.80918 
L 189.934955 175.196066 
L 190.411268 185.937049 
L 190.88758 185.11082 
L 191.363892 164.455082 
L 191.840205 89.268197 
L 192.316517 130.579672 
L 192.79283 218.98623 
L 193.269142 204.114098 
L 193.745455 195.851803 
L 194.221767 190.068197 
L 194.698079 199.982951 
L 195.174392 189.241967 
L 195.650704 187.589508 
L 196.127017 162.802623 
L 196.603329 109.097705 
L 197.079641 152.061639 
L 197.555954 131.405902 
L 198.032266 119.838689 
L 198.508579 129.753443 
L 198.984891 132.232131 
L 199.461204 146.278033 
L 199.937516 140.494426 
L 200.413828 143.799344 
L 200.890141 138.841967 
L 201.366453 127.274754 
L 201.842766 125.622295 
L 202.319078 177.674754 
L 202.795391 142.146885 
L 203.271703 149.582951 
L 203.748015 137.189508 
L 204.224328 133.88459 
L 204.70064 140.494426 
L 205.176953 110.750164 
L 205.653265 108.271475 
L 206.129577 83.48459 
L 206.60589 66.96 
L 207.082202 76.874754 
L 207.558515 129.753443 
L 208.034827 162.802623 
L 208.51114 150.40918 
L 209.463764 133.058361 
L 209.940077 130.579672 
L 210.416389 120.664918 
L 210.892702 131.405902 
L 211.369014 120.664918 
L 211.845327 115.707541 
L 212.321639 97.530492 
L 212.797951 136.363279 
L 213.750576 102.487869 
L 214.226889 123.969836 
L 214.703201 171.064918 
L 215.179513 147.930492 
L 215.655826 142.973115 
L 216.132138 139.668197 
L 216.608451 138.015738 
L 217.084763 128.100984 
L 217.561076 132.232131 
L 218.037388 148.756721 
L 218.5137 135.537049 
L 218.990013 127.274754 
L 219.466325 115.707541 
L 219.942638 126.448525 
L 220.41895 128.100984 
L 220.895262 94.225574 
L 221.371575 91.746885 
L 221.847887 88.441967 
L 222.3242 97.530492 
L 222.800512 117.36 
L 223.276825 113.228852 
L 223.753137 102.487869 
L 224.705762 117.36 
L 225.182074 113.228852 
L 225.658387 117.36 
L 226.134699 112.402623 
L 226.611012 114.055082 
L 227.087324 104.140328 
L 227.563636 117.36 
L 228.039949 127.274754 
L 228.516261 171.064918 
L 228.992574 136.363279 
L 229.468886 140.494426 
L 229.945198 138.015738 
L 230.421511 115.707541 
L 230.897823 121.491148 
L 231.374136 113.228852 
L 231.850448 114.055082 
L 232.326761 109.923934 
L 233.279385 104.966557 
L 233.755698 99.182951 
L 234.23201 97.530492 
L 234.708323 98.356721 
L 235.184635 109.097705 
L 235.660948 87.615738 
L 236.613572 98.356721 
L 237.089885 100.00918 
L 237.566197 84.31082 
L 238.04251 89.268197 
L 238.518822 99.182951 
L 238.995134 90.094426 
L 239.471447 90.094426 
L 239.947759 100.83541 
L 240.424072 97.530492 
L 240.900384 108.271475 
L 241.376697 109.097705 
L 241.853009 119.012459 
L 242.329321 110.750164 
L 242.805634 95.051803 
L 243.281946 103.314098 
L 243.758259 106.619016 
L 244.234571 100.83541 
L 244.710883 109.097705 
L 245.187196 140.494426 
L 245.663508 127.274754 
L 246.139821 129.753443 
L 246.616133 140.494426 
L 247.092446 133.88459 
L 247.568758 124.796066 
L 248.04507 146.278033 
L 248.521383 223.943607 
L 248.997695 260.297705 
L 249.474008 157.019016 
L 249.95032 154.540328 
L 250.426633 150.40918 
L 250.902945 161.976393 
L 251.379257 152.061639 
L 251.85557 151.23541 
L 252.808195 138.015738 
L 253.284507 133.88459 
L 253.760819 145.451803 
L 254.237132 152.887869 
L 254.713444 152.887869 
L 255.189757 154.540328 
L 255.666069 148.756721 
L 256.142382 150.40918 
L 256.618694 142.146885 
L 257.095006 142.973115 
L 257.571319 146.278033 
L 258.047631 146.278033 
L 258.523944 154.540328 
L 259.000256 166.93377 
L 259.476569 149.582951 
L 259.952881 161.976393 
L 260.429193 157.019016 
L 260.905506 153.714098 
L 261.381818 135.537049 
L 261.858131 128.927213 
L 262.334443 133.058361 
L 262.810755 166.93377 
L 263.287068 148.756721 
L 263.76338 140.494426 
L 264.239693 175.196066 
L 264.716005 236.337049 
L 265.192318 180.153443 
L 266.144942 145.451803 
L 266.621255 195.851803 
L 267.57388 167.76 
L 268.050192 119.012459 
L 268.526504 167.76 
L 269.002817 143.799344 
L 269.479129 182.632131 
L 269.955442 172.717377 
L 270.431754 176.848525 
L 270.908067 222.291148 
L 271.384379 221.464918 
L 271.860691 176.848525 
L 272.337004 190.068197 
L 272.813316 186.763279 
L 273.289629 202.461639 
L 273.765941 273.517377 
L 274.718566 226.422295 
L 275.194878 245.425574 
L 275.671191 176.848525 
L 276.147503 172.717377 
L 276.623816 199.982951 
L 277.100128 156.192787 
L 277.57644 283.432131 
L 278.052753 280.953443 
L 278.529065 266.907541 
L 279.005378 185.11082 
L 279.48169 342.094426 
L 279.958003 348.704262 
L 280.434315 239.641967 
L 280.910627 254.514098 
L 281.38694 249.556721 
L 281.863252 186.763279 
L 282.339565 202.461639 
L 282.815877 187.589508 
L 283.29219 209.071475 
L 283.768502 179.327213 
L 284.244814 187.589508 
L 284.721127 262.776393 
L 285.673752 152.887869 
L 286.150064 145.451803 
L 286.626376 218.16 
L 287.102689 228.900984 
L 287.579001 192.546885 
L 288.055314 128.927213 
L 288.531626 220.638689 
L 289.007939 239.641967 
L 289.960563 182.632131 
L 290.436876 185.11082 
L 290.913188 181.805902 
L 291.389501 218.98623 
L 291.865813 194.199344 
L 292.342125 149.582951 
L 292.818438 251.20918 
L 293.29475 283.432131 
L 293.771063 262.776393 
L 294.247375 161.150164 
L 294.723688 157.845246 
L 295.2 127.274754 
L 295.676312 139.668197 
L 296.152625 285.08459 
L 296.628937 299.130492 
L 297.10525 285.91082 
L 297.581562 282.605902 
L 298.057875 283.432131 
L 298.534187 218.98623 
L 299.010499 214.028852 
L 299.486812 214.028852 
L 299.963124 186.763279 
L 300.915749 253.687869 
L 301.392061 157.845246 
L 301.868374 225.596066 
L 302.820999 313.176393 
L 303.297311 294.999344 
L 303.773624 218.98623 
L 304.249936 251.20918 
L 304.726248 237.163279 
L 305.202561 214.855082 
L 305.678873 186.763279 
L 306.155186 246.251803 
L 306.631498 256.166557 
L 307.10781 217.33377 
L 307.584123 206.592787 
L 308.060435 215.681311 
L 308.536748 242.120656 
L 309.489373 196.678033 
L 309.965685 218.16 
L 310.441997 231.379672 
L 310.91831 254.514098 
L 311.394622 212.376393 
L 311.870935 276.822295 
L 312.82356 317.307541 
L 313.299872 275.996066 
L 313.776184 204.114098 
L 314.252497 246.251803 
L 314.728809 269.38623 
L 315.205122 175.196066 
L 315.681434 185.11082 
L 316.157746 172.717377 
L 317.110371 290.041967 
L 318.539309 233.032131 
L 319.015621 202.461639 
L 319.491933 162.802623 
L 319.968246 265.255082 
L 320.444558 224.769836 
L 320.920871 196.678033 
L 321.397183 192.546885 
L 321.873496 174.369836 
L 322.349808 148.756721 
L 322.82612 230.553443 
L 323.302433 289.215738 
L 323.778745 261.123934 
L 324.255058 316.481311 
L 325.207682 190.068197 
L 325.683995 164.455082 
L 326.160307 159.497705 
L 326.63662 256.992787 
L 327.112932 304.087869 
L 327.589245 325.569836 
L 328.541869 208.245246 
L 329.018182 171.891148 
L 329.494494 161.976393 
L 329.970807 270.212459 
L 330.447119 264.428852 
L 330.923431 220.638689 
L 331.399744 214.855082 
L 331.876056 152.061639 
L 332.352369 110.750164 
L 332.828681 223.117377 
L 333.304994 161.976393 
L 333.781306 214.028852 
L 334.257618 219.812459 
L 334.733931 237.989508 
L 335.210243 239.641967 
L 335.686556 219.812459 
L 336.162868 222.291148 
L 336.639181 179.327213 
L 337.115493 164.455082 
L 337.591805 138.015738 
L 338.068118 143.799344 
L 338.54443 209.071475 
L 339.020743 217.33377 
L 339.497055 166.93377 
L 339.973367 164.455082 
L 340.44968 125.622295 
L 340.925992 213.202623 
L 341.402305 277.648525 
L 342.35493 186.763279 
L 342.831242 110.750164 
L 343.307554 114.055082 
L 343.783867 114.881311 
L 344.260179 96.704262 
L 344.736492 130.579672 
L 345.212804 226.422295 
L 346.165429 151.23541 
L 346.641741 197.504262 
L 347.118054 157.019016 
L 347.594366 185.937049 
L 348.546991 264.428852 
L 349.499616 180.153443 
L 349.975928 123.143607 
L 350.452241 119.012459 
L 350.928553 176.022295 
L 351.404866 169.412459 
L 351.881178 114.881311 
L 352.35749 161.976393 
L 352.833803 242.120656 
L 353.310115 286.737049 
L 353.786428 261.950164 
L 354.26274 162.802623 
L 354.739052 177.674754 
L 355.215365 105.792787 
L 355.691677 121.491148 
L 356.16799 142.973115 
L 356.644302 122.317377 
L 357.120615 115.707541 
L 357.596927 100.00918 
L 358.073239 139.668197 
L 358.549552 222.291148 
L 359.025864 161.976393 
L 359.978489 101.661639 
L 360.454802 180.979672 
L 360.931114 143.799344 
L 361.407426 134.71082 
L 361.883739 129.753443 
L 362.836364 106.619016 
L 363.312676 141.320656 
L 363.788988 147.930492 
L 364.265301 126.448525 
L 364.741613 218.16 
L 365.217926 223.943607 
L 365.694238 186.763279 
L 366.170551 160.323934 
L 366.646863 151.23541 
L 367.123175 152.887869 
L 368.0758 141.320656 
L 368.552113 142.973115 
L 369.504738 114.881311 
L 369.98105 137.189508 
L 370.457362 153.714098 
L 370.933675 136.363279 
L 371.409987 144.625574 
L 371.8863 142.973115 
L 372.362612 156.192787 
L 372.838924 186.763279 
L 373.791549 125.622295 
L 374.267862 171.891148 
L 374.744174 173.543607 
L 375.220487 172.717377 
L 375.696799 174.369836 
L 376.173111 174.369836 
L 376.649424 154.540328 
L 377.125736 147.104262 
L 377.602049 148.756721 
L 378.554673 124.796066 
L 379.030986 109.097705 
L 379.507298 109.923934 
L 379.983611 135.537049 
L 380.459923 221.464918 
L 380.936236 164.455082 
L 381.88886 156.192787 
L 382.365173 161.150164 
L 382.841485 157.845246 
L 383.317798 148.756721 
L 383.79411 145.451803 
L 384.270423 149.582951 
L 384.746735 147.930492 
L 385.223047 135.537049 
L 385.69936 126.448525 
L 386.175672 131.405902 
L 386.651985 128.100984 
L 387.128297 154.540328 
L 387.604609 168.58623 
L 388.080922 167.76 
L 388.557234 165.281311 
L 389.033547 135.537049 
L 389.509859 167.76 
L 389.986172 133.058361 
L 390.462484 135.537049 
L 390.938796 127.274754 
L 391.415109 115.707541 
L 391.891421 112.402623 
L 392.367734 115.707541 
L 392.844046 123.969836 
L 393.320359 151.23541 
L 393.796671 109.097705 
L 394.272983 107.445246 
L 394.749296 104.140328 
L 395.701921 90.920656 
L 396.178233 101.661639 
L 396.654545 120.664918 
L 397.130858 107.445246 
L 397.60717 115.707541 
L 398.559795 163.628852 
L 399.036108 137.189508 
L 399.51242 139.668197 
L 399.988732 136.363279 
L 400.465045 119.012459 
L 400.941357 105.792787 
L 401.41767 138.841967 
L 401.893982 193.373115 
L 402.370294 215.681311 
L 402.846607 218.98623 
L 403.322919 169.412459 
L 403.799232 160.323934 
L 404.275544 142.973115 
L 404.751857 156.192787 
L 405.228169 130.579672 
L 405.704481 132.232131 
L 406.180794 138.841967 
L 406.657106 139.668197 
L 407.133419 152.061639 
L 407.609731 148.756721 
L 408.562356 138.841967 
L 409.038668 136.363279 
L 409.514981 131.405902 
L 409.991293 132.232131 
L 410.467606 138.015738 
L 410.943918 138.841967 
L 411.42023 128.100984 
L 411.896543 143.799344 
L 412.849168 133.058361 
L 413.32548 110.750164 
L 413.801793 114.055082 
L 414.278105 136.363279 
L 414.754417 131.405902 
L 415.23073 117.36 
L 415.707042 114.055082 
L 416.659667 128.927213 
L 417.13598 119.012459 
L 417.612292 116.53377 
L 418.088604 158.671475 
L 418.564917 157.845246 
L 419.041229 128.927213 
L 419.517542 129.753443 
L 419.993854 210.723934 
L 420.470166 223.117377 
L 420.946479 160.323934 
L 421.422791 171.064918 
L 421.899104 178.500984 
L 422.851729 86.789508 
L 423.328041 105.792787 
L 423.804353 104.966557 
L 424.756978 104.966557 
L 425.233291 115.707541 
L 425.709603 106.619016 
L 426.185915 114.055082 
L 426.662228 114.055082 
L 427.13854 111.576393 
L 427.614853 112.402623 
L 428.091165 112.402623 
L 428.567478 119.838689 
L 429.520102 90.094426 
L 430.94904 114.881311 
L 431.425352 119.012459 
L 431.901665 115.707541 
L 432.377977 117.36 
L 432.854289 104.966557 
L 433.330602 97.530492 
L 433.806914 109.097705 
L 434.283227 124.796066 
L 434.759539 119.838689 
L 435.235851 144.625574 
L 435.712164 140.494426 
L 436.188476 129.753443 
L 436.664789 115.707541 
L 437.141101 114.055082 
L 437.617414 120.664918 
L 438.570038 105.792787 
L 439.046351 129.753443 
L 439.522663 113.228852 
L 439.998976 127.274754 
L 440.475288 144.625574 
L 440.951601 130.579672 
L 441.427913 126.448525 
L 441.904225 120.664918 
L 442.380538 137.189508 
L 442.85685 160.323934 
L 443.333163 152.887869 
L 443.809475 137.189508 
L 444.285787 145.451803 
L 444.7621 181.805902 
L 445.238412 205.766557 
L 445.714725 191.720656 
L 446.191037 149.582951 
L 446.66735 136.363279 
L 447.143662 135.537049 
L 447.619974 143.799344 
L 448.096287 139.668197 
L 448.572599 145.451803 
L 449.525224 152.887869 
L 450.001536 156.192787 
L 450.477849 162.802623 
L 450.954161 148.756721 
L 451.430474 150.40918 
L 451.906786 150.40918 
L 452.383099 149.582951 
L 452.859411 153.714098 
L 453.335723 142.973115 
L 453.812036 149.582951 
L 454.288348 148.756721 
L 454.764661 140.494426 
L 455.240973 161.150164 
L 455.717286 161.976393 
L 456.193598 171.064918 
L 456.66991 173.543607 
L 457.146223 158.671475 
L 457.622535 161.976393 
L 458.098848 177.674754 
L 458.57516 204.114098 
L 459.051472 218.98623 
L 459.527785 184.28459 
L 460.004097 220.638689 
L 460.48041 211.550164 
L 460.956722 228.074754 
L 461.433035 185.937049 
L 461.909347 219.812459 
L 462.385659 210.723934 
L 462.861972 142.146885 
L 463.338284 125.622295 
L 463.814597 158.671475 
L 464.290909 163.628852 
L 464.767222 156.192787 
L 465.243534 158.671475 
L 465.719846 275.996066 
L 466.672471 196.678033 
L 467.148784 176.022295 
L 467.625096 162.802623 
L 468.101408 190.068197 
L 468.577721 135.537049 
L 469.054033 190.068197 
L 469.530346 200.80918 
L 470.006658 188.415738 
L 470.482971 170.238689 
L 470.959283 200.80918 
L 471.435595 203.287869 
L 471.911908 239.641967 
L 472.38822 219.812459 
L 472.864533 242.946885 
L 473.340845 186.763279 
L 473.817157 152.061639 
L 474.29347 184.28459 
L 474.769782 161.150164 
L 475.246095 176.848525 
L 476.19872 196.678033 
L 476.675032 181.805902 
L 477.151344 148.756721 
L 477.627657 256.166557 
L 478.103969 270.212459 
L 478.580282 184.28459 
L 479.532907 314.002623 
L 480.009219 337.137049 
L 480.485531 329.700984 
L 480.961844 345.399344 
L 481.438156 366.881311 
L 481.914469 338.789508 
L 482.390781 295.825574 
L 482.867093 290.041967 
L 483.343406 199.156721 
L 483.819718 271.864918 
L 484.296031 242.946885 
L 484.772343 162.802623 
L 485.248656 202.461639 
L 485.724968 153.714098 
L 486.20128 208.245246 
L 486.677593 311.523934 
L 487.153905 237.989508 
L 487.630218 255.340328 
L 488.10653 226.422295 
L 488.582843 224.769836 
L 489.059155 202.461639 
L 489.535467 215.681311 
L 490.01178 210.723934 
L 490.488092 209.897705 
L 490.964405 223.117377 
L 491.440717 159.497705 
L 491.917029 223.117377 
L 492.393342 231.379672 
L 492.869654 214.028852 
L 493.345967 295.825574 
L 493.822279 337.963279 
L 494.298592 247.078033 
L 494.774904 210.723934 
L 495.251216 322.264918 
L 495.727529 193.373115 
L 496.203841 133.058361 
L 496.680154 129.753443 
L 497.156466 98.356721 
L 497.632778 110.750164 
L 498.109091 175.196066 
L 498.109091 175.196066 
" clip-path="url(#p621eb1cfe8)" style="fill: none; stroke: #1f77b4; stroke-width: 1.5; stroke-linecap: round"/>
   </g>
   <g id="line2d_15">
    <path d="M 92.290909 174.320262 
L 92.767222 174.882098 
L 93.243534 154.408131 
L 93.719846 171.064918 
L 94.196159 170.503082 
L 94.672471 169.263738 
L 95.148784 172.766951 
L 95.625096 170.841836 
L 96.101408 224.431082 
L 96.577721 258.182557 
L 97.054033 249.19318 
L 97.530346 233.982295 
L 98.006658 225.686951 
L 98.482971 215.144262 
L 98.959283 217.375082 
L 99.435595 236.750164 
L 99.911908 239.65023 
L 100.38822 249.044459 
L 100.864533 227.190689 
L 101.340845 221.663213 
L 101.817157 214.243672 
L 102.29347 217.879082 
L 102.769782 192.249443 
L 103.246095 195.099934 
L 103.722407 182.48341 
L 104.19872 220.308197 
L 104.675032 215.202098 
L 105.151344 221.729311 
L 105.627657 218.630951 
L 106.103969 196.59541 
L 106.580282 193.670557 
L 107.056594 195.69482 
L 107.532907 200.990951 
L 108.009219 218.465705 
L 108.485531 250.944787 
L 108.961844 261.256131 
L 109.438156 256.587934 
L 109.914469 265.82518 
L 110.867093 240.526033 
L 111.343406 263.321705 
L 111.819718 267.998164 
L 112.296031 264.998951 
L 112.772343 226.785836 
L 113.248656 220.349508 
L 113.724968 218.151738 
L 114.677593 251.010885 
L 115.153905 249.317115 
L 115.630218 226.761049 
L 116.10653 231.065705 
L 116.582843 223.571803 
L 117.059155 220.341246 
L 117.535467 229.082754 
L 118.01178 225.141639 
L 118.488092 247.887738 
L 118.964405 235.469508 
L 119.440717 233.040393 
L 119.917029 271.385705 
L 120.393342 256.35659 
L 120.869654 255.885639 
L 121.345967 245.185967 
L 121.822279 250.688656 
L 122.774904 213.086951 
L 123.251216 232.395934 
L 123.727529 240.674754 
L 124.203841 227.157639 
L 124.680154 261.413115 
L 125.156466 216.995016 
L 125.632778 192.984787 
L 126.109091 233.701377 
L 126.585403 215.871344 
L 127.061716 209.48459 
L 127.538028 231.569705 
L 128.014341 236.006557 
L 128.490653 214.582426 
L 128.966965 222.37377 
L 129.443278 236.072656 
L 130.395903 286.894033 
L 130.872215 285.035016 
L 131.348528 269.105311 
L 131.82484 280.317246 
L 132.301152 276.310033 
L 132.777465 234.511082 
L 133.253777 239.592393 
L 133.73009 249.094033 
L 134.206402 219.159738 
L 134.682714 212.054164 
L 135.159027 234.081443 
L 135.635339 264.428852 
L 136.111652 249.027934 
L 136.587964 209.757246 
L 137.064277 243.194754 
L 137.540589 239.443672 
L 138.016901 258.207344 
L 138.493214 260.041574 
L 138.969526 232.437246 
L 139.445839 236.105705 
L 139.922151 223.117377 
L 140.398464 236.741902 
L 140.874776 257.843803 
L 141.351088 232.305049 
L 141.827401 248.895738 
L 142.303713 270.25377 
L 142.780026 254.183607 
L 143.256338 265.808656 
L 143.73265 224.546754 
L 144.208963 249.680656 
L 144.685275 249.936787 
L 145.161588 263.272131 
L 145.6379 255.282492 
L 146.114213 241.798426 
L 146.590525 236.370098 
L 147.54315 209.996852 
L 148.019462 205.246033 
L 148.495775 202.122885 
L 148.972087 193.835803 
L 149.448399 250.696918 
L 149.924712 259.256656 
L 150.401024 264.841967 
L 150.877337 250.374689 
L 151.353649 214.822033 
L 151.829962 233.701377 
L 152.306274 221.324459 
L 153.258899 182.532984 
L 153.735211 198.033049 
L 154.687836 270.749508 
L 155.164149 250.09377 
L 155.640461 249.80459 
L 156.116773 218.672262 
L 156.593086 212.533377 
L 157.069398 198.983213 
L 157.545711 222.712525 
L 158.022023 206.452328 
L 158.498335 195.670033 
L 158.974648 191.720656 
L 159.45096 191.307541 
L 159.927273 186.077508 
L 160.403585 183.590557 
L 160.879898 245.491672 
L 161.35621 245.979148 
L 161.832522 259.413639 
L 162.308835 247.243279 
L 162.785147 200.974426 
L 163.26146 198.024787 
L 163.737772 200.676984 
L 164.214085 195.66177 
L 164.690397 192.175082 
L 165.166709 171.064918 
L 165.643022 175.724852 
L 166.119334 218.308721 
L 166.595647 240.369049 
L 167.071959 241.120918 
L 167.548271 240.030295 
L 168.024584 245.574295 
L 168.500896 221.440131 
L 168.977209 212.186361 
L 169.453521 238.328262 
L 169.929834 208.807082 
L 170.406146 190.340852 
L 170.882458 183.954098 
L 171.358771 200.057311 
L 171.835083 199.11541 
L 172.311396 215.557377 
L 172.787708 221.919344 
L 173.26402 208.146098 
L 173.740333 240.831738 
L 174.216645 249.383213 
L 174.692958 263.933115 
L 175.645583 181.946361 
L 176.121895 182.929574 
L 176.598207 190.820066 
L 177.07452 190.588721 
L 177.550832 179.021508 
L 178.027145 181.376262 
L 178.503457 188.870164 
L 178.97977 183.937574 
L 179.456082 181.500197 
L 179.932394 175.700066 
L 180.408707 192.728656 
L 180.885019 200.577836 
L 181.361332 176.600656 
L 181.837644 173.956721 
L 182.313956 168.264 
L 182.790269 164.355934 
L 183.266581 171.57718 
L 183.742894 162.339934 
L 184.695519 176.03882 
L 185.171831 177.616918 
L 185.648143 160.571803 
L 186.124456 163.075279 
L 186.600768 169.280262 
L 187.077081 168.734951 
L 187.553393 171.023607 
L 188.506018 143.121836 
L 189.458643 166.413246 
L 189.934955 162.529967 
L 190.411268 160.009967 
L 190.88758 162.777836 
L 191.363892 157.167738 
L 191.840205 136.131934 
L 192.316517 148.781508 
L 192.79283 198.884066 
L 193.269142 193.802754 
L 193.745455 179.864262 
L 194.221767 161.827672 
L 195.174392 172.527344 
L 195.650704 161.398033 
L 196.127017 163.529705 
L 196.603329 135.578361 
L 197.079641 148.748459 
L 197.555954 137.139934 
L 198.032266 134.091148 
L 198.508579 139.552525 
L 198.984891 137.990951 
L 199.461204 138.065311 
L 199.937516 139.618623 
L 200.413828 140.692721 
L 200.890141 139.32118 
L 201.366453 138.519738 
L 201.842766 136.454164 
L 202.319078 151.210623 
L 202.795391 138.601287 
L 203.271703 141.865967 
L 203.748015 138.362754 
L 204.224328 142.038401 
L 204.70064 137.726557 
L 205.176953 134.81823 
L 206.129577 110.750164 
L 206.60589 117.905311 
L 207.082202 111.700328 
L 208.034827 160.48918 
L 208.51114 159.216787 
L 208.987452 140.498392 
L 209.463764 138.37713 
L 209.940077 132.619385 
L 210.416389 124.870426 
L 210.892702 121.334164 
L 211.369014 121.739016 
L 211.845327 122.978361 
L 212.321639 109.419934 
L 212.797951 129.530361 
L 213.274264 119.607344 
L 213.750576 112.774426 
L 214.226889 119.070295 
L 214.703201 158.894557 
L 215.179513 138.122073 
L 215.655826 137.361942 
L 216.132138 136.146311 
L 216.608451 134.049836 
L 217.561076 141.94859 
L 218.037388 146.707672 
L 218.5137 138.007475 
L 219.466325 124.911738 
L 219.942638 129.902164 
L 220.41895 125.911475 
L 220.895262 110.444459 
L 221.371575 109.684328 
L 221.847887 106.891672 
L 222.3242 133.479738 
L 222.800512 137.833967 
L 223.276825 116.418098 
L 223.753137 119.103344 
L 224.229449 106.858623 
L 224.705762 120.326164 
L 225.182074 116.723803 
L 225.658387 117.591344 
L 226.611012 114.559082 
L 227.087324 109.229902 
L 227.563636 132.050361 
L 228.039949 141.368081 
L 228.516261 161.654164 
L 228.992574 138.461902 
L 229.468886 133.999188 
L 229.945198 132.339541 
L 230.421511 126.737705 
L 230.897823 127.62177 
L 231.374136 122.771803 
L 231.850448 120.425311 
L 232.326761 121.772066 
L 232.803073 111.576393 
L 233.279385 119.689967 
L 233.755698 106.966033 
L 234.23201 104.313836 
L 234.708323 104.908721 
L 235.184635 108.982033 
L 235.660948 107.147803 
L 236.13726 107.238689 
L 236.613572 106.123279 
L 237.566197 108.263213 
L 238.04251 108.031869 
L 238.995134 114.575607 
L 239.471447 109.899148 
L 239.947759 116.872525 
L 240.424072 118.227541 
L 240.900384 117.616131 
L 241.376697 117.880525 
L 241.853009 119.822164 
L 242.329321 117.880525 
L 242.805634 131.91709 
L 243.281946 132.455213 
L 243.758259 136.69377 
L 244.234571 117.707016 
L 244.710883 119.409049 
L 245.187196 134.372066 
L 246.139821 121.524197 
L 246.616133 127.977049 
L 247.092446 132.29823 
L 247.568758 128.28168 
L 248.04507 133.917639 
L 248.521383 196.27318 
L 248.997695 195.959213 
L 249.474008 130.546623 
L 249.95032 163.149639 
L 250.426633 172.808262 
L 251.379257 162.959607 
L 251.85557 154.854295 
L 252.331882 154.83777 
L 252.808195 144.344656 
L 253.284507 144.559475 
L 253.760819 150.880131 
L 254.237132 154.903869 
L 254.713444 152.193836 
L 256.142382 155.531803 
L 256.618694 149.839082 
L 257.095006 150.888393 
L 257.571319 148.112262 
L 258.047631 151.92118 
L 258.523944 168.37141 
L 259.000256 166.421508 
L 259.476569 157.093377 
L 259.952881 166.115803 
L 260.429193 163.182689 
L 260.905506 168.710164 
L 261.381818 147.608262 
L 261.858131 147.368656 
L 262.334443 153.416656 
L 262.810755 165.45482 
L 263.287068 162.059016 
L 263.76338 144.650361 
L 264.716005 215.127738 
L 265.192318 212.21941 
L 265.66863 169.734689 
L 266.144942 155.060852 
L 266.621255 175.997508 
L 267.097567 179.153705 
L 267.57388 174.52682 
L 268.050192 152.326033 
L 268.526504 167.603016 
L 269.002817 155.366557 
L 269.479129 178.16223 
L 269.955442 180.012984 
L 270.431754 173.527082 
L 270.908067 218.193049 
L 271.384379 237.592918 
L 271.860691 213.888393 
L 272.337004 196.27318 
L 272.813316 185.887475 
L 273.289629 204.527213 
L 273.765941 246.59882 
L 274.242254 229.793311 
L 274.718566 204.750295 
L 275.194878 234.288 
L 275.671191 195.785705 
L 276.147503 179.236328 
L 276.623816 202.007213 
L 277.100128 184.185443 
L 277.57644 240.170754 
L 278.052753 229.198426 
L 278.529065 233.519607 
L 279.005378 222.852984 
L 279.48169 292.42977 
L 279.958003 286.373508 
L 280.910627 238.890098 
L 281.38694 240.583869 
L 281.863252 226.257049 
L 282.339565 218.540066 
L 282.815877 207.121574 
L 283.29219 214.95423 
L 283.768502 198.694033 
L 284.244814 198.545311 
L 284.721127 229.190164 
L 285.197439 220.795672 
L 285.673752 208.170885 
L 286.150064 205.865705 
L 286.626376 208.253508 
L 287.102689 229.586754 
L 287.579001 217.284197 
L 288.055314 194.538098 
L 288.531626 209.30282 
L 289.007939 234.651541 
L 289.484251 240.410361 
L 289.960563 212.153311 
L 290.436876 208.154361 
L 290.913188 200.767869 
L 291.389501 201.404066 
L 291.865813 222.225049 
L 292.342125 206.551475 
L 292.818438 211.574951 
L 293.29475 245.706492 
L 293.771063 258.108197 
L 294.247375 213.33482 
L 294.723688 200.710033 
L 295.2 199.082361 
L 295.676312 200.30518 
L 296.152625 251.514885 
L 296.628937 254.018361 
L 297.10525 252.737705 
L 297.581562 256.273967 
L 298.057875 251.473574 
L 298.534187 217.209836 
L 299.010499 239.303213 
L 299.486812 231.214426 
L 299.963124 214.797246 
L 300.439437 215.706098 
L 300.915749 220.886557 
L 301.392061 207.980852 
L 301.868374 217.994754 
L 302.820999 255.596459 
L 303.297311 265.453377 
L 303.773624 254.811541 
L 304.249936 237.981246 
L 304.726248 229.099279 
L 305.202561 228.355672 
L 305.678873 221.167475 
L 306.155186 228.248262 
L 306.631498 238.947934 
L 307.10781 256.397902 
L 307.584123 238.386098 
L 308.060435 204.213246 
L 308.536748 231.15659 
L 309.01306 224.546754 
L 309.489373 214.912918 
L 309.965685 210.641311 
L 310.441997 213.202623 
L 311.394622 222.679475 
L 311.870935 251.490098 
L 312.82356 238.865311 
L 313.299872 268.692197 
L 313.776184 221.150951 
L 314.252497 221.274885 
L 314.728809 246.945836 
L 315.205122 214.301508 
L 315.681434 206.27882 
L 316.157746 205.427803 
L 316.634059 229.718951 
L 317.110371 265.899541 
L 317.586684 245.574295 
L 318.062996 214.491541 
L 318.539309 230.43777 
L 319.015621 231.396197 
L 319.491933 214.466754 
L 319.968246 255.976525 
L 320.444558 252.002361 
L 320.920871 236.667541 
L 321.397183 205.246033 
L 321.873496 200.30518 
L 322.349808 193.298754 
L 322.82612 247.664656 
L 323.302433 270.889967 
L 323.778745 221.836721 
L 324.255058 237.402885 
L 324.73137 239.088393 
L 325.207682 214.565902 
L 325.683995 210.616525 
L 326.160307 199.272393 
L 326.63662 231.999344 
L 327.112932 245.078557 
L 327.589245 248.713967 
L 328.065557 243.566557 
L 328.541869 241.922361 
L 329.018182 205.196459 
L 329.494494 205.16341 
L 329.970807 238.939672 
L 330.447119 242.864262 
L 330.923431 203.230033 
L 331.399744 222.258098 
L 331.876056 196.207082 
L 332.352369 197.413377 
L 332.828681 208.856656 
L 333.304994 202.21377 
L 333.781306 206.411016 
L 334.257618 199.627672 
L 334.733931 204.089311 
L 335.686556 208.154361 
L 336.162868 205.840918 
L 336.639181 186.680656 
L 337.115493 183.714492 
L 337.591805 194.281967 
L 338.068118 181.797639 
L 338.54443 188.969311 
L 339.020743 215.697836 
L 339.497055 182.855213 
L 339.973367 183.342689 
L 340.44968 185.433049 
L 341.878617 225.876984 
L 342.831242 173.48577 
L 343.307554 167.049443 
L 343.783867 176.228852 
L 344.260179 159.696 
L 344.736492 173.047869 
L 345.212804 192.77823 
L 345.689117 185.309115 
L 346.165429 170.412197 
L 346.641741 195.438689 
L 347.118054 172.419934 
L 347.594366 179.327213 
L 348.546991 226.075279 
L 349.023303 216.300984 
L 349.499616 174.733377 
L 349.975928 157.556066 
L 350.452241 159.819934 
L 350.928553 180.583082 
L 351.404866 179.864262 
L 351.881178 155.250885 
L 352.35749 164.612066 
L 352.833803 214.632 
L 353.310115 244.219279 
L 353.786428 226.678426 
L 354.26274 179.442885 
L 354.739052 176.451934 
L 355.215365 149.227672 
L 356.16799 156.762885 
L 356.644302 152.879607 
L 357.120615 136.049311 
L 357.596927 130.728393 
L 358.073239 156.721574 
L 358.549552 194.009311 
L 359.025864 165.124328 
L 359.502177 145.90623 
L 359.978489 135.933639 
L 360.454802 167.198164 
L 360.931114 165.520918 
L 361.407426 135.866467 
L 361.883739 144.385967 
L 362.360051 141.527213 
L 362.836364 145.179148 
L 363.312676 163.397508 
L 363.788988 156.06059 
L 364.265301 161.257574 
L 364.741613 191.687607 
L 365.217926 186.027934 
L 365.694238 167.991344 
L 366.170551 165.677902 
L 366.646863 164.52118 
L 367.123175 160.390033 
L 367.599488 147.376918 
L 368.0758 146.459803 
L 368.552113 155.548328 
L 369.504738 137.73482 
L 369.98105 139.569049 
L 370.457362 150.698361 
L 370.933675 142.369967 
L 371.409987 136.411778 
L 371.8863 153.061377 
L 372.838924 160.30741 
L 373.315237 154.275934 
L 373.791549 139.990426 
L 374.267862 167.47082 
L 374.744174 165.876197 
L 375.220487 169.734689 
L 375.696799 175.658754 
L 376.173111 165.190426 
L 376.649424 159.704262 
L 377.125736 148.888918 
L 377.602049 148.583213 
L 378.078361 140.519213 
L 379.030986 110.469246 
L 379.983611 145.203934 
L 380.459923 166.438033 
L 380.936236 155.515279 
L 381.412548 161.158426 
L 381.88886 169.445508 
L 382.365173 165.215213 
L 382.841485 153.259672 
L 383.79411 146.468066 
L 384.270423 153.391869 
L 384.746735 148.971541 
L 385.223047 148.244459 
L 385.69936 131.100197 
L 386.175672 134.413377 
L 386.651985 143.510164 
L 387.128297 166.124066 
L 387.604609 163.926295 
L 388.080922 162.496918 
L 388.557234 162.61259 
L 389.033547 131.57941 
L 389.509859 152.292984 
L 389.986172 143.444066 
L 390.462484 140.848631 
L 390.938796 142.988565 
L 391.415109 121.995148 
L 391.891421 120.036984 
L 392.367734 121.739016 
L 392.844046 124.878689 
L 393.320359 143.097049 
L 393.796671 109.543869 
L 394.272983 107.106492 
L 395.225608 105.313574 
L 395.701921 103.322361 
L 396.178233 109.40341 
L 396.654545 118.417574 
L 397.130858 111.386361 
L 397.60717 116.558557 
L 398.083483 149.045902 
L 398.559795 151.161049 
L 399.036108 140.37768 
L 399.51242 136.244384 
L 399.988732 134.676696 
L 400.465045 128.679344 
L 400.941357 118.169705 
L 401.41767 135.420303 
L 401.893982 164.612066 
L 402.370294 171.461508 
L 402.846607 172.733902 
L 403.322919 167.916984 
L 403.799232 167.016393 
L 404.275544 150.606401 
L 404.751857 166.983344 
L 405.228169 138.470164 
L 405.704481 137.229746 
L 406.180794 139.800393 
L 406.657106 143.939803 
L 407.133419 159.720787 
L 407.609731 154.573377 
L 408.086044 145.47659 
L 408.562356 143.997639 
L 409.038668 144.25377 
L 409.514981 145.236984 
L 409.991293 134.454689 
L 410.943918 137.80918 
L 411.42023 133.958951 
L 411.896543 131.645508 
L 412.372855 139.296393 
L 412.849168 137.933115 
L 413.32548 121.615082 
L 413.801793 122.243016 
L 414.278105 128.918951 
L 414.754417 140.395279 
L 415.23073 122.854426 
L 415.707042 122.970098 
L 416.183355 122.366951 
L 416.659667 128.299279 
L 417.13598 119.351213 
L 417.612292 120.937574 
L 418.088604 144.384893 
L 418.564917 130.397902 
L 419.041229 145.151138 
L 419.517542 141.78227 
L 419.993854 175.047344 
L 420.946479 170.09823 
L 421.422791 167.206426 
L 421.899104 168.916721 
L 422.375416 136.313705 
L 422.851729 136.371541 
L 423.804353 129.067672 
L 424.280666 128.472787 
L 424.756978 122.945311 
L 425.233291 128.23318 
L 425.709603 122.50741 
L 426.185915 134.231607 
L 426.662228 137.222557 
L 427.13854 120.664918 
L 427.614853 124.820852 
L 428.091165 141.956852 
L 428.567478 135.842754 
L 429.04379 118.368 
L 429.520102 117.194754 
L 429.996415 127.787016 
L 430.472727 118.665443 
L 430.94904 117.302164 
L 431.425352 121.491148 
L 431.901665 129.794754 
L 432.377977 126.241967 
L 433.330602 109.386885 
L 433.806914 135.082623 
L 434.283227 135.297443 
L 434.759539 137.047975 
L 435.235851 147.847869 
L 436.664789 116.021508 
L 437.141101 118.144918 
L 437.617414 117.186492 
L 438.093726 115.517508 
L 438.570038 112.353049 
L 439.522663 119.070295 
L 440.475288 154.589902 
L 440.951601 141.765746 
L 441.427913 138.649786 
L 441.904225 121.796852 
L 442.85685 158.29141 
L 443.333163 148.814557 
L 443.809475 135.156984 
L 444.285787 153.763672 
L 444.7621 162.926557 
L 445.238412 195.760918 
L 445.714725 172.609967 
L 446.191037 169.346361 
L 446.66735 145.489892 
L 447.143662 142.659148 
L 447.619974 145.352656 
L 448.572599 144.716459 
L 449.048912 148.029639 
L 449.525224 152.202098 
L 450.001536 163.083541 
L 450.477849 166.446295 
L 450.954161 155.754885 
L 451.430474 157.035541 
L 451.906786 150.94623 
L 452.383099 150.714885 
L 452.859411 149.690361 
L 453.335723 146.327607 
L 453.812036 150.359607 
L 454.288348 151.632 
L 454.764661 150.177836 
L 455.240973 174.188066 
L 455.717286 169.660328 
L 456.193598 171.593705 
L 456.66991 172.00682 
L 457.146223 172.147279 
L 457.622535 171.676328 
L 458.098848 169.652066 
L 459.051472 173.221377 
L 459.527785 170.660066 
L 460.004097 178.922361 
L 460.48041 205.047738 
L 460.956722 208.311344 
L 461.433035 178.848 
L 461.909347 215.582164 
L 463.338284 159.216787 
L 463.814597 169.16459 
L 464.290909 172.940459 
L 464.767222 170.585705 
L 465.243534 179.74859 
L 465.719846 228.372197 
L 466.196159 219.655475 
L 466.672471 217.284197 
L 467.148784 191.943738 
L 467.625096 187.349902 
L 468.101408 192.712131 
L 468.577721 178.914098 
L 469.054033 190.473049 
L 469.530346 209.154098 
L 470.006658 211.079213 
L 470.482971 188.845377 
L 470.959283 206.344918 
L 471.435595 216.788459 
L 471.911908 219.201049 
L 472.38822 205.840918 
L 472.864533 218.457443 
L 473.340845 191.77023 
L 474.29347 206.824131 
L 475.246095 180.326951 
L 475.722407 183.854951 
L 476.19872 189.126295 
L 476.675032 187.20118 
L 477.151344 182.177705 
L 477.627657 221.836721 
L 478.103969 236.337049 
L 478.580282 217.606426 
L 479.056594 207.262033 
L 479.532907 240.360787 
L 480.009219 255.844328 
L 480.485531 264.321443 
L 480.961844 287.191475 
L 481.438156 284.167475 
L 481.914469 278.094689 
L 482.390781 264.453639 
L 482.867093 269.17141 
L 483.343406 232.569443 
L 483.819718 236.617967 
L 484.296031 237.064131 
L 484.772343 221.704525 
L 485.248656 225.10859 
L 485.724968 214.574164 
L 486.20128 231.08223 
L 486.677593 267.94859 
L 487.153905 230.454295 
L 487.630218 228.124328 
L 488.10653 217.085902 
L 488.582843 224.001443 
L 489.059155 220.853508 
L 489.535467 216.317508 
L 490.01178 217.76341 
L 490.488092 225.331672 
L 490.964405 222.919082 
L 491.440717 212.120262 
L 491.917029 237.254164 
L 492.393342 237.02282 
L 493.345967 259.843279 
L 493.822279 257.819016 
L 494.298592 265.073311 
L 494.774904 207.956066 
L 495.251216 265.312918 
L 495.727529 231.280525 
L 496.203841 206.534951 
L 496.680154 193.819279 
L 497.156466 163.992393 
L 497.632778 167.86741 
L 497.632778 167.86741 
" clip-path="url(#p621eb1cfe8)" style="fill: none; stroke: #ff7f0e; stroke-width: 1.5; stroke-linecap: round"/>
   </g>
   <g id="patch_3">
    <path d="M 72 384.48 
L 72 51.84 
" style="fill: none; stroke: #ffffff; stroke-width: 0.8; stroke-linejoin: miter; stroke-linecap: square"/>
   </g>
   <g id="patch_4">
    <path d="M 518.4 384.48 
L 518.4 51.84 
" style="fill: none; stroke: #ffffff; stroke-width: 0.8; stroke-linejoin: miter; stroke-linecap: square"/>
   </g>
   <g id="patch_5">
    <path d="M 72 384.48 
L 518.4 384.48 
" style="fill: none; stroke: #ffffff; stroke-width: 0.8; stroke-linejoin: miter; stroke-linecap: square"/>
   </g>
   <g id="patch_6">
    <path d="M 72 51.84 
L 518.4 51.84 
" style="fill: none; stroke: #ffffff; stroke-width: 0.8; stroke-linejoin: miter; stroke-linecap: square"/>
   </g>
   <g id="text_16">
    <!-- Maximum Temperature Prediction 10 Days Ahead -->
    <g style="fill: #262626" transform="translate(163.253437 45.84) scale(0.12 -0.12)">
     <defs>
      <path id="ArialMT-4d" d="M 475 0 
L 475 4581 
L 1388 4581 
L 2472 1338 
Q 2622 884 2691 659 
Q 2769 909 2934 1394 
L 4031 4581 
L 4847 4581 
L 4847 0 
L 4263 0 
L 4263 3834 
L 2931 0 
L 2384 0 
L 1059 3900 
L 1059 0 
L 475 0 
z
" transform="scale(0.015625)"/>
      <path id="ArialMT-78" d="M 47 0 
L 1259 1725 
L 138 3319 
L 841 3319 
L 1350 2541 
Q 1494 2319 1581 2169 
Q 1719 2375 1834 2534 
L 2394 3319 
L 3066 3319 
L 1919 1756 
L 3153 0 
L 2463 0 
L 1781 1031 
L 1600 1309 
L 728 0 
L 47 0 
z
" transform="scale(0.015625)"/>
      <path id="ArialMT-69" d="M 425 3934 
L 425 4581 
L 988 4581 
L 988 3934 
L 425 3934 
z
M 425 0 
L 425 3319 
L 988 3319 
L 988 0 
L 425 0 
z
" transform="scale(0.015625)"/>
      <path id="ArialMT-6d" d="M 422 0 
L 422 3319 
L 925 3319 
L 925 2853 
Q 1081 3097 1340 3245 
Q 1600 3394 1931 3394 
Q 2300 3394 2536 3241 
Q 2772 3088 2869 2813 
Q 3263 3394 3894 3394 
Q 4388 3394 4653 3120 
Q 4919 2847 4919 2278 
L 4919 0 
L 4359 0 
L 4359 2091 
Q 4359 2428 4304 2576 
Q 4250 2725 4106 2815 
Q 3963 2906 3769 2906 
Q 3419 2906 3187 2673 
Q 2956 2441 2956 1928 
L 2956 0 
L 2394 0 
L 2394 2156 
Q 2394 2531 2256 2718 
Q 2119 2906 1806 2906 
Q 1569 2906 1367 2781 
Q 1166 2656 1075 2415 
Q 984 2175 984 1722 
L 984 0 
L 422 0 
z
" transform="scale(0.015625)"/>
      <path id="ArialMT-75" d="M 2597 0 
L 2597 488 
Q 2209 -75 1544 -75 
Q 1250 -75 995 37 
Q 741 150 617 320 
Q 494 491 444 738 
Q 409 903 409 1263 
L 409 3319 
L 972 3319 
L 972 1478 
Q 972 1038 1006 884 
Q 1059 663 1231 536 
Q 1403 409 1656 409 
Q 1909 409 2131 539 
Q 2353 669 2445 892 
Q 2538 1116 2538 1541 
L 2538 3319 
L 3100 3319 
L 3100 0 
L 2597 0 
z
" transform="scale(0.015625)"/>
      <path id="ArialMT-20" transform="scale(0.015625)"/>
      <path id="ArialMT-54" d="M 1659 0 
L 1659 4041 
L 150 4041 
L 150 4581 
L 3781 4581 
L 3781 4041 
L 2266 4041 
L 2266 0 
L 1659 0 
z
" transform="scale(0.015625)"/>
      <path id="ArialMT-65" d="M 2694 1069 
L 3275 997 
Q 3138 488 2766 206 
Q 2394 -75 1816 -75 
Q 1088 -75 661 373 
Q 234 822 234 1631 
Q 234 2469 665 2931 
Q 1097 3394 1784 3394 
Q 2450 3394 2872 2941 
Q 3294 2488 3294 1666 
Q 3294 1616 3291 1516 
L 816 1516 
Q 847 969 1125 678 
Q 1403 388 1819 388 
Q 2128 388 2347 550 
Q 2566 713 2694 1069 
z
M 847 1978 
L 2700 1978 
Q 2663 2397 2488 2606 
Q 2219 2931 1791 2931 
Q 1403 2931 1139 2672 
Q 875 2413 847 1978 
z
" transform="scale(0.015625)"/>
      <path id="ArialMT-70" d="M 422 -1272 
L 422 3319 
L 934 3319 
L 934 2888 
Q 1116 3141 1344 3267 
Q 1572 3394 1897 3394 
Q 2322 3394 2647 3175 
Q 2972 2956 3137 2557 
Q 3303 2159 3303 1684 
Q 3303 1175 3120 767 
Q 2938 359 2589 142 
Q 2241 -75 1856 -75 
Q 1575 -75 1351 44 
Q 1128 163 984 344 
L 984 -1272 
L 422 -1272 
z
M 931 1641 
Q 931 1000 1190 694 
Q 1450 388 1819 388 
Q 2194 388 2461 705 
Q 2728 1022 2728 1688 
Q 2728 2322 2467 2637 
Q 2206 2953 1844 2953 
Q 1484 2953 1207 2617 
Q 931 2281 931 1641 
z
" transform="scale(0.015625)"/>
      <path id="ArialMT-72" d="M 416 0 
L 416 3319 
L 922 3319 
L 922 2816 
Q 1116 3169 1280 3281 
Q 1444 3394 1641 3394 
Q 1925 3394 2219 3213 
L 2025 2691 
Q 1819 2813 1613 2813 
Q 1428 2813 1281 2702 
Q 1134 2591 1072 2394 
Q 978 2094 978 1738 
L 978 0 
L 416 0 
z
" transform="scale(0.015625)"/>
      <path id="ArialMT-74" d="M 1650 503 
L 1731 6 
Q 1494 -44 1306 -44 
Q 1000 -44 831 53 
Q 663 150 594 308 
Q 525 466 525 972 
L 525 2881 
L 113 2881 
L 113 3319 
L 525 3319 
L 525 4141 
L 1084 4478 
L 1084 3319 
L 1650 3319 
L 1650 2881 
L 1084 2881 
L 1084 941 
Q 1084 700 1114 631 
Q 1144 563 1211 522 
Q 1278 481 1403 481 
Q 1497 481 1650 503 
z
" transform="scale(0.015625)"/>
      <path id="ArialMT-50" d="M 494 0 
L 494 4581 
L 2222 4581 
Q 2678 4581 2919 4538 
Q 3256 4481 3484 4323 
Q 3713 4166 3852 3881 
Q 3991 3597 3991 3256 
Q 3991 2672 3619 2267 
Q 3247 1863 2275 1863 
L 1100 1863 
L 1100 0 
L 494 0 
z
M 1100 2403 
L 2284 2403 
Q 2872 2403 3119 2622 
Q 3366 2841 3366 3238 
Q 3366 3525 3220 3729 
Q 3075 3934 2838 4000 
Q 2684 4041 2272 4041 
L 1100 4041 
L 1100 2403 
z
" transform="scale(0.015625)"/>
      <path id="ArialMT-64" d="M 2575 0 
L 2575 419 
Q 2259 -75 1647 -75 
Q 1250 -75 917 144 
Q 584 363 401 755 
Q 219 1147 219 1656 
Q 219 2153 384 2558 
Q 550 2963 881 3178 
Q 1213 3394 1622 3394 
Q 1922 3394 2156 3267 
Q 2391 3141 2538 2938 
L 2538 4581 
L 3097 4581 
L 3097 0 
L 2575 0 
z
M 797 1656 
Q 797 1019 1065 703 
Q 1334 388 1700 388 
Q 2069 388 2326 689 
Q 2584 991 2584 1609 
Q 2584 2291 2321 2609 
Q 2059 2928 1675 2928 
Q 1300 2928 1048 2622 
Q 797 2316 797 1656 
z
" transform="scale(0.015625)"/>
      <path id="ArialMT-63" d="M 2588 1216 
L 3141 1144 
Q 3050 572 2676 248 
Q 2303 -75 1759 -75 
Q 1078 -75 664 370 
Q 250 816 250 1647 
Q 250 2184 428 2587 
Q 606 2991 970 3192 
Q 1334 3394 1763 3394 
Q 2303 3394 2647 3120 
Q 2991 2847 3088 2344 
L 2541 2259 
Q 2463 2594 2264 2762 
Q 2066 2931 1784 2931 
Q 1359 2931 1093 2626 
Q 828 2322 828 1663 
Q 828 994 1084 691 
Q 1341 388 1753 388 
Q 2084 388 2306 591 
Q 2528 794 2588 1216 
z
" transform="scale(0.015625)"/>
      <path id="ArialMT-6f" d="M 213 1659 
Q 213 2581 725 3025 
Q 1153 3394 1769 3394 
Q 2453 3394 2887 2945 
Q 3322 2497 3322 1706 
Q 3322 1066 3130 698 
Q 2938 331 2570 128 
Q 2203 -75 1769 -75 
Q 1072 -75 642 372 
Q 213 819 213 1659 
z
M 791 1659 
Q 791 1022 1069 705 
Q 1347 388 1769 388 
Q 2188 388 2466 706 
Q 2744 1025 2744 1678 
Q 2744 2294 2464 2611 
Q 2184 2928 1769 2928 
Q 1347 2928 1069 2612 
Q 791 2297 791 1659 
z
" transform="scale(0.015625)"/>
      <path id="ArialMT-6e" d="M 422 0 
L 422 3319 
L 928 3319 
L 928 2847 
Q 1294 3394 1984 3394 
Q 2284 3394 2536 3286 
Q 2788 3178 2913 3003 
Q 3038 2828 3088 2588 
Q 3119 2431 3119 2041 
L 3119 0 
L 2556 0 
L 2556 2019 
Q 2556 2363 2490 2533 
Q 2425 2703 2258 2804 
Q 2091 2906 1866 2906 
Q 1506 2906 1245 2678 
Q 984 2450 984 1813 
L 984 0 
L 422 0 
z
" transform="scale(0.015625)"/>
      <path id="ArialMT-41" d="M -9 0 
L 1750 4581 
L 2403 4581 
L 4278 0 
L 3588 0 
L 3053 1388 
L 1138 1388 
L 634 0 
L -9 0 
z
M 1313 1881 
L 2866 1881 
L 2388 3150 
Q 2169 3728 2063 4100 
Q 1975 3659 1816 3225 
L 1313 1881 
z
" transform="scale(0.015625)"/>
      <path id="ArialMT-68" d="M 422 0 
L 422 4581 
L 984 4581 
L 984 2938 
Q 1378 3394 1978 3394 
Q 2347 3394 2619 3248 
Q 2891 3103 3008 2847 
Q 3125 2591 3125 2103 
L 3125 0 
L 2563 0 
L 2563 2103 
Q 2563 2525 2380 2717 
Q 2197 2909 1863 2909 
Q 1613 2909 1392 2779 
Q 1172 2650 1078 2428 
Q 984 2206 984 1816 
L 984 0 
L 422 0 
z
" transform="scale(0.015625)"/>
     </defs>
     <use xlink:href="#ArialMT-4d"/>
     <use xlink:href="#ArialMT-61" x="83.300781"/>
     <use xlink:href="#ArialMT-78" x="138.916016"/>
     <use xlink:href="#ArialMT-69" x="188.916016"/>
     <use xlink:href="#ArialMT-6d" x="211.132812"/>
     <use xlink:href="#ArialMT-75" x="294.433594"/>
     <use xlink:href="#ArialMT-6d" x="350.048828"/>
     <use xlink:href="#ArialMT-20" x="433.349609"/>
     <use xlink:href="#ArialMT-54" x="459.382812"/>
     <use xlink:href="#ArialMT-65" x="509.341797"/>
     <use xlink:href="#ArialMT-6d" x="564.957031"/>
     <use xlink:href="#ArialMT-70" x="648.257812"/>
     <use xlink:href="#ArialMT-65" x="703.873047"/>
     <use xlink:href="#ArialMT-72" x="759.488281"/>
     <use xlink:href="#ArialMT-61" x="792.789062"/>
     <use xlink:href="#ArialMT-74" x="848.404297"/>
     <use xlink:href="#ArialMT-75" x="876.1875"/>
     <use xlink:href="#ArialMT-72" x="931.802734"/>
     <use xlink:href="#ArialMT-65" x="965.103516"/>
     <use xlink:href="#ArialMT-20" x="1020.71875"/>
     <use xlink:href="#ArialMT-50" x="1048.501953"/>
     <use xlink:href="#ArialMT-72" x="1115.201172"/>
     <use xlink:href="#ArialMT-65" x="1148.501953"/>
     <use xlink:href="#ArialMT-64" x="1204.117188"/>
     <use xlink:href="#ArialMT-69" x="1259.732422"/>
     <use xlink:href="#ArialMT-63" x="1281.949219"/>
     <use xlink:href="#ArialMT-74" x="1331.949219"/>
     <use xlink:href="#ArialMT-69" x="1359.732422"/>
     <use xlink:href="#ArialMT-6f" x="1381.949219"/>
     <use xlink:href="#ArialMT-6e" x="1437.564453"/>
     <use xlink:href="#ArialMT-20" x="1493.179688"/>
     <use xlink:href="#ArialMT-31" x="1520.962891"/>
     <use xlink:href="#ArialMT-30" x="1576.578125"/>
     <use xlink:href="#ArialMT-20" x="1632.193359"/>
     <use xlink:href="#ArialMT-44" x="1659.976562"/>
     <use xlink:href="#ArialMT-61" x="1732.193359"/>
     <use xlink:href="#ArialMT-79" x="1787.808594"/>
     <use xlink:href="#ArialMT-73" x="1837.808594"/>
     <use xlink:href="#ArialMT-20" x="1887.808594"/>
     <use xlink:href="#ArialMT-41" x="1910.091797"/>
     <use xlink:href="#ArialMT-68" x="1976.791016"/>
     <use xlink:href="#ArialMT-65" x="2032.40625"/>
     <use xlink:href="#ArialMT-61" x="2088.021484"/>
     <use xlink:href="#ArialMT-64" x="2143.636719"/>
    </g>
   </g>
   <g id="legend_1">
    <g id="patch_7">
     <path d="M 437.15625 88.130625 
L 511.4 88.130625 
Q 513.4 88.130625 513.4 86.130625 
L 513.4 58.84 
Q 513.4 56.84 511.4 56.84 
L 437.15625 56.84 
Q 435.15625 56.84 435.15625 58.84 
L 435.15625 86.130625 
Q 435.15625 88.130625 437.15625 88.130625 
z
" style="fill: #eaeaf2; opacity: 0.8; stroke: #cccccc; stroke-linejoin: miter"/>
    </g>
    <g id="line2d_16">
     <path d="M 439.15625 64.497812 
L 449.15625 64.497812 
L 459.15625 64.497812 
" style="fill: none; stroke: #1f77b4; stroke-width: 1.5; stroke-linecap: round"/>
    </g>
    <g id="text_17">
     <!-- Real -->
     <g style="fill: #262626" transform="translate(467.15625 67.997812) scale(0.1 -0.1)">
      <defs>
       <path id="ArialMT-52" d="M 503 0 
L 503 4581 
L 2534 4581 
Q 3147 4581 3465 4457 
Q 3784 4334 3975 4021 
Q 4166 3709 4166 3331 
Q 4166 2844 3850 2509 
Q 3534 2175 2875 2084 
Q 3116 1969 3241 1856 
Q 3506 1613 3744 1247 
L 4541 0 
L 3778 0 
L 3172 953 
Q 2906 1366 2734 1584 
Q 2563 1803 2427 1890 
Q 2291 1978 2150 2013 
Q 2047 2034 1813 2034 
L 1109 2034 
L 1109 0 
L 503 0 
z
M 1109 2559 
L 2413 2559 
Q 2828 2559 3062 2645 
Q 3297 2731 3419 2920 
Q 3541 3109 3541 3331 
Q 3541 3656 3305 3865 
Q 3069 4075 2559 4075 
L 1109 4075 
L 1109 2559 
z
" transform="scale(0.015625)"/>
       <path id="ArialMT-6c" d="M 409 0 
L 409 4581 
L 972 4581 
L 972 0 
L 409 0 
z
" transform="scale(0.015625)"/>
      </defs>
      <use xlink:href="#ArialMT-52"/>
      <use xlink:href="#ArialMT-65" x="72.216797"/>
      <use xlink:href="#ArialMT-61" x="127.832031"/>
      <use xlink:href="#ArialMT-6c" x="183.447266"/>
     </g>
    </g>
    <g id="line2d_17">
     <path d="M 439.15625 78.643125 
L 449.15625 78.643125 
L 459.15625 78.643125 
" style="fill: none; stroke: #ff7f0e; stroke-width: 1.5; stroke-linecap: round"/>
    </g>
    <g id="text_18">
     <!-- Predicted -->
     <g style="fill: #262626" transform="translate(467.15625 82.143125) scale(0.1 -0.1)">
      <use xlink:href="#ArialMT-50"/>
      <use xlink:href="#ArialMT-72" x="66.699219"/>
      <use xlink:href="#ArialMT-65" x="100"/>
      <use xlink:href="#ArialMT-64" x="155.615234"/>
      <use xlink:href="#ArialMT-69" x="211.230469"/>
      <use xlink:href="#ArialMT-63" x="233.447266"/>
      <use xlink:href="#ArialMT-74" x="283.447266"/>
      <use xlink:href="#ArialMT-65" x="311.230469"/>
      <use xlink:href="#ArialMT-64" x="366.845703"/>
     </g>
    </g>
   </g>
  </g>
 </g>
 <defs>
  <clipPath id="p621eb1cfe8">
   <rect x="72" y="51.84" width="446.4" height="332.64"/>
  </clipPath>
 </defs>
</svg>
