<?xml version="1.0" encoding="utf-8" standalone="no"?>
<!DOCTYPE svg PUBLIC "-//W3C//DTD SVG 1.1//EN"
  "http://www.w3.org/Graphics/SVG/1.1/DTD/svg11.dtd">
<svg xmlns:xlink="http://www.w3.org/1999/xlink" width="576pt" height="432pt" viewBox="0 0 576 432" xmlns="http://www.w3.org/2000/svg" version="1.1">
 <metadata>
  <rdf:RDF xmlns:dc="http://purl.org/dc/elements/1.1/" xmlns:cc="http://creativecommons.org/ns#" xmlns:rdf="http://www.w3.org/1999/02/22-rdf-syntax-ns#">
   <cc:Work>
    <dc:type rdf:resource="http://purl.org/dc/dcmitype/StillImage"/>
    <dc:date>2023-11-17T05:05:04.369868</dc:date>
    <dc:format>image/svg+xml</dc:format>
    <dc:creator>
     <cc:Agent>
      <dc:title>Matplotlib v3.8.0, https://matplotlib.org/</dc:title>
     </cc:Agent>
    </dc:creator>
   </cc:Work>
  </rdf:RDF>
 </metadata>
 <defs>
  <style type="text/css">*{stroke-linejoin: round; stroke-linecap: butt}</style>
 </defs>
 <g id="figure_1">
  <g id="patch_1">
   <path d="M 0 432 
L 576 432 
L 576 0 
L 0 0 
z
" style="fill: #ffffff"/>
  </g>
  <g id="axes_1">
   <g id="patch_2">
    <path d="M 72 384.48 
L 518.4 384.48 
L 518.4 51.84 
L 72 51.84 
z
" style="fill: #eaeaf2"/>
   </g>
   <g id="matplotlib.axis_1">
    <g id="xtick_1">
     <g id="line2d_1">
      <path d="M 92.290909 384.48 
L 92.290909 51.84 
" clip-path="url(#pe048d4015e)" style="fill: none; stroke: #ffffff; stroke-width: 0.8; stroke-linecap: round"/>
     </g>
     <g id="text_1">
      <!-- 0 -->
      <g style="fill: #262626" transform="translate(89.51044 398.637812) scale(0.1 -0.1)">
       <defs>
        <path id="ArialMT-30" d="M 266 2259 
Q 266 3072 433 3567 
Q 600 4063 929 4331 
Q 1259 4600 1759 4600 
Q 2128 4600 2406 4451 
Q 2684 4303 2865 4023 
Q 3047 3744 3150 3342 
Q 3253 2941 3253 2259 
Q 3253 1453 3087 958 
Q 2922 463 2592 192 
Q 2263 -78 1759 -78 
Q 1097 -78 719 397 
Q 266 969 266 2259 
z
M 844 2259 
Q 844 1131 1108 757 
Q 1372 384 1759 384 
Q 2147 384 2411 759 
Q 2675 1134 2675 2259 
Q 2675 3391 2411 3762 
Q 2147 4134 1753 4134 
Q 1366 4134 1134 3806 
Q 844 3388 844 2259 
z
" transform="scale(0.015625)"/>
       </defs>
       <use xlink:href="#ArialMT-30"/>
      </g>
     </g>
    </g>
    <g id="xtick_2">
     <g id="line2d_2">
      <path d="M 185.049351 384.48 
L 185.049351 51.84 
" clip-path="url(#pe048d4015e)" style="fill: none; stroke: #ffffff; stroke-width: 0.8; stroke-linecap: round"/>
     </g>
     <g id="text_2">
      <!-- 200 -->
      <g style="fill: #262626" transform="translate(176.707944 398.637812) scale(0.1 -0.1)">
       <defs>
        <path id="ArialMT-32" d="M 3222 541 
L 3222 0 
L 194 0 
Q 188 203 259 391 
Q 375 700 629 1000 
Q 884 1300 1366 1694 
Q 2113 2306 2375 2664 
Q 2638 3022 2638 3341 
Q 2638 3675 2398 3904 
Q 2159 4134 1775 4134 
Q 1369 4134 1125 3890 
Q 881 3647 878 3216 
L 300 3275 
Q 359 3922 746 4261 
Q 1134 4600 1788 4600 
Q 2447 4600 2831 4234 
Q 3216 3869 3216 3328 
Q 3216 3053 3103 2787 
Q 2991 2522 2730 2228 
Q 2469 1934 1863 1422 
Q 1356 997 1212 845 
Q 1069 694 975 541 
L 3222 541 
z
" transform="scale(0.015625)"/>
       </defs>
       <use xlink:href="#ArialMT-32"/>
       <use xlink:href="#ArialMT-30" x="55.615234"/>
       <use xlink:href="#ArialMT-30" x="111.230469"/>
      </g>
     </g>
    </g>
    <g id="xtick_3">
     <g id="line2d_3">
      <path d="M 277.807792 384.48 
L 277.807792 51.84 
" clip-path="url(#pe048d4015e)" style="fill: none; stroke: #ffffff; stroke-width: 0.8; stroke-linecap: round"/>
     </g>
     <g id="text_3">
      <!-- 400 -->
      <g style="fill: #262626" transform="translate(269.466386 398.637812) scale(0.1 -0.1)">
       <defs>
        <path id="ArialMT-34" d="M 2069 0 
L 2069 1097 
L 81 1097 
L 81 1613 
L 2172 4581 
L 2631 4581 
L 2631 1613 
L 3250 1613 
L 3250 1097 
L 2631 1097 
L 2631 0 
L 2069 0 
z
M 2069 1613 
L 2069 3678 
L 634 1613 
L 2069 1613 
z
" transform="scale(0.015625)"/>
       </defs>
       <use xlink:href="#ArialMT-34"/>
       <use xlink:href="#ArialMT-30" x="55.615234"/>
       <use xlink:href="#ArialMT-30" x="111.230469"/>
      </g>
     </g>
    </g>
    <g id="xtick_4">
     <g id="line2d_4">
      <path d="M 370.566234 384.48 
L 370.566234 51.84 
" clip-path="url(#pe048d4015e)" style="fill: none; stroke: #ffffff; stroke-width: 0.8; stroke-linecap: round"/>
     </g>
     <g id="text_4">
      <!-- 600 -->
      <g style="fill: #262626" transform="translate(362.224828 398.637812) scale(0.1 -0.1)">
       <defs>
        <path id="ArialMT-36" d="M 3184 3459 
L 2625 3416 
Q 2550 3747 2413 3897 
Q 2184 4138 1850 4138 
Q 1581 4138 1378 3988 
Q 1113 3794 959 3422 
Q 806 3050 800 2363 
Q 1003 2672 1297 2822 
Q 1591 2972 1913 2972 
Q 2475 2972 2870 2558 
Q 3266 2144 3266 1488 
Q 3266 1056 3080 686 
Q 2894 316 2569 119 
Q 2244 -78 1831 -78 
Q 1128 -78 684 439 
Q 241 956 241 2144 
Q 241 3472 731 4075 
Q 1159 4600 1884 4600 
Q 2425 4600 2770 4297 
Q 3116 3994 3184 3459 
z
M 888 1484 
Q 888 1194 1011 928 
Q 1134 663 1356 523 
Q 1578 384 1822 384 
Q 2178 384 2434 671 
Q 2691 959 2691 1453 
Q 2691 1928 2437 2201 
Q 2184 2475 1800 2475 
Q 1419 2475 1153 2201 
Q 888 1928 888 1484 
z
" transform="scale(0.015625)"/>
       </defs>
       <use xlink:href="#ArialMT-36"/>
       <use xlink:href="#ArialMT-30" x="55.615234"/>
       <use xlink:href="#ArialMT-30" x="111.230469"/>
      </g>
     </g>
    </g>
    <g id="xtick_5">
     <g id="line2d_5">
      <path d="M 463.324675 384.48 
L 463.324675 51.84 
" clip-path="url(#pe048d4015e)" style="fill: none; stroke: #ffffff; stroke-width: 0.8; stroke-linecap: round"/>
     </g>
     <g id="text_5">
      <!-- 800 -->
      <g style="fill: #262626" transform="translate(454.983269 398.637812) scale(0.1 -0.1)">
       <defs>
        <path id="ArialMT-38" d="M 1131 2484 
Q 781 2613 612 2850 
Q 444 3088 444 3419 
Q 444 3919 803 4259 
Q 1163 4600 1759 4600 
Q 2359 4600 2725 4251 
Q 3091 3903 3091 3403 
Q 3091 3084 2923 2848 
Q 2756 2613 2416 2484 
Q 2838 2347 3058 2040 
Q 3278 1734 3278 1309 
Q 3278 722 2862 322 
Q 2447 -78 1769 -78 
Q 1091 -78 675 323 
Q 259 725 259 1325 
Q 259 1772 486 2073 
Q 713 2375 1131 2484 
z
M 1019 3438 
Q 1019 3113 1228 2906 
Q 1438 2700 1772 2700 
Q 2097 2700 2305 2904 
Q 2513 3109 2513 3406 
Q 2513 3716 2298 3927 
Q 2084 4138 1766 4138 
Q 1444 4138 1231 3931 
Q 1019 3725 1019 3438 
z
M 838 1322 
Q 838 1081 952 856 
Q 1066 631 1291 507 
Q 1516 384 1775 384 
Q 2178 384 2440 643 
Q 2703 903 2703 1303 
Q 2703 1709 2433 1975 
Q 2163 2241 1756 2241 
Q 1359 2241 1098 1978 
Q 838 1716 838 1322 
z
" transform="scale(0.015625)"/>
       </defs>
       <use xlink:href="#ArialMT-38"/>
       <use xlink:href="#ArialMT-30" x="55.615234"/>
       <use xlink:href="#ArialMT-30" x="111.230469"/>
      </g>
     </g>
    </g>
    <g id="text_6">
     <!-- Days -->
     <g style="fill: #262626" transform="translate(283.808594 411.783125) scale(0.1 -0.1)">
      <defs>
       <path id="ArialMT-44" d="M 494 0 
L 494 4581 
L 2072 4581 
Q 2606 4581 2888 4516 
Q 3281 4425 3559 4188 
Q 3922 3881 4101 3404 
Q 4281 2928 4281 2316 
Q 4281 1794 4159 1391 
Q 4038 988 3847 723 
Q 3656 459 3429 307 
Q 3203 156 2883 78 
Q 2563 0 2147 0 
L 494 0 
z
M 1100 541 
L 2078 541 
Q 2531 541 2789 625 
Q 3047 709 3200 863 
Q 3416 1078 3536 1442 
Q 3656 1806 3656 2325 
Q 3656 3044 3420 3430 
Q 3184 3816 2847 3947 
Q 2603 4041 2063 4041 
L 1100 4041 
L 1100 541 
z
" transform="scale(0.015625)"/>
       <path id="ArialMT-61" d="M 2588 409 
Q 2275 144 1986 34 
Q 1697 -75 1366 -75 
Q 819 -75 525 192 
Q 231 459 231 875 
Q 231 1119 342 1320 
Q 453 1522 633 1644 
Q 813 1766 1038 1828 
Q 1203 1872 1538 1913 
Q 2219 1994 2541 2106 
Q 2544 2222 2544 2253 
Q 2544 2597 2384 2738 
Q 2169 2928 1744 2928 
Q 1347 2928 1158 2789 
Q 969 2650 878 2297 
L 328 2372 
Q 403 2725 575 2942 
Q 747 3159 1072 3276 
Q 1397 3394 1825 3394 
Q 2250 3394 2515 3294 
Q 2781 3194 2906 3042 
Q 3031 2891 3081 2659 
Q 3109 2516 3109 2141 
L 3109 1391 
Q 3109 606 3145 398 
Q 3181 191 3288 0 
L 2700 0 
Q 2613 175 2588 409 
z
M 2541 1666 
Q 2234 1541 1622 1453 
Q 1275 1403 1131 1340 
Q 988 1278 909 1158 
Q 831 1038 831 891 
Q 831 666 1001 516 
Q 1172 366 1500 366 
Q 1825 366 2078 508 
Q 2331 650 2450 897 
Q 2541 1088 2541 1459 
L 2541 1666 
z
" transform="scale(0.015625)"/>
       <path id="ArialMT-79" d="M 397 -1278 
L 334 -750 
Q 519 -800 656 -800 
Q 844 -800 956 -737 
Q 1069 -675 1141 -563 
Q 1194 -478 1313 -144 
Q 1328 -97 1363 -6 
L 103 3319 
L 709 3319 
L 1400 1397 
Q 1534 1031 1641 628 
Q 1738 1016 1872 1384 
L 2581 3319 
L 3144 3319 
L 1881 -56 
Q 1678 -603 1566 -809 
Q 1416 -1088 1222 -1217 
Q 1028 -1347 759 -1347 
Q 597 -1347 397 -1278 
z
" transform="scale(0.015625)"/>
       <path id="ArialMT-73" d="M 197 991 
L 753 1078 
Q 800 744 1014 566 
Q 1228 388 1613 388 
Q 2000 388 2187 545 
Q 2375 703 2375 916 
Q 2375 1106 2209 1216 
Q 2094 1291 1634 1406 
Q 1016 1563 777 1677 
Q 538 1791 414 1992 
Q 291 2194 291 2438 
Q 291 2659 392 2848 
Q 494 3038 669 3163 
Q 800 3259 1026 3326 
Q 1253 3394 1513 3394 
Q 1903 3394 2198 3281 
Q 2494 3169 2634 2976 
Q 2775 2784 2828 2463 
L 2278 2388 
Q 2241 2644 2061 2787 
Q 1881 2931 1553 2931 
Q 1166 2931 1000 2803 
Q 834 2675 834 2503 
Q 834 2394 903 2306 
Q 972 2216 1119 2156 
Q 1203 2125 1616 2013 
Q 2213 1853 2448 1751 
Q 2684 1650 2818 1456 
Q 2953 1263 2953 975 
Q 2953 694 2789 445 
Q 2625 197 2315 61 
Q 2006 -75 1616 -75 
Q 969 -75 630 194 
Q 291 463 197 991 
z
" transform="scale(0.015625)"/>
      </defs>
      <use xlink:href="#ArialMT-44"/>
      <use xlink:href="#ArialMT-61" x="72.216797"/>
      <use xlink:href="#ArialMT-79" x="127.832031"/>
      <use xlink:href="#ArialMT-73" x="177.832031"/>
     </g>
    </g>
   </g>
   <g id="matplotlib.axis_2">
    <g id="ytick_1">
     <g id="line2d_6">
      <path d="M 72 369.107579 
L 518.4 369.107579 
" clip-path="url(#pe048d4015e)" style="fill: none; stroke: #ffffff; stroke-width: 0.8; stroke-linecap: round"/>
     </g>
     <g id="text_7">
      <!-- 0 -->
      <g style="fill: #262626" transform="translate(59.439062 372.686486) scale(0.1 -0.1)">
       <use xlink:href="#ArialMT-30"/>
      </g>
     </g>
    </g>
    <g id="ytick_2">
     <g id="line2d_7">
      <path d="M 72 318.623439 
L 518.4 318.623439 
" clip-path="url(#pe048d4015e)" style="fill: none; stroke: #ffffff; stroke-width: 0.8; stroke-linecap: round"/>
     </g>
     <g id="text_8">
      <!-- 200 -->
      <g style="fill: #262626" transform="translate(48.317188 322.202345) scale(0.1 -0.1)">
       <use xlink:href="#ArialMT-32"/>
       <use xlink:href="#ArialMT-30" x="55.615234"/>
       <use xlink:href="#ArialMT-30" x="111.230469"/>
      </g>
     </g>
    </g>
    <g id="ytick_3">
     <g id="line2d_8">
      <path d="M 72 268.139299 
L 518.4 268.139299 
" clip-path="url(#pe048d4015e)" style="fill: none; stroke: #ffffff; stroke-width: 0.8; stroke-linecap: round"/>
     </g>
     <g id="text_9">
      <!-- 400 -->
      <g style="fill: #262626" transform="translate(48.317188 271.718205) scale(0.1 -0.1)">
       <use xlink:href="#ArialMT-34"/>
       <use xlink:href="#ArialMT-30" x="55.615234"/>
       <use xlink:href="#ArialMT-30" x="111.230469"/>
      </g>
     </g>
    </g>
    <g id="ytick_4">
     <g id="line2d_9">
      <path d="M 72 217.655159 
L 518.4 217.655159 
" clip-path="url(#pe048d4015e)" style="fill: none; stroke: #ffffff; stroke-width: 0.8; stroke-linecap: round"/>
     </g>
     <g id="text_10">
      <!-- 600 -->
      <g style="fill: #262626" transform="translate(48.317188 221.234065) scale(0.1 -0.1)">
       <use xlink:href="#ArialMT-36"/>
       <use xlink:href="#ArialMT-30" x="55.615234"/>
       <use xlink:href="#ArialMT-30" x="111.230469"/>
      </g>
     </g>
    </g>
    <g id="ytick_5">
     <g id="line2d_10">
      <path d="M 72 167.171018 
L 518.4 167.171018 
" clip-path="url(#pe048d4015e)" style="fill: none; stroke: #ffffff; stroke-width: 0.8; stroke-linecap: round"/>
     </g>
     <g id="text_11">
      <!-- 800 -->
      <g style="fill: #262626" transform="translate(48.317188 170.749925) scale(0.1 -0.1)">
       <use xlink:href="#ArialMT-38"/>
       <use xlink:href="#ArialMT-30" x="55.615234"/>
       <use xlink:href="#ArialMT-30" x="111.230469"/>
      </g>
     </g>
    </g>
    <g id="ytick_6">
     <g id="line2d_11">
      <path d="M 72 116.686878 
L 518.4 116.686878 
" clip-path="url(#pe048d4015e)" style="fill: none; stroke: #ffffff; stroke-width: 0.8; stroke-linecap: round"/>
     </g>
     <g id="text_12">
      <!-- 1000 -->
      <g style="fill: #262626" transform="translate(42.75625 120.265784) scale(0.1 -0.1)">
       <defs>
        <path id="ArialMT-31" d="M 2384 0 
L 1822 0 
L 1822 3584 
Q 1619 3391 1289 3197 
Q 959 3003 697 2906 
L 697 3450 
Q 1169 3672 1522 3987 
Q 1875 4303 2022 4600 
L 2384 4600 
L 2384 0 
z
" transform="scale(0.015625)"/>
       </defs>
       <use xlink:href="#ArialMT-31"/>
       <use xlink:href="#ArialMT-30" x="55.615234"/>
       <use xlink:href="#ArialMT-30" x="111.230469"/>
       <use xlink:href="#ArialMT-30" x="166.845703"/>
      </g>
     </g>
    </g>
    <g id="ytick_7">
     <g id="line2d_12">
      <path d="M 72 66.202738 
L 518.4 66.202738 
" clip-path="url(#pe048d4015e)" style="fill: none; stroke: #ffffff; stroke-width: 0.8; stroke-linecap: round"/>
     </g>
     <g id="text_13">
      <!-- 1200 -->
      <g style="fill: #262626" transform="translate(42.75625 69.781644) scale(0.1 -0.1)">
       <use xlink:href="#ArialMT-31"/>
       <use xlink:href="#ArialMT-32" x="55.615234"/>
       <use xlink:href="#ArialMT-30" x="111.230469"/>
       <use xlink:href="#ArialMT-30" x="166.845703"/>
      </g>
     </g>
    </g>
    <g id="text_14">
     <!-- (W/m^2) -->
     <g style="fill: #262626" transform="translate(36.651562 236.889687) rotate(-90) scale(0.1 -0.1)">
      <defs>
       <path id="ArialMT-28" d="M 1497 -1347 
Q 1031 -759 709 28 
Q 388 816 388 1659 
Q 388 2403 628 3084 
Q 909 3875 1497 4659 
L 1900 4659 
Q 1522 4009 1400 3731 
Q 1209 3300 1100 2831 
Q 966 2247 966 1656 
Q 966 153 1900 -1347 
L 1497 -1347 
z
" transform="scale(0.015625)"/>
       <path id="ArialMT-57" d="M 1294 0 
L 78 4581 
L 700 4581 
L 1397 1578 
Q 1509 1106 1591 641 
Q 1766 1375 1797 1488 
L 2669 4581 
L 3400 4581 
L 4056 2263 
Q 4303 1400 4413 641 
Q 4500 1075 4641 1638 
L 5359 4581 
L 5969 4581 
L 4713 0 
L 4128 0 
L 3163 3491 
Q 3041 3928 3019 4028 
Q 2947 3713 2884 3491 
L 1913 0 
L 1294 0 
z
" transform="scale(0.015625)"/>
       <path id="ArialMT-2f" d="M 0 -78 
L 1328 4659 
L 1778 4659 
L 453 -78 
L 0 -78 
z
" transform="scale(0.015625)"/>
       <path id="ArialMT-6d" d="M 422 0 
L 422 3319 
L 925 3319 
L 925 2853 
Q 1081 3097 1340 3245 
Q 1600 3394 1931 3394 
Q 2300 3394 2536 3241 
Q 2772 3088 2869 2813 
Q 3263 3394 3894 3394 
Q 4388 3394 4653 3120 
Q 4919 2847 4919 2278 
L 4919 0 
L 4359 0 
L 4359 2091 
Q 4359 2428 4304 2576 
Q 4250 2725 4106 2815 
Q 3963 2906 3769 2906 
Q 3419 2906 3187 2673 
Q 2956 2441 2956 1928 
L 2956 0 
L 2394 0 
L 2394 2156 
Q 2394 2531 2256 2718 
Q 2119 2906 1806 2906 
Q 1569 2906 1367 2781 
Q 1166 2656 1075 2415 
Q 984 2175 984 1722 
L 984 0 
L 422 0 
z
" transform="scale(0.015625)"/>
       <path id="ArialMT-5e" d="M 747 2156 
L 169 2156 
L 1272 4659 
L 1725 4659 
L 2834 2156 
L 2269 2156 
L 1497 4022 
L 747 2156 
z
" transform="scale(0.015625)"/>
       <path id="ArialMT-29" d="M 791 -1347 
L 388 -1347 
Q 1322 153 1322 1656 
Q 1322 2244 1188 2822 
Q 1081 3291 891 3722 
Q 769 4003 388 4659 
L 791 4659 
Q 1378 3875 1659 3084 
Q 1900 2403 1900 1659 
Q 1900 816 1576 28 
Q 1253 -759 791 -1347 
z
" transform="scale(0.015625)"/>
      </defs>
      <use xlink:href="#ArialMT-28"/>
      <use xlink:href="#ArialMT-57" x="33.300781"/>
      <use xlink:href="#ArialMT-2f" x="127.685547"/>
      <use xlink:href="#ArialMT-6d" x="155.46875"/>
      <use xlink:href="#ArialMT-5e" x="238.769531"/>
      <use xlink:href="#ArialMT-32" x="285.693359"/>
      <use xlink:href="#ArialMT-29" x="341.308594"/>
     </g>
    </g>
   </g>
   <g id="line2d_13">
    <path d="M 92.290909 97.250484 
L 92.754701 132.589382 
L 93.218494 146.472521 
L 93.682286 179.539633 
L 94.146078 126.026444 
L 94.60987 267.129616 
L 95.073662 120.725609 
L 95.537455 151.773356 
L 96.001247 249.207746 
L 96.465039 112.395726 
L 96.928831 120.725609 
L 97.392623 156.064508 
L 97.856416 138.395058 
L 98.320208 245.421436 
L 98.784 125.774023 
L 99.247792 101.289215 
L 99.711584 96.240801 
L 100.175377 108.861836 
L 100.639169 117.948982 
L 101.102961 143.948314 
L 101.566753 151.268514 
L 102.030545 155.812087 
L 102.494338 142.43379 
L 102.95813 116.434457 
L 103.421922 132.084541 
L 103.885714 170.957329 
L 104.349506 116.686878 
L 104.813299 152.025776 
L 105.277091 143.443472 
L 105.740883 148.239466 
L 106.204675 159.598397 
L 106.668468 338.564674 
L 107.13226 330.234791 
L 107.596052 274.954658 
L 108.059844 278.993389 
L 108.523636 236.586711 
L 108.987429 300.95399 
L 109.451221 277.983706 
L 109.915013 330.234791 
L 110.378805 332.758998 
L 110.842597 227.247145 
L 111.30639 167.423439 
L 111.770182 226.994725 
L 112.233974 181.811419 
L 112.697766 182.821102 
L 113.625351 186.607412 
L 114.552935 166.918598 
L 115.016727 233.810083 
L 115.480519 192.91793 
L 115.944312 207.30591 
L 116.408104 188.121937 
L 116.871896 194.937295 
L 117.335688 207.810751 
L 117.799481 196.45182 
L 118.263273 342.603406 
L 118.727065 328.467846 
L 119.190857 173.733957 
L 119.654649 321.147646 
L 120.118442 120.725609 
L 120.582234 186.607412 
L 121.046026 151.268514 
L 121.509818 193.422771 
L 121.97361 329.477529 
L 122.437403 272.430451 
L 122.901195 156.82177 
L 123.828779 241.887546 
L 124.292571 203.267179 
L 124.756364 192.665509 
L 125.220156 305.749983 
L 125.683948 196.45182 
L 126.14774 209.830117 
L 127.075325 206.043806 
L 127.539117 206.043806 
L 128.002909 295.653155 
L 128.466701 341.593723 
L 128.930494 216.393055 
L 129.394286 298.682204 
L 129.858078 323.419432 
L 130.32187 218.664841 
L 130.785662 199.733289 
L 131.249455 195.442137 
L 131.713247 220.431786 
L 132.177039 203.519599 
L 132.640831 196.45182 
L 133.104623 197.461503 
L 133.568416 190.898564 
L 134.032208 168.937963 
L 134.496 241.382705 
L 134.959792 208.820434 
L 135.887377 203.77202 
L 136.351169 202.509917 
L 136.814961 204.529282 
L 137.278753 203.267179 
L 137.742545 214.373689 
L 138.206338 217.655159 
L 138.67013 211.849482 
L 139.133922 197.713923 
L 139.597714 340.836461 
L 140.061506 319.380701 
L 140.525299 221.441469 
L 140.989091 273.944975 
L 141.452883 341.088881 
L 141.916675 207.558331 
L 142.380468 201.752654 
L 142.84426 205.538965 
L 143.308052 216.140634 
L 143.771844 207.558331 
L 144.235636 212.354324 
L 144.699429 340.58404 
L 145.163221 320.390384 
L 145.627013 200.490551 
L 146.090805 198.471185 
L 146.554597 337.05015 
L 147.482182 331.496895 
L 147.945974 213.616427 
L 148.409766 202.509917 
L 148.873558 170.704908 
L 149.337351 195.442137 
L 149.801143 190.898564 
L 150.264935 194.937295 
L 150.728727 176.258164 
L 151.192519 199.480868 
L 151.656312 196.956661 
L 152.120104 304.992721 
L 152.583896 332.506578 
L 153.047688 187.617095 
L 153.975273 188.121937 
L 154.439065 180.044474 
L 154.902857 184.588047 
L 155.366649 182.821102 
L 155.830442 148.996728 
L 156.294234 162.375025 
L 156.758026 207.30591 
L 157.221818 189.888881 
L 157.68561 201.500234 
L 158.149403 193.170351 
L 158.613195 289.090217 
L 159.076987 334.525943 
L 159.540779 245.926277 
L 160.004571 179.792053 
L 160.468364 311.80808 
L 160.932156 176.510584 
L 161.395948 158.336294 
L 161.85974 184.083205 
L 162.323532 181.054157 
L 162.787325 180.801736 
L 163.714909 196.956661 
L 164.178701 150.258831 
L 164.642494 139.657162 
L 165.106286 170.452487 
L 165.570078 171.714591 
L 166.03387 166.666177 
L 166.497662 165.404073 
L 166.961455 176.763005 
L 167.425247 178.52995 
L 167.889039 244.411753 
L 168.352831 166.666177 
L 168.816623 180.549316 
L 169.280416 167.171018 
L 169.744208 326.953322 
L 170.208 284.041803 
L 170.671792 300.449149 
L 171.135584 161.617763 
L 171.599377 147.987045 
L 172.063169 141.171686 
L 172.990753 189.636461 
L 173.454545 158.083873 
L 173.918338 161.870184 
L 174.38213 120.473189 
L 174.845922 252.741636 
L 175.309714 173.481536 
L 175.773506 154.297563 
L 176.701091 242.644808 
L 177.164883 196.45182 
L 177.628675 298.682204 
L 178.092468 211.09222 
L 178.55626 157.07419 
L 179.020052 148.491886 
L 179.483844 135.870851 
L 179.947636 308.02177 
L 180.411429 135.618431 
L 180.875221 169.947646 
L 181.339013 132.841803 
L 181.802805 143.695893 
L 182.266597 197.713923 
L 182.73039 235.324608 
L 183.194182 132.084541 
L 183.657974 87.658497 
L 184.121766 132.336962 
L 184.585558 143.695893 
L 185.049351 137.385376 
L 185.513143 147.734624 
L 185.976935 140.919265 
L 186.440727 137.890217 
L 186.904519 140.162003 
L 187.368312 148.239466 
L 187.832104 127.036127 
L 188.295896 139.404741 
L 188.759688 142.181369 
L 189.223481 121.230451 
L 189.687273 126.026444 
L 190.151065 154.549983 
L 190.614857 136.628114 
L 191.078649 131.327279 
L 191.542442 142.43379 
L 192.006234 150.511252 
L 192.470026 178.025109 
L 192.933818 158.841135 
L 193.39761 147.734624 
L 193.861403 129.055492 
L 194.325195 139.909583 
L 194.788987 145.210417 
L 195.252779 138.142638 
L 195.716571 247.440801 
L 196.180364 137.132955 
L 196.644156 147.734624 
L 197.107948 151.268514 
L 197.57174 152.530618 
L 198.035532 133.094224 
L 198.499325 151.773356 
L 198.963117 111.638464 
L 199.890701 121.230451 
L 200.354494 145.210417 
L 200.818286 193.170351 
L 201.282078 100.784374 
L 201.74587 112.648147 
L 202.209662 92.454491 
L 202.673455 93.716594 
L 203.137247 147.987045 
L 203.601039 126.026444 
L 204.064831 125.774023 
L 204.528623 140.162003 
L 204.992416 148.491886 
L 205.456208 152.278197 
L 205.92 140.666845 
L 206.383792 162.122604 
L 206.847584 150.763673 
L 207.311377 124.764341 
L 207.775169 106.59005 
L 208.238961 113.65783 
L 208.702753 144.453155 
L 209.166545 116.434457 
L 210.09413 195.694558 
L 210.557922 111.638464 
L 211.021714 121.987713 
L 211.485506 118.958664 
L 211.949299 116.686878 
L 212.413091 110.376361 
L 212.876883 132.589382 
L 213.340675 139.152321 
L 213.804468 138.395058 
L 214.26826 128.04581 
L 214.732052 134.861169 
L 215.195844 113.91025 
L 215.659636 109.871519 
L 216.123429 110.12394 
L 217.051013 138.647479 
L 217.514805 141.424107 
L 218.44239 119.463506 
L 218.906182 138.8999 
L 219.369974 88.41576 
L 219.833766 113.91025 
L 220.297558 148.239466 
L 220.761351 146.724942 
L 221.225143 109.871519 
L 221.688935 98.512588 
L 222.152727 204.276861 
L 222.616519 111.890885 
L 223.080312 111.638464 
L 223.544104 130.065175 
L 224.007896 129.560334 
L 224.471688 132.841803 
L 224.935481 138.647479 
L 225.399273 131.327279 
L 225.863065 113.152988 
L 226.326857 133.094224 
L 226.790649 146.724942 
L 227.718234 132.589382 
L 228.182026 143.191052 
L 228.645818 136.628114 
L 229.10961 136.123272 
L 229.573403 119.463506 
L 230.037195 109.871519 
L 230.500987 129.560334 
L 230.964779 107.599733 
L 231.428571 134.861169 
L 231.892364 129.307913 
L 232.356156 145.210417 
L 232.819948 143.948314 
L 233.28374 143.443472 
L 233.747532 143.191052 
L 234.211325 132.084541 
L 234.675117 129.307913 
L 235.138909 102.551319 
L 235.602701 96.240801 
L 236.066494 128.803072 
L 236.530286 127.036127 
L 236.994078 121.482871 
L 237.45787 141.928948 
L 237.921662 144.957997 
L 238.385455 141.424107 
L 238.849247 142.181369 
L 239.313039 141.676528 
L 239.776831 135.36601 
L 240.240623 94.473856 
L 240.704416 82.105242 
L 241.168208 134.608748 
L 241.632 129.560334 
L 242.095792 148.744307 
L 243.023377 144.200735 
L 243.487169 145.967679 
L 243.950961 147.229783 
L 244.414753 146.977362 
L 244.878545 145.462838 
L 245.342338 150.006411 
L 245.80613 145.210417 
L 246.269922 150.763673 
L 246.733714 151.773356 
L 247.197506 155.307245 
L 247.661299 147.229783 
L 248.125091 146.2201 
L 248.588883 125.774023 
L 249.052675 142.938631 
L 249.516468 147.987045 
L 249.98026 98.260167 
L 250.444052 145.210417 
L 250.907844 144.200735 
L 251.371636 145.462838 
L 251.835429 138.142638 
L 252.299221 141.171686 
L 252.763013 146.724942 
L 253.226805 122.997396 
L 253.690597 137.385376 
L 254.15439 142.181369 
L 254.618182 205.791386 
L 255.081974 359.768013 
L 255.545766 369.107579 
L 256.009558 127.540968 
L 256.473351 118.201402 
L 256.937143 131.83212 
L 257.400935 110.376361 
L 257.864727 132.336962 
L 258.328519 129.560334 
L 258.792312 115.677195 
L 259.256104 149.249149 
L 259.719896 158.336294 
L 260.183688 151.773356 
L 260.647481 171.20975 
L 261.111273 138.142638 
L 261.575065 139.404741 
L 262.038857 163.132287 
L 262.502649 148.491886 
L 262.966442 137.385376 
L 263.430234 157.579032 
L 263.894026 158.083873 
L 264.357818 145.715259 
L 264.82161 144.957997 
L 265.285403 103.308581 
L 265.749195 128.29823 
L 266.212987 106.59005 
L 266.676779 140.666845 
L 267.140571 153.035459 
L 267.604364 158.083873 
L 268.068156 153.035459 
L 268.531948 134.861169 
L 268.99574 143.191052 
L 269.459532 172.471853 
L 269.923325 172.976694 
L 270.387117 144.957997 
L 270.850909 137.637796 
L 271.314701 177.015426 
L 271.778494 172.219432 
L 272.242286 177.772688 
L 272.706078 300.196728 
L 273.16987 172.471853 
L 273.633662 179.287212 
L 274.097455 169.695225 
L 274.561247 152.783038 
L 275.025039 150.511252 
L 275.488831 172.976694 
L 275.952623 163.132287 
L 276.416416 134.608748 
L 276.880208 147.482204 
L 277.344 173.481536 
L 277.807792 179.034791 
L 278.271584 191.655826 
L 278.735377 170.452487 
L 279.199169 287.575693 
L 279.662961 200.995392 
L 280.126753 183.073523 
L 280.590545 199.733289 
L 281.054338 176.258164 
L 281.51813 197.209082 
L 281.981922 165.908915 
L 282.445714 200.742972 
L 282.909506 195.189716 
L 283.373299 292.119265 
L 283.837091 265.11025 
L 284.300883 250.46985 
L 284.764675 199.480868 
L 285.228468 330.992053 
L 285.69226 198.723606 
L 286.156052 198.723606 
L 286.619844 199.480868 
L 287.083636 194.180033 
L 287.547429 161.112922 
L 288.011221 172.471853 
L 288.475013 208.063172 
L 288.938805 194.684875 
L 289.402597 190.393723 
L 289.86639 198.976027 
L 290.330182 310.545977 
L 290.793974 203.77202 
L 291.257766 202.005075 
L 291.721558 196.956661 
L 292.185351 152.025776 
L 293.112935 218.664841 
L 293.576727 210.8398 
L 294.040519 205.791386 
L 294.504312 206.043806 
L 294.968104 217.150317 
L 295.431896 211.09222 
L 295.895688 215.130952 
L 296.359481 213.364007 
L 297.287065 223.208414 
L 297.750857 221.441469 
L 298.214649 304.992721 
L 298.678442 183.325943 
L 299.142234 219.926945 
L 299.606026 212.859165 
L 300.069818 214.62611 
L 300.53361 217.402738 
L 300.997403 169.695225 
L 301.461195 206.801068 
L 301.924987 193.927613 
L 302.852571 241.130284 
L 303.316364 324.681536 
L 303.780156 202.762337 
L 304.243948 204.276861 
L 304.70774 211.849482 
L 305.171532 212.859165 
L 305.635325 198.976027 
L 306.099117 297.4201 
L 306.562909 145.462838 
L 307.026701 214.878531 
L 307.490494 206.043806 
L 307.954286 343.360668 
L 308.418078 319.633122 
L 308.88187 197.713923 
L 309.345662 199.228447 
L 309.809455 202.005075 
L 310.273247 199.98571 
L 310.737039 202.257496 
L 311.200831 202.005075 
L 311.664623 191.403406 
L 312.128416 200.995392 
L 312.592208 218.16 
L 313.056 196.70424 
L 313.519792 190.393723 
L 313.983584 246.431119 
L 314.447377 217.655159 
L 314.911169 253.498898 
L 315.374961 305.749983 
L 315.838753 290.352321 
L 316.302545 195.946978 
L 316.766338 300.701569 
L 317.23013 243.149649 
L 317.693922 340.079199 
L 318.157714 254.00374 
L 318.621506 200.23813 
L 319.085299 167.171018 
L 319.549091 285.303907 
L 320.012883 192.91793 
L 320.476675 198.723606 
L 321.40426 190.646144 
L 321.868052 214.373689 
L 322.331844 197.461503 
L 322.795636 190.646144 
L 323.259429 207.810751 
L 323.723221 162.627446 
L 324.187013 167.171018 
L 324.650805 221.69389 
L 325.114597 190.141302 
L 325.57839 189.636461 
L 326.042182 195.189716 
L 326.505974 184.335626 
L 326.969766 194.432454 
L 327.433558 314.837129 
L 327.897351 270.411085 
L 328.361143 182.06384 
L 328.824935 299.439466 
L 329.288727 178.025109 
L 329.752519 166.918598 
L 330.216312 165.404073 
L 330.680104 169.947646 
L 331.143896 343.360668 
L 331.607688 340.58404 
L 332.071481 278.488548 
L 332.535273 150.258831 
L 332.999065 188.879199 
L 333.462857 169.190384 
L 333.926649 164.646811 
L 334.390442 161.870184 
L 334.854234 162.375025 
L 335.318026 159.850818 
L 335.781818 169.947646 
L 336.24561 166.413756 
L 336.709403 157.07419 
L 337.173195 193.170351 
L 337.636987 113.65783 
L 338.100779 161.365342 
L 339.028364 152.025776 
L 339.492156 189.888881 
L 339.955948 183.325943 
L 340.41974 254.508581 
L 340.883532 168.180701 
L 341.347325 155.812087 
L 341.811117 165.404073 
L 342.274909 165.908915 
L 342.738701 143.191052 
L 343.202494 173.733957 
L 343.666286 135.113589 
L 344.130078 140.414424 
L 344.59387 154.802404 
L 345.057662 283.284541 
L 345.521455 291.362003 
L 346.449039 142.181369 
L 346.912831 153.035459 
L 347.376623 154.045142 
L 347.840416 152.530618 
L 348.304208 155.054825 
L 348.768 121.987713 
L 349.231792 327.205743 
L 349.695584 172.976694 
L 350.159377 139.657162 
L 350.623169 158.083873 
L 351.086961 148.996728 
L 351.550753 131.579699 
L 352.014545 229.518932 
L 352.478338 269.653823 
L 352.94213 189.888881 
L 353.405922 131.579699 
L 353.869714 141.676528 
L 354.333506 155.559666 
L 354.797299 162.375025 
L 355.261091 131.83212 
L 355.724883 129.560334 
L 356.188675 136.123272 
L 356.652468 163.889549 
L 357.11626 136.123272 
L 357.580052 256.527947 
L 358.043844 130.570017 
L 358.507636 114.415092 
L 358.971429 126.278865 
L 359.435221 142.938631 
L 359.899013 145.462838 
L 360.362805 146.977362 
L 360.826597 137.890217 
L 361.29039 134.103907 
L 361.754182 108.104574 
L 362.217974 128.550651 
L 362.681766 135.870851 
L 363.145558 140.666845 
L 363.609351 133.094224 
L 364.073143 121.735292 
L 364.536935 136.123272 
L 365.000727 137.637796 
L 365.464519 135.618431 
L 365.928312 137.385376 
L 366.392104 140.919265 
L 366.855896 106.59005 
L 367.319688 135.618431 
L 368.247273 66.96 
L 368.711065 114.919933 
L 369.174857 98.260167 
L 369.638649 128.803072 
L 370.102442 94.978698 
L 370.566234 111.386043 
L 371.030026 132.841803 
L 371.493818 133.599065 
L 371.95761 135.113589 
L 372.421403 134.356327 
L 372.885195 138.8999 
L 373.348987 121.482871 
L 373.812779 126.278865 
L 374.276571 132.589382 
L 374.740364 112.648147 
L 375.204156 115.677195 
L 375.667948 108.104574 
L 376.13174 78.823773 
L 376.595532 116.686878 
L 377.059325 115.677195 
L 377.523117 118.201402 
L 377.986909 99.52227 
L 378.450701 95.231119 
L 378.914494 130.822437 
L 379.378286 108.104574 
L 379.842078 122.240134 
L 380.30587 130.822437 
L 380.769662 111.890885 
L 381.233455 135.870851 
L 381.697247 134.356327 
L 382.161039 138.647479 
L 382.624831 116.686878 
L 383.088623 114.919933 
L 383.552416 335.535626 
L 384.016208 128.803072 
L 384.48 129.812755 
L 385.407584 103.05616 
L 385.871377 100.027112 
L 386.335169 86.901235 
L 386.798961 138.647479 
L 387.262753 139.152321 
L 387.726545 104.318264 
L 388.190338 142.938631 
L 389.581714 131.327279 
L 390.045506 119.463506 
L 390.509299 86.648815 
L 390.973091 87.658497 
L 391.436883 142.181369 
L 392.364468 109.114257 
L 392.82826 189.636461 
L 393.292052 128.550651 
L 393.755844 153.035459 
L 394.219636 137.385376 
L 394.683429 137.637796 
L 395.147221 145.967679 
L 395.611013 142.938631 
L 396.074805 249.207746 
L 396.538597 142.68621 
L 397.00239 143.191052 
L 397.929974 138.142638 
L 398.393766 133.346644 
L 398.857558 134.608748 
L 399.321351 142.938631 
L 399.785143 141.676528 
L 400.248935 134.608748 
L 400.712727 114.919933 
L 401.176519 146.2201 
L 401.640312 132.841803 
L 402.104104 96.493222 
L 402.567896 125.016761 
L 403.031688 128.803072 
L 403.495481 117.696561 
L 403.959273 150.511252 
L 404.423065 249.965008 
L 404.886857 311.050818 
L 405.350649 291.614424 
L 405.814442 144.453155 
L 406.278234 129.055492 
L 406.742026 149.75399 
L 407.205818 90.182705 
L 407.66961 134.356327 
L 408.133403 136.123272 
L 408.597195 135.618431 
L 409.060987 127.288548 
L 409.524779 213.364007 
L 409.988571 86.396394 
L 410.452364 114.162671 
L 410.916156 133.851486 
L 411.379948 141.424107 
L 411.84374 142.68621 
L 412.307532 141.676528 
L 412.771325 141.424107 
L 413.235117 140.919265 
L 413.698909 144.200735 
L 414.162701 142.938631 
L 414.626494 157.07419 
L 415.090286 134.608748 
L 415.554078 146.472521 
L 416.01787 142.43379 
L 416.481662 118.706244 
L 416.945455 133.599065 
L 417.409247 128.803072 
L 417.873039 143.695893 
L 418.336831 148.239466 
L 418.800623 144.453155 
L 419.264416 149.75399 
L 419.728208 150.258831 
L 420.192 211.09222 
L 420.655792 369.36 
L 421.119584 150.511252 
L 421.583377 134.103907 
L 422.047169 279.24581 
L 422.510961 351.18571 
L 422.974753 91.949649 
L 423.438545 113.65783 
L 423.902338 118.706244 
L 424.36613 356.991386 
L 424.829922 137.385376 
L 425.293714 153.792721 
L 425.757506 151.268514 
L 426.221299 129.307913 
L 426.685091 148.744307 
L 427.148883 111.133623 
L 427.612675 142.181369 
L 428.076468 137.890217 
L 428.54026 140.666845 
L 429.004052 133.094224 
L 429.467844 139.909583 
L 429.931636 131.579699 
L 430.395429 126.531285 
L 430.859221 139.152321 
L 431.323013 143.948314 
L 431.786805 145.967679 
L 432.250597 145.210417 
L 432.71439 131.83212 
L 433.178182 135.113589 
L 433.641974 127.540968 
L 434.105766 141.676528 
L 434.569558 140.414424 
L 435.033351 140.919265 
L 435.497143 113.91025 
L 435.960935 123.502237 
L 436.424727 102.551319 
L 436.888519 121.735292 
L 437.352312 151.268514 
L 437.816104 120.97803 
L 438.279896 125.269182 
L 438.743688 144.705576 
L 439.207481 147.229783 
L 439.671273 135.618431 
L 440.135065 148.996728 
L 440.598857 112.395726 
L 441.062649 130.822437 
L 441.526442 114.415092 
L 441.990234 107.599733 
L 442.917818 143.443472 
L 443.38161 143.695893 
L 443.845403 129.307913 
L 444.309195 102.80374 
L 444.772987 130.822437 
L 445.236779 112.395726 
L 445.700571 115.172354 
L 446.164364 147.229783 
L 446.628156 258.042471 
L 447.091948 232.043139 
L 447.55574 114.919933 
L 448.019532 150.763673 
L 448.483325 115.677195 
L 448.947117 143.443472 
L 449.410909 132.589382 
L 449.874701 151.773356 
L 450.338494 144.453155 
L 450.802286 148.996728 
L 451.266078 107.599733 
L 451.72987 126.026444 
L 452.193662 151.016093 
L 452.657455 127.793389 
L 453.121247 123.249816 
L 453.585039 151.520935 
L 454.048831 138.142638 
L 454.512623 137.637796 
L 454.976416 151.016093 
L 455.440208 158.588715 
L 455.904 129.307913 
L 456.367792 133.851486 
L 456.831584 150.006411 
L 457.295377 144.200735 
L 457.759169 156.064508 
L 458.222961 159.598397 
L 458.686753 156.316928 
L 459.150545 133.851486 
L 459.614338 216.645476 
L 460.07813 252.741636 
L 460.541922 166.413756 
L 461.005714 297.4201 
L 461.469506 172.724274 
L 461.933299 296.157997 
L 462.397091 153.035459 
L 462.860883 283.536962 
L 463.324675 273.944975 
L 463.788468 175.500902 
L 464.25226 169.190384 
L 464.716052 176.258164 
L 465.179844 148.239466 
L 466.107429 174.99606 
L 466.571221 294.643472 
L 467.035013 170.704908 
L 467.498805 173.229115 
L 467.962597 172.976694 
L 468.42639 174.238798 
L 468.890182 202.257496 
L 469.353974 179.792053 
L 469.817766 178.025109 
L 470.281558 181.054157 
L 470.745351 173.481536 
L 471.209143 186.859833 
L 471.672935 187.617095 
L 472.136727 184.335626 
L 472.600519 242.644808 
L 473.064312 248.955326 
L 473.528104 315.846811 
L 473.991896 168.685543 
L 474.455688 188.626778 
L 474.919481 185.092888 
L 475.383273 185.092888 
L 475.847065 173.481536 
L 476.310857 150.006411 
L 476.774649 154.802404 
L 477.238442 199.228447 
L 477.702234 198.218765 
L 478.166026 172.976694 
L 478.629818 188.626778 
L 479.09361 195.946978 
L 479.557403 168.937963 
L 480.021195 315.594391 
L 480.484987 327.205743 
L 480.948779 332.758998 
L 481.412571 322.66217 
L 481.876364 335.030785 
L 482.340156 310.798397 
L 482.803948 305.245142 
L 483.26774 296.410417 
L 483.731532 205.538965 
L 484.195325 307.012087 
L 484.659117 199.480868 
L 485.122909 195.442137 
L 485.586701 204.529282 
L 486.050494 200.23813 
L 486.514286 226.742304 
L 486.978078 322.914591 
L 487.44187 220.179366 
L 487.905662 316.604073 
L 488.369455 368.602738 
L 488.833247 273.187713 
L 489.297039 216.140634 
L 489.760831 216.140634 
L 490.224623 215.635793 
L 490.688416 258.042471 
L 491.152208 247.693222 
L 491.616 193.927613 
L 492.079792 208.315593 
L 492.543584 208.568013 
L 493.007377 217.907579 
L 493.471169 240.877863 
L 493.934961 332.254157 
L 494.398753 217.402738 
L 494.862545 197.713923 
L 495.326338 316.856494 
L 496.253922 257.537629 
L 496.717714 170.704908 
L 497.181506 186.607412 
L 497.645299 157.579032 
L 498.109091 172.219432 
L 498.109091 172.219432 
" clip-path="url(#pe048d4015e)" style="fill: none; stroke: #1f77b4; stroke-width: 1.5; stroke-linecap: round"/>
   </g>
   <g id="line2d_14">
    <path d="M 92.290909 161.097558 
L 92.754701 159.341434 
L 93.218494 162.568068 
L 93.682286 171.135129 
L 94.146078 166.928197 
L 94.60987 161.496616 
L 95.073662 176.199991 
L 95.537455 168.839406 
L 96.001247 173.549485 
L 96.465039 183.082763 
L 96.928831 182.193482 
L 97.392623 163.828669 
L 97.856416 182.798936 
L 98.320208 172.374223 
L 98.784 192.079718 
L 99.247792 185.400457 
L 99.711584 165.615483 
L 100.175377 162.666178 
L 101.102961 149.891548 
L 102.030545 171.157374 
L 102.494338 176.618163 
L 102.95813 176.251382 
L 103.885714 162.024685 
L 104.349506 167.503964 
L 104.813299 165.867133 
L 105.277091 162.442297 
L 106.204675 170.634322 
L 106.668468 172.81499 
L 107.13226 199.305912 
L 107.596052 214.861393 
L 108.059844 245.766552 
L 108.523636 247.113277 
L 109.451221 263.745555 
L 109.915013 268.857768 
L 110.378805 270.814371 
L 110.842597 274.813709 
L 111.30639 273.719518 
L 111.770182 249.622605 
L 112.233974 260.7258 
L 112.697766 243.665787 
L 113.161558 242.597902 
L 113.625351 243.261044 
L 114.089143 232.762128 
L 114.552935 236.847877 
L 115.016727 238.186733 
L 115.480519 244.246433 
L 115.944312 244.137145 
L 116.408104 244.800287 
L 116.871896 243.372819 
L 117.335688 227.912845 
L 117.799481 229.31681 
L 118.263273 238.043612 
L 118.727065 243.149832 
L 119.190857 259.317274 
L 119.654649 251.254151 
L 120.118442 250.274955 
L 121.046026 228.735815 
L 121.509818 225.195036 
L 121.97361 245.18985 
L 122.437403 259.721645 
L 122.901195 255.559269 
L 123.364987 259.508486 
L 123.828779 260.480304 
L 124.292571 256.876208 
L 124.756364 254.868528 
L 125.220156 251.534947 
L 125.683948 254.602086 
L 126.14774 251.22104 
L 126.611532 253.893998 
L 127.075325 252.245543 
L 127.539117 246.66156 
L 128.002909 248.592113 
L 128.466701 246.149245 
L 129.394286 263.37364 
L 129.858078 259.505029 
L 130.32187 259.420304 
L 130.785662 265.532432 
L 131.249455 264.123956 
L 131.713247 247.954203 
L 132.177039 266.098299 
L 132.640831 247.441085 
L 133.104623 254.637367 
L 133.568416 252.098754 
L 134.032208 248.757218 
L 134.496 241.116662 
L 134.959792 252.997397 
L 135.423584 247.441085 
L 135.887377 240.163024 
L 136.351169 245.429437 
L 136.814961 243.263457 
L 137.278753 250.120664 
L 137.742545 248.06201 
L 138.206338 249.025948 
L 138.67013 248.685546 
L 139.133922 247.923577 
L 139.597714 243.943518 
L 140.061506 259.183919 
L 140.525299 259.988124 
L 141.452883 253.920022 
L 141.916675 273.447128 
L 142.380468 264.07594 
L 142.84426 260.795544 
L 143.308052 255.755513 
L 143.771844 253.420411 
L 144.235636 247.85052 
L 144.699429 250.686624 
L 145.627013 276.199964 
L 146.090805 265.82281 
L 146.554597 249.00656 
L 147.01839 260.183453 
L 147.482182 251.521671 
L 147.945974 255.464554 
L 148.409766 262.23232 
L 148.873558 254.522585 
L 149.337351 255.934866 
L 149.801143 244.928083 
L 150.264935 246.826259 
L 150.728727 251.534947 
L 151.192519 240.918347 
L 152.120104 252.469295 
L 152.583896 253.205129 
L 153.047688 255.47512 
L 153.511481 254.563263 
L 154.439065 246.85884 
L 154.902857 238.526015 
L 155.366649 251.938222 
L 155.830442 246.275465 
L 156.294234 238.889812 
L 156.758026 244.825677 
L 157.221818 248.163705 
L 157.68561 248.455279 
L 158.149403 237.711375 
L 158.613195 229.943256 
L 159.076987 250.998491 
L 159.540779 258.18256 
L 160.004571 231.182079 
L 160.468364 253.802696 
L 160.932156 257.38418 
L 161.395948 247.608424 
L 161.85974 240.983678 
L 162.323532 237.772799 
L 162.787325 218.655587 
L 163.251117 237.38129 
L 163.714909 274.953041 
L 164.178701 239.672118 
L 164.642494 230.438499 
L 165.106286 207.968191 
L 165.570078 243.318844 
L 166.03387 231.592171 
L 166.497662 216.353425 
L 166.961455 218.264267 
L 167.425247 216.954218 
L 167.889039 209.602377 
L 168.352831 231.635815 
L 168.816623 220.279745 
L 169.280416 226.702825 
L 169.744208 215.804951 
L 170.208 219.004632 
L 170.671792 250.35778 
L 171.135584 242.370781 
L 171.599377 242.906714 
L 172.063169 243.871852 
L 172.526961 232.427195 
L 172.990753 204.130918 
L 173.454545 211.676435 
L 173.918338 197.929466 
L 174.38213 198.581613 
L 174.845922 165.052314 
L 175.309714 231.577333 
L 176.237299 221.376675 
L 177.164883 246.058559 
L 177.628675 248.090307 
L 178.092468 255.176739 
L 178.55626 250.60669 
L 179.020052 238.882586 
L 179.483844 191.852617 
L 179.947636 188.420361 
L 180.411429 206.982856 
L 180.875221 186.508092 
L 181.339013 187.227468 
L 181.802805 184.675335 
L 182.266597 170.825229 
L 182.73039 189.60351 
L 183.194182 224.45343 
L 183.657974 237.743306 
L 184.121766 176.791242 
L 184.585558 180.463118 
L 185.049351 176.717797 
L 185.513143 168.226688 
L 185.976935 169.709872 
L 186.440727 169.484858 
L 186.904519 160.853455 
L 187.368312 163.699112 
L 187.832104 162.997495 
L 188.295896 160.374676 
L 188.759688 162.001006 
L 189.687273 149.273859 
L 190.151065 149.548301 
L 190.614857 164.73072 
L 191.078649 147.600315 
L 191.542442 150.650968 
L 192.006234 149.216028 
L 192.470026 167.25207 
L 192.933818 169.296606 
L 193.39761 184.556742 
L 193.861403 181.82732 
L 194.325195 163.87883 
L 194.788987 161.156229 
L 195.252779 164.558665 
L 195.716571 166.319831 
L 196.180364 169.915151 
L 196.644156 167.781865 
L 197.107948 160.712246 
L 197.57174 169.45531 
L 198.035532 175.483608 
L 198.499325 170.117343 
L 198.963117 161.404132 
L 199.426909 159.725255 
L 199.890701 161.321465 
L 200.354494 143.589669 
L 200.818286 155.853834 
L 201.282078 176.581032 
L 201.74587 172.866862 
L 202.209662 134.012846 
L 202.673455 130.146775 
L 203.137247 146.695917 
L 203.601039 167.251016 
L 204.528623 149.237357 
L 204.992416 143.757654 
L 205.456208 163.790922 
L 205.92 166.485732 
L 206.383792 158.453787 
L 206.847584 163.449954 
L 207.311377 188.994447 
L 207.775169 160.829295 
L 208.238961 139.997765 
L 208.702753 137.463598 
L 209.166545 143.823428 
L 209.630338 140.24632 
L 210.09413 162.881802 
L 210.557922 171.260649 
L 211.021714 165.876988 
L 211.485506 145.751869 
L 211.949299 133.0344 
L 212.413091 134.275918 
L 212.876883 130.634758 
L 213.340675 140.576531 
L 213.804468 141.478835 
L 214.26826 141.872064 
L 214.732052 140.990738 
L 215.195844 139.736417 
L 215.659636 147.835697 
L 216.123429 160.111191 
L 216.587221 139.688674 
L 217.051013 131.795615 
L 217.514805 143.344901 
L 217.978597 142.519513 
L 218.44239 140.991667 
L 218.906182 137.066336 
L 219.369974 134.941566 
L 219.833766 134.639264 
L 220.297558 127.58111 
L 220.761351 145.382412 
L 221.225143 146.918553 
L 221.688935 139.66528 
L 222.152727 134.733862 
L 222.616519 164.512336 
L 223.080312 141.392537 
L 223.544104 143.019371 
L 224.007896 143.649475 
L 224.471688 141.219492 
L 224.935481 146.973596 
L 225.399273 147.292017 
L 225.863065 151.085267 
L 226.326857 139.347145 
L 226.790649 142.453215 
L 227.718234 145.307033 
L 228.182026 140.0206 
L 228.645818 144.783701 
L 229.10961 139.736417 
L 229.573403 142.090189 
L 230.037195 146.080779 
L 230.500987 139.277511 
L 230.964779 137.701366 
L 231.428571 143.267788 
L 231.892364 147.423715 
L 232.356156 148.523374 
L 232.819948 139.314433 
L 233.28374 138.766279 
L 233.747532 138.766279 
L 234.211325 140.0206 
L 234.675117 138.766279 
L 235.138909 140.990738 
L 235.602701 133.01101 
L 236.066494 151.993221 
L 236.530286 129.825738 
L 236.994078 144.449384 
L 237.45787 148.134478 
L 237.921662 142.189629 
L 238.385455 147.565643 
L 238.849247 142.091118 
L 239.313039 140.820509 
L 239.776831 142.090189 
L 240.240623 140.0206 
L 240.704416 129.189337 
L 241.168208 125.674467 
L 241.632 127.97341 
L 242.095792 126.619842 
L 242.559584 142.931236 
L 243.023377 146.918553 
L 243.487169 145.753838 
L 243.950961 140.284571 
L 244.414753 145.355452 
L 244.878545 145.355452 
L 245.342338 147.49906 
L 245.80613 146.776112 
L 246.269922 147.637012 
L 246.733714 149.933455 
L 247.197506 164.676558 
L 247.661299 162.2577 
L 248.125091 148.086112 
L 248.588883 144.553076 
L 249.052675 139.453879 
L 249.516468 143.368309 
L 249.98026 152.011014 
L 250.444052 150.851068 
L 250.907844 146.251007 
L 251.371636 154.45588 
L 251.835429 159.56234 
L 252.299221 166.812535 
L 252.763013 152.647767 
L 253.226805 160.886542 
L 253.690597 148.98234 
L 254.15439 148.535534 
L 254.618182 146.902724 
L 255.081974 170.408666 
L 255.545766 180.257302 
L 256.009558 196.343124 
L 256.473351 145.10392 
L 256.937143 155.363875 
L 257.400935 149.891548 
L 257.864727 139.761501 
L 258.328519 150.037742 
L 258.792312 153.265746 
L 259.256104 153.265746 
L 259.719896 163.798478 
L 260.647481 174.955604 
L 261.111273 169.952112 
L 261.575065 173.063949 
L 262.038857 162.156137 
L 262.502649 164.895128 
L 262.966442 171.542204 
L 263.430234 168.35232 
L 263.894026 169.208484 
L 264.357818 171.172379 
L 265.285403 161.780907 
L 265.749195 173.191063 
L 266.212987 142.946977 
L 266.676779 140.63862 
L 267.140571 141.738071 
L 268.068156 174.587134 
L 268.531948 183.468714 
L 269.459532 167.824696 
L 269.923325 169.594687 
L 270.387117 178.153597 
L 270.850909 180.466833 
L 271.314701 239.925101 
L 271.778494 177.651592 
L 272.242286 191.043809 
L 272.706078 200.762327 
L 273.16987 215.925347 
L 273.633662 208.577571 
L 274.097455 209.437727 
L 274.561247 215.111807 
L 275.025039 215.364207 
L 275.488831 200.353049 
L 275.952623 198.627243 
L 276.416416 209.574772 
L 276.880208 181.570443 
L 277.344 180.882484 
L 277.807792 181.719577 
L 278.735377 206.616697 
L 279.199169 213.705082 
L 279.662961 239.206629 
L 280.126753 248.907061 
L 280.590545 247.881699 
L 281.054338 243.732402 
L 281.51813 240.930395 
L 281.981922 236.105102 
L 282.909506 229.336506 
L 283.373299 228.109783 
L 283.837091 244.780149 
L 284.300883 253.463553 
L 284.764675 251.231999 
L 285.228468 248.189379 
L 285.69226 258.663307 
L 286.619844 250.973356 
L 287.083636 253.679541 
L 287.547429 246.419077 
L 288.011221 252.501263 
L 288.475013 250.128991 
L 288.938805 244.30431 
L 289.402597 245.787207 
L 289.86639 245.124066 
L 290.330182 239.861165 
L 290.793974 250.943332 
L 291.257766 252.365019 
L 291.721558 243.200101 
L 292.185351 244.380878 
L 292.649143 243.415493 
L 293.112935 250.178159 
L 293.576727 246.759962 
L 294.040519 236.024509 
L 294.504312 241.779353 
L 294.968104 242.680123 
L 295.431896 246.82843 
L 295.895688 244.331473 
L 296.359481 250.120742 
L 296.823273 248.654743 
L 297.287065 248.455279 
L 297.750857 250.508633 
L 298.214649 243.619034 
L 298.678442 246.999548 
L 299.142234 251.797225 
L 299.606026 252.610002 
L 300.069818 245.335002 
L 300.53361 253.167353 
L 300.997403 253.991578 
L 301.461195 237.347063 
L 301.924987 237.59831 
L 302.388779 244.499705 
L 302.852571 244.38064 
L 303.316364 258.307189 
L 303.780156 267.759317 
L 304.70774 260.156335 
L 305.171532 250.119645 
L 305.635325 248.73854 
L 306.099117 263.727795 
L 306.562909 255.296794 
L 307.026701 238.451461 
L 307.490494 239.227094 
L 307.954286 243.571582 
L 308.418078 245.52116 
L 308.88187 254.729014 
L 309.345662 255.02503 
L 309.809455 256.941233 
L 310.273247 252.421931 
L 310.737039 253.737858 
L 311.200831 252.017554 
L 311.664623 242.264825 
L 312.128416 251.938222 
L 312.592208 254.103539 
L 313.056 251.750516 
L 313.519792 243.885009 
L 314.447377 264.181209 
L 314.911169 258.803723 
L 315.374961 259.209388 
L 315.838753 262.086895 
L 316.302545 253.028664 
L 316.766338 251.703345 
L 317.23013 255.434204 
L 317.693922 253.639574 
L 318.157714 252.481705 
L 318.621506 269.717438 
L 319.085299 251.681717 
L 319.549091 245.415115 
L 320.012883 254.597584 
L 320.476675 250.229289 
L 320.940468 238.861568 
L 321.40426 239.674454 
L 321.868052 244.72758 
L 322.331844 242.517488 
L 322.795636 243.926026 
L 323.259429 251.968295 
L 323.723221 252.825206 
L 324.187013 256.112106 
L 324.650805 245.307839 
L 325.114597 241.375657 
L 325.57839 238.958759 
L 326.042182 243.492677 
L 326.505974 238.847849 
L 326.969766 246.336978 
L 327.433558 232.185983 
L 327.897351 249.81113 
L 328.361143 246.492462 
L 328.824935 244.065998 
L 329.288727 242.530611 
L 329.752519 255.263015 
L 330.216312 239.144558 
L 330.680104 244.381083 
L 331.143896 237.702385 
L 332.071481 266.189792 
L 332.535273 261.880817 
L 332.999065 247.441209 
L 333.462857 253.91446 
L 333.926649 245.630803 
L 334.390442 244.609637 
L 334.854234 244.014221 
L 335.781818 209.538607 
L 336.24561 220.663473 
L 336.709403 224.073748 
L 337.173195 204.598803 
L 337.636987 240.414007 
L 338.100779 189.942998 
L 338.564571 190.45117 
L 339.028364 195.462457 
L 339.492156 209.152345 
L 339.955948 212.00472 
L 340.41974 233.276036 
L 340.883532 231.807546 
L 341.347325 233.995954 
L 342.274909 202.733558 
L 342.738701 205.988646 
L 343.202494 187.384149 
L 343.666286 194.422471 
L 344.130078 183.873682 
L 344.59387 168.368962 
L 345.057662 166.454939 
L 345.521455 190.856904 
L 345.985247 205.74966 
L 346.449039 232.793678 
L 346.912831 188.100019 
L 347.376623 190.742504 
L 347.840416 198.316315 
L 348.304208 198.316315 
L 348.768 195.270863 
L 349.231792 176.62099 
L 349.695584 187.688755 
L 350.159377 211.682331 
L 350.623169 171.081002 
L 351.086961 178.406026 
L 351.550753 183.505671 
L 352.014545 172.47713 
L 352.478338 179.780222 
L 353.405922 221.648519 
L 353.869714 182.382449 
L 354.333506 166.825413 
L 354.797299 174.50791 
L 355.261091 205.313667 
L 355.724883 185.568635 
L 356.188675 147.224667 
L 356.652468 147.825806 
L 357.580052 184.188493 
L 358.043844 180.828607 
L 358.507636 170.728181 
L 358.971429 177.379075 
L 359.435221 159.703594 
L 359.899013 163.163216 
L 360.362805 165.629422 
L 360.826597 165.338813 
L 361.29039 156.537392 
L 361.754182 150.646062 
L 362.217974 147.292017 
L 362.681766 162.04104 
L 363.145558 151.180099 
L 363.609351 150.063402 
L 364.073143 152.995171 
L 364.536935 161.12423 
L 365.000727 148.535534 
L 365.464519 147.292017 
L 365.928312 146.534146 
L 366.392104 150.306918 
L 366.855896 150.306918 
L 367.319688 149.549609 
L 367.783481 141.961619 
L 368.247273 138.728101 
L 369.174857 152.589251 
L 369.638649 144.482994 
L 370.102442 144.940471 
L 370.566234 131.997196 
L 371.030026 133.706836 
L 371.493818 143.798596 
L 371.95761 143.917114 
L 372.421403 147.883818 
L 372.885195 147.292017 
L 373.348987 150.24399 
L 373.812779 143.856819 
L 374.276571 144.093896 
L 374.740364 139.400952 
L 375.204156 141.78461 
L 375.667948 140.637691 
L 376.13174 133.436385 
L 376.595532 135.07358 
L 377.059325 131.428114 
L 377.523117 131.997196 
L 377.986909 133.967519 
L 378.450701 151.207217 
L 379.378286 159.543882 
L 379.842078 158.718074 
L 380.30587 149.801209 
L 380.769662 163.193285 
L 381.233455 136.025338 
L 381.697247 140.567775 
L 382.161039 141.988435 
L 382.624831 150.715042 
L 383.088623 147.292017 
L 383.552416 141.764924 
L 384.016208 168.781086 
L 384.48 162.674539 
L 384.943792 154.423808 
L 385.407584 149.991144 
L 385.871377 156.12577 
L 386.335169 149.686167 
L 386.798961 128.55681 
L 387.726545 143.516058 
L 388.190338 133.035329 
L 388.65413 131.175701 
L 389.117922 131.198537 
L 389.581714 140.991667 
L 390.045506 147.292017 
L 390.509299 134.676045 
L 391.436883 134.981346 
L 391.900675 179.320401 
L 392.364468 165.355464 
L 392.82826 158.164185 
L 393.292052 165.623991 
L 393.755844 159.563723 
L 394.219636 164.729791 
L 394.683429 143.656527 
L 395.147221 147.499989 
L 395.611013 146.777534 
L 396.074805 141.538892 
L 396.538597 165.811351 
L 397.00239 139.808897 
L 397.466182 140.0206 
L 397.929974 139.144205 
L 398.393766 140.021529 
L 398.857558 139.736417 
L 399.321351 139.736417 
L 399.785143 138.766279 
L 400.248935 138.766279 
L 400.712727 138.596051 
L 401.176519 141.724143 
L 401.640312 148.573906 
L 402.104104 140.998551 
L 402.567896 147.45171 
L 403.031688 142.907468 
L 403.495481 128.997202 
L 403.959273 129.212835 
L 404.423065 174.594899 
L 404.886857 169.459131 
L 405.350649 172.778816 
L 405.814442 185.754166 
L 406.278234 184.537399 
L 406.742026 172.084302 
L 407.205818 175.458934 
L 407.66961 165.011937 
L 408.133403 164.748278 
L 408.597195 150.183941 
L 409.060987 149.991144 
L 409.524779 147.121788 
L 409.988571 153.659511 
L 410.452364 133.94949 
L 410.916156 129.417162 
L 411.379948 138.115315 
L 411.84374 144.167775 
L 412.307532 146.602173 
L 412.771325 164.990064 
L 413.235117 141.537912 
L 413.698909 146.751535 
L 414.162701 156.148357 
L 414.626494 146.732762 
L 415.090286 153.638106 
L 416.01787 160.122994 
L 416.481662 149.410945 
L 416.945455 141.366755 
L 417.409247 147.120859 
L 417.873039 143.445186 
L 418.336831 147.691857 
L 418.800623 149.933455 
L 419.264416 164.416774 
L 419.728208 161.056771 
L 420.192 161.820526 
L 420.655792 171.643069 
L 421.119584 213.576826 
L 421.583377 201.788012 
L 422.047169 176.142041 
L 422.510961 199.255393 
L 422.974753 211.475253 
L 423.438545 185.121466 
L 423.902338 165.09766 
L 424.36613 162.040915 
L 424.829922 196.424291 
L 425.293714 180.258779 
L 425.757506 168.820178 
L 426.221299 172.429203 
L 426.685091 152.185384 
L 427.148883 157.533401 
L 427.612675 137.145522 
L 428.076468 140.609132 
L 428.54026 140.0206 
L 429.004052 141.29028 
L 429.467844 138.399843 
L 429.931636 140.842546 
L 430.395429 129.041145 
L 430.859221 128.870917 
L 431.323013 140.990738 
L 431.786805 140.990738 
L 432.250597 141.256354 
L 432.71439 141.229946 
L 433.178182 140.0206 
L 433.641974 140.842546 
L 434.105766 129.041145 
L 434.569558 139.588225 
L 435.033351 139.417996 
L 435.497143 138.596051 
L 435.960935 135.385579 
L 436.424727 136.501315 
L 436.888519 144.843337 
L 437.352312 145.877567 
L 437.816104 144.152111 
L 438.279896 140.396808 
L 438.743688 139.851301 
L 439.207481 141.679266 
L 439.671273 154.051467 
L 440.135065 140.7082 
L 440.598857 148.638756 
L 441.062649 140.05758 
L 441.526442 141.678337 
L 441.990234 140.990471 
L 442.454026 150.769284 
L 442.917818 140.763389 
L 443.38161 144.911845 
L 443.845403 147.49906 
L 444.309195 146.552707 
L 444.772987 167.675291 
L 445.236779 141.561246 
L 445.700571 130.389949 
L 446.164364 163.877196 
L 446.628156 160.523254 
L 447.091948 169.936737 
L 447.55574 189.61271 
L 448.019532 176.198078 
L 448.483325 171.294957 
L 448.947117 163.691187 
L 449.410909 165.634666 
L 449.874701 163.873621 
L 450.338494 167.28284 
L 450.802286 163.348776 
L 451.266078 164.398507 
L 451.72987 182.164752 
L 452.193662 156.514332 
L 452.657455 153.662346 
L 453.121247 147.498638 
L 453.585039 145.582569 
L 454.048831 151.172025 
L 454.512623 158.959818 
L 454.976416 152.645907 
L 455.904 170.363582 
L 456.367792 167.264032 
L 456.831584 169.710056 
L 457.295377 167.766619 
L 457.759169 168.136908 
L 458.222961 170.800251 
L 458.686753 176.473623 
L 459.150545 195.581719 
L 459.614338 185.27958 
L 460.07813 183.911539 
L 460.541922 215.545448 
L 461.005714 214.904851 
L 461.933299 239.24429 
L 462.397091 235.416737 
L 462.860883 228.946423 
L 463.324675 236.240117 
L 463.788468 247.748554 
L 464.25226 237.67549 
L 464.716052 216.997291 
L 465.179844 216.691596 
L 465.643636 200.847343 
L 466.107429 196.943204 
L 466.571221 203.804485 
L 467.035013 219.910451 
L 467.498805 231.58687 
L 467.962597 214.005301 
L 468.42639 218.515731 
L 468.890182 218.120486 
L 469.353974 237.944402 
L 469.817766 235.452107 
L 470.281558 228.902488 
L 470.745351 233.786445 
L 471.209143 231.04953 
L 471.672935 225.004369 
L 472.136727 236.307219 
L 472.600519 236.487894 
L 473.064312 245.863783 
L 473.528104 245.314318 
L 473.991896 242.458219 
L 474.455688 231.575064 
L 474.919481 229.079921 
L 475.383273 232.165918 
L 475.847065 228.724009 
L 476.774649 204.718088 
L 477.238442 199.004074 
L 477.702234 212.702652 
L 478.166026 215.997749 
L 478.629818 238.446695 
L 479.09361 238.494945 
L 479.557403 233.606999 
L 480.021195 238.91704 
L 480.484987 247.40361 
L 480.948779 251.462187 
L 481.412571 254.321062 
L 481.876364 251.741989 
L 482.340156 250.665164 
L 482.803948 259.532715 
L 483.26774 261.503033 
L 483.731532 274.254835 
L 484.195325 266.546381 
L 484.659117 273.053892 
L 485.122909 251.520329 
L 485.586701 250.222859 
L 486.050494 246.908025 
L 486.514286 252.201872 
L 486.978078 256.157001 
L 487.44187 270.173889 
L 487.905662 252.815758 
L 488.369455 252.528611 
L 488.833247 271.900004 
L 489.297039 272.409322 
L 489.760831 269.437955 
L 490.224623 261.320827 
L 490.688416 261.795101 
L 491.152208 268.468878 
L 491.616 249.672605 
L 492.079792 244.167541 
L 492.543584 249.689034 
L 493.007377 245.267064 
L 493.471169 249.393414 
L 493.934961 243.594849 
L 494.398753 256.231103 
L 494.862545 257.299042 
L 495.326338 256.182762 
L 495.79013 252.291385 
L 496.253922 252.554408 
L 496.717714 240.00114 
L 497.181506 237.66455 
L 497.645299 231.327883 
L 498.109091 216.364254 
L 498.109091 216.364254 
" clip-path="url(#pe048d4015e)" style="fill: none; stroke: #ff7f0e; stroke-width: 1.5; stroke-linecap: round"/>
   </g>
   <g id="patch_3">
    <path d="M 72 384.48 
L 72 51.84 
" style="fill: none; stroke: #ffffff; stroke-width: 0.8; stroke-linejoin: miter; stroke-linecap: square"/>
   </g>
   <g id="patch_4">
    <path d="M 518.4 384.48 
L 518.4 51.84 
" style="fill: none; stroke: #ffffff; stroke-width: 0.8; stroke-linejoin: miter; stroke-linecap: square"/>
   </g>
   <g id="patch_5">
    <path d="M 72 384.48 
L 518.4 384.48 
" style="fill: none; stroke: #ffffff; stroke-width: 0.8; stroke-linejoin: miter; stroke-linecap: square"/>
   </g>
   <g id="patch_6">
    <path d="M 72 51.84 
L 518.4 51.84 
" style="fill: none; stroke: #ffffff; stroke-width: 0.8; stroke-linejoin: miter; stroke-linecap: square"/>
   </g>
   <g id="text_15">
    <!-- Maximum Solar Radiation Prediction 6 Days Ahead -->
    <g style="fill: #262626" transform="translate(159.139687 45.84) scale(0.12 -0.12)">
     <defs>
      <path id="ArialMT-4d" d="M 475 0 
L 475 4581 
L 1388 4581 
L 2472 1338 
Q 2622 884 2691 659 
Q 2769 909 2934 1394 
L 4031 4581 
L 4847 4581 
L 4847 0 
L 4263 0 
L 4263 3834 
L 2931 0 
L 2384 0 
L 1059 3900 
L 1059 0 
L 475 0 
z
" transform="scale(0.015625)"/>
      <path id="ArialMT-78" d="M 47 0 
L 1259 1725 
L 138 3319 
L 841 3319 
L 1350 2541 
Q 1494 2319 1581 2169 
Q 1719 2375 1834 2534 
L 2394 3319 
L 3066 3319 
L 1919 1756 
L 3153 0 
L 2463 0 
L 1781 1031 
L 1600 1309 
L 728 0 
L 47 0 
z
" transform="scale(0.015625)"/>
      <path id="ArialMT-69" d="M 425 3934 
L 425 4581 
L 988 4581 
L 988 3934 
L 425 3934 
z
M 425 0 
L 425 3319 
L 988 3319 
L 988 0 
L 425 0 
z
" transform="scale(0.015625)"/>
      <path id="ArialMT-75" d="M 2597 0 
L 2597 488 
Q 2209 -75 1544 -75 
Q 1250 -75 995 37 
Q 741 150 617 320 
Q 494 491 444 738 
Q 409 903 409 1263 
L 409 3319 
L 972 3319 
L 972 1478 
Q 972 1038 1006 884 
Q 1059 663 1231 536 
Q 1403 409 1656 409 
Q 1909 409 2131 539 
Q 2353 669 2445 892 
Q 2538 1116 2538 1541 
L 2538 3319 
L 3100 3319 
L 3100 0 
L 2597 0 
z
" transform="scale(0.015625)"/>
      <path id="ArialMT-20" transform="scale(0.015625)"/>
      <path id="ArialMT-53" d="M 288 1472 
L 859 1522 
Q 900 1178 1048 958 
Q 1197 738 1509 602 
Q 1822 466 2213 466 
Q 2559 466 2825 569 
Q 3091 672 3220 851 
Q 3350 1031 3350 1244 
Q 3350 1459 3225 1620 
Q 3100 1781 2813 1891 
Q 2628 1963 1997 2114 
Q 1366 2266 1113 2400 
Q 784 2572 623 2826 
Q 463 3081 463 3397 
Q 463 3744 659 4045 
Q 856 4347 1234 4503 
Q 1613 4659 2075 4659 
Q 2584 4659 2973 4495 
Q 3363 4331 3572 4012 
Q 3781 3694 3797 3291 
L 3216 3247 
Q 3169 3681 2898 3903 
Q 2628 4125 2100 4125 
Q 1550 4125 1298 3923 
Q 1047 3722 1047 3438 
Q 1047 3191 1225 3031 
Q 1400 2872 2139 2705 
Q 2878 2538 3153 2413 
Q 3553 2228 3743 1945 
Q 3934 1663 3934 1294 
Q 3934 928 3725 604 
Q 3516 281 3123 101 
Q 2731 -78 2241 -78 
Q 1619 -78 1198 103 
Q 778 284 539 648 
Q 300 1013 288 1472 
z
" transform="scale(0.015625)"/>
      <path id="ArialMT-6f" d="M 213 1659 
Q 213 2581 725 3025 
Q 1153 3394 1769 3394 
Q 2453 3394 2887 2945 
Q 3322 2497 3322 1706 
Q 3322 1066 3130 698 
Q 2938 331 2570 128 
Q 2203 -75 1769 -75 
Q 1072 -75 642 372 
Q 213 819 213 1659 
z
M 791 1659 
Q 791 1022 1069 705 
Q 1347 388 1769 388 
Q 2188 388 2466 706 
Q 2744 1025 2744 1678 
Q 2744 2294 2464 2611 
Q 2184 2928 1769 2928 
Q 1347 2928 1069 2612 
Q 791 2297 791 1659 
z
" transform="scale(0.015625)"/>
      <path id="ArialMT-6c" d="M 409 0 
L 409 4581 
L 972 4581 
L 972 0 
L 409 0 
z
" transform="scale(0.015625)"/>
      <path id="ArialMT-72" d="M 416 0 
L 416 3319 
L 922 3319 
L 922 2816 
Q 1116 3169 1280 3281 
Q 1444 3394 1641 3394 
Q 1925 3394 2219 3213 
L 2025 2691 
Q 1819 2813 1613 2813 
Q 1428 2813 1281 2702 
Q 1134 2591 1072 2394 
Q 978 2094 978 1738 
L 978 0 
L 416 0 
z
" transform="scale(0.015625)"/>
      <path id="ArialMT-52" d="M 503 0 
L 503 4581 
L 2534 4581 
Q 3147 4581 3465 4457 
Q 3784 4334 3975 4021 
Q 4166 3709 4166 3331 
Q 4166 2844 3850 2509 
Q 3534 2175 2875 2084 
Q 3116 1969 3241 1856 
Q 3506 1613 3744 1247 
L 4541 0 
L 3778 0 
L 3172 953 
Q 2906 1366 2734 1584 
Q 2563 1803 2427 1890 
Q 2291 1978 2150 2013 
Q 2047 2034 1813 2034 
L 1109 2034 
L 1109 0 
L 503 0 
z
M 1109 2559 
L 2413 2559 
Q 2828 2559 3062 2645 
Q 3297 2731 3419 2920 
Q 3541 3109 3541 3331 
Q 3541 3656 3305 3865 
Q 3069 4075 2559 4075 
L 1109 4075 
L 1109 2559 
z
" transform="scale(0.015625)"/>
      <path id="ArialMT-64" d="M 2575 0 
L 2575 419 
Q 2259 -75 1647 -75 
Q 1250 -75 917 144 
Q 584 363 401 755 
Q 219 1147 219 1656 
Q 219 2153 384 2558 
Q 550 2963 881 3178 
Q 1213 3394 1622 3394 
Q 1922 3394 2156 3267 
Q 2391 3141 2538 2938 
L 2538 4581 
L 3097 4581 
L 3097 0 
L 2575 0 
z
M 797 1656 
Q 797 1019 1065 703 
Q 1334 388 1700 388 
Q 2069 388 2326 689 
Q 2584 991 2584 1609 
Q 2584 2291 2321 2609 
Q 2059 2928 1675 2928 
Q 1300 2928 1048 2622 
Q 797 2316 797 1656 
z
" transform="scale(0.015625)"/>
      <path id="ArialMT-74" d="M 1650 503 
L 1731 6 
Q 1494 -44 1306 -44 
Q 1000 -44 831 53 
Q 663 150 594 308 
Q 525 466 525 972 
L 525 2881 
L 113 2881 
L 113 3319 
L 525 3319 
L 525 4141 
L 1084 4478 
L 1084 3319 
L 1650 3319 
L 1650 2881 
L 1084 2881 
L 1084 941 
Q 1084 700 1114 631 
Q 1144 563 1211 522 
Q 1278 481 1403 481 
Q 1497 481 1650 503 
z
" transform="scale(0.015625)"/>
      <path id="ArialMT-6e" d="M 422 0 
L 422 3319 
L 928 3319 
L 928 2847 
Q 1294 3394 1984 3394 
Q 2284 3394 2536 3286 
Q 2788 3178 2913 3003 
Q 3038 2828 3088 2588 
Q 3119 2431 3119 2041 
L 3119 0 
L 2556 0 
L 2556 2019 
Q 2556 2363 2490 2533 
Q 2425 2703 2258 2804 
Q 2091 2906 1866 2906 
Q 1506 2906 1245 2678 
Q 984 2450 984 1813 
L 984 0 
L 422 0 
z
" transform="scale(0.015625)"/>
      <path id="ArialMT-50" d="M 494 0 
L 494 4581 
L 2222 4581 
Q 2678 4581 2919 4538 
Q 3256 4481 3484 4323 
Q 3713 4166 3852 3881 
Q 3991 3597 3991 3256 
Q 3991 2672 3619 2267 
Q 3247 1863 2275 1863 
L 1100 1863 
L 1100 0 
L 494 0 
z
M 1100 2403 
L 2284 2403 
Q 2872 2403 3119 2622 
Q 3366 2841 3366 3238 
Q 3366 3525 3220 3729 
Q 3075 3934 2838 4000 
Q 2684 4041 2272 4041 
L 1100 4041 
L 1100 2403 
z
" transform="scale(0.015625)"/>
      <path id="ArialMT-65" d="M 2694 1069 
L 3275 997 
Q 3138 488 2766 206 
Q 2394 -75 1816 -75 
Q 1088 -75 661 373 
Q 234 822 234 1631 
Q 234 2469 665 2931 
Q 1097 3394 1784 3394 
Q 2450 3394 2872 2941 
Q 3294 2488 3294 1666 
Q 3294 1616 3291 1516 
L 816 1516 
Q 847 969 1125 678 
Q 1403 388 1819 388 
Q 2128 388 2347 550 
Q 2566 713 2694 1069 
z
M 847 1978 
L 2700 1978 
Q 2663 2397 2488 2606 
Q 2219 2931 1791 2931 
Q 1403 2931 1139 2672 
Q 875 2413 847 1978 
z
" transform="scale(0.015625)"/>
      <path id="ArialMT-63" d="M 2588 1216 
L 3141 1144 
Q 3050 572 2676 248 
Q 2303 -75 1759 -75 
Q 1078 -75 664 370 
Q 250 816 250 1647 
Q 250 2184 428 2587 
Q 606 2991 970 3192 
Q 1334 3394 1763 3394 
Q 2303 3394 2647 3120 
Q 2991 2847 3088 2344 
L 2541 2259 
Q 2463 2594 2264 2762 
Q 2066 2931 1784 2931 
Q 1359 2931 1093 2626 
Q 828 2322 828 1663 
Q 828 994 1084 691 
Q 1341 388 1753 388 
Q 2084 388 2306 591 
Q 2528 794 2588 1216 
z
" transform="scale(0.015625)"/>
      <path id="ArialMT-41" d="M -9 0 
L 1750 4581 
L 2403 4581 
L 4278 0 
L 3588 0 
L 3053 1388 
L 1138 1388 
L 634 0 
L -9 0 
z
M 1313 1881 
L 2866 1881 
L 2388 3150 
Q 2169 3728 2063 4100 
Q 1975 3659 1816 3225 
L 1313 1881 
z
" transform="scale(0.015625)"/>
      <path id="ArialMT-68" d="M 422 0 
L 422 4581 
L 984 4581 
L 984 2938 
Q 1378 3394 1978 3394 
Q 2347 3394 2619 3248 
Q 2891 3103 3008 2847 
Q 3125 2591 3125 2103 
L 3125 0 
L 2563 0 
L 2563 2103 
Q 2563 2525 2380 2717 
Q 2197 2909 1863 2909 
Q 1613 2909 1392 2779 
Q 1172 2650 1078 2428 
Q 984 2206 984 1816 
L 984 0 
L 422 0 
z
" transform="scale(0.015625)"/>
     </defs>
     <use xlink:href="#ArialMT-4d"/>
     <use xlink:href="#ArialMT-61" x="83.300781"/>
     <use xlink:href="#ArialMT-78" x="138.916016"/>
     <use xlink:href="#ArialMT-69" x="188.916016"/>
     <use xlink:href="#ArialMT-6d" x="211.132812"/>
     <use xlink:href="#ArialMT-75" x="294.433594"/>
     <use xlink:href="#ArialMT-6d" x="350.048828"/>
     <use xlink:href="#ArialMT-20" x="433.349609"/>
     <use xlink:href="#ArialMT-53" x="461.132812"/>
     <use xlink:href="#ArialMT-6f" x="527.832031"/>
     <use xlink:href="#ArialMT-6c" x="583.447266"/>
     <use xlink:href="#ArialMT-61" x="605.664062"/>
     <use xlink:href="#ArialMT-72" x="661.279297"/>
     <use xlink:href="#ArialMT-20" x="694.580078"/>
     <use xlink:href="#ArialMT-52" x="722.363281"/>
     <use xlink:href="#ArialMT-61" x="794.580078"/>
     <use xlink:href="#ArialMT-64" x="850.195312"/>
     <use xlink:href="#ArialMT-69" x="905.810547"/>
     <use xlink:href="#ArialMT-61" x="928.027344"/>
     <use xlink:href="#ArialMT-74" x="983.642578"/>
     <use xlink:href="#ArialMT-69" x="1011.425781"/>
     <use xlink:href="#ArialMT-6f" x="1033.642578"/>
     <use xlink:href="#ArialMT-6e" x="1089.257812"/>
     <use xlink:href="#ArialMT-20" x="1144.873047"/>
     <use xlink:href="#ArialMT-50" x="1172.65625"/>
     <use xlink:href="#ArialMT-72" x="1239.355469"/>
     <use xlink:href="#ArialMT-65" x="1272.65625"/>
     <use xlink:href="#ArialMT-64" x="1328.271484"/>
     <use xlink:href="#ArialMT-69" x="1383.886719"/>
     <use xlink:href="#ArialMT-63" x="1406.103516"/>
     <use xlink:href="#ArialMT-74" x="1456.103516"/>
     <use xlink:href="#ArialMT-69" x="1483.886719"/>
     <use xlink:href="#ArialMT-6f" x="1506.103516"/>
     <use xlink:href="#ArialMT-6e" x="1561.71875"/>
     <use xlink:href="#ArialMT-20" x="1617.333984"/>
     <use xlink:href="#ArialMT-36" x="1645.117188"/>
     <use xlink:href="#ArialMT-20" x="1700.732422"/>
     <use xlink:href="#ArialMT-44" x="1728.515625"/>
     <use xlink:href="#ArialMT-61" x="1800.732422"/>
     <use xlink:href="#ArialMT-79" x="1856.347656"/>
     <use xlink:href="#ArialMT-73" x="1906.347656"/>
     <use xlink:href="#ArialMT-20" x="1956.347656"/>
     <use xlink:href="#ArialMT-41" x="1978.630859"/>
     <use xlink:href="#ArialMT-68" x="2045.330078"/>
     <use xlink:href="#ArialMT-65" x="2100.945312"/>
     <use xlink:href="#ArialMT-61" x="2156.560547"/>
     <use xlink:href="#ArialMT-64" x="2212.175781"/>
    </g>
   </g>
   <g id="legend_1">
    <g id="patch_7">
     <path d="M 437.15625 88.130625 
L 511.4 88.130625 
Q 513.4 88.130625 513.4 86.130625 
L 513.4 58.84 
Q 513.4 56.84 511.4 56.84 
L 437.15625 56.84 
Q 435.15625 56.84 435.15625 58.84 
L 435.15625 86.130625 
Q 435.15625 88.130625 437.15625 88.130625 
z
" style="fill: #eaeaf2; opacity: 0.8; stroke: #cccccc; stroke-linejoin: miter"/>
    </g>
    <g id="line2d_15">
     <path d="M 439.15625 64.497812 
L 449.15625 64.497812 
L 459.15625 64.497812 
" style="fill: none; stroke: #1f77b4; stroke-width: 1.5; stroke-linecap: round"/>
    </g>
    <g id="text_16">
     <!-- Real -->
     <g style="fill: #262626" transform="translate(467.15625 67.997812) scale(0.1 -0.1)">
      <use xlink:href="#ArialMT-52"/>
      <use xlink:href="#ArialMT-65" x="72.216797"/>
      <use xlink:href="#ArialMT-61" x="127.832031"/>
      <use xlink:href="#ArialMT-6c" x="183.447266"/>
     </g>
    </g>
    <g id="line2d_16">
     <path d="M 439.15625 78.643125 
L 449.15625 78.643125 
L 459.15625 78.643125 
" style="fill: none; stroke: #ff7f0e; stroke-width: 1.5; stroke-linecap: round"/>
    </g>
    <g id="text_17">
     <!-- Predicted -->
     <g style="fill: #262626" transform="translate(467.15625 82.143125) scale(0.1 -0.1)">
      <use xlink:href="#ArialMT-50"/>
      <use xlink:href="#ArialMT-72" x="66.699219"/>
      <use xlink:href="#ArialMT-65" x="100"/>
      <use xlink:href="#ArialMT-64" x="155.615234"/>
      <use xlink:href="#ArialMT-69" x="211.230469"/>
      <use xlink:href="#ArialMT-63" x="233.447266"/>
      <use xlink:href="#ArialMT-74" x="283.447266"/>
      <use xlink:href="#ArialMT-65" x="311.230469"/>
      <use xlink:href="#ArialMT-64" x="366.845703"/>
     </g>
    </g>
   </g>
  </g>
 </g>
 <defs>
  <clipPath id="pe048d4015e">
   <rect x="72" y="51.84" width="446.4" height="332.64"/>
  </clipPath>
 </defs>
</svg>
