<?xml version="1.0" encoding="utf-8" standalone="no"?>
<!DOCTYPE svg PUBLIC "-//W3C//DTD SVG 1.1//EN"
  "http://www.w3.org/Graphics/SVG/1.1/DTD/svg11.dtd">
<svg xmlns:xlink="http://www.w3.org/1999/xlink" width="576pt" height="432pt" viewBox="0 0 576 432" xmlns="http://www.w3.org/2000/svg" version="1.1">
 <metadata>
  <rdf:RDF xmlns:dc="http://purl.org/dc/elements/1.1/" xmlns:cc="http://creativecommons.org/ns#" xmlns:rdf="http://www.w3.org/1999/02/22-rdf-syntax-ns#">
   <cc:Work>
    <dc:type rdf:resource="http://purl.org/dc/dcmitype/StillImage"/>
    <dc:date>2023-11-17T05:05:04.602866</dc:date>
    <dc:format>image/svg+xml</dc:format>
    <dc:creator>
     <cc:Agent>
      <dc:title>Matplotlib v3.8.0, https://matplotlib.org/</dc:title>
     </cc:Agent>
    </dc:creator>
   </cc:Work>
  </rdf:RDF>
 </metadata>
 <defs>
  <style type="text/css">*{stroke-linejoin: round; stroke-linecap: butt}</style>
 </defs>
 <g id="figure_1">
  <g id="patch_1">
   <path d="M 0 432 
L 576 432 
L 576 0 
L 0 0 
z
" style="fill: #ffffff"/>
  </g>
  <g id="axes_1">
   <g id="patch_2">
    <path d="M 72 384.48 
L 518.4 384.48 
L 518.4 51.84 
L 72 51.84 
z
" style="fill: #eaeaf2"/>
   </g>
   <g id="matplotlib.axis_1">
    <g id="xtick_1">
     <g id="line2d_1">
      <path d="M 92.290909 384.48 
L 92.290909 51.84 
" clip-path="url(#p78b2937249)" style="fill: none; stroke: #ffffff; stroke-width: 0.8; stroke-linecap: round"/>
     </g>
     <g id="text_1">
      <!-- 0 -->
      <g style="fill: #262626" transform="translate(89.51044 398.637812) scale(0.1 -0.1)">
       <defs>
        <path id="ArialMT-30" d="M 266 2259 
Q 266 3072 433 3567 
Q 600 4063 929 4331 
Q 1259 4600 1759 4600 
Q 2128 4600 2406 4451 
Q 2684 4303 2865 4023 
Q 3047 3744 3150 3342 
Q 3253 2941 3253 2259 
Q 3253 1453 3087 958 
Q 2922 463 2592 192 
Q 2263 -78 1759 -78 
Q 1097 -78 719 397 
Q 266 969 266 2259 
z
M 844 2259 
Q 844 1131 1108 757 
Q 1372 384 1759 384 
Q 2147 384 2411 759 
Q 2675 1134 2675 2259 
Q 2675 3391 2411 3762 
Q 2147 4134 1753 4134 
Q 1366 4134 1134 3806 
Q 844 3388 844 2259 
z
" transform="scale(0.015625)"/>
       </defs>
       <use xlink:href="#ArialMT-30"/>
      </g>
     </g>
    </g>
    <g id="xtick_2">
     <g id="line2d_2">
      <path d="M 185.049351 384.48 
L 185.049351 51.84 
" clip-path="url(#p78b2937249)" style="fill: none; stroke: #ffffff; stroke-width: 0.8; stroke-linecap: round"/>
     </g>
     <g id="text_2">
      <!-- 200 -->
      <g style="fill: #262626" transform="translate(176.707944 398.637812) scale(0.1 -0.1)">
       <defs>
        <path id="ArialMT-32" d="M 3222 541 
L 3222 0 
L 194 0 
Q 188 203 259 391 
Q 375 700 629 1000 
Q 884 1300 1366 1694 
Q 2113 2306 2375 2664 
Q 2638 3022 2638 3341 
Q 2638 3675 2398 3904 
Q 2159 4134 1775 4134 
Q 1369 4134 1125 3890 
Q 881 3647 878 3216 
L 300 3275 
Q 359 3922 746 4261 
Q 1134 4600 1788 4600 
Q 2447 4600 2831 4234 
Q 3216 3869 3216 3328 
Q 3216 3053 3103 2787 
Q 2991 2522 2730 2228 
Q 2469 1934 1863 1422 
Q 1356 997 1212 845 
Q 1069 694 975 541 
L 3222 541 
z
" transform="scale(0.015625)"/>
       </defs>
       <use xlink:href="#ArialMT-32"/>
       <use xlink:href="#ArialMT-30" x="55.615234"/>
       <use xlink:href="#ArialMT-30" x="111.230469"/>
      </g>
     </g>
    </g>
    <g id="xtick_3">
     <g id="line2d_3">
      <path d="M 277.807792 384.48 
L 277.807792 51.84 
" clip-path="url(#p78b2937249)" style="fill: none; stroke: #ffffff; stroke-width: 0.8; stroke-linecap: round"/>
     </g>
     <g id="text_3">
      <!-- 400 -->
      <g style="fill: #262626" transform="translate(269.466386 398.637812) scale(0.1 -0.1)">
       <defs>
        <path id="ArialMT-34" d="M 2069 0 
L 2069 1097 
L 81 1097 
L 81 1613 
L 2172 4581 
L 2631 4581 
L 2631 1613 
L 3250 1613 
L 3250 1097 
L 2631 1097 
L 2631 0 
L 2069 0 
z
M 2069 1613 
L 2069 3678 
L 634 1613 
L 2069 1613 
z
" transform="scale(0.015625)"/>
       </defs>
       <use xlink:href="#ArialMT-34"/>
       <use xlink:href="#ArialMT-30" x="55.615234"/>
       <use xlink:href="#ArialMT-30" x="111.230469"/>
      </g>
     </g>
    </g>
    <g id="xtick_4">
     <g id="line2d_4">
      <path d="M 370.566234 384.48 
L 370.566234 51.84 
" clip-path="url(#p78b2937249)" style="fill: none; stroke: #ffffff; stroke-width: 0.8; stroke-linecap: round"/>
     </g>
     <g id="text_4">
      <!-- 600 -->
      <g style="fill: #262626" transform="translate(362.224828 398.637812) scale(0.1 -0.1)">
       <defs>
        <path id="ArialMT-36" d="M 3184 3459 
L 2625 3416 
Q 2550 3747 2413 3897 
Q 2184 4138 1850 4138 
Q 1581 4138 1378 3988 
Q 1113 3794 959 3422 
Q 806 3050 800 2363 
Q 1003 2672 1297 2822 
Q 1591 2972 1913 2972 
Q 2475 2972 2870 2558 
Q 3266 2144 3266 1488 
Q 3266 1056 3080 686 
Q 2894 316 2569 119 
Q 2244 -78 1831 -78 
Q 1128 -78 684 439 
Q 241 956 241 2144 
Q 241 3472 731 4075 
Q 1159 4600 1884 4600 
Q 2425 4600 2770 4297 
Q 3116 3994 3184 3459 
z
M 888 1484 
Q 888 1194 1011 928 
Q 1134 663 1356 523 
Q 1578 384 1822 384 
Q 2178 384 2434 671 
Q 2691 959 2691 1453 
Q 2691 1928 2437 2201 
Q 2184 2475 1800 2475 
Q 1419 2475 1153 2201 
Q 888 1928 888 1484 
z
" transform="scale(0.015625)"/>
       </defs>
       <use xlink:href="#ArialMT-36"/>
       <use xlink:href="#ArialMT-30" x="55.615234"/>
       <use xlink:href="#ArialMT-30" x="111.230469"/>
      </g>
     </g>
    </g>
    <g id="xtick_5">
     <g id="line2d_5">
      <path d="M 463.324675 384.48 
L 463.324675 51.84 
" clip-path="url(#p78b2937249)" style="fill: none; stroke: #ffffff; stroke-width: 0.8; stroke-linecap: round"/>
     </g>
     <g id="text_5">
      <!-- 800 -->
      <g style="fill: #262626" transform="translate(454.983269 398.637812) scale(0.1 -0.1)">
       <defs>
        <path id="ArialMT-38" d="M 1131 2484 
Q 781 2613 612 2850 
Q 444 3088 444 3419 
Q 444 3919 803 4259 
Q 1163 4600 1759 4600 
Q 2359 4600 2725 4251 
Q 3091 3903 3091 3403 
Q 3091 3084 2923 2848 
Q 2756 2613 2416 2484 
Q 2838 2347 3058 2040 
Q 3278 1734 3278 1309 
Q 3278 722 2862 322 
Q 2447 -78 1769 -78 
Q 1091 -78 675 323 
Q 259 725 259 1325 
Q 259 1772 486 2073 
Q 713 2375 1131 2484 
z
M 1019 3438 
Q 1019 3113 1228 2906 
Q 1438 2700 1772 2700 
Q 2097 2700 2305 2904 
Q 2513 3109 2513 3406 
Q 2513 3716 2298 3927 
Q 2084 4138 1766 4138 
Q 1444 4138 1231 3931 
Q 1019 3725 1019 3438 
z
M 838 1322 
Q 838 1081 952 856 
Q 1066 631 1291 507 
Q 1516 384 1775 384 
Q 2178 384 2440 643 
Q 2703 903 2703 1303 
Q 2703 1709 2433 1975 
Q 2163 2241 1756 2241 
Q 1359 2241 1098 1978 
Q 838 1716 838 1322 
z
" transform="scale(0.015625)"/>
       </defs>
       <use xlink:href="#ArialMT-38"/>
       <use xlink:href="#ArialMT-30" x="55.615234"/>
       <use xlink:href="#ArialMT-30" x="111.230469"/>
      </g>
     </g>
    </g>
    <g id="text_6">
     <!-- Days -->
     <g style="fill: #262626" transform="translate(283.808594 411.783125) scale(0.1 -0.1)">
      <defs>
       <path id="ArialMT-44" d="M 494 0 
L 494 4581 
L 2072 4581 
Q 2606 4581 2888 4516 
Q 3281 4425 3559 4188 
Q 3922 3881 4101 3404 
Q 4281 2928 4281 2316 
Q 4281 1794 4159 1391 
Q 4038 988 3847 723 
Q 3656 459 3429 307 
Q 3203 156 2883 78 
Q 2563 0 2147 0 
L 494 0 
z
M 1100 541 
L 2078 541 
Q 2531 541 2789 625 
Q 3047 709 3200 863 
Q 3416 1078 3536 1442 
Q 3656 1806 3656 2325 
Q 3656 3044 3420 3430 
Q 3184 3816 2847 3947 
Q 2603 4041 2063 4041 
L 1100 4041 
L 1100 541 
z
" transform="scale(0.015625)"/>
       <path id="ArialMT-61" d="M 2588 409 
Q 2275 144 1986 34 
Q 1697 -75 1366 -75 
Q 819 -75 525 192 
Q 231 459 231 875 
Q 231 1119 342 1320 
Q 453 1522 633 1644 
Q 813 1766 1038 1828 
Q 1203 1872 1538 1913 
Q 2219 1994 2541 2106 
Q 2544 2222 2544 2253 
Q 2544 2597 2384 2738 
Q 2169 2928 1744 2928 
Q 1347 2928 1158 2789 
Q 969 2650 878 2297 
L 328 2372 
Q 403 2725 575 2942 
Q 747 3159 1072 3276 
Q 1397 3394 1825 3394 
Q 2250 3394 2515 3294 
Q 2781 3194 2906 3042 
Q 3031 2891 3081 2659 
Q 3109 2516 3109 2141 
L 3109 1391 
Q 3109 606 3145 398 
Q 3181 191 3288 0 
L 2700 0 
Q 2613 175 2588 409 
z
M 2541 1666 
Q 2234 1541 1622 1453 
Q 1275 1403 1131 1340 
Q 988 1278 909 1158 
Q 831 1038 831 891 
Q 831 666 1001 516 
Q 1172 366 1500 366 
Q 1825 366 2078 508 
Q 2331 650 2450 897 
Q 2541 1088 2541 1459 
L 2541 1666 
z
" transform="scale(0.015625)"/>
       <path id="ArialMT-79" d="M 397 -1278 
L 334 -750 
Q 519 -800 656 -800 
Q 844 -800 956 -737 
Q 1069 -675 1141 -563 
Q 1194 -478 1313 -144 
Q 1328 -97 1363 -6 
L 103 3319 
L 709 3319 
L 1400 1397 
Q 1534 1031 1641 628 
Q 1738 1016 1872 1384 
L 2581 3319 
L 3144 3319 
L 1881 -56 
Q 1678 -603 1566 -809 
Q 1416 -1088 1222 -1217 
Q 1028 -1347 759 -1347 
Q 597 -1347 397 -1278 
z
" transform="scale(0.015625)"/>
       <path id="ArialMT-73" d="M 197 991 
L 753 1078 
Q 800 744 1014 566 
Q 1228 388 1613 388 
Q 2000 388 2187 545 
Q 2375 703 2375 916 
Q 2375 1106 2209 1216 
Q 2094 1291 1634 1406 
Q 1016 1563 777 1677 
Q 538 1791 414 1992 
Q 291 2194 291 2438 
Q 291 2659 392 2848 
Q 494 3038 669 3163 
Q 800 3259 1026 3326 
Q 1253 3394 1513 3394 
Q 1903 3394 2198 3281 
Q 2494 3169 2634 2976 
Q 2775 2784 2828 2463 
L 2278 2388 
Q 2241 2644 2061 2787 
Q 1881 2931 1553 2931 
Q 1166 2931 1000 2803 
Q 834 2675 834 2503 
Q 834 2394 903 2306 
Q 972 2216 1119 2156 
Q 1203 2125 1616 2013 
Q 2213 1853 2448 1751 
Q 2684 1650 2818 1456 
Q 2953 1263 2953 975 
Q 2953 694 2789 445 
Q 2625 197 2315 61 
Q 2006 -75 1616 -75 
Q 969 -75 630 194 
Q 291 463 197 991 
z
" transform="scale(0.015625)"/>
      </defs>
      <use xlink:href="#ArialMT-44"/>
      <use xlink:href="#ArialMT-61" x="72.216797"/>
      <use xlink:href="#ArialMT-79" x="127.832031"/>
      <use xlink:href="#ArialMT-73" x="177.832031"/>
     </g>
    </g>
   </g>
   <g id="matplotlib.axis_2">
    <g id="ytick_1">
     <g id="line2d_6">
      <path d="M 72 377.823157 
L 518.4 377.823157 
" clip-path="url(#p78b2937249)" style="fill: none; stroke: #ffffff; stroke-width: 0.8; stroke-linecap: round"/>
     </g>
     <g id="text_7">
      <!-- 2.5 -->
      <g style="fill: #262626" transform="translate(51.1 381.402063) scale(0.1 -0.1)">
       <defs>
        <path id="ArialMT-2e" d="M 581 0 
L 581 641 
L 1222 641 
L 1222 0 
L 581 0 
z
" transform="scale(0.015625)"/>
        <path id="ArialMT-35" d="M 266 1200 
L 856 1250 
Q 922 819 1161 601 
Q 1400 384 1738 384 
Q 2144 384 2425 690 
Q 2706 997 2706 1503 
Q 2706 1984 2436 2262 
Q 2166 2541 1728 2541 
Q 1456 2541 1237 2417 
Q 1019 2294 894 2097 
L 366 2166 
L 809 4519 
L 3088 4519 
L 3088 3981 
L 1259 3981 
L 1013 2750 
Q 1425 3038 1878 3038 
Q 2478 3038 2890 2622 
Q 3303 2206 3303 1553 
Q 3303 931 2941 478 
Q 2500 -78 1738 -78 
Q 1113 -78 717 272 
Q 322 622 266 1200 
z
" transform="scale(0.015625)"/>
       </defs>
       <use xlink:href="#ArialMT-32"/>
       <use xlink:href="#ArialMT-2e" x="55.615234"/>
       <use xlink:href="#ArialMT-35" x="83.398438"/>
      </g>
     </g>
    </g>
    <g id="ytick_2">
     <g id="line2d_7">
      <path d="M 72 335.783796 
L 518.4 335.783796 
" clip-path="url(#p78b2937249)" style="fill: none; stroke: #ffffff; stroke-width: 0.8; stroke-linecap: round"/>
     </g>
     <g id="text_8">
      <!-- 5.0 -->
      <g style="fill: #262626" transform="translate(51.1 339.362703) scale(0.1 -0.1)">
       <use xlink:href="#ArialMT-35"/>
       <use xlink:href="#ArialMT-2e" x="55.615234"/>
       <use xlink:href="#ArialMT-30" x="83.398438"/>
      </g>
     </g>
    </g>
    <g id="ytick_3">
     <g id="line2d_8">
      <path d="M 72 293.744436 
L 518.4 293.744436 
" clip-path="url(#p78b2937249)" style="fill: none; stroke: #ffffff; stroke-width: 0.8; stroke-linecap: round"/>
     </g>
     <g id="text_9">
      <!-- 7.5 -->
      <g style="fill: #262626" transform="translate(51.1 297.323342) scale(0.1 -0.1)">
       <defs>
        <path id="ArialMT-37" d="M 303 3981 
L 303 4522 
L 3269 4522 
L 3269 4084 
Q 2831 3619 2401 2847 
Q 1972 2075 1738 1259 
Q 1569 684 1522 0 
L 944 0 
Q 953 541 1156 1306 
Q 1359 2072 1739 2783 
Q 2119 3494 2547 3981 
L 303 3981 
z
" transform="scale(0.015625)"/>
       </defs>
       <use xlink:href="#ArialMT-37"/>
       <use xlink:href="#ArialMT-2e" x="55.615234"/>
       <use xlink:href="#ArialMT-35" x="83.398438"/>
      </g>
     </g>
    </g>
    <g id="ytick_4">
     <g id="line2d_9">
      <path d="M 72 251.705076 
L 518.4 251.705076 
" clip-path="url(#p78b2937249)" style="fill: none; stroke: #ffffff; stroke-width: 0.8; stroke-linecap: round"/>
     </g>
     <g id="text_10">
      <!-- 10.0 -->
      <g style="fill: #262626" transform="translate(45.539062 255.283982) scale(0.1 -0.1)">
       <defs>
        <path id="ArialMT-31" d="M 2384 0 
L 1822 0 
L 1822 3584 
Q 1619 3391 1289 3197 
Q 959 3003 697 2906 
L 697 3450 
Q 1169 3672 1522 3987 
Q 1875 4303 2022 4600 
L 2384 4600 
L 2384 0 
z
" transform="scale(0.015625)"/>
       </defs>
       <use xlink:href="#ArialMT-31"/>
       <use xlink:href="#ArialMT-30" x="55.615234"/>
       <use xlink:href="#ArialMT-2e" x="111.230469"/>
       <use xlink:href="#ArialMT-30" x="139.013672"/>
      </g>
     </g>
    </g>
    <g id="ytick_5">
     <g id="line2d_10">
      <path d="M 72 209.665716 
L 518.4 209.665716 
" clip-path="url(#p78b2937249)" style="fill: none; stroke: #ffffff; stroke-width: 0.8; stroke-linecap: round"/>
     </g>
     <g id="text_11">
      <!-- 12.5 -->
      <g style="fill: #262626" transform="translate(45.539062 213.244622) scale(0.1 -0.1)">
       <use xlink:href="#ArialMT-31"/>
       <use xlink:href="#ArialMT-32" x="55.615234"/>
       <use xlink:href="#ArialMT-2e" x="111.230469"/>
       <use xlink:href="#ArialMT-35" x="139.013672"/>
      </g>
     </g>
    </g>
    <g id="ytick_6">
     <g id="line2d_11">
      <path d="M 72 167.626355 
L 518.4 167.626355 
" clip-path="url(#p78b2937249)" style="fill: none; stroke: #ffffff; stroke-width: 0.8; stroke-linecap: round"/>
     </g>
     <g id="text_12">
      <!-- 15.0 -->
      <g style="fill: #262626" transform="translate(45.539062 171.205262) scale(0.1 -0.1)">
       <use xlink:href="#ArialMT-31"/>
       <use xlink:href="#ArialMT-35" x="55.615234"/>
       <use xlink:href="#ArialMT-2e" x="111.230469"/>
       <use xlink:href="#ArialMT-30" x="139.013672"/>
      </g>
     </g>
    </g>
    <g id="ytick_7">
     <g id="line2d_12">
      <path d="M 72 125.586995 
L 518.4 125.586995 
" clip-path="url(#p78b2937249)" style="fill: none; stroke: #ffffff; stroke-width: 0.8; stroke-linecap: round"/>
     </g>
     <g id="text_13">
      <!-- 17.5 -->
      <g style="fill: #262626" transform="translate(45.539062 129.165901) scale(0.1 -0.1)">
       <use xlink:href="#ArialMT-31"/>
       <use xlink:href="#ArialMT-37" x="55.615234"/>
       <use xlink:href="#ArialMT-2e" x="111.230469"/>
       <use xlink:href="#ArialMT-35" x="139.013672"/>
      </g>
     </g>
    </g>
    <g id="ytick_8">
     <g id="line2d_13">
      <path d="M 72 83.547635 
L 518.4 83.547635 
" clip-path="url(#p78b2937249)" style="fill: none; stroke: #ffffff; stroke-width: 0.8; stroke-linecap: round"/>
     </g>
     <g id="text_14">
      <!-- 20.0 -->
      <g style="fill: #262626" transform="translate(45.539062 87.126541) scale(0.1 -0.1)">
       <use xlink:href="#ArialMT-32"/>
       <use xlink:href="#ArialMT-30" x="55.615234"/>
       <use xlink:href="#ArialMT-2e" x="111.230469"/>
       <use xlink:href="#ArialMT-30" x="139.013672"/>
      </g>
     </g>
    </g>
    <g id="text_15">
     <!-- (m/s) -->
     <g style="fill: #262626" transform="translate(39.434375 229.543594) rotate(-90) scale(0.1 -0.1)">
      <defs>
       <path id="ArialMT-28" d="M 1497 -1347 
Q 1031 -759 709 28 
Q 388 816 388 1659 
Q 388 2403 628 3084 
Q 909 3875 1497 4659 
L 1900 4659 
Q 1522 4009 1400 3731 
Q 1209 3300 1100 2831 
Q 966 2247 966 1656 
Q 966 153 1900 -1347 
L 1497 -1347 
z
" transform="scale(0.015625)"/>
       <path id="ArialMT-6d" d="M 422 0 
L 422 3319 
L 925 3319 
L 925 2853 
Q 1081 3097 1340 3245 
Q 1600 3394 1931 3394 
Q 2300 3394 2536 3241 
Q 2772 3088 2869 2813 
Q 3263 3394 3894 3394 
Q 4388 3394 4653 3120 
Q 4919 2847 4919 2278 
L 4919 0 
L 4359 0 
L 4359 2091 
Q 4359 2428 4304 2576 
Q 4250 2725 4106 2815 
Q 3963 2906 3769 2906 
Q 3419 2906 3187 2673 
Q 2956 2441 2956 1928 
L 2956 0 
L 2394 0 
L 2394 2156 
Q 2394 2531 2256 2718 
Q 2119 2906 1806 2906 
Q 1569 2906 1367 2781 
Q 1166 2656 1075 2415 
Q 984 2175 984 1722 
L 984 0 
L 422 0 
z
" transform="scale(0.015625)"/>
       <path id="ArialMT-2f" d="M 0 -78 
L 1328 4659 
L 1778 4659 
L 453 -78 
L 0 -78 
z
" transform="scale(0.015625)"/>
       <path id="ArialMT-29" d="M 791 -1347 
L 388 -1347 
Q 1322 153 1322 1656 
Q 1322 2244 1188 2822 
Q 1081 3291 891 3722 
Q 769 4003 388 4659 
L 791 4659 
Q 1378 3875 1659 3084 
Q 1900 2403 1900 1659 
Q 1900 816 1576 28 
Q 1253 -759 791 -1347 
z
" transform="scale(0.015625)"/>
      </defs>
      <use xlink:href="#ArialMT-28"/>
      <use xlink:href="#ArialMT-6d" x="33.300781"/>
      <use xlink:href="#ArialMT-2f" x="116.601562"/>
      <use xlink:href="#ArialMT-73" x="144.384766"/>
      <use xlink:href="#ArialMT-29" x="194.384766"/>
     </g>
    </g>
   </g>
   <g id="line2d_14">
    <path d="M 92.290909 300.933167 
L 92.754701 309.92959 
L 93.218494 271.547654 
L 93.682286 214.248006 
L 94.146078 236.276631 
L 94.60987 263.770372 
L 95.073662 308.290055 
L 95.537455 276.045866 
L 96.465039 331.243546 
L 96.928831 313.418857 
L 97.392623 315.310628 
L 97.856416 285.24249 
L 98.320208 290.255169 
L 98.784 263.728333 
L 99.247792 283.528872 
L 99.711584 278.147834 
L 100.175377 235.940316 
L 100.639169 207.857141 
L 101.102961 269.15141 
L 101.566753 248.426006 
L 102.030545 235.057489 
L 102.494338 241.699708 
L 102.95813 261.82768 
L 103.421922 263.89649 
L 103.885714 268.941214 
L 104.349506 280.249802 
L 104.813299 216.686289 
L 105.277091 256.581642 
L 105.740883 279.913487 
L 106.204675 291.053917 
L 106.668468 243.044968 
L 107.13226 292.525295 
L 107.596052 310.476102 
L 108.059844 316.277533 
L 108.523636 332.504726 
L 108.987429 358.358933 
L 109.451221 285.714918 
L 109.915013 326.829413 
L 110.378805 338.264119 
L 111.30639 311.148731 
L 111.770182 312.325833 
L 112.233974 293.282003 
L 112.697766 309.245495 
L 113.161558 312.53603 
L 113.625351 306.860717 
L 114.089143 317.79095 
L 114.552935 255.824933 
L 115.016727 311.8634 
L 115.944312 321.574493 
L 116.408104 307.575386 
L 116.871896 311.022613 
L 117.335688 311.737282 
L 117.799481 307.28111 
L 118.263273 281.805258 
L 118.727065 322.499359 
L 119.190857 327.754279 
L 119.654649 303.119214 
L 120.118442 190.411689 
L 120.582234 316.140165 
L 121.046026 324.307051 
L 121.509818 315.370945 
L 121.97361 322.877713 
L 122.437403 313.309496 
L 122.901195 330.115832 
L 123.364987 328.006515 
L 124.292571 282.35177 
L 124.756364 299.251592 
L 125.220156 339.525299 
L 125.683948 322.331201 
L 126.14774 329.225656 
L 126.611532 296.476995 
L 127.075325 321.910808 
L 127.539117 293.996672 
L 128.002909 232.114734 
L 128.466701 237.579851 
L 128.930494 332.6135 
L 129.394286 328.34283 
L 129.858078 325.69435 
L 130.32187 314.301683 
L 130.785662 295.383971 
L 131.249455 298.663041 
L 131.713247 328.142916 
L 132.640831 66.96 
L 133.104623 335.069127 
L 133.568416 327.165728 
L 134.032208 280.922431 
L 134.496 323.466264 
L 134.959792 233.796308 
L 135.423584 169.420035 
L 135.887377 315.249904 
L 136.351169 326.661255 
L 136.814961 304.212237 
L 137.278753 317.580753 
L 137.742545 318.474163 
L 138.206338 311.90544 
L 138.67013 287.816886 
L 139.133922 256.455524 
L 139.597714 290.633524 
L 140.061506 302.133493 
L 140.525299 323.04587 
L 140.989091 331.512833 
L 141.452883 318.841934 
L 141.916675 292.609373 
L 142.380468 311.443007 
L 143.308052 326.871452 
L 143.771844 320.565548 
L 144.235636 302.824938 
L 144.699429 306.524402 
L 145.163221 300.807049 
L 145.627013 346.293636 
L 146.554597 223.83298 
L 147.01839 276.466259 
L 147.482182 315.646943 
L 148.409766 302.530662 
L 148.873558 320.019036 
L 149.337351 230.024608 
L 150.264935 308.878606 
L 150.728727 281.048549 
L 151.192519 227.574483 
L 151.656312 302.824938 
L 152.120104 304.296316 
L 152.583896 301.984151 
L 153.047688 298.242648 
L 153.511481 307.112953 
L 153.975273 199.366072 
L 154.439065 267.049442 
L 154.902857 314.890234 
L 155.366649 277.853558 
L 155.830442 303.077174 
L 156.294234 319.430485 
L 156.758026 323.508303 
L 157.221818 318.648674 
L 157.68561 299.33399 
L 158.149403 253.849083 
L 158.613195 139.670181 
L 159.076987 285.967155 
L 159.540779 322.793634 
L 160.004571 327.249806 
L 160.468364 330.5496 
L 160.932156 244.8947 
L 161.395948 308.079858 
L 161.85974 312.031558 
L 162.323532 280.922431 
L 162.787325 274.952842 
L 163.251117 229.466254 
L 163.714909 247.248904 
L 164.178701 245.945684 
L 164.642494 278.257489 
L 165.570078 307.911701 
L 166.03387 167.584316 
L 166.961455 308.58433 
L 167.425247 259.061964 
L 167.889039 279.156778 
L 168.352831 232.997561 
L 168.816623 260.65946 
L 169.280416 256.287366 
L 169.744208 226.949478 
L 170.208 291.973491 
L 170.671792 300.891127 
L 171.135584 322.667516 
L 171.599377 308.416173 
L 172.063169 274.700606 
L 172.990753 226.145145 
L 173.454545 159.767956 
L 173.918338 290.171091 
L 174.38213 232.240852 
L 174.845922 221.894697 
L 175.309714 284.748013 
L 175.773506 300.807049 
L 176.237299 291.169158 
L 177.164883 318.589698 
L 177.628675 225.934948 
L 178.092468 269.235489 
L 178.55626 249.43495 
L 179.020052 268.604899 
L 179.947636 234.006505 
L 180.411429 137.358016 
L 180.875221 226.901853 
L 181.339013 277.601322 
L 181.802805 273.439425 
L 182.266597 250.191659 
L 182.73039 304.212237 
L 183.194182 300.226361 
L 183.657974 290.84372 
L 184.121766 289.518158 
L 184.585558 245.819565 
L 185.049351 243.044968 
L 185.513143 259.482358 
L 185.976935 294.979159 
L 186.440727 282.393809 
L 186.904519 276.928692 
L 187.368312 201.718807 
L 187.832104 212.482353 
L 188.295896 243.538782 
L 188.759688 224.46357 
L 189.223481 228.541388 
L 189.687273 243.927794 
L 190.151065 250.317483 
L 190.614857 180.775898 
L 191.078649 276.902822 
L 191.542442 242.866815 
L 192.006234 241.237275 
L 192.470026 216.070428 
L 192.933818 204.158559 
L 193.39761 255.016484 
L 193.861403 271.085221 
L 194.325195 218.830296 
L 194.788987 213.191142 
L 195.252779 188.435839 
L 195.716571 279.065919 
L 196.180364 253.050335 
L 196.644156 243.801676 
L 197.107948 205.756055 
L 197.57174 252.68815 
L 198.035532 248.581816 
L 198.499325 245.651408 
L 198.963117 216.097738 
L 199.426909 267.970487 
L 199.890701 208.153475 
L 200.354494 223.622783 
L 200.818286 262.677349 
L 201.282078 257.884862 
L 201.74587 194.23727 
L 202.209662 193.018129 
L 203.137247 294.290948 
L 203.601039 212.776628 
L 204.064831 198.945679 
L 204.528623 220.259634 
L 204.992416 212.608471 
L 205.456208 146.516129 
L 205.92 232.997561 
L 206.383792 227.78468 
L 206.847584 121.257835 
L 207.311377 133.78467 
L 207.775169 152.366068 
L 208.238961 156.948358 
L 209.166545 229.447146 
L 209.630338 191.126358 
L 210.09413 207.101315 
L 210.557922 180.467469 
L 211.021714 184.870137 
L 211.485506 164.473403 
L 211.949299 149.885745 
L 212.413091 237.832087 
L 212.876883 267.589486 
L 213.340675 284.243541 
L 213.804468 288.657674 
L 214.732052 215.761423 
L 215.195844 220.26081 
L 215.659636 285.792823 
L 216.123429 264.064648 
L 216.587221 208.782889 
L 217.051013 174.352653 
L 217.514805 235.737224 
L 217.978597 217.400958 
L 218.44239 216.560171 
L 218.906182 229.701146 
L 219.369974 278.40007 
L 219.833766 254.73191 
L 220.297558 239.051228 
L 220.761351 252.714021 
L 221.225143 254.000484 
L 221.688935 208.362495 
L 222.152727 248.089691 
L 222.616519 145.892006 
L 223.080312 132.565529 
L 223.544104 122.434043 
L 224.007896 188.856232 
L 224.471688 227.490404 
L 224.935481 217.316879 
L 225.399273 267.511875 
L 225.863065 247.585219 
L 226.326857 272.262323 
L 227.254442 165.989466 
L 227.718234 192.177342 
L 228.182026 241.300481 
L 228.645818 222.193445 
L 230.037195 298.233777 
L 230.500987 276.174883 
L 230.964779 276.928692 
L 231.428571 254.23928 
L 231.892364 208.488614 
L 232.356156 174.058378 
L 232.819948 195.918845 
L 233.28374 188.856232 
L 233.747532 202.476985 
L 234.211325 230.979671 
L 234.675117 214.920636 
L 235.138909 282.120257 
L 235.602701 289.58254 
L 236.066494 265.536025 
L 236.530286 204.494874 
L 236.994078 213.32314 
L 237.45787 224.715807 
L 237.921662 230.420812 
L 238.385455 224.127256 
L 238.849247 224.799885 
L 239.313039 208.029318 
L 240.240623 249.098636 
L 240.704416 256.70776 
L 241.168208 234.048545 
L 241.632 225.119927 
L 242.095792 219.25069 
L 242.559584 231.568222 
L 243.023377 218.536021 
L 243.487169 181.036911 
L 243.950961 200.627253 
L 244.414753 242.120102 
L 244.878545 212.860707 
L 245.342338 215.467147 
L 245.80613 238.426687 
L 246.269922 240.665481 
L 246.733714 221.562855 
L 247.197506 218.956414 
L 247.661299 155.533131 
L 248.125091 134.778 
L 249.052675 200.711332 
L 249.516468 269.19345 
L 249.98026 309.105974 
L 250.444052 291.380825 
L 250.907844 293.786476 
L 251.371636 246.224564 
L 251.835429 263.518136 
L 252.299221 263.349979 
L 252.763013 244.726542 
L 253.226805 250.401856 
L 253.690597 252.377706 
L 254.15439 295.383971 
L 254.618182 283.528872 
L 255.081974 296.757159 
L 255.545766 298.789159 
L 256.009558 139.214474 
L 256.473351 221.403811 
L 256.937143 210.100808 
L 257.864727 287.690768 
L 259.256104 309.298999 
L 259.719896 329.195082 
L 260.183688 273.229228 
L 260.647481 171.199701 
L 261.111273 166.869647 
L 261.575065 251.999351 
L 262.038857 234.865813 
L 262.502649 239.135307 
L 262.966442 274.027976 
L 263.430234 276.171984 
L 264.82161 134.289143 
L 265.285403 121.046744 
L 265.749195 124.073578 
L 266.212987 181.078951 
L 266.676779 221.773051 
L 267.140571 288.825831 
L 267.604364 305.30526 
L 268.068156 305.137103 
L 268.531948 298.831199 
L 268.99574 253.38665 
L 269.459532 281.300786 
L 269.923325 265.199711 
L 270.387117 232.030655 
L 270.850909 274.784685 
L 271.314701 299.37771 
L 271.778494 310.013669 
L 272.242286 303.497568 
L 272.706078 274.490409 
L 273.16987 293.954633 
L 273.633662 296.434955 
L 274.561247 320.817784 
L 275.025039 292.357137 
L 275.488831 140.38485 
L 275.952623 164.095049 
L 276.416416 267.680033 
L 276.880208 208.407475 
L 277.344 301.858033 
L 277.807792 316.151415 
L 278.735377 298.663041 
L 279.199169 264.190766 
L 279.662961 245.104896 
L 280.126753 302.69882 
L 281.054338 262.803467 
L 281.51813 325.946586 
L 281.981922 265.176486 
L 282.445714 176.664818 
L 282.909506 290.110824 
L 283.373299 311.443007 
L 283.837091 302.740859 
L 284.300883 312.914384 
L 284.764675 304.67467 
L 285.228468 245.020818 
L 285.69226 300.470734 
L 286.156052 310.097747 
L 286.619844 303.917961 
L 287.083636 293.576279 
L 287.547429 340.239969 
L 288.011221 323.844618 
L 288.475013 288.90991 
L 288.938805 309.25696 
L 289.402597 289.204185 
L 289.86639 292.81957 
L 290.330182 316.067336 
L 290.793974 320.901863 
L 291.257766 329.60401 
L 291.721558 327.291846 
L 292.185351 242.540495 
L 292.649143 303.917961 
L 293.112935 340.197929 
L 293.576727 318.379501 
L 294.040519 272.514559 
L 294.504312 260.911696 
L 294.968104 339.146945 
L 295.431896 289.204185 
L 295.895688 337.339253 
L 296.359481 314.469841 
L 296.823273 281.721179 
L 297.287065 335.783796 
L 297.750857 305.137103 
L 298.214649 226.607578 
L 298.678442 256.245327 
L 299.142234 327.586121 
L 299.606026 325.358035 
L 300.069818 322.205083 
L 300.53361 328.468948 
L 300.997403 271.79989 
L 301.461195 265.493986 
L 301.924987 265.704183 
L 302.388779 275.331196 
L 302.852571 344.10759 
L 303.316364 353.398288 
L 303.780156 333.051238 
L 304.243948 317.622793 
L 304.70774 318.043186 
L 305.171532 313.334778 
L 305.635325 315.268589 
L 306.099117 289.5405 
L 306.562909 311.90544 
L 307.026701 297.485939 
L 307.490494 194.405428 
L 307.954286 232.324931 
L 308.418078 345.158574 
L 308.88187 306.734598 
L 309.345662 247.255371 
L 309.809455 328.337832 
L 310.737039 336.036033 
L 311.200831 264.61116 
L 311.664623 282.856242 
L 312.128416 337.633528 
L 312.592208 322.877713 
L 313.056 263.223861 
L 313.519792 333.429592 
L 313.983584 362.352672 
L 314.447377 343.43496 
L 314.911169 355.205981 
L 315.374961 269.025292 
L 315.838753 249.43495 
L 316.302545 312.283794 
L 316.766338 300.176458 
L 317.23013 196.25516 
L 317.693922 213.064142 
L 318.157714 337.885764 
L 318.621506 316.992202 
L 319.085299 215.425108 
L 319.549091 326.829413 
L 320.012883 321.196138 
L 320.476675 285.378603 
L 320.940468 269.992198 
L 321.40426 243.591479 
L 321.868052 264.022608 
L 322.331844 276.970731 
L 322.795636 321.952847 
L 323.259429 332.000254 
L 323.723221 319.724761 
L 324.187013 321.238178 
L 324.650805 274.658567 
L 325.114597 247.162457 
L 325.57839 306.061969 
L 326.042182 247.795415 
L 326.505974 304.254276 
L 326.969766 297.948372 
L 327.433558 301.605797 
L 327.897351 315.478785 
L 328.824935 191.126358 
L 329.288727 306.188087 
L 329.752519 330.94927 
L 330.216312 302.740859 
L 330.680104 308.962685 
L 331.607688 303.203292 
L 332.071481 285.168407 
L 332.535273 259.566436 
L 332.999065 328.97342 
L 333.462857 286.219391 
L 333.926649 285.504722 
L 334.390442 224.253374 
L 334.854234 276.508298 
L 335.318026 278.694345 
L 335.781818 271.968048 
L 336.24561 277.811519 
L 336.709403 258.851767 
L 337.173195 309.214921 
L 337.636987 277.495488 
L 338.100779 286.26143 
L 338.564571 196.717593 
L 339.028364 168.551221 
L 339.955948 298.242648 
L 340.883532 254.773949 
L 341.347325 295.594168 
L 341.811117 237.495772 
L 342.274909 262.130837 
L 342.738701 211.010975 
L 343.202494 289.58254 
L 343.666286 231.231907 
L 344.130078 212.566432 
L 344.59387 251.895167 
L 345.057662 314.764116 
L 345.521455 268.899174 
L 345.985247 311.947479 
L 346.449039 301.942111 
L 346.912831 275.415275 
L 347.376623 222.007746 
L 348.304208 267.680033 
L 348.768 269.86608 
L 349.231792 265.788262 
L 349.695584 328.090594 
L 350.159377 277.138889 
L 350.623169 169.518127 
L 351.086961 221.310618 
L 351.550753 229.886648 
L 352.014545 284.705974 
L 352.478338 281.6371 
L 352.94213 303.749804 
L 353.405922 290.88576 
L 353.869714 292.567334 
L 354.333506 296.884159 
L 354.797299 247.080746 
L 355.261091 287.396493 
L 355.724883 180.388142 
L 356.188675 156.585074 
L 356.652468 259.272161 
L 357.11626 288.363398 
L 357.580052 261.752483 
L 358.043844 310.56018 
L 358.507636 287.816886 
L 358.971429 255.609151 
L 359.435221 244.011873 
L 359.899013 193.648719 
L 360.826597 284.327619 
L 361.29039 286.051233 
L 362.217974 214.962675 
L 362.681766 220.007398 
L 363.145558 273.77574 
L 363.609351 233.754269 
L 364.073143 222.319563 
L 364.536935 250.612053 
L 365.000727 239.892016 
L 365.464519 235.604001 
L 365.928312 242.372338 
L 366.392104 243.717597 
L 366.855896 250.906328 
L 367.319688 201.636198 
L 367.783481 277.307046 
L 368.247273 277.769479 
L 369.174857 166.197017 
L 369.638649 285.63084 
L 370.102442 203.612048 
L 370.566234 223.917059 
L 371.030026 217.90543 
L 371.493818 235.20448 
L 371.95761 265.451947 
L 372.421403 257.968941 
L 372.885195 268.52082 
L 373.348987 248.13173 
L 373.812779 203.233694 
L 374.276571 276.760535 
L 374.740364 180.784675 
L 375.204156 211.935841 
L 375.667948 214.584321 
L 376.13174 279.913487 
L 376.595532 258.305255 
L 377.059325 264.400963 
L 377.523117 242.374127 
L 377.986909 325.882498 
L 378.450701 284.916171 
L 378.914494 281.940489 
L 379.378286 240.312409 
L 379.842078 211.557487 
L 380.30587 201.804355 
L 380.769662 189.110941 
L 381.697247 259.188082 
L 382.161039 257.800783 
L 382.624831 259.969485 
L 383.088623 249.266793 
L 383.552416 315.436746 
L 384.016208 283.930156 
L 384.48 289.498461 
L 384.943792 267.427797 
L 385.407584 220.385753 
L 385.871377 150.978769 
L 386.798961 194.111152 
L 387.262753 198.735482 
L 388.190338 228.120995 
L 388.65413 235.814198 
L 389.117922 236.9913 
L 389.581714 253.512768 
L 390.045506 240.858921 
L 390.509299 202.266788 
L 391.436883 369.36 
L 391.900675 267.231613 
L 392.364468 276.129944 
L 392.82826 260.182749 
L 393.292052 248.972517 
L 393.755844 204.146548 
L 394.219636 243.885755 
L 394.683429 263.2659 
L 395.147221 218.872336 
L 395.611013 215.214911 
L 396.074805 249.326263 
L 396.538597 204.074481 
L 397.00239 192.765893 
L 397.466182 198.777521 
L 397.929974 229.592372 
L 398.393766 238.336559 
L 399.321351 168.130828 
L 399.785143 167.090133 
L 400.248935 195.834766 
L 400.712727 243.798148 
L 401.176519 312.57807 
L 401.640312 262.845506 
L 402.104104 290.044972 
L 402.567896 272.220284 
L 403.031688 231.315986 
L 403.959273 304.296316 
L 404.423065 204.245111 
L 404.886857 180.540847 
L 405.350649 289.118056 
L 405.814442 265.642153 
L 406.278234 295.762325 
L 406.742026 315.499284 
L 407.205818 273.10311 
L 407.66961 289.5405 
L 408.133403 280.204822 
L 408.597195 267.84819 
L 409.060987 214.332085 
L 409.524779 216.277666 
L 409.988571 160.7319 
L 410.452364 152.019463 
L 410.916156 154.636193 
L 411.84374 254.647831 
L 412.771325 220.806146 
L 413.235117 245.441211 
L 413.698909 248.511368 
L 414.162701 259.007913 
L 414.626494 283.125823 
L 415.090286 298.11653 
L 416.01787 280.224578 
L 416.481662 246.585176 
L 416.945455 258.095059 
L 417.409247 293.534239 
L 417.873039 269.277529 
L 418.336831 254.521713 
L 418.800623 230.012766 
L 419.264416 254.185398 
L 419.728208 261.205971 
L 420.192 279.182504 
L 420.655792 313.923329 
L 421.119584 299.568798 
L 421.583377 273.177488 
L 422.047169 294.995528 
L 422.510961 306.457139 
L 422.974753 313.460896 
L 423.438545 274.484135 
L 423.902338 267.492839 
L 424.36613 309.761432 
L 424.829922 262.803467 
L 425.293714 193.648719 
L 425.757506 157.480464 
L 426.221299 144.672865 
L 426.685091 156.864279 
L 427.148883 151.609359 
L 427.612675 166.323135 
L 428.076468 170.569111 
L 428.54026 206.344606 
L 429.004052 146.102203 
L 429.467844 136.43315 
L 429.931636 145.849967 
L 430.395429 223.286468 
L 430.859221 218.115627 
L 431.323013 208.278417 
L 431.786805 212.314195 
L 432.250597 133.574474 
L 432.71439 129.959089 
L 433.178182 135.214009 
L 433.641974 174.352653 
L 434.569558 196.297199 
L 435.497143 234.763214 
L 435.960935 309.172881 
L 436.424727 304.128158 
L 436.888519 275.289157 
L 437.352312 166.112938 
L 438.279896 218.662139 
L 438.743688 205.167504 
L 439.207481 182.634407 
L 439.671273 235.561962 
L 440.135065 254.017241 
L 440.598857 239.765898 
L 441.062649 265.409907 
L 441.526442 269.739961 
L 441.990234 305.179142 
L 442.917818 240.312409 
L 443.38161 221.268579 
L 443.845403 215.887541 
L 444.309195 253.470729 
L 444.772987 238.126363 
L 445.236779 196.339238 
L 445.700571 236.823142 
L 446.164364 254.900067 
L 446.628156 319.220288 
L 447.091948 311.148731 
L 447.55574 309.298999 
L 448.019532 305.893811 
L 448.947117 261.584326 
L 449.410909 257.548547 
L 449.874701 265.325829 
L 450.338494 226.607578 
L 450.802286 176.076267 
L 451.266078 256.623681 
L 451.72987 253.008296 
L 452.193662 206.260527 
L 452.657455 198.020813 
L 453.121247 201.972513 
L 454.048831 248.468045 
L 454.512623 260.028869 
L 454.976416 256.203287 
L 455.440208 273.355346 
L 455.904 300.765009 
L 456.367792 315.142471 
L 456.831584 308.920645 
L 457.295377 262.130837 
L 457.759169 263.223861 
L 458.686753 245.777526 
L 459.150545 223.790941 
L 459.614338 252.461784 
L 460.07813 248.80436 
L 460.541922 293.996672 
L 461.005714 303.749804 
L 461.469506 305.515457 
L 461.933299 313.83925 
L 462.397091 254.437634 
L 462.860883 276.718495 
L 463.324675 328.553026 
L 463.788468 333.55571 
L 464.25226 313.040503 
L 465.179844 250.023502 
L 465.643636 240.858921 
L 466.107429 254.311516 
L 466.571221 301.731915 
L 467.035013 285.126367 
L 467.498805 318.169304 
L 467.962597 312.57807 
L 468.42639 295.426011 
L 468.890182 313.587014 
L 469.353974 315.8151 
L 470.281558 241.615629 
L 470.745351 305.809733 
L 471.209143 288.111162 
L 471.672935 305.809733 
L 472.136727 280.670195 
L 472.600519 316.151415 
L 473.064312 303.203292 
L 473.528104 269.908119 
L 474.455688 293.071806 
L 474.919481 292.357137 
L 475.383273 330.612955 
L 475.847065 227.196129 
L 476.310857 187.595052 
L 477.238442 287.690768 
L 477.702234 280.249802 
L 478.166026 269.833154 
L 478.629818 194.741743 
L 479.09361 325.147838 
L 479.557403 222.739957 
L 480.484987 314.722077 
L 480.948779 312.493991 
L 481.412571 300.554813 
L 481.876364 326.535137 
L 482.803948 339.861614 
L 483.26774 333.849986 
L 483.731532 302.572702 
L 484.195325 321.490414 
L 484.659117 305.767693 
L 485.122909 334.438537 
L 485.586701 308.794527 
L 486.050494 334.186301 
L 486.514286 294.452203 
L 486.978078 321.74265 
L 487.44187 317.538714 
L 487.905662 315.463297 
L 488.369455 341.328447 
L 488.833247 335.53156 
L 489.297039 341.332992 
L 489.760831 333.892025 
L 490.224623 302.782899 
L 490.688416 350.371454 
L 491.152208 329.393814 
L 491.616 322.321727 
L 492.079792 306.314205 
L 492.543584 301.479678 
L 493.007377 317.16036 
L 493.471169 266.358796 
L 493.934961 291.474311 
L 494.398753 335.993993 
L 494.862545 254.088525 
L 495.326338 248.510085 
L 495.79013 279.156778 
L 496.253922 254.521713 
L 496.717714 275.709551 
L 497.181506 307.911701 
L 497.645299 277.265007 
L 498.109091 279.391385 
L 498.109091 279.391385 
" clip-path="url(#p78b2937249)" style="fill: none; stroke: #1f77b4; stroke-width: 1.5; stroke-linecap: round"/>
   </g>
   <g id="line2d_15">
    <path d="M 92.290909 282.496709 
L 92.754701 287.711203 
L 93.218494 285.936211 
L 93.682286 278.012517 
L 94.146078 254.16315 
L 94.60987 257.590652 
L 95.073662 267.751216 
L 95.537455 269.992046 
L 96.001247 253.936147 
L 96.465039 273.467431 
L 96.928831 279.185588 
L 97.392623 279.105726 
L 97.856416 265.315384 
L 98.320208 272.600964 
L 98.784 299.931469 
L 99.247792 288.504823 
L 99.711584 284.381655 
L 100.175377 274.253895 
L 100.639169 253.161947 
L 101.102961 242.406236 
L 101.566753 257.135094 
L 102.030545 253.184748 
L 102.494338 244.033028 
L 102.95813 244.397956 
L 103.421922 252.681046 
L 103.885714 251.648977 
L 104.349506 243.85362 
L 104.813299 252.878454 
L 105.277091 238.820095 
L 105.740883 249.313795 
L 106.204675 250.59701 
L 106.668468 260.473399 
L 107.13226 275.242319 
L 107.596052 299.586865 
L 108.059844 292.1317 
L 108.523636 302.937953 
L 108.987429 310.548469 
L 109.451221 316.100204 
L 109.915013 310.135704 
L 110.378805 315.027085 
L 110.842597 310.223489 
L 111.30639 313.920404 
L 111.770182 308.566133 
L 112.233974 310.270263 
L 112.697766 303.064168 
L 113.161558 305.47836 
L 113.625351 301.267755 
L 114.089143 289.823274 
L 114.552935 285.162858 
L 115.016727 289.166603 
L 115.480519 295.221027 
L 115.944312 291.436177 
L 116.408104 298.787578 
L 116.871896 287.320068 
L 117.335688 286.353155 
L 117.799481 279.450895 
L 118.263273 286.680313 
L 118.727065 311.71877 
L 119.190857 318.181853 
L 119.654649 301.681909 
L 120.118442 305.086861 
L 120.582234 306.84096 
L 121.046026 317.324697 
L 121.509818 314.922195 
L 121.97361 317.70671 
L 122.437403 307.472773 
L 122.901195 315.072886 
L 123.364987 304.153147 
L 123.828779 303.783273 
L 124.292571 305.270628 
L 124.756364 309.109774 
L 125.220156 309.562528 
L 125.683948 307.108986 
L 126.14774 297.37854 
L 126.611532 290.473317 
L 127.075325 290.143845 
L 127.539117 286.287034 
L 128.002909 304.627176 
L 128.466701 305.597725 
L 128.930494 314.9228 
L 129.394286 293.974551 
L 130.32187 316.39154 
L 130.785662 318.655102 
L 131.249455 314.987013 
L 131.713247 317.828426 
L 132.177039 309.546224 
L 132.640831 289.38551 
L 133.104623 296.372636 
L 133.568416 305.158374 
L 134.032208 303.980431 
L 134.496 315.555275 
L 134.959792 277.681755 
L 135.423584 269.102738 
L 135.887377 278.911789 
L 136.351169 306.434966 
L 136.814961 289.316748 
L 137.278753 311.244862 
L 137.742545 305.180531 
L 138.206338 290.234857 
L 138.67013 291.095923 
L 139.133922 306.705115 
L 139.597714 299.513283 
L 140.061506 306.439732 
L 140.525299 293.542526 
L 140.989091 293.903372 
L 141.452883 300.775009 
L 141.916675 304.801672 
L 142.380468 297.04383 
L 142.84426 301.452126 
L 143.308052 311.245146 
L 143.771844 312.718791 
L 144.235636 306.891064 
L 144.699429 307.132203 
L 145.163221 320.619156 
L 145.627013 321.228685 
L 146.090805 307.361674 
L 146.554597 306.549207 
L 147.01839 310.150494 
L 147.482182 309.932245 
L 147.945974 313.346837 
L 148.409766 312.840469 
L 148.873558 313.221867 
L 149.337351 296.808779 
L 149.801143 294.738901 
L 150.264935 307.335586 
L 150.728727 300.124083 
L 151.192519 277.027775 
L 151.656312 297.34392 
L 152.120104 294.326305 
L 152.583896 300.622513 
L 153.047688 296.057911 
L 153.511481 300.352554 
L 153.975273 289.918592 
L 154.439065 294.943548 
L 154.902857 301.476225 
L 155.366649 295.780258 
L 155.830442 293.144282 
L 156.294234 298.856428 
L 156.758026 286.989374 
L 157.221818 286.970328 
L 157.68561 292.233491 
L 158.149403 287.012555 
L 158.613195 280.38231 
L 159.540779 310.371601 
L 160.004571 303.52966 
L 160.468364 262.452413 
L 160.932156 297.209374 
L 161.395948 292.265534 
L 161.85974 289.084424 
L 162.323532 249.607994 
L 162.787325 258.635527 
L 163.251117 270.825567 
L 163.714909 265.331565 
L 164.178701 273.505475 
L 164.642494 272.359399 
L 165.106286 264.909366 
L 165.570078 270.620416 
L 166.03387 279.379773 
L 166.497662 266.803898 
L 166.961455 283.841784 
L 167.425247 281.118815 
L 167.889039 253.659716 
L 168.352831 278.895193 
L 168.816623 246.628069 
L 169.280416 253.01582 
L 169.744208 254.820881 
L 170.671792 299.082166 
L 171.135584 295.660196 
L 171.599377 293.803387 
L 172.063169 291.175391 
L 172.526961 273.232924 
L 172.990753 274.232454 
L 173.918338 239.117764 
L 174.38213 255.048564 
L 174.845922 241.59832 
L 175.309714 274.702199 
L 175.773506 272.997692 
L 176.237299 296.245282 
L 176.701091 287.241982 
L 177.164883 299.606828 
L 177.628675 307.989811 
L 178.092468 308.393201 
L 179.020052 274.694952 
L 179.483844 273.266818 
L 179.947636 258.45071 
L 180.411429 267.002289 
L 180.875221 252.043538 
L 181.339013 249.228903 
L 181.802805 264.938711 
L 182.266597 254.127467 
L 183.194182 294.587211 
L 183.657974 292.035011 
L 184.121766 283.280649 
L 184.585558 267.745845 
L 185.049351 264.905094 
L 185.513143 253.922147 
L 185.976935 258.154597 
L 186.440727 252.210847 
L 186.904519 243.003903 
L 187.832104 206.695796 
L 188.295896 205.665869 
L 188.759688 214.537355 
L 189.223481 227.300167 
L 189.687273 223.128565 
L 190.151065 231.602359 
L 190.614857 232.268619 
L 191.078649 195.415549 
L 191.542442 239.516291 
L 192.006234 234.323024 
L 192.470026 233.241519 
L 192.933818 225.648352 
L 193.39761 223.5645 
L 193.861403 236.147654 
L 194.325195 245.319159 
L 194.788987 218.589151 
L 195.252779 213.684317 
L 195.716571 211.931491 
L 196.180364 243.709617 
L 196.644156 225.731293 
L 197.107948 223.546393 
L 197.57174 216.491094 
L 198.035532 239.881155 
L 198.499325 238.553548 
L 198.963117 248.634271 
L 199.426909 232.232685 
L 199.890701 242.007912 
L 200.354494 215.577983 
L 200.818286 218.32155 
L 201.282078 252.404719 
L 201.74587 250.586099 
L 202.209662 235.808056 
L 202.673455 214.318196 
L 203.137247 238.390948 
L 203.601039 255.365413 
L 204.064831 240.605158 
L 204.528623 241.237085 
L 204.992416 221.226891 
L 205.456208 220.933678 
L 205.92 207.519836 
L 206.383792 216.174745 
L 206.847584 211.412549 
L 207.311377 174.645489 
L 207.775169 179.90985 
L 208.238961 193.527242 
L 209.166545 201.180952 
L 209.630338 210.716353 
L 210.09413 197.49665 
L 210.557922 219.374672 
L 211.021714 206.309362 
L 211.485506 210.50642 
L 212.413091 193.945146 
L 212.876883 229.276156 
L 213.340675 229.872278 
L 213.804468 235.206596 
L 214.26826 237.354458 
L 214.732052 170.679172 
L 215.195844 169.043885 
L 216.123429 264.834251 
L 216.587221 280.570321 
L 217.051013 207.942914 
L 217.514805 211.909947 
L 217.978597 230.092179 
L 218.44239 223.246186 
L 218.906182 218.73622 
L 219.833766 238.716346 
L 220.297558 230.646893 
L 220.761351 226.385512 
L 221.225143 230.57219 
L 221.688935 262.219029 
L 222.152727 206.213909 
L 222.616519 245.462844 
L 223.080312 203.864357 
L 223.544104 185.025921 
L 224.007896 204.202061 
L 224.471688 207.476407 
L 224.935481 233.692242 
L 225.399273 221.443602 
L 225.863065 248.693128 
L 226.326857 241.252952 
L 226.790649 252.410558 
L 227.254442 226.451633 
L 227.718234 207.400818 
L 228.182026 210.824287 
L 228.645818 232.355854 
L 229.10961 209.718059 
L 229.573403 238.380921 
L 230.037195 249.32295 
L 230.500987 256.697168 
L 230.964779 222.978533 
L 231.428571 227.025216 
L 231.892364 242.878568 
L 232.356156 235.073502 
L 232.819948 212.287001 
L 233.28374 211.532819 
L 233.747532 193.360978 
L 234.211325 211.083912 
L 234.675117 224.361572 
L 235.138909 211.769787 
L 235.602701 242.24622 
L 236.066494 263.090268 
L 236.530286 243.81723 
L 236.994078 216.945511 
L 237.45787 225.070467 
L 237.921662 237.177203 
L 238.385455 236.784759 
L 239.313039 231.226329 
L 239.776831 218.458861 
L 240.240623 234.056292 
L 240.704416 234.818266 
L 241.168208 232.393995 
L 241.632 239.250342 
L 242.095792 236.646351 
L 242.559584 237.09444 
L 243.023377 239.849576 
L 243.487169 221.693914 
L 243.950961 190.937716 
L 244.414753 217.669729 
L 244.878545 234.601588 
L 245.342338 218.752445 
L 245.80613 213.51717 
L 246.269922 234.177888 
L 246.733714 234.724971 
L 247.197506 221.130255 
L 247.661299 220.720983 
L 248.125091 198.549397 
L 248.588883 184.879448 
L 249.052675 211.868938 
L 249.516468 195.875563 
L 249.98026 232.299195 
L 250.444052 246.096449 
L 250.907844 240.694679 
L 251.371636 249.398971 
L 251.835429 246.624892 
L 252.299221 257.565088 
L 252.763013 239.731802 
L 253.226805 230.279494 
L 253.690597 244.746184 
L 254.15439 239.415938 
L 254.618182 264.543389 
L 255.081974 256.094249 
L 255.545766 238.0877 
L 256.009558 263.131248 
L 256.473351 218.424942 
L 256.937143 237.532609 
L 257.400935 245.728306 
L 257.864727 257.67365 
L 258.328519 272.914847 
L 258.792312 268.700627 
L 259.256104 273.034862 
L 259.719896 268.062742 
L 260.183688 269.069295 
L 260.647481 257.898882 
L 261.111273 217.309623 
L 261.575065 217.042953 
L 262.038857 255.23381 
L 262.502649 241.281772 
L 262.966442 235.19124 
L 263.430234 248.220006 
L 263.894026 247.256515 
L 265.285403 200.770212 
L 265.749195 205.4931 
L 266.212987 208.522556 
L 267.140571 231.852006 
L 267.604364 257.689819 
L 268.068156 259.124053 
L 268.531948 257.915492 
L 268.99574 271.656983 
L 269.459532 263.929801 
L 269.923325 270.420164 
L 270.850909 235.223939 
L 271.314701 266.570277 
L 271.778494 268.070657 
L 272.242286 258.14818 
L 272.706078 265.398382 
L 273.16987 280.60403 
L 273.633662 282.293843 
L 274.097455 274.158101 
L 274.561247 257.156877 
L 275.025039 267.040357 
L 275.488831 255.337287 
L 275.952623 255.696094 
L 276.416416 272.844427 
L 276.880208 261.764345 
L 277.344 254.632499 
L 277.807792 283.556212 
L 278.271584 260.120568 
L 278.735377 268.537972 
L 279.199169 269.316132 
L 279.662961 281.214423 
L 280.126753 298.466698 
L 280.590545 299.496992 
L 281.054338 304.008553 
L 281.51813 289.529075 
L 281.981922 283.221554 
L 282.909506 266.064089 
L 283.373299 274.211169 
L 283.837091 303.339304 
L 284.300883 310.050875 
L 284.764675 307.102165 
L 285.228468 293.164686 
L 285.69226 308.642998 
L 286.156052 309.645593 
L 286.619844 301.928511 
L 287.083636 313.909373 
L 287.547429 319.836858 
L 288.011221 309.073583 
L 288.475013 306.427541 
L 288.938805 283.372238 
L 289.402597 290.521211 
L 289.86639 287.345689 
L 290.330182 291.611432 
L 290.793974 301.311074 
L 291.721558 289.113164 
L 292.185351 282.025145 
L 292.649143 284.045483 
L 293.112935 295.690325 
L 293.576727 295.23893 
L 294.040519 275.659902 
L 294.504312 292.238751 
L 294.968104 291.584362 
L 295.431896 289.484604 
L 295.895688 296.268546 
L 296.359481 301.140665 
L 296.823273 300.055069 
L 297.287065 304.30513 
L 297.750857 302.077778 
L 298.214649 281.369245 
L 298.678442 299.133092 
L 299.142234 308.279225 
L 299.606026 303.985339 
L 300.069818 296.450424 
L 300.53361 282.664962 
L 300.997403 282.060923 
L 301.461195 276.166899 
L 301.924987 299.212112 
L 302.388779 314.377702 
L 302.852571 308.492551 
L 303.316364 309.833725 
L 303.780156 318.329259 
L 304.243948 316.140522 
L 304.70774 312.968891 
L 305.635325 303.586323 
L 306.099117 310.561344 
L 306.562909 303.155176 
L 307.026701 290.741788 
L 307.490494 298.218721 
L 307.954286 290.159908 
L 308.418078 305.300084 
L 308.88187 289.732435 
L 309.345662 279.249315 
L 309.809455 298.353498 
L 310.273247 302.004474 
L 310.737039 301.895838 
L 311.200831 307.168756 
L 311.664623 315.770858 
L 312.128416 304.39835 
L 312.592208 302.82165 
L 313.056 296.711716 
L 313.519792 300.774172 
L 313.983584 301.683583 
L 314.447377 296.033791 
L 314.911169 302.710291 
L 315.374961 313.457313 
L 315.838753 301.285211 
L 316.302545 297.703756 
L 316.766338 305.58641 
L 317.23013 316.669342 
L 317.693922 307.726111 
L 318.157714 308.870677 
L 318.621506 292.127462 
L 319.085299 303.254994 
L 319.549091 292.856944 
L 320.012883 298.094233 
L 320.476675 288.398294 
L 320.940468 287.389843 
L 321.40426 283.080806 
L 321.868052 282.120812 
L 322.331844 286.043638 
L 322.795636 292.546994 
L 323.259429 305.285503 
L 323.723221 307.309208 
L 324.187013 286.381772 
L 325.57839 298.594992 
L 326.042182 297.889525 
L 326.505974 279.312069 
L 326.969766 279.4408 
L 327.433558 280.279063 
L 327.897351 285.412742 
L 328.361143 294.884794 
L 329.288727 299.238136 
L 330.216312 290.505981 
L 330.680104 279.587549 
L 331.143896 287.725943 
L 331.607688 305.521667 
L 332.071481 311.950447 
L 332.535273 320.270724 
L 333.462857 291.524437 
L 333.926649 284.11345 
L 334.390442 281.18037 
L 334.854234 287.408162 
L 335.318026 287.822459 
L 335.781818 290.83724 
L 336.24561 282.313447 
L 337.173195 241.546887 
L 337.636987 266.206061 
L 338.100779 244.387112 
L 338.564571 280.66072 
L 339.028364 262.533003 
L 339.492156 260.775102 
L 339.955948 263.951201 
L 340.41974 289.130256 
L 340.883532 276.935677 
L 341.347325 254.8107 
L 341.811117 257.738244 
L 342.274909 251.737205 
L 342.738701 255.564988 
L 343.202494 239.026817 
L 343.666286 272.940287 
L 344.130078 241.28809 
L 344.59387 241.186393 
L 345.057662 244.771571 
L 345.521455 278.684079 
L 345.985247 269.72582 
L 346.449039 287.891589 
L 346.912831 268.390368 
L 347.376623 254.187002 
L 347.840416 227.348196 
L 348.304208 236.375259 
L 348.768 227.369907 
L 349.695584 245.80819 
L 350.159377 259.759322 
L 351.086961 227.835493 
L 352.014545 247.137682 
L 352.478338 272.393282 
L 352.94213 272.524801 
L 353.405922 278.120658 
L 353.869714 267.008476 
L 354.333506 261.512004 
L 354.797299 261.439038 
L 355.261091 266.314961 
L 355.724883 264.137672 
L 356.188675 219.003042 
L 356.652468 221.344271 
L 357.11626 251.098821 
L 357.580052 261.386466 
L 358.043844 259.102975 
L 358.507636 249.481954 
L 358.971429 257.954403 
L 359.435221 249.601747 
L 359.899013 256.796369 
L 360.362805 238.754992 
L 360.826597 228.910521 
L 361.29039 234.368417 
L 361.754182 234.48914 
L 362.217974 231.24896 
L 363.145558 221.983304 
L 363.609351 246.490868 
L 364.073143 224.41401 
L 364.536935 231.634176 
L 365.000727 232.91385 
L 365.464519 219.409272 
L 365.928312 230.607331 
L 366.392104 225.07662 
L 366.855896 237.579532 
L 367.319688 245.337701 
L 367.783481 209.170208 
L 368.247273 240.221541 
L 368.711065 250.919505 
L 369.174857 232.600786 
L 369.638649 224.873377 
L 370.102442 249.834569 
L 370.566234 227.170053 
L 371.030026 239.407224 
L 371.493818 228.550658 
L 371.95761 231.553201 
L 372.421403 244.476918 
L 372.885195 230.781994 
L 373.348987 223.852561 
L 373.812779 227.25294 
L 374.276571 210.963888 
L 374.740364 240.653672 
L 375.204156 207.161875 
L 375.667948 218.42013 
L 376.13174 220.960664 
L 376.595532 259.57117 
L 377.059325 238.537093 
L 377.523117 236.371318 
L 377.986909 236.262739 
L 378.450701 266.777562 
L 378.914494 257.452734 
L 379.378286 265.026565 
L 379.842078 242.977152 
L 380.30587 237.818144 
L 380.769662 223.602521 
L 381.233455 220.669451 
L 381.697247 220.583782 
L 382.161039 237.566904 
L 382.624831 223.963796 
L 383.088623 225.630988 
L 383.552416 235.12598 
L 384.016208 251.66521 
L 384.48 238.731216 
L 384.943792 271.183332 
L 385.407584 258.033719 
L 386.335169 226.362937 
L 386.798961 231.648246 
L 387.262753 218.533049 
L 387.726545 217.942542 
L 388.190338 222.538864 
L 388.65413 233.0899 
L 389.117922 232.177292 
L 389.581714 232.826602 
L 390.045506 239.113037 
L 390.509299 230.866969 
L 390.973091 216.714557 
L 391.436883 247.307096 
L 391.900675 260.654846 
L 392.364468 265.864015 
L 392.82826 269.054128 
L 393.292052 254.63353 
L 393.755844 255.943672 
L 394.219636 222.330315 
L 394.683429 229.811471 
L 395.147221 233.172368 
L 395.611013 211.49542 
L 396.074805 214.211435 
L 396.538597 232.757109 
L 397.00239 203.049977 
L 397.466182 200.262656 
L 397.929974 210.493333 
L 398.393766 229.214882 
L 398.857558 215.724037 
L 399.321351 209.440076 
L 399.785143 193.675439 
L 400.248935 207.936699 
L 400.712727 206.867784 
L 401.176519 219.033013 
L 401.640312 264.464138 
L 402.104104 244.356647 
L 402.567896 260.244821 
L 403.031688 251.782693 
L 403.495481 240.730873 
L 404.423065 254.682488 
L 404.886857 226.685484 
L 405.350649 233.902755 
L 405.814442 267.261478 
L 406.278234 252.595173 
L 406.742026 272.919319 
L 407.205818 266.839546 
L 407.66961 258.354305 
L 408.133403 273.702672 
L 408.597195 262.160814 
L 409.060987 258.23955 
L 409.524779 226.791821 
L 409.988571 223.566298 
L 410.452364 211.390029 
L 410.916156 218.987381 
L 411.379948 214.126725 
L 411.84374 218.913073 
L 412.307532 247.428048 
L 413.235117 224.771518 
L 413.698909 251.550953 
L 414.162701 246.865278 
L 414.626494 244.216619 
L 415.090286 248.615235 
L 415.554078 257.52738 
L 416.01787 251.041251 
L 416.481662 248.280527 
L 416.945455 250.254659 
L 417.409247 251.089836 
L 417.873039 243.641233 
L 418.336831 232.62015 
L 418.800623 234.620556 
L 419.264416 230.707715 
L 419.728208 230.261911 
L 420.192 223.443798 
L 420.655792 243.786362 
L 421.119584 185.739591 
L 421.583377 265.076055 
L 422.047169 236.228154 
L 422.510961 288.038166 
L 422.974753 266.144486 
L 423.438545 281.00145 
L 424.36613 272.51375 
L 424.829922 235.957362 
L 425.293714 249.500123 
L 425.757506 226.097667 
L 426.221299 223.458197 
L 426.685091 210.933388 
L 427.148883 208.509531 
L 427.612675 191.397412 
L 428.076468 198.437326 
L 428.54026 200.273716 
L 429.004052 211.857795 
L 429.467844 200.643157 
L 429.931636 185.580454 
L 430.859221 217.796979 
L 431.323013 216.358105 
L 431.786805 209.633006 
L 432.250597 214.481752 
L 432.71439 186.019718 
L 433.178182 199.698601 
L 433.641974 200.03575 
L 434.105766 194.429533 
L 434.569558 206.22711 
L 435.033351 208.027251 
L 435.497143 207.915661 
L 435.960935 229.746684 
L 436.424727 270.860362 
L 436.888519 272.026473 
L 437.352312 243.534884 
L 437.816104 207.104802 
L 438.279896 221.230767 
L 438.743688 224.468454 
L 439.207481 212.153199 
L 439.671273 208.666303 
L 440.135065 229.432723 
L 440.598857 231.130931 
L 441.062649 231.168051 
L 441.526442 240.821933 
L 441.990234 241.743649 
L 442.454026 239.724606 
L 442.917818 246.090378 
L 443.38161 240.804147 
L 443.845403 222.797184 
L 444.309195 217.886156 
L 444.772987 251.950886 
L 445.700571 216.417978 
L 446.164364 235.246083 
L 446.628156 241.031431 
L 447.091948 290.477305 
L 447.55574 286.366542 
L 448.019532 278.250577 
L 448.947117 267.368131 
L 449.410909 268.984848 
L 449.874701 252.831234 
L 450.338494 253.367377 
L 450.802286 238.056283 
L 451.266078 210.617411 
L 451.72987 250.822268 
L 452.193662 250.876827 
L 452.657455 241.329773 
L 453.121247 225.181606 
L 453.585039 215.950223 
L 454.048831 239.858044 
L 454.512623 249.83456 
L 454.976416 245.946249 
L 455.440208 246.583691 
L 455.904 248.150905 
L 456.367792 261.130226 
L 456.831584 283.997633 
L 457.295377 292.154041 
L 457.759169 275.995782 
L 458.222961 278.382697 
L 458.686753 255.202713 
L 459.150545 253.659113 
L 459.614338 244.171408 
L 460.07813 250.163593 
L 460.541922 246.060464 
L 461.469506 293.007801 
L 462.397091 310.616672 
L 462.860883 283.530952 
L 463.324675 288.694521 
L 463.788468 290.514329 
L 464.25226 286.862741 
L 464.716052 265.495908 
L 465.179844 267.868206 
L 465.643636 269.34353 
L 466.107429 256.442006 
L 466.571221 264.717397 
L 467.035013 299.12532 
L 467.498805 294.67802 
L 467.962597 295.914706 
L 468.42639 287.679191 
L 468.890182 274.348914 
L 469.353974 288.163774 
L 469.817766 275.324562 
L 470.281558 286.746654 
L 470.745351 275.598842 
L 471.209143 282.851522 
L 471.672935 279.062007 
L 472.136727 292.128409 
L 472.600519 281.713786 
L 473.528104 294.868275 
L 473.991896 290.597697 
L 474.455688 276.644439 
L 474.919481 272.748723 
L 475.383273 281.269076 
L 475.847065 274.512914 
L 476.310857 272.311918 
L 476.774649 263.99861 
L 477.238442 251.962118 
L 477.702234 261.999265 
L 478.166026 260.839617 
L 478.629818 282.715018 
L 479.09361 267.286221 
L 479.557403 278.763794 
L 480.021195 278.559523 
L 480.484987 297.247319 
L 480.948779 309.532355 
L 481.412571 306.110045 
L 481.876364 312.125587 
L 482.340156 316.42056 
L 482.803948 311.752849 
L 483.26774 313.428825 
L 483.731532 313.596358 
L 484.195325 293.295035 
L 484.659117 311.243842 
L 485.122909 312.886032 
L 485.586701 299.621015 
L 486.050494 306.88086 
L 486.514286 285.802451 
L 486.978078 314.006337 
L 487.44187 310.60509 
L 487.905662 306.177328 
L 488.369455 316.854396 
L 488.833247 296.457021 
L 489.297039 311.17488 
L 489.760831 290.283875 
L 490.224623 304.133285 
L 490.688416 304.375404 
L 491.152208 312.273979 
L 491.616 306.804446 
L 492.079792 293.944975 
L 492.543584 307.31448 
L 493.007377 298.630217 
L 493.934961 312.615861 
L 494.398753 317.121218 
L 494.862545 302.006551 
L 495.326338 295.799718 
L 495.79013 309.12617 
L 496.253922 287.354447 
L 496.717714 254.68109 
L 497.181506 252.017345 
L 497.645299 251.692249 
L 498.109091 221.317737 
L 498.109091 221.317737 
" clip-path="url(#p78b2937249)" style="fill: none; stroke: #ff7f0e; stroke-width: 1.5; stroke-linecap: round"/>
   </g>
   <g id="patch_3">
    <path d="M 72 384.48 
L 72 51.84 
" style="fill: none; stroke: #ffffff; stroke-width: 0.8; stroke-linejoin: miter; stroke-linecap: square"/>
   </g>
   <g id="patch_4">
    <path d="M 518.4 384.48 
L 518.4 51.84 
" style="fill: none; stroke: #ffffff; stroke-width: 0.8; stroke-linejoin: miter; stroke-linecap: square"/>
   </g>
   <g id="patch_5">
    <path d="M 72 384.48 
L 518.4 384.48 
" style="fill: none; stroke: #ffffff; stroke-width: 0.8; stroke-linejoin: miter; stroke-linecap: square"/>
   </g>
   <g id="patch_6">
    <path d="M 72 51.84 
L 518.4 51.84 
" style="fill: none; stroke: #ffffff; stroke-width: 0.8; stroke-linejoin: miter; stroke-linecap: square"/>
   </g>
   <g id="text_16">
    <!-- Average Wind Speed Prediction 2 Days Ahead -->
    <g style="fill: #262626" transform="translate(171.235312 45.84) scale(0.12 -0.12)">
     <defs>
      <path id="ArialMT-41" d="M -9 0 
L 1750 4581 
L 2403 4581 
L 4278 0 
L 3588 0 
L 3053 1388 
L 1138 1388 
L 634 0 
L -9 0 
z
M 1313 1881 
L 2866 1881 
L 2388 3150 
Q 2169 3728 2063 4100 
Q 1975 3659 1816 3225 
L 1313 1881 
z
" transform="scale(0.015625)"/>
      <path id="ArialMT-76" d="M 1344 0 
L 81 3319 
L 675 3319 
L 1388 1331 
Q 1503 1009 1600 663 
Q 1675 925 1809 1294 
L 2547 3319 
L 3125 3319 
L 1869 0 
L 1344 0 
z
" transform="scale(0.015625)"/>
      <path id="ArialMT-65" d="M 2694 1069 
L 3275 997 
Q 3138 488 2766 206 
Q 2394 -75 1816 -75 
Q 1088 -75 661 373 
Q 234 822 234 1631 
Q 234 2469 665 2931 
Q 1097 3394 1784 3394 
Q 2450 3394 2872 2941 
Q 3294 2488 3294 1666 
Q 3294 1616 3291 1516 
L 816 1516 
Q 847 969 1125 678 
Q 1403 388 1819 388 
Q 2128 388 2347 550 
Q 2566 713 2694 1069 
z
M 847 1978 
L 2700 1978 
Q 2663 2397 2488 2606 
Q 2219 2931 1791 2931 
Q 1403 2931 1139 2672 
Q 875 2413 847 1978 
z
" transform="scale(0.015625)"/>
      <path id="ArialMT-72" d="M 416 0 
L 416 3319 
L 922 3319 
L 922 2816 
Q 1116 3169 1280 3281 
Q 1444 3394 1641 3394 
Q 1925 3394 2219 3213 
L 2025 2691 
Q 1819 2813 1613 2813 
Q 1428 2813 1281 2702 
Q 1134 2591 1072 2394 
Q 978 2094 978 1738 
L 978 0 
L 416 0 
z
" transform="scale(0.015625)"/>
      <path id="ArialMT-67" d="M 319 -275 
L 866 -356 
Q 900 -609 1056 -725 
Q 1266 -881 1628 -881 
Q 2019 -881 2231 -725 
Q 2444 -569 2519 -288 
Q 2563 -116 2559 434 
Q 2191 0 1641 0 
Q 956 0 581 494 
Q 206 988 206 1678 
Q 206 2153 378 2554 
Q 550 2956 876 3175 
Q 1203 3394 1644 3394 
Q 2231 3394 2613 2919 
L 2613 3319 
L 3131 3319 
L 3131 450 
Q 3131 -325 2973 -648 
Q 2816 -972 2473 -1159 
Q 2131 -1347 1631 -1347 
Q 1038 -1347 672 -1080 
Q 306 -813 319 -275 
z
M 784 1719 
Q 784 1066 1043 766 
Q 1303 466 1694 466 
Q 2081 466 2343 764 
Q 2606 1063 2606 1700 
Q 2606 2309 2336 2618 
Q 2066 2928 1684 2928 
Q 1309 2928 1046 2623 
Q 784 2319 784 1719 
z
" transform="scale(0.015625)"/>
      <path id="ArialMT-20" transform="scale(0.015625)"/>
      <path id="ArialMT-57" d="M 1294 0 
L 78 4581 
L 700 4581 
L 1397 1578 
Q 1509 1106 1591 641 
Q 1766 1375 1797 1488 
L 2669 4581 
L 3400 4581 
L 4056 2263 
Q 4303 1400 4413 641 
Q 4500 1075 4641 1638 
L 5359 4581 
L 5969 4581 
L 4713 0 
L 4128 0 
L 3163 3491 
Q 3041 3928 3019 4028 
Q 2947 3713 2884 3491 
L 1913 0 
L 1294 0 
z
" transform="scale(0.015625)"/>
      <path id="ArialMT-69" d="M 425 3934 
L 425 4581 
L 988 4581 
L 988 3934 
L 425 3934 
z
M 425 0 
L 425 3319 
L 988 3319 
L 988 0 
L 425 0 
z
" transform="scale(0.015625)"/>
      <path id="ArialMT-6e" d="M 422 0 
L 422 3319 
L 928 3319 
L 928 2847 
Q 1294 3394 1984 3394 
Q 2284 3394 2536 3286 
Q 2788 3178 2913 3003 
Q 3038 2828 3088 2588 
Q 3119 2431 3119 2041 
L 3119 0 
L 2556 0 
L 2556 2019 
Q 2556 2363 2490 2533 
Q 2425 2703 2258 2804 
Q 2091 2906 1866 2906 
Q 1506 2906 1245 2678 
Q 984 2450 984 1813 
L 984 0 
L 422 0 
z
" transform="scale(0.015625)"/>
      <path id="ArialMT-64" d="M 2575 0 
L 2575 419 
Q 2259 -75 1647 -75 
Q 1250 -75 917 144 
Q 584 363 401 755 
Q 219 1147 219 1656 
Q 219 2153 384 2558 
Q 550 2963 881 3178 
Q 1213 3394 1622 3394 
Q 1922 3394 2156 3267 
Q 2391 3141 2538 2938 
L 2538 4581 
L 3097 4581 
L 3097 0 
L 2575 0 
z
M 797 1656 
Q 797 1019 1065 703 
Q 1334 388 1700 388 
Q 2069 388 2326 689 
Q 2584 991 2584 1609 
Q 2584 2291 2321 2609 
Q 2059 2928 1675 2928 
Q 1300 2928 1048 2622 
Q 797 2316 797 1656 
z
" transform="scale(0.015625)"/>
      <path id="ArialMT-53" d="M 288 1472 
L 859 1522 
Q 900 1178 1048 958 
Q 1197 738 1509 602 
Q 1822 466 2213 466 
Q 2559 466 2825 569 
Q 3091 672 3220 851 
Q 3350 1031 3350 1244 
Q 3350 1459 3225 1620 
Q 3100 1781 2813 1891 
Q 2628 1963 1997 2114 
Q 1366 2266 1113 2400 
Q 784 2572 623 2826 
Q 463 3081 463 3397 
Q 463 3744 659 4045 
Q 856 4347 1234 4503 
Q 1613 4659 2075 4659 
Q 2584 4659 2973 4495 
Q 3363 4331 3572 4012 
Q 3781 3694 3797 3291 
L 3216 3247 
Q 3169 3681 2898 3903 
Q 2628 4125 2100 4125 
Q 1550 4125 1298 3923 
Q 1047 3722 1047 3438 
Q 1047 3191 1225 3031 
Q 1400 2872 2139 2705 
Q 2878 2538 3153 2413 
Q 3553 2228 3743 1945 
Q 3934 1663 3934 1294 
Q 3934 928 3725 604 
Q 3516 281 3123 101 
Q 2731 -78 2241 -78 
Q 1619 -78 1198 103 
Q 778 284 539 648 
Q 300 1013 288 1472 
z
" transform="scale(0.015625)"/>
      <path id="ArialMT-70" d="M 422 -1272 
L 422 3319 
L 934 3319 
L 934 2888 
Q 1116 3141 1344 3267 
Q 1572 3394 1897 3394 
Q 2322 3394 2647 3175 
Q 2972 2956 3137 2557 
Q 3303 2159 3303 1684 
Q 3303 1175 3120 767 
Q 2938 359 2589 142 
Q 2241 -75 1856 -75 
Q 1575 -75 1351 44 
Q 1128 163 984 344 
L 984 -1272 
L 422 -1272 
z
M 931 1641 
Q 931 1000 1190 694 
Q 1450 388 1819 388 
Q 2194 388 2461 705 
Q 2728 1022 2728 1688 
Q 2728 2322 2467 2637 
Q 2206 2953 1844 2953 
Q 1484 2953 1207 2617 
Q 931 2281 931 1641 
z
" transform="scale(0.015625)"/>
      <path id="ArialMT-50" d="M 494 0 
L 494 4581 
L 2222 4581 
Q 2678 4581 2919 4538 
Q 3256 4481 3484 4323 
Q 3713 4166 3852 3881 
Q 3991 3597 3991 3256 
Q 3991 2672 3619 2267 
Q 3247 1863 2275 1863 
L 1100 1863 
L 1100 0 
L 494 0 
z
M 1100 2403 
L 2284 2403 
Q 2872 2403 3119 2622 
Q 3366 2841 3366 3238 
Q 3366 3525 3220 3729 
Q 3075 3934 2838 4000 
Q 2684 4041 2272 4041 
L 1100 4041 
L 1100 2403 
z
" transform="scale(0.015625)"/>
      <path id="ArialMT-63" d="M 2588 1216 
L 3141 1144 
Q 3050 572 2676 248 
Q 2303 -75 1759 -75 
Q 1078 -75 664 370 
Q 250 816 250 1647 
Q 250 2184 428 2587 
Q 606 2991 970 3192 
Q 1334 3394 1763 3394 
Q 2303 3394 2647 3120 
Q 2991 2847 3088 2344 
L 2541 2259 
Q 2463 2594 2264 2762 
Q 2066 2931 1784 2931 
Q 1359 2931 1093 2626 
Q 828 2322 828 1663 
Q 828 994 1084 691 
Q 1341 388 1753 388 
Q 2084 388 2306 591 
Q 2528 794 2588 1216 
z
" transform="scale(0.015625)"/>
      <path id="ArialMT-74" d="M 1650 503 
L 1731 6 
Q 1494 -44 1306 -44 
Q 1000 -44 831 53 
Q 663 150 594 308 
Q 525 466 525 972 
L 525 2881 
L 113 2881 
L 113 3319 
L 525 3319 
L 525 4141 
L 1084 4478 
L 1084 3319 
L 1650 3319 
L 1650 2881 
L 1084 2881 
L 1084 941 
Q 1084 700 1114 631 
Q 1144 563 1211 522 
Q 1278 481 1403 481 
Q 1497 481 1650 503 
z
" transform="scale(0.015625)"/>
      <path id="ArialMT-6f" d="M 213 1659 
Q 213 2581 725 3025 
Q 1153 3394 1769 3394 
Q 2453 3394 2887 2945 
Q 3322 2497 3322 1706 
Q 3322 1066 3130 698 
Q 2938 331 2570 128 
Q 2203 -75 1769 -75 
Q 1072 -75 642 372 
Q 213 819 213 1659 
z
M 791 1659 
Q 791 1022 1069 705 
Q 1347 388 1769 388 
Q 2188 388 2466 706 
Q 2744 1025 2744 1678 
Q 2744 2294 2464 2611 
Q 2184 2928 1769 2928 
Q 1347 2928 1069 2612 
Q 791 2297 791 1659 
z
" transform="scale(0.015625)"/>
      <path id="ArialMT-68" d="M 422 0 
L 422 4581 
L 984 4581 
L 984 2938 
Q 1378 3394 1978 3394 
Q 2347 3394 2619 3248 
Q 2891 3103 3008 2847 
Q 3125 2591 3125 2103 
L 3125 0 
L 2563 0 
L 2563 2103 
Q 2563 2525 2380 2717 
Q 2197 2909 1863 2909 
Q 1613 2909 1392 2779 
Q 1172 2650 1078 2428 
Q 984 2206 984 1816 
L 984 0 
L 422 0 
z
" transform="scale(0.015625)"/>
     </defs>
     <use xlink:href="#ArialMT-41"/>
     <use xlink:href="#ArialMT-76" x="64.949219"/>
     <use xlink:href="#ArialMT-65" x="114.949219"/>
     <use xlink:href="#ArialMT-72" x="170.564453"/>
     <use xlink:href="#ArialMT-61" x="203.865234"/>
     <use xlink:href="#ArialMT-67" x="259.480469"/>
     <use xlink:href="#ArialMT-65" x="315.095703"/>
     <use xlink:href="#ArialMT-20" x="370.710938"/>
     <use xlink:href="#ArialMT-57" x="398.494141"/>
     <use xlink:href="#ArialMT-69" x="492.878906"/>
     <use xlink:href="#ArialMT-6e" x="515.095703"/>
     <use xlink:href="#ArialMT-64" x="570.710938"/>
     <use xlink:href="#ArialMT-20" x="626.326172"/>
     <use xlink:href="#ArialMT-53" x="654.109375"/>
     <use xlink:href="#ArialMT-70" x="720.808594"/>
     <use xlink:href="#ArialMT-65" x="776.423828"/>
     <use xlink:href="#ArialMT-65" x="832.039062"/>
     <use xlink:href="#ArialMT-64" x="887.654297"/>
     <use xlink:href="#ArialMT-20" x="943.269531"/>
     <use xlink:href="#ArialMT-50" x="971.052734"/>
     <use xlink:href="#ArialMT-72" x="1037.751953"/>
     <use xlink:href="#ArialMT-65" x="1071.052734"/>
     <use xlink:href="#ArialMT-64" x="1126.667969"/>
     <use xlink:href="#ArialMT-69" x="1182.283203"/>
     <use xlink:href="#ArialMT-63" x="1204.5"/>
     <use xlink:href="#ArialMT-74" x="1254.5"/>
     <use xlink:href="#ArialMT-69" x="1282.283203"/>
     <use xlink:href="#ArialMT-6f" x="1304.5"/>
     <use xlink:href="#ArialMT-6e" x="1360.115234"/>
     <use xlink:href="#ArialMT-20" x="1415.730469"/>
     <use xlink:href="#ArialMT-32" x="1443.513672"/>
     <use xlink:href="#ArialMT-20" x="1499.128906"/>
     <use xlink:href="#ArialMT-44" x="1526.912109"/>
     <use xlink:href="#ArialMT-61" x="1599.128906"/>
     <use xlink:href="#ArialMT-79" x="1654.744141"/>
     <use xlink:href="#ArialMT-73" x="1704.744141"/>
     <use xlink:href="#ArialMT-20" x="1754.744141"/>
     <use xlink:href="#ArialMT-41" x="1777.027344"/>
     <use xlink:href="#ArialMT-68" x="1843.726562"/>
     <use xlink:href="#ArialMT-65" x="1899.341797"/>
     <use xlink:href="#ArialMT-61" x="1954.957031"/>
     <use xlink:href="#ArialMT-64" x="2010.572266"/>
    </g>
   </g>
   <g id="legend_1">
    <g id="patch_7">
     <path d="M 437.15625 88.130625 
L 511.4 88.130625 
Q 513.4 88.130625 513.4 86.130625 
L 513.4 58.84 
Q 513.4 56.84 511.4 56.84 
L 437.15625 56.84 
Q 435.15625 56.84 435.15625 58.84 
L 435.15625 86.130625 
Q 435.15625 88.130625 437.15625 88.130625 
z
" style="fill: #eaeaf2; opacity: 0.8; stroke: #cccccc; stroke-linejoin: miter"/>
    </g>
    <g id="line2d_16">
     <path d="M 439.15625 64.497812 
L 449.15625 64.497812 
L 459.15625 64.497812 
" style="fill: none; stroke: #1f77b4; stroke-width: 1.5; stroke-linecap: round"/>
    </g>
    <g id="text_17">
     <!-- Real -->
     <g style="fill: #262626" transform="translate(467.15625 67.997812) scale(0.1 -0.1)">
      <defs>
       <path id="ArialMT-52" d="M 503 0 
L 503 4581 
L 2534 4581 
Q 3147 4581 3465 4457 
Q 3784 4334 3975 4021 
Q 4166 3709 4166 3331 
Q 4166 2844 3850 2509 
Q 3534 2175 2875 2084 
Q 3116 1969 3241 1856 
Q 3506 1613 3744 1247 
L 4541 0 
L 3778 0 
L 3172 953 
Q 2906 1366 2734 1584 
Q 2563 1803 2427 1890 
Q 2291 1978 2150 2013 
Q 2047 2034 1813 2034 
L 1109 2034 
L 1109 0 
L 503 0 
z
M 1109 2559 
L 2413 2559 
Q 2828 2559 3062 2645 
Q 3297 2731 3419 2920 
Q 3541 3109 3541 3331 
Q 3541 3656 3305 3865 
Q 3069 4075 2559 4075 
L 1109 4075 
L 1109 2559 
z
" transform="scale(0.015625)"/>
       <path id="ArialMT-6c" d="M 409 0 
L 409 4581 
L 972 4581 
L 972 0 
L 409 0 
z
" transform="scale(0.015625)"/>
      </defs>
      <use xlink:href="#ArialMT-52"/>
      <use xlink:href="#ArialMT-65" x="72.216797"/>
      <use xlink:href="#ArialMT-61" x="127.832031"/>
      <use xlink:href="#ArialMT-6c" x="183.447266"/>
     </g>
    </g>
    <g id="line2d_17">
     <path d="M 439.15625 78.643125 
L 449.15625 78.643125 
L 459.15625 78.643125 
" style="fill: none; stroke: #ff7f0e; stroke-width: 1.5; stroke-linecap: round"/>
    </g>
    <g id="text_18">
     <!-- Predicted -->
     <g style="fill: #262626" transform="translate(467.15625 82.143125) scale(0.1 -0.1)">
      <use xlink:href="#ArialMT-50"/>
      <use xlink:href="#ArialMT-72" x="66.699219"/>
      <use xlink:href="#ArialMT-65" x="100"/>
      <use xlink:href="#ArialMT-64" x="155.615234"/>
      <use xlink:href="#ArialMT-69" x="211.230469"/>
      <use xlink:href="#ArialMT-63" x="233.447266"/>
      <use xlink:href="#ArialMT-74" x="283.447266"/>
      <use xlink:href="#ArialMT-65" x="311.230469"/>
      <use xlink:href="#ArialMT-64" x="366.845703"/>
     </g>
    </g>
   </g>
  </g>
 </g>
 <defs>
  <clipPath id="p78b2937249">
   <rect x="72" y="51.84" width="446.4" height="332.64"/>
  </clipPath>
 </defs>
</svg>
