<?xml version="1.0" encoding="utf-8" standalone="no"?>
<!DOCTYPE svg PUBLIC "-//W3C//DTD SVG 1.1//EN"
  "http://www.w3.org/Graphics/SVG/1.1/DTD/svg11.dtd">
<svg xmlns:xlink="http://www.w3.org/1999/xlink" width="576pt" height="432pt" viewBox="0 0 576 432" xmlns="http://www.w3.org/2000/svg" version="1.1">
 <metadata>
  <rdf:RDF xmlns:dc="http://purl.org/dc/elements/1.1/" xmlns:cc="http://creativecommons.org/ns#" xmlns:rdf="http://www.w3.org/1999/02/22-rdf-syntax-ns#">
   <cc:Work>
    <dc:type rdf:resource="http://purl.org/dc/dcmitype/StillImage"/>
    <dc:date>2023-11-17T05:05:02.252514</dc:date>
    <dc:format>image/svg+xml</dc:format>
    <dc:creator>
     <cc:Agent>
      <dc:title>Matplotlib v3.8.0, https://matplotlib.org/</dc:title>
     </cc:Agent>
    </dc:creator>
   </cc:Work>
  </rdf:RDF>
 </metadata>
 <defs>
  <style type="text/css">*{stroke-linejoin: round; stroke-linecap: butt}</style>
 </defs>
 <g id="figure_1">
  <g id="patch_1">
   <path d="M 0 432 
L 576 432 
L 576 0 
L 0 0 
z
" style="fill: #ffffff"/>
  </g>
  <g id="axes_1">
   <g id="patch_2">
    <path d="M 72 384.48 
L 518.4 384.48 
L 518.4 51.84 
L 72 51.84 
z
" style="fill: #eaeaf2"/>
   </g>
   <g id="matplotlib.axis_1">
    <g id="xtick_1">
     <g id="line2d_1">
      <path d="M 92.290909 384.48 
L 92.290909 51.84 
" clip-path="url(#p74c1fc5091)" style="fill: none; stroke: #ffffff; stroke-width: 0.8; stroke-linecap: round"/>
     </g>
     <g id="text_1">
      <!-- 0 -->
      <g style="fill: #262626" transform="translate(89.51044 398.637812) scale(0.1 -0.1)">
       <defs>
        <path id="ArialMT-30" d="M 266 2259 
Q 266 3072 433 3567 
Q 600 4063 929 4331 
Q 1259 4600 1759 4600 
Q 2128 4600 2406 4451 
Q 2684 4303 2865 4023 
Q 3047 3744 3150 3342 
Q 3253 2941 3253 2259 
Q 3253 1453 3087 958 
Q 2922 463 2592 192 
Q 2263 -78 1759 -78 
Q 1097 -78 719 397 
Q 266 969 266 2259 
z
M 844 2259 
Q 844 1131 1108 757 
Q 1372 384 1759 384 
Q 2147 384 2411 759 
Q 2675 1134 2675 2259 
Q 2675 3391 2411 3762 
Q 2147 4134 1753 4134 
Q 1366 4134 1134 3806 
Q 844 3388 844 2259 
z
" transform="scale(0.015625)"/>
       </defs>
       <use xlink:href="#ArialMT-30"/>
      </g>
     </g>
    </g>
    <g id="xtick_2">
     <g id="line2d_2">
      <path d="M 185.049351 384.48 
L 185.049351 51.84 
" clip-path="url(#p74c1fc5091)" style="fill: none; stroke: #ffffff; stroke-width: 0.8; stroke-linecap: round"/>
     </g>
     <g id="text_2">
      <!-- 200 -->
      <g style="fill: #262626" transform="translate(176.707944 398.637812) scale(0.1 -0.1)">
       <defs>
        <path id="ArialMT-32" d="M 3222 541 
L 3222 0 
L 194 0 
Q 188 203 259 391 
Q 375 700 629 1000 
Q 884 1300 1366 1694 
Q 2113 2306 2375 2664 
Q 2638 3022 2638 3341 
Q 2638 3675 2398 3904 
Q 2159 4134 1775 4134 
Q 1369 4134 1125 3890 
Q 881 3647 878 3216 
L 300 3275 
Q 359 3922 746 4261 
Q 1134 4600 1788 4600 
Q 2447 4600 2831 4234 
Q 3216 3869 3216 3328 
Q 3216 3053 3103 2787 
Q 2991 2522 2730 2228 
Q 2469 1934 1863 1422 
Q 1356 997 1212 845 
Q 1069 694 975 541 
L 3222 541 
z
" transform="scale(0.015625)"/>
       </defs>
       <use xlink:href="#ArialMT-32"/>
       <use xlink:href="#ArialMT-30" x="55.615234"/>
       <use xlink:href="#ArialMT-30" x="111.230469"/>
      </g>
     </g>
    </g>
    <g id="xtick_3">
     <g id="line2d_3">
      <path d="M 277.807792 384.48 
L 277.807792 51.84 
" clip-path="url(#p74c1fc5091)" style="fill: none; stroke: #ffffff; stroke-width: 0.8; stroke-linecap: round"/>
     </g>
     <g id="text_3">
      <!-- 400 -->
      <g style="fill: #262626" transform="translate(269.466386 398.637812) scale(0.1 -0.1)">
       <defs>
        <path id="ArialMT-34" d="M 2069 0 
L 2069 1097 
L 81 1097 
L 81 1613 
L 2172 4581 
L 2631 4581 
L 2631 1613 
L 3250 1613 
L 3250 1097 
L 2631 1097 
L 2631 0 
L 2069 0 
z
M 2069 1613 
L 2069 3678 
L 634 1613 
L 2069 1613 
z
" transform="scale(0.015625)"/>
       </defs>
       <use xlink:href="#ArialMT-34"/>
       <use xlink:href="#ArialMT-30" x="55.615234"/>
       <use xlink:href="#ArialMT-30" x="111.230469"/>
      </g>
     </g>
    </g>
    <g id="xtick_4">
     <g id="line2d_4">
      <path d="M 370.566234 384.48 
L 370.566234 51.84 
" clip-path="url(#p74c1fc5091)" style="fill: none; stroke: #ffffff; stroke-width: 0.8; stroke-linecap: round"/>
     </g>
     <g id="text_4">
      <!-- 600 -->
      <g style="fill: #262626" transform="translate(362.224828 398.637812) scale(0.1 -0.1)">
       <defs>
        <path id="ArialMT-36" d="M 3184 3459 
L 2625 3416 
Q 2550 3747 2413 3897 
Q 2184 4138 1850 4138 
Q 1581 4138 1378 3988 
Q 1113 3794 959 3422 
Q 806 3050 800 2363 
Q 1003 2672 1297 2822 
Q 1591 2972 1913 2972 
Q 2475 2972 2870 2558 
Q 3266 2144 3266 1488 
Q 3266 1056 3080 686 
Q 2894 316 2569 119 
Q 2244 -78 1831 -78 
Q 1128 -78 684 439 
Q 241 956 241 2144 
Q 241 3472 731 4075 
Q 1159 4600 1884 4600 
Q 2425 4600 2770 4297 
Q 3116 3994 3184 3459 
z
M 888 1484 
Q 888 1194 1011 928 
Q 1134 663 1356 523 
Q 1578 384 1822 384 
Q 2178 384 2434 671 
Q 2691 959 2691 1453 
Q 2691 1928 2437 2201 
Q 2184 2475 1800 2475 
Q 1419 2475 1153 2201 
Q 888 1928 888 1484 
z
" transform="scale(0.015625)"/>
       </defs>
       <use xlink:href="#ArialMT-36"/>
       <use xlink:href="#ArialMT-30" x="55.615234"/>
       <use xlink:href="#ArialMT-30" x="111.230469"/>
      </g>
     </g>
    </g>
    <g id="xtick_5">
     <g id="line2d_5">
      <path d="M 463.324675 384.48 
L 463.324675 51.84 
" clip-path="url(#p74c1fc5091)" style="fill: none; stroke: #ffffff; stroke-width: 0.8; stroke-linecap: round"/>
     </g>
     <g id="text_5">
      <!-- 800 -->
      <g style="fill: #262626" transform="translate(454.983269 398.637812) scale(0.1 -0.1)">
       <defs>
        <path id="ArialMT-38" d="M 1131 2484 
Q 781 2613 612 2850 
Q 444 3088 444 3419 
Q 444 3919 803 4259 
Q 1163 4600 1759 4600 
Q 2359 4600 2725 4251 
Q 3091 3903 3091 3403 
Q 3091 3084 2923 2848 
Q 2756 2613 2416 2484 
Q 2838 2347 3058 2040 
Q 3278 1734 3278 1309 
Q 3278 722 2862 322 
Q 2447 -78 1769 -78 
Q 1091 -78 675 323 
Q 259 725 259 1325 
Q 259 1772 486 2073 
Q 713 2375 1131 2484 
z
M 1019 3438 
Q 1019 3113 1228 2906 
Q 1438 2700 1772 2700 
Q 2097 2700 2305 2904 
Q 2513 3109 2513 3406 
Q 2513 3716 2298 3927 
Q 2084 4138 1766 4138 
Q 1444 4138 1231 3931 
Q 1019 3725 1019 3438 
z
M 838 1322 
Q 838 1081 952 856 
Q 1066 631 1291 507 
Q 1516 384 1775 384 
Q 2178 384 2440 643 
Q 2703 903 2703 1303 
Q 2703 1709 2433 1975 
Q 2163 2241 1756 2241 
Q 1359 2241 1098 1978 
Q 838 1716 838 1322 
z
" transform="scale(0.015625)"/>
       </defs>
       <use xlink:href="#ArialMT-38"/>
       <use xlink:href="#ArialMT-30" x="55.615234"/>
       <use xlink:href="#ArialMT-30" x="111.230469"/>
      </g>
     </g>
    </g>
    <g id="text_6">
     <!-- Days -->
     <g style="fill: #262626" transform="translate(283.808594 411.783125) scale(0.1 -0.1)">
      <defs>
       <path id="ArialMT-44" d="M 494 0 
L 494 4581 
L 2072 4581 
Q 2606 4581 2888 4516 
Q 3281 4425 3559 4188 
Q 3922 3881 4101 3404 
Q 4281 2928 4281 2316 
Q 4281 1794 4159 1391 
Q 4038 988 3847 723 
Q 3656 459 3429 307 
Q 3203 156 2883 78 
Q 2563 0 2147 0 
L 494 0 
z
M 1100 541 
L 2078 541 
Q 2531 541 2789 625 
Q 3047 709 3200 863 
Q 3416 1078 3536 1442 
Q 3656 1806 3656 2325 
Q 3656 3044 3420 3430 
Q 3184 3816 2847 3947 
Q 2603 4041 2063 4041 
L 1100 4041 
L 1100 541 
z
" transform="scale(0.015625)"/>
       <path id="ArialMT-61" d="M 2588 409 
Q 2275 144 1986 34 
Q 1697 -75 1366 -75 
Q 819 -75 525 192 
Q 231 459 231 875 
Q 231 1119 342 1320 
Q 453 1522 633 1644 
Q 813 1766 1038 1828 
Q 1203 1872 1538 1913 
Q 2219 1994 2541 2106 
Q 2544 2222 2544 2253 
Q 2544 2597 2384 2738 
Q 2169 2928 1744 2928 
Q 1347 2928 1158 2789 
Q 969 2650 878 2297 
L 328 2372 
Q 403 2725 575 2942 
Q 747 3159 1072 3276 
Q 1397 3394 1825 3394 
Q 2250 3394 2515 3294 
Q 2781 3194 2906 3042 
Q 3031 2891 3081 2659 
Q 3109 2516 3109 2141 
L 3109 1391 
Q 3109 606 3145 398 
Q 3181 191 3288 0 
L 2700 0 
Q 2613 175 2588 409 
z
M 2541 1666 
Q 2234 1541 1622 1453 
Q 1275 1403 1131 1340 
Q 988 1278 909 1158 
Q 831 1038 831 891 
Q 831 666 1001 516 
Q 1172 366 1500 366 
Q 1825 366 2078 508 
Q 2331 650 2450 897 
Q 2541 1088 2541 1459 
L 2541 1666 
z
" transform="scale(0.015625)"/>
       <path id="ArialMT-79" d="M 397 -1278 
L 334 -750 
Q 519 -800 656 -800 
Q 844 -800 956 -737 
Q 1069 -675 1141 -563 
Q 1194 -478 1313 -144 
Q 1328 -97 1363 -6 
L 103 3319 
L 709 3319 
L 1400 1397 
Q 1534 1031 1641 628 
Q 1738 1016 1872 1384 
L 2581 3319 
L 3144 3319 
L 1881 -56 
Q 1678 -603 1566 -809 
Q 1416 -1088 1222 -1217 
Q 1028 -1347 759 -1347 
Q 597 -1347 397 -1278 
z
" transform="scale(0.015625)"/>
       <path id="ArialMT-73" d="M 197 991 
L 753 1078 
Q 800 744 1014 566 
Q 1228 388 1613 388 
Q 2000 388 2187 545 
Q 2375 703 2375 916 
Q 2375 1106 2209 1216 
Q 2094 1291 1634 1406 
Q 1016 1563 777 1677 
Q 538 1791 414 1992 
Q 291 2194 291 2438 
Q 291 2659 392 2848 
Q 494 3038 669 3163 
Q 800 3259 1026 3326 
Q 1253 3394 1513 3394 
Q 1903 3394 2198 3281 
Q 2494 3169 2634 2976 
Q 2775 2784 2828 2463 
L 2278 2388 
Q 2241 2644 2061 2787 
Q 1881 2931 1553 2931 
Q 1166 2931 1000 2803 
Q 834 2675 834 2503 
Q 834 2394 903 2306 
Q 972 2216 1119 2156 
Q 1203 2125 1616 2013 
Q 2213 1853 2448 1751 
Q 2684 1650 2818 1456 
Q 2953 1263 2953 975 
Q 2953 694 2789 445 
Q 2625 197 2315 61 
Q 2006 -75 1616 -75 
Q 969 -75 630 194 
Q 291 463 197 991 
z
" transform="scale(0.015625)"/>
      </defs>
      <use xlink:href="#ArialMT-44"/>
      <use xlink:href="#ArialMT-61" x="72.216797"/>
      <use xlink:href="#ArialMT-79" x="127.832031"/>
      <use xlink:href="#ArialMT-73" x="177.832031"/>
     </g>
    </g>
   </g>
   <g id="matplotlib.axis_2">
    <g id="ytick_1">
     <g id="line2d_6">
      <path d="M 72 347.878033 
L 518.4 347.878033 
" clip-path="url(#p74c1fc5091)" style="fill: none; stroke: #ffffff; stroke-width: 0.8; stroke-linecap: round"/>
     </g>
     <g id="text_7">
      <!-- 10 -->
      <g style="fill: #262626" transform="translate(53.878125 351.456939) scale(0.1 -0.1)">
       <defs>
        <path id="ArialMT-31" d="M 2384 0 
L 1822 0 
L 1822 3584 
Q 1619 3391 1289 3197 
Q 959 3003 697 2906 
L 697 3450 
Q 1169 3672 1522 3987 
Q 1875 4303 2022 4600 
L 2384 4600 
L 2384 0 
z
" transform="scale(0.015625)"/>
       </defs>
       <use xlink:href="#ArialMT-31"/>
       <use xlink:href="#ArialMT-30" x="55.615234"/>
      </g>
     </g>
    </g>
    <g id="ytick_2">
     <g id="line2d_7">
      <path d="M 72 306.566557 
L 518.4 306.566557 
" clip-path="url(#p74c1fc5091)" style="fill: none; stroke: #ffffff; stroke-width: 0.8; stroke-linecap: round"/>
     </g>
     <g id="text_8">
      <!-- 15 -->
      <g style="fill: #262626" transform="translate(53.878125 310.145464) scale(0.1 -0.1)">
       <defs>
        <path id="ArialMT-35" d="M 266 1200 
L 856 1250 
Q 922 819 1161 601 
Q 1400 384 1738 384 
Q 2144 384 2425 690 
Q 2706 997 2706 1503 
Q 2706 1984 2436 2262 
Q 2166 2541 1728 2541 
Q 1456 2541 1237 2417 
Q 1019 2294 894 2097 
L 366 2166 
L 809 4519 
L 3088 4519 
L 3088 3981 
L 1259 3981 
L 1013 2750 
Q 1425 3038 1878 3038 
Q 2478 3038 2890 2622 
Q 3303 2206 3303 1553 
Q 3303 931 2941 478 
Q 2500 -78 1738 -78 
Q 1113 -78 717 272 
Q 322 622 266 1200 
z
" transform="scale(0.015625)"/>
       </defs>
       <use xlink:href="#ArialMT-31"/>
       <use xlink:href="#ArialMT-35" x="55.615234"/>
      </g>
     </g>
    </g>
    <g id="ytick_3">
     <g id="line2d_8">
      <path d="M 72 265.255082 
L 518.4 265.255082 
" clip-path="url(#p74c1fc5091)" style="fill: none; stroke: #ffffff; stroke-width: 0.8; stroke-linecap: round"/>
     </g>
     <g id="text_9">
      <!-- 20 -->
      <g style="fill: #262626" transform="translate(53.878125 268.833988) scale(0.1 -0.1)">
       <use xlink:href="#ArialMT-32"/>
       <use xlink:href="#ArialMT-30" x="55.615234"/>
      </g>
     </g>
    </g>
    <g id="ytick_4">
     <g id="line2d_9">
      <path d="M 72 223.943607 
L 518.4 223.943607 
" clip-path="url(#p74c1fc5091)" style="fill: none; stroke: #ffffff; stroke-width: 0.8; stroke-linecap: round"/>
     </g>
     <g id="text_10">
      <!-- 25 -->
      <g style="fill: #262626" transform="translate(53.878125 227.522513) scale(0.1 -0.1)">
       <use xlink:href="#ArialMT-32"/>
       <use xlink:href="#ArialMT-35" x="55.615234"/>
      </g>
     </g>
    </g>
    <g id="ytick_5">
     <g id="line2d_10">
      <path d="M 72 182.632131 
L 518.4 182.632131 
" clip-path="url(#p74c1fc5091)" style="fill: none; stroke: #ffffff; stroke-width: 0.8; stroke-linecap: round"/>
     </g>
     <g id="text_11">
      <!-- 30 -->
      <g style="fill: #262626" transform="translate(53.878125 186.211037) scale(0.1 -0.1)">
       <defs>
        <path id="ArialMT-33" d="M 269 1209 
L 831 1284 
Q 928 806 1161 595 
Q 1394 384 1728 384 
Q 2125 384 2398 659 
Q 2672 934 2672 1341 
Q 2672 1728 2419 1979 
Q 2166 2231 1775 2231 
Q 1616 2231 1378 2169 
L 1441 2663 
Q 1497 2656 1531 2656 
Q 1891 2656 2178 2843 
Q 2466 3031 2466 3422 
Q 2466 3731 2256 3934 
Q 2047 4138 1716 4138 
Q 1388 4138 1169 3931 
Q 950 3725 888 3313 
L 325 3413 
Q 428 3978 793 4289 
Q 1159 4600 1703 4600 
Q 2078 4600 2393 4439 
Q 2709 4278 2876 4000 
Q 3044 3722 3044 3409 
Q 3044 3113 2884 2869 
Q 2725 2625 2413 2481 
Q 2819 2388 3044 2092 
Q 3269 1797 3269 1353 
Q 3269 753 2831 336 
Q 2394 -81 1725 -81 
Q 1122 -81 723 278 
Q 325 638 269 1209 
z
" transform="scale(0.015625)"/>
       </defs>
       <use xlink:href="#ArialMT-33"/>
       <use xlink:href="#ArialMT-30" x="55.615234"/>
      </g>
     </g>
    </g>
    <g id="ytick_6">
     <g id="line2d_11">
      <path d="M 72 141.320656 
L 518.4 141.320656 
" clip-path="url(#p74c1fc5091)" style="fill: none; stroke: #ffffff; stroke-width: 0.8; stroke-linecap: round"/>
     </g>
     <g id="text_12">
      <!-- 35 -->
      <g style="fill: #262626" transform="translate(53.878125 144.899562) scale(0.1 -0.1)">
       <use xlink:href="#ArialMT-33"/>
       <use xlink:href="#ArialMT-35" x="55.615234"/>
      </g>
     </g>
    </g>
    <g id="ytick_7">
     <g id="line2d_12">
      <path d="M 72 100.00918 
L 518.4 100.00918 
" clip-path="url(#p74c1fc5091)" style="fill: none; stroke: #ffffff; stroke-width: 0.8; stroke-linecap: round"/>
     </g>
     <g id="text_13">
      <!-- 40 -->
      <g style="fill: #262626" transform="translate(53.878125 103.588087) scale(0.1 -0.1)">
       <use xlink:href="#ArialMT-34"/>
       <use xlink:href="#ArialMT-30" x="55.615234"/>
      </g>
     </g>
    </g>
    <g id="ytick_8">
     <g id="line2d_13">
      <path d="M 72 58.697705 
L 518.4 58.697705 
" clip-path="url(#p74c1fc5091)" style="fill: none; stroke: #ffffff; stroke-width: 0.8; stroke-linecap: round"/>
     </g>
     <g id="text_14">
      <!-- 45 -->
      <g style="fill: #262626" transform="translate(53.878125 62.276611) scale(0.1 -0.1)">
       <use xlink:href="#ArialMT-34"/>
       <use xlink:href="#ArialMT-35" x="55.615234"/>
      </g>
     </g>
    </g>
    <g id="text_15">
     <!-- (°C) -->
     <g style="fill: #262626" transform="translate(47.773438 227.099844) rotate(-90) scale(0.1 -0.1)">
      <defs>
       <path id="ArialMT-28" d="M 1497 -1347 
Q 1031 -759 709 28 
Q 388 816 388 1659 
Q 388 2403 628 3084 
Q 909 3875 1497 4659 
L 1900 4659 
Q 1522 4009 1400 3731 
Q 1209 3300 1100 2831 
Q 966 2247 966 1656 
Q 966 153 1900 -1347 
L 1497 -1347 
z
" transform="scale(0.015625)"/>
       <path id="ArialMT-b0" d="M 400 3794 
Q 400 4153 654 4406 
Q 909 4659 1266 4659 
Q 1628 4659 1881 4406 
Q 2134 4153 2134 3794 
Q 2134 3434 1879 3179 
Q 1625 2925 1266 2925 
Q 909 2925 654 3178 
Q 400 3431 400 3794 
z
M 741 3794 
Q 741 3575 895 3420 
Q 1050 3266 1269 3266 
Q 1484 3266 1639 3420 
Q 1794 3575 1794 3794 
Q 1794 4013 1639 4167 
Q 1484 4322 1269 4322 
Q 1050 4322 895 4167 
Q 741 4013 741 3794 
z
" transform="scale(0.015625)"/>
       <path id="ArialMT-43" d="M 3763 1606 
L 4369 1453 
Q 4178 706 3683 314 
Q 3188 -78 2472 -78 
Q 1731 -78 1267 223 
Q 803 525 561 1097 
Q 319 1669 319 2325 
Q 319 3041 592 3573 
Q 866 4106 1370 4382 
Q 1875 4659 2481 4659 
Q 3169 4659 3637 4309 
Q 4106 3959 4291 3325 
L 3694 3184 
Q 3534 3684 3231 3912 
Q 2928 4141 2469 4141 
Q 1941 4141 1586 3887 
Q 1231 3634 1087 3207 
Q 944 2781 944 2328 
Q 944 1744 1114 1308 
Q 1284 872 1643 656 
Q 2003 441 2422 441 
Q 2931 441 3284 734 
Q 3638 1028 3763 1606 
z
" transform="scale(0.015625)"/>
       <path id="ArialMT-29" d="M 791 -1347 
L 388 -1347 
Q 1322 153 1322 1656 
Q 1322 2244 1188 2822 
Q 1081 3291 891 3722 
Q 769 4003 388 4659 
L 791 4659 
Q 1378 3875 1659 3084 
Q 1900 2403 1900 1659 
Q 1900 816 1576 28 
Q 1253 -759 791 -1347 
z
" transform="scale(0.015625)"/>
      </defs>
      <use xlink:href="#ArialMT-28"/>
      <use xlink:href="#ArialMT-b0" x="33.300781"/>
      <use xlink:href="#ArialMT-43" x="73.291016"/>
      <use xlink:href="#ArialMT-29" x="145.507812"/>
     </g>
    </g>
   </g>
   <g id="line2d_14">
    <path d="M 92.290909 145.451803 
L 92.754701 157.019016 
L 93.218494 174.369836 
L 93.682286 176.022295 
L 94.146078 156.192787 
L 94.60987 193.373115 
L 95.073662 155.366557 
L 95.537455 137.189508 
L 96.001247 191.720656 
L 96.465039 180.979672 
L 96.928831 149.582951 
L 97.392623 140.494426 
L 97.856416 149.582951 
L 98.320208 190.068197 
L 98.784 201.63541 
L 99.247792 190.894426 
L 99.711584 185.11082 
L 100.639169 166.93377 
L 101.102961 167.76 
L 101.566753 159.497705 
L 102.030545 161.976393 
L 102.494338 161.976393 
L 102.95813 165.281311 
L 103.421922 176.848525 
L 103.885714 133.88459 
L 104.349506 163.628852 
L 104.813299 183.458361 
L 105.277091 178.500984 
L 105.740883 154.540328 
L 106.204675 170.238689 
L 106.668468 209.897705 
L 107.13226 320.612459 
L 107.596052 280.953443 
L 108.059844 275.996066 
L 108.523636 237.163279 
L 108.987429 249.556721 
L 109.451221 271.864918 
L 109.915013 276.822295 
L 110.378805 289.215738 
L 110.842597 240.468197 
L 111.30639 211.550164 
L 111.770182 218.98623 
L 112.233974 195.851803 
L 112.697766 192.546885 
L 113.161558 185.937049 
L 113.625351 160.323934 
L 114.089143 152.887869 
L 114.552935 223.117377 
L 115.016727 243.773115 
L 115.480519 199.982951 
L 115.944312 193.373115 
L 116.408104 179.327213 
L 116.871896 141.320656 
L 117.335688 146.278033 
L 117.799481 195.025574 
L 118.263273 223.117377 
L 118.727065 337.137049 
L 119.190857 229.727213 
L 119.654649 268.56 
L 120.118442 296.651803 
L 120.582234 271.038689 
L 121.046026 266.081311 
L 121.509818 242.946885 
L 121.97361 317.307541 
L 122.437403 286.737049 
L 122.901195 201.63541 
L 123.364987 208.245246 
L 123.828779 171.891148 
L 124.292571 263.602623 
L 124.756364 261.950164 
L 125.220156 275.169836 
L 125.683948 190.894426 
L 126.14774 174.369836 
L 126.611532 185.937049 
L 127.075325 171.064918 
L 127.539117 208.245246 
L 128.002909 285.08459 
L 128.466701 320.612459 
L 128.930494 250.382951 
L 129.858078 299.130492 
L 130.32187 290.041967 
L 130.785662 273.517377 
L 131.249455 281.779672 
L 131.713247 230.553443 
L 132.177039 192.546885 
L 132.640831 260.297705 
L 133.104623 239.641967 
L 133.568416 253.687869 
L 134.032208 240.468197 
L 134.496 261.950164 
L 134.959792 198.330492 
L 135.423584 220.638689 
L 135.887377 231.379672 
L 136.351169 169.412459 
L 136.814961 186.763279 
L 137.278753 238.815738 
L 137.742545 237.163279 
L 138.206338 210.723934 
L 138.67013 211.550164 
L 139.133922 233.032131 
L 139.597714 305.740328 
L 140.061506 358.619016 
L 140.525299 275.996066 
L 140.989091 280.953443 
L 141.452883 334.658361 
L 141.916675 236.337049 
L 142.380468 225.596066 
L 142.84426 218.98623 
L 143.308052 227.248525 
L 143.771844 182.632131 
L 144.235636 195.025574 
L 144.699429 263.602623 
L 145.163221 309.045246 
L 146.090805 204.114098 
L 146.554597 281.779672 
L 147.01839 335.48459 
L 147.482182 326.396066 
L 147.945974 276.822295 
L 148.409766 246.251803 
L 148.873558 200.80918 
L 149.801143 259.471475 
L 150.264935 236.337049 
L 150.728727 188.415738 
L 151.192519 267.73377 
L 151.656312 249.556721 
L 152.120104 305.740328 
L 152.583896 308.219016 
L 153.047688 230.553443 
L 153.511481 194.199344 
L 153.975273 282.605902 
L 154.439065 294.999344 
L 154.902857 237.163279 
L 155.366649 241.294426 
L 155.830442 227.248525 
L 156.294234 204.940328 
L 156.758026 200.80918 
L 157.221818 192.546885 
L 157.68561 168.58623 
L 158.149403 157.845246 
L 158.613195 282.605902 
L 159.076987 369.36 
L 159.540779 322.264918 
L 160.004571 228.900984 
L 160.468364 266.907541 
L 160.932156 234.68459 
L 161.85974 115.707541 
L 162.323532 114.055082 
L 163.251117 257.819016 
L 163.714909 276.822295 
L 165.570078 191.720656 
L 166.03387 233.032131 
L 166.497662 239.641967 
L 166.961455 193.373115 
L 167.425247 176.848525 
L 167.889039 198.330492 
L 168.352831 181.805902 
L 168.816623 177.674754 
L 169.280416 157.845246 
L 169.744208 315.655082 
L 170.208 363.576393 
L 170.671792 344.573115 
L 171.135584 204.940328 
L 171.599377 176.022295 
L 172.063169 123.143607 
L 172.526961 167.76 
L 172.990753 199.156721 
L 173.454545 185.11082 
L 173.918338 142.146885 
L 174.38213 172.717377 
L 174.845922 262.776393 
L 175.309714 285.08459 
L 175.773506 266.907541 
L 176.237299 330.527213 
L 176.701091 287.563279 
L 177.164883 261.950164 
L 177.628675 285.08459 
L 178.092468 248.730492 
L 178.55626 195.851803 
L 179.020052 183.458361 
L 179.483844 181.805902 
L 179.947636 239.641967 
L 180.411429 199.982951 
L 180.875221 208.245246 
L 181.339013 204.940328 
L 181.802805 171.891148 
L 182.266597 301.60918 
L 182.73039 275.169836 
L 183.194182 278.474754 
L 183.657974 226.422295 
L 184.121766 141.320656 
L 184.585558 177.674754 
L 185.049351 136.363279 
L 185.513143 157.845246 
L 186.440727 130.579672 
L 186.904519 107.445246 
L 187.832104 170.238689 
L 188.295896 128.100984 
L 188.759688 209.897705 
L 189.223481 181.805902 
L 189.687273 180.153443 
L 190.151065 143.799344 
L 190.614857 144.625574 
L 191.078649 148.756721 
L 191.542442 157.845246 
L 192.006234 151.23541 
L 192.470026 188.415738 
L 192.933818 210.723934 
L 193.39761 147.930492 
L 193.861403 119.012459 
L 194.325195 140.494426 
L 194.788987 147.930492 
L 195.252779 157.845246 
L 195.716571 185.937049 
L 196.180364 156.192787 
L 196.644156 112.402623 
L 197.107948 149.582951 
L 197.57174 200.80918 
L 198.035532 175.196066 
L 198.499325 185.937049 
L 198.963117 185.11082 
L 199.426909 164.455082 
L 199.890701 89.268197 
L 200.354494 130.579672 
L 200.818286 218.98623 
L 201.282078 204.114098 
L 201.74587 195.851803 
L 202.209662 190.068197 
L 202.673455 199.982951 
L 203.137247 189.241967 
L 203.601039 187.589508 
L 204.064831 162.802623 
L 204.528623 109.097705 
L 204.992416 152.061639 
L 205.456208 131.405902 
L 205.92 119.838689 
L 206.383792 129.753443 
L 206.847584 132.232131 
L 207.311377 146.278033 
L 207.775169 140.494426 
L 208.238961 143.799344 
L 208.702753 138.841967 
L 209.166545 127.274754 
L 209.630338 125.622295 
L 210.09413 177.674754 
L 210.557922 142.146885 
L 211.021714 149.582951 
L 211.485506 137.189508 
L 211.949299 133.88459 
L 212.413091 140.494426 
L 212.876883 110.750164 
L 213.340675 108.271475 
L 213.804468 83.48459 
L 214.26826 66.96 
L 214.732052 76.874754 
L 215.195844 129.753443 
L 215.659636 162.802623 
L 216.123429 150.40918 
L 217.051013 133.058361 
L 217.514805 130.579672 
L 217.978597 120.664918 
L 218.44239 131.405902 
L 218.906182 120.664918 
L 219.369974 115.707541 
L 219.833766 97.530492 
L 220.297558 136.363279 
L 221.225143 102.487869 
L 221.688935 123.969836 
L 222.152727 171.064918 
L 222.616519 147.930492 
L 223.080312 142.973115 
L 223.544104 139.668197 
L 224.007896 138.015738 
L 224.471688 128.100984 
L 224.935481 132.232131 
L 225.399273 148.756721 
L 225.863065 135.537049 
L 226.326857 127.274754 
L 226.790649 115.707541 
L 227.254442 126.448525 
L 227.718234 128.100984 
L 228.182026 94.225574 
L 228.645818 91.746885 
L 229.10961 88.441967 
L 229.573403 97.530492 
L 230.037195 117.36 
L 230.500987 113.228852 
L 230.964779 102.487869 
L 231.892364 117.36 
L 232.356156 113.228852 
L 232.819948 117.36 
L 233.28374 112.402623 
L 233.747532 114.055082 
L 234.211325 104.140328 
L 234.675117 117.36 
L 235.138909 127.274754 
L 235.602701 171.064918 
L 236.066494 136.363279 
L 236.530286 140.494426 
L 236.994078 138.015738 
L 237.45787 115.707541 
L 237.921662 121.491148 
L 238.385455 113.228852 
L 238.849247 114.055082 
L 239.313039 109.923934 
L 240.240623 104.966557 
L 240.704416 99.182951 
L 241.168208 97.530492 
L 241.632 98.356721 
L 242.095792 109.097705 
L 242.559584 87.615738 
L 243.487169 98.356721 
L 243.950961 100.00918 
L 244.414753 84.31082 
L 244.878545 89.268197 
L 245.342338 99.182951 
L 245.80613 90.094426 
L 246.269922 90.094426 
L 246.733714 100.83541 
L 247.197506 97.530492 
L 247.661299 108.271475 
L 248.125091 109.097705 
L 248.588883 119.012459 
L 249.052675 110.750164 
L 249.516468 95.051803 
L 249.98026 103.314098 
L 250.444052 106.619016 
L 250.907844 100.83541 
L 251.371636 109.097705 
L 251.835429 140.494426 
L 252.299221 127.274754 
L 252.763013 129.753443 
L 253.226805 140.494426 
L 253.690597 133.88459 
L 254.15439 124.796066 
L 254.618182 146.278033 
L 255.081974 223.943607 
L 255.545766 260.297705 
L 256.009558 157.019016 
L 256.473351 154.540328 
L 256.937143 150.40918 
L 257.400935 161.976393 
L 257.864727 152.061639 
L 258.328519 151.23541 
L 259.256104 138.015738 
L 259.719896 133.88459 
L 260.183688 145.451803 
L 260.647481 152.887869 
L 261.111273 152.887869 
L 261.575065 154.540328 
L 262.038857 148.756721 
L 262.502649 150.40918 
L 262.966442 142.146885 
L 263.430234 142.973115 
L 263.894026 146.278033 
L 264.357818 146.278033 
L 264.82161 154.540328 
L 265.285403 166.93377 
L 265.749195 149.582951 
L 266.212987 161.976393 
L 266.676779 157.019016 
L 267.140571 153.714098 
L 267.604364 135.537049 
L 268.068156 128.927213 
L 268.531948 133.058361 
L 268.99574 166.93377 
L 269.459532 148.756721 
L 269.923325 140.494426 
L 270.387117 175.196066 
L 270.850909 236.337049 
L 271.314701 180.153443 
L 272.242286 145.451803 
L 272.706078 195.851803 
L 273.633662 167.76 
L 274.097455 119.012459 
L 274.561247 167.76 
L 275.025039 143.799344 
L 275.488831 182.632131 
L 275.952623 172.717377 
L 276.416416 176.848525 
L 276.880208 222.291148 
L 277.344 221.464918 
L 277.807792 176.848525 
L 278.271584 190.068197 
L 278.735377 186.763279 
L 279.199169 202.461639 
L 279.662961 273.517377 
L 280.590545 226.422295 
L 281.054338 245.425574 
L 281.51813 176.848525 
L 281.981922 172.717377 
L 282.445714 199.982951 
L 282.909506 156.192787 
L 283.373299 283.432131 
L 283.837091 280.953443 
L 284.300883 266.907541 
L 284.764675 185.11082 
L 285.228468 342.094426 
L 285.69226 348.704262 
L 286.156052 239.641967 
L 286.619844 254.514098 
L 287.083636 249.556721 
L 287.547429 186.763279 
L 288.011221 202.461639 
L 288.475013 187.589508 
L 288.938805 209.071475 
L 289.402597 179.327213 
L 289.86639 187.589508 
L 290.330182 262.776393 
L 291.257766 152.887869 
L 291.721558 145.451803 
L 292.185351 218.16 
L 292.649143 228.900984 
L 293.112935 192.546885 
L 293.576727 128.927213 
L 294.040519 220.638689 
L 294.504312 239.641967 
L 295.431896 182.632131 
L 295.895688 185.11082 
L 296.359481 181.805902 
L 296.823273 218.98623 
L 297.287065 194.199344 
L 297.750857 149.582951 
L 298.214649 251.20918 
L 298.678442 283.432131 
L 299.142234 262.776393 
L 299.606026 161.150164 
L 300.069818 157.845246 
L 300.53361 127.274754 
L 300.997403 139.668197 
L 301.461195 285.08459 
L 301.924987 299.130492 
L 302.388779 285.91082 
L 302.852571 282.605902 
L 303.316364 283.432131 
L 303.780156 218.98623 
L 304.243948 214.028852 
L 304.70774 214.028852 
L 305.171532 186.763279 
L 306.099117 253.687869 
L 306.562909 157.845246 
L 307.026701 225.596066 
L 307.954286 313.176393 
L 308.418078 294.999344 
L 308.88187 218.98623 
L 309.345662 251.20918 
L 309.809455 237.163279 
L 310.273247 214.855082 
L 310.737039 186.763279 
L 311.200831 246.251803 
L 311.664623 256.166557 
L 312.128416 217.33377 
L 312.592208 206.592787 
L 313.056 215.681311 
L 313.519792 242.120656 
L 314.447377 196.678033 
L 314.911169 218.16 
L 315.374961 231.379672 
L 315.838753 254.514098 
L 316.302545 212.376393 
L 316.766338 276.822295 
L 317.693922 317.307541 
L 318.157714 275.996066 
L 318.621506 204.114098 
L 319.085299 246.251803 
L 319.549091 269.38623 
L 320.012883 175.196066 
L 320.476675 185.11082 
L 320.940468 172.717377 
L 321.868052 290.041967 
L 323.259429 233.032131 
L 323.723221 202.461639 
L 324.187013 162.802623 
L 324.650805 265.255082 
L 325.114597 224.769836 
L 325.57839 196.678033 
L 326.042182 192.546885 
L 326.505974 174.369836 
L 326.969766 148.756721 
L 327.433558 230.553443 
L 327.897351 289.215738 
L 328.361143 261.123934 
L 328.824935 316.481311 
L 329.752519 190.068197 
L 330.216312 164.455082 
L 330.680104 159.497705 
L 331.143896 256.992787 
L 331.607688 304.087869 
L 332.071481 325.569836 
L 332.999065 208.245246 
L 333.462857 171.891148 
L 333.926649 161.976393 
L 334.390442 270.212459 
L 334.854234 264.428852 
L 335.318026 220.638689 
L 335.781818 214.855082 
L 336.24561 152.061639 
L 336.709403 110.750164 
L 337.173195 223.117377 
L 337.636987 161.976393 
L 338.100779 214.028852 
L 338.564571 219.812459 
L 339.028364 237.989508 
L 339.492156 239.641967 
L 339.955948 219.812459 
L 340.41974 222.291148 
L 340.883532 179.327213 
L 341.347325 164.455082 
L 341.811117 138.015738 
L 342.274909 143.799344 
L 342.738701 209.071475 
L 343.202494 217.33377 
L 343.666286 166.93377 
L 344.130078 164.455082 
L 344.59387 125.622295 
L 345.057662 213.202623 
L 345.521455 277.648525 
L 346.449039 186.763279 
L 346.912831 110.750164 
L 347.376623 114.055082 
L 347.840416 114.881311 
L 348.304208 96.704262 
L 348.768 130.579672 
L 349.231792 226.422295 
L 350.159377 151.23541 
L 350.623169 197.504262 
L 351.086961 157.019016 
L 351.550753 185.937049 
L 352.478338 264.428852 
L 353.405922 180.153443 
L 353.869714 123.143607 
L 354.333506 119.012459 
L 354.797299 176.022295 
L 355.261091 169.412459 
L 355.724883 114.881311 
L 356.188675 161.976393 
L 356.652468 242.120656 
L 357.11626 286.737049 
L 357.580052 261.950164 
L 358.043844 162.802623 
L 358.507636 177.674754 
L 358.971429 105.792787 
L 359.435221 121.491148 
L 359.899013 142.973115 
L 360.362805 122.317377 
L 360.826597 115.707541 
L 361.29039 100.00918 
L 361.754182 139.668197 
L 362.217974 222.291148 
L 362.681766 161.976393 
L 363.609351 101.661639 
L 364.073143 180.979672 
L 364.536935 143.799344 
L 365.000727 134.71082 
L 365.464519 129.753443 
L 366.392104 106.619016 
L 366.855896 141.320656 
L 367.319688 147.930492 
L 367.783481 126.448525 
L 368.247273 218.16 
L 368.711065 223.943607 
L 369.174857 186.763279 
L 369.638649 160.323934 
L 370.102442 151.23541 
L 370.566234 152.887869 
L 371.493818 141.320656 
L 371.95761 142.973115 
L 372.885195 114.881311 
L 373.348987 137.189508 
L 373.812779 153.714098 
L 374.276571 136.363279 
L 374.740364 144.625574 
L 375.204156 142.973115 
L 375.667948 156.192787 
L 376.13174 186.763279 
L 377.059325 125.622295 
L 377.523117 171.891148 
L 377.986909 173.543607 
L 378.450701 172.717377 
L 378.914494 174.369836 
L 379.378286 174.369836 
L 379.842078 154.540328 
L 380.30587 147.104262 
L 380.769662 148.756721 
L 381.697247 124.796066 
L 382.161039 109.097705 
L 382.624831 109.923934 
L 383.088623 135.537049 
L 383.552416 221.464918 
L 384.016208 164.455082 
L 384.943792 156.192787 
L 385.407584 161.150164 
L 385.871377 157.845246 
L 386.335169 148.756721 
L 386.798961 145.451803 
L 387.262753 149.582951 
L 387.726545 147.930492 
L 388.190338 135.537049 
L 388.65413 126.448525 
L 389.117922 131.405902 
L 389.581714 128.100984 
L 390.045506 154.540328 
L 390.509299 168.58623 
L 390.973091 167.76 
L 391.436883 165.281311 
L 391.900675 135.537049 
L 392.364468 167.76 
L 392.82826 133.058361 
L 393.292052 135.537049 
L 393.755844 127.274754 
L 394.219636 115.707541 
L 394.683429 112.402623 
L 395.147221 115.707541 
L 395.611013 123.969836 
L 396.074805 151.23541 
L 396.538597 109.097705 
L 397.00239 107.445246 
L 397.466182 104.140328 
L 398.393766 90.920656 
L 398.857558 101.661639 
L 399.321351 120.664918 
L 399.785143 107.445246 
L 400.248935 115.707541 
L 401.176519 163.628852 
L 401.640312 137.189508 
L 402.104104 139.668197 
L 402.567896 136.363279 
L 403.495481 105.792787 
L 403.959273 138.841967 
L 404.423065 193.373115 
L 404.886857 215.681311 
L 405.350649 218.98623 
L 405.814442 169.412459 
L 406.278234 160.323934 
L 406.742026 142.973115 
L 407.205818 156.192787 
L 407.66961 130.579672 
L 408.133403 132.232131 
L 408.597195 138.841967 
L 409.060987 139.668197 
L 409.524779 152.061639 
L 409.988571 148.756721 
L 410.916156 138.841967 
L 411.379948 136.363279 
L 411.84374 131.405902 
L 412.307532 132.232131 
L 412.771325 138.015738 
L 413.235117 138.841967 
L 413.698909 128.100984 
L 414.162701 143.799344 
L 415.090286 133.058361 
L 415.554078 110.750164 
L 416.01787 114.055082 
L 416.481662 136.363279 
L 416.945455 131.405902 
L 417.409247 117.36 
L 417.873039 114.055082 
L 418.800623 128.927213 
L 419.264416 119.012459 
L 419.728208 116.53377 
L 420.192 158.671475 
L 420.655792 157.845246 
L 421.119584 128.927213 
L 421.583377 129.753443 
L 422.047169 210.723934 
L 422.510961 223.117377 
L 422.974753 160.323934 
L 423.438545 171.064918 
L 423.902338 178.500984 
L 424.829922 86.789508 
L 425.293714 105.792787 
L 425.757506 104.966557 
L 426.685091 104.966557 
L 427.148883 115.707541 
L 427.612675 106.619016 
L 428.076468 114.055082 
L 428.54026 114.055082 
L 429.004052 111.576393 
L 429.467844 112.402623 
L 429.931636 112.402623 
L 430.395429 119.838689 
L 431.323013 90.094426 
L 432.71439 114.881311 
L 433.178182 119.012459 
L 433.641974 115.707541 
L 434.105766 117.36 
L 434.569558 104.966557 
L 435.033351 97.530492 
L 435.497143 109.097705 
L 435.960935 124.796066 
L 436.424727 119.838689 
L 436.888519 144.625574 
L 437.352312 140.494426 
L 437.816104 129.753443 
L 438.279896 115.707541 
L 438.743688 114.055082 
L 439.207481 120.664918 
L 440.135065 105.792787 
L 440.598857 129.753443 
L 441.062649 113.228852 
L 441.990234 144.625574 
L 442.454026 130.579672 
L 442.917818 126.448525 
L 443.38161 120.664918 
L 443.845403 137.189508 
L 444.309195 160.323934 
L 444.772987 152.887869 
L 445.236779 137.189508 
L 445.700571 145.451803 
L 446.164364 181.805902 
L 446.628156 205.766557 
L 447.091948 191.720656 
L 447.55574 149.582951 
L 448.019532 136.363279 
L 448.483325 135.537049 
L 448.947117 143.799344 
L 449.410909 139.668197 
L 449.874701 145.451803 
L 450.802286 152.887869 
L 451.266078 156.192787 
L 451.72987 162.802623 
L 452.193662 148.756721 
L 452.657455 150.40918 
L 453.121247 150.40918 
L 453.585039 149.582951 
L 454.048831 153.714098 
L 454.512623 142.973115 
L 454.976416 149.582951 
L 455.440208 148.756721 
L 455.904 140.494426 
L 456.367792 161.150164 
L 456.831584 161.976393 
L 457.295377 171.064918 
L 457.759169 173.543607 
L 458.222961 158.671475 
L 458.686753 161.976393 
L 459.150545 177.674754 
L 459.614338 204.114098 
L 460.07813 218.98623 
L 460.541922 184.28459 
L 461.005714 220.638689 
L 461.469506 211.550164 
L 461.933299 228.074754 
L 462.397091 185.937049 
L 462.860883 219.812459 
L 463.324675 210.723934 
L 463.788468 142.146885 
L 464.25226 125.622295 
L 464.716052 158.671475 
L 465.179844 163.628852 
L 465.643636 156.192787 
L 466.107429 158.671475 
L 466.571221 275.996066 
L 467.498805 196.678033 
L 467.962597 176.022295 
L 468.42639 162.802623 
L 468.890182 190.068197 
L 469.353974 135.537049 
L 469.817766 190.068197 
L 470.281558 200.80918 
L 470.745351 188.415738 
L 471.209143 170.238689 
L 471.672935 200.80918 
L 472.136727 203.287869 
L 472.600519 239.641967 
L 473.064312 219.812459 
L 473.528104 242.946885 
L 473.991896 186.763279 
L 474.455688 152.061639 
L 474.919481 184.28459 
L 475.383273 161.150164 
L 475.847065 176.848525 
L 476.774649 196.678033 
L 477.238442 181.805902 
L 477.702234 148.756721 
L 478.166026 256.166557 
L 478.629818 270.212459 
L 479.09361 184.28459 
L 480.021195 314.002623 
L 480.484987 337.137049 
L 480.948779 329.700984 
L 481.412571 345.399344 
L 481.876364 366.881311 
L 482.340156 338.789508 
L 482.803948 295.825574 
L 483.26774 290.041967 
L 483.731532 199.156721 
L 484.195325 271.864918 
L 484.659117 242.946885 
L 485.122909 162.802623 
L 485.586701 202.461639 
L 486.050494 153.714098 
L 486.514286 208.245246 
L 486.978078 311.523934 
L 487.44187 237.989508 
L 487.905662 255.340328 
L 488.369455 226.422295 
L 488.833247 224.769836 
L 489.297039 202.461639 
L 489.760831 215.681311 
L 490.224623 210.723934 
L 490.688416 209.897705 
L 491.152208 223.117377 
L 491.616 159.497705 
L 492.079792 223.117377 
L 492.543584 231.379672 
L 493.007377 214.028852 
L 493.471169 295.825574 
L 493.934961 337.963279 
L 494.398753 247.078033 
L 494.862545 210.723934 
L 495.326338 322.264918 
L 495.79013 193.373115 
L 496.253922 133.058361 
L 496.717714 129.753443 
L 497.181506 98.356721 
L 497.645299 110.750164 
L 498.109091 175.196066 
L 498.109091 175.196066 
" clip-path="url(#p74c1fc5091)" style="fill: none; stroke: #1f77b4; stroke-width: 1.5; stroke-linecap: round"/>
   </g>
   <g id="line2d_15">
    <path d="M 92.290909 167.454254 
L 92.754701 162.978818 
L 93.218494 165.513802 
L 93.682286 182.194224 
L 94.146078 174.211368 
L 94.60987 157.755869 
L 95.073662 183.954483 
L 95.537455 156.028741 
L 96.001247 147.265979 
L 96.465039 185.211879 
L 97.856416 145.770756 
L 98.784 196.853883 
L 99.711584 186.868815 
L 100.175377 181.703909 
L 100.639169 184.297366 
L 101.102961 166.700771 
L 101.566753 163.118354 
L 102.030545 166.348325 
L 102.494338 159.683824 
L 102.95813 159.831609 
L 103.885714 167.374545 
L 104.349506 149.636255 
L 104.813299 169.291752 
L 105.277091 175.165428 
L 105.740883 159.433829 
L 106.668468 166.078885 
L 107.13226 243.820806 
L 107.596052 264.368662 
L 108.059844 241.149762 
L 108.523636 238.667979 
L 108.987429 217.725694 
L 109.451221 222.578167 
L 109.915013 253.159057 
L 110.378805 250.002705 
L 110.842597 254.133405 
L 111.30639 227.805857 
L 111.770182 232.229847 
L 112.233974 229.534803 
L 112.697766 216.300757 
L 113.161558 211.823651 
L 113.625351 197.16052 
L 114.089143 187.043974 
L 114.552935 185.901475 
L 115.016727 240.221807 
L 115.480519 233.673126 
L 115.944312 203.752047 
L 116.408104 206.897357 
L 116.871896 179.411522 
L 117.335688 182.608198 
L 117.799481 178.568249 
L 118.263273 208.213723 
L 118.727065 269.720416 
L 119.190857 281.076381 
L 119.654649 220.099163 
L 120.118442 279.051556 
L 120.582234 293.020569 
L 121.046026 247.371081 
L 121.509818 246.095958 
L 121.97361 245.405283 
L 122.437403 292.53438 
L 122.901195 260.883491 
L 123.364987 217.846312 
L 123.828779 234.584067 
L 124.292571 242.87152 
L 124.756364 277.894855 
L 125.220156 243.545776 
L 125.683948 232.445746 
L 126.14774 211.17538 
L 126.611532 209.735424 
L 127.075325 218.065512 
L 127.539117 211.983293 
L 128.002909 246.658544 
L 128.930494 281.238705 
L 129.394286 218.788657 
L 129.858078 260.415281 
L 130.32187 274.414807 
L 130.785662 267.220094 
L 131.249455 263.207872 
L 131.713247 266.012496 
L 132.177039 218.626026 
L 132.640831 222.057272 
L 133.104623 282.55432 
L 133.568416 228.886719 
L 134.032208 240.480241 
L 134.496 236.153853 
L 134.959792 218.686046 
L 135.423584 214.541136 
L 135.887377 221.679737 
L 136.351169 230.693612 
L 136.814961 211.76453 
L 137.278753 224.100304 
L 137.742545 232.873764 
L 138.206338 218.413923 
L 138.67013 217.429068 
L 139.133922 246.679884 
L 139.597714 268.287577 
L 140.061506 299.919622 
L 140.525299 316.520464 
L 140.989091 268.357833 
L 141.452883 277.810219 
L 141.916675 295.290287 
L 142.380468 267.238621 
L 143.308052 237.605803 
L 143.771844 230.486842 
L 144.235636 220.500815 
L 144.699429 237.988421 
L 145.163221 271.444186 
L 145.627013 290.669807 
L 146.090805 220.583144 
L 146.554597 224.280258 
L 147.01839 308.807155 
L 147.482182 278.928031 
L 147.945974 290.974925 
L 148.409766 256.079038 
L 148.873558 234.078071 
L 149.337351 192.712837 
L 149.801143 250.685494 
L 150.264935 245.474381 
L 150.728727 219.491799 
L 151.192519 212.388089 
L 151.656312 284.125491 
L 152.120104 226.745982 
L 152.583896 292.580728 
L 153.047688 267.720129 
L 153.511481 235.691326 
L 153.975273 216.933666 
L 154.439065 289.230218 
L 154.902857 247.029654 
L 155.366649 228.570411 
L 155.830442 237.992699 
L 156.294234 221.267769 
L 156.758026 216.428747 
L 157.221818 218.999215 
L 157.68561 211.787204 
L 158.149403 196.788832 
L 158.613195 196.573827 
L 159.076987 284.881643 
L 159.540779 308.428182 
L 160.004571 255.568058 
L 160.468364 218.198397 
L 160.932156 273.271419 
L 161.85974 200.750734 
L 162.323532 181.570555 
L 162.787325 176.963326 
L 163.251117 211.102347 
L 163.714909 261.866056 
L 164.178701 234.909873 
L 164.642494 252.402311 
L 165.106286 227.733371 
L 165.570078 219.983857 
L 166.03387 219.557184 
L 166.497662 230.553991 
L 166.961455 211.21794 
L 167.889039 184.494389 
L 168.352831 197.57864 
L 168.816623 184.067287 
L 169.280416 178.563282 
L 169.744208 182.655211 
L 170.208 314.999032 
L 170.671792 269.369055 
L 171.135584 269.516555 
L 171.599377 206.046647 
L 172.063169 171.349647 
L 172.990753 205.415454 
L 173.454545 209.884729 
L 174.38213 161.826845 
L 174.845922 181.903812 
L 175.309714 258.00438 
L 175.773506 251.69628 
L 176.237299 240.586906 
L 176.701091 244.633697 
L 177.164883 251.477293 
L 177.628675 226.722035 
L 178.092468 251.546052 
L 178.55626 210.535358 
L 179.020052 207.343228 
L 179.483844 190.364125 
L 179.947636 187.048269 
L 180.411429 228.428106 
L 180.875221 205.806242 
L 181.339013 191.76212 
L 181.802805 201.09936 
L 182.266597 185.856658 
L 182.73039 266.103903 
L 183.657974 238.47968 
L 184.121766 192.230689 
L 184.585558 174.598233 
L 185.049351 179.004147 
L 185.513143 176.600469 
L 185.976935 187.113312 
L 186.440727 183.722767 
L 186.904519 143.789633 
L 187.368312 129.049096 
L 188.295896 170.007244 
L 188.759688 154.579467 
L 189.223481 219.39044 
L 189.687273 179.118857 
L 190.151065 163.12774 
L 190.614857 151.391099 
L 191.078649 163.492107 
L 191.542442 170.178518 
L 192.006234 172.636347 
L 192.470026 161.52981 
L 192.933818 173.617785 
L 193.39761 178.155779 
L 193.861403 160.427418 
L 194.325195 147.116706 
L 194.788987 157.182993 
L 195.252779 161.568728 
L 195.716571 161.815764 
L 196.180364 165.921301 
L 196.644156 159.786072 
L 197.107948 135.872818 
L 198.035532 179.012251 
L 198.499325 170.741532 
L 198.963117 164.711321 
L 199.426909 168.398745 
L 199.890701 163.393902 
L 200.354494 130.196041 
L 200.818286 146.026435 
L 201.282078 210.081015 
L 202.209662 178.172693 
L 202.673455 169.672227 
L 203.137247 182.1648 
L 204.064831 173.611125 
L 204.528623 161.318162 
L 204.992416 136.37075 
L 205.456208 151.982102 
L 205.92 141.244491 
L 206.383792 133.451432 
L 206.847584 144.663863 
L 207.311377 148.28886 
L 207.775169 149.889636 
L 208.238961 134.474314 
L 208.702753 142.987609 
L 209.166545 141.576926 
L 209.630338 135.336848 
L 210.09413 144.551234 
L 210.557922 156.829968 
L 211.021714 146.007875 
L 211.485506 145.020924 
L 211.949299 137.458279 
L 212.413091 139.556553 
L 212.876883 139.114469 
L 213.340675 127.888819 
L 213.804468 120.267806 
L 214.26826 121.003483 
L 214.732052 122.695881 
L 215.195844 119.221238 
L 215.659636 135.175097 
L 216.123429 158.000018 
L 216.587221 156.025237 
L 217.051013 139.579906 
L 217.514805 137.517207 
L 217.978597 133.169058 
L 218.44239 125.848599 
L 218.906182 129.731705 
L 219.369974 123.328651 
L 219.833766 120.655241 
L 220.297558 122.319422 
L 220.761351 132.748972 
L 221.688935 116.722507 
L 222.152727 126.42845 
L 222.616519 163.710673 
L 223.080312 143.202811 
L 223.544104 139.994814 
L 224.007896 140.085585 
L 224.471688 136.177418 
L 224.935481 135.605389 
L 225.399273 135.913737 
L 225.863065 146.350664 
L 226.326857 136.01634 
L 226.790649 135.852604 
L 227.254442 128.625765 
L 227.718234 125.713959 
L 228.182026 125.353 
L 228.645818 113.337219 
L 229.10961 112.488047 
L 229.573403 112.688376 
L 230.037195 124.046013 
L 230.500987 125.832881 
L 230.964779 123.150033 
L 231.428571 115.256996 
L 231.892364 115.369197 
L 232.356156 122.367131 
L 232.819948 116.801996 
L 233.28374 117.305505 
L 233.747532 115.852605 
L 234.211325 116.954748 
L 234.675117 113.772314 
L 235.138909 126.967677 
L 235.602701 134.694571 
L 236.066494 162.088475 
L 236.530286 141.155022 
L 236.994078 139.522947 
L 237.45787 140.939384 
L 237.921662 128.42532 
L 238.385455 128.950383 
L 238.849247 121.482229 
L 239.313039 119.337468 
L 240.240623 112.449091 
L 240.704416 111.419604 
L 241.168208 117.712643 
L 241.632 118.821046 
L 242.095792 110.077426 
L 242.559584 111.372873 
L 243.023377 111.372873 
L 243.487169 111.66556 
L 243.950961 112.257354 
L 244.414753 112.257354 
L 244.878545 109.857137 
L 245.342338 112.891086 
L 245.80613 112.257354 
L 246.733714 110.314803 
L 247.197506 115.81258 
L 247.661299 114.266555 
L 248.125091 115.151035 
L 248.588883 114.184997 
L 249.052675 115.960257 
L 249.516468 114.49362 
L 249.98026 123.383044 
L 250.444052 126.396948 
L 250.907844 128.666174 
L 251.371636 119.294716 
L 251.835429 122.228533 
L 252.299221 146.234352 
L 252.763013 134.539041 
L 253.226805 135.533428 
L 253.690597 138.773039 
L 254.15439 146.666373 
L 254.618182 133.570483 
L 255.081974 151.026005 
L 255.545766 185.994221 
L 256.009558 186.275967 
L 256.473351 150.712069 
L 256.937143 159.915325 
L 257.400935 162.760529 
L 257.864727 167.29329 
L 258.328519 158.771983 
L 258.792312 153.187764 
L 259.256104 149.766557 
L 259.719896 135.312903 
L 260.183688 140.850244 
L 260.647481 148.287125 
L 261.111273 159.13991 
L 261.575065 153.744597 
L 262.038857 152.487683 
L 262.502649 153.31528 
L 262.966442 146.579577 
L 263.430234 145.955657 
L 263.894026 147.050241 
L 264.357818 151.415492 
L 264.82161 149.310752 
L 265.285403 157.896113 
L 265.749195 160.742433 
L 266.212987 153.815182 
L 266.676779 154.355026 
L 267.140571 156.29427 
L 267.604364 154.582309 
L 268.531948 138.763864 
L 269.459532 168.523503 
L 269.923325 156.007642 
L 270.387117 148.447655 
L 271.314701 231.662831 
L 271.778494 175.721923 
L 272.242286 168.048867 
L 272.706078 150.98848 
L 273.16987 202.894405 
L 273.633662 178.084858 
L 274.097455 176.914005 
L 274.561247 149.060146 
L 275.025039 180.332043 
L 275.488831 169.287208 
L 275.952623 190.152745 
L 276.416416 175.398736 
L 276.880208 175.935159 
L 277.344 237.98346 
L 277.807792 199.001483 
L 278.271584 183.971249 
L 278.735377 177.316575 
L 279.199169 183.811306 
L 279.662961 232.972722 
L 280.126753 261.639672 
L 280.590545 229.165731 
L 281.054338 229.214438 
L 281.51813 225.887021 
L 281.981922 177.05385 
L 282.445714 189.667294 
L 282.909506 197.797216 
L 283.373299 176.669757 
L 283.837091 270.422145 
L 284.300883 234.321641 
L 284.764675 220.655428 
L 285.228468 200.141337 
L 285.69226 319.458514 
L 286.156052 263.588497 
L 286.619844 248.868806 
L 287.083636 239.088066 
L 287.547429 235.746626 
L 288.011221 196.921161 
L 288.475013 223.604307 
L 288.938805 217.358819 
L 289.402597 216.352078 
L 289.86639 207.537085 
L 290.330182 210.820609 
L 290.793974 251.538648 
L 291.257766 212.661672 
L 291.721558 186.645924 
L 292.185351 188.500734 
L 292.649143 239.772907 
L 293.112935 230.780317 
L 293.576727 206.225536 
L 294.040519 170.707485 
L 294.504312 244.359178 
L 294.968104 230.582427 
L 295.431896 195.879571 
L 295.895688 214.793258 
L 296.359481 212.464404 
L 296.823273 208.538944 
L 297.287065 222.666914 
L 297.750857 200.607086 
L 298.214649 184.731433 
L 298.678442 261.369948 
L 299.142234 264.570539 
L 299.606026 241.544519 
L 300.069818 198.661863 
L 300.53361 187.757592 
L 300.997403 196.113973 
L 301.461195 194.169798 
L 301.924987 284.30421 
L 302.388779 261.021702 
L 302.852571 256.248765 
L 303.316364 244.437224 
L 303.780156 272.90015 
L 304.243948 221.253856 
L 304.70774 226.750421 
L 305.171532 252.542994 
L 305.635325 219.940101 
L 306.099117 252.480356 
L 306.562909 248.391316 
L 307.026701 192.0277 
L 307.490494 244.273781 
L 307.954286 274.228708 
L 308.418078 294.288669 
L 308.88187 240.453626 
L 309.345662 228.189525 
L 309.809455 276.342475 
L 311.200831 210.833385 
L 311.664623 242.894588 
L 312.128416 241.194185 
L 312.592208 202.360797 
L 313.056 225.955585 
L 313.519792 256.513089 
L 313.983584 232.987058 
L 314.447377 219.766434 
L 314.911169 217.72437 
L 315.374961 222.779854 
L 315.838753 242.074213 
L 316.302545 219.049818 
L 316.766338 209.557372 
L 317.23013 267.859536 
L 317.693922 261.610571 
L 318.157714 281.152086 
L 318.621506 214.871101 
L 319.085299 232.918423 
L 319.549091 245.148632 
L 320.012883 222.653998 
L 320.476675 214.521325 
L 320.940468 216.555375 
L 321.40426 202.533282 
L 321.868052 255.703752 
L 322.331844 249.060624 
L 322.795636 264.025411 
L 323.259429 228.724505 
L 323.723221 220.833296 
L 324.187013 196.81924 
L 324.650805 202.890869 
L 325.114597 278.938785 
L 325.57839 258.586307 
L 326.042182 230.172625 
L 326.505974 223.849408 
L 326.969766 180.724363 
L 327.433558 194.969435 
L 327.897351 258.522915 
L 328.361143 262.497385 
L 328.824935 257.486028 
L 329.288727 272.955589 
L 329.752519 215.921245 
L 330.216312 210.353182 
L 330.680104 184.65603 
L 331.143896 199.336509 
L 331.607688 274.274164 
L 332.071481 295.522466 
L 332.535273 263.105947 
L 332.999065 221.326378 
L 333.462857 206.641469 
L 333.926649 200.123205 
L 334.390442 220.262136 
L 334.854234 301.049018 
L 335.318026 239.604807 
L 335.781818 219.532305 
L 336.24561 215.255793 
L 336.709403 175.524443 
L 337.173195 166.864168 
L 337.636987 216.606408 
L 338.100779 189.263511 
L 338.564571 225.224001 
L 339.028364 217.255921 
L 339.492156 222.161909 
L 339.955948 199.227614 
L 340.41974 209.268377 
L 340.883532 211.520367 
L 341.347325 171.043954 
L 341.811117 177.826008 
L 342.274909 177.85077 
L 342.738701 174.466314 
L 343.202494 191.746277 
L 343.666286 190.997737 
L 344.130078 168.934005 
L 344.59387 167.722442 
L 345.057662 148.998125 
L 345.521455 210.074141 
L 345.985247 235.071263 
L 346.449039 196.96536 
L 347.376623 148.69398 
L 347.840416 147.912604 
L 348.304208 153.770546 
L 348.768 154.696568 
L 349.231792 164.194072 
L 349.695584 219.875116 
L 350.159377 167.03621 
L 350.623169 158.8226 
L 351.086961 177.061918 
L 351.550753 164.169716 
L 352.014545 180.940761 
L 352.478338 206.74754 
L 352.94213 253.757575 
L 353.405922 196.881272 
L 354.333506 144.739714 
L 354.797299 151.49463 
L 355.261091 189.933344 
L 355.724883 175.673018 
L 356.188675 150.50384 
L 356.652468 173.681792 
L 357.11626 219.099099 
L 357.580052 243.11598 
L 358.043844 216.455019 
L 358.507636 160.193089 
L 358.971429 165.169308 
L 359.435221 149.905821 
L 359.899013 160.343798 
L 360.362805 166.239957 
L 360.826597 141.254539 
L 361.754182 123.345486 
L 362.217974 144.287713 
L 362.681766 194.840935 
L 363.145558 153.911983 
L 363.609351 137.709256 
L 364.073143 134.240433 
L 364.536935 173.189752 
L 365.000727 154.637566 
L 365.928312 133.974668 
L 366.392104 125.985357 
L 366.855896 128.406667 
L 367.319688 159.759491 
L 368.247273 150.754705 
L 368.711065 208.589163 
L 369.174857 193.410505 
L 369.638649 164.363275 
L 370.102442 154.074577 
L 370.566234 158.619682 
L 371.030026 157.96105 
L 371.493818 150.174581 
L 371.95761 154.063117 
L 372.421403 154.118639 
L 372.885195 136.720501 
L 373.348987 127.479677 
L 373.812779 138.904334 
L 374.276571 153.694871 
L 374.740364 140.781557 
L 375.204156 146.46091 
L 376.13174 159.839427 
L 376.595532 172.735662 
L 377.523117 137.771467 
L 377.986909 172.308081 
L 378.450701 166.273673 
L 378.914494 172.560126 
L 379.378286 167.71676 
L 379.842078 168.402872 
L 380.30587 155.632037 
L 380.769662 147.682384 
L 381.233455 150.681503 
L 382.161039 126.501717 
L 382.624831 122.171929 
L 383.088623 131.98952 
L 384.016208 167.044905 
L 384.48 155.984316 
L 384.943792 158.609475 
L 385.407584 158.322285 
L 385.871377 166.337051 
L 386.335169 153.950745 
L 386.798961 151.689195 
L 387.262753 139.867989 
L 387.726545 147.8079 
L 388.190338 145.513501 
L 389.117922 126.193328 
L 389.581714 128.356235 
L 390.045506 138.251667 
L 390.509299 155.516403 
L 390.973091 160.782906 
L 391.436883 156.743353 
L 391.900675 144.078503 
L 392.364468 141.052003 
L 392.82826 157.65637 
L 393.755844 141.027026 
L 394.219636 140.828224 
L 394.683429 122.279068 
L 395.147221 121.716107 
L 395.611013 125.400246 
L 396.074805 120.524763 
L 396.538597 143.396017 
L 397.00239 113.699249 
L 397.466182 110.60072 
L 397.929974 115.711951 
L 398.393766 112.448726 
L 398.857558 110.911732 
L 399.321351 112.783487 
L 399.785143 119.664708 
L 400.248935 112.492559 
L 400.712727 118.557055 
L 401.176519 145.744744 
L 401.640312 156.865211 
L 402.104104 136.288041 
L 402.567896 137.683087 
L 403.031688 140.665903 
L 403.495481 129.843681 
L 403.959273 116.085983 
L 404.886857 178.227732 
L 405.350649 177.974201 
L 405.814442 171.980751 
L 406.278234 175.095757 
L 407.205818 159.664651 
L 407.66961 162.439705 
L 408.133403 143.856924 
L 409.060987 140.869495 
L 409.524779 144.600875 
L 409.988571 161.667542 
L 410.452364 141.249417 
L 410.916156 139.198691 
L 411.379948 141.293311 
L 411.84374 140.346119 
L 412.307532 134.44687 
L 412.771325 132.592497 
L 413.235117 135.729419 
L 413.698909 134.951365 
L 414.162701 130.079744 
L 415.090286 137.805375 
L 415.554078 132.559117 
L 416.01787 112.102991 
L 416.481662 127.070015 
L 416.945455 137.218291 
L 417.409247 136.643223 
L 417.873039 122.159735 
L 418.336831 120.75268 
L 418.800623 126.351344 
L 419.264416 128.548534 
L 419.728208 121.89238 
L 420.192 124.438264 
L 420.655792 157.067609 
L 421.119584 124.681988 
L 421.583377 134.369769 
L 422.510961 202.37138 
L 422.974753 187.254916 
L 423.438545 162.980108 
L 423.902338 185.507882 
L 424.36613 176.260122 
L 424.829922 147.238606 
L 425.293714 132.549542 
L 425.757506 144.103858 
L 426.221299 141.582465 
L 426.685091 113.951497 
L 427.148883 111.03105 
L 427.612675 130.580879 
L 428.076468 111.148183 
L 428.54026 121.981291 
L 429.004052 125.03016 
L 429.467844 116.280291 
L 430.395429 123.448507 
L 430.859221 123.628848 
L 431.323013 109.756535 
L 431.786805 110.522905 
L 432.250597 113.13999 
L 432.71439 113.902589 
L 433.178182 117.907671 
L 433.641974 120.504546 
L 434.105766 115.818227 
L 434.569558 116.113326 
L 435.033351 110.625731 
L 435.497143 110.739748 
L 435.960935 122.678285 
L 436.424727 130.526653 
L 436.888519 135.267832 
L 437.352312 147.109371 
L 438.743688 122.164384 
L 439.207481 126.032105 
L 439.671273 125.462898 
L 440.135065 116.78298 
L 440.598857 112.247199 
L 441.062649 125.954282 
L 441.526442 120.258674 
L 441.990234 139.498773 
L 442.454026 150.351462 
L 442.917818 134.588745 
L 443.38161 134.452614 
L 443.845403 127.202425 
L 444.309195 141.986057 
L 444.772987 163.59118 
L 445.236779 155.558793 
L 445.700571 138.806473 
L 446.628156 168.971481 
L 447.091948 190.168489 
L 447.55574 178.571903 
L 448.483325 141.845217 
L 449.874701 161.596536 
L 450.338494 150.63432 
L 450.802286 148.960332 
L 451.266078 152.786675 
L 451.72987 161.454127 
L 452.193662 162.096005 
L 452.657455 153.16428 
L 453.585039 146.384117 
L 454.048831 146.953996 
L 454.512623 149.576282 
L 454.976416 144.275563 
L 455.440208 150.440406 
L 455.904 149.634965 
L 456.367792 145.186892 
L 456.831584 176.135435 
L 457.295377 172.231765 
L 457.759169 170.653765 
L 458.222961 174.793396 
L 458.686753 170.626824 
L 459.150545 176.729279 
L 459.614338 175.920645 
L 460.07813 183.138158 
L 460.541922 180.89109 
L 461.005714 170.5513 
L 461.933299 212.20889 
L 462.397091 215.152464 
L 462.860883 183.310959 
L 463.324675 201.625324 
L 463.788468 195.799289 
L 464.25226 173.943416 
L 464.716052 161.963735 
L 465.179844 181.172646 
L 465.643636 174.97011 
L 466.107429 162.527988 
L 466.571221 182.072739 
L 467.035013 249.487963 
L 467.498805 225.028479 
L 467.962597 187.728876 
L 468.42639 174.690493 
L 468.890182 174.244339 
L 469.353974 205.58733 
L 469.817766 185.283486 
L 470.281558 212.710751 
L 470.745351 212.834938 
L 471.209143 192.572651 
L 471.672935 194.742354 
L 472.136727 218.212403 
L 472.600519 209.845455 
L 473.064312 225.065569 
L 473.528104 217.652492 
L 473.991896 229.401196 
L 474.455688 177.52506 
L 474.919481 185.241831 
L 475.383273 196.49941 
L 475.847065 180.975455 
L 476.310857 193.848327 
L 476.774649 175.586913 
L 477.238442 186.890126 
L 477.702234 178.342445 
L 478.166026 182.757299 
L 478.629818 258.961511 
L 479.09361 227.651888 
L 479.557403 177.498031 
L 480.021195 240.960361 
L 480.484987 278.849521 
L 480.948779 284.617696 
L 481.412571 284.399945 
L 481.876364 290.085522 
L 482.340156 332.612531 
L 482.803948 289.508482 
L 483.26774 283.061426 
L 483.731532 253.274988 
L 484.195325 206.744917 
L 484.659117 283.234461 
L 485.122909 244.935604 
L 485.586701 224.860206 
L 486.050494 231.438983 
L 486.514286 192.4782 
L 486.978078 261.02281 
L 487.44187 297.90305 
L 487.905662 228.07751 
L 488.369455 241.821515 
L 488.833247 201.241569 
L 489.297039 241.851537 
L 489.760831 243.619121 
L 490.224623 217.504706 
L 490.688416 226.484679 
L 491.152208 222.73829 
L 491.616 224.627264 
L 492.079792 198.492674 
L 492.543584 233.68615 
L 493.007377 259.361595 
L 493.471169 237.287607 
L 493.934961 271.86715 
L 494.398753 294.666644 
L 494.862545 233.132367 
L 495.326338 249.536973 
L 495.79013 297.39944 
L 496.253922 201.171422 
L 496.717714 192.122613 
L 497.645299 150.346669 
L 498.109091 145.11238 
L 498.109091 145.11238 
" clip-path="url(#p74c1fc5091)" style="fill: none; stroke: #ff7f0e; stroke-width: 1.5; stroke-linecap: round"/>
   </g>
   <g id="patch_3">
    <path d="M 72 384.48 
L 72 51.84 
" style="fill: none; stroke: #ffffff; stroke-width: 0.8; stroke-linejoin: miter; stroke-linecap: square"/>
   </g>
   <g id="patch_4">
    <path d="M 518.4 384.48 
L 518.4 51.84 
" style="fill: none; stroke: #ffffff; stroke-width: 0.8; stroke-linejoin: miter; stroke-linecap: square"/>
   </g>
   <g id="patch_5">
    <path d="M 72 384.48 
L 518.4 384.48 
" style="fill: none; stroke: #ffffff; stroke-width: 0.8; stroke-linejoin: miter; stroke-linecap: square"/>
   </g>
   <g id="patch_6">
    <path d="M 72 51.84 
L 518.4 51.84 
" style="fill: none; stroke: #ffffff; stroke-width: 0.8; stroke-linejoin: miter; stroke-linecap: square"/>
   </g>
   <g id="text_16">
    <!-- Maximum Temperature Prediction 1 Day Ahead -->
    <g style="fill: #262626" transform="translate(169.59 45.84) scale(0.12 -0.12)">
     <defs>
      <path id="ArialMT-4d" d="M 475 0 
L 475 4581 
L 1388 4581 
L 2472 1338 
Q 2622 884 2691 659 
Q 2769 909 2934 1394 
L 4031 4581 
L 4847 4581 
L 4847 0 
L 4263 0 
L 4263 3834 
L 2931 0 
L 2384 0 
L 1059 3900 
L 1059 0 
L 475 0 
z
" transform="scale(0.015625)"/>
      <path id="ArialMT-78" d="M 47 0 
L 1259 1725 
L 138 3319 
L 841 3319 
L 1350 2541 
Q 1494 2319 1581 2169 
Q 1719 2375 1834 2534 
L 2394 3319 
L 3066 3319 
L 1919 1756 
L 3153 0 
L 2463 0 
L 1781 1031 
L 1600 1309 
L 728 0 
L 47 0 
z
" transform="scale(0.015625)"/>
      <path id="ArialMT-69" d="M 425 3934 
L 425 4581 
L 988 4581 
L 988 3934 
L 425 3934 
z
M 425 0 
L 425 3319 
L 988 3319 
L 988 0 
L 425 0 
z
" transform="scale(0.015625)"/>
      <path id="ArialMT-6d" d="M 422 0 
L 422 3319 
L 925 3319 
L 925 2853 
Q 1081 3097 1340 3245 
Q 1600 3394 1931 3394 
Q 2300 3394 2536 3241 
Q 2772 3088 2869 2813 
Q 3263 3394 3894 3394 
Q 4388 3394 4653 3120 
Q 4919 2847 4919 2278 
L 4919 0 
L 4359 0 
L 4359 2091 
Q 4359 2428 4304 2576 
Q 4250 2725 4106 2815 
Q 3963 2906 3769 2906 
Q 3419 2906 3187 2673 
Q 2956 2441 2956 1928 
L 2956 0 
L 2394 0 
L 2394 2156 
Q 2394 2531 2256 2718 
Q 2119 2906 1806 2906 
Q 1569 2906 1367 2781 
Q 1166 2656 1075 2415 
Q 984 2175 984 1722 
L 984 0 
L 422 0 
z
" transform="scale(0.015625)"/>
      <path id="ArialMT-75" d="M 2597 0 
L 2597 488 
Q 2209 -75 1544 -75 
Q 1250 -75 995 37 
Q 741 150 617 320 
Q 494 491 444 738 
Q 409 903 409 1263 
L 409 3319 
L 972 3319 
L 972 1478 
Q 972 1038 1006 884 
Q 1059 663 1231 536 
Q 1403 409 1656 409 
Q 1909 409 2131 539 
Q 2353 669 2445 892 
Q 2538 1116 2538 1541 
L 2538 3319 
L 3100 3319 
L 3100 0 
L 2597 0 
z
" transform="scale(0.015625)"/>
      <path id="ArialMT-20" transform="scale(0.015625)"/>
      <path id="ArialMT-54" d="M 1659 0 
L 1659 4041 
L 150 4041 
L 150 4581 
L 3781 4581 
L 3781 4041 
L 2266 4041 
L 2266 0 
L 1659 0 
z
" transform="scale(0.015625)"/>
      <path id="ArialMT-65" d="M 2694 1069 
L 3275 997 
Q 3138 488 2766 206 
Q 2394 -75 1816 -75 
Q 1088 -75 661 373 
Q 234 822 234 1631 
Q 234 2469 665 2931 
Q 1097 3394 1784 3394 
Q 2450 3394 2872 2941 
Q 3294 2488 3294 1666 
Q 3294 1616 3291 1516 
L 816 1516 
Q 847 969 1125 678 
Q 1403 388 1819 388 
Q 2128 388 2347 550 
Q 2566 713 2694 1069 
z
M 847 1978 
L 2700 1978 
Q 2663 2397 2488 2606 
Q 2219 2931 1791 2931 
Q 1403 2931 1139 2672 
Q 875 2413 847 1978 
z
" transform="scale(0.015625)"/>
      <path id="ArialMT-70" d="M 422 -1272 
L 422 3319 
L 934 3319 
L 934 2888 
Q 1116 3141 1344 3267 
Q 1572 3394 1897 3394 
Q 2322 3394 2647 3175 
Q 2972 2956 3137 2557 
Q 3303 2159 3303 1684 
Q 3303 1175 3120 767 
Q 2938 359 2589 142 
Q 2241 -75 1856 -75 
Q 1575 -75 1351 44 
Q 1128 163 984 344 
L 984 -1272 
L 422 -1272 
z
M 931 1641 
Q 931 1000 1190 694 
Q 1450 388 1819 388 
Q 2194 388 2461 705 
Q 2728 1022 2728 1688 
Q 2728 2322 2467 2637 
Q 2206 2953 1844 2953 
Q 1484 2953 1207 2617 
Q 931 2281 931 1641 
z
" transform="scale(0.015625)"/>
      <path id="ArialMT-72" d="M 416 0 
L 416 3319 
L 922 3319 
L 922 2816 
Q 1116 3169 1280 3281 
Q 1444 3394 1641 3394 
Q 1925 3394 2219 3213 
L 2025 2691 
Q 1819 2813 1613 2813 
Q 1428 2813 1281 2702 
Q 1134 2591 1072 2394 
Q 978 2094 978 1738 
L 978 0 
L 416 0 
z
" transform="scale(0.015625)"/>
      <path id="ArialMT-74" d="M 1650 503 
L 1731 6 
Q 1494 -44 1306 -44 
Q 1000 -44 831 53 
Q 663 150 594 308 
Q 525 466 525 972 
L 525 2881 
L 113 2881 
L 113 3319 
L 525 3319 
L 525 4141 
L 1084 4478 
L 1084 3319 
L 1650 3319 
L 1650 2881 
L 1084 2881 
L 1084 941 
Q 1084 700 1114 631 
Q 1144 563 1211 522 
Q 1278 481 1403 481 
Q 1497 481 1650 503 
z
" transform="scale(0.015625)"/>
      <path id="ArialMT-50" d="M 494 0 
L 494 4581 
L 2222 4581 
Q 2678 4581 2919 4538 
Q 3256 4481 3484 4323 
Q 3713 4166 3852 3881 
Q 3991 3597 3991 3256 
Q 3991 2672 3619 2267 
Q 3247 1863 2275 1863 
L 1100 1863 
L 1100 0 
L 494 0 
z
M 1100 2403 
L 2284 2403 
Q 2872 2403 3119 2622 
Q 3366 2841 3366 3238 
Q 3366 3525 3220 3729 
Q 3075 3934 2838 4000 
Q 2684 4041 2272 4041 
L 1100 4041 
L 1100 2403 
z
" transform="scale(0.015625)"/>
      <path id="ArialMT-64" d="M 2575 0 
L 2575 419 
Q 2259 -75 1647 -75 
Q 1250 -75 917 144 
Q 584 363 401 755 
Q 219 1147 219 1656 
Q 219 2153 384 2558 
Q 550 2963 881 3178 
Q 1213 3394 1622 3394 
Q 1922 3394 2156 3267 
Q 2391 3141 2538 2938 
L 2538 4581 
L 3097 4581 
L 3097 0 
L 2575 0 
z
M 797 1656 
Q 797 1019 1065 703 
Q 1334 388 1700 388 
Q 2069 388 2326 689 
Q 2584 991 2584 1609 
Q 2584 2291 2321 2609 
Q 2059 2928 1675 2928 
Q 1300 2928 1048 2622 
Q 797 2316 797 1656 
z
" transform="scale(0.015625)"/>
      <path id="ArialMT-63" d="M 2588 1216 
L 3141 1144 
Q 3050 572 2676 248 
Q 2303 -75 1759 -75 
Q 1078 -75 664 370 
Q 250 816 250 1647 
Q 250 2184 428 2587 
Q 606 2991 970 3192 
Q 1334 3394 1763 3394 
Q 2303 3394 2647 3120 
Q 2991 2847 3088 2344 
L 2541 2259 
Q 2463 2594 2264 2762 
Q 2066 2931 1784 2931 
Q 1359 2931 1093 2626 
Q 828 2322 828 1663 
Q 828 994 1084 691 
Q 1341 388 1753 388 
Q 2084 388 2306 591 
Q 2528 794 2588 1216 
z
" transform="scale(0.015625)"/>
      <path id="ArialMT-6f" d="M 213 1659 
Q 213 2581 725 3025 
Q 1153 3394 1769 3394 
Q 2453 3394 2887 2945 
Q 3322 2497 3322 1706 
Q 3322 1066 3130 698 
Q 2938 331 2570 128 
Q 2203 -75 1769 -75 
Q 1072 -75 642 372 
Q 213 819 213 1659 
z
M 791 1659 
Q 791 1022 1069 705 
Q 1347 388 1769 388 
Q 2188 388 2466 706 
Q 2744 1025 2744 1678 
Q 2744 2294 2464 2611 
Q 2184 2928 1769 2928 
Q 1347 2928 1069 2612 
Q 791 2297 791 1659 
z
" transform="scale(0.015625)"/>
      <path id="ArialMT-6e" d="M 422 0 
L 422 3319 
L 928 3319 
L 928 2847 
Q 1294 3394 1984 3394 
Q 2284 3394 2536 3286 
Q 2788 3178 2913 3003 
Q 3038 2828 3088 2588 
Q 3119 2431 3119 2041 
L 3119 0 
L 2556 0 
L 2556 2019 
Q 2556 2363 2490 2533 
Q 2425 2703 2258 2804 
Q 2091 2906 1866 2906 
Q 1506 2906 1245 2678 
Q 984 2450 984 1813 
L 984 0 
L 422 0 
z
" transform="scale(0.015625)"/>
      <path id="ArialMT-41" d="M -9 0 
L 1750 4581 
L 2403 4581 
L 4278 0 
L 3588 0 
L 3053 1388 
L 1138 1388 
L 634 0 
L -9 0 
z
M 1313 1881 
L 2866 1881 
L 2388 3150 
Q 2169 3728 2063 4100 
Q 1975 3659 1816 3225 
L 1313 1881 
z
" transform="scale(0.015625)"/>
      <path id="ArialMT-68" d="M 422 0 
L 422 4581 
L 984 4581 
L 984 2938 
Q 1378 3394 1978 3394 
Q 2347 3394 2619 3248 
Q 2891 3103 3008 2847 
Q 3125 2591 3125 2103 
L 3125 0 
L 2563 0 
L 2563 2103 
Q 2563 2525 2380 2717 
Q 2197 2909 1863 2909 
Q 1613 2909 1392 2779 
Q 1172 2650 1078 2428 
Q 984 2206 984 1816 
L 984 0 
L 422 0 
z
" transform="scale(0.015625)"/>
     </defs>
     <use xlink:href="#ArialMT-4d"/>
     <use xlink:href="#ArialMT-61" x="83.300781"/>
     <use xlink:href="#ArialMT-78" x="138.916016"/>
     <use xlink:href="#ArialMT-69" x="188.916016"/>
     <use xlink:href="#ArialMT-6d" x="211.132812"/>
     <use xlink:href="#ArialMT-75" x="294.433594"/>
     <use xlink:href="#ArialMT-6d" x="350.048828"/>
     <use xlink:href="#ArialMT-20" x="433.349609"/>
     <use xlink:href="#ArialMT-54" x="459.382812"/>
     <use xlink:href="#ArialMT-65" x="509.341797"/>
     <use xlink:href="#ArialMT-6d" x="564.957031"/>
     <use xlink:href="#ArialMT-70" x="648.257812"/>
     <use xlink:href="#ArialMT-65" x="703.873047"/>
     <use xlink:href="#ArialMT-72" x="759.488281"/>
     <use xlink:href="#ArialMT-61" x="792.789062"/>
     <use xlink:href="#ArialMT-74" x="848.404297"/>
     <use xlink:href="#ArialMT-75" x="876.1875"/>
     <use xlink:href="#ArialMT-72" x="931.802734"/>
     <use xlink:href="#ArialMT-65" x="965.103516"/>
     <use xlink:href="#ArialMT-20" x="1020.71875"/>
     <use xlink:href="#ArialMT-50" x="1048.501953"/>
     <use xlink:href="#ArialMT-72" x="1115.201172"/>
     <use xlink:href="#ArialMT-65" x="1148.501953"/>
     <use xlink:href="#ArialMT-64" x="1204.117188"/>
     <use xlink:href="#ArialMT-69" x="1259.732422"/>
     <use xlink:href="#ArialMT-63" x="1281.949219"/>
     <use xlink:href="#ArialMT-74" x="1331.949219"/>
     <use xlink:href="#ArialMT-69" x="1359.732422"/>
     <use xlink:href="#ArialMT-6f" x="1381.949219"/>
     <use xlink:href="#ArialMT-6e" x="1437.564453"/>
     <use xlink:href="#ArialMT-20" x="1493.179688"/>
     <use xlink:href="#ArialMT-31" x="1520.962891"/>
     <use xlink:href="#ArialMT-20" x="1576.578125"/>
     <use xlink:href="#ArialMT-44" x="1604.361328"/>
     <use xlink:href="#ArialMT-61" x="1676.578125"/>
     <use xlink:href="#ArialMT-79" x="1732.193359"/>
     <use xlink:href="#ArialMT-20" x="1782.193359"/>
     <use xlink:href="#ArialMT-41" x="1804.476562"/>
     <use xlink:href="#ArialMT-68" x="1871.175781"/>
     <use xlink:href="#ArialMT-65" x="1926.791016"/>
     <use xlink:href="#ArialMT-61" x="1982.40625"/>
     <use xlink:href="#ArialMT-64" x="2038.021484"/>
    </g>
   </g>
   <g id="legend_1">
    <g id="patch_7">
     <path d="M 437.15625 88.130625 
L 511.4 88.130625 
Q 513.4 88.130625 513.4 86.130625 
L 513.4 58.84 
Q 513.4 56.84 511.4 56.84 
L 437.15625 56.84 
Q 435.15625 56.84 435.15625 58.84 
L 435.15625 86.130625 
Q 435.15625 88.130625 437.15625 88.130625 
z
" style="fill: #eaeaf2; opacity: 0.8; stroke: #cccccc; stroke-linejoin: miter"/>
    </g>
    <g id="line2d_16">
     <path d="M 439.15625 64.497812 
L 449.15625 64.497812 
L 459.15625 64.497812 
" style="fill: none; stroke: #1f77b4; stroke-width: 1.5; stroke-linecap: round"/>
    </g>
    <g id="text_17">
     <!-- Real -->
     <g style="fill: #262626" transform="translate(467.15625 67.997812) scale(0.1 -0.1)">
      <defs>
       <path id="ArialMT-52" d="M 503 0 
L 503 4581 
L 2534 4581 
Q 3147 4581 3465 4457 
Q 3784 4334 3975 4021 
Q 4166 3709 4166 3331 
Q 4166 2844 3850 2509 
Q 3534 2175 2875 2084 
Q 3116 1969 3241 1856 
Q 3506 1613 3744 1247 
L 4541 0 
L 3778 0 
L 3172 953 
Q 2906 1366 2734 1584 
Q 2563 1803 2427 1890 
Q 2291 1978 2150 2013 
Q 2047 2034 1813 2034 
L 1109 2034 
L 1109 0 
L 503 0 
z
M 1109 2559 
L 2413 2559 
Q 2828 2559 3062 2645 
Q 3297 2731 3419 2920 
Q 3541 3109 3541 3331 
Q 3541 3656 3305 3865 
Q 3069 4075 2559 4075 
L 1109 4075 
L 1109 2559 
z
" transform="scale(0.015625)"/>
       <path id="ArialMT-6c" d="M 409 0 
L 409 4581 
L 972 4581 
L 972 0 
L 409 0 
z
" transform="scale(0.015625)"/>
      </defs>
      <use xlink:href="#ArialMT-52"/>
      <use xlink:href="#ArialMT-65" x="72.216797"/>
      <use xlink:href="#ArialMT-61" x="127.832031"/>
      <use xlink:href="#ArialMT-6c" x="183.447266"/>
     </g>
    </g>
    <g id="line2d_17">
     <path d="M 439.15625 78.643125 
L 449.15625 78.643125 
L 459.15625 78.643125 
" style="fill: none; stroke: #ff7f0e; stroke-width: 1.5; stroke-linecap: round"/>
    </g>
    <g id="text_18">
     <!-- Predicted -->
     <g style="fill: #262626" transform="translate(467.15625 82.143125) scale(0.1 -0.1)">
      <use xlink:href="#ArialMT-50"/>
      <use xlink:href="#ArialMT-72" x="66.699219"/>
      <use xlink:href="#ArialMT-65" x="100"/>
      <use xlink:href="#ArialMT-64" x="155.615234"/>
      <use xlink:href="#ArialMT-69" x="211.230469"/>
      <use xlink:href="#ArialMT-63" x="233.447266"/>
      <use xlink:href="#ArialMT-74" x="283.447266"/>
      <use xlink:href="#ArialMT-65" x="311.230469"/>
      <use xlink:href="#ArialMT-64" x="366.845703"/>
     </g>
    </g>
   </g>
  </g>
 </g>
 <defs>
  <clipPath id="p74c1fc5091">
   <rect x="72" y="51.84" width="446.4" height="332.64"/>
  </clipPath>
 </defs>
</svg>
