<?xml version="1.0" encoding="utf-8" standalone="no"?>
<!DOCTYPE svg PUBLIC "-//W3C//DTD SVG 1.1//EN"
  "http://www.w3.org/Graphics/SVG/1.1/DTD/svg11.dtd">
<svg xmlns:xlink="http://www.w3.org/1999/xlink" width="576pt" height="432pt" viewBox="0 0 576 432" xmlns="http://www.w3.org/2000/svg" version="1.1">
 <metadata>
  <rdf:RDF xmlns:dc="http://purl.org/dc/elements/1.1/" xmlns:cc="http://creativecommons.org/ns#" xmlns:rdf="http://www.w3.org/1999/02/22-rdf-syntax-ns#">
   <cc:Work>
    <dc:type rdf:resource="http://purl.org/dc/dcmitype/StillImage"/>
    <dc:date>2023-11-17T05:05:01.841470</dc:date>
    <dc:format>image/svg+xml</dc:format>
    <dc:creator>
     <cc:Agent>
      <dc:title>Matplotlib v3.8.0, https://matplotlib.org/</dc:title>
     </cc:Agent>
    </dc:creator>
   </cc:Work>
  </rdf:RDF>
 </metadata>
 <defs>
  <style type="text/css">*{stroke-linejoin: round; stroke-linecap: butt}</style>
 </defs>
 <g id="figure_1">
  <g id="patch_1">
   <path d="M 0 432 
L 576 432 
L 576 0 
L 0 0 
z
" style="fill: #ffffff"/>
  </g>
  <g id="axes_1">
   <g id="patch_2">
    <path d="M 72 384.48 
L 518.4 384.48 
L 518.4 51.84 
L 72 51.84 
z
" style="fill: #eaeaf2"/>
   </g>
   <g id="matplotlib.axis_1">
    <g id="xtick_1">
     <g id="line2d_1">
      <path d="M 92.290909 384.48 
L 92.290909 51.84 
" clip-path="url(#pd8d285a98e)" style="fill: none; stroke: #ffffff; stroke-width: 0.8; stroke-linecap: round"/>
     </g>
     <g id="text_1">
      <!-- 0 -->
      <g style="fill: #262626" transform="translate(89.51044 398.637812) scale(0.1 -0.1)">
       <defs>
        <path id="ArialMT-30" d="M 266 2259 
Q 266 3072 433 3567 
Q 600 4063 929 4331 
Q 1259 4600 1759 4600 
Q 2128 4600 2406 4451 
Q 2684 4303 2865 4023 
Q 3047 3744 3150 3342 
Q 3253 2941 3253 2259 
Q 3253 1453 3087 958 
Q 2922 463 2592 192 
Q 2263 -78 1759 -78 
Q 1097 -78 719 397 
Q 266 969 266 2259 
z
M 844 2259 
Q 844 1131 1108 757 
Q 1372 384 1759 384 
Q 2147 384 2411 759 
Q 2675 1134 2675 2259 
Q 2675 3391 2411 3762 
Q 2147 4134 1753 4134 
Q 1366 4134 1134 3806 
Q 844 3388 844 2259 
z
" transform="scale(0.015625)"/>
       </defs>
       <use xlink:href="#ArialMT-30"/>
      </g>
     </g>
    </g>
    <g id="xtick_2">
     <g id="line2d_2">
      <path d="M 185.049351 384.48 
L 185.049351 51.84 
" clip-path="url(#pd8d285a98e)" style="fill: none; stroke: #ffffff; stroke-width: 0.8; stroke-linecap: round"/>
     </g>
     <g id="text_2">
      <!-- 200 -->
      <g style="fill: #262626" transform="translate(176.707944 398.637812) scale(0.1 -0.1)">
       <defs>
        <path id="ArialMT-32" d="M 3222 541 
L 3222 0 
L 194 0 
Q 188 203 259 391 
Q 375 700 629 1000 
Q 884 1300 1366 1694 
Q 2113 2306 2375 2664 
Q 2638 3022 2638 3341 
Q 2638 3675 2398 3904 
Q 2159 4134 1775 4134 
Q 1369 4134 1125 3890 
Q 881 3647 878 3216 
L 300 3275 
Q 359 3922 746 4261 
Q 1134 4600 1788 4600 
Q 2447 4600 2831 4234 
Q 3216 3869 3216 3328 
Q 3216 3053 3103 2787 
Q 2991 2522 2730 2228 
Q 2469 1934 1863 1422 
Q 1356 997 1212 845 
Q 1069 694 975 541 
L 3222 541 
z
" transform="scale(0.015625)"/>
       </defs>
       <use xlink:href="#ArialMT-32"/>
       <use xlink:href="#ArialMT-30" x="55.615234"/>
       <use xlink:href="#ArialMT-30" x="111.230469"/>
      </g>
     </g>
    </g>
    <g id="xtick_3">
     <g id="line2d_3">
      <path d="M 277.807792 384.48 
L 277.807792 51.84 
" clip-path="url(#pd8d285a98e)" style="fill: none; stroke: #ffffff; stroke-width: 0.8; stroke-linecap: round"/>
     </g>
     <g id="text_3">
      <!-- 400 -->
      <g style="fill: #262626" transform="translate(269.466386 398.637812) scale(0.1 -0.1)">
       <defs>
        <path id="ArialMT-34" d="M 2069 0 
L 2069 1097 
L 81 1097 
L 81 1613 
L 2172 4581 
L 2631 4581 
L 2631 1613 
L 3250 1613 
L 3250 1097 
L 2631 1097 
L 2631 0 
L 2069 0 
z
M 2069 1613 
L 2069 3678 
L 634 1613 
L 2069 1613 
z
" transform="scale(0.015625)"/>
       </defs>
       <use xlink:href="#ArialMT-34"/>
       <use xlink:href="#ArialMT-30" x="55.615234"/>
       <use xlink:href="#ArialMT-30" x="111.230469"/>
      </g>
     </g>
    </g>
    <g id="xtick_4">
     <g id="line2d_4">
      <path d="M 370.566234 384.48 
L 370.566234 51.84 
" clip-path="url(#pd8d285a98e)" style="fill: none; stroke: #ffffff; stroke-width: 0.8; stroke-linecap: round"/>
     </g>
     <g id="text_4">
      <!-- 600 -->
      <g style="fill: #262626" transform="translate(362.224828 398.637812) scale(0.1 -0.1)">
       <defs>
        <path id="ArialMT-36" d="M 3184 3459 
L 2625 3416 
Q 2550 3747 2413 3897 
Q 2184 4138 1850 4138 
Q 1581 4138 1378 3988 
Q 1113 3794 959 3422 
Q 806 3050 800 2363 
Q 1003 2672 1297 2822 
Q 1591 2972 1913 2972 
Q 2475 2972 2870 2558 
Q 3266 2144 3266 1488 
Q 3266 1056 3080 686 
Q 2894 316 2569 119 
Q 2244 -78 1831 -78 
Q 1128 -78 684 439 
Q 241 956 241 2144 
Q 241 3472 731 4075 
Q 1159 4600 1884 4600 
Q 2425 4600 2770 4297 
Q 3116 3994 3184 3459 
z
M 888 1484 
Q 888 1194 1011 928 
Q 1134 663 1356 523 
Q 1578 384 1822 384 
Q 2178 384 2434 671 
Q 2691 959 2691 1453 
Q 2691 1928 2437 2201 
Q 2184 2475 1800 2475 
Q 1419 2475 1153 2201 
Q 888 1928 888 1484 
z
" transform="scale(0.015625)"/>
       </defs>
       <use xlink:href="#ArialMT-36"/>
       <use xlink:href="#ArialMT-30" x="55.615234"/>
       <use xlink:href="#ArialMT-30" x="111.230469"/>
      </g>
     </g>
    </g>
    <g id="xtick_5">
     <g id="line2d_5">
      <path d="M 463.324675 384.48 
L 463.324675 51.84 
" clip-path="url(#pd8d285a98e)" style="fill: none; stroke: #ffffff; stroke-width: 0.8; stroke-linecap: round"/>
     </g>
     <g id="text_5">
      <!-- 800 -->
      <g style="fill: #262626" transform="translate(454.983269 398.637812) scale(0.1 -0.1)">
       <defs>
        <path id="ArialMT-38" d="M 1131 2484 
Q 781 2613 612 2850 
Q 444 3088 444 3419 
Q 444 3919 803 4259 
Q 1163 4600 1759 4600 
Q 2359 4600 2725 4251 
Q 3091 3903 3091 3403 
Q 3091 3084 2923 2848 
Q 2756 2613 2416 2484 
Q 2838 2347 3058 2040 
Q 3278 1734 3278 1309 
Q 3278 722 2862 322 
Q 2447 -78 1769 -78 
Q 1091 -78 675 323 
Q 259 725 259 1325 
Q 259 1772 486 2073 
Q 713 2375 1131 2484 
z
M 1019 3438 
Q 1019 3113 1228 2906 
Q 1438 2700 1772 2700 
Q 2097 2700 2305 2904 
Q 2513 3109 2513 3406 
Q 2513 3716 2298 3927 
Q 2084 4138 1766 4138 
Q 1444 4138 1231 3931 
Q 1019 3725 1019 3438 
z
M 838 1322 
Q 838 1081 952 856 
Q 1066 631 1291 507 
Q 1516 384 1775 384 
Q 2178 384 2440 643 
Q 2703 903 2703 1303 
Q 2703 1709 2433 1975 
Q 2163 2241 1756 2241 
Q 1359 2241 1098 1978 
Q 838 1716 838 1322 
z
" transform="scale(0.015625)"/>
       </defs>
       <use xlink:href="#ArialMT-38"/>
       <use xlink:href="#ArialMT-30" x="55.615234"/>
       <use xlink:href="#ArialMT-30" x="111.230469"/>
      </g>
     </g>
    </g>
    <g id="text_6">
     <!-- Days -->
     <g style="fill: #262626" transform="translate(283.808594 411.783125) scale(0.1 -0.1)">
      <defs>
       <path id="ArialMT-44" d="M 494 0 
L 494 4581 
L 2072 4581 
Q 2606 4581 2888 4516 
Q 3281 4425 3559 4188 
Q 3922 3881 4101 3404 
Q 4281 2928 4281 2316 
Q 4281 1794 4159 1391 
Q 4038 988 3847 723 
Q 3656 459 3429 307 
Q 3203 156 2883 78 
Q 2563 0 2147 0 
L 494 0 
z
M 1100 541 
L 2078 541 
Q 2531 541 2789 625 
Q 3047 709 3200 863 
Q 3416 1078 3536 1442 
Q 3656 1806 3656 2325 
Q 3656 3044 3420 3430 
Q 3184 3816 2847 3947 
Q 2603 4041 2063 4041 
L 1100 4041 
L 1100 541 
z
" transform="scale(0.015625)"/>
       <path id="ArialMT-61" d="M 2588 409 
Q 2275 144 1986 34 
Q 1697 -75 1366 -75 
Q 819 -75 525 192 
Q 231 459 231 875 
Q 231 1119 342 1320 
Q 453 1522 633 1644 
Q 813 1766 1038 1828 
Q 1203 1872 1538 1913 
Q 2219 1994 2541 2106 
Q 2544 2222 2544 2253 
Q 2544 2597 2384 2738 
Q 2169 2928 1744 2928 
Q 1347 2928 1158 2789 
Q 969 2650 878 2297 
L 328 2372 
Q 403 2725 575 2942 
Q 747 3159 1072 3276 
Q 1397 3394 1825 3394 
Q 2250 3394 2515 3294 
Q 2781 3194 2906 3042 
Q 3031 2891 3081 2659 
Q 3109 2516 3109 2141 
L 3109 1391 
Q 3109 606 3145 398 
Q 3181 191 3288 0 
L 2700 0 
Q 2613 175 2588 409 
z
M 2541 1666 
Q 2234 1541 1622 1453 
Q 1275 1403 1131 1340 
Q 988 1278 909 1158 
Q 831 1038 831 891 
Q 831 666 1001 516 
Q 1172 366 1500 366 
Q 1825 366 2078 508 
Q 2331 650 2450 897 
Q 2541 1088 2541 1459 
L 2541 1666 
z
" transform="scale(0.015625)"/>
       <path id="ArialMT-79" d="M 397 -1278 
L 334 -750 
Q 519 -800 656 -800 
Q 844 -800 956 -737 
Q 1069 -675 1141 -563 
Q 1194 -478 1313 -144 
Q 1328 -97 1363 -6 
L 103 3319 
L 709 3319 
L 1400 1397 
Q 1534 1031 1641 628 
Q 1738 1016 1872 1384 
L 2581 3319 
L 3144 3319 
L 1881 -56 
Q 1678 -603 1566 -809 
Q 1416 -1088 1222 -1217 
Q 1028 -1347 759 -1347 
Q 597 -1347 397 -1278 
z
" transform="scale(0.015625)"/>
       <path id="ArialMT-73" d="M 197 991 
L 753 1078 
Q 800 744 1014 566 
Q 1228 388 1613 388 
Q 2000 388 2187 545 
Q 2375 703 2375 916 
Q 2375 1106 2209 1216 
Q 2094 1291 1634 1406 
Q 1016 1563 777 1677 
Q 538 1791 414 1992 
Q 291 2194 291 2438 
Q 291 2659 392 2848 
Q 494 3038 669 3163 
Q 800 3259 1026 3326 
Q 1253 3394 1513 3394 
Q 1903 3394 2198 3281 
Q 2494 3169 2634 2976 
Q 2775 2784 2828 2463 
L 2278 2388 
Q 2241 2644 2061 2787 
Q 1881 2931 1553 2931 
Q 1166 2931 1000 2803 
Q 834 2675 834 2503 
Q 834 2394 903 2306 
Q 972 2216 1119 2156 
Q 1203 2125 1616 2013 
Q 2213 1853 2448 1751 
Q 2684 1650 2818 1456 
Q 2953 1263 2953 975 
Q 2953 694 2789 445 
Q 2625 197 2315 61 
Q 2006 -75 1616 -75 
Q 969 -75 630 194 
Q 291 463 197 991 
z
" transform="scale(0.015625)"/>
      </defs>
      <use xlink:href="#ArialMT-44"/>
      <use xlink:href="#ArialMT-61" x="72.216797"/>
      <use xlink:href="#ArialMT-79" x="127.832031"/>
      <use xlink:href="#ArialMT-73" x="177.832031"/>
     </g>
    </g>
   </g>
   <g id="matplotlib.axis_2">
    <g id="ytick_1">
     <g id="line2d_6">
      <path d="M 72 351.892852 
L 518.4 351.892852 
" clip-path="url(#pd8d285a98e)" style="fill: none; stroke: #ffffff; stroke-width: 0.8; stroke-linecap: round"/>
     </g>
     <g id="text_7">
      <!-- 5 -->
      <g style="fill: #262626" transform="translate(59.439062 355.471758) scale(0.1 -0.1)">
       <defs>
        <path id="ArialMT-35" d="M 266 1200 
L 856 1250 
Q 922 819 1161 601 
Q 1400 384 1738 384 
Q 2144 384 2425 690 
Q 2706 997 2706 1503 
Q 2706 1984 2436 2262 
Q 2166 2541 1728 2541 
Q 1456 2541 1237 2417 
Q 1019 2294 894 2097 
L 366 2166 
L 809 4519 
L 3088 4519 
L 3088 3981 
L 1259 3981 
L 1013 2750 
Q 1425 3038 1878 3038 
Q 2478 3038 2890 2622 
Q 3303 2206 3303 1553 
Q 3303 931 2941 478 
Q 2500 -78 1738 -78 
Q 1113 -78 717 272 
Q 322 622 266 1200 
z
" transform="scale(0.015625)"/>
       </defs>
       <use xlink:href="#ArialMT-35"/>
      </g>
     </g>
    </g>
    <g id="ytick_2">
     <g id="line2d_7">
      <path d="M 72 297.308014 
L 518.4 297.308014 
" clip-path="url(#pd8d285a98e)" style="fill: none; stroke: #ffffff; stroke-width: 0.8; stroke-linecap: round"/>
     </g>
     <g id="text_8">
      <!-- 10 -->
      <g style="fill: #262626" transform="translate(53.878125 300.886921) scale(0.1 -0.1)">
       <defs>
        <path id="ArialMT-31" d="M 2384 0 
L 1822 0 
L 1822 3584 
Q 1619 3391 1289 3197 
Q 959 3003 697 2906 
L 697 3450 
Q 1169 3672 1522 3987 
Q 1875 4303 2022 4600 
L 2384 4600 
L 2384 0 
z
" transform="scale(0.015625)"/>
       </defs>
       <use xlink:href="#ArialMT-31"/>
       <use xlink:href="#ArialMT-30" x="55.615234"/>
      </g>
     </g>
    </g>
    <g id="ytick_3">
     <g id="line2d_8">
      <path d="M 72 242.723177 
L 518.4 242.723177 
" clip-path="url(#pd8d285a98e)" style="fill: none; stroke: #ffffff; stroke-width: 0.8; stroke-linecap: round"/>
     </g>
     <g id="text_9">
      <!-- 15 -->
      <g style="fill: #262626" transform="translate(53.878125 246.302083) scale(0.1 -0.1)">
       <use xlink:href="#ArialMT-31"/>
       <use xlink:href="#ArialMT-35" x="55.615234"/>
      </g>
     </g>
    </g>
    <g id="ytick_4">
     <g id="line2d_9">
      <path d="M 72 188.138339 
L 518.4 188.138339 
" clip-path="url(#pd8d285a98e)" style="fill: none; stroke: #ffffff; stroke-width: 0.8; stroke-linecap: round"/>
     </g>
     <g id="text_10">
      <!-- 20 -->
      <g style="fill: #262626" transform="translate(53.878125 191.717246) scale(0.1 -0.1)">
       <use xlink:href="#ArialMT-32"/>
       <use xlink:href="#ArialMT-30" x="55.615234"/>
      </g>
     </g>
    </g>
    <g id="ytick_5">
     <g id="line2d_10">
      <path d="M 72 133.553502 
L 518.4 133.553502 
" clip-path="url(#pd8d285a98e)" style="fill: none; stroke: #ffffff; stroke-width: 0.8; stroke-linecap: round"/>
     </g>
     <g id="text_11">
      <!-- 25 -->
      <g style="fill: #262626" transform="translate(53.878125 137.132408) scale(0.1 -0.1)">
       <use xlink:href="#ArialMT-32"/>
       <use xlink:href="#ArialMT-35" x="55.615234"/>
      </g>
     </g>
    </g>
    <g id="ytick_6">
     <g id="line2d_11">
      <path d="M 72 78.968664 
L 518.4 78.968664 
" clip-path="url(#pd8d285a98e)" style="fill: none; stroke: #ffffff; stroke-width: 0.8; stroke-linecap: round"/>
     </g>
     <g id="text_12">
      <!-- 30 -->
      <g style="fill: #262626" transform="translate(53.878125 82.547571) scale(0.1 -0.1)">
       <defs>
        <path id="ArialMT-33" d="M 269 1209 
L 831 1284 
Q 928 806 1161 595 
Q 1394 384 1728 384 
Q 2125 384 2398 659 
Q 2672 934 2672 1341 
Q 2672 1728 2419 1979 
Q 2166 2231 1775 2231 
Q 1616 2231 1378 2169 
L 1441 2663 
Q 1497 2656 1531 2656 
Q 1891 2656 2178 2843 
Q 2466 3031 2466 3422 
Q 2466 3731 2256 3934 
Q 2047 4138 1716 4138 
Q 1388 4138 1169 3931 
Q 950 3725 888 3313 
L 325 3413 
Q 428 3978 793 4289 
Q 1159 4600 1703 4600 
Q 2078 4600 2393 4439 
Q 2709 4278 2876 4000 
Q 3044 3722 3044 3409 
Q 3044 3113 2884 2869 
Q 2725 2625 2413 2481 
Q 2819 2388 3044 2092 
Q 3269 1797 3269 1353 
Q 3269 753 2831 336 
Q 2394 -81 1725 -81 
Q 1122 -81 723 278 
Q 325 638 269 1209 
z
" transform="scale(0.015625)"/>
       </defs>
       <use xlink:href="#ArialMT-33"/>
       <use xlink:href="#ArialMT-30" x="55.615234"/>
      </g>
     </g>
    </g>
    <g id="text_13">
     <!-- (°C) -->
     <g style="fill: #262626" transform="translate(47.773438 227.099844) rotate(-90) scale(0.1 -0.1)">
      <defs>
       <path id="ArialMT-28" d="M 1497 -1347 
Q 1031 -759 709 28 
Q 388 816 388 1659 
Q 388 2403 628 3084 
Q 909 3875 1497 4659 
L 1900 4659 
Q 1522 4009 1400 3731 
Q 1209 3300 1100 2831 
Q 966 2247 966 1656 
Q 966 153 1900 -1347 
L 1497 -1347 
z
" transform="scale(0.015625)"/>
       <path id="ArialMT-b0" d="M 400 3794 
Q 400 4153 654 4406 
Q 909 4659 1266 4659 
Q 1628 4659 1881 4406 
Q 2134 4153 2134 3794 
Q 2134 3434 1879 3179 
Q 1625 2925 1266 2925 
Q 909 2925 654 3178 
Q 400 3431 400 3794 
z
M 741 3794 
Q 741 3575 895 3420 
Q 1050 3266 1269 3266 
Q 1484 3266 1639 3420 
Q 1794 3575 1794 3794 
Q 1794 4013 1639 4167 
Q 1484 4322 1269 4322 
Q 1050 4322 895 4167 
Q 741 4013 741 3794 
z
" transform="scale(0.015625)"/>
       <path id="ArialMT-43" d="M 3763 1606 
L 4369 1453 
Q 4178 706 3683 314 
Q 3188 -78 2472 -78 
Q 1731 -78 1267 223 
Q 803 525 561 1097 
Q 319 1669 319 2325 
Q 319 3041 592 3573 
Q 866 4106 1370 4382 
Q 1875 4659 2481 4659 
Q 3169 4659 3637 4309 
Q 4106 3959 4291 3325 
L 3694 3184 
Q 3534 3684 3231 3912 
Q 2928 4141 2469 4141 
Q 1941 4141 1586 3887 
Q 1231 3634 1087 3207 
Q 944 2781 944 2328 
Q 944 1744 1114 1308 
Q 1284 872 1643 656 
Q 2003 441 2422 441 
Q 2931 441 3284 734 
Q 3638 1028 3763 1606 
z
" transform="scale(0.015625)"/>
       <path id="ArialMT-29" d="M 791 -1347 
L 388 -1347 
Q 1322 153 1322 1656 
Q 1322 2244 1188 2822 
Q 1081 3291 891 3722 
Q 769 4003 388 4659 
L 791 4659 
Q 1378 3875 1659 3084 
Q 1900 2403 1900 1659 
Q 1900 816 1576 28 
Q 1253 -759 791 -1347 
z
" transform="scale(0.015625)"/>
      </defs>
      <use xlink:href="#ArialMT-28"/>
      <use xlink:href="#ArialMT-b0" x="33.300781"/>
      <use xlink:href="#ArialMT-43" x="73.291016"/>
      <use xlink:href="#ArialMT-29" x="145.507812"/>
     </g>
    </g>
   </g>
   <g id="line2d_12">
    <path d="M 92.290909 157.57083 
L 92.754701 149.928953 
L 93.218494 153.204043 
L 93.682286 152.112347 
L 94.146078 166.304404 
L 94.60987 146.653863 
L 95.073662 153.204043 
L 95.537455 144.470469 
L 96.001247 157.57083 
L 96.465039 179.404765 
L 96.928831 159.754224 
L 97.392623 153.204043 
L 97.856416 180.496462 
L 98.320208 177.221372 
L 98.784 183.771552 
L 99.711584 185.954946 
L 100.175377 166.304404 
L 100.639169 160.845921 
L 101.102961 166.304404 
L 102.494338 153.204043 
L 103.421922 165.212708 
L 103.885714 163.029314 
L 104.349506 154.29574 
L 104.813299 167.396101 
L 105.277091 154.29574 
L 105.740883 146.653863 
L 106.204675 145.562166 
L 106.668468 295.124621 
L 107.13226 306.041588 
L 107.596052 294.032924 
L 108.059844 263.465415 
L 108.523636 249.273357 
L 108.987429 214.339061 
L 109.451221 247.089964 
L 109.915013 256.915235 
L 110.378805 256.915235 
L 110.842597 254.731841 
L 111.30639 224.164332 
L 111.770182 211.063971 
L 112.697766 237.264693 
L 113.161558 205.605487 
L 113.625351 203.422094 
L 114.089143 193.596823 
L 115.016727 223.072635 
L 115.480519 255.823538 
L 115.944312 218.705848 
L 116.408104 197.96361 
L 116.871896 200.147004 
L 117.799481 164.121011 
L 118.263273 291.849531 
L 118.727065 298.399711 
L 119.190857 290.757834 
L 119.654649 315.866859 
L 120.118442 351.892852 
L 120.582234 366.08491 
L 121.509818 336.609097 
L 121.97361 300.583105 
L 122.901195 268.923899 
L 123.828779 244.90657 
L 124.756364 313.683466 
L 125.220156 268.923899 
L 125.683948 249.273357 
L 126.14774 245.998267 
L 126.611532 219.797545 
L 127.075325 255.823538 
L 127.539117 230.714513 
L 128.002909 262.373718 
L 128.466701 276.565776 
L 128.930494 274.382383 
L 129.394286 252.548448 
L 129.858078 289.666137 
L 130.785662 298.399711 
L 131.249455 297.308014 
L 131.713247 283.115957 
L 132.177039 251.456751 
L 132.640831 272.198989 
L 133.104623 322.41704 
L 133.568416 327.875523 
L 134.032208 291.849531 
L 134.496 296.216318 
L 134.959792 287.482744 
L 135.423584 219.797545 
L 135.887377 300.583105 
L 136.351169 294.032924 
L 136.814961 271.107292 
L 137.278753 266.740505 
L 137.742545 258.006931 
L 138.206338 223.072635 
L 139.133922 275.474079 
L 139.597714 330.058917 
L 140.061506 345.342671 
L 140.525299 332.24231 
L 140.989091 315.866859 
L 141.452883 315.866859 
L 141.916675 352.984549 
L 142.380468 313.683466 
L 142.84426 307.133285 
L 143.308052 280.932563 
L 143.771844 244.90657 
L 144.235636 236.172996 
L 144.699429 282.02426 
L 145.163221 285.29935 
L 145.627013 264.557112 
L 146.090805 264.557112 
L 146.554597 304.949892 
L 147.01839 306.041588 
L 147.482182 309.316679 
L 147.945974 283.115957 
L 148.409766 267.832202 
L 148.873558 238.35639 
L 149.337351 266.740505 
L 149.801143 314.775162 
L 150.264935 332.24231 
L 150.728727 295.124621 
L 151.192519 297.308014 
L 151.656312 328.96722 
L 152.583896 279.840866 
L 153.047688 289.666137 
L 153.511481 303.858195 
L 153.975273 308.224982 
L 154.439065 347.526065 
L 154.902857 298.399711 
L 155.830442 243.814874 
L 156.294234 243.814874 
L 157.221818 219.797545 
L 157.68561 208.880578 
L 158.149403 208.880578 
L 158.613195 327.875523 
L 159.076987 347.526065 
L 159.540779 336.609097 
L 160.004571 285.29935 
L 160.468364 263.465415 
L 160.932156 309.316679 
L 161.395948 282.02426 
L 161.85974 226.347726 
L 162.323532 188.138339 
L 162.787325 189.230036 
L 163.251117 260.190325 
L 163.714909 265.648809 
L 164.178701 299.491408 
L 164.642494 291.849531 
L 165.570078 238.35639 
L 166.497662 274.382383 
L 166.961455 253.640144 
L 167.889039 183.771552 
L 168.352831 193.596823 
L 168.816623 196.871913 
L 169.280416 252.548448 
L 169.744208 361.718123 
L 170.208 366.08491 
L 170.671792 338.792491 
L 171.135584 343.159278 
L 171.599377 250.365054 
L 172.526961 194.68852 
L 172.990753 172.854585 
L 173.454545 191.41343 
L 173.918338 191.41343 
L 174.38213 185.954946 
L 174.845922 302.766498 
L 175.773506 294.032924 
L 176.237299 310.408375 
L 176.701091 300.583105 
L 177.164883 252.548448 
L 177.628675 247.089964 
L 178.092468 236.172996 
L 178.55626 221.980939 
L 179.483844 184.863249 
L 179.947636 203.422094 
L 180.875221 216.522455 
L 181.339013 215.430758 
L 181.802805 249.273357 
L 182.266597 308.224982 
L 182.73039 326.783827 
L 183.194182 302.766498 
L 183.657974 250.365054 
L 184.121766 228.531119 
L 184.585558 195.780217 
L 185.049351 195.780217 
L 185.513143 185.954946 
L 185.976935 193.596823 
L 186.440727 191.41343 
L 186.904519 203.422094 
L 187.368312 157.57083 
L 188.295896 196.871913 
L 188.759688 259.098628 
L 189.223481 252.548448 
L 189.687273 226.347726 
L 190.151065 190.321733 
L 190.614857 178.313069 
L 191.542442 221.980939 
L 192.006234 213.247365 
L 192.470026 207.788881 
L 192.933818 189.230036 
L 193.39761 178.313069 
L 193.861403 194.68852 
L 194.325195 173.946282 
L 194.788987 200.147004 
L 195.252779 197.96361 
L 195.716571 183.771552 
L 196.180364 163.029314 
L 196.644156 169.579495 
L 197.107948 155.387437 
L 197.57174 164.121011 
L 198.035532 169.579495 
L 198.963117 195.780217 
L 199.426909 187.046643 
L 199.890701 153.204043 
L 200.354494 132.461805 
L 200.818286 203.422094 
L 201.282078 215.430758 
L 201.74587 207.788881 
L 202.673455 172.854585 
L 203.137247 180.496462 
L 203.601039 171.762888 
L 204.992416 130.278412 
L 205.92 147.74556 
L 206.383792 140.103682 
L 206.847584 135.736895 
L 207.311377 133.553502 
L 208.238961 152.112347 
L 208.702753 149.928953 
L 209.166545 151.02065 
L 209.630338 147.74556 
L 210.09413 131.370108 
L 210.557922 143.378773 
L 211.021714 151.02065 
L 211.485506 141.195379 
L 211.949299 140.103682 
L 212.413091 146.653863 
L 212.876883 142.287076 
L 213.340675 147.74556 
L 213.804468 116.086354 
L 214.26826 111.719567 
L 214.732052 118.269747 
L 215.195844 166.304404 
L 215.659636 159.754224 
L 216.123429 165.212708 
L 216.587221 151.02065 
L 217.051013 153.204043 
L 217.514805 145.562166 
L 217.978597 142.287076 
L 218.44239 136.828592 
L 218.906182 141.195379 
L 219.369974 119.361444 
L 219.833766 104.07769 
L 220.761351 128.095018 
L 221.225143 128.095018 
L 221.688935 154.29574 
L 222.152727 172.854585 
L 222.616519 151.02065 
L 223.080312 151.02065 
L 223.544104 155.387437 
L 224.007896 156.479134 
L 224.471688 160.845921 
L 224.935481 159.754224 
L 225.399273 146.653863 
L 225.863065 136.828592 
L 226.326857 133.553502 
L 226.790649 135.736895 
L 227.254442 146.653863 
L 227.718234 135.736895 
L 228.182026 136.828592 
L 228.645818 136.828592 
L 229.10961 127.003321 
L 230.037195 166.304404 
L 230.500987 80.060361 
L 230.964779 118.269747 
L 231.428571 120.453141 
L 231.892364 130.278412 
L 232.356156 131.370108 
L 232.819948 143.378773 
L 233.28374 140.103682 
L 233.747532 141.195379 
L 234.211325 149.928953 
L 234.675117 133.553502 
L 235.138909 144.470469 
L 235.602701 168.487798 
L 236.066494 165.212708 
L 236.994078 154.29574 
L 237.45787 141.195379 
L 237.921662 151.02065 
L 238.385455 141.195379 
L 238.849247 142.287076 
L 239.776831 132.461805 
L 240.704416 123.728231 
L 241.168208 121.544838 
L 241.632 121.544838 
L 242.095792 128.095018 
L 242.559584 128.095018 
L 243.023377 129.186715 
L 243.487169 128.095018 
L 243.950961 129.186715 
L 244.414753 129.186715 
L 244.878545 124.819928 
L 245.342338 127.003321 
L 245.80613 112.811264 
L 246.269922 118.269747 
L 246.733714 121.544838 
L 247.197506 131.370108 
L 247.661299 119.361444 
L 248.125091 119.361444 
L 248.588883 154.29574 
L 249.052675 131.370108 
L 249.516468 127.003321 
L 249.98026 146.653863 
L 250.444052 144.470469 
L 250.907844 135.736895 
L 251.371636 135.736895 
L 251.835429 163.029314 
L 252.299221 145.562166 
L 252.763013 137.920289 
L 253.226805 135.736895 
L 253.690597 145.562166 
L 254.15439 144.470469 
L 254.618182 156.479134 
L 255.081974 184.863249 
L 255.545766 181.588159 
L 256.009558 122.636534 
L 256.473351 149.928953 
L 256.937143 158.662527 
L 257.400935 157.57083 
L 257.864727 165.212708 
L 258.328519 161.937617 
L 258.792312 152.112347 
L 259.256104 148.837256 
L 260.183688 130.278412 
L 260.647481 132.461805 
L 261.111273 151.02065 
L 261.575065 152.112347 
L 262.038857 145.562166 
L 262.502649 144.470469 
L 262.966442 140.103682 
L 263.430234 134.645199 
L 264.357818 151.02065 
L 264.82161 141.195379 
L 265.285403 147.74556 
L 265.749195 146.653863 
L 266.212987 157.57083 
L 266.676779 154.29574 
L 267.140571 163.029314 
L 267.604364 159.754224 
L 268.068156 154.29574 
L 268.531948 160.845921 
L 268.99574 164.121011 
L 269.459532 160.845921 
L 269.923325 156.479134 
L 270.387117 267.832202 
L 270.850909 273.290686 
L 271.778494 179.404765 
L 272.242286 158.662527 
L 272.706078 204.513791 
L 273.16987 213.247365 
L 273.633662 204.513791 
L 274.097455 184.863249 
L 274.561247 151.02065 
L 275.025039 156.479134 
L 275.488831 180.496462 
L 275.952623 195.780217 
L 276.416416 178.313069 
L 276.880208 262.373718 
L 277.344 271.107292 
L 277.807792 252.548448 
L 278.735377 180.496462 
L 279.199169 284.207653 
L 279.662961 286.391047 
L 280.126753 302.766498 
L 280.590545 266.740505 
L 281.054338 251.456751 
L 281.51813 231.806209 
L 281.981922 197.96361 
L 282.445714 176.129675 
L 283.373299 284.207653 
L 283.837091 272.198989 
L 284.300883 243.814874 
L 284.764675 285.29935 
L 285.228468 362.809819 
L 285.69226 369.36 
L 286.156052 338.792491 
L 286.619844 290.757834 
L 287.083636 300.583105 
L 288.011221 251.456751 
L 288.475013 240.539783 
L 288.938805 204.513791 
L 289.402597 191.41343 
L 289.86639 197.96361 
L 290.330182 237.264693 
L 290.793974 265.648809 
L 291.721558 229.622816 
L 292.185351 224.164332 
L 292.649143 253.640144 
L 293.112935 256.915235 
L 293.576727 217.614152 
L 294.040519 220.889242 
L 294.504312 267.832202 
L 294.968104 285.29935 
L 295.431896 254.731841 
L 295.895688 252.548448 
L 296.359481 233.989603 
L 296.823273 241.63148 
L 297.287065 251.456751 
L 297.750857 235.0813 
L 298.214649 262.373718 
L 298.678442 300.583105 
L 299.142234 315.866859 
L 299.606026 296.216318 
L 300.069818 240.539783 
L 300.53361 250.365054 
L 300.997403 219.797545 
L 301.461195 315.866859 
L 302.388779 352.984549 
L 302.852571 270.015596 
L 303.316364 289.666137 
L 303.780156 319.141949 
L 304.243948 321.325343 
L 305.171532 272.198989 
L 305.635325 236.172996 
L 306.099117 225.256029 
L 306.562909 219.797545 
L 307.026701 229.622816 
L 307.490494 275.474079 
L 307.954286 296.216318 
L 308.88187 271.107292 
L 309.345662 272.198989 
L 309.809455 308.224982 
L 310.273247 314.775162 
L 311.200831 262.373718 
L 311.664623 275.474079 
L 312.128416 259.098628 
L 312.592208 262.373718 
L 313.056 277.657473 
L 313.519792 306.041588 
L 313.983584 262.373718 
L 314.447377 260.190325 
L 315.374961 200.147004 
L 315.838753 202.330397 
L 316.302545 215.430758 
L 316.766338 266.740505 
L 317.693922 292.941227 
L 318.157714 265.648809 
L 318.621506 286.391047 
L 319.085299 273.290686 
L 320.012883 231.806209 
L 320.476675 244.90657 
L 320.940468 235.0813 
L 321.40426 270.015596 
L 321.868052 286.391047 
L 322.331844 313.683466 
L 322.795636 288.57444 
L 323.259429 297.308014 
L 323.723221 252.548448 
L 324.187013 245.998267 
L 325.114597 361.718123 
L 326.042182 285.29935 
L 326.505974 204.513791 
L 326.969766 213.247365 
L 327.433558 273.290686 
L 327.897351 287.482744 
L 328.361143 296.216318 
L 328.824935 292.941227 
L 329.752519 261.282022 
L 330.680104 203.422094 
L 331.607688 316.958556 
L 332.071481 330.058917 
L 332.535273 308.224982 
L 332.999065 278.74917 
L 333.462857 237.264693 
L 333.926649 215.430758 
L 334.390442 301.674801 
L 334.854234 336.609097 
L 335.318026 327.875523 
L 336.24561 264.557112 
L 336.709403 219.797545 
L 337.173195 194.68852 
L 337.636987 193.596823 
L 338.100779 273.290686 
L 338.564571 261.282022 
L 339.028364 262.373718 
L 339.955948 214.339061 
L 340.883532 202.330397 
L 341.347325 205.605487 
L 341.811117 199.055307 
L 342.274909 171.762888 
L 342.738701 179.404765 
L 343.202494 199.055307 
L 343.666286 195.780217 
L 344.130078 190.321733 
L 344.59387 196.871913 
L 345.057662 217.614152 
L 345.521455 245.998267 
L 345.985247 248.181661 
L 346.449039 214.339061 
L 346.912831 199.055307 
L 347.376623 169.579495 
L 347.840416 176.129675 
L 348.304208 176.129675 
L 348.768 143.378773 
L 349.231792 211.063971 
L 349.695584 227.439422 
L 350.159377 171.762888 
L 350.623169 204.513791 
L 351.086961 178.313069 
L 351.550753 158.662527 
L 352.014545 232.897906 
L 352.478338 230.714513 
L 352.94213 219.797545 
L 353.405922 185.954946 
L 353.869714 177.221372 
L 354.333506 154.29574 
L 354.797299 181.588159 
L 355.261091 187.046643 
L 355.724883 190.321733 
L 356.188675 192.505126 
L 357.11626 275.474079 
L 357.580052 253.640144 
L 358.043844 218.705848 
L 358.507636 166.304404 
L 358.971429 179.404765 
L 359.435221 171.762888 
L 359.899013 152.112347 
L 360.362805 137.920289 
L 361.29039 165.212708 
L 361.754182 151.02065 
L 362.217974 202.330397 
L 362.681766 176.129675 
L 363.609351 159.754224 
L 364.073143 176.129675 
L 364.536935 205.605487 
L 365.000727 177.221372 
L 365.464519 156.479134 
L 365.928312 153.204043 
L 366.392104 178.313069 
L 366.855896 168.487798 
L 367.319688 188.138339 
L 368.247273 199.055307 
L 368.711065 201.2387 
L 369.174857 190.321733 
L 369.638649 183.771552 
L 370.102442 165.212708 
L 370.566234 163.029314 
L 371.030026 147.74556 
L 371.493818 165.212708 
L 371.95761 188.138339 
L 372.885195 156.479134 
L 373.348987 132.461805 
L 373.812779 142.287076 
L 374.276571 167.396101 
L 374.740364 151.02065 
L 375.204156 155.387437 
L 375.667948 175.037978 
L 376.13174 178.313069 
L 376.595532 175.037978 
L 377.059325 145.562166 
L 377.523117 196.871913 
L 377.986909 165.212708 
L 378.450701 184.863249 
L 378.914494 190.321733 
L 379.842078 158.662527 
L 380.30587 149.928953 
L 380.769662 151.02065 
L 381.233455 148.837256 
L 381.697247 144.470469 
L 382.161039 143.378773 
L 382.624831 183.771552 
L 383.088623 154.29574 
L 383.552416 166.304404 
L 384.016208 182.679856 
L 384.48 176.129675 
L 384.943792 176.129675 
L 385.407584 175.037978 
L 386.335169 149.928953 
L 386.798961 155.387437 
L 387.262753 175.037978 
L 387.726545 142.287076 
L 388.190338 135.736895 
L 388.65413 134.645199 
L 389.117922 136.828592 
L 389.581714 180.496462 
L 390.045506 176.129675 
L 390.509299 157.57083 
L 390.973091 144.470469 
L 391.436883 158.662527 
L 391.900675 131.370108 
L 392.364468 140.103682 
L 392.82826 133.553502 
L 393.292052 136.828592 
L 393.755844 143.378773 
L 394.219636 136.828592 
L 394.683429 148.837256 
L 395.147221 136.828592 
L 395.611013 129.186715 
L 396.074805 125.911625 
L 396.538597 121.544838 
L 397.00239 129.186715 
L 397.466182 134.645199 
L 397.929974 137.920289 
L 398.393766 132.461805 
L 398.857558 137.920289 
L 399.321351 137.920289 
L 399.785143 130.278412 
L 400.248935 127.003321 
L 400.712727 159.754224 
L 401.176519 156.479134 
L 401.640312 142.287076 
L 402.104104 140.103682 
L 402.567896 145.562166 
L 403.495481 131.370108 
L 403.959273 140.103682 
L 404.423065 173.946282 
L 404.886857 145.562166 
L 405.350649 169.579495 
L 405.814442 176.129675 
L 406.278234 161.937617 
L 406.742026 143.378773 
L 407.205818 180.496462 
L 407.66961 161.937617 
L 408.133403 157.57083 
L 409.060987 141.195379 
L 409.524779 142.287076 
L 409.988571 141.195379 
L 410.452364 141.195379 
L 410.916156 163.029314 
L 411.379948 163.029314 
L 411.84374 159.754224 
L 412.307532 142.287076 
L 412.771325 143.378773 
L 413.235117 151.02065 
L 413.698909 149.928953 
L 414.162701 129.186715 
L 414.626494 137.920289 
L 415.090286 132.461805 
L 415.554078 135.736895 
L 416.01787 142.287076 
L 416.481662 106.261083 
L 416.945455 148.837256 
L 417.409247 142.287076 
L 417.873039 123.728231 
L 418.336831 131.370108 
L 418.800623 133.553502 
L 419.728208 127.003321 
L 420.192 119.361444 
L 420.655792 66.96 
L 421.119584 134.645199 
L 421.583377 133.553502 
L 422.047169 161.937617 
L 422.510961 152.112347 
L 422.974753 163.029314 
L 423.438545 146.653863 
L 423.902338 146.653863 
L 424.36613 66.96 
L 424.829922 120.453141 
L 425.293714 117.178051 
L 425.757506 136.828592 
L 426.221299 135.736895 
L 427.148883 135.736895 
L 427.612675 137.920289 
L 428.076468 137.920289 
L 428.54026 140.103682 
L 429.004052 134.645199 
L 429.467844 142.287076 
L 429.931636 144.470469 
L 430.395429 145.562166 
L 430.859221 141.195379 
L 431.323013 128.095018 
L 431.786805 129.186715 
L 432.250597 128.095018 
L 432.71439 141.195379 
L 433.641974 139.011986 
L 434.569558 141.195379 
L 435.033351 131.370108 
L 435.497143 149.928953 
L 435.960935 146.653863 
L 436.424727 146.653863 
L 436.888519 148.837256 
L 437.352312 131.370108 
L 437.816104 139.011986 
L 438.279896 133.553502 
L 438.743688 133.553502 
L 439.207481 137.920289 
L 440.135065 125.911625 
L 440.598857 117.178051 
L 441.062649 125.911625 
L 441.990234 151.02065 
L 442.454026 149.928953 
L 442.917818 140.103682 
L 443.38161 125.911625 
L 443.845403 154.29574 
L 444.309195 163.029314 
L 444.772987 160.845921 
L 445.236779 146.653863 
L 446.164364 171.762888 
L 446.628156 181.588159 
L 447.091948 182.679856 
L 447.55574 173.946282 
L 448.019532 175.037978 
L 448.483325 156.479134 
L 448.947117 161.937617 
L 449.410909 158.662527 
L 449.874701 163.029314 
L 450.802286 156.479134 
L 451.266078 160.845921 
L 451.72987 160.845921 
L 452.193662 167.396101 
L 452.657455 155.387437 
L 453.121247 151.02065 
L 453.585039 154.29574 
L 454.048831 154.29574 
L 454.976416 165.212708 
L 455.440208 155.387437 
L 455.904 156.479134 
L 456.367792 178.313069 
L 456.831584 192.505126 
L 457.295377 169.579495 
L 457.759169 189.230036 
L 458.222961 201.2387 
L 458.686753 202.330397 
L 459.614338 179.404765 
L 460.07813 173.946282 
L 460.541922 175.037978 
L 461.469506 221.980939 
L 461.933299 196.871913 
L 462.397091 205.605487 
L 462.860883 189.230036 
L 463.324675 196.871913 
L 463.788468 194.68852 
L 464.25226 172.854585 
L 464.716052 175.037978 
L 465.179844 163.029314 
L 465.643636 155.387437 
L 466.107429 201.2387 
L 466.571221 259.098628 
L 467.035013 243.814874 
L 467.498805 270.015596 
L 467.962597 243.814874 
L 468.42639 231.806209 
L 469.353974 187.046643 
L 469.817766 196.871913 
L 470.281558 242.723177 
L 470.745351 230.714513 
L 471.209143 199.055307 
L 471.672935 233.989603 
L 472.136727 242.723177 
L 473.064312 209.972274 
L 473.528104 208.880578 
L 473.991896 192.505126 
L 474.455688 180.496462 
L 474.919481 197.96361 
L 475.383273 239.448087 
L 475.847065 203.422094 
L 476.310857 176.129675 
L 476.774649 189.230036 
L 477.238442 182.679856 
L 477.702234 189.230036 
L 478.166026 261.282022 
L 478.629818 299.491408 
L 479.557403 273.290686 
L 480.484987 338.792491 
L 480.948779 314.775162 
L 481.412571 332.24231 
L 481.876364 340.975884 
L 482.340156 337.700794 
L 483.731532 243.814874 
L 484.195325 273.290686 
L 485.122909 299.491408 
L 485.586701 275.474079 
L 486.050494 237.264693 
L 486.978078 291.849531 
L 487.44187 267.832202 
L 487.905662 220.889242 
L 488.369455 185.954946 
L 488.833247 201.2387 
L 489.297039 212.155668 
L 489.760831 232.897906 
L 490.224623 199.055307 
L 490.688416 208.880578 
L 491.152208 213.247365 
L 491.616 238.35639 
L 492.079792 250.365054 
L 492.543584 274.382383 
L 493.007377 283.115957 
L 493.471169 288.57444 
L 493.934961 320.233646 
L 494.398753 295.124621 
L 494.862545 302.766498 
L 495.326338 298.399711 
L 495.79013 302.766498 
L 496.253922 196.871913 
L 496.717714 189.230036 
L 497.181506 171.762888 
L 497.645299 169.579495 
L 498.109091 215.430758 
L 498.109091 215.430758 
" clip-path="url(#pd8d285a98e)" style="fill: none; stroke: #1f77b4; stroke-width: 1.5; stroke-linecap: round"/>
   </g>
   <g id="line2d_13">
    <path d="M 92.290909 164.35837 
L 92.754701 161.52884 
L 93.218494 168.534355 
L 93.682286 169.316922 
L 94.146078 161.136649 
L 94.60987 158.568064 
L 95.073662 162.483438 
L 95.537455 156.548641 
L 96.001247 152.530886 
L 96.928831 173.910976 
L 97.392623 159.863211 
L 97.856416 156.768629 
L 98.320208 159.012416 
L 98.784 172.843258 
L 99.247792 180.890442 
L 99.711584 179.875639 
L 100.175377 180.631207 
L 100.639169 166.53286 
L 101.102961 162.67941 
L 101.566753 164.386565 
L 102.030545 163.710446 
L 102.95813 163.643458 
L 103.421922 162.153421 
L 103.885714 169.960413 
L 104.349506 161.47207 
L 104.813299 160.382887 
L 105.277091 163.121265 
L 105.740883 159.756694 
L 106.204675 158.5626 
L 106.668468 158.431364 
L 107.13226 263.690663 
L 107.596052 289.452775 
L 108.059844 264.63148 
L 108.523636 255.610496 
L 108.987429 242.304861 
L 109.451221 236.644392 
L 109.915013 255.891816 
L 110.378805 244.541305 
L 110.842597 275.057233 
L 111.30639 278.540381 
L 111.770182 248.469104 
L 112.233974 231.257532 
L 112.697766 223.859794 
L 113.161558 228.354445 
L 113.625351 218.440621 
L 114.089143 215.834693 
L 114.552935 214.757501 
L 115.016727 236.378961 
L 115.480519 233.522182 
L 115.944312 235.167214 
L 116.408104 213.385435 
L 116.871896 219.773401 
L 117.335688 201.773128 
L 117.799481 195.392647 
L 118.263273 201.131192 
L 118.727065 275.22881 
L 119.190857 288.401654 
L 119.654649 259.155934 
L 120.582234 324.965761 
L 121.046026 300.19526 
L 121.509818 298.221033 
L 121.97361 285.603903 
L 122.437403 289.2628 
L 122.901195 274.143 
L 123.364987 284.614957 
L 123.828779 303.649628 
L 124.292571 292.852953 
L 124.756364 304.303821 
L 125.220156 284.531556 
L 125.683948 273.285509 
L 126.14774 273.958454 
L 127.075325 262.32025 
L 127.539117 270.982693 
L 128.002909 255.597103 
L 128.466701 273.577347 
L 128.930494 278.54294 
L 129.394286 262.001013 
L 129.858078 263.101097 
L 130.32187 269.16064 
L 130.785662 292.538045 
L 131.249455 290.071733 
L 131.713247 283.894025 
L 132.177039 273.301458 
L 132.640831 272.278843 
L 133.104623 305.55805 
L 133.568416 284.062561 
L 134.032208 286.497327 
L 134.496 276.736986 
L 134.959792 290.313945 
L 135.423584 287.3054 
L 135.887377 253.234393 
L 136.351169 286.038893 
L 137.278753 273.020273 
L 137.742545 252.027791 
L 138.67013 261.99347 
L 139.133922 298.150728 
L 139.597714 303.404015 
L 140.061506 321.853356 
L 140.525299 327.376822 
L 140.989091 315.906049 
L 141.452883 308.318665 
L 141.916675 305.999124 
L 142.380468 321.336756 
L 142.84426 284.912918 
L 143.308052 284.193359 
L 143.771844 273.073856 
L 144.235636 252.040453 
L 144.699429 241.672498 
L 145.163221 277.028508 
L 145.627013 277.799689 
L 146.090805 269.775762 
L 146.554597 265.451596 
L 147.01839 307.197061 
L 147.945974 292.660003 
L 148.873558 256.857876 
L 149.337351 248.803877 
L 150.264935 289.152736 
L 150.728727 279.329571 
L 151.656312 301.886125 
L 152.120104 290.27488 
L 152.583896 298.806272 
L 153.511481 274.7146 
L 153.975273 288.52655 
L 154.439065 307.401929 
L 154.902857 296.778436 
L 155.366649 278.103533 
L 155.830442 273.637272 
L 156.294234 251.360856 
L 156.758026 255.602143 
L 157.221818 262.615948 
L 157.68561 224.189886 
L 158.149403 227.507315 
L 158.613195 222.705459 
L 159.076987 326.353299 
L 159.540779 330.150333 
L 160.004571 292.621191 
L 160.468364 279.834167 
L 160.932156 284.214817 
L 161.395948 271.600711 
L 161.85974 271.563456 
L 162.323532 252.386277 
L 162.787325 221.961947 
L 163.251117 240.764808 
L 163.714909 277.51285 
L 164.178701 269.012317 
L 164.642494 277.475884 
L 165.106286 293.363733 
L 165.570078 287.96572 
L 166.03387 257.332437 
L 166.497662 248.138833 
L 166.961455 250.535871 
L 167.425247 237.784899 
L 167.889039 217.584826 
L 168.352831 212.852926 
L 168.816623 210.94358 
L 169.280416 205.334008 
L 169.744208 225.675666 
L 170.208 328.413721 
L 170.671792 315.891118 
L 171.135584 308.808298 
L 171.599377 292.164958 
L 172.063169 259.901567 
L 172.526961 241.303546 
L 172.990753 228.863001 
L 173.454545 208.194981 
L 173.918338 212.293939 
L 174.38213 204.562985 
L 174.845922 203.930258 
L 175.309714 281.871343 
L 175.773506 284.169504 
L 176.237299 266.891707 
L 176.701091 285.350645 
L 177.164883 281.386242 
L 177.628675 253.181375 
L 178.092468 255.975858 
L 178.55626 244.116481 
L 179.020052 225.571624 
L 179.483844 212.471415 
L 179.947636 213.443996 
L 180.411429 223.134708 
L 180.875221 216.5557 
L 181.339013 214.591845 
L 181.802805 219.469972 
L 182.266597 235.783985 
L 182.73039 315.261094 
L 183.194182 291.553241 
L 183.657974 273.808019 
L 184.585558 217.446063 
L 185.049351 219.247924 
L 185.513143 200.721152 
L 185.976935 199.359003 
L 186.904519 179.063346 
L 187.368312 183.848392 
L 187.832104 174.76565 
L 188.295896 207.080377 
L 188.759688 201.401634 
L 189.223481 250.211617 
L 190.151065 197.519913 
L 190.614857 192.902832 
L 191.078649 190.363414 
L 191.542442 192.665494 
L 192.006234 206.731104 
L 193.861403 187.178415 
L 194.325195 178.774589 
L 194.788987 172.75248 
L 195.252779 176.69434 
L 195.716571 184.491933 
L 196.180364 181.812043 
L 196.644156 164.242325 
L 197.107948 159.591141 
L 197.57174 158.383334 
L 198.035532 165.350264 
L 198.499325 165.63447 
L 198.963117 175.791158 
L 199.426909 180.785545 
L 199.890701 178.877708 
L 200.354494 158.265543 
L 200.818286 164.47294 
L 201.282078 220.405712 
L 201.74587 220.89526 
L 202.209662 211.547214 
L 202.673455 191.188606 
L 203.137247 183.251735 
L 203.601039 184.901793 
L 204.064831 178.87757 
L 204.528623 164.523023 
L 205.456208 161.495882 
L 205.92 154.878916 
L 206.383792 154.911593 
L 206.847584 152.315859 
L 207.311377 148.066931 
L 208.238961 146.31399 
L 208.702753 152.618599 
L 209.166545 152.196246 
L 209.630338 150.808788 
L 210.09413 151.840305 
L 210.557922 153.687142 
L 211.021714 146.549409 
L 211.485506 150.14331 
L 211.949299 148.054754 
L 212.413091 147.313704 
L 212.876883 147.503026 
L 213.340675 143.269821 
L 213.804468 135.616654 
L 214.26826 136.484227 
L 214.732052 136.312722 
L 215.195844 133.561574 
L 215.659636 152.859638 
L 216.123429 161.054573 
L 216.587221 158.260265 
L 217.051013 152.728009 
L 217.514805 148.790218 
L 217.978597 147.390114 
L 218.44239 142.284144 
L 219.369974 140.44293 
L 220.297558 133.319795 
L 220.761351 142.564481 
L 221.225143 141.161833 
L 221.688935 135.469336 
L 222.152727 143.054797 
L 222.616519 161.466525 
L 223.080312 153.090869 
L 223.544104 152.58337 
L 224.007896 150.707178 
L 224.471688 145.195439 
L 225.399273 151.6771 
L 225.863065 147.729815 
L 226.790649 142.625371 
L 227.254442 140.553318 
L 227.718234 140.411565 
L 228.182026 140.646579 
L 228.645818 134.70501 
L 229.10961 134.911623 
L 229.573403 135.561926 
L 230.037195 143.339593 
L 230.500987 144.674353 
L 230.964779 136.162659 
L 231.428571 135.358885 
L 231.892364 140.404608 
L 232.356156 139.599416 
L 232.819948 137.271898 
L 233.28374 135.652005 
L 234.211325 137.311332 
L 234.675117 138.003857 
L 235.138909 141.070331 
L 235.602701 147.843736 
L 236.066494 161.56953 
L 236.530286 153.699363 
L 236.994078 153.6518 
L 237.45787 154.207248 
L 237.921662 144.033779 
L 238.385455 144.893614 
L 238.849247 139.932176 
L 239.313039 138.308966 
L 239.776831 137.287207 
L 240.240623 134.01102 
L 240.704416 135.16342 
L 241.168208 134.149562 
L 242.095792 134.911623 
L 242.559584 133.893418 
L 243.023377 134.660138 
L 243.487169 133.395358 
L 243.950961 134.245134 
L 244.414753 134.177955 
L 244.878545 134.896902 
L 245.342338 133.898606 
L 245.80613 134.446173 
L 246.269922 135.424593 
L 246.733714 133.630392 
L 247.197506 135.395489 
L 247.661299 134.709944 
L 248.125091 133.438202 
L 248.588883 134.402317 
L 249.052675 140.267866 
L 249.516468 137.790498 
L 249.98026 143.01655 
L 250.444052 145.494133 
L 250.907844 143.038307 
L 251.371636 139.88125 
L 251.835429 142.906305 
L 252.299221 154.940933 
L 253.226805 145.959689 
L 253.690597 147.896008 
L 254.15439 153.621701 
L 254.618182 146.555367 
L 255.081974 153.277132 
L 255.545766 182.291315 
L 256.009558 176.901052 
L 256.473351 147.658392 
L 257.400935 161.591153 
L 257.864727 163.546539 
L 258.792312 154.695136 
L 259.256104 156.239976 
L 259.719896 146.181931 
L 260.183688 153.132344 
L 261.111273 156.474057 
L 261.575065 154.36462 
L 262.038857 155.852863 
L 262.502649 154.744601 
L 262.966442 154.586902 
L 263.430234 150.304303 
L 263.894026 148.779204 
L 264.357818 149.522737 
L 264.82161 153.554011 
L 265.285403 154.075561 
L 265.749195 152.157238 
L 266.212987 152.383306 
L 266.676779 153.741535 
L 267.140571 154.745503 
L 267.604364 155.443921 
L 268.531948 151.113499 
L 268.99574 154.893942 
L 269.459532 161.993403 
L 269.923325 160.664753 
L 270.387117 158.652078 
L 270.850909 227.043569 
L 271.314701 263.185594 
L 271.778494 208.061579 
L 272.242286 183.235499 
L 272.706078 169.031141 
L 273.16987 203.111211 
L 273.633662 212.958791 
L 275.025039 177.362972 
L 275.488831 167.81427 
L 275.952623 189.227754 
L 276.880208 174.663033 
L 277.344 247.001153 
L 277.807792 233.372698 
L 278.271584 240.172092 
L 278.735377 202.566236 
L 279.199169 209.580109 
L 279.662961 269.144311 
L 280.126753 295.854618 
L 281.054338 242.809903 
L 281.51813 238.066897 
L 281.981922 219.412149 
L 282.445714 217.805274 
L 282.909506 206.386444 
L 283.373299 210.799221 
L 283.837091 280.131858 
L 284.300883 254.394658 
L 284.764675 243.572555 
L 285.228468 247.034109 
L 285.69226 343.644214 
L 286.619844 287.365637 
L 287.083636 286.334863 
L 287.547429 268.779792 
L 288.011221 274.734731 
L 288.475013 274.614856 
L 288.938805 248.504918 
L 289.402597 241.540166 
L 289.86639 224.866578 
L 290.330182 224.950417 
L 290.793974 247.292811 
L 291.257766 240.588283 
L 291.721558 226.559221 
L 292.185351 237.640749 
L 292.649143 259.399831 
L 293.112935 254.052733 
L 293.576727 242.051793 
L 294.040519 221.329201 
L 294.504312 242.535409 
L 294.968104 247.080548 
L 295.431896 256.301585 
L 295.895688 247.791904 
L 296.359481 260.610601 
L 296.823273 234.931552 
L 297.287065 237.640917 
L 297.750857 247.397652 
L 298.214649 238.163526 
L 298.678442 277.617173 
L 299.142234 303.729989 
L 299.606026 269.536852 
L 300.069818 268.798195 
L 300.53361 244.036107 
L 300.997403 259.987344 
L 301.461195 247.323738 
L 301.924987 327.43314 
L 302.388779 304.342387 
L 302.852571 298.829719 
L 303.316364 260.118238 
L 303.780156 274.393775 
L 304.243948 283.018558 
L 304.70774 279.797805 
L 305.171532 287.851459 
L 305.635325 288.581061 
L 306.099117 269.616646 
L 306.562909 264.16724 
L 307.026701 245.695073 
L 307.490494 270.806015 
L 307.954286 287.467685 
L 308.418078 295.05197 
L 308.88187 274.841252 
L 309.345662 289.625 
L 309.809455 308.165816 
L 310.737039 282.024313 
L 311.200831 261.460497 
L 311.664623 278.805839 
L 312.128416 271.340851 
L 312.592208 275.686048 
L 313.056 295.974907 
L 313.519792 296.501935 
L 313.983584 283.906569 
L 314.447377 263.239887 
L 314.911169 262.352218 
L 315.374961 261.721785 
L 315.838753 245.112578 
L 316.302545 240.016133 
L 316.766338 228.787449 
L 317.23013 276.095053 
L 317.693922 274.094288 
L 318.157714 276.872584 
L 318.621506 271.84012 
L 319.085299 274.573672 
L 319.549091 266.609877 
L 320.012883 267.370011 
L 320.476675 239.270513 
L 320.940468 246.44591 
L 321.40426 248.864937 
L 321.868052 274.563173 
L 322.331844 289.279034 
L 322.795636 299.222927 
L 323.259429 270.819539 
L 323.723221 269.409153 
L 324.187013 264.409674 
L 324.650805 269.39791 
L 325.114597 318.037782 
L 325.57839 328.512391 
L 326.042182 311.625453 
L 326.505974 279.126578 
L 326.969766 234.116052 
L 327.433558 242.157589 
L 327.897351 293.008169 
L 328.361143 299.943341 
L 328.824935 285.84028 
L 329.288727 294.286501 
L 329.752519 253.08804 
L 330.216312 251.373026 
L 330.680104 232.461875 
L 331.143896 227.33253 
L 331.607688 272.81596 
L 332.071481 294.505725 
L 332.535273 307.126379 
L 332.999065 270.367766 
L 333.462857 263.745775 
L 334.390442 230.790829 
L 334.854234 299.846695 
L 335.318026 294.428936 
L 335.781818 286.991395 
L 336.709403 235.367329 
L 337.173195 253.225416 
L 337.636987 257.485465 
L 338.100779 221.71239 
L 338.564571 268.113443 
L 339.028364 236.651289 
L 339.955948 224.438094 
L 340.41974 222.248618 
L 340.883532 221.101038 
L 341.347325 213.41402 
L 341.811117 219.635838 
L 342.738701 181.769506 
L 343.202494 188.559304 
L 343.666286 199.683599 
L 344.130078 184.963581 
L 344.59387 178.635571 
L 345.057662 166.238727 
L 345.521455 214.082848 
L 345.985247 239.124064 
L 346.449039 219.782666 
L 346.912831 206.384975 
L 347.840416 169.380355 
L 348.304208 189.404716 
L 348.768 195.396644 
L 349.231792 162.866421 
L 349.695584 212.577551 
L 350.159377 208.644372 
L 350.623169 164.073603 
L 351.086961 189.469811 
L 352.014545 175.344904 
L 352.478338 240.735756 
L 352.94213 240.102266 
L 353.405922 210.529655 
L 353.869714 191.033406 
L 354.797299 165.826936 
L 355.261091 194.061564 
L 355.724883 197.365748 
L 356.188675 182.934155 
L 356.652468 173.698527 
L 357.11626 230.710266 
L 357.580052 263.927575 
L 358.043844 238.660585 
L 358.507636 196.07592 
L 358.971429 186.214721 
L 359.435221 192.129566 
L 359.899013 167.1743 
L 360.362805 169.308217 
L 361.29039 149.995643 
L 361.754182 143.418352 
L 362.217974 151.651069 
L 362.681766 193.008238 
L 363.145558 166.15899 
L 363.609351 157.099373 
L 364.073143 156.396673 
L 364.536935 181.494683 
L 365.000727 175.36166 
L 365.928312 154.763989 
L 366.392104 148.331103 
L 366.855896 152.745577 
L 367.783481 164.899544 
L 368.247273 175.97735 
L 368.711065 194.622915 
L 369.174857 191.439668 
L 369.638649 181.547552 
L 370.102442 181.710566 
L 370.566234 168.170703 
L 371.030026 168.238411 
L 371.493818 166.389324 
L 371.95761 161.261978 
L 372.421403 171.429587 
L 372.885195 157.569404 
L 373.348987 149.186605 
L 374.276571 155.15878 
L 374.740364 151.907612 
L 375.204156 150.830623 
L 375.667948 166.001716 
L 376.13174 165.289146 
L 376.595532 178.013199 
L 377.059325 158.995292 
L 377.523117 149.467088 
L 377.986909 181.753213 
L 378.450701 164.171539 
L 378.914494 174.721301 
L 379.378286 182.372559 
L 379.842078 167.19884 
L 380.30587 159.22271 
L 380.769662 163.364583 
L 381.233455 158.376491 
L 381.697247 146.966153 
L 382.161039 147.104474 
L 382.624831 146.106264 
L 383.088623 157.877373 
L 383.552416 153.088955 
L 384.016208 165.265275 
L 384.48 166.606969 
L 384.943792 165.062847 
L 385.407584 159.566198 
L 385.871377 158.585146 
L 386.335169 158.748713 
L 386.798961 158.451716 
L 387.262753 150.659503 
L 387.726545 154.331144 
L 388.190338 147.955989 
L 388.65413 145.585031 
L 389.117922 140.396456 
L 389.581714 141.064055 
L 390.045506 153.351535 
L 390.509299 159.943578 
L 390.973091 160.421481 
L 391.436883 158.824632 
L 391.900675 160.937076 
L 392.364468 150.955983 
L 392.82826 153.39719 
L 393.292052 148.141062 
L 394.219636 148.211691 
L 394.683429 138.998462 
L 395.147221 141.590489 
L 395.611013 139.165307 
L 396.074805 138.742317 
L 396.538597 147.287458 
L 397.00239 134.531272 
L 397.466182 133.3653 
L 397.929974 134.01102 
L 398.393766 132.604903 
L 398.857558 133.86112 
L 399.321351 133.369059 
L 399.785143 139.776818 
L 400.248935 135.680103 
L 400.712727 139.321243 
L 401.176519 154.203739 
L 401.640312 157.504598 
L 402.104104 146.855585 
L 402.567896 147.760998 
L 403.031688 145.286518 
L 403.495481 143.59029 
L 403.959273 137.474708 
L 404.423065 149.13368 
L 404.886857 171.241849 
L 405.350649 162.293498 
L 405.814442 167.307206 
L 406.278234 168.970909 
L 406.742026 163.398202 
L 407.205818 155.298741 
L 407.66961 162.379402 
L 408.133403 153.577702 
L 408.597195 155.66725 
L 409.060987 153.316058 
L 409.524779 148.974333 
L 409.988571 155.444187 
L 410.452364 146.845116 
L 410.916156 145.29015 
L 411.379948 151.917204 
L 411.84374 152.159068 
L 412.307532 151.761294 
L 412.771325 145.332463 
L 413.235117 145.532376 
L 413.698909 144.981588 
L 414.162701 143.977754 
L 414.626494 141.624015 
L 415.090286 146.536688 
L 415.554078 143.089455 
L 416.01787 135.651634 
L 416.945455 143.691208 
L 417.409247 152.487228 
L 418.336831 134.810445 
L 418.800623 138.443015 
L 419.264416 145.553239 
L 419.728208 143.522446 
L 420.192 142.534747 
L 420.655792 152.448972 
L 421.119584 136.097424 
L 421.583377 150.114091 
L 422.047169 157.263218 
L 422.974753 177.880647 
L 423.438545 190.773509 
L 423.902338 164.66442 
L 424.36613 159.718802 
L 424.829922 136.448562 
L 425.293714 134.616893 
L 425.757506 144.1785 
L 426.221299 136.347573 
L 427.148883 132.819875 
L 427.612675 140.679014 
L 428.076468 132.923434 
L 428.54026 139.297569 
L 429.004052 141.594007 
L 429.467844 139.389621 
L 429.931636 140.224494 
L 430.395429 140.285999 
L 430.859221 142.351827 
L 431.323013 134.535308 
L 431.786805 131.590945 
L 432.250597 133.087829 
L 432.71439 133.391446 
L 433.178182 139.564842 
L 433.641974 139.598831 
L 434.105766 139.513974 
L 435.033351 133.055407 
L 435.497143 133.245643 
L 435.960935 144.085276 
L 436.424727 144.934961 
L 436.888519 147.721583 
L 437.352312 149.340696 
L 437.816104 146.797912 
L 438.279896 142.596452 
L 438.743688 140.809783 
L 439.207481 141.64988 
L 439.671273 140.967012 
L 440.135065 136.1627 
L 440.598857 135.934207 
L 441.062649 139.249947 
L 441.526442 139.949424 
L 441.990234 144.742241 
L 442.454026 156.871093 
L 442.917818 147.407083 
L 443.38161 145.64912 
L 443.845403 141.71262 
L 444.309195 153.820571 
L 444.772987 160.626416 
L 445.236779 156.01851 
L 445.700571 148.287943 
L 446.164364 158.895429 
L 446.628156 163.580793 
L 447.091948 187.548154 
L 447.55574 171.243096 
L 448.019532 166.471249 
L 448.483325 159.202899 
L 448.947117 160.829161 
L 449.410909 167.322579 
L 449.874701 159.913865 
L 450.338494 158.099461 
L 450.802286 157.916317 
L 451.266078 154.970796 
L 451.72987 162.719492 
L 452.657455 155.029424 
L 453.121247 155.722154 
L 453.585039 153.356465 
L 454.048831 153.394703 
L 454.976416 155.404404 
L 455.440208 154.717568 
L 455.904 154.717568 
L 456.367792 156.613727 
L 456.831584 170.700398 
L 457.295377 177.775637 
L 457.759169 166.275575 
L 458.222961 180.425621 
L 458.686753 188.74794 
L 459.614338 192.083188 
L 460.541922 179.840024 
L 461.005714 177.88077 
L 461.469506 187.72696 
L 461.933299 212.899399 
L 462.397091 197.118822 
L 462.860883 195.646498 
L 463.324675 203.857444 
L 463.788468 203.064065 
L 464.25226 195.641202 
L 464.716052 179.465838 
L 465.179844 175.84395 
L 465.643636 168.145486 
L 466.107429 169.739246 
L 466.571221 190.687927 
L 467.035013 260.809947 
L 467.498805 226.212474 
L 467.962597 231.798163 
L 468.42639 209.476488 
L 469.353974 221.656667 
L 469.817766 208.583142 
L 470.745351 235.535461 
L 471.209143 226.498883 
L 471.672935 202.565999 
L 472.136727 231.382219 
L 472.600519 232.683181 
L 473.064312 227.879203 
L 473.528104 224.5189 
L 473.991896 224.73185 
L 474.455688 209.869455 
L 474.919481 203.438513 
L 475.383273 209.398364 
L 475.847065 218.561393 
L 476.310857 196.459189 
L 476.774649 192.145349 
L 477.238442 190.208638 
L 477.702234 193.952666 
L 478.166026 200.888494 
L 478.629818 266.552322 
L 479.09361 261.477135 
L 479.557403 242.252911 
L 480.484987 302.867921 
L 480.948779 299.364147 
L 481.412571 291.788022 
L 482.340156 332.767214 
L 482.803948 314.196348 
L 483.26774 304.714211 
L 483.731532 276.593536 
L 484.195325 258.704882 
L 484.659117 293.900749 
L 485.122909 290.366411 
L 485.586701 295.788215 
L 486.050494 294.945422 
L 486.514286 256.22682 
L 486.978078 288.182598 
L 487.44187 288.014476 
L 487.905662 259.132859 
L 488.369455 241.363171 
L 488.833247 228.090641 
L 489.297039 233.976227 
L 489.760831 233.780615 
L 490.224623 238.726676 
L 490.688416 251.976286 
L 491.152208 250.96735 
L 491.616 242.411688 
L 492.079792 248.581051 
L 492.543584 280.610367 
L 493.007377 290.750036 
L 493.471169 278.048276 
L 493.934961 295.1905 
L 494.398753 297.656054 
L 494.862545 275.368225 
L 495.326338 293.570527 
L 495.79013 297.900912 
L 496.253922 278.226491 
L 496.717714 213.823865 
L 497.181506 218.788377 
L 498.109091 182.000638 
L 498.109091 182.000638 
" clip-path="url(#pd8d285a98e)" style="fill: none; stroke: #ff7f0e; stroke-width: 1.5; stroke-linecap: round"/>
   </g>
   <g id="patch_3">
    <path d="M 72 384.48 
L 72 51.84 
" style="fill: none; stroke: #ffffff; stroke-width: 0.8; stroke-linejoin: miter; stroke-linecap: square"/>
   </g>
   <g id="patch_4">
    <path d="M 518.4 384.48 
L 518.4 51.84 
" style="fill: none; stroke: #ffffff; stroke-width: 0.8; stroke-linejoin: miter; stroke-linecap: square"/>
   </g>
   <g id="patch_5">
    <path d="M 72 384.48 
L 518.4 384.48 
" style="fill: none; stroke: #ffffff; stroke-width: 0.8; stroke-linejoin: miter; stroke-linecap: square"/>
   </g>
   <g id="patch_6">
    <path d="M 72 51.84 
L 518.4 51.84 
" style="fill: none; stroke: #ffffff; stroke-width: 0.8; stroke-linejoin: miter; stroke-linecap: square"/>
   </g>
   <g id="text_14">
    <!-- Minimum Temperature Prediction 2 Days Ahead -->
    <g style="fill: #262626" transform="translate(168.256875 45.84) scale(0.12 -0.12)">
     <defs>
      <path id="ArialMT-4d" d="M 475 0 
L 475 4581 
L 1388 4581 
L 2472 1338 
Q 2622 884 2691 659 
Q 2769 909 2934 1394 
L 4031 4581 
L 4847 4581 
L 4847 0 
L 4263 0 
L 4263 3834 
L 2931 0 
L 2384 0 
L 1059 3900 
L 1059 0 
L 475 0 
z
" transform="scale(0.015625)"/>
      <path id="ArialMT-69" d="M 425 3934 
L 425 4581 
L 988 4581 
L 988 3934 
L 425 3934 
z
M 425 0 
L 425 3319 
L 988 3319 
L 988 0 
L 425 0 
z
" transform="scale(0.015625)"/>
      <path id="ArialMT-6e" d="M 422 0 
L 422 3319 
L 928 3319 
L 928 2847 
Q 1294 3394 1984 3394 
Q 2284 3394 2536 3286 
Q 2788 3178 2913 3003 
Q 3038 2828 3088 2588 
Q 3119 2431 3119 2041 
L 3119 0 
L 2556 0 
L 2556 2019 
Q 2556 2363 2490 2533 
Q 2425 2703 2258 2804 
Q 2091 2906 1866 2906 
Q 1506 2906 1245 2678 
Q 984 2450 984 1813 
L 984 0 
L 422 0 
z
" transform="scale(0.015625)"/>
      <path id="ArialMT-6d" d="M 422 0 
L 422 3319 
L 925 3319 
L 925 2853 
Q 1081 3097 1340 3245 
Q 1600 3394 1931 3394 
Q 2300 3394 2536 3241 
Q 2772 3088 2869 2813 
Q 3263 3394 3894 3394 
Q 4388 3394 4653 3120 
Q 4919 2847 4919 2278 
L 4919 0 
L 4359 0 
L 4359 2091 
Q 4359 2428 4304 2576 
Q 4250 2725 4106 2815 
Q 3963 2906 3769 2906 
Q 3419 2906 3187 2673 
Q 2956 2441 2956 1928 
L 2956 0 
L 2394 0 
L 2394 2156 
Q 2394 2531 2256 2718 
Q 2119 2906 1806 2906 
Q 1569 2906 1367 2781 
Q 1166 2656 1075 2415 
Q 984 2175 984 1722 
L 984 0 
L 422 0 
z
" transform="scale(0.015625)"/>
      <path id="ArialMT-75" d="M 2597 0 
L 2597 488 
Q 2209 -75 1544 -75 
Q 1250 -75 995 37 
Q 741 150 617 320 
Q 494 491 444 738 
Q 409 903 409 1263 
L 409 3319 
L 972 3319 
L 972 1478 
Q 972 1038 1006 884 
Q 1059 663 1231 536 
Q 1403 409 1656 409 
Q 1909 409 2131 539 
Q 2353 669 2445 892 
Q 2538 1116 2538 1541 
L 2538 3319 
L 3100 3319 
L 3100 0 
L 2597 0 
z
" transform="scale(0.015625)"/>
      <path id="ArialMT-20" transform="scale(0.015625)"/>
      <path id="ArialMT-54" d="M 1659 0 
L 1659 4041 
L 150 4041 
L 150 4581 
L 3781 4581 
L 3781 4041 
L 2266 4041 
L 2266 0 
L 1659 0 
z
" transform="scale(0.015625)"/>
      <path id="ArialMT-65" d="M 2694 1069 
L 3275 997 
Q 3138 488 2766 206 
Q 2394 -75 1816 -75 
Q 1088 -75 661 373 
Q 234 822 234 1631 
Q 234 2469 665 2931 
Q 1097 3394 1784 3394 
Q 2450 3394 2872 2941 
Q 3294 2488 3294 1666 
Q 3294 1616 3291 1516 
L 816 1516 
Q 847 969 1125 678 
Q 1403 388 1819 388 
Q 2128 388 2347 550 
Q 2566 713 2694 1069 
z
M 847 1978 
L 2700 1978 
Q 2663 2397 2488 2606 
Q 2219 2931 1791 2931 
Q 1403 2931 1139 2672 
Q 875 2413 847 1978 
z
" transform="scale(0.015625)"/>
      <path id="ArialMT-70" d="M 422 -1272 
L 422 3319 
L 934 3319 
L 934 2888 
Q 1116 3141 1344 3267 
Q 1572 3394 1897 3394 
Q 2322 3394 2647 3175 
Q 2972 2956 3137 2557 
Q 3303 2159 3303 1684 
Q 3303 1175 3120 767 
Q 2938 359 2589 142 
Q 2241 -75 1856 -75 
Q 1575 -75 1351 44 
Q 1128 163 984 344 
L 984 -1272 
L 422 -1272 
z
M 931 1641 
Q 931 1000 1190 694 
Q 1450 388 1819 388 
Q 2194 388 2461 705 
Q 2728 1022 2728 1688 
Q 2728 2322 2467 2637 
Q 2206 2953 1844 2953 
Q 1484 2953 1207 2617 
Q 931 2281 931 1641 
z
" transform="scale(0.015625)"/>
      <path id="ArialMT-72" d="M 416 0 
L 416 3319 
L 922 3319 
L 922 2816 
Q 1116 3169 1280 3281 
Q 1444 3394 1641 3394 
Q 1925 3394 2219 3213 
L 2025 2691 
Q 1819 2813 1613 2813 
Q 1428 2813 1281 2702 
Q 1134 2591 1072 2394 
Q 978 2094 978 1738 
L 978 0 
L 416 0 
z
" transform="scale(0.015625)"/>
      <path id="ArialMT-74" d="M 1650 503 
L 1731 6 
Q 1494 -44 1306 -44 
Q 1000 -44 831 53 
Q 663 150 594 308 
Q 525 466 525 972 
L 525 2881 
L 113 2881 
L 113 3319 
L 525 3319 
L 525 4141 
L 1084 4478 
L 1084 3319 
L 1650 3319 
L 1650 2881 
L 1084 2881 
L 1084 941 
Q 1084 700 1114 631 
Q 1144 563 1211 522 
Q 1278 481 1403 481 
Q 1497 481 1650 503 
z
" transform="scale(0.015625)"/>
      <path id="ArialMT-50" d="M 494 0 
L 494 4581 
L 2222 4581 
Q 2678 4581 2919 4538 
Q 3256 4481 3484 4323 
Q 3713 4166 3852 3881 
Q 3991 3597 3991 3256 
Q 3991 2672 3619 2267 
Q 3247 1863 2275 1863 
L 1100 1863 
L 1100 0 
L 494 0 
z
M 1100 2403 
L 2284 2403 
Q 2872 2403 3119 2622 
Q 3366 2841 3366 3238 
Q 3366 3525 3220 3729 
Q 3075 3934 2838 4000 
Q 2684 4041 2272 4041 
L 1100 4041 
L 1100 2403 
z
" transform="scale(0.015625)"/>
      <path id="ArialMT-64" d="M 2575 0 
L 2575 419 
Q 2259 -75 1647 -75 
Q 1250 -75 917 144 
Q 584 363 401 755 
Q 219 1147 219 1656 
Q 219 2153 384 2558 
Q 550 2963 881 3178 
Q 1213 3394 1622 3394 
Q 1922 3394 2156 3267 
Q 2391 3141 2538 2938 
L 2538 4581 
L 3097 4581 
L 3097 0 
L 2575 0 
z
M 797 1656 
Q 797 1019 1065 703 
Q 1334 388 1700 388 
Q 2069 388 2326 689 
Q 2584 991 2584 1609 
Q 2584 2291 2321 2609 
Q 2059 2928 1675 2928 
Q 1300 2928 1048 2622 
Q 797 2316 797 1656 
z
" transform="scale(0.015625)"/>
      <path id="ArialMT-63" d="M 2588 1216 
L 3141 1144 
Q 3050 572 2676 248 
Q 2303 -75 1759 -75 
Q 1078 -75 664 370 
Q 250 816 250 1647 
Q 250 2184 428 2587 
Q 606 2991 970 3192 
Q 1334 3394 1763 3394 
Q 2303 3394 2647 3120 
Q 2991 2847 3088 2344 
L 2541 2259 
Q 2463 2594 2264 2762 
Q 2066 2931 1784 2931 
Q 1359 2931 1093 2626 
Q 828 2322 828 1663 
Q 828 994 1084 691 
Q 1341 388 1753 388 
Q 2084 388 2306 591 
Q 2528 794 2588 1216 
z
" transform="scale(0.015625)"/>
      <path id="ArialMT-6f" d="M 213 1659 
Q 213 2581 725 3025 
Q 1153 3394 1769 3394 
Q 2453 3394 2887 2945 
Q 3322 2497 3322 1706 
Q 3322 1066 3130 698 
Q 2938 331 2570 128 
Q 2203 -75 1769 -75 
Q 1072 -75 642 372 
Q 213 819 213 1659 
z
M 791 1659 
Q 791 1022 1069 705 
Q 1347 388 1769 388 
Q 2188 388 2466 706 
Q 2744 1025 2744 1678 
Q 2744 2294 2464 2611 
Q 2184 2928 1769 2928 
Q 1347 2928 1069 2612 
Q 791 2297 791 1659 
z
" transform="scale(0.015625)"/>
      <path id="ArialMT-41" d="M -9 0 
L 1750 4581 
L 2403 4581 
L 4278 0 
L 3588 0 
L 3053 1388 
L 1138 1388 
L 634 0 
L -9 0 
z
M 1313 1881 
L 2866 1881 
L 2388 3150 
Q 2169 3728 2063 4100 
Q 1975 3659 1816 3225 
L 1313 1881 
z
" transform="scale(0.015625)"/>
      <path id="ArialMT-68" d="M 422 0 
L 422 4581 
L 984 4581 
L 984 2938 
Q 1378 3394 1978 3394 
Q 2347 3394 2619 3248 
Q 2891 3103 3008 2847 
Q 3125 2591 3125 2103 
L 3125 0 
L 2563 0 
L 2563 2103 
Q 2563 2525 2380 2717 
Q 2197 2909 1863 2909 
Q 1613 2909 1392 2779 
Q 1172 2650 1078 2428 
Q 984 2206 984 1816 
L 984 0 
L 422 0 
z
" transform="scale(0.015625)"/>
     </defs>
     <use xlink:href="#ArialMT-4d"/>
     <use xlink:href="#ArialMT-69" x="83.300781"/>
     <use xlink:href="#ArialMT-6e" x="105.517578"/>
     <use xlink:href="#ArialMT-69" x="161.132812"/>
     <use xlink:href="#ArialMT-6d" x="183.349609"/>
     <use xlink:href="#ArialMT-75" x="266.650391"/>
     <use xlink:href="#ArialMT-6d" x="322.265625"/>
     <use xlink:href="#ArialMT-20" x="405.566406"/>
     <use xlink:href="#ArialMT-54" x="431.599609"/>
     <use xlink:href="#ArialMT-65" x="481.558594"/>
     <use xlink:href="#ArialMT-6d" x="537.173828"/>
     <use xlink:href="#ArialMT-70" x="620.474609"/>
     <use xlink:href="#ArialMT-65" x="676.089844"/>
     <use xlink:href="#ArialMT-72" x="731.705078"/>
     <use xlink:href="#ArialMT-61" x="765.005859"/>
     <use xlink:href="#ArialMT-74" x="820.621094"/>
     <use xlink:href="#ArialMT-75" x="848.404297"/>
     <use xlink:href="#ArialMT-72" x="904.019531"/>
     <use xlink:href="#ArialMT-65" x="937.320312"/>
     <use xlink:href="#ArialMT-20" x="992.935547"/>
     <use xlink:href="#ArialMT-50" x="1020.71875"/>
     <use xlink:href="#ArialMT-72" x="1087.417969"/>
     <use xlink:href="#ArialMT-65" x="1120.71875"/>
     <use xlink:href="#ArialMT-64" x="1176.333984"/>
     <use xlink:href="#ArialMT-69" x="1231.949219"/>
     <use xlink:href="#ArialMT-63" x="1254.166016"/>
     <use xlink:href="#ArialMT-74" x="1304.166016"/>
     <use xlink:href="#ArialMT-69" x="1331.949219"/>
     <use xlink:href="#ArialMT-6f" x="1354.166016"/>
     <use xlink:href="#ArialMT-6e" x="1409.78125"/>
     <use xlink:href="#ArialMT-20" x="1465.396484"/>
     <use xlink:href="#ArialMT-32" x="1493.179688"/>
     <use xlink:href="#ArialMT-20" x="1548.794922"/>
     <use xlink:href="#ArialMT-44" x="1576.578125"/>
     <use xlink:href="#ArialMT-61" x="1648.794922"/>
     <use xlink:href="#ArialMT-79" x="1704.410156"/>
     <use xlink:href="#ArialMT-73" x="1754.410156"/>
     <use xlink:href="#ArialMT-20" x="1804.410156"/>
     <use xlink:href="#ArialMT-41" x="1826.693359"/>
     <use xlink:href="#ArialMT-68" x="1893.392578"/>
     <use xlink:href="#ArialMT-65" x="1949.007812"/>
     <use xlink:href="#ArialMT-61" x="2004.623047"/>
     <use xlink:href="#ArialMT-64" x="2060.238281"/>
    </g>
   </g>
   <g id="legend_1">
    <g id="patch_7">
     <path d="M 437.15625 88.130625 
L 511.4 88.130625 
Q 513.4 88.130625 513.4 86.130625 
L 513.4 58.84 
Q 513.4 56.84 511.4 56.84 
L 437.15625 56.84 
Q 435.15625 56.84 435.15625 58.84 
L 435.15625 86.130625 
Q 435.15625 88.130625 437.15625 88.130625 
z
" style="fill: #eaeaf2; opacity: 0.8; stroke: #cccccc; stroke-linejoin: miter"/>
    </g>
    <g id="line2d_14">
     <path d="M 439.15625 64.497812 
L 449.15625 64.497812 
L 459.15625 64.497812 
" style="fill: none; stroke: #1f77b4; stroke-width: 1.5; stroke-linecap: round"/>
    </g>
    <g id="text_15">
     <!-- Real -->
     <g style="fill: #262626" transform="translate(467.15625 67.997812) scale(0.1 -0.1)">
      <defs>
       <path id="ArialMT-52" d="M 503 0 
L 503 4581 
L 2534 4581 
Q 3147 4581 3465 4457 
Q 3784 4334 3975 4021 
Q 4166 3709 4166 3331 
Q 4166 2844 3850 2509 
Q 3534 2175 2875 2084 
Q 3116 1969 3241 1856 
Q 3506 1613 3744 1247 
L 4541 0 
L 3778 0 
L 3172 953 
Q 2906 1366 2734 1584 
Q 2563 1803 2427 1890 
Q 2291 1978 2150 2013 
Q 2047 2034 1813 2034 
L 1109 2034 
L 1109 0 
L 503 0 
z
M 1109 2559 
L 2413 2559 
Q 2828 2559 3062 2645 
Q 3297 2731 3419 2920 
Q 3541 3109 3541 3331 
Q 3541 3656 3305 3865 
Q 3069 4075 2559 4075 
L 1109 4075 
L 1109 2559 
z
" transform="scale(0.015625)"/>
       <path id="ArialMT-6c" d="M 409 0 
L 409 4581 
L 972 4581 
L 972 0 
L 409 0 
z
" transform="scale(0.015625)"/>
      </defs>
      <use xlink:href="#ArialMT-52"/>
      <use xlink:href="#ArialMT-65" x="72.216797"/>
      <use xlink:href="#ArialMT-61" x="127.832031"/>
      <use xlink:href="#ArialMT-6c" x="183.447266"/>
     </g>
    </g>
    <g id="line2d_15">
     <path d="M 439.15625 78.643125 
L 449.15625 78.643125 
L 459.15625 78.643125 
" style="fill: none; stroke: #ff7f0e; stroke-width: 1.5; stroke-linecap: round"/>
    </g>
    <g id="text_16">
     <!-- Predicted -->
     <g style="fill: #262626" transform="translate(467.15625 82.143125) scale(0.1 -0.1)">
      <use xlink:href="#ArialMT-50"/>
      <use xlink:href="#ArialMT-72" x="66.699219"/>
      <use xlink:href="#ArialMT-65" x="100"/>
      <use xlink:href="#ArialMT-64" x="155.615234"/>
      <use xlink:href="#ArialMT-69" x="211.230469"/>
      <use xlink:href="#ArialMT-63" x="233.447266"/>
      <use xlink:href="#ArialMT-74" x="283.447266"/>
      <use xlink:href="#ArialMT-65" x="311.230469"/>
      <use xlink:href="#ArialMT-64" x="366.845703"/>
     </g>
    </g>
   </g>
  </g>
 </g>
 <defs>
  <clipPath id="pd8d285a98e">
   <rect x="72" y="51.84" width="446.4" height="332.64"/>
  </clipPath>
 </defs>
</svg>
