<?xml version="1.0" encoding="utf-8" standalone="no"?>
<!DOCTYPE svg PUBLIC "-//W3C//DTD SVG 1.1//EN"
  "http://www.w3.org/Graphics/SVG/1.1/DTD/svg11.dtd">
<svg xmlns:xlink="http://www.w3.org/1999/xlink" width="576pt" height="432pt" viewBox="0 0 576 432" xmlns="http://www.w3.org/2000/svg" version="1.1">
 <metadata>
  <rdf:RDF xmlns:dc="http://purl.org/dc/elements/1.1/" xmlns:cc="http://creativecommons.org/ns#" xmlns:rdf="http://www.w3.org/1999/02/22-rdf-syntax-ns#">
   <cc:Work>
    <dc:type rdf:resource="http://purl.org/dc/dcmitype/StillImage"/>
    <dc:date>2023-11-17T05:13:37.730206</dc:date>
    <dc:format>image/svg+xml</dc:format>
    <dc:creator>
     <cc:Agent>
      <dc:title>Matplotlib v3.8.0, https://matplotlib.org/</dc:title>
     </cc:Agent>
    </dc:creator>
   </cc:Work>
  </rdf:RDF>
 </metadata>
 <defs>
  <style type="text/css">*{stroke-linejoin: round; stroke-linecap: butt}</style>
 </defs>
 <g id="figure_1">
  <g id="patch_1">
   <path d="M 0 432 
L 576 432 
L 576 0 
L 0 0 
z
" style="fill: #ffffff"/>
  </g>
  <g id="axes_1">
   <g id="patch_2">
    <path d="M 72 384.48 
L 518.4 384.48 
L 518.4 51.84 
L 72 51.84 
z
" style="fill: #eaeaf2"/>
   </g>
   <g id="matplotlib.axis_1">
    <g id="xtick_1">
     <g id="line2d_1">
      <path d="M 92.290909 384.48 
L 92.290909 51.84 
" clip-path="url(#p3e740020ca)" style="fill: none; stroke: #ffffff; stroke-width: 0.8; stroke-linecap: round"/>
     </g>
     <g id="text_1">
      <!-- 0 -->
      <g style="fill: #262626" transform="translate(89.51044 398.637812) scale(0.1 -0.1)">
       <defs>
        <path id="ArialMT-30" d="M 266 2259 
Q 266 3072 433 3567 
Q 600 4063 929 4331 
Q 1259 4600 1759 4600 
Q 2128 4600 2406 4451 
Q 2684 4303 2865 4023 
Q 3047 3744 3150 3342 
Q 3253 2941 3253 2259 
Q 3253 1453 3087 958 
Q 2922 463 2592 192 
Q 2263 -78 1759 -78 
Q 1097 -78 719 397 
Q 266 969 266 2259 
z
M 844 2259 
Q 844 1131 1108 757 
Q 1372 384 1759 384 
Q 2147 384 2411 759 
Q 2675 1134 2675 2259 
Q 2675 3391 2411 3762 
Q 2147 4134 1753 4134 
Q 1366 4134 1134 3806 
Q 844 3388 844 2259 
z
" transform="scale(0.015625)"/>
       </defs>
       <use xlink:href="#ArialMT-30"/>
      </g>
     </g>
    </g>
    <g id="xtick_2">
     <g id="line2d_2">
      <path d="M 191.030126 384.48 
L 191.030126 51.84 
" clip-path="url(#p3e740020ca)" style="fill: none; stroke: #ffffff; stroke-width: 0.8; stroke-linecap: round"/>
     </g>
     <g id="text_2">
      <!-- 200 -->
      <g style="fill: #262626" transform="translate(182.68872 398.637812) scale(0.1 -0.1)">
       <defs>
        <path id="ArialMT-32" d="M 3222 541 
L 3222 0 
L 194 0 
Q 188 203 259 391 
Q 375 700 629 1000 
Q 884 1300 1366 1694 
Q 2113 2306 2375 2664 
Q 2638 3022 2638 3341 
Q 2638 3675 2398 3904 
Q 2159 4134 1775 4134 
Q 1369 4134 1125 3890 
Q 881 3647 878 3216 
L 300 3275 
Q 359 3922 746 4261 
Q 1134 4600 1788 4600 
Q 2447 4600 2831 4234 
Q 3216 3869 3216 3328 
Q 3216 3053 3103 2787 
Q 2991 2522 2730 2228 
Q 2469 1934 1863 1422 
Q 1356 997 1212 845 
Q 1069 694 975 541 
L 3222 541 
z
" transform="scale(0.015625)"/>
       </defs>
       <use xlink:href="#ArialMT-32"/>
       <use xlink:href="#ArialMT-30" x="55.615234"/>
       <use xlink:href="#ArialMT-30" x="111.230469"/>
      </g>
     </g>
    </g>
    <g id="xtick_3">
     <g id="line2d_3">
      <path d="M 289.769343 384.48 
L 289.769343 51.84 
" clip-path="url(#p3e740020ca)" style="fill: none; stroke: #ffffff; stroke-width: 0.8; stroke-linecap: round"/>
     </g>
     <g id="text_3">
      <!-- 400 -->
      <g style="fill: #262626" transform="translate(281.427937 398.637812) scale(0.1 -0.1)">
       <defs>
        <path id="ArialMT-34" d="M 2069 0 
L 2069 1097 
L 81 1097 
L 81 1613 
L 2172 4581 
L 2631 4581 
L 2631 1613 
L 3250 1613 
L 3250 1097 
L 2631 1097 
L 2631 0 
L 2069 0 
z
M 2069 1613 
L 2069 3678 
L 634 1613 
L 2069 1613 
z
" transform="scale(0.015625)"/>
       </defs>
       <use xlink:href="#ArialMT-34"/>
       <use xlink:href="#ArialMT-30" x="55.615234"/>
       <use xlink:href="#ArialMT-30" x="111.230469"/>
      </g>
     </g>
    </g>
    <g id="xtick_4">
     <g id="line2d_4">
      <path d="M 388.50856 384.48 
L 388.50856 51.84 
" clip-path="url(#p3e740020ca)" style="fill: none; stroke: #ffffff; stroke-width: 0.8; stroke-linecap: round"/>
     </g>
     <g id="text_4">
      <!-- 600 -->
      <g style="fill: #262626" transform="translate(380.167154 398.637812) scale(0.1 -0.1)">
       <defs>
        <path id="ArialMT-36" d="M 3184 3459 
L 2625 3416 
Q 2550 3747 2413 3897 
Q 2184 4138 1850 4138 
Q 1581 4138 1378 3988 
Q 1113 3794 959 3422 
Q 806 3050 800 2363 
Q 1003 2672 1297 2822 
Q 1591 2972 1913 2972 
Q 2475 2972 2870 2558 
Q 3266 2144 3266 1488 
Q 3266 1056 3080 686 
Q 2894 316 2569 119 
Q 2244 -78 1831 -78 
Q 1128 -78 684 439 
Q 241 956 241 2144 
Q 241 3472 731 4075 
Q 1159 4600 1884 4600 
Q 2425 4600 2770 4297 
Q 3116 3994 3184 3459 
z
M 888 1484 
Q 888 1194 1011 928 
Q 1134 663 1356 523 
Q 1578 384 1822 384 
Q 2178 384 2434 671 
Q 2691 959 2691 1453 
Q 2691 1928 2437 2201 
Q 2184 2475 1800 2475 
Q 1419 2475 1153 2201 
Q 888 1928 888 1484 
z
" transform="scale(0.015625)"/>
       </defs>
       <use xlink:href="#ArialMT-36"/>
       <use xlink:href="#ArialMT-30" x="55.615234"/>
       <use xlink:href="#ArialMT-30" x="111.230469"/>
      </g>
     </g>
    </g>
    <g id="xtick_5">
     <g id="line2d_5">
      <path d="M 487.247777 384.48 
L 487.247777 51.84 
" clip-path="url(#p3e740020ca)" style="fill: none; stroke: #ffffff; stroke-width: 0.8; stroke-linecap: round"/>
     </g>
     <g id="text_5">
      <!-- 800 -->
      <g style="fill: #262626" transform="translate(478.906371 398.637812) scale(0.1 -0.1)">
       <defs>
        <path id="ArialMT-38" d="M 1131 2484 
Q 781 2613 612 2850 
Q 444 3088 444 3419 
Q 444 3919 803 4259 
Q 1163 4600 1759 4600 
Q 2359 4600 2725 4251 
Q 3091 3903 3091 3403 
Q 3091 3084 2923 2848 
Q 2756 2613 2416 2484 
Q 2838 2347 3058 2040 
Q 3278 1734 3278 1309 
Q 3278 722 2862 322 
Q 2447 -78 1769 -78 
Q 1091 -78 675 323 
Q 259 725 259 1325 
Q 259 1772 486 2073 
Q 713 2375 1131 2484 
z
M 1019 3438 
Q 1019 3113 1228 2906 
Q 1438 2700 1772 2700 
Q 2097 2700 2305 2904 
Q 2513 3109 2513 3406 
Q 2513 3716 2298 3927 
Q 2084 4138 1766 4138 
Q 1444 4138 1231 3931 
Q 1019 3725 1019 3438 
z
M 838 1322 
Q 838 1081 952 856 
Q 1066 631 1291 507 
Q 1516 384 1775 384 
Q 2178 384 2440 643 
Q 2703 903 2703 1303 
Q 2703 1709 2433 1975 
Q 2163 2241 1756 2241 
Q 1359 2241 1098 1978 
Q 838 1716 838 1322 
z
" transform="scale(0.015625)"/>
       </defs>
       <use xlink:href="#ArialMT-38"/>
       <use xlink:href="#ArialMT-30" x="55.615234"/>
       <use xlink:href="#ArialMT-30" x="111.230469"/>
      </g>
     </g>
    </g>
    <g id="text_6">
     <!-- Days -->
     <g style="fill: #262626" transform="translate(283.808594 411.783125) scale(0.1 -0.1)">
      <defs>
       <path id="ArialMT-44" d="M 494 0 
L 494 4581 
L 2072 4581 
Q 2606 4581 2888 4516 
Q 3281 4425 3559 4188 
Q 3922 3881 4101 3404 
Q 4281 2928 4281 2316 
Q 4281 1794 4159 1391 
Q 4038 988 3847 723 
Q 3656 459 3429 307 
Q 3203 156 2883 78 
Q 2563 0 2147 0 
L 494 0 
z
M 1100 541 
L 2078 541 
Q 2531 541 2789 625 
Q 3047 709 3200 863 
Q 3416 1078 3536 1442 
Q 3656 1806 3656 2325 
Q 3656 3044 3420 3430 
Q 3184 3816 2847 3947 
Q 2603 4041 2063 4041 
L 1100 4041 
L 1100 541 
z
" transform="scale(0.015625)"/>
       <path id="ArialMT-61" d="M 2588 409 
Q 2275 144 1986 34 
Q 1697 -75 1366 -75 
Q 819 -75 525 192 
Q 231 459 231 875 
Q 231 1119 342 1320 
Q 453 1522 633 1644 
Q 813 1766 1038 1828 
Q 1203 1872 1538 1913 
Q 2219 1994 2541 2106 
Q 2544 2222 2544 2253 
Q 2544 2597 2384 2738 
Q 2169 2928 1744 2928 
Q 1347 2928 1158 2789 
Q 969 2650 878 2297 
L 328 2372 
Q 403 2725 575 2942 
Q 747 3159 1072 3276 
Q 1397 3394 1825 3394 
Q 2250 3394 2515 3294 
Q 2781 3194 2906 3042 
Q 3031 2891 3081 2659 
Q 3109 2516 3109 2141 
L 3109 1391 
Q 3109 606 3145 398 
Q 3181 191 3288 0 
L 2700 0 
Q 2613 175 2588 409 
z
M 2541 1666 
Q 2234 1541 1622 1453 
Q 1275 1403 1131 1340 
Q 988 1278 909 1158 
Q 831 1038 831 891 
Q 831 666 1001 516 
Q 1172 366 1500 366 
Q 1825 366 2078 508 
Q 2331 650 2450 897 
Q 2541 1088 2541 1459 
L 2541 1666 
z
" transform="scale(0.015625)"/>
       <path id="ArialMT-79" d="M 397 -1278 
L 334 -750 
Q 519 -800 656 -800 
Q 844 -800 956 -737 
Q 1069 -675 1141 -563 
Q 1194 -478 1313 -144 
Q 1328 -97 1363 -6 
L 103 3319 
L 709 3319 
L 1400 1397 
Q 1534 1031 1641 628 
Q 1738 1016 1872 1384 
L 2581 3319 
L 3144 3319 
L 1881 -56 
Q 1678 -603 1566 -809 
Q 1416 -1088 1222 -1217 
Q 1028 -1347 759 -1347 
Q 597 -1347 397 -1278 
z
" transform="scale(0.015625)"/>
       <path id="ArialMT-73" d="M 197 991 
L 753 1078 
Q 800 744 1014 566 
Q 1228 388 1613 388 
Q 2000 388 2187 545 
Q 2375 703 2375 916 
Q 2375 1106 2209 1216 
Q 2094 1291 1634 1406 
Q 1016 1563 777 1677 
Q 538 1791 414 1992 
Q 291 2194 291 2438 
Q 291 2659 392 2848 
Q 494 3038 669 3163 
Q 800 3259 1026 3326 
Q 1253 3394 1513 3394 
Q 1903 3394 2198 3281 
Q 2494 3169 2634 2976 
Q 2775 2784 2828 2463 
L 2278 2388 
Q 2241 2644 2061 2787 
Q 1881 2931 1553 2931 
Q 1166 2931 1000 2803 
Q 834 2675 834 2503 
Q 834 2394 903 2306 
Q 972 2216 1119 2156 
Q 1203 2125 1616 2013 
Q 2213 1853 2448 1751 
Q 2684 1650 2818 1456 
Q 2953 1263 2953 975 
Q 2953 694 2789 445 
Q 2625 197 2315 61 
Q 2006 -75 1616 -75 
Q 969 -75 630 194 
Q 291 463 197 991 
z
" transform="scale(0.015625)"/>
      </defs>
      <use xlink:href="#ArialMT-44"/>
      <use xlink:href="#ArialMT-61" x="72.216797"/>
      <use xlink:href="#ArialMT-79" x="127.832031"/>
      <use xlink:href="#ArialMT-73" x="177.832031"/>
     </g>
    </g>
   </g>
   <g id="matplotlib.axis_2">
    <g id="ytick_1">
     <g id="line2d_6">
      <path d="M 72 369.107579 
L 518.4 369.107579 
" clip-path="url(#p3e740020ca)" style="fill: none; stroke: #ffffff; stroke-width: 0.8; stroke-linecap: round"/>
     </g>
     <g id="text_7">
      <!-- 0 -->
      <g style="fill: #262626" transform="translate(59.439062 372.686486) scale(0.1 -0.1)">
       <use xlink:href="#ArialMT-30"/>
      </g>
     </g>
    </g>
    <g id="ytick_2">
     <g id="line2d_7">
      <path d="M 72 318.623439 
L 518.4 318.623439 
" clip-path="url(#p3e740020ca)" style="fill: none; stroke: #ffffff; stroke-width: 0.8; stroke-linecap: round"/>
     </g>
     <g id="text_8">
      <!-- 200 -->
      <g style="fill: #262626" transform="translate(48.317188 322.202345) scale(0.1 -0.1)">
       <use xlink:href="#ArialMT-32"/>
       <use xlink:href="#ArialMT-30" x="55.615234"/>
       <use xlink:href="#ArialMT-30" x="111.230469"/>
      </g>
     </g>
    </g>
    <g id="ytick_3">
     <g id="line2d_8">
      <path d="M 72 268.139299 
L 518.4 268.139299 
" clip-path="url(#p3e740020ca)" style="fill: none; stroke: #ffffff; stroke-width: 0.8; stroke-linecap: round"/>
     </g>
     <g id="text_9">
      <!-- 400 -->
      <g style="fill: #262626" transform="translate(48.317188 271.718205) scale(0.1 -0.1)">
       <use xlink:href="#ArialMT-34"/>
       <use xlink:href="#ArialMT-30" x="55.615234"/>
       <use xlink:href="#ArialMT-30" x="111.230469"/>
      </g>
     </g>
    </g>
    <g id="ytick_4">
     <g id="line2d_9">
      <path d="M 72 217.655159 
L 518.4 217.655159 
" clip-path="url(#p3e740020ca)" style="fill: none; stroke: #ffffff; stroke-width: 0.8; stroke-linecap: round"/>
     </g>
     <g id="text_10">
      <!-- 600 -->
      <g style="fill: #262626" transform="translate(48.317188 221.234065) scale(0.1 -0.1)">
       <use xlink:href="#ArialMT-36"/>
       <use xlink:href="#ArialMT-30" x="55.615234"/>
       <use xlink:href="#ArialMT-30" x="111.230469"/>
      </g>
     </g>
    </g>
    <g id="ytick_5">
     <g id="line2d_10">
      <path d="M 72 167.171018 
L 518.4 167.171018 
" clip-path="url(#p3e740020ca)" style="fill: none; stroke: #ffffff; stroke-width: 0.8; stroke-linecap: round"/>
     </g>
     <g id="text_11">
      <!-- 800 -->
      <g style="fill: #262626" transform="translate(48.317188 170.749925) scale(0.1 -0.1)">
       <use xlink:href="#ArialMT-38"/>
       <use xlink:href="#ArialMT-30" x="55.615234"/>
       <use xlink:href="#ArialMT-30" x="111.230469"/>
      </g>
     </g>
    </g>
    <g id="ytick_6">
     <g id="line2d_11">
      <path d="M 72 116.686878 
L 518.4 116.686878 
" clip-path="url(#p3e740020ca)" style="fill: none; stroke: #ffffff; stroke-width: 0.8; stroke-linecap: round"/>
     </g>
     <g id="text_12">
      <!-- 1000 -->
      <g style="fill: #262626" transform="translate(42.75625 120.265784) scale(0.1 -0.1)">
       <defs>
        <path id="ArialMT-31" d="M 2384 0 
L 1822 0 
L 1822 3584 
Q 1619 3391 1289 3197 
Q 959 3003 697 2906 
L 697 3450 
Q 1169 3672 1522 3987 
Q 1875 4303 2022 4600 
L 2384 4600 
L 2384 0 
z
" transform="scale(0.015625)"/>
       </defs>
       <use xlink:href="#ArialMT-31"/>
       <use xlink:href="#ArialMT-30" x="55.615234"/>
       <use xlink:href="#ArialMT-30" x="111.230469"/>
       <use xlink:href="#ArialMT-30" x="166.845703"/>
      </g>
     </g>
    </g>
    <g id="ytick_7">
     <g id="line2d_12">
      <path d="M 72 66.202738 
L 518.4 66.202738 
" clip-path="url(#p3e740020ca)" style="fill: none; stroke: #ffffff; stroke-width: 0.8; stroke-linecap: round"/>
     </g>
     <g id="text_13">
      <!-- 1200 -->
      <g style="fill: #262626" transform="translate(42.75625 69.781644) scale(0.1 -0.1)">
       <use xlink:href="#ArialMT-31"/>
       <use xlink:href="#ArialMT-32" x="55.615234"/>
       <use xlink:href="#ArialMT-30" x="111.230469"/>
       <use xlink:href="#ArialMT-30" x="166.845703"/>
      </g>
     </g>
    </g>
    <g id="text_14">
     <!-- (W/m^2) -->
     <g style="fill: #262626" transform="translate(36.651562 236.889687) rotate(-90) scale(0.1 -0.1)">
      <defs>
       <path id="ArialMT-28" d="M 1497 -1347 
Q 1031 -759 709 28 
Q 388 816 388 1659 
Q 388 2403 628 3084 
Q 909 3875 1497 4659 
L 1900 4659 
Q 1522 4009 1400 3731 
Q 1209 3300 1100 2831 
Q 966 2247 966 1656 
Q 966 153 1900 -1347 
L 1497 -1347 
z
" transform="scale(0.015625)"/>
       <path id="ArialMT-57" d="M 1294 0 
L 78 4581 
L 700 4581 
L 1397 1578 
Q 1509 1106 1591 641 
Q 1766 1375 1797 1488 
L 2669 4581 
L 3400 4581 
L 4056 2263 
Q 4303 1400 4413 641 
Q 4500 1075 4641 1638 
L 5359 4581 
L 5969 4581 
L 4713 0 
L 4128 0 
L 3163 3491 
Q 3041 3928 3019 4028 
Q 2947 3713 2884 3491 
L 1913 0 
L 1294 0 
z
" transform="scale(0.015625)"/>
       <path id="ArialMT-2f" d="M 0 -78 
L 1328 4659 
L 1778 4659 
L 453 -78 
L 0 -78 
z
" transform="scale(0.015625)"/>
       <path id="ArialMT-6d" d="M 422 0 
L 422 3319 
L 925 3319 
L 925 2853 
Q 1081 3097 1340 3245 
Q 1600 3394 1931 3394 
Q 2300 3394 2536 3241 
Q 2772 3088 2869 2813 
Q 3263 3394 3894 3394 
Q 4388 3394 4653 3120 
Q 4919 2847 4919 2278 
L 4919 0 
L 4359 0 
L 4359 2091 
Q 4359 2428 4304 2576 
Q 4250 2725 4106 2815 
Q 3963 2906 3769 2906 
Q 3419 2906 3187 2673 
Q 2956 2441 2956 1928 
L 2956 0 
L 2394 0 
L 2394 2156 
Q 2394 2531 2256 2718 
Q 2119 2906 1806 2906 
Q 1569 2906 1367 2781 
Q 1166 2656 1075 2415 
Q 984 2175 984 1722 
L 984 0 
L 422 0 
z
" transform="scale(0.015625)"/>
       <path id="ArialMT-5e" d="M 747 2156 
L 169 2156 
L 1272 4659 
L 1725 4659 
L 2834 2156 
L 2269 2156 
L 1497 4022 
L 747 2156 
z
" transform="scale(0.015625)"/>
       <path id="ArialMT-29" d="M 791 -1347 
L 388 -1347 
Q 1322 153 1322 1656 
Q 1322 2244 1188 2822 
Q 1081 3291 891 3722 
Q 769 4003 388 4659 
L 791 4659 
Q 1378 3875 1659 3084 
Q 1900 2403 1900 1659 
Q 1900 816 1576 28 
Q 1253 -759 791 -1347 
z
" transform="scale(0.015625)"/>
      </defs>
      <use xlink:href="#ArialMT-28"/>
      <use xlink:href="#ArialMT-57" x="33.300781"/>
      <use xlink:href="#ArialMT-2f" x="127.685547"/>
      <use xlink:href="#ArialMT-6d" x="155.46875"/>
      <use xlink:href="#ArialMT-5e" x="238.769531"/>
      <use xlink:href="#ArialMT-32" x="285.693359"/>
      <use xlink:href="#ArialMT-29" x="341.308594"/>
     </g>
    </g>
   </g>
   <g id="line2d_13">
    <path d="M 92.290909 194.937295 
L 92.784605 207.810751 
L 93.278301 196.45182 
L 93.771997 342.603406 
L 94.265693 328.467846 
L 94.75939 173.733957 
L 95.253086 321.147646 
L 95.746782 120.725609 
L 96.240478 186.607412 
L 96.734174 151.268514 
L 97.22787 193.422771 
L 97.721566 329.477529 
L 98.215262 272.430451 
L 98.708958 156.82177 
L 99.69635 241.887546 
L 100.190046 203.267179 
L 100.683743 192.665509 
L 101.177439 305.749983 
L 101.671135 196.45182 
L 102.164831 209.830117 
L 103.152223 206.043806 
L 103.645919 206.043806 
L 104.139615 295.653155 
L 104.633311 341.593723 
L 105.127007 216.393055 
L 105.620703 298.682204 
L 106.114399 323.419432 
L 106.608096 218.664841 
L 107.101792 199.733289 
L 107.595488 195.442137 
L 108.089184 220.431786 
L 108.58288 203.519599 
L 109.076576 196.45182 
L 109.570272 197.461503 
L 110.063968 190.898564 
L 110.557664 168.937963 
L 111.05136 241.382705 
L 111.545056 208.820434 
L 112.532449 203.77202 
L 113.026145 202.509917 
L 113.519841 204.529282 
L 114.013537 203.267179 
L 114.507233 214.373689 
L 115.000929 217.655159 
L 115.494625 211.849482 
L 115.988321 197.713923 
L 116.482017 340.836461 
L 116.975713 319.380701 
L 117.469409 221.441469 
L 117.963106 273.944975 
L 118.456802 341.088881 
L 118.950498 207.558331 
L 119.444194 201.752654 
L 119.93789 205.538965 
L 120.431586 216.140634 
L 120.925282 207.558331 
L 121.418978 212.354324 
L 121.912674 340.58404 
L 122.40637 320.390384 
L 122.900066 200.490551 
L 123.393762 198.471185 
L 123.887459 337.05015 
L 124.874851 331.496895 
L 125.368547 213.616427 
L 125.862243 202.509917 
L 126.355939 170.704908 
L 126.849635 195.442137 
L 127.343331 190.898564 
L 127.837027 194.937295 
L 128.330723 176.258164 
L 128.824419 199.480868 
L 129.318115 196.956661 
L 129.811812 304.992721 
L 130.305508 332.506578 
L 130.799204 187.617095 
L 131.786596 188.121937 
L 132.280292 180.044474 
L 132.773988 184.588047 
L 133.267684 182.821102 
L 133.76138 148.996728 
L 134.255076 162.375025 
L 134.748772 207.30591 
L 135.242468 189.888881 
L 135.736165 201.500234 
L 136.229861 193.170351 
L 136.723557 289.090217 
L 137.217253 334.525943 
L 137.710949 245.926277 
L 138.204645 179.792053 
L 138.698341 311.80808 
L 139.192037 176.510584 
L 139.685733 158.336294 
L 140.179429 184.083205 
L 140.673125 181.054157 
L 141.166821 180.801736 
L 142.154214 196.956661 
L 142.64791 150.258831 
L 143.141606 139.657162 
L 143.635302 170.452487 
L 144.128998 171.714591 
L 144.622694 166.666177 
L 145.11639 165.404073 
L 145.610086 176.763005 
L 146.103782 178.52995 
L 146.597478 244.411753 
L 147.091175 166.666177 
L 147.584871 180.549316 
L 148.078567 167.171018 
L 148.572263 326.953322 
L 149.065959 284.041803 
L 149.559655 300.449149 
L 150.053351 161.617763 
L 150.547047 147.987045 
L 151.040743 141.171686 
L 152.028135 189.636461 
L 152.521831 158.083873 
L 153.015528 161.870184 
L 153.509224 120.473189 
L 154.00292 252.741636 
L 154.496616 173.481536 
L 154.990312 154.297563 
L 155.484008 204.276861 
L 155.977704 242.644808 
L 156.4714 196.45182 
L 156.965096 298.682204 
L 157.458792 211.09222 
L 157.952488 157.07419 
L 158.446184 148.491886 
L 158.939881 135.870851 
L 159.433577 308.02177 
L 159.927273 135.618431 
L 160.420969 169.947646 
L 160.914665 132.841803 
L 161.408361 143.695893 
L 161.902057 197.713923 
L 162.395753 235.324608 
L 162.889449 132.084541 
L 163.383145 87.658497 
L 163.876841 132.336962 
L 164.370537 143.695893 
L 164.864234 137.385376 
L 165.35793 147.734624 
L 165.851626 140.919265 
L 166.345322 137.890217 
L 166.839018 140.162003 
L 167.332714 148.239466 
L 167.82641 127.036127 
L 168.320106 139.404741 
L 168.813802 142.181369 
L 169.307498 121.230451 
L 169.801194 126.026444 
L 170.294891 154.549983 
L 170.788587 136.628114 
L 171.282283 131.327279 
L 171.775979 142.43379 
L 172.269675 150.511252 
L 172.763371 178.025109 
L 173.257067 158.841135 
L 173.750763 147.734624 
L 174.244459 129.055492 
L 174.738155 139.909583 
L 175.231851 145.210417 
L 175.725547 138.142638 
L 176.219244 247.440801 
L 176.71294 137.132955 
L 177.206636 147.734624 
L 177.700332 151.268514 
L 178.194028 152.530618 
L 178.687724 133.094224 
L 179.18142 151.773356 
L 179.675116 111.638464 
L 180.168812 115.929616 
L 180.662508 121.230451 
L 181.156204 145.210417 
L 181.6499 193.170351 
L 182.143597 100.784374 
L 182.637293 112.648147 
L 183.130989 92.454491 
L 183.624685 93.716594 
L 184.118381 147.987045 
L 184.612077 126.026444 
L 185.105773 125.774023 
L 185.599469 140.162003 
L 186.093165 148.491886 
L 186.586861 152.278197 
L 187.080557 140.666845 
L 187.574253 162.122604 
L 188.06795 150.763673 
L 188.561646 124.764341 
L 189.055342 106.59005 
L 189.549038 113.65783 
L 190.042734 144.453155 
L 190.53643 116.434457 
L 191.523822 195.694558 
L 192.017518 111.638464 
L 192.511214 121.987713 
L 193.00491 118.958664 
L 193.498607 116.686878 
L 193.992303 110.376361 
L 194.485999 132.589382 
L 194.979695 139.152321 
L 195.473391 138.395058 
L 195.967087 128.04581 
L 196.460783 134.861169 
L 196.954479 113.91025 
L 197.448175 109.871519 
L 197.941871 110.12394 
L 198.929263 138.647479 
L 199.42296 141.424107 
L 200.410352 119.463506 
L 200.904048 138.8999 
L 201.397744 88.41576 
L 201.89144 113.91025 
L 202.385136 148.239466 
L 202.878832 146.724942 
L 203.372528 109.871519 
L 203.866224 98.512588 
L 204.35992 204.276861 
L 204.853616 111.890885 
L 205.347313 111.638464 
L 205.841009 130.065175 
L 206.334705 129.560334 
L 206.828401 132.841803 
L 207.322097 138.647479 
L 207.815793 131.327279 
L 208.309489 113.152988 
L 208.803185 133.094224 
L 209.296881 146.724942 
L 210.284273 132.589382 
L 210.777969 143.191052 
L 211.271666 136.628114 
L 211.765362 136.123272 
L 212.259058 119.463506 
L 212.752754 109.871519 
L 213.24645 129.560334 
L 213.740146 107.599733 
L 214.233842 134.861169 
L 214.727538 129.307913 
L 215.221234 145.210417 
L 215.71493 143.948314 
L 216.208626 143.443472 
L 216.702322 143.191052 
L 217.196019 132.084541 
L 217.689715 129.307913 
L 218.183411 102.551319 
L 218.677107 96.240801 
L 219.170803 128.803072 
L 219.664499 127.036127 
L 220.158195 121.482871 
L 220.651891 141.928948 
L 221.145587 144.957997 
L 221.639283 141.424107 
L 222.132979 142.181369 
L 222.626676 141.676528 
L 223.120372 135.36601 
L 223.614068 94.473856 
L 224.107764 82.105242 
L 224.60146 134.608748 
L 225.095156 129.560334 
L 225.588852 148.744307 
L 226.576244 144.200735 
L 227.06994 145.967679 
L 227.563636 147.229783 
L 228.057332 146.977362 
L 228.551029 145.462838 
L 229.044725 150.006411 
L 229.538421 145.210417 
L 230.032117 150.763673 
L 230.525813 151.773356 
L 231.019509 155.307245 
L 231.513205 147.229783 
L 232.006901 146.2201 
L 232.500597 125.774023 
L 232.994293 142.938631 
L 233.487989 147.987045 
L 233.981685 98.260167 
L 234.475382 145.210417 
L 234.969078 144.200735 
L 235.462774 145.462838 
L 235.95647 138.142638 
L 236.450166 141.171686 
L 236.943862 146.724942 
L 237.437558 122.997396 
L 237.931254 137.385376 
L 238.42495 142.181369 
L 238.918646 205.791386 
L 239.412342 359.768013 
L 239.906038 369.107579 
L 240.399735 127.540968 
L 240.893431 118.201402 
L 241.387127 131.83212 
L 241.880823 110.376361 
L 242.374519 132.336962 
L 242.868215 129.560334 
L 243.361911 115.677195 
L 243.855607 149.249149 
L 244.349303 158.336294 
L 244.842999 151.773356 
L 245.336695 171.20975 
L 245.830392 138.142638 
L 246.324088 139.404741 
L 246.817784 163.132287 
L 247.31148 148.491886 
L 247.805176 137.385376 
L 248.298872 157.579032 
L 248.792568 158.083873 
L 249.286264 145.715259 
L 249.77996 144.957997 
L 250.273656 103.308581 
L 250.767352 128.29823 
L 251.261048 106.59005 
L 251.754745 140.666845 
L 252.248441 153.035459 
L 252.742137 158.083873 
L 253.235833 153.035459 
L 253.729529 134.861169 
L 254.223225 143.191052 
L 254.716921 172.471853 
L 255.210617 172.976694 
L 255.704313 144.957997 
L 256.198009 137.637796 
L 256.691705 177.015426 
L 257.185401 172.219432 
L 257.679098 177.772688 
L 258.172794 300.196728 
L 258.66649 172.471853 
L 259.160186 179.287212 
L 259.653882 169.695225 
L 260.147578 152.783038 
L 260.641274 150.511252 
L 261.13497 172.976694 
L 261.628666 163.132287 
L 262.122362 134.608748 
L 262.616058 147.482204 
L 263.109754 173.481536 
L 263.603451 179.034791 
L 264.097147 191.655826 
L 264.590843 170.452487 
L 265.084539 287.575693 
L 265.578235 200.995392 
L 266.071931 183.073523 
L 266.565627 199.733289 
L 267.059323 176.258164 
L 267.553019 197.209082 
L 268.046715 165.908915 
L 268.540411 200.742972 
L 269.034107 195.189716 
L 269.527804 292.119265 
L 270.0215 265.11025 
L 270.515196 250.46985 
L 271.008892 199.480868 
L 271.502588 330.992053 
L 271.996284 198.723606 
L 272.48998 198.723606 
L 272.983676 199.480868 
L 273.477372 194.180033 
L 273.971068 161.112922 
L 274.464764 172.471853 
L 274.958461 208.063172 
L 275.452157 194.684875 
L 275.945853 190.393723 
L 276.439549 198.976027 
L 276.933245 310.545977 
L 277.426941 203.77202 
L 277.920637 202.005075 
L 278.414333 196.956661 
L 278.908029 152.025776 
L 279.895421 218.664841 
L 280.389117 210.8398 
L 280.882814 205.791386 
L 281.37651 206.043806 
L 281.870206 217.150317 
L 282.363902 211.09222 
L 282.857598 215.130952 
L 283.351294 213.364007 
L 284.338686 223.208414 
L 284.832382 221.441469 
L 285.326078 304.992721 
L 285.819774 183.325943 
L 286.31347 219.926945 
L 286.807167 212.859165 
L 287.300863 214.62611 
L 287.794559 217.402738 
L 288.288255 169.695225 
L 288.781951 206.801068 
L 289.275647 193.927613 
L 290.263039 241.130284 
L 290.756735 324.681536 
L 291.250431 202.762337 
L 291.744127 204.276861 
L 292.237823 211.849482 
L 292.73152 212.859165 
L 293.225216 198.976027 
L 293.718912 297.4201 
L 294.212608 145.462838 
L 294.706304 214.878531 
L 295.2 206.043806 
L 295.693696 343.360668 
L 296.187392 319.633122 
L 296.681088 197.713923 
L 297.174784 199.228447 
L 297.66848 202.005075 
L 298.162177 199.98571 
L 298.655873 202.257496 
L 299.149569 202.005075 
L 299.643265 191.403406 
L 300.136961 200.995392 
L 300.630657 218.16 
L 301.124353 196.70424 
L 301.618049 190.393723 
L 302.111745 246.431119 
L 302.605441 217.655159 
L 303.099137 253.498898 
L 303.592833 305.749983 
L 304.08653 290.352321 
L 304.580226 195.946978 
L 305.073922 300.701569 
L 305.567618 243.149649 
L 306.061314 340.079199 
L 306.55501 254.00374 
L 307.048706 200.23813 
L 307.542402 167.171018 
L 308.036098 285.303907 
L 308.529794 192.91793 
L 309.02349 198.723606 
L 310.010883 190.646144 
L 310.504579 214.373689 
L 310.998275 197.461503 
L 311.491971 190.646144 
L 311.985667 207.810751 
L 312.479363 162.627446 
L 312.973059 167.171018 
L 313.466755 221.69389 
L 313.960451 190.141302 
L 314.454147 189.636461 
L 314.947843 195.189716 
L 315.441539 184.335626 
L 315.935236 194.432454 
L 316.428932 314.837129 
L 316.922628 270.411085 
L 317.416324 182.06384 
L 317.91002 299.439466 
L 318.403716 178.025109 
L 318.897412 166.918598 
L 319.391108 165.404073 
L 319.884804 169.947646 
L 320.3785 343.360668 
L 320.872196 340.58404 
L 321.365893 278.488548 
L 321.859589 150.258831 
L 322.353285 188.879199 
L 322.846981 169.190384 
L 323.340677 164.646811 
L 323.834373 161.870184 
L 324.328069 162.375025 
L 324.821765 159.850818 
L 325.315461 169.947646 
L 325.809157 166.413756 
L 326.302853 157.07419 
L 326.796549 193.170351 
L 327.290246 113.65783 
L 327.783942 161.365342 
L 328.771334 152.025776 
L 329.26503 189.888881 
L 329.758726 183.325943 
L 330.252422 254.508581 
L 330.746118 168.180701 
L 331.239814 155.812087 
L 331.73351 165.404073 
L 332.227206 165.908915 
L 332.720902 143.191052 
L 333.214599 173.733957 
L 333.708295 135.113589 
L 334.201991 140.414424 
L 334.695687 154.802404 
L 335.189383 283.284541 
L 335.683079 291.362003 
L 336.670471 142.181369 
L 337.164167 153.035459 
L 337.657863 154.045142 
L 338.151559 152.530618 
L 338.645255 155.054825 
L 339.138952 121.987713 
L 339.632648 327.205743 
L 340.126344 172.976694 
L 340.62004 139.657162 
L 341.113736 158.083873 
L 341.607432 148.996728 
L 342.101128 131.579699 
L 342.594824 229.518932 
L 343.08852 269.653823 
L 343.582216 189.888881 
L 344.075912 131.579699 
L 344.569608 141.676528 
L 345.063305 155.559666 
L 345.557001 162.375025 
L 346.050697 131.83212 
L 346.544393 129.560334 
L 347.038089 136.123272 
L 347.531785 163.889549 
L 348.025481 136.123272 
L 348.519177 256.527947 
L 349.012873 130.570017 
L 349.506569 114.415092 
L 350.000265 126.278865 
L 350.493962 142.938631 
L 350.987658 145.462838 
L 351.481354 146.977362 
L 351.97505 137.890217 
L 352.468746 134.103907 
L 352.962442 108.104574 
L 353.456138 128.550651 
L 353.949834 135.870851 
L 354.44353 140.666845 
L 354.937226 133.094224 
L 355.430922 121.735292 
L 355.924618 136.123272 
L 356.418315 137.637796 
L 356.912011 135.618431 
L 357.405707 137.385376 
L 357.899403 140.919265 
L 358.393099 106.59005 
L 358.886795 135.618431 
L 359.874187 66.96 
L 360.367883 114.919933 
L 360.861579 98.260167 
L 361.355275 128.803072 
L 361.848971 94.978698 
L 362.342668 111.386043 
L 362.836364 132.841803 
L 363.33006 133.599065 
L 363.823756 135.113589 
L 364.317452 134.356327 
L 364.811148 138.8999 
L 365.304844 121.482871 
L 365.79854 126.278865 
L 366.292236 132.589382 
L 366.785932 112.648147 
L 367.279628 115.677195 
L 367.773324 108.104574 
L 368.267021 78.823773 
L 368.760717 116.686878 
L 369.254413 115.677195 
L 369.748109 118.201402 
L 370.241805 99.52227 
L 370.735501 95.231119 
L 371.229197 130.822437 
L 371.722893 108.104574 
L 372.216589 122.240134 
L 372.710285 130.822437 
L 373.203981 111.890885 
L 373.697678 135.870851 
L 374.191374 134.356327 
L 374.68507 138.647479 
L 375.178766 116.686878 
L 375.672462 114.919933 
L 376.166158 335.535626 
L 376.659854 128.803072 
L 377.15355 129.812755 
L 378.140942 103.05616 
L 378.634638 100.027112 
L 379.128334 86.901235 
L 379.622031 138.647479 
L 380.115727 139.152321 
L 380.609423 104.318264 
L 381.103119 142.938631 
L 382.584207 131.327279 
L 383.077903 119.463506 
L 383.571599 86.648815 
L 384.065295 87.658497 
L 384.558991 142.181369 
L 385.546384 109.114257 
L 386.04008 189.636461 
L 386.533776 128.550651 
L 387.027472 153.035459 
L 387.521168 137.385376 
L 388.014864 137.637796 
L 388.50856 145.967679 
L 389.002256 142.938631 
L 389.495952 249.207746 
L 389.989648 142.68621 
L 390.483344 143.191052 
L 391.470737 138.142638 
L 391.964433 133.346644 
L 392.458129 134.608748 
L 392.951825 142.938631 
L 393.445521 141.676528 
L 393.939217 134.608748 
L 394.432913 114.919933 
L 394.926609 146.2201 
L 395.420305 132.841803 
L 395.914001 96.493222 
L 396.407697 125.016761 
L 396.901393 128.803072 
L 397.39509 117.696561 
L 397.888786 150.511252 
L 398.382482 249.965008 
L 398.876178 311.050818 
L 399.369874 291.614424 
L 399.86357 144.453155 
L 400.357266 129.055492 
L 400.850962 149.75399 
L 401.344658 90.182705 
L 401.838354 134.356327 
L 402.33205 136.123272 
L 402.825747 135.618431 
L 403.319443 127.288548 
L 403.813139 213.364007 
L 404.306835 86.396394 
L 404.800531 114.162671 
L 405.294227 133.851486 
L 405.787923 141.424107 
L 406.281619 142.68621 
L 406.775315 141.676528 
L 407.269011 141.424107 
L 407.762707 140.919265 
L 408.256403 144.200735 
L 408.7501 142.938631 
L 409.243796 157.07419 
L 409.737492 134.608748 
L 410.231188 146.472521 
L 410.724884 142.43379 
L 411.21858 118.706244 
L 411.712276 133.599065 
L 412.205972 128.803072 
L 412.699668 143.695893 
L 413.193364 148.239466 
L 413.68706 144.453155 
L 414.180756 149.75399 
L 414.674453 150.258831 
L 415.168149 211.09222 
L 415.661845 369.36 
L 416.155541 150.511252 
L 416.649237 134.103907 
L 417.142933 279.24581 
L 417.636629 351.18571 
L 418.130325 91.949649 
L 418.624021 113.65783 
L 419.117717 118.706244 
L 419.611413 356.991386 
L 420.105109 137.385376 
L 420.598806 153.792721 
L 421.092502 151.268514 
L 421.586198 129.307913 
L 422.079894 148.744307 
L 422.57359 111.133623 
L 423.067286 142.181369 
L 423.560982 137.890217 
L 424.054678 140.666845 
L 424.548374 133.094224 
L 425.04207 139.909583 
L 425.535766 131.579699 
L 426.029463 126.531285 
L 426.523159 139.152321 
L 427.016855 143.948314 
L 427.510551 145.967679 
L 428.004247 145.210417 
L 428.497943 131.83212 
L 428.991639 135.113589 
L 429.485335 127.540968 
L 429.979031 141.676528 
L 430.472727 140.414424 
L 430.966423 140.919265 
L 431.460119 113.91025 
L 431.953816 123.502237 
L 432.447512 102.551319 
L 432.941208 121.735292 
L 433.434904 151.268514 
L 433.9286 120.97803 
L 434.422296 125.269182 
L 434.915992 144.705576 
L 435.409688 147.229783 
L 435.903384 135.618431 
L 436.39708 148.996728 
L 436.890776 112.395726 
L 437.384472 130.822437 
L 437.878169 114.415092 
L 438.371865 107.599733 
L 439.359257 143.443472 
L 439.852953 143.695893 
L 440.346649 129.307913 
L 440.840345 102.80374 
L 441.334041 130.822437 
L 441.827737 112.395726 
L 442.321433 115.172354 
L 442.815129 147.229783 
L 443.308825 258.042471 
L 443.802522 232.043139 
L 444.296218 114.919933 
L 444.789914 150.763673 
L 445.28361 115.677195 
L 445.777306 143.443472 
L 446.271002 132.589382 
L 446.764698 151.773356 
L 447.258394 144.453155 
L 447.75209 148.996728 
L 448.245786 107.599733 
L 448.739482 126.026444 
L 449.233179 151.016093 
L 449.726875 127.793389 
L 450.220571 123.249816 
L 450.714267 151.520935 
L 451.207963 138.142638 
L 451.701659 137.637796 
L 452.195355 151.016093 
L 452.689051 158.588715 
L 453.182747 129.307913 
L 453.676443 133.851486 
L 454.170139 150.006411 
L 454.663835 144.200735 
L 455.157532 156.064508 
L 455.651228 159.598397 
L 456.144924 156.316928 
L 456.63862 133.851486 
L 457.132316 216.645476 
L 457.626012 252.741636 
L 458.119708 166.413756 
L 458.613404 297.4201 
L 459.1071 172.724274 
L 459.600796 296.157997 
L 460.094492 153.035459 
L 460.588188 283.536962 
L 461.081885 273.944975 
L 461.575581 175.500902 
L 462.069277 169.190384 
L 462.562973 176.258164 
L 463.056669 148.239466 
L 464.044061 174.99606 
L 464.537757 294.643472 
L 465.031453 170.704908 
L 465.525149 173.229115 
L 466.018845 172.976694 
L 466.512541 174.238798 
L 467.006238 202.257496 
L 467.499934 179.792053 
L 467.99363 178.025109 
L 468.487326 181.054157 
L 468.981022 173.481536 
L 469.474718 186.859833 
L 469.968414 187.617095 
L 470.46211 184.335626 
L 470.955806 242.644808 
L 471.449502 248.955326 
L 471.943198 315.846811 
L 472.436894 168.685543 
L 472.930591 188.626778 
L 473.424287 185.092888 
L 473.917983 185.092888 
L 474.411679 173.481536 
L 474.905375 150.006411 
L 475.399071 154.802404 
L 475.892767 199.228447 
L 476.386463 198.218765 
L 476.880159 172.976694 
L 477.373855 188.626778 
L 477.867551 195.946978 
L 478.361248 168.937963 
L 478.854944 315.594391 
L 479.34864 327.205743 
L 479.842336 332.758998 
L 480.336032 322.66217 
L 480.829728 335.030785 
L 481.323424 310.798397 
L 481.81712 305.245142 
L 482.310816 296.410417 
L 482.804512 205.538965 
L 483.298208 307.012087 
L 483.791904 199.480868 
L 484.285601 195.442137 
L 484.779297 204.529282 
L 485.272993 200.23813 
L 485.766689 226.742304 
L 486.260385 322.914591 
L 486.754081 220.179366 
L 487.247777 316.604073 
L 487.741473 368.602738 
L 488.235169 273.187713 
L 488.728865 216.140634 
L 489.222561 216.140634 
L 489.716257 215.635793 
L 490.209954 258.042471 
L 490.70365 247.693222 
L 491.197346 193.927613 
L 491.691042 208.315593 
L 492.184738 208.568013 
L 492.678434 217.907579 
L 493.17213 240.877863 
L 493.665826 332.254157 
L 494.159522 217.402738 
L 494.653218 197.713923 
L 495.146914 316.856494 
L 496.134307 257.537629 
L 496.628003 170.704908 
L 497.121699 186.607412 
L 497.615395 157.579032 
L 498.109091 172.219432 
L 498.109091 172.219432 
" clip-path="url(#p3e740020ca)" style="fill: none; stroke: #1f77b4; stroke-width: 1.5; stroke-linecap: round"/>
   </g>
   <g id="line2d_14">
    <path d="M 92.290909 236.28818 
L 92.784605 230.932577 
L 93.771997 249.390303 
L 94.265693 251.811631 
L 94.75939 240.561676 
L 95.253086 241.471203 
L 95.746782 217.812863 
L 96.240478 229.522028 
L 96.734174 227.595822 
L 97.22787 217.531612 
L 97.721566 236.762133 
L 98.215262 251.610043 
L 98.708958 204.627119 
L 99.202654 225.689265 
L 99.69635 234.678109 
L 100.190046 232.841928 
L 100.683743 235.07994 
L 101.177439 257.969131 
L 101.671135 245.152072 
L 102.164831 235.545159 
L 102.658527 239.904212 
L 103.152223 233.09479 
L 103.645919 248.924739 
L 104.139615 260.804611 
L 104.633311 254.630987 
L 105.127007 234.061734 
L 105.620703 251.550476 
L 106.114399 259.386987 
L 106.608096 273.196197 
L 107.101792 241.364687 
L 107.595488 244.731178 
L 108.089184 251.726796 
L 108.58288 240.103296 
L 109.076576 218.742174 
L 109.570272 223.550054 
L 110.063968 229.600832 
L 110.557664 211.204384 
L 111.05136 230.123119 
L 111.545056 222.762178 
L 112.038752 208.20947 
L 112.532449 214.793316 
L 113.026145 224.565284 
L 113.519841 237.943512 
L 114.013537 225.96716 
L 114.507233 235.75268 
L 115.000929 250.7618 
L 115.494625 228.427588 
L 115.988321 221.907666 
L 116.482017 246.522074 
L 116.975713 241.330527 
L 117.469409 243.19878 
L 117.963106 243.433006 
L 118.456802 251.405551 
L 118.950498 245.285013 
L 119.444194 237.601618 
L 119.93789 240.728844 
L 120.431586 232.161608 
L 120.925282 256.517915 
L 121.418978 232.640028 
L 121.912674 226.56651 
L 122.900066 241.534159 
L 123.393762 236.784737 
L 123.887459 242.619296 
L 124.381155 238.752598 
L 124.874851 243.396162 
L 125.368547 251.401167 
L 125.862243 253.57294 
L 126.355939 218.485505 
L 126.849635 217.605654 
L 127.343331 221.300414 
L 127.837027 228.077068 
L 128.330723 216.143925 
L 128.824419 218.507432 
L 129.318115 212.877403 
L 129.811812 237.845851 
L 130.305508 234.476575 
L 130.799204 215.386471 
L 131.2929 238.582145 
L 131.786596 213.752626 
L 132.280292 207.075054 
L 133.267684 211.279022 
L 133.76138 212.191046 
L 134.255076 205.607175 
L 134.748772 218.414011 
L 135.242468 224.698713 
L 135.736165 209.067189 
L 136.229861 211.788873 
L 136.723557 229.55224 
L 137.217253 232.121778 
L 137.710949 232.031162 
L 138.204645 208.552031 
L 138.698341 237.65297 
L 139.192037 203.531296 
L 139.685733 218.601226 
L 140.179429 198.638443 
L 140.673125 194.232589 
L 141.166821 227.924412 
L 141.660518 241.47028 
L 142.154214 208.512798 
L 142.64791 198.203276 
L 143.141606 214.884664 
L 143.635302 201.655797 
L 144.128998 203.185181 
L 144.622694 191.984534 
L 145.11639 192.92422 
L 145.610086 203.32976 
L 146.103782 187.599411 
L 146.597478 200.582346 
L 147.091175 189.851234 
L 147.584871 194.310323 
L 148.078567 179.860805 
L 148.572263 199.203212 
L 149.559655 207.950655 
L 150.053351 198.621476 
L 150.547047 193.343662 
L 151.040743 172.538601 
L 151.534439 166.704564 
L 152.028135 190.589997 
L 152.521831 186.672055 
L 153.015528 189.982925 
L 153.509224 165.354715 
L 154.00292 194.437393 
L 154.496616 188.784836 
L 155.484008 200.55623 
L 155.977704 205.215201 
L 156.4714 208.074932 
L 156.965096 214.86979 
L 157.458792 204.095929 
L 157.952488 196.030889 
L 158.446184 182.319116 
L 158.939881 187.287439 
L 159.433577 195.934583 
L 159.927273 185.432448 
L 160.420969 202.818786 
L 160.914665 181.878883 
L 161.408361 168.16938 
L 161.902057 169.00151 
L 162.395753 185.631507 
L 162.889449 161.424723 
L 163.383145 150.747626 
L 163.876841 151.423535 
L 164.370537 154.582132 
L 164.864234 156.561896 
L 165.35793 143.745335 
L 165.851626 147.399484 
L 166.345322 148.239211 
L 166.839018 149.664646 
L 167.332714 144.579129 
L 167.82641 145.279037 
L 168.320106 146.891383 
L 168.813802 156.383643 
L 169.307498 144.914132 
L 169.801194 142.874446 
L 170.294891 143.231528 
L 170.788587 141.11641 
L 171.282283 148.129868 
L 171.775979 145.413129 
L 172.269675 150.712818 
L 172.763371 145.790846 
L 173.257067 159.214894 
L 173.750763 154.402931 
L 174.738155 154.577266 
L 175.231851 144.275626 
L 175.725547 142.409312 
L 176.219244 164.584694 
L 176.71294 160.91138 
L 177.206636 143.470652 
L 177.700332 175.431757 
L 178.194028 163.859863 
L 178.687724 140.23967 
L 179.675116 158.903518 
L 180.168812 137.228944 
L 180.662508 127.231351 
L 181.156204 142.165813 
L 181.6499 160.650388 
L 182.143597 143.497181 
L 182.637293 142.331183 
L 183.130989 120.67545 
L 183.624685 121.850462 
L 184.118381 124.022636 
L 184.612077 141.93589 
L 185.105773 134.764248 
L 185.599469 131.501196 
L 186.093165 138.75759 
L 186.586861 132.924532 
L 187.080557 132.800994 
L 187.574253 146.682319 
L 188.561646 133.89969 
L 189.055342 127.950844 
L 189.549038 130.389785 
L 190.042734 138.699049 
L 190.53643 142.642633 
L 191.030126 143.888163 
L 191.523822 144.161655 
L 192.017518 139.345892 
L 192.511214 127.207263 
L 193.00491 124.857726 
L 193.498607 126.809155 
L 193.992303 125.463835 
L 194.485999 126.890243 
L 194.979695 126.812752 
L 195.473391 134.810873 
L 195.967087 126.486655 
L 196.460783 124.246153 
L 196.954479 133.551449 
L 197.448175 131.752878 
L 197.941871 115.242548 
L 198.435567 122.14543 
L 198.929263 123.024942 
L 199.42296 148.824765 
L 199.916656 154.808314 
L 200.410352 136.837105 
L 200.904048 141.945584 
L 201.397744 139.896159 
L 201.89144 116.673021 
L 202.385136 119.557933 
L 202.878832 126.650837 
L 203.372528 122.818845 
L 203.866224 117.967386 
L 204.35992 132.784883 
L 204.853616 133.339946 
L 205.347313 126.950955 
L 205.841009 126.362316 
L 206.334705 129.042919 
L 206.828401 131.050916 
L 207.322097 132.067313 
L 207.815793 125.605872 
L 208.309489 128.443371 
L 208.803185 138.521632 
L 209.296881 175.725018 
L 209.790577 133.139151 
L 210.284273 123.071641 
L 210.777969 125.624147 
L 211.271666 117.898427 
L 211.765362 124.879175 
L 212.259058 128.37885 
L 212.752754 125.174 
L 213.24645 124.170767 
L 213.740146 131.849602 
L 214.233842 132.956143 
L 214.727538 125.388442 
L 215.71493 154.508785 
L 216.208626 142.632204 
L 216.702322 147.243296 
L 217.196019 138.457833 
L 217.689715 126.846894 
L 218.183411 128.687303 
L 218.677107 141.753992 
L 219.170803 143.393709 
L 220.158195 126.411746 
L 220.651891 162.42754 
L 221.145587 172.725671 
L 221.639283 146.377195 
L 222.132979 140.674674 
L 222.626676 140.172016 
L 223.120372 149.569464 
L 224.107764 140.802196 
L 225.095156 134.21277 
L 225.588852 130.029218 
L 226.082548 135.416746 
L 226.576244 139.345395 
L 227.563636 148.304717 
L 228.057332 146.081973 
L 228.551029 141.259311 
L 229.044725 146.481233 
L 229.538421 144.479651 
L 230.032117 151.997846 
L 230.525813 166.118171 
L 231.019509 165.667511 
L 231.513205 147.721828 
L 232.006901 146.358343 
L 232.500597 147.269325 
L 232.994293 149.732238 
L 233.487989 161.458133 
L 233.981685 145.589881 
L 234.475382 154.460704 
L 234.969078 159.275802 
L 235.462774 146.670309 
L 235.95647 147.897554 
L 236.450166 137.709377 
L 236.943862 145.1328 
L 237.437558 148.664502 
L 237.931254 139.506523 
L 238.42495 152.717515 
L 238.918646 173.049965 
L 239.412342 165.874409 
L 239.906038 169.047536 
L 240.399735 145.125869 
L 240.893431 146.701829 
L 241.387127 148.87504 
L 241.880823 182.628049 
L 242.374519 149.991888 
L 242.868215 137.333051 
L 243.361911 138.565511 
L 243.855607 148.344535 
L 244.349303 174.942428 
L 244.842999 182.119079 
L 245.336695 164.107103 
L 245.830392 155.837697 
L 246.324088 157.835867 
L 246.817784 157.671844 
L 247.31148 164.315319 
L 247.805176 160.931531 
L 248.298872 174.713745 
L 248.792568 176.499736 
L 249.286264 167.52616 
L 249.77996 169.907441 
L 250.273656 156.938196 
L 250.767352 169.90777 
L 251.261048 166.931946 
L 251.754745 145.17617 
L 252.248441 145.320436 
L 252.742137 140.077352 
L 253.235833 158.349976 
L 253.729529 146.29526 
L 254.223225 148.413095 
L 254.716921 164.732031 
L 255.210617 173.959168 
L 255.704313 162.47612 
L 256.198009 162.58251 
L 257.185401 171.925858 
L 257.679098 188.688478 
L 258.172794 191.71424 
L 258.66649 177.277553 
L 259.160186 178.211746 
L 259.653882 186.33367 
L 260.147578 192.323903 
L 260.641274 178.345011 
L 261.13497 183.22177 
L 261.628666 191.701235 
L 262.122362 191.930636 
L 262.616058 173.839824 
L 263.109754 177.607063 
L 263.603451 190.80198 
L 264.590843 200.728885 
L 265.084539 215.054974 
L 265.578235 203.545458 
L 266.565627 210.988647 
L 267.059323 199.081106 
L 267.553019 207.587654 
L 268.046715 206.175622 
L 268.540411 209.051359 
L 269.034107 200.937555 
L 269.527804 229.121284 
L 270.0215 231.080385 
L 270.515196 235.161047 
L 271.008892 222.469179 
L 271.502588 253.146172 
L 271.996284 241.428869 
L 272.48998 236.244676 
L 272.983676 252.460552 
L 273.477372 238.950183 
L 273.971068 231.172672 
L 274.464764 217.104214 
L 274.958461 217.232954 
L 275.452157 231.03154 
L 275.945853 239.141432 
L 276.439549 237.439221 
L 276.933245 238.914493 
L 277.426941 227.930742 
L 277.920637 234.687871 
L 278.414333 246.601307 
L 278.908029 226.029043 
L 279.401725 218.283958 
L 279.895421 222.835419 
L 280.389117 215.240509 
L 280.882814 239.197812 
L 281.37651 232.372063 
L 281.870206 239.842246 
L 282.363902 234.922922 
L 282.857598 236.595994 
L 283.351294 241.812555 
L 283.84499 231.430282 
L 284.338686 234.924342 
L 284.832382 240.274907 
L 285.326078 236.570646 
L 285.819774 223.439498 
L 286.31347 226.3014 
L 286.807167 218.732866 
L 287.300863 243.658503 
L 287.794559 247.834098 
L 288.288255 234.066175 
L 288.781951 230.786247 
L 289.275647 222.931709 
L 289.769343 243.449421 
L 290.263039 235.143586 
L 290.756735 242.420711 
L 291.250431 207.502965 
L 291.744127 214.658547 
L 292.237823 235.111593 
L 292.73152 240.835955 
L 293.225216 236.235451 
L 293.718912 233.119672 
L 294.212608 213.293393 
L 294.706304 228.542972 
L 295.2 217.293388 
L 295.693696 249.681432 
L 296.187392 226.555593 
L 296.681088 221.878994 
L 297.174784 229.400122 
L 297.66848 221.350819 
L 298.162177 216.432172 
L 298.655873 220.924433 
L 299.149569 229.313935 
L 299.643265 233.613634 
L 300.136961 239.987489 
L 300.630657 229.638622 
L 301.124353 222.033156 
L 301.618049 239.964063 
L 302.111745 234.658412 
L 302.605441 227.259245 
L 303.099137 244.171562 
L 303.592833 249.173993 
L 304.08653 260.007221 
L 304.580226 248.404391 
L 305.073922 255.844004 
L 305.567618 243.474464 
L 306.061314 247.030858 
L 306.55501 241.40858 
L 307.048706 224.553685 
L 307.542402 228.388755 
L 308.036098 244.983509 
L 309.02349 217.242613 
L 309.517186 233.666055 
L 310.010883 219.451077 
L 310.504579 212.806918 
L 310.998275 218.677592 
L 311.491971 217.925481 
L 312.479363 223.999568 
L 312.973059 227.350208 
L 313.466755 218.44941 
L 313.960451 202.218831 
L 314.454147 207.528135 
L 314.947843 227.322572 
L 315.441539 222.453244 
L 315.935236 206.26534 
L 316.922628 232.143158 
L 317.416324 218.827404 
L 317.91002 234.122066 
L 318.403716 220.107974 
L 318.897412 213.27138 
L 319.391108 210.500742 
L 319.884804 202.391553 
L 320.872196 248.523037 
L 321.365893 238.866335 
L 321.859589 220.190658 
L 322.353285 213.323768 
L 322.846981 203.58157 
L 323.340677 200.523676 
L 323.834373 193.912004 
L 324.328069 191.288102 
L 324.821765 209.108185 
L 325.315461 193.776027 
L 325.809157 202.989161 
L 326.302853 188.443755 
L 326.796549 201.079691 
L 327.290246 184.644677 
L 327.783942 177.822085 
L 328.277638 179.344123 
L 328.771334 179.568219 
L 329.758726 212.330955 
L 330.252422 214.681958 
L 330.746118 197.349023 
L 331.73351 173.733554 
L 332.227206 187.661397 
L 332.720902 189.602427 
L 333.214599 197.134734 
L 333.708295 180.381577 
L 334.201991 171.127761 
L 334.695687 181.267764 
L 335.189383 174.816676 
L 335.683079 183.767441 
L 336.176775 203.889163 
L 336.670471 183.543233 
L 337.164167 174.209054 
L 337.657863 173.298857 
L 338.151559 164.89846 
L 338.645255 162.69285 
L 339.138952 169.140194 
L 339.632648 185.253331 
L 340.126344 185.723091 
L 340.62004 177.44479 
L 341.607432 166.126998 
L 342.101128 166.546145 
L 342.594824 182.992099 
L 343.08852 185.634368 
L 343.582216 173.390731 
L 344.075912 185.463857 
L 344.569608 164.10513 
L 345.063305 160.194096 
L 345.557001 171.560647 
L 346.050697 163.445037 
L 346.544393 160.296117 
L 347.038089 159.292413 
L 347.531785 168.9457 
L 348.025481 223.733955 
L 348.519177 173.174372 
L 349.012873 151.656865 
L 349.506569 146.836576 
L 350.000265 137.172643 
L 350.493962 148.327256 
L 350.987658 145.51114 
L 351.481354 151.362418 
L 351.97505 149.387914 
L 352.468746 150.194443 
L 352.962442 142.807206 
L 353.949834 133.491464 
L 354.44353 140.024314 
L 354.937226 143.594675 
L 355.430922 149.11881 
L 355.924618 142.639227 
L 356.418315 141.211917 
L 357.405707 150.964263 
L 357.899403 137.752878 
L 358.393099 132.893504 
L 358.886795 132.631791 
L 359.874187 121.925189 
L 360.367883 127.576686 
L 360.861579 127.46305 
L 361.355275 125.268081 
L 361.848971 129.315447 
L 362.342668 141.401141 
L 362.836364 139.883807 
L 363.33006 130.569373 
L 363.823756 141.638434 
L 364.317452 135.797697 
L 364.811148 139.657793 
L 365.304844 127.829411 
L 365.79854 129.387447 
L 366.292236 128.828779 
L 366.785932 138.793293 
L 367.773324 124.045184 
L 368.267021 122.092481 
L 368.760717 125.239657 
L 369.254413 125.748818 
L 369.748109 117.623942 
L 370.241805 116.947449 
L 370.735501 112.9031 
L 371.229197 125.182422 
L 371.722893 130.648606 
L 372.216589 129.549387 
L 372.710285 123.69687 
L 373.203981 151.864463 
L 373.697678 133.586886 
L 374.191374 121.933455 
L 374.68507 121.842826 
L 375.178766 138.991298 
L 375.672462 126.837063 
L 376.166158 121.253712 
L 377.15355 129.648966 
L 377.647246 124.782175 
L 378.140942 124.429519 
L 378.634638 117.389041 
L 379.128334 123.093902 
L 379.622031 125.016931 
L 380.115727 132.340465 
L 380.609423 127.563424 
L 381.103119 133.949522 
L 381.596815 134.5709 
L 382.090511 133.092407 
L 382.584207 137.09658 
L 383.077903 127.176627 
L 383.571599 120.927959 
L 384.065295 121.613814 
L 384.558991 123.496966 
L 385.052687 130.785987 
L 385.546384 132.310356 
L 386.04008 151.429762 
L 386.533776 138.781337 
L 387.027472 138.879068 
L 387.521168 132.294892 
L 388.014864 137.343826 
L 388.50856 139.773796 
L 389.002256 144.779901 
L 389.495952 163.078099 
L 389.989648 144.283506 
L 390.483344 153.213424 
L 390.97704 141.365199 
L 391.470737 140.93765 
L 391.964433 128.932834 
L 392.458129 133.137106 
L 392.951825 135.108792 
L 393.445521 133.855388 
L 393.939217 131.468149 
L 394.432913 137.089274 
L 394.926609 135.049663 
L 395.420305 136.698477 
L 396.407697 126.650907 
L 396.901393 127.12009 
L 397.39509 128.351248 
L 397.888786 131.887632 
L 398.382482 144.142232 
L 398.876178 143.564763 
L 399.369874 171.991926 
L 399.86357 146.34053 
L 400.357266 148.405697 
L 400.850962 148.064111 
L 401.344658 150.756298 
L 401.838354 133.481177 
L 402.33205 150.91453 
L 402.825747 156.496363 
L 403.319443 157.499759 
L 403.813139 165.05544 
L 404.306835 143.755828 
L 404.800531 165.470628 
L 405.294227 134.100448 
L 405.787923 133.158982 
L 406.281619 137.831707 
L 407.269011 153.456921 
L 407.762707 144.229882 
L 408.256403 144.120932 
L 408.7501 144.616115 
L 409.243796 150.425515 
L 409.737492 175.187155 
L 410.231188 151.859474 
L 410.724884 147.810006 
L 411.21858 138.557374 
L 411.712276 141.972254 
L 412.205972 137.930035 
L 412.699668 143.48582 
L 413.193364 141.83753 
L 413.68706 144.539248 
L 414.180756 142.019311 
L 414.674453 148.070972 
L 415.168149 178.168113 
L 415.661845 168.947263 
L 416.155541 152.695382 
L 416.649237 154.971021 
L 417.142933 182.270103 
L 417.636629 197.010041 
L 418.130325 177.258801 
L 418.624021 172.803349 
L 419.117717 179.415271 
L 420.105109 155.576133 
L 420.598806 183.627846 
L 421.092502 169.521478 
L 421.586198 146.79776 
L 422.079894 142.164772 
L 422.57359 146.283094 
L 423.067286 196.381243 
L 423.560982 188.787022 
L 424.054678 202.86261 
L 424.548374 154.282763 
L 425.04207 146.741146 
L 425.535766 178.369767 
L 426.029463 190.929324 
L 426.523159 162.09232 
L 427.016855 171.91071 
L 427.510551 158.946785 
L 428.004247 140.437061 
L 428.497943 130.805764 
L 428.991639 136.186392 
L 429.485335 181.437264 
L 429.979031 168.214006 
L 430.472727 143.226318 
L 430.966423 153.059588 
L 431.460119 147.315298 
L 431.953816 132.212921 
L 432.447512 144.707512 
L 432.941208 149.800802 
L 433.434904 163.809474 
L 433.9286 151.983676 
L 434.422296 150.754116 
L 435.409688 144.995964 
L 435.903384 140.385588 
L 436.39708 137.683735 
L 436.890776 148.290649 
L 437.384472 139.204535 
L 437.878169 137.472964 
L 438.371865 151.32641 
L 438.865561 139.8217 
L 439.359257 143.036086 
L 439.852953 150.623819 
L 440.346649 149.182505 
L 441.334041 123.72374 
L 441.827737 133.583494 
L 442.321433 172.497851 
L 442.815129 173.02448 
L 443.308825 166.610923 
L 443.802522 168.811446 
L 444.296218 145.836164 
L 444.789914 143.418192 
L 445.28361 149.4726 
L 445.777306 142.297516 
L 446.271002 145.407392 
L 447.258394 167.911447 
L 447.75209 162.589163 
L 448.245786 170.229549 
L 448.739482 154.505639 
L 449.233179 148.421565 
L 449.726875 163.00181 
L 450.714267 150.414942 
L 451.207963 150.156893 
L 451.701659 155.050229 
L 452.195355 170.146423 
L 452.689051 159.546215 
L 453.182747 141.915105 
L 453.676443 145.387629 
L 454.170139 149.978247 
L 454.663835 153.116567 
L 455.651228 169.654213 
L 456.144924 160.763072 
L 456.63862 154.660925 
L 457.132316 173.403182 
L 457.626012 170.834205 
L 458.119708 172.914276 
L 458.613404 205.0784 
L 459.1071 200.015611 
L 459.600796 197.97548 
L 460.094492 187.251366 
L 460.588188 193.474527 
L 461.081885 203.523279 
L 461.575581 191.015494 
L 462.069277 195.071363 
L 462.562973 190.703483 
L 463.056669 195.321575 
L 463.550365 194.987057 
L 464.044061 196.589992 
L 464.537757 198.864834 
L 465.031453 202.012363 
L 465.525149 200.064454 
L 466.018845 193.405742 
L 466.512541 195.004555 
L 467.006238 215.517154 
L 467.499934 219.749684 
L 467.99363 203.471166 
L 468.487326 210.675992 
L 468.981022 208.377836 
L 469.474718 189.441543 
L 469.968414 199.258664 
L 470.46211 202.873416 
L 470.955806 229.285815 
L 471.449502 224.322423 
L 471.943198 238.564455 
L 472.436894 213.644223 
L 472.930591 223.057499 
L 473.424287 216.665423 
L 473.917983 221.250558 
L 474.411679 216.404523 
L 474.905375 200.506566 
L 475.399071 201.837547 
L 475.892767 206.02183 
L 476.386463 217.101584 
L 476.880159 209.042704 
L 477.373855 214.844656 
L 477.867551 209.920577 
L 478.361248 208.780972 
L 478.854944 229.003624 
L 479.34864 229.127099 
L 479.842336 250.477299 
L 480.336032 262.466139 
L 480.829728 256.805342 
L 481.323424 241.707296 
L 481.81712 240.02526 
L 482.310816 248.576862 
L 482.804512 248.238697 
L 483.298208 258.686443 
L 483.791904 233.721014 
L 484.779297 220.808708 
L 485.272993 223.95844 
L 485.766689 241.07596 
L 486.260385 249.367176 
L 486.754081 240.222554 
L 487.247777 246.377135 
L 487.741473 240.183758 
L 488.235169 253.862064 
L 488.728865 250.497815 
L 489.222561 251.185738 
L 489.716257 252.920709 
L 490.209954 272.84923 
L 490.70365 267.71561 
L 491.197346 259.047797 
L 491.691042 248.392068 
L 492.184738 246.670913 
L 492.678434 239.784656 
L 493.665826 253.5581 
L 494.653218 228.795534 
L 495.146914 251.528467 
L 495.64061 242.70518 
L 496.134307 283.91102 
L 496.628003 241.393753 
L 497.121699 212.356547 
L 497.615395 207.410021 
L 497.615395 207.410021 
" clip-path="url(#p3e740020ca)" style="fill: none; stroke: #ff7f0e; stroke-width: 1.5; stroke-linecap: round"/>
   </g>
   <g id="patch_3">
    <path d="M 72 384.48 
L 72 51.84 
" style="fill: none; stroke: #ffffff; stroke-width: 0.8; stroke-linejoin: miter; stroke-linecap: square"/>
   </g>
   <g id="patch_4">
    <path d="M 518.4 384.48 
L 518.4 51.84 
" style="fill: none; stroke: #ffffff; stroke-width: 0.8; stroke-linejoin: miter; stroke-linecap: square"/>
   </g>
   <g id="patch_5">
    <path d="M 72 384.48 
L 518.4 384.48 
" style="fill: none; stroke: #ffffff; stroke-width: 0.8; stroke-linejoin: miter; stroke-linecap: square"/>
   </g>
   <g id="patch_6">
    <path d="M 72 51.84 
L 518.4 51.84 
" style="fill: none; stroke: #ffffff; stroke-width: 0.8; stroke-linejoin: miter; stroke-linecap: square"/>
   </g>
   <g id="text_15">
    <!-- Maximum Solar Radiation Prediction 9 Days Ahead -->
    <g style="fill: #262626" transform="translate(159.139687 45.84) scale(0.12 -0.12)">
     <defs>
      <path id="ArialMT-4d" d="M 475 0 
L 475 4581 
L 1388 4581 
L 2472 1338 
Q 2622 884 2691 659 
Q 2769 909 2934 1394 
L 4031 4581 
L 4847 4581 
L 4847 0 
L 4263 0 
L 4263 3834 
L 2931 0 
L 2384 0 
L 1059 3900 
L 1059 0 
L 475 0 
z
" transform="scale(0.015625)"/>
      <path id="ArialMT-78" d="M 47 0 
L 1259 1725 
L 138 3319 
L 841 3319 
L 1350 2541 
Q 1494 2319 1581 2169 
Q 1719 2375 1834 2534 
L 2394 3319 
L 3066 3319 
L 1919 1756 
L 3153 0 
L 2463 0 
L 1781 1031 
L 1600 1309 
L 728 0 
L 47 0 
z
" transform="scale(0.015625)"/>
      <path id="ArialMT-69" d="M 425 3934 
L 425 4581 
L 988 4581 
L 988 3934 
L 425 3934 
z
M 425 0 
L 425 3319 
L 988 3319 
L 988 0 
L 425 0 
z
" transform="scale(0.015625)"/>
      <path id="ArialMT-75" d="M 2597 0 
L 2597 488 
Q 2209 -75 1544 -75 
Q 1250 -75 995 37 
Q 741 150 617 320 
Q 494 491 444 738 
Q 409 903 409 1263 
L 409 3319 
L 972 3319 
L 972 1478 
Q 972 1038 1006 884 
Q 1059 663 1231 536 
Q 1403 409 1656 409 
Q 1909 409 2131 539 
Q 2353 669 2445 892 
Q 2538 1116 2538 1541 
L 2538 3319 
L 3100 3319 
L 3100 0 
L 2597 0 
z
" transform="scale(0.015625)"/>
      <path id="ArialMT-20" transform="scale(0.015625)"/>
      <path id="ArialMT-53" d="M 288 1472 
L 859 1522 
Q 900 1178 1048 958 
Q 1197 738 1509 602 
Q 1822 466 2213 466 
Q 2559 466 2825 569 
Q 3091 672 3220 851 
Q 3350 1031 3350 1244 
Q 3350 1459 3225 1620 
Q 3100 1781 2813 1891 
Q 2628 1963 1997 2114 
Q 1366 2266 1113 2400 
Q 784 2572 623 2826 
Q 463 3081 463 3397 
Q 463 3744 659 4045 
Q 856 4347 1234 4503 
Q 1613 4659 2075 4659 
Q 2584 4659 2973 4495 
Q 3363 4331 3572 4012 
Q 3781 3694 3797 3291 
L 3216 3247 
Q 3169 3681 2898 3903 
Q 2628 4125 2100 4125 
Q 1550 4125 1298 3923 
Q 1047 3722 1047 3438 
Q 1047 3191 1225 3031 
Q 1400 2872 2139 2705 
Q 2878 2538 3153 2413 
Q 3553 2228 3743 1945 
Q 3934 1663 3934 1294 
Q 3934 928 3725 604 
Q 3516 281 3123 101 
Q 2731 -78 2241 -78 
Q 1619 -78 1198 103 
Q 778 284 539 648 
Q 300 1013 288 1472 
z
" transform="scale(0.015625)"/>
      <path id="ArialMT-6f" d="M 213 1659 
Q 213 2581 725 3025 
Q 1153 3394 1769 3394 
Q 2453 3394 2887 2945 
Q 3322 2497 3322 1706 
Q 3322 1066 3130 698 
Q 2938 331 2570 128 
Q 2203 -75 1769 -75 
Q 1072 -75 642 372 
Q 213 819 213 1659 
z
M 791 1659 
Q 791 1022 1069 705 
Q 1347 388 1769 388 
Q 2188 388 2466 706 
Q 2744 1025 2744 1678 
Q 2744 2294 2464 2611 
Q 2184 2928 1769 2928 
Q 1347 2928 1069 2612 
Q 791 2297 791 1659 
z
" transform="scale(0.015625)"/>
      <path id="ArialMT-6c" d="M 409 0 
L 409 4581 
L 972 4581 
L 972 0 
L 409 0 
z
" transform="scale(0.015625)"/>
      <path id="ArialMT-72" d="M 416 0 
L 416 3319 
L 922 3319 
L 922 2816 
Q 1116 3169 1280 3281 
Q 1444 3394 1641 3394 
Q 1925 3394 2219 3213 
L 2025 2691 
Q 1819 2813 1613 2813 
Q 1428 2813 1281 2702 
Q 1134 2591 1072 2394 
Q 978 2094 978 1738 
L 978 0 
L 416 0 
z
" transform="scale(0.015625)"/>
      <path id="ArialMT-52" d="M 503 0 
L 503 4581 
L 2534 4581 
Q 3147 4581 3465 4457 
Q 3784 4334 3975 4021 
Q 4166 3709 4166 3331 
Q 4166 2844 3850 2509 
Q 3534 2175 2875 2084 
Q 3116 1969 3241 1856 
Q 3506 1613 3744 1247 
L 4541 0 
L 3778 0 
L 3172 953 
Q 2906 1366 2734 1584 
Q 2563 1803 2427 1890 
Q 2291 1978 2150 2013 
Q 2047 2034 1813 2034 
L 1109 2034 
L 1109 0 
L 503 0 
z
M 1109 2559 
L 2413 2559 
Q 2828 2559 3062 2645 
Q 3297 2731 3419 2920 
Q 3541 3109 3541 3331 
Q 3541 3656 3305 3865 
Q 3069 4075 2559 4075 
L 1109 4075 
L 1109 2559 
z
" transform="scale(0.015625)"/>
      <path id="ArialMT-64" d="M 2575 0 
L 2575 419 
Q 2259 -75 1647 -75 
Q 1250 -75 917 144 
Q 584 363 401 755 
Q 219 1147 219 1656 
Q 219 2153 384 2558 
Q 550 2963 881 3178 
Q 1213 3394 1622 3394 
Q 1922 3394 2156 3267 
Q 2391 3141 2538 2938 
L 2538 4581 
L 3097 4581 
L 3097 0 
L 2575 0 
z
M 797 1656 
Q 797 1019 1065 703 
Q 1334 388 1700 388 
Q 2069 388 2326 689 
Q 2584 991 2584 1609 
Q 2584 2291 2321 2609 
Q 2059 2928 1675 2928 
Q 1300 2928 1048 2622 
Q 797 2316 797 1656 
z
" transform="scale(0.015625)"/>
      <path id="ArialMT-74" d="M 1650 503 
L 1731 6 
Q 1494 -44 1306 -44 
Q 1000 -44 831 53 
Q 663 150 594 308 
Q 525 466 525 972 
L 525 2881 
L 113 2881 
L 113 3319 
L 525 3319 
L 525 4141 
L 1084 4478 
L 1084 3319 
L 1650 3319 
L 1650 2881 
L 1084 2881 
L 1084 941 
Q 1084 700 1114 631 
Q 1144 563 1211 522 
Q 1278 481 1403 481 
Q 1497 481 1650 503 
z
" transform="scale(0.015625)"/>
      <path id="ArialMT-6e" d="M 422 0 
L 422 3319 
L 928 3319 
L 928 2847 
Q 1294 3394 1984 3394 
Q 2284 3394 2536 3286 
Q 2788 3178 2913 3003 
Q 3038 2828 3088 2588 
Q 3119 2431 3119 2041 
L 3119 0 
L 2556 0 
L 2556 2019 
Q 2556 2363 2490 2533 
Q 2425 2703 2258 2804 
Q 2091 2906 1866 2906 
Q 1506 2906 1245 2678 
Q 984 2450 984 1813 
L 984 0 
L 422 0 
z
" transform="scale(0.015625)"/>
      <path id="ArialMT-50" d="M 494 0 
L 494 4581 
L 2222 4581 
Q 2678 4581 2919 4538 
Q 3256 4481 3484 4323 
Q 3713 4166 3852 3881 
Q 3991 3597 3991 3256 
Q 3991 2672 3619 2267 
Q 3247 1863 2275 1863 
L 1100 1863 
L 1100 0 
L 494 0 
z
M 1100 2403 
L 2284 2403 
Q 2872 2403 3119 2622 
Q 3366 2841 3366 3238 
Q 3366 3525 3220 3729 
Q 3075 3934 2838 4000 
Q 2684 4041 2272 4041 
L 1100 4041 
L 1100 2403 
z
" transform="scale(0.015625)"/>
      <path id="ArialMT-65" d="M 2694 1069 
L 3275 997 
Q 3138 488 2766 206 
Q 2394 -75 1816 -75 
Q 1088 -75 661 373 
Q 234 822 234 1631 
Q 234 2469 665 2931 
Q 1097 3394 1784 3394 
Q 2450 3394 2872 2941 
Q 3294 2488 3294 1666 
Q 3294 1616 3291 1516 
L 816 1516 
Q 847 969 1125 678 
Q 1403 388 1819 388 
Q 2128 388 2347 550 
Q 2566 713 2694 1069 
z
M 847 1978 
L 2700 1978 
Q 2663 2397 2488 2606 
Q 2219 2931 1791 2931 
Q 1403 2931 1139 2672 
Q 875 2413 847 1978 
z
" transform="scale(0.015625)"/>
      <path id="ArialMT-63" d="M 2588 1216 
L 3141 1144 
Q 3050 572 2676 248 
Q 2303 -75 1759 -75 
Q 1078 -75 664 370 
Q 250 816 250 1647 
Q 250 2184 428 2587 
Q 606 2991 970 3192 
Q 1334 3394 1763 3394 
Q 2303 3394 2647 3120 
Q 2991 2847 3088 2344 
L 2541 2259 
Q 2463 2594 2264 2762 
Q 2066 2931 1784 2931 
Q 1359 2931 1093 2626 
Q 828 2322 828 1663 
Q 828 994 1084 691 
Q 1341 388 1753 388 
Q 2084 388 2306 591 
Q 2528 794 2588 1216 
z
" transform="scale(0.015625)"/>
      <path id="ArialMT-39" d="M 350 1059 
L 891 1109 
Q 959 728 1153 556 
Q 1347 384 1650 384 
Q 1909 384 2104 503 
Q 2300 622 2425 820 
Q 2550 1019 2634 1356 
Q 2719 1694 2719 2044 
Q 2719 2081 2716 2156 
Q 2547 1888 2255 1720 
Q 1963 1553 1622 1553 
Q 1053 1553 659 1965 
Q 266 2378 266 3053 
Q 266 3750 677 4175 
Q 1088 4600 1706 4600 
Q 2153 4600 2523 4359 
Q 2894 4119 3086 3673 
Q 3278 3228 3278 2384 
Q 3278 1506 3087 986 
Q 2897 466 2520 194 
Q 2144 -78 1638 -78 
Q 1100 -78 759 220 
Q 419 519 350 1059 
z
M 2653 3081 
Q 2653 3566 2395 3850 
Q 2138 4134 1775 4134 
Q 1400 4134 1122 3828 
Q 844 3522 844 3034 
Q 844 2597 1108 2323 
Q 1372 2050 1759 2050 
Q 2150 2050 2401 2323 
Q 2653 2597 2653 3081 
z
" transform="scale(0.015625)"/>
      <path id="ArialMT-41" d="M -9 0 
L 1750 4581 
L 2403 4581 
L 4278 0 
L 3588 0 
L 3053 1388 
L 1138 1388 
L 634 0 
L -9 0 
z
M 1313 1881 
L 2866 1881 
L 2388 3150 
Q 2169 3728 2063 4100 
Q 1975 3659 1816 3225 
L 1313 1881 
z
" transform="scale(0.015625)"/>
      <path id="ArialMT-68" d="M 422 0 
L 422 4581 
L 984 4581 
L 984 2938 
Q 1378 3394 1978 3394 
Q 2347 3394 2619 3248 
Q 2891 3103 3008 2847 
Q 3125 2591 3125 2103 
L 3125 0 
L 2563 0 
L 2563 2103 
Q 2563 2525 2380 2717 
Q 2197 2909 1863 2909 
Q 1613 2909 1392 2779 
Q 1172 2650 1078 2428 
Q 984 2206 984 1816 
L 984 0 
L 422 0 
z
" transform="scale(0.015625)"/>
     </defs>
     <use xlink:href="#ArialMT-4d"/>
     <use xlink:href="#ArialMT-61" x="83.300781"/>
     <use xlink:href="#ArialMT-78" x="138.916016"/>
     <use xlink:href="#ArialMT-69" x="188.916016"/>
     <use xlink:href="#ArialMT-6d" x="211.132812"/>
     <use xlink:href="#ArialMT-75" x="294.433594"/>
     <use xlink:href="#ArialMT-6d" x="350.048828"/>
     <use xlink:href="#ArialMT-20" x="433.349609"/>
     <use xlink:href="#ArialMT-53" x="461.132812"/>
     <use xlink:href="#ArialMT-6f" x="527.832031"/>
     <use xlink:href="#ArialMT-6c" x="583.447266"/>
     <use xlink:href="#ArialMT-61" x="605.664062"/>
     <use xlink:href="#ArialMT-72" x="661.279297"/>
     <use xlink:href="#ArialMT-20" x="694.580078"/>
     <use xlink:href="#ArialMT-52" x="722.363281"/>
     <use xlink:href="#ArialMT-61" x="794.580078"/>
     <use xlink:href="#ArialMT-64" x="850.195312"/>
     <use xlink:href="#ArialMT-69" x="905.810547"/>
     <use xlink:href="#ArialMT-61" x="928.027344"/>
     <use xlink:href="#ArialMT-74" x="983.642578"/>
     <use xlink:href="#ArialMT-69" x="1011.425781"/>
     <use xlink:href="#ArialMT-6f" x="1033.642578"/>
     <use xlink:href="#ArialMT-6e" x="1089.257812"/>
     <use xlink:href="#ArialMT-20" x="1144.873047"/>
     <use xlink:href="#ArialMT-50" x="1172.65625"/>
     <use xlink:href="#ArialMT-72" x="1239.355469"/>
     <use xlink:href="#ArialMT-65" x="1272.65625"/>
     <use xlink:href="#ArialMT-64" x="1328.271484"/>
     <use xlink:href="#ArialMT-69" x="1383.886719"/>
     <use xlink:href="#ArialMT-63" x="1406.103516"/>
     <use xlink:href="#ArialMT-74" x="1456.103516"/>
     <use xlink:href="#ArialMT-69" x="1483.886719"/>
     <use xlink:href="#ArialMT-6f" x="1506.103516"/>
     <use xlink:href="#ArialMT-6e" x="1561.71875"/>
     <use xlink:href="#ArialMT-20" x="1617.333984"/>
     <use xlink:href="#ArialMT-39" x="1645.117188"/>
     <use xlink:href="#ArialMT-20" x="1700.732422"/>
     <use xlink:href="#ArialMT-44" x="1728.515625"/>
     <use xlink:href="#ArialMT-61" x="1800.732422"/>
     <use xlink:href="#ArialMT-79" x="1856.347656"/>
     <use xlink:href="#ArialMT-73" x="1906.347656"/>
     <use xlink:href="#ArialMT-20" x="1956.347656"/>
     <use xlink:href="#ArialMT-41" x="1978.630859"/>
     <use xlink:href="#ArialMT-68" x="2045.330078"/>
     <use xlink:href="#ArialMT-65" x="2100.945312"/>
     <use xlink:href="#ArialMT-61" x="2156.560547"/>
     <use xlink:href="#ArialMT-64" x="2212.175781"/>
    </g>
   </g>
   <g id="legend_1">
    <g id="patch_7">
     <path d="M 437.15625 88.130625 
L 511.4 88.130625 
Q 513.4 88.130625 513.4 86.130625 
L 513.4 58.84 
Q 513.4 56.84 511.4 56.84 
L 437.15625 56.84 
Q 435.15625 56.84 435.15625 58.84 
L 435.15625 86.130625 
Q 435.15625 88.130625 437.15625 88.130625 
z
" style="fill: #eaeaf2; opacity: 0.8; stroke: #cccccc; stroke-linejoin: miter"/>
    </g>
    <g id="line2d_15">
     <path d="M 439.15625 64.497812 
L 449.15625 64.497812 
L 459.15625 64.497812 
" style="fill: none; stroke: #1f77b4; stroke-width: 1.5; stroke-linecap: round"/>
    </g>
    <g id="text_16">
     <!-- Real -->
     <g style="fill: #262626" transform="translate(467.15625 67.997812) scale(0.1 -0.1)">
      <use xlink:href="#ArialMT-52"/>
      <use xlink:href="#ArialMT-65" x="72.216797"/>
      <use xlink:href="#ArialMT-61" x="127.832031"/>
      <use xlink:href="#ArialMT-6c" x="183.447266"/>
     </g>
    </g>
    <g id="line2d_16">
     <path d="M 439.15625 78.643125 
L 449.15625 78.643125 
L 459.15625 78.643125 
" style="fill: none; stroke: #ff7f0e; stroke-width: 1.5; stroke-linecap: round"/>
    </g>
    <g id="text_17">
     <!-- Predicted -->
     <g style="fill: #262626" transform="translate(467.15625 82.143125) scale(0.1 -0.1)">
      <use xlink:href="#ArialMT-50"/>
      <use xlink:href="#ArialMT-72" x="66.699219"/>
      <use xlink:href="#ArialMT-65" x="100"/>
      <use xlink:href="#ArialMT-64" x="155.615234"/>
      <use xlink:href="#ArialMT-69" x="211.230469"/>
      <use xlink:href="#ArialMT-63" x="233.447266"/>
      <use xlink:href="#ArialMT-74" x="283.447266"/>
      <use xlink:href="#ArialMT-65" x="311.230469"/>
      <use xlink:href="#ArialMT-64" x="366.845703"/>
     </g>
    </g>
   </g>
  </g>
 </g>
 <defs>
  <clipPath id="p3e740020ca">
   <rect x="72" y="51.84" width="446.4" height="332.64"/>
  </clipPath>
 </defs>
</svg>
