<?xml version="1.0" encoding="utf-8" standalone="no"?>
<!DOCTYPE svg PUBLIC "-//W3C//DTD SVG 1.1//EN"
  "http://www.w3.org/Graphics/SVG/1.1/DTD/svg11.dtd">
<svg xmlns:xlink="http://www.w3.org/1999/xlink" width="576pt" height="432pt" viewBox="0 0 576 432" xmlns="http://www.w3.org/2000/svg" version="1.1">
 <metadata>
  <rdf:RDF xmlns:dc="http://purl.org/dc/elements/1.1/" xmlns:cc="http://creativecommons.org/ns#" xmlns:rdf="http://www.w3.org/1999/02/22-rdf-syntax-ns#">
   <cc:Work>
    <dc:type rdf:resource="http://purl.org/dc/dcmitype/StillImage"/>
    <dc:date>2023-11-17T05:13:23.232091</dc:date>
    <dc:format>image/svg+xml</dc:format>
    <dc:creator>
     <cc:Agent>
      <dc:title>Matplotlib v3.8.0, https://matplotlib.org/</dc:title>
     </cc:Agent>
    </dc:creator>
   </cc:Work>
  </rdf:RDF>
 </metadata>
 <defs>
  <style type="text/css">*{stroke-linejoin: round; stroke-linecap: butt}</style>
 </defs>
 <g id="figure_1">
  <g id="patch_1">
   <path d="M 0 432 
L 576 432 
L 576 0 
L 0 0 
z
" style="fill: #ffffff"/>
  </g>
  <g id="axes_1">
   <g id="patch_2">
    <path d="M 72 384.48 
L 518.4 384.48 
L 518.4 51.84 
L 72 51.84 
z
" style="fill: #eaeaf2"/>
   </g>
   <g id="matplotlib.axis_1">
    <g id="xtick_1">
     <g id="line2d_1">
      <path d="M 92.290909 384.48 
L 92.290909 51.84 
" clip-path="url(#p4a4fa8f67f)" style="fill: none; stroke: #ffffff; stroke-width: 0.8; stroke-linecap: round"/>
     </g>
     <g id="text_1">
      <!-- 0 -->
      <g style="fill: #262626" transform="translate(89.51044 398.637812) scale(0.1 -0.1)">
       <defs>
        <path id="ArialMT-30" d="M 266 2259 
Q 266 3072 433 3567 
Q 600 4063 929 4331 
Q 1259 4600 1759 4600 
Q 2128 4600 2406 4451 
Q 2684 4303 2865 4023 
Q 3047 3744 3150 3342 
Q 3253 2941 3253 2259 
Q 3253 1453 3087 958 
Q 2922 463 2592 192 
Q 2263 -78 1759 -78 
Q 1097 -78 719 397 
Q 266 969 266 2259 
z
M 844 2259 
Q 844 1131 1108 757 
Q 1372 384 1759 384 
Q 2147 384 2411 759 
Q 2675 1134 2675 2259 
Q 2675 3391 2411 3762 
Q 2147 4134 1753 4134 
Q 1366 4134 1134 3806 
Q 844 3388 844 2259 
z
" transform="scale(0.015625)"/>
       </defs>
       <use xlink:href="#ArialMT-30"/>
      </g>
     </g>
    </g>
    <g id="xtick_2">
     <g id="line2d_2">
      <path d="M 191.030126 384.48 
L 191.030126 51.84 
" clip-path="url(#p4a4fa8f67f)" style="fill: none; stroke: #ffffff; stroke-width: 0.8; stroke-linecap: round"/>
     </g>
     <g id="text_2">
      <!-- 200 -->
      <g style="fill: #262626" transform="translate(182.68872 398.637812) scale(0.1 -0.1)">
       <defs>
        <path id="ArialMT-32" d="M 3222 541 
L 3222 0 
L 194 0 
Q 188 203 259 391 
Q 375 700 629 1000 
Q 884 1300 1366 1694 
Q 2113 2306 2375 2664 
Q 2638 3022 2638 3341 
Q 2638 3675 2398 3904 
Q 2159 4134 1775 4134 
Q 1369 4134 1125 3890 
Q 881 3647 878 3216 
L 300 3275 
Q 359 3922 746 4261 
Q 1134 4600 1788 4600 
Q 2447 4600 2831 4234 
Q 3216 3869 3216 3328 
Q 3216 3053 3103 2787 
Q 2991 2522 2730 2228 
Q 2469 1934 1863 1422 
Q 1356 997 1212 845 
Q 1069 694 975 541 
L 3222 541 
z
" transform="scale(0.015625)"/>
       </defs>
       <use xlink:href="#ArialMT-32"/>
       <use xlink:href="#ArialMT-30" x="55.615234"/>
       <use xlink:href="#ArialMT-30" x="111.230469"/>
      </g>
     </g>
    </g>
    <g id="xtick_3">
     <g id="line2d_3">
      <path d="M 289.769343 384.48 
L 289.769343 51.84 
" clip-path="url(#p4a4fa8f67f)" style="fill: none; stroke: #ffffff; stroke-width: 0.8; stroke-linecap: round"/>
     </g>
     <g id="text_3">
      <!-- 400 -->
      <g style="fill: #262626" transform="translate(281.427937 398.637812) scale(0.1 -0.1)">
       <defs>
        <path id="ArialMT-34" d="M 2069 0 
L 2069 1097 
L 81 1097 
L 81 1613 
L 2172 4581 
L 2631 4581 
L 2631 1613 
L 3250 1613 
L 3250 1097 
L 2631 1097 
L 2631 0 
L 2069 0 
z
M 2069 1613 
L 2069 3678 
L 634 1613 
L 2069 1613 
z
" transform="scale(0.015625)"/>
       </defs>
       <use xlink:href="#ArialMT-34"/>
       <use xlink:href="#ArialMT-30" x="55.615234"/>
       <use xlink:href="#ArialMT-30" x="111.230469"/>
      </g>
     </g>
    </g>
    <g id="xtick_4">
     <g id="line2d_4">
      <path d="M 388.50856 384.48 
L 388.50856 51.84 
" clip-path="url(#p4a4fa8f67f)" style="fill: none; stroke: #ffffff; stroke-width: 0.8; stroke-linecap: round"/>
     </g>
     <g id="text_4">
      <!-- 600 -->
      <g style="fill: #262626" transform="translate(380.167154 398.637812) scale(0.1 -0.1)">
       <defs>
        <path id="ArialMT-36" d="M 3184 3459 
L 2625 3416 
Q 2550 3747 2413 3897 
Q 2184 4138 1850 4138 
Q 1581 4138 1378 3988 
Q 1113 3794 959 3422 
Q 806 3050 800 2363 
Q 1003 2672 1297 2822 
Q 1591 2972 1913 2972 
Q 2475 2972 2870 2558 
Q 3266 2144 3266 1488 
Q 3266 1056 3080 686 
Q 2894 316 2569 119 
Q 2244 -78 1831 -78 
Q 1128 -78 684 439 
Q 241 956 241 2144 
Q 241 3472 731 4075 
Q 1159 4600 1884 4600 
Q 2425 4600 2770 4297 
Q 3116 3994 3184 3459 
z
M 888 1484 
Q 888 1194 1011 928 
Q 1134 663 1356 523 
Q 1578 384 1822 384 
Q 2178 384 2434 671 
Q 2691 959 2691 1453 
Q 2691 1928 2437 2201 
Q 2184 2475 1800 2475 
Q 1419 2475 1153 2201 
Q 888 1928 888 1484 
z
" transform="scale(0.015625)"/>
       </defs>
       <use xlink:href="#ArialMT-36"/>
       <use xlink:href="#ArialMT-30" x="55.615234"/>
       <use xlink:href="#ArialMT-30" x="111.230469"/>
      </g>
     </g>
    </g>
    <g id="xtick_5">
     <g id="line2d_5">
      <path d="M 487.247777 384.48 
L 487.247777 51.84 
" clip-path="url(#p4a4fa8f67f)" style="fill: none; stroke: #ffffff; stroke-width: 0.8; stroke-linecap: round"/>
     </g>
     <g id="text_5">
      <!-- 800 -->
      <g style="fill: #262626" transform="translate(478.906371 398.637812) scale(0.1 -0.1)">
       <defs>
        <path id="ArialMT-38" d="M 1131 2484 
Q 781 2613 612 2850 
Q 444 3088 444 3419 
Q 444 3919 803 4259 
Q 1163 4600 1759 4600 
Q 2359 4600 2725 4251 
Q 3091 3903 3091 3403 
Q 3091 3084 2923 2848 
Q 2756 2613 2416 2484 
Q 2838 2347 3058 2040 
Q 3278 1734 3278 1309 
Q 3278 722 2862 322 
Q 2447 -78 1769 -78 
Q 1091 -78 675 323 
Q 259 725 259 1325 
Q 259 1772 486 2073 
Q 713 2375 1131 2484 
z
M 1019 3438 
Q 1019 3113 1228 2906 
Q 1438 2700 1772 2700 
Q 2097 2700 2305 2904 
Q 2513 3109 2513 3406 
Q 2513 3716 2298 3927 
Q 2084 4138 1766 4138 
Q 1444 4138 1231 3931 
Q 1019 3725 1019 3438 
z
M 838 1322 
Q 838 1081 952 856 
Q 1066 631 1291 507 
Q 1516 384 1775 384 
Q 2178 384 2440 643 
Q 2703 903 2703 1303 
Q 2703 1709 2433 1975 
Q 2163 2241 1756 2241 
Q 1359 2241 1098 1978 
Q 838 1716 838 1322 
z
" transform="scale(0.015625)"/>
       </defs>
       <use xlink:href="#ArialMT-38"/>
       <use xlink:href="#ArialMT-30" x="55.615234"/>
       <use xlink:href="#ArialMT-30" x="111.230469"/>
      </g>
     </g>
    </g>
    <g id="text_6">
     <!-- Days -->
     <g style="fill: #262626" transform="translate(283.808594 411.783125) scale(0.1 -0.1)">
      <defs>
       <path id="ArialMT-44" d="M 494 0 
L 494 4581 
L 2072 4581 
Q 2606 4581 2888 4516 
Q 3281 4425 3559 4188 
Q 3922 3881 4101 3404 
Q 4281 2928 4281 2316 
Q 4281 1794 4159 1391 
Q 4038 988 3847 723 
Q 3656 459 3429 307 
Q 3203 156 2883 78 
Q 2563 0 2147 0 
L 494 0 
z
M 1100 541 
L 2078 541 
Q 2531 541 2789 625 
Q 3047 709 3200 863 
Q 3416 1078 3536 1442 
Q 3656 1806 3656 2325 
Q 3656 3044 3420 3430 
Q 3184 3816 2847 3947 
Q 2603 4041 2063 4041 
L 1100 4041 
L 1100 541 
z
" transform="scale(0.015625)"/>
       <path id="ArialMT-61" d="M 2588 409 
Q 2275 144 1986 34 
Q 1697 -75 1366 -75 
Q 819 -75 525 192 
Q 231 459 231 875 
Q 231 1119 342 1320 
Q 453 1522 633 1644 
Q 813 1766 1038 1828 
Q 1203 1872 1538 1913 
Q 2219 1994 2541 2106 
Q 2544 2222 2544 2253 
Q 2544 2597 2384 2738 
Q 2169 2928 1744 2928 
Q 1347 2928 1158 2789 
Q 969 2650 878 2297 
L 328 2372 
Q 403 2725 575 2942 
Q 747 3159 1072 3276 
Q 1397 3394 1825 3394 
Q 2250 3394 2515 3294 
Q 2781 3194 2906 3042 
Q 3031 2891 3081 2659 
Q 3109 2516 3109 2141 
L 3109 1391 
Q 3109 606 3145 398 
Q 3181 191 3288 0 
L 2700 0 
Q 2613 175 2588 409 
z
M 2541 1666 
Q 2234 1541 1622 1453 
Q 1275 1403 1131 1340 
Q 988 1278 909 1158 
Q 831 1038 831 891 
Q 831 666 1001 516 
Q 1172 366 1500 366 
Q 1825 366 2078 508 
Q 2331 650 2450 897 
Q 2541 1088 2541 1459 
L 2541 1666 
z
" transform="scale(0.015625)"/>
       <path id="ArialMT-79" d="M 397 -1278 
L 334 -750 
Q 519 -800 656 -800 
Q 844 -800 956 -737 
Q 1069 -675 1141 -563 
Q 1194 -478 1313 -144 
Q 1328 -97 1363 -6 
L 103 3319 
L 709 3319 
L 1400 1397 
Q 1534 1031 1641 628 
Q 1738 1016 1872 1384 
L 2581 3319 
L 3144 3319 
L 1881 -56 
Q 1678 -603 1566 -809 
Q 1416 -1088 1222 -1217 
Q 1028 -1347 759 -1347 
Q 597 -1347 397 -1278 
z
" transform="scale(0.015625)"/>
       <path id="ArialMT-73" d="M 197 991 
L 753 1078 
Q 800 744 1014 566 
Q 1228 388 1613 388 
Q 2000 388 2187 545 
Q 2375 703 2375 916 
Q 2375 1106 2209 1216 
Q 2094 1291 1634 1406 
Q 1016 1563 777 1677 
Q 538 1791 414 1992 
Q 291 2194 291 2438 
Q 291 2659 392 2848 
Q 494 3038 669 3163 
Q 800 3259 1026 3326 
Q 1253 3394 1513 3394 
Q 1903 3394 2198 3281 
Q 2494 3169 2634 2976 
Q 2775 2784 2828 2463 
L 2278 2388 
Q 2241 2644 2061 2787 
Q 1881 2931 1553 2931 
Q 1166 2931 1000 2803 
Q 834 2675 834 2503 
Q 834 2394 903 2306 
Q 972 2216 1119 2156 
Q 1203 2125 1616 2013 
Q 2213 1853 2448 1751 
Q 2684 1650 2818 1456 
Q 2953 1263 2953 975 
Q 2953 694 2789 445 
Q 2625 197 2315 61 
Q 2006 -75 1616 -75 
Q 969 -75 630 194 
Q 291 463 197 991 
z
" transform="scale(0.015625)"/>
      </defs>
      <use xlink:href="#ArialMT-44"/>
      <use xlink:href="#ArialMT-61" x="72.216797"/>
      <use xlink:href="#ArialMT-79" x="127.832031"/>
      <use xlink:href="#ArialMT-73" x="177.832031"/>
     </g>
    </g>
   </g>
   <g id="matplotlib.axis_2">
    <g id="ytick_1">
     <g id="line2d_6">
      <path d="M 72 347.878033 
L 518.4 347.878033 
" clip-path="url(#p4a4fa8f67f)" style="fill: none; stroke: #ffffff; stroke-width: 0.8; stroke-linecap: round"/>
     </g>
     <g id="text_7">
      <!-- 10 -->
      <g style="fill: #262626" transform="translate(53.878125 351.456939) scale(0.1 -0.1)">
       <defs>
        <path id="ArialMT-31" d="M 2384 0 
L 1822 0 
L 1822 3584 
Q 1619 3391 1289 3197 
Q 959 3003 697 2906 
L 697 3450 
Q 1169 3672 1522 3987 
Q 1875 4303 2022 4600 
L 2384 4600 
L 2384 0 
z
" transform="scale(0.015625)"/>
       </defs>
       <use xlink:href="#ArialMT-31"/>
       <use xlink:href="#ArialMT-30" x="55.615234"/>
      </g>
     </g>
    </g>
    <g id="ytick_2">
     <g id="line2d_7">
      <path d="M 72 306.566557 
L 518.4 306.566557 
" clip-path="url(#p4a4fa8f67f)" style="fill: none; stroke: #ffffff; stroke-width: 0.8; stroke-linecap: round"/>
     </g>
     <g id="text_8">
      <!-- 15 -->
      <g style="fill: #262626" transform="translate(53.878125 310.145464) scale(0.1 -0.1)">
       <defs>
        <path id="ArialMT-35" d="M 266 1200 
L 856 1250 
Q 922 819 1161 601 
Q 1400 384 1738 384 
Q 2144 384 2425 690 
Q 2706 997 2706 1503 
Q 2706 1984 2436 2262 
Q 2166 2541 1728 2541 
Q 1456 2541 1237 2417 
Q 1019 2294 894 2097 
L 366 2166 
L 809 4519 
L 3088 4519 
L 3088 3981 
L 1259 3981 
L 1013 2750 
Q 1425 3038 1878 3038 
Q 2478 3038 2890 2622 
Q 3303 2206 3303 1553 
Q 3303 931 2941 478 
Q 2500 -78 1738 -78 
Q 1113 -78 717 272 
Q 322 622 266 1200 
z
" transform="scale(0.015625)"/>
       </defs>
       <use xlink:href="#ArialMT-31"/>
       <use xlink:href="#ArialMT-35" x="55.615234"/>
      </g>
     </g>
    </g>
    <g id="ytick_3">
     <g id="line2d_8">
      <path d="M 72 265.255082 
L 518.4 265.255082 
" clip-path="url(#p4a4fa8f67f)" style="fill: none; stroke: #ffffff; stroke-width: 0.8; stroke-linecap: round"/>
     </g>
     <g id="text_9">
      <!-- 20 -->
      <g style="fill: #262626" transform="translate(53.878125 268.833988) scale(0.1 -0.1)">
       <use xlink:href="#ArialMT-32"/>
       <use xlink:href="#ArialMT-30" x="55.615234"/>
      </g>
     </g>
    </g>
    <g id="ytick_4">
     <g id="line2d_9">
      <path d="M 72 223.943607 
L 518.4 223.943607 
" clip-path="url(#p4a4fa8f67f)" style="fill: none; stroke: #ffffff; stroke-width: 0.8; stroke-linecap: round"/>
     </g>
     <g id="text_10">
      <!-- 25 -->
      <g style="fill: #262626" transform="translate(53.878125 227.522513) scale(0.1 -0.1)">
       <use xlink:href="#ArialMT-32"/>
       <use xlink:href="#ArialMT-35" x="55.615234"/>
      </g>
     </g>
    </g>
    <g id="ytick_5">
     <g id="line2d_10">
      <path d="M 72 182.632131 
L 518.4 182.632131 
" clip-path="url(#p4a4fa8f67f)" style="fill: none; stroke: #ffffff; stroke-width: 0.8; stroke-linecap: round"/>
     </g>
     <g id="text_11">
      <!-- 30 -->
      <g style="fill: #262626" transform="translate(53.878125 186.211037) scale(0.1 -0.1)">
       <defs>
        <path id="ArialMT-33" d="M 269 1209 
L 831 1284 
Q 928 806 1161 595 
Q 1394 384 1728 384 
Q 2125 384 2398 659 
Q 2672 934 2672 1341 
Q 2672 1728 2419 1979 
Q 2166 2231 1775 2231 
Q 1616 2231 1378 2169 
L 1441 2663 
Q 1497 2656 1531 2656 
Q 1891 2656 2178 2843 
Q 2466 3031 2466 3422 
Q 2466 3731 2256 3934 
Q 2047 4138 1716 4138 
Q 1388 4138 1169 3931 
Q 950 3725 888 3313 
L 325 3413 
Q 428 3978 793 4289 
Q 1159 4600 1703 4600 
Q 2078 4600 2393 4439 
Q 2709 4278 2876 4000 
Q 3044 3722 3044 3409 
Q 3044 3113 2884 2869 
Q 2725 2625 2413 2481 
Q 2819 2388 3044 2092 
Q 3269 1797 3269 1353 
Q 3269 753 2831 336 
Q 2394 -81 1725 -81 
Q 1122 -81 723 278 
Q 325 638 269 1209 
z
" transform="scale(0.015625)"/>
       </defs>
       <use xlink:href="#ArialMT-33"/>
       <use xlink:href="#ArialMT-30" x="55.615234"/>
      </g>
     </g>
    </g>
    <g id="ytick_6">
     <g id="line2d_11">
      <path d="M 72 141.320656 
L 518.4 141.320656 
" clip-path="url(#p4a4fa8f67f)" style="fill: none; stroke: #ffffff; stroke-width: 0.8; stroke-linecap: round"/>
     </g>
     <g id="text_12">
      <!-- 35 -->
      <g style="fill: #262626" transform="translate(53.878125 144.899562) scale(0.1 -0.1)">
       <use xlink:href="#ArialMT-33"/>
       <use xlink:href="#ArialMT-35" x="55.615234"/>
      </g>
     </g>
    </g>
    <g id="ytick_7">
     <g id="line2d_12">
      <path d="M 72 100.00918 
L 518.4 100.00918 
" clip-path="url(#p4a4fa8f67f)" style="fill: none; stroke: #ffffff; stroke-width: 0.8; stroke-linecap: round"/>
     </g>
     <g id="text_13">
      <!-- 40 -->
      <g style="fill: #262626" transform="translate(53.878125 103.588087) scale(0.1 -0.1)">
       <use xlink:href="#ArialMT-34"/>
       <use xlink:href="#ArialMT-30" x="55.615234"/>
      </g>
     </g>
    </g>
    <g id="ytick_8">
     <g id="line2d_13">
      <path d="M 72 58.697705 
L 518.4 58.697705 
" clip-path="url(#p4a4fa8f67f)" style="fill: none; stroke: #ffffff; stroke-width: 0.8; stroke-linecap: round"/>
     </g>
     <g id="text_14">
      <!-- 45 -->
      <g style="fill: #262626" transform="translate(53.878125 62.276611) scale(0.1 -0.1)">
       <use xlink:href="#ArialMT-34"/>
       <use xlink:href="#ArialMT-35" x="55.615234"/>
      </g>
     </g>
    </g>
    <g id="text_15">
     <!-- (°C) -->
     <g style="fill: #262626" transform="translate(47.773438 227.099844) rotate(-90) scale(0.1 -0.1)">
      <defs>
       <path id="ArialMT-28" d="M 1497 -1347 
Q 1031 -759 709 28 
Q 388 816 388 1659 
Q 388 2403 628 3084 
Q 909 3875 1497 4659 
L 1900 4659 
Q 1522 4009 1400 3731 
Q 1209 3300 1100 2831 
Q 966 2247 966 1656 
Q 966 153 1900 -1347 
L 1497 -1347 
z
" transform="scale(0.015625)"/>
       <path id="ArialMT-b0" d="M 400 3794 
Q 400 4153 654 4406 
Q 909 4659 1266 4659 
Q 1628 4659 1881 4406 
Q 2134 4153 2134 3794 
Q 2134 3434 1879 3179 
Q 1625 2925 1266 2925 
Q 909 2925 654 3178 
Q 400 3431 400 3794 
z
M 741 3794 
Q 741 3575 895 3420 
Q 1050 3266 1269 3266 
Q 1484 3266 1639 3420 
Q 1794 3575 1794 3794 
Q 1794 4013 1639 4167 
Q 1484 4322 1269 4322 
Q 1050 4322 895 4167 
Q 741 4013 741 3794 
z
" transform="scale(0.015625)"/>
       <path id="ArialMT-43" d="M 3763 1606 
L 4369 1453 
Q 4178 706 3683 314 
Q 3188 -78 2472 -78 
Q 1731 -78 1267 223 
Q 803 525 561 1097 
Q 319 1669 319 2325 
Q 319 3041 592 3573 
Q 866 4106 1370 4382 
Q 1875 4659 2481 4659 
Q 3169 4659 3637 4309 
Q 4106 3959 4291 3325 
L 3694 3184 
Q 3534 3684 3231 3912 
Q 2928 4141 2469 4141 
Q 1941 4141 1586 3887 
Q 1231 3634 1087 3207 
Q 944 2781 944 2328 
Q 944 1744 1114 1308 
Q 1284 872 1643 656 
Q 2003 441 2422 441 
Q 2931 441 3284 734 
Q 3638 1028 3763 1606 
z
" transform="scale(0.015625)"/>
       <path id="ArialMT-29" d="M 791 -1347 
L 388 -1347 
Q 1322 153 1322 1656 
Q 1322 2244 1188 2822 
Q 1081 3291 891 3722 
Q 769 4003 388 4659 
L 791 4659 
Q 1378 3875 1659 3084 
Q 1900 2403 1900 1659 
Q 1900 816 1576 28 
Q 1253 -759 791 -1347 
z
" transform="scale(0.015625)"/>
      </defs>
      <use xlink:href="#ArialMT-28"/>
      <use xlink:href="#ArialMT-b0" x="33.300781"/>
      <use xlink:href="#ArialMT-43" x="73.291016"/>
      <use xlink:href="#ArialMT-29" x="145.507812"/>
     </g>
    </g>
   </g>
   <g id="line2d_14">
    <path d="M 92.290909 141.320656 
L 92.784605 146.278033 
L 93.278301 195.025574 
L 93.771997 223.117377 
L 94.265693 337.137049 
L 94.75939 229.727213 
L 95.253086 268.56 
L 95.746782 296.651803 
L 96.240478 271.038689 
L 96.734174 266.081311 
L 97.22787 242.946885 
L 97.721566 317.307541 
L 98.215262 286.737049 
L 98.708958 201.63541 
L 99.202654 208.245246 
L 99.69635 171.891148 
L 100.190046 263.602623 
L 100.683743 261.950164 
L 101.177439 275.169836 
L 101.671135 190.894426 
L 102.164831 174.369836 
L 102.658527 185.937049 
L 103.152223 171.064918 
L 103.645919 208.245246 
L 104.139615 285.08459 
L 104.633311 320.612459 
L 105.127007 250.382951 
L 106.114399 299.130492 
L 106.608096 290.041967 
L 107.101792 273.517377 
L 107.595488 281.779672 
L 108.089184 230.553443 
L 108.58288 192.546885 
L 109.076576 260.297705 
L 109.570272 239.641967 
L 110.063968 253.687869 
L 110.557664 240.468197 
L 111.05136 261.950164 
L 111.545056 198.330492 
L 112.038752 220.638689 
L 112.532449 231.379672 
L 113.026145 169.412459 
L 113.519841 186.763279 
L 114.013537 238.815738 
L 114.507233 237.163279 
L 115.000929 210.723934 
L 115.494625 211.550164 
L 115.988321 233.032131 
L 116.482017 305.740328 
L 116.975713 358.619016 
L 117.469409 275.996066 
L 117.963106 280.953443 
L 118.456802 334.658361 
L 118.950498 236.337049 
L 119.444194 225.596066 
L 119.93789 218.98623 
L 120.431586 227.248525 
L 120.925282 182.632131 
L 121.418978 195.025574 
L 121.912674 263.602623 
L 122.40637 309.045246 
L 123.393762 204.114098 
L 123.887459 281.779672 
L 124.381155 335.48459 
L 124.874851 326.396066 
L 125.368547 276.822295 
L 125.862243 246.251803 
L 126.355939 200.80918 
L 127.343331 259.471475 
L 127.837027 236.337049 
L 128.330723 188.415738 
L 128.824419 267.73377 
L 129.318115 249.556721 
L 129.811812 305.740328 
L 130.305508 308.219016 
L 130.799204 230.553443 
L 131.2929 194.199344 
L 131.786596 282.605902 
L 132.280292 294.999344 
L 132.773988 237.163279 
L 133.267684 241.294426 
L 133.76138 227.248525 
L 134.255076 204.940328 
L 134.748772 200.80918 
L 135.242468 192.546885 
L 135.736165 168.58623 
L 136.229861 157.845246 
L 136.723557 282.605902 
L 137.217253 369.36 
L 137.710949 322.264918 
L 138.204645 228.900984 
L 138.698341 266.907541 
L 139.192037 234.68459 
L 140.179429 115.707541 
L 140.673125 114.055082 
L 141.660518 257.819016 
L 142.154214 276.822295 
L 144.128998 191.720656 
L 144.622694 233.032131 
L 145.11639 239.641967 
L 145.610086 193.373115 
L 146.103782 176.848525 
L 146.597478 198.330492 
L 147.091175 181.805902 
L 147.584871 177.674754 
L 148.078567 157.845246 
L 148.572263 315.655082 
L 149.065959 363.576393 
L 149.559655 344.573115 
L 150.053351 204.940328 
L 150.547047 176.022295 
L 151.040743 123.143607 
L 151.534439 167.76 
L 152.028135 199.156721 
L 152.521831 185.11082 
L 153.015528 142.146885 
L 153.509224 172.717377 
L 154.00292 262.776393 
L 154.496616 285.08459 
L 154.990312 266.907541 
L 155.484008 330.527213 
L 155.977704 287.563279 
L 156.4714 261.950164 
L 156.965096 285.08459 
L 157.458792 248.730492 
L 157.952488 195.851803 
L 158.446184 183.458361 
L 158.939881 181.805902 
L 159.433577 239.641967 
L 159.927273 199.982951 
L 160.420969 208.245246 
L 160.914665 204.940328 
L 161.408361 171.891148 
L 161.902057 301.60918 
L 162.395753 275.169836 
L 162.889449 278.474754 
L 163.383145 226.422295 
L 163.876841 141.320656 
L 164.370537 177.674754 
L 164.864234 136.363279 
L 165.35793 157.845246 
L 166.345322 130.579672 
L 166.839018 107.445246 
L 167.82641 170.238689 
L 168.320106 128.100984 
L 168.813802 209.897705 
L 169.307498 181.805902 
L 169.801194 180.153443 
L 170.294891 143.799344 
L 170.788587 144.625574 
L 171.282283 148.756721 
L 171.775979 157.845246 
L 172.269675 151.23541 
L 172.763371 188.415738 
L 173.257067 210.723934 
L 173.750763 147.930492 
L 174.244459 119.012459 
L 174.738155 140.494426 
L 175.231851 147.930492 
L 175.725547 157.845246 
L 176.219244 185.937049 
L 176.71294 156.192787 
L 177.206636 112.402623 
L 177.700332 149.582951 
L 178.194028 200.80918 
L 178.687724 175.196066 
L 179.18142 185.937049 
L 179.675116 185.11082 
L 180.168812 164.455082 
L 180.662508 89.268197 
L 181.156204 130.579672 
L 181.6499 218.98623 
L 182.143597 204.114098 
L 182.637293 195.851803 
L 183.130989 190.068197 
L 183.624685 199.982951 
L 184.118381 189.241967 
L 184.612077 187.589508 
L 185.105773 162.802623 
L 185.599469 109.097705 
L 186.093165 152.061639 
L 186.586861 131.405902 
L 187.080557 119.838689 
L 187.574253 129.753443 
L 188.06795 132.232131 
L 188.561646 146.278033 
L 189.055342 140.494426 
L 189.549038 143.799344 
L 190.042734 138.841967 
L 190.53643 127.274754 
L 191.030126 125.622295 
L 191.523822 177.674754 
L 192.017518 142.146885 
L 192.511214 149.582951 
L 193.00491 137.189508 
L 193.498607 133.88459 
L 193.992303 140.494426 
L 194.485999 110.750164 
L 194.979695 108.271475 
L 195.473391 83.48459 
L 195.967087 66.96 
L 196.460783 76.874754 
L 196.954479 129.753443 
L 197.448175 162.802623 
L 197.941871 150.40918 
L 198.929263 133.058361 
L 199.42296 130.579672 
L 199.916656 120.664918 
L 200.410352 131.405902 
L 200.904048 120.664918 
L 201.397744 115.707541 
L 201.89144 97.530492 
L 202.385136 136.363279 
L 203.372528 102.487869 
L 203.866224 123.969836 
L 204.35992 171.064918 
L 204.853616 147.930492 
L 205.347313 142.973115 
L 205.841009 139.668197 
L 206.334705 138.015738 
L 206.828401 128.100984 
L 207.322097 132.232131 
L 207.815793 148.756721 
L 208.309489 135.537049 
L 208.803185 127.274754 
L 209.296881 115.707541 
L 209.790577 126.448525 
L 210.284273 128.100984 
L 210.777969 94.225574 
L 211.271666 91.746885 
L 211.765362 88.441967 
L 212.259058 97.530492 
L 212.752754 117.36 
L 213.24645 113.228852 
L 213.740146 102.487869 
L 214.727538 117.36 
L 215.221234 113.228852 
L 215.71493 117.36 
L 216.208626 112.402623 
L 216.702322 114.055082 
L 217.196019 104.140328 
L 217.689715 117.36 
L 218.183411 127.274754 
L 218.677107 171.064918 
L 219.170803 136.363279 
L 219.664499 140.494426 
L 220.158195 138.015738 
L 220.651891 115.707541 
L 221.145587 121.491148 
L 221.639283 113.228852 
L 222.132979 114.055082 
L 222.626676 109.923934 
L 223.614068 104.966557 
L 224.107764 99.182951 
L 224.60146 97.530492 
L 225.095156 98.356721 
L 225.588852 109.097705 
L 226.082548 87.615738 
L 227.06994 98.356721 
L 227.563636 100.00918 
L 228.057332 84.31082 
L 228.551029 89.268197 
L 229.044725 99.182951 
L 229.538421 90.094426 
L 230.032117 90.094426 
L 230.525813 100.83541 
L 231.019509 97.530492 
L 231.513205 108.271475 
L 232.006901 109.097705 
L 232.500597 119.012459 
L 232.994293 110.750164 
L 233.487989 95.051803 
L 233.981685 103.314098 
L 234.475382 106.619016 
L 234.969078 100.83541 
L 235.462774 109.097705 
L 235.95647 140.494426 
L 236.450166 127.274754 
L 236.943862 129.753443 
L 237.437558 140.494426 
L 237.931254 133.88459 
L 238.42495 124.796066 
L 238.918646 146.278033 
L 239.412342 223.943607 
L 239.906038 260.297705 
L 240.399735 157.019016 
L 240.893431 154.540328 
L 241.387127 150.40918 
L 241.880823 161.976393 
L 242.374519 152.061639 
L 242.868215 151.23541 
L 243.855607 138.015738 
L 244.349303 133.88459 
L 244.842999 145.451803 
L 245.336695 152.887869 
L 245.830392 152.887869 
L 246.324088 154.540328 
L 246.817784 148.756721 
L 247.31148 150.40918 
L 247.805176 142.146885 
L 248.298872 142.973115 
L 248.792568 146.278033 
L 249.286264 146.278033 
L 249.77996 154.540328 
L 250.273656 166.93377 
L 250.767352 149.582951 
L 251.261048 161.976393 
L 251.754745 157.019016 
L 252.248441 153.714098 
L 252.742137 135.537049 
L 253.235833 128.927213 
L 253.729529 133.058361 
L 254.223225 166.93377 
L 254.716921 148.756721 
L 255.210617 140.494426 
L 255.704313 175.196066 
L 256.198009 236.337049 
L 256.691705 180.153443 
L 257.679098 145.451803 
L 258.172794 195.851803 
L 259.160186 167.76 
L 259.653882 119.012459 
L 260.147578 167.76 
L 260.641274 143.799344 
L 261.13497 182.632131 
L 261.628666 172.717377 
L 262.122362 176.848525 
L 262.616058 222.291148 
L 263.109754 221.464918 
L 263.603451 176.848525 
L 264.097147 190.068197 
L 264.590843 186.763279 
L 265.084539 202.461639 
L 265.578235 273.517377 
L 266.565627 226.422295 
L 267.059323 245.425574 
L 267.553019 176.848525 
L 268.046715 172.717377 
L 268.540411 199.982951 
L 269.034107 156.192787 
L 269.527804 283.432131 
L 270.0215 280.953443 
L 270.515196 266.907541 
L 271.008892 185.11082 
L 271.502588 342.094426 
L 271.996284 348.704262 
L 272.48998 239.641967 
L 272.983676 254.514098 
L 273.477372 249.556721 
L 273.971068 186.763279 
L 274.464764 202.461639 
L 274.958461 187.589508 
L 275.452157 209.071475 
L 275.945853 179.327213 
L 276.439549 187.589508 
L 276.933245 262.776393 
L 277.920637 152.887869 
L 278.414333 145.451803 
L 278.908029 218.16 
L 279.401725 228.900984 
L 279.895421 192.546885 
L 280.389117 128.927213 
L 280.882814 220.638689 
L 281.37651 239.641967 
L 281.870206 207.419016 
L 282.363902 182.632131 
L 282.857598 185.11082 
L 283.351294 181.805902 
L 283.84499 218.98623 
L 284.338686 194.199344 
L 284.832382 149.582951 
L 285.326078 251.20918 
L 285.819774 283.432131 
L 286.31347 262.776393 
L 286.807167 161.150164 
L 287.300863 157.845246 
L 287.794559 127.274754 
L 288.288255 139.668197 
L 288.781951 285.08459 
L 289.275647 299.130492 
L 289.769343 285.91082 
L 290.263039 282.605902 
L 290.756735 283.432131 
L 291.250431 218.98623 
L 291.744127 214.028852 
L 292.237823 214.028852 
L 292.73152 186.763279 
L 293.718912 253.687869 
L 294.212608 157.845246 
L 294.706304 225.596066 
L 295.693696 313.176393 
L 296.187392 294.999344 
L 296.681088 218.98623 
L 297.174784 251.20918 
L 297.66848 237.163279 
L 298.162177 214.855082 
L 298.655873 186.763279 
L 299.149569 246.251803 
L 299.643265 256.166557 
L 300.136961 217.33377 
L 300.630657 206.592787 
L 301.124353 215.681311 
L 301.618049 242.120656 
L 302.111745 216.507541 
L 302.605441 196.678033 
L 303.099137 218.16 
L 303.592833 231.379672 
L 304.08653 254.514098 
L 304.580226 212.376393 
L 305.073922 276.822295 
L 306.061314 317.307541 
L 306.55501 275.996066 
L 307.048706 204.114098 
L 307.542402 246.251803 
L 308.036098 269.38623 
L 308.529794 175.196066 
L 309.02349 185.11082 
L 309.517186 172.717377 
L 310.504579 290.041967 
L 311.985667 233.032131 
L 312.479363 202.461639 
L 312.973059 162.802623 
L 313.466755 265.255082 
L 313.960451 224.769836 
L 314.454147 196.678033 
L 314.947843 192.546885 
L 315.441539 174.369836 
L 315.935236 148.756721 
L 316.428932 230.553443 
L 316.922628 289.215738 
L 317.416324 261.123934 
L 317.91002 316.481311 
L 318.897412 190.068197 
L 319.391108 164.455082 
L 319.884804 159.497705 
L 320.3785 256.992787 
L 320.872196 304.087869 
L 321.365893 325.569836 
L 322.353285 208.245246 
L 322.846981 171.891148 
L 323.340677 161.976393 
L 323.834373 270.212459 
L 324.328069 264.428852 
L 324.821765 220.638689 
L 325.315461 214.855082 
L 325.809157 152.061639 
L 326.302853 110.750164 
L 326.796549 223.117377 
L 327.290246 161.976393 
L 327.783942 214.028852 
L 328.277638 219.812459 
L 328.771334 237.989508 
L 329.26503 239.641967 
L 329.758726 219.812459 
L 330.252422 222.291148 
L 330.746118 179.327213 
L 331.239814 164.455082 
L 331.73351 138.015738 
L 332.227206 143.799344 
L 332.720902 209.071475 
L 333.214599 217.33377 
L 333.708295 166.93377 
L 334.201991 164.455082 
L 334.695687 125.622295 
L 335.189383 213.202623 
L 335.683079 277.648525 
L 336.670471 186.763279 
L 337.164167 110.750164 
L 337.657863 114.055082 
L 338.151559 114.881311 
L 338.645255 96.704262 
L 339.138952 130.579672 
L 339.632648 226.422295 
L 340.62004 151.23541 
L 341.113736 197.504262 
L 341.607432 157.019016 
L 342.101128 185.937049 
L 343.08852 264.428852 
L 344.075912 180.153443 
L 344.569608 123.143607 
L 345.063305 119.012459 
L 345.557001 176.022295 
L 346.050697 169.412459 
L 346.544393 114.881311 
L 347.038089 161.976393 
L 347.531785 242.120656 
L 348.025481 286.737049 
L 348.519177 261.950164 
L 349.012873 162.802623 
L 349.506569 177.674754 
L 350.000265 105.792787 
L 350.493962 121.491148 
L 350.987658 142.973115 
L 351.481354 122.317377 
L 351.97505 115.707541 
L 352.468746 100.00918 
L 352.962442 139.668197 
L 353.456138 222.291148 
L 353.949834 161.976393 
L 354.937226 101.661639 
L 355.430922 180.979672 
L 355.924618 143.799344 
L 356.418315 134.71082 
L 356.912011 129.753443 
L 357.899403 106.619016 
L 358.393099 141.320656 
L 358.886795 147.930492 
L 359.380491 126.448525 
L 359.874187 218.16 
L 360.367883 223.943607 
L 360.861579 186.763279 
L 361.355275 160.323934 
L 361.848971 151.23541 
L 362.342668 152.887869 
L 363.33006 141.320656 
L 363.823756 142.973115 
L 364.811148 114.881311 
L 365.304844 137.189508 
L 365.79854 153.714098 
L 366.292236 136.363279 
L 366.785932 144.625574 
L 367.279628 142.973115 
L 367.773324 156.192787 
L 368.267021 186.763279 
L 369.254413 125.622295 
L 369.748109 171.891148 
L 370.241805 173.543607 
L 370.735501 172.717377 
L 371.229197 174.369836 
L 371.722893 174.369836 
L 372.216589 154.540328 
L 372.710285 147.104262 
L 373.203981 148.756721 
L 373.697678 138.015738 
L 374.68507 109.097705 
L 375.178766 109.923934 
L 375.672462 135.537049 
L 376.166158 221.464918 
L 376.659854 164.455082 
L 377.647246 156.192787 
L 378.140942 161.150164 
L 378.634638 157.845246 
L 379.128334 148.756721 
L 379.622031 145.451803 
L 380.115727 149.582951 
L 380.609423 147.930492 
L 381.103119 135.537049 
L 381.596815 126.448525 
L 382.090511 131.405902 
L 382.584207 128.100984 
L 383.077903 154.540328 
L 383.571599 168.58623 
L 384.065295 167.76 
L 384.558991 165.281311 
L 385.052687 135.537049 
L 385.546384 167.76 
L 386.04008 133.058361 
L 386.533776 135.537049 
L 387.027472 127.274754 
L 387.521168 115.707541 
L 388.014864 112.402623 
L 388.50856 115.707541 
L 389.002256 123.969836 
L 389.495952 151.23541 
L 389.989648 109.097705 
L 390.483344 107.445246 
L 390.97704 104.140328 
L 391.964433 90.920656 
L 392.458129 101.661639 
L 392.951825 120.664918 
L 393.445521 107.445246 
L 393.939217 115.707541 
L 394.926609 163.628852 
L 395.420305 137.189508 
L 395.914001 139.668197 
L 396.407697 136.363279 
L 396.901393 119.012459 
L 397.39509 105.792787 
L 397.888786 138.841967 
L 398.382482 193.373115 
L 398.876178 215.681311 
L 399.369874 218.98623 
L 399.86357 169.412459 
L 400.357266 160.323934 
L 400.850962 142.973115 
L 401.344658 156.192787 
L 401.838354 130.579672 
L 402.33205 132.232131 
L 402.825747 138.841967 
L 403.319443 139.668197 
L 403.813139 152.061639 
L 404.306835 148.756721 
L 405.294227 138.841967 
L 405.787923 136.363279 
L 406.281619 131.405902 
L 406.775315 132.232131 
L 407.269011 138.015738 
L 407.762707 138.841967 
L 408.256403 128.100984 
L 408.7501 143.799344 
L 409.737492 133.058361 
L 410.231188 110.750164 
L 410.724884 114.055082 
L 411.21858 136.363279 
L 411.712276 131.405902 
L 412.205972 117.36 
L 412.699668 114.055082 
L 413.68706 128.927213 
L 414.180756 119.012459 
L 414.674453 116.53377 
L 415.168149 158.671475 
L 415.661845 157.845246 
L 416.155541 128.927213 
L 416.649237 129.753443 
L 417.142933 210.723934 
L 417.636629 223.117377 
L 418.130325 160.323934 
L 418.624021 171.064918 
L 419.117717 178.500984 
L 420.105109 86.789508 
L 420.598806 105.792787 
L 421.092502 104.966557 
L 422.079894 104.966557 
L 422.57359 115.707541 
L 423.067286 106.619016 
L 423.560982 114.055082 
L 424.054678 114.055082 
L 424.548374 111.576393 
L 425.04207 112.402623 
L 425.535766 112.402623 
L 426.029463 119.838689 
L 427.016855 90.094426 
L 428.497943 114.881311 
L 428.991639 119.012459 
L 429.485335 115.707541 
L 429.979031 117.36 
L 430.472727 104.966557 
L 430.966423 97.530492 
L 431.460119 109.097705 
L 431.953816 124.796066 
L 432.447512 119.838689 
L 432.941208 144.625574 
L 433.434904 140.494426 
L 433.9286 129.753443 
L 434.422296 115.707541 
L 434.915992 114.055082 
L 435.409688 120.664918 
L 436.39708 105.792787 
L 436.890776 129.753443 
L 437.384472 113.228852 
L 437.878169 127.274754 
L 438.371865 144.625574 
L 438.865561 130.579672 
L 439.359257 126.448525 
L 439.852953 120.664918 
L 440.346649 137.189508 
L 440.840345 160.323934 
L 441.334041 152.887869 
L 441.827737 137.189508 
L 442.321433 145.451803 
L 442.815129 181.805902 
L 443.308825 205.766557 
L 443.802522 191.720656 
L 444.296218 149.582951 
L 444.789914 136.363279 
L 445.28361 135.537049 
L 445.777306 143.799344 
L 446.271002 139.668197 
L 446.764698 145.451803 
L 447.75209 152.887869 
L 448.245786 156.192787 
L 448.739482 162.802623 
L 449.233179 148.756721 
L 449.726875 150.40918 
L 450.220571 150.40918 
L 450.714267 149.582951 
L 451.207963 153.714098 
L 451.701659 142.973115 
L 452.195355 149.582951 
L 452.689051 148.756721 
L 453.182747 140.494426 
L 453.676443 161.150164 
L 454.170139 161.976393 
L 454.663835 171.064918 
L 455.157532 173.543607 
L 455.651228 158.671475 
L 456.144924 161.976393 
L 456.63862 177.674754 
L 457.132316 204.114098 
L 457.626012 218.98623 
L 458.119708 184.28459 
L 458.613404 220.638689 
L 459.1071 211.550164 
L 459.600796 228.074754 
L 460.094492 185.937049 
L 460.588188 219.812459 
L 461.081885 210.723934 
L 461.575581 142.146885 
L 462.069277 125.622295 
L 462.562973 158.671475 
L 463.056669 163.628852 
L 463.550365 156.192787 
L 464.044061 158.671475 
L 464.537757 275.996066 
L 465.525149 196.678033 
L 466.018845 176.022295 
L 466.512541 162.802623 
L 467.006238 190.068197 
L 467.499934 135.537049 
L 467.99363 190.068197 
L 468.487326 200.80918 
L 468.981022 188.415738 
L 469.474718 170.238689 
L 469.968414 200.80918 
L 470.46211 203.287869 
L 470.955806 239.641967 
L 471.449502 219.812459 
L 471.943198 242.946885 
L 472.436894 186.763279 
L 472.930591 152.061639 
L 473.424287 184.28459 
L 473.917983 161.150164 
L 474.411679 176.848525 
L 475.399071 196.678033 
L 475.892767 181.805902 
L 476.386463 148.756721 
L 476.880159 256.166557 
L 477.373855 270.212459 
L 477.867551 184.28459 
L 478.854944 314.002623 
L 479.34864 337.137049 
L 479.842336 329.700984 
L 480.336032 345.399344 
L 480.829728 366.881311 
L 481.323424 338.789508 
L 481.81712 295.825574 
L 482.310816 290.041967 
L 482.804512 199.156721 
L 483.298208 271.864918 
L 483.791904 242.946885 
L 484.285601 162.802623 
L 484.779297 202.461639 
L 485.272993 153.714098 
L 485.766689 208.245246 
L 486.260385 311.523934 
L 486.754081 237.989508 
L 487.247777 255.340328 
L 487.741473 226.422295 
L 488.235169 224.769836 
L 488.728865 202.461639 
L 489.222561 215.681311 
L 489.716257 210.723934 
L 490.209954 209.897705 
L 490.70365 223.117377 
L 491.197346 159.497705 
L 491.691042 223.117377 
L 492.184738 231.379672 
L 492.678434 214.028852 
L 493.17213 295.825574 
L 493.665826 337.963279 
L 494.159522 247.078033 
L 494.653218 210.723934 
L 495.146914 322.264918 
L 495.64061 193.373115 
L 496.134307 133.058361 
L 496.628003 129.753443 
L 497.121699 98.356721 
L 497.615395 110.750164 
L 498.109091 175.196066 
L 498.109091 175.196066 
" clip-path="url(#p4a4fa8f67f)" style="fill: none; stroke: #1f77b4; stroke-width: 1.5; stroke-linecap: round"/>
   </g>
   <g id="line2d_15">
    <path d="M 92.290909 191.583179 
L 92.784605 184.209546 
L 93.278301 199.883532 
L 93.771997 224.487644 
L 94.265693 256.290478 
L 94.75939 244.473214 
L 95.253086 248.632531 
L 95.746782 267.964455 
L 96.240478 236.255274 
L 96.734174 260.734335 
L 97.22787 252.441481 
L 97.721566 262.318643 
L 98.215262 258.431096 
L 98.708958 228.863247 
L 99.202654 228.626973 
L 99.69635 225.301494 
L 100.190046 229.127476 
L 100.683743 249.567334 
L 101.177439 245.714103 
L 101.671135 234.35123 
L 102.164831 229.094285 
L 102.658527 228.163449 
L 103.152223 227.841182 
L 103.645919 210.909626 
L 104.139615 236.610179 
L 104.633311 250.753017 
L 105.127007 240.442516 
L 105.620703 247.542247 
L 106.114399 261.00118 
L 106.608096 255.182397 
L 107.101792 244.254186 
L 107.595488 250.813986 
L 108.089184 244.062512 
L 108.58288 232.472517 
L 109.076576 239.372217 
L 109.570272 254.999515 
L 110.063968 252.848856 
L 110.557664 252.281678 
L 111.05136 255.761768 
L 111.545056 225.229793 
L 112.038752 216.158261 
L 112.532449 232.978066 
L 113.026145 221.749878 
L 113.519841 233.523572 
L 114.013537 242.639743 
L 114.507233 231.626288 
L 115.000929 231.748138 
L 115.494625 221.638295 
L 115.988321 232.772987 
L 116.975713 282.0774 
L 117.469409 261.28402 
L 117.963106 270.314081 
L 118.456802 269.226196 
L 118.950498 272.878489 
L 119.444194 242.930973 
L 119.93789 245.833792 
L 120.431586 243.680137 
L 120.925282 227.545662 
L 121.418978 219.007561 
L 121.912674 247.971935 
L 122.40637 257.612703 
L 122.900066 248.929771 
L 123.393762 227.150007 
L 124.381155 254.638286 
L 124.874851 257.90863 
L 125.368547 260.168082 
L 125.862243 244.985608 
L 126.355939 247.350783 
L 126.849635 242.524291 
L 127.343331 246.064635 
L 127.837027 247.985633 
L 128.330723 218.336646 
L 128.824419 240.939129 
L 129.318115 251.229104 
L 129.811812 259.090615 
L 130.305508 257.947536 
L 130.799204 244.109521 
L 131.2929 242.361749 
L 131.786596 253.68843 
L 132.280292 256.178961 
L 132.773988 247.893239 
L 133.267684 233.8937 
L 133.76138 226.199356 
L 134.255076 223.269198 
L 134.748772 232.378371 
L 135.242468 199.888075 
L 136.229861 193.290425 
L 136.723557 238.992749 
L 137.217253 255.686681 
L 137.710949 258.411448 
L 138.698341 241.261444 
L 139.192037 254.96795 
L 139.685733 218.377244 
L 140.179429 192.400597 
L 140.673125 178.117275 
L 141.166821 202.126046 
L 141.660518 240.597268 
L 142.154214 260.404907 
L 142.64791 243.939603 
L 143.141606 232.434048 
L 143.635302 212.792893 
L 144.128998 212.526972 
L 144.622694 205.764574 
L 145.11639 227.842772 
L 145.610086 213.134964 
L 146.103782 192.367573 
L 146.597478 205.014696 
L 147.091175 186.899503 
L 147.584871 187.227434 
L 148.078567 175.018401 
L 148.572263 252.042661 
L 149.065959 250.790619 
L 149.559655 256.000436 
L 150.053351 248.524845 
L 150.547047 200.575689 
L 151.040743 186.608404 
L 152.028135 191.414602 
L 152.521831 173.74839 
L 153.015528 174.029945 
L 153.509224 175.640913 
L 154.00292 227.048007 
L 154.496616 256.256211 
L 154.990312 242.905725 
L 155.484008 248.036003 
L 155.977704 251.410207 
L 156.4714 245.185303 
L 157.458792 242.69787 
L 158.446184 193.277017 
L 158.939881 192.739696 
L 159.433577 212.478381 
L 159.927273 200.954493 
L 160.420969 210.151308 
L 160.914665 209.777632 
L 161.408361 203.902673 
L 161.902057 242.818862 
L 162.889449 263.48054 
L 163.876841 182.291911 
L 164.370537 176.144531 
L 164.864234 168.315367 
L 165.35793 168.791707 
L 165.851626 165.892512 
L 166.345322 158.067675 
L 166.839018 157.065343 
L 167.332714 165.772702 
L 167.82641 182.205897 
L 168.320106 170.787173 
L 168.813802 208.632243 
L 169.307498 190.649462 
L 170.294891 166.030284 
L 170.788587 164.882808 
L 171.282283 159.238486 
L 171.775979 159.19982 
L 172.763371 172.563134 
L 173.257067 172.582609 
L 173.750763 170.136171 
L 174.244459 150.643819 
L 175.231851 166.705781 
L 175.725547 159.674679 
L 176.219244 167.144887 
L 176.71294 160.904632 
L 177.206636 136.656884 
L 177.700332 152.970056 
L 178.194028 176.674768 
L 178.687724 169.998473 
L 179.18142 167.194445 
L 179.675116 162.243469 
L 180.168812 161.193617 
L 180.662508 129.605983 
L 181.156204 153.252802 
L 181.6499 193.097454 
L 182.143597 189.98191 
L 182.637293 182.179917 
L 183.130989 163.766883 
L 183.624685 170.105977 
L 184.118381 167.600695 
L 184.612077 170.754265 
L 185.105773 165.279792 
L 185.599469 136.04483 
L 186.093165 151.323333 
L 186.586861 143.801975 
L 187.080557 131.066198 
L 187.574253 130.828909 
L 188.06795 135.744138 
L 188.561646 138.574555 
L 189.055342 136.672555 
L 189.549038 136.635687 
L 190.042734 137.478462 
L 190.53643 134.18388 
L 191.030126 133.476292 
L 191.523822 147.020367 
L 192.017518 136.589099 
L 192.511214 136.584371 
L 193.00491 133.576837 
L 193.498607 134.788579 
L 193.992303 136.846861 
L 194.485999 135.808278 
L 194.979695 120.42223 
L 195.473391 119.696657 
L 195.967087 121.870249 
L 196.460783 118.779782 
L 196.954479 131.392901 
L 197.448175 153.757094 
L 197.941871 148.735939 
L 198.435567 138.543703 
L 199.42296 128.340025 
L 199.916656 119.698677 
L 200.410352 122.509155 
L 200.904048 121.474548 
L 201.397744 117.537595 
L 201.89144 117.597163 
L 202.385136 119.026937 
L 202.878832 117.747753 
L 203.372528 114.1675 
L 203.866224 118.887612 
L 204.35992 157.865705 
L 204.853616 136.129533 
L 205.347313 134.736353 
L 205.841009 136.850367 
L 206.334705 134.536548 
L 206.828401 138.559153 
L 207.322097 138.588132 
L 207.815793 137.952197 
L 208.803185 131.08348 
L 209.296881 125.43679 
L 209.790577 125.978129 
L 210.284273 127.525752 
L 210.777969 120.678831 
L 211.271666 117.366559 
L 211.765362 115.239894 
L 212.259058 128.640651 
L 212.752754 133.168552 
L 213.740146 122.810813 
L 214.233842 123.168304 
L 214.727538 119.236314 
L 215.221234 119.61456 
L 215.71493 119.425298 
L 216.208626 119.379382 
L 216.702322 118.990114 
L 217.196019 117.121828 
L 217.689715 126.427314 
L 218.183411 137.903484 
L 218.677107 162.864846 
L 219.170803 141.607557 
L 219.664499 136.868609 
L 220.158195 136.634232 
L 220.651891 130.994128 
L 221.145587 135.111313 
L 221.639283 125.72295 
L 222.132979 122.312975 
L 222.626676 119.882548 
L 223.120372 119.691596 
L 223.614068 116.098725 
L 224.107764 117.570468 
L 224.60146 118.634528 
L 225.588852 116.464516 
L 226.082548 118.961456 
L 226.576244 117.455941 
L 227.563636 116.53711 
L 228.057332 116.53711 
L 228.551029 117.612111 
L 229.044725 116.411257 
L 229.538421 118.122446 
L 230.032117 125.702678 
L 230.525813 122.988743 
L 231.019509 117.896462 
L 231.513205 118.201979 
L 232.006901 117.194761 
L 232.500597 117.667973 
L 232.994293 116.790035 
L 233.487989 129.38563 
L 233.981685 133.243722 
L 234.475382 131.905164 
L 234.969078 121.189737 
L 235.462774 127.355331 
L 235.95647 136.294731 
L 236.450166 133.660096 
L 236.943862 127.514391 
L 237.437558 136.497496 
L 237.931254 140.531471 
L 238.42495 134.317186 
L 238.918646 141.448129 
L 239.412342 191.980546 
L 239.906038 194.799327 
L 240.399735 129.227566 
L 240.893431 166.326001 
L 241.880823 162.884672 
L 242.868215 148.133619 
L 243.361911 144.863535 
L 243.855607 139.839284 
L 244.842999 154.086853 
L 245.336695 152.027894 
L 245.830392 147.304657 
L 246.324088 147.923269 
L 246.817784 145.834787 
L 247.31148 149.107772 
L 247.805176 148.807631 
L 248.298872 143.765458 
L 248.792568 149.395246 
L 249.286264 144.664225 
L 249.77996 160.152946 
L 250.273656 166.856587 
L 250.767352 160.848887 
L 251.261048 163.009406 
L 251.754745 159.915261 
L 252.248441 158.041986 
L 252.742137 138.558731 
L 253.235833 138.925937 
L 254.223225 168.741248 
L 254.716921 169.202612 
L 255.210617 156.042671 
L 255.704313 174.302056 
L 256.198009 225.676751 
L 256.691705 182.573564 
L 257.679098 161.000121 
L 258.172794 179.000624 
L 258.66649 183.802269 
L 259.160186 180.19565 
L 259.653882 164.754718 
L 260.147578 185.004315 
L 260.641274 164.601959 
L 261.13497 183.692026 
L 261.628666 183.320021 
L 262.122362 182.060726 
L 262.616058 208.817418 
L 263.109754 226.600785 
L 263.603451 194.550111 
L 264.097147 191.19359 
L 264.590843 194.763011 
L 265.578235 236.815075 
L 266.071931 233.922111 
L 266.565627 221.717162 
L 267.059323 231.062752 
L 267.553019 197.775026 
L 268.046715 181.950412 
L 268.540411 188.332302 
L 269.034107 182.190891 
L 269.527804 244.477521 
L 270.515196 247.445865 
L 271.008892 222.901915 
L 271.502588 272.47038 
L 271.996284 248.833766 
L 272.48998 255.366147 
L 272.983676 241.177469 
L 273.477372 239.130001 
L 273.971068 225.472848 
L 274.464764 224.381085 
L 274.958461 209.581976 
L 275.452157 219.528885 
L 275.945853 207.02001 
L 276.439549 207.637568 
L 276.933245 240.431579 
L 277.920637 209.65402 
L 278.414333 209.528222 
L 278.908029 207.517829 
L 279.401725 211.010908 
L 279.895421 218.226705 
L 280.389117 198.036827 
L 280.882814 220.410682 
L 281.37651 237.265064 
L 281.870206 236.423233 
L 282.363902 215.566045 
L 282.857598 214.492208 
L 283.351294 209.158706 
L 284.338686 226.340682 
L 284.832382 203.4667 
L 285.326078 223.559485 
L 285.819774 235.647083 
L 286.31347 255.519838 
L 286.807167 223.907231 
L 287.300863 206.007828 
L 287.794559 195.826336 
L 288.288255 197.16398 
L 288.781951 241.626997 
L 289.275647 237.889351 
L 289.769343 250.652387 
L 290.263039 245.265828 
L 290.756735 250.339805 
L 291.250431 228.776376 
L 291.744127 238.798545 
L 292.237823 229.090288 
L 292.73152 214.170945 
L 293.225216 224.55941 
L 293.718912 225.272712 
L 294.212608 206.550014 
L 294.706304 220.630945 
L 295.2 211.209559 
L 295.693696 259.318732 
L 296.187392 259.935926 
L 296.681088 240.269215 
L 297.174784 246.474745 
L 297.66848 232.025508 
L 298.162177 242.38953 
L 298.655873 224.448315 
L 299.149569 230.135169 
L 299.643265 238.769099 
L 300.136961 239.710027 
L 300.630657 224.367118 
L 301.124353 220.98773 
L 301.618049 239.406517 
L 302.111745 242.716312 
L 302.605441 218.81731 
L 303.099137 218.054703 
L 303.592833 216.691525 
L 304.08653 224.886742 
L 304.580226 216.438032 
L 305.073922 239.630782 
L 305.567618 255.926317 
L 306.061314 259.458698 
L 306.55501 251.692652 
L 307.048706 230.457367 
L 307.542402 239.666751 
L 308.036098 239.346191 
L 308.529794 213.763418 
L 309.02349 201.786001 
L 309.517186 203.20922 
L 310.010883 221.792745 
L 310.504579 249.928738 
L 310.998275 249.768693 
L 311.491971 228.844013 
L 311.985667 231.38665 
L 312.479363 226.447741 
L 312.973059 201.439811 
L 313.466755 238.282176 
L 313.960451 230.27431 
L 314.454147 234.723639 
L 314.947843 208.103215 
L 315.441539 192.931423 
L 315.935236 194.967113 
L 316.428932 241.946907 
L 316.922628 273.739366 
L 317.416324 241.758216 
L 317.91002 253.600536 
L 318.403716 243.115736 
L 318.897412 210.223587 
L 319.391108 198.846402 
L 319.884804 194.344112 
L 320.3785 241.351966 
L 320.872196 258.834456 
L 321.365893 246.031081 
L 321.859589 261.30815 
L 322.353285 236.470824 
L 322.846981 199.534068 
L 323.340677 193.453607 
L 323.834373 232.160893 
L 324.328069 231.61759 
L 324.821765 241.648819 
L 325.315461 240.489981 
L 325.809157 192.978386 
L 326.302853 190.448246 
L 326.796549 213.600951 
L 327.290246 185.694076 
L 327.783942 204.870321 
L 328.277638 203.071658 
L 328.771334 219.289997 
L 329.26503 215.817043 
L 329.758726 211.466044 
L 330.252422 202.367093 
L 330.746118 189.369046 
L 331.239814 191.669842 
L 331.73351 173.86501 
L 332.227206 185.79291 
L 332.720902 188.78191 
L 333.214599 208.46474 
L 333.708295 188.621422 
L 334.201991 184.035917 
L 334.695687 165.498502 
L 335.189383 185.280271 
L 335.683079 231.982127 
L 336.176775 220.631632 
L 336.670471 185.422305 
L 337.657863 154.26687 
L 338.645255 162.396 
L 339.138952 155.515203 
L 339.632648 202.932421 
L 340.126344 176.8019 
L 340.62004 168.131603 
L 341.113736 170.959958 
L 341.607432 149.566752 
L 343.08852 223.124661 
L 344.075912 175.06197 
L 344.569608 156.458825 
L 345.063305 159.901606 
L 345.557001 184.173608 
L 346.050697 180.794241 
L 346.544393 151.20419 
L 347.038089 169.138569 
L 348.025481 226.687118 
L 348.519177 228.184405 
L 349.012873 167.787945 
L 349.506569 180.121364 
L 350.000265 161.50457 
L 350.493962 159.722697 
L 350.987658 148.470442 
L 351.481354 142.354883 
L 351.97505 134.29021 
L 352.468746 131.004456 
L 353.456138 182.962616 
L 354.44353 148.961393 
L 354.937226 140.667595 
L 355.430922 175.171615 
L 356.418315 141.766856 
L 356.912011 143.358999 
L 357.405707 127.660595 
L 358.393099 157.024213 
L 358.886795 150.943529 
L 359.380491 158.533881 
L 359.874187 192.737991 
L 360.367883 191.451848 
L 360.861579 170.833194 
L 361.355275 162.995974 
L 362.342668 161.711352 
L 362.836364 145.964494 
L 363.33006 143.386492 
L 363.823756 153.78052 
L 364.811148 132.787157 
L 365.304844 131.883857 
L 365.79854 140.432363 
L 366.292236 138.696382 
L 366.785932 139.302263 
L 367.279628 155.248865 
L 367.773324 157.632344 
L 368.267021 164.348898 
L 368.760717 156.880997 
L 369.254413 135.799993 
L 369.748109 158.761082 
L 370.241805 164.124054 
L 370.735501 171.233493 
L 371.229197 171.813241 
L 371.722893 169.971815 
L 372.216589 161.179377 
L 372.710285 149.442641 
L 373.203981 144.466406 
L 373.697678 141.676127 
L 374.191374 129.349483 
L 374.68507 126.766351 
L 375.178766 120.128288 
L 375.672462 136.08975 
L 376.166158 181.922325 
L 376.659854 164.441287 
L 377.15355 165.757821 
L 377.647246 168.882493 
L 378.140942 163.528648 
L 379.128334 141.785408 
L 379.622031 140.715378 
L 380.115727 150.00487 
L 380.609423 141.603961 
L 381.103119 136.473321 
L 381.596815 125.559495 
L 382.090511 127.613844 
L 382.584207 140.026456 
L 383.077903 156.656883 
L 383.571599 157.681313 
L 384.065295 163.111352 
L 384.558991 163.542572 
L 385.052687 136.439208 
L 385.546384 144.865783 
L 386.04008 137.624119 
L 386.533776 140.625679 
L 387.027472 140.276102 
L 387.521168 129.568386 
L 388.014864 128.90631 
L 388.50856 130.41562 
L 389.002256 121.546263 
L 389.495952 152.628682 
L 389.989648 124.311294 
L 390.483344 123.09825 
L 390.97704 121.398309 
L 391.470737 115.434217 
L 391.964433 119.457522 
L 392.458129 118.766127 
L 392.951825 120.175152 
L 393.445521 115.286809 
L 393.939217 122.345797 
L 394.432913 155.238884 
L 394.926609 158.003158 
L 395.420305 138.702163 
L 395.914001 140.273704 
L 396.407697 145.690204 
L 396.901393 126.956603 
L 397.39509 121.472594 
L 397.888786 135.557708 
L 398.382482 168.230988 
L 398.876178 178.518387 
L 399.369874 167.636859 
L 399.86357 168.473838 
L 400.357266 166.146516 
L 400.850962 149.715285 
L 401.344658 164.128007 
L 401.838354 147.154187 
L 402.33205 144.768064 
L 402.825747 147.426091 
L 403.319443 145.105211 
L 403.813139 152.867458 
L 404.306835 133.762498 
L 404.800531 140.589507 
L 405.294227 139.618103 
L 405.787923 139.603572 
L 406.281619 145.997976 
L 406.775315 138.488101 
L 407.269011 136.494234 
L 407.762707 136.84616 
L 408.256403 129.716772 
L 408.7501 130.478832 
L 409.243796 134.893587 
L 409.737492 132.691842 
L 410.231188 126.11414 
L 410.724884 127.988119 
L 411.21858 127.081916 
L 411.712276 138.024842 
L 412.205972 125.004501 
L 412.699668 126.42813 
L 413.193364 123.216034 
L 414.180756 126.865547 
L 414.674453 127.439285 
L 415.168149 144.577022 
L 415.661845 140.919553 
L 416.155541 146.517351 
L 416.649237 143.255876 
L 417.142933 194.046021 
L 417.636629 176.106858 
L 418.130325 177.257031 
L 418.624021 173.317606 
L 419.117717 178.187504 
L 419.611413 131.335652 
L 420.105109 135.507783 
L 420.598806 134.610291 
L 421.092502 134.428363 
L 421.586198 129.556569 
L 422.079894 126.491594 
L 422.57359 125.73606 
L 423.067286 130.391584 
L 423.560982 128.050857 
L 424.054678 135.108747 
L 424.548374 134.254817 
L 425.04207 123.798199 
L 425.535766 128.726407 
L 426.029463 130.709981 
L 426.523159 122.139391 
L 427.016855 120.812352 
L 427.510551 120.149679 
L 428.004247 118.527683 
L 428.497943 125.937222 
L 428.991639 123.394321 
L 429.485335 122.038687 
L 429.979031 119.032803 
L 430.472727 119.983003 
L 430.966423 117.236556 
L 431.460119 130.56289 
L 432.447512 139.103224 
L 432.941208 151.966372 
L 433.434904 139.767069 
L 433.9286 132.473648 
L 434.915992 124.146074 
L 435.409688 126.135287 
L 436.39708 116.573375 
L 436.890776 115.546889 
L 437.384472 121.345674 
L 438.371865 155.329447 
L 438.865561 138.016529 
L 439.359257 133.797549 
L 439.852953 124.835145 
L 440.346649 138.120014 
L 440.840345 171.293523 
L 441.827737 138.724505 
L 442.815129 169.2062 
L 443.308825 181.019072 
L 443.802522 169.630338 
L 444.296218 168.747441 
L 444.789914 152.227137 
L 445.28361 158.528612 
L 445.777306 156.539784 
L 446.271002 148.538722 
L 446.764698 146.795406 
L 447.258394 149.920447 
L 447.75209 147.649419 
L 448.245786 165.329697 
L 448.739482 165.145149 
L 449.233179 155.769112 
L 449.726875 152.728775 
L 450.220571 144.002087 
L 450.714267 145.644385 
L 451.207963 153.576595 
L 451.701659 144.899301 
L 452.195355 143.643393 
L 452.689051 144.474476 
L 453.182747 144.545616 
L 453.676443 174.632709 
L 454.170139 177.929802 
L 454.663835 173.113949 
L 455.157532 175.810655 
L 455.651228 169.139765 
L 456.144924 166.615027 
L 456.63862 165.577642 
L 457.132316 169.838945 
L 458.613404 191.745081 
L 459.1071 209.701621 
L 459.600796 219.148972 
L 460.094492 189.649372 
L 460.588188 208.120142 
L 462.069277 166.146169 
L 462.562973 178.256626 
L 463.056669 170.965626 
L 463.550365 168.438562 
L 464.044061 176.484762 
L 464.537757 232.404258 
L 465.031453 224.589333 
L 465.525149 214.73975 
L 466.018845 200.064879 
L 466.512541 192.351816 
L 467.006238 197.630388 
L 467.499934 179.934994 
L 467.99363 193.840961 
L 468.487326 214.70845 
L 469.474718 197.435349 
L 469.968414 215.165282 
L 470.46211 222.227056 
L 470.955806 227.252566 
L 471.449502 216.470701 
L 471.943198 216.022679 
L 472.436894 201.624372 
L 472.930591 197.411455 
L 473.424287 195.675631 
L 473.917983 185.831091 
L 474.411679 190.492818 
L 474.905375 183.794111 
L 475.399071 188.725976 
L 475.892767 192.04438 
L 476.386463 192.588303 
L 477.373855 247.398554 
L 477.867551 219.04207 
L 478.854944 247.885701 
L 479.34864 243.984691 
L 480.336032 268.234799 
L 480.829728 271.476755 
L 481.323424 269.595149 
L 481.81712 251.880633 
L 482.310816 259.145349 
L 482.804512 236.210371 
L 483.298208 235.877345 
L 483.791904 244.445023 
L 484.285601 227.775115 
L 484.779297 225.432834 
L 485.272993 210.104192 
L 485.766689 235.654635 
L 486.260385 254.36266 
L 486.754081 242.33516 
L 487.247777 226.13243 
L 487.741473 226.913645 
L 488.235169 225.757743 
L 488.728865 213.19915 
L 489.222561 232.58866 
L 489.716257 224.761388 
L 490.209954 229.140486 
L 490.70365 230.317172 
L 491.197346 205.659228 
L 492.184738 237.359826 
L 492.678434 238.49491 
L 493.17213 260.677023 
L 493.665826 259.949481 
L 494.159522 250.810178 
L 494.653218 229.067635 
L 495.146914 265.623946 
L 495.64061 246.080283 
L 496.134307 199.151983 
L 496.628003 167.00821 
L 497.121699 161.062138 
L 497.615395 158.10321 
L 497.615395 158.10321 
" clip-path="url(#p4a4fa8f67f)" style="fill: none; stroke: #ff7f0e; stroke-width: 1.5; stroke-linecap: round"/>
   </g>
   <g id="patch_3">
    <path d="M 72 384.48 
L 72 51.84 
" style="fill: none; stroke: #ffffff; stroke-width: 0.8; stroke-linejoin: miter; stroke-linecap: square"/>
   </g>
   <g id="patch_4">
    <path d="M 518.4 384.48 
L 518.4 51.84 
" style="fill: none; stroke: #ffffff; stroke-width: 0.8; stroke-linejoin: miter; stroke-linecap: square"/>
   </g>
   <g id="patch_5">
    <path d="M 72 384.48 
L 518.4 384.48 
" style="fill: none; stroke: #ffffff; stroke-width: 0.8; stroke-linejoin: miter; stroke-linecap: square"/>
   </g>
   <g id="patch_6">
    <path d="M 72 51.84 
L 518.4 51.84 
" style="fill: none; stroke: #ffffff; stroke-width: 0.8; stroke-linejoin: miter; stroke-linecap: square"/>
   </g>
   <g id="text_16">
    <!-- Maximum Temperature Prediction 11 Days Ahead -->
    <g style="fill: #262626" transform="translate(163.695937 45.84) scale(0.12 -0.12)">
     <defs>
      <path id="ArialMT-4d" d="M 475 0 
L 475 4581 
L 1388 4581 
L 2472 1338 
Q 2622 884 2691 659 
Q 2769 909 2934 1394 
L 4031 4581 
L 4847 4581 
L 4847 0 
L 4263 0 
L 4263 3834 
L 2931 0 
L 2384 0 
L 1059 3900 
L 1059 0 
L 475 0 
z
" transform="scale(0.015625)"/>
      <path id="ArialMT-78" d="M 47 0 
L 1259 1725 
L 138 3319 
L 841 3319 
L 1350 2541 
Q 1494 2319 1581 2169 
Q 1719 2375 1834 2534 
L 2394 3319 
L 3066 3319 
L 1919 1756 
L 3153 0 
L 2463 0 
L 1781 1031 
L 1600 1309 
L 728 0 
L 47 0 
z
" transform="scale(0.015625)"/>
      <path id="ArialMT-69" d="M 425 3934 
L 425 4581 
L 988 4581 
L 988 3934 
L 425 3934 
z
M 425 0 
L 425 3319 
L 988 3319 
L 988 0 
L 425 0 
z
" transform="scale(0.015625)"/>
      <path id="ArialMT-6d" d="M 422 0 
L 422 3319 
L 925 3319 
L 925 2853 
Q 1081 3097 1340 3245 
Q 1600 3394 1931 3394 
Q 2300 3394 2536 3241 
Q 2772 3088 2869 2813 
Q 3263 3394 3894 3394 
Q 4388 3394 4653 3120 
Q 4919 2847 4919 2278 
L 4919 0 
L 4359 0 
L 4359 2091 
Q 4359 2428 4304 2576 
Q 4250 2725 4106 2815 
Q 3963 2906 3769 2906 
Q 3419 2906 3187 2673 
Q 2956 2441 2956 1928 
L 2956 0 
L 2394 0 
L 2394 2156 
Q 2394 2531 2256 2718 
Q 2119 2906 1806 2906 
Q 1569 2906 1367 2781 
Q 1166 2656 1075 2415 
Q 984 2175 984 1722 
L 984 0 
L 422 0 
z
" transform="scale(0.015625)"/>
      <path id="ArialMT-75" d="M 2597 0 
L 2597 488 
Q 2209 -75 1544 -75 
Q 1250 -75 995 37 
Q 741 150 617 320 
Q 494 491 444 738 
Q 409 903 409 1263 
L 409 3319 
L 972 3319 
L 972 1478 
Q 972 1038 1006 884 
Q 1059 663 1231 536 
Q 1403 409 1656 409 
Q 1909 409 2131 539 
Q 2353 669 2445 892 
Q 2538 1116 2538 1541 
L 2538 3319 
L 3100 3319 
L 3100 0 
L 2597 0 
z
" transform="scale(0.015625)"/>
      <path id="ArialMT-20" transform="scale(0.015625)"/>
      <path id="ArialMT-54" d="M 1659 0 
L 1659 4041 
L 150 4041 
L 150 4581 
L 3781 4581 
L 3781 4041 
L 2266 4041 
L 2266 0 
L 1659 0 
z
" transform="scale(0.015625)"/>
      <path id="ArialMT-65" d="M 2694 1069 
L 3275 997 
Q 3138 488 2766 206 
Q 2394 -75 1816 -75 
Q 1088 -75 661 373 
Q 234 822 234 1631 
Q 234 2469 665 2931 
Q 1097 3394 1784 3394 
Q 2450 3394 2872 2941 
Q 3294 2488 3294 1666 
Q 3294 1616 3291 1516 
L 816 1516 
Q 847 969 1125 678 
Q 1403 388 1819 388 
Q 2128 388 2347 550 
Q 2566 713 2694 1069 
z
M 847 1978 
L 2700 1978 
Q 2663 2397 2488 2606 
Q 2219 2931 1791 2931 
Q 1403 2931 1139 2672 
Q 875 2413 847 1978 
z
" transform="scale(0.015625)"/>
      <path id="ArialMT-70" d="M 422 -1272 
L 422 3319 
L 934 3319 
L 934 2888 
Q 1116 3141 1344 3267 
Q 1572 3394 1897 3394 
Q 2322 3394 2647 3175 
Q 2972 2956 3137 2557 
Q 3303 2159 3303 1684 
Q 3303 1175 3120 767 
Q 2938 359 2589 142 
Q 2241 -75 1856 -75 
Q 1575 -75 1351 44 
Q 1128 163 984 344 
L 984 -1272 
L 422 -1272 
z
M 931 1641 
Q 931 1000 1190 694 
Q 1450 388 1819 388 
Q 2194 388 2461 705 
Q 2728 1022 2728 1688 
Q 2728 2322 2467 2637 
Q 2206 2953 1844 2953 
Q 1484 2953 1207 2617 
Q 931 2281 931 1641 
z
" transform="scale(0.015625)"/>
      <path id="ArialMT-72" d="M 416 0 
L 416 3319 
L 922 3319 
L 922 2816 
Q 1116 3169 1280 3281 
Q 1444 3394 1641 3394 
Q 1925 3394 2219 3213 
L 2025 2691 
Q 1819 2813 1613 2813 
Q 1428 2813 1281 2702 
Q 1134 2591 1072 2394 
Q 978 2094 978 1738 
L 978 0 
L 416 0 
z
" transform="scale(0.015625)"/>
      <path id="ArialMT-74" d="M 1650 503 
L 1731 6 
Q 1494 -44 1306 -44 
Q 1000 -44 831 53 
Q 663 150 594 308 
Q 525 466 525 972 
L 525 2881 
L 113 2881 
L 113 3319 
L 525 3319 
L 525 4141 
L 1084 4478 
L 1084 3319 
L 1650 3319 
L 1650 2881 
L 1084 2881 
L 1084 941 
Q 1084 700 1114 631 
Q 1144 563 1211 522 
Q 1278 481 1403 481 
Q 1497 481 1650 503 
z
" transform="scale(0.015625)"/>
      <path id="ArialMT-50" d="M 494 0 
L 494 4581 
L 2222 4581 
Q 2678 4581 2919 4538 
Q 3256 4481 3484 4323 
Q 3713 4166 3852 3881 
Q 3991 3597 3991 3256 
Q 3991 2672 3619 2267 
Q 3247 1863 2275 1863 
L 1100 1863 
L 1100 0 
L 494 0 
z
M 1100 2403 
L 2284 2403 
Q 2872 2403 3119 2622 
Q 3366 2841 3366 3238 
Q 3366 3525 3220 3729 
Q 3075 3934 2838 4000 
Q 2684 4041 2272 4041 
L 1100 4041 
L 1100 2403 
z
" transform="scale(0.015625)"/>
      <path id="ArialMT-64" d="M 2575 0 
L 2575 419 
Q 2259 -75 1647 -75 
Q 1250 -75 917 144 
Q 584 363 401 755 
Q 219 1147 219 1656 
Q 219 2153 384 2558 
Q 550 2963 881 3178 
Q 1213 3394 1622 3394 
Q 1922 3394 2156 3267 
Q 2391 3141 2538 2938 
L 2538 4581 
L 3097 4581 
L 3097 0 
L 2575 0 
z
M 797 1656 
Q 797 1019 1065 703 
Q 1334 388 1700 388 
Q 2069 388 2326 689 
Q 2584 991 2584 1609 
Q 2584 2291 2321 2609 
Q 2059 2928 1675 2928 
Q 1300 2928 1048 2622 
Q 797 2316 797 1656 
z
" transform="scale(0.015625)"/>
      <path id="ArialMT-63" d="M 2588 1216 
L 3141 1144 
Q 3050 572 2676 248 
Q 2303 -75 1759 -75 
Q 1078 -75 664 370 
Q 250 816 250 1647 
Q 250 2184 428 2587 
Q 606 2991 970 3192 
Q 1334 3394 1763 3394 
Q 2303 3394 2647 3120 
Q 2991 2847 3088 2344 
L 2541 2259 
Q 2463 2594 2264 2762 
Q 2066 2931 1784 2931 
Q 1359 2931 1093 2626 
Q 828 2322 828 1663 
Q 828 994 1084 691 
Q 1341 388 1753 388 
Q 2084 388 2306 591 
Q 2528 794 2588 1216 
z
" transform="scale(0.015625)"/>
      <path id="ArialMT-6f" d="M 213 1659 
Q 213 2581 725 3025 
Q 1153 3394 1769 3394 
Q 2453 3394 2887 2945 
Q 3322 2497 3322 1706 
Q 3322 1066 3130 698 
Q 2938 331 2570 128 
Q 2203 -75 1769 -75 
Q 1072 -75 642 372 
Q 213 819 213 1659 
z
M 791 1659 
Q 791 1022 1069 705 
Q 1347 388 1769 388 
Q 2188 388 2466 706 
Q 2744 1025 2744 1678 
Q 2744 2294 2464 2611 
Q 2184 2928 1769 2928 
Q 1347 2928 1069 2612 
Q 791 2297 791 1659 
z
" transform="scale(0.015625)"/>
      <path id="ArialMT-6e" d="M 422 0 
L 422 3319 
L 928 3319 
L 928 2847 
Q 1294 3394 1984 3394 
Q 2284 3394 2536 3286 
Q 2788 3178 2913 3003 
Q 3038 2828 3088 2588 
Q 3119 2431 3119 2041 
L 3119 0 
L 2556 0 
L 2556 2019 
Q 2556 2363 2490 2533 
Q 2425 2703 2258 2804 
Q 2091 2906 1866 2906 
Q 1506 2906 1245 2678 
Q 984 2450 984 1813 
L 984 0 
L 422 0 
z
" transform="scale(0.015625)"/>
      <path id="ArialMT-41" d="M -9 0 
L 1750 4581 
L 2403 4581 
L 4278 0 
L 3588 0 
L 3053 1388 
L 1138 1388 
L 634 0 
L -9 0 
z
M 1313 1881 
L 2866 1881 
L 2388 3150 
Q 2169 3728 2063 4100 
Q 1975 3659 1816 3225 
L 1313 1881 
z
" transform="scale(0.015625)"/>
      <path id="ArialMT-68" d="M 422 0 
L 422 4581 
L 984 4581 
L 984 2938 
Q 1378 3394 1978 3394 
Q 2347 3394 2619 3248 
Q 2891 3103 3008 2847 
Q 3125 2591 3125 2103 
L 3125 0 
L 2563 0 
L 2563 2103 
Q 2563 2525 2380 2717 
Q 2197 2909 1863 2909 
Q 1613 2909 1392 2779 
Q 1172 2650 1078 2428 
Q 984 2206 984 1816 
L 984 0 
L 422 0 
z
" transform="scale(0.015625)"/>
     </defs>
     <use xlink:href="#ArialMT-4d"/>
     <use xlink:href="#ArialMT-61" x="83.300781"/>
     <use xlink:href="#ArialMT-78" x="138.916016"/>
     <use xlink:href="#ArialMT-69" x="188.916016"/>
     <use xlink:href="#ArialMT-6d" x="211.132812"/>
     <use xlink:href="#ArialMT-75" x="294.433594"/>
     <use xlink:href="#ArialMT-6d" x="350.048828"/>
     <use xlink:href="#ArialMT-20" x="433.349609"/>
     <use xlink:href="#ArialMT-54" x="459.382812"/>
     <use xlink:href="#ArialMT-65" x="509.341797"/>
     <use xlink:href="#ArialMT-6d" x="564.957031"/>
     <use xlink:href="#ArialMT-70" x="648.257812"/>
     <use xlink:href="#ArialMT-65" x="703.873047"/>
     <use xlink:href="#ArialMT-72" x="759.488281"/>
     <use xlink:href="#ArialMT-61" x="792.789062"/>
     <use xlink:href="#ArialMT-74" x="848.404297"/>
     <use xlink:href="#ArialMT-75" x="876.1875"/>
     <use xlink:href="#ArialMT-72" x="931.802734"/>
     <use xlink:href="#ArialMT-65" x="965.103516"/>
     <use xlink:href="#ArialMT-20" x="1020.71875"/>
     <use xlink:href="#ArialMT-50" x="1048.501953"/>
     <use xlink:href="#ArialMT-72" x="1115.201172"/>
     <use xlink:href="#ArialMT-65" x="1148.501953"/>
     <use xlink:href="#ArialMT-64" x="1204.117188"/>
     <use xlink:href="#ArialMT-69" x="1259.732422"/>
     <use xlink:href="#ArialMT-63" x="1281.949219"/>
     <use xlink:href="#ArialMT-74" x="1331.949219"/>
     <use xlink:href="#ArialMT-69" x="1359.732422"/>
     <use xlink:href="#ArialMT-6f" x="1381.949219"/>
     <use xlink:href="#ArialMT-6e" x="1437.564453"/>
     <use xlink:href="#ArialMT-20" x="1493.179688"/>
     <use xlink:href="#ArialMT-31" x="1520.962891"/>
     <use xlink:href="#ArialMT-31" x="1569.203125"/>
     <use xlink:href="#ArialMT-20" x="1624.818359"/>
     <use xlink:href="#ArialMT-44" x="1652.601562"/>
     <use xlink:href="#ArialMT-61" x="1724.818359"/>
     <use xlink:href="#ArialMT-79" x="1780.433594"/>
     <use xlink:href="#ArialMT-73" x="1830.433594"/>
     <use xlink:href="#ArialMT-20" x="1880.433594"/>
     <use xlink:href="#ArialMT-41" x="1902.716797"/>
     <use xlink:href="#ArialMT-68" x="1969.416016"/>
     <use xlink:href="#ArialMT-65" x="2025.03125"/>
     <use xlink:href="#ArialMT-61" x="2080.646484"/>
     <use xlink:href="#ArialMT-64" x="2136.261719"/>
    </g>
   </g>
   <g id="legend_1">
    <g id="patch_7">
     <path d="M 437.15625 88.130625 
L 511.4 88.130625 
Q 513.4 88.130625 513.4 86.130625 
L 513.4 58.84 
Q 513.4 56.84 511.4 56.84 
L 437.15625 56.84 
Q 435.15625 56.84 435.15625 58.84 
L 435.15625 86.130625 
Q 435.15625 88.130625 437.15625 88.130625 
z
" style="fill: #eaeaf2; opacity: 0.8; stroke: #cccccc; stroke-linejoin: miter"/>
    </g>
    <g id="line2d_16">
     <path d="M 439.15625 64.497812 
L 449.15625 64.497812 
L 459.15625 64.497812 
" style="fill: none; stroke: #1f77b4; stroke-width: 1.5; stroke-linecap: round"/>
    </g>
    <g id="text_17">
     <!-- Real -->
     <g style="fill: #262626" transform="translate(467.15625 67.997812) scale(0.1 -0.1)">
      <defs>
       <path id="ArialMT-52" d="M 503 0 
L 503 4581 
L 2534 4581 
Q 3147 4581 3465 4457 
Q 3784 4334 3975 4021 
Q 4166 3709 4166 3331 
Q 4166 2844 3850 2509 
Q 3534 2175 2875 2084 
Q 3116 1969 3241 1856 
Q 3506 1613 3744 1247 
L 4541 0 
L 3778 0 
L 3172 953 
Q 2906 1366 2734 1584 
Q 2563 1803 2427 1890 
Q 2291 1978 2150 2013 
Q 2047 2034 1813 2034 
L 1109 2034 
L 1109 0 
L 503 0 
z
M 1109 2559 
L 2413 2559 
Q 2828 2559 3062 2645 
Q 3297 2731 3419 2920 
Q 3541 3109 3541 3331 
Q 3541 3656 3305 3865 
Q 3069 4075 2559 4075 
L 1109 4075 
L 1109 2559 
z
" transform="scale(0.015625)"/>
       <path id="ArialMT-6c" d="M 409 0 
L 409 4581 
L 972 4581 
L 972 0 
L 409 0 
z
" transform="scale(0.015625)"/>
      </defs>
      <use xlink:href="#ArialMT-52"/>
      <use xlink:href="#ArialMT-65" x="72.216797"/>
      <use xlink:href="#ArialMT-61" x="127.832031"/>
      <use xlink:href="#ArialMT-6c" x="183.447266"/>
     </g>
    </g>
    <g id="line2d_17">
     <path d="M 439.15625 78.643125 
L 449.15625 78.643125 
L 459.15625 78.643125 
" style="fill: none; stroke: #ff7f0e; stroke-width: 1.5; stroke-linecap: round"/>
    </g>
    <g id="text_18">
     <!-- Predicted -->
     <g style="fill: #262626" transform="translate(467.15625 82.143125) scale(0.1 -0.1)">
      <use xlink:href="#ArialMT-50"/>
      <use xlink:href="#ArialMT-72" x="66.699219"/>
      <use xlink:href="#ArialMT-65" x="100"/>
      <use xlink:href="#ArialMT-64" x="155.615234"/>
      <use xlink:href="#ArialMT-69" x="211.230469"/>
      <use xlink:href="#ArialMT-63" x="233.447266"/>
      <use xlink:href="#ArialMT-74" x="283.447266"/>
      <use xlink:href="#ArialMT-65" x="311.230469"/>
      <use xlink:href="#ArialMT-64" x="366.845703"/>
     </g>
    </g>
   </g>
  </g>
 </g>
 <defs>
  <clipPath id="p4a4fa8f67f">
   <rect x="72" y="51.84" width="446.4" height="332.64"/>
  </clipPath>
 </defs>
</svg>
