<?xml version="1.0" encoding="utf-8" standalone="no"?>
<!DOCTYPE svg PUBLIC "-//W3C//DTD SVG 1.1//EN"
  "http://www.w3.org/Graphics/SVG/1.1/DTD/svg11.dtd">
<svg xmlns:xlink="http://www.w3.org/1999/xlink" width="576pt" height="432pt" viewBox="0 0 576 432" xmlns="http://www.w3.org/2000/svg" version="1.1">
 <metadata>
  <rdf:RDF xmlns:dc="http://purl.org/dc/elements/1.1/" xmlns:cc="http://creativecommons.org/ns#" xmlns:rdf="http://www.w3.org/1999/02/22-rdf-syntax-ns#">
   <cc:Work>
    <dc:type rdf:resource="http://purl.org/dc/dcmitype/StillImage"/>
    <dc:date>2023-11-17T05:13:22.226657</dc:date>
    <dc:format>image/svg+xml</dc:format>
    <dc:creator>
     <cc:Agent>
      <dc:title>Matplotlib v3.8.0, https://matplotlib.org/</dc:title>
     </cc:Agent>
    </dc:creator>
   </cc:Work>
  </rdf:RDF>
 </metadata>
 <defs>
  <style type="text/css">*{stroke-linejoin: round; stroke-linecap: butt}</style>
 </defs>
 <g id="figure_1">
  <g id="patch_1">
   <path d="M 0 432 
L 576 432 
L 576 0 
L 0 0 
z
" style="fill: #ffffff"/>
  </g>
  <g id="axes_1">
   <g id="patch_2">
    <path d="M 72 384.48 
L 518.4 384.48 
L 518.4 51.84 
L 72 51.84 
z
" style="fill: #eaeaf2"/>
   </g>
   <g id="matplotlib.axis_1">
    <g id="xtick_1">
     <g id="line2d_1">
      <path d="M 92.290909 384.48 
L 92.290909 51.84 
" clip-path="url(#pe2566842f5)" style="fill: none; stroke: #ffffff; stroke-width: 0.8; stroke-linecap: round"/>
     </g>
     <g id="text_1">
      <!-- 0 -->
      <g style="fill: #262626" transform="translate(89.51044 398.637812) scale(0.1 -0.1)">
       <defs>
        <path id="ArialMT-30" d="M 266 2259 
Q 266 3072 433 3567 
Q 600 4063 929 4331 
Q 1259 4600 1759 4600 
Q 2128 4600 2406 4451 
Q 2684 4303 2865 4023 
Q 3047 3744 3150 3342 
Q 3253 2941 3253 2259 
Q 3253 1453 3087 958 
Q 2922 463 2592 192 
Q 2263 -78 1759 -78 
Q 1097 -78 719 397 
Q 266 969 266 2259 
z
M 844 2259 
Q 844 1131 1108 757 
Q 1372 384 1759 384 
Q 2147 384 2411 759 
Q 2675 1134 2675 2259 
Q 2675 3391 2411 3762 
Q 2147 4134 1753 4134 
Q 1366 4134 1134 3806 
Q 844 3388 844 2259 
z
" transform="scale(0.015625)"/>
       </defs>
       <use xlink:href="#ArialMT-30"/>
      </g>
     </g>
    </g>
    <g id="xtick_2">
     <g id="line2d_2">
      <path d="M 191.030126 384.48 
L 191.030126 51.84 
" clip-path="url(#pe2566842f5)" style="fill: none; stroke: #ffffff; stroke-width: 0.8; stroke-linecap: round"/>
     </g>
     <g id="text_2">
      <!-- 200 -->
      <g style="fill: #262626" transform="translate(182.68872 398.637812) scale(0.1 -0.1)">
       <defs>
        <path id="ArialMT-32" d="M 3222 541 
L 3222 0 
L 194 0 
Q 188 203 259 391 
Q 375 700 629 1000 
Q 884 1300 1366 1694 
Q 2113 2306 2375 2664 
Q 2638 3022 2638 3341 
Q 2638 3675 2398 3904 
Q 2159 4134 1775 4134 
Q 1369 4134 1125 3890 
Q 881 3647 878 3216 
L 300 3275 
Q 359 3922 746 4261 
Q 1134 4600 1788 4600 
Q 2447 4600 2831 4234 
Q 3216 3869 3216 3328 
Q 3216 3053 3103 2787 
Q 2991 2522 2730 2228 
Q 2469 1934 1863 1422 
Q 1356 997 1212 845 
Q 1069 694 975 541 
L 3222 541 
z
" transform="scale(0.015625)"/>
       </defs>
       <use xlink:href="#ArialMT-32"/>
       <use xlink:href="#ArialMT-30" x="55.615234"/>
       <use xlink:href="#ArialMT-30" x="111.230469"/>
      </g>
     </g>
    </g>
    <g id="xtick_3">
     <g id="line2d_3">
      <path d="M 289.769343 384.48 
L 289.769343 51.84 
" clip-path="url(#pe2566842f5)" style="fill: none; stroke: #ffffff; stroke-width: 0.8; stroke-linecap: round"/>
     </g>
     <g id="text_3">
      <!-- 400 -->
      <g style="fill: #262626" transform="translate(281.427937 398.637812) scale(0.1 -0.1)">
       <defs>
        <path id="ArialMT-34" d="M 2069 0 
L 2069 1097 
L 81 1097 
L 81 1613 
L 2172 4581 
L 2631 4581 
L 2631 1613 
L 3250 1613 
L 3250 1097 
L 2631 1097 
L 2631 0 
L 2069 0 
z
M 2069 1613 
L 2069 3678 
L 634 1613 
L 2069 1613 
z
" transform="scale(0.015625)"/>
       </defs>
       <use xlink:href="#ArialMT-34"/>
       <use xlink:href="#ArialMT-30" x="55.615234"/>
       <use xlink:href="#ArialMT-30" x="111.230469"/>
      </g>
     </g>
    </g>
    <g id="xtick_4">
     <g id="line2d_4">
      <path d="M 388.50856 384.48 
L 388.50856 51.84 
" clip-path="url(#pe2566842f5)" style="fill: none; stroke: #ffffff; stroke-width: 0.8; stroke-linecap: round"/>
     </g>
     <g id="text_4">
      <!-- 600 -->
      <g style="fill: #262626" transform="translate(380.167154 398.637812) scale(0.1 -0.1)">
       <defs>
        <path id="ArialMT-36" d="M 3184 3459 
L 2625 3416 
Q 2550 3747 2413 3897 
Q 2184 4138 1850 4138 
Q 1581 4138 1378 3988 
Q 1113 3794 959 3422 
Q 806 3050 800 2363 
Q 1003 2672 1297 2822 
Q 1591 2972 1913 2972 
Q 2475 2972 2870 2558 
Q 3266 2144 3266 1488 
Q 3266 1056 3080 686 
Q 2894 316 2569 119 
Q 2244 -78 1831 -78 
Q 1128 -78 684 439 
Q 241 956 241 2144 
Q 241 3472 731 4075 
Q 1159 4600 1884 4600 
Q 2425 4600 2770 4297 
Q 3116 3994 3184 3459 
z
M 888 1484 
Q 888 1194 1011 928 
Q 1134 663 1356 523 
Q 1578 384 1822 384 
Q 2178 384 2434 671 
Q 2691 959 2691 1453 
Q 2691 1928 2437 2201 
Q 2184 2475 1800 2475 
Q 1419 2475 1153 2201 
Q 888 1928 888 1484 
z
" transform="scale(0.015625)"/>
       </defs>
       <use xlink:href="#ArialMT-36"/>
       <use xlink:href="#ArialMT-30" x="55.615234"/>
       <use xlink:href="#ArialMT-30" x="111.230469"/>
      </g>
     </g>
    </g>
    <g id="xtick_5">
     <g id="line2d_5">
      <path d="M 487.247777 384.48 
L 487.247777 51.84 
" clip-path="url(#pe2566842f5)" style="fill: none; stroke: #ffffff; stroke-width: 0.8; stroke-linecap: round"/>
     </g>
     <g id="text_5">
      <!-- 800 -->
      <g style="fill: #262626" transform="translate(478.906371 398.637812) scale(0.1 -0.1)">
       <defs>
        <path id="ArialMT-38" d="M 1131 2484 
Q 781 2613 612 2850 
Q 444 3088 444 3419 
Q 444 3919 803 4259 
Q 1163 4600 1759 4600 
Q 2359 4600 2725 4251 
Q 3091 3903 3091 3403 
Q 3091 3084 2923 2848 
Q 2756 2613 2416 2484 
Q 2838 2347 3058 2040 
Q 3278 1734 3278 1309 
Q 3278 722 2862 322 
Q 2447 -78 1769 -78 
Q 1091 -78 675 323 
Q 259 725 259 1325 
Q 259 1772 486 2073 
Q 713 2375 1131 2484 
z
M 1019 3438 
Q 1019 3113 1228 2906 
Q 1438 2700 1772 2700 
Q 2097 2700 2305 2904 
Q 2513 3109 2513 3406 
Q 2513 3716 2298 3927 
Q 2084 4138 1766 4138 
Q 1444 4138 1231 3931 
Q 1019 3725 1019 3438 
z
M 838 1322 
Q 838 1081 952 856 
Q 1066 631 1291 507 
Q 1516 384 1775 384 
Q 2178 384 2440 643 
Q 2703 903 2703 1303 
Q 2703 1709 2433 1975 
Q 2163 2241 1756 2241 
Q 1359 2241 1098 1978 
Q 838 1716 838 1322 
z
" transform="scale(0.015625)"/>
       </defs>
       <use xlink:href="#ArialMT-38"/>
       <use xlink:href="#ArialMT-30" x="55.615234"/>
       <use xlink:href="#ArialMT-30" x="111.230469"/>
      </g>
     </g>
    </g>
    <g id="text_6">
     <!-- Days -->
     <g style="fill: #262626" transform="translate(283.808594 411.783125) scale(0.1 -0.1)">
      <defs>
       <path id="ArialMT-44" d="M 494 0 
L 494 4581 
L 2072 4581 
Q 2606 4581 2888 4516 
Q 3281 4425 3559 4188 
Q 3922 3881 4101 3404 
Q 4281 2928 4281 2316 
Q 4281 1794 4159 1391 
Q 4038 988 3847 723 
Q 3656 459 3429 307 
Q 3203 156 2883 78 
Q 2563 0 2147 0 
L 494 0 
z
M 1100 541 
L 2078 541 
Q 2531 541 2789 625 
Q 3047 709 3200 863 
Q 3416 1078 3536 1442 
Q 3656 1806 3656 2325 
Q 3656 3044 3420 3430 
Q 3184 3816 2847 3947 
Q 2603 4041 2063 4041 
L 1100 4041 
L 1100 541 
z
" transform="scale(0.015625)"/>
       <path id="ArialMT-61" d="M 2588 409 
Q 2275 144 1986 34 
Q 1697 -75 1366 -75 
Q 819 -75 525 192 
Q 231 459 231 875 
Q 231 1119 342 1320 
Q 453 1522 633 1644 
Q 813 1766 1038 1828 
Q 1203 1872 1538 1913 
Q 2219 1994 2541 2106 
Q 2544 2222 2544 2253 
Q 2544 2597 2384 2738 
Q 2169 2928 1744 2928 
Q 1347 2928 1158 2789 
Q 969 2650 878 2297 
L 328 2372 
Q 403 2725 575 2942 
Q 747 3159 1072 3276 
Q 1397 3394 1825 3394 
Q 2250 3394 2515 3294 
Q 2781 3194 2906 3042 
Q 3031 2891 3081 2659 
Q 3109 2516 3109 2141 
L 3109 1391 
Q 3109 606 3145 398 
Q 3181 191 3288 0 
L 2700 0 
Q 2613 175 2588 409 
z
M 2541 1666 
Q 2234 1541 1622 1453 
Q 1275 1403 1131 1340 
Q 988 1278 909 1158 
Q 831 1038 831 891 
Q 831 666 1001 516 
Q 1172 366 1500 366 
Q 1825 366 2078 508 
Q 2331 650 2450 897 
Q 2541 1088 2541 1459 
L 2541 1666 
z
" transform="scale(0.015625)"/>
       <path id="ArialMT-79" d="M 397 -1278 
L 334 -750 
Q 519 -800 656 -800 
Q 844 -800 956 -737 
Q 1069 -675 1141 -563 
Q 1194 -478 1313 -144 
Q 1328 -97 1363 -6 
L 103 3319 
L 709 3319 
L 1400 1397 
Q 1534 1031 1641 628 
Q 1738 1016 1872 1384 
L 2581 3319 
L 3144 3319 
L 1881 -56 
Q 1678 -603 1566 -809 
Q 1416 -1088 1222 -1217 
Q 1028 -1347 759 -1347 
Q 597 -1347 397 -1278 
z
" transform="scale(0.015625)"/>
       <path id="ArialMT-73" d="M 197 991 
L 753 1078 
Q 800 744 1014 566 
Q 1228 388 1613 388 
Q 2000 388 2187 545 
Q 2375 703 2375 916 
Q 2375 1106 2209 1216 
Q 2094 1291 1634 1406 
Q 1016 1563 777 1677 
Q 538 1791 414 1992 
Q 291 2194 291 2438 
Q 291 2659 392 2848 
Q 494 3038 669 3163 
Q 800 3259 1026 3326 
Q 1253 3394 1513 3394 
Q 1903 3394 2198 3281 
Q 2494 3169 2634 2976 
Q 2775 2784 2828 2463 
L 2278 2388 
Q 2241 2644 2061 2787 
Q 1881 2931 1553 2931 
Q 1166 2931 1000 2803 
Q 834 2675 834 2503 
Q 834 2394 903 2306 
Q 972 2216 1119 2156 
Q 1203 2125 1616 2013 
Q 2213 1853 2448 1751 
Q 2684 1650 2818 1456 
Q 2953 1263 2953 975 
Q 2953 694 2789 445 
Q 2625 197 2315 61 
Q 2006 -75 1616 -75 
Q 969 -75 630 194 
Q 291 463 197 991 
z
" transform="scale(0.015625)"/>
      </defs>
      <use xlink:href="#ArialMT-44"/>
      <use xlink:href="#ArialMT-61" x="72.216797"/>
      <use xlink:href="#ArialMT-79" x="127.832031"/>
      <use xlink:href="#ArialMT-73" x="177.832031"/>
     </g>
    </g>
   </g>
   <g id="matplotlib.axis_2">
    <g id="ytick_1">
     <g id="line2d_6">
      <path d="M 72 351.892852 
L 518.4 351.892852 
" clip-path="url(#pe2566842f5)" style="fill: none; stroke: #ffffff; stroke-width: 0.8; stroke-linecap: round"/>
     </g>
     <g id="text_7">
      <!-- 5 -->
      <g style="fill: #262626" transform="translate(59.439062 355.471758) scale(0.1 -0.1)">
       <defs>
        <path id="ArialMT-35" d="M 266 1200 
L 856 1250 
Q 922 819 1161 601 
Q 1400 384 1738 384 
Q 2144 384 2425 690 
Q 2706 997 2706 1503 
Q 2706 1984 2436 2262 
Q 2166 2541 1728 2541 
Q 1456 2541 1237 2417 
Q 1019 2294 894 2097 
L 366 2166 
L 809 4519 
L 3088 4519 
L 3088 3981 
L 1259 3981 
L 1013 2750 
Q 1425 3038 1878 3038 
Q 2478 3038 2890 2622 
Q 3303 2206 3303 1553 
Q 3303 931 2941 478 
Q 2500 -78 1738 -78 
Q 1113 -78 717 272 
Q 322 622 266 1200 
z
" transform="scale(0.015625)"/>
       </defs>
       <use xlink:href="#ArialMT-35"/>
      </g>
     </g>
    </g>
    <g id="ytick_2">
     <g id="line2d_7">
      <path d="M 72 297.308014 
L 518.4 297.308014 
" clip-path="url(#pe2566842f5)" style="fill: none; stroke: #ffffff; stroke-width: 0.8; stroke-linecap: round"/>
     </g>
     <g id="text_8">
      <!-- 10 -->
      <g style="fill: #262626" transform="translate(53.878125 300.886921) scale(0.1 -0.1)">
       <defs>
        <path id="ArialMT-31" d="M 2384 0 
L 1822 0 
L 1822 3584 
Q 1619 3391 1289 3197 
Q 959 3003 697 2906 
L 697 3450 
Q 1169 3672 1522 3987 
Q 1875 4303 2022 4600 
L 2384 4600 
L 2384 0 
z
" transform="scale(0.015625)"/>
       </defs>
       <use xlink:href="#ArialMT-31"/>
       <use xlink:href="#ArialMT-30" x="55.615234"/>
      </g>
     </g>
    </g>
    <g id="ytick_3">
     <g id="line2d_8">
      <path d="M 72 242.723177 
L 518.4 242.723177 
" clip-path="url(#pe2566842f5)" style="fill: none; stroke: #ffffff; stroke-width: 0.8; stroke-linecap: round"/>
     </g>
     <g id="text_9">
      <!-- 15 -->
      <g style="fill: #262626" transform="translate(53.878125 246.302083) scale(0.1 -0.1)">
       <use xlink:href="#ArialMT-31"/>
       <use xlink:href="#ArialMT-35" x="55.615234"/>
      </g>
     </g>
    </g>
    <g id="ytick_4">
     <g id="line2d_9">
      <path d="M 72 188.138339 
L 518.4 188.138339 
" clip-path="url(#pe2566842f5)" style="fill: none; stroke: #ffffff; stroke-width: 0.8; stroke-linecap: round"/>
     </g>
     <g id="text_10">
      <!-- 20 -->
      <g style="fill: #262626" transform="translate(53.878125 191.717246) scale(0.1 -0.1)">
       <use xlink:href="#ArialMT-32"/>
       <use xlink:href="#ArialMT-30" x="55.615234"/>
      </g>
     </g>
    </g>
    <g id="ytick_5">
     <g id="line2d_10">
      <path d="M 72 133.553502 
L 518.4 133.553502 
" clip-path="url(#pe2566842f5)" style="fill: none; stroke: #ffffff; stroke-width: 0.8; stroke-linecap: round"/>
     </g>
     <g id="text_11">
      <!-- 25 -->
      <g style="fill: #262626" transform="translate(53.878125 137.132408) scale(0.1 -0.1)">
       <use xlink:href="#ArialMT-32"/>
       <use xlink:href="#ArialMT-35" x="55.615234"/>
      </g>
     </g>
    </g>
    <g id="ytick_6">
     <g id="line2d_11">
      <path d="M 72 78.968664 
L 518.4 78.968664 
" clip-path="url(#pe2566842f5)" style="fill: none; stroke: #ffffff; stroke-width: 0.8; stroke-linecap: round"/>
     </g>
     <g id="text_12">
      <!-- 30 -->
      <g style="fill: #262626" transform="translate(53.878125 82.547571) scale(0.1 -0.1)">
       <defs>
        <path id="ArialMT-33" d="M 269 1209 
L 831 1284 
Q 928 806 1161 595 
Q 1394 384 1728 384 
Q 2125 384 2398 659 
Q 2672 934 2672 1341 
Q 2672 1728 2419 1979 
Q 2166 2231 1775 2231 
Q 1616 2231 1378 2169 
L 1441 2663 
Q 1497 2656 1531 2656 
Q 1891 2656 2178 2843 
Q 2466 3031 2466 3422 
Q 2466 3731 2256 3934 
Q 2047 4138 1716 4138 
Q 1388 4138 1169 3931 
Q 950 3725 888 3313 
L 325 3413 
Q 428 3978 793 4289 
Q 1159 4600 1703 4600 
Q 2078 4600 2393 4439 
Q 2709 4278 2876 4000 
Q 3044 3722 3044 3409 
Q 3044 3113 2884 2869 
Q 2725 2625 2413 2481 
Q 2819 2388 3044 2092 
Q 3269 1797 3269 1353 
Q 3269 753 2831 336 
Q 2394 -81 1725 -81 
Q 1122 -81 723 278 
Q 325 638 269 1209 
z
" transform="scale(0.015625)"/>
       </defs>
       <use xlink:href="#ArialMT-33"/>
       <use xlink:href="#ArialMT-30" x="55.615234"/>
      </g>
     </g>
    </g>
    <g id="text_13">
     <!-- (°C) -->
     <g style="fill: #262626" transform="translate(47.773438 227.099844) rotate(-90) scale(0.1 -0.1)">
      <defs>
       <path id="ArialMT-28" d="M 1497 -1347 
Q 1031 -759 709 28 
Q 388 816 388 1659 
Q 388 2403 628 3084 
Q 909 3875 1497 4659 
L 1900 4659 
Q 1522 4009 1400 3731 
Q 1209 3300 1100 2831 
Q 966 2247 966 1656 
Q 966 153 1900 -1347 
L 1497 -1347 
z
" transform="scale(0.015625)"/>
       <path id="ArialMT-b0" d="M 400 3794 
Q 400 4153 654 4406 
Q 909 4659 1266 4659 
Q 1628 4659 1881 4406 
Q 2134 4153 2134 3794 
Q 2134 3434 1879 3179 
Q 1625 2925 1266 2925 
Q 909 2925 654 3178 
Q 400 3431 400 3794 
z
M 741 3794 
Q 741 3575 895 3420 
Q 1050 3266 1269 3266 
Q 1484 3266 1639 3420 
Q 1794 3575 1794 3794 
Q 1794 4013 1639 4167 
Q 1484 4322 1269 4322 
Q 1050 4322 895 4167 
Q 741 4013 741 3794 
z
" transform="scale(0.015625)"/>
       <path id="ArialMT-43" d="M 3763 1606 
L 4369 1453 
Q 4178 706 3683 314 
Q 3188 -78 2472 -78 
Q 1731 -78 1267 223 
Q 803 525 561 1097 
Q 319 1669 319 2325 
Q 319 3041 592 3573 
Q 866 4106 1370 4382 
Q 1875 4659 2481 4659 
Q 3169 4659 3637 4309 
Q 4106 3959 4291 3325 
L 3694 3184 
Q 3534 3684 3231 3912 
Q 2928 4141 2469 4141 
Q 1941 4141 1586 3887 
Q 1231 3634 1087 3207 
Q 944 2781 944 2328 
Q 944 1744 1114 1308 
Q 1284 872 1643 656 
Q 2003 441 2422 441 
Q 2931 441 3284 734 
Q 3638 1028 3763 1606 
z
" transform="scale(0.015625)"/>
       <path id="ArialMT-29" d="M 791 -1347 
L 388 -1347 
Q 1322 153 1322 1656 
Q 1322 2244 1188 2822 
Q 1081 3291 891 3722 
Q 769 4003 388 4659 
L 791 4659 
Q 1378 3875 1659 3084 
Q 1900 2403 1900 1659 
Q 1900 816 1576 28 
Q 1253 -759 791 -1347 
z
" transform="scale(0.015625)"/>
      </defs>
      <use xlink:href="#ArialMT-28"/>
      <use xlink:href="#ArialMT-b0" x="33.300781"/>
      <use xlink:href="#ArialMT-43" x="73.291016"/>
      <use xlink:href="#ArialMT-29" x="145.507812"/>
     </g>
    </g>
   </g>
   <g id="line2d_12">
    <path d="M 92.290909 200.147004 
L 93.278301 164.121011 
L 93.771997 291.849531 
L 94.265693 298.399711 
L 94.75939 290.757834 
L 95.253086 315.866859 
L 95.746782 351.892852 
L 96.240478 366.08491 
L 97.22787 336.609097 
L 97.721566 300.583105 
L 98.708958 268.923899 
L 99.69635 244.90657 
L 100.683743 313.683466 
L 101.177439 268.923899 
L 101.671135 249.273357 
L 102.164831 245.998267 
L 102.658527 219.797545 
L 103.152223 255.823538 
L 103.645919 230.714513 
L 104.139615 262.373718 
L 104.633311 276.565776 
L 105.127007 274.382383 
L 105.620703 252.548448 
L 106.114399 289.666137 
L 107.101792 298.399711 
L 107.595488 297.308014 
L 108.089184 283.115957 
L 108.58288 251.456751 
L 109.076576 272.198989 
L 109.570272 322.41704 
L 110.063968 327.875523 
L 110.557664 291.849531 
L 111.05136 296.216318 
L 111.545056 287.482744 
L 112.038752 219.797545 
L 112.532449 300.583105 
L 113.026145 294.032924 
L 113.519841 271.107292 
L 114.013537 266.740505 
L 114.507233 258.006931 
L 115.000929 223.072635 
L 115.988321 275.474079 
L 116.482017 330.058917 
L 116.975713 345.342671 
L 117.469409 332.24231 
L 117.963106 315.866859 
L 118.456802 315.866859 
L 118.950498 352.984549 
L 119.444194 313.683466 
L 119.93789 307.133285 
L 120.431586 280.932563 
L 120.925282 244.90657 
L 121.418978 236.172996 
L 121.912674 282.02426 
L 122.40637 285.29935 
L 122.900066 264.557112 
L 123.393762 264.557112 
L 123.887459 304.949892 
L 124.381155 306.041588 
L 124.874851 309.316679 
L 125.368547 283.115957 
L 125.862243 267.832202 
L 126.355939 238.35639 
L 126.849635 266.740505 
L 127.343331 314.775162 
L 127.837027 332.24231 
L 128.330723 295.124621 
L 128.824419 297.308014 
L 129.318115 328.96722 
L 130.305508 279.840866 
L 130.799204 289.666137 
L 131.2929 303.858195 
L 131.786596 308.224982 
L 132.280292 347.526065 
L 132.773988 298.399711 
L 133.76138 243.814874 
L 134.255076 243.814874 
L 135.242468 219.797545 
L 135.736165 208.880578 
L 136.229861 208.880578 
L 136.723557 327.875523 
L 137.217253 347.526065 
L 137.710949 336.609097 
L 138.204645 285.29935 
L 138.698341 263.465415 
L 139.192037 309.316679 
L 139.685733 282.02426 
L 140.179429 226.347726 
L 140.673125 188.138339 
L 141.166821 189.230036 
L 141.660518 260.190325 
L 142.154214 265.648809 
L 142.64791 299.491408 
L 143.141606 291.849531 
L 143.635302 267.832202 
L 144.128998 238.35639 
L 145.11639 274.382383 
L 145.610086 253.640144 
L 146.597478 183.771552 
L 147.091175 193.596823 
L 147.584871 196.871913 
L 148.078567 252.548448 
L 148.572263 361.718123 
L 149.065959 366.08491 
L 149.559655 338.792491 
L 150.053351 343.159278 
L 150.547047 250.365054 
L 151.534439 194.68852 
L 152.028135 172.854585 
L 152.521831 191.41343 
L 153.015528 191.41343 
L 153.509224 185.954946 
L 154.00292 302.766498 
L 154.990312 294.032924 
L 155.484008 310.408375 
L 155.977704 300.583105 
L 156.4714 252.548448 
L 156.965096 247.089964 
L 157.458792 236.172996 
L 157.952488 221.980939 
L 158.939881 184.863249 
L 159.433577 203.422094 
L 160.420969 216.522455 
L 160.914665 215.430758 
L 161.408361 249.273357 
L 161.902057 308.224982 
L 162.395753 326.783827 
L 162.889449 302.766498 
L 163.383145 250.365054 
L 163.876841 228.531119 
L 164.370537 195.780217 
L 164.864234 195.780217 
L 165.35793 185.954946 
L 165.851626 193.596823 
L 166.345322 191.41343 
L 166.839018 203.422094 
L 167.332714 157.57083 
L 168.320106 196.871913 
L 168.813802 259.098628 
L 169.307498 252.548448 
L 169.801194 226.347726 
L 170.294891 190.321733 
L 170.788587 178.313069 
L 171.775979 221.980939 
L 172.269675 213.247365 
L 172.763371 207.788881 
L 173.257067 189.230036 
L 173.750763 178.313069 
L 174.244459 194.68852 
L 174.738155 173.946282 
L 175.231851 200.147004 
L 175.725547 197.96361 
L 176.219244 183.771552 
L 176.71294 163.029314 
L 177.206636 169.579495 
L 177.700332 155.387437 
L 178.194028 164.121011 
L 178.687724 169.579495 
L 179.675116 195.780217 
L 180.168812 187.046643 
L 180.662508 153.204043 
L 181.156204 132.461805 
L 181.6499 203.422094 
L 182.143597 215.430758 
L 182.637293 207.788881 
L 183.624685 172.854585 
L 184.118381 180.496462 
L 184.612077 171.762888 
L 185.105773 157.57083 
L 185.599469 146.653863 
L 186.093165 130.278412 
L 187.080557 147.74556 
L 187.574253 140.103682 
L 188.06795 135.736895 
L 188.561646 133.553502 
L 189.549038 152.112347 
L 190.042734 149.928953 
L 190.53643 151.02065 
L 191.030126 147.74556 
L 191.523822 131.370108 
L 192.017518 143.378773 
L 192.511214 151.02065 
L 193.00491 141.195379 
L 193.498607 140.103682 
L 193.992303 146.653863 
L 194.485999 142.287076 
L 194.979695 147.74556 
L 195.473391 116.086354 
L 195.967087 111.719567 
L 196.460783 118.269747 
L 196.954479 166.304404 
L 197.448175 159.754224 
L 197.941871 165.212708 
L 198.435567 151.02065 
L 198.929263 153.204043 
L 199.42296 145.562166 
L 199.916656 142.287076 
L 200.410352 136.828592 
L 200.904048 141.195379 
L 201.397744 119.361444 
L 201.89144 104.07769 
L 202.878832 128.095018 
L 203.372528 128.095018 
L 203.866224 154.29574 
L 204.35992 172.854585 
L 204.853616 151.02065 
L 205.347313 151.02065 
L 205.841009 155.387437 
L 206.334705 156.479134 
L 206.828401 160.845921 
L 207.322097 159.754224 
L 207.815793 146.653863 
L 208.309489 136.828592 
L 208.803185 133.553502 
L 209.296881 135.736895 
L 209.790577 146.653863 
L 210.284273 135.736895 
L 210.777969 136.828592 
L 211.271666 136.828592 
L 211.765362 127.003321 
L 212.752754 166.304404 
L 213.24645 80.060361 
L 213.740146 118.269747 
L 214.233842 120.453141 
L 214.727538 130.278412 
L 215.221234 131.370108 
L 215.71493 143.378773 
L 216.208626 140.103682 
L 216.702322 141.195379 
L 217.196019 149.928953 
L 217.689715 133.553502 
L 218.183411 144.470469 
L 218.677107 168.487798 
L 219.170803 165.212708 
L 220.158195 154.29574 
L 220.651891 141.195379 
L 221.145587 151.02065 
L 221.639283 141.195379 
L 222.132979 142.287076 
L 223.120372 132.461805 
L 224.107764 123.728231 
L 224.60146 121.544838 
L 225.095156 121.544838 
L 225.588852 128.095018 
L 226.082548 128.095018 
L 226.576244 129.186715 
L 227.06994 128.095018 
L 227.563636 129.186715 
L 228.057332 129.186715 
L 228.551029 124.819928 
L 229.044725 127.003321 
L 229.538421 112.811264 
L 230.032117 118.269747 
L 230.525813 121.544838 
L 231.019509 131.370108 
L 231.513205 119.361444 
L 232.006901 119.361444 
L 232.500597 154.29574 
L 232.994293 131.370108 
L 233.487989 127.003321 
L 233.981685 146.653863 
L 234.475382 144.470469 
L 234.969078 135.736895 
L 235.462774 135.736895 
L 235.95647 163.029314 
L 236.450166 145.562166 
L 236.943862 137.920289 
L 237.437558 135.736895 
L 237.931254 145.562166 
L 238.42495 144.470469 
L 238.918646 156.479134 
L 239.412342 184.863249 
L 239.906038 181.588159 
L 240.399735 122.636534 
L 240.893431 149.928953 
L 241.387127 158.662527 
L 241.880823 157.57083 
L 242.374519 165.212708 
L 242.868215 161.937617 
L 243.361911 152.112347 
L 243.855607 148.837256 
L 244.842999 130.278412 
L 245.336695 132.461805 
L 245.830392 151.02065 
L 246.324088 152.112347 
L 246.817784 145.562166 
L 247.31148 144.470469 
L 247.805176 140.103682 
L 248.298872 134.645199 
L 249.286264 151.02065 
L 249.77996 141.195379 
L 250.273656 147.74556 
L 250.767352 146.653863 
L 251.261048 157.57083 
L 251.754745 154.29574 
L 252.248441 163.029314 
L 252.742137 159.754224 
L 253.235833 154.29574 
L 253.729529 160.845921 
L 254.223225 164.121011 
L 254.716921 160.845921 
L 255.210617 156.479134 
L 255.704313 267.832202 
L 256.198009 273.290686 
L 257.185401 179.404765 
L 257.679098 158.662527 
L 258.172794 204.513791 
L 258.66649 213.247365 
L 259.160186 204.513791 
L 259.653882 184.863249 
L 260.147578 151.02065 
L 260.641274 156.479134 
L 261.13497 180.496462 
L 261.628666 195.780217 
L 262.122362 178.313069 
L 262.616058 262.373718 
L 263.109754 271.107292 
L 263.603451 252.548448 
L 264.590843 180.496462 
L 265.084539 284.207653 
L 265.578235 286.391047 
L 266.071931 302.766498 
L 266.565627 266.740505 
L 267.059323 251.456751 
L 267.553019 231.806209 
L 268.046715 197.96361 
L 268.540411 176.129675 
L 269.527804 284.207653 
L 270.0215 272.198989 
L 270.515196 243.814874 
L 271.008892 285.29935 
L 271.502588 362.809819 
L 271.996284 369.36 
L 272.48998 338.792491 
L 272.983676 290.757834 
L 273.477372 300.583105 
L 274.464764 251.456751 
L 274.958461 240.539783 
L 275.452157 204.513791 
L 275.945853 191.41343 
L 276.439549 197.96361 
L 276.933245 237.264693 
L 277.426941 265.648809 
L 278.414333 229.622816 
L 278.908029 224.164332 
L 279.401725 253.640144 
L 279.895421 256.915235 
L 280.389117 217.614152 
L 280.882814 220.889242 
L 281.37651 267.832202 
L 281.870206 285.29935 
L 282.363902 254.731841 
L 282.857598 252.548448 
L 283.351294 233.989603 
L 283.84499 241.63148 
L 284.338686 251.456751 
L 284.832382 235.0813 
L 285.326078 262.373718 
L 285.819774 300.583105 
L 286.31347 315.866859 
L 286.807167 296.216318 
L 287.300863 240.539783 
L 287.794559 250.365054 
L 288.288255 219.797545 
L 288.781951 315.866859 
L 289.769343 352.984549 
L 290.263039 270.015596 
L 290.756735 289.666137 
L 291.250431 319.141949 
L 291.744127 321.325343 
L 292.73152 272.198989 
L 293.225216 236.172996 
L 293.718912 225.256029 
L 294.212608 219.797545 
L 294.706304 229.622816 
L 295.2 275.474079 
L 295.693696 296.216318 
L 296.681088 271.107292 
L 297.174784 272.198989 
L 297.66848 308.224982 
L 298.162177 314.775162 
L 299.149569 262.373718 
L 299.643265 275.474079 
L 300.136961 259.098628 
L 300.630657 262.373718 
L 301.124353 277.657473 
L 301.618049 306.041588 
L 302.111745 262.373718 
L 302.605441 260.190325 
L 303.099137 226.347726 
L 303.592833 200.147004 
L 304.08653 202.330397 
L 304.580226 215.430758 
L 305.073922 266.740505 
L 306.061314 292.941227 
L 306.55501 265.648809 
L 307.048706 286.391047 
L 307.542402 273.290686 
L 308.529794 231.806209 
L 309.02349 244.90657 
L 309.517186 235.0813 
L 310.010883 270.015596 
L 310.504579 286.391047 
L 310.998275 313.683466 
L 311.491971 288.57444 
L 311.985667 297.308014 
L 312.479363 252.548448 
L 312.973059 245.998267 
L 313.960451 361.718123 
L 314.947843 285.29935 
L 315.441539 204.513791 
L 315.935236 213.247365 
L 316.428932 273.290686 
L 316.922628 287.482744 
L 317.416324 296.216318 
L 317.91002 292.941227 
L 318.897412 261.282022 
L 319.391108 228.531119 
L 319.884804 203.422094 
L 320.872196 316.958556 
L 321.365893 330.058917 
L 321.859589 308.224982 
L 322.353285 278.74917 
L 322.846981 237.264693 
L 323.340677 215.430758 
L 323.834373 301.674801 
L 324.328069 336.609097 
L 324.821765 327.875523 
L 325.809157 264.557112 
L 326.302853 219.797545 
L 326.796549 194.68852 
L 327.290246 193.596823 
L 327.783942 273.290686 
L 328.277638 261.282022 
L 328.771334 262.373718 
L 329.758726 214.339061 
L 330.746118 202.330397 
L 331.239814 205.605487 
L 331.73351 199.055307 
L 332.227206 171.762888 
L 332.720902 179.404765 
L 333.214599 199.055307 
L 333.708295 195.780217 
L 334.201991 190.321733 
L 334.695687 196.871913 
L 335.189383 217.614152 
L 335.683079 245.998267 
L 336.176775 248.181661 
L 336.670471 214.339061 
L 337.164167 199.055307 
L 337.657863 169.579495 
L 338.151559 176.129675 
L 338.645255 176.129675 
L 339.138952 143.378773 
L 339.632648 211.063971 
L 340.126344 227.439422 
L 340.62004 171.762888 
L 341.113736 204.513791 
L 341.607432 178.313069 
L 342.101128 158.662527 
L 342.594824 232.897906 
L 343.08852 230.714513 
L 343.582216 219.797545 
L 344.075912 185.954946 
L 344.569608 177.221372 
L 345.063305 154.29574 
L 345.557001 181.588159 
L 346.050697 187.046643 
L 346.544393 190.321733 
L 347.038089 192.505126 
L 347.531785 239.448087 
L 348.025481 275.474079 
L 348.519177 253.640144 
L 349.012873 218.705848 
L 349.506569 166.304404 
L 350.000265 179.404765 
L 350.493962 171.762888 
L 350.987658 152.112347 
L 351.481354 137.920289 
L 352.468746 165.212708 
L 352.962442 151.02065 
L 353.456138 202.330397 
L 353.949834 176.129675 
L 354.937226 159.754224 
L 355.430922 176.129675 
L 355.924618 205.605487 
L 356.418315 177.221372 
L 356.912011 156.479134 
L 357.405707 153.204043 
L 357.899403 178.313069 
L 358.393099 168.487798 
L 358.886795 188.138339 
L 359.874187 199.055307 
L 360.367883 201.2387 
L 360.861579 190.321733 
L 361.355275 183.771552 
L 361.848971 165.212708 
L 362.342668 163.029314 
L 362.836364 147.74556 
L 363.33006 165.212708 
L 363.823756 188.138339 
L 364.811148 156.479134 
L 365.304844 132.461805 
L 365.79854 142.287076 
L 366.292236 167.396101 
L 366.785932 151.02065 
L 367.279628 155.387437 
L 367.773324 175.037978 
L 368.267021 178.313069 
L 368.760717 175.037978 
L 369.254413 145.562166 
L 369.748109 196.871913 
L 370.241805 165.212708 
L 370.735501 184.863249 
L 371.229197 190.321733 
L 372.216589 158.662527 
L 372.710285 149.928953 
L 373.203981 151.02065 
L 373.697678 148.837256 
L 374.191374 144.470469 
L 374.68507 143.378773 
L 375.178766 183.771552 
L 375.672462 154.29574 
L 376.166158 166.304404 
L 376.659854 182.679856 
L 377.15355 176.129675 
L 377.647246 176.129675 
L 378.140942 175.037978 
L 378.634638 160.845921 
L 379.128334 149.928953 
L 379.622031 155.387437 
L 380.115727 175.037978 
L 380.609423 142.287076 
L 381.103119 135.736895 
L 381.596815 134.645199 
L 382.090511 136.828592 
L 382.584207 180.496462 
L 383.077903 176.129675 
L 383.571599 157.57083 
L 384.065295 144.470469 
L 384.558991 158.662527 
L 385.052687 131.370108 
L 385.546384 140.103682 
L 386.04008 133.553502 
L 386.533776 136.828592 
L 387.027472 143.378773 
L 387.521168 136.828592 
L 388.014864 148.837256 
L 388.50856 136.828592 
L 389.002256 129.186715 
L 389.495952 125.911625 
L 389.989648 121.544838 
L 390.483344 129.186715 
L 390.97704 134.645199 
L 391.470737 137.920289 
L 391.964433 132.461805 
L 392.458129 137.920289 
L 392.951825 137.920289 
L 393.445521 130.278412 
L 393.939217 127.003321 
L 394.432913 159.754224 
L 394.926609 156.479134 
L 395.420305 142.287076 
L 395.914001 140.103682 
L 396.407697 145.562166 
L 397.39509 131.370108 
L 397.888786 140.103682 
L 398.382482 173.946282 
L 398.876178 145.562166 
L 399.369874 169.579495 
L 399.86357 176.129675 
L 400.357266 161.937617 
L 400.850962 143.378773 
L 401.344658 180.496462 
L 401.838354 161.937617 
L 402.33205 157.57083 
L 403.319443 141.195379 
L 403.813139 142.287076 
L 404.306835 141.195379 
L 404.800531 141.195379 
L 405.294227 163.029314 
L 405.787923 163.029314 
L 406.281619 159.754224 
L 406.775315 142.287076 
L 407.269011 143.378773 
L 407.762707 151.02065 
L 408.256403 149.928953 
L 408.7501 129.186715 
L 409.243796 137.920289 
L 409.737492 132.461805 
L 410.231188 135.736895 
L 410.724884 142.287076 
L 411.21858 106.261083 
L 411.712276 148.837256 
L 412.205972 142.287076 
L 412.699668 123.728231 
L 413.193364 131.370108 
L 413.68706 133.553502 
L 414.674453 127.003321 
L 415.168149 119.361444 
L 415.661845 66.96 
L 416.155541 134.645199 
L 416.649237 133.553502 
L 417.142933 161.937617 
L 417.636629 152.112347 
L 418.130325 163.029314 
L 418.624021 146.653863 
L 419.117717 146.653863 
L 419.611413 66.96 
L 420.105109 120.453141 
L 420.598806 117.178051 
L 421.092502 136.828592 
L 421.586198 135.736895 
L 422.57359 135.736895 
L 423.067286 137.920289 
L 423.560982 137.920289 
L 424.054678 140.103682 
L 424.548374 134.645199 
L 425.04207 142.287076 
L 425.535766 144.470469 
L 426.029463 145.562166 
L 426.523159 141.195379 
L 427.016855 128.095018 
L 427.510551 129.186715 
L 428.004247 128.095018 
L 428.497943 141.195379 
L 429.485335 139.011986 
L 430.472727 141.195379 
L 430.966423 131.370108 
L 431.460119 149.928953 
L 431.953816 146.653863 
L 432.447512 146.653863 
L 432.941208 148.837256 
L 433.434904 131.370108 
L 433.9286 139.011986 
L 434.422296 133.553502 
L 434.915992 133.553502 
L 435.409688 137.920289 
L 436.39708 125.911625 
L 436.890776 117.178051 
L 437.384472 125.911625 
L 437.878169 140.103682 
L 438.371865 151.02065 
L 438.865561 149.928953 
L 439.359257 140.103682 
L 439.852953 125.911625 
L 440.346649 154.29574 
L 440.840345 163.029314 
L 441.334041 160.845921 
L 441.827737 146.653863 
L 442.815129 171.762888 
L 443.308825 181.588159 
L 443.802522 182.679856 
L 444.296218 173.946282 
L 444.789914 175.037978 
L 445.28361 156.479134 
L 445.777306 161.937617 
L 446.271002 158.662527 
L 446.764698 163.029314 
L 447.75209 156.479134 
L 448.245786 160.845921 
L 448.739482 160.845921 
L 449.233179 167.396101 
L 449.726875 155.387437 
L 450.220571 151.02065 
L 450.714267 154.29574 
L 451.207963 154.29574 
L 452.195355 165.212708 
L 452.689051 155.387437 
L 453.182747 156.479134 
L 453.676443 178.313069 
L 454.170139 192.505126 
L 454.663835 169.579495 
L 455.157532 189.230036 
L 455.651228 201.2387 
L 456.144924 202.330397 
L 457.132316 179.404765 
L 457.626012 173.946282 
L 458.119708 175.037978 
L 459.1071 221.980939 
L 459.600796 196.871913 
L 460.094492 205.605487 
L 460.588188 189.230036 
L 461.081885 196.871913 
L 461.575581 194.68852 
L 462.069277 172.854585 
L 462.562973 175.037978 
L 463.056669 163.029314 
L 463.550365 155.387437 
L 464.044061 201.2387 
L 464.537757 259.098628 
L 465.031453 243.814874 
L 465.525149 270.015596 
L 466.018845 243.814874 
L 466.512541 231.806209 
L 467.499934 187.046643 
L 467.99363 196.871913 
L 468.487326 242.723177 
L 468.981022 230.714513 
L 469.474718 199.055307 
L 469.968414 233.989603 
L 470.46211 242.723177 
L 471.449502 209.972274 
L 471.943198 208.880578 
L 472.436894 192.505126 
L 472.930591 180.496462 
L 473.424287 197.96361 
L 473.917983 239.448087 
L 474.411679 203.422094 
L 474.905375 176.129675 
L 475.399071 189.230036 
L 475.892767 182.679856 
L 476.386463 189.230036 
L 476.880159 261.282022 
L 477.373855 299.491408 
L 478.361248 273.290686 
L 479.34864 338.792491 
L 479.842336 314.775162 
L 480.336032 332.24231 
L 480.829728 340.975884 
L 481.323424 337.700794 
L 482.804512 243.814874 
L 483.298208 273.290686 
L 484.285601 299.491408 
L 484.779297 275.474079 
L 485.272993 237.264693 
L 486.260385 291.849531 
L 486.754081 267.832202 
L 487.247777 220.889242 
L 487.741473 185.954946 
L 488.235169 201.2387 
L 488.728865 212.155668 
L 489.222561 232.897906 
L 489.716257 199.055307 
L 490.209954 208.880578 
L 490.70365 213.247365 
L 491.197346 238.35639 
L 491.691042 250.365054 
L 492.184738 274.382383 
L 492.678434 283.115957 
L 493.17213 288.57444 
L 493.665826 320.233646 
L 494.159522 295.124621 
L 494.653218 302.766498 
L 495.146914 298.399711 
L 495.64061 302.766498 
L 496.134307 196.871913 
L 496.628003 189.230036 
L 497.121699 171.762888 
L 497.615395 169.579495 
L 498.109091 215.430758 
L 498.109091 215.430758 
" clip-path="url(#pe2566842f5)" style="fill: none; stroke: #1f77b4; stroke-width: 1.5; stroke-linecap: round"/>
   </g>
   <g id="line2d_13">
    <path d="M 92.290909 293.651293 
L 93.278301 280.686408 
L 93.771997 278.217538 
L 94.265693 295.013226 
L 94.75939 271.405725 
L 95.253086 264.225304 
L 95.746782 269.995902 
L 96.240478 273.276685 
L 96.734174 270.883837 
L 97.22787 279.75147 
L 97.721566 278.778901 
L 98.215262 267.598409 
L 98.708958 246.573973 
L 99.202654 247.542654 
L 99.69635 247.034815 
L 100.190046 239.982349 
L 100.683743 263.464934 
L 101.177439 276.787395 
L 101.671135 269.667901 
L 102.164831 269.811726 
L 102.658527 270.740827 
L 103.152223 281.96484 
L 103.645919 271.252856 
L 104.139615 276.892225 
L 104.633311 285.345804 
L 105.127007 274.233086 
L 105.620703 270.258498 
L 106.114399 288.889005 
L 106.608096 278.090229 
L 107.101792 287.713973 
L 107.595488 299.93249 
L 108.089184 282.369406 
L 108.58288 255.488095 
L 109.076576 281.818811 
L 109.570272 274.85702 
L 110.063968 274.890001 
L 110.557664 272.405831 
L 111.05136 279.22716 
L 111.545056 269.682555 
L 112.038752 273.541067 
L 112.532449 272.279853 
L 113.026145 292.154169 
L 113.519841 330.208348 
L 114.507233 295.024844 
L 115.000929 293.201562 
L 115.494625 301.099651 
L 115.988321 280.143507 
L 116.482017 278.264864 
L 116.975713 282.228926 
L 117.469409 269.622192 
L 117.963106 252.735339 
L 118.456802 267.244089 
L 118.950498 286.842405 
L 119.444194 292.426557 
L 119.93789 272.206298 
L 120.431586 299.426587 
L 120.925282 306.450009 
L 121.418978 300.852163 
L 121.912674 278.456056 
L 122.40637 264.130583 
L 122.900066 279.614833 
L 123.393762 258.323131 
L 123.887459 280.484813 
L 124.381155 288.467089 
L 124.874851 270.172319 
L 125.368547 284.856871 
L 125.862243 282.674738 
L 126.355939 283.468344 
L 126.849635 292.657977 
L 127.343331 287.167551 
L 127.837027 286.943523 
L 128.330723 292.562892 
L 128.824419 310.928226 
L 129.811812 271.369104 
L 130.799204 254.014812 
L 131.2929 250.251251 
L 131.786596 235.058835 
L 132.280292 239.100163 
L 132.773988 239.227617 
L 133.267684 309.109385 
L 133.76138 323.771915 
L 135.242468 265.573586 
L 135.736165 273.582493 
L 136.229861 264.897228 
L 136.723557 220.545349 
L 137.217253 223.009389 
L 137.710949 230.826343 
L 138.698341 285.293913 
L 139.192037 285.113676 
L 140.179429 278.190964 
L 140.673125 262.919412 
L 141.166821 242.305513 
L 141.660518 270.665848 
L 142.154214 236.71493 
L 142.64791 214.480906 
L 143.141606 241.280329 
L 143.635302 210.342371 
L 144.128998 213.564672 
L 144.622694 214.239983 
L 145.11639 311.952315 
L 145.610086 305.113486 
L 146.103782 290.706066 
L 146.597478 287.725359 
L 147.091175 226.391496 
L 147.584871 206.901414 
L 148.078567 220.681996 
L 148.572263 198.787996 
L 149.065959 202.386805 
L 149.559655 214.826191 
L 150.053351 230.491054 
L 151.040743 272.289308 
L 151.534439 265.148885 
L 152.028135 297.838542 
L 152.521831 292.970034 
L 153.015528 273.407808 
L 153.509224 267.044006 
L 154.496616 225.079335 
L 154.990312 231.079786 
L 155.484008 230.20705 
L 155.977704 227.276543 
L 156.4714 221.944089 
L 156.965096 230.16112 
L 157.458792 235.8978 
L 157.952488 243.250952 
L 158.446184 293.651612 
L 158.939881 299.91283 
L 159.433577 284.514737 
L 159.927273 239.612488 
L 160.420969 211.186898 
L 160.914665 210.459949 
L 161.408361 199.851238 
L 161.902057 193.045927 
L 162.395753 189.519955 
L 162.889449 186.940131 
L 163.876841 191.241636 
L 164.370537 217.394813 
L 164.864234 229.674796 
L 165.35793 234.747466 
L 165.851626 215.894821 
L 167.82641 172.465061 
L 168.320106 192.814954 
L 168.813802 189.978263 
L 169.307498 194.560976 
L 169.801194 203.228354 
L 170.294891 194.255872 
L 170.788587 176.661578 
L 171.282283 173.873883 
L 172.269675 190.262298 
L 172.763371 194.747781 
L 173.257067 168.11443 
L 173.750763 158.715317 
L 174.244459 161.62938 
L 174.738155 168.011041 
L 175.231851 172.455938 
L 175.725547 177.939221 
L 176.219244 177.745744 
L 176.71294 178.592219 
L 177.206636 153.094947 
L 177.700332 153.763969 
L 178.194028 216.308835 
L 178.687724 219.966434 
L 179.675116 184.992804 
L 180.168812 180.841979 
L 180.662508 178.595918 
L 181.156204 167.758705 
L 181.6499 162.788979 
L 182.143597 156.69258 
L 182.637293 160.363362 
L 183.624685 149.041816 
L 184.118381 153.945285 
L 185.105773 153.070256 
L 185.599469 150.51755 
L 186.093165 155.369118 
L 186.586861 154.163092 
L 187.080557 143.792333 
L 187.574253 141.086558 
L 188.06795 150.329434 
L 188.561646 146.825797 
L 189.055342 150.073222 
L 189.549038 146.638737 
L 190.53643 145.102215 
L 191.030126 142.896669 
L 191.523822 135.645831 
L 192.017518 135.026304 
L 192.511214 135.331227 
L 193.00491 135.271593 
L 193.498607 143.801176 
L 193.992303 159.694259 
L 194.485999 153.523453 
L 194.979695 145.948915 
L 195.473391 143.616695 
L 196.460783 140.640789 
L 196.954479 141.928671 
L 197.448175 140.153755 
L 198.435567 135.248807 
L 198.929263 141.248764 
L 199.42296 141.26706 
L 199.916656 137.850383 
L 200.410352 141.059699 
L 200.904048 162.148199 
L 201.89144 146.401585 
L 202.385136 146.175699 
L 202.878832 144.190035 
L 204.35992 148.804776 
L 205.347313 143.439938 
L 205.841009 141.941884 
L 206.334705 140.887858 
L 206.828401 142.084063 
L 207.322097 135.673705 
L 207.815793 135.034822 
L 208.309489 134.616726 
L 208.803185 142.601223 
L 209.296881 144.544466 
L 209.790577 134.293808 
L 210.284273 135.114714 
L 210.777969 134.982816 
L 211.271666 137.120421 
L 211.765362 137.301957 
L 212.752754 141.433746 
L 213.24645 137.927117 
L 213.740146 136.579026 
L 214.233842 139.844105 
L 214.727538 148.413826 
L 215.221234 162.807526 
L 215.71493 153.034969 
L 216.208626 147.579803 
L 216.702322 146.873158 
L 217.196019 142.058892 
L 217.689715 145.061537 
L 218.183411 140.402284 
L 218.677107 141.16259 
L 219.664499 135.443285 
L 220.158195 136.89311 
L 220.651891 135.307949 
L 221.145587 134.84748 
L 221.639283 134.941209 
L 222.132979 135.239714 
L 222.626676 134.941209 
L 223.120372 135.490014 
L 223.614068 135.483777 
L 224.107764 134.691944 
L 224.60146 134.236136 
L 225.095156 139.05533 
L 225.588852 132.723934 
L 226.082548 136.010651 
L 226.576244 136.093928 
L 227.06994 135.308695 
L 227.563636 134.783793 
L 228.057332 135.473323 
L 228.551029 135.891663 
L 229.044725 141.068036 
L 229.538421 136.532343 
L 230.032117 142.569449 
L 230.525813 146.390163 
L 231.019509 142.5557 
L 231.513205 135.857663 
L 232.006901 141.537035 
L 232.500597 149.171285 
L 232.994293 144.890598 
L 233.487989 142.058892 
L 234.475382 151.069919 
L 234.969078 145.339082 
L 235.462774 153.777919 
L 235.95647 194.192205 
L 236.450166 192.624355 
L 236.943862 135.34303 
L 237.437558 150.403653 
L 237.931254 159.515909 
L 238.42495 159.529658 
L 238.918646 154.455131 
L 239.412342 156.507212 
L 239.906038 157.332127 
L 240.399735 145.988018 
L 240.893431 152.082451 
L 241.387127 149.27275 
L 241.880823 156.620519 
L 242.374519 157.391907 
L 242.868215 157.551887 
L 243.361911 156.226156 
L 244.349303 152.180218 
L 244.842999 150.191887 
L 245.336695 154.843306 
L 245.830392 154.420088 
L 246.324088 154.929463 
L 246.817784 154.929463 
L 247.31148 154.670662 
L 247.805176 154.116555 
L 248.298872 152.645799 
L 248.792568 156.439349 
L 249.286264 146.817622 
L 249.77996 146.586736 
L 250.273656 155.28649 
L 250.767352 160.420745 
L 251.261048 155.865241 
L 251.754745 154.541457 
L 252.248441 181.07513 
L 252.742137 241.465536 
L 253.235833 196.689945 
L 253.729529 162.22254 
L 254.223225 147.605821 
L 254.716921 171.468839 
L 255.704313 186.652979 
L 256.198009 165.060166 
L 256.691705 175.691406 
L 257.185401 159.653657 
L 257.679098 184.591145 
L 258.172794 185.202939 
L 258.66649 184.23783 
L 259.160186 220.570198 
L 259.653882 238.480553 
L 260.147578 207.065923 
L 260.641274 193.66561 
L 261.13497 192.737939 
L 262.122362 249.792826 
L 262.616058 241.151839 
L 263.109754 224.324478 
L 263.603451 235.54698 
L 264.097147 217.224074 
L 264.590843 215.765976 
L 265.084539 205.368846 
L 265.578235 203.184672 
L 266.071931 254.963154 
L 266.565627 244.003156 
L 267.059323 245.054122 
L 267.553019 238.846091 
L 268.046715 303.874302 
L 268.540411 314.852869 
L 269.034107 276.321304 
L 269.527804 263.509066 
L 270.0215 255.75776 
L 271.008892 246.350367 
L 271.502588 239.437185 
L 271.996284 246.117258 
L 272.48998 229.562673 
L 272.983676 222.048874 
L 273.477372 240.628691 
L 273.971068 253.518831 
L 274.464764 249.505103 
L 274.958461 248.41119 
L 275.452157 250.09757 
L 275.945853 249.809202 
L 276.439549 241.656462 
L 276.933245 216.131783 
L 277.920637 267.568928 
L 278.414333 255.91781 
L 278.908029 249.976997 
L 279.401725 245.790399 
L 279.895421 235.198455 
L 280.389117 242.883558 
L 280.882814 267.464228 
L 281.37651 227.828324 
L 281.870206 252.237765 
L 282.363902 283.556561 
L 282.857598 275.328922 
L 283.351294 262.317488 
L 283.84499 231.131873 
L 284.338686 229.946277 
L 284.832382 223.78446 
L 285.326078 295.224561 
L 286.31347 289.941645 
L 286.807167 277.516436 
L 287.300863 285.56214 
L 287.794559 275.974746 
L 288.288255 282.888786 
L 289.275647 267.765292 
L 289.769343 271.10196 
L 290.263039 258.985472 
L 290.756735 243.81152 
L 291.250431 270.447051 
L 291.744127 272.732687 
L 292.237823 291.50544 
L 292.73152 293.034764 
L 293.225216 284.000495 
L 293.718912 280.314019 
L 294.706304 271.346675 
L 295.2 247.679447 
L 295.693696 252.71633 
L 296.187392 273.421289 
L 297.174784 273.032036 
L 297.66848 256.640375 
L 298.162177 280.162174 
L 298.655873 255.388344 
L 299.149569 273.050881 
L 299.643265 255.848094 
L 300.630657 241.923478 
L 301.124353 238.473156 
L 302.111745 279.160436 
L 302.605441 289.885166 
L 303.099137 294.714076 
L 303.592833 265.730515 
L 304.08653 256.861194 
L 304.580226 280.509095 
L 305.073922 238.594242 
L 306.061314 244.607302 
L 306.55501 256.812544 
L 307.048706 286.185699 
L 307.542402 282.542184 
L 308.036098 264.135483 
L 308.529794 277.137788 
L 309.02349 285.518643 
L 309.517186 269.58595 
L 310.010883 297.821905 
L 310.504579 292.750796 
L 310.998275 286.529329 
L 311.491971 252.014901 
L 311.985667 230.806631 
L 312.479363 230.233381 
L 312.973059 282.315073 
L 313.466755 302.352653 
L 313.960451 288.836529 
L 314.454147 287.839537 
L 314.947843 276.174383 
L 315.441539 272.600717 
L 315.935236 234.645261 
L 316.428932 224.617527 
L 316.922628 257.482777 
L 317.91002 297.480395 
L 318.403716 281.05275 
L 318.897412 277.997721 
L 319.391108 244.012235 
L 319.884804 232.854664 
L 320.3785 276.25688 
L 320.872196 280.938685 
L 321.365893 270.124428 
L 321.859589 262.552581 
L 322.353285 238.943318 
L 322.846981 206.710309 
L 323.340677 229.151768 
L 323.834373 215.607464 
L 324.328069 234.176142 
L 324.821765 236.302751 
L 325.315461 244.800627 
L 325.809157 245.286284 
L 326.302853 236.242343 
L 326.796549 233.026939 
L 327.290246 217.721519 
L 327.783942 210.766707 
L 328.277638 191.131829 
L 328.771334 190.288536 
L 329.26503 200.071334 
L 329.758726 217.370399 
L 330.252422 206.554589 
L 330.746118 204.847403 
L 331.239814 190.873417 
L 331.73351 211.921846 
L 332.227206 247.974965 
L 332.720902 238.008953 
L 333.214599 205.633192 
L 334.201991 169.99312 
L 334.695687 209.847165 
L 335.189383 197.312289 
L 335.683079 180.218104 
L 336.176775 213.22226 
L 336.670471 203.036968 
L 337.164167 190.348204 
L 337.657863 192.368525 
L 338.151559 175.809131 
L 338.645255 181.203898 
L 339.138952 226.467621 
L 339.632648 228.964493 
L 340.126344 217.5898 
L 340.62004 195.218255 
L 341.113736 181.449695 
L 341.607432 162.945424 
L 342.101128 190.421647 
L 342.594824 191.143202 
L 343.08852 166.79902 
L 343.582216 165.202116 
L 344.075912 217.691625 
L 344.569608 253.338143 
L 345.063305 250.154914 
L 345.557001 190.376525 
L 346.050697 186.776704 
L 346.544393 164.416206 
L 347.038089 160.954355 
L 347.531785 166.701141 
L 348.519177 152.851947 
L 349.012873 154.828528 
L 349.506569 160.011152 
L 350.000265 202.435049 
L 350.493962 168.203441 
L 351.481354 153.482272 
L 351.97505 169.836539 
L 352.468746 159.841958 
L 352.962442 163.735476 
L 353.456138 158.056082 
L 353.949834 150.268614 
L 354.44353 155.804624 
L 354.937226 157.942611 
L 355.430922 162.896585 
L 355.924618 172.475156 
L 356.418315 197.829329 
L 356.912011 197.745704 
L 357.405707 184.563452 
L 357.899403 185.400191 
L 358.393099 165.077373 
L 358.886795 164.865889 
L 359.380491 159.399842 
L 359.874187 162.359648 
L 360.367883 162.737056 
L 360.861579 161.555692 
L 361.355275 152.989559 
L 361.848971 152.140759 
L 362.342668 156.228156 
L 362.836364 152.882999 
L 363.33006 152.378691 
L 363.823756 163.593555 
L 364.317452 159.68235 
L 364.811148 164.759279 
L 365.79854 146.698324 
L 366.292236 167.185912 
L 366.785932 166.468445 
L 367.279628 165.168736 
L 367.773324 169.353726 
L 368.267021 168.358665 
L 368.760717 159.565342 
L 369.254413 155.11826 
L 369.748109 158.666451 
L 370.241805 149.850294 
L 370.735501 151.633618 
L 371.229197 145.834047 
L 371.722893 148.191922 
L 372.216589 158.008223 
L 372.710285 163.338466 
L 373.203981 160.634389 
L 373.697678 161.069167 
L 374.191374 156.527659 
L 374.68507 157.734335 
L 375.178766 155.986339 
L 375.672462 153.306974 
L 376.166158 152.212382 
L 376.659854 159.749265 
L 377.15355 152.744252 
L 377.647246 149.428221 
L 378.140942 147.679994 
L 378.634638 144.278522 
L 379.622031 160.522585 
L 380.115727 161.764334 
L 380.609423 161.785894 
L 381.103119 162.241315 
L 381.596815 142.921754 
L 382.090511 154.529772 
L 382.584207 152.183434 
L 383.077903 150.576633 
L 383.571599 148.026189 
L 384.065295 139.822527 
L 384.558991 141.250776 
L 385.052687 144.507644 
L 385.546384 141.180538 
L 386.04008 151.951272 
L 386.533776 136.298017 
L 387.027472 135.375779 
L 387.521168 135.815316 
L 388.014864 134.972912 
L 388.50856 129.086398 
L 389.002256 134.905686 
L 389.495952 147.798475 
L 389.989648 137.120157 
L 390.483344 141.999914 
L 390.97704 154.754102 
L 391.470737 159.941208 
L 391.964433 146.229727 
L 392.458129 147.480322 
L 392.951825 145.713972 
L 393.939217 136.334059 
L 394.926609 156.036437 
L 395.420305 162.978191 
L 395.914001 163.70328 
L 396.407697 163.172829 
L 396.901393 162.406844 
L 397.39509 153.917355 
L 397.888786 155.317021 
L 398.382482 155.252699 
L 398.876178 149.506232 
L 399.86357 153.39123 
L 400.357266 153.863289 
L 400.850962 149.323279 
L 401.344658 150.18109 
L 401.838354 154.388945 
L 402.33205 154.145895 
L 403.319443 145.815729 
L 403.813139 147.47407 
L 404.306835 146.922499 
L 405.294227 139.330847 
L 405.787923 144.152743 
L 406.281619 141.684041 
L 406.775315 134.756122 
L 407.269011 138.099915 
L 407.762707 138.62488 
L 408.256403 145.747128 
L 408.7501 142.327778 
L 409.243796 139.773269 
L 409.737492 138.393567 
L 410.231188 139.660693 
L 410.724884 138.391167 
L 411.21858 135.775766 
L 411.712276 147.709024 
L 412.205972 136.406057 
L 412.699668 140.331013 
L 413.193364 156.368449 
L 413.68706 165.295951 
L 414.180756 162.121225 
L 414.674453 156.193183 
L 415.168149 160.557987 
L 415.661845 158.354882 
L 416.155541 140.128155 
L 416.649237 128.417345 
L 417.142933 138.224804 
L 417.636629 141.577659 
L 418.130325 137.420019 
L 418.624021 145.1899 
L 419.117717 145.680509 
L 419.611413 138.269597 
L 420.105109 142.592461 
L 420.598806 145.210117 
L 421.092502 142.035669 
L 421.586198 142.090885 
L 422.079894 142.270706 
L 422.57359 144.287081 
L 423.067286 136.670336 
L 424.054678 136.989314 
L 424.548374 136.463178 
L 425.04207 140.067834 
L 425.535766 142.487072 
L 426.523159 141.946142 
L 427.016855 129.949674 
L 427.510551 137.998194 
L 428.004247 140.236311 
L 429.485335 155.232734 
L 429.979031 130.934749 
L 430.472727 138.445161 
L 430.966423 130.991445 
L 431.460119 144.807347 
L 431.953816 130.569925 
L 432.447512 135.007155 
L 432.941208 132.232981 
L 433.434904 135.93728 
L 433.9286 126.923203 
L 434.422296 141.264126 
L 434.915992 152.061876 
L 435.409688 148.43273 
L 435.903384 147.353861 
L 436.39708 142.537575 
L 436.890776 145.124581 
L 437.384472 158.061359 
L 437.878169 154.91603 
L 438.371865 146.317431 
L 438.865561 159.53916 
L 439.359257 162.694556 
L 439.852953 183.44288 
L 440.346649 162.694556 
L 440.840345 163.769793 
L 441.827737 152.706459 
L 442.321433 158.296032 
L 442.815129 154.520002 
L 443.308825 153.770548 
L 443.802522 160.844691 
L 444.296218 158.976989 
L 444.789914 161.060162 
L 445.28361 158.636041 
L 445.777306 155.56559 
L 446.271002 153.651472 
L 446.764698 152.419746 
L 447.258394 155.400295 
L 447.75209 155.22607 
L 448.245786 155.380514 
L 449.233179 156.234662 
L 449.726875 154.605227 
L 450.220571 164.013642 
L 450.714267 165.641162 
L 451.207963 165.643143 
L 451.701659 170.672304 
L 452.195355 164.933159 
L 452.689051 166.787531 
L 453.182747 174.865779 
L 453.676443 169.376762 
L 454.170139 167.677835 
L 454.663835 169.44274 
L 455.157532 178.895399 
L 455.651228 209.808942 
L 456.144924 206.41427 
L 456.63862 190.437336 
L 457.132316 195.697821 
L 457.626012 189.805324 
L 458.613404 165.325001 
L 459.1071 166.145713 
L 459.600796 170.009937 
L 460.094492 169.952086 
L 460.588188 190.458516 
L 461.081885 236.776915 
L 461.575581 221.879374 
L 462.069277 224.527396 
L 462.562973 199.873362 
L 463.056669 199.823135 
L 463.550365 205.380359 
L 464.044061 195.522956 
L 464.537757 204.909786 
L 465.031453 225.202242 
L 465.525149 222.167329 
L 466.018845 201.17361 
L 466.512541 230.393099 
L 467.006238 238.301309 
L 467.499934 238.346625 
L 467.99363 221.20047 
L 468.487326 224.377634 
L 468.981022 205.107755 
L 469.474718 199.96635 
L 469.968414 203.74669 
L 470.46211 201.068245 
L 470.955806 200.984581 
L 471.449502 204.726924 
L 471.943198 200.148002 
L 472.436894 194.421286 
L 472.930591 193.899374 
L 473.424287 239.779697 
L 473.917983 267.653113 
L 474.411679 247.042421 
L 475.399071 281.623701 
L 475.892767 278.393198 
L 476.386463 288.099099 
L 476.880159 285.37679 
L 477.373855 310.543697 
L 477.867551 289.303569 
L 478.361248 276.795194 
L 478.854944 274.059998 
L 479.34864 251.197719 
L 479.842336 267.658322 
L 480.336032 279.168768 
L 480.829728 271.397331 
L 481.323424 272.935682 
L 481.81712 238.929756 
L 482.804512 283.94055 
L 483.298208 257.870133 
L 483.791904 245.868907 
L 484.285601 242.051411 
L 484.779297 249.002215 
L 485.272993 259.925333 
L 485.766689 262.425655 
L 486.260385 248.278217 
L 486.754081 261.66924 
L 487.247777 265.765783 
L 487.741473 231.814914 
L 488.728865 270.988622 
L 489.222561 276.02318 
L 489.716257 300.069137 
L 490.209954 298.249577 
L 490.70365 301.57136 
L 491.197346 259.991318 
L 491.691042 310.870869 
L 492.184738 283.07381 
L 492.678434 212.102779 
L 493.17213 211.750473 
L 493.665826 196.518615 
L 494.159522 233.655396 
L 494.159522 233.655396 
" clip-path="url(#pe2566842f5)" style="fill: none; stroke: #ff7f0e; stroke-width: 1.5; stroke-linecap: round"/>
   </g>
   <g id="patch_3">
    <path d="M 72 384.48 
L 72 51.84 
" style="fill: none; stroke: #ffffff; stroke-width: 0.8; stroke-linejoin: miter; stroke-linecap: square"/>
   </g>
   <g id="patch_4">
    <path d="M 518.4 384.48 
L 518.4 51.84 
" style="fill: none; stroke: #ffffff; stroke-width: 0.8; stroke-linejoin: miter; stroke-linecap: square"/>
   </g>
   <g id="patch_5">
    <path d="M 72 384.48 
L 518.4 384.48 
" style="fill: none; stroke: #ffffff; stroke-width: 0.8; stroke-linejoin: miter; stroke-linecap: square"/>
   </g>
   <g id="patch_6">
    <path d="M 72 51.84 
L 518.4 51.84 
" style="fill: none; stroke: #ffffff; stroke-width: 0.8; stroke-linejoin: miter; stroke-linecap: square"/>
   </g>
   <g id="text_14">
    <!-- Minimum Temperature Prediction 60 Days Ahead -->
    <g style="fill: #262626" transform="translate(164.920312 45.84) scale(0.12 -0.12)">
     <defs>
      <path id="ArialMT-4d" d="M 475 0 
L 475 4581 
L 1388 4581 
L 2472 1338 
Q 2622 884 2691 659 
Q 2769 909 2934 1394 
L 4031 4581 
L 4847 4581 
L 4847 0 
L 4263 0 
L 4263 3834 
L 2931 0 
L 2384 0 
L 1059 3900 
L 1059 0 
L 475 0 
z
" transform="scale(0.015625)"/>
      <path id="ArialMT-69" d="M 425 3934 
L 425 4581 
L 988 4581 
L 988 3934 
L 425 3934 
z
M 425 0 
L 425 3319 
L 988 3319 
L 988 0 
L 425 0 
z
" transform="scale(0.015625)"/>
      <path id="ArialMT-6e" d="M 422 0 
L 422 3319 
L 928 3319 
L 928 2847 
Q 1294 3394 1984 3394 
Q 2284 3394 2536 3286 
Q 2788 3178 2913 3003 
Q 3038 2828 3088 2588 
Q 3119 2431 3119 2041 
L 3119 0 
L 2556 0 
L 2556 2019 
Q 2556 2363 2490 2533 
Q 2425 2703 2258 2804 
Q 2091 2906 1866 2906 
Q 1506 2906 1245 2678 
Q 984 2450 984 1813 
L 984 0 
L 422 0 
z
" transform="scale(0.015625)"/>
      <path id="ArialMT-6d" d="M 422 0 
L 422 3319 
L 925 3319 
L 925 2853 
Q 1081 3097 1340 3245 
Q 1600 3394 1931 3394 
Q 2300 3394 2536 3241 
Q 2772 3088 2869 2813 
Q 3263 3394 3894 3394 
Q 4388 3394 4653 3120 
Q 4919 2847 4919 2278 
L 4919 0 
L 4359 0 
L 4359 2091 
Q 4359 2428 4304 2576 
Q 4250 2725 4106 2815 
Q 3963 2906 3769 2906 
Q 3419 2906 3187 2673 
Q 2956 2441 2956 1928 
L 2956 0 
L 2394 0 
L 2394 2156 
Q 2394 2531 2256 2718 
Q 2119 2906 1806 2906 
Q 1569 2906 1367 2781 
Q 1166 2656 1075 2415 
Q 984 2175 984 1722 
L 984 0 
L 422 0 
z
" transform="scale(0.015625)"/>
      <path id="ArialMT-75" d="M 2597 0 
L 2597 488 
Q 2209 -75 1544 -75 
Q 1250 -75 995 37 
Q 741 150 617 320 
Q 494 491 444 738 
Q 409 903 409 1263 
L 409 3319 
L 972 3319 
L 972 1478 
Q 972 1038 1006 884 
Q 1059 663 1231 536 
Q 1403 409 1656 409 
Q 1909 409 2131 539 
Q 2353 669 2445 892 
Q 2538 1116 2538 1541 
L 2538 3319 
L 3100 3319 
L 3100 0 
L 2597 0 
z
" transform="scale(0.015625)"/>
      <path id="ArialMT-20" transform="scale(0.015625)"/>
      <path id="ArialMT-54" d="M 1659 0 
L 1659 4041 
L 150 4041 
L 150 4581 
L 3781 4581 
L 3781 4041 
L 2266 4041 
L 2266 0 
L 1659 0 
z
" transform="scale(0.015625)"/>
      <path id="ArialMT-65" d="M 2694 1069 
L 3275 997 
Q 3138 488 2766 206 
Q 2394 -75 1816 -75 
Q 1088 -75 661 373 
Q 234 822 234 1631 
Q 234 2469 665 2931 
Q 1097 3394 1784 3394 
Q 2450 3394 2872 2941 
Q 3294 2488 3294 1666 
Q 3294 1616 3291 1516 
L 816 1516 
Q 847 969 1125 678 
Q 1403 388 1819 388 
Q 2128 388 2347 550 
Q 2566 713 2694 1069 
z
M 847 1978 
L 2700 1978 
Q 2663 2397 2488 2606 
Q 2219 2931 1791 2931 
Q 1403 2931 1139 2672 
Q 875 2413 847 1978 
z
" transform="scale(0.015625)"/>
      <path id="ArialMT-70" d="M 422 -1272 
L 422 3319 
L 934 3319 
L 934 2888 
Q 1116 3141 1344 3267 
Q 1572 3394 1897 3394 
Q 2322 3394 2647 3175 
Q 2972 2956 3137 2557 
Q 3303 2159 3303 1684 
Q 3303 1175 3120 767 
Q 2938 359 2589 142 
Q 2241 -75 1856 -75 
Q 1575 -75 1351 44 
Q 1128 163 984 344 
L 984 -1272 
L 422 -1272 
z
M 931 1641 
Q 931 1000 1190 694 
Q 1450 388 1819 388 
Q 2194 388 2461 705 
Q 2728 1022 2728 1688 
Q 2728 2322 2467 2637 
Q 2206 2953 1844 2953 
Q 1484 2953 1207 2617 
Q 931 2281 931 1641 
z
" transform="scale(0.015625)"/>
      <path id="ArialMT-72" d="M 416 0 
L 416 3319 
L 922 3319 
L 922 2816 
Q 1116 3169 1280 3281 
Q 1444 3394 1641 3394 
Q 1925 3394 2219 3213 
L 2025 2691 
Q 1819 2813 1613 2813 
Q 1428 2813 1281 2702 
Q 1134 2591 1072 2394 
Q 978 2094 978 1738 
L 978 0 
L 416 0 
z
" transform="scale(0.015625)"/>
      <path id="ArialMT-74" d="M 1650 503 
L 1731 6 
Q 1494 -44 1306 -44 
Q 1000 -44 831 53 
Q 663 150 594 308 
Q 525 466 525 972 
L 525 2881 
L 113 2881 
L 113 3319 
L 525 3319 
L 525 4141 
L 1084 4478 
L 1084 3319 
L 1650 3319 
L 1650 2881 
L 1084 2881 
L 1084 941 
Q 1084 700 1114 631 
Q 1144 563 1211 522 
Q 1278 481 1403 481 
Q 1497 481 1650 503 
z
" transform="scale(0.015625)"/>
      <path id="ArialMT-50" d="M 494 0 
L 494 4581 
L 2222 4581 
Q 2678 4581 2919 4538 
Q 3256 4481 3484 4323 
Q 3713 4166 3852 3881 
Q 3991 3597 3991 3256 
Q 3991 2672 3619 2267 
Q 3247 1863 2275 1863 
L 1100 1863 
L 1100 0 
L 494 0 
z
M 1100 2403 
L 2284 2403 
Q 2872 2403 3119 2622 
Q 3366 2841 3366 3238 
Q 3366 3525 3220 3729 
Q 3075 3934 2838 4000 
Q 2684 4041 2272 4041 
L 1100 4041 
L 1100 2403 
z
" transform="scale(0.015625)"/>
      <path id="ArialMT-64" d="M 2575 0 
L 2575 419 
Q 2259 -75 1647 -75 
Q 1250 -75 917 144 
Q 584 363 401 755 
Q 219 1147 219 1656 
Q 219 2153 384 2558 
Q 550 2963 881 3178 
Q 1213 3394 1622 3394 
Q 1922 3394 2156 3267 
Q 2391 3141 2538 2938 
L 2538 4581 
L 3097 4581 
L 3097 0 
L 2575 0 
z
M 797 1656 
Q 797 1019 1065 703 
Q 1334 388 1700 388 
Q 2069 388 2326 689 
Q 2584 991 2584 1609 
Q 2584 2291 2321 2609 
Q 2059 2928 1675 2928 
Q 1300 2928 1048 2622 
Q 797 2316 797 1656 
z
" transform="scale(0.015625)"/>
      <path id="ArialMT-63" d="M 2588 1216 
L 3141 1144 
Q 3050 572 2676 248 
Q 2303 -75 1759 -75 
Q 1078 -75 664 370 
Q 250 816 250 1647 
Q 250 2184 428 2587 
Q 606 2991 970 3192 
Q 1334 3394 1763 3394 
Q 2303 3394 2647 3120 
Q 2991 2847 3088 2344 
L 2541 2259 
Q 2463 2594 2264 2762 
Q 2066 2931 1784 2931 
Q 1359 2931 1093 2626 
Q 828 2322 828 1663 
Q 828 994 1084 691 
Q 1341 388 1753 388 
Q 2084 388 2306 591 
Q 2528 794 2588 1216 
z
" transform="scale(0.015625)"/>
      <path id="ArialMT-6f" d="M 213 1659 
Q 213 2581 725 3025 
Q 1153 3394 1769 3394 
Q 2453 3394 2887 2945 
Q 3322 2497 3322 1706 
Q 3322 1066 3130 698 
Q 2938 331 2570 128 
Q 2203 -75 1769 -75 
Q 1072 -75 642 372 
Q 213 819 213 1659 
z
M 791 1659 
Q 791 1022 1069 705 
Q 1347 388 1769 388 
Q 2188 388 2466 706 
Q 2744 1025 2744 1678 
Q 2744 2294 2464 2611 
Q 2184 2928 1769 2928 
Q 1347 2928 1069 2612 
Q 791 2297 791 1659 
z
" transform="scale(0.015625)"/>
      <path id="ArialMT-41" d="M -9 0 
L 1750 4581 
L 2403 4581 
L 4278 0 
L 3588 0 
L 3053 1388 
L 1138 1388 
L 634 0 
L -9 0 
z
M 1313 1881 
L 2866 1881 
L 2388 3150 
Q 2169 3728 2063 4100 
Q 1975 3659 1816 3225 
L 1313 1881 
z
" transform="scale(0.015625)"/>
      <path id="ArialMT-68" d="M 422 0 
L 422 4581 
L 984 4581 
L 984 2938 
Q 1378 3394 1978 3394 
Q 2347 3394 2619 3248 
Q 2891 3103 3008 2847 
Q 3125 2591 3125 2103 
L 3125 0 
L 2563 0 
L 2563 2103 
Q 2563 2525 2380 2717 
Q 2197 2909 1863 2909 
Q 1613 2909 1392 2779 
Q 1172 2650 1078 2428 
Q 984 2206 984 1816 
L 984 0 
L 422 0 
z
" transform="scale(0.015625)"/>
     </defs>
     <use xlink:href="#ArialMT-4d"/>
     <use xlink:href="#ArialMT-69" x="83.300781"/>
     <use xlink:href="#ArialMT-6e" x="105.517578"/>
     <use xlink:href="#ArialMT-69" x="161.132812"/>
     <use xlink:href="#ArialMT-6d" x="183.349609"/>
     <use xlink:href="#ArialMT-75" x="266.650391"/>
     <use xlink:href="#ArialMT-6d" x="322.265625"/>
     <use xlink:href="#ArialMT-20" x="405.566406"/>
     <use xlink:href="#ArialMT-54" x="431.599609"/>
     <use xlink:href="#ArialMT-65" x="481.558594"/>
     <use xlink:href="#ArialMT-6d" x="537.173828"/>
     <use xlink:href="#ArialMT-70" x="620.474609"/>
     <use xlink:href="#ArialMT-65" x="676.089844"/>
     <use xlink:href="#ArialMT-72" x="731.705078"/>
     <use xlink:href="#ArialMT-61" x="765.005859"/>
     <use xlink:href="#ArialMT-74" x="820.621094"/>
     <use xlink:href="#ArialMT-75" x="848.404297"/>
     <use xlink:href="#ArialMT-72" x="904.019531"/>
     <use xlink:href="#ArialMT-65" x="937.320312"/>
     <use xlink:href="#ArialMT-20" x="992.935547"/>
     <use xlink:href="#ArialMT-50" x="1020.71875"/>
     <use xlink:href="#ArialMT-72" x="1087.417969"/>
     <use xlink:href="#ArialMT-65" x="1120.71875"/>
     <use xlink:href="#ArialMT-64" x="1176.333984"/>
     <use xlink:href="#ArialMT-69" x="1231.949219"/>
     <use xlink:href="#ArialMT-63" x="1254.166016"/>
     <use xlink:href="#ArialMT-74" x="1304.166016"/>
     <use xlink:href="#ArialMT-69" x="1331.949219"/>
     <use xlink:href="#ArialMT-6f" x="1354.166016"/>
     <use xlink:href="#ArialMT-6e" x="1409.78125"/>
     <use xlink:href="#ArialMT-20" x="1465.396484"/>
     <use xlink:href="#ArialMT-36" x="1493.179688"/>
     <use xlink:href="#ArialMT-30" x="1548.794922"/>
     <use xlink:href="#ArialMT-20" x="1604.410156"/>
     <use xlink:href="#ArialMT-44" x="1632.193359"/>
     <use xlink:href="#ArialMT-61" x="1704.410156"/>
     <use xlink:href="#ArialMT-79" x="1760.025391"/>
     <use xlink:href="#ArialMT-73" x="1810.025391"/>
     <use xlink:href="#ArialMT-20" x="1860.025391"/>
     <use xlink:href="#ArialMT-41" x="1882.308594"/>
     <use xlink:href="#ArialMT-68" x="1949.007812"/>
     <use xlink:href="#ArialMT-65" x="2004.623047"/>
     <use xlink:href="#ArialMT-61" x="2060.238281"/>
     <use xlink:href="#ArialMT-64" x="2115.853516"/>
    </g>
   </g>
   <g id="legend_1">
    <g id="patch_7">
     <path d="M 437.15625 88.130625 
L 511.4 88.130625 
Q 513.4 88.130625 513.4 86.130625 
L 513.4 58.84 
Q 513.4 56.84 511.4 56.84 
L 437.15625 56.84 
Q 435.15625 56.84 435.15625 58.84 
L 435.15625 86.130625 
Q 435.15625 88.130625 437.15625 88.130625 
z
" style="fill: #eaeaf2; opacity: 0.8; stroke: #cccccc; stroke-linejoin: miter"/>
    </g>
    <g id="line2d_14">
     <path d="M 439.15625 64.497812 
L 449.15625 64.497812 
L 459.15625 64.497812 
" style="fill: none; stroke: #1f77b4; stroke-width: 1.5; stroke-linecap: round"/>
    </g>
    <g id="text_15">
     <!-- Real -->
     <g style="fill: #262626" transform="translate(467.15625 67.997812) scale(0.1 -0.1)">
      <defs>
       <path id="ArialMT-52" d="M 503 0 
L 503 4581 
L 2534 4581 
Q 3147 4581 3465 4457 
Q 3784 4334 3975 4021 
Q 4166 3709 4166 3331 
Q 4166 2844 3850 2509 
Q 3534 2175 2875 2084 
Q 3116 1969 3241 1856 
Q 3506 1613 3744 1247 
L 4541 0 
L 3778 0 
L 3172 953 
Q 2906 1366 2734 1584 
Q 2563 1803 2427 1890 
Q 2291 1978 2150 2013 
Q 2047 2034 1813 2034 
L 1109 2034 
L 1109 0 
L 503 0 
z
M 1109 2559 
L 2413 2559 
Q 2828 2559 3062 2645 
Q 3297 2731 3419 2920 
Q 3541 3109 3541 3331 
Q 3541 3656 3305 3865 
Q 3069 4075 2559 4075 
L 1109 4075 
L 1109 2559 
z
" transform="scale(0.015625)"/>
       <path id="ArialMT-6c" d="M 409 0 
L 409 4581 
L 972 4581 
L 972 0 
L 409 0 
z
" transform="scale(0.015625)"/>
      </defs>
      <use xlink:href="#ArialMT-52"/>
      <use xlink:href="#ArialMT-65" x="72.216797"/>
      <use xlink:href="#ArialMT-61" x="127.832031"/>
      <use xlink:href="#ArialMT-6c" x="183.447266"/>
     </g>
    </g>
    <g id="line2d_15">
     <path d="M 439.15625 78.643125 
L 449.15625 78.643125 
L 459.15625 78.643125 
" style="fill: none; stroke: #ff7f0e; stroke-width: 1.5; stroke-linecap: round"/>
    </g>
    <g id="text_16">
     <!-- Predicted -->
     <g style="fill: #262626" transform="translate(467.15625 82.143125) scale(0.1 -0.1)">
      <use xlink:href="#ArialMT-50"/>
      <use xlink:href="#ArialMT-72" x="66.699219"/>
      <use xlink:href="#ArialMT-65" x="100"/>
      <use xlink:href="#ArialMT-64" x="155.615234"/>
      <use xlink:href="#ArialMT-69" x="211.230469"/>
      <use xlink:href="#ArialMT-63" x="233.447266"/>
      <use xlink:href="#ArialMT-74" x="283.447266"/>
      <use xlink:href="#ArialMT-65" x="311.230469"/>
      <use xlink:href="#ArialMT-64" x="366.845703"/>
     </g>
    </g>
   </g>
  </g>
 </g>
 <defs>
  <clipPath id="pe2566842f5">
   <rect x="72" y="51.84" width="446.4" height="332.64"/>
  </clipPath>
 </defs>
</svg>
