<?xml version="1.0" encoding="utf-8" standalone="no"?>
<!DOCTYPE svg PUBLIC "-//W3C//DTD SVG 1.1//EN"
  "http://www.w3.org/Graphics/SVG/1.1/DTD/svg11.dtd">
<svg xmlns:xlink="http://www.w3.org/1999/xlink" width="576pt" height="432pt" viewBox="0 0 576 432" xmlns="http://www.w3.org/2000/svg" version="1.1">
 <metadata>
  <rdf:RDF xmlns:dc="http://purl.org/dc/elements/1.1/" xmlns:cc="http://creativecommons.org/ns#" xmlns:rdf="http://www.w3.org/1999/02/22-rdf-syntax-ns#">
   <cc:Work>
    <dc:type rdf:resource="http://purl.org/dc/dcmitype/StillImage"/>
    <dc:date>2023-11-17T05:15:43.588137</dc:date>
    <dc:format>image/svg+xml</dc:format>
    <dc:creator>
     <cc:Agent>
      <dc:title>Matplotlib v3.8.0, https://matplotlib.org/</dc:title>
     </cc:Agent>
    </dc:creator>
   </cc:Work>
  </rdf:RDF>
 </metadata>
 <defs>
  <style type="text/css">*{stroke-linejoin: round; stroke-linecap: butt}</style>
 </defs>
 <g id="figure_1">
  <g id="patch_1">
   <path d="M 0 432 
L 576 432 
L 576 0 
L 0 0 
z
" style="fill: #ffffff"/>
  </g>
  <g id="axes_1">
   <g id="patch_2">
    <path d="M 72 384.48 
L 518.4 384.48 
L 518.4 51.84 
L 72 51.84 
z
" style="fill: #eaeaf2"/>
   </g>
   <g id="matplotlib.axis_1">
    <g id="xtick_1">
     <g id="line2d_1">
      <path d="M 92.290909 384.48 
L 92.290909 51.84 
" clip-path="url(#pdab3f7e6e7)" style="fill: none; stroke: #ffffff; stroke-width: 0.8; stroke-linecap: round"/>
     </g>
     <g id="text_1">
      <!-- 0 -->
      <g style="fill: #262626" transform="translate(89.51044 398.637812) scale(0.1 -0.1)">
       <defs>
        <path id="ArialMT-30" d="M 266 2259 
Q 266 3072 433 3567 
Q 600 4063 929 4331 
Q 1259 4600 1759 4600 
Q 2128 4600 2406 4451 
Q 2684 4303 2865 4023 
Q 3047 3744 3150 3342 
Q 3253 2941 3253 2259 
Q 3253 1453 3087 958 
Q 2922 463 2592 192 
Q 2263 -78 1759 -78 
Q 1097 -78 719 397 
Q 266 969 266 2259 
z
M 844 2259 
Q 844 1131 1108 757 
Q 1372 384 1759 384 
Q 2147 384 2411 759 
Q 2675 1134 2675 2259 
Q 2675 3391 2411 3762 
Q 2147 4134 1753 4134 
Q 1366 4134 1134 3806 
Q 844 3388 844 2259 
z
" transform="scale(0.015625)"/>
       </defs>
       <use xlink:href="#ArialMT-30"/>
      </g>
     </g>
    </g>
    <g id="xtick_2">
     <g id="line2d_2">
      <path d="M 185.905253 384.48 
L 185.905253 51.84 
" clip-path="url(#pdab3f7e6e7)" style="fill: none; stroke: #ffffff; stroke-width: 0.8; stroke-linecap: round"/>
     </g>
     <g id="text_2">
      <!-- 200 -->
      <g style="fill: #262626" transform="translate(177.563847 398.637812) scale(0.1 -0.1)">
       <defs>
        <path id="ArialMT-32" d="M 3222 541 
L 3222 0 
L 194 0 
Q 188 203 259 391 
Q 375 700 629 1000 
Q 884 1300 1366 1694 
Q 2113 2306 2375 2664 
Q 2638 3022 2638 3341 
Q 2638 3675 2398 3904 
Q 2159 4134 1775 4134 
Q 1369 4134 1125 3890 
Q 881 3647 878 3216 
L 300 3275 
Q 359 3922 746 4261 
Q 1134 4600 1788 4600 
Q 2447 4600 2831 4234 
Q 3216 3869 3216 3328 
Q 3216 3053 3103 2787 
Q 2991 2522 2730 2228 
Q 2469 1934 1863 1422 
Q 1356 997 1212 845 
Q 1069 694 975 541 
L 3222 541 
z
" transform="scale(0.015625)"/>
       </defs>
       <use xlink:href="#ArialMT-32"/>
       <use xlink:href="#ArialMT-30" x="55.615234"/>
       <use xlink:href="#ArialMT-30" x="111.230469"/>
      </g>
     </g>
    </g>
    <g id="xtick_3">
     <g id="line2d_3">
      <path d="M 279.519597 384.48 
L 279.519597 51.84 
" clip-path="url(#pdab3f7e6e7)" style="fill: none; stroke: #ffffff; stroke-width: 0.8; stroke-linecap: round"/>
     </g>
     <g id="text_3">
      <!-- 400 -->
      <g style="fill: #262626" transform="translate(271.178191 398.637812) scale(0.1 -0.1)">
       <defs>
        <path id="ArialMT-34" d="M 2069 0 
L 2069 1097 
L 81 1097 
L 81 1613 
L 2172 4581 
L 2631 4581 
L 2631 1613 
L 3250 1613 
L 3250 1097 
L 2631 1097 
L 2631 0 
L 2069 0 
z
M 2069 1613 
L 2069 3678 
L 634 1613 
L 2069 1613 
z
" transform="scale(0.015625)"/>
       </defs>
       <use xlink:href="#ArialMT-34"/>
       <use xlink:href="#ArialMT-30" x="55.615234"/>
       <use xlink:href="#ArialMT-30" x="111.230469"/>
      </g>
     </g>
    </g>
    <g id="xtick_4">
     <g id="line2d_4">
      <path d="M 373.133941 384.48 
L 373.133941 51.84 
" clip-path="url(#pdab3f7e6e7)" style="fill: none; stroke: #ffffff; stroke-width: 0.8; stroke-linecap: round"/>
     </g>
     <g id="text_4">
      <!-- 600 -->
      <g style="fill: #262626" transform="translate(364.792535 398.637812) scale(0.1 -0.1)">
       <defs>
        <path id="ArialMT-36" d="M 3184 3459 
L 2625 3416 
Q 2550 3747 2413 3897 
Q 2184 4138 1850 4138 
Q 1581 4138 1378 3988 
Q 1113 3794 959 3422 
Q 806 3050 800 2363 
Q 1003 2672 1297 2822 
Q 1591 2972 1913 2972 
Q 2475 2972 2870 2558 
Q 3266 2144 3266 1488 
Q 3266 1056 3080 686 
Q 2894 316 2569 119 
Q 2244 -78 1831 -78 
Q 1128 -78 684 439 
Q 241 956 241 2144 
Q 241 3472 731 4075 
Q 1159 4600 1884 4600 
Q 2425 4600 2770 4297 
Q 3116 3994 3184 3459 
z
M 888 1484 
Q 888 1194 1011 928 
Q 1134 663 1356 523 
Q 1578 384 1822 384 
Q 2178 384 2434 671 
Q 2691 959 2691 1453 
Q 2691 1928 2437 2201 
Q 2184 2475 1800 2475 
Q 1419 2475 1153 2201 
Q 888 1928 888 1484 
z
" transform="scale(0.015625)"/>
       </defs>
       <use xlink:href="#ArialMT-36"/>
       <use xlink:href="#ArialMT-30" x="55.615234"/>
       <use xlink:href="#ArialMT-30" x="111.230469"/>
      </g>
     </g>
    </g>
    <g id="xtick_5">
     <g id="line2d_5">
      <path d="M 466.748286 384.48 
L 466.748286 51.84 
" clip-path="url(#pdab3f7e6e7)" style="fill: none; stroke: #ffffff; stroke-width: 0.8; stroke-linecap: round"/>
     </g>
     <g id="text_5">
      <!-- 800 -->
      <g style="fill: #262626" transform="translate(458.406879 398.637812) scale(0.1 -0.1)">
       <defs>
        <path id="ArialMT-38" d="M 1131 2484 
Q 781 2613 612 2850 
Q 444 3088 444 3419 
Q 444 3919 803 4259 
Q 1163 4600 1759 4600 
Q 2359 4600 2725 4251 
Q 3091 3903 3091 3403 
Q 3091 3084 2923 2848 
Q 2756 2613 2416 2484 
Q 2838 2347 3058 2040 
Q 3278 1734 3278 1309 
Q 3278 722 2862 322 
Q 2447 -78 1769 -78 
Q 1091 -78 675 323 
Q 259 725 259 1325 
Q 259 1772 486 2073 
Q 713 2375 1131 2484 
z
M 1019 3438 
Q 1019 3113 1228 2906 
Q 1438 2700 1772 2700 
Q 2097 2700 2305 2904 
Q 2513 3109 2513 3406 
Q 2513 3716 2298 3927 
Q 2084 4138 1766 4138 
Q 1444 4138 1231 3931 
Q 1019 3725 1019 3438 
z
M 838 1322 
Q 838 1081 952 856 
Q 1066 631 1291 507 
Q 1516 384 1775 384 
Q 2178 384 2440 643 
Q 2703 903 2703 1303 
Q 2703 1709 2433 1975 
Q 2163 2241 1756 2241 
Q 1359 2241 1098 1978 
Q 838 1716 838 1322 
z
" transform="scale(0.015625)"/>
       </defs>
       <use xlink:href="#ArialMT-38"/>
       <use xlink:href="#ArialMT-30" x="55.615234"/>
       <use xlink:href="#ArialMT-30" x="111.230469"/>
      </g>
     </g>
    </g>
    <g id="text_6">
     <!-- Days -->
     <g style="fill: #262626" transform="translate(283.808594 411.783125) scale(0.1 -0.1)">
      <defs>
       <path id="ArialMT-44" d="M 494 0 
L 494 4581 
L 2072 4581 
Q 2606 4581 2888 4516 
Q 3281 4425 3559 4188 
Q 3922 3881 4101 3404 
Q 4281 2928 4281 2316 
Q 4281 1794 4159 1391 
Q 4038 988 3847 723 
Q 3656 459 3429 307 
Q 3203 156 2883 78 
Q 2563 0 2147 0 
L 494 0 
z
M 1100 541 
L 2078 541 
Q 2531 541 2789 625 
Q 3047 709 3200 863 
Q 3416 1078 3536 1442 
Q 3656 1806 3656 2325 
Q 3656 3044 3420 3430 
Q 3184 3816 2847 3947 
Q 2603 4041 2063 4041 
L 1100 4041 
L 1100 541 
z
" transform="scale(0.015625)"/>
       <path id="ArialMT-61" d="M 2588 409 
Q 2275 144 1986 34 
Q 1697 -75 1366 -75 
Q 819 -75 525 192 
Q 231 459 231 875 
Q 231 1119 342 1320 
Q 453 1522 633 1644 
Q 813 1766 1038 1828 
Q 1203 1872 1538 1913 
Q 2219 1994 2541 2106 
Q 2544 2222 2544 2253 
Q 2544 2597 2384 2738 
Q 2169 2928 1744 2928 
Q 1347 2928 1158 2789 
Q 969 2650 878 2297 
L 328 2372 
Q 403 2725 575 2942 
Q 747 3159 1072 3276 
Q 1397 3394 1825 3394 
Q 2250 3394 2515 3294 
Q 2781 3194 2906 3042 
Q 3031 2891 3081 2659 
Q 3109 2516 3109 2141 
L 3109 1391 
Q 3109 606 3145 398 
Q 3181 191 3288 0 
L 2700 0 
Q 2613 175 2588 409 
z
M 2541 1666 
Q 2234 1541 1622 1453 
Q 1275 1403 1131 1340 
Q 988 1278 909 1158 
Q 831 1038 831 891 
Q 831 666 1001 516 
Q 1172 366 1500 366 
Q 1825 366 2078 508 
Q 2331 650 2450 897 
Q 2541 1088 2541 1459 
L 2541 1666 
z
" transform="scale(0.015625)"/>
       <path id="ArialMT-79" d="M 397 -1278 
L 334 -750 
Q 519 -800 656 -800 
Q 844 -800 956 -737 
Q 1069 -675 1141 -563 
Q 1194 -478 1313 -144 
Q 1328 -97 1363 -6 
L 103 3319 
L 709 3319 
L 1400 1397 
Q 1534 1031 1641 628 
Q 1738 1016 1872 1384 
L 2581 3319 
L 3144 3319 
L 1881 -56 
Q 1678 -603 1566 -809 
Q 1416 -1088 1222 -1217 
Q 1028 -1347 759 -1347 
Q 597 -1347 397 -1278 
z
" transform="scale(0.015625)"/>
       <path id="ArialMT-73" d="M 197 991 
L 753 1078 
Q 800 744 1014 566 
Q 1228 388 1613 388 
Q 2000 388 2187 545 
Q 2375 703 2375 916 
Q 2375 1106 2209 1216 
Q 2094 1291 1634 1406 
Q 1016 1563 777 1677 
Q 538 1791 414 1992 
Q 291 2194 291 2438 
Q 291 2659 392 2848 
Q 494 3038 669 3163 
Q 800 3259 1026 3326 
Q 1253 3394 1513 3394 
Q 1903 3394 2198 3281 
Q 2494 3169 2634 2976 
Q 2775 2784 2828 2463 
L 2278 2388 
Q 2241 2644 2061 2787 
Q 1881 2931 1553 2931 
Q 1166 2931 1000 2803 
Q 834 2675 834 2503 
Q 834 2394 903 2306 
Q 972 2216 1119 2156 
Q 1203 2125 1616 2013 
Q 2213 1853 2448 1751 
Q 2684 1650 2818 1456 
Q 2953 1263 2953 975 
Q 2953 694 2789 445 
Q 2625 197 2315 61 
Q 2006 -75 1616 -75 
Q 969 -75 630 194 
Q 291 463 197 991 
z
" transform="scale(0.015625)"/>
      </defs>
      <use xlink:href="#ArialMT-44"/>
      <use xlink:href="#ArialMT-61" x="72.216797"/>
      <use xlink:href="#ArialMT-79" x="127.832031"/>
      <use xlink:href="#ArialMT-73" x="177.832031"/>
     </g>
    </g>
   </g>
   <g id="matplotlib.axis_2">
    <g id="ytick_1">
     <g id="line2d_6">
      <path d="M 72 375.36883 
L 518.4 375.36883 
" clip-path="url(#pdab3f7e6e7)" style="fill: none; stroke: #ffffff; stroke-width: 0.8; stroke-linecap: round"/>
     </g>
     <g id="text_7">
      <!-- 5 -->
      <g style="fill: #262626" transform="translate(59.439062 378.947737) scale(0.1 -0.1)">
       <defs>
        <path id="ArialMT-35" d="M 266 1200 
L 856 1250 
Q 922 819 1161 601 
Q 1400 384 1738 384 
Q 2144 384 2425 690 
Q 2706 997 2706 1503 
Q 2706 1984 2436 2262 
Q 2166 2541 1728 2541 
Q 1456 2541 1237 2417 
Q 1019 2294 894 2097 
L 366 2166 
L 809 4519 
L 3088 4519 
L 3088 3981 
L 1259 3981 
L 1013 2750 
Q 1425 3038 1878 3038 
Q 2478 3038 2890 2622 
Q 3303 2206 3303 1553 
Q 3303 931 2941 478 
Q 2500 -78 1738 -78 
Q 1113 -78 717 272 
Q 322 622 266 1200 
z
" transform="scale(0.015625)"/>
       </defs>
       <use xlink:href="#ArialMT-35"/>
      </g>
     </g>
    </g>
    <g id="ytick_2">
     <g id="line2d_7">
      <path d="M 72 324.827267 
L 518.4 324.827267 
" clip-path="url(#pdab3f7e6e7)" style="fill: none; stroke: #ffffff; stroke-width: 0.8; stroke-linecap: round"/>
     </g>
     <g id="text_8">
      <!-- 10 -->
      <g style="fill: #262626" transform="translate(53.878125 328.406173) scale(0.1 -0.1)">
       <defs>
        <path id="ArialMT-31" d="M 2384 0 
L 1822 0 
L 1822 3584 
Q 1619 3391 1289 3197 
Q 959 3003 697 2906 
L 697 3450 
Q 1169 3672 1522 3987 
Q 1875 4303 2022 4600 
L 2384 4600 
L 2384 0 
z
" transform="scale(0.015625)"/>
       </defs>
       <use xlink:href="#ArialMT-31"/>
       <use xlink:href="#ArialMT-30" x="55.615234"/>
      </g>
     </g>
    </g>
    <g id="ytick_3">
     <g id="line2d_8">
      <path d="M 72 274.285704 
L 518.4 274.285704 
" clip-path="url(#pdab3f7e6e7)" style="fill: none; stroke: #ffffff; stroke-width: 0.8; stroke-linecap: round"/>
     </g>
     <g id="text_9">
      <!-- 15 -->
      <g style="fill: #262626" transform="translate(53.878125 277.86461) scale(0.1 -0.1)">
       <use xlink:href="#ArialMT-31"/>
       <use xlink:href="#ArialMT-35" x="55.615234"/>
      </g>
     </g>
    </g>
    <g id="ytick_4">
     <g id="line2d_9">
      <path d="M 72 223.744141 
L 518.4 223.744141 
" clip-path="url(#pdab3f7e6e7)" style="fill: none; stroke: #ffffff; stroke-width: 0.8; stroke-linecap: round"/>
     </g>
     <g id="text_10">
      <!-- 20 -->
      <g style="fill: #262626" transform="translate(53.878125 227.323047) scale(0.1 -0.1)">
       <use xlink:href="#ArialMT-32"/>
       <use xlink:href="#ArialMT-30" x="55.615234"/>
      </g>
     </g>
    </g>
    <g id="ytick_5">
     <g id="line2d_10">
      <path d="M 72 173.202578 
L 518.4 173.202578 
" clip-path="url(#pdab3f7e6e7)" style="fill: none; stroke: #ffffff; stroke-width: 0.8; stroke-linecap: round"/>
     </g>
     <g id="text_11">
      <!-- 25 -->
      <g style="fill: #262626" transform="translate(53.878125 176.781484) scale(0.1 -0.1)">
       <use xlink:href="#ArialMT-32"/>
       <use xlink:href="#ArialMT-35" x="55.615234"/>
      </g>
     </g>
    </g>
    <g id="ytick_6">
     <g id="line2d_11">
      <path d="M 72 122.661014 
L 518.4 122.661014 
" clip-path="url(#pdab3f7e6e7)" style="fill: none; stroke: #ffffff; stroke-width: 0.8; stroke-linecap: round"/>
     </g>
     <g id="text_12">
      <!-- 30 -->
      <g style="fill: #262626" transform="translate(53.878125 126.239921) scale(0.1 -0.1)">
       <defs>
        <path id="ArialMT-33" d="M 269 1209 
L 831 1284 
Q 928 806 1161 595 
Q 1394 384 1728 384 
Q 2125 384 2398 659 
Q 2672 934 2672 1341 
Q 2672 1728 2419 1979 
Q 2166 2231 1775 2231 
Q 1616 2231 1378 2169 
L 1441 2663 
Q 1497 2656 1531 2656 
Q 1891 2656 2178 2843 
Q 2466 3031 2466 3422 
Q 2466 3731 2256 3934 
Q 2047 4138 1716 4138 
Q 1388 4138 1169 3931 
Q 950 3725 888 3313 
L 325 3413 
Q 428 3978 793 4289 
Q 1159 4600 1703 4600 
Q 2078 4600 2393 4439 
Q 2709 4278 2876 4000 
Q 3044 3722 3044 3409 
Q 3044 3113 2884 2869 
Q 2725 2625 2413 2481 
Q 2819 2388 3044 2092 
Q 3269 1797 3269 1353 
Q 3269 753 2831 336 
Q 2394 -81 1725 -81 
Q 1122 -81 723 278 
Q 325 638 269 1209 
z
" transform="scale(0.015625)"/>
       </defs>
       <use xlink:href="#ArialMT-33"/>
       <use xlink:href="#ArialMT-30" x="55.615234"/>
      </g>
     </g>
    </g>
    <g id="ytick_7">
     <g id="line2d_12">
      <path d="M 72 72.119451 
L 518.4 72.119451 
" clip-path="url(#pdab3f7e6e7)" style="fill: none; stroke: #ffffff; stroke-width: 0.8; stroke-linecap: round"/>
     </g>
     <g id="text_13">
      <!-- 35 -->
      <g style="fill: #262626" transform="translate(53.878125 75.698357) scale(0.1 -0.1)">
       <use xlink:href="#ArialMT-33"/>
       <use xlink:href="#ArialMT-35" x="55.615234"/>
      </g>
     </g>
    </g>
    <g id="text_14">
     <!-- (°C) -->
     <g style="fill: #262626" transform="translate(47.773438 227.099844) rotate(-90) scale(0.1 -0.1)">
      <defs>
       <path id="ArialMT-28" d="M 1497 -1347 
Q 1031 -759 709 28 
Q 388 816 388 1659 
Q 388 2403 628 3084 
Q 909 3875 1497 4659 
L 1900 4659 
Q 1522 4009 1400 3731 
Q 1209 3300 1100 2831 
Q 966 2247 966 1656 
Q 966 153 1900 -1347 
L 1497 -1347 
z
" transform="scale(0.015625)"/>
       <path id="ArialMT-b0" d="M 400 3794 
Q 400 4153 654 4406 
Q 909 4659 1266 4659 
Q 1628 4659 1881 4406 
Q 2134 4153 2134 3794 
Q 2134 3434 1879 3179 
Q 1625 2925 1266 2925 
Q 909 2925 654 3178 
Q 400 3431 400 3794 
z
M 741 3794 
Q 741 3575 895 3420 
Q 1050 3266 1269 3266 
Q 1484 3266 1639 3420 
Q 1794 3575 1794 3794 
Q 1794 4013 1639 4167 
Q 1484 4322 1269 4322 
Q 1050 4322 895 4167 
Q 741 4013 741 3794 
z
" transform="scale(0.015625)"/>
       <path id="ArialMT-43" d="M 3763 1606 
L 4369 1453 
Q 4178 706 3683 314 
Q 3188 -78 2472 -78 
Q 1731 -78 1267 223 
Q 803 525 561 1097 
Q 319 1669 319 2325 
Q 319 3041 592 3573 
Q 866 4106 1370 4382 
Q 1875 4659 2481 4659 
Q 3169 4659 3637 4309 
Q 4106 3959 4291 3325 
L 3694 3184 
Q 3534 3684 3231 3912 
Q 2928 4141 2469 4141 
Q 1941 4141 1586 3887 
Q 1231 3634 1087 3207 
Q 944 2781 944 2328 
Q 944 1744 1114 1308 
Q 1284 872 1643 656 
Q 2003 441 2422 441 
Q 2931 441 3284 734 
Q 3638 1028 3763 1606 
z
" transform="scale(0.015625)"/>
       <path id="ArialMT-29" d="M 791 -1347 
L 388 -1347 
Q 1322 153 1322 1656 
Q 1322 2244 1188 2822 
Q 1081 3291 891 3722 
Q 769 4003 388 4659 
L 791 4659 
Q 1378 3875 1659 3084 
Q 1900 2403 1900 1659 
Q 1900 816 1576 28 
Q 1253 -759 791 -1347 
z
" transform="scale(0.015625)"/>
      </defs>
      <use xlink:href="#ArialMT-28"/>
      <use xlink:href="#ArialMT-b0" x="33.300781"/>
      <use xlink:href="#ArialMT-43" x="73.291016"/>
      <use xlink:href="#ArialMT-29" x="145.507812"/>
     </g>
    </g>
   </g>
   <g id="line2d_13">
    <path d="M 92.290909 167.895713 
L 92.758981 173.14642 
L 93.227053 146.541903 
L 93.695124 139.276553 
L 94.163196 148.219602 
L 94.631268 190.15506 
L 95.567411 187.206802 
L 96.035483 184.34278 
L 96.971626 156.200957 
L 97.439698 156.474724 
L 98.375841 151.954062 
L 98.843913 153.435211 
L 99.311985 160.237263 
L 99.780057 165.27738 
L 100.248128 143.734038 
L 100.7162 149.279571 
L 101.184272 167.039315 
L 102.120415 150.262324 
L 102.588487 152.754303 
L 103.52463 314.438168 
L 103.992702 287.910867 
L 104.460774 274.025976 
L 104.928846 238.429273 
L 105.396917 231.802712 
L 105.864989 254.848261 
L 106.333061 261.208074 
L 106.801132 274.419078 
L 107.269204 256.666353 
L 107.737276 228.910612 
L 108.205348 219.026928 
L 108.673419 204.433052 
L 109.141491 203.204611 
L 110.077634 178.783209 
L 110.545706 168.148421 
L 111.013778 217.917822 
L 111.48185 232.455541 
L 112.417993 201.288243 
L 112.886065 181.570014 
L 113.354137 156.734452 
L 113.822208 150.360599 
L 114.29028 170.900129 
L 115.226423 318.270903 
L 115.694495 262.506712 
L 116.162567 277.648122 
L 116.630639 336.318453 
L 118.034854 280.43859 
L 118.502925 307.362349 
L 118.970997 284.93831 
L 119.439069 236.008422 
L 119.907141 231.85185 
L 120.375212 218.479395 
L 120.843284 268.34707 
L 121.311356 280.947363 
L 121.779427 268.97182 
L 122.247499 221.146866 
L 122.715571 200.867064 
L 123.183643 199.034932 
L 123.651714 204.784035 
L 124.119786 222.431464 
L 125.05593 299.486289 
L 125.524001 257.28536 
L 125.992073 254.86932 
L 126.460145 282.66016 
L 126.928216 298.650949 
L 127.396288 286.80878 
L 127.86436 284.766059 
L 128.332432 260.926732 
L 128.800503 219.925445 
L 129.268575 261.848084 
L 129.736647 275.801951 
L 130.204718 277.781495 
L 130.67279 260.807954 
L 131.140862 277.802554 
L 131.608934 229.837207 
L 132.077005 217.623511 
L 132.545077 262.12765 
L 133.013149 225.730705 
L 133.481221 229.626617 
L 133.949292 245.820976 
L 134.417364 238.07829 
L 134.885436 218.689984 
L 135.353507 228.019115 
L 135.821579 248.895588 
L 136.289651 317.969058 
L 136.757723 352.702343 
L 137.225794 304.364954 
L 137.693866 297.902398 
L 138.161938 322.124697 
L 138.630009 303.213729 
L 139.098081 264.430099 
L 139.566153 252.222908 
L 140.034225 248.790293 
L 140.502296 213.467356 
L 140.970368 211.038553 
L 141.43844 273.11342 
L 141.906511 299.008952 
L 142.842655 229.170339 
L 143.310727 298.103416 
L 143.778798 322.335287 
L 144.24687 318.13051 
L 145.651085 225.134034 
L 146.119157 245.259403 
L 146.587229 279.592568 
L 147.0553 275.099985 
L 147.523372 233.045192 
L 147.991444 279.697863 
L 148.459516 282.119646 
L 148.927587 296.741601 
L 149.395659 298.159573 
L 149.863731 263.538602 
L 150.331802 242.479617 
L 150.799874 297.864747 
L 151.267946 320.025819 
L 151.736018 271.512938 
L 152.204089 250.31356 
L 152.672161 237.86068 
L 153.608304 206.812717 
L 154.076376 192.903034 
L 154.544448 166.874774 
L 155.01252 181.920997 
L 155.480591 305.782925 
L 155.948663 359.60969 
L 156.416735 329.712952 
L 156.884807 252.503694 
L 157.352878 253.784337 
L 157.82095 263.208678 
L 158.289022 218.57065 
L 158.757093 153.975725 
L 159.225165 136.784573 
L 159.693237 188.161476 
L 160.161309 259.270648 
L 160.62938 276.721526 
L 161.097452 273.071302 
L 162.033595 230.826979 
L 162.501667 216.675342 
L 163.437811 253.107385 
L 163.905882 210.680551 
L 164.373954 180.559183 
L 164.842026 189.937451 
L 165.310098 183.774188 
L 165.778169 179.316703 
L 166.246241 183.682932 
L 166.714313 347.334167 
L 167.182384 367.091324 
L 167.650456 344.910519 
L 168.118528 258.744173 
L 168.5866 197.181741 
L 169.054671 154.677691 
L 169.990815 183.360028 
L 170.458886 184.04604 
L 170.926958 153.519447 
L 171.39503 172.52167 
L 171.863102 268.54105 
L 172.331173 297.583961 
L 172.799245 284.11323 
L 173.267317 318.74824 
L 174.20346 255.150107 
L 174.671532 266.353486 
L 175.139604 245.729721 
L 175.607675 203.541555 
L 176.075747 186.63119 
L 176.543819 181.436641 
L 177.011891 227.766407 
L 177.479962 212.470564 
L 177.948034 215.503058 
L 178.416106 210.673531 
L 178.884177 201.140831 
L 179.352249 308.756922 
L 179.820321 303.677027 
L 180.288393 289.048204 
L 180.756464 235.509094 
L 181.224536 167.123453 
L 181.692608 173.237676 
L 182.160679 148.310858 
L 182.628751 158.41917 
L 183.096823 157.759322 
L 184.032966 124.802011 
L 184.501038 130.172052 
L 184.96911 164.301647 
L 185.437182 156.214997 
L 185.905253 217.995038 
L 186.841397 190.344591 
L 187.309468 157.281985 
L 187.77754 157.629111 
L 188.245612 159.284209 
L 188.713684 170.352595 
L 189.181755 167.993989 
L 190.117899 194.043953 
L 190.58597 163.325914 
L 191.054042 140.259306 
L 191.522114 140.118913 
L 191.990186 160.174086 
L 192.458257 161.493782 
L 192.926329 173.16997 
L 193.394401 154.179295 
L 193.862472 126.872811 
L 194.330544 142.295008 
L 194.798616 177.51265 
L 195.266688 169.06029 
L 195.734759 180.00463 
L 196.202831 182.931829 
L 196.670903 167.462753 
L 197.138975 116.518811 
L 197.607046 134.833108 
L 198.075118 208.069237 
L 198.54319 219.469167 
L 199.011261 197.546764 
L 199.479333 184.412977 
L 199.947405 187.143625 
L 200.415477 183.11434 
L 200.883548 169.292626 
L 201.35162 148.739057 
L 201.819692 117.796389 
L 202.287763 131.147785 
L 203.223907 113.521415 
L 203.691979 116.785558 
L 204.16005 127.449917 
L 204.628122 135.212169 
L 205.096194 136.215981 
L 205.564265 138.378037 
L 206.032337 138.890472 
L 206.500409 126.449864 
L 206.968481 122.639955 
L 207.436552 145.664445 
L 207.904624 137.06536 
L 208.372696 138.855374 
L 208.840768 130.340524 
L 209.308839 134.334712 
L 210.244983 124.078986 
L 210.713054 108.081177 
L 211.181126 80.065708 
L 211.649198 66.96 
L 212.11727 72.56871 
L 212.585341 127.983783 
L 213.053413 160.616324 
L 213.989556 132.804425 
L 214.9257 125.047699 
L 215.393772 118.343923 
L 215.861843 115.739628 
L 216.329915 116.596027 
L 216.797987 110.860963 
L 217.266059 82.192666 
L 217.73413 117.599838 
L 218.202202 117.038266 
L 218.670274 103.602633 
L 219.138345 117.382229 
L 219.606417 166.765548 
L 220.074489 140.189109 
L 220.542561 136.096647 
L 221.010632 134.15922 
L 221.478704 129.308634 
L 221.946776 128.887454 
L 222.414847 136.124725 
L 222.882919 135.415739 
L 223.350991 124.61248 
L 223.819063 123.208548 
L 224.287134 116.687282 
L 224.755206 119.331633 
L 225.223278 117.059324 
L 225.691349 102.204052 
L 226.159421 94.484093 
L 226.627493 101.672226 
L 227.095565 124.254478 
L 227.563636 128.382876 
L 228.031708 82.560879 
L 228.49978 100.078763 
L 228.967852 105.43447 
L 229.435923 112.440387 
L 229.903995 113.296786 
L 230.372067 112.686075 
L 230.840138 112.447407 
L 231.30821 113.717966 
L 231.776282 110.053702 
L 232.712425 138.321879 
L 233.180497 165.284399 
L 233.648569 138.378037 
L 234.11664 136.770534 
L 234.584712 129.975502 
L 235.052784 120.590214 
L 235.520856 127.083401 
L 235.988927 114.967465 
L 236.925071 110.327364 
L 237.861214 101.468656 
L 238.329286 99.10303 
L 238.797358 98.092199 
L 239.265429 97.592399 
L 239.733501 105.568139 
L 240.201573 96.83568 
L 240.669645 93.901461 
L 241.137716 99.959429 
L 241.605788 101.166811 
L 242.07386 94.090992 
L 242.541931 91.577953 
L 243.010003 97.530626 
L 243.478075 89.710824 
L 243.946147 87.443372 
L 244.414218 96.260067 
L 244.88229 99.94539 
L 245.350362 104.739818 
L 245.818433 106.838996 
L 246.286505 118.581844 
L 246.754577 113.058117 
L 247.69072 135.219189 
L 248.158792 124.984522 
L 248.626864 103.399063 
L 249.563007 135.261307 
L 250.031079 126.627123 
L 250.499151 120.856961 
L 251.435294 137.697129 
L 251.903366 126.795595 
L 252.371438 138.462273 
L 252.839509 207.443603 
L 253.307581 217.679153 
L 253.775653 117.606858 
L 254.243724 150.585228 
L 254.711796 157.450457 
L 255.179868 155.73766 
L 256.116011 140.154011 
L 256.584083 141.782572 
L 257.052155 127.53266 
L 257.520226 135.686954 
L 257.988298 130.874018 
L 258.45637 139.936401 
L 258.924442 142.365204 
L 259.392513 142.007202 
L 259.860585 138.876433 
L 260.328657 141.235039 
L 260.796729 138.707961 
L 261.2648 133.373018 
L 261.732872 139.325691 
L 262.200944 137.963877 
L 262.669015 148.184504 
L 263.137087 149.644593 
L 263.605159 146.541903 
L 264.073231 151.329312 
L 264.541302 150.402717 
L 265.009374 151.546922 
L 265.477446 135.113894 
L 265.945517 128.501373 
L 266.413589 144.801027 
L 266.881661 155.358598 
L 267.817804 139.866205 
L 268.753948 256.132859 
L 269.22202 198.438261 
L 269.690091 159.191333 
L 270.158163 142.828502 
L 270.626235 185.451887 
L 271.094306 195.433846 
L 271.562378 174.487176 
L 272.03045 135.521034 
L 272.498522 156.088643 
L 272.966593 139.283573 
L 273.434665 170.029691 
L 273.902737 182.714219 
L 274.370808 171.440643 
L 274.83888 239.194416 
L 275.306952 240.521132 
L 275.775024 202.19378 
L 276.243095 193.243711 
L 276.711167 173.890504 
L 277.179239 205.331569 
L 277.64731 281.845879 
L 278.115382 267.090551 
L 278.583454 238.148486 
L 279.051526 239.292691 
L 279.519597 194.830155 
L 279.987669 176.659196 
L 280.455741 180.390711 
L 280.923813 169.060977 
L 281.391884 281.066697 
L 281.859956 273.703072 
L 282.328028 254.700848 
L 282.796099 211.796677 
L 283.264171 369.36 
L 283.732243 364.123332 
L 284.200315 288.570715 
L 284.668386 274.587549 
L 285.136458 267.385377 
L 285.60453 227.724289 
L 286.072601 218.612768 
L 286.540673 202.881707 
L 287.008745 203.190572 
L 287.476817 187.698179 
L 287.944888 189.649645 
L 288.41296 239.73493 
L 288.881032 229.331791 
L 289.349103 190.337571 
L 289.817175 183.984778 
L 290.753319 242.970994 
L 291.22139 211.593107 
L 291.689462 159.88628 
L 292.157534 214.078067 
L 292.625606 246.235136 
L 293.093677 237.881739 
L 293.561749 206.005456 
L 294.029821 209.431051 
L 294.497892 202.39033 
L 294.965964 221.462751 
L 295.434036 215.439881 
L 295.902108 179.604509 
L 296.370179 244.978617 
L 296.838251 294.411074 
L 297.306323 286.219129 
L 297.774394 216.450712 
L 298.242466 191.952094 
L 298.710538 177.667082 
L 299.17861 183.760149 
L 299.646681 296.797759 
L 300.114753 318.678044 
L 300.582825 309.538444 
L 301.050897 276.567094 
L 301.518968 281.20709 
L 301.98704 266.402624 
L 302.923183 247.758403 
L 303.391255 224.965562 
L 303.859327 233.452333 
L 304.327399 232.560836 
L 304.79547 187.47355 
L 306.199685 309.650759 
L 306.667757 288.977856 
L 307.135829 245.392777 
L 307.603901 260.898669 
L 308.071972 268.065204 
L 308.540044 257.810558 
L 309.008116 231.620201 
L 309.476187 249.822183 
L 309.944259 257.78248 
L 310.412331 239.882343 
L 310.880403 229.338811 
L 311.348474 234.652695 
L 311.816546 260.26042 
L 312.284618 239.966579 
L 312.75269 213.944693 
L 313.220761 214.808112 
L 313.688833 211.831775 
L 314.156905 229.788069 
L 314.624976 218.128412 
L 315.093048 275.942344 
L 315.56112 287.405451 
L 316.029192 304.638917 
L 316.497263 274.503313 
L 316.965335 235.642467 
L 317.433407 248.572684 
L 317.901478 256.610196 
L 318.36955 199.877291 
L 318.837622 201.112752 
L 319.305694 201.835777 
L 320.241837 289.377976 
L 320.709909 295.407866 
L 321.17798 265.342655 
L 321.646052 250.236343 
L 322.114124 228.987828 
L 322.582196 197.722255 
L 323.050267 273.253814 
L 323.518339 289.735979 
L 323.986411 243.88355 
L 324.454483 223.898573 
L 324.922554 190.793849 
L 325.390626 173.188538 
L 325.858698 244.234533 
L 326.326769 293.154554 
L 326.794841 267.659143 
L 327.262913 307.060504 
L 328.667128 186.666288 
L 329.1352 179.78702 
L 329.603271 273.366128 
L 330.539415 326.259278 
L 331.94363 191.453698 
L 332.411702 186.589072 
L 332.879774 284.071112 
L 333.347845 291.504934 
L 333.815917 254.855281 
L 334.283989 243.46939 
L 334.75206 191.418599 
L 335.220132 152.705166 
L 335.688204 199.828154 
L 336.156276 173.448266 
L 336.624347 233.985827 
L 337.092419 227.338207 
L 337.560491 245.596347 
L 338.028562 234.414026 
L 338.496634 214.253558 
L 338.964706 207.191779 
L 339.432778 185.887106 
L 339.900849 173.672895 
L 340.368921 153.968705 
L 340.836993 152.255908 
L 341.305064 187.796454 
L 341.773136 204.987605 
L 342.241208 174.845178 
L 342.70928 169.62957 
L 343.177351 144.291338 
L 344.113495 260.372735 
L 344.581567 241.503884 
L 345.049638 196.683345 
L 345.51771 137.149596 
L 345.985782 120.493909 
L 346.453853 132.846543 
L 346.921925 122.520621 
L 347.389997 135.738644 
L 347.858069 217.138639 
L 348.32614 195.511062 
L 348.794212 151.58904 
L 349.262284 194.008854 
L 349.730355 161.234055 
L 350.198427 171.875862 
L 350.666499 221.245141 
L 351.134571 249.351866 
L 352.070714 182.405354 
L 352.538786 137.591835 
L 353.006858 124.521225 
L 353.474929 169.390901 
L 353.943001 173.293833 
L 354.411073 125.065154 
L 354.879144 150.954843 
L 355.347216 235.452936 
L 355.815288 279.641706 
L 356.28336 257.045415 
L 356.751431 189.902352 
L 357.219503 166.891902 
L 357.687575 128.213567 
L 358.155646 122.303012 
L 358.623718 141.62814 
L 359.09179 122.562739 
L 359.559862 112.910705 
L 360.027933 111.998149 
L 360.496005 134.868206 
L 360.964077 203.036139 
L 361.432148 167.523671 
L 361.90022 140.79982 
L 362.368292 131.203943 
L 362.836364 169.447059 
L 363.772507 140.631348 
L 364.708651 119.663619 
L 365.176722 125.195112 
L 365.644794 149.405925 
L 366.112866 152.171672 
L 366.580937 162.279984 
L 367.049009 205.787847 
L 367.517081 206.461734 
L 368.921296 152.62093 
L 369.389368 153.161444 
L 369.857439 139.037885 
L 370.325511 139.950441 
L 370.793583 145.467895 
L 371.261655 131.126726 
L 371.729726 121.200925 
L 372.197798 122.162618 
L 372.66587 143.2918 
L 373.133941 134.805029 
L 373.602013 134.496164 
L 374.070085 152.164652 
L 374.538157 153.624742 
L 375.006228 178.200577 
L 375.4743 151.231037 
L 375.942372 134.306633 
L 376.410444 165.789815 
L 376.878515 171.924999 
L 377.346587 175.21722 
L 377.814659 175.952321 
L 378.28273 167.221826 
L 378.750802 147.665049 
L 379.218874 139.178278 
L 379.686946 139.183646 
L 380.623089 117.613878 
L 381.091161 103.012982 
L 381.559232 112.861567 
L 382.027304 138.490351 
L 382.495376 181.744102 
L 382.963448 157.499595 
L 383.431519 153.701958 
L 383.899591 148.788195 
L 384.367663 149.51122 
L 384.835735 145.839937 
L 385.303806 139.367809 
L 385.771878 135.991352 
L 386.23995 145.896094 
L 386.708021 136.974104 
L 387.644165 116.308221 
L 388.112237 119.186282 
L 389.04838 155.246283 
L 389.516452 158.355993 
L 389.984523 160.440833 
L 390.452595 168.009951 
L 390.920667 122.408307 
L 391.388739 143.530468 
L 391.85681 135.572953 
L 392.324882 124.156202 
L 392.792954 128.581598 
L 393.261025 111.099632 
L 393.729097 109.653582 
L 394.197169 110.285351 
L 394.665241 112.707134 
L 395.133312 135.753106 
L 395.601384 101.559912 
L 396.069456 100.668415 
L 396.537528 104.199305 
L 397.005599 102.268898 
L 397.473671 87.253842 
L 398.409814 115.753667 
L 398.877886 110.741629 
L 399.345958 116.287162 
L 399.81403 149.279571 
L 400.282101 158.117325 
L 400.750173 135.528054 
L 401.218245 132.151597 
L 401.686316 127.1185 
L 402.154388 120.4779 
L 402.62246 108.993733 
L 403.090532 133.95565 
L 403.558603 181.973025 
L 404.026675 173.314892 
L 404.494747 195.354575 
L 405.898962 142.426525 
L 406.367034 147.475518 
L 407.303177 124.738834 
L 407.771249 125.110876 
L 408.239321 128.97871 
L 408.707392 146.64804 
L 409.175464 134.545301 
L 409.643536 132.355167 
L 410.111607 137.662031 
L 410.579679 138.532469 
L 411.047751 132.551718 
L 411.515823 124.900286 
L 411.983894 127.623915 
L 412.451966 126.999165 
L 413.388109 114.104541 
L 413.856181 122.843526 
L 414.324253 122.920742 
L 414.792325 104.957428 
L 415.260396 110.640546 
L 415.728468 110.695593 
L 416.19654 132.074381 
L 417.132683 100.963241 
L 417.600755 109.548287 
L 418.068827 114.820052 
L 418.536898 112.257876 
L 419.00497 104.599425 
L 419.473042 137.189828 
L 419.941114 105.308411 
L 420.409185 135.528212 
L 420.877257 135.61229 
L 421.345329 175.682484 
L 421.8134 179.233871 
L 422.281472 161.774569 
L 422.749544 155.943011 
L 423.217616 156.190097 
L 423.685687 87.123978 
L 424.153759 89.387819 
L 425.089902 107.582781 
L 425.557974 107.519604 
L 426.026046 107.309015 
L 426.494118 118.238628 
L 426.962189 108.818242 
L 427.430261 115.648373 
L 427.898333 124.654598 
L 428.366405 115.964257 
L 428.834476 116.574968 
L 429.77062 124.766913 
L 430.706763 92.841492 
L 431.174835 98.014983 
L 432.110978 114.756876 
L 432.57905 118.589611 
L 433.047122 116.869794 
L 433.515193 114.005772 
L 433.983265 106.894855 
L 434.451337 95.143941 
L 434.919409 127.174657 
L 435.38748 132.109479 
L 435.855552 143.018033 
L 436.323624 145.15201 
L 437.727839 110.046683 
L 438.195911 116.911912 
L 438.663982 116.32226 
L 439.132054 108.818242 
L 439.600126 103.181454 
L 440.068198 110.994337 
L 440.536269 114.560325 
L 441.004341 128.76812 
L 441.472413 155.856994 
L 441.940484 133.169448 
L 442.408556 127.960859 
L 442.876628 118.779142 
L 443.3447 132.390265 
L 443.812771 157.962892 
L 444.748915 136.44763 
L 446.15313 197.272997 
L 446.621202 184.511252 
L 447.557345 139.669654 
L 448.025417 129.694715 
L 448.493489 138.413135 
L 448.96156 133.169448 
L 449.429632 134.194318 
L 449.897704 139.080003 
L 450.365775 142.779364 
L 450.833847 161.437625 
L 451.769991 145.116912 
L 452.238062 146.331313 
L 452.706134 141.192921 
L 453.174206 143.972707 
L 453.642277 145.832917 
L 454.110349 139.480123 
L 454.578421 137.781365 
L 455.046493 140.947233 
L 455.514564 142.653011 
L 455.982636 174.381881 
L 456.918779 166.948059 
L 457.386851 172.53571 
L 457.854923 164.168273 
L 458.322995 163.494386 
L 459.259138 180.931225 
L 459.72721 189.75494 
L 460.195282 181.668289 
L 460.663353 192.303077 
L 461.131425 210.125997 
L 461.599497 214.127204 
L 462.067568 191.341383 
L 462.53564 202.460527 
L 463.003712 195.223256 
L 463.471784 157.19073 
L 463.939855 135.022638 
L 464.407927 149.616515 
L 464.875999 154.193334 
L 465.34407 152.066377 
L 465.812142 170.801853 
L 466.280214 273.064283 
L 467.684429 195.265374 
L 468.152501 181.471739 
L 468.620573 192.668099 
L 469.088644 155.548129 
L 469.556716 190.527102 
L 470.024788 206.826756 
L 470.492859 199.610544 
L 470.960931 183.640814 
L 471.429003 212.182758 
L 471.897075 210.097919 
L 472.365146 235.593329 
L 472.833218 219.665717 
L 473.30129 223.245745 
L 473.769361 185.781811 
L 474.237433 162.315083 
L 474.705505 186.43464 
L 475.173577 188.821325 
L 475.641648 179.393919 
L 476.10972 174.81008 
L 476.577792 185.157061 
L 477.045863 181.745506 
L 477.513935 171.005424 
L 477.982007 257.936912 
L 478.450079 276.770664 
L 478.91815 230.777842 
L 479.386222 255.718699 
L 479.854294 307.713332 
L 480.322366 338.803413 
L 480.790437 322.314228 
L 481.258509 334.472282 
L 481.726581 357.524851 
L 482.194652 341.063744 
L 482.662724 301.086772 
L 483.130796 281.305365 
L 483.598868 228.306921 
L 484.066939 264.149313 
L 484.535011 269.421078 
L 485.003083 226.832792 
L 485.471154 226.418632 
L 485.939226 196.304284 
L 486.87537 296.832857 
L 487.343441 251.534981 
L 487.811513 237.381496 
L 488.279585 204.101231 
L 488.747656 214.323755 
L 489.215728 210.06282 
L 489.6838 219.81313 
L 490.151872 208.778222 
L 490.619943 209.115166 
L 491.088015 213.17253 
L 491.556087 195.087428 
L 492.024159 234.982619 
L 492.49223 248.797313 
L 492.960302 241.019528 
L 493.428374 293.068526 
L 493.896445 326.161003 
L 494.364517 275.879167 
L 494.832589 252.17016 
L 495.300661 308.752242 
L 495.768732 245.785878 
L 496.236804 150.873034 
L 496.704876 136.981124 
L 497.172947 119.256479 
L 497.641019 119.565344 
L 498.109091 193.462679 
L 498.109091 193.462679 
" clip-path="url(#pdab3f7e6e7)" style="fill: none; stroke: #1f77b4; stroke-width: 1.5; stroke-linecap: round"/>
   </g>
   <g id="line2d_14">
    <path d="M 92.290909 155.828163 
L 92.758981 157.409318 
L 93.227053 154.609824 
L 93.695124 154.639114 
L 94.163196 158.682705 
L 94.631268 164.38974 
L 95.099339 162.003898 
L 96.035483 160.892072 
L 96.503555 150.641391 
L 96.971626 148.040558 
L 97.439698 150.085282 
L 97.90777 145.993982 
L 98.375841 147.805102 
L 99.311985 143.906906 
L 99.780057 145.47804 
L 100.248128 141.3441 
L 100.7162 140.792054 
L 102.120415 145.498912 
L 102.588487 145.90898 
L 103.52463 174.561423 
L 103.992702 183.789097 
L 104.928846 197.899686 
L 105.396917 205.973189 
L 105.864989 210.397449 
L 106.801132 236.116634 
L 107.269204 238.026455 
L 107.737276 233.77285 
L 108.205348 236.667061 
L 108.673419 230.770398 
L 109.141491 223.265479 
L 109.609563 218.092315 
L 110.077634 214.984833 
L 110.545706 209.551459 
L 111.013778 199.764181 
L 111.48185 198.525942 
L 111.949921 192.993792 
L 112.417993 184.063647 
L 112.886065 179.511547 
L 113.354137 181.752663 
L 113.822208 178.969226 
L 114.29028 179.743441 
L 115.226423 203.045226 
L 115.694495 202.167395 
L 116.162567 209.398538 
L 116.630639 208.207393 
L 117.09871 205.408202 
L 117.566782 199.135168 
L 118.034854 203.839562 
L 118.502925 211.513304 
L 118.970997 215.691262 
L 119.439069 211.587533 
L 119.907141 212.571732 
L 120.375212 207.345388 
L 120.843284 199.056412 
L 121.311356 199.498697 
L 121.779427 201.882852 
L 122.247499 206.723153 
L 122.715571 202.387023 
L 123.183643 200.863648 
L 123.651714 207.257591 
L 124.119786 200.005793 
L 124.587858 200.286605 
L 125.05593 212.981961 
L 125.524001 215.818153 
L 125.992073 216.655794 
L 126.460145 223.973833 
L 126.928216 227.240252 
L 127.396288 218.645058 
L 127.86436 219.73936 
L 128.332432 222.031502 
L 128.800503 217.553605 
L 129.268575 214.964471 
L 129.736647 217.837192 
L 130.204718 213.800305 
L 130.67279 200.687348 
L 131.140862 202.126132 
L 131.608934 199.470745 
L 132.077005 192.51594 
L 132.545077 189.074069 
L 133.013149 189.344114 
L 133.481221 189.237071 
L 133.949292 187.954338 
L 134.417364 189.231234 
L 134.885436 191.241058 
L 135.821579 190.159245 
L 136.289651 202.494084 
L 136.757723 209.554447 
L 137.225794 211.007203 
L 137.693866 213.761788 
L 138.161938 224.033259 
L 138.630009 222.925212 
L 139.098081 219.683489 
L 139.566153 221.185561 
L 140.034225 224.603499 
L 140.502296 218.553241 
L 140.970368 216.704428 
L 141.43844 229.036845 
L 141.906511 230.933039 
L 142.374583 221.662829 
L 142.842655 218.788106 
L 143.310727 226.15823 
L 143.778798 226.424852 
L 144.24687 231.519567 
L 144.714942 233.041774 
L 145.183014 235.108374 
L 145.651085 226.903198 
L 146.119157 222.243732 
L 146.587229 222.654149 
L 147.0553 220.801121 
L 147.523372 211.936565 
L 147.991444 208.412188 
L 148.459516 206.617029 
L 148.927587 207.348411 
L 149.395659 210.466747 
L 149.863731 203.309291 
L 150.331802 199.211983 
L 150.799874 197.157883 
L 151.267946 197.035145 
L 151.736018 193.737689 
L 152.204089 195.322084 
L 152.672161 195.858998 
L 153.608304 188.836418 
L 154.076376 190.497772 
L 154.544448 186.544393 
L 155.01252 177.142145 
L 155.480591 183.903606 
L 155.948663 193.467891 
L 156.416735 197.606799 
L 156.884807 197.601755 
L 157.352878 206.330285 
L 158.289022 201.868571 
L 158.757093 201.87289 
L 159.225165 205.732388 
L 160.161309 197.758439 
L 160.62938 200.62476 
L 161.097452 196.226079 
L 161.565524 181.645081 
L 162.033595 175.810869 
L 162.501667 177.372063 
L 162.969739 167.411039 
L 163.437811 165.908773 
L 163.905882 167.325841 
L 164.373954 166.336701 
L 164.842026 169.184442 
L 165.310098 169.731936 
L 165.778169 170.827616 
L 166.246241 167.712294 
L 166.714313 179.890935 
L 167.182384 188.228971 
L 167.650456 198.959624 
L 168.118528 197.731506 
L 168.5866 197.670091 
L 169.054671 190.850962 
L 169.522743 189.746471 
L 169.990815 191.522442 
L 170.458886 190.796995 
L 170.926958 188.684623 
L 171.39503 182.846249 
L 171.863102 187.045783 
L 172.331173 179.99426 
L 172.799245 175.341084 
L 173.267317 168.24607 
L 173.735388 173.936709 
L 174.20346 173.389865 
L 174.671532 181.699977 
L 175.139604 187.662874 
L 175.607675 187.793473 
L 176.075747 181.826603 
L 176.543819 180.843732 
L 177.011891 193.084222 
L 177.479962 187.495343 
L 177.948034 187.623414 
L 178.416106 185.626132 
L 178.884177 182.948603 
L 179.352249 175.983961 
L 179.820321 181.350687 
L 180.756464 169.461007 
L 181.224536 162.827698 
L 181.692608 162.210319 
L 182.160679 162.5787 
L 182.628751 153.8578 
L 183.096823 156.393086 
L 183.564895 153.792079 
L 184.032966 150.078979 
L 184.501038 150.855739 
L 184.96911 150.402876 
L 185.437182 145.230943 
L 185.905253 143.773514 
L 186.373325 144.668022 
L 186.841397 144.252909 
L 187.309468 144.368676 
L 187.77754 144.765146 
L 188.245612 144.037694 
L 188.713684 143.661992 
L 189.181755 144.66587 
L 189.649827 146.521444 
L 190.117899 147.289818 
L 190.58597 148.676543 
L 191.054042 148.081079 
L 191.522114 146.939625 
L 191.990186 147.418494 
L 192.458257 148.532339 
L 192.926329 154.546541 
L 193.394401 155.597691 
L 193.862472 155.423127 
L 194.330544 153.488969 
L 194.798616 155.943487 
L 195.266688 152.862138 
L 196.202831 152.068583 
L 196.670903 152.017611 
L 197.138975 147.152617 
L 197.607046 147.296779 
L 198.075118 152.671118 
L 198.54319 146.448701 
L 199.947405 140.400413 
L 200.415477 138.469136 
L 200.883548 139.463293 
L 201.819692 139.994288 
L 202.287763 139.184292 
L 202.755835 140.002351 
L 203.223907 141.4898 
L 203.691979 140.936793 
L 204.16005 142.952166 
L 205.096194 141.297978 
L 205.564265 142.771042 
L 206.032337 142.64302 
L 206.500409 141.719932 
L 206.968481 142.264569 
L 207.436552 145.989341 
L 207.904624 145.239525 
L 208.372696 142.640379 
L 208.840768 141.056236 
L 209.308839 140.939905 
L 209.776911 138.645551 
L 210.244983 138.347126 
L 210.713054 140.709724 
L 211.181126 142.233526 
L 211.649198 139.272496 
L 212.11727 140.423656 
L 212.585341 140.779233 
L 213.053413 136.925222 
L 213.521485 136.26966 
L 213.989556 136.361779 
L 214.457628 136.720033 
L 214.9257 137.492462 
L 215.393772 138.500543 
L 216.329915 138.498826 
L 216.797987 136.802926 
L 217.266059 135.700581 
L 217.73413 136.298587 
L 218.202202 138.090966 
L 218.670274 137.592967 
L 219.138345 136.694787 
L 219.606417 140.623271 
L 220.074489 139.942288 
L 220.542561 138.299009 
L 221.010632 137.905694 
L 221.478704 140.961648 
L 221.946776 138.384201 
L 222.414847 139.019066 
L 222.882919 142.477789 
L 223.350991 142.654059 
L 223.819063 139.079019 
L 224.287134 139.605831 
L 224.755206 143.049929 
L 225.223278 139.363566 
L 226.159421 141.154312 
L 226.627493 140.961163 
L 227.095565 140.239688 
L 227.563636 140.241187 
L 228.031708 139.661547 
L 228.49978 138.503785 
L 228.967852 139.53322 
L 229.903995 139.892945 
L 230.372067 139.770482 
L 230.840138 140.239351 
L 231.30821 139.817693 
L 231.776282 140.232374 
L 232.244354 140.078665 
L 233.180497 139.06185 
L 233.648569 138.282557 
L 234.11664 139.268178 
L 234.584712 138.700006 
L 235.520856 139.642064 
L 235.988927 139.574409 
L 236.456999 139.127244 
L 237.393142 139.751195 
L 237.861214 138.299597 
L 238.329286 137.496376 
L 238.797358 138.713004 
L 239.265429 138.588753 
L 239.733501 139.0138 
L 240.201573 139.967021 
L 240.669645 141.180777 
L 241.137716 140.478185 
L 241.605788 140.093383 
L 242.07386 140.80543 
L 242.541931 142.044521 
L 243.010003 142.160834 
L 243.478075 143.432093 
L 243.946147 145.798663 
L 244.414218 146.584516 
L 244.88229 147.969475 
L 245.350362 148.085927 
L 245.818433 147.979876 
L 246.286505 147.264348 
L 246.754577 146.999374 
L 247.222649 146.944346 
L 247.69072 145.401815 
L 248.626864 144.520093 
L 249.094936 144.938292 
L 249.563007 143.786512 
L 250.031079 143.861487 
L 250.499151 144.066425 
L 251.435294 141.500868 
L 251.903366 142.656321 
L 252.371438 146.545501 
L 252.839509 161.644102 
L 253.307581 180.659069 
L 253.775653 180.484612 
L 255.179868 174.251652 
L 255.64794 170.535179 
L 256.584083 177.994583 
L 257.520226 169.390461 
L 257.988298 170.971424 
L 258.45637 162.86168 
L 258.924442 146.460763 
L 259.392513 144.972506 
L 259.860585 145.091143 
L 260.328657 145.731303 
L 261.2648 147.757157 
L 261.732872 149.338561 
L 262.200944 150.264003 
L 263.137087 147.810466 
L 263.605159 147.3182 
L 264.073231 143.733274 
L 264.541302 143.692828 
L 265.009374 144.507732 
L 265.477446 144.79435 
L 265.945517 144.504597 
L 266.413589 144.700598 
L 266.881661 144.029303 
L 267.349733 144.740845 
L 267.817804 146.45126 
L 268.285876 147.090995 
L 269.22202 150.312181 
L 269.690091 152.830696 
L 270.158163 154.565532 
L 270.626235 165.257512 
L 271.094306 167.729644 
L 271.562378 168.538941 
L 272.03045 167.648794 
L 272.498522 170.688555 
L 272.966593 167.581361 
L 273.434665 167.728942 
L 273.902737 170.186838 
L 274.370808 170.750669 
L 274.83888 165.688366 
L 275.306952 165.981962 
L 275.775024 168.473353 
L 276.243095 161.684337 
L 276.711167 161.338947 
L 277.179239 169.302344 
L 277.64731 171.239151 
L 278.583454 174.374863 
L 279.051526 177.086788 
L 279.519597 176.898843 
L 279.987669 177.363771 
L 280.455741 182.074189 
L 280.923813 183.742852 
L 281.391884 189.574799 
L 281.859956 193.918728 
L 282.328028 202.062745 
L 282.796099 196.255128 
L 283.264171 205.551667 
L 283.732243 205.453512 
L 284.200315 205.496296 
L 284.668386 204.913525 
L 285.136458 208.154225 
L 285.60453 203.74273 
L 286.072601 200.562565 
L 286.540673 203.465876 
L 287.008745 200.567857 
L 287.476817 193.234639 
L 287.944888 189.367399 
L 288.41296 199.148977 
L 288.881032 191.272428 
L 289.817175 188.896476 
L 290.285247 188.064132 
L 290.753319 183.677004 
L 291.22139 185.980189 
L 291.689462 190.606927 
L 292.157534 191.226376 
L 292.625606 189.240687 
L 293.561749 193.04942 
L 294.029821 187.211385 
L 294.497892 188.279855 
L 294.965964 190.038793 
L 295.434036 190.272965 
L 295.902108 193.177021 
L 296.370179 201.673056 
L 296.838251 200.853624 
L 297.306323 201.702784 
L 297.774394 200.537243 
L 298.242466 202.506141 
L 298.710538 199.85002 
L 299.17861 198.500865 
L 299.646681 199.196358 
L 300.114753 198.231519 
L 300.582825 196.567996 
L 301.050897 198.100295 
L 301.518968 208.062592 
L 301.98704 202.243451 
L 302.455112 202.098909 
L 302.923183 200.037149 
L 303.391255 201.622798 
L 303.859327 198.6489 
L 304.327399 204.894833 
L 304.79547 205.482515 
L 305.263542 204.831255 
L 305.731614 200.799218 
L 306.199685 212.637939 
L 306.667757 217.793208 
L 307.135829 213.334742 
L 307.603901 211.407413 
L 308.071972 210.770787 
L 308.540044 206.399253 
L 309.008116 204.785362 
L 309.476187 208.824381 
L 309.944259 205.269754 
L 310.412331 204.140464 
L 310.880403 201.203421 
L 311.348474 202.841554 
L 311.816546 196.133756 
L 312.284618 191.309984 
L 312.75269 191.913654 
L 313.220761 194.387963 
L 314.156905 208.71569 
L 314.624976 207.040962 
L 315.093048 211.999019 
L 315.56112 215.737454 
L 316.029192 225.298917 
L 316.497263 224.896777 
L 316.965335 227.646845 
L 317.433407 223.86671 
L 317.901478 225.306048 
L 318.36955 221.84245 
L 318.837622 221.148062 
L 319.305694 215.460009 
L 320.241837 208.654706 
L 320.709909 201.895845 
L 321.17798 202.413767 
L 321.646052 196.213586 
L 322.114124 188.140095 
L 322.582196 184.055724 
L 323.050267 187.605264 
L 323.518339 183.143442 
L 323.986411 182.516458 
L 324.454483 181.062568 
L 324.922554 181.321268 
L 325.390626 180.86453 
L 326.326769 194.328072 
L 326.794841 195.111368 
L 327.262913 198.867261 
L 327.730985 200.193979 
L 328.199056 199.206569 
L 328.667128 193.039371 
L 329.1352 195.644327 
L 330.071343 213.081446 
L 330.539415 219.241974 
L 331.007487 218.042288 
L 331.94363 202.327957 
L 332.411702 200.95143 
L 332.879774 194.278396 
L 333.347845 197.32823 
L 333.815917 194.314113 
L 334.283989 189.983165 
L 334.75206 190.057858 
L 335.688204 174.02638 
L 336.156276 163.175778 
L 336.624347 162.127372 
L 337.092419 159.178862 
L 338.028562 159.838141 
L 338.496634 161.541773 
L 338.964706 167.544127 
L 339.432778 167.687828 
L 339.900849 165.944779 
L 340.368921 165.009586 
L 340.836993 167.123886 
L 341.305064 163.318939 
L 341.773136 166.361067 
L 342.241208 165.782144 
L 342.70928 164.657189 
L 343.177351 162.022162 
L 344.113495 178.778935 
L 344.581567 178.257047 
L 345.049638 175.728855 
L 345.51771 174.750917 
L 345.985782 171.539483 
L 346.453853 169.590149 
L 346.921925 171.792287 
L 347.389997 172.703789 
L 347.858069 182.560849 
L 348.32614 181.124846 
L 348.794212 181.613998 
L 350.198427 162.167562 
L 350.666499 164.837065 
L 351.134571 175.214182 
L 351.602642 179.515388 
L 352.070714 173.116591 
L 352.538786 171.374106 
L 353.006858 175.589137 
L 353.474929 164.631477 
L 353.943001 162.318284 
L 354.411073 164.171455 
L 355.347216 160.480475 
L 355.815288 161.073735 
L 356.28336 165.852262 
L 356.751431 159.702039 
L 357.219503 155.888333 
L 357.687575 151.003912 
L 358.155646 151.800904 
L 358.623718 151.036687 
L 359.559862 152.104583 
L 360.027933 152.147741 
L 360.496005 148.414705 
L 360.964077 147.353709 
L 361.432148 148.824461 
L 361.90022 142.725272 
L 362.368292 141.556866 
L 362.836364 141.657334 
L 363.304435 140.95122 
L 363.772507 140.798133 
L 364.240579 140.847633 
L 364.708651 141.271369 
L 365.176722 141.127701 
L 365.644794 139.992943 
L 366.112866 141.137122 
L 366.580937 140.55863 
L 367.517081 137.28517 
L 367.985153 136.546805 
L 368.453224 136.357501 
L 368.921296 134.107636 
L 369.389368 133.248441 
L 370.325511 133.130837 
L 370.793583 132.362549 
L 371.261655 134.337734 
L 371.729726 134.692408 
L 372.197798 134.83281 
L 372.66587 136.211234 
L 373.133941 137.089853 
L 373.602013 138.367829 
L 374.070085 136.901416 
L 374.538157 136.795075 
L 375.006228 136.40452 
L 375.4743 135.402705 
L 375.942372 134.674824 
L 376.410444 134.282414 
L 376.878515 133.290744 
L 377.346587 131.763346 
L 377.814659 132.177846 
L 378.28273 131.283171 
L 378.750802 130.82566 
L 379.686946 132.289672 
L 380.155017 132.438639 
L 381.091161 135.487497 
L 381.559232 136.161013 
L 382.027304 135.744056 
L 382.495376 149.802195 
L 382.963448 152.063318 
L 383.431519 152.780225 
L 383.899591 150.776427 
L 384.367663 153.346958 
L 384.835735 148.398318 
L 385.303806 147.485887 
L 386.23995 152.946311 
L 386.708021 146.713523 
L 387.176093 146.599585 
L 387.644165 151.554912 
L 388.112237 139.232489 
L 388.580308 137.293563 
L 389.516452 136.576792 
L 389.984523 135.118872 
L 390.452595 135.401119 
L 390.920667 137.123011 
L 391.388739 136.481813 
L 392.324882 139.473343 
L 392.792954 139.126916 
L 393.261025 137.980992 
L 393.729097 140.416917 
L 394.197169 140.184588 
L 394.665241 140.464667 
L 395.133312 149.237185 
L 395.601384 152.67306 
L 396.537528 151.148546 
L 397.005599 154.376235 
L 397.473671 149.892531 
L 397.941743 150.645561 
L 398.877886 152.796537 
L 399.345958 149.340464 
L 399.81403 148.123383 
L 400.282101 150.559878 
L 400.750173 144.162224 
L 401.218245 141.699525 
L 401.686316 140.077341 
L 402.154388 139.61094 
L 402.62246 138.444857 
L 403.090532 138.454264 
L 403.558603 145.919295 
L 404.494747 167.766819 
L 404.962818 168.456621 
L 405.43089 169.373718 
L 405.898962 167.448775 
L 406.367034 164.389844 
L 406.835105 165.161001 
L 407.303177 168.184641 
L 407.771249 169.686722 
L 408.239321 166.58715 
L 408.707392 169.042813 
L 409.175464 164.487458 
L 409.643536 155.64197 
L 410.111607 143.335964 
L 410.579679 144.480779 
L 411.047751 143.014824 
L 411.515823 142.292488 
L 411.983894 145.298204 
L 412.451966 146.0898 
L 412.920038 143.317796 
L 413.388109 144.284548 
L 413.856181 147.870706 
L 414.324253 143.736031 
L 414.792325 145.063039 
L 415.260396 145.704415 
L 415.728468 145.409772 
L 416.664612 144.251206 
L 417.132683 144.811779 
L 417.600755 144.942946 
L 418.068827 144.951528 
L 418.536898 144.703645 
L 419.00497 144.991408 
L 419.473042 148.09759 
L 419.941114 165.183407 
L 420.409185 166.544835 
L 420.877257 165.701295 
L 421.345329 172.824777 
L 421.8134 189.55586 
L 422.281472 184.84506 
L 422.749544 183.944582 
L 423.217616 185.95987 
L 423.685687 199.095686 
L 424.153759 188.486983 
L 424.621831 192.710889 
L 425.089902 195.641711 
L 426.026046 171.593624 
L 426.494118 173.32801 
L 426.962189 173.143547 
L 427.430261 160.743819 
L 427.898333 155.504375 
L 428.366405 154.925437 
L 428.834476 159.285062 
L 429.302548 145.069971 
L 430.238691 142.103324 
L 430.706763 141.955493 
L 431.174835 142.766063 
L 431.642907 142.246755 
L 432.110978 143.004418 
L 432.57905 142.908518 
L 433.047122 142.432116 
L 434.451337 142.966528 
L 434.919409 142.169363 
L 435.38748 142.041136 
L 435.855552 140.677386 
L 436.323624 139.718348 
L 436.791696 139.49617 
L 438.195911 138.213684 
L 438.663982 139.316351 
L 439.132054 138.914308 
L 439.600126 139.397921 
L 440.068198 139.21589 
L 440.536269 139.629582 
L 441.004341 138.111021 
L 441.472413 138.973913 
L 441.940484 139.204435 
L 442.408556 138.835149 
L 443.3447 139.645449 
L 443.812771 138.169081 
L 444.280843 137.566448 
L 444.748915 136.550093 
L 445.216986 135.192605 
L 445.685058 136.643271 
L 446.621202 151.18227 
L 447.089273 151.551687 
L 447.557345 151.65954 
L 448.025417 151.255768 
L 448.493489 150.227992 
L 448.96156 148.782648 
L 449.429632 153.8585 
L 449.897704 155.84782 
L 450.365775 154.768856 
L 450.833847 152.395712 
L 451.301919 153.969888 
L 452.238062 143.650503 
L 452.706134 142.674857 
L 453.174206 142.32307 
L 453.642277 143.467422 
L 454.110349 142.595197 
L 454.578421 142.994704 
L 455.046493 144.394772 
L 455.514564 144.070971 
L 455.982636 142.592567 
L 456.918779 145.747564 
L 457.386851 145.311283 
L 457.854923 146.60945 
L 458.322995 149.010532 
L 458.791066 148.153559 
L 459.259138 151.877804 
L 459.72721 159.636842 
L 460.195282 161.715939 
L 460.663353 169.80603 
L 461.131425 173.028409 
L 461.599497 183.599332 
L 462.067568 180.299675 
L 462.53564 191.904781 
L 463.003712 197.727788 
L 463.471784 200.307892 
L 463.939855 195.807322 
L 464.407927 200.041836 
L 464.875999 196.585244 
L 465.34407 189.824497 
L 465.812142 190.294767 
L 466.280214 194.329571 
L 466.748286 193.333799 
L 467.216357 183.272864 
L 467.684429 183.747058 
L 468.152501 180.844243 
L 468.620573 173.438756 
L 469.088644 173.435763 
L 469.556716 175.97486 
L 470.024788 176.133735 
L 470.492859 174.296636 
L 470.960931 175.030227 
L 471.429003 178.308885 
L 471.897075 172.678245 
L 472.833218 180.676856 
L 473.30129 190.371513 
L 473.769361 190.20994 
L 474.237433 189.913038 
L 474.705505 188.07356 
L 475.173577 189.032832 
L 475.641648 186.416106 
L 476.10972 187.463314 
L 477.045863 185.572989 
L 477.513935 184.009998 
L 477.982007 181.902431 
L 478.450079 180.736508 
L 478.91815 173.020516 
L 479.386222 171.569791 
L 479.854294 179.745977 
L 480.790437 204.180982 
L 481.258509 211.895497 
L 481.726581 223.93778 
L 482.194652 231.635046 
L 483.130796 241.983112 
L 483.598868 244.069378 
L 484.066939 247.252084 
L 484.535011 244.510919 
L 485.003083 245.180552 
L 485.471154 238.739746 
L 485.939226 235.305248 
L 486.407298 228.585435 
L 486.87537 229.13038 
L 487.343441 224.187417 
L 487.811513 226.028805 
L 488.279585 228.530758 
L 488.747656 229.255355 
L 489.215728 227.374487 
L 489.6838 223.070249 
L 490.151872 223.906631 
L 490.619943 224.330194 
L 491.088015 224.276368 
L 491.556087 226.829859 
L 492.024159 225.900114 
L 492.49223 216.808483 
L 492.960302 215.94064 
L 493.428374 213.904637 
L 493.896445 215.179871 
L 494.364517 212.691595 
L 494.832589 209.348197 
L 495.300661 213.514512 
L 495.768732 220.660825 
L 496.236804 219.778868 
L 496.704876 214.539221 
L 497.172947 215.892417 
L 497.641019 210.308456 
L 497.641019 210.308456 
" clip-path="url(#pdab3f7e6e7)" style="fill: none; stroke: #ff7f0e; stroke-width: 1.5; stroke-linecap: round"/>
   </g>
   <g id="patch_3">
    <path d="M 72 384.48 
L 72 51.84 
" style="fill: none; stroke: #ffffff; stroke-width: 0.8; stroke-linejoin: miter; stroke-linecap: square"/>
   </g>
   <g id="patch_4">
    <path d="M 518.4 384.48 
L 518.4 51.84 
" style="fill: none; stroke: #ffffff; stroke-width: 0.8; stroke-linejoin: miter; stroke-linecap: square"/>
   </g>
   <g id="patch_5">
    <path d="M 72 384.48 
L 518.4 384.48 
" style="fill: none; stroke: #ffffff; stroke-width: 0.8; stroke-linejoin: miter; stroke-linecap: square"/>
   </g>
   <g id="patch_6">
    <path d="M 72 51.84 
L 518.4 51.84 
" style="fill: none; stroke: #ffffff; stroke-width: 0.8; stroke-linejoin: miter; stroke-linecap: square"/>
   </g>
   <g id="text_15">
    <!-- Average Temperature Prediction 11 Days Ahead -->
    <g style="fill: #262626" transform="translate(167.454375 45.84) scale(0.12 -0.12)">
     <defs>
      <path id="ArialMT-41" d="M -9 0 
L 1750 4581 
L 2403 4581 
L 4278 0 
L 3588 0 
L 3053 1388 
L 1138 1388 
L 634 0 
L -9 0 
z
M 1313 1881 
L 2866 1881 
L 2388 3150 
Q 2169 3728 2063 4100 
Q 1975 3659 1816 3225 
L 1313 1881 
z
" transform="scale(0.015625)"/>
      <path id="ArialMT-76" d="M 1344 0 
L 81 3319 
L 675 3319 
L 1388 1331 
Q 1503 1009 1600 663 
Q 1675 925 1809 1294 
L 2547 3319 
L 3125 3319 
L 1869 0 
L 1344 0 
z
" transform="scale(0.015625)"/>
      <path id="ArialMT-65" d="M 2694 1069 
L 3275 997 
Q 3138 488 2766 206 
Q 2394 -75 1816 -75 
Q 1088 -75 661 373 
Q 234 822 234 1631 
Q 234 2469 665 2931 
Q 1097 3394 1784 3394 
Q 2450 3394 2872 2941 
Q 3294 2488 3294 1666 
Q 3294 1616 3291 1516 
L 816 1516 
Q 847 969 1125 678 
Q 1403 388 1819 388 
Q 2128 388 2347 550 
Q 2566 713 2694 1069 
z
M 847 1978 
L 2700 1978 
Q 2663 2397 2488 2606 
Q 2219 2931 1791 2931 
Q 1403 2931 1139 2672 
Q 875 2413 847 1978 
z
" transform="scale(0.015625)"/>
      <path id="ArialMT-72" d="M 416 0 
L 416 3319 
L 922 3319 
L 922 2816 
Q 1116 3169 1280 3281 
Q 1444 3394 1641 3394 
Q 1925 3394 2219 3213 
L 2025 2691 
Q 1819 2813 1613 2813 
Q 1428 2813 1281 2702 
Q 1134 2591 1072 2394 
Q 978 2094 978 1738 
L 978 0 
L 416 0 
z
" transform="scale(0.015625)"/>
      <path id="ArialMT-67" d="M 319 -275 
L 866 -356 
Q 900 -609 1056 -725 
Q 1266 -881 1628 -881 
Q 2019 -881 2231 -725 
Q 2444 -569 2519 -288 
Q 2563 -116 2559 434 
Q 2191 0 1641 0 
Q 956 0 581 494 
Q 206 988 206 1678 
Q 206 2153 378 2554 
Q 550 2956 876 3175 
Q 1203 3394 1644 3394 
Q 2231 3394 2613 2919 
L 2613 3319 
L 3131 3319 
L 3131 450 
Q 3131 -325 2973 -648 
Q 2816 -972 2473 -1159 
Q 2131 -1347 1631 -1347 
Q 1038 -1347 672 -1080 
Q 306 -813 319 -275 
z
M 784 1719 
Q 784 1066 1043 766 
Q 1303 466 1694 466 
Q 2081 466 2343 764 
Q 2606 1063 2606 1700 
Q 2606 2309 2336 2618 
Q 2066 2928 1684 2928 
Q 1309 2928 1046 2623 
Q 784 2319 784 1719 
z
" transform="scale(0.015625)"/>
      <path id="ArialMT-20" transform="scale(0.015625)"/>
      <path id="ArialMT-54" d="M 1659 0 
L 1659 4041 
L 150 4041 
L 150 4581 
L 3781 4581 
L 3781 4041 
L 2266 4041 
L 2266 0 
L 1659 0 
z
" transform="scale(0.015625)"/>
      <path id="ArialMT-6d" d="M 422 0 
L 422 3319 
L 925 3319 
L 925 2853 
Q 1081 3097 1340 3245 
Q 1600 3394 1931 3394 
Q 2300 3394 2536 3241 
Q 2772 3088 2869 2813 
Q 3263 3394 3894 3394 
Q 4388 3394 4653 3120 
Q 4919 2847 4919 2278 
L 4919 0 
L 4359 0 
L 4359 2091 
Q 4359 2428 4304 2576 
Q 4250 2725 4106 2815 
Q 3963 2906 3769 2906 
Q 3419 2906 3187 2673 
Q 2956 2441 2956 1928 
L 2956 0 
L 2394 0 
L 2394 2156 
Q 2394 2531 2256 2718 
Q 2119 2906 1806 2906 
Q 1569 2906 1367 2781 
Q 1166 2656 1075 2415 
Q 984 2175 984 1722 
L 984 0 
L 422 0 
z
" transform="scale(0.015625)"/>
      <path id="ArialMT-70" d="M 422 -1272 
L 422 3319 
L 934 3319 
L 934 2888 
Q 1116 3141 1344 3267 
Q 1572 3394 1897 3394 
Q 2322 3394 2647 3175 
Q 2972 2956 3137 2557 
Q 3303 2159 3303 1684 
Q 3303 1175 3120 767 
Q 2938 359 2589 142 
Q 2241 -75 1856 -75 
Q 1575 -75 1351 44 
Q 1128 163 984 344 
L 984 -1272 
L 422 -1272 
z
M 931 1641 
Q 931 1000 1190 694 
Q 1450 388 1819 388 
Q 2194 388 2461 705 
Q 2728 1022 2728 1688 
Q 2728 2322 2467 2637 
Q 2206 2953 1844 2953 
Q 1484 2953 1207 2617 
Q 931 2281 931 1641 
z
" transform="scale(0.015625)"/>
      <path id="ArialMT-74" d="M 1650 503 
L 1731 6 
Q 1494 -44 1306 -44 
Q 1000 -44 831 53 
Q 663 150 594 308 
Q 525 466 525 972 
L 525 2881 
L 113 2881 
L 113 3319 
L 525 3319 
L 525 4141 
L 1084 4478 
L 1084 3319 
L 1650 3319 
L 1650 2881 
L 1084 2881 
L 1084 941 
Q 1084 700 1114 631 
Q 1144 563 1211 522 
Q 1278 481 1403 481 
Q 1497 481 1650 503 
z
" transform="scale(0.015625)"/>
      <path id="ArialMT-75" d="M 2597 0 
L 2597 488 
Q 2209 -75 1544 -75 
Q 1250 -75 995 37 
Q 741 150 617 320 
Q 494 491 444 738 
Q 409 903 409 1263 
L 409 3319 
L 972 3319 
L 972 1478 
Q 972 1038 1006 884 
Q 1059 663 1231 536 
Q 1403 409 1656 409 
Q 1909 409 2131 539 
Q 2353 669 2445 892 
Q 2538 1116 2538 1541 
L 2538 3319 
L 3100 3319 
L 3100 0 
L 2597 0 
z
" transform="scale(0.015625)"/>
      <path id="ArialMT-50" d="M 494 0 
L 494 4581 
L 2222 4581 
Q 2678 4581 2919 4538 
Q 3256 4481 3484 4323 
Q 3713 4166 3852 3881 
Q 3991 3597 3991 3256 
Q 3991 2672 3619 2267 
Q 3247 1863 2275 1863 
L 1100 1863 
L 1100 0 
L 494 0 
z
M 1100 2403 
L 2284 2403 
Q 2872 2403 3119 2622 
Q 3366 2841 3366 3238 
Q 3366 3525 3220 3729 
Q 3075 3934 2838 4000 
Q 2684 4041 2272 4041 
L 1100 4041 
L 1100 2403 
z
" transform="scale(0.015625)"/>
      <path id="ArialMT-64" d="M 2575 0 
L 2575 419 
Q 2259 -75 1647 -75 
Q 1250 -75 917 144 
Q 584 363 401 755 
Q 219 1147 219 1656 
Q 219 2153 384 2558 
Q 550 2963 881 3178 
Q 1213 3394 1622 3394 
Q 1922 3394 2156 3267 
Q 2391 3141 2538 2938 
L 2538 4581 
L 3097 4581 
L 3097 0 
L 2575 0 
z
M 797 1656 
Q 797 1019 1065 703 
Q 1334 388 1700 388 
Q 2069 388 2326 689 
Q 2584 991 2584 1609 
Q 2584 2291 2321 2609 
Q 2059 2928 1675 2928 
Q 1300 2928 1048 2622 
Q 797 2316 797 1656 
z
" transform="scale(0.015625)"/>
      <path id="ArialMT-69" d="M 425 3934 
L 425 4581 
L 988 4581 
L 988 3934 
L 425 3934 
z
M 425 0 
L 425 3319 
L 988 3319 
L 988 0 
L 425 0 
z
" transform="scale(0.015625)"/>
      <path id="ArialMT-63" d="M 2588 1216 
L 3141 1144 
Q 3050 572 2676 248 
Q 2303 -75 1759 -75 
Q 1078 -75 664 370 
Q 250 816 250 1647 
Q 250 2184 428 2587 
Q 606 2991 970 3192 
Q 1334 3394 1763 3394 
Q 2303 3394 2647 3120 
Q 2991 2847 3088 2344 
L 2541 2259 
Q 2463 2594 2264 2762 
Q 2066 2931 1784 2931 
Q 1359 2931 1093 2626 
Q 828 2322 828 1663 
Q 828 994 1084 691 
Q 1341 388 1753 388 
Q 2084 388 2306 591 
Q 2528 794 2588 1216 
z
" transform="scale(0.015625)"/>
      <path id="ArialMT-6f" d="M 213 1659 
Q 213 2581 725 3025 
Q 1153 3394 1769 3394 
Q 2453 3394 2887 2945 
Q 3322 2497 3322 1706 
Q 3322 1066 3130 698 
Q 2938 331 2570 128 
Q 2203 -75 1769 -75 
Q 1072 -75 642 372 
Q 213 819 213 1659 
z
M 791 1659 
Q 791 1022 1069 705 
Q 1347 388 1769 388 
Q 2188 388 2466 706 
Q 2744 1025 2744 1678 
Q 2744 2294 2464 2611 
Q 2184 2928 1769 2928 
Q 1347 2928 1069 2612 
Q 791 2297 791 1659 
z
" transform="scale(0.015625)"/>
      <path id="ArialMT-6e" d="M 422 0 
L 422 3319 
L 928 3319 
L 928 2847 
Q 1294 3394 1984 3394 
Q 2284 3394 2536 3286 
Q 2788 3178 2913 3003 
Q 3038 2828 3088 2588 
Q 3119 2431 3119 2041 
L 3119 0 
L 2556 0 
L 2556 2019 
Q 2556 2363 2490 2533 
Q 2425 2703 2258 2804 
Q 2091 2906 1866 2906 
Q 1506 2906 1245 2678 
Q 984 2450 984 1813 
L 984 0 
L 422 0 
z
" transform="scale(0.015625)"/>
      <path id="ArialMT-68" d="M 422 0 
L 422 4581 
L 984 4581 
L 984 2938 
Q 1378 3394 1978 3394 
Q 2347 3394 2619 3248 
Q 2891 3103 3008 2847 
Q 3125 2591 3125 2103 
L 3125 0 
L 2563 0 
L 2563 2103 
Q 2563 2525 2380 2717 
Q 2197 2909 1863 2909 
Q 1613 2909 1392 2779 
Q 1172 2650 1078 2428 
Q 984 2206 984 1816 
L 984 0 
L 422 0 
z
" transform="scale(0.015625)"/>
     </defs>
     <use xlink:href="#ArialMT-41"/>
     <use xlink:href="#ArialMT-76" x="64.949219"/>
     <use xlink:href="#ArialMT-65" x="114.949219"/>
     <use xlink:href="#ArialMT-72" x="170.564453"/>
     <use xlink:href="#ArialMT-61" x="203.865234"/>
     <use xlink:href="#ArialMT-67" x="259.480469"/>
     <use xlink:href="#ArialMT-65" x="315.095703"/>
     <use xlink:href="#ArialMT-20" x="370.710938"/>
     <use xlink:href="#ArialMT-54" x="396.744141"/>
     <use xlink:href="#ArialMT-65" x="446.703125"/>
     <use xlink:href="#ArialMT-6d" x="502.318359"/>
     <use xlink:href="#ArialMT-70" x="585.619141"/>
     <use xlink:href="#ArialMT-65" x="641.234375"/>
     <use xlink:href="#ArialMT-72" x="696.849609"/>
     <use xlink:href="#ArialMT-61" x="730.150391"/>
     <use xlink:href="#ArialMT-74" x="785.765625"/>
     <use xlink:href="#ArialMT-75" x="813.548828"/>
     <use xlink:href="#ArialMT-72" x="869.164062"/>
     <use xlink:href="#ArialMT-65" x="902.464844"/>
     <use xlink:href="#ArialMT-20" x="958.080078"/>
     <use xlink:href="#ArialMT-50" x="985.863281"/>
     <use xlink:href="#ArialMT-72" x="1052.5625"/>
     <use xlink:href="#ArialMT-65" x="1085.863281"/>
     <use xlink:href="#ArialMT-64" x="1141.478516"/>
     <use xlink:href="#ArialMT-69" x="1197.09375"/>
     <use xlink:href="#ArialMT-63" x="1219.310547"/>
     <use xlink:href="#ArialMT-74" x="1269.310547"/>
     <use xlink:href="#ArialMT-69" x="1297.09375"/>
     <use xlink:href="#ArialMT-6f" x="1319.310547"/>
     <use xlink:href="#ArialMT-6e" x="1374.925781"/>
     <use xlink:href="#ArialMT-20" x="1430.541016"/>
     <use xlink:href="#ArialMT-31" x="1458.324219"/>
     <use xlink:href="#ArialMT-31" x="1506.564453"/>
     <use xlink:href="#ArialMT-20" x="1562.179688"/>
     <use xlink:href="#ArialMT-44" x="1589.962891"/>
     <use xlink:href="#ArialMT-61" x="1662.179688"/>
     <use xlink:href="#ArialMT-79" x="1717.794922"/>
     <use xlink:href="#ArialMT-73" x="1767.794922"/>
     <use xlink:href="#ArialMT-20" x="1817.794922"/>
     <use xlink:href="#ArialMT-41" x="1840.078125"/>
     <use xlink:href="#ArialMT-68" x="1906.777344"/>
     <use xlink:href="#ArialMT-65" x="1962.392578"/>
     <use xlink:href="#ArialMT-61" x="2018.007812"/>
     <use xlink:href="#ArialMT-64" x="2073.623047"/>
    </g>
   </g>
   <g id="legend_1">
    <g id="patch_7">
     <path d="M 437.15625 88.130625 
L 511.4 88.130625 
Q 513.4 88.130625 513.4 86.130625 
L 513.4 58.84 
Q 513.4 56.84 511.4 56.84 
L 437.15625 56.84 
Q 435.15625 56.84 435.15625 58.84 
L 435.15625 86.130625 
Q 435.15625 88.130625 437.15625 88.130625 
z
" style="fill: #eaeaf2; opacity: 0.8; stroke: #cccccc; stroke-linejoin: miter"/>
    </g>
    <g id="line2d_15">
     <path d="M 439.15625 64.497812 
L 449.15625 64.497812 
L 459.15625 64.497812 
" style="fill: none; stroke: #1f77b4; stroke-width: 1.5; stroke-linecap: round"/>
    </g>
    <g id="text_16">
     <!-- Real -->
     <g style="fill: #262626" transform="translate(467.15625 67.997812) scale(0.1 -0.1)">
      <defs>
       <path id="ArialMT-52" d="M 503 0 
L 503 4581 
L 2534 4581 
Q 3147 4581 3465 4457 
Q 3784 4334 3975 4021 
Q 4166 3709 4166 3331 
Q 4166 2844 3850 2509 
Q 3534 2175 2875 2084 
Q 3116 1969 3241 1856 
Q 3506 1613 3744 1247 
L 4541 0 
L 3778 0 
L 3172 953 
Q 2906 1366 2734 1584 
Q 2563 1803 2427 1890 
Q 2291 1978 2150 2013 
Q 2047 2034 1813 2034 
L 1109 2034 
L 1109 0 
L 503 0 
z
M 1109 2559 
L 2413 2559 
Q 2828 2559 3062 2645 
Q 3297 2731 3419 2920 
Q 3541 3109 3541 3331 
Q 3541 3656 3305 3865 
Q 3069 4075 2559 4075 
L 1109 4075 
L 1109 2559 
z
" transform="scale(0.015625)"/>
       <path id="ArialMT-6c" d="M 409 0 
L 409 4581 
L 972 4581 
L 972 0 
L 409 0 
z
" transform="scale(0.015625)"/>
      </defs>
      <use xlink:href="#ArialMT-52"/>
      <use xlink:href="#ArialMT-65" x="72.216797"/>
      <use xlink:href="#ArialMT-61" x="127.832031"/>
      <use xlink:href="#ArialMT-6c" x="183.447266"/>
     </g>
    </g>
    <g id="line2d_16">
     <path d="M 439.15625 78.643125 
L 449.15625 78.643125 
L 459.15625 78.643125 
" style="fill: none; stroke: #ff7f0e; stroke-width: 1.5; stroke-linecap: round"/>
    </g>
    <g id="text_17">
     <!-- Predicted -->
     <g style="fill: #262626" transform="translate(467.15625 82.143125) scale(0.1 -0.1)">
      <use xlink:href="#ArialMT-50"/>
      <use xlink:href="#ArialMT-72" x="66.699219"/>
      <use xlink:href="#ArialMT-65" x="100"/>
      <use xlink:href="#ArialMT-64" x="155.615234"/>
      <use xlink:href="#ArialMT-69" x="211.230469"/>
      <use xlink:href="#ArialMT-63" x="233.447266"/>
      <use xlink:href="#ArialMT-74" x="283.447266"/>
      <use xlink:href="#ArialMT-65" x="311.230469"/>
      <use xlink:href="#ArialMT-64" x="366.845703"/>
     </g>
    </g>
   </g>
  </g>
 </g>
 <defs>
  <clipPath id="pdab3f7e6e7">
   <rect x="72" y="51.84" width="446.4" height="332.64"/>
  </clipPath>
 </defs>
</svg>
