<?xml version="1.0" encoding="utf-8" standalone="no"?>
<!DOCTYPE svg PUBLIC "-//W3C//DTD SVG 1.1//EN"
  "http://www.w3.org/Graphics/SVG/1.1/DTD/svg11.dtd">
<svg xmlns:xlink="http://www.w3.org/1999/xlink" width="576pt" height="432pt" viewBox="0 0 576 432" xmlns="http://www.w3.org/2000/svg" version="1.1">
 <metadata>
  <rdf:RDF xmlns:dc="http://purl.org/dc/elements/1.1/" xmlns:cc="http://creativecommons.org/ns#" xmlns:rdf="http://www.w3.org/1999/02/22-rdf-syntax-ns#">
   <cc:Work>
    <dc:type rdf:resource="http://purl.org/dc/dcmitype/StillImage"/>
    <dc:date>2023-11-17T05:15:43.805538</dc:date>
    <dc:format>image/svg+xml</dc:format>
    <dc:creator>
     <cc:Agent>
      <dc:title>Matplotlib v3.8.0, https://matplotlib.org/</dc:title>
     </cc:Agent>
    </dc:creator>
   </cc:Work>
  </rdf:RDF>
 </metadata>
 <defs>
  <style type="text/css">*{stroke-linejoin: round; stroke-linecap: butt}</style>
 </defs>
 <g id="figure_1">
  <g id="patch_1">
   <path d="M 0 432 
L 576 432 
L 576 0 
L 0 0 
z
" style="fill: #ffffff"/>
  </g>
  <g id="axes_1">
   <g id="patch_2">
    <path d="M 72 384.48 
L 518.4 384.48 
L 518.4 51.84 
L 72 51.84 
z
" style="fill: #eaeaf2"/>
   </g>
   <g id="matplotlib.axis_1">
    <g id="xtick_1">
     <g id="line2d_1">
      <path d="M 92.290909 384.48 
L 92.290909 51.84 
" clip-path="url(#pd3f917326a)" style="fill: none; stroke: #ffffff; stroke-width: 0.8; stroke-linecap: round"/>
     </g>
     <g id="text_1">
      <!-- 0 -->
      <g style="fill: #262626" transform="translate(89.51044 398.637812) scale(0.1 -0.1)">
       <defs>
        <path id="ArialMT-30" d="M 266 2259 
Q 266 3072 433 3567 
Q 600 4063 929 4331 
Q 1259 4600 1759 4600 
Q 2128 4600 2406 4451 
Q 2684 4303 2865 4023 
Q 3047 3744 3150 3342 
Q 3253 2941 3253 2259 
Q 3253 1453 3087 958 
Q 2922 463 2592 192 
Q 2263 -78 1759 -78 
Q 1097 -78 719 397 
Q 266 969 266 2259 
z
M 844 2259 
Q 844 1131 1108 757 
Q 1372 384 1759 384 
Q 2147 384 2411 759 
Q 2675 1134 2675 2259 
Q 2675 3391 2411 3762 
Q 2147 4134 1753 4134 
Q 1366 4134 1134 3806 
Q 844 3388 844 2259 
z
" transform="scale(0.015625)"/>
       </defs>
       <use xlink:href="#ArialMT-30"/>
      </g>
     </g>
    </g>
    <g id="xtick_2">
     <g id="line2d_2">
      <path d="M 185.905253 384.48 
L 185.905253 51.84 
" clip-path="url(#pd3f917326a)" style="fill: none; stroke: #ffffff; stroke-width: 0.8; stroke-linecap: round"/>
     </g>
     <g id="text_2">
      <!-- 200 -->
      <g style="fill: #262626" transform="translate(177.563847 398.637812) scale(0.1 -0.1)">
       <defs>
        <path id="ArialMT-32" d="M 3222 541 
L 3222 0 
L 194 0 
Q 188 203 259 391 
Q 375 700 629 1000 
Q 884 1300 1366 1694 
Q 2113 2306 2375 2664 
Q 2638 3022 2638 3341 
Q 2638 3675 2398 3904 
Q 2159 4134 1775 4134 
Q 1369 4134 1125 3890 
Q 881 3647 878 3216 
L 300 3275 
Q 359 3922 746 4261 
Q 1134 4600 1788 4600 
Q 2447 4600 2831 4234 
Q 3216 3869 3216 3328 
Q 3216 3053 3103 2787 
Q 2991 2522 2730 2228 
Q 2469 1934 1863 1422 
Q 1356 997 1212 845 
Q 1069 694 975 541 
L 3222 541 
z
" transform="scale(0.015625)"/>
       </defs>
       <use xlink:href="#ArialMT-32"/>
       <use xlink:href="#ArialMT-30" x="55.615234"/>
       <use xlink:href="#ArialMT-30" x="111.230469"/>
      </g>
     </g>
    </g>
    <g id="xtick_3">
     <g id="line2d_3">
      <path d="M 279.519597 384.48 
L 279.519597 51.84 
" clip-path="url(#pd3f917326a)" style="fill: none; stroke: #ffffff; stroke-width: 0.8; stroke-linecap: round"/>
     </g>
     <g id="text_3">
      <!-- 400 -->
      <g style="fill: #262626" transform="translate(271.178191 398.637812) scale(0.1 -0.1)">
       <defs>
        <path id="ArialMT-34" d="M 2069 0 
L 2069 1097 
L 81 1097 
L 81 1613 
L 2172 4581 
L 2631 4581 
L 2631 1613 
L 3250 1613 
L 3250 1097 
L 2631 1097 
L 2631 0 
L 2069 0 
z
M 2069 1613 
L 2069 3678 
L 634 1613 
L 2069 1613 
z
" transform="scale(0.015625)"/>
       </defs>
       <use xlink:href="#ArialMT-34"/>
       <use xlink:href="#ArialMT-30" x="55.615234"/>
       <use xlink:href="#ArialMT-30" x="111.230469"/>
      </g>
     </g>
    </g>
    <g id="xtick_4">
     <g id="line2d_4">
      <path d="M 373.133941 384.48 
L 373.133941 51.84 
" clip-path="url(#pd3f917326a)" style="fill: none; stroke: #ffffff; stroke-width: 0.8; stroke-linecap: round"/>
     </g>
     <g id="text_4">
      <!-- 600 -->
      <g style="fill: #262626" transform="translate(364.792535 398.637812) scale(0.1 -0.1)">
       <defs>
        <path id="ArialMT-36" d="M 3184 3459 
L 2625 3416 
Q 2550 3747 2413 3897 
Q 2184 4138 1850 4138 
Q 1581 4138 1378 3988 
Q 1113 3794 959 3422 
Q 806 3050 800 2363 
Q 1003 2672 1297 2822 
Q 1591 2972 1913 2972 
Q 2475 2972 2870 2558 
Q 3266 2144 3266 1488 
Q 3266 1056 3080 686 
Q 2894 316 2569 119 
Q 2244 -78 1831 -78 
Q 1128 -78 684 439 
Q 241 956 241 2144 
Q 241 3472 731 4075 
Q 1159 4600 1884 4600 
Q 2425 4600 2770 4297 
Q 3116 3994 3184 3459 
z
M 888 1484 
Q 888 1194 1011 928 
Q 1134 663 1356 523 
Q 1578 384 1822 384 
Q 2178 384 2434 671 
Q 2691 959 2691 1453 
Q 2691 1928 2437 2201 
Q 2184 2475 1800 2475 
Q 1419 2475 1153 2201 
Q 888 1928 888 1484 
z
" transform="scale(0.015625)"/>
       </defs>
       <use xlink:href="#ArialMT-36"/>
       <use xlink:href="#ArialMT-30" x="55.615234"/>
       <use xlink:href="#ArialMT-30" x="111.230469"/>
      </g>
     </g>
    </g>
    <g id="xtick_5">
     <g id="line2d_5">
      <path d="M 466.748286 384.48 
L 466.748286 51.84 
" clip-path="url(#pd3f917326a)" style="fill: none; stroke: #ffffff; stroke-width: 0.8; stroke-linecap: round"/>
     </g>
     <g id="text_5">
      <!-- 800 -->
      <g style="fill: #262626" transform="translate(458.406879 398.637812) scale(0.1 -0.1)">
       <defs>
        <path id="ArialMT-38" d="M 1131 2484 
Q 781 2613 612 2850 
Q 444 3088 444 3419 
Q 444 3919 803 4259 
Q 1163 4600 1759 4600 
Q 2359 4600 2725 4251 
Q 3091 3903 3091 3403 
Q 3091 3084 2923 2848 
Q 2756 2613 2416 2484 
Q 2838 2347 3058 2040 
Q 3278 1734 3278 1309 
Q 3278 722 2862 322 
Q 2447 -78 1769 -78 
Q 1091 -78 675 323 
Q 259 725 259 1325 
Q 259 1772 486 2073 
Q 713 2375 1131 2484 
z
M 1019 3438 
Q 1019 3113 1228 2906 
Q 1438 2700 1772 2700 
Q 2097 2700 2305 2904 
Q 2513 3109 2513 3406 
Q 2513 3716 2298 3927 
Q 2084 4138 1766 4138 
Q 1444 4138 1231 3931 
Q 1019 3725 1019 3438 
z
M 838 1322 
Q 838 1081 952 856 
Q 1066 631 1291 507 
Q 1516 384 1775 384 
Q 2178 384 2440 643 
Q 2703 903 2703 1303 
Q 2703 1709 2433 1975 
Q 2163 2241 1756 2241 
Q 1359 2241 1098 1978 
Q 838 1716 838 1322 
z
" transform="scale(0.015625)"/>
       </defs>
       <use xlink:href="#ArialMT-38"/>
       <use xlink:href="#ArialMT-30" x="55.615234"/>
       <use xlink:href="#ArialMT-30" x="111.230469"/>
      </g>
     </g>
    </g>
    <g id="text_6">
     <!-- Days -->
     <g style="fill: #262626" transform="translate(283.808594 411.783125) scale(0.1 -0.1)">
      <defs>
       <path id="ArialMT-44" d="M 494 0 
L 494 4581 
L 2072 4581 
Q 2606 4581 2888 4516 
Q 3281 4425 3559 4188 
Q 3922 3881 4101 3404 
Q 4281 2928 4281 2316 
Q 4281 1794 4159 1391 
Q 4038 988 3847 723 
Q 3656 459 3429 307 
Q 3203 156 2883 78 
Q 2563 0 2147 0 
L 494 0 
z
M 1100 541 
L 2078 541 
Q 2531 541 2789 625 
Q 3047 709 3200 863 
Q 3416 1078 3536 1442 
Q 3656 1806 3656 2325 
Q 3656 3044 3420 3430 
Q 3184 3816 2847 3947 
Q 2603 4041 2063 4041 
L 1100 4041 
L 1100 541 
z
" transform="scale(0.015625)"/>
       <path id="ArialMT-61" d="M 2588 409 
Q 2275 144 1986 34 
Q 1697 -75 1366 -75 
Q 819 -75 525 192 
Q 231 459 231 875 
Q 231 1119 342 1320 
Q 453 1522 633 1644 
Q 813 1766 1038 1828 
Q 1203 1872 1538 1913 
Q 2219 1994 2541 2106 
Q 2544 2222 2544 2253 
Q 2544 2597 2384 2738 
Q 2169 2928 1744 2928 
Q 1347 2928 1158 2789 
Q 969 2650 878 2297 
L 328 2372 
Q 403 2725 575 2942 
Q 747 3159 1072 3276 
Q 1397 3394 1825 3394 
Q 2250 3394 2515 3294 
Q 2781 3194 2906 3042 
Q 3031 2891 3081 2659 
Q 3109 2516 3109 2141 
L 3109 1391 
Q 3109 606 3145 398 
Q 3181 191 3288 0 
L 2700 0 
Q 2613 175 2588 409 
z
M 2541 1666 
Q 2234 1541 1622 1453 
Q 1275 1403 1131 1340 
Q 988 1278 909 1158 
Q 831 1038 831 891 
Q 831 666 1001 516 
Q 1172 366 1500 366 
Q 1825 366 2078 508 
Q 2331 650 2450 897 
Q 2541 1088 2541 1459 
L 2541 1666 
z
" transform="scale(0.015625)"/>
       <path id="ArialMT-79" d="M 397 -1278 
L 334 -750 
Q 519 -800 656 -800 
Q 844 -800 956 -737 
Q 1069 -675 1141 -563 
Q 1194 -478 1313 -144 
Q 1328 -97 1363 -6 
L 103 3319 
L 709 3319 
L 1400 1397 
Q 1534 1031 1641 628 
Q 1738 1016 1872 1384 
L 2581 3319 
L 3144 3319 
L 1881 -56 
Q 1678 -603 1566 -809 
Q 1416 -1088 1222 -1217 
Q 1028 -1347 759 -1347 
Q 597 -1347 397 -1278 
z
" transform="scale(0.015625)"/>
       <path id="ArialMT-73" d="M 197 991 
L 753 1078 
Q 800 744 1014 566 
Q 1228 388 1613 388 
Q 2000 388 2187 545 
Q 2375 703 2375 916 
Q 2375 1106 2209 1216 
Q 2094 1291 1634 1406 
Q 1016 1563 777 1677 
Q 538 1791 414 1992 
Q 291 2194 291 2438 
Q 291 2659 392 2848 
Q 494 3038 669 3163 
Q 800 3259 1026 3326 
Q 1253 3394 1513 3394 
Q 1903 3394 2198 3281 
Q 2494 3169 2634 2976 
Q 2775 2784 2828 2463 
L 2278 2388 
Q 2241 2644 2061 2787 
Q 1881 2931 1553 2931 
Q 1166 2931 1000 2803 
Q 834 2675 834 2503 
Q 834 2394 903 2306 
Q 972 2216 1119 2156 
Q 1203 2125 1616 2013 
Q 2213 1853 2448 1751 
Q 2684 1650 2818 1456 
Q 2953 1263 2953 975 
Q 2953 694 2789 445 
Q 2625 197 2315 61 
Q 2006 -75 1616 -75 
Q 969 -75 630 194 
Q 291 463 197 991 
z
" transform="scale(0.015625)"/>
      </defs>
      <use xlink:href="#ArialMT-44"/>
      <use xlink:href="#ArialMT-61" x="72.216797"/>
      <use xlink:href="#ArialMT-79" x="127.832031"/>
      <use xlink:href="#ArialMT-73" x="177.832031"/>
     </g>
    </g>
   </g>
   <g id="matplotlib.axis_2">
    <g id="ytick_1">
     <g id="line2d_6">
      <path d="M 72 375.36883 
L 518.4 375.36883 
" clip-path="url(#pd3f917326a)" style="fill: none; stroke: #ffffff; stroke-width: 0.8; stroke-linecap: round"/>
     </g>
     <g id="text_7">
      <!-- 5 -->
      <g style="fill: #262626" transform="translate(59.439062 378.947737) scale(0.1 -0.1)">
       <defs>
        <path id="ArialMT-35" d="M 266 1200 
L 856 1250 
Q 922 819 1161 601 
Q 1400 384 1738 384 
Q 2144 384 2425 690 
Q 2706 997 2706 1503 
Q 2706 1984 2436 2262 
Q 2166 2541 1728 2541 
Q 1456 2541 1237 2417 
Q 1019 2294 894 2097 
L 366 2166 
L 809 4519 
L 3088 4519 
L 3088 3981 
L 1259 3981 
L 1013 2750 
Q 1425 3038 1878 3038 
Q 2478 3038 2890 2622 
Q 3303 2206 3303 1553 
Q 3303 931 2941 478 
Q 2500 -78 1738 -78 
Q 1113 -78 717 272 
Q 322 622 266 1200 
z
" transform="scale(0.015625)"/>
       </defs>
       <use xlink:href="#ArialMT-35"/>
      </g>
     </g>
    </g>
    <g id="ytick_2">
     <g id="line2d_7">
      <path d="M 72 324.827267 
L 518.4 324.827267 
" clip-path="url(#pd3f917326a)" style="fill: none; stroke: #ffffff; stroke-width: 0.8; stroke-linecap: round"/>
     </g>
     <g id="text_8">
      <!-- 10 -->
      <g style="fill: #262626" transform="translate(53.878125 328.406173) scale(0.1 -0.1)">
       <defs>
        <path id="ArialMT-31" d="M 2384 0 
L 1822 0 
L 1822 3584 
Q 1619 3391 1289 3197 
Q 959 3003 697 2906 
L 697 3450 
Q 1169 3672 1522 3987 
Q 1875 4303 2022 4600 
L 2384 4600 
L 2384 0 
z
" transform="scale(0.015625)"/>
       </defs>
       <use xlink:href="#ArialMT-31"/>
       <use xlink:href="#ArialMT-30" x="55.615234"/>
      </g>
     </g>
    </g>
    <g id="ytick_3">
     <g id="line2d_8">
      <path d="M 72 274.285704 
L 518.4 274.285704 
" clip-path="url(#pd3f917326a)" style="fill: none; stroke: #ffffff; stroke-width: 0.8; stroke-linecap: round"/>
     </g>
     <g id="text_9">
      <!-- 15 -->
      <g style="fill: #262626" transform="translate(53.878125 277.86461) scale(0.1 -0.1)">
       <use xlink:href="#ArialMT-31"/>
       <use xlink:href="#ArialMT-35" x="55.615234"/>
      </g>
     </g>
    </g>
    <g id="ytick_4">
     <g id="line2d_9">
      <path d="M 72 223.744141 
L 518.4 223.744141 
" clip-path="url(#pd3f917326a)" style="fill: none; stroke: #ffffff; stroke-width: 0.8; stroke-linecap: round"/>
     </g>
     <g id="text_10">
      <!-- 20 -->
      <g style="fill: #262626" transform="translate(53.878125 227.323047) scale(0.1 -0.1)">
       <use xlink:href="#ArialMT-32"/>
       <use xlink:href="#ArialMT-30" x="55.615234"/>
      </g>
     </g>
    </g>
    <g id="ytick_5">
     <g id="line2d_10">
      <path d="M 72 173.202578 
L 518.4 173.202578 
" clip-path="url(#pd3f917326a)" style="fill: none; stroke: #ffffff; stroke-width: 0.8; stroke-linecap: round"/>
     </g>
     <g id="text_11">
      <!-- 25 -->
      <g style="fill: #262626" transform="translate(53.878125 176.781484) scale(0.1 -0.1)">
       <use xlink:href="#ArialMT-32"/>
       <use xlink:href="#ArialMT-35" x="55.615234"/>
      </g>
     </g>
    </g>
    <g id="ytick_6">
     <g id="line2d_11">
      <path d="M 72 122.661014 
L 518.4 122.661014 
" clip-path="url(#pd3f917326a)" style="fill: none; stroke: #ffffff; stroke-width: 0.8; stroke-linecap: round"/>
     </g>
     <g id="text_12">
      <!-- 30 -->
      <g style="fill: #262626" transform="translate(53.878125 126.239921) scale(0.1 -0.1)">
       <defs>
        <path id="ArialMT-33" d="M 269 1209 
L 831 1284 
Q 928 806 1161 595 
Q 1394 384 1728 384 
Q 2125 384 2398 659 
Q 2672 934 2672 1341 
Q 2672 1728 2419 1979 
Q 2166 2231 1775 2231 
Q 1616 2231 1378 2169 
L 1441 2663 
Q 1497 2656 1531 2656 
Q 1891 2656 2178 2843 
Q 2466 3031 2466 3422 
Q 2466 3731 2256 3934 
Q 2047 4138 1716 4138 
Q 1388 4138 1169 3931 
Q 950 3725 888 3313 
L 325 3413 
Q 428 3978 793 4289 
Q 1159 4600 1703 4600 
Q 2078 4600 2393 4439 
Q 2709 4278 2876 4000 
Q 3044 3722 3044 3409 
Q 3044 3113 2884 2869 
Q 2725 2625 2413 2481 
Q 2819 2388 3044 2092 
Q 3269 1797 3269 1353 
Q 3269 753 2831 336 
Q 2394 -81 1725 -81 
Q 1122 -81 723 278 
Q 325 638 269 1209 
z
" transform="scale(0.015625)"/>
       </defs>
       <use xlink:href="#ArialMT-33"/>
       <use xlink:href="#ArialMT-30" x="55.615234"/>
      </g>
     </g>
    </g>
    <g id="ytick_7">
     <g id="line2d_12">
      <path d="M 72 72.119451 
L 518.4 72.119451 
" clip-path="url(#pd3f917326a)" style="fill: none; stroke: #ffffff; stroke-width: 0.8; stroke-linecap: round"/>
     </g>
     <g id="text_13">
      <!-- 35 -->
      <g style="fill: #262626" transform="translate(53.878125 75.698357) scale(0.1 -0.1)">
       <use xlink:href="#ArialMT-33"/>
       <use xlink:href="#ArialMT-35" x="55.615234"/>
      </g>
     </g>
    </g>
    <g id="text_14">
     <!-- (°C) -->
     <g style="fill: #262626" transform="translate(47.773438 227.099844) rotate(-90) scale(0.1 -0.1)">
      <defs>
       <path id="ArialMT-28" d="M 1497 -1347 
Q 1031 -759 709 28 
Q 388 816 388 1659 
Q 388 2403 628 3084 
Q 909 3875 1497 4659 
L 1900 4659 
Q 1522 4009 1400 3731 
Q 1209 3300 1100 2831 
Q 966 2247 966 1656 
Q 966 153 1900 -1347 
L 1497 -1347 
z
" transform="scale(0.015625)"/>
       <path id="ArialMT-b0" d="M 400 3794 
Q 400 4153 654 4406 
Q 909 4659 1266 4659 
Q 1628 4659 1881 4406 
Q 2134 4153 2134 3794 
Q 2134 3434 1879 3179 
Q 1625 2925 1266 2925 
Q 909 2925 654 3178 
Q 400 3431 400 3794 
z
M 741 3794 
Q 741 3575 895 3420 
Q 1050 3266 1269 3266 
Q 1484 3266 1639 3420 
Q 1794 3575 1794 3794 
Q 1794 4013 1639 4167 
Q 1484 4322 1269 4322 
Q 1050 4322 895 4167 
Q 741 4013 741 3794 
z
" transform="scale(0.015625)"/>
       <path id="ArialMT-43" d="M 3763 1606 
L 4369 1453 
Q 4178 706 3683 314 
Q 3188 -78 2472 -78 
Q 1731 -78 1267 223 
Q 803 525 561 1097 
Q 319 1669 319 2325 
Q 319 3041 592 3573 
Q 866 4106 1370 4382 
Q 1875 4659 2481 4659 
Q 3169 4659 3637 4309 
Q 4106 3959 4291 3325 
L 3694 3184 
Q 3534 3684 3231 3912 
Q 2928 4141 2469 4141 
Q 1941 4141 1586 3887 
Q 1231 3634 1087 3207 
Q 944 2781 944 2328 
Q 944 1744 1114 1308 
Q 1284 872 1643 656 
Q 2003 441 2422 441 
Q 2931 441 3284 734 
Q 3638 1028 3763 1606 
z
" transform="scale(0.015625)"/>
       <path id="ArialMT-29" d="M 791 -1347 
L 388 -1347 
Q 1322 153 1322 1656 
Q 1322 2244 1188 2822 
Q 1081 3291 891 3722 
Q 769 4003 388 4659 
L 791 4659 
Q 1378 3875 1659 3084 
Q 1900 2403 1900 1659 
Q 1900 816 1576 28 
Q 1253 -759 791 -1347 
z
" transform="scale(0.015625)"/>
      </defs>
      <use xlink:href="#ArialMT-28"/>
      <use xlink:href="#ArialMT-b0" x="33.300781"/>
      <use xlink:href="#ArialMT-43" x="73.291016"/>
      <use xlink:href="#ArialMT-29" x="145.507812"/>
     </g>
    </g>
   </g>
   <g id="line2d_13">
    <path d="M 92.290909 167.895713 
L 92.758981 173.14642 
L 93.227053 146.541903 
L 93.695124 139.276553 
L 94.163196 148.219602 
L 94.631268 190.15506 
L 95.567411 187.206802 
L 96.035483 184.34278 
L 96.971626 156.200957 
L 97.439698 156.474724 
L 98.375841 151.954062 
L 98.843913 153.435211 
L 99.311985 160.237263 
L 99.780057 165.27738 
L 100.248128 143.734038 
L 100.7162 149.279571 
L 101.184272 167.039315 
L 102.120415 150.262324 
L 102.588487 152.754303 
L 103.52463 314.438168 
L 103.992702 287.910867 
L 104.460774 274.025976 
L 104.928846 238.429273 
L 105.396917 231.802712 
L 105.864989 254.848261 
L 106.333061 261.208074 
L 106.801132 274.419078 
L 107.269204 256.666353 
L 107.737276 228.910612 
L 108.205348 219.026928 
L 108.673419 204.433052 
L 109.141491 203.204611 
L 110.077634 178.783209 
L 110.545706 168.148421 
L 111.013778 217.917822 
L 111.48185 232.455541 
L 112.417993 201.288243 
L 112.886065 181.570014 
L 113.354137 156.734452 
L 113.822208 150.360599 
L 114.29028 170.900129 
L 115.226423 318.270903 
L 115.694495 262.506712 
L 116.162567 277.648122 
L 116.630639 336.318453 
L 118.034854 280.43859 
L 118.502925 307.362349 
L 118.970997 284.93831 
L 119.439069 236.008422 
L 119.907141 231.85185 
L 120.375212 218.479395 
L 120.843284 268.34707 
L 121.311356 280.947363 
L 121.779427 268.97182 
L 122.247499 221.146866 
L 122.715571 200.867064 
L 123.183643 199.034932 
L 123.651714 204.784035 
L 124.119786 222.431464 
L 125.05593 299.486289 
L 125.524001 257.28536 
L 125.992073 254.86932 
L 126.460145 282.66016 
L 126.928216 298.650949 
L 127.396288 286.80878 
L 127.86436 284.766059 
L 128.332432 260.926732 
L 128.800503 219.925445 
L 129.268575 261.848084 
L 129.736647 275.801951 
L 130.204718 277.781495 
L 130.67279 260.807954 
L 131.140862 277.802554 
L 131.608934 229.837207 
L 132.077005 217.623511 
L 132.545077 262.12765 
L 133.013149 225.730705 
L 133.481221 229.626617 
L 133.949292 245.820976 
L 134.417364 238.07829 
L 134.885436 218.689984 
L 135.353507 228.019115 
L 135.821579 248.895588 
L 136.289651 317.969058 
L 136.757723 352.702343 
L 137.225794 304.364954 
L 137.693866 297.902398 
L 138.161938 322.124697 
L 138.630009 303.213729 
L 139.098081 264.430099 
L 139.566153 252.222908 
L 140.034225 248.790293 
L 140.502296 213.467356 
L 140.970368 211.038553 
L 141.43844 273.11342 
L 141.906511 299.008952 
L 142.842655 229.170339 
L 143.310727 298.103416 
L 143.778798 322.335287 
L 144.24687 318.13051 
L 145.651085 225.134034 
L 146.119157 245.259403 
L 146.587229 279.592568 
L 147.0553 275.099985 
L 147.523372 233.045192 
L 147.991444 279.697863 
L 148.459516 282.119646 
L 148.927587 296.741601 
L 149.395659 298.159573 
L 149.863731 263.538602 
L 150.331802 242.479617 
L 150.799874 297.864747 
L 151.267946 320.025819 
L 151.736018 271.512938 
L 152.204089 250.31356 
L 152.672161 237.86068 
L 153.608304 206.812717 
L 154.076376 192.903034 
L 154.544448 166.874774 
L 155.01252 181.920997 
L 155.480591 305.782925 
L 155.948663 359.60969 
L 156.416735 329.712952 
L 156.884807 252.503694 
L 157.352878 253.784337 
L 157.82095 263.208678 
L 158.289022 218.57065 
L 158.757093 153.975725 
L 159.225165 136.784573 
L 159.693237 188.161476 
L 160.161309 259.270648 
L 160.62938 276.721526 
L 161.097452 273.071302 
L 162.033595 230.826979 
L 162.501667 216.675342 
L 163.437811 253.107385 
L 163.905882 210.680551 
L 164.373954 180.559183 
L 164.842026 189.937451 
L 165.310098 183.774188 
L 165.778169 179.316703 
L 166.246241 183.682932 
L 166.714313 347.334167 
L 167.182384 367.091324 
L 167.650456 344.910519 
L 168.118528 258.744173 
L 168.5866 197.181741 
L 169.054671 154.677691 
L 169.990815 183.360028 
L 170.458886 184.04604 
L 170.926958 153.519447 
L 171.39503 172.52167 
L 171.863102 268.54105 
L 172.331173 297.583961 
L 172.799245 284.11323 
L 173.267317 318.74824 
L 174.20346 255.150107 
L 174.671532 266.353486 
L 175.139604 245.729721 
L 175.607675 203.541555 
L 176.075747 186.63119 
L 176.543819 181.436641 
L 177.011891 227.766407 
L 177.479962 212.470564 
L 177.948034 215.503058 
L 178.416106 210.673531 
L 178.884177 201.140831 
L 179.352249 308.756922 
L 179.820321 303.677027 
L 180.288393 289.048204 
L 180.756464 235.509094 
L 181.224536 167.123453 
L 181.692608 173.237676 
L 182.160679 148.310858 
L 182.628751 158.41917 
L 183.096823 157.759322 
L 184.032966 124.802011 
L 184.501038 130.172052 
L 184.96911 164.301647 
L 185.437182 156.214997 
L 185.905253 217.995038 
L 186.841397 190.344591 
L 187.309468 157.281985 
L 187.77754 157.629111 
L 188.245612 159.284209 
L 188.713684 170.352595 
L 189.181755 167.993989 
L 190.117899 194.043953 
L 190.58597 163.325914 
L 191.054042 140.259306 
L 191.522114 140.118913 
L 191.990186 160.174086 
L 192.458257 161.493782 
L 192.926329 173.16997 
L 193.394401 154.179295 
L 193.862472 126.872811 
L 194.330544 142.295008 
L 194.798616 177.51265 
L 195.266688 169.06029 
L 195.734759 180.00463 
L 196.202831 182.931829 
L 196.670903 167.462753 
L 197.138975 116.518811 
L 197.607046 134.833108 
L 198.075118 208.069237 
L 198.54319 219.469167 
L 199.011261 197.546764 
L 199.479333 184.412977 
L 199.947405 187.143625 
L 200.415477 183.11434 
L 200.883548 169.292626 
L 201.35162 148.739057 
L 201.819692 117.796389 
L 202.287763 131.147785 
L 203.223907 113.521415 
L 203.691979 116.785558 
L 204.16005 127.449917 
L 204.628122 135.212169 
L 205.096194 136.215981 
L 205.564265 138.378037 
L 206.032337 138.890472 
L 206.500409 126.449864 
L 206.968481 122.639955 
L 207.436552 145.664445 
L 207.904624 137.06536 
L 208.372696 138.855374 
L 208.840768 130.340524 
L 209.308839 134.334712 
L 210.244983 124.078986 
L 210.713054 108.081177 
L 211.181126 80.065708 
L 211.649198 66.96 
L 212.11727 72.56871 
L 212.585341 127.983783 
L 213.053413 160.616324 
L 213.989556 132.804425 
L 214.9257 125.047699 
L 215.393772 118.343923 
L 215.861843 115.739628 
L 216.329915 116.596027 
L 216.797987 110.860963 
L 217.266059 82.192666 
L 217.73413 117.599838 
L 218.202202 117.038266 
L 218.670274 103.602633 
L 219.138345 117.382229 
L 219.606417 166.765548 
L 220.074489 140.189109 
L 220.542561 136.096647 
L 221.010632 134.15922 
L 221.478704 129.308634 
L 221.946776 128.887454 
L 222.414847 136.124725 
L 222.882919 135.415739 
L 223.350991 124.61248 
L 223.819063 123.208548 
L 224.287134 116.687282 
L 224.755206 119.331633 
L 225.223278 117.059324 
L 225.691349 102.204052 
L 226.159421 94.484093 
L 226.627493 101.672226 
L 227.095565 124.254478 
L 227.563636 128.382876 
L 228.031708 82.560879 
L 228.49978 100.078763 
L 228.967852 105.43447 
L 229.435923 112.440387 
L 229.903995 113.296786 
L 230.372067 112.686075 
L 230.840138 112.447407 
L 231.30821 113.717966 
L 231.776282 110.053702 
L 232.712425 138.321879 
L 233.180497 165.284399 
L 233.648569 138.378037 
L 234.11664 136.770534 
L 234.584712 129.975502 
L 235.052784 120.590214 
L 235.520856 127.083401 
L 235.988927 114.967465 
L 236.925071 110.327364 
L 237.861214 101.468656 
L 238.329286 99.10303 
L 238.797358 98.092199 
L 239.265429 97.592399 
L 239.733501 105.568139 
L 240.201573 96.83568 
L 240.669645 93.901461 
L 241.137716 99.959429 
L 241.605788 101.166811 
L 242.07386 94.090992 
L 242.541931 91.577953 
L 243.010003 97.530626 
L 243.478075 89.710824 
L 243.946147 87.443372 
L 244.414218 96.260067 
L 244.88229 99.94539 
L 245.350362 104.739818 
L 245.818433 106.838996 
L 246.286505 118.581844 
L 246.754577 113.058117 
L 247.69072 135.219189 
L 248.158792 124.984522 
L 248.626864 103.399063 
L 249.563007 135.261307 
L 250.031079 126.627123 
L 250.499151 120.856961 
L 251.435294 137.697129 
L 251.903366 126.795595 
L 252.371438 138.462273 
L 252.839509 207.443603 
L 253.307581 217.679153 
L 253.775653 117.606858 
L 254.243724 150.585228 
L 254.711796 157.450457 
L 255.179868 155.73766 
L 256.116011 140.154011 
L 256.584083 141.782572 
L 257.052155 127.53266 
L 257.520226 135.686954 
L 257.988298 130.874018 
L 258.45637 139.936401 
L 258.924442 142.365204 
L 259.392513 142.007202 
L 259.860585 138.876433 
L 260.328657 141.235039 
L 260.796729 138.707961 
L 261.2648 133.373018 
L 261.732872 139.325691 
L 262.200944 137.963877 
L 262.669015 148.184504 
L 263.137087 149.644593 
L 263.605159 146.541903 
L 264.073231 151.329312 
L 264.541302 150.402717 
L 265.009374 151.546922 
L 265.477446 135.113894 
L 265.945517 128.501373 
L 266.413589 144.801027 
L 266.881661 155.358598 
L 267.817804 139.866205 
L 268.753948 256.132859 
L 269.22202 198.438261 
L 269.690091 159.191333 
L 270.158163 142.828502 
L 270.626235 185.451887 
L 271.094306 195.433846 
L 271.562378 174.487176 
L 272.03045 135.521034 
L 272.498522 156.088643 
L 272.966593 139.283573 
L 273.434665 170.029691 
L 273.902737 182.714219 
L 274.370808 171.440643 
L 274.83888 239.194416 
L 275.306952 240.521132 
L 275.775024 202.19378 
L 276.243095 193.243711 
L 276.711167 173.890504 
L 277.179239 205.331569 
L 277.64731 281.845879 
L 278.115382 267.090551 
L 278.583454 238.148486 
L 279.051526 239.292691 
L 279.519597 194.830155 
L 279.987669 176.659196 
L 280.455741 180.390711 
L 280.923813 169.060977 
L 281.391884 281.066697 
L 281.859956 273.703072 
L 282.328028 254.700848 
L 282.796099 211.796677 
L 283.264171 369.36 
L 283.732243 364.123332 
L 284.200315 288.570715 
L 284.668386 274.587549 
L 285.136458 267.385377 
L 285.60453 227.724289 
L 286.072601 218.612768 
L 286.540673 202.881707 
L 287.008745 203.190572 
L 287.476817 187.698179 
L 287.944888 189.649645 
L 288.41296 239.73493 
L 288.881032 229.331791 
L 289.349103 190.337571 
L 289.817175 183.984778 
L 290.753319 242.970994 
L 291.22139 211.593107 
L 291.689462 159.88628 
L 292.157534 214.078067 
L 292.625606 246.235136 
L 293.093677 237.881739 
L 293.561749 206.005456 
L 294.029821 209.431051 
L 294.497892 202.39033 
L 294.965964 221.462751 
L 295.434036 215.439881 
L 295.902108 179.604509 
L 296.370179 244.978617 
L 296.838251 294.411074 
L 297.306323 286.219129 
L 297.774394 216.450712 
L 298.242466 191.952094 
L 298.710538 177.667082 
L 299.17861 183.760149 
L 299.646681 296.797759 
L 300.114753 318.678044 
L 300.582825 309.538444 
L 301.050897 276.567094 
L 301.518968 281.20709 
L 301.98704 266.402624 
L 302.923183 247.758403 
L 303.391255 224.965562 
L 303.859327 233.452333 
L 304.327399 232.560836 
L 304.79547 187.47355 
L 306.199685 309.650759 
L 306.667757 288.977856 
L 307.135829 245.392777 
L 307.603901 260.898669 
L 308.071972 268.065204 
L 308.540044 257.810558 
L 309.008116 231.620201 
L 309.476187 249.822183 
L 309.944259 257.78248 
L 310.412331 239.882343 
L 310.880403 229.338811 
L 311.348474 234.652695 
L 311.816546 260.26042 
L 312.284618 239.966579 
L 312.75269 213.944693 
L 313.220761 214.808112 
L 313.688833 211.831775 
L 314.156905 229.788069 
L 314.624976 218.128412 
L 315.093048 275.942344 
L 315.56112 287.405451 
L 316.029192 304.638917 
L 316.497263 274.503313 
L 316.965335 235.642467 
L 317.433407 248.572684 
L 317.901478 256.610196 
L 318.36955 199.877291 
L 318.837622 201.112752 
L 319.305694 201.835777 
L 320.241837 289.377976 
L 320.709909 295.407866 
L 321.17798 265.342655 
L 321.646052 250.236343 
L 322.114124 228.987828 
L 322.582196 197.722255 
L 323.050267 273.253814 
L 323.518339 289.735979 
L 323.986411 243.88355 
L 324.454483 223.898573 
L 324.922554 190.793849 
L 325.390626 173.188538 
L 325.858698 244.234533 
L 326.326769 293.154554 
L 326.794841 267.659143 
L 327.262913 307.060504 
L 328.667128 186.666288 
L 329.1352 179.78702 
L 329.603271 273.366128 
L 330.539415 326.259278 
L 331.94363 191.453698 
L 332.411702 186.589072 
L 332.879774 284.071112 
L 333.347845 291.504934 
L 333.815917 254.855281 
L 334.283989 243.46939 
L 334.75206 191.418599 
L 335.220132 152.705166 
L 335.688204 199.828154 
L 336.156276 173.448266 
L 336.624347 233.985827 
L 337.092419 227.338207 
L 337.560491 245.596347 
L 338.028562 234.414026 
L 338.496634 214.253558 
L 338.964706 207.191779 
L 339.432778 185.887106 
L 339.900849 173.672895 
L 340.368921 153.968705 
L 340.836993 152.255908 
L 341.305064 187.796454 
L 341.773136 204.987605 
L 342.241208 174.845178 
L 342.70928 169.62957 
L 343.177351 144.291338 
L 344.113495 260.372735 
L 344.581567 241.503884 
L 345.049638 196.683345 
L 345.51771 137.149596 
L 345.985782 120.493909 
L 346.453853 132.846543 
L 346.921925 122.520621 
L 347.389997 135.738644 
L 347.858069 217.138639 
L 348.32614 195.511062 
L 348.794212 151.58904 
L 349.262284 194.008854 
L 349.730355 161.234055 
L 350.198427 171.875862 
L 350.666499 221.245141 
L 351.134571 249.351866 
L 352.070714 182.405354 
L 352.538786 137.591835 
L 353.006858 124.521225 
L 353.474929 169.390901 
L 353.943001 173.293833 
L 354.411073 125.065154 
L 354.879144 150.954843 
L 355.347216 235.452936 
L 355.815288 279.641706 
L 356.28336 257.045415 
L 356.751431 189.902352 
L 357.219503 166.891902 
L 357.687575 128.213567 
L 358.155646 122.303012 
L 358.623718 141.62814 
L 359.09179 122.562739 
L 359.559862 112.910705 
L 360.027933 111.998149 
L 360.496005 134.868206 
L 360.964077 203.036139 
L 361.432148 167.523671 
L 361.90022 140.79982 
L 362.368292 131.203943 
L 362.836364 169.447059 
L 363.772507 140.631348 
L 364.708651 119.663619 
L 365.176722 125.195112 
L 365.644794 149.405925 
L 366.112866 152.171672 
L 366.580937 162.279984 
L 367.049009 205.787847 
L 367.517081 206.461734 
L 368.921296 152.62093 
L 369.389368 153.161444 
L 369.857439 139.037885 
L 370.325511 139.950441 
L 370.793583 145.467895 
L 371.261655 131.126726 
L 371.729726 121.200925 
L 372.197798 122.162618 
L 372.66587 143.2918 
L 373.133941 134.805029 
L 373.602013 134.496164 
L 374.070085 152.164652 
L 374.538157 153.624742 
L 375.006228 178.200577 
L 375.4743 151.231037 
L 375.942372 134.306633 
L 376.410444 165.789815 
L 376.878515 171.924999 
L 377.346587 175.21722 
L 377.814659 175.952321 
L 378.28273 167.221826 
L 378.750802 147.665049 
L 379.218874 139.178278 
L 379.686946 139.183646 
L 380.623089 117.613878 
L 381.091161 103.012982 
L 381.559232 112.861567 
L 382.027304 138.490351 
L 382.495376 181.744102 
L 382.963448 157.499595 
L 383.431519 153.701958 
L 383.899591 148.788195 
L 384.367663 149.51122 
L 384.835735 145.839937 
L 385.303806 139.367809 
L 385.771878 135.991352 
L 386.23995 145.896094 
L 386.708021 136.974104 
L 387.644165 116.308221 
L 388.112237 119.186282 
L 389.04838 155.246283 
L 389.516452 158.355993 
L 389.984523 160.440833 
L 390.452595 168.009951 
L 390.920667 122.408307 
L 391.388739 143.530468 
L 391.85681 135.572953 
L 392.324882 124.156202 
L 392.792954 128.581598 
L 393.261025 111.099632 
L 393.729097 109.653582 
L 394.197169 110.285351 
L 394.665241 112.707134 
L 395.133312 135.753106 
L 395.601384 101.559912 
L 396.069456 100.668415 
L 396.537528 104.199305 
L 397.005599 102.268898 
L 397.473671 87.253842 
L 398.409814 115.753667 
L 398.877886 110.741629 
L 399.345958 116.287162 
L 399.81403 149.279571 
L 400.282101 158.117325 
L 400.750173 135.528054 
L 401.218245 132.151597 
L 401.686316 127.1185 
L 402.154388 120.4779 
L 402.62246 108.993733 
L 403.090532 133.95565 
L 403.558603 181.973025 
L 404.026675 173.314892 
L 404.494747 195.354575 
L 405.898962 142.426525 
L 406.367034 147.475518 
L 407.303177 124.738834 
L 407.771249 125.110876 
L 408.239321 128.97871 
L 408.707392 146.64804 
L 409.175464 134.545301 
L 409.643536 132.355167 
L 410.111607 137.662031 
L 410.579679 138.532469 
L 411.047751 132.551718 
L 411.515823 124.900286 
L 411.983894 127.623915 
L 412.451966 126.999165 
L 413.388109 114.104541 
L 413.856181 122.843526 
L 414.324253 122.920742 
L 414.792325 104.957428 
L 415.260396 110.640546 
L 415.728468 110.695593 
L 416.19654 132.074381 
L 417.132683 100.963241 
L 417.600755 109.548287 
L 418.068827 114.820052 
L 418.536898 112.257876 
L 419.00497 104.599425 
L 419.473042 137.189828 
L 419.941114 105.308411 
L 420.409185 135.528212 
L 420.877257 135.61229 
L 421.345329 175.682484 
L 421.8134 179.233871 
L 422.281472 161.774569 
L 422.749544 155.943011 
L 423.217616 156.190097 
L 423.685687 87.123978 
L 424.153759 89.387819 
L 425.089902 107.582781 
L 425.557974 107.519604 
L 426.026046 107.309015 
L 426.494118 118.238628 
L 426.962189 108.818242 
L 427.430261 115.648373 
L 427.898333 124.654598 
L 428.366405 115.964257 
L 428.834476 116.574968 
L 429.77062 124.766913 
L 430.706763 92.841492 
L 431.174835 98.014983 
L 432.110978 114.756876 
L 432.57905 118.589611 
L 433.047122 116.869794 
L 433.515193 114.005772 
L 433.983265 106.894855 
L 434.451337 95.143941 
L 434.919409 127.174657 
L 435.38748 132.109479 
L 435.855552 143.018033 
L 436.323624 145.15201 
L 437.727839 110.046683 
L 438.195911 116.911912 
L 438.663982 116.32226 
L 439.132054 108.818242 
L 439.600126 103.181454 
L 440.068198 110.994337 
L 440.536269 114.560325 
L 441.004341 128.76812 
L 441.472413 155.856994 
L 441.940484 133.169448 
L 442.408556 127.960859 
L 442.876628 118.779142 
L 443.3447 132.390265 
L 443.812771 157.962892 
L 444.748915 136.44763 
L 446.15313 197.272997 
L 446.621202 184.511252 
L 447.557345 139.669654 
L 448.025417 129.694715 
L 448.493489 138.413135 
L 448.96156 133.169448 
L 449.429632 134.194318 
L 449.897704 139.080003 
L 450.365775 142.779364 
L 450.833847 161.437625 
L 451.769991 145.116912 
L 452.238062 146.331313 
L 452.706134 141.192921 
L 453.174206 143.972707 
L 453.642277 145.832917 
L 454.110349 139.480123 
L 454.578421 137.781365 
L 455.046493 140.947233 
L 455.514564 142.653011 
L 455.982636 174.381881 
L 456.918779 166.948059 
L 457.386851 172.53571 
L 457.854923 164.168273 
L 458.322995 163.494386 
L 459.259138 180.931225 
L 459.72721 189.75494 
L 460.195282 181.668289 
L 460.663353 192.303077 
L 461.131425 210.125997 
L 461.599497 214.127204 
L 462.067568 191.341383 
L 462.53564 202.460527 
L 463.003712 195.223256 
L 463.471784 157.19073 
L 463.939855 135.022638 
L 464.407927 149.616515 
L 464.875999 154.193334 
L 465.34407 152.066377 
L 465.812142 170.801853 
L 466.280214 273.064283 
L 467.684429 195.265374 
L 468.152501 181.471739 
L 468.620573 192.668099 
L 469.088644 155.548129 
L 469.556716 190.527102 
L 470.024788 206.826756 
L 470.492859 199.610544 
L 470.960931 183.640814 
L 471.429003 212.182758 
L 471.897075 210.097919 
L 472.365146 235.593329 
L 472.833218 219.665717 
L 473.30129 223.245745 
L 473.769361 185.781811 
L 474.237433 162.315083 
L 474.705505 186.43464 
L 475.173577 188.821325 
L 475.641648 179.393919 
L 476.10972 174.81008 
L 476.577792 185.157061 
L 477.045863 181.745506 
L 477.513935 171.005424 
L 477.982007 257.936912 
L 478.450079 276.770664 
L 478.91815 230.777842 
L 479.386222 255.718699 
L 479.854294 307.713332 
L 480.322366 338.803413 
L 480.790437 322.314228 
L 481.258509 334.472282 
L 481.726581 357.524851 
L 482.194652 341.063744 
L 482.662724 301.086772 
L 483.130796 281.305365 
L 483.598868 228.306921 
L 484.066939 264.149313 
L 484.535011 269.421078 
L 485.003083 226.832792 
L 485.471154 226.418632 
L 485.939226 196.304284 
L 486.87537 296.832857 
L 487.343441 251.534981 
L 487.811513 237.381496 
L 488.279585 204.101231 
L 488.747656 214.323755 
L 489.215728 210.06282 
L 489.6838 219.81313 
L 490.151872 208.778222 
L 490.619943 209.115166 
L 491.088015 213.17253 
L 491.556087 195.087428 
L 492.024159 234.982619 
L 492.49223 248.797313 
L 492.960302 241.019528 
L 493.428374 293.068526 
L 493.896445 326.161003 
L 494.364517 275.879167 
L 494.832589 252.17016 
L 495.300661 308.752242 
L 495.768732 245.785878 
L 496.236804 150.873034 
L 496.704876 136.981124 
L 497.172947 119.256479 
L 497.641019 119.565344 
L 498.109091 193.462679 
L 498.109091 193.462679 
" clip-path="url(#pd3f917326a)" style="fill: none; stroke: #1f77b4; stroke-width: 1.5; stroke-linecap: round"/>
   </g>
   <g id="line2d_14">
    <path d="M 92.290909 158.68183 
L 92.758981 161.293906 
L 93.695124 157.985968 
L 94.163196 158.414472 
L 94.631268 167.328134 
L 95.099339 158.10004 
L 95.567411 154.79815 
L 96.035483 154.795488 
L 96.503555 148.666099 
L 96.971626 148.402838 
L 97.439698 146.118388 
L 97.90777 145.535897 
L 98.375841 148.320142 
L 98.843913 143.042508 
L 99.311985 141.611195 
L 99.780057 142.301125 
L 100.248128 145.342745 
L 101.184272 145.497676 
L 101.652344 145.782223 
L 102.120415 146.734034 
L 102.588487 147.303887 
L 103.056559 160.780609 
L 103.52463 177.640741 
L 103.992702 185.321011 
L 104.460774 190.863281 
L 104.928846 199.75162 
L 105.396917 211.32984 
L 106.333061 224.39498 
L 106.801132 235.221656 
L 107.269204 232.225908 
L 107.737276 223.998617 
L 108.205348 221.770315 
L 108.673419 218.659712 
L 109.141491 213.49639 
L 109.609563 204.350919 
L 110.077634 199.732312 
L 110.545706 192.261871 
L 111.013778 180.078878 
L 111.48185 178.61995 
L 111.949921 180.390786 
L 112.417993 177.266857 
L 112.886065 176.33479 
L 113.354137 176.503013 
L 113.822208 178.209402 
L 114.29028 177.65185 
L 115.226423 202.275502 
L 115.694495 198.331175 
L 116.162567 204.278496 
L 116.630639 204.754336 
L 117.09871 203.747765 
L 117.566782 200.045888 
L 118.034854 197.541959 
L 118.502925 208.703257 
L 118.970997 206.170931 
L 119.439069 194.51657 
L 119.907141 194.754429 
L 120.375212 193.243096 
L 120.843284 198.102917 
L 121.311356 192.487546 
L 122.247499 203.767432 
L 123.183643 190.58837 
L 123.651714 193.771425 
L 124.119786 195.736811 
L 124.587858 197.178947 
L 125.05593 207.086502 
L 125.524001 209.359494 
L 125.992073 207.400123 
L 126.460145 218.217596 
L 126.928216 220.624926 
L 127.396288 216.175931 
L 127.86436 213.475099 
L 128.332432 217.537041 
L 128.800503 213.585999 
L 129.268575 201.749859 
L 129.736647 200.704004 
L 130.204718 196.984429 
L 130.67279 187.467469 
L 131.140862 186.484952 
L 131.608934 186.636222 
L 132.077005 186.010842 
L 132.545077 184.289102 
L 133.013149 184.192161 
L 133.481221 185.108476 
L 133.949292 184.094443 
L 134.417364 184.543424 
L 134.885436 187.952841 
L 135.353507 186.549463 
L 135.821579 185.626868 
L 136.757723 206.120932 
L 137.225794 205.694237 
L 137.693866 207.594315 
L 138.161938 219.752415 
L 138.630009 222.658538 
L 139.098081 216.286694 
L 139.566153 214.132806 
L 140.034225 219.074704 
L 140.502296 212.989184 
L 140.970368 202.760521 
L 141.906511 218.289905 
L 142.374583 208.792386 
L 142.842655 204.218266 
L 143.778798 226.270054 
L 144.24687 228.333681 
L 144.714942 224.554991 
L 145.183014 225.231116 
L 145.651085 221.725412 
L 146.119157 213.713931 
L 146.587229 209.644531 
L 147.0553 207.667069 
L 148.459516 184.157859 
L 148.927587 189.171228 
L 149.395659 198.707057 
L 149.863731 198.083024 
L 150.331802 194.000432 
L 150.799874 195.333541 
L 151.267946 197.079407 
L 151.736018 194.911736 
L 152.204089 190.029062 
L 152.672161 189.248618 
L 153.140233 183.054437 
L 153.608304 174.68237 
L 154.076376 174.19429 
L 155.01252 172.353537 
L 155.480591 180.538973 
L 155.948663 193.19093 
L 156.416735 195.627632 
L 156.884807 193.999178 
L 157.352878 204.611218 
L 157.82095 208.294191 
L 158.757093 197.94579 
L 159.225165 199.545257 
L 159.693237 196.592377 
L 160.161309 184.809324 
L 160.62938 181.02006 
L 161.097452 181.100239 
L 161.565524 169.407258 
L 162.033595 167.558612 
L 162.501667 168.037919 
L 163.437811 163.269133 
L 164.373954 164.341825 
L 164.842026 167.007252 
L 165.778169 167.677523 
L 166.246241 168.292665 
L 167.182384 190.822583 
L 167.650456 196.049386 
L 168.5866 194.177708 
L 170.458886 186.472552 
L 171.39503 169.96909 
L 171.863102 166.704189 
L 172.331173 168.162486 
L 172.799245 164.481985 
L 173.267317 166.424925 
L 173.735388 173.883465 
L 174.20346 176.183611 
L 174.671532 181.528385 
L 175.139604 185.356579 
L 175.607675 188.037342 
L 176.075747 182.029063 
L 176.543819 179.726815 
L 177.011891 190.47107 
L 177.479962 187.429766 
L 177.948034 178.691152 
L 178.416106 177.757617 
L 178.884177 171.257481 
L 179.352249 171.001558 
L 179.820321 171.554872 
L 180.288393 170.019326 
L 180.756464 167.354363 
L 181.224536 157.370174 
L 181.692608 159.435461 
L 182.628751 153.10052 
L 183.096823 153.377966 
L 183.564895 152.858566 
L 184.032966 147.438037 
L 184.501038 145.975608 
L 184.96911 146.62314 
L 185.905253 146.58677 
L 186.373325 145.946756 
L 186.841397 144.534736 
L 187.77754 145.070073 
L 188.245612 144.560175 
L 188.713684 144.270285 
L 189.649827 148.167505 
L 190.117899 148.215902 
L 191.054042 149.34002 
L 191.522114 149.293808 
L 191.990186 150.305531 
L 192.458257 149.827864 
L 192.926329 154.812988 
L 193.394401 156.078393 
L 193.862472 153.668322 
L 194.330544 153.188853 
L 194.798616 154.725761 
L 195.266688 155.549564 
L 195.734759 152.610072 
L 196.202831 151.239554 
L 196.670903 152.085295 
L 197.138975 145.689894 
L 197.607046 145.054903 
L 198.075118 148.143444 
L 198.54319 146.411247 
L 199.011261 142.978417 
L 199.479333 142.252205 
L 199.947405 141.007675 
L 200.415477 142.204408 
L 200.883548 140.386541 
L 201.35162 139.976958 
L 201.819692 141.302978 
L 202.287763 140.206254 
L 202.755835 142.187517 
L 203.223907 141.677977 
L 203.691979 143.596004 
L 204.16005 146.937831 
L 204.628122 146.045294 
L 205.096194 144.314627 
L 205.564265 143.403908 
L 206.032337 144.43154 
L 206.968481 142.368558 
L 207.436552 145.289256 
L 207.904624 144.701258 
L 208.372696 142.58346 
L 208.840768 141.846627 
L 209.308839 143.294174 
L 209.776911 143.460096 
L 210.244983 140.573087 
L 210.713054 141.980829 
L 211.181126 142.923433 
L 211.649198 139.662931 
L 212.11727 140.125373 
L 212.585341 139.82214 
L 213.521485 138.182386 
L 214.9257 139.983575 
L 215.861843 138.887218 
L 216.329915 139.427839 
L 216.797987 138.847043 
L 217.266059 138.040897 
L 217.73413 138.971138 
L 218.202202 140.425576 
L 218.670274 139.286093 
L 219.138345 136.715221 
L 219.606417 141.095352 
L 220.074489 143.25013 
L 220.542561 139.602514 
L 221.010632 139.986975 
L 221.478704 143.214119 
L 221.946776 144.303332 
L 222.414847 141.191326 
L 222.882919 141.398286 
L 223.350991 143.656409 
L 223.819063 139.857955 
L 224.755206 142.173908 
L 225.223278 141.808567 
L 225.691349 142.007277 
L 226.159421 143.115568 
L 226.627493 142.777067 
L 227.095565 141.742675 
L 228.031708 142.245299 
L 228.49978 140.81548 
L 228.967852 140.284271 
L 229.903995 139.747824 
L 230.372067 140.630015 
L 230.840138 141.005419 
L 231.30821 141.995349 
L 231.776282 142.533028 
L 232.712425 142.017403 
L 233.180497 140.231669 
L 233.648569 140.508938 
L 234.11664 140.268015 
L 234.584712 139.391847 
L 235.052784 139.045035 
L 235.988927 140.217331 
L 236.456999 140.351478 
L 236.925071 141.726308 
L 237.393142 143.484906 
L 237.861214 141.827828 
L 238.329286 139.52069 
L 239.265429 140.593932 
L 240.201573 139.808978 
L 240.669645 140.441371 
L 241.137716 141.786131 
L 241.605788 141.839687 
L 242.07386 143.175649 
L 242.541931 145.361124 
L 243.478075 147.026605 
L 244.414218 147.654987 
L 244.88229 148.375271 
L 245.350362 148.592859 
L 245.818433 148.486621 
L 246.286505 147.615503 
L 247.222649 147.364061 
L 247.69072 145.390903 
L 248.158792 144.41227 
L 248.626864 144.760515 
L 249.094936 144.896373 
L 249.563007 144.130854 
L 250.031079 143.088924 
L 250.499151 144.541551 
L 250.967222 144.150638 
L 251.435294 143.109281 
L 251.903366 144.692662 
L 252.371438 148.121592 
L 253.307581 182.57712 
L 253.775653 180.736965 
L 254.243724 176.098239 
L 255.179868 182.916328 
L 256.116011 172.484842 
L 256.584083 172.270671 
L 257.052155 163.175833 
L 257.520226 147.907182 
L 257.988298 146.940882 
L 258.45637 147.955331 
L 258.924442 147.530366 
L 259.392513 147.610592 
L 260.796729 149.566556 
L 261.2648 149.166231 
L 261.732872 150.242751 
L 262.200944 150.95855 
L 263.137087 147.328142 
L 263.605159 147.00513 
L 264.073231 144.790303 
L 264.541302 143.809385 
L 265.009374 144.748311 
L 265.945517 144.779517 
L 266.413589 144.445956 
L 266.881661 144.454676 
L 267.349733 147.512353 
L 267.817804 149.444196 
L 268.285876 150.544058 
L 268.753948 150.356133 
L 269.690091 154.674068 
L 270.158163 155.422135 
L 270.626235 165.716497 
L 271.094306 169.658112 
L 271.562378 168.52552 
L 272.03045 168.675226 
L 272.498522 170.45279 
L 272.966593 171.550835 
L 273.434665 168.034653 
L 274.370808 167.872245 
L 274.83888 158.678199 
L 275.306952 158.469452 
L 276.243095 159.784131 
L 276.711167 159.692229 
L 277.179239 168.880845 
L 277.64731 172.934912 
L 278.115382 172.244594 
L 279.519597 180.669765 
L 279.987669 177.800818 
L 280.455741 177.640729 
L 280.923813 181.848279 
L 281.391884 183.663171 
L 281.859956 188.891933 
L 282.328028 191.961109 
L 282.796099 191.890014 
L 283.264171 202.59998 
L 283.732243 206.345049 
L 284.200315 203.854114 
L 284.668386 202.46932 
L 285.136458 204.90948 
L 285.60453 199.707909 
L 286.072601 191.234434 
L 286.540673 188.130276 
L 287.008745 190.090511 
L 287.476817 180.25924 
L 287.944888 178.102096 
L 288.41296 186.272228 
L 288.881032 188.083548 
L 289.349103 184.620829 
L 289.817175 185.557708 
L 290.285247 186.03623 
L 291.22139 183.898298 
L 292.157534 187.066839 
L 292.625606 180.687974 
L 293.561749 183.511179 
L 294.029821 183.377965 
L 294.965964 188.017658 
L 295.902108 189.534647 
L 296.370179 196.51128 
L 296.838251 196.77706 
L 297.306323 194.967106 
L 298.242466 197.142153 
L 298.710538 197.367258 
L 299.17861 192.114127 
L 299.646681 191.349552 
L 300.114753 192.297974 
L 300.582825 186.821417 
L 301.050897 189.481048 
L 301.518968 197.027677 
L 301.98704 197.848871 
L 302.455112 194.743025 
L 302.923183 195.410219 
L 303.391255 199.411737 
L 303.859327 197.95026 
L 304.327399 200.850751 
L 305.263542 196.947141 
L 305.731614 191.488059 
L 306.667757 210.253234 
L 307.135829 205.387927 
L 307.603901 203.323161 
L 308.071972 207.058504 
L 308.540044 203.58546 
L 309.008116 202.408969 
L 309.476187 198.571379 
L 309.944259 199.874054 
L 310.880403 186.679229 
L 311.348474 185.602511 
L 311.816546 183.969033 
L 312.75269 188.286317 
L 313.220761 190.107688 
L 314.156905 204.224929 
L 314.624976 203.937922 
L 315.093048 207.442192 
L 315.56112 213.362129 
L 316.029192 222.019732 
L 316.497263 222.097843 
L 317.433407 216.143572 
L 317.901478 216.902319 
L 318.36955 213.353898 
L 318.837622 208.380922 
L 319.305694 200.903844 
L 319.773765 200.855277 
L 320.709909 188.383169 
L 321.17798 185.603888 
L 321.646052 188.427541 
L 322.114124 181.357178 
L 322.582196 178.426924 
L 323.050267 178.759912 
L 323.518339 179.265044 
L 323.986411 178.555662 
L 324.454483 176.723646 
L 324.922554 176.344791 
L 325.390626 177.112019 
L 326.326769 191.827434 
L 326.794841 191.491806 
L 327.262913 195.772301 
L 327.730985 198.747459 
L 328.199056 196.673925 
L 328.667128 191.961813 
L 329.1352 190.56501 
L 329.603271 203.388416 
L 330.071343 207.314109 
L 330.539415 206.640884 
L 331.007487 204.149035 
L 331.475558 198.873699 
L 331.94363 201.663051 
L 332.411702 198.008905 
L 332.879774 192.865023 
L 333.347845 192.536429 
L 333.815917 185.228123 
L 334.75206 166.47807 
L 335.220132 165.102697 
L 335.688204 164.339755 
L 336.156276 161.324143 
L 336.624347 159.139328 
L 337.560491 157.861149 
L 338.028562 159.279429 
L 338.496634 159.064251 
L 338.964706 165.471155 
L 339.432778 167.76941 
L 339.900849 163.954281 
L 340.368921 166.424526 
L 340.836993 167.436536 
L 341.773136 165.444931 
L 342.241208 163.40623 
L 342.70928 162.03522 
L 343.177351 156.724326 
L 343.645423 164.52737 
L 344.113495 174.899027 
L 344.581567 176.014453 
L 345.049638 173.053546 
L 345.985782 176.502408 
L 346.453853 174.970383 
L 346.921925 171.684026 
L 347.389997 170.67645 
L 347.858069 177.403547 
L 348.32614 174.017263 
L 348.794212 165.731917 
L 349.262284 164.639979 
L 349.730355 166.851934 
L 350.198427 166.918651 
L 350.666499 165.920129 
L 351.602642 179.855371 
L 352.070714 166.980342 
L 352.538786 164.749723 
L 353.006858 168.166931 
L 353.474929 167.659753 
L 353.943001 163.197648 
L 354.411073 162.367236 
L 354.879144 160.005223 
L 355.347216 155.313116 
L 355.815288 152.338781 
L 356.28336 157.103037 
L 356.751431 157.342375 
L 357.219503 154.493141 
L 357.687575 153.436202 
L 358.623718 154.180511 
L 359.09179 151.724147 
L 359.559862 150.67661 
L 360.027933 152.278398 
L 360.496005 144.659418 
L 360.964077 143.551792 
L 361.432148 144.002005 
L 361.90022 143.846911 
L 362.836364 142.149788 
L 363.304435 142.321309 
L 364.240579 141.86663 
L 364.708651 143.148541 
L 365.176722 143.720822 
L 365.644794 142.680773 
L 366.112866 142.163784 
L 366.580937 141.402782 
L 367.517081 137.687655 
L 367.985153 136.317053 
L 368.453224 136.394781 
L 369.389368 133.017449 
L 369.857439 134.79858 
L 370.325511 134.855474 
L 370.793583 135.506275 
L 371.729726 138.731223 
L 372.197798 140.09463 
L 372.66587 139.162486 
L 373.133941 140.194297 
L 373.602013 140.42472 
L 374.070085 139.816982 
L 374.538157 138.684073 
L 375.006228 136.803728 
L 375.942372 135.09371 
L 376.410444 135.318706 
L 377.346587 132.633702 
L 377.814659 133.595117 
L 378.28273 133.916529 
L 378.750802 133.652601 
L 379.218874 135.243234 
L 379.686946 135.499503 
L 380.155017 136.792082 
L 380.623089 137.368442 
L 381.091161 138.631192 
L 381.559232 139.391304 
L 382.027304 138.590253 
L 382.495376 153.419466 
L 382.963448 156.931385 
L 383.431519 153.020785 
L 383.899591 153.188945 
L 384.367663 154.884473 
L 384.835735 155.781604 
L 385.303806 148.372337 
L 385.771878 148.539932 
L 386.23995 153.724581 
L 386.708021 139.928402 
L 387.176093 138.494764 
L 387.644165 139.006777 
L 388.112237 140.033803 
L 389.04838 139.402409 
L 389.516452 139.410552 
L 389.984523 137.516575 
L 390.452595 137.377473 
L 390.920667 138.578878 
L 391.388739 136.323559 
L 392.324882 140.543528 
L 392.792954 140.80176 
L 393.261025 140.794406 
L 393.729097 143.065416 
L 394.197169 146.595147 
L 394.665241 145.628851 
L 395.133312 152.536523 
L 395.601384 155.960808 
L 396.069456 152.004859 
L 397.005599 154.123733 
L 397.473671 154.560813 
L 397.941743 150.950702 
L 398.409814 150.644264 
L 398.877886 152.878858 
L 399.345958 146.632357 
L 399.81403 144.358078 
L 400.282101 144.084241 
L 400.750173 144.06118 
L 401.218245 141.538676 
L 401.686316 140.02779 
L 402.154388 140.393852 
L 402.62246 140.055277 
L 403.090532 139.283245 
L 403.558603 146.249483 
L 404.026675 160.782776 
L 404.494747 170.24012 
L 404.962818 169.519722 
L 405.43089 170.23987 
L 405.898962 174.268818 
L 406.367034 173.299572 
L 406.835105 170.308881 
L 407.303177 168.797996 
L 407.771249 165.910531 
L 408.707392 150.792799 
L 409.175464 149.200926 
L 409.643536 145.968463 
L 410.111607 144.488025 
L 410.579679 146.815835 
L 411.047751 147.093266 
L 411.515823 143.829489 
L 411.983894 144.557154 
L 412.451966 147.302905 
L 412.920038 143.654906 
L 413.856181 146.68507 
L 414.324253 146.770993 
L 414.792325 146.574275 
L 415.260396 146.804677 
L 415.728468 146.251033 
L 416.19654 145.921698 
L 416.664612 145.170333 
L 417.132683 144.676068 
L 417.600755 144.938382 
L 418.068827 144.267912 
L 418.536898 145.26253 
L 419.00497 145.36317 
L 419.473042 148.793345 
L 419.941114 167.068775 
L 420.409185 169.178885 
L 420.877257 165.035481 
L 421.345329 175.043732 
L 421.8134 195.047782 
L 422.281472 192.353575 
L 422.749544 179.948751 
L 423.217616 182.370744 
L 423.685687 200.677752 
L 424.621831 176.738114 
L 425.089902 180.141052 
L 425.557974 179.349161 
L 426.026046 166.982192 
L 426.494118 159.60002 
L 426.962189 159.09315 
L 427.430261 163.198589 
L 427.898333 148.80363 
L 428.834476 145.097699 
L 429.77062 144.021122 
L 430.238691 142.770199 
L 430.706763 143.51191 
L 431.642907 144.296684 
L 432.110978 143.980837 
L 432.57905 144.001086 
L 433.047122 143.513947 
L 433.515193 143.680503 
L 433.983265 144.395316 
L 434.451337 144.391334 
L 435.855552 140.581909 
L 436.323624 139.854717 
L 436.791696 140.210784 
L 437.259767 140.067684 
L 437.727839 138.975867 
L 438.195911 139.420587 
L 438.663982 140.512431 
L 439.132054 141.308498 
L 439.600126 141.234442 
L 440.536269 142.648405 
L 441.004341 141.107094 
L 441.472413 140.135128 
L 441.940484 140.223479 
L 442.408556 140.158681 
L 442.876628 140.467068 
L 443.3447 140.050604 
L 443.812771 137.928272 
L 444.280843 138.746831 
L 444.748915 138.869482 
L 445.216986 138.305739 
L 445.685058 139.272742 
L 446.621202 154.582012 
L 447.089273 152.251849 
L 447.557345 151.841297 
L 448.025417 155.180911 
L 448.493489 157.100377 
L 448.96156 155.203175 
L 449.429632 154.412027 
L 449.897704 157.111298 
L 450.365775 152.786889 
L 450.833847 146.062173 
L 451.301919 145.172899 
L 451.769991 145.252599 
L 452.238062 145.515885 
L 452.706134 143.54235 
L 453.642277 143.962866 
L 454.110349 143.822977 
L 454.578421 143.021126 
L 455.046493 145.402676 
L 455.514564 146.201028 
L 455.982636 144.703855 
L 456.450708 145.606364 
L 456.918779 147.387346 
L 457.386851 147.565596 
L 457.854923 148.289698 
L 458.322995 149.885882 
L 458.791066 149.48974 
L 459.259138 152.463856 
L 459.72721 161.253736 
L 460.195282 163.014505 
L 460.663353 170.809636 
L 461.131425 175.096222 
L 461.599497 184.61754 
L 462.067568 185.397207 
L 462.53564 189.88693 
L 463.003712 201.739834 
L 463.471784 199.537128 
L 463.939855 193.283246 
L 464.407927 193.951761 
L 464.875999 188.64919 
L 465.34407 186.31058 
L 465.812142 175.779966 
L 466.280214 185.777606 
L 466.748286 182.414287 
L 467.216357 173.00218 
L 467.684429 172.139953 
L 468.152501 174.146143 
L 468.620573 175.458628 
L 469.088644 173.360441 
L 469.556716 173.20661 
L 470.024788 175.858661 
L 470.492859 169.437152 
L 470.960931 169.68723 
L 471.429003 169.474532 
L 471.897075 169.850321 
L 472.833218 179.061172 
L 473.30129 188.05036 
L 473.769361 187.73203 
L 474.237433 185.936061 
L 474.705505 188.874124 
L 475.173577 189.600532 
L 475.641648 187.227865 
L 476.577792 179.179179 
L 477.045863 178.699058 
L 477.513935 171.095708 
L 477.982007 169.566601 
L 478.450079 168.697232 
L 478.91815 170.227992 
L 479.386222 169.771381 
L 479.854294 178.29828 
L 480.790437 202.952926 
L 481.258509 210.934858 
L 482.194652 231.004732 
L 482.662724 235.811913 
L 483.130796 239.140879 
L 483.598868 240.540122 
L 484.066939 240.283561 
L 484.535011 236.959086 
L 485.471154 221.878851 
L 485.939226 214.786706 
L 486.407298 210.807704 
L 486.87537 210.478413 
L 487.343441 206.119364 
L 487.811513 211.1772 
L 488.279585 217.647976 
L 488.747656 222.137541 
L 489.6838 217.431251 
L 490.151872 221.041819 
L 490.619943 223.423291 
L 491.088015 216.540222 
L 491.556087 213.995663 
L 492.024159 209.741955 
L 492.49223 202.301108 
L 492.960302 198.9289 
L 493.428374 198.320548 
L 493.896445 204.855499 
L 494.364517 206.669972 
L 494.832589 201.092784 
L 495.300661 206.298153 
L 495.768732 215.107632 
L 496.236804 215.779187 
L 496.704876 209.11569 
L 497.172947 207.388741 
L 497.641019 207.382628 
L 497.641019 207.382628 
" clip-path="url(#pd3f917326a)" style="fill: none; stroke: #ff7f0e; stroke-width: 1.5; stroke-linecap: round"/>
   </g>
   <g id="patch_3">
    <path d="M 72 384.48 
L 72 51.84 
" style="fill: none; stroke: #ffffff; stroke-width: 0.8; stroke-linejoin: miter; stroke-linecap: square"/>
   </g>
   <g id="patch_4">
    <path d="M 518.4 384.48 
L 518.4 51.84 
" style="fill: none; stroke: #ffffff; stroke-width: 0.8; stroke-linejoin: miter; stroke-linecap: square"/>
   </g>
   <g id="patch_5">
    <path d="M 72 384.48 
L 518.4 384.48 
" style="fill: none; stroke: #ffffff; stroke-width: 0.8; stroke-linejoin: miter; stroke-linecap: square"/>
   </g>
   <g id="patch_6">
    <path d="M 72 51.84 
L 518.4 51.84 
" style="fill: none; stroke: #ffffff; stroke-width: 0.8; stroke-linejoin: miter; stroke-linecap: square"/>
   </g>
   <g id="text_15">
    <!-- Average Temperature Prediction 14 Days Ahead -->
    <g style="fill: #262626" transform="translate(167.011875 45.84) scale(0.12 -0.12)">
     <defs>
      <path id="ArialMT-41" d="M -9 0 
L 1750 4581 
L 2403 4581 
L 4278 0 
L 3588 0 
L 3053 1388 
L 1138 1388 
L 634 0 
L -9 0 
z
M 1313 1881 
L 2866 1881 
L 2388 3150 
Q 2169 3728 2063 4100 
Q 1975 3659 1816 3225 
L 1313 1881 
z
" transform="scale(0.015625)"/>
      <path id="ArialMT-76" d="M 1344 0 
L 81 3319 
L 675 3319 
L 1388 1331 
Q 1503 1009 1600 663 
Q 1675 925 1809 1294 
L 2547 3319 
L 3125 3319 
L 1869 0 
L 1344 0 
z
" transform="scale(0.015625)"/>
      <path id="ArialMT-65" d="M 2694 1069 
L 3275 997 
Q 3138 488 2766 206 
Q 2394 -75 1816 -75 
Q 1088 -75 661 373 
Q 234 822 234 1631 
Q 234 2469 665 2931 
Q 1097 3394 1784 3394 
Q 2450 3394 2872 2941 
Q 3294 2488 3294 1666 
Q 3294 1616 3291 1516 
L 816 1516 
Q 847 969 1125 678 
Q 1403 388 1819 388 
Q 2128 388 2347 550 
Q 2566 713 2694 1069 
z
M 847 1978 
L 2700 1978 
Q 2663 2397 2488 2606 
Q 2219 2931 1791 2931 
Q 1403 2931 1139 2672 
Q 875 2413 847 1978 
z
" transform="scale(0.015625)"/>
      <path id="ArialMT-72" d="M 416 0 
L 416 3319 
L 922 3319 
L 922 2816 
Q 1116 3169 1280 3281 
Q 1444 3394 1641 3394 
Q 1925 3394 2219 3213 
L 2025 2691 
Q 1819 2813 1613 2813 
Q 1428 2813 1281 2702 
Q 1134 2591 1072 2394 
Q 978 2094 978 1738 
L 978 0 
L 416 0 
z
" transform="scale(0.015625)"/>
      <path id="ArialMT-67" d="M 319 -275 
L 866 -356 
Q 900 -609 1056 -725 
Q 1266 -881 1628 -881 
Q 2019 -881 2231 -725 
Q 2444 -569 2519 -288 
Q 2563 -116 2559 434 
Q 2191 0 1641 0 
Q 956 0 581 494 
Q 206 988 206 1678 
Q 206 2153 378 2554 
Q 550 2956 876 3175 
Q 1203 3394 1644 3394 
Q 2231 3394 2613 2919 
L 2613 3319 
L 3131 3319 
L 3131 450 
Q 3131 -325 2973 -648 
Q 2816 -972 2473 -1159 
Q 2131 -1347 1631 -1347 
Q 1038 -1347 672 -1080 
Q 306 -813 319 -275 
z
M 784 1719 
Q 784 1066 1043 766 
Q 1303 466 1694 466 
Q 2081 466 2343 764 
Q 2606 1063 2606 1700 
Q 2606 2309 2336 2618 
Q 2066 2928 1684 2928 
Q 1309 2928 1046 2623 
Q 784 2319 784 1719 
z
" transform="scale(0.015625)"/>
      <path id="ArialMT-20" transform="scale(0.015625)"/>
      <path id="ArialMT-54" d="M 1659 0 
L 1659 4041 
L 150 4041 
L 150 4581 
L 3781 4581 
L 3781 4041 
L 2266 4041 
L 2266 0 
L 1659 0 
z
" transform="scale(0.015625)"/>
      <path id="ArialMT-6d" d="M 422 0 
L 422 3319 
L 925 3319 
L 925 2853 
Q 1081 3097 1340 3245 
Q 1600 3394 1931 3394 
Q 2300 3394 2536 3241 
Q 2772 3088 2869 2813 
Q 3263 3394 3894 3394 
Q 4388 3394 4653 3120 
Q 4919 2847 4919 2278 
L 4919 0 
L 4359 0 
L 4359 2091 
Q 4359 2428 4304 2576 
Q 4250 2725 4106 2815 
Q 3963 2906 3769 2906 
Q 3419 2906 3187 2673 
Q 2956 2441 2956 1928 
L 2956 0 
L 2394 0 
L 2394 2156 
Q 2394 2531 2256 2718 
Q 2119 2906 1806 2906 
Q 1569 2906 1367 2781 
Q 1166 2656 1075 2415 
Q 984 2175 984 1722 
L 984 0 
L 422 0 
z
" transform="scale(0.015625)"/>
      <path id="ArialMT-70" d="M 422 -1272 
L 422 3319 
L 934 3319 
L 934 2888 
Q 1116 3141 1344 3267 
Q 1572 3394 1897 3394 
Q 2322 3394 2647 3175 
Q 2972 2956 3137 2557 
Q 3303 2159 3303 1684 
Q 3303 1175 3120 767 
Q 2938 359 2589 142 
Q 2241 -75 1856 -75 
Q 1575 -75 1351 44 
Q 1128 163 984 344 
L 984 -1272 
L 422 -1272 
z
M 931 1641 
Q 931 1000 1190 694 
Q 1450 388 1819 388 
Q 2194 388 2461 705 
Q 2728 1022 2728 1688 
Q 2728 2322 2467 2637 
Q 2206 2953 1844 2953 
Q 1484 2953 1207 2617 
Q 931 2281 931 1641 
z
" transform="scale(0.015625)"/>
      <path id="ArialMT-74" d="M 1650 503 
L 1731 6 
Q 1494 -44 1306 -44 
Q 1000 -44 831 53 
Q 663 150 594 308 
Q 525 466 525 972 
L 525 2881 
L 113 2881 
L 113 3319 
L 525 3319 
L 525 4141 
L 1084 4478 
L 1084 3319 
L 1650 3319 
L 1650 2881 
L 1084 2881 
L 1084 941 
Q 1084 700 1114 631 
Q 1144 563 1211 522 
Q 1278 481 1403 481 
Q 1497 481 1650 503 
z
" transform="scale(0.015625)"/>
      <path id="ArialMT-75" d="M 2597 0 
L 2597 488 
Q 2209 -75 1544 -75 
Q 1250 -75 995 37 
Q 741 150 617 320 
Q 494 491 444 738 
Q 409 903 409 1263 
L 409 3319 
L 972 3319 
L 972 1478 
Q 972 1038 1006 884 
Q 1059 663 1231 536 
Q 1403 409 1656 409 
Q 1909 409 2131 539 
Q 2353 669 2445 892 
Q 2538 1116 2538 1541 
L 2538 3319 
L 3100 3319 
L 3100 0 
L 2597 0 
z
" transform="scale(0.015625)"/>
      <path id="ArialMT-50" d="M 494 0 
L 494 4581 
L 2222 4581 
Q 2678 4581 2919 4538 
Q 3256 4481 3484 4323 
Q 3713 4166 3852 3881 
Q 3991 3597 3991 3256 
Q 3991 2672 3619 2267 
Q 3247 1863 2275 1863 
L 1100 1863 
L 1100 0 
L 494 0 
z
M 1100 2403 
L 2284 2403 
Q 2872 2403 3119 2622 
Q 3366 2841 3366 3238 
Q 3366 3525 3220 3729 
Q 3075 3934 2838 4000 
Q 2684 4041 2272 4041 
L 1100 4041 
L 1100 2403 
z
" transform="scale(0.015625)"/>
      <path id="ArialMT-64" d="M 2575 0 
L 2575 419 
Q 2259 -75 1647 -75 
Q 1250 -75 917 144 
Q 584 363 401 755 
Q 219 1147 219 1656 
Q 219 2153 384 2558 
Q 550 2963 881 3178 
Q 1213 3394 1622 3394 
Q 1922 3394 2156 3267 
Q 2391 3141 2538 2938 
L 2538 4581 
L 3097 4581 
L 3097 0 
L 2575 0 
z
M 797 1656 
Q 797 1019 1065 703 
Q 1334 388 1700 388 
Q 2069 388 2326 689 
Q 2584 991 2584 1609 
Q 2584 2291 2321 2609 
Q 2059 2928 1675 2928 
Q 1300 2928 1048 2622 
Q 797 2316 797 1656 
z
" transform="scale(0.015625)"/>
      <path id="ArialMT-69" d="M 425 3934 
L 425 4581 
L 988 4581 
L 988 3934 
L 425 3934 
z
M 425 0 
L 425 3319 
L 988 3319 
L 988 0 
L 425 0 
z
" transform="scale(0.015625)"/>
      <path id="ArialMT-63" d="M 2588 1216 
L 3141 1144 
Q 3050 572 2676 248 
Q 2303 -75 1759 -75 
Q 1078 -75 664 370 
Q 250 816 250 1647 
Q 250 2184 428 2587 
Q 606 2991 970 3192 
Q 1334 3394 1763 3394 
Q 2303 3394 2647 3120 
Q 2991 2847 3088 2344 
L 2541 2259 
Q 2463 2594 2264 2762 
Q 2066 2931 1784 2931 
Q 1359 2931 1093 2626 
Q 828 2322 828 1663 
Q 828 994 1084 691 
Q 1341 388 1753 388 
Q 2084 388 2306 591 
Q 2528 794 2588 1216 
z
" transform="scale(0.015625)"/>
      <path id="ArialMT-6f" d="M 213 1659 
Q 213 2581 725 3025 
Q 1153 3394 1769 3394 
Q 2453 3394 2887 2945 
Q 3322 2497 3322 1706 
Q 3322 1066 3130 698 
Q 2938 331 2570 128 
Q 2203 -75 1769 -75 
Q 1072 -75 642 372 
Q 213 819 213 1659 
z
M 791 1659 
Q 791 1022 1069 705 
Q 1347 388 1769 388 
Q 2188 388 2466 706 
Q 2744 1025 2744 1678 
Q 2744 2294 2464 2611 
Q 2184 2928 1769 2928 
Q 1347 2928 1069 2612 
Q 791 2297 791 1659 
z
" transform="scale(0.015625)"/>
      <path id="ArialMT-6e" d="M 422 0 
L 422 3319 
L 928 3319 
L 928 2847 
Q 1294 3394 1984 3394 
Q 2284 3394 2536 3286 
Q 2788 3178 2913 3003 
Q 3038 2828 3088 2588 
Q 3119 2431 3119 2041 
L 3119 0 
L 2556 0 
L 2556 2019 
Q 2556 2363 2490 2533 
Q 2425 2703 2258 2804 
Q 2091 2906 1866 2906 
Q 1506 2906 1245 2678 
Q 984 2450 984 1813 
L 984 0 
L 422 0 
z
" transform="scale(0.015625)"/>
      <path id="ArialMT-68" d="M 422 0 
L 422 4581 
L 984 4581 
L 984 2938 
Q 1378 3394 1978 3394 
Q 2347 3394 2619 3248 
Q 2891 3103 3008 2847 
Q 3125 2591 3125 2103 
L 3125 0 
L 2563 0 
L 2563 2103 
Q 2563 2525 2380 2717 
Q 2197 2909 1863 2909 
Q 1613 2909 1392 2779 
Q 1172 2650 1078 2428 
Q 984 2206 984 1816 
L 984 0 
L 422 0 
z
" transform="scale(0.015625)"/>
     </defs>
     <use xlink:href="#ArialMT-41"/>
     <use xlink:href="#ArialMT-76" x="64.949219"/>
     <use xlink:href="#ArialMT-65" x="114.949219"/>
     <use xlink:href="#ArialMT-72" x="170.564453"/>
     <use xlink:href="#ArialMT-61" x="203.865234"/>
     <use xlink:href="#ArialMT-67" x="259.480469"/>
     <use xlink:href="#ArialMT-65" x="315.095703"/>
     <use xlink:href="#ArialMT-20" x="370.710938"/>
     <use xlink:href="#ArialMT-54" x="396.744141"/>
     <use xlink:href="#ArialMT-65" x="446.703125"/>
     <use xlink:href="#ArialMT-6d" x="502.318359"/>
     <use xlink:href="#ArialMT-70" x="585.619141"/>
     <use xlink:href="#ArialMT-65" x="641.234375"/>
     <use xlink:href="#ArialMT-72" x="696.849609"/>
     <use xlink:href="#ArialMT-61" x="730.150391"/>
     <use xlink:href="#ArialMT-74" x="785.765625"/>
     <use xlink:href="#ArialMT-75" x="813.548828"/>
     <use xlink:href="#ArialMT-72" x="869.164062"/>
     <use xlink:href="#ArialMT-65" x="902.464844"/>
     <use xlink:href="#ArialMT-20" x="958.080078"/>
     <use xlink:href="#ArialMT-50" x="985.863281"/>
     <use xlink:href="#ArialMT-72" x="1052.5625"/>
     <use xlink:href="#ArialMT-65" x="1085.863281"/>
     <use xlink:href="#ArialMT-64" x="1141.478516"/>
     <use xlink:href="#ArialMT-69" x="1197.09375"/>
     <use xlink:href="#ArialMT-63" x="1219.310547"/>
     <use xlink:href="#ArialMT-74" x="1269.310547"/>
     <use xlink:href="#ArialMT-69" x="1297.09375"/>
     <use xlink:href="#ArialMT-6f" x="1319.310547"/>
     <use xlink:href="#ArialMT-6e" x="1374.925781"/>
     <use xlink:href="#ArialMT-20" x="1430.541016"/>
     <use xlink:href="#ArialMT-31" x="1458.324219"/>
     <use xlink:href="#ArialMT-34" x="1513.939453"/>
     <use xlink:href="#ArialMT-20" x="1569.554688"/>
     <use xlink:href="#ArialMT-44" x="1597.337891"/>
     <use xlink:href="#ArialMT-61" x="1669.554688"/>
     <use xlink:href="#ArialMT-79" x="1725.169922"/>
     <use xlink:href="#ArialMT-73" x="1775.169922"/>
     <use xlink:href="#ArialMT-20" x="1825.169922"/>
     <use xlink:href="#ArialMT-41" x="1847.453125"/>
     <use xlink:href="#ArialMT-68" x="1914.152344"/>
     <use xlink:href="#ArialMT-65" x="1969.767578"/>
     <use xlink:href="#ArialMT-61" x="2025.382812"/>
     <use xlink:href="#ArialMT-64" x="2080.998047"/>
    </g>
   </g>
   <g id="legend_1">
    <g id="patch_7">
     <path d="M 437.15625 88.130625 
L 511.4 88.130625 
Q 513.4 88.130625 513.4 86.130625 
L 513.4 58.84 
Q 513.4 56.84 511.4 56.84 
L 437.15625 56.84 
Q 435.15625 56.84 435.15625 58.84 
L 435.15625 86.130625 
Q 435.15625 88.130625 437.15625 88.130625 
z
" style="fill: #eaeaf2; opacity: 0.8; stroke: #cccccc; stroke-linejoin: miter"/>
    </g>
    <g id="line2d_15">
     <path d="M 439.15625 64.497812 
L 449.15625 64.497812 
L 459.15625 64.497812 
" style="fill: none; stroke: #1f77b4; stroke-width: 1.5; stroke-linecap: round"/>
    </g>
    <g id="text_16">
     <!-- Real -->
     <g style="fill: #262626" transform="translate(467.15625 67.997812) scale(0.1 -0.1)">
      <defs>
       <path id="ArialMT-52" d="M 503 0 
L 503 4581 
L 2534 4581 
Q 3147 4581 3465 4457 
Q 3784 4334 3975 4021 
Q 4166 3709 4166 3331 
Q 4166 2844 3850 2509 
Q 3534 2175 2875 2084 
Q 3116 1969 3241 1856 
Q 3506 1613 3744 1247 
L 4541 0 
L 3778 0 
L 3172 953 
Q 2906 1366 2734 1584 
Q 2563 1803 2427 1890 
Q 2291 1978 2150 2013 
Q 2047 2034 1813 2034 
L 1109 2034 
L 1109 0 
L 503 0 
z
M 1109 2559 
L 2413 2559 
Q 2828 2559 3062 2645 
Q 3297 2731 3419 2920 
Q 3541 3109 3541 3331 
Q 3541 3656 3305 3865 
Q 3069 4075 2559 4075 
L 1109 4075 
L 1109 2559 
z
" transform="scale(0.015625)"/>
       <path id="ArialMT-6c" d="M 409 0 
L 409 4581 
L 972 4581 
L 972 0 
L 409 0 
z
" transform="scale(0.015625)"/>
      </defs>
      <use xlink:href="#ArialMT-52"/>
      <use xlink:href="#ArialMT-65" x="72.216797"/>
      <use xlink:href="#ArialMT-61" x="127.832031"/>
      <use xlink:href="#ArialMT-6c" x="183.447266"/>
     </g>
    </g>
    <g id="line2d_16">
     <path d="M 439.15625 78.643125 
L 449.15625 78.643125 
L 459.15625 78.643125 
" style="fill: none; stroke: #ff7f0e; stroke-width: 1.5; stroke-linecap: round"/>
    </g>
    <g id="text_17">
     <!-- Predicted -->
     <g style="fill: #262626" transform="translate(467.15625 82.143125) scale(0.1 -0.1)">
      <use xlink:href="#ArialMT-50"/>
      <use xlink:href="#ArialMT-72" x="66.699219"/>
      <use xlink:href="#ArialMT-65" x="100"/>
      <use xlink:href="#ArialMT-64" x="155.615234"/>
      <use xlink:href="#ArialMT-69" x="211.230469"/>
      <use xlink:href="#ArialMT-63" x="233.447266"/>
      <use xlink:href="#ArialMT-74" x="283.447266"/>
      <use xlink:href="#ArialMT-65" x="311.230469"/>
      <use xlink:href="#ArialMT-64" x="366.845703"/>
     </g>
    </g>
   </g>
  </g>
 </g>
 <defs>
  <clipPath id="pd3f917326a">
   <rect x="72" y="51.84" width="446.4" height="332.64"/>
  </clipPath>
 </defs>
</svg>
