<?xml version="1.0" encoding="utf-8" standalone="no"?>
<!DOCTYPE svg PUBLIC "-//W3C//DTD SVG 1.1//EN"
  "http://www.w3.org/Graphics/SVG/1.1/DTD/svg11.dtd">
<svg xmlns:xlink="http://www.w3.org/1999/xlink" width="576pt" height="432pt" viewBox="0 0 576 432" xmlns="http://www.w3.org/2000/svg" version="1.1">
 <metadata>
  <rdf:RDF xmlns:dc="http://purl.org/dc/elements/1.1/" xmlns:cc="http://creativecommons.org/ns#" xmlns:rdf="http://www.w3.org/1999/02/22-rdf-syntax-ns#">
   <cc:Work>
    <dc:type rdf:resource="http://purl.org/dc/dcmitype/StillImage"/>
    <dc:date>2023-11-17T05:07:01.697300</dc:date>
    <dc:format>image/svg+xml</dc:format>
    <dc:creator>
     <cc:Agent>
      <dc:title>Matplotlib v3.8.0, https://matplotlib.org/</dc:title>
     </cc:Agent>
    </dc:creator>
   </cc:Work>
  </rdf:RDF>
 </metadata>
 <defs>
  <style type="text/css">*{stroke-linejoin: round; stroke-linecap: butt}</style>
 </defs>
 <g id="figure_1">
  <g id="patch_1">
   <path d="M 0 432 
L 576 432 
L 576 0 
L 0 0 
z
" style="fill: #ffffff"/>
  </g>
  <g id="axes_1">
   <g id="patch_2">
    <path d="M 72 384.48 
L 518.4 384.48 
L 518.4 51.84 
L 72 51.84 
z
" style="fill: #eaeaf2"/>
   </g>
   <g id="matplotlib.axis_1">
    <g id="xtick_1">
     <g id="line2d_1">
      <path d="M 92.290909 384.48 
L 92.290909 51.84 
" clip-path="url(#p22e38641aa)" style="fill: none; stroke: #ffffff; stroke-width: 0.8; stroke-linecap: round"/>
     </g>
     <g id="text_1">
      <!-- 0 -->
      <g style="fill: #262626" transform="translate(89.51044 398.637812) scale(0.1 -0.1)">
       <defs>
        <path id="ArialMT-30" d="M 266 2259 
Q 266 3072 433 3567 
Q 600 4063 929 4331 
Q 1259 4600 1759 4600 
Q 2128 4600 2406 4451 
Q 2684 4303 2865 4023 
Q 3047 3744 3150 3342 
Q 3253 2941 3253 2259 
Q 3253 1453 3087 958 
Q 2922 463 2592 192 
Q 2263 -78 1759 -78 
Q 1097 -78 719 397 
Q 266 969 266 2259 
z
M 844 2259 
Q 844 1131 1108 757 
Q 1372 384 1759 384 
Q 2147 384 2411 759 
Q 2675 1134 2675 2259 
Q 2675 3391 2411 3762 
Q 2147 4134 1753 4134 
Q 1366 4134 1134 3806 
Q 844 3388 844 2259 
z
" transform="scale(0.015625)"/>
       </defs>
       <use xlink:href="#ArialMT-30"/>
      </g>
     </g>
    </g>
    <g id="xtick_2">
     <g id="line2d_2">
      <path d="M 187.553393 384.48 
L 187.553393 51.84 
" clip-path="url(#p22e38641aa)" style="fill: none; stroke: #ffffff; stroke-width: 0.8; stroke-linecap: round"/>
     </g>
     <g id="text_2">
      <!-- 200 -->
      <g style="fill: #262626" transform="translate(179.211987 398.637812) scale(0.1 -0.1)">
       <defs>
        <path id="ArialMT-32" d="M 3222 541 
L 3222 0 
L 194 0 
Q 188 203 259 391 
Q 375 700 629 1000 
Q 884 1300 1366 1694 
Q 2113 2306 2375 2664 
Q 2638 3022 2638 3341 
Q 2638 3675 2398 3904 
Q 2159 4134 1775 4134 
Q 1369 4134 1125 3890 
Q 881 3647 878 3216 
L 300 3275 
Q 359 3922 746 4261 
Q 1134 4600 1788 4600 
Q 2447 4600 2831 4234 
Q 3216 3869 3216 3328 
Q 3216 3053 3103 2787 
Q 2991 2522 2730 2228 
Q 2469 1934 1863 1422 
Q 1356 997 1212 845 
Q 1069 694 975 541 
L 3222 541 
z
" transform="scale(0.015625)"/>
       </defs>
       <use xlink:href="#ArialMT-32"/>
       <use xlink:href="#ArialMT-30" x="55.615234"/>
       <use xlink:href="#ArialMT-30" x="111.230469"/>
      </g>
     </g>
    </g>
    <g id="xtick_3">
     <g id="line2d_3">
      <path d="M 282.815877 384.48 
L 282.815877 51.84 
" clip-path="url(#p22e38641aa)" style="fill: none; stroke: #ffffff; stroke-width: 0.8; stroke-linecap: round"/>
     </g>
     <g id="text_3">
      <!-- 400 -->
      <g style="fill: #262626" transform="translate(274.474471 398.637812) scale(0.1 -0.1)">
       <defs>
        <path id="ArialMT-34" d="M 2069 0 
L 2069 1097 
L 81 1097 
L 81 1613 
L 2172 4581 
L 2631 4581 
L 2631 1613 
L 3250 1613 
L 3250 1097 
L 2631 1097 
L 2631 0 
L 2069 0 
z
M 2069 1613 
L 2069 3678 
L 634 1613 
L 2069 1613 
z
" transform="scale(0.015625)"/>
       </defs>
       <use xlink:href="#ArialMT-34"/>
       <use xlink:href="#ArialMT-30" x="55.615234"/>
       <use xlink:href="#ArialMT-30" x="111.230469"/>
      </g>
     </g>
    </g>
    <g id="xtick_4">
     <g id="line2d_4">
      <path d="M 378.078361 384.48 
L 378.078361 51.84 
" clip-path="url(#p22e38641aa)" style="fill: none; stroke: #ffffff; stroke-width: 0.8; stroke-linecap: round"/>
     </g>
     <g id="text_4">
      <!-- 600 -->
      <g style="fill: #262626" transform="translate(369.736955 398.637812) scale(0.1 -0.1)">
       <defs>
        <path id="ArialMT-36" d="M 3184 3459 
L 2625 3416 
Q 2550 3747 2413 3897 
Q 2184 4138 1850 4138 
Q 1581 4138 1378 3988 
Q 1113 3794 959 3422 
Q 806 3050 800 2363 
Q 1003 2672 1297 2822 
Q 1591 2972 1913 2972 
Q 2475 2972 2870 2558 
Q 3266 2144 3266 1488 
Q 3266 1056 3080 686 
Q 2894 316 2569 119 
Q 2244 -78 1831 -78 
Q 1128 -78 684 439 
Q 241 956 241 2144 
Q 241 3472 731 4075 
Q 1159 4600 1884 4600 
Q 2425 4600 2770 4297 
Q 3116 3994 3184 3459 
z
M 888 1484 
Q 888 1194 1011 928 
Q 1134 663 1356 523 
Q 1578 384 1822 384 
Q 2178 384 2434 671 
Q 2691 959 2691 1453 
Q 2691 1928 2437 2201 
Q 2184 2475 1800 2475 
Q 1419 2475 1153 2201 
Q 888 1928 888 1484 
z
" transform="scale(0.015625)"/>
       </defs>
       <use xlink:href="#ArialMT-36"/>
       <use xlink:href="#ArialMT-30" x="55.615234"/>
       <use xlink:href="#ArialMT-30" x="111.230469"/>
      </g>
     </g>
    </g>
    <g id="xtick_5">
     <g id="line2d_5">
      <path d="M 473.340845 384.48 
L 473.340845 51.84 
" clip-path="url(#p22e38641aa)" style="fill: none; stroke: #ffffff; stroke-width: 0.8; stroke-linecap: round"/>
     </g>
     <g id="text_5">
      <!-- 800 -->
      <g style="fill: #262626" transform="translate(464.999439 398.637812) scale(0.1 -0.1)">
       <defs>
        <path id="ArialMT-38" d="M 1131 2484 
Q 781 2613 612 2850 
Q 444 3088 444 3419 
Q 444 3919 803 4259 
Q 1163 4600 1759 4600 
Q 2359 4600 2725 4251 
Q 3091 3903 3091 3403 
Q 3091 3084 2923 2848 
Q 2756 2613 2416 2484 
Q 2838 2347 3058 2040 
Q 3278 1734 3278 1309 
Q 3278 722 2862 322 
Q 2447 -78 1769 -78 
Q 1091 -78 675 323 
Q 259 725 259 1325 
Q 259 1772 486 2073 
Q 713 2375 1131 2484 
z
M 1019 3438 
Q 1019 3113 1228 2906 
Q 1438 2700 1772 2700 
Q 2097 2700 2305 2904 
Q 2513 3109 2513 3406 
Q 2513 3716 2298 3927 
Q 2084 4138 1766 4138 
Q 1444 4138 1231 3931 
Q 1019 3725 1019 3438 
z
M 838 1322 
Q 838 1081 952 856 
Q 1066 631 1291 507 
Q 1516 384 1775 384 
Q 2178 384 2440 643 
Q 2703 903 2703 1303 
Q 2703 1709 2433 1975 
Q 2163 2241 1756 2241 
Q 1359 2241 1098 1978 
Q 838 1716 838 1322 
z
" transform="scale(0.015625)"/>
       </defs>
       <use xlink:href="#ArialMT-38"/>
       <use xlink:href="#ArialMT-30" x="55.615234"/>
       <use xlink:href="#ArialMT-30" x="111.230469"/>
      </g>
     </g>
    </g>
    <g id="text_6">
     <!-- Days -->
     <g style="fill: #262626" transform="translate(283.808594 411.783125) scale(0.1 -0.1)">
      <defs>
       <path id="ArialMT-44" d="M 494 0 
L 494 4581 
L 2072 4581 
Q 2606 4581 2888 4516 
Q 3281 4425 3559 4188 
Q 3922 3881 4101 3404 
Q 4281 2928 4281 2316 
Q 4281 1794 4159 1391 
Q 4038 988 3847 723 
Q 3656 459 3429 307 
Q 3203 156 2883 78 
Q 2563 0 2147 0 
L 494 0 
z
M 1100 541 
L 2078 541 
Q 2531 541 2789 625 
Q 3047 709 3200 863 
Q 3416 1078 3536 1442 
Q 3656 1806 3656 2325 
Q 3656 3044 3420 3430 
Q 3184 3816 2847 3947 
Q 2603 4041 2063 4041 
L 1100 4041 
L 1100 541 
z
" transform="scale(0.015625)"/>
       <path id="ArialMT-61" d="M 2588 409 
Q 2275 144 1986 34 
Q 1697 -75 1366 -75 
Q 819 -75 525 192 
Q 231 459 231 875 
Q 231 1119 342 1320 
Q 453 1522 633 1644 
Q 813 1766 1038 1828 
Q 1203 1872 1538 1913 
Q 2219 1994 2541 2106 
Q 2544 2222 2544 2253 
Q 2544 2597 2384 2738 
Q 2169 2928 1744 2928 
Q 1347 2928 1158 2789 
Q 969 2650 878 2297 
L 328 2372 
Q 403 2725 575 2942 
Q 747 3159 1072 3276 
Q 1397 3394 1825 3394 
Q 2250 3394 2515 3294 
Q 2781 3194 2906 3042 
Q 3031 2891 3081 2659 
Q 3109 2516 3109 2141 
L 3109 1391 
Q 3109 606 3145 398 
Q 3181 191 3288 0 
L 2700 0 
Q 2613 175 2588 409 
z
M 2541 1666 
Q 2234 1541 1622 1453 
Q 1275 1403 1131 1340 
Q 988 1278 909 1158 
Q 831 1038 831 891 
Q 831 666 1001 516 
Q 1172 366 1500 366 
Q 1825 366 2078 508 
Q 2331 650 2450 897 
Q 2541 1088 2541 1459 
L 2541 1666 
z
" transform="scale(0.015625)"/>
       <path id="ArialMT-79" d="M 397 -1278 
L 334 -750 
Q 519 -800 656 -800 
Q 844 -800 956 -737 
Q 1069 -675 1141 -563 
Q 1194 -478 1313 -144 
Q 1328 -97 1363 -6 
L 103 3319 
L 709 3319 
L 1400 1397 
Q 1534 1031 1641 628 
Q 1738 1016 1872 1384 
L 2581 3319 
L 3144 3319 
L 1881 -56 
Q 1678 -603 1566 -809 
Q 1416 -1088 1222 -1217 
Q 1028 -1347 759 -1347 
Q 597 -1347 397 -1278 
z
" transform="scale(0.015625)"/>
       <path id="ArialMT-73" d="M 197 991 
L 753 1078 
Q 800 744 1014 566 
Q 1228 388 1613 388 
Q 2000 388 2187 545 
Q 2375 703 2375 916 
Q 2375 1106 2209 1216 
Q 2094 1291 1634 1406 
Q 1016 1563 777 1677 
Q 538 1791 414 1992 
Q 291 2194 291 2438 
Q 291 2659 392 2848 
Q 494 3038 669 3163 
Q 800 3259 1026 3326 
Q 1253 3394 1513 3394 
Q 1903 3394 2198 3281 
Q 2494 3169 2634 2976 
Q 2775 2784 2828 2463 
L 2278 2388 
Q 2241 2644 2061 2787 
Q 1881 2931 1553 2931 
Q 1166 2931 1000 2803 
Q 834 2675 834 2503 
Q 834 2394 903 2306 
Q 972 2216 1119 2156 
Q 1203 2125 1616 2013 
Q 2213 1853 2448 1751 
Q 2684 1650 2818 1456 
Q 2953 1263 2953 975 
Q 2953 694 2789 445 
Q 2625 197 2315 61 
Q 2006 -75 1616 -75 
Q 969 -75 630 194 
Q 291 463 197 991 
z
" transform="scale(0.015625)"/>
      </defs>
      <use xlink:href="#ArialMT-44"/>
      <use xlink:href="#ArialMT-61" x="72.216797"/>
      <use xlink:href="#ArialMT-79" x="127.832031"/>
      <use xlink:href="#ArialMT-73" x="177.832031"/>
     </g>
    </g>
   </g>
   <g id="matplotlib.axis_2">
    <g id="ytick_1">
     <g id="line2d_6">
      <path d="M 72 369.107579 
L 518.4 369.107579 
" clip-path="url(#p22e38641aa)" style="fill: none; stroke: #ffffff; stroke-width: 0.8; stroke-linecap: round"/>
     </g>
     <g id="text_7">
      <!-- 0 -->
      <g style="fill: #262626" transform="translate(59.439062 372.686486) scale(0.1 -0.1)">
       <use xlink:href="#ArialMT-30"/>
      </g>
     </g>
    </g>
    <g id="ytick_2">
     <g id="line2d_7">
      <path d="M 72 318.623439 
L 518.4 318.623439 
" clip-path="url(#p22e38641aa)" style="fill: none; stroke: #ffffff; stroke-width: 0.8; stroke-linecap: round"/>
     </g>
     <g id="text_8">
      <!-- 200 -->
      <g style="fill: #262626" transform="translate(48.317188 322.202345) scale(0.1 -0.1)">
       <use xlink:href="#ArialMT-32"/>
       <use xlink:href="#ArialMT-30" x="55.615234"/>
       <use xlink:href="#ArialMT-30" x="111.230469"/>
      </g>
     </g>
    </g>
    <g id="ytick_3">
     <g id="line2d_8">
      <path d="M 72 268.139299 
L 518.4 268.139299 
" clip-path="url(#p22e38641aa)" style="fill: none; stroke: #ffffff; stroke-width: 0.8; stroke-linecap: round"/>
     </g>
     <g id="text_9">
      <!-- 400 -->
      <g style="fill: #262626" transform="translate(48.317188 271.718205) scale(0.1 -0.1)">
       <use xlink:href="#ArialMT-34"/>
       <use xlink:href="#ArialMT-30" x="55.615234"/>
       <use xlink:href="#ArialMT-30" x="111.230469"/>
      </g>
     </g>
    </g>
    <g id="ytick_4">
     <g id="line2d_9">
      <path d="M 72 217.655159 
L 518.4 217.655159 
" clip-path="url(#p22e38641aa)" style="fill: none; stroke: #ffffff; stroke-width: 0.8; stroke-linecap: round"/>
     </g>
     <g id="text_10">
      <!-- 600 -->
      <g style="fill: #262626" transform="translate(48.317188 221.234065) scale(0.1 -0.1)">
       <use xlink:href="#ArialMT-36"/>
       <use xlink:href="#ArialMT-30" x="55.615234"/>
       <use xlink:href="#ArialMT-30" x="111.230469"/>
      </g>
     </g>
    </g>
    <g id="ytick_5">
     <g id="line2d_10">
      <path d="M 72 167.171018 
L 518.4 167.171018 
" clip-path="url(#p22e38641aa)" style="fill: none; stroke: #ffffff; stroke-width: 0.8; stroke-linecap: round"/>
     </g>
     <g id="text_11">
      <!-- 800 -->
      <g style="fill: #262626" transform="translate(48.317188 170.749925) scale(0.1 -0.1)">
       <use xlink:href="#ArialMT-38"/>
       <use xlink:href="#ArialMT-30" x="55.615234"/>
       <use xlink:href="#ArialMT-30" x="111.230469"/>
      </g>
     </g>
    </g>
    <g id="ytick_6">
     <g id="line2d_11">
      <path d="M 72 116.686878 
L 518.4 116.686878 
" clip-path="url(#p22e38641aa)" style="fill: none; stroke: #ffffff; stroke-width: 0.8; stroke-linecap: round"/>
     </g>
     <g id="text_12">
      <!-- 1000 -->
      <g style="fill: #262626" transform="translate(42.75625 120.265784) scale(0.1 -0.1)">
       <defs>
        <path id="ArialMT-31" d="M 2384 0 
L 1822 0 
L 1822 3584 
Q 1619 3391 1289 3197 
Q 959 3003 697 2906 
L 697 3450 
Q 1169 3672 1522 3987 
Q 1875 4303 2022 4600 
L 2384 4600 
L 2384 0 
z
" transform="scale(0.015625)"/>
       </defs>
       <use xlink:href="#ArialMT-31"/>
       <use xlink:href="#ArialMT-30" x="55.615234"/>
       <use xlink:href="#ArialMT-30" x="111.230469"/>
       <use xlink:href="#ArialMT-30" x="166.845703"/>
      </g>
     </g>
    </g>
    <g id="ytick_7">
     <g id="line2d_12">
      <path d="M 72 66.202738 
L 518.4 66.202738 
" clip-path="url(#p22e38641aa)" style="fill: none; stroke: #ffffff; stroke-width: 0.8; stroke-linecap: round"/>
     </g>
     <g id="text_13">
      <!-- 1200 -->
      <g style="fill: #262626" transform="translate(42.75625 69.781644) scale(0.1 -0.1)">
       <use xlink:href="#ArialMT-31"/>
       <use xlink:href="#ArialMT-32" x="55.615234"/>
       <use xlink:href="#ArialMT-30" x="111.230469"/>
       <use xlink:href="#ArialMT-30" x="166.845703"/>
      </g>
     </g>
    </g>
    <g id="text_14">
     <!-- (W/m^2) -->
     <g style="fill: #262626" transform="translate(36.651562 236.889687) rotate(-90) scale(0.1 -0.1)">
      <defs>
       <path id="ArialMT-28" d="M 1497 -1347 
Q 1031 -759 709 28 
Q 388 816 388 1659 
Q 388 2403 628 3084 
Q 909 3875 1497 4659 
L 1900 4659 
Q 1522 4009 1400 3731 
Q 1209 3300 1100 2831 
Q 966 2247 966 1656 
Q 966 153 1900 -1347 
L 1497 -1347 
z
" transform="scale(0.015625)"/>
       <path id="ArialMT-57" d="M 1294 0 
L 78 4581 
L 700 4581 
L 1397 1578 
Q 1509 1106 1591 641 
Q 1766 1375 1797 1488 
L 2669 4581 
L 3400 4581 
L 4056 2263 
Q 4303 1400 4413 641 
Q 4500 1075 4641 1638 
L 5359 4581 
L 5969 4581 
L 4713 0 
L 4128 0 
L 3163 3491 
Q 3041 3928 3019 4028 
Q 2947 3713 2884 3491 
L 1913 0 
L 1294 0 
z
" transform="scale(0.015625)"/>
       <path id="ArialMT-2f" d="M 0 -78 
L 1328 4659 
L 1778 4659 
L 453 -78 
L 0 -78 
z
" transform="scale(0.015625)"/>
       <path id="ArialMT-6d" d="M 422 0 
L 422 3319 
L 925 3319 
L 925 2853 
Q 1081 3097 1340 3245 
Q 1600 3394 1931 3394 
Q 2300 3394 2536 3241 
Q 2772 3088 2869 2813 
Q 3263 3394 3894 3394 
Q 4388 3394 4653 3120 
Q 4919 2847 4919 2278 
L 4919 0 
L 4359 0 
L 4359 2091 
Q 4359 2428 4304 2576 
Q 4250 2725 4106 2815 
Q 3963 2906 3769 2906 
Q 3419 2906 3187 2673 
Q 2956 2441 2956 1928 
L 2956 0 
L 2394 0 
L 2394 2156 
Q 2394 2531 2256 2718 
Q 2119 2906 1806 2906 
Q 1569 2906 1367 2781 
Q 1166 2656 1075 2415 
Q 984 2175 984 1722 
L 984 0 
L 422 0 
z
" transform="scale(0.015625)"/>
       <path id="ArialMT-5e" d="M 747 2156 
L 169 2156 
L 1272 4659 
L 1725 4659 
L 2834 2156 
L 2269 2156 
L 1497 4022 
L 747 2156 
z
" transform="scale(0.015625)"/>
       <path id="ArialMT-29" d="M 791 -1347 
L 388 -1347 
Q 1322 153 1322 1656 
Q 1322 2244 1188 2822 
Q 1081 3291 891 3722 
Q 769 4003 388 4659 
L 791 4659 
Q 1378 3875 1659 3084 
Q 1900 2403 1900 1659 
Q 1900 816 1576 28 
Q 1253 -759 791 -1347 
z
" transform="scale(0.015625)"/>
      </defs>
      <use xlink:href="#ArialMT-28"/>
      <use xlink:href="#ArialMT-57" x="33.300781"/>
      <use xlink:href="#ArialMT-2f" x="127.685547"/>
      <use xlink:href="#ArialMT-6d" x="155.46875"/>
      <use xlink:href="#ArialMT-5e" x="238.769531"/>
      <use xlink:href="#ArialMT-32" x="285.693359"/>
      <use xlink:href="#ArialMT-29" x="341.308594"/>
     </g>
    </g>
   </g>
   <g id="line2d_13">
    <path d="M 92.290909 116.434457 
L 92.767222 132.084541 
L 93.243534 170.957329 
L 93.719846 116.686878 
L 94.196159 152.025776 
L 94.672471 143.443472 
L 95.148784 148.239466 
L 95.625096 159.598397 
L 96.101408 338.564674 
L 96.577721 330.234791 
L 97.054033 274.954658 
L 97.530346 278.993389 
L 98.006658 236.586711 
L 98.482971 300.95399 
L 98.959283 277.983706 
L 99.435595 330.234791 
L 99.911908 332.758998 
L 100.38822 227.247145 
L 100.864533 167.423439 
L 101.340845 226.994725 
L 101.817157 181.811419 
L 102.29347 182.821102 
L 103.246095 186.607412 
L 104.19872 166.918598 
L 104.675032 233.810083 
L 105.151344 192.91793 
L 105.627657 207.30591 
L 106.103969 188.121937 
L 106.580282 194.937295 
L 107.056594 207.810751 
L 107.532907 196.45182 
L 108.009219 342.603406 
L 108.485531 328.467846 
L 108.961844 173.733957 
L 109.438156 321.147646 
L 109.914469 120.725609 
L 110.390781 186.607412 
L 110.867093 151.268514 
L 111.343406 193.422771 
L 111.819718 329.477529 
L 112.296031 272.430451 
L 112.772343 156.82177 
L 113.724968 241.887546 
L 114.20128 203.267179 
L 114.677593 192.665509 
L 115.153905 305.749983 
L 115.630218 196.45182 
L 116.10653 209.830117 
L 117.059155 206.043806 
L 117.535467 206.043806 
L 118.01178 295.653155 
L 118.488092 341.593723 
L 118.964405 216.393055 
L 119.440717 298.682204 
L 119.917029 323.419432 
L 120.393342 218.664841 
L 120.869654 199.733289 
L 121.345967 195.442137 
L 121.822279 220.431786 
L 122.298592 203.519599 
L 122.774904 196.45182 
L 123.251216 197.461503 
L 123.727529 190.898564 
L 124.203841 168.937963 
L 124.680154 241.382705 
L 125.156466 208.820434 
L 126.109091 203.77202 
L 126.585403 202.509917 
L 127.061716 204.529282 
L 127.538028 203.267179 
L 128.014341 214.373689 
L 128.490653 217.655159 
L 128.966965 211.849482 
L 129.443278 197.713923 
L 129.91959 340.836461 
L 130.395903 319.380701 
L 130.872215 221.441469 
L 131.348528 273.944975 
L 131.82484 341.088881 
L 132.301152 207.558331 
L 132.777465 201.752654 
L 133.253777 205.538965 
L 133.73009 216.140634 
L 134.206402 207.558331 
L 134.682714 212.354324 
L 135.159027 340.58404 
L 135.635339 320.390384 
L 136.111652 200.490551 
L 136.587964 198.471185 
L 137.064277 337.05015 
L 138.016901 331.496895 
L 138.493214 213.616427 
L 138.969526 202.509917 
L 139.445839 170.704908 
L 139.922151 195.442137 
L 140.398464 190.898564 
L 140.874776 194.937295 
L 141.351088 176.258164 
L 141.827401 199.480868 
L 142.303713 196.956661 
L 142.780026 304.992721 
L 143.256338 332.506578 
L 143.73265 187.617095 
L 144.685275 188.121937 
L 145.161588 180.044474 
L 145.6379 184.588047 
L 146.114213 182.821102 
L 146.590525 148.996728 
L 147.066837 162.375025 
L 147.54315 207.30591 
L 148.019462 189.888881 
L 148.495775 201.500234 
L 148.972087 193.170351 
L 149.448399 289.090217 
L 149.924712 334.525943 
L 150.401024 245.926277 
L 150.877337 179.792053 
L 151.353649 311.80808 
L 151.829962 176.510584 
L 152.306274 158.336294 
L 152.782586 184.083205 
L 153.258899 181.054157 
L 153.735211 180.801736 
L 154.687836 196.956661 
L 155.164149 150.258831 
L 155.640461 139.657162 
L 156.116773 170.452487 
L 156.593086 171.714591 
L 157.069398 166.666177 
L 157.545711 165.404073 
L 158.022023 176.763005 
L 158.498335 178.52995 
L 158.974648 244.411753 
L 159.45096 166.666177 
L 159.927273 180.549316 
L 160.403585 167.171018 
L 160.879898 326.953322 
L 161.35621 284.041803 
L 161.832522 300.449149 
L 162.308835 161.617763 
L 162.785147 147.987045 
L 163.26146 141.171686 
L 164.214085 189.636461 
L 164.690397 158.083873 
L 165.166709 161.870184 
L 165.643022 120.473189 
L 166.119334 252.741636 
L 166.595647 173.481536 
L 167.071959 154.297563 
L 168.024584 242.644808 
L 168.500896 196.45182 
L 168.977209 298.682204 
L 169.453521 211.09222 
L 169.929834 157.07419 
L 170.406146 148.491886 
L 170.882458 135.870851 
L 171.358771 308.02177 
L 171.835083 135.618431 
L 172.311396 169.947646 
L 172.787708 132.841803 
L 173.26402 143.695893 
L 173.740333 197.713923 
L 174.216645 235.324608 
L 174.692958 132.084541 
L 175.16927 87.658497 
L 175.645583 132.336962 
L 176.121895 143.695893 
L 176.598207 137.385376 
L 177.07452 147.734624 
L 177.550832 140.919265 
L 178.027145 137.890217 
L 178.503457 140.162003 
L 178.97977 148.239466 
L 179.456082 127.036127 
L 179.932394 139.404741 
L 180.408707 142.181369 
L 180.885019 121.230451 
L 181.361332 126.026444 
L 181.837644 154.549983 
L 182.313956 136.628114 
L 182.790269 131.327279 
L 183.266581 142.43379 
L 183.742894 150.511252 
L 184.219206 178.025109 
L 184.695519 158.841135 
L 185.171831 147.734624 
L 185.648143 129.055492 
L 186.124456 139.909583 
L 186.600768 145.210417 
L 187.077081 138.142638 
L 187.553393 247.440801 
L 188.029706 137.132955 
L 188.506018 147.734624 
L 188.98233 151.268514 
L 189.458643 152.530618 
L 189.934955 133.094224 
L 190.411268 151.773356 
L 190.88758 111.638464 
L 191.363892 115.929616 
L 191.840205 121.230451 
L 192.316517 145.210417 
L 192.79283 193.170351 
L 193.269142 100.784374 
L 193.745455 112.648147 
L 194.221767 92.454491 
L 194.698079 93.716594 
L 195.174392 147.987045 
L 195.650704 126.026444 
L 196.127017 125.774023 
L 196.603329 140.162003 
L 197.079641 148.491886 
L 197.555954 152.278197 
L 198.032266 140.666845 
L 198.508579 162.122604 
L 198.984891 150.763673 
L 199.461204 124.764341 
L 199.937516 106.59005 
L 200.413828 113.65783 
L 200.890141 144.453155 
L 201.366453 116.434457 
L 202.319078 195.694558 
L 202.795391 111.638464 
L 203.271703 121.987713 
L 203.748015 118.958664 
L 204.224328 116.686878 
L 204.70064 110.376361 
L 205.176953 132.589382 
L 205.653265 139.152321 
L 206.129577 138.395058 
L 206.60589 128.04581 
L 207.082202 134.861169 
L 207.558515 113.91025 
L 208.034827 109.871519 
L 208.51114 110.12394 
L 209.463764 138.647479 
L 209.940077 141.424107 
L 210.892702 119.463506 
L 211.369014 138.8999 
L 211.845327 88.41576 
L 212.321639 113.91025 
L 212.797951 148.239466 
L 213.274264 146.724942 
L 213.750576 109.871519 
L 214.226889 98.512588 
L 214.703201 204.276861 
L 215.179513 111.890885 
L 215.655826 111.638464 
L 216.132138 130.065175 
L 216.608451 129.560334 
L 217.084763 132.841803 
L 217.561076 138.647479 
L 218.037388 131.327279 
L 218.5137 113.152988 
L 218.990013 133.094224 
L 219.466325 146.724942 
L 220.41895 132.589382 
L 220.895262 143.191052 
L 221.371575 136.628114 
L 221.847887 136.123272 
L 222.3242 119.463506 
L 222.800512 109.871519 
L 223.276825 129.560334 
L 223.753137 107.599733 
L 224.229449 134.861169 
L 224.705762 129.307913 
L 225.182074 145.210417 
L 225.658387 143.948314 
L 226.134699 143.443472 
L 226.611012 143.191052 
L 227.087324 132.084541 
L 227.563636 129.307913 
L 228.039949 102.551319 
L 228.516261 96.240801 
L 228.992574 128.803072 
L 229.468886 127.036127 
L 229.945198 121.482871 
L 230.421511 141.928948 
L 230.897823 144.957997 
L 231.374136 141.424107 
L 231.850448 142.181369 
L 232.326761 141.676528 
L 232.803073 135.36601 
L 233.279385 94.473856 
L 233.755698 82.105242 
L 234.23201 134.608748 
L 234.708323 129.560334 
L 235.184635 148.744307 
L 236.13726 144.200735 
L 236.613572 145.967679 
L 237.089885 147.229783 
L 237.566197 146.977362 
L 238.04251 145.462838 
L 238.518822 150.006411 
L 238.995134 145.210417 
L 239.471447 150.763673 
L 239.947759 151.773356 
L 240.424072 155.307245 
L 240.900384 147.229783 
L 241.376697 146.2201 
L 241.853009 125.774023 
L 242.329321 142.938631 
L 242.805634 147.987045 
L 243.281946 98.260167 
L 243.758259 145.210417 
L 244.234571 144.200735 
L 244.710883 145.462838 
L 245.187196 138.142638 
L 245.663508 141.171686 
L 246.139821 146.724942 
L 246.616133 122.997396 
L 247.092446 137.385376 
L 247.568758 142.181369 
L 248.04507 205.791386 
L 248.521383 359.768013 
L 248.997695 369.107579 
L 249.474008 127.540968 
L 249.95032 118.201402 
L 250.426633 131.83212 
L 250.902945 110.376361 
L 251.379257 132.336962 
L 251.85557 129.560334 
L 252.331882 115.677195 
L 252.808195 149.249149 
L 253.284507 158.336294 
L 253.760819 151.773356 
L 254.237132 171.20975 
L 254.713444 138.142638 
L 255.189757 139.404741 
L 255.666069 163.132287 
L 256.142382 148.491886 
L 256.618694 137.385376 
L 257.095006 157.579032 
L 257.571319 158.083873 
L 258.047631 145.715259 
L 258.523944 144.957997 
L 259.000256 103.308581 
L 259.476569 128.29823 
L 259.952881 106.59005 
L 260.429193 140.666845 
L 260.905506 153.035459 
L 261.381818 158.083873 
L 261.858131 153.035459 
L 262.334443 134.861169 
L 262.810755 143.191052 
L 263.287068 172.471853 
L 263.76338 172.976694 
L 264.239693 144.957997 
L 264.716005 137.637796 
L 265.192318 177.015426 
L 265.66863 172.219432 
L 266.144942 177.772688 
L 266.621255 300.196728 
L 267.097567 172.471853 
L 267.57388 179.287212 
L 268.050192 169.695225 
L 268.526504 152.783038 
L 269.002817 150.511252 
L 269.479129 172.976694 
L 269.955442 163.132287 
L 270.431754 134.608748 
L 270.908067 147.482204 
L 271.384379 173.481536 
L 271.860691 179.034791 
L 272.337004 191.655826 
L 272.813316 170.452487 
L 273.289629 287.575693 
L 273.765941 200.995392 
L 274.242254 183.073523 
L 274.718566 199.733289 
L 275.194878 176.258164 
L 275.671191 197.209082 
L 276.147503 165.908915 
L 276.623816 200.742972 
L 277.100128 195.189716 
L 277.57644 292.119265 
L 278.052753 265.11025 
L 278.529065 250.46985 
L 279.005378 199.480868 
L 279.48169 330.992053 
L 279.958003 198.723606 
L 280.434315 198.723606 
L 280.910627 199.480868 
L 281.38694 194.180033 
L 281.863252 161.112922 
L 282.339565 172.471853 
L 282.815877 208.063172 
L 283.29219 194.684875 
L 283.768502 190.393723 
L 284.244814 198.976027 
L 284.721127 310.545977 
L 285.197439 203.77202 
L 285.673752 202.005075 
L 286.150064 196.956661 
L 286.626376 152.025776 
L 287.579001 218.664841 
L 288.055314 210.8398 
L 288.531626 205.791386 
L 289.007939 206.043806 
L 289.484251 217.150317 
L 289.960563 211.09222 
L 290.436876 215.130952 
L 290.913188 213.364007 
L 291.865813 223.208414 
L 292.342125 221.441469 
L 292.818438 304.992721 
L 293.29475 183.325943 
L 293.771063 219.926945 
L 294.247375 212.859165 
L 294.723688 214.62611 
L 295.2 217.402738 
L 295.676312 169.695225 
L 296.152625 206.801068 
L 296.628937 193.927613 
L 297.581562 241.130284 
L 298.057875 324.681536 
L 298.534187 202.762337 
L 299.010499 204.276861 
L 299.486812 211.849482 
L 299.963124 212.859165 
L 300.439437 198.976027 
L 300.915749 297.4201 
L 301.392061 145.462838 
L 301.868374 214.878531 
L 302.344686 206.043806 
L 302.820999 343.360668 
L 303.297311 319.633122 
L 303.773624 197.713923 
L 304.249936 199.228447 
L 304.726248 202.005075 
L 305.202561 199.98571 
L 305.678873 202.257496 
L 306.155186 202.005075 
L 306.631498 191.403406 
L 307.10781 200.995392 
L 307.584123 218.16 
L 308.060435 196.70424 
L 308.536748 190.393723 
L 309.01306 246.431119 
L 309.489373 217.655159 
L 309.965685 253.498898 
L 310.441997 305.749983 
L 310.91831 290.352321 
L 311.394622 195.946978 
L 311.870935 300.701569 
L 312.347247 243.149649 
L 312.82356 340.079199 
L 313.299872 254.00374 
L 313.776184 200.23813 
L 314.252497 167.171018 
L 314.728809 285.303907 
L 315.205122 192.91793 
L 315.681434 198.723606 
L 316.634059 190.646144 
L 317.110371 214.373689 
L 317.586684 197.461503 
L 318.062996 190.646144 
L 318.539309 207.810751 
L 319.015621 162.627446 
L 319.491933 167.171018 
L 319.968246 221.69389 
L 320.444558 190.141302 
L 320.920871 189.636461 
L 321.397183 195.189716 
L 321.873496 184.335626 
L 322.349808 194.432454 
L 322.82612 314.837129 
L 323.302433 270.411085 
L 323.778745 182.06384 
L 324.255058 299.439466 
L 324.73137 178.025109 
L 325.207682 166.918598 
L 325.683995 165.404073 
L 326.160307 169.947646 
L 326.63662 343.360668 
L 327.112932 340.58404 
L 327.589245 278.488548 
L 328.065557 150.258831 
L 328.541869 188.879199 
L 329.018182 169.190384 
L 329.494494 164.646811 
L 329.970807 161.870184 
L 330.447119 162.375025 
L 330.923431 159.850818 
L 331.399744 169.947646 
L 331.876056 166.413756 
L 332.352369 157.07419 
L 332.828681 193.170351 
L 333.304994 113.65783 
L 333.781306 161.365342 
L 334.733931 152.025776 
L 335.210243 189.888881 
L 335.686556 183.325943 
L 336.162868 254.508581 
L 336.639181 168.180701 
L 337.115493 155.812087 
L 337.591805 165.404073 
L 338.068118 165.908915 
L 338.54443 143.191052 
L 339.020743 173.733957 
L 339.497055 135.113589 
L 339.973367 140.414424 
L 340.44968 154.802404 
L 340.925992 283.284541 
L 341.402305 291.362003 
L 342.35493 142.181369 
L 342.831242 153.035459 
L 343.307554 154.045142 
L 343.783867 152.530618 
L 344.260179 155.054825 
L 344.736492 121.987713 
L 345.212804 327.205743 
L 345.689117 172.976694 
L 346.165429 139.657162 
L 346.641741 158.083873 
L 347.118054 148.996728 
L 347.594366 131.579699 
L 348.070679 229.518932 
L 348.546991 269.653823 
L 349.023303 189.888881 
L 349.499616 131.579699 
L 349.975928 141.676528 
L 350.452241 155.559666 
L 350.928553 162.375025 
L 351.404866 131.83212 
L 351.881178 129.560334 
L 352.35749 136.123272 
L 352.833803 163.889549 
L 353.310115 136.123272 
L 353.786428 256.527947 
L 354.26274 130.570017 
L 354.739052 114.415092 
L 355.215365 126.278865 
L 355.691677 142.938631 
L 356.16799 145.462838 
L 356.644302 146.977362 
L 357.120615 137.890217 
L 357.596927 134.103907 
L 358.073239 108.104574 
L 358.549552 128.550651 
L 359.025864 135.870851 
L 359.502177 140.666845 
L 359.978489 133.094224 
L 360.454802 121.735292 
L 360.931114 136.123272 
L 361.407426 137.637796 
L 361.883739 135.618431 
L 362.360051 137.385376 
L 362.836364 140.919265 
L 363.312676 106.59005 
L 363.788988 135.618431 
L 364.741613 66.96 
L 365.217926 114.919933 
L 365.694238 98.260167 
L 366.170551 128.803072 
L 366.646863 94.978698 
L 367.123175 111.386043 
L 367.599488 132.841803 
L 368.0758 133.599065 
L 368.552113 135.113589 
L 369.028425 134.356327 
L 369.504738 138.8999 
L 369.98105 121.482871 
L 370.457362 126.278865 
L 370.933675 132.589382 
L 371.409987 112.648147 
L 371.8863 115.677195 
L 372.362612 108.104574 
L 372.838924 78.823773 
L 373.315237 116.686878 
L 373.791549 115.677195 
L 374.267862 118.201402 
L 374.744174 99.52227 
L 375.220487 95.231119 
L 375.696799 130.822437 
L 376.173111 108.104574 
L 376.649424 122.240134 
L 377.125736 130.822437 
L 377.602049 111.890885 
L 378.078361 135.870851 
L 378.554673 134.356327 
L 379.030986 138.647479 
L 379.507298 116.686878 
L 379.983611 114.919933 
L 380.459923 335.535626 
L 380.936236 128.803072 
L 381.412548 129.812755 
L 382.365173 103.05616 
L 382.841485 100.027112 
L 383.317798 86.901235 
L 383.79411 138.647479 
L 384.270423 139.152321 
L 384.746735 104.318264 
L 385.223047 142.938631 
L 386.651985 131.327279 
L 387.128297 119.463506 
L 387.604609 86.648815 
L 388.080922 87.658497 
L 388.557234 142.181369 
L 389.509859 109.114257 
L 389.986172 189.636461 
L 390.462484 128.550651 
L 390.938796 153.035459 
L 391.415109 137.385376 
L 391.891421 137.637796 
L 392.367734 145.967679 
L 392.844046 142.938631 
L 393.320359 249.207746 
L 393.796671 142.68621 
L 394.272983 143.191052 
L 395.225608 138.142638 
L 395.701921 133.346644 
L 396.178233 134.608748 
L 396.654545 142.938631 
L 397.130858 141.676528 
L 397.60717 134.608748 
L 398.083483 114.919933 
L 398.559795 146.2201 
L 399.036108 132.841803 
L 399.51242 96.493222 
L 399.988732 125.016761 
L 400.465045 128.803072 
L 400.941357 117.696561 
L 401.41767 150.511252 
L 401.893982 249.965008 
L 402.370294 311.050818 
L 402.846607 291.614424 
L 403.322919 144.453155 
L 403.799232 129.055492 
L 404.275544 149.75399 
L 404.751857 90.182705 
L 405.228169 134.356327 
L 405.704481 136.123272 
L 406.180794 135.618431 
L 406.657106 127.288548 
L 407.133419 213.364007 
L 407.609731 86.396394 
L 408.086044 114.162671 
L 408.562356 133.851486 
L 409.038668 141.424107 
L 409.514981 142.68621 
L 409.991293 141.676528 
L 410.467606 141.424107 
L 410.943918 140.919265 
L 411.42023 144.200735 
L 411.896543 142.938631 
L 412.372855 157.07419 
L 412.849168 134.608748 
L 413.32548 146.472521 
L 413.801793 142.43379 
L 414.278105 118.706244 
L 414.754417 133.599065 
L 415.23073 128.803072 
L 415.707042 143.695893 
L 416.183355 148.239466 
L 416.659667 144.453155 
L 417.13598 149.75399 
L 417.612292 150.258831 
L 418.088604 211.09222 
L 418.564917 369.36 
L 419.041229 150.511252 
L 419.517542 134.103907 
L 419.993854 279.24581 
L 420.470166 351.18571 
L 420.946479 91.949649 
L 421.422791 113.65783 
L 421.899104 118.706244 
L 422.375416 356.991386 
L 422.851729 137.385376 
L 423.328041 153.792721 
L 423.804353 151.268514 
L 424.280666 129.307913 
L 424.756978 148.744307 
L 425.233291 111.133623 
L 425.709603 142.181369 
L 426.185915 137.890217 
L 426.662228 140.666845 
L 427.13854 133.094224 
L 427.614853 139.909583 
L 428.091165 131.579699 
L 428.567478 126.531285 
L 429.04379 139.152321 
L 429.520102 143.948314 
L 429.996415 145.967679 
L 430.472727 145.210417 
L 430.94904 131.83212 
L 431.425352 135.113589 
L 431.901665 127.540968 
L 432.377977 141.676528 
L 432.854289 140.414424 
L 433.330602 140.919265 
L 433.806914 113.91025 
L 434.283227 123.502237 
L 434.759539 102.551319 
L 435.235851 121.735292 
L 435.712164 151.268514 
L 436.188476 120.97803 
L 436.664789 125.269182 
L 437.141101 144.705576 
L 437.617414 147.229783 
L 438.093726 135.618431 
L 438.570038 148.996728 
L 439.046351 112.395726 
L 439.522663 130.822437 
L 439.998976 114.415092 
L 440.475288 107.599733 
L 441.427913 143.443472 
L 441.904225 143.695893 
L 442.380538 129.307913 
L 442.85685 102.80374 
L 443.333163 130.822437 
L 443.809475 112.395726 
L 444.285787 115.172354 
L 444.7621 147.229783 
L 445.238412 258.042471 
L 445.714725 232.043139 
L 446.191037 114.919933 
L 446.66735 150.763673 
L 447.143662 115.677195 
L 447.619974 143.443472 
L 448.096287 132.589382 
L 448.572599 151.773356 
L 449.048912 144.453155 
L 449.525224 148.996728 
L 450.001536 107.599733 
L 450.477849 126.026444 
L 450.954161 151.016093 
L 451.430474 127.793389 
L 451.906786 123.249816 
L 452.383099 151.520935 
L 452.859411 138.142638 
L 453.335723 137.637796 
L 453.812036 151.016093 
L 454.288348 158.588715 
L 454.764661 129.307913 
L 455.240973 133.851486 
L 455.717286 150.006411 
L 456.193598 144.200735 
L 456.66991 156.064508 
L 457.146223 159.598397 
L 457.622535 156.316928 
L 458.098848 133.851486 
L 458.57516 216.645476 
L 459.051472 252.741636 
L 459.527785 166.413756 
L 460.004097 297.4201 
L 460.48041 172.724274 
L 460.956722 296.157997 
L 461.433035 153.035459 
L 461.909347 283.536962 
L 462.385659 273.944975 
L 462.861972 175.500902 
L 463.338284 169.190384 
L 463.814597 176.258164 
L 464.290909 148.239466 
L 465.243534 174.99606 
L 465.719846 294.643472 
L 466.196159 170.704908 
L 466.672471 173.229115 
L 467.148784 172.976694 
L 467.625096 174.238798 
L 468.101408 202.257496 
L 468.577721 179.792053 
L 469.054033 178.025109 
L 469.530346 181.054157 
L 470.006658 173.481536 
L 470.482971 186.859833 
L 470.959283 187.617095 
L 471.435595 184.335626 
L 471.911908 242.644808 
L 472.38822 248.955326 
L 472.864533 315.846811 
L 473.340845 168.685543 
L 473.817157 188.626778 
L 474.29347 185.092888 
L 474.769782 185.092888 
L 475.246095 173.481536 
L 475.722407 150.006411 
L 476.19872 154.802404 
L 476.675032 199.228447 
L 477.151344 198.218765 
L 477.627657 172.976694 
L 478.103969 188.626778 
L 478.580282 195.946978 
L 479.056594 168.937963 
L 479.532907 315.594391 
L 480.009219 327.205743 
L 480.485531 332.758998 
L 480.961844 322.66217 
L 481.438156 335.030785 
L 481.914469 310.798397 
L 482.390781 305.245142 
L 482.867093 296.410417 
L 483.343406 205.538965 
L 483.819718 307.012087 
L 484.296031 199.480868 
L 484.772343 195.442137 
L 485.248656 204.529282 
L 485.724968 200.23813 
L 486.20128 226.742304 
L 486.677593 322.914591 
L 487.153905 220.179366 
L 487.630218 316.604073 
L 488.10653 368.602738 
L 488.582843 273.187713 
L 489.059155 216.140634 
L 489.535467 216.140634 
L 490.01178 215.635793 
L 490.488092 258.042471 
L 490.964405 247.693222 
L 491.440717 193.927613 
L 491.917029 208.315593 
L 492.393342 208.568013 
L 492.869654 217.907579 
L 493.345967 240.877863 
L 493.822279 332.254157 
L 494.298592 217.402738 
L 494.774904 197.713923 
L 495.251216 316.856494 
L 496.203841 257.537629 
L 496.680154 170.704908 
L 497.156466 186.607412 
L 497.632778 157.579032 
L 498.109091 172.219432 
L 498.109091 172.219432 
" clip-path="url(#p22e38641aa)" style="fill: none; stroke: #1f77b4; stroke-width: 1.5; stroke-linecap: round"/>
   </g>
   <g id="line2d_14">
    <path d="M 92.290909 152.491061 
L 92.767222 152.472192 
L 93.243534 152.237184 
L 94.196159 153.832055 
L 94.672471 153.99982 
L 95.148784 154.285462 
L 96.101408 161.455798 
L 96.577721 162.174732 
L 97.054033 165.228812 
L 97.530346 166.860139 
L 98.006658 167.91725 
L 98.482971 170.584859 
L 99.435595 177.555536 
L 99.911908 179.131105 
L 100.38822 177.883449 
L 100.864533 179.332654 
L 102.29347 182.347704 
L 102.769782 183.371058 
L 103.246095 183.616992 
L 103.722407 183.633705 
L 104.19872 184.788916 
L 104.675032 185.248896 
L 105.151344 186.50916 
L 105.627657 187.187519 
L 106.103969 187.525528 
L 106.580282 188.74531 
L 107.056594 189.174867 
L 108.009219 195.022935 
L 108.485531 195.226096 
L 108.961844 195.556091 
L 109.438156 192.528858 
L 109.914469 190.958159 
L 110.390781 188.862131 
L 110.867093 188.190707 
L 111.343406 188.919206 
L 111.819718 189.169568 
L 112.772343 184.592841 
L 113.724968 184.990232 
L 114.20128 184.391951 
L 114.677593 186.844206 
L 115.630218 187.002145 
L 116.10653 187.332167 
L 116.582843 187.470484 
L 117.059155 188.022068 
L 117.535467 189.24408 
L 118.01178 191.809115 
L 118.488092 192.111509 
L 119.440717 195.78027 
L 119.917029 195.935776 
L 120.393342 195.837599 
L 120.869654 194.00747 
L 121.345967 192.621393 
L 121.822279 192.898547 
L 122.298592 190.97037 
L 122.774904 191.772099 
L 123.251216 191.690015 
L 123.727529 191.869755 
L 124.203841 192.675403 
L 124.680154 191.090056 
L 125.156466 189.964414 
L 125.632778 190.355403 
L 126.109091 190.222275 
L 126.585403 189.422837 
L 127.061716 189.319103 
L 127.538028 189.711066 
L 128.014341 188.522989 
L 128.490653 188.689952 
L 128.966965 188.40476 
L 129.91959 192.803966 
L 130.395903 193.131575 
L 130.872215 193.094331 
L 131.348528 193.56977 
L 131.82484 193.266591 
L 132.777465 190.194945 
L 133.253777 189.835573 
L 133.73009 189.737054 
L 134.206402 190.019345 
L 135.159027 194.021096 
L 135.635339 194.157762 
L 136.111652 194.034427 
L 137.064277 198.592753 
L 137.540589 199.877606 
L 138.016901 200.14264 
L 138.493214 199.970159 
L 138.969526 198.985676 
L 139.922151 198.338379 
L 140.398464 198.207817 
L 140.874776 197.44299 
L 141.351088 196.943101 
L 141.827401 196.683087 
L 142.303713 198.262444 
L 142.780026 198.413124 
L 143.256338 196.591152 
L 143.73265 195.858453 
L 144.208963 194.370137 
L 144.685275 191.868039 
L 145.161588 191.287625 
L 145.6379 190.968797 
L 146.590525 188.733651 
L 147.066837 188.961882 
L 147.54315 188.755149 
L 148.495775 184.938411 
L 148.972087 186.231779 
L 149.448399 188.609625 
L 149.924712 187.720719 
L 150.401024 185.422744 
L 150.877337 185.376659 
L 151.829962 183.255813 
L 152.306274 183.484804 
L 153.735211 182.936192 
L 154.211524 183.282831 
L 155.164149 181.481085 
L 156.116773 176.719501 
L 157.069398 175.561593 
L 158.022023 175.052027 
L 158.498335 175.969473 
L 158.974648 175.662346 
L 159.45096 176.201445 
L 159.927273 176.24788 
L 161.35621 182.199118 
L 161.832522 181.749658 
L 162.308835 179.344767 
L 162.785147 176.090005 
L 163.26146 174.483339 
L 163.737772 174.770313 
L 164.214085 172.48401 
L 164.690397 172.114261 
L 165.166709 171.06185 
L 165.643022 172.358882 
L 166.119334 172.335227 
L 166.595647 171.97295 
L 167.071959 172.392173 
L 168.024584 173.903771 
L 168.500896 176.731439 
L 168.977209 177.572327 
L 169.929834 176.360312 
L 170.406146 175.822274 
L 170.882458 178.343731 
L 171.358771 177.881139 
L 172.311396 176.004805 
L 172.787708 175.163658 
L 173.26402 175.707791 
L 173.740333 174.722467 
L 174.216645 172.515389 
L 174.692958 168.730655 
L 175.16927 167.894483 
L 176.598207 166.876471 
L 177.07452 165.727531 
L 177.550832 165.011076 
L 178.027145 164.622495 
L 178.503457 164.862792 
L 178.97977 162.847412 
L 179.932394 161.440435 
L 180.885019 158.012062 
L 181.361332 157.243788 
L 181.837644 154.349594 
L 182.313956 152.653053 
L 182.790269 152.291486 
L 183.266581 152.314245 
L 183.742894 153.060954 
L 184.219206 150.808766 
L 184.695519 150.74897 
L 185.171831 149.745597 
L 186.124456 149.642505 
L 186.600768 148.525276 
L 187.077081 149.102574 
L 187.553393 149.057335 
L 188.029706 149.772013 
L 188.506018 150.224748 
L 188.98233 150.472244 
L 189.458643 150.467329 
L 189.934955 150.884517 
L 190.88758 150.298813 
L 191.363892 149.960154 
L 191.840205 149.913943 
L 192.316517 151.2194 
L 193.269142 150.374616 
L 194.221767 149.32696 
L 196.127017 149.242814 
L 196.603329 149.30407 
L 197.555954 148.41375 
L 198.508579 149.047108 
L 198.984891 149.056743 
L 199.937516 148.267208 
L 200.413828 146.632837 
L 200.890141 146.129292 
L 201.366453 146.271511 
L 201.842766 147.368723 
L 202.319078 146.655126 
L 202.795391 146.345651 
L 203.271703 145.598747 
L 204.224328 144.935599 
L 204.70064 145.222275 
L 205.176953 145.123069 
L 205.653265 143.963738 
L 206.129577 143.95668 
L 206.60589 144.107229 
L 207.082202 144.468213 
L 207.558515 144.593481 
L 208.034827 143.854702 
L 208.51114 143.648889 
L 208.987452 143.751499 
L 209.463764 143.691168 
L 209.940077 143.422461 
L 210.416389 142.928968 
L 210.892702 142.93789 
L 211.369014 142.031358 
L 211.845327 141.477804 
L 212.797951 142.35011 
L 213.274264 142.119415 
L 213.750576 141.490092 
L 214.226889 143.075996 
L 214.703201 142.462396 
L 215.179513 141.058979 
L 215.655826 141.188963 
L 216.608451 141.210027 
L 217.561076 141.999147 
L 218.037388 141.746831 
L 218.990013 142.152883 
L 219.466325 142.375577 
L 219.942638 142.447928 
L 221.371575 143.229765 
L 221.847887 143.218434 
L 222.3242 142.787575 
L 222.800512 142.594946 
L 223.276825 142.153711 
L 223.753137 142.305841 
L 224.229449 142.229454 
L 224.705762 142.936609 
L 225.182074 143.341924 
L 225.658387 143.130387 
L 226.134699 143.046258 
L 227.087324 143.678276 
L 227.563636 142.023049 
L 228.039949 141.847809 
L 228.516261 142.00568 
L 229.468886 141.928284 
L 230.421511 142.287027 
L 230.897823 142.313232 
L 231.374136 142.662452 
L 231.850448 142.718367 
L 232.326761 142.485373 
L 233.279385 141.028821 
L 234.23201 140.83181 
L 234.708323 141.01168 
L 235.184635 141.384831 
L 235.660948 141.949268 
L 236.13726 142.259066 
L 236.613572 142.822065 
L 237.566197 143.308783 
L 238.995134 143.638705 
L 239.947759 144.266134 
L 240.424072 144.542187 
L 240.900384 145.148647 
L 241.853009 145.58962 
L 242.329321 146.071103 
L 242.805634 145.730087 
L 245.187196 145.881525 
L 245.663508 146.067952 
L 246.139821 146.416538 
L 246.616133 147.19915 
L 247.092446 147.346198 
L 247.568758 148.825787 
L 248.521383 157.999065 
L 248.997695 157.877998 
L 249.95032 157.220125 
L 250.426633 156.368736 
L 250.902945 156.150161 
L 251.379257 156.091355 
L 251.85557 155.64704 
L 252.331882 155.524115 
L 253.284507 155.557944 
L 253.760819 156.252866 
L 254.237132 156.234634 
L 254.713444 156.339182 
L 255.189757 156.753265 
L 255.666069 156.647618 
L 257.095006 157.362114 
L 257.571319 157.345925 
L 258.047631 157.632267 
L 259.000256 157.027268 
L 259.476569 156.515933 
L 259.952881 156.477053 
L 260.429193 156.875016 
L 260.905506 156.373069 
L 261.858131 148.805126 
L 262.334443 148.947501 
L 263.76338 151.126358 
L 264.239693 151.363481 
L 265.66863 153.650008 
L 266.144942 156.804304 
L 266.621255 157.241646 
L 267.097567 157.377089 
L 267.57388 158.006089 
L 268.050192 158.263707 
L 268.526504 158.009641 
L 269.479129 158.927938 
L 269.955442 158.533173 
L 270.431754 158.353321 
L 271.384379 159.189723 
L 271.860691 160.554951 
L 272.337004 161.293455 
L 272.813316 164.601948 
L 273.289629 165.805719 
L 273.765941 166.199723 
L 274.242254 166.98946 
L 274.718566 167.347168 
L 275.194878 168.266074 
L 275.671191 168.696116 
L 276.147503 169.557658 
L 276.623816 170.042253 
L 277.57644 174.933183 
L 278.052753 176.522885 
L 278.529065 177.220121 
L 279.005378 180.050458 
L 279.48169 178.615928 
L 280.434315 179.304849 
L 280.910627 179.570516 
L 281.38694 179.325837 
L 281.863252 179.540325 
L 282.339565 180.16599 
L 282.815877 180.595796 
L 283.768502 182.247457 
L 284.244814 184.661272 
L 284.721127 185.078185 
L 285.197439 185.223111 
L 285.673752 185.589333 
L 286.150064 183.315132 
L 286.626376 182.676222 
L 287.102689 183.316757 
L 287.579001 183.571472 
L 288.055314 183.989154 
L 288.531626 184.135129 
L 289.007939 184.881451 
L 289.484251 185.001951 
L 289.960563 185.476724 
L 290.436876 184.301533 
L 290.913188 183.581007 
L 291.389501 183.169846 
L 291.865813 183.381839 
L 292.342125 183.371397 
L 292.818438 183.020512 
L 294.247375 183.954498 
L 294.723688 184.814435 
L 296.152625 184.523912 
L 296.628937 184.965144 
L 297.581562 186.550153 
L 299.010499 186.539102 
L 299.486812 187.285524 
L 299.963124 187.453356 
L 300.439437 189.051614 
L 300.915749 187.911208 
L 301.868374 187.950558 
L 302.820999 192.039108 
L 303.297311 191.969887 
L 303.773624 191.72171 
L 304.249936 191.34673 
L 305.202561 190.329939 
L 305.678873 188.893656 
L 306.155186 188.826905 
L 306.631498 188.335892 
L 307.10781 188.510671 
L 307.584123 188.228123 
L 308.060435 187.79907 
L 308.536748 189.013968 
L 309.01306 188.993567 
L 309.489373 190.063366 
L 309.965685 191.69999 
L 310.441997 192.529194 
L 310.91831 190.671234 
L 311.394622 192.197854 
L 311.870935 192.750707 
L 312.347247 194.869854 
L 312.82356 195.889301 
L 313.299872 195.811644 
L 313.776184 193.645329 
L 314.252497 195.658821 
L 314.728809 195.170492 
L 315.205122 195.089481 
L 316.157746 191.080396 
L 317.110371 190.955414 
L 317.586684 190.7188 
L 318.062996 190.750843 
L 319.015621 189.212267 
L 319.491933 189.682752 
L 319.968246 189.310299 
L 320.444558 188.603017 
L 320.920871 188.489475 
L 321.397183 188.219603 
L 321.873496 187.265635 
L 322.349808 189.150533 
L 322.82612 189.73225 
L 323.302433 187.879437 
L 323.778745 188.283704 
L 324.255058 187.813159 
L 324.73137 185.681696 
L 325.207682 184.468053 
L 325.683995 181.805041 
L 326.160307 183.298125 
L 326.63662 185.891026 
L 327.112932 187.862018 
L 327.589245 185.715305 
L 328.065557 185.572938 
L 329.018182 183.903732 
L 329.494494 183.575794 
L 330.447119 181.500216 
L 330.923431 180.814647 
L 331.399744 179.783422 
L 331.876056 179.411029 
L 332.352369 179.910537 
L 332.828681 178.018949 
L 333.781306 176.756296 
L 334.257618 175.948743 
L 334.733931 176.001596 
L 335.210243 175.878235 
L 335.686556 175.208424 
L 336.162868 173.647307 
L 336.639181 173.335981 
L 337.115493 171.161059 
L 338.068118 170.229807 
L 338.54443 170.581832 
L 339.020743 170.097627 
L 339.973367 163.614636 
L 340.44968 164.063605 
L 340.925992 166.716094 
L 341.402305 167.416343 
L 342.35493 166.708518 
L 343.307554 165.800579 
L 343.783867 165.710921 
L 344.260179 164.981344 
L 344.736492 168.066422 
L 345.212804 168.375203 
L 345.689117 167.350677 
L 346.165429 168.124965 
L 346.641741 167.748102 
L 347.118054 167.099364 
L 348.070679 170.411916 
L 348.546991 170.423593 
L 349.023303 168.341962 
L 349.499616 167.581798 
L 349.975928 167.154564 
L 350.452241 167.283433 
L 350.928553 166.916618 
L 351.404866 166.252978 
L 351.881178 165.097176 
L 352.35749 165.334362 
L 352.833803 165.359183 
L 353.310115 167.528455 
L 354.739052 160.486737 
L 356.16799 159.65089 
L 356.644302 159.366298 
L 357.596927 158.483398 
L 358.073239 155.445099 
L 358.549552 154.835065 
L 359.025864 154.729839 
L 359.502177 154.069825 
L 359.978489 153.781856 
L 360.454802 153.69662 
L 360.931114 151.963824 
L 361.407426 149.571413 
L 361.883739 148.453896 
L 362.360051 148.354676 
L 362.836364 147.715715 
L 363.312676 147.380454 
L 364.265301 145.381236 
L 364.741613 145.385734 
L 365.217926 145.220416 
L 365.694238 144.580461 
L 366.170551 143.751206 
L 366.646863 141.382206 
L 367.123175 141.289452 
L 368.0758 141.479432 
L 369.028425 141.363137 
L 369.504738 140.869256 
L 369.98105 140.771532 
L 370.933675 140.934238 
L 371.8863 140.244324 
L 372.362612 139.494835 
L 374.267862 138.612649 
L 374.744174 138.1558 
L 375.220487 138.241836 
L 375.696799 137.895058 
L 376.173111 138.123057 
L 377.125736 137.961722 
L 377.602049 138.531096 
L 378.078361 138.564733 
L 378.554673 138.907649 
L 379.030986 138.8092 
L 379.507298 139.003923 
L 379.983611 143.508639 
L 381.412548 143.201946 
L 382.841485 141.417301 
L 383.317798 141.670266 
L 383.79411 141.656852 
L 384.270423 141.39436 
L 385.223047 141.913836 
L 385.69936 142.523995 
L 386.175672 142.752934 
L 386.651985 142.688786 
L 387.604609 141.892695 
L 388.080922 142.623599 
L 388.557234 142.413673 
L 389.033547 142.429458 
L 389.509859 143.853435 
L 389.986172 143.997651 
L 390.462484 144.919445 
L 390.938796 145.021255 
L 391.415109 144.94648 
L 391.891421 145.07111 
L 392.367734 145.398123 
L 392.844046 148.066025 
L 393.320359 144.79248 
L 393.796671 145.052647 
L 394.749296 145.374228 
L 395.225608 145.655434 
L 395.701921 146.126931 
L 396.178233 146.96213 
L 396.654545 146.989236 
L 397.130858 146.885495 
L 397.60717 146.949337 
L 398.083483 147.219127 
L 398.559795 147.317708 
L 399.036108 146.759064 
L 399.51242 146.663256 
L 399.988732 146.86004 
L 400.465045 146.915436 
L 400.941357 147.735296 
L 401.41767 149.874475 
L 402.370294 156.856108 
L 402.846607 156.388771 
L 403.322919 156.499988 
L 403.799232 156.361053 
L 404.275544 155.390883 
L 405.704481 155.207419 
L 406.180794 152.923695 
L 406.657106 154.497869 
L 407.133419 153.592351 
L 407.609731 153.241869 
L 408.562356 153.209412 
L 409.514981 153.240283 
L 410.467606 152.967134 
L 410.943918 153.084782 
L 411.42023 152.727602 
L 412.372855 153.785998 
L 413.32548 153.873455 
L 413.801793 153.762069 
L 414.278105 153.360754 
L 414.754417 151.359552 
L 415.707042 146.051591 
L 416.183355 145.81574 
L 416.659667 145.880716 
L 417.13598 145.704807 
L 417.612292 147.791658 
L 418.088604 152.632358 
L 418.564917 153.19245 
L 419.041229 153.372669 
L 419.993854 159.067261 
L 420.470166 158.929466 
L 420.946479 159.175462 
L 421.422791 159.239854 
L 421.899104 163.048992 
L 422.375416 162.925476 
L 422.851729 163.28757 
L 423.328041 163.463507 
L 423.804353 162.953989 
L 426.662228 161.301185 
L 427.13854 161.430311 
L 427.614853 161.173088 
L 429.04379 160.715059 
L 429.520102 160.427159 
L 429.996415 160.502339 
L 430.472727 160.318277 
L 430.94904 158.774342 
L 431.425352 154.643448 
L 431.901665 154.463596 
L 432.377977 154.645249 
L 432.854289 152.326612 
L 433.330602 148.129841 
L 433.806914 148.252841 
L 434.283227 147.956464 
L 434.759539 147.888888 
L 435.235851 144.440807 
L 436.188476 143.711592 
L 436.664789 143.687184 
L 437.141101 143.925834 
L 437.617414 143.754007 
L 438.093726 144.318633 
L 438.570038 143.971281 
L 439.046351 143.881881 
L 439.998976 143.361681 
L 440.475288 143.245319 
L 441.427913 143.893832 
L 441.904225 143.914048 
L 442.380538 143.569466 
L 442.85685 143.434864 
L 443.333163 142.966466 
L 443.809475 142.75512 
L 444.285787 143.121321 
L 444.7621 145.810975 
L 445.238412 147.730645 
L 445.714725 147.552895 
L 446.191037 147.849821 
L 446.66735 147.700515 
L 447.143662 147.852276 
L 447.619974 148.159997 
L 448.096287 148.651177 
L 448.572599 148.476878 
L 449.048912 148.788747 
L 450.001536 148.301427 
L 450.477849 148.490243 
L 450.954161 148.415639 
L 451.430474 148.082255 
L 451.906786 148.64312 
L 452.859411 148.684509 
L 453.812036 149.654402 
L 454.288348 149.383089 
L 454.764661 149.446217 
L 456.193598 150.547993 
L 457.146223 151.898247 
L 457.622535 151.669131 
L 458.098848 151.253659 
L 459.051472 152.910405 
L 459.527785 155.983327 
L 460.004097 157.060926 
L 460.48041 160.041203 
L 460.956722 160.476625 
L 461.909347 165.656663 
L 462.385659 166.152225 
L 463.338284 167.670452 
L 463.814597 167.569773 
L 464.290909 167.956675 
L 464.767222 168.917536 
L 465.243534 171.734797 
L 466.196159 172.757607 
L 466.672471 173.003925 
L 467.148784 172.986038 
L 467.625096 174.088424 
L 469.054033 175.573481 
L 469.530346 175.658343 
L 470.006658 176.035634 
L 470.482971 176.564462 
L 471.435595 178.100296 
L 471.911908 178.391171 
L 472.38822 181.106538 
L 472.864533 179.032802 
L 473.340845 179.072027 
L 473.817157 177.222856 
L 474.29347 177.50971 
L 475.246095 173.720583 
L 475.722407 173.424989 
L 478.103969 175.318263 
L 478.580282 173.19737 
L 480.009219 181.576555 
L 480.961844 186.584102 
L 482.390781 192.990638 
L 482.867093 193.472123 
L 483.343406 195.344294 
L 484.296031 195.436388 
L 484.772343 194.85171 
L 485.248656 194.008071 
L 485.724968 192.759526 
L 486.20128 195.157262 
L 486.677593 195.668321 
L 487.153905 197.565789 
L 487.630218 200.091189 
L 488.10653 201.346 
L 489.059155 202.888493 
L 489.535467 202.935374 
L 490.01178 203.627137 
L 490.488092 204.716543 
L 490.964405 204.608604 
L 491.440717 204.679137 
L 491.917029 205.126853 
L 492.393342 203.831966 
L 492.869654 203.020623 
L 493.345967 203.436744 
L 493.822279 202.084569 
L 494.298592 200.24184 
L 494.774904 200.412246 
L 495.251216 200.132571 
L 495.727529 199.661502 
L 496.203841 199.015057 
L 496.680154 197.181979 
L 497.156466 196.107772 
L 497.156466 196.107772 
" clip-path="url(#p22e38641aa)" style="fill: none; stroke: #ff7f0e; stroke-width: 1.5; stroke-linecap: round"/>
   </g>
   <g id="patch_3">
    <path d="M 72 384.48 
L 72 51.84 
" style="fill: none; stroke: #ffffff; stroke-width: 0.8; stroke-linejoin: miter; stroke-linecap: square"/>
   </g>
   <g id="patch_4">
    <path d="M 518.4 384.48 
L 518.4 51.84 
" style="fill: none; stroke: #ffffff; stroke-width: 0.8; stroke-linejoin: miter; stroke-linecap: square"/>
   </g>
   <g id="patch_5">
    <path d="M 72 384.48 
L 518.4 384.48 
" style="fill: none; stroke: #ffffff; stroke-width: 0.8; stroke-linejoin: miter; stroke-linecap: square"/>
   </g>
   <g id="patch_6">
    <path d="M 72 51.84 
L 518.4 51.84 
" style="fill: none; stroke: #ffffff; stroke-width: 0.8; stroke-linejoin: miter; stroke-linecap: square"/>
   </g>
   <g id="text_15">
    <!-- Maximum Solar Radiation Prediction 17 Days Ahead -->
    <g style="fill: #262626" transform="translate(155.803125 45.84) scale(0.12 -0.12)">
     <defs>
      <path id="ArialMT-4d" d="M 475 0 
L 475 4581 
L 1388 4581 
L 2472 1338 
Q 2622 884 2691 659 
Q 2769 909 2934 1394 
L 4031 4581 
L 4847 4581 
L 4847 0 
L 4263 0 
L 4263 3834 
L 2931 0 
L 2384 0 
L 1059 3900 
L 1059 0 
L 475 0 
z
" transform="scale(0.015625)"/>
      <path id="ArialMT-78" d="M 47 0 
L 1259 1725 
L 138 3319 
L 841 3319 
L 1350 2541 
Q 1494 2319 1581 2169 
Q 1719 2375 1834 2534 
L 2394 3319 
L 3066 3319 
L 1919 1756 
L 3153 0 
L 2463 0 
L 1781 1031 
L 1600 1309 
L 728 0 
L 47 0 
z
" transform="scale(0.015625)"/>
      <path id="ArialMT-69" d="M 425 3934 
L 425 4581 
L 988 4581 
L 988 3934 
L 425 3934 
z
M 425 0 
L 425 3319 
L 988 3319 
L 988 0 
L 425 0 
z
" transform="scale(0.015625)"/>
      <path id="ArialMT-75" d="M 2597 0 
L 2597 488 
Q 2209 -75 1544 -75 
Q 1250 -75 995 37 
Q 741 150 617 320 
Q 494 491 444 738 
Q 409 903 409 1263 
L 409 3319 
L 972 3319 
L 972 1478 
Q 972 1038 1006 884 
Q 1059 663 1231 536 
Q 1403 409 1656 409 
Q 1909 409 2131 539 
Q 2353 669 2445 892 
Q 2538 1116 2538 1541 
L 2538 3319 
L 3100 3319 
L 3100 0 
L 2597 0 
z
" transform="scale(0.015625)"/>
      <path id="ArialMT-20" transform="scale(0.015625)"/>
      <path id="ArialMT-53" d="M 288 1472 
L 859 1522 
Q 900 1178 1048 958 
Q 1197 738 1509 602 
Q 1822 466 2213 466 
Q 2559 466 2825 569 
Q 3091 672 3220 851 
Q 3350 1031 3350 1244 
Q 3350 1459 3225 1620 
Q 3100 1781 2813 1891 
Q 2628 1963 1997 2114 
Q 1366 2266 1113 2400 
Q 784 2572 623 2826 
Q 463 3081 463 3397 
Q 463 3744 659 4045 
Q 856 4347 1234 4503 
Q 1613 4659 2075 4659 
Q 2584 4659 2973 4495 
Q 3363 4331 3572 4012 
Q 3781 3694 3797 3291 
L 3216 3247 
Q 3169 3681 2898 3903 
Q 2628 4125 2100 4125 
Q 1550 4125 1298 3923 
Q 1047 3722 1047 3438 
Q 1047 3191 1225 3031 
Q 1400 2872 2139 2705 
Q 2878 2538 3153 2413 
Q 3553 2228 3743 1945 
Q 3934 1663 3934 1294 
Q 3934 928 3725 604 
Q 3516 281 3123 101 
Q 2731 -78 2241 -78 
Q 1619 -78 1198 103 
Q 778 284 539 648 
Q 300 1013 288 1472 
z
" transform="scale(0.015625)"/>
      <path id="ArialMT-6f" d="M 213 1659 
Q 213 2581 725 3025 
Q 1153 3394 1769 3394 
Q 2453 3394 2887 2945 
Q 3322 2497 3322 1706 
Q 3322 1066 3130 698 
Q 2938 331 2570 128 
Q 2203 -75 1769 -75 
Q 1072 -75 642 372 
Q 213 819 213 1659 
z
M 791 1659 
Q 791 1022 1069 705 
Q 1347 388 1769 388 
Q 2188 388 2466 706 
Q 2744 1025 2744 1678 
Q 2744 2294 2464 2611 
Q 2184 2928 1769 2928 
Q 1347 2928 1069 2612 
Q 791 2297 791 1659 
z
" transform="scale(0.015625)"/>
      <path id="ArialMT-6c" d="M 409 0 
L 409 4581 
L 972 4581 
L 972 0 
L 409 0 
z
" transform="scale(0.015625)"/>
      <path id="ArialMT-72" d="M 416 0 
L 416 3319 
L 922 3319 
L 922 2816 
Q 1116 3169 1280 3281 
Q 1444 3394 1641 3394 
Q 1925 3394 2219 3213 
L 2025 2691 
Q 1819 2813 1613 2813 
Q 1428 2813 1281 2702 
Q 1134 2591 1072 2394 
Q 978 2094 978 1738 
L 978 0 
L 416 0 
z
" transform="scale(0.015625)"/>
      <path id="ArialMT-52" d="M 503 0 
L 503 4581 
L 2534 4581 
Q 3147 4581 3465 4457 
Q 3784 4334 3975 4021 
Q 4166 3709 4166 3331 
Q 4166 2844 3850 2509 
Q 3534 2175 2875 2084 
Q 3116 1969 3241 1856 
Q 3506 1613 3744 1247 
L 4541 0 
L 3778 0 
L 3172 953 
Q 2906 1366 2734 1584 
Q 2563 1803 2427 1890 
Q 2291 1978 2150 2013 
Q 2047 2034 1813 2034 
L 1109 2034 
L 1109 0 
L 503 0 
z
M 1109 2559 
L 2413 2559 
Q 2828 2559 3062 2645 
Q 3297 2731 3419 2920 
Q 3541 3109 3541 3331 
Q 3541 3656 3305 3865 
Q 3069 4075 2559 4075 
L 1109 4075 
L 1109 2559 
z
" transform="scale(0.015625)"/>
      <path id="ArialMT-64" d="M 2575 0 
L 2575 419 
Q 2259 -75 1647 -75 
Q 1250 -75 917 144 
Q 584 363 401 755 
Q 219 1147 219 1656 
Q 219 2153 384 2558 
Q 550 2963 881 3178 
Q 1213 3394 1622 3394 
Q 1922 3394 2156 3267 
Q 2391 3141 2538 2938 
L 2538 4581 
L 3097 4581 
L 3097 0 
L 2575 0 
z
M 797 1656 
Q 797 1019 1065 703 
Q 1334 388 1700 388 
Q 2069 388 2326 689 
Q 2584 991 2584 1609 
Q 2584 2291 2321 2609 
Q 2059 2928 1675 2928 
Q 1300 2928 1048 2622 
Q 797 2316 797 1656 
z
" transform="scale(0.015625)"/>
      <path id="ArialMT-74" d="M 1650 503 
L 1731 6 
Q 1494 -44 1306 -44 
Q 1000 -44 831 53 
Q 663 150 594 308 
Q 525 466 525 972 
L 525 2881 
L 113 2881 
L 113 3319 
L 525 3319 
L 525 4141 
L 1084 4478 
L 1084 3319 
L 1650 3319 
L 1650 2881 
L 1084 2881 
L 1084 941 
Q 1084 700 1114 631 
Q 1144 563 1211 522 
Q 1278 481 1403 481 
Q 1497 481 1650 503 
z
" transform="scale(0.015625)"/>
      <path id="ArialMT-6e" d="M 422 0 
L 422 3319 
L 928 3319 
L 928 2847 
Q 1294 3394 1984 3394 
Q 2284 3394 2536 3286 
Q 2788 3178 2913 3003 
Q 3038 2828 3088 2588 
Q 3119 2431 3119 2041 
L 3119 0 
L 2556 0 
L 2556 2019 
Q 2556 2363 2490 2533 
Q 2425 2703 2258 2804 
Q 2091 2906 1866 2906 
Q 1506 2906 1245 2678 
Q 984 2450 984 1813 
L 984 0 
L 422 0 
z
" transform="scale(0.015625)"/>
      <path id="ArialMT-50" d="M 494 0 
L 494 4581 
L 2222 4581 
Q 2678 4581 2919 4538 
Q 3256 4481 3484 4323 
Q 3713 4166 3852 3881 
Q 3991 3597 3991 3256 
Q 3991 2672 3619 2267 
Q 3247 1863 2275 1863 
L 1100 1863 
L 1100 0 
L 494 0 
z
M 1100 2403 
L 2284 2403 
Q 2872 2403 3119 2622 
Q 3366 2841 3366 3238 
Q 3366 3525 3220 3729 
Q 3075 3934 2838 4000 
Q 2684 4041 2272 4041 
L 1100 4041 
L 1100 2403 
z
" transform="scale(0.015625)"/>
      <path id="ArialMT-65" d="M 2694 1069 
L 3275 997 
Q 3138 488 2766 206 
Q 2394 -75 1816 -75 
Q 1088 -75 661 373 
Q 234 822 234 1631 
Q 234 2469 665 2931 
Q 1097 3394 1784 3394 
Q 2450 3394 2872 2941 
Q 3294 2488 3294 1666 
Q 3294 1616 3291 1516 
L 816 1516 
Q 847 969 1125 678 
Q 1403 388 1819 388 
Q 2128 388 2347 550 
Q 2566 713 2694 1069 
z
M 847 1978 
L 2700 1978 
Q 2663 2397 2488 2606 
Q 2219 2931 1791 2931 
Q 1403 2931 1139 2672 
Q 875 2413 847 1978 
z
" transform="scale(0.015625)"/>
      <path id="ArialMT-63" d="M 2588 1216 
L 3141 1144 
Q 3050 572 2676 248 
Q 2303 -75 1759 -75 
Q 1078 -75 664 370 
Q 250 816 250 1647 
Q 250 2184 428 2587 
Q 606 2991 970 3192 
Q 1334 3394 1763 3394 
Q 2303 3394 2647 3120 
Q 2991 2847 3088 2344 
L 2541 2259 
Q 2463 2594 2264 2762 
Q 2066 2931 1784 2931 
Q 1359 2931 1093 2626 
Q 828 2322 828 1663 
Q 828 994 1084 691 
Q 1341 388 1753 388 
Q 2084 388 2306 591 
Q 2528 794 2588 1216 
z
" transform="scale(0.015625)"/>
      <path id="ArialMT-37" d="M 303 3981 
L 303 4522 
L 3269 4522 
L 3269 4084 
Q 2831 3619 2401 2847 
Q 1972 2075 1738 1259 
Q 1569 684 1522 0 
L 944 0 
Q 953 541 1156 1306 
Q 1359 2072 1739 2783 
Q 2119 3494 2547 3981 
L 303 3981 
z
" transform="scale(0.015625)"/>
      <path id="ArialMT-41" d="M -9 0 
L 1750 4581 
L 2403 4581 
L 4278 0 
L 3588 0 
L 3053 1388 
L 1138 1388 
L 634 0 
L -9 0 
z
M 1313 1881 
L 2866 1881 
L 2388 3150 
Q 2169 3728 2063 4100 
Q 1975 3659 1816 3225 
L 1313 1881 
z
" transform="scale(0.015625)"/>
      <path id="ArialMT-68" d="M 422 0 
L 422 4581 
L 984 4581 
L 984 2938 
Q 1378 3394 1978 3394 
Q 2347 3394 2619 3248 
Q 2891 3103 3008 2847 
Q 3125 2591 3125 2103 
L 3125 0 
L 2563 0 
L 2563 2103 
Q 2563 2525 2380 2717 
Q 2197 2909 1863 2909 
Q 1613 2909 1392 2779 
Q 1172 2650 1078 2428 
Q 984 2206 984 1816 
L 984 0 
L 422 0 
z
" transform="scale(0.015625)"/>
     </defs>
     <use xlink:href="#ArialMT-4d"/>
     <use xlink:href="#ArialMT-61" x="83.300781"/>
     <use xlink:href="#ArialMT-78" x="138.916016"/>
     <use xlink:href="#ArialMT-69" x="188.916016"/>
     <use xlink:href="#ArialMT-6d" x="211.132812"/>
     <use xlink:href="#ArialMT-75" x="294.433594"/>
     <use xlink:href="#ArialMT-6d" x="350.048828"/>
     <use xlink:href="#ArialMT-20" x="433.349609"/>
     <use xlink:href="#ArialMT-53" x="461.132812"/>
     <use xlink:href="#ArialMT-6f" x="527.832031"/>
     <use xlink:href="#ArialMT-6c" x="583.447266"/>
     <use xlink:href="#ArialMT-61" x="605.664062"/>
     <use xlink:href="#ArialMT-72" x="661.279297"/>
     <use xlink:href="#ArialMT-20" x="694.580078"/>
     <use xlink:href="#ArialMT-52" x="722.363281"/>
     <use xlink:href="#ArialMT-61" x="794.580078"/>
     <use xlink:href="#ArialMT-64" x="850.195312"/>
     <use xlink:href="#ArialMT-69" x="905.810547"/>
     <use xlink:href="#ArialMT-61" x="928.027344"/>
     <use xlink:href="#ArialMT-74" x="983.642578"/>
     <use xlink:href="#ArialMT-69" x="1011.425781"/>
     <use xlink:href="#ArialMT-6f" x="1033.642578"/>
     <use xlink:href="#ArialMT-6e" x="1089.257812"/>
     <use xlink:href="#ArialMT-20" x="1144.873047"/>
     <use xlink:href="#ArialMT-50" x="1172.65625"/>
     <use xlink:href="#ArialMT-72" x="1239.355469"/>
     <use xlink:href="#ArialMT-65" x="1272.65625"/>
     <use xlink:href="#ArialMT-64" x="1328.271484"/>
     <use xlink:href="#ArialMT-69" x="1383.886719"/>
     <use xlink:href="#ArialMT-63" x="1406.103516"/>
     <use xlink:href="#ArialMT-74" x="1456.103516"/>
     <use xlink:href="#ArialMT-69" x="1483.886719"/>
     <use xlink:href="#ArialMT-6f" x="1506.103516"/>
     <use xlink:href="#ArialMT-6e" x="1561.71875"/>
     <use xlink:href="#ArialMT-20" x="1617.333984"/>
     <use xlink:href="#ArialMT-31" x="1645.117188"/>
     <use xlink:href="#ArialMT-37" x="1700.732422"/>
     <use xlink:href="#ArialMT-20" x="1756.347656"/>
     <use xlink:href="#ArialMT-44" x="1784.130859"/>
     <use xlink:href="#ArialMT-61" x="1856.347656"/>
     <use xlink:href="#ArialMT-79" x="1911.962891"/>
     <use xlink:href="#ArialMT-73" x="1961.962891"/>
     <use xlink:href="#ArialMT-20" x="2011.962891"/>
     <use xlink:href="#ArialMT-41" x="2034.246094"/>
     <use xlink:href="#ArialMT-68" x="2100.945312"/>
     <use xlink:href="#ArialMT-65" x="2156.560547"/>
     <use xlink:href="#ArialMT-61" x="2212.175781"/>
     <use xlink:href="#ArialMT-64" x="2267.791016"/>
    </g>
   </g>
   <g id="legend_1">
    <g id="patch_7">
     <path d="M 437.15625 88.130625 
L 511.4 88.130625 
Q 513.4 88.130625 513.4 86.130625 
L 513.4 58.84 
Q 513.4 56.84 511.4 56.84 
L 437.15625 56.84 
Q 435.15625 56.84 435.15625 58.84 
L 435.15625 86.130625 
Q 435.15625 88.130625 437.15625 88.130625 
z
" style="fill: #eaeaf2; opacity: 0.8; stroke: #cccccc; stroke-linejoin: miter"/>
    </g>
    <g id="line2d_15">
     <path d="M 439.15625 64.497812 
L 449.15625 64.497812 
L 459.15625 64.497812 
" style="fill: none; stroke: #1f77b4; stroke-width: 1.5; stroke-linecap: round"/>
    </g>
    <g id="text_16">
     <!-- Real -->
     <g style="fill: #262626" transform="translate(467.15625 67.997812) scale(0.1 -0.1)">
      <use xlink:href="#ArialMT-52"/>
      <use xlink:href="#ArialMT-65" x="72.216797"/>
      <use xlink:href="#ArialMT-61" x="127.832031"/>
      <use xlink:href="#ArialMT-6c" x="183.447266"/>
     </g>
    </g>
    <g id="line2d_16">
     <path d="M 439.15625 78.643125 
L 449.15625 78.643125 
L 459.15625 78.643125 
" style="fill: none; stroke: #ff7f0e; stroke-width: 1.5; stroke-linecap: round"/>
    </g>
    <g id="text_17">
     <!-- Predicted -->
     <g style="fill: #262626" transform="translate(467.15625 82.143125) scale(0.1 -0.1)">
      <use xlink:href="#ArialMT-50"/>
      <use xlink:href="#ArialMT-72" x="66.699219"/>
      <use xlink:href="#ArialMT-65" x="100"/>
      <use xlink:href="#ArialMT-64" x="155.615234"/>
      <use xlink:href="#ArialMT-69" x="211.230469"/>
      <use xlink:href="#ArialMT-63" x="233.447266"/>
      <use xlink:href="#ArialMT-74" x="283.447266"/>
      <use xlink:href="#ArialMT-65" x="311.230469"/>
      <use xlink:href="#ArialMT-64" x="366.845703"/>
     </g>
    </g>
   </g>
  </g>
 </g>
 <defs>
  <clipPath id="p22e38641aa">
   <rect x="72" y="51.84" width="446.4" height="332.64"/>
  </clipPath>
 </defs>
</svg>
