<?xml version="1.0" encoding="utf-8" standalone="no"?>
<!DOCTYPE svg PUBLIC "-//W3C//DTD SVG 1.1//EN"
  "http://www.w3.org/Graphics/SVG/1.1/DTD/svg11.dtd">
<svg xmlns:xlink="http://www.w3.org/1999/xlink" width="576pt" height="432pt" viewBox="0 0 576 432" xmlns="http://www.w3.org/2000/svg" version="1.1">
 <metadata>
  <rdf:RDF xmlns:dc="http://purl.org/dc/elements/1.1/" xmlns:cc="http://creativecommons.org/ns#" xmlns:rdf="http://www.w3.org/1999/02/22-rdf-syntax-ns#">
   <cc:Work>
    <dc:type rdf:resource="http://purl.org/dc/dcmitype/StillImage"/>
    <dc:date>2023-11-17T05:07:05.129008</dc:date>
    <dc:format>image/svg+xml</dc:format>
    <dc:creator>
     <cc:Agent>
      <dc:title>Matplotlib v3.8.0, https://matplotlib.org/</dc:title>
     </cc:Agent>
    </dc:creator>
   </cc:Work>
  </rdf:RDF>
 </metadata>
 <defs>
  <style type="text/css">*{stroke-linejoin: round; stroke-linecap: butt}</style>
 </defs>
 <g id="figure_1">
  <g id="patch_1">
   <path d="M 0 432 
L 576 432 
L 576 0 
L 0 0 
z
" style="fill: #ffffff"/>
  </g>
  <g id="axes_1">
   <g id="patch_2">
    <path d="M 72 384.48 
L 518.4 384.48 
L 518.4 51.84 
L 72 51.84 
z
" style="fill: #eaeaf2"/>
   </g>
   <g id="matplotlib.axis_1">
    <g id="xtick_1">
     <g id="line2d_1">
      <path d="M 92.290909 384.48 
L 92.290909 51.84 
" clip-path="url(#pfadfcbcc44)" style="fill: none; stroke: #ffffff; stroke-width: 0.8; stroke-linecap: round"/>
     </g>
     <g id="text_1">
      <!-- 0 -->
      <g style="fill: #262626" transform="translate(89.51044 398.637812) scale(0.1 -0.1)">
       <defs>
        <path id="ArialMT-30" d="M 266 2259 
Q 266 3072 433 3567 
Q 600 4063 929 4331 
Q 1259 4600 1759 4600 
Q 2128 4600 2406 4451 
Q 2684 4303 2865 4023 
Q 3047 3744 3150 3342 
Q 3253 2941 3253 2259 
Q 3253 1453 3087 958 
Q 2922 463 2592 192 
Q 2263 -78 1759 -78 
Q 1097 -78 719 397 
Q 266 969 266 2259 
z
M 844 2259 
Q 844 1131 1108 757 
Q 1372 384 1759 384 
Q 2147 384 2411 759 
Q 2675 1134 2675 2259 
Q 2675 3391 2411 3762 
Q 2147 4134 1753 4134 
Q 1366 4134 1134 3806 
Q 844 3388 844 2259 
z
" transform="scale(0.015625)"/>
       </defs>
       <use xlink:href="#ArialMT-30"/>
      </g>
     </g>
    </g>
    <g id="xtick_2">
     <g id="line2d_2">
      <path d="M 187.553393 384.48 
L 187.553393 51.84 
" clip-path="url(#pfadfcbcc44)" style="fill: none; stroke: #ffffff; stroke-width: 0.8; stroke-linecap: round"/>
     </g>
     <g id="text_2">
      <!-- 200 -->
      <g style="fill: #262626" transform="translate(179.211987 398.637812) scale(0.1 -0.1)">
       <defs>
        <path id="ArialMT-32" d="M 3222 541 
L 3222 0 
L 194 0 
Q 188 203 259 391 
Q 375 700 629 1000 
Q 884 1300 1366 1694 
Q 2113 2306 2375 2664 
Q 2638 3022 2638 3341 
Q 2638 3675 2398 3904 
Q 2159 4134 1775 4134 
Q 1369 4134 1125 3890 
Q 881 3647 878 3216 
L 300 3275 
Q 359 3922 746 4261 
Q 1134 4600 1788 4600 
Q 2447 4600 2831 4234 
Q 3216 3869 3216 3328 
Q 3216 3053 3103 2787 
Q 2991 2522 2730 2228 
Q 2469 1934 1863 1422 
Q 1356 997 1212 845 
Q 1069 694 975 541 
L 3222 541 
z
" transform="scale(0.015625)"/>
       </defs>
       <use xlink:href="#ArialMT-32"/>
       <use xlink:href="#ArialMT-30" x="55.615234"/>
       <use xlink:href="#ArialMT-30" x="111.230469"/>
      </g>
     </g>
    </g>
    <g id="xtick_3">
     <g id="line2d_3">
      <path d="M 282.815877 384.48 
L 282.815877 51.84 
" clip-path="url(#pfadfcbcc44)" style="fill: none; stroke: #ffffff; stroke-width: 0.8; stroke-linecap: round"/>
     </g>
     <g id="text_3">
      <!-- 400 -->
      <g style="fill: #262626" transform="translate(274.474471 398.637812) scale(0.1 -0.1)">
       <defs>
        <path id="ArialMT-34" d="M 2069 0 
L 2069 1097 
L 81 1097 
L 81 1613 
L 2172 4581 
L 2631 4581 
L 2631 1613 
L 3250 1613 
L 3250 1097 
L 2631 1097 
L 2631 0 
L 2069 0 
z
M 2069 1613 
L 2069 3678 
L 634 1613 
L 2069 1613 
z
" transform="scale(0.015625)"/>
       </defs>
       <use xlink:href="#ArialMT-34"/>
       <use xlink:href="#ArialMT-30" x="55.615234"/>
       <use xlink:href="#ArialMT-30" x="111.230469"/>
      </g>
     </g>
    </g>
    <g id="xtick_4">
     <g id="line2d_4">
      <path d="M 378.078361 384.48 
L 378.078361 51.84 
" clip-path="url(#pfadfcbcc44)" style="fill: none; stroke: #ffffff; stroke-width: 0.8; stroke-linecap: round"/>
     </g>
     <g id="text_4">
      <!-- 600 -->
      <g style="fill: #262626" transform="translate(369.736955 398.637812) scale(0.1 -0.1)">
       <defs>
        <path id="ArialMT-36" d="M 3184 3459 
L 2625 3416 
Q 2550 3747 2413 3897 
Q 2184 4138 1850 4138 
Q 1581 4138 1378 3988 
Q 1113 3794 959 3422 
Q 806 3050 800 2363 
Q 1003 2672 1297 2822 
Q 1591 2972 1913 2972 
Q 2475 2972 2870 2558 
Q 3266 2144 3266 1488 
Q 3266 1056 3080 686 
Q 2894 316 2569 119 
Q 2244 -78 1831 -78 
Q 1128 -78 684 439 
Q 241 956 241 2144 
Q 241 3472 731 4075 
Q 1159 4600 1884 4600 
Q 2425 4600 2770 4297 
Q 3116 3994 3184 3459 
z
M 888 1484 
Q 888 1194 1011 928 
Q 1134 663 1356 523 
Q 1578 384 1822 384 
Q 2178 384 2434 671 
Q 2691 959 2691 1453 
Q 2691 1928 2437 2201 
Q 2184 2475 1800 2475 
Q 1419 2475 1153 2201 
Q 888 1928 888 1484 
z
" transform="scale(0.015625)"/>
       </defs>
       <use xlink:href="#ArialMT-36"/>
       <use xlink:href="#ArialMT-30" x="55.615234"/>
       <use xlink:href="#ArialMT-30" x="111.230469"/>
      </g>
     </g>
    </g>
    <g id="xtick_5">
     <g id="line2d_5">
      <path d="M 473.340845 384.48 
L 473.340845 51.84 
" clip-path="url(#pfadfcbcc44)" style="fill: none; stroke: #ffffff; stroke-width: 0.8; stroke-linecap: round"/>
     </g>
     <g id="text_5">
      <!-- 800 -->
      <g style="fill: #262626" transform="translate(464.999439 398.637812) scale(0.1 -0.1)">
       <defs>
        <path id="ArialMT-38" d="M 1131 2484 
Q 781 2613 612 2850 
Q 444 3088 444 3419 
Q 444 3919 803 4259 
Q 1163 4600 1759 4600 
Q 2359 4600 2725 4251 
Q 3091 3903 3091 3403 
Q 3091 3084 2923 2848 
Q 2756 2613 2416 2484 
Q 2838 2347 3058 2040 
Q 3278 1734 3278 1309 
Q 3278 722 2862 322 
Q 2447 -78 1769 -78 
Q 1091 -78 675 323 
Q 259 725 259 1325 
Q 259 1772 486 2073 
Q 713 2375 1131 2484 
z
M 1019 3438 
Q 1019 3113 1228 2906 
Q 1438 2700 1772 2700 
Q 2097 2700 2305 2904 
Q 2513 3109 2513 3406 
Q 2513 3716 2298 3927 
Q 2084 4138 1766 4138 
Q 1444 4138 1231 3931 
Q 1019 3725 1019 3438 
z
M 838 1322 
Q 838 1081 952 856 
Q 1066 631 1291 507 
Q 1516 384 1775 384 
Q 2178 384 2440 643 
Q 2703 903 2703 1303 
Q 2703 1709 2433 1975 
Q 2163 2241 1756 2241 
Q 1359 2241 1098 1978 
Q 838 1716 838 1322 
z
" transform="scale(0.015625)"/>
       </defs>
       <use xlink:href="#ArialMT-38"/>
       <use xlink:href="#ArialMT-30" x="55.615234"/>
       <use xlink:href="#ArialMT-30" x="111.230469"/>
      </g>
     </g>
    </g>
    <g id="text_6">
     <!-- Days -->
     <g style="fill: #262626" transform="translate(283.808594 411.783125) scale(0.1 -0.1)">
      <defs>
       <path id="ArialMT-44" d="M 494 0 
L 494 4581 
L 2072 4581 
Q 2606 4581 2888 4516 
Q 3281 4425 3559 4188 
Q 3922 3881 4101 3404 
Q 4281 2928 4281 2316 
Q 4281 1794 4159 1391 
Q 4038 988 3847 723 
Q 3656 459 3429 307 
Q 3203 156 2883 78 
Q 2563 0 2147 0 
L 494 0 
z
M 1100 541 
L 2078 541 
Q 2531 541 2789 625 
Q 3047 709 3200 863 
Q 3416 1078 3536 1442 
Q 3656 1806 3656 2325 
Q 3656 3044 3420 3430 
Q 3184 3816 2847 3947 
Q 2603 4041 2063 4041 
L 1100 4041 
L 1100 541 
z
" transform="scale(0.015625)"/>
       <path id="ArialMT-61" d="M 2588 409 
Q 2275 144 1986 34 
Q 1697 -75 1366 -75 
Q 819 -75 525 192 
Q 231 459 231 875 
Q 231 1119 342 1320 
Q 453 1522 633 1644 
Q 813 1766 1038 1828 
Q 1203 1872 1538 1913 
Q 2219 1994 2541 2106 
Q 2544 2222 2544 2253 
Q 2544 2597 2384 2738 
Q 2169 2928 1744 2928 
Q 1347 2928 1158 2789 
Q 969 2650 878 2297 
L 328 2372 
Q 403 2725 575 2942 
Q 747 3159 1072 3276 
Q 1397 3394 1825 3394 
Q 2250 3394 2515 3294 
Q 2781 3194 2906 3042 
Q 3031 2891 3081 2659 
Q 3109 2516 3109 2141 
L 3109 1391 
Q 3109 606 3145 398 
Q 3181 191 3288 0 
L 2700 0 
Q 2613 175 2588 409 
z
M 2541 1666 
Q 2234 1541 1622 1453 
Q 1275 1403 1131 1340 
Q 988 1278 909 1158 
Q 831 1038 831 891 
Q 831 666 1001 516 
Q 1172 366 1500 366 
Q 1825 366 2078 508 
Q 2331 650 2450 897 
Q 2541 1088 2541 1459 
L 2541 1666 
z
" transform="scale(0.015625)"/>
       <path id="ArialMT-79" d="M 397 -1278 
L 334 -750 
Q 519 -800 656 -800 
Q 844 -800 956 -737 
Q 1069 -675 1141 -563 
Q 1194 -478 1313 -144 
Q 1328 -97 1363 -6 
L 103 3319 
L 709 3319 
L 1400 1397 
Q 1534 1031 1641 628 
Q 1738 1016 1872 1384 
L 2581 3319 
L 3144 3319 
L 1881 -56 
Q 1678 -603 1566 -809 
Q 1416 -1088 1222 -1217 
Q 1028 -1347 759 -1347 
Q 597 -1347 397 -1278 
z
" transform="scale(0.015625)"/>
       <path id="ArialMT-73" d="M 197 991 
L 753 1078 
Q 800 744 1014 566 
Q 1228 388 1613 388 
Q 2000 388 2187 545 
Q 2375 703 2375 916 
Q 2375 1106 2209 1216 
Q 2094 1291 1634 1406 
Q 1016 1563 777 1677 
Q 538 1791 414 1992 
Q 291 2194 291 2438 
Q 291 2659 392 2848 
Q 494 3038 669 3163 
Q 800 3259 1026 3326 
Q 1253 3394 1513 3394 
Q 1903 3394 2198 3281 
Q 2494 3169 2634 2976 
Q 2775 2784 2828 2463 
L 2278 2388 
Q 2241 2644 2061 2787 
Q 1881 2931 1553 2931 
Q 1166 2931 1000 2803 
Q 834 2675 834 2503 
Q 834 2394 903 2306 
Q 972 2216 1119 2156 
Q 1203 2125 1616 2013 
Q 2213 1853 2448 1751 
Q 2684 1650 2818 1456 
Q 2953 1263 2953 975 
Q 2953 694 2789 445 
Q 2625 197 2315 61 
Q 2006 -75 1616 -75 
Q 969 -75 630 194 
Q 291 463 197 991 
z
" transform="scale(0.015625)"/>
      </defs>
      <use xlink:href="#ArialMT-44"/>
      <use xlink:href="#ArialMT-61" x="72.216797"/>
      <use xlink:href="#ArialMT-79" x="127.832031"/>
      <use xlink:href="#ArialMT-73" x="177.832031"/>
     </g>
    </g>
   </g>
   <g id="matplotlib.axis_2">
    <g id="ytick_1">
     <g id="line2d_6">
      <path d="M 72 377.823157 
L 518.4 377.823157 
" clip-path="url(#pfadfcbcc44)" style="fill: none; stroke: #ffffff; stroke-width: 0.8; stroke-linecap: round"/>
     </g>
     <g id="text_7">
      <!-- 2.5 -->
      <g style="fill: #262626" transform="translate(51.1 381.402063) scale(0.1 -0.1)">
       <defs>
        <path id="ArialMT-2e" d="M 581 0 
L 581 641 
L 1222 641 
L 1222 0 
L 581 0 
z
" transform="scale(0.015625)"/>
        <path id="ArialMT-35" d="M 266 1200 
L 856 1250 
Q 922 819 1161 601 
Q 1400 384 1738 384 
Q 2144 384 2425 690 
Q 2706 997 2706 1503 
Q 2706 1984 2436 2262 
Q 2166 2541 1728 2541 
Q 1456 2541 1237 2417 
Q 1019 2294 894 2097 
L 366 2166 
L 809 4519 
L 3088 4519 
L 3088 3981 
L 1259 3981 
L 1013 2750 
Q 1425 3038 1878 3038 
Q 2478 3038 2890 2622 
Q 3303 2206 3303 1553 
Q 3303 931 2941 478 
Q 2500 -78 1738 -78 
Q 1113 -78 717 272 
Q 322 622 266 1200 
z
" transform="scale(0.015625)"/>
       </defs>
       <use xlink:href="#ArialMT-32"/>
       <use xlink:href="#ArialMT-2e" x="55.615234"/>
       <use xlink:href="#ArialMT-35" x="83.398438"/>
      </g>
     </g>
    </g>
    <g id="ytick_2">
     <g id="line2d_7">
      <path d="M 72 335.783796 
L 518.4 335.783796 
" clip-path="url(#pfadfcbcc44)" style="fill: none; stroke: #ffffff; stroke-width: 0.8; stroke-linecap: round"/>
     </g>
     <g id="text_8">
      <!-- 5.0 -->
      <g style="fill: #262626" transform="translate(51.1 339.362703) scale(0.1 -0.1)">
       <use xlink:href="#ArialMT-35"/>
       <use xlink:href="#ArialMT-2e" x="55.615234"/>
       <use xlink:href="#ArialMT-30" x="83.398438"/>
      </g>
     </g>
    </g>
    <g id="ytick_3">
     <g id="line2d_8">
      <path d="M 72 293.744436 
L 518.4 293.744436 
" clip-path="url(#pfadfcbcc44)" style="fill: none; stroke: #ffffff; stroke-width: 0.8; stroke-linecap: round"/>
     </g>
     <g id="text_9">
      <!-- 7.5 -->
      <g style="fill: #262626" transform="translate(51.1 297.323342) scale(0.1 -0.1)">
       <defs>
        <path id="ArialMT-37" d="M 303 3981 
L 303 4522 
L 3269 4522 
L 3269 4084 
Q 2831 3619 2401 2847 
Q 1972 2075 1738 1259 
Q 1569 684 1522 0 
L 944 0 
Q 953 541 1156 1306 
Q 1359 2072 1739 2783 
Q 2119 3494 2547 3981 
L 303 3981 
z
" transform="scale(0.015625)"/>
       </defs>
       <use xlink:href="#ArialMT-37"/>
       <use xlink:href="#ArialMT-2e" x="55.615234"/>
       <use xlink:href="#ArialMT-35" x="83.398438"/>
      </g>
     </g>
    </g>
    <g id="ytick_4">
     <g id="line2d_9">
      <path d="M 72 251.705076 
L 518.4 251.705076 
" clip-path="url(#pfadfcbcc44)" style="fill: none; stroke: #ffffff; stroke-width: 0.8; stroke-linecap: round"/>
     </g>
     <g id="text_10">
      <!-- 10.0 -->
      <g style="fill: #262626" transform="translate(45.539062 255.283982) scale(0.1 -0.1)">
       <defs>
        <path id="ArialMT-31" d="M 2384 0 
L 1822 0 
L 1822 3584 
Q 1619 3391 1289 3197 
Q 959 3003 697 2906 
L 697 3450 
Q 1169 3672 1522 3987 
Q 1875 4303 2022 4600 
L 2384 4600 
L 2384 0 
z
" transform="scale(0.015625)"/>
       </defs>
       <use xlink:href="#ArialMT-31"/>
       <use xlink:href="#ArialMT-30" x="55.615234"/>
       <use xlink:href="#ArialMT-2e" x="111.230469"/>
       <use xlink:href="#ArialMT-30" x="139.013672"/>
      </g>
     </g>
    </g>
    <g id="ytick_5">
     <g id="line2d_10">
      <path d="M 72 209.665716 
L 518.4 209.665716 
" clip-path="url(#pfadfcbcc44)" style="fill: none; stroke: #ffffff; stroke-width: 0.8; stroke-linecap: round"/>
     </g>
     <g id="text_11">
      <!-- 12.5 -->
      <g style="fill: #262626" transform="translate(45.539062 213.244622) scale(0.1 -0.1)">
       <use xlink:href="#ArialMT-31"/>
       <use xlink:href="#ArialMT-32" x="55.615234"/>
       <use xlink:href="#ArialMT-2e" x="111.230469"/>
       <use xlink:href="#ArialMT-35" x="139.013672"/>
      </g>
     </g>
    </g>
    <g id="ytick_6">
     <g id="line2d_11">
      <path d="M 72 167.626355 
L 518.4 167.626355 
" clip-path="url(#pfadfcbcc44)" style="fill: none; stroke: #ffffff; stroke-width: 0.8; stroke-linecap: round"/>
     </g>
     <g id="text_12">
      <!-- 15.0 -->
      <g style="fill: #262626" transform="translate(45.539062 171.205262) scale(0.1 -0.1)">
       <use xlink:href="#ArialMT-31"/>
       <use xlink:href="#ArialMT-35" x="55.615234"/>
       <use xlink:href="#ArialMT-2e" x="111.230469"/>
       <use xlink:href="#ArialMT-30" x="139.013672"/>
      </g>
     </g>
    </g>
    <g id="ytick_7">
     <g id="line2d_12">
      <path d="M 72 125.586995 
L 518.4 125.586995 
" clip-path="url(#pfadfcbcc44)" style="fill: none; stroke: #ffffff; stroke-width: 0.8; stroke-linecap: round"/>
     </g>
     <g id="text_13">
      <!-- 17.5 -->
      <g style="fill: #262626" transform="translate(45.539062 129.165901) scale(0.1 -0.1)">
       <use xlink:href="#ArialMT-31"/>
       <use xlink:href="#ArialMT-37" x="55.615234"/>
       <use xlink:href="#ArialMT-2e" x="111.230469"/>
       <use xlink:href="#ArialMT-35" x="139.013672"/>
      </g>
     </g>
    </g>
    <g id="ytick_8">
     <g id="line2d_13">
      <path d="M 72 83.547635 
L 518.4 83.547635 
" clip-path="url(#pfadfcbcc44)" style="fill: none; stroke: #ffffff; stroke-width: 0.8; stroke-linecap: round"/>
     </g>
     <g id="text_14">
      <!-- 20.0 -->
      <g style="fill: #262626" transform="translate(45.539062 87.126541) scale(0.1 -0.1)">
       <use xlink:href="#ArialMT-32"/>
       <use xlink:href="#ArialMT-30" x="55.615234"/>
       <use xlink:href="#ArialMT-2e" x="111.230469"/>
       <use xlink:href="#ArialMT-30" x="139.013672"/>
      </g>
     </g>
    </g>
    <g id="text_15">
     <!-- (m/s) -->
     <g style="fill: #262626" transform="translate(39.434375 229.543594) rotate(-90) scale(0.1 -0.1)">
      <defs>
       <path id="ArialMT-28" d="M 1497 -1347 
Q 1031 -759 709 28 
Q 388 816 388 1659 
Q 388 2403 628 3084 
Q 909 3875 1497 4659 
L 1900 4659 
Q 1522 4009 1400 3731 
Q 1209 3300 1100 2831 
Q 966 2247 966 1656 
Q 966 153 1900 -1347 
L 1497 -1347 
z
" transform="scale(0.015625)"/>
       <path id="ArialMT-6d" d="M 422 0 
L 422 3319 
L 925 3319 
L 925 2853 
Q 1081 3097 1340 3245 
Q 1600 3394 1931 3394 
Q 2300 3394 2536 3241 
Q 2772 3088 2869 2813 
Q 3263 3394 3894 3394 
Q 4388 3394 4653 3120 
Q 4919 2847 4919 2278 
L 4919 0 
L 4359 0 
L 4359 2091 
Q 4359 2428 4304 2576 
Q 4250 2725 4106 2815 
Q 3963 2906 3769 2906 
Q 3419 2906 3187 2673 
Q 2956 2441 2956 1928 
L 2956 0 
L 2394 0 
L 2394 2156 
Q 2394 2531 2256 2718 
Q 2119 2906 1806 2906 
Q 1569 2906 1367 2781 
Q 1166 2656 1075 2415 
Q 984 2175 984 1722 
L 984 0 
L 422 0 
z
" transform="scale(0.015625)"/>
       <path id="ArialMT-2f" d="M 0 -78 
L 1328 4659 
L 1778 4659 
L 453 -78 
L 0 -78 
z
" transform="scale(0.015625)"/>
       <path id="ArialMT-29" d="M 791 -1347 
L 388 -1347 
Q 1322 153 1322 1656 
Q 1322 2244 1188 2822 
Q 1081 3291 891 3722 
Q 769 4003 388 4659 
L 791 4659 
Q 1378 3875 1659 3084 
Q 1900 2403 1900 1659 
Q 1900 816 1576 28 
Q 1253 -759 791 -1347 
z
" transform="scale(0.015625)"/>
      </defs>
      <use xlink:href="#ArialMT-28"/>
      <use xlink:href="#ArialMT-6d" x="33.300781"/>
      <use xlink:href="#ArialMT-2f" x="116.601562"/>
      <use xlink:href="#ArialMT-73" x="144.384766"/>
      <use xlink:href="#ArialMT-29" x="194.384766"/>
     </g>
    </g>
   </g>
   <g id="line2d_14">
    <path d="M 92.290909 261.82768 
L 92.767222 263.89649 
L 93.243534 268.941214 
L 93.719846 280.249802 
L 94.196159 216.686289 
L 94.672471 256.581642 
L 95.148784 279.913487 
L 95.625096 291.053917 
L 96.101408 243.044968 
L 96.577721 292.525295 
L 97.054033 310.476102 
L 97.530346 316.277533 
L 98.006658 332.504726 
L 98.482971 358.358933 
L 98.959283 285.714918 
L 99.435595 326.829413 
L 99.911908 338.264119 
L 100.864533 311.148731 
L 101.340845 312.325833 
L 101.817157 293.282003 
L 102.29347 309.245495 
L 102.769782 312.53603 
L 103.246095 306.860717 
L 103.722407 317.79095 
L 104.19872 255.824933 
L 104.675032 311.8634 
L 105.627657 321.574493 
L 106.103969 307.575386 
L 106.580282 311.022613 
L 107.056594 311.737282 
L 107.532907 307.28111 
L 108.009219 281.805258 
L 108.485531 322.499359 
L 108.961844 327.754279 
L 109.438156 303.119214 
L 109.914469 190.411689 
L 110.390781 316.140165 
L 110.867093 324.307051 
L 111.343406 315.370945 
L 111.819718 322.877713 
L 112.296031 313.309496 
L 112.772343 330.115832 
L 113.248656 328.006515 
L 114.20128 282.35177 
L 114.677593 299.251592 
L 115.153905 339.525299 
L 115.630218 322.331201 
L 116.10653 329.225656 
L 116.582843 296.476995 
L 117.059155 321.910808 
L 117.535467 293.996672 
L 118.01178 232.114734 
L 118.488092 237.579851 
L 118.964405 332.6135 
L 119.440717 328.34283 
L 119.917029 325.69435 
L 120.393342 314.301683 
L 120.869654 295.383971 
L 121.345967 298.663041 
L 121.822279 328.142916 
L 122.774904 66.96 
L 123.251216 335.069127 
L 123.727529 327.165728 
L 124.203841 280.922431 
L 124.680154 323.466264 
L 125.156466 233.796308 
L 125.632778 169.420035 
L 126.109091 315.249904 
L 126.585403 326.661255 
L 127.061716 304.212237 
L 127.538028 317.580753 
L 128.014341 318.474163 
L 128.490653 311.90544 
L 128.966965 287.816886 
L 129.443278 256.455524 
L 129.91959 290.633524 
L 130.395903 302.133493 
L 130.872215 323.04587 
L 131.348528 331.512833 
L 131.82484 318.841934 
L 132.301152 292.609373 
L 132.777465 311.443007 
L 133.73009 326.871452 
L 134.206402 320.565548 
L 134.682714 302.824938 
L 135.159027 306.524402 
L 135.635339 300.807049 
L 136.111652 346.293636 
L 137.064277 223.83298 
L 137.540589 276.466259 
L 138.016901 315.646943 
L 138.969526 302.530662 
L 139.445839 320.019036 
L 139.922151 230.024608 
L 140.874776 308.878606 
L 141.351088 281.048549 
L 141.827401 227.574483 
L 142.303713 302.824938 
L 142.780026 304.296316 
L 143.256338 301.984151 
L 143.73265 298.242648 
L 144.208963 307.112953 
L 144.685275 199.366072 
L 145.161588 267.049442 
L 145.6379 314.890234 
L 146.114213 277.853558 
L 146.590525 303.077174 
L 147.066837 319.430485 
L 147.54315 323.508303 
L 148.019462 318.648674 
L 148.495775 299.33399 
L 148.972087 253.849083 
L 149.448399 139.670181 
L 149.924712 285.967155 
L 150.401024 322.793634 
L 150.877337 327.249806 
L 151.353649 330.5496 
L 151.829962 244.8947 
L 152.306274 308.079858 
L 152.782586 312.031558 
L 153.258899 280.922431 
L 153.735211 274.952842 
L 154.211524 229.466254 
L 154.687836 247.248904 
L 155.164149 245.945684 
L 155.640461 278.257489 
L 156.593086 307.911701 
L 157.069398 167.584316 
L 158.022023 308.58433 
L 158.498335 259.061964 
L 158.974648 279.156778 
L 159.45096 232.997561 
L 159.927273 260.65946 
L 160.403585 256.287366 
L 160.879898 226.949478 
L 161.35621 291.973491 
L 161.832522 300.891127 
L 162.308835 322.667516 
L 162.785147 308.416173 
L 163.26146 274.700606 
L 164.214085 226.145145 
L 164.690397 159.767956 
L 165.166709 290.171091 
L 165.643022 232.240852 
L 166.119334 221.894697 
L 166.595647 284.748013 
L 167.071959 300.807049 
L 167.548271 291.169158 
L 168.500896 318.589698 
L 168.977209 225.934948 
L 169.453521 269.235489 
L 169.929834 249.43495 
L 170.406146 268.604899 
L 171.358771 234.006505 
L 171.835083 137.358016 
L 172.311396 226.901853 
L 172.787708 277.601322 
L 173.26402 273.439425 
L 173.740333 250.191659 
L 174.216645 304.212237 
L 174.692958 300.226361 
L 175.16927 290.84372 
L 175.645583 289.518158 
L 176.121895 245.819565 
L 176.598207 243.044968 
L 177.07452 259.482358 
L 177.550832 294.979159 
L 178.027145 282.393809 
L 178.503457 276.928692 
L 178.97977 201.718807 
L 179.456082 212.482353 
L 179.932394 243.538782 
L 180.408707 224.46357 
L 180.885019 228.541388 
L 181.361332 243.927794 
L 181.837644 250.317483 
L 182.313956 180.775898 
L 182.790269 276.902822 
L 183.266581 242.866815 
L 183.742894 241.237275 
L 184.219206 216.070428 
L 184.695519 204.158559 
L 185.171831 255.016484 
L 185.648143 271.085221 
L 186.124456 218.830296 
L 186.600768 213.191142 
L 187.077081 188.435839 
L 187.553393 279.065919 
L 188.029706 253.050335 
L 188.506018 243.801676 
L 188.98233 205.756055 
L 189.458643 252.68815 
L 189.934955 248.581816 
L 190.411268 245.651408 
L 190.88758 216.097738 
L 191.363892 267.970487 
L 191.840205 208.153475 
L 192.316517 223.622783 
L 192.79283 262.677349 
L 193.269142 257.884862 
L 193.745455 194.23727 
L 194.221767 193.018129 
L 195.174392 294.290948 
L 195.650704 212.776628 
L 196.127017 198.945679 
L 196.603329 220.259634 
L 197.079641 212.608471 
L 197.555954 146.516129 
L 198.032266 232.997561 
L 198.508579 227.78468 
L 198.984891 121.257835 
L 199.461204 133.78467 
L 199.937516 152.366068 
L 200.413828 156.948358 
L 201.366453 229.447146 
L 201.842766 191.126358 
L 202.319078 207.101315 
L 202.795391 180.467469 
L 203.271703 184.870137 
L 203.748015 164.473403 
L 204.224328 149.885745 
L 204.70064 237.832087 
L 205.176953 267.589486 
L 205.653265 284.243541 
L 206.129577 288.657674 
L 207.082202 215.761423 
L 207.558515 220.26081 
L 208.034827 285.792823 
L 208.51114 264.064648 
L 208.987452 208.782889 
L 209.463764 174.352653 
L 209.940077 235.737224 
L 210.416389 217.400958 
L 210.892702 216.560171 
L 211.369014 229.701146 
L 211.845327 278.40007 
L 212.321639 254.73191 
L 212.797951 239.051228 
L 213.274264 252.714021 
L 213.750576 254.000484 
L 214.226889 208.362495 
L 214.703201 248.089691 
L 215.179513 145.892006 
L 215.655826 132.565529 
L 216.132138 122.434043 
L 216.608451 188.856232 
L 217.084763 227.490404 
L 217.561076 217.316879 
L 218.037388 267.511875 
L 218.5137 247.585219 
L 218.990013 272.262323 
L 219.942638 165.989466 
L 220.41895 192.177342 
L 220.895262 241.300481 
L 221.371575 222.193445 
L 222.800512 298.233777 
L 223.276825 276.174883 
L 223.753137 276.928692 
L 224.229449 254.23928 
L 224.705762 208.488614 
L 225.182074 174.058378 
L 225.658387 195.918845 
L 226.134699 188.856232 
L 226.611012 202.476985 
L 227.087324 230.979671 
L 227.563636 214.920636 
L 228.039949 282.120257 
L 228.516261 289.58254 
L 228.992574 265.536025 
L 229.468886 204.494874 
L 229.945198 213.32314 
L 230.421511 224.715807 
L 230.897823 230.420812 
L 231.374136 224.127256 
L 231.850448 224.799885 
L 232.326761 208.029318 
L 233.279385 249.098636 
L 233.755698 256.70776 
L 234.23201 234.048545 
L 234.708323 225.119927 
L 235.184635 219.25069 
L 235.660948 231.568222 
L 236.13726 218.536021 
L 236.613572 181.036911 
L 237.089885 200.627253 
L 237.566197 242.120102 
L 238.04251 212.860707 
L 238.518822 215.467147 
L 238.995134 238.426687 
L 239.471447 240.665481 
L 239.947759 221.562855 
L 240.424072 218.956414 
L 240.900384 155.533131 
L 241.376697 134.778 
L 241.853009 172.22426 
L 242.329321 200.711332 
L 242.805634 269.19345 
L 243.281946 309.105974 
L 243.758259 291.380825 
L 244.234571 293.786476 
L 244.710883 246.224564 
L 245.187196 263.518136 
L 245.663508 263.349979 
L 246.139821 244.726542 
L 246.616133 250.401856 
L 247.092446 252.377706 
L 247.568758 295.383971 
L 248.04507 283.528872 
L 248.521383 296.757159 
L 248.997695 298.789159 
L 249.474008 139.214474 
L 249.95032 221.403811 
L 250.426633 210.100808 
L 251.379257 287.690768 
L 252.808195 309.298999 
L 253.284507 329.195082 
L 253.760819 273.229228 
L 254.237132 171.199701 
L 254.713444 166.869647 
L 255.189757 251.999351 
L 255.666069 234.865813 
L 256.142382 239.135307 
L 256.618694 274.027976 
L 257.095006 276.171984 
L 258.523944 134.289143 
L 259.000256 121.046744 
L 259.476569 124.073578 
L 259.952881 181.078951 
L 260.429193 221.773051 
L 260.905506 288.825831 
L 261.381818 305.30526 
L 261.858131 305.137103 
L 262.334443 298.831199 
L 262.810755 253.38665 
L 263.287068 281.300786 
L 263.76338 265.199711 
L 264.239693 232.030655 
L 264.716005 274.784685 
L 265.192318 299.37771 
L 265.66863 310.013669 
L 266.144942 303.497568 
L 266.621255 274.490409 
L 267.097567 293.954633 
L 267.57388 296.434955 
L 268.526504 320.817784 
L 269.002817 292.357137 
L 269.479129 140.38485 
L 269.955442 164.095049 
L 270.431754 267.680033 
L 270.908067 208.407475 
L 271.384379 301.858033 
L 271.860691 316.151415 
L 272.337004 306.239828 
L 272.813316 298.663041 
L 273.289629 264.190766 
L 273.765941 245.104896 
L 274.242254 302.69882 
L 275.194878 262.803467 
L 275.671191 325.946586 
L 276.147503 265.176486 
L 276.623816 176.664818 
L 277.100128 290.110824 
L 277.57644 311.443007 
L 278.052753 302.740859 
L 278.529065 312.914384 
L 279.005378 304.67467 
L 279.48169 245.020818 
L 279.958003 300.470734 
L 280.434315 310.097747 
L 280.910627 303.917961 
L 281.38694 293.576279 
L 281.863252 340.239969 
L 282.339565 323.844618 
L 282.815877 288.90991 
L 283.29219 309.25696 
L 283.768502 289.204185 
L 284.244814 292.81957 
L 284.721127 316.067336 
L 285.197439 320.901863 
L 285.673752 329.60401 
L 286.150064 327.291846 
L 286.626376 242.540495 
L 287.102689 303.917961 
L 287.579001 340.197929 
L 288.055314 318.379501 
L 288.531626 272.514559 
L 289.007939 260.911696 
L 289.484251 339.146945 
L 289.960563 289.204185 
L 290.436876 337.339253 
L 290.913188 314.469841 
L 291.389501 281.721179 
L 291.865813 335.783796 
L 292.342125 305.137103 
L 292.818438 226.607578 
L 293.29475 256.245327 
L 293.771063 327.586121 
L 294.247375 325.358035 
L 294.723688 322.205083 
L 295.2 328.468948 
L 295.676312 271.79989 
L 296.152625 265.493986 
L 296.628937 265.704183 
L 297.10525 275.331196 
L 297.581562 344.10759 
L 298.057875 353.398288 
L 298.534187 333.051238 
L 299.010499 317.622793 
L 299.486812 318.043186 
L 299.963124 313.334778 
L 300.439437 315.268589 
L 300.915749 289.5405 
L 301.392061 311.90544 
L 301.868374 297.485939 
L 302.344686 194.405428 
L 302.820999 232.324931 
L 303.297311 345.158574 
L 303.773624 306.734598 
L 304.249936 247.255371 
L 304.726248 328.337832 
L 305.678873 336.036033 
L 306.155186 264.61116 
L 306.631498 282.856242 
L 307.10781 337.633528 
L 307.584123 322.877713 
L 308.060435 263.223861 
L 308.536748 333.429592 
L 309.01306 362.352672 
L 309.489373 343.43496 
L 309.965685 355.205981 
L 310.441997 269.025292 
L 310.91831 249.43495 
L 311.394622 312.283794 
L 311.870935 300.176458 
L 312.347247 196.25516 
L 312.82356 213.064142 
L 313.299872 337.885764 
L 313.776184 316.992202 
L 314.252497 215.425108 
L 314.728809 326.829413 
L 315.205122 321.196138 
L 315.681434 285.378603 
L 316.157746 269.992198 
L 316.634059 243.591479 
L 317.110371 264.022608 
L 317.586684 276.970731 
L 318.062996 321.952847 
L 318.539309 332.000254 
L 319.015621 319.724761 
L 319.491933 321.238178 
L 319.968246 274.658567 
L 320.444558 247.162457 
L 320.920871 306.061969 
L 321.397183 247.795415 
L 321.873496 304.254276 
L 322.349808 297.948372 
L 322.82612 301.605797 
L 323.302433 315.478785 
L 324.255058 191.126358 
L 324.73137 306.188087 
L 325.207682 330.94927 
L 325.683995 302.740859 
L 326.160307 308.962685 
L 327.112932 303.203292 
L 327.589245 285.168407 
L 328.065557 259.566436 
L 328.541869 328.97342 
L 329.018182 286.219391 
L 329.494494 285.504722 
L 329.970807 224.253374 
L 330.447119 276.508298 
L 330.923431 278.694345 
L 331.399744 271.968048 
L 331.876056 277.811519 
L 332.352369 258.851767 
L 332.828681 309.214921 
L 333.304994 277.495488 
L 333.781306 286.26143 
L 334.257618 196.717593 
L 334.733931 168.551221 
L 335.686556 298.242648 
L 336.639181 254.773949 
L 337.115493 295.594168 
L 337.591805 237.495772 
L 338.068118 262.130837 
L 338.54443 211.010975 
L 339.020743 289.58254 
L 339.497055 231.231907 
L 339.973367 212.566432 
L 340.44968 251.895167 
L 340.925992 314.764116 
L 341.402305 268.899174 
L 341.878617 311.947479 
L 342.35493 301.942111 
L 342.831242 275.415275 
L 343.307554 222.007746 
L 344.260179 267.680033 
L 344.736492 269.86608 
L 345.212804 265.788262 
L 345.689117 328.090594 
L 346.165429 277.138889 
L 346.641741 169.518127 
L 347.118054 221.310618 
L 347.594366 229.886648 
L 348.070679 284.705974 
L 348.546991 281.6371 
L 349.023303 303.749804 
L 349.499616 290.88576 
L 349.975928 292.567334 
L 350.452241 296.884159 
L 350.928553 247.080746 
L 351.404866 287.396493 
L 351.881178 180.388142 
L 352.35749 156.585074 
L 352.833803 259.272161 
L 353.310115 288.363398 
L 353.786428 261.752483 
L 354.26274 310.56018 
L 354.739052 287.816886 
L 355.215365 255.609151 
L 355.691677 244.011873 
L 356.16799 193.648719 
L 357.120615 284.327619 
L 357.596927 286.051233 
L 358.549552 214.962675 
L 359.025864 220.007398 
L 359.502177 273.77574 
L 359.978489 233.754269 
L 360.454802 222.319563 
L 360.931114 250.612053 
L 361.407426 239.892016 
L 361.883739 235.604001 
L 362.360051 242.372338 
L 362.836364 243.717597 
L 363.312676 250.906328 
L 363.788988 201.636198 
L 364.265301 277.307046 
L 364.741613 277.769479 
L 365.694238 166.197017 
L 366.170551 285.63084 
L 366.646863 203.612048 
L 367.123175 223.917059 
L 367.599488 217.90543 
L 368.0758 235.20448 
L 368.552113 265.451947 
L 369.028425 257.968941 
L 369.504738 268.52082 
L 369.98105 248.13173 
L 370.457362 203.233694 
L 370.933675 276.760535 
L 371.409987 180.784675 
L 371.8863 211.935841 
L 372.362612 214.584321 
L 372.838924 279.913487 
L 373.315237 258.305255 
L 373.791549 264.400963 
L 374.267862 242.374127 
L 374.744174 325.882498 
L 375.220487 284.916171 
L 375.696799 281.940489 
L 376.173111 240.312409 
L 376.649424 211.557487 
L 377.125736 201.804355 
L 377.602049 189.110941 
L 378.554673 259.188082 
L 379.030986 257.800783 
L 379.507298 259.969485 
L 379.983611 249.266793 
L 380.459923 315.436746 
L 380.936236 283.930156 
L 381.412548 289.498461 
L 381.88886 267.427797 
L 382.365173 220.385753 
L 382.841485 150.978769 
L 383.79411 194.111152 
L 384.270423 198.735482 
L 385.223047 228.120995 
L 385.69936 235.814198 
L 386.175672 236.9913 
L 386.651985 253.512768 
L 387.128297 240.858921 
L 387.604609 202.266788 
L 388.557234 369.36 
L 389.033547 267.231613 
L 389.509859 276.129944 
L 389.986172 260.182749 
L 390.462484 248.972517 
L 390.938796 204.146548 
L 391.415109 243.885755 
L 391.891421 263.2659 
L 392.367734 218.872336 
L 392.844046 215.214911 
L 393.320359 249.326263 
L 393.796671 204.074481 
L 394.272983 192.765893 
L 394.749296 198.777521 
L 395.225608 229.592372 
L 395.701921 238.336559 
L 396.654545 168.130828 
L 397.130858 167.090133 
L 397.60717 195.834766 
L 398.083483 243.798148 
L 398.559795 312.57807 
L 399.036108 262.845506 
L 399.51242 290.044972 
L 399.988732 272.220284 
L 400.465045 231.315986 
L 401.41767 304.296316 
L 401.893982 204.245111 
L 402.370294 180.540847 
L 402.846607 289.118056 
L 403.322919 265.642153 
L 403.799232 295.762325 
L 404.275544 315.499284 
L 404.751857 273.10311 
L 405.228169 289.5405 
L 405.704481 280.204822 
L 406.180794 267.84819 
L 406.657106 214.332085 
L 407.133419 216.277666 
L 407.609731 160.7319 
L 408.086044 152.019463 
L 408.562356 154.636193 
L 409.514981 254.647831 
L 410.467606 220.806146 
L 410.943918 245.441211 
L 411.42023 248.511368 
L 411.896543 259.007913 
L 412.372855 283.125823 
L 412.849168 298.11653 
L 413.801793 280.224578 
L 414.278105 246.585176 
L 414.754417 258.095059 
L 415.23073 293.534239 
L 415.707042 269.277529 
L 416.183355 254.521713 
L 416.659667 230.012766 
L 417.13598 254.185398 
L 417.612292 261.205971 
L 418.088604 279.182504 
L 418.564917 313.923329 
L 419.041229 299.568798 
L 419.517542 273.177488 
L 419.993854 294.995528 
L 420.470166 306.457139 
L 420.946479 313.460896 
L 421.422791 274.484135 
L 421.899104 267.492839 
L 422.375416 309.761432 
L 422.851729 262.803467 
L 423.328041 193.648719 
L 423.804353 157.480464 
L 424.280666 144.672865 
L 424.756978 156.864279 
L 425.233291 151.609359 
L 425.709603 166.323135 
L 426.185915 170.569111 
L 426.662228 206.344606 
L 427.13854 146.102203 
L 427.614853 136.43315 
L 428.091165 145.849967 
L 428.567478 223.286468 
L 429.04379 218.115627 
L 429.520102 208.278417 
L 429.996415 212.314195 
L 430.472727 133.574474 
L 430.94904 129.959089 
L 431.425352 135.214009 
L 431.901665 174.352653 
L 432.854289 196.297199 
L 433.806914 234.763214 
L 434.283227 309.172881 
L 434.759539 304.128158 
L 435.235851 275.289157 
L 435.712164 166.112938 
L 436.664789 218.662139 
L 437.141101 205.167504 
L 437.617414 182.634407 
L 438.093726 235.561962 
L 438.570038 254.017241 
L 439.046351 239.765898 
L 439.522663 265.409907 
L 439.998976 269.739961 
L 440.475288 305.179142 
L 441.427913 240.312409 
L 441.904225 221.268579 
L 442.380538 215.887541 
L 442.85685 253.470729 
L 443.333163 238.126363 
L 443.809475 196.339238 
L 444.285787 236.823142 
L 444.7621 254.900067 
L 445.238412 319.220288 
L 445.714725 311.148731 
L 446.191037 309.298999 
L 446.66735 305.893811 
L 447.619974 261.584326 
L 448.096287 257.548547 
L 448.572599 265.325829 
L 449.048912 226.607578 
L 449.525224 176.076267 
L 450.001536 256.623681 
L 450.477849 253.008296 
L 450.954161 206.260527 
L 451.430474 198.020813 
L 451.906786 201.972513 
L 452.859411 248.468045 
L 453.335723 260.028869 
L 453.812036 256.203287 
L 454.288348 273.355346 
L 454.764661 300.765009 
L 455.240973 315.142471 
L 455.717286 308.920645 
L 456.193598 262.130837 
L 456.66991 263.223861 
L 457.622535 245.777526 
L 458.098848 223.790941 
L 458.57516 252.461784 
L 459.051472 248.80436 
L 459.527785 293.996672 
L 460.004097 303.749804 
L 460.48041 305.515457 
L 460.956722 313.83925 
L 461.433035 254.437634 
L 461.909347 276.718495 
L 462.385659 328.553026 
L 462.861972 333.55571 
L 463.338284 313.040503 
L 464.290909 250.023502 
L 464.767222 240.858921 
L 465.243534 254.311516 
L 465.719846 301.731915 
L 466.196159 285.126367 
L 466.672471 318.169304 
L 467.148784 312.57807 
L 467.625096 295.426011 
L 468.101408 313.587014 
L 468.577721 315.8151 
L 469.530346 241.615629 
L 470.006658 305.809733 
L 470.482971 288.111162 
L 470.959283 305.809733 
L 471.435595 280.670195 
L 471.911908 316.151415 
L 472.38822 303.203292 
L 472.864533 269.908119 
L 473.340845 283.066439 
L 473.817157 293.071806 
L 474.29347 292.357137 
L 474.769782 330.612955 
L 475.246095 227.196129 
L 475.722407 187.595052 
L 476.675032 287.690768 
L 477.151344 280.249802 
L 477.627657 269.833154 
L 478.103969 194.741743 
L 478.580282 325.147838 
L 479.056594 222.739957 
L 480.009219 314.722077 
L 480.485531 312.493991 
L 480.961844 300.554813 
L 481.438156 326.535137 
L 482.390781 339.861614 
L 482.867093 333.849986 
L 483.343406 302.572702 
L 483.819718 321.490414 
L 484.296031 305.767693 
L 484.772343 334.438537 
L 485.248656 308.794527 
L 485.724968 334.186301 
L 486.20128 294.452203 
L 486.677593 321.74265 
L 487.153905 317.538714 
L 487.630218 315.463297 
L 488.10653 341.328447 
L 488.582843 335.53156 
L 489.059155 341.332992 
L 489.535467 333.892025 
L 490.01178 302.782899 
L 490.488092 350.371454 
L 490.964405 329.393814 
L 491.440717 322.321727 
L 491.917029 306.314205 
L 492.393342 301.479678 
L 492.869654 317.16036 
L 493.345967 266.358796 
L 493.822279 291.474311 
L 494.298592 335.993993 
L 494.774904 254.088525 
L 495.251216 248.510085 
L 495.727529 279.156778 
L 496.203841 254.521713 
L 496.680154 275.709551 
L 497.156466 307.911701 
L 497.632778 277.265007 
L 498.109091 279.391385 
L 498.109091 279.391385 
" clip-path="url(#pfadfcbcc44)" style="fill: none; stroke: #1f77b4; stroke-width: 1.5; stroke-linecap: round"/>
   </g>
   <g id="line2d_15">
    <path d="M 92.290909 247.214484 
L 92.767222 254.835751 
L 93.719846 245.237708 
L 94.196159 247.446648 
L 95.148784 278.60997 
L 95.625096 280.820319 
L 96.101408 284.408722 
L 96.577721 290.625775 
L 97.530346 307.013555 
L 98.482971 315.399333 
L 98.959283 312.303416 
L 99.435595 308.120308 
L 99.911908 312.043331 
L 100.38822 312.116822 
L 101.340845 306.122549 
L 101.817157 303.438194 
L 102.29347 298.560598 
L 102.769782 296.20228 
L 103.246095 296.563169 
L 104.19872 293.771883 
L 104.675032 290.997235 
L 105.151344 294.480385 
L 105.627657 295.082375 
L 106.103969 293.735891 
L 106.580282 300.471457 
L 107.056594 300.558748 
L 107.532907 286.827039 
L 108.009219 289.712729 
L 108.485531 284.878564 
L 108.961844 285.091161 
L 109.914469 277.501167 
L 110.867093 290.362407 
L 111.343406 281.118826 
L 111.819718 278.903003 
L 112.296031 289.795496 
L 112.772343 292.284753 
L 113.248656 291.27848 
L 113.724968 303.079219 
L 114.20128 294.909011 
L 114.677593 295.526907 
L 115.153905 293.641586 
L 115.630218 287.875649 
L 116.10653 287.38811 
L 116.582843 294.888755 
L 117.059155 313.096842 
L 117.535467 307.831725 
L 118.01178 305.493704 
L 118.488092 312.817203 
L 118.964405 299.282447 
L 119.440717 293.256512 
L 119.917029 289.37333 
L 120.393342 290.496318 
L 120.869654 300.051803 
L 121.345967 302.943345 
L 121.822279 295.375657 
L 122.298592 289.987087 
L 122.774904 287.842577 
L 123.251216 286.977472 
L 123.727529 286.934407 
L 124.203841 288.000993 
L 125.156466 286.578526 
L 125.632778 282.094842 
L 126.109091 281.249145 
L 126.585403 278.860878 
L 127.061716 283.221602 
L 127.538028 288.847507 
L 128.014341 285.326658 
L 128.490653 296.599329 
L 128.966965 303.068002 
L 129.443278 291.126586 
L 129.91959 288.846769 
L 130.395903 297.242384 
L 130.872215 294.475235 
L 131.348528 293.428923 
L 131.82484 292.045969 
L 132.301152 292.832283 
L 132.777465 295.697192 
L 133.253777 297.32595 
L 134.206402 311.434753 
L 135.159027 302.593929 
L 136.111652 316.899927 
L 136.587964 320.459566 
L 137.540589 302.890018 
L 138.016901 300.58134 
L 138.493214 302.364212 
L 138.969526 302.080159 
L 139.445839 299.437837 
L 139.922151 290.963314 
L 140.398464 293.326868 
L 141.351088 291.890988 
L 141.827401 294.550989 
L 142.303713 287.399712 
L 142.780026 282.436692 
L 143.256338 283.85599 
L 143.73265 283.324508 
L 144.208963 288.561137 
L 144.685275 290.097625 
L 145.161588 278.560976 
L 145.6379 274.843857 
L 146.114213 280.052544 
L 146.590525 277.294338 
L 147.066837 275.206616 
L 147.54315 274.732075 
L 148.019462 280.187605 
L 148.495775 288.02559 
L 148.972087 283.215819 
L 149.448399 275.381214 
L 149.924712 287.264295 
L 150.401024 289.617585 
L 150.877337 288.495317 
L 151.353649 284.684105 
L 151.829962 284.531593 
L 152.306274 286.679217 
L 152.782586 290.217539 
L 153.258899 284.343021 
L 153.735211 271.719142 
L 154.211524 265.019711 
L 155.164149 270.894252 
L 155.640461 270.471884 
L 156.116773 266.74928 
L 156.593086 267.665184 
L 157.069398 268.282536 
L 157.545711 275.959638 
L 158.498335 268.2914 
L 158.974648 272.494436 
L 159.45096 285.378222 
L 160.403585 292.458441 
L 160.879898 275.047459 
L 161.35621 265.501663 
L 161.832522 266.631908 
L 162.308835 271.429518 
L 162.785147 272.936963 
L 163.26146 272.693239 
L 163.737772 269.670746 
L 164.214085 267.607919 
L 164.690397 273.955957 
L 165.166709 273.007798 
L 165.643022 267.311694 
L 166.119334 274.481414 
L 166.595647 283.940752 
L 167.071959 284.885402 
L 167.548271 293.357417 
L 168.024584 288.381424 
L 168.500896 278.419458 
L 168.977209 273.560182 
L 169.453521 273.869442 
L 169.929834 285.891628 
L 170.406146 284.625148 
L 170.882458 280.774167 
L 171.835083 265.751191 
L 172.311396 264.159543 
L 172.787708 269.603276 
L 173.26402 263.823311 
L 173.740333 260.373036 
L 174.216645 264.542836 
L 174.692958 265.520084 
L 175.16927 261.172463 
L 175.645583 258.363291 
L 176.121895 249.488485 
L 176.598207 251.557398 
L 177.07452 250.609604 
L 177.550832 247.545366 
L 178.027145 247.192845 
L 178.503457 242.715215 
L 178.97977 243.608011 
L 179.932394 230.374703 
L 180.408707 235.280634 
L 180.885019 233.476936 
L 181.361332 234.995503 
L 181.837644 234.296091 
L 182.313956 231.872251 
L 182.790269 236.026976 
L 183.266581 241.798575 
L 183.742894 240.732019 
L 184.219206 235.656468 
L 184.695519 233.641319 
L 185.171831 233.547061 
L 185.648143 234.339539 
L 186.124456 249.082444 
L 186.600768 249.507919 
L 187.077081 245.35296 
L 187.553393 247.393711 
L 188.029706 250.493883 
L 188.506018 248.197028 
L 188.98233 252.051057 
L 189.458643 248.331373 
L 189.934955 243.681899 
L 190.411268 241.514833 
L 190.88758 244.672175 
L 191.363892 250.388109 
L 191.840205 247.720346 
L 192.316517 240.642045 
L 192.79283 238.424692 
L 193.269142 237.625445 
L 193.745455 242.083288 
L 194.221767 243.452902 
L 194.698079 236.833712 
L 195.174392 234.453999 
L 195.650704 235.023226 
L 196.127017 235.79622 
L 196.603329 236.307767 
L 197.555954 240.587031 
L 198.032266 241.153966 
L 198.508579 234.058848 
L 198.984891 229.68488 
L 199.461204 233.227057 
L 199.937516 233.054284 
L 200.413828 234.882298 
L 200.890141 240.516166 
L 201.366453 237.240959 
L 201.842766 236.975764 
L 202.319078 237.308796 
L 202.795391 235.930329 
L 203.271703 231.096346 
L 203.748015 231.153872 
L 204.224328 231.00652 
L 204.70064 231.074561 
L 205.176953 231.92169 
L 206.129577 233.087299 
L 206.60589 233.074915 
L 207.082202 230.248246 
L 207.558515 230.654552 
L 208.987452 225.943034 
L 209.463764 223.82019 
L 209.940077 225.098214 
L 210.416389 224.091251 
L 210.892702 225.727462 
L 211.369014 232.938958 
L 211.845327 233.884139 
L 212.797951 223.91528 
L 213.274264 231.073748 
L 213.750576 228.37192 
L 214.226889 226.770764 
L 214.703201 230.042052 
L 215.179513 231.564293 
L 215.655826 231.434565 
L 216.132138 232.918838 
L 217.084763 228.042398 
L 217.561076 231.382264 
L 218.037388 235.683218 
L 218.5137 234.688689 
L 218.990013 235.624102 
L 219.466325 235.409394 
L 219.942638 234.951272 
L 220.41895 234.057153 
L 221.371575 228.591121 
L 221.847887 228.533819 
L 222.3242 231.119482 
L 222.800512 229.620423 
L 223.276825 228.511354 
L 223.753137 230.957725 
L 224.229449 230.230613 
L 224.705762 231.704005 
L 225.182074 232.334486 
L 225.658387 231.763195 
L 226.134699 230.81143 
L 226.611012 228.524506 
L 227.087324 228.671143 
L 227.563636 228.41564 
L 228.039949 226.666038 
L 228.516261 227.53525 
L 228.992574 228.81266 
L 229.468886 229.640339 
L 229.945198 229.216361 
L 230.421511 229.518713 
L 230.897823 231.011414 
L 231.374136 230.269387 
L 231.850448 228.362098 
L 232.326761 224.357277 
L 232.803073 226.467025 
L 233.755698 229.084164 
L 234.23201 230.233036 
L 234.708323 230.951692 
L 235.184635 232.968044 
L 235.660948 234.050404 
L 236.13726 232.754941 
L 236.613572 232.309415 
L 237.089885 232.044734 
L 237.566197 233.254401 
L 238.518822 236.499959 
L 238.995134 236.992176 
L 239.947759 240.16547 
L 240.424072 238.935544 
L 240.900384 238.605213 
L 241.376697 240.361825 
L 242.329321 234.617775 
L 242.805634 234.081728 
L 243.281946 235.124588 
L 244.234571 238.58608 
L 244.710883 239.888824 
L 245.187196 240.681529 
L 245.663508 239.983375 
L 246.139821 239.000659 
L 246.616133 244.400484 
L 247.092446 267.103672 
L 247.568758 284.233582 
L 248.04507 268.676668 
L 248.521383 257.018594 
L 249.95032 262.400776 
L 250.426633 258.883142 
L 250.902945 248.81197 
L 251.85557 254.914256 
L 252.331882 251.073106 
L 253.284507 254.065022 
L 253.760819 256.480348 
L 254.237132 261.2221 
L 254.713444 257.551465 
L 255.189757 252.453543 
L 257.095006 248.887224 
L 257.571319 251.308551 
L 258.047631 255.305696 
L 259.000256 243.139173 
L 259.952881 230.322391 
L 260.429193 231.347375 
L 261.858131 247.498818 
L 262.334443 249.536535 
L 262.810755 249.422635 
L 263.287068 249.708242 
L 263.76338 250.995196 
L 264.239693 250.734214 
L 264.716005 251.243226 
L 265.192318 265.190715 
L 266.144942 260.230648 
L 266.621255 261.842945 
L 267.097567 264.210812 
L 267.57388 261.739775 
L 268.050192 262.89341 
L 268.526504 260.940077 
L 269.002817 258.388268 
L 269.479129 259.153258 
L 269.955442 261.932049 
L 270.431754 262.671858 
L 270.908067 267.313582 
L 271.384379 266.621459 
L 271.860691 278.541698 
L 272.337004 277.435991 
L 272.813316 272.918146 
L 273.289629 273.742356 
L 273.765941 272.084745 
L 274.242254 274.222242 
L 274.718566 272.911591 
L 275.194878 274.79791 
L 275.671191 278.92469 
L 276.147503 288.625414 
L 276.623816 293.413478 
L 277.100128 290.18609 
L 277.57644 283.242936 
L 278.052753 293.112387 
L 278.529065 295.563715 
L 279.48169 291.64231 
L 279.958003 292.10384 
L 280.434315 287.442538 
L 280.910627 290.832551 
L 281.38694 287.893991 
L 281.863252 286.666324 
L 282.339565 290.005461 
L 282.815877 290.553719 
L 283.29219 297.013067 
L 283.768502 292.099779 
L 284.244814 283.645024 
L 284.721127 282.479825 
L 285.197439 278.576087 
L 285.673752 278.313873 
L 286.150064 285.508514 
L 286.626376 284.903892 
L 287.102689 285.619561 
L 287.579001 284.215703 
L 288.055314 282.097357 
L 288.531626 281.283816 
L 289.484251 276.215269 
L 289.960563 278.126099 
L 290.436876 278.840622 
L 290.913188 278.041839 
L 291.389501 288.414278 
L 291.865813 285.806706 
L 293.29475 290.883068 
L 293.771063 294.842897 
L 294.247375 288.944202 
L 294.723688 284.431884 
L 295.676312 281.017567 
L 296.152625 284.717188 
L 296.628937 294.319283 
L 297.10525 292.664835 
L 297.581562 290.313648 
L 298.057875 293.051655 
L 298.534187 291.674416 
L 299.010499 289.818521 
L 299.486812 298.095509 
L 299.963124 287.135489 
L 300.439437 288.01916 
L 300.915749 288.1816 
L 301.392061 299.964328 
L 301.868374 307.861426 
L 302.820999 291.294862 
L 303.297311 291.594579 
L 303.773624 291.262747 
L 304.249936 291.36414 
L 304.726248 286.730071 
L 305.202561 283.383693 
L 305.678873 286.057092 
L 306.155186 291.096183 
L 306.631498 287.435404 
L 307.10781 288.357946 
L 307.584123 291.867297 
L 308.060435 290.579188 
L 308.536748 293.551718 
L 309.01306 292.409699 
L 309.489373 293.829265 
L 309.965685 291.673725 
L 310.441997 298.528815 
L 310.91831 301.933359 
L 311.870935 311.453571 
L 312.347247 305.404253 
L 312.82356 295.289162 
L 313.299872 303.963393 
L 313.776184 297.70314 
L 314.252497 288.55966 
L 314.728809 284.817809 
L 315.205122 286.199154 
L 315.681434 292.531789 
L 316.157746 296.646992 
L 316.634059 289.382363 
L 317.586684 286.481693 
L 318.062996 286.693282 
L 318.539309 287.564318 
L 319.015621 282.403993 
L 319.491933 281.246238 
L 319.968246 281.401 
L 320.444558 276.953368 
L 320.920871 273.884723 
L 321.397183 283.37475 
L 321.873496 287.522017 
L 322.349808 281.848707 
L 322.82612 285.611797 
L 323.302433 279.974026 
L 323.778745 275.726425 
L 324.255058 274.219282 
L 324.73137 274.349756 
L 325.683995 304.607985 
L 326.160307 303.468894 
L 326.63662 288.29997 
L 327.112932 286.393706 
L 327.589245 289.064222 
L 328.065557 287.864326 
L 328.541869 285.300072 
L 329.018182 278.010304 
L 329.494494 275.871569 
L 329.970807 278.148889 
L 330.447119 275.514196 
L 330.923431 269.786088 
L 331.399744 268.41868 
L 331.876056 272.275021 
L 332.352369 271.308889 
L 333.304994 266.223012 
L 333.781306 260.099545 
L 334.257618 259.724192 
L 334.733931 262.640101 
L 335.210243 259.951852 
L 335.686556 262.1889 
L 336.162868 267.461149 
L 336.639181 270.041764 
L 337.591805 260.839097 
L 338.068118 249.850012 
L 338.54443 243.332438 
L 339.020743 247.735213 
L 339.497055 267.36646 
L 339.973367 278.823986 
L 340.44968 279.152602 
L 340.925992 268.833689 
L 341.402305 268.348482 
L 341.878617 269.718347 
L 342.35493 267.798675 
L 342.831242 264.989542 
L 343.307554 258.107678 
L 343.783867 275.222704 
L 344.260179 276.9663 
L 344.736492 266.364922 
L 345.212804 268.04235 
L 345.689117 266.779873 
L 346.165429 264.292942 
L 346.641741 274.778765 
L 347.118054 275.930094 
L 347.594366 269.012951 
L 348.070679 264.405622 
L 348.546991 264.257158 
L 349.023303 261.72744 
L 349.499616 265.142621 
L 349.975928 264.563336 
L 350.452241 261.894788 
L 350.928553 257.613357 
L 351.404866 259.03159 
L 351.881178 256.109383 
L 352.35749 256.392351 
L 352.833803 250.496804 
L 353.310115 246.867169 
L 353.786428 249.288091 
L 354.26274 257.638158 
L 354.739052 253.67908 
L 355.215365 250.938377 
L 356.644302 233.93349 
L 357.596927 243.915402 
L 358.073239 246.297529 
L 358.549552 239.129482 
L 359.025864 235.896123 
L 359.502177 231.429589 
L 359.978489 229.546126 
L 360.454802 231.294584 
L 360.931114 232.295742 
L 361.407426 234.728048 
L 361.883739 229.720433 
L 362.360051 228.595306 
L 362.836364 233.972114 
L 363.312676 230.268322 
L 363.788988 229.643573 
L 364.265301 228.00702 
L 365.217926 223.886624 
L 365.694238 223.15319 
L 366.170551 225.591342 
L 366.646863 226.873618 
L 367.123175 225.013095 
L 367.599488 224.025975 
L 368.552113 225.97809 
L 369.028425 227.732051 
L 369.504738 229.038405 
L 369.98105 227.671813 
L 370.457362 227.363916 
L 370.933675 226.689951 
L 371.409987 226.696573 
L 371.8863 227.317415 
L 372.362612 226.483395 
L 372.838924 225.31158 
L 373.315237 223.769708 
L 373.791549 221.178191 
L 374.267862 223.995973 
L 374.744174 226.062649 
L 375.220487 226.543409 
L 375.696799 226.383375 
L 376.173111 225.085925 
L 376.649424 225.419153 
L 377.125736 227.034453 
L 377.602049 226.791951 
L 378.078361 227.189224 
L 378.554673 226.339257 
L 379.030986 251.318455 
L 379.507298 245.959637 
L 379.983611 236.890567 
L 380.459923 233.360384 
L 380.936236 234.24172 
L 381.412548 232.56966 
L 381.88886 233.364868 
L 382.365173 232.037521 
L 382.841485 233.392656 
L 383.317798 233.562263 
L 383.79411 234.391871 
L 384.270423 230.714258 
L 384.746735 233.084729 
L 385.223047 232.689696 
L 385.69936 236.283644 
L 386.175672 233.284621 
L 386.651985 232.244149 
L 387.128297 237.412905 
L 387.604609 233.421961 
L 388.080922 232.884403 
L 388.557234 235.711145 
L 389.033547 234.233816 
L 389.509859 242.539775 
L 390.938796 234.179319 
L 391.415109 233.090635 
L 391.891421 244.376519 
L 392.367734 240.257356 
L 392.844046 240.640071 
L 393.320359 243.282709 
L 393.796671 243.878858 
L 394.272983 244.759197 
L 394.749296 244.708458 
L 395.225608 243.291157 
L 395.701921 241.10797 
L 396.178233 241.531589 
L 397.130858 236.450786 
L 397.60717 240.984458 
L 398.083483 236.815272 
L 398.559795 238.729845 
L 399.036108 239.272138 
L 399.51242 235.295882 
L 399.988732 240.39713 
L 400.465045 250.11278 
L 400.941357 263.464627 
L 401.41767 270.9968 
L 401.893982 262.140201 
L 402.370294 260.206984 
L 402.846607 264.107648 
L 404.751857 246.750072 
L 405.228169 245.376659 
L 405.704481 257.546002 
L 406.657106 245.720893 
L 407.133419 247.347413 
L 407.609731 250.116388 
L 408.086044 250.31049 
L 408.562356 248.104476 
L 409.038668 241.352257 
L 409.514981 241.626711 
L 409.991293 240.393133 
L 410.467606 240.084483 
L 410.943918 242.998157 
L 411.42023 248.145303 
L 411.896543 247.914792 
L 412.372855 241.908284 
L 412.849168 230.83697 
L 413.32548 224.500686 
L 413.801793 221.908115 
L 414.278105 224.956474 
L 414.754417 232.147763 
L 415.23073 234.081318 
L 415.707042 235.280673 
L 416.183355 238.695762 
L 416.659667 246.581329 
L 417.13598 269.97237 
L 417.612292 263.096794 
L 418.088604 252.30504 
L 418.564917 267.218 
L 419.041229 289.723948 
L 419.517542 277.975245 
L 420.470166 263.850387 
L 420.946479 286.784017 
L 421.422791 286.165226 
L 422.375416 263.708823 
L 422.851729 264.588936 
L 423.804353 269.389723 
L 424.280666 257.817564 
L 424.756978 256.576456 
L 425.233291 261.91232 
L 425.709603 262.74847 
L 426.662228 247.367983 
L 427.13854 245.378962 
L 427.614853 254.963947 
L 428.091165 251.965069 
L 428.567478 242.24895 
L 429.04379 241.855887 
L 429.996415 234.480882 
L 430.472727 227.703367 
L 430.94904 226.356577 
L 431.425352 231.294267 
L 431.901665 230.733107 
L 432.377977 232.109259 
L 432.854289 232.01874 
L 433.330602 228.044654 
L 433.806914 226.342781 
L 434.759539 229.730191 
L 435.235851 229.358845 
L 435.712164 231.786578 
L 436.188476 232.318838 
L 436.664789 232.283006 
L 437.141101 232.451401 
L 437.617414 230.726585 
L 438.570038 233.349061 
L 439.046351 233.502853 
L 439.522663 232.035313 
L 439.998976 233.585476 
L 440.951601 233.191571 
L 441.427913 231.573892 
L 441.904225 232.823039 
L 442.380538 232.025804 
L 442.85685 231.684036 
L 443.333163 234.710872 
L 443.809475 247.356391 
L 444.285787 253.51078 
L 444.7621 247.37033 
L 445.238412 244.638132 
L 445.714725 244.320872 
L 446.191037 246.989978 
L 446.66735 247.855129 
L 447.143662 247.449649 
L 447.619974 244.270734 
L 448.096287 243.685408 
L 449.048912 239.256728 
L 449.525224 240.041728 
L 450.001536 241.852572 
L 450.477849 242.652702 
L 450.954161 246.127611 
L 451.906786 241.598061 
L 452.383099 241.123885 
L 452.859411 241.832516 
L 453.335723 238.619303 
L 453.812036 239.312395 
L 454.288348 246.393693 
L 454.764661 247.69381 
L 455.717286 243.060631 
L 456.193598 238.314381 
L 456.66991 235.324945 
L 457.146223 244.786856 
L 457.622535 258.789819 
L 458.098848 260.439189 
L 458.57516 273.144643 
L 459.051472 270.702688 
L 459.527785 280.051993 
L 460.004097 277.236584 
L 460.956722 291.802468 
L 461.433035 289.427457 
L 461.909347 283.761767 
L 462.385659 283.989748 
L 462.861972 279.506488 
L 463.338284 281.227126 
L 463.814597 279.7917 
L 464.290909 291.127152 
L 464.767222 285.163822 
L 465.243534 284.079459 
L 465.719846 278.897139 
L 466.196159 279.672286 
L 466.672471 283.107093 
L 467.148784 280.108634 
L 467.625096 278.7849 
L 468.101408 274.736688 
L 468.577721 275.962749 
L 469.054033 276.737483 
L 469.530346 270.847121 
L 470.006658 270.013885 
L 470.482971 270.284129 
L 471.435595 289.757982 
L 471.911908 278.458954 
L 472.38822 272.825391 
L 472.864533 270.338851 
L 473.340845 272.202308 
L 473.817157 269.755097 
L 474.29347 268.534357 
L 475.246095 277.180556 
L 475.722407 278.871083 
L 476.19872 273.85788 
L 476.675032 266.645385 
L 477.151344 268.965469 
L 477.627657 269.461445 
L 478.103969 286.667278 
L 478.580282 297.630061 
L 479.056594 300.214377 
L 480.009219 310.361064 
L 481.438156 321.903356 
L 481.914469 318.056782 
L 482.390781 319.101793 
L 482.867093 313.667868 
L 483.343406 302.619871 
L 483.819718 297.533583 
L 484.296031 296.040248 
L 484.772343 300.24905 
L 485.248656 313.550806 
L 485.724968 312.384387 
L 486.20128 314.565742 
L 486.677593 323.092943 
L 487.153905 323.556776 
L 487.630218 313.527017 
L 488.10653 309.04691 
L 488.582843 307.190059 
L 489.059155 314.966743 
L 489.535467 318.061712 
L 490.01178 306.861886 
L 490.488092 298.629138 
L 490.964405 293.03376 
L 491.440717 290.627893 
L 491.917029 290.156785 
L 492.393342 292.407862 
L 492.869654 290.857973 
L 493.345967 285.978991 
L 494.298592 299.720193 
L 494.774904 296.734999 
L 495.251216 292.615865 
L 495.727529 293.63902 
L 496.203841 291.023302 
L 496.203841 291.023302 
" clip-path="url(#pfadfcbcc44)" style="fill: none; stroke: #ff7f0e; stroke-width: 1.5; stroke-linecap: round"/>
   </g>
   <g id="patch_3">
    <path d="M 72 384.48 
L 72 51.84 
" style="fill: none; stroke: #ffffff; stroke-width: 0.8; stroke-linejoin: miter; stroke-linecap: square"/>
   </g>
   <g id="patch_4">
    <path d="M 518.4 384.48 
L 518.4 51.84 
" style="fill: none; stroke: #ffffff; stroke-width: 0.8; stroke-linejoin: miter; stroke-linecap: square"/>
   </g>
   <g id="patch_5">
    <path d="M 72 384.48 
L 518.4 384.48 
" style="fill: none; stroke: #ffffff; stroke-width: 0.8; stroke-linejoin: miter; stroke-linecap: square"/>
   </g>
   <g id="patch_6">
    <path d="M 72 51.84 
L 518.4 51.84 
" style="fill: none; stroke: #ffffff; stroke-width: 0.8; stroke-linejoin: miter; stroke-linecap: square"/>
   </g>
   <g id="text_16">
    <!-- Average Wind Speed Prediction 29 Days Ahead -->
    <g style="fill: #262626" transform="translate(167.89875 45.84) scale(0.12 -0.12)">
     <defs>
      <path id="ArialMT-41" d="M -9 0 
L 1750 4581 
L 2403 4581 
L 4278 0 
L 3588 0 
L 3053 1388 
L 1138 1388 
L 634 0 
L -9 0 
z
M 1313 1881 
L 2866 1881 
L 2388 3150 
Q 2169 3728 2063 4100 
Q 1975 3659 1816 3225 
L 1313 1881 
z
" transform="scale(0.015625)"/>
      <path id="ArialMT-76" d="M 1344 0 
L 81 3319 
L 675 3319 
L 1388 1331 
Q 1503 1009 1600 663 
Q 1675 925 1809 1294 
L 2547 3319 
L 3125 3319 
L 1869 0 
L 1344 0 
z
" transform="scale(0.015625)"/>
      <path id="ArialMT-65" d="M 2694 1069 
L 3275 997 
Q 3138 488 2766 206 
Q 2394 -75 1816 -75 
Q 1088 -75 661 373 
Q 234 822 234 1631 
Q 234 2469 665 2931 
Q 1097 3394 1784 3394 
Q 2450 3394 2872 2941 
Q 3294 2488 3294 1666 
Q 3294 1616 3291 1516 
L 816 1516 
Q 847 969 1125 678 
Q 1403 388 1819 388 
Q 2128 388 2347 550 
Q 2566 713 2694 1069 
z
M 847 1978 
L 2700 1978 
Q 2663 2397 2488 2606 
Q 2219 2931 1791 2931 
Q 1403 2931 1139 2672 
Q 875 2413 847 1978 
z
" transform="scale(0.015625)"/>
      <path id="ArialMT-72" d="M 416 0 
L 416 3319 
L 922 3319 
L 922 2816 
Q 1116 3169 1280 3281 
Q 1444 3394 1641 3394 
Q 1925 3394 2219 3213 
L 2025 2691 
Q 1819 2813 1613 2813 
Q 1428 2813 1281 2702 
Q 1134 2591 1072 2394 
Q 978 2094 978 1738 
L 978 0 
L 416 0 
z
" transform="scale(0.015625)"/>
      <path id="ArialMT-67" d="M 319 -275 
L 866 -356 
Q 900 -609 1056 -725 
Q 1266 -881 1628 -881 
Q 2019 -881 2231 -725 
Q 2444 -569 2519 -288 
Q 2563 -116 2559 434 
Q 2191 0 1641 0 
Q 956 0 581 494 
Q 206 988 206 1678 
Q 206 2153 378 2554 
Q 550 2956 876 3175 
Q 1203 3394 1644 3394 
Q 2231 3394 2613 2919 
L 2613 3319 
L 3131 3319 
L 3131 450 
Q 3131 -325 2973 -648 
Q 2816 -972 2473 -1159 
Q 2131 -1347 1631 -1347 
Q 1038 -1347 672 -1080 
Q 306 -813 319 -275 
z
M 784 1719 
Q 784 1066 1043 766 
Q 1303 466 1694 466 
Q 2081 466 2343 764 
Q 2606 1063 2606 1700 
Q 2606 2309 2336 2618 
Q 2066 2928 1684 2928 
Q 1309 2928 1046 2623 
Q 784 2319 784 1719 
z
" transform="scale(0.015625)"/>
      <path id="ArialMT-20" transform="scale(0.015625)"/>
      <path id="ArialMT-57" d="M 1294 0 
L 78 4581 
L 700 4581 
L 1397 1578 
Q 1509 1106 1591 641 
Q 1766 1375 1797 1488 
L 2669 4581 
L 3400 4581 
L 4056 2263 
Q 4303 1400 4413 641 
Q 4500 1075 4641 1638 
L 5359 4581 
L 5969 4581 
L 4713 0 
L 4128 0 
L 3163 3491 
Q 3041 3928 3019 4028 
Q 2947 3713 2884 3491 
L 1913 0 
L 1294 0 
z
" transform="scale(0.015625)"/>
      <path id="ArialMT-69" d="M 425 3934 
L 425 4581 
L 988 4581 
L 988 3934 
L 425 3934 
z
M 425 0 
L 425 3319 
L 988 3319 
L 988 0 
L 425 0 
z
" transform="scale(0.015625)"/>
      <path id="ArialMT-6e" d="M 422 0 
L 422 3319 
L 928 3319 
L 928 2847 
Q 1294 3394 1984 3394 
Q 2284 3394 2536 3286 
Q 2788 3178 2913 3003 
Q 3038 2828 3088 2588 
Q 3119 2431 3119 2041 
L 3119 0 
L 2556 0 
L 2556 2019 
Q 2556 2363 2490 2533 
Q 2425 2703 2258 2804 
Q 2091 2906 1866 2906 
Q 1506 2906 1245 2678 
Q 984 2450 984 1813 
L 984 0 
L 422 0 
z
" transform="scale(0.015625)"/>
      <path id="ArialMT-64" d="M 2575 0 
L 2575 419 
Q 2259 -75 1647 -75 
Q 1250 -75 917 144 
Q 584 363 401 755 
Q 219 1147 219 1656 
Q 219 2153 384 2558 
Q 550 2963 881 3178 
Q 1213 3394 1622 3394 
Q 1922 3394 2156 3267 
Q 2391 3141 2538 2938 
L 2538 4581 
L 3097 4581 
L 3097 0 
L 2575 0 
z
M 797 1656 
Q 797 1019 1065 703 
Q 1334 388 1700 388 
Q 2069 388 2326 689 
Q 2584 991 2584 1609 
Q 2584 2291 2321 2609 
Q 2059 2928 1675 2928 
Q 1300 2928 1048 2622 
Q 797 2316 797 1656 
z
" transform="scale(0.015625)"/>
      <path id="ArialMT-53" d="M 288 1472 
L 859 1522 
Q 900 1178 1048 958 
Q 1197 738 1509 602 
Q 1822 466 2213 466 
Q 2559 466 2825 569 
Q 3091 672 3220 851 
Q 3350 1031 3350 1244 
Q 3350 1459 3225 1620 
Q 3100 1781 2813 1891 
Q 2628 1963 1997 2114 
Q 1366 2266 1113 2400 
Q 784 2572 623 2826 
Q 463 3081 463 3397 
Q 463 3744 659 4045 
Q 856 4347 1234 4503 
Q 1613 4659 2075 4659 
Q 2584 4659 2973 4495 
Q 3363 4331 3572 4012 
Q 3781 3694 3797 3291 
L 3216 3247 
Q 3169 3681 2898 3903 
Q 2628 4125 2100 4125 
Q 1550 4125 1298 3923 
Q 1047 3722 1047 3438 
Q 1047 3191 1225 3031 
Q 1400 2872 2139 2705 
Q 2878 2538 3153 2413 
Q 3553 2228 3743 1945 
Q 3934 1663 3934 1294 
Q 3934 928 3725 604 
Q 3516 281 3123 101 
Q 2731 -78 2241 -78 
Q 1619 -78 1198 103 
Q 778 284 539 648 
Q 300 1013 288 1472 
z
" transform="scale(0.015625)"/>
      <path id="ArialMT-70" d="M 422 -1272 
L 422 3319 
L 934 3319 
L 934 2888 
Q 1116 3141 1344 3267 
Q 1572 3394 1897 3394 
Q 2322 3394 2647 3175 
Q 2972 2956 3137 2557 
Q 3303 2159 3303 1684 
Q 3303 1175 3120 767 
Q 2938 359 2589 142 
Q 2241 -75 1856 -75 
Q 1575 -75 1351 44 
Q 1128 163 984 344 
L 984 -1272 
L 422 -1272 
z
M 931 1641 
Q 931 1000 1190 694 
Q 1450 388 1819 388 
Q 2194 388 2461 705 
Q 2728 1022 2728 1688 
Q 2728 2322 2467 2637 
Q 2206 2953 1844 2953 
Q 1484 2953 1207 2617 
Q 931 2281 931 1641 
z
" transform="scale(0.015625)"/>
      <path id="ArialMT-50" d="M 494 0 
L 494 4581 
L 2222 4581 
Q 2678 4581 2919 4538 
Q 3256 4481 3484 4323 
Q 3713 4166 3852 3881 
Q 3991 3597 3991 3256 
Q 3991 2672 3619 2267 
Q 3247 1863 2275 1863 
L 1100 1863 
L 1100 0 
L 494 0 
z
M 1100 2403 
L 2284 2403 
Q 2872 2403 3119 2622 
Q 3366 2841 3366 3238 
Q 3366 3525 3220 3729 
Q 3075 3934 2838 4000 
Q 2684 4041 2272 4041 
L 1100 4041 
L 1100 2403 
z
" transform="scale(0.015625)"/>
      <path id="ArialMT-63" d="M 2588 1216 
L 3141 1144 
Q 3050 572 2676 248 
Q 2303 -75 1759 -75 
Q 1078 -75 664 370 
Q 250 816 250 1647 
Q 250 2184 428 2587 
Q 606 2991 970 3192 
Q 1334 3394 1763 3394 
Q 2303 3394 2647 3120 
Q 2991 2847 3088 2344 
L 2541 2259 
Q 2463 2594 2264 2762 
Q 2066 2931 1784 2931 
Q 1359 2931 1093 2626 
Q 828 2322 828 1663 
Q 828 994 1084 691 
Q 1341 388 1753 388 
Q 2084 388 2306 591 
Q 2528 794 2588 1216 
z
" transform="scale(0.015625)"/>
      <path id="ArialMT-74" d="M 1650 503 
L 1731 6 
Q 1494 -44 1306 -44 
Q 1000 -44 831 53 
Q 663 150 594 308 
Q 525 466 525 972 
L 525 2881 
L 113 2881 
L 113 3319 
L 525 3319 
L 525 4141 
L 1084 4478 
L 1084 3319 
L 1650 3319 
L 1650 2881 
L 1084 2881 
L 1084 941 
Q 1084 700 1114 631 
Q 1144 563 1211 522 
Q 1278 481 1403 481 
Q 1497 481 1650 503 
z
" transform="scale(0.015625)"/>
      <path id="ArialMT-6f" d="M 213 1659 
Q 213 2581 725 3025 
Q 1153 3394 1769 3394 
Q 2453 3394 2887 2945 
Q 3322 2497 3322 1706 
Q 3322 1066 3130 698 
Q 2938 331 2570 128 
Q 2203 -75 1769 -75 
Q 1072 -75 642 372 
Q 213 819 213 1659 
z
M 791 1659 
Q 791 1022 1069 705 
Q 1347 388 1769 388 
Q 2188 388 2466 706 
Q 2744 1025 2744 1678 
Q 2744 2294 2464 2611 
Q 2184 2928 1769 2928 
Q 1347 2928 1069 2612 
Q 791 2297 791 1659 
z
" transform="scale(0.015625)"/>
      <path id="ArialMT-39" d="M 350 1059 
L 891 1109 
Q 959 728 1153 556 
Q 1347 384 1650 384 
Q 1909 384 2104 503 
Q 2300 622 2425 820 
Q 2550 1019 2634 1356 
Q 2719 1694 2719 2044 
Q 2719 2081 2716 2156 
Q 2547 1888 2255 1720 
Q 1963 1553 1622 1553 
Q 1053 1553 659 1965 
Q 266 2378 266 3053 
Q 266 3750 677 4175 
Q 1088 4600 1706 4600 
Q 2153 4600 2523 4359 
Q 2894 4119 3086 3673 
Q 3278 3228 3278 2384 
Q 3278 1506 3087 986 
Q 2897 466 2520 194 
Q 2144 -78 1638 -78 
Q 1100 -78 759 220 
Q 419 519 350 1059 
z
M 2653 3081 
Q 2653 3566 2395 3850 
Q 2138 4134 1775 4134 
Q 1400 4134 1122 3828 
Q 844 3522 844 3034 
Q 844 2597 1108 2323 
Q 1372 2050 1759 2050 
Q 2150 2050 2401 2323 
Q 2653 2597 2653 3081 
z
" transform="scale(0.015625)"/>
      <path id="ArialMT-68" d="M 422 0 
L 422 4581 
L 984 4581 
L 984 2938 
Q 1378 3394 1978 3394 
Q 2347 3394 2619 3248 
Q 2891 3103 3008 2847 
Q 3125 2591 3125 2103 
L 3125 0 
L 2563 0 
L 2563 2103 
Q 2563 2525 2380 2717 
Q 2197 2909 1863 2909 
Q 1613 2909 1392 2779 
Q 1172 2650 1078 2428 
Q 984 2206 984 1816 
L 984 0 
L 422 0 
z
" transform="scale(0.015625)"/>
     </defs>
     <use xlink:href="#ArialMT-41"/>
     <use xlink:href="#ArialMT-76" x="64.949219"/>
     <use xlink:href="#ArialMT-65" x="114.949219"/>
     <use xlink:href="#ArialMT-72" x="170.564453"/>
     <use xlink:href="#ArialMT-61" x="203.865234"/>
     <use xlink:href="#ArialMT-67" x="259.480469"/>
     <use xlink:href="#ArialMT-65" x="315.095703"/>
     <use xlink:href="#ArialMT-20" x="370.710938"/>
     <use xlink:href="#ArialMT-57" x="398.494141"/>
     <use xlink:href="#ArialMT-69" x="492.878906"/>
     <use xlink:href="#ArialMT-6e" x="515.095703"/>
     <use xlink:href="#ArialMT-64" x="570.710938"/>
     <use xlink:href="#ArialMT-20" x="626.326172"/>
     <use xlink:href="#ArialMT-53" x="654.109375"/>
     <use xlink:href="#ArialMT-70" x="720.808594"/>
     <use xlink:href="#ArialMT-65" x="776.423828"/>
     <use xlink:href="#ArialMT-65" x="832.039062"/>
     <use xlink:href="#ArialMT-64" x="887.654297"/>
     <use xlink:href="#ArialMT-20" x="943.269531"/>
     <use xlink:href="#ArialMT-50" x="971.052734"/>
     <use xlink:href="#ArialMT-72" x="1037.751953"/>
     <use xlink:href="#ArialMT-65" x="1071.052734"/>
     <use xlink:href="#ArialMT-64" x="1126.667969"/>
     <use xlink:href="#ArialMT-69" x="1182.283203"/>
     <use xlink:href="#ArialMT-63" x="1204.5"/>
     <use xlink:href="#ArialMT-74" x="1254.5"/>
     <use xlink:href="#ArialMT-69" x="1282.283203"/>
     <use xlink:href="#ArialMT-6f" x="1304.5"/>
     <use xlink:href="#ArialMT-6e" x="1360.115234"/>
     <use xlink:href="#ArialMT-20" x="1415.730469"/>
     <use xlink:href="#ArialMT-32" x="1443.513672"/>
     <use xlink:href="#ArialMT-39" x="1499.128906"/>
     <use xlink:href="#ArialMT-20" x="1554.744141"/>
     <use xlink:href="#ArialMT-44" x="1582.527344"/>
     <use xlink:href="#ArialMT-61" x="1654.744141"/>
     <use xlink:href="#ArialMT-79" x="1710.359375"/>
     <use xlink:href="#ArialMT-73" x="1760.359375"/>
     <use xlink:href="#ArialMT-20" x="1810.359375"/>
     <use xlink:href="#ArialMT-41" x="1832.642578"/>
     <use xlink:href="#ArialMT-68" x="1899.341797"/>
     <use xlink:href="#ArialMT-65" x="1954.957031"/>
     <use xlink:href="#ArialMT-61" x="2010.572266"/>
     <use xlink:href="#ArialMT-64" x="2066.1875"/>
    </g>
   </g>
   <g id="legend_1">
    <g id="patch_7">
     <path d="M 437.15625 88.130625 
L 511.4 88.130625 
Q 513.4 88.130625 513.4 86.130625 
L 513.4 58.84 
Q 513.4 56.84 511.4 56.84 
L 437.15625 56.84 
Q 435.15625 56.84 435.15625 58.84 
L 435.15625 86.130625 
Q 435.15625 88.130625 437.15625 88.130625 
z
" style="fill: #eaeaf2; opacity: 0.8; stroke: #cccccc; stroke-linejoin: miter"/>
    </g>
    <g id="line2d_16">
     <path d="M 439.15625 64.497812 
L 449.15625 64.497812 
L 459.15625 64.497812 
" style="fill: none; stroke: #1f77b4; stroke-width: 1.5; stroke-linecap: round"/>
    </g>
    <g id="text_17">
     <!-- Real -->
     <g style="fill: #262626" transform="translate(467.15625 67.997812) scale(0.1 -0.1)">
      <defs>
       <path id="ArialMT-52" d="M 503 0 
L 503 4581 
L 2534 4581 
Q 3147 4581 3465 4457 
Q 3784 4334 3975 4021 
Q 4166 3709 4166 3331 
Q 4166 2844 3850 2509 
Q 3534 2175 2875 2084 
Q 3116 1969 3241 1856 
Q 3506 1613 3744 1247 
L 4541 0 
L 3778 0 
L 3172 953 
Q 2906 1366 2734 1584 
Q 2563 1803 2427 1890 
Q 2291 1978 2150 2013 
Q 2047 2034 1813 2034 
L 1109 2034 
L 1109 0 
L 503 0 
z
M 1109 2559 
L 2413 2559 
Q 2828 2559 3062 2645 
Q 3297 2731 3419 2920 
Q 3541 3109 3541 3331 
Q 3541 3656 3305 3865 
Q 3069 4075 2559 4075 
L 1109 4075 
L 1109 2559 
z
" transform="scale(0.015625)"/>
       <path id="ArialMT-6c" d="M 409 0 
L 409 4581 
L 972 4581 
L 972 0 
L 409 0 
z
" transform="scale(0.015625)"/>
      </defs>
      <use xlink:href="#ArialMT-52"/>
      <use xlink:href="#ArialMT-65" x="72.216797"/>
      <use xlink:href="#ArialMT-61" x="127.832031"/>
      <use xlink:href="#ArialMT-6c" x="183.447266"/>
     </g>
    </g>
    <g id="line2d_17">
     <path d="M 439.15625 78.643125 
L 449.15625 78.643125 
L 459.15625 78.643125 
" style="fill: none; stroke: #ff7f0e; stroke-width: 1.5; stroke-linecap: round"/>
    </g>
    <g id="text_18">
     <!-- Predicted -->
     <g style="fill: #262626" transform="translate(467.15625 82.143125) scale(0.1 -0.1)">
      <use xlink:href="#ArialMT-50"/>
      <use xlink:href="#ArialMT-72" x="66.699219"/>
      <use xlink:href="#ArialMT-65" x="100"/>
      <use xlink:href="#ArialMT-64" x="155.615234"/>
      <use xlink:href="#ArialMT-69" x="211.230469"/>
      <use xlink:href="#ArialMT-63" x="233.447266"/>
      <use xlink:href="#ArialMT-74" x="283.447266"/>
      <use xlink:href="#ArialMT-65" x="311.230469"/>
      <use xlink:href="#ArialMT-64" x="366.845703"/>
     </g>
    </g>
   </g>
  </g>
 </g>
 <defs>
  <clipPath id="pfadfcbcc44">
   <rect x="72" y="51.84" width="446.4" height="332.64"/>
  </clipPath>
 </defs>
</svg>
