<?xml version="1.0" encoding="utf-8" standalone="no"?>
<!DOCTYPE svg PUBLIC "-//W3C//DTD SVG 1.1//EN"
  "http://www.w3.org/Graphics/SVG/1.1/DTD/svg11.dtd">
<svg xmlns:xlink="http://www.w3.org/1999/xlink" width="576pt" height="432pt" viewBox="0 0 576 432" xmlns="http://www.w3.org/2000/svg" version="1.1">
 <metadata>
  <rdf:RDF xmlns:dc="http://purl.org/dc/elements/1.1/" xmlns:cc="http://creativecommons.org/ns#" xmlns:rdf="http://www.w3.org/1999/02/22-rdf-syntax-ns#">
   <cc:Work>
    <dc:type rdf:resource="http://purl.org/dc/dcmitype/StillImage"/>
    <dc:date>2023-11-17T05:06:49.356754</dc:date>
    <dc:format>image/svg+xml</dc:format>
    <dc:creator>
     <cc:Agent>
      <dc:title>Matplotlib v3.8.0, https://matplotlib.org/</dc:title>
     </cc:Agent>
    </dc:creator>
   </cc:Work>
  </rdf:RDF>
 </metadata>
 <defs>
  <style type="text/css">*{stroke-linejoin: round; stroke-linecap: butt}</style>
 </defs>
 <g id="figure_1">
  <g id="patch_1">
   <path d="M 0 432 
L 576 432 
L 576 0 
L 0 0 
z
" style="fill: #ffffff"/>
  </g>
  <g id="axes_1">
   <g id="patch_2">
    <path d="M 72 384.48 
L 518.4 384.48 
L 518.4 51.84 
L 72 51.84 
z
" style="fill: #eaeaf2"/>
   </g>
   <g id="matplotlib.axis_1">
    <g id="xtick_1">
     <g id="line2d_1">
      <path d="M 92.290909 384.48 
L 92.290909 51.84 
" clip-path="url(#pb9e8aad3ea)" style="fill: none; stroke: #ffffff; stroke-width: 0.8; stroke-linecap: round"/>
     </g>
     <g id="text_1">
      <!-- 0 -->
      <g style="fill: #262626" transform="translate(89.51044 398.637812) scale(0.1 -0.1)">
       <defs>
        <path id="ArialMT-30" d="M 266 2259 
Q 266 3072 433 3567 
Q 600 4063 929 4331 
Q 1259 4600 1759 4600 
Q 2128 4600 2406 4451 
Q 2684 4303 2865 4023 
Q 3047 3744 3150 3342 
Q 3253 2941 3253 2259 
Q 3253 1453 3087 958 
Q 2922 463 2592 192 
Q 2263 -78 1759 -78 
Q 1097 -78 719 397 
Q 266 969 266 2259 
z
M 844 2259 
Q 844 1131 1108 757 
Q 1372 384 1759 384 
Q 2147 384 2411 759 
Q 2675 1134 2675 2259 
Q 2675 3391 2411 3762 
Q 2147 4134 1753 4134 
Q 1366 4134 1134 3806 
Q 844 3388 844 2259 
z
" transform="scale(0.015625)"/>
       </defs>
       <use xlink:href="#ArialMT-30"/>
      </g>
     </g>
    </g>
    <g id="xtick_2">
     <g id="line2d_2">
      <path d="M 187.553393 384.48 
L 187.553393 51.84 
" clip-path="url(#pb9e8aad3ea)" style="fill: none; stroke: #ffffff; stroke-width: 0.8; stroke-linecap: round"/>
     </g>
     <g id="text_2">
      <!-- 200 -->
      <g style="fill: #262626" transform="translate(179.211987 398.637812) scale(0.1 -0.1)">
       <defs>
        <path id="ArialMT-32" d="M 3222 541 
L 3222 0 
L 194 0 
Q 188 203 259 391 
Q 375 700 629 1000 
Q 884 1300 1366 1694 
Q 2113 2306 2375 2664 
Q 2638 3022 2638 3341 
Q 2638 3675 2398 3904 
Q 2159 4134 1775 4134 
Q 1369 4134 1125 3890 
Q 881 3647 878 3216 
L 300 3275 
Q 359 3922 746 4261 
Q 1134 4600 1788 4600 
Q 2447 4600 2831 4234 
Q 3216 3869 3216 3328 
Q 3216 3053 3103 2787 
Q 2991 2522 2730 2228 
Q 2469 1934 1863 1422 
Q 1356 997 1212 845 
Q 1069 694 975 541 
L 3222 541 
z
" transform="scale(0.015625)"/>
       </defs>
       <use xlink:href="#ArialMT-32"/>
       <use xlink:href="#ArialMT-30" x="55.615234"/>
       <use xlink:href="#ArialMT-30" x="111.230469"/>
      </g>
     </g>
    </g>
    <g id="xtick_3">
     <g id="line2d_3">
      <path d="M 282.815877 384.48 
L 282.815877 51.84 
" clip-path="url(#pb9e8aad3ea)" style="fill: none; stroke: #ffffff; stroke-width: 0.8; stroke-linecap: round"/>
     </g>
     <g id="text_3">
      <!-- 400 -->
      <g style="fill: #262626" transform="translate(274.474471 398.637812) scale(0.1 -0.1)">
       <defs>
        <path id="ArialMT-34" d="M 2069 0 
L 2069 1097 
L 81 1097 
L 81 1613 
L 2172 4581 
L 2631 4581 
L 2631 1613 
L 3250 1613 
L 3250 1097 
L 2631 1097 
L 2631 0 
L 2069 0 
z
M 2069 1613 
L 2069 3678 
L 634 1613 
L 2069 1613 
z
" transform="scale(0.015625)"/>
       </defs>
       <use xlink:href="#ArialMT-34"/>
       <use xlink:href="#ArialMT-30" x="55.615234"/>
       <use xlink:href="#ArialMT-30" x="111.230469"/>
      </g>
     </g>
    </g>
    <g id="xtick_4">
     <g id="line2d_4">
      <path d="M 378.078361 384.48 
L 378.078361 51.84 
" clip-path="url(#pb9e8aad3ea)" style="fill: none; stroke: #ffffff; stroke-width: 0.8; stroke-linecap: round"/>
     </g>
     <g id="text_4">
      <!-- 600 -->
      <g style="fill: #262626" transform="translate(369.736955 398.637812) scale(0.1 -0.1)">
       <defs>
        <path id="ArialMT-36" d="M 3184 3459 
L 2625 3416 
Q 2550 3747 2413 3897 
Q 2184 4138 1850 4138 
Q 1581 4138 1378 3988 
Q 1113 3794 959 3422 
Q 806 3050 800 2363 
Q 1003 2672 1297 2822 
Q 1591 2972 1913 2972 
Q 2475 2972 2870 2558 
Q 3266 2144 3266 1488 
Q 3266 1056 3080 686 
Q 2894 316 2569 119 
Q 2244 -78 1831 -78 
Q 1128 -78 684 439 
Q 241 956 241 2144 
Q 241 3472 731 4075 
Q 1159 4600 1884 4600 
Q 2425 4600 2770 4297 
Q 3116 3994 3184 3459 
z
M 888 1484 
Q 888 1194 1011 928 
Q 1134 663 1356 523 
Q 1578 384 1822 384 
Q 2178 384 2434 671 
Q 2691 959 2691 1453 
Q 2691 1928 2437 2201 
Q 2184 2475 1800 2475 
Q 1419 2475 1153 2201 
Q 888 1928 888 1484 
z
" transform="scale(0.015625)"/>
       </defs>
       <use xlink:href="#ArialMT-36"/>
       <use xlink:href="#ArialMT-30" x="55.615234"/>
       <use xlink:href="#ArialMT-30" x="111.230469"/>
      </g>
     </g>
    </g>
    <g id="xtick_5">
     <g id="line2d_5">
      <path d="M 473.340845 384.48 
L 473.340845 51.84 
" clip-path="url(#pb9e8aad3ea)" style="fill: none; stroke: #ffffff; stroke-width: 0.8; stroke-linecap: round"/>
     </g>
     <g id="text_5">
      <!-- 800 -->
      <g style="fill: #262626" transform="translate(464.999439 398.637812) scale(0.1 -0.1)">
       <defs>
        <path id="ArialMT-38" d="M 1131 2484 
Q 781 2613 612 2850 
Q 444 3088 444 3419 
Q 444 3919 803 4259 
Q 1163 4600 1759 4600 
Q 2359 4600 2725 4251 
Q 3091 3903 3091 3403 
Q 3091 3084 2923 2848 
Q 2756 2613 2416 2484 
Q 2838 2347 3058 2040 
Q 3278 1734 3278 1309 
Q 3278 722 2862 322 
Q 2447 -78 1769 -78 
Q 1091 -78 675 323 
Q 259 725 259 1325 
Q 259 1772 486 2073 
Q 713 2375 1131 2484 
z
M 1019 3438 
Q 1019 3113 1228 2906 
Q 1438 2700 1772 2700 
Q 2097 2700 2305 2904 
Q 2513 3109 2513 3406 
Q 2513 3716 2298 3927 
Q 2084 4138 1766 4138 
Q 1444 4138 1231 3931 
Q 1019 3725 1019 3438 
z
M 838 1322 
Q 838 1081 952 856 
Q 1066 631 1291 507 
Q 1516 384 1775 384 
Q 2178 384 2440 643 
Q 2703 903 2703 1303 
Q 2703 1709 2433 1975 
Q 2163 2241 1756 2241 
Q 1359 2241 1098 1978 
Q 838 1716 838 1322 
z
" transform="scale(0.015625)"/>
       </defs>
       <use xlink:href="#ArialMT-38"/>
       <use xlink:href="#ArialMT-30" x="55.615234"/>
       <use xlink:href="#ArialMT-30" x="111.230469"/>
      </g>
     </g>
    </g>
    <g id="text_6">
     <!-- Days -->
     <g style="fill: #262626" transform="translate(283.808594 411.783125) scale(0.1 -0.1)">
      <defs>
       <path id="ArialMT-44" d="M 494 0 
L 494 4581 
L 2072 4581 
Q 2606 4581 2888 4516 
Q 3281 4425 3559 4188 
Q 3922 3881 4101 3404 
Q 4281 2928 4281 2316 
Q 4281 1794 4159 1391 
Q 4038 988 3847 723 
Q 3656 459 3429 307 
Q 3203 156 2883 78 
Q 2563 0 2147 0 
L 494 0 
z
M 1100 541 
L 2078 541 
Q 2531 541 2789 625 
Q 3047 709 3200 863 
Q 3416 1078 3536 1442 
Q 3656 1806 3656 2325 
Q 3656 3044 3420 3430 
Q 3184 3816 2847 3947 
Q 2603 4041 2063 4041 
L 1100 4041 
L 1100 541 
z
" transform="scale(0.015625)"/>
       <path id="ArialMT-61" d="M 2588 409 
Q 2275 144 1986 34 
Q 1697 -75 1366 -75 
Q 819 -75 525 192 
Q 231 459 231 875 
Q 231 1119 342 1320 
Q 453 1522 633 1644 
Q 813 1766 1038 1828 
Q 1203 1872 1538 1913 
Q 2219 1994 2541 2106 
Q 2544 2222 2544 2253 
Q 2544 2597 2384 2738 
Q 2169 2928 1744 2928 
Q 1347 2928 1158 2789 
Q 969 2650 878 2297 
L 328 2372 
Q 403 2725 575 2942 
Q 747 3159 1072 3276 
Q 1397 3394 1825 3394 
Q 2250 3394 2515 3294 
Q 2781 3194 2906 3042 
Q 3031 2891 3081 2659 
Q 3109 2516 3109 2141 
L 3109 1391 
Q 3109 606 3145 398 
Q 3181 191 3288 0 
L 2700 0 
Q 2613 175 2588 409 
z
M 2541 1666 
Q 2234 1541 1622 1453 
Q 1275 1403 1131 1340 
Q 988 1278 909 1158 
Q 831 1038 831 891 
Q 831 666 1001 516 
Q 1172 366 1500 366 
Q 1825 366 2078 508 
Q 2331 650 2450 897 
Q 2541 1088 2541 1459 
L 2541 1666 
z
" transform="scale(0.015625)"/>
       <path id="ArialMT-79" d="M 397 -1278 
L 334 -750 
Q 519 -800 656 -800 
Q 844 -800 956 -737 
Q 1069 -675 1141 -563 
Q 1194 -478 1313 -144 
Q 1328 -97 1363 -6 
L 103 3319 
L 709 3319 
L 1400 1397 
Q 1534 1031 1641 628 
Q 1738 1016 1872 1384 
L 2581 3319 
L 3144 3319 
L 1881 -56 
Q 1678 -603 1566 -809 
Q 1416 -1088 1222 -1217 
Q 1028 -1347 759 -1347 
Q 597 -1347 397 -1278 
z
" transform="scale(0.015625)"/>
       <path id="ArialMT-73" d="M 197 991 
L 753 1078 
Q 800 744 1014 566 
Q 1228 388 1613 388 
Q 2000 388 2187 545 
Q 2375 703 2375 916 
Q 2375 1106 2209 1216 
Q 2094 1291 1634 1406 
Q 1016 1563 777 1677 
Q 538 1791 414 1992 
Q 291 2194 291 2438 
Q 291 2659 392 2848 
Q 494 3038 669 3163 
Q 800 3259 1026 3326 
Q 1253 3394 1513 3394 
Q 1903 3394 2198 3281 
Q 2494 3169 2634 2976 
Q 2775 2784 2828 2463 
L 2278 2388 
Q 2241 2644 2061 2787 
Q 1881 2931 1553 2931 
Q 1166 2931 1000 2803 
Q 834 2675 834 2503 
Q 834 2394 903 2306 
Q 972 2216 1119 2156 
Q 1203 2125 1616 2013 
Q 2213 1853 2448 1751 
Q 2684 1650 2818 1456 
Q 2953 1263 2953 975 
Q 2953 694 2789 445 
Q 2625 197 2315 61 
Q 2006 -75 1616 -75 
Q 969 -75 630 194 
Q 291 463 197 991 
z
" transform="scale(0.015625)"/>
      </defs>
      <use xlink:href="#ArialMT-44"/>
      <use xlink:href="#ArialMT-61" x="72.216797"/>
      <use xlink:href="#ArialMT-79" x="127.832031"/>
      <use xlink:href="#ArialMT-73" x="177.832031"/>
     </g>
    </g>
   </g>
   <g id="matplotlib.axis_2">
    <g id="ytick_1">
     <g id="line2d_6">
      <path d="M 72 375.36883 
L 518.4 375.36883 
" clip-path="url(#pb9e8aad3ea)" style="fill: none; stroke: #ffffff; stroke-width: 0.8; stroke-linecap: round"/>
     </g>
     <g id="text_7">
      <!-- 5 -->
      <g style="fill: #262626" transform="translate(59.439062 378.947737) scale(0.1 -0.1)">
       <defs>
        <path id="ArialMT-35" d="M 266 1200 
L 856 1250 
Q 922 819 1161 601 
Q 1400 384 1738 384 
Q 2144 384 2425 690 
Q 2706 997 2706 1503 
Q 2706 1984 2436 2262 
Q 2166 2541 1728 2541 
Q 1456 2541 1237 2417 
Q 1019 2294 894 2097 
L 366 2166 
L 809 4519 
L 3088 4519 
L 3088 3981 
L 1259 3981 
L 1013 2750 
Q 1425 3038 1878 3038 
Q 2478 3038 2890 2622 
Q 3303 2206 3303 1553 
Q 3303 931 2941 478 
Q 2500 -78 1738 -78 
Q 1113 -78 717 272 
Q 322 622 266 1200 
z
" transform="scale(0.015625)"/>
       </defs>
       <use xlink:href="#ArialMT-35"/>
      </g>
     </g>
    </g>
    <g id="ytick_2">
     <g id="line2d_7">
      <path d="M 72 324.827267 
L 518.4 324.827267 
" clip-path="url(#pb9e8aad3ea)" style="fill: none; stroke: #ffffff; stroke-width: 0.8; stroke-linecap: round"/>
     </g>
     <g id="text_8">
      <!-- 10 -->
      <g style="fill: #262626" transform="translate(53.878125 328.406173) scale(0.1 -0.1)">
       <defs>
        <path id="ArialMT-31" d="M 2384 0 
L 1822 0 
L 1822 3584 
Q 1619 3391 1289 3197 
Q 959 3003 697 2906 
L 697 3450 
Q 1169 3672 1522 3987 
Q 1875 4303 2022 4600 
L 2384 4600 
L 2384 0 
z
" transform="scale(0.015625)"/>
       </defs>
       <use xlink:href="#ArialMT-31"/>
       <use xlink:href="#ArialMT-30" x="55.615234"/>
      </g>
     </g>
    </g>
    <g id="ytick_3">
     <g id="line2d_8">
      <path d="M 72 274.285704 
L 518.4 274.285704 
" clip-path="url(#pb9e8aad3ea)" style="fill: none; stroke: #ffffff; stroke-width: 0.8; stroke-linecap: round"/>
     </g>
     <g id="text_9">
      <!-- 15 -->
      <g style="fill: #262626" transform="translate(53.878125 277.86461) scale(0.1 -0.1)">
       <use xlink:href="#ArialMT-31"/>
       <use xlink:href="#ArialMT-35" x="55.615234"/>
      </g>
     </g>
    </g>
    <g id="ytick_4">
     <g id="line2d_9">
      <path d="M 72 223.744141 
L 518.4 223.744141 
" clip-path="url(#pb9e8aad3ea)" style="fill: none; stroke: #ffffff; stroke-width: 0.8; stroke-linecap: round"/>
     </g>
     <g id="text_10">
      <!-- 20 -->
      <g style="fill: #262626" transform="translate(53.878125 227.323047) scale(0.1 -0.1)">
       <use xlink:href="#ArialMT-32"/>
       <use xlink:href="#ArialMT-30" x="55.615234"/>
      </g>
     </g>
    </g>
    <g id="ytick_5">
     <g id="line2d_10">
      <path d="M 72 173.202578 
L 518.4 173.202578 
" clip-path="url(#pb9e8aad3ea)" style="fill: none; stroke: #ffffff; stroke-width: 0.8; stroke-linecap: round"/>
     </g>
     <g id="text_11">
      <!-- 25 -->
      <g style="fill: #262626" transform="translate(53.878125 176.781484) scale(0.1 -0.1)">
       <use xlink:href="#ArialMT-32"/>
       <use xlink:href="#ArialMT-35" x="55.615234"/>
      </g>
     </g>
    </g>
    <g id="ytick_6">
     <g id="line2d_11">
      <path d="M 72 122.661014 
L 518.4 122.661014 
" clip-path="url(#pb9e8aad3ea)" style="fill: none; stroke: #ffffff; stroke-width: 0.8; stroke-linecap: round"/>
     </g>
     <g id="text_12">
      <!-- 30 -->
      <g style="fill: #262626" transform="translate(53.878125 126.239921) scale(0.1 -0.1)">
       <defs>
        <path id="ArialMT-33" d="M 269 1209 
L 831 1284 
Q 928 806 1161 595 
Q 1394 384 1728 384 
Q 2125 384 2398 659 
Q 2672 934 2672 1341 
Q 2672 1728 2419 1979 
Q 2166 2231 1775 2231 
Q 1616 2231 1378 2169 
L 1441 2663 
Q 1497 2656 1531 2656 
Q 1891 2656 2178 2843 
Q 2466 3031 2466 3422 
Q 2466 3731 2256 3934 
Q 2047 4138 1716 4138 
Q 1388 4138 1169 3931 
Q 950 3725 888 3313 
L 325 3413 
Q 428 3978 793 4289 
Q 1159 4600 1703 4600 
Q 2078 4600 2393 4439 
Q 2709 4278 2876 4000 
Q 3044 3722 3044 3409 
Q 3044 3113 2884 2869 
Q 2725 2625 2413 2481 
Q 2819 2388 3044 2092 
Q 3269 1797 3269 1353 
Q 3269 753 2831 336 
Q 2394 -81 1725 -81 
Q 1122 -81 723 278 
Q 325 638 269 1209 
z
" transform="scale(0.015625)"/>
       </defs>
       <use xlink:href="#ArialMT-33"/>
       <use xlink:href="#ArialMT-30" x="55.615234"/>
      </g>
     </g>
    </g>
    <g id="ytick_7">
     <g id="line2d_12">
      <path d="M 72 72.119451 
L 518.4 72.119451 
" clip-path="url(#pb9e8aad3ea)" style="fill: none; stroke: #ffffff; stroke-width: 0.8; stroke-linecap: round"/>
     </g>
     <g id="text_13">
      <!-- 35 -->
      <g style="fill: #262626" transform="translate(53.878125 75.698357) scale(0.1 -0.1)">
       <use xlink:href="#ArialMT-33"/>
       <use xlink:href="#ArialMT-35" x="55.615234"/>
      </g>
     </g>
    </g>
    <g id="text_14">
     <!-- (°C) -->
     <g style="fill: #262626" transform="translate(47.773438 227.099844) rotate(-90) scale(0.1 -0.1)">
      <defs>
       <path id="ArialMT-28" d="M 1497 -1347 
Q 1031 -759 709 28 
Q 388 816 388 1659 
Q 388 2403 628 3084 
Q 909 3875 1497 4659 
L 1900 4659 
Q 1522 4009 1400 3731 
Q 1209 3300 1100 2831 
Q 966 2247 966 1656 
Q 966 153 1900 -1347 
L 1497 -1347 
z
" transform="scale(0.015625)"/>
       <path id="ArialMT-b0" d="M 400 3794 
Q 400 4153 654 4406 
Q 909 4659 1266 4659 
Q 1628 4659 1881 4406 
Q 2134 4153 2134 3794 
Q 2134 3434 1879 3179 
Q 1625 2925 1266 2925 
Q 909 2925 654 3178 
Q 400 3431 400 3794 
z
M 741 3794 
Q 741 3575 895 3420 
Q 1050 3266 1269 3266 
Q 1484 3266 1639 3420 
Q 1794 3575 1794 3794 
Q 1794 4013 1639 4167 
Q 1484 4322 1269 4322 
Q 1050 4322 895 4167 
Q 741 4013 741 3794 
z
" transform="scale(0.015625)"/>
       <path id="ArialMT-43" d="M 3763 1606 
L 4369 1453 
Q 4178 706 3683 314 
Q 3188 -78 2472 -78 
Q 1731 -78 1267 223 
Q 803 525 561 1097 
Q 319 1669 319 2325 
Q 319 3041 592 3573 
Q 866 4106 1370 4382 
Q 1875 4659 2481 4659 
Q 3169 4659 3637 4309 
Q 4106 3959 4291 3325 
L 3694 3184 
Q 3534 3684 3231 3912 
Q 2928 4141 2469 4141 
Q 1941 4141 1586 3887 
Q 1231 3634 1087 3207 
Q 944 2781 944 2328 
Q 944 1744 1114 1308 
Q 1284 872 1643 656 
Q 2003 441 2422 441 
Q 2931 441 3284 734 
Q 3638 1028 3763 1606 
z
" transform="scale(0.015625)"/>
       <path id="ArialMT-29" d="M 791 -1347 
L 388 -1347 
Q 1322 153 1322 1656 
Q 1322 2244 1188 2822 
Q 1081 3291 891 3722 
Q 769 4003 388 4659 
L 791 4659 
Q 1378 3875 1659 3084 
Q 1900 2403 1900 1659 
Q 1900 816 1576 28 
Q 1253 -759 791 -1347 
z
" transform="scale(0.015625)"/>
      </defs>
      <use xlink:href="#ArialMT-28"/>
      <use xlink:href="#ArialMT-b0" x="33.300781"/>
      <use xlink:href="#ArialMT-43" x="73.291016"/>
      <use xlink:href="#ArialMT-29" x="145.507812"/>
     </g>
    </g>
   </g>
   <g id="line2d_13">
    <path d="M 92.290909 160.237263 
L 92.767222 165.27738 
L 93.243534 143.734038 
L 93.719846 149.279571 
L 94.196159 167.039315 
L 95.148784 150.262324 
L 95.625096 152.754303 
L 96.577721 314.438168 
L 97.054033 287.910867 
L 97.530346 274.025976 
L 98.006658 238.429273 
L 98.482971 231.802712 
L 98.959283 254.848261 
L 99.435595 261.208074 
L 99.911908 274.419078 
L 100.38822 256.666353 
L 100.864533 228.910612 
L 101.340845 219.026928 
L 101.817157 204.433052 
L 102.29347 203.204611 
L 103.246095 178.783209 
L 103.722407 168.148421 
L 104.19872 217.917822 
L 104.675032 232.455541 
L 105.627657 201.288243 
L 106.103969 181.570014 
L 106.580282 156.734452 
L 107.056594 150.360599 
L 107.532907 170.900129 
L 108.485531 318.270903 
L 108.961844 262.506712 
L 109.438156 277.648122 
L 109.914469 336.318453 
L 111.343406 280.43859 
L 111.819718 307.362349 
L 112.296031 284.93831 
L 112.772343 236.008422 
L 113.248656 231.85185 
L 113.724968 218.479395 
L 114.20128 268.34707 
L 114.677593 280.947363 
L 115.153905 268.97182 
L 115.630218 221.146866 
L 116.10653 200.867064 
L 116.582843 199.034932 
L 117.059155 204.784035 
L 117.535467 222.431464 
L 118.488092 299.486289 
L 118.964405 257.28536 
L 119.440717 254.86932 
L 119.917029 282.66016 
L 120.393342 298.650949 
L 120.869654 286.80878 
L 121.345967 284.766059 
L 121.822279 260.926732 
L 122.298592 219.925445 
L 122.774904 261.848084 
L 123.251216 275.801951 
L 123.727529 277.781495 
L 124.203841 260.807954 
L 124.680154 277.802554 
L 125.156466 229.837207 
L 125.632778 217.623511 
L 126.109091 262.12765 
L 126.585403 225.730705 
L 127.061716 229.626617 
L 127.538028 245.820976 
L 128.014341 238.07829 
L 128.490653 218.689984 
L 128.966965 228.019115 
L 129.443278 248.895588 
L 129.91959 317.969058 
L 130.395903 352.702343 
L 130.872215 304.364954 
L 131.348528 297.902398 
L 131.82484 322.124697 
L 132.301152 303.213729 
L 132.777465 264.430099 
L 133.253777 252.222908 
L 133.73009 248.790293 
L 134.206402 213.467356 
L 134.682714 211.038553 
L 135.159027 273.11342 
L 135.635339 299.008952 
L 136.587964 229.170339 
L 137.064277 298.103416 
L 137.540589 322.335287 
L 138.016901 318.13051 
L 139.445839 225.134034 
L 139.922151 245.259403 
L 140.398464 279.592568 
L 140.874776 275.099985 
L 141.351088 233.045192 
L 141.827401 279.697863 
L 142.303713 282.119646 
L 142.780026 296.741601 
L 143.256338 298.159573 
L 143.73265 263.538602 
L 144.208963 242.479617 
L 144.685275 297.864747 
L 145.161588 320.025819 
L 145.6379 271.512938 
L 146.114213 250.31356 
L 146.590525 237.86068 
L 147.54315 206.812717 
L 148.019462 192.903034 
L 148.495775 166.874774 
L 148.972087 181.920997 
L 149.448399 305.782925 
L 149.924712 359.60969 
L 150.401024 329.712952 
L 150.877337 252.503694 
L 151.353649 253.784337 
L 151.829962 263.208678 
L 152.306274 218.57065 
L 152.782586 153.975725 
L 153.258899 136.784573 
L 153.735211 188.161476 
L 154.211524 259.270648 
L 154.687836 276.721526 
L 155.164149 273.071302 
L 156.116773 230.826979 
L 156.593086 216.675342 
L 157.545711 253.107385 
L 158.022023 210.680551 
L 158.498335 180.559183 
L 158.974648 189.937451 
L 159.45096 183.774188 
L 159.927273 179.316703 
L 160.403585 183.682932 
L 160.879898 347.334167 
L 161.35621 367.091324 
L 161.832522 344.910519 
L 162.308835 258.744173 
L 162.785147 197.181741 
L 163.26146 154.677691 
L 164.214085 183.360028 
L 164.690397 184.04604 
L 165.166709 153.519447 
L 165.643022 172.52167 
L 166.119334 268.54105 
L 166.595647 297.583961 
L 167.071959 284.11323 
L 167.548271 318.74824 
L 168.500896 255.150107 
L 168.977209 266.353486 
L 169.453521 245.729721 
L 169.929834 203.541555 
L 170.406146 186.63119 
L 170.882458 181.436641 
L 171.358771 227.766407 
L 171.835083 212.470564 
L 172.311396 215.503058 
L 172.787708 210.673531 
L 173.26402 201.140831 
L 173.740333 308.756922 
L 174.216645 303.677027 
L 174.692958 289.048204 
L 175.16927 235.509094 
L 175.645583 167.123453 
L 176.121895 173.237676 
L 176.598207 148.310858 
L 177.07452 158.41917 
L 177.550832 157.759322 
L 178.503457 124.802011 
L 178.97977 130.172052 
L 179.456082 164.301647 
L 179.932394 156.214997 
L 180.408707 217.995038 
L 181.361332 190.344591 
L 181.837644 157.281985 
L 182.313956 157.629111 
L 182.790269 159.284209 
L 183.266581 170.352595 
L 183.742894 167.993989 
L 184.695519 194.043953 
L 185.171831 163.325914 
L 185.648143 140.259306 
L 186.124456 140.118913 
L 186.600768 160.174086 
L 187.077081 161.493782 
L 187.553393 173.16997 
L 188.029706 154.179295 
L 188.506018 126.872811 
L 188.98233 142.295008 
L 189.458643 177.51265 
L 189.934955 169.06029 
L 190.411268 180.00463 
L 190.88758 182.931829 
L 191.363892 167.462753 
L 191.840205 116.518811 
L 192.316517 134.833108 
L 192.79283 208.069237 
L 193.269142 219.469167 
L 193.745455 197.546764 
L 194.221767 184.412977 
L 194.698079 187.143625 
L 195.174392 183.11434 
L 195.650704 169.292626 
L 196.127017 148.739057 
L 196.603329 117.796389 
L 197.079641 131.147785 
L 198.032266 113.521415 
L 198.508579 116.785558 
L 198.984891 127.449917 
L 199.461204 135.212169 
L 199.937516 136.215981 
L 200.413828 138.378037 
L 200.890141 138.890472 
L 201.366453 126.449864 
L 201.842766 122.639955 
L 202.319078 145.664445 
L 202.795391 137.06536 
L 203.271703 138.855374 
L 203.748015 130.340524 
L 204.224328 134.334712 
L 205.176953 124.078986 
L 205.653265 108.081177 
L 206.129577 80.065708 
L 206.60589 66.96 
L 207.082202 72.56871 
L 207.558515 127.983783 
L 208.034827 160.616324 
L 208.51114 148.170464 
L 208.987452 132.804425 
L 209.940077 125.047699 
L 210.416389 118.343923 
L 210.892702 115.739628 
L 211.369014 116.596027 
L 211.845327 110.860963 
L 212.321639 82.192666 
L 212.797951 117.599838 
L 213.274264 117.038266 
L 213.750576 103.602633 
L 214.226889 117.382229 
L 214.703201 166.765548 
L 215.179513 140.189109 
L 215.655826 136.096647 
L 216.132138 134.15922 
L 216.608451 129.308634 
L 217.084763 128.887454 
L 217.561076 136.124725 
L 218.037388 135.415739 
L 218.5137 124.61248 
L 218.990013 123.208548 
L 219.466325 116.687282 
L 219.942638 119.331633 
L 220.41895 117.059324 
L 220.895262 102.204052 
L 221.371575 94.484093 
L 221.847887 101.672226 
L 222.3242 124.254478 
L 222.800512 128.382876 
L 223.276825 82.560879 
L 223.753137 100.078763 
L 224.229449 105.43447 
L 224.705762 112.440387 
L 225.182074 113.296786 
L 225.658387 112.686075 
L 226.134699 112.447407 
L 226.611012 113.717966 
L 227.087324 110.053702 
L 228.039949 138.321879 
L 228.516261 165.284399 
L 228.992574 138.378037 
L 229.468886 136.770534 
L 229.945198 129.975502 
L 230.421511 120.590214 
L 230.897823 127.083401 
L 231.374136 114.967465 
L 232.326761 110.327364 
L 233.279385 101.468656 
L 233.755698 99.10303 
L 234.23201 98.092199 
L 234.708323 97.592399 
L 235.184635 105.568139 
L 235.660948 96.83568 
L 236.13726 93.901461 
L 236.613572 99.959429 
L 237.089885 101.166811 
L 237.566197 94.090992 
L 238.04251 91.577953 
L 238.518822 97.530626 
L 238.995134 89.710824 
L 239.471447 87.443372 
L 239.947759 96.260067 
L 240.424072 99.94539 
L 240.900384 104.739818 
L 241.376697 106.838996 
L 241.853009 118.581844 
L 242.329321 113.058117 
L 243.281946 135.219189 
L 243.758259 124.984522 
L 244.234571 103.399063 
L 245.187196 135.261307 
L 245.663508 126.627123 
L 246.139821 120.856961 
L 247.092446 137.697129 
L 247.568758 126.795595 
L 248.04507 138.462273 
L 248.521383 207.443603 
L 248.997695 217.679153 
L 249.474008 117.606858 
L 249.95032 150.585228 
L 250.426633 157.450457 
L 250.902945 155.73766 
L 251.85557 140.154011 
L 252.331882 141.782572 
L 252.808195 127.53266 
L 253.284507 135.686954 
L 253.760819 130.874018 
L 254.237132 139.936401 
L 254.713444 142.365204 
L 255.189757 142.007202 
L 255.666069 138.876433 
L 256.142382 141.235039 
L 256.618694 138.707961 
L 257.095006 133.373018 
L 257.571319 139.325691 
L 258.047631 137.963877 
L 258.523944 148.184504 
L 259.000256 149.644593 
L 259.476569 146.541903 
L 259.952881 151.329312 
L 260.429193 150.402717 
L 260.905506 151.546922 
L 261.381818 135.113894 
L 261.858131 128.501373 
L 262.334443 144.801027 
L 262.810755 155.358598 
L 263.76338 139.866205 
L 264.716005 256.132859 
L 265.192318 198.438261 
L 265.66863 159.191333 
L 266.144942 142.828502 
L 266.621255 185.451887 
L 267.097567 195.433846 
L 267.57388 174.487176 
L 268.050192 135.521034 
L 268.526504 156.088643 
L 269.002817 139.283573 
L 269.479129 170.029691 
L 269.955442 182.714219 
L 270.431754 171.440643 
L 270.908067 239.194416 
L 271.384379 240.521132 
L 271.860691 202.19378 
L 272.337004 193.243711 
L 272.813316 173.890504 
L 273.289629 205.331569 
L 273.765941 281.845879 
L 274.242254 267.090551 
L 274.718566 238.148486 
L 275.194878 239.292691 
L 275.671191 194.830155 
L 276.147503 176.659196 
L 276.623816 180.390711 
L 277.100128 169.060977 
L 277.57644 281.066697 
L 278.052753 273.703072 
L 278.529065 254.700848 
L 279.005378 211.796677 
L 279.48169 369.36 
L 279.958003 364.123332 
L 280.434315 288.570715 
L 280.910627 274.587549 
L 281.38694 267.385377 
L 281.863252 227.724289 
L 282.339565 218.612768 
L 282.815877 202.881707 
L 283.29219 203.190572 
L 283.768502 187.698179 
L 284.244814 189.649645 
L 284.721127 239.73493 
L 285.197439 229.331791 
L 285.673752 190.337571 
L 286.150064 183.984778 
L 287.102689 242.970994 
L 287.579001 211.593107 
L 288.055314 159.88628 
L 288.531626 214.078067 
L 289.007939 246.235136 
L 289.484251 237.881739 
L 289.960563 206.005456 
L 290.436876 209.431051 
L 290.913188 202.39033 
L 291.389501 221.462751 
L 291.865813 215.439881 
L 292.342125 179.604509 
L 292.818438 244.978617 
L 293.29475 294.411074 
L 293.771063 286.219129 
L 294.247375 216.450712 
L 294.723688 191.952094 
L 295.2 177.667082 
L 295.676312 183.760149 
L 296.152625 296.797759 
L 296.628937 318.678044 
L 297.10525 309.538444 
L 297.581562 276.567094 
L 298.057875 281.20709 
L 298.534187 266.402624 
L 299.486812 247.758403 
L 299.963124 224.965562 
L 300.439437 233.452333 
L 300.915749 232.560836 
L 301.392061 187.47355 
L 302.820999 309.650759 
L 303.297311 288.977856 
L 303.773624 245.392777 
L 304.249936 260.898669 
L 304.726248 268.065204 
L 305.202561 257.810558 
L 305.678873 231.620201 
L 306.155186 249.822183 
L 306.631498 257.78248 
L 307.10781 239.882343 
L 307.584123 229.338811 
L 308.060435 234.652695 
L 308.536748 260.26042 
L 309.01306 239.966579 
L 309.489373 213.944693 
L 309.965685 214.808112 
L 310.441997 211.831775 
L 310.91831 229.788069 
L 311.394622 218.128412 
L 311.870935 275.942344 
L 312.347247 287.405451 
L 312.82356 304.638917 
L 313.299872 274.503313 
L 313.776184 235.642467 
L 314.252497 248.572684 
L 314.728809 256.610196 
L 315.205122 199.877291 
L 315.681434 201.112752 
L 316.157746 201.835777 
L 317.110371 289.377976 
L 317.586684 295.407866 
L 318.062996 265.342655 
L 318.539309 250.236343 
L 319.015621 228.987828 
L 319.491933 197.722255 
L 319.968246 273.253814 
L 320.444558 289.735979 
L 320.920871 243.88355 
L 321.397183 223.898573 
L 321.873496 190.793849 
L 322.349808 173.188538 
L 322.82612 244.234533 
L 323.302433 293.154554 
L 323.778745 267.659143 
L 324.255058 307.060504 
L 325.683995 186.666288 
L 326.160307 179.78702 
L 326.63662 273.366128 
L 327.589245 326.259278 
L 329.018182 191.453698 
L 329.494494 186.589072 
L 329.970807 284.071112 
L 330.447119 291.504934 
L 330.923431 254.855281 
L 331.399744 243.46939 
L 331.876056 191.418599 
L 332.352369 152.705166 
L 332.828681 199.828154 
L 333.304994 173.448266 
L 333.781306 233.985827 
L 334.257618 227.338207 
L 334.733931 245.596347 
L 335.210243 234.414026 
L 335.686556 214.253558 
L 336.162868 207.191779 
L 336.639181 185.887106 
L 337.115493 173.672895 
L 337.591805 153.968705 
L 338.068118 152.255908 
L 338.54443 187.796454 
L 339.020743 204.987605 
L 339.497055 174.845178 
L 339.973367 169.62957 
L 340.44968 144.291338 
L 341.402305 260.372735 
L 341.878617 241.503884 
L 342.35493 196.683345 
L 342.831242 137.149596 
L 343.307554 120.493909 
L 343.783867 132.846543 
L 344.260179 122.520621 
L 344.736492 135.738644 
L 345.212804 217.138639 
L 345.689117 195.511062 
L 346.165429 151.58904 
L 346.641741 194.008854 
L 347.118054 161.234055 
L 347.594366 171.875862 
L 348.070679 221.245141 
L 348.546991 249.351866 
L 349.499616 182.405354 
L 349.975928 137.591835 
L 350.452241 124.521225 
L 350.928553 169.390901 
L 351.404866 173.293833 
L 351.881178 125.065154 
L 352.35749 150.954843 
L 352.833803 235.452936 
L 353.310115 279.641706 
L 353.786428 257.045415 
L 354.26274 189.902352 
L 354.739052 166.891902 
L 355.215365 128.213567 
L 355.691677 122.303012 
L 356.16799 141.62814 
L 356.644302 122.562739 
L 357.120615 112.910705 
L 357.596927 111.998149 
L 358.073239 134.868206 
L 358.549552 203.036139 
L 359.025864 167.523671 
L 359.502177 140.79982 
L 359.978489 131.203943 
L 360.454802 169.447059 
L 361.407426 140.631348 
L 362.360051 119.663619 
L 362.836364 125.195112 
L 363.312676 149.405925 
L 363.788988 152.171672 
L 364.265301 162.279984 
L 364.741613 205.787847 
L 365.217926 206.461734 
L 366.646863 152.62093 
L 367.123175 153.161444 
L 367.599488 139.037885 
L 368.0758 139.950441 
L 368.552113 145.467895 
L 369.028425 131.126726 
L 369.504738 121.200925 
L 369.98105 122.162618 
L 370.457362 143.2918 
L 370.933675 134.805029 
L 371.409987 134.496164 
L 371.8863 152.164652 
L 372.362612 153.624742 
L 372.838924 178.200577 
L 373.315237 151.231037 
L 373.791549 134.306633 
L 374.267862 165.789815 
L 374.744174 171.924999 
L 375.220487 175.21722 
L 375.696799 175.952321 
L 376.173111 167.221826 
L 376.649424 147.665049 
L 377.125736 139.178278 
L 377.602049 139.183646 
L 378.554673 117.613878 
L 379.030986 103.012982 
L 379.507298 112.861567 
L 379.983611 138.490351 
L 380.459923 181.744102 
L 380.936236 157.499595 
L 381.412548 153.701958 
L 381.88886 148.788195 
L 382.365173 149.51122 
L 382.841485 145.839937 
L 383.317798 139.367809 
L 383.79411 135.991352 
L 384.270423 145.896094 
L 384.746735 136.974104 
L 385.69936 116.308221 
L 386.175672 119.186282 
L 387.128297 155.246283 
L 387.604609 158.355993 
L 388.080922 160.440833 
L 388.557234 168.009951 
L 389.033547 122.408307 
L 389.509859 143.530468 
L 389.986172 135.572953 
L 390.462484 124.156202 
L 390.938796 128.581598 
L 391.415109 111.099632 
L 391.891421 109.653582 
L 392.367734 110.285351 
L 392.844046 112.707134 
L 393.320359 135.753106 
L 393.796671 101.559912 
L 394.272983 100.668415 
L 394.749296 104.199305 
L 395.225608 102.268898 
L 395.701921 87.253842 
L 396.654545 115.753667 
L 397.130858 110.741629 
L 397.60717 116.287162 
L 398.083483 149.279571 
L 398.559795 158.117325 
L 399.036108 135.528054 
L 399.51242 132.151597 
L 399.988732 127.1185 
L 400.465045 120.4779 
L 400.941357 108.993733 
L 401.41767 133.95565 
L 401.893982 181.973025 
L 402.370294 173.314892 
L 402.846607 195.354575 
L 404.275544 142.426525 
L 404.751857 147.475518 
L 405.704481 124.738834 
L 406.180794 125.110876 
L 406.657106 128.97871 
L 407.133419 146.64804 
L 407.609731 134.545301 
L 408.086044 132.355167 
L 408.562356 137.662031 
L 409.038668 138.532469 
L 409.514981 132.551718 
L 409.991293 124.900286 
L 410.467606 127.623915 
L 410.943918 126.999165 
L 411.896543 114.104541 
L 412.372855 122.843526 
L 412.849168 122.920742 
L 413.32548 104.957428 
L 413.801793 110.640546 
L 414.278105 110.695593 
L 414.754417 132.074381 
L 415.707042 100.963241 
L 416.183355 109.548287 
L 416.659667 114.820052 
L 417.13598 112.257876 
L 417.612292 104.599425 
L 418.088604 137.189828 
L 418.564917 105.308411 
L 419.041229 135.528212 
L 419.517542 135.61229 
L 419.993854 175.682484 
L 420.470166 179.233871 
L 420.946479 161.774569 
L 421.422791 155.943011 
L 421.899104 156.190097 
L 422.375416 87.123978 
L 422.851729 89.387819 
L 423.804353 107.582781 
L 424.280666 107.519604 
L 424.756978 107.309015 
L 425.233291 118.238628 
L 425.709603 108.818242 
L 426.185915 115.648373 
L 426.662228 124.654598 
L 427.13854 115.964257 
L 427.614853 116.574968 
L 428.567478 124.766913 
L 429.520102 92.841492 
L 429.996415 98.014983 
L 430.94904 114.756876 
L 431.425352 118.589611 
L 431.901665 116.869794 
L 432.377977 114.005772 
L 432.854289 106.894855 
L 433.330602 95.143941 
L 433.806914 127.174657 
L 434.283227 132.109479 
L 434.759539 143.018033 
L 435.235851 145.15201 
L 436.664789 110.046683 
L 437.141101 116.911912 
L 437.617414 116.32226 
L 438.093726 108.818242 
L 438.570038 103.181454 
L 439.046351 110.994337 
L 439.522663 114.560325 
L 439.998976 128.76812 
L 440.475288 155.856994 
L 440.951601 133.169448 
L 441.427913 127.960859 
L 441.904225 118.779142 
L 442.380538 132.390265 
L 442.85685 157.962892 
L 443.809475 136.44763 
L 445.238412 197.272997 
L 445.714725 184.511252 
L 446.66735 139.669654 
L 447.143662 129.694715 
L 447.619974 138.413135 
L 448.096287 133.169448 
L 448.572599 134.194318 
L 449.048912 139.080003 
L 449.525224 142.779364 
L 450.001536 161.437625 
L 450.954161 145.116912 
L 451.430474 146.331313 
L 451.906786 141.192921 
L 452.383099 143.972707 
L 452.859411 145.832917 
L 453.335723 139.480123 
L 453.812036 137.781365 
L 454.288348 140.947233 
L 454.764661 142.653011 
L 455.240973 174.381881 
L 456.193598 166.948059 
L 456.66991 172.53571 
L 457.146223 164.168273 
L 457.622535 163.494386 
L 458.57516 180.931225 
L 459.051472 189.75494 
L 459.527785 181.668289 
L 460.004097 192.303077 
L 460.48041 210.125997 
L 460.956722 214.127204 
L 461.433035 191.341383 
L 461.909347 202.460527 
L 462.385659 195.223256 
L 462.861972 157.19073 
L 463.338284 135.022638 
L 463.814597 149.616515 
L 464.290909 154.193334 
L 464.767222 152.066377 
L 465.243534 170.801853 
L 465.719846 273.064283 
L 467.148784 195.265374 
L 467.625096 181.471739 
L 468.101408 192.668099 
L 468.577721 155.548129 
L 469.054033 190.527102 
L 469.530346 206.826756 
L 470.006658 199.610544 
L 470.482971 183.640814 
L 470.959283 212.182758 
L 471.435595 210.097919 
L 471.911908 235.593329 
L 472.38822 219.665717 
L 472.864533 223.245745 
L 473.340845 185.781811 
L 473.817157 162.315083 
L 474.29347 186.43464 
L 474.769782 188.821325 
L 475.246095 179.393919 
L 475.722407 174.81008 
L 476.19872 185.157061 
L 476.675032 181.745506 
L 477.151344 171.005424 
L 477.627657 257.936912 
L 478.103969 276.770664 
L 478.580282 230.777842 
L 479.056594 255.718699 
L 479.532907 307.713332 
L 480.009219 338.803413 
L 480.485531 322.314228 
L 480.961844 334.472282 
L 481.438156 357.524851 
L 481.914469 341.063744 
L 482.390781 301.086772 
L 482.867093 281.305365 
L 483.343406 228.306921 
L 483.819718 264.149313 
L 484.296031 269.421078 
L 484.772343 226.832792 
L 485.248656 226.418632 
L 485.724968 196.304284 
L 486.677593 296.832857 
L 487.153905 251.534981 
L 487.630218 237.381496 
L 488.10653 204.101231 
L 488.582843 214.323755 
L 489.059155 210.06282 
L 489.535467 219.81313 
L 490.01178 208.778222 
L 490.488092 209.115166 
L 490.964405 213.17253 
L 491.440717 195.087428 
L 491.917029 234.982619 
L 492.393342 248.797313 
L 492.869654 241.019528 
L 493.345967 293.068526 
L 493.822279 326.161003 
L 494.298592 275.879167 
L 494.774904 252.17016 
L 495.251216 308.752242 
L 495.727529 245.785878 
L 496.203841 150.873034 
L 496.680154 136.981124 
L 497.156466 119.256479 
L 497.632778 119.565344 
L 498.109091 193.462679 
L 498.109091 193.462679 
" clip-path="url(#pb9e8aad3ea)" style="fill: none; stroke: #1f77b4; stroke-width: 1.5; stroke-linecap: round"/>
   </g>
   <g id="line2d_14">
    <path d="M 92.290909 148.552872 
L 92.767222 147.42599 
L 93.243534 147.090011 
L 94.196159 149.77828 
L 94.672471 147.787532 
L 95.148784 148.029564 
L 95.625096 149.743323 
L 96.101408 150.194617 
L 96.577721 156.182101 
L 97.054033 165.964603 
L 98.006658 173.112678 
L 98.482971 174.533573 
L 99.435595 187.827702 
L 99.911908 194.206157 
L 100.38822 196.40221 
L 100.864533 195.765841 
L 101.340845 194.242895 
L 101.817157 195.303599 
L 102.29347 197.369056 
L 102.769782 200.615645 
L 103.246095 200.845502 
L 104.19872 202.026561 
L 105.151344 209.712106 
L 105.627657 209.509348 
L 106.103969 208.691675 
L 106.580282 210.609485 
L 107.056594 209.027024 
L 108.009219 215.731146 
L 108.485531 221.455669 
L 108.961844 222.792609 
L 109.438156 214.571368 
L 109.914469 217.798366 
L 110.390781 211.390553 
L 111.343406 206.51437 
L 111.819718 203.692783 
L 112.296031 204.848873 
L 112.772343 205.281356 
L 113.248656 201.677836 
L 113.724968 200.292148 
L 114.20128 200.08216 
L 114.677593 204.260519 
L 115.153905 202.725436 
L 115.630218 209.850151 
L 116.10653 208.866897 
L 116.582843 207.548334 
L 117.059155 209.625495 
L 117.535467 205.645536 
L 118.01178 204.167936 
L 118.488092 211.648994 
L 118.964405 217.315394 
L 119.440717 216.189489 
L 119.917029 225.074452 
L 120.393342 229.681618 
L 121.345967 217.482372 
L 121.822279 215.729243 
L 122.298592 210.70674 
L 122.774904 212.989717 
L 123.251216 214.566953 
L 123.727529 214.428111 
L 124.203841 212.30343 
L 124.680154 209.480099 
L 125.156466 208.59598 
L 126.109091 213.048568 
L 126.585403 213.324599 
L 127.061716 210.888222 
L 127.538028 210.349936 
L 128.014341 207.615709 
L 128.490653 207.164181 
L 128.966965 206.483455 
L 129.443278 204.533716 
L 129.91959 206.074664 
L 130.395903 213.311222 
L 130.872215 217.729509 
L 131.348528 214.202505 
L 131.82484 214.625969 
L 132.301152 216.995809 
L 132.777465 211.777434 
L 133.253777 210.945402 
L 133.73009 209.863661 
L 134.206402 207.565596 
L 134.682714 206.553343 
L 135.159027 209.220895 
L 135.635339 213.756322 
L 136.111652 219.958813 
L 136.587964 221.28904 
L 137.064277 219.557317 
L 137.540589 222.52068 
L 138.016901 231.967034 
L 138.493214 238.890896 
L 138.969526 236.240397 
L 139.922151 224.841678 
L 140.398464 225.894439 
L 141.351088 223.708447 
L 141.827401 223.148631 
L 142.303713 223.62646 
L 142.780026 218.603621 
L 143.73265 232.341084 
L 144.208963 228.584004 
L 144.685275 219.493377 
L 145.161588 216.083406 
L 145.6379 216.159239 
L 146.114213 218.015817 
L 146.590525 216.086815 
L 147.066837 209.738637 
L 147.54315 205.659991 
L 148.019462 203.112709 
L 148.495775 201.994579 
L 148.972087 203.020432 
L 149.448399 206.614444 
L 149.924712 204.710507 
L 150.401024 206.766875 
L 150.877337 206.300253 
L 151.353649 204.109726 
L 151.829962 205.368359 
L 152.306274 201.80281 
L 152.782586 197.264763 
L 153.735211 196.337693 
L 154.211524 195.311329 
L 154.687836 197.652396 
L 155.164149 197.57943 
L 156.116773 188.430487 
L 156.593086 189.338646 
L 157.069398 185.676954 
L 157.545711 188.353718 
L 158.022023 189.626992 
L 158.498335 186.112553 
L 158.974648 184.03651 
L 159.45096 187.631266 
L 159.927273 187.373912 
L 160.403585 185.593711 
L 160.879898 184.977837 
L 161.35621 191.073682 
L 161.832522 198.634399 
L 162.308835 200.742245 
L 163.26146 185.543499 
L 164.214085 178.151602 
L 164.690397 179.429937 
L 165.166709 181.422842 
L 165.643022 178.046376 
L 166.119334 175.942697 
L 166.595647 178.677828 
L 167.071959 182.81976 
L 167.548271 181.513638 
L 168.500896 184.669121 
L 168.977209 185.450856 
L 169.453521 194.770109 
L 169.929834 195.00083 
L 170.406146 190.796371 
L 170.882458 184.399927 
L 171.358771 183.342786 
L 171.835083 186.02001 
L 172.311396 190.247128 
L 172.787708 189.950079 
L 173.26402 186.928767 
L 173.740333 178.335613 
L 174.216645 180.306899 
L 174.692958 180.457395 
L 175.16927 178.150217 
L 175.645583 175.202949 
L 176.121895 170.491822 
L 176.598207 172.715911 
L 177.07452 170.786395 
L 177.550832 174.354029 
L 178.97977 164.749838 
L 179.456082 167.588377 
L 179.932394 166.886474 
L 180.408707 165.963156 
L 180.885019 162.65795 
L 181.361332 157.378614 
L 181.837644 154.197652 
L 182.313956 153.248506 
L 182.790269 152.693852 
L 183.266581 151.047734 
L 183.742894 151.066557 
L 184.219206 145.433942 
L 184.695519 148.358095 
L 185.171831 149.357664 
L 185.648143 149.360233 
L 186.124456 147.961911 
L 186.600768 145.70156 
L 187.077081 142.147366 
L 187.553393 141.482171 
L 188.029706 147.450915 
L 188.506018 147.775628 
L 188.98233 145.885072 
L 189.458643 146.579903 
L 189.934955 146.399087 
L 190.411268 146.622958 
L 190.88758 148.22514 
L 191.840205 143.973301 
L 192.316517 143.710624 
L 192.79283 145.316518 
L 193.269142 146.023658 
L 193.745455 146.937431 
L 194.221767 145.395609 
L 194.698079 142.693406 
L 195.174392 141.515722 
L 195.650704 144.908415 
L 196.127017 144.608864 
L 196.603329 143.116218 
L 197.555954 139.352491 
L 198.032266 141.277215 
L 198.508579 141.242413 
L 198.984891 144.164951 
L 199.937516 142.494889 
L 200.413828 138.989468 
L 200.890141 138.997913 
L 201.366453 138.787173 
L 202.319078 136.346761 
L 202.795391 139.149301 
L 203.271703 139.569958 
L 203.748015 138.995545 
L 204.224328 139.37921 
L 204.70064 138.844549 
L 205.176953 138.841984 
L 206.60589 136.270143 
L 207.558515 137.38295 
L 208.034827 135.280598 
L 208.51114 136.211908 
L 208.987452 135.941821 
L 209.463764 135.395402 
L 209.940077 136.299572 
L 210.416389 137.680632 
L 210.892702 136.924638 
L 211.369014 135.242657 
L 211.845327 134.256956 
L 212.321639 133.528703 
L 212.797951 133.691644 
L 213.750576 136.42359 
L 214.226889 135.73387 
L 214.703201 134.329969 
L 215.179513 134.432033 
L 215.655826 134.741177 
L 216.132138 133.831103 
L 216.608451 133.711318 
L 217.084763 132.583309 
L 218.037388 136.890812 
L 219.466325 134.22907 
L 219.942638 134.588808 
L 220.41895 133.23767 
L 220.895262 135.796786 
L 221.371575 137.101872 
L 221.847887 136.223713 
L 222.3242 136.205761 
L 222.800512 137.256595 
L 223.276825 135.72805 
L 223.753137 135.125261 
L 224.705762 134.80674 
L 225.182074 136.873728 
L 225.658387 136.694413 
L 226.134699 136.688217 
L 226.611012 136.809419 
L 227.087324 137.930329 
L 227.563636 136.132914 
L 228.039949 136.570485 
L 228.516261 136.616759 
L 228.992574 135.14128 
L 229.468886 135.25777 
L 229.945198 135.042311 
L 230.421511 134.640011 
L 230.897823 134.383553 
L 231.850448 136.58465 
L 232.326761 137.125064 
L 232.803073 137.247388 
L 233.279385 136.818668 
L 233.755698 135.671206 
L 234.23201 133.345411 
L 234.708323 132.983837 
L 235.184635 132.96666 
L 235.660948 134.623912 
L 236.13726 134.676765 
L 236.613572 135.009837 
L 237.089885 135.845183 
L 238.04251 138.296992 
L 238.518822 138.921891 
L 239.471447 138.679117 
L 239.947759 137.150583 
L 240.424072 137.73158 
L 240.900384 139.028631 
L 241.376697 139.395732 
L 242.329321 139.245988 
L 242.805634 140.293888 
L 243.281946 141.801669 
L 244.234571 140.507815 
L 244.710883 140.860112 
L 245.187196 140.081717 
L 245.663508 139.883903 
L 246.139821 140.461403 
L 246.616133 141.51054 
L 247.092446 141.302299 
L 248.04507 141.403246 
L 248.521383 143.576589 
L 249.474008 168.293331 
L 249.95032 164.981083 
L 250.426633 160.654236 
L 250.902945 157.682529 
L 251.379257 155.481926 
L 251.85557 157.498808 
L 252.331882 158.49126 
L 252.808195 155.657366 
L 253.284507 155.167805 
L 254.237132 158.169242 
L 254.713444 160.280447 
L 255.189757 163.052621 
L 255.666069 159.876371 
L 256.142382 160.003548 
L 256.618694 163.165384 
L 257.095006 164.090158 
L 258.047631 158.886089 
L 258.523944 155.886729 
L 259.000256 155.650879 
L 259.476569 157.508688 
L 259.952881 157.182707 
L 260.429193 159.119077 
L 260.905506 159.38064 
L 261.858131 143.071352 
L 262.334443 143.353213 
L 262.810755 141.887768 
L 263.287068 141.151667 
L 263.76338 143.51518 
L 264.239693 144.43956 
L 264.716005 145.627524 
L 265.192318 145.028885 
L 265.66863 145.503519 
L 266.621255 147.820923 
L 267.097567 154.863967 
L 267.57388 155.666426 
L 268.050192 155.3129 
L 268.526504 155.580289 
L 269.002817 155.032352 
L 269.479129 155.50623 
L 269.955442 158.050138 
L 270.431754 156.78625 
L 270.908067 154.451149 
L 271.384379 153.699799 
L 271.860691 157.273966 
L 272.337004 157.303807 
L 272.813316 162.25651 
L 273.289629 163.069604 
L 273.765941 168.119813 
L 274.242254 171.100959 
L 274.718566 172.569871 
L 275.194878 172.947813 
L 275.671191 171.723635 
L 276.147503 171.268569 
L 276.623816 170.407951 
L 277.100128 172.287691 
L 277.57644 173.069591 
L 278.529065 186.437273 
L 279.005378 187.846823 
L 279.48169 185.128266 
L 279.958003 192.981083 
L 280.434315 192.374236 
L 280.910627 192.525792 
L 281.38694 193.427585 
L 281.863252 192.272397 
L 282.339565 188.970274 
L 282.815877 190.205809 
L 283.29219 189.916466 
L 283.768502 193.534093 
L 284.244814 193.873365 
L 284.721127 196.59519 
L 285.673752 204.992434 
L 286.150064 203.50905 
L 286.626376 200.418534 
L 287.102689 196.523177 
L 287.579001 195.347426 
L 288.055314 198.151184 
L 288.531626 196.452176 
L 289.007939 197.588433 
L 289.484251 196.889893 
L 289.960563 199.835075 
L 290.436876 195.73814 
L 290.913188 197.929085 
L 291.865813 196.342169 
L 292.342125 193.067255 
L 292.818438 193.900055 
L 293.29475 198.249728 
L 294.247375 195.717384 
L 294.723688 195.219505 
L 296.152625 198.275573 
L 296.628937 198.471133 
L 297.10525 197.964851 
L 297.581562 194.93279 
L 298.057875 198.14978 
L 298.534187 202.913832 
L 299.010499 204.452718 
L 299.963124 202.899758 
L 300.439437 202.624934 
L 300.915749 203.521729 
L 301.392061 209.052241 
L 301.868374 203.662528 
L 302.344686 201.291144 
L 302.820999 201.328153 
L 303.297311 210.212942 
L 303.773624 215.38856 
L 304.249936 216.640974 
L 304.726248 212.36896 
L 305.202561 209.134906 
L 305.678873 206.72276 
L 306.155186 210.533731 
L 307.584123 202.98598 
L 308.060435 203.200418 
L 308.536748 205.754817 
L 309.01306 206.115157 
L 309.489373 210.225154 
L 309.965685 208.482028 
L 310.441997 209.071195 
L 310.91831 212.405143 
L 311.394622 218.021939 
L 311.870935 213.273016 
L 312.347247 215.614266 
L 312.82356 213.11945 
L 313.299872 219.489525 
L 313.776184 221.320749 
L 314.252497 220.04886 
L 314.728809 215.400868 
L 315.205122 218.810436 
L 316.157746 210.96857 
L 316.634059 210.338864 
L 317.110371 209.904363 
L 317.586684 208.448835 
L 318.062996 212.320938 
L 318.539309 211.831805 
L 319.015621 211.920986 
L 319.491933 209.896219 
L 319.968246 207.204984 
L 320.444558 206.762396 
L 320.920871 209.546485 
L 321.397183 209.638833 
L 321.873496 205.172012 
L 322.349808 203.776633 
L 322.82612 201.163651 
L 323.302433 206.986305 
L 323.778745 208.030569 
L 324.255058 205.668867 
L 324.73137 205.913174 
L 325.207682 204.180533 
L 325.683995 194.475387 
L 326.160307 193.439125 
L 326.63662 190.830992 
L 327.589245 204.641456 
L 328.065557 208.538237 
L 328.541869 203.630102 
L 329.018182 201.755866 
L 329.494494 201.981584 
L 329.970807 198.546524 
L 330.447119 200.207762 
L 330.923431 198.780007 
L 331.399744 194.306661 
L 331.876056 194.812174 
L 332.352369 193.928027 
L 332.828681 192.317976 
L 333.304994 194.455327 
L 333.781306 192.088546 
L 334.257618 188.742369 
L 334.733931 192.50804 
L 335.210243 192.971148 
L 335.686556 189.840144 
L 336.162868 185.087182 
L 336.639181 184.643384 
L 337.115493 179.862756 
L 337.591805 177.634059 
L 338.068118 179.011423 
L 338.54443 177.965039 
L 339.020743 180.39924 
L 339.497055 174.408248 
L 339.973367 165.386962 
L 340.44968 159.978873 
L 340.925992 159.341283 
L 341.878617 171.509164 
L 342.35493 174.763977 
L 343.783867 167.086924 
L 344.260179 169.734939 
L 344.736492 168.724012 
L 345.212804 165.867906 
L 345.689117 171.670538 
L 346.165429 173.476326 
L 346.641741 172.170327 
L 347.118054 173.031375 
L 347.594366 172.491942 
L 348.070679 170.766678 
L 348.546991 175.188967 
L 349.023303 178.192021 
L 349.499616 180.061606 
L 349.975928 175.773784 
L 350.452241 172.896498 
L 350.928553 166.643018 
L 351.404866 170.676358 
L 351.881178 172.037545 
L 352.35749 168.811585 
L 352.833803 168.008201 
L 353.310115 172.335284 
L 353.786428 168.56223 
L 354.26274 168.094592 
L 354.739052 166.7698 
L 355.215365 161.453664 
L 355.691677 159.991553 
L 356.16799 159.410042 
L 356.644302 162.297899 
L 357.120615 164.065076 
L 357.596927 162.403012 
L 358.073239 152.55629 
L 358.549552 150.110021 
L 359.025864 153.246223 
L 359.502177 151.64405 
L 359.978489 153.058626 
L 360.454802 153.67018 
L 360.931114 149.955782 
L 361.407426 145.136206 
L 362.360051 144.329875 
L 362.836364 143.068465 
L 363.312676 142.649124 
L 363.788988 140.791792 
L 364.265301 142.413993 
L 364.741613 141.42619 
L 365.217926 139.707301 
L 365.694238 138.731674 
L 366.170551 138.203625 
L 366.646863 133.612967 
L 367.123175 132.638267 
L 367.599488 132.611174 
L 368.0758 133.604635 
L 368.552113 134.134585 
L 369.028425 135.193629 
L 369.504738 134.316103 
L 369.98105 133.722313 
L 370.457362 133.784492 
L 370.933675 132.970726 
L 371.409987 132.966393 
L 372.838924 129.571308 
L 373.315237 128.703982 
L 373.791549 128.786698 
L 374.267862 130.261436 
L 374.744174 130.905542 
L 375.696799 130.629014 
L 376.173111 130.449584 
L 376.649424 130.042066 
L 377.125736 129.448409 
L 377.602049 130.46303 
L 378.078361 129.209712 
L 378.554673 129.60308 
L 379.030986 129.368365 
L 379.507298 129.63381 
L 379.983611 130.776887 
L 380.459923 129.796225 
L 380.936236 140.739705 
L 381.412548 141.194445 
L 381.88886 139.830479 
L 382.365173 139.148418 
L 382.841485 136.508608 
L 383.317798 136.274027 
L 383.79411 137.353594 
L 384.270423 137.16624 
L 384.746735 138.096301 
L 385.223047 137.720541 
L 385.69936 141.306477 
L 386.175672 139.217276 
L 386.651985 142.948806 
L 387.128297 142.878443 
L 387.604609 140.322414 
L 388.080922 138.668294 
L 388.557234 139.74162 
L 389.033547 140.112328 
L 389.509859 139.135832 
L 389.986172 138.545426 
L 390.462484 139.849946 
L 390.938796 140.604019 
L 391.415109 139.497732 
L 391.891421 141.801854 
L 392.367734 142.555889 
L 392.844046 144.1148 
L 393.320359 136.966945 
L 393.796671 141.21591 
L 394.272983 140.573381 
L 394.749296 139.506115 
L 395.225608 139.523944 
L 395.701921 137.380617 
L 396.178233 139.513054 
L 396.654545 140.981073 
L 397.130858 140.804592 
L 397.60717 142.061908 
L 398.559795 143.394131 
L 399.036108 142.860234 
L 399.51242 144.587766 
L 399.988732 142.095167 
L 400.465045 142.277335 
L 400.941357 142.110474 
L 401.893982 143.541651 
L 402.370294 148.34133 
L 403.322919 162.008581 
L 403.799232 161.429412 
L 404.275544 156.470121 
L 405.228169 154.330867 
L 405.704481 154.282192 
L 406.180794 150.295584 
L 406.657106 148.869981 
L 407.133419 148.497602 
L 407.609731 152.352965 
L 408.086044 152.812188 
L 408.562356 152.490732 
L 409.038668 154.87279 
L 409.514981 153.851572 
L 409.991293 153.478574 
L 410.467606 156.818852 
L 410.943918 156.087407 
L 411.42023 153.059041 
L 411.896543 150.761329 
L 412.372855 151.946596 
L 412.849168 150.992881 
L 413.32548 154.705764 
L 414.278105 156.872776 
L 414.754417 154.346426 
L 415.707042 141.74279 
L 416.183355 140.012336 
L 416.659667 140.84473 
L 417.13598 139.994447 
L 417.612292 142.959495 
L 418.088604 142.724337 
L 418.564917 146.505035 
L 419.041229 158.602844 
L 419.517542 158.58701 
L 419.993854 153.502091 
L 420.470166 158.919434 
L 420.946479 169.118843 
L 421.422791 167.4752 
L 421.899104 165.301424 
L 422.375416 161.087134 
L 422.851729 169.719311 
L 423.328041 172.464312 
L 423.804353 173.713542 
L 424.280666 169.840799 
L 424.756978 169.191739 
L 425.233291 170.584379 
L 425.709603 170.110959 
L 426.185915 169.147201 
L 426.662228 174.057712 
L 427.13854 170.363791 
L 428.091165 166.928039 
L 428.567478 171.085006 
L 429.04379 170.757414 
L 429.520102 166.011812 
L 429.996415 166.65193 
L 430.472727 169.499272 
L 430.94904 170.773042 
L 431.425352 160.089503 
L 431.901665 160.218647 
L 432.377977 158.649904 
L 432.854289 156.452273 
L 433.330602 145.421723 
L 433.806914 146.645299 
L 434.283227 147.102121 
L 434.759539 147.723633 
L 435.235851 138.288411 
L 435.712164 137.627113 
L 436.188476 138.192246 
L 437.141101 136.634765 
L 437.617414 136.424204 
L 438.093726 137.237776 
L 439.046351 137.985289 
L 440.475288 135.116921 
L 440.951601 135.041682 
L 441.427913 134.349656 
L 441.904225 135.512552 
L 442.380538 135.332405 
L 443.333163 133.337193 
L 443.809475 134.200295 
L 444.285787 133.621454 
L 444.7621 134.551731 
L 445.238412 135.226108 
L 446.191037 145.262421 
L 446.66735 143.460136 
L 447.143662 141.143659 
L 447.619974 139.989814 
L 448.096287 139.924759 
L 448.572599 141.162952 
L 449.048912 142.057798 
L 449.525224 141.858471 
L 450.001536 142.924883 
L 450.477849 142.440557 
L 450.954161 141.616386 
L 451.430474 142.404511 
L 451.906786 144.388696 
L 452.383099 142.015503 
L 452.859411 143.052516 
L 453.335723 145.226493 
L 453.812036 146.610868 
L 454.288348 145.719183 
L 454.764661 145.147764 
L 455.240973 143.098716 
L 455.717286 144.445902 
L 456.193598 145.233554 
L 456.66991 145.150592 
L 457.146223 148.346916 
L 457.622535 149.247968 
L 458.57516 141.201695 
L 459.527785 149.947287 
L 460.004097 151.686592 
L 460.48041 158.532879 
L 460.956722 159.258981 
L 461.433035 163.670578 
L 461.909347 164.010087 
L 462.385659 168.293822 
L 462.861972 174.109998 
L 463.814597 172.456354 
L 464.290909 172.383009 
L 464.767222 170.886801 
L 465.243534 175.180764 
L 465.719846 174.474711 
L 466.196159 182.725229 
L 466.672471 181.940452 
L 467.148784 183.579743 
L 468.101408 182.701246 
L 468.577721 186.088434 
L 469.054033 187.838937 
L 469.530346 185.699125 
L 470.006658 185.30124 
L 470.482971 187.158342 
L 470.959283 186.970412 
L 471.435595 186.938362 
L 471.911908 184.494584 
L 472.38822 188.72864 
L 472.864533 187.343236 
L 473.340845 195.024654 
L 473.817157 191.833571 
L 474.29347 190.779736 
L 475.246095 180.862049 
L 475.722407 180.230399 
L 476.19872 181.267883 
L 476.675032 177.825203 
L 477.151344 180.06982 
L 477.627657 181.251074 
L 478.103969 183.31671 
L 478.580282 179.458892 
L 479.056594 181.525964 
L 479.532907 180.43195 
L 480.009219 187.715924 
L 480.485531 197.234995 
L 480.961844 203.716836 
L 481.438156 208.292733 
L 482.390781 213.689163 
L 483.343406 223.68728 
L 483.819718 219.781636 
L 484.296031 222.491452 
L 484.772343 221.497951 
L 485.248656 217.438681 
L 485.724968 215.534557 
L 486.20128 216.03614 
L 486.677593 216.822909 
L 487.153905 224.51311 
L 487.630218 226.983058 
L 488.10653 232.892269 
L 488.582843 241.423135 
L 489.059155 244.365886 
L 489.535467 239.876263 
L 490.01178 240.214212 
L 490.488092 237.419649 
L 490.964405 238.227167 
L 491.440717 240.187022 
L 491.917029 239.320286 
L 492.393342 233.284623 
L 492.869654 231.906204 
L 493.345967 229.373174 
L 493.822279 227.5264 
L 494.298592 234.432046 
L 494.774904 231.328531 
L 495.251216 225.776162 
L 496.203841 230.624819 
L 497.156466 226.977494 
L 497.632778 218.990664 
L 498.109091 215.415699 
L 498.109091 215.415699 
" clip-path="url(#pb9e8aad3ea)" style="fill: none; stroke: #ff7f0e; stroke-width: 1.5; stroke-linecap: round"/>
   </g>
   <g id="patch_3">
    <path d="M 72 384.48 
L 72 51.84 
" style="fill: none; stroke: #ffffff; stroke-width: 0.8; stroke-linejoin: miter; stroke-linecap: square"/>
   </g>
   <g id="patch_4">
    <path d="M 518.4 384.48 
L 518.4 51.84 
" style="fill: none; stroke: #ffffff; stroke-width: 0.8; stroke-linejoin: miter; stroke-linecap: square"/>
   </g>
   <g id="patch_5">
    <path d="M 72 384.48 
L 518.4 384.48 
" style="fill: none; stroke: #ffffff; stroke-width: 0.8; stroke-linejoin: miter; stroke-linecap: square"/>
   </g>
   <g id="patch_6">
    <path d="M 72 51.84 
L 518.4 51.84 
" style="fill: none; stroke: #ffffff; stroke-width: 0.8; stroke-linejoin: miter; stroke-linecap: square"/>
   </g>
   <g id="text_15">
    <!-- Average Temperature Prediction 5 Days Ahead -->
    <g style="fill: #262626" transform="translate(170.348437 45.84) scale(0.12 -0.12)">
     <defs>
      <path id="ArialMT-41" d="M -9 0 
L 1750 4581 
L 2403 4581 
L 4278 0 
L 3588 0 
L 3053 1388 
L 1138 1388 
L 634 0 
L -9 0 
z
M 1313 1881 
L 2866 1881 
L 2388 3150 
Q 2169 3728 2063 4100 
Q 1975 3659 1816 3225 
L 1313 1881 
z
" transform="scale(0.015625)"/>
      <path id="ArialMT-76" d="M 1344 0 
L 81 3319 
L 675 3319 
L 1388 1331 
Q 1503 1009 1600 663 
Q 1675 925 1809 1294 
L 2547 3319 
L 3125 3319 
L 1869 0 
L 1344 0 
z
" transform="scale(0.015625)"/>
      <path id="ArialMT-65" d="M 2694 1069 
L 3275 997 
Q 3138 488 2766 206 
Q 2394 -75 1816 -75 
Q 1088 -75 661 373 
Q 234 822 234 1631 
Q 234 2469 665 2931 
Q 1097 3394 1784 3394 
Q 2450 3394 2872 2941 
Q 3294 2488 3294 1666 
Q 3294 1616 3291 1516 
L 816 1516 
Q 847 969 1125 678 
Q 1403 388 1819 388 
Q 2128 388 2347 550 
Q 2566 713 2694 1069 
z
M 847 1978 
L 2700 1978 
Q 2663 2397 2488 2606 
Q 2219 2931 1791 2931 
Q 1403 2931 1139 2672 
Q 875 2413 847 1978 
z
" transform="scale(0.015625)"/>
      <path id="ArialMT-72" d="M 416 0 
L 416 3319 
L 922 3319 
L 922 2816 
Q 1116 3169 1280 3281 
Q 1444 3394 1641 3394 
Q 1925 3394 2219 3213 
L 2025 2691 
Q 1819 2813 1613 2813 
Q 1428 2813 1281 2702 
Q 1134 2591 1072 2394 
Q 978 2094 978 1738 
L 978 0 
L 416 0 
z
" transform="scale(0.015625)"/>
      <path id="ArialMT-67" d="M 319 -275 
L 866 -356 
Q 900 -609 1056 -725 
Q 1266 -881 1628 -881 
Q 2019 -881 2231 -725 
Q 2444 -569 2519 -288 
Q 2563 -116 2559 434 
Q 2191 0 1641 0 
Q 956 0 581 494 
Q 206 988 206 1678 
Q 206 2153 378 2554 
Q 550 2956 876 3175 
Q 1203 3394 1644 3394 
Q 2231 3394 2613 2919 
L 2613 3319 
L 3131 3319 
L 3131 450 
Q 3131 -325 2973 -648 
Q 2816 -972 2473 -1159 
Q 2131 -1347 1631 -1347 
Q 1038 -1347 672 -1080 
Q 306 -813 319 -275 
z
M 784 1719 
Q 784 1066 1043 766 
Q 1303 466 1694 466 
Q 2081 466 2343 764 
Q 2606 1063 2606 1700 
Q 2606 2309 2336 2618 
Q 2066 2928 1684 2928 
Q 1309 2928 1046 2623 
Q 784 2319 784 1719 
z
" transform="scale(0.015625)"/>
      <path id="ArialMT-20" transform="scale(0.015625)"/>
      <path id="ArialMT-54" d="M 1659 0 
L 1659 4041 
L 150 4041 
L 150 4581 
L 3781 4581 
L 3781 4041 
L 2266 4041 
L 2266 0 
L 1659 0 
z
" transform="scale(0.015625)"/>
      <path id="ArialMT-6d" d="M 422 0 
L 422 3319 
L 925 3319 
L 925 2853 
Q 1081 3097 1340 3245 
Q 1600 3394 1931 3394 
Q 2300 3394 2536 3241 
Q 2772 3088 2869 2813 
Q 3263 3394 3894 3394 
Q 4388 3394 4653 3120 
Q 4919 2847 4919 2278 
L 4919 0 
L 4359 0 
L 4359 2091 
Q 4359 2428 4304 2576 
Q 4250 2725 4106 2815 
Q 3963 2906 3769 2906 
Q 3419 2906 3187 2673 
Q 2956 2441 2956 1928 
L 2956 0 
L 2394 0 
L 2394 2156 
Q 2394 2531 2256 2718 
Q 2119 2906 1806 2906 
Q 1569 2906 1367 2781 
Q 1166 2656 1075 2415 
Q 984 2175 984 1722 
L 984 0 
L 422 0 
z
" transform="scale(0.015625)"/>
      <path id="ArialMT-70" d="M 422 -1272 
L 422 3319 
L 934 3319 
L 934 2888 
Q 1116 3141 1344 3267 
Q 1572 3394 1897 3394 
Q 2322 3394 2647 3175 
Q 2972 2956 3137 2557 
Q 3303 2159 3303 1684 
Q 3303 1175 3120 767 
Q 2938 359 2589 142 
Q 2241 -75 1856 -75 
Q 1575 -75 1351 44 
Q 1128 163 984 344 
L 984 -1272 
L 422 -1272 
z
M 931 1641 
Q 931 1000 1190 694 
Q 1450 388 1819 388 
Q 2194 388 2461 705 
Q 2728 1022 2728 1688 
Q 2728 2322 2467 2637 
Q 2206 2953 1844 2953 
Q 1484 2953 1207 2617 
Q 931 2281 931 1641 
z
" transform="scale(0.015625)"/>
      <path id="ArialMT-74" d="M 1650 503 
L 1731 6 
Q 1494 -44 1306 -44 
Q 1000 -44 831 53 
Q 663 150 594 308 
Q 525 466 525 972 
L 525 2881 
L 113 2881 
L 113 3319 
L 525 3319 
L 525 4141 
L 1084 4478 
L 1084 3319 
L 1650 3319 
L 1650 2881 
L 1084 2881 
L 1084 941 
Q 1084 700 1114 631 
Q 1144 563 1211 522 
Q 1278 481 1403 481 
Q 1497 481 1650 503 
z
" transform="scale(0.015625)"/>
      <path id="ArialMT-75" d="M 2597 0 
L 2597 488 
Q 2209 -75 1544 -75 
Q 1250 -75 995 37 
Q 741 150 617 320 
Q 494 491 444 738 
Q 409 903 409 1263 
L 409 3319 
L 972 3319 
L 972 1478 
Q 972 1038 1006 884 
Q 1059 663 1231 536 
Q 1403 409 1656 409 
Q 1909 409 2131 539 
Q 2353 669 2445 892 
Q 2538 1116 2538 1541 
L 2538 3319 
L 3100 3319 
L 3100 0 
L 2597 0 
z
" transform="scale(0.015625)"/>
      <path id="ArialMT-50" d="M 494 0 
L 494 4581 
L 2222 4581 
Q 2678 4581 2919 4538 
Q 3256 4481 3484 4323 
Q 3713 4166 3852 3881 
Q 3991 3597 3991 3256 
Q 3991 2672 3619 2267 
Q 3247 1863 2275 1863 
L 1100 1863 
L 1100 0 
L 494 0 
z
M 1100 2403 
L 2284 2403 
Q 2872 2403 3119 2622 
Q 3366 2841 3366 3238 
Q 3366 3525 3220 3729 
Q 3075 3934 2838 4000 
Q 2684 4041 2272 4041 
L 1100 4041 
L 1100 2403 
z
" transform="scale(0.015625)"/>
      <path id="ArialMT-64" d="M 2575 0 
L 2575 419 
Q 2259 -75 1647 -75 
Q 1250 -75 917 144 
Q 584 363 401 755 
Q 219 1147 219 1656 
Q 219 2153 384 2558 
Q 550 2963 881 3178 
Q 1213 3394 1622 3394 
Q 1922 3394 2156 3267 
Q 2391 3141 2538 2938 
L 2538 4581 
L 3097 4581 
L 3097 0 
L 2575 0 
z
M 797 1656 
Q 797 1019 1065 703 
Q 1334 388 1700 388 
Q 2069 388 2326 689 
Q 2584 991 2584 1609 
Q 2584 2291 2321 2609 
Q 2059 2928 1675 2928 
Q 1300 2928 1048 2622 
Q 797 2316 797 1656 
z
" transform="scale(0.015625)"/>
      <path id="ArialMT-69" d="M 425 3934 
L 425 4581 
L 988 4581 
L 988 3934 
L 425 3934 
z
M 425 0 
L 425 3319 
L 988 3319 
L 988 0 
L 425 0 
z
" transform="scale(0.015625)"/>
      <path id="ArialMT-63" d="M 2588 1216 
L 3141 1144 
Q 3050 572 2676 248 
Q 2303 -75 1759 -75 
Q 1078 -75 664 370 
Q 250 816 250 1647 
Q 250 2184 428 2587 
Q 606 2991 970 3192 
Q 1334 3394 1763 3394 
Q 2303 3394 2647 3120 
Q 2991 2847 3088 2344 
L 2541 2259 
Q 2463 2594 2264 2762 
Q 2066 2931 1784 2931 
Q 1359 2931 1093 2626 
Q 828 2322 828 1663 
Q 828 994 1084 691 
Q 1341 388 1753 388 
Q 2084 388 2306 591 
Q 2528 794 2588 1216 
z
" transform="scale(0.015625)"/>
      <path id="ArialMT-6f" d="M 213 1659 
Q 213 2581 725 3025 
Q 1153 3394 1769 3394 
Q 2453 3394 2887 2945 
Q 3322 2497 3322 1706 
Q 3322 1066 3130 698 
Q 2938 331 2570 128 
Q 2203 -75 1769 -75 
Q 1072 -75 642 372 
Q 213 819 213 1659 
z
M 791 1659 
Q 791 1022 1069 705 
Q 1347 388 1769 388 
Q 2188 388 2466 706 
Q 2744 1025 2744 1678 
Q 2744 2294 2464 2611 
Q 2184 2928 1769 2928 
Q 1347 2928 1069 2612 
Q 791 2297 791 1659 
z
" transform="scale(0.015625)"/>
      <path id="ArialMT-6e" d="M 422 0 
L 422 3319 
L 928 3319 
L 928 2847 
Q 1294 3394 1984 3394 
Q 2284 3394 2536 3286 
Q 2788 3178 2913 3003 
Q 3038 2828 3088 2588 
Q 3119 2431 3119 2041 
L 3119 0 
L 2556 0 
L 2556 2019 
Q 2556 2363 2490 2533 
Q 2425 2703 2258 2804 
Q 2091 2906 1866 2906 
Q 1506 2906 1245 2678 
Q 984 2450 984 1813 
L 984 0 
L 422 0 
z
" transform="scale(0.015625)"/>
      <path id="ArialMT-68" d="M 422 0 
L 422 4581 
L 984 4581 
L 984 2938 
Q 1378 3394 1978 3394 
Q 2347 3394 2619 3248 
Q 2891 3103 3008 2847 
Q 3125 2591 3125 2103 
L 3125 0 
L 2563 0 
L 2563 2103 
Q 2563 2525 2380 2717 
Q 2197 2909 1863 2909 
Q 1613 2909 1392 2779 
Q 1172 2650 1078 2428 
Q 984 2206 984 1816 
L 984 0 
L 422 0 
z
" transform="scale(0.015625)"/>
     </defs>
     <use xlink:href="#ArialMT-41"/>
     <use xlink:href="#ArialMT-76" x="64.949219"/>
     <use xlink:href="#ArialMT-65" x="114.949219"/>
     <use xlink:href="#ArialMT-72" x="170.564453"/>
     <use xlink:href="#ArialMT-61" x="203.865234"/>
     <use xlink:href="#ArialMT-67" x="259.480469"/>
     <use xlink:href="#ArialMT-65" x="315.095703"/>
     <use xlink:href="#ArialMT-20" x="370.710938"/>
     <use xlink:href="#ArialMT-54" x="396.744141"/>
     <use xlink:href="#ArialMT-65" x="446.703125"/>
     <use xlink:href="#ArialMT-6d" x="502.318359"/>
     <use xlink:href="#ArialMT-70" x="585.619141"/>
     <use xlink:href="#ArialMT-65" x="641.234375"/>
     <use xlink:href="#ArialMT-72" x="696.849609"/>
     <use xlink:href="#ArialMT-61" x="730.150391"/>
     <use xlink:href="#ArialMT-74" x="785.765625"/>
     <use xlink:href="#ArialMT-75" x="813.548828"/>
     <use xlink:href="#ArialMT-72" x="869.164062"/>
     <use xlink:href="#ArialMT-65" x="902.464844"/>
     <use xlink:href="#ArialMT-20" x="958.080078"/>
     <use xlink:href="#ArialMT-50" x="985.863281"/>
     <use xlink:href="#ArialMT-72" x="1052.5625"/>
     <use xlink:href="#ArialMT-65" x="1085.863281"/>
     <use xlink:href="#ArialMT-64" x="1141.478516"/>
     <use xlink:href="#ArialMT-69" x="1197.09375"/>
     <use xlink:href="#ArialMT-63" x="1219.310547"/>
     <use xlink:href="#ArialMT-74" x="1269.310547"/>
     <use xlink:href="#ArialMT-69" x="1297.09375"/>
     <use xlink:href="#ArialMT-6f" x="1319.310547"/>
     <use xlink:href="#ArialMT-6e" x="1374.925781"/>
     <use xlink:href="#ArialMT-20" x="1430.541016"/>
     <use xlink:href="#ArialMT-35" x="1458.324219"/>
     <use xlink:href="#ArialMT-20" x="1513.939453"/>
     <use xlink:href="#ArialMT-44" x="1541.722656"/>
     <use xlink:href="#ArialMT-61" x="1613.939453"/>
     <use xlink:href="#ArialMT-79" x="1669.554688"/>
     <use xlink:href="#ArialMT-73" x="1719.554688"/>
     <use xlink:href="#ArialMT-20" x="1769.554688"/>
     <use xlink:href="#ArialMT-41" x="1791.837891"/>
     <use xlink:href="#ArialMT-68" x="1858.537109"/>
     <use xlink:href="#ArialMT-65" x="1914.152344"/>
     <use xlink:href="#ArialMT-61" x="1969.767578"/>
     <use xlink:href="#ArialMT-64" x="2025.382812"/>
    </g>
   </g>
   <g id="legend_1">
    <g id="patch_7">
     <path d="M 437.15625 88.130625 
L 511.4 88.130625 
Q 513.4 88.130625 513.4 86.130625 
L 513.4 58.84 
Q 513.4 56.84 511.4 56.84 
L 437.15625 56.84 
Q 435.15625 56.84 435.15625 58.84 
L 435.15625 86.130625 
Q 435.15625 88.130625 437.15625 88.130625 
z
" style="fill: #eaeaf2; opacity: 0.8; stroke: #cccccc; stroke-linejoin: miter"/>
    </g>
    <g id="line2d_15">
     <path d="M 439.15625 64.497812 
L 449.15625 64.497812 
L 459.15625 64.497812 
" style="fill: none; stroke: #1f77b4; stroke-width: 1.5; stroke-linecap: round"/>
    </g>
    <g id="text_16">
     <!-- Real -->
     <g style="fill: #262626" transform="translate(467.15625 67.997812) scale(0.1 -0.1)">
      <defs>
       <path id="ArialMT-52" d="M 503 0 
L 503 4581 
L 2534 4581 
Q 3147 4581 3465 4457 
Q 3784 4334 3975 4021 
Q 4166 3709 4166 3331 
Q 4166 2844 3850 2509 
Q 3534 2175 2875 2084 
Q 3116 1969 3241 1856 
Q 3506 1613 3744 1247 
L 4541 0 
L 3778 0 
L 3172 953 
Q 2906 1366 2734 1584 
Q 2563 1803 2427 1890 
Q 2291 1978 2150 2013 
Q 2047 2034 1813 2034 
L 1109 2034 
L 1109 0 
L 503 0 
z
M 1109 2559 
L 2413 2559 
Q 2828 2559 3062 2645 
Q 3297 2731 3419 2920 
Q 3541 3109 3541 3331 
Q 3541 3656 3305 3865 
Q 3069 4075 2559 4075 
L 1109 4075 
L 1109 2559 
z
" transform="scale(0.015625)"/>
       <path id="ArialMT-6c" d="M 409 0 
L 409 4581 
L 972 4581 
L 972 0 
L 409 0 
z
" transform="scale(0.015625)"/>
      </defs>
      <use xlink:href="#ArialMT-52"/>
      <use xlink:href="#ArialMT-65" x="72.216797"/>
      <use xlink:href="#ArialMT-61" x="127.832031"/>
      <use xlink:href="#ArialMT-6c" x="183.447266"/>
     </g>
    </g>
    <g id="line2d_16">
     <path d="M 439.15625 78.643125 
L 449.15625 78.643125 
L 459.15625 78.643125 
" style="fill: none; stroke: #ff7f0e; stroke-width: 1.5; stroke-linecap: round"/>
    </g>
    <g id="text_17">
     <!-- Predicted -->
     <g style="fill: #262626" transform="translate(467.15625 82.143125) scale(0.1 -0.1)">
      <use xlink:href="#ArialMT-50"/>
      <use xlink:href="#ArialMT-72" x="66.699219"/>
      <use xlink:href="#ArialMT-65" x="100"/>
      <use xlink:href="#ArialMT-64" x="155.615234"/>
      <use xlink:href="#ArialMT-69" x="211.230469"/>
      <use xlink:href="#ArialMT-63" x="233.447266"/>
      <use xlink:href="#ArialMT-74" x="283.447266"/>
      <use xlink:href="#ArialMT-65" x="311.230469"/>
      <use xlink:href="#ArialMT-64" x="366.845703"/>
     </g>
    </g>
   </g>
  </g>
 </g>
 <defs>
  <clipPath id="pb9e8aad3ea">
   <rect x="72" y="51.84" width="446.4" height="332.64"/>
  </clipPath>
 </defs>
</svg>
