<?xml version="1.0" encoding="utf-8" standalone="no"?>
<!DOCTYPE svg PUBLIC "-//W3C//DTD SVG 1.1//EN"
  "http://www.w3.org/Graphics/SVG/1.1/DTD/svg11.dtd">
<svg xmlns:xlink="http://www.w3.org/1999/xlink" width="576pt" height="432pt" viewBox="0 0 576 432" xmlns="http://www.w3.org/2000/svg" version="1.1">
 <metadata>
  <rdf:RDF xmlns:dc="http://purl.org/dc/elements/1.1/" xmlns:cc="http://creativecommons.org/ns#" xmlns:rdf="http://www.w3.org/1999/02/22-rdf-syntax-ns#">
   <cc:Work>
    <dc:type rdf:resource="http://purl.org/dc/dcmitype/StillImage"/>
    <dc:date>2023-11-17T05:15:26.544256</dc:date>
    <dc:format>image/svg+xml</dc:format>
    <dc:creator>
     <cc:Agent>
      <dc:title>Matplotlib v3.8.0, https://matplotlib.org/</dc:title>
     </cc:Agent>
    </dc:creator>
   </cc:Work>
  </rdf:RDF>
 </metadata>
 <defs>
  <style type="text/css">*{stroke-linejoin: round; stroke-linecap: butt}</style>
 </defs>
 <g id="figure_1">
  <g id="patch_1">
   <path d="M 0 432 
L 576 432 
L 576 0 
L 0 0 
z
" style="fill: #ffffff"/>
  </g>
  <g id="axes_1">
   <g id="patch_2">
    <path d="M 72 384.48 
L 518.4 384.48 
L 518.4 51.84 
L 72 51.84 
z
" style="fill: #eaeaf2"/>
   </g>
   <g id="matplotlib.axis_1">
    <g id="xtick_1">
     <g id="line2d_1">
      <path d="M 92.290909 384.48 
L 92.290909 51.84 
" clip-path="url(#pa10e53239e)" style="fill: none; stroke: #ffffff; stroke-width: 0.8; stroke-linecap: round"/>
     </g>
     <g id="text_1">
      <!-- 0 -->
      <g style="fill: #262626" transform="translate(89.51044 398.637812) scale(0.1 -0.1)">
       <defs>
        <path id="ArialMT-30" d="M 266 2259 
Q 266 3072 433 3567 
Q 600 4063 929 4331 
Q 1259 4600 1759 4600 
Q 2128 4600 2406 4451 
Q 2684 4303 2865 4023 
Q 3047 3744 3150 3342 
Q 3253 2941 3253 2259 
Q 3253 1453 3087 958 
Q 2922 463 2592 192 
Q 2263 -78 1759 -78 
Q 1097 -78 719 397 
Q 266 969 266 2259 
z
M 844 2259 
Q 844 1131 1108 757 
Q 1372 384 1759 384 
Q 2147 384 2411 759 
Q 2675 1134 2675 2259 
Q 2675 3391 2411 3762 
Q 2147 4134 1753 4134 
Q 1366 4134 1134 3806 
Q 844 3388 844 2259 
z
" transform="scale(0.015625)"/>
       </defs>
       <use xlink:href="#ArialMT-30"/>
      </g>
     </g>
    </g>
    <g id="xtick_2">
     <g id="line2d_2">
      <path d="M 185.905253 384.48 
L 185.905253 51.84 
" clip-path="url(#pa10e53239e)" style="fill: none; stroke: #ffffff; stroke-width: 0.8; stroke-linecap: round"/>
     </g>
     <g id="text_2">
      <!-- 200 -->
      <g style="fill: #262626" transform="translate(177.563847 398.637812) scale(0.1 -0.1)">
       <defs>
        <path id="ArialMT-32" d="M 3222 541 
L 3222 0 
L 194 0 
Q 188 203 259 391 
Q 375 700 629 1000 
Q 884 1300 1366 1694 
Q 2113 2306 2375 2664 
Q 2638 3022 2638 3341 
Q 2638 3675 2398 3904 
Q 2159 4134 1775 4134 
Q 1369 4134 1125 3890 
Q 881 3647 878 3216 
L 300 3275 
Q 359 3922 746 4261 
Q 1134 4600 1788 4600 
Q 2447 4600 2831 4234 
Q 3216 3869 3216 3328 
Q 3216 3053 3103 2787 
Q 2991 2522 2730 2228 
Q 2469 1934 1863 1422 
Q 1356 997 1212 845 
Q 1069 694 975 541 
L 3222 541 
z
" transform="scale(0.015625)"/>
       </defs>
       <use xlink:href="#ArialMT-32"/>
       <use xlink:href="#ArialMT-30" x="55.615234"/>
       <use xlink:href="#ArialMT-30" x="111.230469"/>
      </g>
     </g>
    </g>
    <g id="xtick_3">
     <g id="line2d_3">
      <path d="M 279.519597 384.48 
L 279.519597 51.84 
" clip-path="url(#pa10e53239e)" style="fill: none; stroke: #ffffff; stroke-width: 0.8; stroke-linecap: round"/>
     </g>
     <g id="text_3">
      <!-- 400 -->
      <g style="fill: #262626" transform="translate(271.178191 398.637812) scale(0.1 -0.1)">
       <defs>
        <path id="ArialMT-34" d="M 2069 0 
L 2069 1097 
L 81 1097 
L 81 1613 
L 2172 4581 
L 2631 4581 
L 2631 1613 
L 3250 1613 
L 3250 1097 
L 2631 1097 
L 2631 0 
L 2069 0 
z
M 2069 1613 
L 2069 3678 
L 634 1613 
L 2069 1613 
z
" transform="scale(0.015625)"/>
       </defs>
       <use xlink:href="#ArialMT-34"/>
       <use xlink:href="#ArialMT-30" x="55.615234"/>
       <use xlink:href="#ArialMT-30" x="111.230469"/>
      </g>
     </g>
    </g>
    <g id="xtick_4">
     <g id="line2d_4">
      <path d="M 373.133941 384.48 
L 373.133941 51.84 
" clip-path="url(#pa10e53239e)" style="fill: none; stroke: #ffffff; stroke-width: 0.8; stroke-linecap: round"/>
     </g>
     <g id="text_4">
      <!-- 600 -->
      <g style="fill: #262626" transform="translate(364.792535 398.637812) scale(0.1 -0.1)">
       <defs>
        <path id="ArialMT-36" d="M 3184 3459 
L 2625 3416 
Q 2550 3747 2413 3897 
Q 2184 4138 1850 4138 
Q 1581 4138 1378 3988 
Q 1113 3794 959 3422 
Q 806 3050 800 2363 
Q 1003 2672 1297 2822 
Q 1591 2972 1913 2972 
Q 2475 2972 2870 2558 
Q 3266 2144 3266 1488 
Q 3266 1056 3080 686 
Q 2894 316 2569 119 
Q 2244 -78 1831 -78 
Q 1128 -78 684 439 
Q 241 956 241 2144 
Q 241 3472 731 4075 
Q 1159 4600 1884 4600 
Q 2425 4600 2770 4297 
Q 3116 3994 3184 3459 
z
M 888 1484 
Q 888 1194 1011 928 
Q 1134 663 1356 523 
Q 1578 384 1822 384 
Q 2178 384 2434 671 
Q 2691 959 2691 1453 
Q 2691 1928 2437 2201 
Q 2184 2475 1800 2475 
Q 1419 2475 1153 2201 
Q 888 1928 888 1484 
z
" transform="scale(0.015625)"/>
       </defs>
       <use xlink:href="#ArialMT-36"/>
       <use xlink:href="#ArialMT-30" x="55.615234"/>
       <use xlink:href="#ArialMT-30" x="111.230469"/>
      </g>
     </g>
    </g>
    <g id="xtick_5">
     <g id="line2d_5">
      <path d="M 466.748286 384.48 
L 466.748286 51.84 
" clip-path="url(#pa10e53239e)" style="fill: none; stroke: #ffffff; stroke-width: 0.8; stroke-linecap: round"/>
     </g>
     <g id="text_5">
      <!-- 800 -->
      <g style="fill: #262626" transform="translate(458.406879 398.637812) scale(0.1 -0.1)">
       <defs>
        <path id="ArialMT-38" d="M 1131 2484 
Q 781 2613 612 2850 
Q 444 3088 444 3419 
Q 444 3919 803 4259 
Q 1163 4600 1759 4600 
Q 2359 4600 2725 4251 
Q 3091 3903 3091 3403 
Q 3091 3084 2923 2848 
Q 2756 2613 2416 2484 
Q 2838 2347 3058 2040 
Q 3278 1734 3278 1309 
Q 3278 722 2862 322 
Q 2447 -78 1769 -78 
Q 1091 -78 675 323 
Q 259 725 259 1325 
Q 259 1772 486 2073 
Q 713 2375 1131 2484 
z
M 1019 3438 
Q 1019 3113 1228 2906 
Q 1438 2700 1772 2700 
Q 2097 2700 2305 2904 
Q 2513 3109 2513 3406 
Q 2513 3716 2298 3927 
Q 2084 4138 1766 4138 
Q 1444 4138 1231 3931 
Q 1019 3725 1019 3438 
z
M 838 1322 
Q 838 1081 952 856 
Q 1066 631 1291 507 
Q 1516 384 1775 384 
Q 2178 384 2440 643 
Q 2703 903 2703 1303 
Q 2703 1709 2433 1975 
Q 2163 2241 1756 2241 
Q 1359 2241 1098 1978 
Q 838 1716 838 1322 
z
" transform="scale(0.015625)"/>
       </defs>
       <use xlink:href="#ArialMT-38"/>
       <use xlink:href="#ArialMT-30" x="55.615234"/>
       <use xlink:href="#ArialMT-30" x="111.230469"/>
      </g>
     </g>
    </g>
    <g id="text_6">
     <!-- Days -->
     <g style="fill: #262626" transform="translate(283.808594 411.783125) scale(0.1 -0.1)">
      <defs>
       <path id="ArialMT-44" d="M 494 0 
L 494 4581 
L 2072 4581 
Q 2606 4581 2888 4516 
Q 3281 4425 3559 4188 
Q 3922 3881 4101 3404 
Q 4281 2928 4281 2316 
Q 4281 1794 4159 1391 
Q 4038 988 3847 723 
Q 3656 459 3429 307 
Q 3203 156 2883 78 
Q 2563 0 2147 0 
L 494 0 
z
M 1100 541 
L 2078 541 
Q 2531 541 2789 625 
Q 3047 709 3200 863 
Q 3416 1078 3536 1442 
Q 3656 1806 3656 2325 
Q 3656 3044 3420 3430 
Q 3184 3816 2847 3947 
Q 2603 4041 2063 4041 
L 1100 4041 
L 1100 541 
z
" transform="scale(0.015625)"/>
       <path id="ArialMT-61" d="M 2588 409 
Q 2275 144 1986 34 
Q 1697 -75 1366 -75 
Q 819 -75 525 192 
Q 231 459 231 875 
Q 231 1119 342 1320 
Q 453 1522 633 1644 
Q 813 1766 1038 1828 
Q 1203 1872 1538 1913 
Q 2219 1994 2541 2106 
Q 2544 2222 2544 2253 
Q 2544 2597 2384 2738 
Q 2169 2928 1744 2928 
Q 1347 2928 1158 2789 
Q 969 2650 878 2297 
L 328 2372 
Q 403 2725 575 2942 
Q 747 3159 1072 3276 
Q 1397 3394 1825 3394 
Q 2250 3394 2515 3294 
Q 2781 3194 2906 3042 
Q 3031 2891 3081 2659 
Q 3109 2516 3109 2141 
L 3109 1391 
Q 3109 606 3145 398 
Q 3181 191 3288 0 
L 2700 0 
Q 2613 175 2588 409 
z
M 2541 1666 
Q 2234 1541 1622 1453 
Q 1275 1403 1131 1340 
Q 988 1278 909 1158 
Q 831 1038 831 891 
Q 831 666 1001 516 
Q 1172 366 1500 366 
Q 1825 366 2078 508 
Q 2331 650 2450 897 
Q 2541 1088 2541 1459 
L 2541 1666 
z
" transform="scale(0.015625)"/>
       <path id="ArialMT-79" d="M 397 -1278 
L 334 -750 
Q 519 -800 656 -800 
Q 844 -800 956 -737 
Q 1069 -675 1141 -563 
Q 1194 -478 1313 -144 
Q 1328 -97 1363 -6 
L 103 3319 
L 709 3319 
L 1400 1397 
Q 1534 1031 1641 628 
Q 1738 1016 1872 1384 
L 2581 3319 
L 3144 3319 
L 1881 -56 
Q 1678 -603 1566 -809 
Q 1416 -1088 1222 -1217 
Q 1028 -1347 759 -1347 
Q 597 -1347 397 -1278 
z
" transform="scale(0.015625)"/>
       <path id="ArialMT-73" d="M 197 991 
L 753 1078 
Q 800 744 1014 566 
Q 1228 388 1613 388 
Q 2000 388 2187 545 
Q 2375 703 2375 916 
Q 2375 1106 2209 1216 
Q 2094 1291 1634 1406 
Q 1016 1563 777 1677 
Q 538 1791 414 1992 
Q 291 2194 291 2438 
Q 291 2659 392 2848 
Q 494 3038 669 3163 
Q 800 3259 1026 3326 
Q 1253 3394 1513 3394 
Q 1903 3394 2198 3281 
Q 2494 3169 2634 2976 
Q 2775 2784 2828 2463 
L 2278 2388 
Q 2241 2644 2061 2787 
Q 1881 2931 1553 2931 
Q 1166 2931 1000 2803 
Q 834 2675 834 2503 
Q 834 2394 903 2306 
Q 972 2216 1119 2156 
Q 1203 2125 1616 2013 
Q 2213 1853 2448 1751 
Q 2684 1650 2818 1456 
Q 2953 1263 2953 975 
Q 2953 694 2789 445 
Q 2625 197 2315 61 
Q 2006 -75 1616 -75 
Q 969 -75 630 194 
Q 291 463 197 991 
z
" transform="scale(0.015625)"/>
      </defs>
      <use xlink:href="#ArialMT-44"/>
      <use xlink:href="#ArialMT-61" x="72.216797"/>
      <use xlink:href="#ArialMT-79" x="127.832031"/>
      <use xlink:href="#ArialMT-73" x="177.832031"/>
     </g>
    </g>
   </g>
   <g id="matplotlib.axis_2">
    <g id="ytick_1">
     <g id="line2d_6">
      <path d="M 72 353.878044 
L 518.4 353.878044 
" clip-path="url(#pa10e53239e)" style="fill: none; stroke: #ffffff; stroke-width: 0.8; stroke-linecap: round"/>
     </g>
     <g id="text_7">
      <!-- 1000 -->
      <g style="fill: #262626" transform="translate(42.75625 357.45695) scale(0.1 -0.1)">
       <defs>
        <path id="ArialMT-31" d="M 2384 0 
L 1822 0 
L 1822 3584 
Q 1619 3391 1289 3197 
Q 959 3003 697 2906 
L 697 3450 
Q 1169 3672 1522 3987 
Q 1875 4303 2022 4600 
L 2384 4600 
L 2384 0 
z
" transform="scale(0.015625)"/>
       </defs>
       <use xlink:href="#ArialMT-31"/>
       <use xlink:href="#ArialMT-30" x="55.615234"/>
       <use xlink:href="#ArialMT-30" x="111.230469"/>
       <use xlink:href="#ArialMT-30" x="166.845703"/>
      </g>
     </g>
    </g>
    <g id="ytick_2">
     <g id="line2d_7">
      <path d="M 72 313.504961 
L 518.4 313.504961 
" clip-path="url(#pa10e53239e)" style="fill: none; stroke: #ffffff; stroke-width: 0.8; stroke-linecap: round"/>
     </g>
     <g id="text_8">
      <!-- 1005 -->
      <g style="fill: #262626" transform="translate(42.75625 317.083867) scale(0.1 -0.1)">
       <defs>
        <path id="ArialMT-35" d="M 266 1200 
L 856 1250 
Q 922 819 1161 601 
Q 1400 384 1738 384 
Q 2144 384 2425 690 
Q 2706 997 2706 1503 
Q 2706 1984 2436 2262 
Q 2166 2541 1728 2541 
Q 1456 2541 1237 2417 
Q 1019 2294 894 2097 
L 366 2166 
L 809 4519 
L 3088 4519 
L 3088 3981 
L 1259 3981 
L 1013 2750 
Q 1425 3038 1878 3038 
Q 2478 3038 2890 2622 
Q 3303 2206 3303 1553 
Q 3303 931 2941 478 
Q 2500 -78 1738 -78 
Q 1113 -78 717 272 
Q 322 622 266 1200 
z
" transform="scale(0.015625)"/>
       </defs>
       <use xlink:href="#ArialMT-31"/>
       <use xlink:href="#ArialMT-30" x="55.615234"/>
       <use xlink:href="#ArialMT-30" x="111.230469"/>
       <use xlink:href="#ArialMT-35" x="166.845703"/>
      </g>
     </g>
    </g>
    <g id="ytick_3">
     <g id="line2d_8">
      <path d="M 72 273.131878 
L 518.4 273.131878 
" clip-path="url(#pa10e53239e)" style="fill: none; stroke: #ffffff; stroke-width: 0.8; stroke-linecap: round"/>
     </g>
     <g id="text_9">
      <!-- 1010 -->
      <g style="fill: #262626" transform="translate(42.75625 276.710784) scale(0.1 -0.1)">
       <use xlink:href="#ArialMT-31"/>
       <use xlink:href="#ArialMT-30" x="55.615234"/>
       <use xlink:href="#ArialMT-31" x="111.230469"/>
       <use xlink:href="#ArialMT-30" x="166.845703"/>
      </g>
     </g>
    </g>
    <g id="ytick_4">
     <g id="line2d_9">
      <path d="M 72 232.758795 
L 518.4 232.758795 
" clip-path="url(#pa10e53239e)" style="fill: none; stroke: #ffffff; stroke-width: 0.8; stroke-linecap: round"/>
     </g>
     <g id="text_10">
      <!-- 1015 -->
      <g style="fill: #262626" transform="translate(42.75625 236.337701) scale(0.1 -0.1)">
       <use xlink:href="#ArialMT-31"/>
       <use xlink:href="#ArialMT-30" x="55.615234"/>
       <use xlink:href="#ArialMT-31" x="111.230469"/>
       <use xlink:href="#ArialMT-35" x="166.845703"/>
      </g>
     </g>
    </g>
    <g id="ytick_5">
     <g id="line2d_10">
      <path d="M 72 192.385712 
L 518.4 192.385712 
" clip-path="url(#pa10e53239e)" style="fill: none; stroke: #ffffff; stroke-width: 0.8; stroke-linecap: round"/>
     </g>
     <g id="text_11">
      <!-- 1020 -->
      <g style="fill: #262626" transform="translate(42.75625 195.964618) scale(0.1 -0.1)">
       <use xlink:href="#ArialMT-31"/>
       <use xlink:href="#ArialMT-30" x="55.615234"/>
       <use xlink:href="#ArialMT-32" x="111.230469"/>
       <use xlink:href="#ArialMT-30" x="166.845703"/>
      </g>
     </g>
    </g>
    <g id="ytick_6">
     <g id="line2d_11">
      <path d="M 72 152.012628 
L 518.4 152.012628 
" clip-path="url(#pa10e53239e)" style="fill: none; stroke: #ffffff; stroke-width: 0.8; stroke-linecap: round"/>
     </g>
     <g id="text_12">
      <!-- 1025 -->
      <g style="fill: #262626" transform="translate(42.75625 155.591535) scale(0.1 -0.1)">
       <use xlink:href="#ArialMT-31"/>
       <use xlink:href="#ArialMT-30" x="55.615234"/>
       <use xlink:href="#ArialMT-32" x="111.230469"/>
       <use xlink:href="#ArialMT-35" x="166.845703"/>
      </g>
     </g>
    </g>
    <g id="ytick_7">
     <g id="line2d_12">
      <path d="M 72 111.639545 
L 518.4 111.639545 
" clip-path="url(#pa10e53239e)" style="fill: none; stroke: #ffffff; stroke-width: 0.8; stroke-linecap: round"/>
     </g>
     <g id="text_13">
      <!-- 1030 -->
      <g style="fill: #262626" transform="translate(42.75625 115.218452) scale(0.1 -0.1)">
       <defs>
        <path id="ArialMT-33" d="M 269 1209 
L 831 1284 
Q 928 806 1161 595 
Q 1394 384 1728 384 
Q 2125 384 2398 659 
Q 2672 934 2672 1341 
Q 2672 1728 2419 1979 
Q 2166 2231 1775 2231 
Q 1616 2231 1378 2169 
L 1441 2663 
Q 1497 2656 1531 2656 
Q 1891 2656 2178 2843 
Q 2466 3031 2466 3422 
Q 2466 3731 2256 3934 
Q 2047 4138 1716 4138 
Q 1388 4138 1169 3931 
Q 950 3725 888 3313 
L 325 3413 
Q 428 3978 793 4289 
Q 1159 4600 1703 4600 
Q 2078 4600 2393 4439 
Q 2709 4278 2876 4000 
Q 3044 3722 3044 3409 
Q 3044 3113 2884 2869 
Q 2725 2625 2413 2481 
Q 2819 2388 3044 2092 
Q 3269 1797 3269 1353 
Q 3269 753 2831 336 
Q 2394 -81 1725 -81 
Q 1122 -81 723 278 
Q 325 638 269 1209 
z
" transform="scale(0.015625)"/>
       </defs>
       <use xlink:href="#ArialMT-31"/>
       <use xlink:href="#ArialMT-30" x="55.615234"/>
       <use xlink:href="#ArialMT-33" x="111.230469"/>
       <use xlink:href="#ArialMT-30" x="166.845703"/>
      </g>
     </g>
    </g>
    <g id="ytick_8">
     <g id="line2d_13">
      <path d="M 72 71.266462 
L 518.4 71.266462 
" clip-path="url(#pa10e53239e)" style="fill: none; stroke: #ffffff; stroke-width: 0.8; stroke-linecap: round"/>
     </g>
     <g id="text_14">
      <!-- 1035 -->
      <g style="fill: #262626" transform="translate(42.75625 74.845368) scale(0.1 -0.1)">
       <use xlink:href="#ArialMT-31"/>
       <use xlink:href="#ArialMT-30" x="55.615234"/>
       <use xlink:href="#ArialMT-33" x="111.230469"/>
       <use xlink:href="#ArialMT-35" x="166.845703"/>
      </g>
     </g>
    </g>
    <g id="text_15">
     <!-- (hPa) -->
     <g style="fill: #262626" transform="translate(36.651562 230.385781) rotate(-90) scale(0.1 -0.1)">
      <defs>
       <path id="ArialMT-28" d="M 1497 -1347 
Q 1031 -759 709 28 
Q 388 816 388 1659 
Q 388 2403 628 3084 
Q 909 3875 1497 4659 
L 1900 4659 
Q 1522 4009 1400 3731 
Q 1209 3300 1100 2831 
Q 966 2247 966 1656 
Q 966 153 1900 -1347 
L 1497 -1347 
z
" transform="scale(0.015625)"/>
       <path id="ArialMT-68" d="M 422 0 
L 422 4581 
L 984 4581 
L 984 2938 
Q 1378 3394 1978 3394 
Q 2347 3394 2619 3248 
Q 2891 3103 3008 2847 
Q 3125 2591 3125 2103 
L 3125 0 
L 2563 0 
L 2563 2103 
Q 2563 2525 2380 2717 
Q 2197 2909 1863 2909 
Q 1613 2909 1392 2779 
Q 1172 2650 1078 2428 
Q 984 2206 984 1816 
L 984 0 
L 422 0 
z
" transform="scale(0.015625)"/>
       <path id="ArialMT-50" d="M 494 0 
L 494 4581 
L 2222 4581 
Q 2678 4581 2919 4538 
Q 3256 4481 3484 4323 
Q 3713 4166 3852 3881 
Q 3991 3597 3991 3256 
Q 3991 2672 3619 2267 
Q 3247 1863 2275 1863 
L 1100 1863 
L 1100 0 
L 494 0 
z
M 1100 2403 
L 2284 2403 
Q 2872 2403 3119 2622 
Q 3366 2841 3366 3238 
Q 3366 3525 3220 3729 
Q 3075 3934 2838 4000 
Q 2684 4041 2272 4041 
L 1100 4041 
L 1100 2403 
z
" transform="scale(0.015625)"/>
       <path id="ArialMT-29" d="M 791 -1347 
L 388 -1347 
Q 1322 153 1322 1656 
Q 1322 2244 1188 2822 
Q 1081 3291 891 3722 
Q 769 4003 388 4659 
L 791 4659 
Q 1378 3875 1659 3084 
Q 1900 2403 1900 1659 
Q 1900 816 1576 28 
Q 1253 -759 791 -1347 
z
" transform="scale(0.015625)"/>
      </defs>
      <use xlink:href="#ArialMT-28"/>
      <use xlink:href="#ArialMT-68" x="33.300781"/>
      <use xlink:href="#ArialMT-50" x="88.916016"/>
      <use xlink:href="#ArialMT-61" x="155.615234"/>
      <use xlink:href="#ArialMT-29" x="211.230469"/>
     </g>
    </g>
   </g>
   <g id="line2d_14">
    <path d="M 92.290909 244.08008 
L 92.758981 244.231479 
L 93.227053 264.726426 
L 93.695124 268.393648 
L 94.163196 254.683622 
L 94.631268 228.586909 
L 95.099339 227.392539 
L 95.567411 222.626272 
L 96.035483 221.375828 
L 96.503555 222.727205 
L 96.971626 227.140207 
L 97.439698 244.007184 
L 97.90777 249.109893 
L 98.375841 261.176959 
L 98.843913 276.90564 
L 99.311985 285.232588 
L 100.248128 326.52528 
L 100.7162 281.015844 
L 101.184272 255.070531 
L 101.652344 271.814145 
L 102.120415 299.755683 
L 102.588487 298.477202 
L 103.52463 171.896372 
L 103.992702 156.397594 
L 104.460774 160.367614 
L 104.928846 191.718434 
L 105.396917 189.694173 
L 105.864989 168.840354 
L 106.333061 183.806431 
L 106.801132 192.957664 
L 107.269204 229.882213 
L 107.737276 242.055819 
L 108.205348 233.829803 
L 108.673419 209.213437 
L 109.141491 197.157586 
L 109.609563 214.663803 
L 110.545706 288.714766 
L 111.48185 203.078971 
L 111.949921 250.657528 
L 112.417993 242.930569 
L 112.886065 275.918742 
L 113.354137 281.240139 
L 113.822208 274.02345 
L 114.29028 264.541383 
L 114.758352 191.522176 
L 115.226423 140.982926 
L 115.694495 221.162748 
L 116.162567 200.275285 
L 116.630639 82.374667 
L 117.09871 94.71673 
L 117.566782 147.005245 
L 118.034854 168.230098 
L 118.502925 163.905213 
L 118.970997 172.587655 
L 119.439069 246.347866 
L 119.907141 277.908799 
L 120.375212 260.802948 
L 120.843284 157.289727 
L 121.311356 175.518735 
L 121.779427 234.638386 
L 122.247499 269.844275 
L 122.715571 314.931925 
L 123.183643 310.59866 
L 123.651714 300.645013 
L 124.587858 172.554117 
L 125.05593 152.061413 
L 125.524001 193.301023 
L 125.992073 201.761239 
L 126.460145 182.376551 
L 126.928216 136.586746 
L 127.396288 121.57581 
L 127.86436 150.773399 
L 128.332432 234.437618 
L 128.800503 261.720874 
L 129.268575 174.066864 
L 129.736647 149.466881 
L 130.204718 148.367836 
L 130.67279 174.29072 
L 131.608934 270.782389 
L 132.077005 220.565383 
L 132.545077 201.150035 
L 133.013149 235.349401 
L 133.481221 188.948392 
L 133.949292 192.9857 
L 134.885436 300.675292 
L 135.353507 289.583909 
L 135.821579 247.971597 
L 136.289651 190.804432 
L 137.225794 231.155086 
L 137.693866 207.93076 
L 138.630009 206.981703 
L 139.098081 198.40803 
L 139.566153 196.972542 
L 140.034225 218.527283 
L 140.502296 220.495471 
L 140.970368 189.178294 
L 141.43844 130.177519 
L 141.906511 155.842464 
L 142.374583 221.773952 
L 142.842655 204.778005 
L 143.310727 145.866948 
L 143.778798 124.334637 
L 144.714942 169.412306 
L 145.183014 182.264404 
L 145.651085 242.784777 
L 146.587229 142.205334 
L 147.523372 287.716654 
L 147.991444 186.475541 
L 148.459516 200.135101 
L 148.927587 172.485146 
L 149.395659 193.43429 
L 149.863731 186.884879 
L 150.331802 256.354619 
L 150.799874 165.79555 
L 151.267946 186.223209 
L 151.736018 216.744138 
L 152.204089 214.002133 
L 152.672161 223.007574 
L 153.140233 258.709715 
L 153.608304 265.780612 
L 154.076376 268.092401 
L 154.544448 285.211504 
L 155.01252 246.009016 
L 155.480591 115.631995 
L 155.948663 116.344131 
L 156.884807 257.745247 
L 157.352878 170.919741 
L 157.82095 180.35229 
L 158.289022 258.990084 
L 159.225165 335.474647 
L 159.693237 302.839738 
L 160.161309 219.934733 
L 160.62938 260.823695 
L 161.097452 239.319421 
L 161.565524 272.352453 
L 162.033595 269.571196 
L 162.501667 252.109838 
L 162.969739 170.040332 
L 163.437811 190.395094 
L 163.905882 221.061815 
L 164.373954 240.446503 
L 164.842026 253.528503 
L 165.310098 247.382823 
L 165.778169 262.489085 
L 166.246241 261.345181 
L 166.714313 160.121125 
L 167.182384 101.85966 
L 167.650456 121.059931 
L 168.118528 205.949946 
L 168.5866 268.135709 
L 169.054671 300.619219 
L 169.990815 240.160527 
L 170.458886 275.413098 
L 170.926958 332.110223 
L 171.39503 264.928292 
L 171.863102 152.331064 
L 172.331173 137.640932 
L 172.799245 151.328529 
L 173.267317 156.526563 
L 173.735388 170.87583 
L 174.20346 181.698059 
L 174.671532 177.430849 
L 175.139604 217.058151 
L 175.607675 235.007351 
L 176.075747 237.59235 
L 176.543819 222.63188 
L 177.011891 184.944728 
L 177.479962 195.615558 
L 177.948034 221.622553 
L 178.416106 257.206939 
L 178.884177 264.732034 
L 179.352249 161.395632 
L 179.820321 169.143152 
L 180.288393 183.027289 
L 180.756464 224.280447 
L 181.224536 251.279594 
L 181.692608 269.509515 
L 182.160679 299.525781 
L 182.628751 276.956106 
L 183.096823 242.167966 
L 183.564895 261.143315 
L 184.032966 331.667241 
L 184.501038 346.599674 
L 184.96911 321.287994 
L 185.437182 339.685784 
L 185.905253 219.183346 
L 186.841397 265.948833 
L 187.309468 314.037661 
L 187.77754 298.731075 
L 188.245612 220.070918 
L 188.713684 235.226039 
L 189.181755 270.574916 
L 189.649827 263.814119 
L 190.117899 266.408638 
L 190.58597 301.953773 
L 191.522114 229.999967 
L 191.990186 265.539495 
L 192.458257 286.819474 
L 192.926329 284.221452 
L 193.862472 305.346234 
L 194.330544 291.552097 
L 194.798616 289.53905 
L 195.734759 282.249466 
L 196.202831 274.068309 
L 196.670903 282.104301 
L 197.138975 337.201718 
L 197.607046 323.379544 
L 198.075118 268.617943 
L 198.54319 266.010515 
L 199.011261 271.875826 
L 199.479333 269.845957 
L 199.947405 252.883655 
L 200.415477 243.54738 
L 200.883548 255.849955 
L 201.35162 304.544379 
L 201.819692 336.069029 
L 202.287763 307.101341 
L 203.223907 348.287494 
L 203.691979 334.061589 
L 204.16005 296.376466 
L 204.628122 282.17657 
L 205.564265 263.313368 
L 206.032337 285.126048 
L 206.500409 326.746203 
L 206.968481 336.4279 
L 207.436552 293.127769 
L 207.904624 271.561813 
L 208.372696 268.847845 
L 208.840768 279.058871 
L 209.308839 271.651531 
L 209.776911 279.283166 
L 210.244983 295.348288 
L 210.713054 304.101397 
L 211.181126 309.977924 
L 211.649198 309.338683 
L 212.11727 289.763345 
L 212.585341 210.579009 
L 213.053413 218.017012 
L 213.521485 242.739918 
L 213.989556 230.639208 
L 215.393772 297.165077 
L 215.861843 288.42879 
L 216.329915 275.503796 
L 217.266059 303.686451 
L 217.73413 299.755683 
L 218.202202 291.165188 
L 218.670274 298.914577 
L 219.138345 295.746412 
L 219.606417 253.192061 
L 220.074489 243.104397 
L 220.542561 226.383212 
L 221.010632 225.699113 
L 221.478704 235.618555 
L 221.946776 248.81831 
L 222.414847 255.558372 
L 223.350991 281.111169 
L 223.819063 275.397256 
L 224.287134 254.128492 
L 224.755206 241.38113 
L 225.223278 250.152865 
L 225.691349 270.64738 
L 226.159421 272.016011 
L 226.627493 263.840461 
L 227.095565 258.894759 
L 227.563636 270.005742 
L 228.031708 289.07007 
L 228.49978 276.894425 
L 228.967852 275.130769 
L 229.435923 266.621718 
L 229.903995 261.664801 
L 230.372067 265.707716 
L 230.840138 271.578636 
L 231.30821 273.59729 
L 231.776282 279.389706 
L 232.244354 261.23864 
L 232.712425 232.921409 
L 233.180497 218.970265 
L 233.648569 228.732701 
L 234.11664 224.863614 
L 234.584712 227.089741 
L 235.052784 247.360393 
L 235.520856 261.479757 
L 235.988927 256.39387 
L 236.456999 252.754686 
L 236.925071 251.227974 
L 237.393142 257.476093 
L 237.861214 266.840406 
L 238.329286 270.406695 
L 238.797358 270.569309 
L 239.265429 278.183358 
L 239.733501 277.914967 
L 240.201573 284.783998 
L 240.669645 285.440061 
L 241.137716 280.174738 
L 241.605788 268.94317 
L 242.07386 278.503741 
L 242.541931 285.473705 
L 243.010003 268.444114 
L 243.478075 262.024923 
L 244.414218 292.63432 
L 244.88229 292.196945 
L 245.350362 273.546823 
L 245.818433 259.74863 
L 246.286505 259.605463 
L 246.754577 279.221485 
L 247.222649 281.991527 
L 247.69072 270.193615 
L 248.158792 283.034498 
L 248.626864 305.413522 
L 249.094936 290.67174 
L 249.563007 249.894926 
L 250.031079 247.422074 
L 250.499151 255.687342 
L 250.967222 251.975261 
L 251.435294 242.257684 
L 251.903366 244.472596 
L 252.371438 254.582689 
L 252.839509 243.882003 
L 253.307581 245.355197 
L 253.775653 253.052998 
L 254.243724 237.345626 
L 254.711796 235.663414 
L 255.179868 221.145926 
L 255.64794 220.416967 
L 256.116011 236.179292 
L 256.584083 246.345459 
L 257.052155 263.363835 
L 257.520226 268.259581 
L 257.988298 285.838184 
L 258.45637 274.483255 
L 258.924442 254.442505 
L 259.392513 249.816422 
L 259.860585 248.655696 
L 260.328657 270.249688 
L 260.796729 278.22898 
L 261.2648 277.466377 
L 261.732872 293.122161 
L 262.200944 291.260514 
L 262.669015 268.662802 
L 263.137087 267.574972 
L 263.605159 268.550654 
L 264.073231 263.111503 
L 265.009374 234.037276 
L 265.477446 249.289329 
L 265.945517 255.513513 
L 266.413589 229.999967 
L 266.881661 233.482146 
L 267.349733 272.049655 
L 267.817804 292.090405 
L 268.753948 180.789665 
L 269.22202 236.728815 
L 269.690091 251.795825 
L 270.158163 271.69639 
L 270.626235 232.170021 
L 271.094306 240.766123 
L 271.562378 288.641871 
L 272.03045 309.89942 
L 272.498522 303.832243 
L 272.966593 290.211935 
L 273.434665 214.288109 
L 273.902737 236.285832 
L 274.370808 268.903919 
L 274.83888 201.357508 
L 275.306952 224.82997 
L 275.775024 262.253575 
L 276.243095 269.980534 
L 276.711167 282.333576 
L 277.179239 250.820142 
L 277.64731 113.175965 
L 278.115382 153.818202 
L 278.583454 151.451891 
L 279.051526 190.305376 
L 279.519597 240.911915 
L 279.987669 223.272532 
L 280.455741 214.433901 
L 280.923813 223.265513 
L 281.391884 145.491254 
L 281.859956 157.2387 
L 282.328028 204.581747 
L 282.796099 231.940118 
L 283.264171 92.159533 
L 283.732243 153.767736 
L 284.200315 175.232759 
L 284.668386 131.741976 
L 285.60453 227.11217 
L 286.072601 236.779281 
L 287.008745 267.120774 
L 287.476817 267.19367 
L 287.944888 250.455663 
L 288.41296 206.701334 
L 288.881032 220.557152 
L 289.349103 291.462379 
L 289.817175 316.813311 
L 290.285247 227.953276 
L 290.753319 196.394983 
L 291.22139 235.007351 
L 291.689462 286.073694 
L 292.157534 205.630326 
L 292.625606 164.309597 
L 293.093677 221.465546 
L 293.561749 224.757074 
L 294.029821 231.648535 
L 294.497892 195.542662 
L 294.965964 172.720656 
L 295.902108 290.699776 
L 296.838251 119.046885 
L 297.306323 171.173021 
L 297.774394 237.368055 
L 298.710538 303.725703 
L 299.17861 274.802875 
L 299.646681 131.091521 
L 300.114753 101.013574 
L 300.582825 146.321145 
L 301.050897 169.159974 
L 301.518968 140.573588 
L 301.98704 156.907865 
L 303.391255 265.758183 
L 303.859327 242.818421 
L 304.327399 249.306151 
L 304.79547 306.764899 
L 305.263542 263.902142 
L 305.731614 195.380049 
L 306.199685 177.57664 
L 306.667757 229.433623 
L 307.135829 309.826525 
L 307.603901 247.924581 
L 308.071972 122.085728 
L 308.540044 144.117448 
L 309.008116 197.875329 
L 309.476187 131.046662 
L 309.944259 179.511184 
L 310.880403 291.838073 
L 311.348474 202.635989 
L 311.816546 199.254743 
L 312.284618 203.168689 
L 312.75269 218.162804 
L 313.220761 227.790663 
L 313.688833 203.404199 
L 314.156905 202.097681 
L 314.624976 191.028727 
L 315.093048 121.783282 
L 315.56112 98.148207 
L 316.029192 138.449531 
L 316.497263 230.824251 
L 316.965335 234.917633 
L 317.433407 200.892096 
L 318.36955 236.487698 
L 318.837622 253.965878 
L 319.305694 260.70594 
L 319.773765 215.858174 
L 320.241837 231.026117 
L 321.17798 138.941843 
L 321.646052 191.802545 
L 322.114124 273.014123 
L 322.582196 304.364944 
L 323.050267 296.138928 
L 323.518339 257.156473 
L 323.986411 251.179014 
L 324.454483 231.345737 
L 324.922554 262.881601 
L 325.390626 281.139206 
L 325.858698 253.741583 
L 326.326769 246.109949 
L 326.794841 185.634435 
L 327.262913 143.147372 
L 328.667128 283.645702 
L 329.1352 270.064645 
L 329.603271 189.346516 
L 330.071343 140.478263 
L 330.539415 66.96 
L 331.475558 235.84285 
L 331.94363 278.756073 
L 332.411702 268.012347 
L 332.879774 118.676798 
L 333.347845 124.457999 
L 333.815917 136.783004 
L 334.283989 188.639987 
L 334.75206 265.668465 
L 335.220132 306.361168 
L 335.688204 314.721761 
L 336.156276 286.370885 
L 336.624347 159.453612 
L 337.092419 130.26163 
L 337.560491 156.150869 
L 338.028562 189.290442 
L 338.496634 193.204388 
L 338.964706 184.182125 
L 339.432778 225.36267 
L 339.900849 277.449555 
L 340.368921 281.784054 
L 341.305064 214.422686 
L 341.773136 215.179681 
L 342.241208 246.429569 
L 342.70928 258.249911 
L 343.177351 278.555914 
L 343.645423 209.970432 
L 344.113495 179.808375 
L 345.51771 274.999133 
L 345.985782 285.958319 
L 346.921925 333.214876 
L 347.389997 296.060425 
L 347.858069 223.170187 
L 348.32614 254.392038 
L 348.794212 248.106174 
L 349.262284 262.999355 
L 349.730355 294.647367 
L 350.198427 291.109115 
L 351.134571 233.437287 
L 351.602642 244.338019 
L 352.070714 244.95483 
L 353.006858 288.137207 
L 353.474929 259.70222 
L 354.411073 353.005113 
L 354.879144 256.507223 
L 355.815288 190.316591 
L 356.28336 210.777894 
L 356.751431 249.003353 
L 357.219503 266.750688 
L 357.687575 312.910579 
L 358.155646 295.617442 
L 358.623718 286.752186 
L 359.09179 320.80576 
L 359.559862 307.841515 
L 360.027933 302.789272 
L 360.496005 270.193615 
L 360.964077 199.148203 
L 361.90022 272.066477 
L 362.368292 261.36761 
L 362.836364 214.966601 
L 363.304435 247.640762 
L 364.240579 267.070308 
L 364.708651 290.475481 
L 365.176722 280.836408 
L 365.644794 222.912248 
L 366.112866 239.711937 
L 366.580937 268.713268 
L 367.049009 209.005964 
L 367.517081 200.028561 
L 367.985153 224.471098 
L 368.453224 263.896535 
L 368.921296 280.741083 
L 369.389368 281.913023 
L 369.857439 314.166631 
L 370.325511 312.041437 
L 370.793583 267.776837 
L 371.261655 268.780557 
L 371.729726 298.768786 
L 372.197798 317.660024 
L 372.66587 303.153751 
L 373.133941 299.262234 
L 373.602013 300.983698 
L 374.538157 317.783386 
L 375.006228 262.298434 
L 375.4743 269.139429 
L 375.942372 271.477703 
L 376.410444 215.401232 
L 376.878515 218.454387 
L 377.346587 226.6019 
L 377.814659 225.965953 
L 378.28273 234.076527 
L 379.218874 276.165466 
L 379.686946 269.682354 
L 380.155017 278.167298 
L 381.091161 332.233586 
L 381.559232 312.613389 
L 382.027304 237.267122 
L 382.495376 190.922187 
L 382.963448 188.286722 
L 383.431519 218.241307 
L 383.899591 231.149479 
L 384.367663 224.263625 
L 384.835735 233.084022 
L 385.771878 267.00302 
L 386.23995 264.395591 
L 386.708021 257.73964 
L 387.176093 271.29266 
L 387.644165 280.2981 
L 388.112237 282.120496 
L 388.580308 274.012235 
L 389.516452 247.298712 
L 389.984523 258.558316 
L 390.920667 294.395035 
L 391.388739 287.520396 
L 391.85681 282.84427 
L 392.792954 262.541153 
L 393.261025 269.75624 
L 393.729097 286.365277 
L 394.197169 287.133487 
L 394.665241 278.043936 
L 395.133312 279.251075 
L 395.601384 289.64559 
L 396.069456 265.264734 
L 396.537528 254.296713 
L 397.473671 281.212102 
L 397.941743 280.006517 
L 399.345958 252.973373 
L 399.81403 250.573418 
L 400.282101 251.638818 
L 400.750173 266.644148 
L 401.218245 275.038385 
L 401.686316 269.576804 
L 402.154388 269.374938 
L 402.62246 277.337407 
L 403.090532 290.643703 
L 403.558603 307.187761 
L 404.026675 254.829413 
L 404.494747 246.584114 
L 404.962818 247.468149 
L 405.43089 250.607062 
L 405.898962 254.54024 
L 406.367034 241.141817 
L 406.835105 242.476372 
L 407.303177 238.214768 
L 407.771249 241.4334 
L 408.239321 252.491139 
L 408.707392 256.02984 
L 409.643536 235.954997 
L 410.111607 234.951277 
L 410.579679 243.99597 
L 411.047751 259.236808 
L 411.515823 262.803097 
L 411.983894 260.268565 
L 412.451966 262.147035 
L 412.920038 262.579402 
L 413.388109 228.118733 
L 413.856181 238.113836 
L 414.792325 283.572806 
L 415.260396 293.177114 
L 415.728468 255.762063 
L 416.19654 261.003131 
L 416.664612 288.955883 
L 417.132683 300.193058 
L 417.600755 292.746467 
L 418.068827 290.335297 
L 418.536898 308.46954 
L 419.00497 314.676902 
L 419.941114 284.705495 
L 420.409185 271.22554 
L 420.877257 243.053931 
L 421.345329 205.961834 
L 421.8134 218.655131 
L 422.749544 302.748849 
L 423.217616 286.051264 
L 423.685687 288.39795 
L 424.153759 287.509181 
L 424.621831 285.305484 
L 425.089902 267.474039 
L 425.557974 263.380657 
L 426.026046 262.528336 
L 426.494118 258.642427 
L 426.962189 261.692838 
L 427.430261 262.988141 
L 427.898333 263.515234 
L 428.366405 259.80876 
L 428.834476 238.769898 
L 429.302548 232.125162 
L 429.77062 241.231535 
L 430.238691 259.819975 
L 430.706763 288.249355 
L 431.174835 285.255018 
L 431.642907 269.705773 
L 432.110978 259.242416 
L 432.57905 245.240806 
L 433.047122 244.97726 
L 433.515193 249.003353 
L 433.983265 243.300655 
L 434.451337 252.216378 
L 434.919409 248.358505 
L 435.38748 249.810815 
L 436.323624 282.142926 
L 436.791696 278.268231 
L 437.259767 261.519009 
L 438.195911 279.137374 
L 438.663982 267.148811 
L 439.132054 264.44045 
L 439.600126 279.541105 
L 440.068198 283.079357 
L 440.536269 273.586075 
L 441.004341 252.653753 
L 441.472413 248.083744 
L 441.940484 277.494414 
L 442.408556 296.940782 
L 442.876628 288.316643 
L 443.812771 243.76046 
L 444.280843 253.629436 
L 444.748915 258.423739 
L 445.216986 237.278337 
L 445.685058 240.014735 
L 446.15313 235.915746 
L 446.621202 220.147814 
L 447.089273 228.160749 
L 447.557345 272.543104 
L 448.025417 306.310702 
L 448.96156 224.280447 
L 449.429632 234.928848 
L 449.897704 259.870442 
L 450.365775 255.160248 
L 450.833847 239.02223 
L 451.301919 243.575417 
L 451.769991 256.051821 
L 452.238062 257.117222 
L 452.706134 252.513569 
L 453.174206 242.616556 
L 453.642277 243.749245 
L 454.110349 242.353009 
L 454.578421 242.43712 
L 455.046493 246.737975 
L 455.514564 255.664912 
L 455.982636 228.306541 
L 456.450708 211.265735 
L 456.918779 186.374608 
L 457.386851 188.415692 
L 457.854923 235.876494 
L 458.322995 246.743582 
L 458.791066 216.12172 
L 459.259138 207.783557 
L 459.72721 219.766512 
L 460.195282 221.588908 
L 461.131425 178.799048 
L 461.599497 167.466547 
L 462.53564 200.981814 
L 463.471784 247.960382 
L 463.939855 256.405085 
L 464.407927 257.07797 
L 464.875999 252.137875 
L 465.34407 267.064701 
L 465.812142 252.603287 
L 466.280214 160.575087 
L 466.748286 145.289389 
L 467.216357 197.073475 
L 468.152501 264.188118 
L 469.088644 299.800542 
L 469.556716 228.715879 
L 470.024788 237.603565 
L 470.492859 265.376881 
L 470.960931 240.979203 
L 471.429003 198.329527 
L 471.897075 231.727038 
L 472.365146 242.644593 
L 472.833218 211.119944 
L 473.30129 193.697837 
L 474.237433 289.3484 
L 474.705505 254.100455 
L 475.173577 261.967599 
L 475.641648 224.235588 
L 476.10972 207.469544 
L 476.577792 222.744027 
L 477.045863 274.601009 
L 477.513935 291.372661 
L 477.982007 174.918746 
L 478.450079 188.03439 
L 478.91815 251.487419 
L 479.386222 165.829195 
L 479.854294 125.366394 
L 480.322366 110.809654 
L 480.790437 159.206888 
L 481.258509 141.409087 
L 481.726581 112.878775 
L 482.194652 127.867282 
L 482.662724 153.156532 
L 483.598868 264.720819 
L 484.066939 216.037609 
L 484.535011 224.201944 
L 485.003083 250.511737 
L 485.471154 252.216378 
L 485.939226 284.312979 
L 486.407298 189.571647 
L 486.87537 157.087301 
L 487.343441 194.561372 
L 487.811513 162.212144 
L 488.279585 240.571532 
L 488.747656 205.02473 
L 489.215728 202.321976 
L 490.151872 236.762459 
L 490.619943 226.467323 
L 491.556087 317.559209 
L 492.024159 268.595513 
L 492.49223 233.639152 
L 492.960302 236.958717 
L 493.428374 182.071964 
L 493.896445 175.40098 
L 494.364517 203.471487 
L 494.832589 158.108964 
L 495.300661 177.223376 
L 496.236804 288.10917 
L 496.704876 301.073416 
L 497.172947 324.98886 
L 497.641019 369.36 
L 498.109091 299.656559 
L 498.109091 299.656559 
" clip-path="url(#pa10e53239e)" style="fill: none; stroke: #1f77b4; stroke-width: 1.5; stroke-linecap: round"/>
   </g>
   <g id="line2d_15">
    <path d="M 92.290909 237.016269 
L 92.758981 251.994347 
L 93.227053 241.341739 
L 93.695124 241.342893 
L 94.163196 242.614225 
L 94.631268 236.797236 
L 95.099339 233.359379 
L 95.567411 237.205064 
L 96.503555 248.945703 
L 96.971626 251.025694 
L 97.439698 241.840225 
L 97.90777 247.358996 
L 98.375841 248.60539 
L 98.843913 247.236453 
L 99.311985 248.710945 
L 99.780057 257.291636 
L 100.248128 258.102171 
L 100.7162 259.261908 
L 101.184272 277.174051 
L 101.652344 259.884719 
L 102.120415 258.51983 
L 102.588487 261.242846 
L 103.056559 256.85775 
L 103.52463 240.089201 
L 103.992702 244.380583 
L 104.460774 240.917677 
L 105.396917 216.983406 
L 105.864989 224.161424 
L 106.333061 224.134099 
L 106.801132 205.796243 
L 107.269204 212.612138 
L 107.737276 224.832704 
L 108.673419 206.85754 
L 109.609563 216.484063 
L 110.077634 202.520493 
L 111.013778 210.688659 
L 111.48185 213.817612 
L 111.949921 228.967076 
L 112.417993 224.263566 
L 112.886065 207.870553 
L 113.354137 231.268809 
L 113.822208 230.858872 
L 114.29028 226.47121 
L 114.758352 213.383808 
L 115.226423 219.118067 
L 115.694495 219.299673 
L 116.630639 226.672303 
L 117.09871 218.341598 
L 117.566782 203.067215 
L 118.034854 194.323244 
L 118.502925 199.856828 
L 118.970997 190.038276 
L 119.439069 195.430744 
L 119.907141 195.966526 
L 120.375212 200.78557 
L 120.843284 194.656753 
L 121.311356 194.745441 
L 121.779427 190.097698 
L 122.247499 201.300971 
L 122.715571 202.724445 
L 123.183643 201.863383 
L 123.651714 210.510182 
L 124.119786 213.415387 
L 124.587858 224.872445 
L 125.05593 209.911501 
L 125.524001 224.814443 
L 125.992073 206.99226 
L 126.460145 208.512573 
L 126.928216 217.898765 
L 127.396288 208.886611 
L 127.86436 205.718335 
L 128.332432 197.279818 
L 129.268575 216.618055 
L 130.204718 189.624145 
L 130.67279 200.003389 
L 131.140862 207.8597 
L 131.608934 195.024472 
L 132.077005 209.114252 
L 132.545077 203.723262 
L 133.013149 225.760706 
L 133.481221 209.064038 
L 134.417364 226.85104 
L 134.885436 189.972398 
L 135.353507 201.338534 
L 135.821579 201.344866 
L 136.289651 226.913468 
L 136.757723 197.408878 
L 137.225794 222.216503 
L 137.693866 202.21888 
L 138.161938 208.30859 
L 138.630009 203.970636 
L 139.098081 205.688725 
L 139.566153 222.98747 
L 140.034225 206.12772 
L 140.502296 204.34517 
L 140.970368 210.596773 
L 141.43844 209.93673 
L 141.906511 201.567176 
L 142.374583 203.817722 
L 142.842655 202.138993 
L 143.310727 219.656397 
L 143.778798 217.667817 
L 144.24687 210.715931 
L 144.714942 206.480439 
L 145.183014 212.010925 
L 145.651085 207.821675 
L 146.119157 217.565722 
L 146.587229 218.320807 
L 147.0553 198.29056 
L 147.523372 207.982203 
L 147.991444 210.896432 
L 148.459516 189.533522 
L 148.927587 214.236589 
L 149.395659 196.545567 
L 149.863731 197.637681 
L 150.331802 221.994088 
L 150.799874 233.234603 
L 151.736018 202.747535 
L 152.204089 218.479002 
L 152.672161 221.840745 
L 153.140233 194.669257 
L 153.608304 201.298973 
L 154.076376 227.085446 
L 154.544448 204.469093 
L 155.01252 239.894539 
L 155.480591 212.149255 
L 155.948663 199.594141 
L 156.416735 202.312071 
L 156.884807 190.917396 
L 157.352878 208.097065 
L 157.82095 206.697504 
L 158.289022 213.891457 
L 158.757093 210.396976 
L 159.225165 210.061551 
L 159.693237 204.895438 
L 160.161309 223.005198 
L 160.62938 225.015359 
L 161.097452 234.692223 
L 161.565524 198.987938 
L 162.033595 237.618413 
L 162.501667 211.761392 
L 162.969739 247.558301 
L 163.437811 246.304371 
L 163.905882 241.467461 
L 164.373954 242.953278 
L 164.842026 241.272633 
L 165.310098 249.964437 
L 165.778169 242.505488 
L 166.246241 251.411493 
L 166.714313 238.631989 
L 167.650456 206.517899 
L 168.118528 207.890593 
L 168.5866 216.71536 
L 169.054671 212.478086 
L 169.522743 228.442034 
L 169.990815 240.41743 
L 170.458886 224.689485 
L 170.926958 247.209622 
L 171.39503 212.37957 
L 171.863102 219.540088 
L 172.331173 220.276635 
L 172.799245 232.536515 
L 173.267317 207.733822 
L 173.735388 201.12919 
L 174.20346 228.33493 
L 174.671532 225.477589 
L 176.075747 236.016314 
L 176.543819 221.880324 
L 177.011891 221.928437 
L 177.479962 229.907344 
L 177.948034 228.891238 
L 178.416106 223.701981 
L 178.884177 257.289552 
L 179.352249 235.476184 
L 179.820321 223.741908 
L 180.288393 236.352243 
L 181.224536 227.284094 
L 181.692608 227.673656 
L 182.160679 249.194933 
L 182.628751 251.305926 
L 183.096823 260.077357 
L 183.564895 241.838084 
L 184.032966 248.237303 
L 184.501038 251.641136 
L 184.96911 249.055822 
L 185.437182 247.789981 
L 185.905253 242.770279 
L 186.373325 262.421159 
L 186.841397 257.63917 
L 187.309468 265.777055 
L 187.77754 263.577983 
L 188.245612 264.521784 
L 188.713684 277.601289 
L 189.181755 261.717986 
L 189.649827 265.703811 
L 190.117899 256.972616 
L 190.58597 253.415133 
L 191.054042 254.402981 
L 191.522114 265.666844 
L 191.990186 266.555562 
L 192.458257 263.026966 
L 192.926329 260.801984 
L 193.394401 262.363905 
L 193.862472 279.339526 
L 194.330544 283.293713 
L 194.798616 279.603839 
L 195.266688 270.774096 
L 195.734759 268.884512 
L 196.202831 273.038386 
L 196.670903 267.820349 
L 197.138975 279.188216 
L 197.607046 274.220178 
L 198.075118 272.049736 
L 198.54319 274.723241 
L 199.011261 278.451059 
L 199.479333 265.541874 
L 199.947405 265.293196 
L 200.415477 271.25428 
L 200.883548 269.470275 
L 201.35162 267.110761 
L 201.819692 279.374543 
L 202.287763 268.802004 
L 202.755835 268.478084 
L 203.223907 270.703422 
L 203.691979 269.605629 
L 204.16005 275.684678 
L 204.628122 279.409639 
L 205.096194 285.702778 
L 205.564265 289.228815 
L 206.032337 289.212191 
L 206.500409 282.068228 
L 206.968481 287.186915 
L 207.436552 283.395252 
L 207.904624 269.596741 
L 208.372696 267.161234 
L 208.840768 268.057774 
L 209.308839 271.023293 
L 210.244983 268.418494 
L 210.713054 270.289411 
L 211.649198 261.375519 
L 212.11727 261.598917 
L 212.585341 258.311659 
L 213.053413 270.193811 
L 213.521485 262.261386 
L 213.989556 251.975198 
L 214.457628 260.626628 
L 214.9257 263.167137 
L 215.393772 259.879223 
L 215.861843 258.27856 
L 216.329915 261.994202 
L 216.797987 259.710271 
L 217.266059 263.03503 
L 217.73413 263.802676 
L 218.670274 255.886719 
L 219.138345 267.933576 
L 219.606417 262.979552 
L 220.074489 266.09416 
L 221.010632 259.108424 
L 221.946776 270.594159 
L 222.882919 265.801403 
L 223.350991 259.291639 
L 223.819063 264.757049 
L 224.287134 266.256034 
L 225.223278 261.616424 
L 225.691349 257.305465 
L 226.159421 264.156421 
L 227.095565 258.240805 
L 227.563636 257.259558 
L 228.031708 262.834217 
L 228.49978 263.283263 
L 228.967852 251.623886 
L 229.435923 252.225447 
L 229.903995 254.584178 
L 230.372067 253.355514 
L 230.840138 253.773709 
L 231.30821 262.062823 
L 231.776282 260.821561 
L 232.244354 266.338592 
L 232.712425 260.629448 
L 233.180497 252.29634 
L 233.648569 254.37996 
L 234.11664 255.730567 
L 234.584712 248.666437 
L 235.052784 249.660602 
L 235.520856 253.027056 
L 235.988927 253.36568 
L 236.456999 253.512692 
L 236.925071 255.476366 
L 237.393142 263.477028 
L 237.861214 263.850309 
L 238.329286 263.248721 
L 238.797358 255.218106 
L 239.265429 263.600268 
L 239.733501 262.311993 
L 240.201573 254.968943 
L 240.669645 254.535401 
L 241.137716 262.494885 
L 241.605788 263.37072 
L 242.07386 261.821607 
L 242.541931 260.763671 
L 243.010003 266.670011 
L 243.478075 266.174754 
L 244.414218 254.410029 
L 245.350362 265.474666 
L 245.818433 263.638631 
L 246.286505 257.433006 
L 246.754577 259.723107 
L 247.222649 253.222206 
L 247.69072 257.128235 
L 248.158792 266.597575 
L 248.626864 262.216554 
L 249.094936 254.126295 
L 249.563007 249.550488 
L 250.031079 250.255434 
L 250.499151 255.575914 
L 250.967222 256.481019 
L 251.435294 253.810502 
L 251.903366 251.947159 
L 252.371438 252.345083 
L 252.839509 247.756114 
L 253.307581 246.775414 
L 253.775653 242.58096 
L 254.243724 241.841948 
L 254.711796 245.331393 
L 255.179868 239.289025 
L 255.64794 240.193652 
L 256.116011 244.534916 
L 256.584083 245.64592 
L 257.052155 247.096976 
L 257.520226 253.191689 
L 257.988298 251.052018 
L 258.45637 245.606291 
L 258.924442 241.995932 
L 259.392513 242.316877 
L 259.860585 242.112321 
L 260.328657 244.753979 
L 260.796729 255.246834 
L 261.2648 255.000209 
L 261.732872 253.320432 
L 262.200944 257.112261 
L 262.669015 255.123372 
L 263.137087 256.648895 
L 263.605159 260.24757 
L 264.073231 257.502793 
L 264.541302 253.414945 
L 265.477446 267.820489 
L 265.945517 250.573261 
L 266.413589 238.480262 
L 266.881661 248.306581 
L 267.349733 244.136216 
L 267.817804 244.250706 
L 268.285876 247.853268 
L 269.22202 238.445577 
L 269.690091 242.967932 
L 270.158163 244.896025 
L 270.626235 230.323081 
L 271.094306 245.812252 
L 271.562378 239.156965 
L 272.03045 241.468763 
L 272.498522 230.345565 
L 272.966593 230.46637 
L 273.434665 215.401161 
L 273.902737 249.238609 
L 274.370808 235.611534 
L 274.83888 248.365221 
L 275.306952 238.517058 
L 275.775024 243.752365 
L 276.243095 250.439451 
L 276.711167 240.38591 
L 277.179239 235.34308 
L 277.64731 237.91758 
L 278.115382 230.599265 
L 278.583454 231.251177 
L 279.051526 228.50382 
L 279.519597 229.007263 
L 279.987669 246.0265 
L 280.455741 246.716691 
L 280.923813 243.861492 
L 281.391884 220.136936 
L 281.859956 229.548121 
L 282.328028 223.271687 
L 282.796099 200.981754 
L 283.264171 225.650629 
L 283.732243 204.16767 
L 284.200315 208.199645 
L 284.668386 209.136934 
L 285.136458 198.53731 
L 285.60453 200.479599 
L 286.072601 195.034985 
L 286.540673 205.767101 
L 287.008745 201.217288 
L 287.476817 200.666513 
L 287.944888 197.858806 
L 288.41296 210.515897 
L 288.881032 201.875237 
L 289.349103 230.55735 
L 289.817175 205.571303 
L 290.285247 210.500249 
L 290.753319 204.563477 
L 291.22139 228.928075 
L 291.689462 214.893473 
L 292.157534 232.291183 
L 292.625606 219.827515 
L 293.093677 227.063723 
L 293.561749 238.28441 
L 294.029821 222.775349 
L 294.497892 223.934834 
L 294.965964 220.013784 
L 295.434036 227.13227 
L 295.902108 209.967887 
L 296.370179 229.384592 
L 296.838251 229.45464 
L 297.306323 223.037644 
L 297.774394 205.721584 
L 298.242466 209.849483 
L 298.710538 200.619717 
L 299.17861 201.542289 
L 299.646681 226.075395 
L 300.114753 221.199592 
L 300.582825 218.766333 
L 301.050897 213.004797 
L 301.518968 195.313982 
L 301.98704 202.310204 
L 302.455112 199.403171 
L 302.923183 212.371843 
L 303.391255 214.711187 
L 303.859327 206.51892 
L 304.327399 208.761589 
L 304.79547 205.956135 
L 305.731614 198.899078 
L 306.199685 209.9622 
L 306.667757 184.702781 
L 307.135829 197.998296 
L 307.603901 230.445434 
L 308.071972 223.038752 
L 308.540044 221.699479 
L 309.008116 199.045044 
L 309.476187 207.75426 
L 309.944259 198.635765 
L 310.412331 192.403699 
L 310.880403 194.853631 
L 311.348474 207.16137 
L 311.816546 201.815291 
L 312.284618 191.576139 
L 312.75269 191.351994 
L 313.220761 198.863756 
L 313.688833 201.494191 
L 314.156905 214.61666 
L 314.624976 207.692437 
L 315.093048 207.504289 
L 315.56112 214.318846 
L 316.029192 204.636612 
L 316.497263 213.014793 
L 316.965335 202.042314 
L 317.433407 214.806458 
L 317.901478 201.937212 
L 318.36955 208.453712 
L 318.837622 204.454809 
L 319.305694 221.568922 
L 319.773765 209.20171 
L 320.241837 227.630955 
L 320.709909 211.166911 
L 321.17798 228.910078 
L 321.646052 223.216923 
L 322.114124 203.691252 
L 322.582196 216.797499 
L 323.518339 223.095405 
L 323.986411 211.337611 
L 324.454483 228.392985 
L 324.922554 229.730437 
L 325.390626 234.758666 
L 325.858698 208.244913 
L 326.326769 231.39049 
L 326.794841 235.943845 
L 327.262913 223.731439 
L 328.199056 231.336312 
L 328.667128 209.919984 
L 329.1352 207.726871 
L 329.603271 225.113625 
L 330.071343 223.644456 
L 330.539415 225.867375 
L 331.007487 194.652726 
L 331.475558 193.487478 
L 331.94363 207.869679 
L 332.879774 227.301358 
L 333.347845 220.536865 
L 333.815917 209.487871 
L 334.283989 194.343032 
L 334.75206 215.612348 
L 335.220132 219.571571 
L 335.688204 205.89237 
L 336.156276 245.051141 
L 336.624347 223.289708 
L 337.092419 230.352265 
L 337.560491 215.999149 
L 338.028562 229.490518 
L 338.496634 210.964698 
L 338.964706 240.816628 
L 339.432778 252.15774 
L 339.900849 234.188081 
L 340.368921 253.345604 
L 340.836993 245.81055 
L 341.305064 227.787626 
L 341.773136 229.911138 
L 342.70928 256.328029 
L 343.177351 255.386933 
L 343.645423 232.018943 
L 344.113495 250.055802 
L 344.581567 242.380332 
L 345.049638 239.257103 
L 345.51771 244.131443 
L 346.453853 230.781938 
L 346.921925 237.709517 
L 347.389997 231.290332 
L 347.858069 250.134773 
L 348.32614 261.656036 
L 348.794212 262.304878 
L 349.262284 258.08021 
L 349.730355 238.967265 
L 350.198427 237.765932 
L 350.666499 247.681468 
L 351.134571 246.3859 
L 351.602642 248.503352 
L 352.070714 252.064718 
L 352.538786 241.671556 
L 353.006858 226.186649 
L 353.474929 242.12866 
L 353.943001 243.188274 
L 354.411073 259.695347 
L 354.879144 258.055638 
L 355.815288 239.415443 
L 356.28336 249.471769 
L 356.751431 235.109004 
L 357.219503 241.17066 
L 357.687575 238.304643 
L 358.155646 228.058023 
L 358.623718 249.066061 
L 359.09179 263.088273 
L 359.559862 263.669303 
L 360.027933 259.989193 
L 360.496005 268.370652 
L 360.964077 244.709058 
L 361.90022 260.160289 
L 362.368292 265.524264 
L 362.836364 256.682396 
L 363.304435 257.251484 
L 363.772507 256.047896 
L 364.240579 257.327962 
L 364.708651 259.459062 
L 365.176722 262.804679 
L 365.644794 257.483438 
L 366.580937 261.989687 
L 367.049009 244.875366 
L 367.517081 254.972867 
L 367.985153 259.144776 
L 368.453224 254.631704 
L 368.921296 253.532833 
L 369.389368 243.723899 
L 369.857439 263.85801 
L 370.793583 262.203005 
L 371.729726 268.678586 
L 372.197798 281.225274 
L 372.66587 273.41143 
L 373.133941 270.608036 
L 373.602013 286.555808 
L 374.070085 290.492017 
L 374.538157 288.046116 
L 375.006228 275.426395 
L 375.942372 267.778445 
L 376.410444 270.606049 
L 376.878515 269.185906 
L 377.346587 271.357667 
L 378.28273 252.97559 
L 378.750802 251.687793 
L 379.218874 262.570887 
L 379.686946 260.858835 
L 380.155017 256.71019 
L 380.623089 261.021034 
L 381.091161 263.779233 
L 381.559232 268.9902 
L 382.027304 268.570918 
L 382.495376 253.479454 
L 382.963448 225.672562 
L 383.431519 263.41627 
L 383.899591 240.6458 
L 384.367663 241.178793 
L 384.835735 248.11557 
L 385.303806 240.366846 
L 385.771878 255.919937 
L 386.23995 253.634875 
L 386.708021 255.173404 
L 387.176093 258.529293 
L 387.644165 262.866905 
L 388.112237 252.812241 
L 388.580308 254.579157 
L 389.04838 261.023253 
L 389.516452 256.452652 
L 389.984523 264.318088 
L 390.452595 253.333339 
L 390.920667 258.518556 
L 391.388739 257.545832 
L 391.85681 259.882203 
L 392.324882 253.31562 
L 392.792954 237.905329 
L 393.261025 253.892612 
L 393.729097 258.802482 
L 394.197169 265.931458 
L 394.665241 264.921242 
L 395.133312 267.103437 
L 395.601384 260.127169 
L 396.069456 267.586507 
L 396.537528 269.549473 
L 397.005599 266.974807 
L 397.473671 256.132645 
L 398.409814 272.223625 
L 398.877886 270.497517 
L 399.81403 257.657155 
L 400.282101 256.405149 
L 400.750173 263.532088 
L 401.218245 256.060545 
L 401.686316 253.762778 
L 402.154388 253.448366 
L 403.090532 248.87573 
L 403.558603 248.739791 
L 404.026675 241.803348 
L 404.962818 256.401162 
L 405.43089 243.307079 
L 405.898962 245.055725 
L 406.367034 251.716377 
L 406.835105 239.051142 
L 407.303177 252.248393 
L 407.771249 245.307488 
L 408.239321 249.444285 
L 408.707392 246.677381 
L 409.175464 256.079081 
L 409.643536 253.213312 
L 410.111607 262.034026 
L 410.579679 258.26586 
L 411.047751 256.550361 
L 411.515823 261.734713 
L 411.983894 262.492088 
L 412.451966 258.743559 
L 412.920038 258.209045 
L 413.388109 258.151168 
L 413.856181 252.91804 
L 414.324253 251.159276 
L 414.792325 254.128225 
L 415.260396 252.875424 
L 415.728468 255.007417 
L 416.19654 254.437758 
L 416.664612 252.636116 
L 417.132683 253.432975 
L 417.600755 250.405202 
L 418.068827 260.469446 
L 418.536898 261.193337 
L 419.00497 259.770816 
L 419.473042 266.93807 
L 419.941114 258.04437 
L 420.409185 252.436692 
L 420.877257 256.315055 
L 421.345329 232.248207 
L 421.8134 231.914495 
L 422.281472 228.842999 
L 422.749544 239.616256 
L 423.217616 235.050708 
L 423.685687 231.823355 
L 424.153759 232.378659 
L 424.621831 232.615001 
L 425.089902 245.803771 
L 425.557974 247.8782 
L 426.026046 248.494329 
L 426.494118 258.645738 
L 426.962189 260.791725 
L 427.430261 265.72249 
L 427.898333 266.375177 
L 428.366405 271.460316 
L 428.834476 267.491791 
L 429.302548 257.576278 
L 429.77062 259.991581 
L 430.238691 268.215588 
L 430.706763 270.4175 
L 431.174835 266.315367 
L 431.642907 265.794853 
L 432.110978 269.242578 
L 432.57905 264.540509 
L 433.047122 268.536508 
L 433.515193 269.345206 
L 433.983265 268.545206 
L 434.451337 266.191052 
L 434.919409 252.941586 
L 435.38748 253.790485 
L 435.855552 264.481729 
L 436.323624 255.403567 
L 436.791696 250.121393 
L 437.259767 253.276001 
L 437.727839 262.643625 
L 438.195911 250.02276 
L 438.663982 259.015042 
L 439.132054 257.087199 
L 440.536269 264.677207 
L 441.004341 260.782338 
L 441.472413 261.788966 
L 441.940484 255.162206 
L 442.408556 254.283853 
L 442.876628 252.566408 
L 443.3447 262.624268 
L 443.812771 251.096579 
L 444.280843 259.93024 
L 444.748915 263.89609 
L 445.216986 255.35627 
L 445.685058 254.703467 
L 446.15313 261.752199 
L 446.621202 253.012302 
L 447.089273 252.877492 
L 447.557345 247.559738 
L 448.025417 248.279513 
L 448.493489 245.759389 
L 448.96156 246.329937 
L 449.429632 244.526558 
L 449.897704 250.86409 
L 450.365775 255.443536 
L 450.833847 255.708935 
L 451.301919 252.761726 
L 451.769991 258.679737 
L 452.238062 257.865944 
L 452.706134 254.766423 
L 453.174206 258.256763 
L 453.642277 255.560766 
L 454.110349 250.940126 
L 454.578421 248.539487 
L 455.046493 249.219875 
L 455.514564 251.895862 
L 455.982636 248.158616 
L 456.450708 229.700496 
L 456.918779 225.720178 
L 457.386851 230.962719 
L 457.854923 238.763399 
L 458.322995 241.070981 
L 458.791066 237.87708 
L 459.72721 242.801001 
L 460.195282 244.528211 
L 460.663353 221.085715 
L 461.131425 224.33853 
L 461.599497 221.672284 
L 462.067568 227.66171 
L 462.53564 230.792831 
L 463.003712 222.779616 
L 463.471784 225.057228 
L 463.939855 221.784468 
L 464.407927 225.939986 
L 464.875999 224.382973 
L 465.34407 228.385612 
L 465.812142 229.145672 
L 466.280214 220.493156 
L 466.748286 230.13819 
L 467.216357 231.670012 
L 467.684429 228.285431 
L 468.152501 241.253217 
L 468.620573 237.632027 
L 469.556716 211.55285 
L 470.024788 229.788512 
L 470.492859 214.276317 
L 470.960931 228.664049 
L 471.429003 219.173646 
L 471.897075 230.723898 
L 472.365146 232.206904 
L 473.30129 240.274127 
L 473.769361 235.15806 
L 474.237433 231.730421 
L 474.705505 235.270243 
L 475.173577 229.064742 
L 475.641648 240.092734 
L 476.10972 237.168855 
L 476.577792 242.748385 
L 477.045863 232.351939 
L 477.513935 245.339511 
L 477.982007 242.657761 
L 478.450079 245.126653 
L 478.91815 238.785078 
L 479.386222 235.099511 
L 479.854294 228.345604 
L 480.322366 216.301281 
L 480.790437 216.852018 
L 481.258509 200.9644 
L 481.726581 198.320944 
L 482.194652 207.579382 
L 482.662724 194.799579 
L 483.130796 205.293989 
L 483.598868 198.060089 
L 484.066939 180.492465 
L 484.535011 202.444068 
L 485.003083 213.708961 
L 485.471154 205.990583 
L 485.939226 192.841604 
L 486.407298 197.116617 
L 486.87537 214.825735 
L 487.343441 205.799037 
L 487.811513 213.654936 
L 488.279585 203.902202 
L 488.747656 205.192056 
L 489.215728 192.891723 
L 489.6838 200.481735 
L 490.151872 204.583976 
L 490.619943 213.734252 
L 491.088015 202.771217 
L 492.024159 224.161971 
L 492.49223 207.859277 
L 492.960302 222.338801 
L 493.428374 214.494356 
L 493.896445 225.786574 
L 494.364517 197.151222 
L 494.832589 220.012044 
L 495.300661 217.857302 
L 495.768732 208.020728 
L 496.236804 232.938368 
L 496.704876 246.076259 
L 497.172947 215.267376 
L 497.641019 221.714607 
L 497.641019 221.714607 
" clip-path="url(#pa10e53239e)" style="fill: none; stroke: #ff7f0e; stroke-width: 1.5; stroke-linecap: round"/>
   </g>
   <g id="patch_3">
    <path d="M 72 384.48 
L 72 51.84 
" style="fill: none; stroke: #ffffff; stroke-width: 0.8; stroke-linejoin: miter; stroke-linecap: square"/>
   </g>
   <g id="patch_4">
    <path d="M 518.4 384.48 
L 518.4 51.84 
" style="fill: none; stroke: #ffffff; stroke-width: 0.8; stroke-linejoin: miter; stroke-linecap: square"/>
   </g>
   <g id="patch_5">
    <path d="M 72 384.48 
L 518.4 384.48 
" style="fill: none; stroke: #ffffff; stroke-width: 0.8; stroke-linejoin: miter; stroke-linecap: square"/>
   </g>
   <g id="patch_6">
    <path d="M 72 51.84 
L 518.4 51.84 
" style="fill: none; stroke: #ffffff; stroke-width: 0.8; stroke-linejoin: miter; stroke-linecap: square"/>
   </g>
   <g id="text_16">
    <!-- Average Pressure Prediction 12 Days Ahead -->
    <g style="fill: #262626" transform="translate(176.57625 45.84) scale(0.12 -0.12)">
     <defs>
      <path id="ArialMT-41" d="M -9 0 
L 1750 4581 
L 2403 4581 
L 4278 0 
L 3588 0 
L 3053 1388 
L 1138 1388 
L 634 0 
L -9 0 
z
M 1313 1881 
L 2866 1881 
L 2388 3150 
Q 2169 3728 2063 4100 
Q 1975 3659 1816 3225 
L 1313 1881 
z
" transform="scale(0.015625)"/>
      <path id="ArialMT-76" d="M 1344 0 
L 81 3319 
L 675 3319 
L 1388 1331 
Q 1503 1009 1600 663 
Q 1675 925 1809 1294 
L 2547 3319 
L 3125 3319 
L 1869 0 
L 1344 0 
z
" transform="scale(0.015625)"/>
      <path id="ArialMT-65" d="M 2694 1069 
L 3275 997 
Q 3138 488 2766 206 
Q 2394 -75 1816 -75 
Q 1088 -75 661 373 
Q 234 822 234 1631 
Q 234 2469 665 2931 
Q 1097 3394 1784 3394 
Q 2450 3394 2872 2941 
Q 3294 2488 3294 1666 
Q 3294 1616 3291 1516 
L 816 1516 
Q 847 969 1125 678 
Q 1403 388 1819 388 
Q 2128 388 2347 550 
Q 2566 713 2694 1069 
z
M 847 1978 
L 2700 1978 
Q 2663 2397 2488 2606 
Q 2219 2931 1791 2931 
Q 1403 2931 1139 2672 
Q 875 2413 847 1978 
z
" transform="scale(0.015625)"/>
      <path id="ArialMT-72" d="M 416 0 
L 416 3319 
L 922 3319 
L 922 2816 
Q 1116 3169 1280 3281 
Q 1444 3394 1641 3394 
Q 1925 3394 2219 3213 
L 2025 2691 
Q 1819 2813 1613 2813 
Q 1428 2813 1281 2702 
Q 1134 2591 1072 2394 
Q 978 2094 978 1738 
L 978 0 
L 416 0 
z
" transform="scale(0.015625)"/>
      <path id="ArialMT-67" d="M 319 -275 
L 866 -356 
Q 900 -609 1056 -725 
Q 1266 -881 1628 -881 
Q 2019 -881 2231 -725 
Q 2444 -569 2519 -288 
Q 2563 -116 2559 434 
Q 2191 0 1641 0 
Q 956 0 581 494 
Q 206 988 206 1678 
Q 206 2153 378 2554 
Q 550 2956 876 3175 
Q 1203 3394 1644 3394 
Q 2231 3394 2613 2919 
L 2613 3319 
L 3131 3319 
L 3131 450 
Q 3131 -325 2973 -648 
Q 2816 -972 2473 -1159 
Q 2131 -1347 1631 -1347 
Q 1038 -1347 672 -1080 
Q 306 -813 319 -275 
z
M 784 1719 
Q 784 1066 1043 766 
Q 1303 466 1694 466 
Q 2081 466 2343 764 
Q 2606 1063 2606 1700 
Q 2606 2309 2336 2618 
Q 2066 2928 1684 2928 
Q 1309 2928 1046 2623 
Q 784 2319 784 1719 
z
" transform="scale(0.015625)"/>
      <path id="ArialMT-20" transform="scale(0.015625)"/>
      <path id="ArialMT-75" d="M 2597 0 
L 2597 488 
Q 2209 -75 1544 -75 
Q 1250 -75 995 37 
Q 741 150 617 320 
Q 494 491 444 738 
Q 409 903 409 1263 
L 409 3319 
L 972 3319 
L 972 1478 
Q 972 1038 1006 884 
Q 1059 663 1231 536 
Q 1403 409 1656 409 
Q 1909 409 2131 539 
Q 2353 669 2445 892 
Q 2538 1116 2538 1541 
L 2538 3319 
L 3100 3319 
L 3100 0 
L 2597 0 
z
" transform="scale(0.015625)"/>
      <path id="ArialMT-64" d="M 2575 0 
L 2575 419 
Q 2259 -75 1647 -75 
Q 1250 -75 917 144 
Q 584 363 401 755 
Q 219 1147 219 1656 
Q 219 2153 384 2558 
Q 550 2963 881 3178 
Q 1213 3394 1622 3394 
Q 1922 3394 2156 3267 
Q 2391 3141 2538 2938 
L 2538 4581 
L 3097 4581 
L 3097 0 
L 2575 0 
z
M 797 1656 
Q 797 1019 1065 703 
Q 1334 388 1700 388 
Q 2069 388 2326 689 
Q 2584 991 2584 1609 
Q 2584 2291 2321 2609 
Q 2059 2928 1675 2928 
Q 1300 2928 1048 2622 
Q 797 2316 797 1656 
z
" transform="scale(0.015625)"/>
      <path id="ArialMT-69" d="M 425 3934 
L 425 4581 
L 988 4581 
L 988 3934 
L 425 3934 
z
M 425 0 
L 425 3319 
L 988 3319 
L 988 0 
L 425 0 
z
" transform="scale(0.015625)"/>
      <path id="ArialMT-63" d="M 2588 1216 
L 3141 1144 
Q 3050 572 2676 248 
Q 2303 -75 1759 -75 
Q 1078 -75 664 370 
Q 250 816 250 1647 
Q 250 2184 428 2587 
Q 606 2991 970 3192 
Q 1334 3394 1763 3394 
Q 2303 3394 2647 3120 
Q 2991 2847 3088 2344 
L 2541 2259 
Q 2463 2594 2264 2762 
Q 2066 2931 1784 2931 
Q 1359 2931 1093 2626 
Q 828 2322 828 1663 
Q 828 994 1084 691 
Q 1341 388 1753 388 
Q 2084 388 2306 591 
Q 2528 794 2588 1216 
z
" transform="scale(0.015625)"/>
      <path id="ArialMT-74" d="M 1650 503 
L 1731 6 
Q 1494 -44 1306 -44 
Q 1000 -44 831 53 
Q 663 150 594 308 
Q 525 466 525 972 
L 525 2881 
L 113 2881 
L 113 3319 
L 525 3319 
L 525 4141 
L 1084 4478 
L 1084 3319 
L 1650 3319 
L 1650 2881 
L 1084 2881 
L 1084 941 
Q 1084 700 1114 631 
Q 1144 563 1211 522 
Q 1278 481 1403 481 
Q 1497 481 1650 503 
z
" transform="scale(0.015625)"/>
      <path id="ArialMT-6f" d="M 213 1659 
Q 213 2581 725 3025 
Q 1153 3394 1769 3394 
Q 2453 3394 2887 2945 
Q 3322 2497 3322 1706 
Q 3322 1066 3130 698 
Q 2938 331 2570 128 
Q 2203 -75 1769 -75 
Q 1072 -75 642 372 
Q 213 819 213 1659 
z
M 791 1659 
Q 791 1022 1069 705 
Q 1347 388 1769 388 
Q 2188 388 2466 706 
Q 2744 1025 2744 1678 
Q 2744 2294 2464 2611 
Q 2184 2928 1769 2928 
Q 1347 2928 1069 2612 
Q 791 2297 791 1659 
z
" transform="scale(0.015625)"/>
      <path id="ArialMT-6e" d="M 422 0 
L 422 3319 
L 928 3319 
L 928 2847 
Q 1294 3394 1984 3394 
Q 2284 3394 2536 3286 
Q 2788 3178 2913 3003 
Q 3038 2828 3088 2588 
Q 3119 2431 3119 2041 
L 3119 0 
L 2556 0 
L 2556 2019 
Q 2556 2363 2490 2533 
Q 2425 2703 2258 2804 
Q 2091 2906 1866 2906 
Q 1506 2906 1245 2678 
Q 984 2450 984 1813 
L 984 0 
L 422 0 
z
" transform="scale(0.015625)"/>
     </defs>
     <use xlink:href="#ArialMT-41"/>
     <use xlink:href="#ArialMT-76" x="64.949219"/>
     <use xlink:href="#ArialMT-65" x="114.949219"/>
     <use xlink:href="#ArialMT-72" x="170.564453"/>
     <use xlink:href="#ArialMT-61" x="203.865234"/>
     <use xlink:href="#ArialMT-67" x="259.480469"/>
     <use xlink:href="#ArialMT-65" x="315.095703"/>
     <use xlink:href="#ArialMT-20" x="370.710938"/>
     <use xlink:href="#ArialMT-50" x="398.494141"/>
     <use xlink:href="#ArialMT-72" x="465.193359"/>
     <use xlink:href="#ArialMT-65" x="498.494141"/>
     <use xlink:href="#ArialMT-73" x="554.109375"/>
     <use xlink:href="#ArialMT-73" x="604.109375"/>
     <use xlink:href="#ArialMT-75" x="654.109375"/>
     <use xlink:href="#ArialMT-72" x="709.724609"/>
     <use xlink:href="#ArialMT-65" x="743.025391"/>
     <use xlink:href="#ArialMT-20" x="798.640625"/>
     <use xlink:href="#ArialMT-50" x="826.423828"/>
     <use xlink:href="#ArialMT-72" x="893.123047"/>
     <use xlink:href="#ArialMT-65" x="926.423828"/>
     <use xlink:href="#ArialMT-64" x="982.039062"/>
     <use xlink:href="#ArialMT-69" x="1037.654297"/>
     <use xlink:href="#ArialMT-63" x="1059.871094"/>
     <use xlink:href="#ArialMT-74" x="1109.871094"/>
     <use xlink:href="#ArialMT-69" x="1137.654297"/>
     <use xlink:href="#ArialMT-6f" x="1159.871094"/>
     <use xlink:href="#ArialMT-6e" x="1215.486328"/>
     <use xlink:href="#ArialMT-20" x="1271.101562"/>
     <use xlink:href="#ArialMT-31" x="1298.884766"/>
     <use xlink:href="#ArialMT-32" x="1354.5"/>
     <use xlink:href="#ArialMT-20" x="1410.115234"/>
     <use xlink:href="#ArialMT-44" x="1437.898438"/>
     <use xlink:href="#ArialMT-61" x="1510.115234"/>
     <use xlink:href="#ArialMT-79" x="1565.730469"/>
     <use xlink:href="#ArialMT-73" x="1615.730469"/>
     <use xlink:href="#ArialMT-20" x="1665.730469"/>
     <use xlink:href="#ArialMT-41" x="1688.013672"/>
     <use xlink:href="#ArialMT-68" x="1754.712891"/>
     <use xlink:href="#ArialMT-65" x="1810.328125"/>
     <use xlink:href="#ArialMT-61" x="1865.943359"/>
     <use xlink:href="#ArialMT-64" x="1921.558594"/>
    </g>
   </g>
   <g id="legend_1">
    <g id="patch_7">
     <path d="M 437.15625 88.130625 
L 511.4 88.130625 
Q 513.4 88.130625 513.4 86.130625 
L 513.4 58.84 
Q 513.4 56.84 511.4 56.84 
L 437.15625 56.84 
Q 435.15625 56.84 435.15625 58.84 
L 435.15625 86.130625 
Q 435.15625 88.130625 437.15625 88.130625 
z
" style="fill: #eaeaf2; opacity: 0.8; stroke: #cccccc; stroke-linejoin: miter"/>
    </g>
    <g id="line2d_16">
     <path d="M 439.15625 64.497812 
L 449.15625 64.497812 
L 459.15625 64.497812 
" style="fill: none; stroke: #1f77b4; stroke-width: 1.5; stroke-linecap: round"/>
    </g>
    <g id="text_17">
     <!-- Real -->
     <g style="fill: #262626" transform="translate(467.15625 67.997812) scale(0.1 -0.1)">
      <defs>
       <path id="ArialMT-52" d="M 503 0 
L 503 4581 
L 2534 4581 
Q 3147 4581 3465 4457 
Q 3784 4334 3975 4021 
Q 4166 3709 4166 3331 
Q 4166 2844 3850 2509 
Q 3534 2175 2875 2084 
Q 3116 1969 3241 1856 
Q 3506 1613 3744 1247 
L 4541 0 
L 3778 0 
L 3172 953 
Q 2906 1366 2734 1584 
Q 2563 1803 2427 1890 
Q 2291 1978 2150 2013 
Q 2047 2034 1813 2034 
L 1109 2034 
L 1109 0 
L 503 0 
z
M 1109 2559 
L 2413 2559 
Q 2828 2559 3062 2645 
Q 3297 2731 3419 2920 
Q 3541 3109 3541 3331 
Q 3541 3656 3305 3865 
Q 3069 4075 2559 4075 
L 1109 4075 
L 1109 2559 
z
" transform="scale(0.015625)"/>
       <path id="ArialMT-6c" d="M 409 0 
L 409 4581 
L 972 4581 
L 972 0 
L 409 0 
z
" transform="scale(0.015625)"/>
      </defs>
      <use xlink:href="#ArialMT-52"/>
      <use xlink:href="#ArialMT-65" x="72.216797"/>
      <use xlink:href="#ArialMT-61" x="127.832031"/>
      <use xlink:href="#ArialMT-6c" x="183.447266"/>
     </g>
    </g>
    <g id="line2d_17">
     <path d="M 439.15625 78.643125 
L 449.15625 78.643125 
L 459.15625 78.643125 
" style="fill: none; stroke: #ff7f0e; stroke-width: 1.5; stroke-linecap: round"/>
    </g>
    <g id="text_18">
     <!-- Predicted -->
     <g style="fill: #262626" transform="translate(467.15625 82.143125) scale(0.1 -0.1)">
      <use xlink:href="#ArialMT-50"/>
      <use xlink:href="#ArialMT-72" x="66.699219"/>
      <use xlink:href="#ArialMT-65" x="100"/>
      <use xlink:href="#ArialMT-64" x="155.615234"/>
      <use xlink:href="#ArialMT-69" x="211.230469"/>
      <use xlink:href="#ArialMT-63" x="233.447266"/>
      <use xlink:href="#ArialMT-74" x="283.447266"/>
      <use xlink:href="#ArialMT-65" x="311.230469"/>
      <use xlink:href="#ArialMT-64" x="366.845703"/>
     </g>
    </g>
   </g>
  </g>
 </g>
 <defs>
  <clipPath id="pa10e53239e">
   <rect x="72" y="51.84" width="446.4" height="332.64"/>
  </clipPath>
 </defs>
</svg>
