<?xml version="1.0" encoding="utf-8" standalone="no"?>
<!DOCTYPE svg PUBLIC "-//W3C//DTD SVG 1.1//EN"
  "http://www.w3.org/Graphics/SVG/1.1/DTD/svg11.dtd">
<svg xmlns:xlink="http://www.w3.org/1999/xlink" width="576pt" height="432pt" viewBox="0 0 576 432" xmlns="http://www.w3.org/2000/svg" version="1.1">
 <metadata>
  <rdf:RDF xmlns:dc="http://purl.org/dc/elements/1.1/" xmlns:cc="http://creativecommons.org/ns#" xmlns:rdf="http://www.w3.org/1999/02/22-rdf-syntax-ns#">
   <cc:Work>
    <dc:type rdf:resource="http://purl.org/dc/dcmitype/StillImage"/>
    <dc:date>2023-11-17T05:15:30.445919</dc:date>
    <dc:format>image/svg+xml</dc:format>
    <dc:creator>
     <cc:Agent>
      <dc:title>Matplotlib v3.8.0, https://matplotlib.org/</dc:title>
     </cc:Agent>
    </dc:creator>
   </cc:Work>
  </rdf:RDF>
 </metadata>
 <defs>
  <style type="text/css">*{stroke-linejoin: round; stroke-linecap: butt}</style>
 </defs>
 <g id="figure_1">
  <g id="patch_1">
   <path d="M 0 432 
L 576 432 
L 576 0 
L 0 0 
z
" style="fill: #ffffff"/>
  </g>
  <g id="axes_1">
   <g id="patch_2">
    <path d="M 72 384.48 
L 518.4 384.48 
L 518.4 51.84 
L 72 51.84 
z
" style="fill: #eaeaf2"/>
   </g>
   <g id="matplotlib.axis_1">
    <g id="xtick_1">
     <g id="line2d_1">
      <path d="M 92.290909 384.48 
L 92.290909 51.84 
" clip-path="url(#p4427cbdee9)" style="fill: none; stroke: #ffffff; stroke-width: 0.8; stroke-linecap: round"/>
     </g>
     <g id="text_1">
      <!-- 0 -->
      <g style="fill: #262626" transform="translate(89.51044 398.637812) scale(0.1 -0.1)">
       <defs>
        <path id="ArialMT-30" d="M 266 2259 
Q 266 3072 433 3567 
Q 600 4063 929 4331 
Q 1259 4600 1759 4600 
Q 2128 4600 2406 4451 
Q 2684 4303 2865 4023 
Q 3047 3744 3150 3342 
Q 3253 2941 3253 2259 
Q 3253 1453 3087 958 
Q 2922 463 2592 192 
Q 2263 -78 1759 -78 
Q 1097 -78 719 397 
Q 266 969 266 2259 
z
M 844 2259 
Q 844 1131 1108 757 
Q 1372 384 1759 384 
Q 2147 384 2411 759 
Q 2675 1134 2675 2259 
Q 2675 3391 2411 3762 
Q 2147 4134 1753 4134 
Q 1366 4134 1134 3806 
Q 844 3388 844 2259 
z
" transform="scale(0.015625)"/>
       </defs>
       <use xlink:href="#ArialMT-30"/>
      </g>
     </g>
    </g>
    <g id="xtick_2">
     <g id="line2d_2">
      <path d="M 185.905253 384.48 
L 185.905253 51.84 
" clip-path="url(#p4427cbdee9)" style="fill: none; stroke: #ffffff; stroke-width: 0.8; stroke-linecap: round"/>
     </g>
     <g id="text_2">
      <!-- 200 -->
      <g style="fill: #262626" transform="translate(177.563847 398.637812) scale(0.1 -0.1)">
       <defs>
        <path id="ArialMT-32" d="M 3222 541 
L 3222 0 
L 194 0 
Q 188 203 259 391 
Q 375 700 629 1000 
Q 884 1300 1366 1694 
Q 2113 2306 2375 2664 
Q 2638 3022 2638 3341 
Q 2638 3675 2398 3904 
Q 2159 4134 1775 4134 
Q 1369 4134 1125 3890 
Q 881 3647 878 3216 
L 300 3275 
Q 359 3922 746 4261 
Q 1134 4600 1788 4600 
Q 2447 4600 2831 4234 
Q 3216 3869 3216 3328 
Q 3216 3053 3103 2787 
Q 2991 2522 2730 2228 
Q 2469 1934 1863 1422 
Q 1356 997 1212 845 
Q 1069 694 975 541 
L 3222 541 
z
" transform="scale(0.015625)"/>
       </defs>
       <use xlink:href="#ArialMT-32"/>
       <use xlink:href="#ArialMT-30" x="55.615234"/>
       <use xlink:href="#ArialMT-30" x="111.230469"/>
      </g>
     </g>
    </g>
    <g id="xtick_3">
     <g id="line2d_3">
      <path d="M 279.519597 384.48 
L 279.519597 51.84 
" clip-path="url(#p4427cbdee9)" style="fill: none; stroke: #ffffff; stroke-width: 0.8; stroke-linecap: round"/>
     </g>
     <g id="text_3">
      <!-- 400 -->
      <g style="fill: #262626" transform="translate(271.178191 398.637812) scale(0.1 -0.1)">
       <defs>
        <path id="ArialMT-34" d="M 2069 0 
L 2069 1097 
L 81 1097 
L 81 1613 
L 2172 4581 
L 2631 4581 
L 2631 1613 
L 3250 1613 
L 3250 1097 
L 2631 1097 
L 2631 0 
L 2069 0 
z
M 2069 1613 
L 2069 3678 
L 634 1613 
L 2069 1613 
z
" transform="scale(0.015625)"/>
       </defs>
       <use xlink:href="#ArialMT-34"/>
       <use xlink:href="#ArialMT-30" x="55.615234"/>
       <use xlink:href="#ArialMT-30" x="111.230469"/>
      </g>
     </g>
    </g>
    <g id="xtick_4">
     <g id="line2d_4">
      <path d="M 373.133941 384.48 
L 373.133941 51.84 
" clip-path="url(#p4427cbdee9)" style="fill: none; stroke: #ffffff; stroke-width: 0.8; stroke-linecap: round"/>
     </g>
     <g id="text_4">
      <!-- 600 -->
      <g style="fill: #262626" transform="translate(364.792535 398.637812) scale(0.1 -0.1)">
       <defs>
        <path id="ArialMT-36" d="M 3184 3459 
L 2625 3416 
Q 2550 3747 2413 3897 
Q 2184 4138 1850 4138 
Q 1581 4138 1378 3988 
Q 1113 3794 959 3422 
Q 806 3050 800 2363 
Q 1003 2672 1297 2822 
Q 1591 2972 1913 2972 
Q 2475 2972 2870 2558 
Q 3266 2144 3266 1488 
Q 3266 1056 3080 686 
Q 2894 316 2569 119 
Q 2244 -78 1831 -78 
Q 1128 -78 684 439 
Q 241 956 241 2144 
Q 241 3472 731 4075 
Q 1159 4600 1884 4600 
Q 2425 4600 2770 4297 
Q 3116 3994 3184 3459 
z
M 888 1484 
Q 888 1194 1011 928 
Q 1134 663 1356 523 
Q 1578 384 1822 384 
Q 2178 384 2434 671 
Q 2691 959 2691 1453 
Q 2691 1928 2437 2201 
Q 2184 2475 1800 2475 
Q 1419 2475 1153 2201 
Q 888 1928 888 1484 
z
" transform="scale(0.015625)"/>
       </defs>
       <use xlink:href="#ArialMT-36"/>
       <use xlink:href="#ArialMT-30" x="55.615234"/>
       <use xlink:href="#ArialMT-30" x="111.230469"/>
      </g>
     </g>
    </g>
    <g id="xtick_5">
     <g id="line2d_5">
      <path d="M 466.748286 384.48 
L 466.748286 51.84 
" clip-path="url(#p4427cbdee9)" style="fill: none; stroke: #ffffff; stroke-width: 0.8; stroke-linecap: round"/>
     </g>
     <g id="text_5">
      <!-- 800 -->
      <g style="fill: #262626" transform="translate(458.406879 398.637812) scale(0.1 -0.1)">
       <defs>
        <path id="ArialMT-38" d="M 1131 2484 
Q 781 2613 612 2850 
Q 444 3088 444 3419 
Q 444 3919 803 4259 
Q 1163 4600 1759 4600 
Q 2359 4600 2725 4251 
Q 3091 3903 3091 3403 
Q 3091 3084 2923 2848 
Q 2756 2613 2416 2484 
Q 2838 2347 3058 2040 
Q 3278 1734 3278 1309 
Q 3278 722 2862 322 
Q 2447 -78 1769 -78 
Q 1091 -78 675 323 
Q 259 725 259 1325 
Q 259 1772 486 2073 
Q 713 2375 1131 2484 
z
M 1019 3438 
Q 1019 3113 1228 2906 
Q 1438 2700 1772 2700 
Q 2097 2700 2305 2904 
Q 2513 3109 2513 3406 
Q 2513 3716 2298 3927 
Q 2084 4138 1766 4138 
Q 1444 4138 1231 3931 
Q 1019 3725 1019 3438 
z
M 838 1322 
Q 838 1081 952 856 
Q 1066 631 1291 507 
Q 1516 384 1775 384 
Q 2178 384 2440 643 
Q 2703 903 2703 1303 
Q 2703 1709 2433 1975 
Q 2163 2241 1756 2241 
Q 1359 2241 1098 1978 
Q 838 1716 838 1322 
z
" transform="scale(0.015625)"/>
       </defs>
       <use xlink:href="#ArialMT-38"/>
       <use xlink:href="#ArialMT-30" x="55.615234"/>
       <use xlink:href="#ArialMT-30" x="111.230469"/>
      </g>
     </g>
    </g>
    <g id="text_6">
     <!-- Days -->
     <g style="fill: #262626" transform="translate(283.808594 411.783125) scale(0.1 -0.1)">
      <defs>
       <path id="ArialMT-44" d="M 494 0 
L 494 4581 
L 2072 4581 
Q 2606 4581 2888 4516 
Q 3281 4425 3559 4188 
Q 3922 3881 4101 3404 
Q 4281 2928 4281 2316 
Q 4281 1794 4159 1391 
Q 4038 988 3847 723 
Q 3656 459 3429 307 
Q 3203 156 2883 78 
Q 2563 0 2147 0 
L 494 0 
z
M 1100 541 
L 2078 541 
Q 2531 541 2789 625 
Q 3047 709 3200 863 
Q 3416 1078 3536 1442 
Q 3656 1806 3656 2325 
Q 3656 3044 3420 3430 
Q 3184 3816 2847 3947 
Q 2603 4041 2063 4041 
L 1100 4041 
L 1100 541 
z
" transform="scale(0.015625)"/>
       <path id="ArialMT-61" d="M 2588 409 
Q 2275 144 1986 34 
Q 1697 -75 1366 -75 
Q 819 -75 525 192 
Q 231 459 231 875 
Q 231 1119 342 1320 
Q 453 1522 633 1644 
Q 813 1766 1038 1828 
Q 1203 1872 1538 1913 
Q 2219 1994 2541 2106 
Q 2544 2222 2544 2253 
Q 2544 2597 2384 2738 
Q 2169 2928 1744 2928 
Q 1347 2928 1158 2789 
Q 969 2650 878 2297 
L 328 2372 
Q 403 2725 575 2942 
Q 747 3159 1072 3276 
Q 1397 3394 1825 3394 
Q 2250 3394 2515 3294 
Q 2781 3194 2906 3042 
Q 3031 2891 3081 2659 
Q 3109 2516 3109 2141 
L 3109 1391 
Q 3109 606 3145 398 
Q 3181 191 3288 0 
L 2700 0 
Q 2613 175 2588 409 
z
M 2541 1666 
Q 2234 1541 1622 1453 
Q 1275 1403 1131 1340 
Q 988 1278 909 1158 
Q 831 1038 831 891 
Q 831 666 1001 516 
Q 1172 366 1500 366 
Q 1825 366 2078 508 
Q 2331 650 2450 897 
Q 2541 1088 2541 1459 
L 2541 1666 
z
" transform="scale(0.015625)"/>
       <path id="ArialMT-79" d="M 397 -1278 
L 334 -750 
Q 519 -800 656 -800 
Q 844 -800 956 -737 
Q 1069 -675 1141 -563 
Q 1194 -478 1313 -144 
Q 1328 -97 1363 -6 
L 103 3319 
L 709 3319 
L 1400 1397 
Q 1534 1031 1641 628 
Q 1738 1016 1872 1384 
L 2581 3319 
L 3144 3319 
L 1881 -56 
Q 1678 -603 1566 -809 
Q 1416 -1088 1222 -1217 
Q 1028 -1347 759 -1347 
Q 597 -1347 397 -1278 
z
" transform="scale(0.015625)"/>
       <path id="ArialMT-73" d="M 197 991 
L 753 1078 
Q 800 744 1014 566 
Q 1228 388 1613 388 
Q 2000 388 2187 545 
Q 2375 703 2375 916 
Q 2375 1106 2209 1216 
Q 2094 1291 1634 1406 
Q 1016 1563 777 1677 
Q 538 1791 414 1992 
Q 291 2194 291 2438 
Q 291 2659 392 2848 
Q 494 3038 669 3163 
Q 800 3259 1026 3326 
Q 1253 3394 1513 3394 
Q 1903 3394 2198 3281 
Q 2494 3169 2634 2976 
Q 2775 2784 2828 2463 
L 2278 2388 
Q 2241 2644 2061 2787 
Q 1881 2931 1553 2931 
Q 1166 2931 1000 2803 
Q 834 2675 834 2503 
Q 834 2394 903 2306 
Q 972 2216 1119 2156 
Q 1203 2125 1616 2013 
Q 2213 1853 2448 1751 
Q 2684 1650 2818 1456 
Q 2953 1263 2953 975 
Q 2953 694 2789 445 
Q 2625 197 2315 61 
Q 2006 -75 1616 -75 
Q 969 -75 630 194 
Q 291 463 197 991 
z
" transform="scale(0.015625)"/>
      </defs>
      <use xlink:href="#ArialMT-44"/>
      <use xlink:href="#ArialMT-61" x="72.216797"/>
      <use xlink:href="#ArialMT-79" x="127.832031"/>
      <use xlink:href="#ArialMT-73" x="177.832031"/>
     </g>
    </g>
   </g>
   <g id="matplotlib.axis_2">
    <g id="ytick_1">
     <g id="line2d_6">
      <path d="M 72 377.823157 
L 518.4 377.823157 
" clip-path="url(#p4427cbdee9)" style="fill: none; stroke: #ffffff; stroke-width: 0.8; stroke-linecap: round"/>
     </g>
     <g id="text_7">
      <!-- 2.5 -->
      <g style="fill: #262626" transform="translate(51.1 381.402063) scale(0.1 -0.1)">
       <defs>
        <path id="ArialMT-2e" d="M 581 0 
L 581 641 
L 1222 641 
L 1222 0 
L 581 0 
z
" transform="scale(0.015625)"/>
        <path id="ArialMT-35" d="M 266 1200 
L 856 1250 
Q 922 819 1161 601 
Q 1400 384 1738 384 
Q 2144 384 2425 690 
Q 2706 997 2706 1503 
Q 2706 1984 2436 2262 
Q 2166 2541 1728 2541 
Q 1456 2541 1237 2417 
Q 1019 2294 894 2097 
L 366 2166 
L 809 4519 
L 3088 4519 
L 3088 3981 
L 1259 3981 
L 1013 2750 
Q 1425 3038 1878 3038 
Q 2478 3038 2890 2622 
Q 3303 2206 3303 1553 
Q 3303 931 2941 478 
Q 2500 -78 1738 -78 
Q 1113 -78 717 272 
Q 322 622 266 1200 
z
" transform="scale(0.015625)"/>
       </defs>
       <use xlink:href="#ArialMT-32"/>
       <use xlink:href="#ArialMT-2e" x="55.615234"/>
       <use xlink:href="#ArialMT-35" x="83.398438"/>
      </g>
     </g>
    </g>
    <g id="ytick_2">
     <g id="line2d_7">
      <path d="M 72 335.783796 
L 518.4 335.783796 
" clip-path="url(#p4427cbdee9)" style="fill: none; stroke: #ffffff; stroke-width: 0.8; stroke-linecap: round"/>
     </g>
     <g id="text_8">
      <!-- 5.0 -->
      <g style="fill: #262626" transform="translate(51.1 339.362703) scale(0.1 -0.1)">
       <use xlink:href="#ArialMT-35"/>
       <use xlink:href="#ArialMT-2e" x="55.615234"/>
       <use xlink:href="#ArialMT-30" x="83.398438"/>
      </g>
     </g>
    </g>
    <g id="ytick_3">
     <g id="line2d_8">
      <path d="M 72 293.744436 
L 518.4 293.744436 
" clip-path="url(#p4427cbdee9)" style="fill: none; stroke: #ffffff; stroke-width: 0.8; stroke-linecap: round"/>
     </g>
     <g id="text_9">
      <!-- 7.5 -->
      <g style="fill: #262626" transform="translate(51.1 297.323342) scale(0.1 -0.1)">
       <defs>
        <path id="ArialMT-37" d="M 303 3981 
L 303 4522 
L 3269 4522 
L 3269 4084 
Q 2831 3619 2401 2847 
Q 1972 2075 1738 1259 
Q 1569 684 1522 0 
L 944 0 
Q 953 541 1156 1306 
Q 1359 2072 1739 2783 
Q 2119 3494 2547 3981 
L 303 3981 
z
" transform="scale(0.015625)"/>
       </defs>
       <use xlink:href="#ArialMT-37"/>
       <use xlink:href="#ArialMT-2e" x="55.615234"/>
       <use xlink:href="#ArialMT-35" x="83.398438"/>
      </g>
     </g>
    </g>
    <g id="ytick_4">
     <g id="line2d_9">
      <path d="M 72 251.705076 
L 518.4 251.705076 
" clip-path="url(#p4427cbdee9)" style="fill: none; stroke: #ffffff; stroke-width: 0.8; stroke-linecap: round"/>
     </g>
     <g id="text_10">
      <!-- 10.0 -->
      <g style="fill: #262626" transform="translate(45.539062 255.283982) scale(0.1 -0.1)">
       <defs>
        <path id="ArialMT-31" d="M 2384 0 
L 1822 0 
L 1822 3584 
Q 1619 3391 1289 3197 
Q 959 3003 697 2906 
L 697 3450 
Q 1169 3672 1522 3987 
Q 1875 4303 2022 4600 
L 2384 4600 
L 2384 0 
z
" transform="scale(0.015625)"/>
       </defs>
       <use xlink:href="#ArialMT-31"/>
       <use xlink:href="#ArialMT-30" x="55.615234"/>
       <use xlink:href="#ArialMT-2e" x="111.230469"/>
       <use xlink:href="#ArialMT-30" x="139.013672"/>
      </g>
     </g>
    </g>
    <g id="ytick_5">
     <g id="line2d_10">
      <path d="M 72 209.665716 
L 518.4 209.665716 
" clip-path="url(#p4427cbdee9)" style="fill: none; stroke: #ffffff; stroke-width: 0.8; stroke-linecap: round"/>
     </g>
     <g id="text_11">
      <!-- 12.5 -->
      <g style="fill: #262626" transform="translate(45.539062 213.244622) scale(0.1 -0.1)">
       <use xlink:href="#ArialMT-31"/>
       <use xlink:href="#ArialMT-32" x="55.615234"/>
       <use xlink:href="#ArialMT-2e" x="111.230469"/>
       <use xlink:href="#ArialMT-35" x="139.013672"/>
      </g>
     </g>
    </g>
    <g id="ytick_6">
     <g id="line2d_11">
      <path d="M 72 167.626355 
L 518.4 167.626355 
" clip-path="url(#p4427cbdee9)" style="fill: none; stroke: #ffffff; stroke-width: 0.8; stroke-linecap: round"/>
     </g>
     <g id="text_12">
      <!-- 15.0 -->
      <g style="fill: #262626" transform="translate(45.539062 171.205262) scale(0.1 -0.1)">
       <use xlink:href="#ArialMT-31"/>
       <use xlink:href="#ArialMT-35" x="55.615234"/>
       <use xlink:href="#ArialMT-2e" x="111.230469"/>
       <use xlink:href="#ArialMT-30" x="139.013672"/>
      </g>
     </g>
    </g>
    <g id="ytick_7">
     <g id="line2d_12">
      <path d="M 72 125.586995 
L 518.4 125.586995 
" clip-path="url(#p4427cbdee9)" style="fill: none; stroke: #ffffff; stroke-width: 0.8; stroke-linecap: round"/>
     </g>
     <g id="text_13">
      <!-- 17.5 -->
      <g style="fill: #262626" transform="translate(45.539062 129.165901) scale(0.1 -0.1)">
       <use xlink:href="#ArialMT-31"/>
       <use xlink:href="#ArialMT-37" x="55.615234"/>
       <use xlink:href="#ArialMT-2e" x="111.230469"/>
       <use xlink:href="#ArialMT-35" x="139.013672"/>
      </g>
     </g>
    </g>
    <g id="ytick_8">
     <g id="line2d_13">
      <path d="M 72 83.547635 
L 518.4 83.547635 
" clip-path="url(#p4427cbdee9)" style="fill: none; stroke: #ffffff; stroke-width: 0.8; stroke-linecap: round"/>
     </g>
     <g id="text_14">
      <!-- 20.0 -->
      <g style="fill: #262626" transform="translate(45.539062 87.126541) scale(0.1 -0.1)">
       <use xlink:href="#ArialMT-32"/>
       <use xlink:href="#ArialMT-30" x="55.615234"/>
       <use xlink:href="#ArialMT-2e" x="111.230469"/>
       <use xlink:href="#ArialMT-30" x="139.013672"/>
      </g>
     </g>
    </g>
    <g id="text_15">
     <!-- (m/s) -->
     <g style="fill: #262626" transform="translate(39.434375 229.543594) rotate(-90) scale(0.1 -0.1)">
      <defs>
       <path id="ArialMT-28" d="M 1497 -1347 
Q 1031 -759 709 28 
Q 388 816 388 1659 
Q 388 2403 628 3084 
Q 909 3875 1497 4659 
L 1900 4659 
Q 1522 4009 1400 3731 
Q 1209 3300 1100 2831 
Q 966 2247 966 1656 
Q 966 153 1900 -1347 
L 1497 -1347 
z
" transform="scale(0.015625)"/>
       <path id="ArialMT-6d" d="M 422 0 
L 422 3319 
L 925 3319 
L 925 2853 
Q 1081 3097 1340 3245 
Q 1600 3394 1931 3394 
Q 2300 3394 2536 3241 
Q 2772 3088 2869 2813 
Q 3263 3394 3894 3394 
Q 4388 3394 4653 3120 
Q 4919 2847 4919 2278 
L 4919 0 
L 4359 0 
L 4359 2091 
Q 4359 2428 4304 2576 
Q 4250 2725 4106 2815 
Q 3963 2906 3769 2906 
Q 3419 2906 3187 2673 
Q 2956 2441 2956 1928 
L 2956 0 
L 2394 0 
L 2394 2156 
Q 2394 2531 2256 2718 
Q 2119 2906 1806 2906 
Q 1569 2906 1367 2781 
Q 1166 2656 1075 2415 
Q 984 2175 984 1722 
L 984 0 
L 422 0 
z
" transform="scale(0.015625)"/>
       <path id="ArialMT-2f" d="M 0 -78 
L 1328 4659 
L 1778 4659 
L 453 -78 
L 0 -78 
z
" transform="scale(0.015625)"/>
       <path id="ArialMT-29" d="M 791 -1347 
L 388 -1347 
Q 1322 153 1322 1656 
Q 1322 2244 1188 2822 
Q 1081 3291 891 3722 
Q 769 4003 388 4659 
L 791 4659 
Q 1378 3875 1659 3084 
Q 1900 2403 1900 1659 
Q 1900 816 1576 28 
Q 1253 -759 791 -1347 
z
" transform="scale(0.015625)"/>
      </defs>
      <use xlink:href="#ArialMT-28"/>
      <use xlink:href="#ArialMT-6d" x="33.300781"/>
      <use xlink:href="#ArialMT-2f" x="116.601562"/>
      <use xlink:href="#ArialMT-73" x="144.384766"/>
      <use xlink:href="#ArialMT-29" x="194.384766"/>
     </g>
    </g>
   </g>
   <g id="line2d_14">
    <path d="M 92.290909 306.061969 
L 92.758981 331.243546 
L 93.227053 313.418857 
L 93.695124 315.310628 
L 94.163196 285.24249 
L 94.631268 290.255169 
L 95.099339 263.728333 
L 95.567411 283.528872 
L 96.035483 278.147834 
L 96.503555 235.940316 
L 96.971626 207.857141 
L 97.439698 269.15141 
L 97.90777 248.426006 
L 98.375841 235.057489 
L 98.843913 241.699708 
L 99.311985 261.82768 
L 99.780057 263.89649 
L 100.248128 268.941214 
L 100.7162 280.249802 
L 101.184272 216.686289 
L 101.652344 256.581642 
L 102.120415 279.913487 
L 102.588487 291.053917 
L 103.056559 243.044968 
L 103.52463 292.525295 
L 103.992702 310.476102 
L 104.460774 316.277533 
L 104.928846 332.504726 
L 105.396917 358.358933 
L 105.864989 285.714918 
L 106.333061 326.829413 
L 106.801132 338.264119 
L 107.737276 311.148731 
L 108.205348 312.325833 
L 108.673419 293.282003 
L 109.141491 309.245495 
L 109.609563 312.53603 
L 110.077634 306.860717 
L 110.545706 317.79095 
L 111.013778 255.824933 
L 111.48185 311.8634 
L 112.417993 321.574493 
L 112.886065 307.575386 
L 113.354137 311.022613 
L 113.822208 311.737282 
L 114.29028 307.28111 
L 114.758352 281.805258 
L 115.226423 322.499359 
L 115.694495 327.754279 
L 116.162567 303.119214 
L 116.630639 190.411689 
L 117.09871 316.140165 
L 117.566782 324.307051 
L 118.034854 315.370945 
L 118.502925 322.877713 
L 118.970997 313.309496 
L 119.439069 330.115832 
L 119.907141 328.006515 
L 120.843284 282.35177 
L 121.311356 299.251592 
L 121.779427 339.525299 
L 122.247499 322.331201 
L 122.715571 329.225656 
L 123.183643 296.476995 
L 123.651714 321.910808 
L 124.119786 293.996672 
L 124.587858 232.114734 
L 125.05593 237.579851 
L 125.524001 332.6135 
L 125.992073 328.34283 
L 126.460145 325.69435 
L 126.928216 314.301683 
L 127.396288 295.383971 
L 127.86436 298.663041 
L 128.332432 328.142916 
L 129.268575 66.96 
L 129.736647 335.069127 
L 130.204718 327.165728 
L 130.67279 280.922431 
L 131.140862 323.466264 
L 131.608934 233.796308 
L 132.077005 169.420035 
L 132.545077 315.249904 
L 133.013149 326.661255 
L 133.481221 304.212237 
L 133.949292 317.580753 
L 134.417364 318.474163 
L 134.885436 311.90544 
L 135.353507 287.816886 
L 135.821579 256.455524 
L 136.289651 290.633524 
L 136.757723 302.133493 
L 137.225794 323.04587 
L 137.693866 331.512833 
L 138.161938 318.841934 
L 138.630009 292.609373 
L 139.098081 311.443007 
L 140.034225 326.871452 
L 140.502296 320.565548 
L 140.970368 302.824938 
L 141.43844 306.524402 
L 141.906511 300.807049 
L 142.374583 346.293636 
L 143.310727 223.83298 
L 143.778798 276.466259 
L 144.24687 315.646943 
L 145.183014 302.530662 
L 145.651085 320.019036 
L 146.119157 230.024608 
L 147.0553 308.878606 
L 147.523372 281.048549 
L 147.991444 227.574483 
L 148.459516 302.824938 
L 148.927587 304.296316 
L 149.395659 301.984151 
L 149.863731 298.242648 
L 150.331802 307.112953 
L 150.799874 199.366072 
L 151.267946 267.049442 
L 151.736018 314.890234 
L 152.204089 277.853558 
L 152.672161 303.077174 
L 153.140233 319.430485 
L 153.608304 323.508303 
L 154.076376 318.648674 
L 154.544448 299.33399 
L 155.01252 253.849083 
L 155.480591 139.670181 
L 155.948663 285.967155 
L 156.416735 322.793634 
L 156.884807 327.249806 
L 157.352878 330.5496 
L 157.82095 244.8947 
L 158.289022 308.079858 
L 158.757093 312.031558 
L 159.225165 280.922431 
L 159.693237 274.952842 
L 160.161309 229.466254 
L 160.62938 247.248904 
L 161.097452 245.945684 
L 161.565524 278.257489 
L 162.501667 307.911701 
L 162.969739 167.584316 
L 163.905882 308.58433 
L 164.373954 259.061964 
L 164.842026 279.156778 
L 165.310098 232.997561 
L 165.778169 260.65946 
L 166.246241 256.287366 
L 166.714313 226.949478 
L 167.182384 291.973491 
L 167.650456 300.891127 
L 168.118528 322.667516 
L 168.5866 308.416173 
L 169.054671 274.700606 
L 169.990815 226.145145 
L 170.458886 159.767956 
L 170.926958 290.171091 
L 171.39503 232.240852 
L 171.863102 221.894697 
L 172.331173 284.748013 
L 172.799245 300.807049 
L 173.267317 291.169158 
L 174.20346 318.589698 
L 174.671532 225.934948 
L 175.139604 269.235489 
L 175.607675 249.43495 
L 176.075747 268.604899 
L 177.011891 234.006505 
L 177.479962 137.358016 
L 177.948034 226.901853 
L 178.416106 277.601322 
L 178.884177 273.439425 
L 179.352249 250.191659 
L 179.820321 304.212237 
L 180.288393 300.226361 
L 180.756464 290.84372 
L 181.224536 289.518158 
L 181.692608 245.819565 
L 182.160679 243.044968 
L 182.628751 259.482358 
L 183.096823 294.979159 
L 183.564895 282.393809 
L 184.032966 276.928692 
L 184.501038 201.718807 
L 184.96911 212.482353 
L 185.437182 243.538782 
L 185.905253 224.46357 
L 186.373325 228.541388 
L 186.841397 243.927794 
L 187.309468 250.317483 
L 187.77754 180.775898 
L 188.245612 276.902822 
L 188.713684 242.866815 
L 189.181755 241.237275 
L 189.649827 216.070428 
L 190.117899 204.158559 
L 190.58597 255.016484 
L 191.054042 271.085221 
L 191.522114 218.830296 
L 191.990186 213.191142 
L 192.458257 188.435839 
L 192.926329 279.065919 
L 193.394401 253.050335 
L 193.862472 243.801676 
L 194.330544 205.756055 
L 194.798616 252.68815 
L 195.266688 248.581816 
L 195.734759 245.651408 
L 196.202831 216.097738 
L 196.670903 267.970487 
L 197.138975 208.153475 
L 197.607046 223.622783 
L 198.075118 262.677349 
L 198.54319 257.884862 
L 199.011261 194.23727 
L 199.479333 193.018129 
L 200.415477 294.290948 
L 200.883548 212.776628 
L 201.35162 198.945679 
L 201.819692 220.259634 
L 202.287763 212.608471 
L 202.755835 146.516129 
L 203.223907 232.997561 
L 203.691979 227.78468 
L 204.16005 121.257835 
L 204.628122 133.78467 
L 205.096194 152.366068 
L 205.564265 156.948358 
L 206.500409 229.447146 
L 206.968481 191.126358 
L 207.436552 207.101315 
L 207.904624 180.467469 
L 208.372696 184.870137 
L 208.840768 164.473403 
L 209.308839 149.885745 
L 209.776911 237.832087 
L 210.244983 267.589486 
L 210.713054 284.243541 
L 211.181126 288.657674 
L 212.11727 215.761423 
L 212.585341 220.26081 
L 213.053413 285.792823 
L 213.521485 264.064648 
L 213.989556 208.782889 
L 214.457628 174.352653 
L 214.9257 235.737224 
L 215.393772 217.400958 
L 215.861843 216.560171 
L 216.329915 229.701146 
L 216.797987 278.40007 
L 217.266059 254.73191 
L 217.73413 239.051228 
L 218.202202 252.714021 
L 218.670274 254.000484 
L 219.138345 208.362495 
L 219.606417 248.089691 
L 220.074489 145.892006 
L 220.542561 132.565529 
L 221.010632 122.434043 
L 221.478704 188.856232 
L 221.946776 227.490404 
L 222.414847 217.316879 
L 222.882919 267.511875 
L 223.350991 247.585219 
L 223.819063 272.262323 
L 224.755206 165.989466 
L 225.223278 192.177342 
L 225.691349 241.300481 
L 226.159421 222.193445 
L 227.563636 298.233777 
L 228.031708 276.174883 
L 228.49978 276.928692 
L 228.967852 254.23928 
L 229.435923 208.488614 
L 229.903995 174.058378 
L 230.372067 195.918845 
L 230.840138 188.856232 
L 231.30821 202.476985 
L 231.776282 230.979671 
L 232.244354 214.920636 
L 232.712425 282.120257 
L 233.180497 289.58254 
L 233.648569 265.536025 
L 234.11664 204.494874 
L 234.584712 213.32314 
L 235.052784 224.715807 
L 235.520856 230.420812 
L 235.988927 224.127256 
L 236.456999 224.799885 
L 236.925071 208.029318 
L 237.861214 249.098636 
L 238.329286 256.70776 
L 238.797358 234.048545 
L 239.265429 225.119927 
L 239.733501 219.25069 
L 240.201573 231.568222 
L 240.669645 218.536021 
L 241.137716 181.036911 
L 241.605788 200.627253 
L 242.07386 242.120102 
L 242.541931 212.860707 
L 243.010003 215.467147 
L 243.478075 238.426687 
L 243.946147 240.665481 
L 244.414218 221.562855 
L 244.88229 218.956414 
L 245.350362 155.533131 
L 245.818433 134.778 
L 246.286505 172.22426 
L 246.754577 200.711332 
L 247.222649 269.19345 
L 247.69072 309.105974 
L 248.158792 291.380825 
L 248.626864 293.786476 
L 249.094936 246.224564 
L 249.563007 263.518136 
L 250.031079 263.349979 
L 250.499151 244.726542 
L 250.967222 250.401856 
L 251.435294 252.377706 
L 251.903366 295.383971 
L 252.371438 283.528872 
L 252.839509 296.757159 
L 253.307581 298.789159 
L 253.775653 139.214474 
L 254.243724 221.403811 
L 254.711796 210.100808 
L 255.64794 287.690768 
L 257.052155 309.298999 
L 257.520226 329.195082 
L 257.988298 273.229228 
L 258.45637 171.199701 
L 258.924442 166.869647 
L 259.392513 251.999351 
L 259.860585 234.865813 
L 260.328657 239.135307 
L 260.796729 274.027976 
L 261.2648 276.171984 
L 262.669015 134.289143 
L 263.137087 121.046744 
L 263.605159 124.073578 
L 264.073231 181.078951 
L 264.541302 221.773051 
L 265.009374 288.825831 
L 265.477446 305.30526 
L 265.945517 305.137103 
L 266.413589 298.831199 
L 266.881661 253.38665 
L 267.349733 281.300786 
L 267.817804 265.199711 
L 268.285876 232.030655 
L 268.753948 274.784685 
L 269.22202 299.37771 
L 269.690091 310.013669 
L 270.158163 303.497568 
L 270.626235 274.490409 
L 271.094306 293.954633 
L 271.562378 296.434955 
L 272.498522 320.817784 
L 272.966593 292.357137 
L 273.434665 140.38485 
L 273.902737 164.095049 
L 274.370808 267.680033 
L 274.83888 208.407475 
L 275.306952 301.858033 
L 275.775024 316.151415 
L 276.711167 298.663041 
L 277.179239 264.190766 
L 277.64731 245.104896 
L 278.115382 302.69882 
L 279.051526 262.803467 
L 279.519597 325.946586 
L 279.987669 265.176486 
L 280.455741 176.664818 
L 280.923813 290.110824 
L 281.391884 311.443007 
L 281.859956 302.740859 
L 282.328028 312.914384 
L 282.796099 304.67467 
L 283.264171 245.020818 
L 283.732243 300.470734 
L 284.200315 310.097747 
L 284.668386 303.917961 
L 285.136458 293.576279 
L 285.60453 340.239969 
L 286.072601 323.844618 
L 286.540673 288.90991 
L 287.008745 309.25696 
L 287.476817 289.204185 
L 287.944888 292.81957 
L 288.41296 316.067336 
L 288.881032 320.901863 
L 289.349103 329.60401 
L 289.817175 327.291846 
L 290.285247 242.540495 
L 290.753319 303.917961 
L 291.22139 340.197929 
L 291.689462 318.379501 
L 292.157534 272.514559 
L 292.625606 260.911696 
L 293.093677 339.146945 
L 293.561749 289.204185 
L 294.029821 337.339253 
L 294.497892 314.469841 
L 294.965964 281.721179 
L 295.434036 335.783796 
L 295.902108 305.137103 
L 296.370179 226.607578 
L 296.838251 256.245327 
L 297.306323 327.586121 
L 297.774394 325.358035 
L 298.242466 322.205083 
L 298.710538 328.468948 
L 299.17861 271.79989 
L 299.646681 265.493986 
L 300.114753 265.704183 
L 300.582825 275.331196 
L 301.050897 344.10759 
L 301.518968 353.398288 
L 301.98704 333.051238 
L 302.455112 317.622793 
L 302.923183 318.043186 
L 303.391255 313.334778 
L 303.859327 315.268589 
L 304.327399 289.5405 
L 304.79547 311.90544 
L 305.263542 297.485939 
L 305.731614 194.405428 
L 306.199685 232.324931 
L 306.667757 345.158574 
L 307.135829 306.734598 
L 307.603901 247.255371 
L 308.071972 328.337832 
L 309.008116 336.036033 
L 309.476187 264.61116 
L 309.944259 282.856242 
L 310.412331 337.633528 
L 310.880403 322.877713 
L 311.348474 263.223861 
L 311.816546 333.429592 
L 312.284618 362.352672 
L 312.75269 343.43496 
L 313.220761 355.205981 
L 313.688833 269.025292 
L 314.156905 249.43495 
L 314.624976 312.283794 
L 315.093048 300.176458 
L 315.56112 196.25516 
L 316.029192 213.064142 
L 316.497263 337.885764 
L 316.965335 316.992202 
L 317.433407 215.425108 
L 317.901478 326.829413 
L 318.36955 321.196138 
L 318.837622 285.378603 
L 319.305694 269.992198 
L 319.773765 243.591479 
L 320.241837 264.022608 
L 320.709909 276.970731 
L 321.17798 321.952847 
L 321.646052 332.000254 
L 322.114124 319.724761 
L 322.582196 321.238178 
L 323.050267 274.658567 
L 323.518339 247.162457 
L 323.986411 306.061969 
L 324.454483 247.795415 
L 324.922554 304.254276 
L 325.390626 297.948372 
L 325.858698 301.605797 
L 326.326769 315.478785 
L 327.262913 191.126358 
L 327.730985 306.188087 
L 328.199056 330.94927 
L 328.667128 302.740859 
L 329.1352 308.962685 
L 330.071343 303.203292 
L 330.539415 285.168407 
L 331.007487 259.566436 
L 331.475558 328.97342 
L 331.94363 286.219391 
L 332.411702 285.504722 
L 332.879774 224.253374 
L 333.347845 276.508298 
L 333.815917 278.694345 
L 334.283989 271.968048 
L 334.75206 277.811519 
L 335.220132 258.851767 
L 335.688204 309.214921 
L 336.156276 277.495488 
L 336.624347 286.26143 
L 337.092419 196.717593 
L 337.560491 168.551221 
L 338.496634 298.242648 
L 339.432778 254.773949 
L 339.900849 295.594168 
L 340.368921 237.495772 
L 340.836993 262.130837 
L 341.305064 211.010975 
L 341.773136 289.58254 
L 342.241208 231.231907 
L 342.70928 212.566432 
L 343.177351 251.895167 
L 343.645423 314.764116 
L 344.113495 268.899174 
L 344.581567 311.947479 
L 345.049638 301.942111 
L 345.51771 275.415275 
L 345.985782 222.007746 
L 346.921925 267.680033 
L 347.389997 269.86608 
L 347.858069 265.788262 
L 348.32614 328.090594 
L 348.794212 277.138889 
L 349.262284 169.518127 
L 349.730355 221.310618 
L 350.198427 229.886648 
L 350.666499 284.705974 
L 351.134571 281.6371 
L 351.602642 303.749804 
L 352.070714 290.88576 
L 352.538786 292.567334 
L 353.006858 296.884159 
L 353.474929 247.080746 
L 353.943001 287.396493 
L 354.411073 180.388142 
L 354.879144 156.585074 
L 355.347216 259.272161 
L 355.815288 288.363398 
L 356.28336 261.752483 
L 356.751431 310.56018 
L 357.219503 287.816886 
L 357.687575 255.609151 
L 358.155646 244.011873 
L 358.623718 193.648719 
L 359.559862 284.327619 
L 360.027933 286.051233 
L 360.964077 214.962675 
L 361.432148 220.007398 
L 361.90022 273.77574 
L 362.368292 233.754269 
L 362.836364 222.319563 
L 363.304435 250.612053 
L 363.772507 239.892016 
L 364.240579 235.604001 
L 364.708651 242.372338 
L 365.176722 243.717597 
L 365.644794 250.906328 
L 366.112866 201.636198 
L 366.580937 277.307046 
L 367.049009 277.769479 
L 367.985153 166.197017 
L 368.453224 285.63084 
L 368.921296 203.612048 
L 369.389368 223.917059 
L 369.857439 217.90543 
L 370.325511 235.20448 
L 370.793583 265.451947 
L 371.261655 257.968941 
L 371.729726 268.52082 
L 372.197798 248.13173 
L 372.66587 203.233694 
L 373.133941 276.760535 
L 373.602013 180.784675 
L 374.070085 211.935841 
L 374.538157 214.584321 
L 375.006228 279.913487 
L 375.4743 258.305255 
L 375.942372 264.400963 
L 376.410444 242.374127 
L 376.878515 325.882498 
L 377.346587 284.916171 
L 377.814659 281.940489 
L 378.28273 240.312409 
L 378.750802 211.557487 
L 379.218874 201.804355 
L 379.686946 189.110941 
L 380.623089 259.188082 
L 381.091161 257.800783 
L 381.559232 259.969485 
L 382.027304 249.266793 
L 382.495376 315.436746 
L 382.963448 283.930156 
L 383.431519 289.498461 
L 383.899591 267.427797 
L 384.367663 220.385753 
L 384.835735 150.978769 
L 385.771878 194.111152 
L 386.23995 198.735482 
L 387.176093 228.120995 
L 387.644165 235.814198 
L 388.112237 236.9913 
L 388.580308 253.512768 
L 389.04838 240.858921 
L 389.516452 202.266788 
L 390.452595 369.36 
L 390.920667 267.231613 
L 391.388739 276.129944 
L 391.85681 260.182749 
L 392.324882 248.972517 
L 392.792954 204.146548 
L 393.261025 243.885755 
L 393.729097 263.2659 
L 394.197169 218.872336 
L 394.665241 215.214911 
L 395.133312 249.326263 
L 395.601384 204.074481 
L 396.069456 192.765893 
L 396.537528 198.777521 
L 397.005599 229.592372 
L 397.473671 238.336559 
L 398.409814 168.130828 
L 398.877886 167.090133 
L 399.345958 195.834766 
L 399.81403 243.798148 
L 400.282101 312.57807 
L 400.750173 262.845506 
L 401.218245 290.044972 
L 401.686316 272.220284 
L 402.154388 231.315986 
L 403.090532 304.296316 
L 403.558603 204.245111 
L 404.026675 180.540847 
L 404.494747 289.118056 
L 404.962818 265.642153 
L 405.43089 295.762325 
L 405.898962 315.499284 
L 406.367034 273.10311 
L 406.835105 289.5405 
L 407.303177 280.204822 
L 407.771249 267.84819 
L 408.239321 214.332085 
L 408.707392 216.277666 
L 409.175464 160.7319 
L 409.643536 152.019463 
L 410.111607 154.636193 
L 411.047751 254.647831 
L 411.983894 220.806146 
L 412.451966 245.441211 
L 412.920038 248.511368 
L 413.388109 259.007913 
L 413.856181 283.125823 
L 414.324253 298.11653 
L 415.260396 280.224578 
L 415.728468 246.585176 
L 416.19654 258.095059 
L 416.664612 293.534239 
L 417.132683 269.277529 
L 417.600755 254.521713 
L 418.068827 230.012766 
L 418.536898 254.185398 
L 419.00497 261.205971 
L 419.473042 279.182504 
L 419.941114 313.923329 
L 420.409185 299.568798 
L 420.877257 273.177488 
L 421.345329 294.995528 
L 421.8134 306.457139 
L 422.281472 313.460896 
L 422.749544 274.484135 
L 423.217616 267.492839 
L 423.685687 309.761432 
L 424.153759 262.803467 
L 424.621831 193.648719 
L 425.089902 157.480464 
L 425.557974 144.672865 
L 426.026046 156.864279 
L 426.494118 151.609359 
L 426.962189 166.323135 
L 427.430261 170.569111 
L 427.898333 206.344606 
L 428.366405 146.102203 
L 428.834476 136.43315 
L 429.302548 145.849967 
L 429.77062 223.286468 
L 430.238691 218.115627 
L 430.706763 208.278417 
L 431.174835 212.314195 
L 431.642907 133.574474 
L 432.110978 129.959089 
L 432.57905 135.214009 
L 433.047122 174.352653 
L 433.983265 196.297199 
L 434.919409 234.763214 
L 435.38748 309.172881 
L 435.855552 304.128158 
L 436.323624 275.289157 
L 436.791696 166.112938 
L 437.727839 218.662139 
L 438.195911 205.167504 
L 438.663982 182.634407 
L 439.132054 235.561962 
L 439.600126 254.017241 
L 440.068198 239.765898 
L 440.536269 265.409907 
L 441.004341 269.739961 
L 441.472413 305.179142 
L 442.408556 240.312409 
L 442.876628 221.268579 
L 443.3447 215.887541 
L 443.812771 253.470729 
L 444.280843 238.126363 
L 444.748915 196.339238 
L 445.216986 236.823142 
L 445.685058 254.900067 
L 446.15313 319.220288 
L 446.621202 311.148731 
L 447.089273 309.298999 
L 447.557345 305.893811 
L 448.493489 261.584326 
L 448.96156 257.548547 
L 449.429632 265.325829 
L 449.897704 226.607578 
L 450.365775 176.076267 
L 450.833847 256.623681 
L 451.301919 253.008296 
L 451.769991 206.260527 
L 452.238062 198.020813 
L 452.706134 201.972513 
L 453.642277 248.468045 
L 454.110349 260.028869 
L 454.578421 256.203287 
L 455.046493 273.355346 
L 455.514564 300.765009 
L 455.982636 315.142471 
L 456.450708 308.920645 
L 456.918779 262.130837 
L 457.386851 263.223861 
L 458.322995 245.777526 
L 458.791066 223.790941 
L 459.259138 252.461784 
L 459.72721 248.80436 
L 460.195282 293.996672 
L 460.663353 303.749804 
L 461.131425 305.515457 
L 461.599497 313.83925 
L 462.067568 254.437634 
L 462.53564 276.718495 
L 463.003712 328.553026 
L 463.471784 333.55571 
L 463.939855 313.040503 
L 464.875999 250.023502 
L 465.34407 240.858921 
L 465.812142 254.311516 
L 466.280214 301.731915 
L 466.748286 285.126367 
L 467.216357 318.169304 
L 467.684429 312.57807 
L 468.152501 295.426011 
L 468.620573 313.587014 
L 469.088644 315.8151 
L 470.024788 241.615629 
L 470.492859 305.809733 
L 470.960931 288.111162 
L 471.429003 305.809733 
L 471.897075 280.670195 
L 472.365146 316.151415 
L 472.833218 303.203292 
L 473.30129 269.908119 
L 473.769361 283.066439 
L 474.237433 293.071806 
L 474.705505 292.357137 
L 475.173577 330.612955 
L 475.641648 227.196129 
L 476.10972 187.595052 
L 477.045863 287.690768 
L 477.513935 280.249802 
L 477.982007 269.833154 
L 478.450079 194.741743 
L 478.91815 325.147838 
L 479.386222 222.739957 
L 480.322366 314.722077 
L 480.790437 312.493991 
L 481.258509 300.554813 
L 481.726581 326.535137 
L 482.662724 339.861614 
L 483.130796 333.849986 
L 483.598868 302.572702 
L 484.066939 321.490414 
L 484.535011 305.767693 
L 485.003083 334.438537 
L 485.471154 308.794527 
L 485.939226 334.186301 
L 486.407298 294.452203 
L 486.87537 321.74265 
L 487.343441 317.538714 
L 487.811513 315.463297 
L 488.279585 341.328447 
L 488.747656 335.53156 
L 489.215728 341.332992 
L 489.6838 333.892025 
L 490.151872 302.782899 
L 490.619943 350.371454 
L 491.088015 329.393814 
L 491.556087 322.321727 
L 492.024159 306.314205 
L 492.49223 301.479678 
L 492.960302 317.16036 
L 493.428374 266.358796 
L 493.896445 291.474311 
L 494.364517 335.993993 
L 494.832589 254.088525 
L 495.300661 248.510085 
L 495.768732 279.156778 
L 496.236804 254.521713 
L 496.704876 275.709551 
L 497.172947 307.911701 
L 497.641019 277.265007 
L 498.109091 279.391385 
L 498.109091 279.391385 
" clip-path="url(#p4427cbdee9)" style="fill: none; stroke: #1f77b4; stroke-width: 1.5; stroke-linecap: round"/>
   </g>
   <g id="line2d_15">
    <path d="M 92.290909 282.201119 
L 92.758981 279.192583 
L 93.227053 272.256021 
L 94.163196 264.358406 
L 94.631268 275.676605 
L 95.099339 267.65153 
L 95.567411 261.806717 
L 96.503555 274.786407 
L 96.971626 272.056425 
L 97.439698 270.845284 
L 97.90777 274.085381 
L 98.375841 274.441472 
L 98.843913 272.154857 
L 99.311985 261.747796 
L 100.248128 237.026052 
L 100.7162 254.455624 
L 101.184272 241.604994 
L 101.652344 251.261355 
L 102.120415 249.348056 
L 102.588487 252.400074 
L 103.056559 236.47324 
L 103.52463 277.419977 
L 103.992702 274.168222 
L 104.460774 289.59271 
L 104.928846 299.408645 
L 105.864989 296.223101 
L 106.801132 318.679011 
L 107.269204 307.614942 
L 107.737276 301.216604 
L 108.205348 304.033077 
L 108.673419 301.709741 
L 109.141491 305.379986 
L 109.609563 307.622468 
L 110.077634 298.504088 
L 110.545706 297.572475 
L 111.013778 298.05148 
L 111.48185 301.298534 
L 111.949921 295.267766 
L 112.417993 297.661958 
L 112.886065 296.807933 
L 113.354137 292.585184 
L 113.822208 289.63915 
L 114.29028 289.888616 
L 114.758352 297.123996 
L 115.226423 301.202957 
L 115.694495 296.855115 
L 116.162567 298.44726 
L 116.630639 304.595959 
L 117.09871 304.015808 
L 117.566782 304.152053 
L 118.034854 299.408151 
L 118.502925 312.906765 
L 118.970997 307.963454 
L 119.439069 308.427072 
L 119.907141 303.160283 
L 120.375212 289.810583 
L 120.843284 298.919132 
L 121.311356 300.111084 
L 121.779427 300.25336 
L 122.247499 290.504461 
L 122.715571 299.091613 
L 123.183643 299.069671 
L 123.651714 307.486052 
L 124.119786 291.691817 
L 124.587858 293.340128 
L 125.05593 292.746686 
L 125.524001 293.021213 
L 125.992073 300.331325 
L 126.460145 302.057234 
L 126.928216 313.429174 
L 127.396288 313.407492 
L 127.86436 320.019044 
L 128.800503 301.578232 
L 129.268575 296.857979 
L 129.736647 300.485834 
L 130.204718 295.005213 
L 130.67279 293.12736 
L 131.140862 306.975201 
L 131.608934 298.859482 
L 132.077005 288.151356 
L 132.545077 303.581471 
L 133.013149 297.101133 
L 133.481221 292.8481 
L 133.949292 300.883112 
L 134.417364 299.75458 
L 134.885436 301.287262 
L 135.353507 291.559452 
L 135.821579 299.2906 
L 136.289651 296.821534 
L 136.757723 297.396602 
L 137.225794 297.661751 
L 137.693866 291.973991 
L 138.161938 315.443488 
L 138.630009 304.939349 
L 139.098081 311.663233 
L 139.566153 311.023711 
L 140.034225 297.319538 
L 140.502296 292.819597 
L 140.970368 302.536728 
L 141.43844 305.576283 
L 141.906511 297.98757 
L 142.374583 300.204021 
L 142.842655 290.659654 
L 143.310727 302.902672 
L 143.778798 311.464473 
L 144.24687 311.938407 
L 144.714942 313.34917 
L 145.183014 297.162875 
L 145.651085 306.737264 
L 146.119157 302.490619 
L 146.587229 299.283409 
L 147.0553 301.500557 
L 147.523372 295.101426 
L 147.991444 293.339111 
L 148.459516 304.415506 
L 149.395659 295.839726 
L 149.863731 299.343573 
L 150.331802 297.484044 
L 150.799874 291.209835 
L 151.267946 287.145724 
L 151.736018 305.926674 
L 152.204089 295.727833 
L 152.672161 294.035873 
L 153.140233 276.170085 
L 153.608304 284.161506 
L 154.076376 283.383074 
L 154.544448 273.121702 
L 155.01252 272.683568 
L 155.480591 289.015221 
L 155.948663 292.484958 
L 156.416735 301.777384 
L 156.884807 297.335748 
L 157.352878 306.796519 
L 157.82095 290.602138 
L 158.289022 290.080435 
L 158.757093 292.34226 
L 159.225165 260.205711 
L 159.693237 260.068731 
L 160.62938 279.216964 
L 161.097452 284.749626 
L 161.565524 272.26031 
L 162.033595 277.403339 
L 162.501667 271.215182 
L 162.969739 261.672778 
L 163.437811 271.808011 
L 163.905882 276.711623 
L 164.373954 259.66192 
L 164.842026 263.154774 
L 165.310098 257.603743 
L 165.778169 265.09393 
L 166.246241 265.492006 
L 166.714313 276.554224 
L 167.650456 290.360759 
L 168.118528 283.632335 
L 168.5866 258.667403 
L 169.054671 243.266489 
L 169.522743 260.228015 
L 169.990815 263.308384 
L 170.458886 255.542744 
L 170.926958 244.250153 
L 171.39503 241.911834 
L 171.863102 267.59652 
L 172.331173 276.588206 
L 172.799245 273.587683 
L 173.267317 284.111669 
L 173.735388 287.793192 
L 174.20346 297.610635 
L 174.671532 285.076988 
L 175.139604 291.71679 
L 175.607675 278.717568 
L 176.075747 269.958689 
L 176.543819 258.151187 
L 177.011891 263.287756 
L 177.479962 263.365672 
L 177.948034 267.451442 
L 178.416106 263.420222 
L 178.884177 250.867842 
L 179.352249 272.542606 
L 179.820321 277.766659 
L 180.288393 280.417881 
L 180.756464 272.477706 
L 181.224536 243.424351 
L 181.692608 235.642975 
L 182.628751 255.436007 
L 183.096823 257.224594 
L 183.564895 245.566993 
L 184.032966 242.284341 
L 184.501038 242.245162 
L 184.96911 237.215553 
L 185.437182 237.411223 
L 185.905253 241.145186 
L 186.373325 232.988218 
L 186.841397 230.434449 
L 187.309468 236.317269 
L 187.77754 230.08851 
L 188.245612 238.559791 
L 188.713684 239.991493 
L 189.181755 233.916842 
L 189.649827 237.438025 
L 190.117899 238.627568 
L 190.58597 236.612645 
L 191.054042 230.876898 
L 191.522114 237.853617 
L 191.990186 236.245015 
L 192.458257 229.37101 
L 192.926329 239.02146 
L 193.394401 233.917611 
L 193.862472 235.179704 
L 194.330544 222.475957 
L 194.798616 238.341542 
L 195.266688 240.344135 
L 195.734759 241.112447 
L 196.202831 238.732214 
L 196.670903 232.714292 
L 197.138975 221.928267 
L 197.607046 225.315148 
L 198.075118 258.822126 
L 198.54319 231.522122 
L 199.011261 230.445742 
L 199.479333 219.360253 
L 199.947405 235.954158 
L 200.415477 234.201227 
L 200.883548 244.012003 
L 201.35162 239.102425 
L 201.819692 225.837057 
L 202.287763 227.244017 
L 202.755835 221.409474 
L 203.223907 230.590692 
L 203.691979 213.364324 
L 204.16005 203.244516 
L 204.628122 182.981791 
L 205.096194 181.068632 
L 205.564265 182.547648 
L 206.032337 189.271556 
L 206.500409 225.530019 
L 206.968481 182.921041 
L 207.436552 212.627604 
L 207.904624 208.53821 
L 208.372696 202.930277 
L 208.840768 184.788901 
L 209.308839 208.745891 
L 209.776911 213.136149 
L 210.244983 206.384049 
L 210.713054 211.462416 
L 211.181126 222.121029 
L 211.649198 206.318226 
L 212.11727 199.277023 
L 212.585341 217.666152 
L 213.053413 225.958538 
L 213.521485 219.548204 
L 213.989556 206.717037 
L 214.457628 211.053069 
L 214.9257 233.939342 
L 215.393772 209.738209 
L 215.861843 222.282876 
L 216.329915 217.754197 
L 216.797987 216.930629 
L 217.266059 215.365445 
L 217.73413 205.016123 
L 218.202202 238.828654 
L 218.670274 222.11544 
L 219.138345 192.63473 
L 219.606417 232.565367 
L 220.074489 210.414346 
L 221.010632 205.35473 
L 221.478704 212.10071 
L 221.946776 212.799018 
L 222.414847 213.956964 
L 222.882919 224.415925 
L 223.350991 230.680893 
L 223.819063 227.35813 
L 224.287134 215.152103 
L 224.755206 214.364422 
L 225.223278 219.366418 
L 225.691349 218.886375 
L 226.159421 212.709079 
L 227.095565 243.520294 
L 227.563636 241.562569 
L 228.031708 217.236714 
L 228.49978 205.951368 
L 228.967852 236.193106 
L 229.435923 234.615007 
L 229.903995 219.695322 
L 230.372067 215.819666 
L 230.840138 216.966604 
L 231.30821 213.133441 
L 231.776282 220.212106 
L 232.244354 220.678705 
L 232.712425 255.000921 
L 234.11664 206.4433 
L 234.584712 221.905051 
L 235.052784 229.299227 
L 235.520856 225.880155 
L 235.988927 216.548844 
L 236.456999 218.632012 
L 236.925071 221.423255 
L 237.393142 218.79438 
L 237.861214 231.381385 
L 238.329286 260.295433 
L 238.797358 231.814397 
L 239.265429 215.332257 
L 239.733501 218.064689 
L 240.201573 219.984812 
L 240.669645 217.134136 
L 241.137716 203.63565 
L 241.605788 219.286505 
L 242.07386 241.988349 
L 242.541931 212.518159 
L 243.010003 210.436776 
L 243.478075 240.796557 
L 244.414218 216.228858 
L 244.88229 241.792816 
L 245.350362 235.733653 
L 245.818433 191.029844 
L 246.286505 195.697268 
L 246.754577 209.645975 
L 247.222649 236.378694 
L 247.69072 232.207858 
L 248.158792 225.362387 
L 248.626864 224.380589 
L 249.563007 234.701868 
L 250.031079 224.784857 
L 250.499151 233.977975 
L 251.435294 232.991255 
L 251.903366 236.409488 
L 252.371438 261.137402 
L 252.839509 276.935035 
L 253.307581 281.422416 
L 253.775653 242.108898 
L 254.243724 259.571726 
L 254.711796 246.011298 
L 255.179868 249.319716 
L 255.64794 250.8037 
L 256.116011 271.425131 
L 256.584083 264.000575 
L 257.052155 254.795168 
L 257.520226 256.062239 
L 257.988298 256.091308 
L 258.45637 229.079076 
L 258.924442 229.224117 
L 259.392513 249.047662 
L 259.860585 249.713199 
L 260.328657 263.54437 
L 260.796729 262.533392 
L 261.2648 268.939565 
L 261.732872 255.521682 
L 262.200944 226.254794 
L 262.669015 237.336809 
L 263.605159 209.375204 
L 264.073231 206.411269 
L 264.541302 208.724859 
L 265.009374 234.990093 
L 265.477446 239.307224 
L 265.945517 250.104659 
L 266.413589 247.061077 
L 266.881661 245.153265 
L 267.349733 231.136003 
L 267.817804 235.034827 
L 268.285876 226.721298 
L 268.753948 278.678109 
L 269.22202 275.116688 
L 269.690091 273.218469 
L 270.158163 276.19412 
L 270.626235 285.622713 
L 271.094306 285.741227 
L 271.562378 267.128591 
L 272.03045 257.684027 
L 272.498522 264.333936 
L 272.966593 259.199801 
L 273.434665 269.294827 
L 274.370808 266.067836 
L 274.83888 280.212745 
L 275.306952 285.405058 
L 275.775024 272.103344 
L 276.243095 268.374285 
L 276.711167 277.900091 
L 277.179239 284.829479 
L 277.64731 285.236747 
L 278.583454 293.957486 
L 279.051526 285.423724 
L 279.519597 284.817063 
L 279.987669 279.049306 
L 280.455741 280.312451 
L 280.923813 274.66402 
L 281.391884 291.044101 
L 281.859956 289.835524 
L 282.328028 296.214214 
L 282.796099 297.086046 
L 283.732243 303.161358 
L 284.200315 301.522743 
L 284.668386 313.905081 
L 285.136458 304.011486 
L 285.60453 304.219265 
L 286.072601 308.283426 
L 286.540673 287.319768 
L 287.008745 295.187994 
L 287.476817 293.854273 
L 287.944888 279.20754 
L 288.41296 292.809892 
L 288.881032 295.896742 
L 289.349103 280.816535 
L 289.817175 289.268326 
L 290.753319 302.18315 
L 291.22139 293.706204 
L 291.689462 296.232243 
L 292.157534 292.399225 
L 292.625606 296.821296 
L 293.093677 298.079541 
L 293.561749 290.739889 
L 294.029821 307.680354 
L 294.497892 304.835798 
L 294.965964 300.739642 
L 295.434036 303.050838 
L 295.902108 298.047677 
L 296.370179 297.246262 
L 296.838251 290.508838 
L 297.306323 298.220847 
L 297.774394 300.855465 
L 298.242466 299.398526 
L 298.710538 303.181719 
L 299.17861 287.911152 
L 299.646681 298.042805 
L 300.114753 290.811058 
L 300.582825 295.720989 
L 301.050897 293.043194 
L 301.518968 305.898046 
L 301.98704 312.515492 
L 302.455112 310.389274 
L 302.923183 310.271983 
L 303.391255 299.774795 
L 303.859327 304.637478 
L 304.327399 302.732478 
L 304.79547 284.747599 
L 305.263542 293.868687 
L 305.731614 297.88226 
L 306.199685 295.714405 
L 306.667757 300.047551 
L 307.135829 291.525755 
L 307.603901 292.801509 
L 308.071972 297.343641 
L 308.540044 299.318074 
L 309.008116 306.559475 
L 309.476187 299.026705 
L 309.944259 302.356991 
L 310.412331 304.715678 
L 310.880403 308.600353 
L 311.348474 304.260681 
L 311.816546 308.610056 
L 312.284618 304.718162 
L 312.75269 306.895754 
L 313.220761 320.283477 
L 313.688833 318.343253 
L 314.156905 304.704963 
L 314.624976 314.433168 
L 315.093048 314.533847 
L 316.029192 304.286893 
L 316.497263 294.887218 
L 316.965335 300.287207 
L 317.433407 299.127085 
L 317.901478 311.547912 
L 318.36955 303.781093 
L 318.837622 285.590357 
L 319.305694 275.051876 
L 319.773765 300.910672 
L 320.241837 289.655702 
L 320.709909 296.96133 
L 321.17798 300.072236 
L 321.646052 301.603798 
L 322.114124 297.676983 
L 322.582196 302.22647 
L 323.050267 300.241275 
L 323.518339 296.944851 
L 323.986411 297.042929 
L 324.922554 267.2128 
L 325.390626 273.980699 
L 325.858698 298.348306 
L 326.326769 292.303447 
L 326.794841 277.309779 
L 327.262913 289.703075 
L 327.730985 297.816665 
L 328.199056 287.966349 
L 328.667128 281.165372 
L 329.1352 277.874331 
L 329.603271 292.161299 
L 330.071343 296.790106 
L 330.539415 287.085735 
L 331.007487 289.610305 
L 331.475558 288.988912 
L 331.94363 273.631324 
L 332.411702 276.742956 
L 332.879774 289.860058 
L 333.347845 298.023604 
L 333.815917 280.613504 
L 334.283989 278.843911 
L 334.75206 262.827068 
L 335.220132 257.717005 
L 335.688204 262.690241 
L 336.156276 255.612408 
L 336.624347 258.613673 
L 337.092419 263.343234 
L 337.560491 274.619578 
L 338.028562 272.178069 
L 338.496634 278.119695 
L 338.964706 267.905147 
L 339.432778 250.541405 
L 339.900849 249.829029 
L 340.368921 257.951643 
L 340.836993 257.077185 
L 341.305064 255.259081 
L 341.773136 270.275722 
L 342.241208 245.328965 
L 342.70928 243.176945 
L 343.177351 238.831982 
L 343.645423 276.451484 
L 344.113495 281.334555 
L 344.581567 288.789905 
L 345.049638 283.734978 
L 345.51771 255.828699 
L 345.985782 247.87563 
L 346.453853 250.904219 
L 347.389997 235.375081 
L 347.858069 264.604912 
L 348.32614 262.019477 
L 348.794212 252.23208 
L 349.262284 264.044609 
L 349.730355 245.912635 
L 350.198427 240.211987 
L 351.134571 265.854187 
L 352.070714 254.353042 
L 352.538786 245.824831 
L 353.006858 252.796108 
L 353.474929 266.097266 
L 353.943001 256.140689 
L 354.411073 241.787937 
L 354.879144 245.566003 
L 355.347216 268.410948 
L 355.815288 280.418911 
L 356.28336 275.334339 
L 356.751431 255.519107 
L 357.219503 264.435124 
L 357.687575 234.188146 
L 358.155646 236.966092 
L 358.623718 241.164423 
L 359.559862 225.148495 
L 360.027933 229.519673 
L 360.496005 230.254209 
L 360.964077 233.227202 
L 361.432148 229.494966 
L 361.90022 236.81569 
L 362.836364 229.649802 
L 363.772507 231.667526 
L 364.240579 234.456931 
L 364.708651 223.443848 
L 365.176722 223.933314 
L 365.644794 218.131881 
L 366.112866 230.015832 
L 366.580937 233.257407 
L 367.049009 245.404134 
L 367.517081 224.582274 
L 367.985153 219.090475 
L 368.453224 237.884231 
L 368.921296 231.233591 
L 369.389368 233.754297 
L 369.857439 233.307902 
L 370.793583 221.932724 
L 371.261655 221.976971 
L 371.729726 211.594608 
L 372.197798 222.669473 
L 372.66587 225.155727 
L 373.133941 232.963509 
L 373.602013 206.279449 
L 374.070085 207.833172 
L 374.538157 211.260768 
L 375.006228 238.797788 
L 375.4743 228.659719 
L 375.942372 228.657009 
L 376.410444 229.29831 
L 376.878515 230.781404 
L 377.346587 225.374016 
L 377.814659 230.222638 
L 378.28273 230.105405 
L 378.750802 221.968298 
L 379.218874 228.053279 
L 379.686946 209.195299 
L 380.155017 234.679819 
L 380.623089 225.996576 
L 381.091161 230.974909 
L 381.559232 228.229115 
L 382.027304 245.682666 
L 382.495376 248.316043 
L 382.963448 236.646888 
L 383.899591 226.12815 
L 384.367663 234.491868 
L 384.835735 220.616746 
L 385.303806 216.752129 
L 385.771878 236.490681 
L 386.23995 227.59672 
L 386.708021 226.568012 
L 387.176093 226.375665 
L 387.644165 225.756063 
L 388.112237 229.159508 
L 388.580308 245.441088 
L 389.04838 224.481159 
L 389.516452 214.012423 
L 389.984523 227.720391 
L 390.452595 226.806398 
L 390.920667 229.478463 
L 391.388739 243.125728 
L 391.85681 229.889044 
L 392.792954 224.425696 
L 393.261025 220.816762 
L 393.729097 231.961322 
L 394.197169 216.27149 
L 394.665241 220.963711 
L 395.133312 222.227916 
L 395.601384 210.56582 
L 396.069456 207.311655 
L 396.537528 205.752664 
L 397.005599 224.021587 
L 397.473671 209.372047 
L 397.941743 203.65932 
L 398.409814 211.600046 
L 398.877886 224.037097 
L 399.345958 203.215858 
L 399.81403 235.740318 
L 400.282101 249.782113 
L 400.750173 259.608196 
L 401.218245 259.652501 
L 401.686316 246.709168 
L 402.154388 241.948833 
L 402.62246 221.402384 
L 403.090532 223.52981 
L 403.558603 236.75635 
L 404.026675 239.025465 
L 404.494747 260.196802 
L 404.962818 248.099731 
L 405.43089 251.177165 
L 405.898962 264.182924 
L 406.367034 248.766204 
L 407.303177 237.756415 
L 407.771249 244.449432 
L 408.239321 229.681737 
L 408.707392 239.268412 
L 409.175464 222.680403 
L 409.643536 238.994814 
L 410.111607 222.508137 
L 411.047751 238.389515 
L 411.515823 231.762104 
L 411.983894 234.381382 
L 412.451966 245.430775 
L 412.920038 241.240073 
L 413.388109 233.050701 
L 413.856181 228.458669 
L 414.324253 233.459398 
L 414.792325 230.098748 
L 415.260396 221.151901 
L 415.728468 231.294771 
L 416.19654 232.174726 
L 416.664612 247.668296 
L 417.132683 229.338983 
L 417.600755 246.969815 
L 418.068827 230.711319 
L 418.536898 229.76978 
L 419.00497 229.864035 
L 419.473042 253.092113 
L 419.941114 241.92323 
L 420.409185 226.839567 
L 420.877257 245.634774 
L 421.345329 259.106158 
L 421.8134 250.168753 
L 422.281472 256.645127 
L 422.749544 256.611676 
L 423.685687 247.384824 
L 424.153759 233.739326 
L 424.621831 227.661038 
L 425.089902 236.360079 
L 425.557974 231.25543 
L 426.026046 214.570048 
L 426.494118 209.308076 
L 426.962189 209.037272 
L 427.430261 208.226058 
L 427.898333 202.491484 
L 428.366405 198.8543 
L 428.834476 209.054879 
L 429.302548 210.150539 
L 429.77062 213.059293 
L 430.238691 228.249028 
L 430.706763 213.236603 
L 431.174835 229.816909 
L 431.642907 191.478761 
L 432.110978 229.338958 
L 432.57905 220.045952 
L 433.047122 203.999486 
L 433.515193 209.382297 
L 433.983265 211.40715 
L 434.451337 216.153929 
L 434.919409 256.00756 
L 435.38748 247.841956 
L 435.855552 231.851408 
L 436.791696 207.159314 
L 437.259767 231.855251 
L 437.727839 234.58922 
L 438.195911 218.734275 
L 438.663982 219.86692 
L 439.132054 218.329908 
L 439.600126 212.440218 
L 440.068198 211.957843 
L 441.004341 252.116879 
L 441.472413 259.990283 
L 441.940484 242.55263 
L 442.876628 219.120493 
L 443.3447 220.752933 
L 443.812771 253.850978 
L 444.280843 238.175558 
L 444.748915 212.296032 
L 445.216986 233.310184 
L 445.685058 245.92163 
L 446.15313 268.084572 
L 446.621202 265.745853 
L 447.089273 259.172429 
L 447.557345 242.929951 
L 448.025417 235.620773 
L 448.493489 239.121345 
L 448.96156 230.590339 
L 449.429632 238.106062 
L 449.897704 238.167766 
L 450.365775 230.542915 
L 450.833847 273.038227 
L 451.301919 262.924804 
L 451.769991 255.998751 
L 452.238062 220.166849 
L 452.706134 213.701932 
L 453.642277 257.659685 
L 454.110349 254.636119 
L 455.046493 261.923312 
L 455.514564 262.321432 
L 455.982636 271.807357 
L 456.450708 267.902589 
L 456.918779 256.62135 
L 457.386851 252.774059 
L 457.854923 252.944934 
L 458.322995 255.726591 
L 458.791066 254.17869 
L 459.259138 266.925165 
L 459.72721 276.479655 
L 460.195282 273.56918 
L 460.663353 292.245817 
L 461.131425 287.733877 
L 461.599497 294.567563 
L 462.067568 279.804812 
L 462.53564 286.348209 
L 463.003712 302.93075 
L 463.471784 278.877763 
L 463.939855 273.294182 
L 464.407927 277.431407 
L 464.875999 278.628784 
L 465.812142 269.151789 
L 466.280214 293.138373 
L 466.748286 295.875041 
L 467.216357 294.160527 
L 467.684429 297.168257 
L 468.152501 279.322684 
L 468.620573 293.447507 
L 469.088644 293.372695 
L 469.556716 280.817867 
L 470.492859 278.370404 
L 470.960931 274.302238 
L 471.429003 281.869562 
L 471.897075 279.567065 
L 472.365146 288.788316 
L 472.833218 294.535868 
L 473.30129 290.268446 
L 473.769361 282.27589 
L 474.237433 270.9916 
L 474.705505 275.437365 
L 475.173577 296.245155 
L 475.641648 269.784918 
L 476.10972 280.148691 
L 476.577792 273.910342 
L 477.045863 271.592677 
L 477.513935 270.483127 
L 477.982007 283.494758 
L 478.450079 275.904205 
L 478.91815 275.43895 
L 479.386222 279.071242 
L 479.854294 286.878951 
L 480.322366 303.40075 
L 480.790437 301.502313 
L 481.258509 295.575317 
L 481.726581 320.053251 
L 482.194652 320.010006 
L 482.662724 312.677714 
L 483.130796 325.286857 
L 483.598868 307.79302 
L 484.066939 313.128498 
L 484.535011 313.262011 
L 485.003083 309.421988 
L 485.471154 295.330482 
L 485.939226 293.508818 
L 486.407298 296.484885 
L 486.87537 297.828877 
L 487.343441 309.227252 
L 487.811513 309.567613 
L 488.279585 290.707092 
L 488.747656 300.154397 
L 489.6838 308.384882 
L 490.151872 308.852644 
L 490.619943 319.323528 
L 491.088015 316.939632 
L 491.556087 309.16761 
L 492.024159 318.588042 
L 492.49223 304.251878 
L 492.960302 302.797569 
L 493.428374 307.040721 
L 493.896445 303.302556 
L 494.364517 307.551447 
L 494.832589 290.728715 
L 495.300661 303.216657 
L 495.768732 302.069477 
L 496.236804 267.652848 
L 496.704876 270.278517 
L 497.641019 252.495167 
L 497.641019 252.495167 
" clip-path="url(#p4427cbdee9)" style="fill: none; stroke: #ff7f0e; stroke-width: 1.5; stroke-linecap: round"/>
   </g>
   <g id="patch_3">
    <path d="M 72 384.48 
L 72 51.84 
" style="fill: none; stroke: #ffffff; stroke-width: 0.8; stroke-linejoin: miter; stroke-linecap: square"/>
   </g>
   <g id="patch_4">
    <path d="M 518.4 384.48 
L 518.4 51.84 
" style="fill: none; stroke: #ffffff; stroke-width: 0.8; stroke-linejoin: miter; stroke-linecap: square"/>
   </g>
   <g id="patch_5">
    <path d="M 72 384.48 
L 518.4 384.48 
" style="fill: none; stroke: #ffffff; stroke-width: 0.8; stroke-linejoin: miter; stroke-linecap: square"/>
   </g>
   <g id="patch_6">
    <path d="M 72 51.84 
L 518.4 51.84 
" style="fill: none; stroke: #ffffff; stroke-width: 0.8; stroke-linejoin: miter; stroke-linecap: square"/>
   </g>
   <g id="text_16">
    <!-- Average Wind Speed Prediction 12 Days Ahead -->
    <g style="fill: #262626" transform="translate(167.89875 45.84) scale(0.12 -0.12)">
     <defs>
      <path id="ArialMT-41" d="M -9 0 
L 1750 4581 
L 2403 4581 
L 4278 0 
L 3588 0 
L 3053 1388 
L 1138 1388 
L 634 0 
L -9 0 
z
M 1313 1881 
L 2866 1881 
L 2388 3150 
Q 2169 3728 2063 4100 
Q 1975 3659 1816 3225 
L 1313 1881 
z
" transform="scale(0.015625)"/>
      <path id="ArialMT-76" d="M 1344 0 
L 81 3319 
L 675 3319 
L 1388 1331 
Q 1503 1009 1600 663 
Q 1675 925 1809 1294 
L 2547 3319 
L 3125 3319 
L 1869 0 
L 1344 0 
z
" transform="scale(0.015625)"/>
      <path id="ArialMT-65" d="M 2694 1069 
L 3275 997 
Q 3138 488 2766 206 
Q 2394 -75 1816 -75 
Q 1088 -75 661 373 
Q 234 822 234 1631 
Q 234 2469 665 2931 
Q 1097 3394 1784 3394 
Q 2450 3394 2872 2941 
Q 3294 2488 3294 1666 
Q 3294 1616 3291 1516 
L 816 1516 
Q 847 969 1125 678 
Q 1403 388 1819 388 
Q 2128 388 2347 550 
Q 2566 713 2694 1069 
z
M 847 1978 
L 2700 1978 
Q 2663 2397 2488 2606 
Q 2219 2931 1791 2931 
Q 1403 2931 1139 2672 
Q 875 2413 847 1978 
z
" transform="scale(0.015625)"/>
      <path id="ArialMT-72" d="M 416 0 
L 416 3319 
L 922 3319 
L 922 2816 
Q 1116 3169 1280 3281 
Q 1444 3394 1641 3394 
Q 1925 3394 2219 3213 
L 2025 2691 
Q 1819 2813 1613 2813 
Q 1428 2813 1281 2702 
Q 1134 2591 1072 2394 
Q 978 2094 978 1738 
L 978 0 
L 416 0 
z
" transform="scale(0.015625)"/>
      <path id="ArialMT-67" d="M 319 -275 
L 866 -356 
Q 900 -609 1056 -725 
Q 1266 -881 1628 -881 
Q 2019 -881 2231 -725 
Q 2444 -569 2519 -288 
Q 2563 -116 2559 434 
Q 2191 0 1641 0 
Q 956 0 581 494 
Q 206 988 206 1678 
Q 206 2153 378 2554 
Q 550 2956 876 3175 
Q 1203 3394 1644 3394 
Q 2231 3394 2613 2919 
L 2613 3319 
L 3131 3319 
L 3131 450 
Q 3131 -325 2973 -648 
Q 2816 -972 2473 -1159 
Q 2131 -1347 1631 -1347 
Q 1038 -1347 672 -1080 
Q 306 -813 319 -275 
z
M 784 1719 
Q 784 1066 1043 766 
Q 1303 466 1694 466 
Q 2081 466 2343 764 
Q 2606 1063 2606 1700 
Q 2606 2309 2336 2618 
Q 2066 2928 1684 2928 
Q 1309 2928 1046 2623 
Q 784 2319 784 1719 
z
" transform="scale(0.015625)"/>
      <path id="ArialMT-20" transform="scale(0.015625)"/>
      <path id="ArialMT-57" d="M 1294 0 
L 78 4581 
L 700 4581 
L 1397 1578 
Q 1509 1106 1591 641 
Q 1766 1375 1797 1488 
L 2669 4581 
L 3400 4581 
L 4056 2263 
Q 4303 1400 4413 641 
Q 4500 1075 4641 1638 
L 5359 4581 
L 5969 4581 
L 4713 0 
L 4128 0 
L 3163 3491 
Q 3041 3928 3019 4028 
Q 2947 3713 2884 3491 
L 1913 0 
L 1294 0 
z
" transform="scale(0.015625)"/>
      <path id="ArialMT-69" d="M 425 3934 
L 425 4581 
L 988 4581 
L 988 3934 
L 425 3934 
z
M 425 0 
L 425 3319 
L 988 3319 
L 988 0 
L 425 0 
z
" transform="scale(0.015625)"/>
      <path id="ArialMT-6e" d="M 422 0 
L 422 3319 
L 928 3319 
L 928 2847 
Q 1294 3394 1984 3394 
Q 2284 3394 2536 3286 
Q 2788 3178 2913 3003 
Q 3038 2828 3088 2588 
Q 3119 2431 3119 2041 
L 3119 0 
L 2556 0 
L 2556 2019 
Q 2556 2363 2490 2533 
Q 2425 2703 2258 2804 
Q 2091 2906 1866 2906 
Q 1506 2906 1245 2678 
Q 984 2450 984 1813 
L 984 0 
L 422 0 
z
" transform="scale(0.015625)"/>
      <path id="ArialMT-64" d="M 2575 0 
L 2575 419 
Q 2259 -75 1647 -75 
Q 1250 -75 917 144 
Q 584 363 401 755 
Q 219 1147 219 1656 
Q 219 2153 384 2558 
Q 550 2963 881 3178 
Q 1213 3394 1622 3394 
Q 1922 3394 2156 3267 
Q 2391 3141 2538 2938 
L 2538 4581 
L 3097 4581 
L 3097 0 
L 2575 0 
z
M 797 1656 
Q 797 1019 1065 703 
Q 1334 388 1700 388 
Q 2069 388 2326 689 
Q 2584 991 2584 1609 
Q 2584 2291 2321 2609 
Q 2059 2928 1675 2928 
Q 1300 2928 1048 2622 
Q 797 2316 797 1656 
z
" transform="scale(0.015625)"/>
      <path id="ArialMT-53" d="M 288 1472 
L 859 1522 
Q 900 1178 1048 958 
Q 1197 738 1509 602 
Q 1822 466 2213 466 
Q 2559 466 2825 569 
Q 3091 672 3220 851 
Q 3350 1031 3350 1244 
Q 3350 1459 3225 1620 
Q 3100 1781 2813 1891 
Q 2628 1963 1997 2114 
Q 1366 2266 1113 2400 
Q 784 2572 623 2826 
Q 463 3081 463 3397 
Q 463 3744 659 4045 
Q 856 4347 1234 4503 
Q 1613 4659 2075 4659 
Q 2584 4659 2973 4495 
Q 3363 4331 3572 4012 
Q 3781 3694 3797 3291 
L 3216 3247 
Q 3169 3681 2898 3903 
Q 2628 4125 2100 4125 
Q 1550 4125 1298 3923 
Q 1047 3722 1047 3438 
Q 1047 3191 1225 3031 
Q 1400 2872 2139 2705 
Q 2878 2538 3153 2413 
Q 3553 2228 3743 1945 
Q 3934 1663 3934 1294 
Q 3934 928 3725 604 
Q 3516 281 3123 101 
Q 2731 -78 2241 -78 
Q 1619 -78 1198 103 
Q 778 284 539 648 
Q 300 1013 288 1472 
z
" transform="scale(0.015625)"/>
      <path id="ArialMT-70" d="M 422 -1272 
L 422 3319 
L 934 3319 
L 934 2888 
Q 1116 3141 1344 3267 
Q 1572 3394 1897 3394 
Q 2322 3394 2647 3175 
Q 2972 2956 3137 2557 
Q 3303 2159 3303 1684 
Q 3303 1175 3120 767 
Q 2938 359 2589 142 
Q 2241 -75 1856 -75 
Q 1575 -75 1351 44 
Q 1128 163 984 344 
L 984 -1272 
L 422 -1272 
z
M 931 1641 
Q 931 1000 1190 694 
Q 1450 388 1819 388 
Q 2194 388 2461 705 
Q 2728 1022 2728 1688 
Q 2728 2322 2467 2637 
Q 2206 2953 1844 2953 
Q 1484 2953 1207 2617 
Q 931 2281 931 1641 
z
" transform="scale(0.015625)"/>
      <path id="ArialMT-50" d="M 494 0 
L 494 4581 
L 2222 4581 
Q 2678 4581 2919 4538 
Q 3256 4481 3484 4323 
Q 3713 4166 3852 3881 
Q 3991 3597 3991 3256 
Q 3991 2672 3619 2267 
Q 3247 1863 2275 1863 
L 1100 1863 
L 1100 0 
L 494 0 
z
M 1100 2403 
L 2284 2403 
Q 2872 2403 3119 2622 
Q 3366 2841 3366 3238 
Q 3366 3525 3220 3729 
Q 3075 3934 2838 4000 
Q 2684 4041 2272 4041 
L 1100 4041 
L 1100 2403 
z
" transform="scale(0.015625)"/>
      <path id="ArialMT-63" d="M 2588 1216 
L 3141 1144 
Q 3050 572 2676 248 
Q 2303 -75 1759 -75 
Q 1078 -75 664 370 
Q 250 816 250 1647 
Q 250 2184 428 2587 
Q 606 2991 970 3192 
Q 1334 3394 1763 3394 
Q 2303 3394 2647 3120 
Q 2991 2847 3088 2344 
L 2541 2259 
Q 2463 2594 2264 2762 
Q 2066 2931 1784 2931 
Q 1359 2931 1093 2626 
Q 828 2322 828 1663 
Q 828 994 1084 691 
Q 1341 388 1753 388 
Q 2084 388 2306 591 
Q 2528 794 2588 1216 
z
" transform="scale(0.015625)"/>
      <path id="ArialMT-74" d="M 1650 503 
L 1731 6 
Q 1494 -44 1306 -44 
Q 1000 -44 831 53 
Q 663 150 594 308 
Q 525 466 525 972 
L 525 2881 
L 113 2881 
L 113 3319 
L 525 3319 
L 525 4141 
L 1084 4478 
L 1084 3319 
L 1650 3319 
L 1650 2881 
L 1084 2881 
L 1084 941 
Q 1084 700 1114 631 
Q 1144 563 1211 522 
Q 1278 481 1403 481 
Q 1497 481 1650 503 
z
" transform="scale(0.015625)"/>
      <path id="ArialMT-6f" d="M 213 1659 
Q 213 2581 725 3025 
Q 1153 3394 1769 3394 
Q 2453 3394 2887 2945 
Q 3322 2497 3322 1706 
Q 3322 1066 3130 698 
Q 2938 331 2570 128 
Q 2203 -75 1769 -75 
Q 1072 -75 642 372 
Q 213 819 213 1659 
z
M 791 1659 
Q 791 1022 1069 705 
Q 1347 388 1769 388 
Q 2188 388 2466 706 
Q 2744 1025 2744 1678 
Q 2744 2294 2464 2611 
Q 2184 2928 1769 2928 
Q 1347 2928 1069 2612 
Q 791 2297 791 1659 
z
" transform="scale(0.015625)"/>
      <path id="ArialMT-68" d="M 422 0 
L 422 4581 
L 984 4581 
L 984 2938 
Q 1378 3394 1978 3394 
Q 2347 3394 2619 3248 
Q 2891 3103 3008 2847 
Q 3125 2591 3125 2103 
L 3125 0 
L 2563 0 
L 2563 2103 
Q 2563 2525 2380 2717 
Q 2197 2909 1863 2909 
Q 1613 2909 1392 2779 
Q 1172 2650 1078 2428 
Q 984 2206 984 1816 
L 984 0 
L 422 0 
z
" transform="scale(0.015625)"/>
     </defs>
     <use xlink:href="#ArialMT-41"/>
     <use xlink:href="#ArialMT-76" x="64.949219"/>
     <use xlink:href="#ArialMT-65" x="114.949219"/>
     <use xlink:href="#ArialMT-72" x="170.564453"/>
     <use xlink:href="#ArialMT-61" x="203.865234"/>
     <use xlink:href="#ArialMT-67" x="259.480469"/>
     <use xlink:href="#ArialMT-65" x="315.095703"/>
     <use xlink:href="#ArialMT-20" x="370.710938"/>
     <use xlink:href="#ArialMT-57" x="398.494141"/>
     <use xlink:href="#ArialMT-69" x="492.878906"/>
     <use xlink:href="#ArialMT-6e" x="515.095703"/>
     <use xlink:href="#ArialMT-64" x="570.710938"/>
     <use xlink:href="#ArialMT-20" x="626.326172"/>
     <use xlink:href="#ArialMT-53" x="654.109375"/>
     <use xlink:href="#ArialMT-70" x="720.808594"/>
     <use xlink:href="#ArialMT-65" x="776.423828"/>
     <use xlink:href="#ArialMT-65" x="832.039062"/>
     <use xlink:href="#ArialMT-64" x="887.654297"/>
     <use xlink:href="#ArialMT-20" x="943.269531"/>
     <use xlink:href="#ArialMT-50" x="971.052734"/>
     <use xlink:href="#ArialMT-72" x="1037.751953"/>
     <use xlink:href="#ArialMT-65" x="1071.052734"/>
     <use xlink:href="#ArialMT-64" x="1126.667969"/>
     <use xlink:href="#ArialMT-69" x="1182.283203"/>
     <use xlink:href="#ArialMT-63" x="1204.5"/>
     <use xlink:href="#ArialMT-74" x="1254.5"/>
     <use xlink:href="#ArialMT-69" x="1282.283203"/>
     <use xlink:href="#ArialMT-6f" x="1304.5"/>
     <use xlink:href="#ArialMT-6e" x="1360.115234"/>
     <use xlink:href="#ArialMT-20" x="1415.730469"/>
     <use xlink:href="#ArialMT-31" x="1443.513672"/>
     <use xlink:href="#ArialMT-32" x="1499.128906"/>
     <use xlink:href="#ArialMT-20" x="1554.744141"/>
     <use xlink:href="#ArialMT-44" x="1582.527344"/>
     <use xlink:href="#ArialMT-61" x="1654.744141"/>
     <use xlink:href="#ArialMT-79" x="1710.359375"/>
     <use xlink:href="#ArialMT-73" x="1760.359375"/>
     <use xlink:href="#ArialMT-20" x="1810.359375"/>
     <use xlink:href="#ArialMT-41" x="1832.642578"/>
     <use xlink:href="#ArialMT-68" x="1899.341797"/>
     <use xlink:href="#ArialMT-65" x="1954.957031"/>
     <use xlink:href="#ArialMT-61" x="2010.572266"/>
     <use xlink:href="#ArialMT-64" x="2066.1875"/>
    </g>
   </g>
   <g id="legend_1">
    <g id="patch_7">
     <path d="M 437.15625 88.130625 
L 511.4 88.130625 
Q 513.4 88.130625 513.4 86.130625 
L 513.4 58.84 
Q 513.4 56.84 511.4 56.84 
L 437.15625 56.84 
Q 435.15625 56.84 435.15625 58.84 
L 435.15625 86.130625 
Q 435.15625 88.130625 437.15625 88.130625 
z
" style="fill: #eaeaf2; opacity: 0.8; stroke: #cccccc; stroke-linejoin: miter"/>
    </g>
    <g id="line2d_16">
     <path d="M 439.15625 64.497812 
L 449.15625 64.497812 
L 459.15625 64.497812 
" style="fill: none; stroke: #1f77b4; stroke-width: 1.5; stroke-linecap: round"/>
    </g>
    <g id="text_17">
     <!-- Real -->
     <g style="fill: #262626" transform="translate(467.15625 67.997812) scale(0.1 -0.1)">
      <defs>
       <path id="ArialMT-52" d="M 503 0 
L 503 4581 
L 2534 4581 
Q 3147 4581 3465 4457 
Q 3784 4334 3975 4021 
Q 4166 3709 4166 3331 
Q 4166 2844 3850 2509 
Q 3534 2175 2875 2084 
Q 3116 1969 3241 1856 
Q 3506 1613 3744 1247 
L 4541 0 
L 3778 0 
L 3172 953 
Q 2906 1366 2734 1584 
Q 2563 1803 2427 1890 
Q 2291 1978 2150 2013 
Q 2047 2034 1813 2034 
L 1109 2034 
L 1109 0 
L 503 0 
z
M 1109 2559 
L 2413 2559 
Q 2828 2559 3062 2645 
Q 3297 2731 3419 2920 
Q 3541 3109 3541 3331 
Q 3541 3656 3305 3865 
Q 3069 4075 2559 4075 
L 1109 4075 
L 1109 2559 
z
" transform="scale(0.015625)"/>
       <path id="ArialMT-6c" d="M 409 0 
L 409 4581 
L 972 4581 
L 972 0 
L 409 0 
z
" transform="scale(0.015625)"/>
      </defs>
      <use xlink:href="#ArialMT-52"/>
      <use xlink:href="#ArialMT-65" x="72.216797"/>
      <use xlink:href="#ArialMT-61" x="127.832031"/>
      <use xlink:href="#ArialMT-6c" x="183.447266"/>
     </g>
    </g>
    <g id="line2d_17">
     <path d="M 439.15625 78.643125 
L 449.15625 78.643125 
L 459.15625 78.643125 
" style="fill: none; stroke: #ff7f0e; stroke-width: 1.5; stroke-linecap: round"/>
    </g>
    <g id="text_18">
     <!-- Predicted -->
     <g style="fill: #262626" transform="translate(467.15625 82.143125) scale(0.1 -0.1)">
      <use xlink:href="#ArialMT-50"/>
      <use xlink:href="#ArialMT-72" x="66.699219"/>
      <use xlink:href="#ArialMT-65" x="100"/>
      <use xlink:href="#ArialMT-64" x="155.615234"/>
      <use xlink:href="#ArialMT-69" x="211.230469"/>
      <use xlink:href="#ArialMT-63" x="233.447266"/>
      <use xlink:href="#ArialMT-74" x="283.447266"/>
      <use xlink:href="#ArialMT-65" x="311.230469"/>
      <use xlink:href="#ArialMT-64" x="366.845703"/>
     </g>
    </g>
   </g>
  </g>
 </g>
 <defs>
  <clipPath id="p4427cbdee9">
   <rect x="72" y="51.84" width="446.4" height="332.64"/>
  </clipPath>
 </defs>
</svg>
