<?xml version="1.0" encoding="utf-8" standalone="no"?>
<!DOCTYPE svg PUBLIC "-//W3C//DTD SVG 1.1//EN"
  "http://www.w3.org/Graphics/SVG/1.1/DTD/svg11.dtd">
<svg xmlns:xlink="http://www.w3.org/1999/xlink" width="576pt" height="432pt" viewBox="0 0 576 432" xmlns="http://www.w3.org/2000/svg" version="1.1">
 <metadata>
  <rdf:RDF xmlns:dc="http://purl.org/dc/elements/1.1/" xmlns:cc="http://creativecommons.org/ns#" xmlns:rdf="http://www.w3.org/1999/02/22-rdf-syntax-ns#">
   <cc:Work>
    <dc:type rdf:resource="http://purl.org/dc/dcmitype/StillImage"/>
    <dc:date>2023-11-17T05:15:30.690415</dc:date>
    <dc:format>image/svg+xml</dc:format>
    <dc:creator>
     <cc:Agent>
      <dc:title>Matplotlib v3.8.0, https://matplotlib.org/</dc:title>
     </cc:Agent>
    </dc:creator>
   </cc:Work>
  </rdf:RDF>
 </metadata>
 <defs>
  <style type="text/css">*{stroke-linejoin: round; stroke-linecap: butt}</style>
 </defs>
 <g id="figure_1">
  <g id="patch_1">
   <path d="M 0 432 
L 576 432 
L 576 0 
L 0 0 
z
" style="fill: #ffffff"/>
  </g>
  <g id="axes_1">
   <g id="patch_2">
    <path d="M 72 384.48 
L 518.4 384.48 
L 518.4 51.84 
L 72 51.84 
z
" style="fill: #eaeaf2"/>
   </g>
   <g id="matplotlib.axis_1">
    <g id="xtick_1">
     <g id="line2d_1">
      <path d="M 92.290909 384.48 
L 92.290909 51.84 
" clip-path="url(#peb42554922)" style="fill: none; stroke: #ffffff; stroke-width: 0.8; stroke-linecap: round"/>
     </g>
     <g id="text_1">
      <!-- 0 -->
      <g style="fill: #262626" transform="translate(89.51044 398.637812) scale(0.1 -0.1)">
       <defs>
        <path id="ArialMT-30" d="M 266 2259 
Q 266 3072 433 3567 
Q 600 4063 929 4331 
Q 1259 4600 1759 4600 
Q 2128 4600 2406 4451 
Q 2684 4303 2865 4023 
Q 3047 3744 3150 3342 
Q 3253 2941 3253 2259 
Q 3253 1453 3087 958 
Q 2922 463 2592 192 
Q 2263 -78 1759 -78 
Q 1097 -78 719 397 
Q 266 969 266 2259 
z
M 844 2259 
Q 844 1131 1108 757 
Q 1372 384 1759 384 
Q 2147 384 2411 759 
Q 2675 1134 2675 2259 
Q 2675 3391 2411 3762 
Q 2147 4134 1753 4134 
Q 1366 4134 1134 3806 
Q 844 3388 844 2259 
z
" transform="scale(0.015625)"/>
       </defs>
       <use xlink:href="#ArialMT-30"/>
      </g>
     </g>
    </g>
    <g id="xtick_2">
     <g id="line2d_2">
      <path d="M 185.905253 384.48 
L 185.905253 51.84 
" clip-path="url(#peb42554922)" style="fill: none; stroke: #ffffff; stroke-width: 0.8; stroke-linecap: round"/>
     </g>
     <g id="text_2">
      <!-- 200 -->
      <g style="fill: #262626" transform="translate(177.563847 398.637812) scale(0.1 -0.1)">
       <defs>
        <path id="ArialMT-32" d="M 3222 541 
L 3222 0 
L 194 0 
Q 188 203 259 391 
Q 375 700 629 1000 
Q 884 1300 1366 1694 
Q 2113 2306 2375 2664 
Q 2638 3022 2638 3341 
Q 2638 3675 2398 3904 
Q 2159 4134 1775 4134 
Q 1369 4134 1125 3890 
Q 881 3647 878 3216 
L 300 3275 
Q 359 3922 746 4261 
Q 1134 4600 1788 4600 
Q 2447 4600 2831 4234 
Q 3216 3869 3216 3328 
Q 3216 3053 3103 2787 
Q 2991 2522 2730 2228 
Q 2469 1934 1863 1422 
Q 1356 997 1212 845 
Q 1069 694 975 541 
L 3222 541 
z
" transform="scale(0.015625)"/>
       </defs>
       <use xlink:href="#ArialMT-32"/>
       <use xlink:href="#ArialMT-30" x="55.615234"/>
       <use xlink:href="#ArialMT-30" x="111.230469"/>
      </g>
     </g>
    </g>
    <g id="xtick_3">
     <g id="line2d_3">
      <path d="M 279.519597 384.48 
L 279.519597 51.84 
" clip-path="url(#peb42554922)" style="fill: none; stroke: #ffffff; stroke-width: 0.8; stroke-linecap: round"/>
     </g>
     <g id="text_3">
      <!-- 400 -->
      <g style="fill: #262626" transform="translate(271.178191 398.637812) scale(0.1 -0.1)">
       <defs>
        <path id="ArialMT-34" d="M 2069 0 
L 2069 1097 
L 81 1097 
L 81 1613 
L 2172 4581 
L 2631 4581 
L 2631 1613 
L 3250 1613 
L 3250 1097 
L 2631 1097 
L 2631 0 
L 2069 0 
z
M 2069 1613 
L 2069 3678 
L 634 1613 
L 2069 1613 
z
" transform="scale(0.015625)"/>
       </defs>
       <use xlink:href="#ArialMT-34"/>
       <use xlink:href="#ArialMT-30" x="55.615234"/>
       <use xlink:href="#ArialMT-30" x="111.230469"/>
      </g>
     </g>
    </g>
    <g id="xtick_4">
     <g id="line2d_4">
      <path d="M 373.133941 384.48 
L 373.133941 51.84 
" clip-path="url(#peb42554922)" style="fill: none; stroke: #ffffff; stroke-width: 0.8; stroke-linecap: round"/>
     </g>
     <g id="text_4">
      <!-- 600 -->
      <g style="fill: #262626" transform="translate(364.792535 398.637812) scale(0.1 -0.1)">
       <defs>
        <path id="ArialMT-36" d="M 3184 3459 
L 2625 3416 
Q 2550 3747 2413 3897 
Q 2184 4138 1850 4138 
Q 1581 4138 1378 3988 
Q 1113 3794 959 3422 
Q 806 3050 800 2363 
Q 1003 2672 1297 2822 
Q 1591 2972 1913 2972 
Q 2475 2972 2870 2558 
Q 3266 2144 3266 1488 
Q 3266 1056 3080 686 
Q 2894 316 2569 119 
Q 2244 -78 1831 -78 
Q 1128 -78 684 439 
Q 241 956 241 2144 
Q 241 3472 731 4075 
Q 1159 4600 1884 4600 
Q 2425 4600 2770 4297 
Q 3116 3994 3184 3459 
z
M 888 1484 
Q 888 1194 1011 928 
Q 1134 663 1356 523 
Q 1578 384 1822 384 
Q 2178 384 2434 671 
Q 2691 959 2691 1453 
Q 2691 1928 2437 2201 
Q 2184 2475 1800 2475 
Q 1419 2475 1153 2201 
Q 888 1928 888 1484 
z
" transform="scale(0.015625)"/>
       </defs>
       <use xlink:href="#ArialMT-36"/>
       <use xlink:href="#ArialMT-30" x="55.615234"/>
       <use xlink:href="#ArialMT-30" x="111.230469"/>
      </g>
     </g>
    </g>
    <g id="xtick_5">
     <g id="line2d_5">
      <path d="M 466.748286 384.48 
L 466.748286 51.84 
" clip-path="url(#peb42554922)" style="fill: none; stroke: #ffffff; stroke-width: 0.8; stroke-linecap: round"/>
     </g>
     <g id="text_5">
      <!-- 800 -->
      <g style="fill: #262626" transform="translate(458.406879 398.637812) scale(0.1 -0.1)">
       <defs>
        <path id="ArialMT-38" d="M 1131 2484 
Q 781 2613 612 2850 
Q 444 3088 444 3419 
Q 444 3919 803 4259 
Q 1163 4600 1759 4600 
Q 2359 4600 2725 4251 
Q 3091 3903 3091 3403 
Q 3091 3084 2923 2848 
Q 2756 2613 2416 2484 
Q 2838 2347 3058 2040 
Q 3278 1734 3278 1309 
Q 3278 722 2862 322 
Q 2447 -78 1769 -78 
Q 1091 -78 675 323 
Q 259 725 259 1325 
Q 259 1772 486 2073 
Q 713 2375 1131 2484 
z
M 1019 3438 
Q 1019 3113 1228 2906 
Q 1438 2700 1772 2700 
Q 2097 2700 2305 2904 
Q 2513 3109 2513 3406 
Q 2513 3716 2298 3927 
Q 2084 4138 1766 4138 
Q 1444 4138 1231 3931 
Q 1019 3725 1019 3438 
z
M 838 1322 
Q 838 1081 952 856 
Q 1066 631 1291 507 
Q 1516 384 1775 384 
Q 2178 384 2440 643 
Q 2703 903 2703 1303 
Q 2703 1709 2433 1975 
Q 2163 2241 1756 2241 
Q 1359 2241 1098 1978 
Q 838 1716 838 1322 
z
" transform="scale(0.015625)"/>
       </defs>
       <use xlink:href="#ArialMT-38"/>
       <use xlink:href="#ArialMT-30" x="55.615234"/>
       <use xlink:href="#ArialMT-30" x="111.230469"/>
      </g>
     </g>
    </g>
    <g id="text_6">
     <!-- Days -->
     <g style="fill: #262626" transform="translate(283.808594 411.783125) scale(0.1 -0.1)">
      <defs>
       <path id="ArialMT-44" d="M 494 0 
L 494 4581 
L 2072 4581 
Q 2606 4581 2888 4516 
Q 3281 4425 3559 4188 
Q 3922 3881 4101 3404 
Q 4281 2928 4281 2316 
Q 4281 1794 4159 1391 
Q 4038 988 3847 723 
Q 3656 459 3429 307 
Q 3203 156 2883 78 
Q 2563 0 2147 0 
L 494 0 
z
M 1100 541 
L 2078 541 
Q 2531 541 2789 625 
Q 3047 709 3200 863 
Q 3416 1078 3536 1442 
Q 3656 1806 3656 2325 
Q 3656 3044 3420 3430 
Q 3184 3816 2847 3947 
Q 2603 4041 2063 4041 
L 1100 4041 
L 1100 541 
z
" transform="scale(0.015625)"/>
       <path id="ArialMT-61" d="M 2588 409 
Q 2275 144 1986 34 
Q 1697 -75 1366 -75 
Q 819 -75 525 192 
Q 231 459 231 875 
Q 231 1119 342 1320 
Q 453 1522 633 1644 
Q 813 1766 1038 1828 
Q 1203 1872 1538 1913 
Q 2219 1994 2541 2106 
Q 2544 2222 2544 2253 
Q 2544 2597 2384 2738 
Q 2169 2928 1744 2928 
Q 1347 2928 1158 2789 
Q 969 2650 878 2297 
L 328 2372 
Q 403 2725 575 2942 
Q 747 3159 1072 3276 
Q 1397 3394 1825 3394 
Q 2250 3394 2515 3294 
Q 2781 3194 2906 3042 
Q 3031 2891 3081 2659 
Q 3109 2516 3109 2141 
L 3109 1391 
Q 3109 606 3145 398 
Q 3181 191 3288 0 
L 2700 0 
Q 2613 175 2588 409 
z
M 2541 1666 
Q 2234 1541 1622 1453 
Q 1275 1403 1131 1340 
Q 988 1278 909 1158 
Q 831 1038 831 891 
Q 831 666 1001 516 
Q 1172 366 1500 366 
Q 1825 366 2078 508 
Q 2331 650 2450 897 
Q 2541 1088 2541 1459 
L 2541 1666 
z
" transform="scale(0.015625)"/>
       <path id="ArialMT-79" d="M 397 -1278 
L 334 -750 
Q 519 -800 656 -800 
Q 844 -800 956 -737 
Q 1069 -675 1141 -563 
Q 1194 -478 1313 -144 
Q 1328 -97 1363 -6 
L 103 3319 
L 709 3319 
L 1400 1397 
Q 1534 1031 1641 628 
Q 1738 1016 1872 1384 
L 2581 3319 
L 3144 3319 
L 1881 -56 
Q 1678 -603 1566 -809 
Q 1416 -1088 1222 -1217 
Q 1028 -1347 759 -1347 
Q 597 -1347 397 -1278 
z
" transform="scale(0.015625)"/>
       <path id="ArialMT-73" d="M 197 991 
L 753 1078 
Q 800 744 1014 566 
Q 1228 388 1613 388 
Q 2000 388 2187 545 
Q 2375 703 2375 916 
Q 2375 1106 2209 1216 
Q 2094 1291 1634 1406 
Q 1016 1563 777 1677 
Q 538 1791 414 1992 
Q 291 2194 291 2438 
Q 291 2659 392 2848 
Q 494 3038 669 3163 
Q 800 3259 1026 3326 
Q 1253 3394 1513 3394 
Q 1903 3394 2198 3281 
Q 2494 3169 2634 2976 
Q 2775 2784 2828 2463 
L 2278 2388 
Q 2241 2644 2061 2787 
Q 1881 2931 1553 2931 
Q 1166 2931 1000 2803 
Q 834 2675 834 2503 
Q 834 2394 903 2306 
Q 972 2216 1119 2156 
Q 1203 2125 1616 2013 
Q 2213 1853 2448 1751 
Q 2684 1650 2818 1456 
Q 2953 1263 2953 975 
Q 2953 694 2789 445 
Q 2625 197 2315 61 
Q 2006 -75 1616 -75 
Q 969 -75 630 194 
Q 291 463 197 991 
z
" transform="scale(0.015625)"/>
      </defs>
      <use xlink:href="#ArialMT-44"/>
      <use xlink:href="#ArialMT-61" x="72.216797"/>
      <use xlink:href="#ArialMT-79" x="127.832031"/>
      <use xlink:href="#ArialMT-73" x="177.832031"/>
     </g>
    </g>
   </g>
   <g id="matplotlib.axis_2">
    <g id="ytick_1">
     <g id="line2d_6">
      <path d="M 72 377.823157 
L 518.4 377.823157 
" clip-path="url(#peb42554922)" style="fill: none; stroke: #ffffff; stroke-width: 0.8; stroke-linecap: round"/>
     </g>
     <g id="text_7">
      <!-- 2.5 -->
      <g style="fill: #262626" transform="translate(51.1 381.402063) scale(0.1 -0.1)">
       <defs>
        <path id="ArialMT-2e" d="M 581 0 
L 581 641 
L 1222 641 
L 1222 0 
L 581 0 
z
" transform="scale(0.015625)"/>
        <path id="ArialMT-35" d="M 266 1200 
L 856 1250 
Q 922 819 1161 601 
Q 1400 384 1738 384 
Q 2144 384 2425 690 
Q 2706 997 2706 1503 
Q 2706 1984 2436 2262 
Q 2166 2541 1728 2541 
Q 1456 2541 1237 2417 
Q 1019 2294 894 2097 
L 366 2166 
L 809 4519 
L 3088 4519 
L 3088 3981 
L 1259 3981 
L 1013 2750 
Q 1425 3038 1878 3038 
Q 2478 3038 2890 2622 
Q 3303 2206 3303 1553 
Q 3303 931 2941 478 
Q 2500 -78 1738 -78 
Q 1113 -78 717 272 
Q 322 622 266 1200 
z
" transform="scale(0.015625)"/>
       </defs>
       <use xlink:href="#ArialMT-32"/>
       <use xlink:href="#ArialMT-2e" x="55.615234"/>
       <use xlink:href="#ArialMT-35" x="83.398438"/>
      </g>
     </g>
    </g>
    <g id="ytick_2">
     <g id="line2d_7">
      <path d="M 72 335.783796 
L 518.4 335.783796 
" clip-path="url(#peb42554922)" style="fill: none; stroke: #ffffff; stroke-width: 0.8; stroke-linecap: round"/>
     </g>
     <g id="text_8">
      <!-- 5.0 -->
      <g style="fill: #262626" transform="translate(51.1 339.362703) scale(0.1 -0.1)">
       <use xlink:href="#ArialMT-35"/>
       <use xlink:href="#ArialMT-2e" x="55.615234"/>
       <use xlink:href="#ArialMT-30" x="83.398438"/>
      </g>
     </g>
    </g>
    <g id="ytick_3">
     <g id="line2d_8">
      <path d="M 72 293.744436 
L 518.4 293.744436 
" clip-path="url(#peb42554922)" style="fill: none; stroke: #ffffff; stroke-width: 0.8; stroke-linecap: round"/>
     </g>
     <g id="text_9">
      <!-- 7.5 -->
      <g style="fill: #262626" transform="translate(51.1 297.323342) scale(0.1 -0.1)">
       <defs>
        <path id="ArialMT-37" d="M 303 3981 
L 303 4522 
L 3269 4522 
L 3269 4084 
Q 2831 3619 2401 2847 
Q 1972 2075 1738 1259 
Q 1569 684 1522 0 
L 944 0 
Q 953 541 1156 1306 
Q 1359 2072 1739 2783 
Q 2119 3494 2547 3981 
L 303 3981 
z
" transform="scale(0.015625)"/>
       </defs>
       <use xlink:href="#ArialMT-37"/>
       <use xlink:href="#ArialMT-2e" x="55.615234"/>
       <use xlink:href="#ArialMT-35" x="83.398438"/>
      </g>
     </g>
    </g>
    <g id="ytick_4">
     <g id="line2d_9">
      <path d="M 72 251.705076 
L 518.4 251.705076 
" clip-path="url(#peb42554922)" style="fill: none; stroke: #ffffff; stroke-width: 0.8; stroke-linecap: round"/>
     </g>
     <g id="text_10">
      <!-- 10.0 -->
      <g style="fill: #262626" transform="translate(45.539062 255.283982) scale(0.1 -0.1)">
       <defs>
        <path id="ArialMT-31" d="M 2384 0 
L 1822 0 
L 1822 3584 
Q 1619 3391 1289 3197 
Q 959 3003 697 2906 
L 697 3450 
Q 1169 3672 1522 3987 
Q 1875 4303 2022 4600 
L 2384 4600 
L 2384 0 
z
" transform="scale(0.015625)"/>
       </defs>
       <use xlink:href="#ArialMT-31"/>
       <use xlink:href="#ArialMT-30" x="55.615234"/>
       <use xlink:href="#ArialMT-2e" x="111.230469"/>
       <use xlink:href="#ArialMT-30" x="139.013672"/>
      </g>
     </g>
    </g>
    <g id="ytick_5">
     <g id="line2d_10">
      <path d="M 72 209.665716 
L 518.4 209.665716 
" clip-path="url(#peb42554922)" style="fill: none; stroke: #ffffff; stroke-width: 0.8; stroke-linecap: round"/>
     </g>
     <g id="text_11">
      <!-- 12.5 -->
      <g style="fill: #262626" transform="translate(45.539062 213.244622) scale(0.1 -0.1)">
       <use xlink:href="#ArialMT-31"/>
       <use xlink:href="#ArialMT-32" x="55.615234"/>
       <use xlink:href="#ArialMT-2e" x="111.230469"/>
       <use xlink:href="#ArialMT-35" x="139.013672"/>
      </g>
     </g>
    </g>
    <g id="ytick_6">
     <g id="line2d_11">
      <path d="M 72 167.626355 
L 518.4 167.626355 
" clip-path="url(#peb42554922)" style="fill: none; stroke: #ffffff; stroke-width: 0.8; stroke-linecap: round"/>
     </g>
     <g id="text_12">
      <!-- 15.0 -->
      <g style="fill: #262626" transform="translate(45.539062 171.205262) scale(0.1 -0.1)">
       <use xlink:href="#ArialMT-31"/>
       <use xlink:href="#ArialMT-35" x="55.615234"/>
       <use xlink:href="#ArialMT-2e" x="111.230469"/>
       <use xlink:href="#ArialMT-30" x="139.013672"/>
      </g>
     </g>
    </g>
    <g id="ytick_7">
     <g id="line2d_12">
      <path d="M 72 125.586995 
L 518.4 125.586995 
" clip-path="url(#peb42554922)" style="fill: none; stroke: #ffffff; stroke-width: 0.8; stroke-linecap: round"/>
     </g>
     <g id="text_13">
      <!-- 17.5 -->
      <g style="fill: #262626" transform="translate(45.539062 129.165901) scale(0.1 -0.1)">
       <use xlink:href="#ArialMT-31"/>
       <use xlink:href="#ArialMT-37" x="55.615234"/>
       <use xlink:href="#ArialMT-2e" x="111.230469"/>
       <use xlink:href="#ArialMT-35" x="139.013672"/>
      </g>
     </g>
    </g>
    <g id="ytick_8">
     <g id="line2d_13">
      <path d="M 72 83.547635 
L 518.4 83.547635 
" clip-path="url(#peb42554922)" style="fill: none; stroke: #ffffff; stroke-width: 0.8; stroke-linecap: round"/>
     </g>
     <g id="text_14">
      <!-- 20.0 -->
      <g style="fill: #262626" transform="translate(45.539062 87.126541) scale(0.1 -0.1)">
       <use xlink:href="#ArialMT-32"/>
       <use xlink:href="#ArialMT-30" x="55.615234"/>
       <use xlink:href="#ArialMT-2e" x="111.230469"/>
       <use xlink:href="#ArialMT-30" x="139.013672"/>
      </g>
     </g>
    </g>
    <g id="text_15">
     <!-- (m/s) -->
     <g style="fill: #262626" transform="translate(39.434375 229.543594) rotate(-90) scale(0.1 -0.1)">
      <defs>
       <path id="ArialMT-28" d="M 1497 -1347 
Q 1031 -759 709 28 
Q 388 816 388 1659 
Q 388 2403 628 3084 
Q 909 3875 1497 4659 
L 1900 4659 
Q 1522 4009 1400 3731 
Q 1209 3300 1100 2831 
Q 966 2247 966 1656 
Q 966 153 1900 -1347 
L 1497 -1347 
z
" transform="scale(0.015625)"/>
       <path id="ArialMT-6d" d="M 422 0 
L 422 3319 
L 925 3319 
L 925 2853 
Q 1081 3097 1340 3245 
Q 1600 3394 1931 3394 
Q 2300 3394 2536 3241 
Q 2772 3088 2869 2813 
Q 3263 3394 3894 3394 
Q 4388 3394 4653 3120 
Q 4919 2847 4919 2278 
L 4919 0 
L 4359 0 
L 4359 2091 
Q 4359 2428 4304 2576 
Q 4250 2725 4106 2815 
Q 3963 2906 3769 2906 
Q 3419 2906 3187 2673 
Q 2956 2441 2956 1928 
L 2956 0 
L 2394 0 
L 2394 2156 
Q 2394 2531 2256 2718 
Q 2119 2906 1806 2906 
Q 1569 2906 1367 2781 
Q 1166 2656 1075 2415 
Q 984 2175 984 1722 
L 984 0 
L 422 0 
z
" transform="scale(0.015625)"/>
       <path id="ArialMT-2f" d="M 0 -78 
L 1328 4659 
L 1778 4659 
L 453 -78 
L 0 -78 
z
" transform="scale(0.015625)"/>
       <path id="ArialMT-29" d="M 791 -1347 
L 388 -1347 
Q 1322 153 1322 1656 
Q 1322 2244 1188 2822 
Q 1081 3291 891 3722 
Q 769 4003 388 4659 
L 791 4659 
Q 1378 3875 1659 3084 
Q 1900 2403 1900 1659 
Q 1900 816 1576 28 
Q 1253 -759 791 -1347 
z
" transform="scale(0.015625)"/>
      </defs>
      <use xlink:href="#ArialMT-28"/>
      <use xlink:href="#ArialMT-6d" x="33.300781"/>
      <use xlink:href="#ArialMT-2f" x="116.601562"/>
      <use xlink:href="#ArialMT-73" x="144.384766"/>
      <use xlink:href="#ArialMT-29" x="194.384766"/>
     </g>
    </g>
   </g>
   <g id="line2d_14">
    <path d="M 92.290909 306.061969 
L 92.758981 331.243546 
L 93.227053 313.418857 
L 93.695124 315.310628 
L 94.163196 285.24249 
L 94.631268 290.255169 
L 95.099339 263.728333 
L 95.567411 283.528872 
L 96.035483 278.147834 
L 96.503555 235.940316 
L 96.971626 207.857141 
L 97.439698 269.15141 
L 97.90777 248.426006 
L 98.375841 235.057489 
L 98.843913 241.699708 
L 99.311985 261.82768 
L 99.780057 263.89649 
L 100.248128 268.941214 
L 100.7162 280.249802 
L 101.184272 216.686289 
L 101.652344 256.581642 
L 102.120415 279.913487 
L 102.588487 291.053917 
L 103.056559 243.044968 
L 103.52463 292.525295 
L 103.992702 310.476102 
L 104.460774 316.277533 
L 104.928846 332.504726 
L 105.396917 358.358933 
L 105.864989 285.714918 
L 106.333061 326.829413 
L 106.801132 338.264119 
L 107.737276 311.148731 
L 108.205348 312.325833 
L 108.673419 293.282003 
L 109.141491 309.245495 
L 109.609563 312.53603 
L 110.077634 306.860717 
L 110.545706 317.79095 
L 111.013778 255.824933 
L 111.48185 311.8634 
L 112.417993 321.574493 
L 112.886065 307.575386 
L 113.354137 311.022613 
L 113.822208 311.737282 
L 114.29028 307.28111 
L 114.758352 281.805258 
L 115.226423 322.499359 
L 115.694495 327.754279 
L 116.162567 303.119214 
L 116.630639 190.411689 
L 117.09871 316.140165 
L 117.566782 324.307051 
L 118.034854 315.370945 
L 118.502925 322.877713 
L 118.970997 313.309496 
L 119.439069 330.115832 
L 119.907141 328.006515 
L 120.843284 282.35177 
L 121.311356 299.251592 
L 121.779427 339.525299 
L 122.247499 322.331201 
L 122.715571 329.225656 
L 123.183643 296.476995 
L 123.651714 321.910808 
L 124.119786 293.996672 
L 124.587858 232.114734 
L 125.05593 237.579851 
L 125.524001 332.6135 
L 125.992073 328.34283 
L 126.460145 325.69435 
L 126.928216 314.301683 
L 127.396288 295.383971 
L 127.86436 298.663041 
L 128.332432 328.142916 
L 129.268575 66.96 
L 129.736647 335.069127 
L 130.204718 327.165728 
L 130.67279 280.922431 
L 131.140862 323.466264 
L 131.608934 233.796308 
L 132.077005 169.420035 
L 132.545077 315.249904 
L 133.013149 326.661255 
L 133.481221 304.212237 
L 133.949292 317.580753 
L 134.417364 318.474163 
L 134.885436 311.90544 
L 135.353507 287.816886 
L 135.821579 256.455524 
L 136.289651 290.633524 
L 136.757723 302.133493 
L 137.225794 323.04587 
L 137.693866 331.512833 
L 138.161938 318.841934 
L 138.630009 292.609373 
L 139.098081 311.443007 
L 140.034225 326.871452 
L 140.502296 320.565548 
L 140.970368 302.824938 
L 141.43844 306.524402 
L 141.906511 300.807049 
L 142.374583 346.293636 
L 143.310727 223.83298 
L 143.778798 276.466259 
L 144.24687 315.646943 
L 145.183014 302.530662 
L 145.651085 320.019036 
L 146.119157 230.024608 
L 147.0553 308.878606 
L 147.523372 281.048549 
L 147.991444 227.574483 
L 148.459516 302.824938 
L 148.927587 304.296316 
L 149.395659 301.984151 
L 149.863731 298.242648 
L 150.331802 307.112953 
L 150.799874 199.366072 
L 151.267946 267.049442 
L 151.736018 314.890234 
L 152.204089 277.853558 
L 152.672161 303.077174 
L 153.140233 319.430485 
L 153.608304 323.508303 
L 154.076376 318.648674 
L 154.544448 299.33399 
L 155.01252 253.849083 
L 155.480591 139.670181 
L 155.948663 285.967155 
L 156.416735 322.793634 
L 156.884807 327.249806 
L 157.352878 330.5496 
L 157.82095 244.8947 
L 158.289022 308.079858 
L 158.757093 312.031558 
L 159.225165 280.922431 
L 159.693237 274.952842 
L 160.161309 229.466254 
L 160.62938 247.248904 
L 161.097452 245.945684 
L 161.565524 278.257489 
L 162.501667 307.911701 
L 162.969739 167.584316 
L 163.905882 308.58433 
L 164.373954 259.061964 
L 164.842026 279.156778 
L 165.310098 232.997561 
L 165.778169 260.65946 
L 166.246241 256.287366 
L 166.714313 226.949478 
L 167.182384 291.973491 
L 167.650456 300.891127 
L 168.118528 322.667516 
L 168.5866 308.416173 
L 169.054671 274.700606 
L 169.990815 226.145145 
L 170.458886 159.767956 
L 170.926958 290.171091 
L 171.39503 232.240852 
L 171.863102 221.894697 
L 172.331173 284.748013 
L 172.799245 300.807049 
L 173.267317 291.169158 
L 174.20346 318.589698 
L 174.671532 225.934948 
L 175.139604 269.235489 
L 175.607675 249.43495 
L 176.075747 268.604899 
L 177.011891 234.006505 
L 177.479962 137.358016 
L 177.948034 226.901853 
L 178.416106 277.601322 
L 178.884177 273.439425 
L 179.352249 250.191659 
L 179.820321 304.212237 
L 180.288393 300.226361 
L 180.756464 290.84372 
L 181.224536 289.518158 
L 181.692608 245.819565 
L 182.160679 243.044968 
L 182.628751 259.482358 
L 183.096823 294.979159 
L 183.564895 282.393809 
L 184.032966 276.928692 
L 184.501038 201.718807 
L 184.96911 212.482353 
L 185.437182 243.538782 
L 185.905253 224.46357 
L 186.373325 228.541388 
L 186.841397 243.927794 
L 187.309468 250.317483 
L 187.77754 180.775898 
L 188.245612 276.902822 
L 188.713684 242.866815 
L 189.181755 241.237275 
L 189.649827 216.070428 
L 190.117899 204.158559 
L 190.58597 255.016484 
L 191.054042 271.085221 
L 191.522114 218.830296 
L 191.990186 213.191142 
L 192.458257 188.435839 
L 192.926329 279.065919 
L 193.394401 253.050335 
L 193.862472 243.801676 
L 194.330544 205.756055 
L 194.798616 252.68815 
L 195.266688 248.581816 
L 195.734759 245.651408 
L 196.202831 216.097738 
L 196.670903 267.970487 
L 197.138975 208.153475 
L 197.607046 223.622783 
L 198.075118 262.677349 
L 198.54319 257.884862 
L 199.011261 194.23727 
L 199.479333 193.018129 
L 200.415477 294.290948 
L 200.883548 212.776628 
L 201.35162 198.945679 
L 201.819692 220.259634 
L 202.287763 212.608471 
L 202.755835 146.516129 
L 203.223907 232.997561 
L 203.691979 227.78468 
L 204.16005 121.257835 
L 204.628122 133.78467 
L 205.096194 152.366068 
L 205.564265 156.948358 
L 206.500409 229.447146 
L 206.968481 191.126358 
L 207.436552 207.101315 
L 207.904624 180.467469 
L 208.372696 184.870137 
L 208.840768 164.473403 
L 209.308839 149.885745 
L 209.776911 237.832087 
L 210.244983 267.589486 
L 210.713054 284.243541 
L 211.181126 288.657674 
L 212.11727 215.761423 
L 212.585341 220.26081 
L 213.053413 285.792823 
L 213.521485 264.064648 
L 213.989556 208.782889 
L 214.457628 174.352653 
L 214.9257 235.737224 
L 215.393772 217.400958 
L 215.861843 216.560171 
L 216.329915 229.701146 
L 216.797987 278.40007 
L 217.266059 254.73191 
L 217.73413 239.051228 
L 218.202202 252.714021 
L 218.670274 254.000484 
L 219.138345 208.362495 
L 219.606417 248.089691 
L 220.074489 145.892006 
L 220.542561 132.565529 
L 221.010632 122.434043 
L 221.478704 188.856232 
L 221.946776 227.490404 
L 222.414847 217.316879 
L 222.882919 267.511875 
L 223.350991 247.585219 
L 223.819063 272.262323 
L 224.755206 165.989466 
L 225.223278 192.177342 
L 225.691349 241.300481 
L 226.159421 222.193445 
L 227.563636 298.233777 
L 228.031708 276.174883 
L 228.49978 276.928692 
L 228.967852 254.23928 
L 229.435923 208.488614 
L 229.903995 174.058378 
L 230.372067 195.918845 
L 230.840138 188.856232 
L 231.30821 202.476985 
L 231.776282 230.979671 
L 232.244354 214.920636 
L 232.712425 282.120257 
L 233.180497 289.58254 
L 233.648569 265.536025 
L 234.11664 204.494874 
L 234.584712 213.32314 
L 235.052784 224.715807 
L 235.520856 230.420812 
L 235.988927 224.127256 
L 236.456999 224.799885 
L 236.925071 208.029318 
L 237.861214 249.098636 
L 238.329286 256.70776 
L 238.797358 234.048545 
L 239.265429 225.119927 
L 239.733501 219.25069 
L 240.201573 231.568222 
L 240.669645 218.536021 
L 241.137716 181.036911 
L 241.605788 200.627253 
L 242.07386 242.120102 
L 242.541931 212.860707 
L 243.010003 215.467147 
L 243.478075 238.426687 
L 243.946147 240.665481 
L 244.414218 221.562855 
L 244.88229 218.956414 
L 245.350362 155.533131 
L 245.818433 134.778 
L 246.286505 172.22426 
L 246.754577 200.711332 
L 247.222649 269.19345 
L 247.69072 309.105974 
L 248.158792 291.380825 
L 248.626864 293.786476 
L 249.094936 246.224564 
L 249.563007 263.518136 
L 250.031079 263.349979 
L 250.499151 244.726542 
L 250.967222 250.401856 
L 251.435294 252.377706 
L 251.903366 295.383971 
L 252.371438 283.528872 
L 252.839509 296.757159 
L 253.307581 298.789159 
L 253.775653 139.214474 
L 254.243724 221.403811 
L 254.711796 210.100808 
L 255.64794 287.690768 
L 257.052155 309.298999 
L 257.520226 329.195082 
L 257.988298 273.229228 
L 258.45637 171.199701 
L 258.924442 166.869647 
L 259.392513 251.999351 
L 259.860585 234.865813 
L 260.328657 239.135307 
L 260.796729 274.027976 
L 261.2648 276.171984 
L 262.669015 134.289143 
L 263.137087 121.046744 
L 263.605159 124.073578 
L 264.073231 181.078951 
L 264.541302 221.773051 
L 265.009374 288.825831 
L 265.477446 305.30526 
L 265.945517 305.137103 
L 266.413589 298.831199 
L 266.881661 253.38665 
L 267.349733 281.300786 
L 267.817804 265.199711 
L 268.285876 232.030655 
L 268.753948 274.784685 
L 269.22202 299.37771 
L 269.690091 310.013669 
L 270.158163 303.497568 
L 270.626235 274.490409 
L 271.094306 293.954633 
L 271.562378 296.434955 
L 272.498522 320.817784 
L 272.966593 292.357137 
L 273.434665 140.38485 
L 273.902737 164.095049 
L 274.370808 267.680033 
L 274.83888 208.407475 
L 275.306952 301.858033 
L 275.775024 316.151415 
L 276.711167 298.663041 
L 277.179239 264.190766 
L 277.64731 245.104896 
L 278.115382 302.69882 
L 279.051526 262.803467 
L 279.519597 325.946586 
L 279.987669 265.176486 
L 280.455741 176.664818 
L 280.923813 290.110824 
L 281.391884 311.443007 
L 281.859956 302.740859 
L 282.328028 312.914384 
L 282.796099 304.67467 
L 283.264171 245.020818 
L 283.732243 300.470734 
L 284.200315 310.097747 
L 284.668386 303.917961 
L 285.136458 293.576279 
L 285.60453 340.239969 
L 286.072601 323.844618 
L 286.540673 288.90991 
L 287.008745 309.25696 
L 287.476817 289.204185 
L 287.944888 292.81957 
L 288.41296 316.067336 
L 288.881032 320.901863 
L 289.349103 329.60401 
L 289.817175 327.291846 
L 290.285247 242.540495 
L 290.753319 303.917961 
L 291.22139 340.197929 
L 291.689462 318.379501 
L 292.157534 272.514559 
L 292.625606 260.911696 
L 293.093677 339.146945 
L 293.561749 289.204185 
L 294.029821 337.339253 
L 294.497892 314.469841 
L 294.965964 281.721179 
L 295.434036 335.783796 
L 295.902108 305.137103 
L 296.370179 226.607578 
L 296.838251 256.245327 
L 297.306323 327.586121 
L 297.774394 325.358035 
L 298.242466 322.205083 
L 298.710538 328.468948 
L 299.17861 271.79989 
L 299.646681 265.493986 
L 300.114753 265.704183 
L 300.582825 275.331196 
L 301.050897 344.10759 
L 301.518968 353.398288 
L 301.98704 333.051238 
L 302.455112 317.622793 
L 302.923183 318.043186 
L 303.391255 313.334778 
L 303.859327 315.268589 
L 304.327399 289.5405 
L 304.79547 311.90544 
L 305.263542 297.485939 
L 305.731614 194.405428 
L 306.199685 232.324931 
L 306.667757 345.158574 
L 307.135829 306.734598 
L 307.603901 247.255371 
L 308.071972 328.337832 
L 309.008116 336.036033 
L 309.476187 264.61116 
L 309.944259 282.856242 
L 310.412331 337.633528 
L 310.880403 322.877713 
L 311.348474 263.223861 
L 311.816546 333.429592 
L 312.284618 362.352672 
L 312.75269 343.43496 
L 313.220761 355.205981 
L 313.688833 269.025292 
L 314.156905 249.43495 
L 314.624976 312.283794 
L 315.093048 300.176458 
L 315.56112 196.25516 
L 316.029192 213.064142 
L 316.497263 337.885764 
L 316.965335 316.992202 
L 317.433407 215.425108 
L 317.901478 326.829413 
L 318.36955 321.196138 
L 318.837622 285.378603 
L 319.305694 269.992198 
L 319.773765 243.591479 
L 320.241837 264.022608 
L 320.709909 276.970731 
L 321.17798 321.952847 
L 321.646052 332.000254 
L 322.114124 319.724761 
L 322.582196 321.238178 
L 323.050267 274.658567 
L 323.518339 247.162457 
L 323.986411 306.061969 
L 324.454483 247.795415 
L 324.922554 304.254276 
L 325.390626 297.948372 
L 325.858698 301.605797 
L 326.326769 315.478785 
L 327.262913 191.126358 
L 327.730985 306.188087 
L 328.199056 330.94927 
L 328.667128 302.740859 
L 329.1352 308.962685 
L 330.071343 303.203292 
L 330.539415 285.168407 
L 331.007487 259.566436 
L 331.475558 328.97342 
L 331.94363 286.219391 
L 332.411702 285.504722 
L 332.879774 224.253374 
L 333.347845 276.508298 
L 333.815917 278.694345 
L 334.283989 271.968048 
L 334.75206 277.811519 
L 335.220132 258.851767 
L 335.688204 309.214921 
L 336.156276 277.495488 
L 336.624347 286.26143 
L 337.092419 196.717593 
L 337.560491 168.551221 
L 338.496634 298.242648 
L 339.432778 254.773949 
L 339.900849 295.594168 
L 340.368921 237.495772 
L 340.836993 262.130837 
L 341.305064 211.010975 
L 341.773136 289.58254 
L 342.241208 231.231907 
L 342.70928 212.566432 
L 343.177351 251.895167 
L 343.645423 314.764116 
L 344.113495 268.899174 
L 344.581567 311.947479 
L 345.049638 301.942111 
L 345.51771 275.415275 
L 345.985782 222.007746 
L 346.921925 267.680033 
L 347.389997 269.86608 
L 347.858069 265.788262 
L 348.32614 328.090594 
L 348.794212 277.138889 
L 349.262284 169.518127 
L 349.730355 221.310618 
L 350.198427 229.886648 
L 350.666499 284.705974 
L 351.134571 281.6371 
L 351.602642 303.749804 
L 352.070714 290.88576 
L 352.538786 292.567334 
L 353.006858 296.884159 
L 353.474929 247.080746 
L 353.943001 287.396493 
L 354.411073 180.388142 
L 354.879144 156.585074 
L 355.347216 259.272161 
L 355.815288 288.363398 
L 356.28336 261.752483 
L 356.751431 310.56018 
L 357.219503 287.816886 
L 357.687575 255.609151 
L 358.155646 244.011873 
L 358.623718 193.648719 
L 359.559862 284.327619 
L 360.027933 286.051233 
L 360.964077 214.962675 
L 361.432148 220.007398 
L 361.90022 273.77574 
L 362.368292 233.754269 
L 362.836364 222.319563 
L 363.304435 250.612053 
L 363.772507 239.892016 
L 364.240579 235.604001 
L 364.708651 242.372338 
L 365.176722 243.717597 
L 365.644794 250.906328 
L 366.112866 201.636198 
L 366.580937 277.307046 
L 367.049009 277.769479 
L 367.985153 166.197017 
L 368.453224 285.63084 
L 368.921296 203.612048 
L 369.389368 223.917059 
L 369.857439 217.90543 
L 370.325511 235.20448 
L 370.793583 265.451947 
L 371.261655 257.968941 
L 371.729726 268.52082 
L 372.197798 248.13173 
L 372.66587 203.233694 
L 373.133941 276.760535 
L 373.602013 180.784675 
L 374.070085 211.935841 
L 374.538157 214.584321 
L 375.006228 279.913487 
L 375.4743 258.305255 
L 375.942372 264.400963 
L 376.410444 242.374127 
L 376.878515 325.882498 
L 377.346587 284.916171 
L 377.814659 281.940489 
L 378.28273 240.312409 
L 378.750802 211.557487 
L 379.218874 201.804355 
L 379.686946 189.110941 
L 380.623089 259.188082 
L 381.091161 257.800783 
L 381.559232 259.969485 
L 382.027304 249.266793 
L 382.495376 315.436746 
L 382.963448 283.930156 
L 383.431519 289.498461 
L 383.899591 267.427797 
L 384.367663 220.385753 
L 384.835735 150.978769 
L 385.771878 194.111152 
L 386.23995 198.735482 
L 387.176093 228.120995 
L 387.644165 235.814198 
L 388.112237 236.9913 
L 388.580308 253.512768 
L 389.04838 240.858921 
L 389.516452 202.266788 
L 390.452595 369.36 
L 390.920667 267.231613 
L 391.388739 276.129944 
L 391.85681 260.182749 
L 392.324882 248.972517 
L 392.792954 204.146548 
L 393.261025 243.885755 
L 393.729097 263.2659 
L 394.197169 218.872336 
L 394.665241 215.214911 
L 395.133312 249.326263 
L 395.601384 204.074481 
L 396.069456 192.765893 
L 396.537528 198.777521 
L 397.005599 229.592372 
L 397.473671 238.336559 
L 398.409814 168.130828 
L 398.877886 167.090133 
L 399.345958 195.834766 
L 399.81403 243.798148 
L 400.282101 312.57807 
L 400.750173 262.845506 
L 401.218245 290.044972 
L 401.686316 272.220284 
L 402.154388 231.315986 
L 403.090532 304.296316 
L 403.558603 204.245111 
L 404.026675 180.540847 
L 404.494747 289.118056 
L 404.962818 265.642153 
L 405.43089 295.762325 
L 405.898962 315.499284 
L 406.367034 273.10311 
L 406.835105 289.5405 
L 407.303177 280.204822 
L 407.771249 267.84819 
L 408.239321 214.332085 
L 408.707392 216.277666 
L 409.175464 160.7319 
L 409.643536 152.019463 
L 410.111607 154.636193 
L 411.047751 254.647831 
L 411.983894 220.806146 
L 412.451966 245.441211 
L 412.920038 248.511368 
L 413.388109 259.007913 
L 413.856181 283.125823 
L 414.324253 298.11653 
L 415.260396 280.224578 
L 415.728468 246.585176 
L 416.19654 258.095059 
L 416.664612 293.534239 
L 417.132683 269.277529 
L 417.600755 254.521713 
L 418.068827 230.012766 
L 418.536898 254.185398 
L 419.00497 261.205971 
L 419.473042 279.182504 
L 419.941114 313.923329 
L 420.409185 299.568798 
L 420.877257 273.177488 
L 421.345329 294.995528 
L 421.8134 306.457139 
L 422.281472 313.460896 
L 422.749544 274.484135 
L 423.217616 267.492839 
L 423.685687 309.761432 
L 424.153759 262.803467 
L 424.621831 193.648719 
L 425.089902 157.480464 
L 425.557974 144.672865 
L 426.026046 156.864279 
L 426.494118 151.609359 
L 426.962189 166.323135 
L 427.430261 170.569111 
L 427.898333 206.344606 
L 428.366405 146.102203 
L 428.834476 136.43315 
L 429.302548 145.849967 
L 429.77062 223.286468 
L 430.238691 218.115627 
L 430.706763 208.278417 
L 431.174835 212.314195 
L 431.642907 133.574474 
L 432.110978 129.959089 
L 432.57905 135.214009 
L 433.047122 174.352653 
L 433.983265 196.297199 
L 434.919409 234.763214 
L 435.38748 309.172881 
L 435.855552 304.128158 
L 436.323624 275.289157 
L 436.791696 166.112938 
L 437.727839 218.662139 
L 438.195911 205.167504 
L 438.663982 182.634407 
L 439.132054 235.561962 
L 439.600126 254.017241 
L 440.068198 239.765898 
L 440.536269 265.409907 
L 441.004341 269.739961 
L 441.472413 305.179142 
L 442.408556 240.312409 
L 442.876628 221.268579 
L 443.3447 215.887541 
L 443.812771 253.470729 
L 444.280843 238.126363 
L 444.748915 196.339238 
L 445.216986 236.823142 
L 445.685058 254.900067 
L 446.15313 319.220288 
L 446.621202 311.148731 
L 447.089273 309.298999 
L 447.557345 305.893811 
L 448.493489 261.584326 
L 448.96156 257.548547 
L 449.429632 265.325829 
L 449.897704 226.607578 
L 450.365775 176.076267 
L 450.833847 256.623681 
L 451.301919 253.008296 
L 451.769991 206.260527 
L 452.238062 198.020813 
L 452.706134 201.972513 
L 453.642277 248.468045 
L 454.110349 260.028869 
L 454.578421 256.203287 
L 455.046493 273.355346 
L 455.514564 300.765009 
L 455.982636 315.142471 
L 456.450708 308.920645 
L 456.918779 262.130837 
L 457.386851 263.223861 
L 458.322995 245.777526 
L 458.791066 223.790941 
L 459.259138 252.461784 
L 459.72721 248.80436 
L 460.195282 293.996672 
L 460.663353 303.749804 
L 461.131425 305.515457 
L 461.599497 313.83925 
L 462.067568 254.437634 
L 462.53564 276.718495 
L 463.003712 328.553026 
L 463.471784 333.55571 
L 463.939855 313.040503 
L 464.875999 250.023502 
L 465.34407 240.858921 
L 465.812142 254.311516 
L 466.280214 301.731915 
L 466.748286 285.126367 
L 467.216357 318.169304 
L 467.684429 312.57807 
L 468.152501 295.426011 
L 468.620573 313.587014 
L 469.088644 315.8151 
L 470.024788 241.615629 
L 470.492859 305.809733 
L 470.960931 288.111162 
L 471.429003 305.809733 
L 471.897075 280.670195 
L 472.365146 316.151415 
L 472.833218 303.203292 
L 473.30129 269.908119 
L 473.769361 283.066439 
L 474.237433 293.071806 
L 474.705505 292.357137 
L 475.173577 330.612955 
L 475.641648 227.196129 
L 476.10972 187.595052 
L 477.045863 287.690768 
L 477.513935 280.249802 
L 477.982007 269.833154 
L 478.450079 194.741743 
L 478.91815 325.147838 
L 479.386222 222.739957 
L 480.322366 314.722077 
L 480.790437 312.493991 
L 481.258509 300.554813 
L 481.726581 326.535137 
L 482.662724 339.861614 
L 483.130796 333.849986 
L 483.598868 302.572702 
L 484.066939 321.490414 
L 484.535011 305.767693 
L 485.003083 334.438537 
L 485.471154 308.794527 
L 485.939226 334.186301 
L 486.407298 294.452203 
L 486.87537 321.74265 
L 487.343441 317.538714 
L 487.811513 315.463297 
L 488.279585 341.328447 
L 488.747656 335.53156 
L 489.215728 341.332992 
L 489.6838 333.892025 
L 490.151872 302.782899 
L 490.619943 350.371454 
L 491.088015 329.393814 
L 491.556087 322.321727 
L 492.024159 306.314205 
L 492.49223 301.479678 
L 492.960302 317.16036 
L 493.428374 266.358796 
L 493.896445 291.474311 
L 494.364517 335.993993 
L 494.832589 254.088525 
L 495.300661 248.510085 
L 495.768732 279.156778 
L 496.236804 254.521713 
L 496.704876 275.709551 
L 497.172947 307.911701 
L 497.641019 277.265007 
L 498.109091 279.391385 
L 498.109091 279.391385 
" clip-path="url(#peb42554922)" style="fill: none; stroke: #1f77b4; stroke-width: 1.5; stroke-linecap: round"/>
   </g>
   <g id="line2d_15">
    <path d="M 92.290909 295.238556 
L 92.758981 293.132541 
L 93.227053 289.580364 
L 93.695124 275.527127 
L 94.163196 288.823395 
L 94.631268 271.002147 
L 95.099339 281.373878 
L 95.567411 277.543016 
L 96.035483 241.032212 
L 96.503555 217.504831 
L 96.971626 259.805165 
L 97.439698 263.755035 
L 97.90777 247.984326 
L 98.375841 254.583678 
L 98.843913 263.727798 
L 99.311985 262.802389 
L 99.780057 259.596386 
L 100.248128 262.779917 
L 100.7162 228.570185 
L 101.652344 268.88643 
L 102.120415 285.025891 
L 102.588487 241.658243 
L 103.056559 292.977903 
L 103.52463 289.135424 
L 103.992702 300.903473 
L 104.460774 305.059597 
L 104.928846 306.076366 
L 105.396917 282.991234 
L 105.864989 321.454916 
L 106.333061 309.840343 
L 106.801132 313.027711 
L 107.269204 301.110099 
L 107.737276 307.146799 
L 108.205348 299.215328 
L 108.673419 305.29472 
L 109.141491 305.196406 
L 109.609563 284.022501 
L 110.077634 287.992621 
L 110.545706 280.099515 
L 111.013778 300.332714 
L 111.48185 296.153125 
L 111.949921 302.336335 
L 112.417993 287.085353 
L 112.886065 284.268617 
L 113.354137 283.702981 
L 113.822208 298.194285 
L 114.29028 289.835192 
L 114.758352 311.801378 
L 115.226423 313.381117 
L 115.694495 291.619706 
L 116.162567 250.488317 
L 116.630639 312.797252 
L 117.09871 312.401118 
L 117.566782 316.262455 
L 118.034854 311.356474 
L 118.502925 309.946595 
L 118.970997 302.244309 
L 119.439069 291.608355 
L 119.907141 290.276529 
L 120.375212 292.759961 
L 120.843284 309.575523 
L 121.311356 306.969932 
L 122.247499 276.673551 
L 123.183643 288.646283 
L 123.651714 288.703346 
L 124.119786 281.397178 
L 124.587858 292.070603 
L 125.05593 316.51482 
L 125.524001 311.78827 
L 125.992073 310.455392 
L 126.460145 313.996614 
L 126.928216 307.405135 
L 127.396288 304.598444 
L 127.86436 306.84184 
L 128.332432 262.750324 
L 128.800503 277.602285 
L 129.268575 312.426526 
L 129.736647 310.136944 
L 130.204718 300.14172 
L 130.67279 310.879844 
L 131.140862 281.559225 
L 131.608934 266.923037 
L 132.077005 301.935129 
L 132.545077 294.555963 
L 133.013149 283.423233 
L 133.481221 310.387955 
L 133.949292 307.801012 
L 134.417364 281.260694 
L 134.885436 282.012564 
L 135.353507 281.840021 
L 135.821579 299.178941 
L 136.289651 304.063694 
L 136.757723 301.357237 
L 137.225794 302.25932 
L 137.693866 315.918242 
L 138.161938 299.034437 
L 138.630009 312.247319 
L 139.098081 313.926661 
L 139.566153 313.67146 
L 140.502296 298.487785 
L 140.970368 310.900602 
L 141.43844 307.444953 
L 141.906511 312.494302 
L 142.374583 298.286911 
L 142.842655 303.521025 
L 143.310727 300.745009 
L 143.778798 317.487532 
L 144.24687 308.5144 
L 144.714942 308.866034 
L 145.183014 309.449209 
L 145.651085 289.906207 
L 146.119157 298.488104 
L 146.587229 310.69758 
L 147.0553 279.96803 
L 147.523372 299.127259 
L 147.991444 304.345485 
L 148.927587 297.567035 
L 149.395659 290.345845 
L 149.863731 290.860936 
L 150.331802 284.835121 
L 150.799874 290.766737 
L 151.267946 301.955146 
L 151.736018 279.139413 
L 152.204089 292.181889 
L 152.672161 298.014481 
L 153.140233 286.755891 
L 153.608304 286.268308 
L 154.076376 285.615364 
L 154.544448 265.147228 
L 155.01252 269.271273 
L 155.948663 311.436502 
L 156.416735 302.925525 
L 156.884807 299.878456 
L 157.352878 274.807017 
L 157.82095 286.452177 
L 158.289022 274.204314 
L 158.757093 252.84619 
L 159.225165 275.012015 
L 160.161309 287.672037 
L 160.62938 267.994124 
L 161.097452 260.007343 
L 161.565524 278.186004 
L 162.033595 284.038158 
L 162.501667 251.869012 
L 162.969739 263.46244 
L 163.437811 292.621905 
L 163.905882 255.001379 
L 164.373954 267.544784 
L 164.842026 262.194839 
L 165.310098 254.529818 
L 165.778169 257.682463 
L 166.246241 266.018616 
L 166.714313 297.236331 
L 167.182384 305.627533 
L 167.650456 304.931348 
L 168.5866 253.069106 
L 169.054671 246.230927 
L 169.522743 252.201235 
L 169.990815 230.378445 
L 170.458886 272.757719 
L 170.926958 229.622866 
L 171.39503 255.524057 
L 171.863102 273.612197 
L 172.331173 286.103887 
L 172.799245 284.4705 
L 173.267317 292.191245 
L 173.735388 293.594476 
L 174.20346 259.356259 
L 174.671532 290.850281 
L 175.139604 259.267498 
L 175.607675 265.831709 
L 176.075747 260.634899 
L 176.543819 264.389305 
L 177.011891 250.598623 
L 177.479962 259.324222 
L 177.948034 259.388269 
L 178.416106 251.465979 
L 178.884177 265.654285 
L 179.352249 291.835276 
L 179.820321 292.437639 
L 180.288393 282.032193 
L 180.756464 281.510137 
L 181.224536 247.241224 
L 182.160679 242.213801 
L 182.628751 276.513845 
L 183.564895 228.883024 
L 184.501038 205.106652 
L 184.96911 231.949312 
L 185.437182 224.690817 
L 185.905253 231.2796 
L 186.373325 243.5204 
L 186.841397 245.906747 
L 187.309468 195.905194 
L 187.77754 240.637022 
L 188.245612 226.911815 
L 188.713684 228.20768 
L 189.181755 228.338386 
L 189.649827 217.308914 
L 190.117899 240.051384 
L 190.58597 242.040076 
L 191.054042 232.321663 
L 191.522114 214.212676 
L 191.990186 205.409118 
L 192.458257 263.907467 
L 192.926329 240.134147 
L 193.394401 233.165387 
L 193.862472 209.645994 
L 194.330544 253.969122 
L 194.798616 245.690626 
L 195.266688 246.60285 
L 195.734759 223.099939 
L 196.202831 239.458916 
L 196.670903 210.846737 
L 197.138975 216.757126 
L 197.607046 251.89698 
L 198.075118 251.497829 
L 198.54319 226.334614 
L 199.011261 210.073502 
L 199.479333 239.400837 
L 199.947405 277.864647 
L 200.415477 217.217074 
L 200.883548 210.117931 
L 201.35162 219.98059 
L 201.819692 211.031625 
L 202.287763 188.885314 
L 202.755835 230.462329 
L 203.223907 217.989527 
L 203.691979 148.332753 
L 204.16005 147.808614 
L 204.628122 176.708911 
L 205.096194 175.095175 
L 205.564265 196.522945 
L 206.032337 234.324086 
L 206.500409 177.936726 
L 206.968481 194.503866 
L 207.436552 189.411676 
L 207.904624 192.818117 
L 208.372696 180.169357 
L 208.840768 178.267314 
L 209.308839 227.199396 
L 209.776911 238.759457 
L 210.244983 238.067481 
L 210.713054 246.570439 
L 211.181126 229.291459 
L 211.649198 181.525293 
L 212.11727 204.687942 
L 212.585341 248.849705 
L 213.053413 234.786304 
L 213.521485 200.165788 
L 213.989556 203.836492 
L 214.457628 232.743447 
L 214.9257 205.512426 
L 215.393772 210.709486 
L 215.861843 222.023287 
L 216.329915 250.598705 
L 216.797987 245.288869 
L 217.266059 221.904106 
L 217.73413 242.580473 
L 218.202202 240.076358 
L 218.670274 206.67907 
L 219.138345 245.984107 
L 219.606417 189.231392 
L 220.074489 184.18787 
L 220.542561 191.773049 
L 221.010632 215.322896 
L 221.478704 225.835238 
L 221.946776 217.873402 
L 222.414847 247.113103 
L 222.882919 240.344395 
L 223.350991 256.003635 
L 223.819063 217.950514 
L 224.287134 196.0237 
L 224.755206 210.968363 
L 225.223278 230.563025 
L 225.691349 214.27936 
L 226.159421 242.255145 
L 227.095565 263.814011 
L 227.563636 245.08012 
L 228.031708 251.742158 
L 228.49978 247.53052 
L 228.967852 233.160097 
L 229.435923 202.871845 
L 229.903995 203.782222 
L 230.372067 196.165799 
L 230.840138 200.099909 
L 231.30821 228.205878 
L 231.776282 218.976 
L 232.244354 259.13879 
L 232.712425 276.005898 
L 233.180497 254.19696 
L 233.648569 208.833395 
L 234.584712 225.040559 
L 235.052784 239.418604 
L 235.520856 223.201847 
L 235.988927 224.316523 
L 236.456999 217.122614 
L 236.925071 225.182944 
L 237.393142 245.947938 
L 237.861214 252.235886 
L 238.329286 234.439138 
L 239.265429 215.942799 
L 239.733501 225.474594 
L 240.201573 212.502003 
L 240.669645 179.5743 
L 241.137716 205.922113 
L 241.605788 239.335068 
L 242.07386 202.019033 
L 242.541931 207.515856 
L 243.010003 235.880552 
L 243.478075 227.7507 
L 243.946147 203.184523 
L 244.414218 217.809744 
L 244.88229 187.224823 
L 245.350362 172.88247 
L 245.818433 191.554875 
L 246.286505 198.39985 
L 246.754577 250.201391 
L 247.222649 249.549104 
L 247.69072 251.232566 
L 248.158792 255.437569 
L 248.626864 251.292909 
L 249.094936 251.592947 
L 249.563007 233.166929 
L 250.031079 236.921813 
L 250.499151 247.313474 
L 250.967222 246.412407 
L 251.435294 264.773917 
L 251.903366 265.205323 
L 252.839509 258.781934 
L 253.307581 195.883685 
L 253.775653 228.284342 
L 254.243724 231.278824 
L 254.711796 254.237289 
L 255.179868 271.454716 
L 255.64794 279.830641 
L 256.116011 274.967008 
L 256.584083 283.690626 
L 257.052155 282.903659 
L 257.520226 265.259661 
L 257.988298 197.816087 
L 258.45637 190.59839 
L 258.924442 255.640625 
L 259.392513 237.522807 
L 259.860585 227.274335 
L 260.328657 257.530522 
L 260.796729 260.752023 
L 261.2648 242.302224 
L 261.732872 193.286444 
L 262.200944 181.261536 
L 262.669015 177.876089 
L 263.137087 167.974252 
L 263.605159 198.618019 
L 264.073231 217.126466 
L 264.541302 266.550975 
L 265.009374 274.646359 
L 265.477446 270.094113 
L 265.945517 280.057513 
L 266.413589 247.111112 
L 266.881661 265.92716 
L 267.349733 251.658801 
L 267.817804 233.755909 
L 268.285876 271.842355 
L 268.753948 278.829056 
L 269.22202 291.537583 
L 269.690091 278.724679 
L 270.158163 272.190546 
L 270.626235 291.186134 
L 271.094306 289.36511 
L 271.562378 280.482932 
L 272.03045 282.286761 
L 272.498522 278.823227 
L 272.966593 230.882343 
L 273.434665 236.707513 
L 273.902737 266.12099 
L 274.370808 228.238967 
L 274.83888 287.00516 
L 275.306952 287.348121 
L 275.775024 277.580419 
L 276.243095 277.04286 
L 276.711167 278.643258 
L 277.179239 265.753168 
L 277.64731 300.705873 
L 278.115382 288.132817 
L 278.583454 289.871493 
L 279.051526 295.160566 
L 279.519597 253.467775 
L 279.987669 245.315845 
L 280.455741 287.820996 
L 280.923813 299.072945 
L 281.391884 300.551884 
L 281.859956 312.908289 
L 282.328028 291.448422 
L 282.796099 282.634336 
L 283.264171 307.74139 
L 283.732243 306.554408 
L 284.200315 297.869407 
L 284.668386 299.063396 
L 285.136458 310.085889 
L 285.60453 298.07994 
L 286.072601 280.90804 
L 286.540673 293.418178 
L 287.476817 288.239522 
L 287.944888 302.155541 
L 288.41296 305.265691 
L 288.881032 288.563147 
L 289.349103 287.131433 
L 289.817175 267.544581 
L 290.285247 297.759312 
L 290.753319 300.994386 
L 291.22139 289.174013 
L 291.689462 288.100698 
L 292.625606 297.264857 
L 293.093677 291.131371 
L 293.561749 303.164856 
L 294.029821 302.048416 
L 294.497892 296.373547 
L 294.965964 314.382074 
L 295.902108 263.582746 
L 296.370179 301.996879 
L 296.838251 309.15014 
L 297.306323 296.967113 
L 298.242466 281.894016 
L 298.710538 261.987103 
L 299.17861 288.574565 
L 300.114753 302.518897 
L 301.050897 320.607035 
L 301.518968 309.779561 
L 301.98704 307.291841 
L 302.455112 303.091575 
L 302.923183 302.834955 
L 303.391255 307.343575 
L 303.859327 294.577809 
L 304.327399 278.369052 
L 304.79547 287.603606 
L 305.263542 277.935738 
L 306.199685 304.445339 
L 306.667757 263.078057 
L 307.603901 299.047647 
L 308.071972 304.42205 
L 308.540044 306.516354 
L 309.008116 289.984103 
L 309.476187 297.336343 
L 309.944259 307.140767 
L 310.412331 297.968624 
L 310.880403 281.878047 
L 311.348474 304.633084 
L 311.816546 298.58969 
L 312.284618 312.142127 
L 312.75269 313.404113 
L 313.220761 285.950075 
L 313.688833 299.583122 
L 314.156905 317.783297 
L 314.624976 308.291204 
L 315.093048 289.338134 
L 315.56112 295.319861 
L 316.029192 315.957651 
L 316.497263 296.994436 
L 316.965335 269.074619 
L 317.433407 311.730175 
L 317.901478 290.255526 
L 318.837622 276.256914 
L 319.305694 273.693783 
L 319.773765 291.816958 
L 320.241837 287.868156 
L 320.709909 310.293208 
L 321.17798 307.799628 
L 322.114124 289.509869 
L 322.582196 284.621666 
L 323.050267 276.366347 
L 323.518339 288.914501 
L 323.986411 271.903378 
L 324.454483 275.362201 
L 324.922554 277.484112 
L 325.390626 261.571349 
L 325.858698 294.801385 
L 326.794841 258.46989 
L 327.262913 302.834564 
L 327.730985 306.873746 
L 328.199056 274.987162 
L 329.1352 287.192177 
L 329.603271 303.068869 
L 330.071343 292.555972 
L 330.539415 285.910504 
L 331.007487 307.266422 
L 331.475558 277.790073 
L 331.94363 262.774183 
L 332.411702 261.944832 
L 332.879774 275.898569 
L 333.347845 281.703913 
L 333.815917 280.205645 
L 334.283989 260.722963 
L 334.75206 258.280663 
L 335.220132 257.842638 
L 335.688204 246.12292 
L 336.156276 271.167887 
L 336.624347 243.818345 
L 337.092419 250.694602 
L 337.560491 260.741971 
L 338.028562 281.697458 
L 338.496634 273.815687 
L 338.964706 252.572545 
L 339.432778 269.007877 
L 339.900849 247.494673 
L 340.368921 252.381173 
L 340.836993 239.384294 
L 341.305064 281.797113 
L 341.773136 234.771747 
L 342.241208 226.973374 
L 342.70928 250.553153 
L 343.177351 292.040804 
L 343.645423 266.439708 
L 344.113495 301.041053 
L 344.581567 292.102483 
L 345.049638 255.120838 
L 345.51771 240.048834 
L 345.985782 247.490939 
L 346.453853 240.088713 
L 347.389997 252.353339 
L 347.858069 282.516875 
L 348.32614 254.460628 
L 348.794212 216.626656 
L 349.262284 233.761919 
L 349.730355 241.048999 
L 350.198427 273.739281 
L 350.666499 269.503819 
L 351.134571 276.821039 
L 351.602642 287.909764 
L 352.070714 274.71461 
L 352.538786 271.399245 
L 353.006858 241.97662 
L 353.474929 268.294888 
L 353.943001 216.579753 
L 354.411073 203.056527 
L 354.879144 259.582545 
L 355.347216 281.296489 
L 355.815288 269.513519 
L 356.28336 278.21449 
L 357.219503 248.23722 
L 357.687575 248.079677 
L 358.155646 219.60447 
L 358.623718 242.216958 
L 359.09179 230.1293 
L 359.559862 242.676641 
L 360.027933 228.671752 
L 360.496005 219.840523 
L 360.964077 222.383305 
L 361.432148 254.332894 
L 361.90022 232.093983 
L 362.368292 226.47928 
L 362.836364 249.081326 
L 363.304435 231.837785 
L 363.772507 236.894 
L 364.240579 227.686617 
L 364.708651 230.439736 
L 365.176722 245.431658 
L 365.644794 222.800448 
L 366.112866 254.66995 
L 366.580937 264.074194 
L 367.049009 223.974366 
L 367.517081 207.297709 
L 367.985153 263.81667 
L 368.453224 212.296565 
L 368.921296 229.078315 
L 369.389368 222.466846 
L 370.325511 242.423749 
L 370.793583 236.507154 
L 371.261655 235.025303 
L 371.729726 239.009543 
L 372.197798 206.406338 
L 372.66587 252.82688 
L 373.133941 190.116573 
L 373.602013 215.152877 
L 374.070085 215.767041 
L 374.538157 255.878843 
L 375.006228 243.159406 
L 375.4743 236.927314 
L 375.942372 234.153924 
L 376.410444 285.66583 
L 376.878515 264.390476 
L 377.346587 253.213928 
L 378.28273 210.552589 
L 378.750802 211.19805 
L 379.218874 203.657775 
L 379.686946 223.886217 
L 380.155017 238.500647 
L 380.623089 237.661463 
L 381.091161 240.531055 
L 381.559232 250.543083 
L 382.027304 282.447441 
L 382.495376 263.362333 
L 382.963448 274.095171 
L 383.431519 253.088139 
L 383.899591 224.362858 
L 384.367663 206.039985 
L 384.835735 206.123495 
L 385.303806 218.115287 
L 385.771878 214.088987 
L 386.23995 219.488519 
L 386.708021 233.118084 
L 387.176093 232.089237 
L 387.644165 228.735381 
L 388.112237 250.961386 
L 389.04838 214.515835 
L 389.516452 280.440505 
L 389.984523 274.443289 
L 390.452595 240.355703 
L 390.920667 264.903461 
L 391.388739 244.352259 
L 391.85681 240.624809 
L 392.324882 214.744815 
L 392.792954 239.158172 
L 393.261025 246.863262 
L 393.729097 211.007807 
L 394.197169 208.468362 
L 394.665241 245.941052 
L 395.133312 202.793639 
L 395.601384 194.708095 
L 396.069456 207.834318 
L 396.537528 229.037077 
L 397.005599 226.755304 
L 397.473671 189.080628 
L 397.941743 185.877937 
L 398.409814 186.435956 
L 398.877886 206.182692 
L 399.345958 242.909378 
L 399.81403 263.044486 
L 400.282101 245.86738 
L 401.218245 270.352227 
L 401.686316 246.839409 
L 402.62246 264.900892 
L 403.090532 199.884258 
L 403.558603 198.374048 
L 404.026675 272.449738 
L 404.494747 246.92957 
L 404.962818 279.247277 
L 405.43089 292.534787 
L 405.898962 258.82786 
L 406.367034 279.974461 
L 406.835105 257.3479 
L 407.303177 254.209647 
L 407.771249 221.004615 
L 408.239321 224.40867 
L 408.707392 186.271892 
L 409.175464 192.139149 
L 409.643536 187.475904 
L 410.579679 244.021488 
L 411.047751 231.316835 
L 411.515823 228.661298 
L 411.983894 245.748702 
L 412.451966 253.793535 
L 412.920038 251.30614 
L 413.388109 269.114418 
L 413.856181 278.132185 
L 414.324253 275.651038 
L 414.792325 244.890979 
L 415.260396 242.412127 
L 415.728468 246.938496 
L 416.19654 270.850457 
L 416.664612 244.506481 
L 417.132683 252.093076 
L 417.600755 229.532025 
L 418.068827 244.588239 
L 418.536898 244.829388 
L 419.473042 269.790059 
L 419.941114 270.439454 
L 420.409185 251.376461 
L 420.877257 275.350498 
L 421.345329 260.296196 
L 421.8134 282.699105 
L 422.281472 249.486266 
L 423.217616 267.01519 
L 423.685687 253.373596 
L 424.153759 217.744955 
L 424.621831 199.00377 
L 425.089902 171.70239 
L 425.557974 172.902076 
L 426.026046 170.80262 
L 426.494118 172.138945 
L 426.962189 177.662733 
L 427.430261 205.386859 
L 427.898333 177.531571 
L 428.366405 176.079843 
L 428.834476 194.678639 
L 429.302548 208.315092 
L 429.77062 214.642297 
L 430.238691 211.288683 
L 430.706763 209.674985 
L 431.174835 153.807356 
L 431.642907 170.904753 
L 432.110978 178.782697 
L 432.57905 195.902015 
L 433.047122 197.408127 
L 433.983265 216.753428 
L 434.451337 243.7563 
L 434.919409 246.330096 
L 435.38748 263.789618 
L 435.855552 253.296087 
L 436.323624 185.826552 
L 437.259767 227.360204 
L 437.727839 209.436702 
L 438.195911 178.528137 
L 438.663982 228.423385 
L 439.132054 244.265958 
L 439.600126 231.101056 
L 440.068198 258.633486 
L 440.536269 260.713202 
L 441.004341 269.99951 
L 441.472413 257.723643 
L 441.940484 238.637066 
L 442.408556 210.926016 
L 442.876628 208.330377 
L 443.3447 251.050403 
L 443.812771 226.757817 
L 444.280843 211.421646 
L 444.748915 239.096639 
L 445.216986 254.711699 
L 445.685058 294.657146 
L 446.15313 289.622063 
L 446.621202 291.22609 
L 447.089273 286.456373 
L 447.557345 263.283237 
L 448.025417 248.240548 
L 448.493489 247.911625 
L 448.96156 243.309486 
L 449.429632 229.203842 
L 449.897704 204.110429 
L 450.365775 251.620608 
L 450.833847 254.081648 
L 451.301919 220.478697 
L 451.769991 218.054256 
L 452.238062 208.038252 
L 453.174206 247.292574 
L 453.642277 264.915294 
L 454.110349 248.175258 
L 455.046493 285.470692 
L 455.514564 292.110722 
L 455.982636 293.314582 
L 456.450708 255.094271 
L 456.918779 263.529715 
L 457.386851 253.885915 
L 457.854923 251.785063 
L 458.322995 222.241898 
L 458.791066 263.008687 
L 459.259138 268.306704 
L 460.195282 296.12283 
L 460.663353 292.821161 
L 461.131425 315.171862 
L 461.599497 272.135724 
L 462.067568 287.591219 
L 462.53564 309.626364 
L 463.003712 294.780477 
L 463.471784 285.801668 
L 463.939855 265.705078 
L 464.407927 253.178151 
L 464.875999 249.592527 
L 465.34407 261.820558 
L 465.812142 302.662177 
L 466.280214 286.36432 
L 466.748286 307.13785 
L 467.216357 294.474256 
L 467.684429 278.655589 
L 468.152501 295.46292 
L 468.620573 296.463767 
L 469.088644 275.929725 
L 469.556716 250.333237 
L 470.024788 293.282154 
L 470.492859 284.680238 
L 470.960931 297.659569 
L 471.429003 279.014169 
L 471.897075 300.493497 
L 472.365146 296.707657 
L 472.833218 290.605493 
L 473.30129 279.541952 
L 473.769361 288.371522 
L 474.237433 285.62515 
L 474.705505 292.477874 
L 475.173577 252.517651 
L 475.641648 249.869759 
L 476.10972 254.71463 
L 476.577792 276.86078 
L 477.045863 267.210929 
L 477.513935 279.428148 
L 477.982007 254.721555 
L 478.450079 289.596597 
L 478.91815 244.53629 
L 479.386222 283.829137 
L 479.854294 312.285348 
L 480.322366 313.9396 
L 480.790437 299.436437 
L 481.258509 306.701834 
L 481.726581 304.525427 
L 482.194652 309.606812 
L 482.662724 318.632741 
L 483.130796 294.23155 
L 483.598868 306.886618 
L 484.066939 305.797544 
L 485.003083 282.527696 
L 485.471154 288.810224 
L 486.87537 312.776844 
L 487.343441 314.383294 
L 487.811513 305.941021 
L 488.279585 313.096481 
L 488.747656 317.141377 
L 489.6838 295.067262 
L 490.151872 316.836116 
L 490.619943 304.485279 
L 491.088015 277.39103 
L 491.556087 296.049758 
L 492.024159 301.229047 
L 492.49223 290.295604 
L 492.960302 310.764236 
L 493.428374 305.998628 
L 493.896445 322.01064 
L 494.364517 295.375933 
L 494.832589 301.482493 
L 495.300661 293.568627 
L 495.768732 267.880995 
L 496.236804 265.57778 
L 496.704876 261.506275 
L 497.172947 222.559166 
L 497.172947 222.559166 
" clip-path="url(#peb42554922)" style="fill: none; stroke: #ff7f0e; stroke-width: 1.5; stroke-linecap: round"/>
   </g>
   <g id="patch_3">
    <path d="M 72 384.48 
L 72 51.84 
" style="fill: none; stroke: #ffffff; stroke-width: 0.8; stroke-linejoin: miter; stroke-linecap: square"/>
   </g>
   <g id="patch_4">
    <path d="M 518.4 384.48 
L 518.4 51.84 
" style="fill: none; stroke: #ffffff; stroke-width: 0.8; stroke-linejoin: miter; stroke-linecap: square"/>
   </g>
   <g id="patch_5">
    <path d="M 72 384.48 
L 518.4 384.48 
" style="fill: none; stroke: #ffffff; stroke-width: 0.8; stroke-linejoin: miter; stroke-linecap: square"/>
   </g>
   <g id="patch_6">
    <path d="M 72 51.84 
L 518.4 51.84 
" style="fill: none; stroke: #ffffff; stroke-width: 0.8; stroke-linejoin: miter; stroke-linecap: square"/>
   </g>
   <g id="text_16">
    <!-- Average Wind Speed Prediction 15 Days Ahead -->
    <g style="fill: #262626" transform="translate(167.89875 45.84) scale(0.12 -0.12)">
     <defs>
      <path id="ArialMT-41" d="M -9 0 
L 1750 4581 
L 2403 4581 
L 4278 0 
L 3588 0 
L 3053 1388 
L 1138 1388 
L 634 0 
L -9 0 
z
M 1313 1881 
L 2866 1881 
L 2388 3150 
Q 2169 3728 2063 4100 
Q 1975 3659 1816 3225 
L 1313 1881 
z
" transform="scale(0.015625)"/>
      <path id="ArialMT-76" d="M 1344 0 
L 81 3319 
L 675 3319 
L 1388 1331 
Q 1503 1009 1600 663 
Q 1675 925 1809 1294 
L 2547 3319 
L 3125 3319 
L 1869 0 
L 1344 0 
z
" transform="scale(0.015625)"/>
      <path id="ArialMT-65" d="M 2694 1069 
L 3275 997 
Q 3138 488 2766 206 
Q 2394 -75 1816 -75 
Q 1088 -75 661 373 
Q 234 822 234 1631 
Q 234 2469 665 2931 
Q 1097 3394 1784 3394 
Q 2450 3394 2872 2941 
Q 3294 2488 3294 1666 
Q 3294 1616 3291 1516 
L 816 1516 
Q 847 969 1125 678 
Q 1403 388 1819 388 
Q 2128 388 2347 550 
Q 2566 713 2694 1069 
z
M 847 1978 
L 2700 1978 
Q 2663 2397 2488 2606 
Q 2219 2931 1791 2931 
Q 1403 2931 1139 2672 
Q 875 2413 847 1978 
z
" transform="scale(0.015625)"/>
      <path id="ArialMT-72" d="M 416 0 
L 416 3319 
L 922 3319 
L 922 2816 
Q 1116 3169 1280 3281 
Q 1444 3394 1641 3394 
Q 1925 3394 2219 3213 
L 2025 2691 
Q 1819 2813 1613 2813 
Q 1428 2813 1281 2702 
Q 1134 2591 1072 2394 
Q 978 2094 978 1738 
L 978 0 
L 416 0 
z
" transform="scale(0.015625)"/>
      <path id="ArialMT-67" d="M 319 -275 
L 866 -356 
Q 900 -609 1056 -725 
Q 1266 -881 1628 -881 
Q 2019 -881 2231 -725 
Q 2444 -569 2519 -288 
Q 2563 -116 2559 434 
Q 2191 0 1641 0 
Q 956 0 581 494 
Q 206 988 206 1678 
Q 206 2153 378 2554 
Q 550 2956 876 3175 
Q 1203 3394 1644 3394 
Q 2231 3394 2613 2919 
L 2613 3319 
L 3131 3319 
L 3131 450 
Q 3131 -325 2973 -648 
Q 2816 -972 2473 -1159 
Q 2131 -1347 1631 -1347 
Q 1038 -1347 672 -1080 
Q 306 -813 319 -275 
z
M 784 1719 
Q 784 1066 1043 766 
Q 1303 466 1694 466 
Q 2081 466 2343 764 
Q 2606 1063 2606 1700 
Q 2606 2309 2336 2618 
Q 2066 2928 1684 2928 
Q 1309 2928 1046 2623 
Q 784 2319 784 1719 
z
" transform="scale(0.015625)"/>
      <path id="ArialMT-20" transform="scale(0.015625)"/>
      <path id="ArialMT-57" d="M 1294 0 
L 78 4581 
L 700 4581 
L 1397 1578 
Q 1509 1106 1591 641 
Q 1766 1375 1797 1488 
L 2669 4581 
L 3400 4581 
L 4056 2263 
Q 4303 1400 4413 641 
Q 4500 1075 4641 1638 
L 5359 4581 
L 5969 4581 
L 4713 0 
L 4128 0 
L 3163 3491 
Q 3041 3928 3019 4028 
Q 2947 3713 2884 3491 
L 1913 0 
L 1294 0 
z
" transform="scale(0.015625)"/>
      <path id="ArialMT-69" d="M 425 3934 
L 425 4581 
L 988 4581 
L 988 3934 
L 425 3934 
z
M 425 0 
L 425 3319 
L 988 3319 
L 988 0 
L 425 0 
z
" transform="scale(0.015625)"/>
      <path id="ArialMT-6e" d="M 422 0 
L 422 3319 
L 928 3319 
L 928 2847 
Q 1294 3394 1984 3394 
Q 2284 3394 2536 3286 
Q 2788 3178 2913 3003 
Q 3038 2828 3088 2588 
Q 3119 2431 3119 2041 
L 3119 0 
L 2556 0 
L 2556 2019 
Q 2556 2363 2490 2533 
Q 2425 2703 2258 2804 
Q 2091 2906 1866 2906 
Q 1506 2906 1245 2678 
Q 984 2450 984 1813 
L 984 0 
L 422 0 
z
" transform="scale(0.015625)"/>
      <path id="ArialMT-64" d="M 2575 0 
L 2575 419 
Q 2259 -75 1647 -75 
Q 1250 -75 917 144 
Q 584 363 401 755 
Q 219 1147 219 1656 
Q 219 2153 384 2558 
Q 550 2963 881 3178 
Q 1213 3394 1622 3394 
Q 1922 3394 2156 3267 
Q 2391 3141 2538 2938 
L 2538 4581 
L 3097 4581 
L 3097 0 
L 2575 0 
z
M 797 1656 
Q 797 1019 1065 703 
Q 1334 388 1700 388 
Q 2069 388 2326 689 
Q 2584 991 2584 1609 
Q 2584 2291 2321 2609 
Q 2059 2928 1675 2928 
Q 1300 2928 1048 2622 
Q 797 2316 797 1656 
z
" transform="scale(0.015625)"/>
      <path id="ArialMT-53" d="M 288 1472 
L 859 1522 
Q 900 1178 1048 958 
Q 1197 738 1509 602 
Q 1822 466 2213 466 
Q 2559 466 2825 569 
Q 3091 672 3220 851 
Q 3350 1031 3350 1244 
Q 3350 1459 3225 1620 
Q 3100 1781 2813 1891 
Q 2628 1963 1997 2114 
Q 1366 2266 1113 2400 
Q 784 2572 623 2826 
Q 463 3081 463 3397 
Q 463 3744 659 4045 
Q 856 4347 1234 4503 
Q 1613 4659 2075 4659 
Q 2584 4659 2973 4495 
Q 3363 4331 3572 4012 
Q 3781 3694 3797 3291 
L 3216 3247 
Q 3169 3681 2898 3903 
Q 2628 4125 2100 4125 
Q 1550 4125 1298 3923 
Q 1047 3722 1047 3438 
Q 1047 3191 1225 3031 
Q 1400 2872 2139 2705 
Q 2878 2538 3153 2413 
Q 3553 2228 3743 1945 
Q 3934 1663 3934 1294 
Q 3934 928 3725 604 
Q 3516 281 3123 101 
Q 2731 -78 2241 -78 
Q 1619 -78 1198 103 
Q 778 284 539 648 
Q 300 1013 288 1472 
z
" transform="scale(0.015625)"/>
      <path id="ArialMT-70" d="M 422 -1272 
L 422 3319 
L 934 3319 
L 934 2888 
Q 1116 3141 1344 3267 
Q 1572 3394 1897 3394 
Q 2322 3394 2647 3175 
Q 2972 2956 3137 2557 
Q 3303 2159 3303 1684 
Q 3303 1175 3120 767 
Q 2938 359 2589 142 
Q 2241 -75 1856 -75 
Q 1575 -75 1351 44 
Q 1128 163 984 344 
L 984 -1272 
L 422 -1272 
z
M 931 1641 
Q 931 1000 1190 694 
Q 1450 388 1819 388 
Q 2194 388 2461 705 
Q 2728 1022 2728 1688 
Q 2728 2322 2467 2637 
Q 2206 2953 1844 2953 
Q 1484 2953 1207 2617 
Q 931 2281 931 1641 
z
" transform="scale(0.015625)"/>
      <path id="ArialMT-50" d="M 494 0 
L 494 4581 
L 2222 4581 
Q 2678 4581 2919 4538 
Q 3256 4481 3484 4323 
Q 3713 4166 3852 3881 
Q 3991 3597 3991 3256 
Q 3991 2672 3619 2267 
Q 3247 1863 2275 1863 
L 1100 1863 
L 1100 0 
L 494 0 
z
M 1100 2403 
L 2284 2403 
Q 2872 2403 3119 2622 
Q 3366 2841 3366 3238 
Q 3366 3525 3220 3729 
Q 3075 3934 2838 4000 
Q 2684 4041 2272 4041 
L 1100 4041 
L 1100 2403 
z
" transform="scale(0.015625)"/>
      <path id="ArialMT-63" d="M 2588 1216 
L 3141 1144 
Q 3050 572 2676 248 
Q 2303 -75 1759 -75 
Q 1078 -75 664 370 
Q 250 816 250 1647 
Q 250 2184 428 2587 
Q 606 2991 970 3192 
Q 1334 3394 1763 3394 
Q 2303 3394 2647 3120 
Q 2991 2847 3088 2344 
L 2541 2259 
Q 2463 2594 2264 2762 
Q 2066 2931 1784 2931 
Q 1359 2931 1093 2626 
Q 828 2322 828 1663 
Q 828 994 1084 691 
Q 1341 388 1753 388 
Q 2084 388 2306 591 
Q 2528 794 2588 1216 
z
" transform="scale(0.015625)"/>
      <path id="ArialMT-74" d="M 1650 503 
L 1731 6 
Q 1494 -44 1306 -44 
Q 1000 -44 831 53 
Q 663 150 594 308 
Q 525 466 525 972 
L 525 2881 
L 113 2881 
L 113 3319 
L 525 3319 
L 525 4141 
L 1084 4478 
L 1084 3319 
L 1650 3319 
L 1650 2881 
L 1084 2881 
L 1084 941 
Q 1084 700 1114 631 
Q 1144 563 1211 522 
Q 1278 481 1403 481 
Q 1497 481 1650 503 
z
" transform="scale(0.015625)"/>
      <path id="ArialMT-6f" d="M 213 1659 
Q 213 2581 725 3025 
Q 1153 3394 1769 3394 
Q 2453 3394 2887 2945 
Q 3322 2497 3322 1706 
Q 3322 1066 3130 698 
Q 2938 331 2570 128 
Q 2203 -75 1769 -75 
Q 1072 -75 642 372 
Q 213 819 213 1659 
z
M 791 1659 
Q 791 1022 1069 705 
Q 1347 388 1769 388 
Q 2188 388 2466 706 
Q 2744 1025 2744 1678 
Q 2744 2294 2464 2611 
Q 2184 2928 1769 2928 
Q 1347 2928 1069 2612 
Q 791 2297 791 1659 
z
" transform="scale(0.015625)"/>
      <path id="ArialMT-68" d="M 422 0 
L 422 4581 
L 984 4581 
L 984 2938 
Q 1378 3394 1978 3394 
Q 2347 3394 2619 3248 
Q 2891 3103 3008 2847 
Q 3125 2591 3125 2103 
L 3125 0 
L 2563 0 
L 2563 2103 
Q 2563 2525 2380 2717 
Q 2197 2909 1863 2909 
Q 1613 2909 1392 2779 
Q 1172 2650 1078 2428 
Q 984 2206 984 1816 
L 984 0 
L 422 0 
z
" transform="scale(0.015625)"/>
     </defs>
     <use xlink:href="#ArialMT-41"/>
     <use xlink:href="#ArialMT-76" x="64.949219"/>
     <use xlink:href="#ArialMT-65" x="114.949219"/>
     <use xlink:href="#ArialMT-72" x="170.564453"/>
     <use xlink:href="#ArialMT-61" x="203.865234"/>
     <use xlink:href="#ArialMT-67" x="259.480469"/>
     <use xlink:href="#ArialMT-65" x="315.095703"/>
     <use xlink:href="#ArialMT-20" x="370.710938"/>
     <use xlink:href="#ArialMT-57" x="398.494141"/>
     <use xlink:href="#ArialMT-69" x="492.878906"/>
     <use xlink:href="#ArialMT-6e" x="515.095703"/>
     <use xlink:href="#ArialMT-64" x="570.710938"/>
     <use xlink:href="#ArialMT-20" x="626.326172"/>
     <use xlink:href="#ArialMT-53" x="654.109375"/>
     <use xlink:href="#ArialMT-70" x="720.808594"/>
     <use xlink:href="#ArialMT-65" x="776.423828"/>
     <use xlink:href="#ArialMT-65" x="832.039062"/>
     <use xlink:href="#ArialMT-64" x="887.654297"/>
     <use xlink:href="#ArialMT-20" x="943.269531"/>
     <use xlink:href="#ArialMT-50" x="971.052734"/>
     <use xlink:href="#ArialMT-72" x="1037.751953"/>
     <use xlink:href="#ArialMT-65" x="1071.052734"/>
     <use xlink:href="#ArialMT-64" x="1126.667969"/>
     <use xlink:href="#ArialMT-69" x="1182.283203"/>
     <use xlink:href="#ArialMT-63" x="1204.5"/>
     <use xlink:href="#ArialMT-74" x="1254.5"/>
     <use xlink:href="#ArialMT-69" x="1282.283203"/>
     <use xlink:href="#ArialMT-6f" x="1304.5"/>
     <use xlink:href="#ArialMT-6e" x="1360.115234"/>
     <use xlink:href="#ArialMT-20" x="1415.730469"/>
     <use xlink:href="#ArialMT-31" x="1443.513672"/>
     <use xlink:href="#ArialMT-35" x="1499.128906"/>
     <use xlink:href="#ArialMT-20" x="1554.744141"/>
     <use xlink:href="#ArialMT-44" x="1582.527344"/>
     <use xlink:href="#ArialMT-61" x="1654.744141"/>
     <use xlink:href="#ArialMT-79" x="1710.359375"/>
     <use xlink:href="#ArialMT-73" x="1760.359375"/>
     <use xlink:href="#ArialMT-20" x="1810.359375"/>
     <use xlink:href="#ArialMT-41" x="1832.642578"/>
     <use xlink:href="#ArialMT-68" x="1899.341797"/>
     <use xlink:href="#ArialMT-65" x="1954.957031"/>
     <use xlink:href="#ArialMT-61" x="2010.572266"/>
     <use xlink:href="#ArialMT-64" x="2066.1875"/>
    </g>
   </g>
   <g id="legend_1">
    <g id="patch_7">
     <path d="M 437.15625 88.130625 
L 511.4 88.130625 
Q 513.4 88.130625 513.4 86.130625 
L 513.4 58.84 
Q 513.4 56.84 511.4 56.84 
L 437.15625 56.84 
Q 435.15625 56.84 435.15625 58.84 
L 435.15625 86.130625 
Q 435.15625 88.130625 437.15625 88.130625 
z
" style="fill: #eaeaf2; opacity: 0.8; stroke: #cccccc; stroke-linejoin: miter"/>
    </g>
    <g id="line2d_16">
     <path d="M 439.15625 64.497812 
L 449.15625 64.497812 
L 459.15625 64.497812 
" style="fill: none; stroke: #1f77b4; stroke-width: 1.5; stroke-linecap: round"/>
    </g>
    <g id="text_17">
     <!-- Real -->
     <g style="fill: #262626" transform="translate(467.15625 67.997812) scale(0.1 -0.1)">
      <defs>
       <path id="ArialMT-52" d="M 503 0 
L 503 4581 
L 2534 4581 
Q 3147 4581 3465 4457 
Q 3784 4334 3975 4021 
Q 4166 3709 4166 3331 
Q 4166 2844 3850 2509 
Q 3534 2175 2875 2084 
Q 3116 1969 3241 1856 
Q 3506 1613 3744 1247 
L 4541 0 
L 3778 0 
L 3172 953 
Q 2906 1366 2734 1584 
Q 2563 1803 2427 1890 
Q 2291 1978 2150 2013 
Q 2047 2034 1813 2034 
L 1109 2034 
L 1109 0 
L 503 0 
z
M 1109 2559 
L 2413 2559 
Q 2828 2559 3062 2645 
Q 3297 2731 3419 2920 
Q 3541 3109 3541 3331 
Q 3541 3656 3305 3865 
Q 3069 4075 2559 4075 
L 1109 4075 
L 1109 2559 
z
" transform="scale(0.015625)"/>
       <path id="ArialMT-6c" d="M 409 0 
L 409 4581 
L 972 4581 
L 972 0 
L 409 0 
z
" transform="scale(0.015625)"/>
      </defs>
      <use xlink:href="#ArialMT-52"/>
      <use xlink:href="#ArialMT-65" x="72.216797"/>
      <use xlink:href="#ArialMT-61" x="127.832031"/>
      <use xlink:href="#ArialMT-6c" x="183.447266"/>
     </g>
    </g>
    <g id="line2d_17">
     <path d="M 439.15625 78.643125 
L 449.15625 78.643125 
L 459.15625 78.643125 
" style="fill: none; stroke: #ff7f0e; stroke-width: 1.5; stroke-linecap: round"/>
    </g>
    <g id="text_18">
     <!-- Predicted -->
     <g style="fill: #262626" transform="translate(467.15625 82.143125) scale(0.1 -0.1)">
      <use xlink:href="#ArialMT-50"/>
      <use xlink:href="#ArialMT-72" x="66.699219"/>
      <use xlink:href="#ArialMT-65" x="100"/>
      <use xlink:href="#ArialMT-64" x="155.615234"/>
      <use xlink:href="#ArialMT-69" x="211.230469"/>
      <use xlink:href="#ArialMT-63" x="233.447266"/>
      <use xlink:href="#ArialMT-74" x="283.447266"/>
      <use xlink:href="#ArialMT-65" x="311.230469"/>
      <use xlink:href="#ArialMT-64" x="366.845703"/>
     </g>
    </g>
   </g>
  </g>
 </g>
 <defs>
  <clipPath id="peb42554922">
   <rect x="72" y="51.84" width="446.4" height="332.64"/>
  </clipPath>
 </defs>
</svg>
