<?xml version="1.0" encoding="utf-8" standalone="no"?>
<!DOCTYPE svg PUBLIC "-//W3C//DTD SVG 1.1//EN"
  "http://www.w3.org/Graphics/SVG/1.1/DTD/svg11.dtd">
<svg xmlns:xlink="http://www.w3.org/1999/xlink" width="576pt" height="432pt" viewBox="0 0 576 432" xmlns="http://www.w3.org/2000/svg" version="1.1">
 <metadata>
  <rdf:RDF xmlns:dc="http://purl.org/dc/elements/1.1/" xmlns:cc="http://creativecommons.org/ns#" xmlns:rdf="http://www.w3.org/1999/02/22-rdf-syntax-ns#">
   <cc:Work>
    <dc:type rdf:resource="http://purl.org/dc/dcmitype/StillImage"/>
    <dc:date>2023-11-17T05:15:25.220425</dc:date>
    <dc:format>image/svg+xml</dc:format>
    <dc:creator>
     <cc:Agent>
      <dc:title>Matplotlib v3.8.0, https://matplotlib.org/</dc:title>
     </cc:Agent>
    </dc:creator>
   </cc:Work>
  </rdf:RDF>
 </metadata>
 <defs>
  <style type="text/css">*{stroke-linejoin: round; stroke-linecap: butt}</style>
 </defs>
 <g id="figure_1">
  <g id="patch_1">
   <path d="M 0 432 
L 576 432 
L 576 0 
L 0 0 
z
" style="fill: #ffffff"/>
  </g>
  <g id="axes_1">
   <g id="patch_2">
    <path d="M 72 384.48 
L 518.4 384.48 
L 518.4 51.84 
L 72 51.84 
z
" style="fill: #eaeaf2"/>
   </g>
   <g id="matplotlib.axis_1">
    <g id="xtick_1">
     <g id="line2d_1">
      <path d="M 92.290909 384.48 
L 92.290909 51.84 
" clip-path="url(#p4cb0518d1d)" style="fill: none; stroke: #ffffff; stroke-width: 0.8; stroke-linecap: round"/>
     </g>
     <g id="text_1">
      <!-- 0 -->
      <g style="fill: #262626" transform="translate(89.51044 398.637812) scale(0.1 -0.1)">
       <defs>
        <path id="ArialMT-30" d="M 266 2259 
Q 266 3072 433 3567 
Q 600 4063 929 4331 
Q 1259 4600 1759 4600 
Q 2128 4600 2406 4451 
Q 2684 4303 2865 4023 
Q 3047 3744 3150 3342 
Q 3253 2941 3253 2259 
Q 3253 1453 3087 958 
Q 2922 463 2592 192 
Q 2263 -78 1759 -78 
Q 1097 -78 719 397 
Q 266 969 266 2259 
z
M 844 2259 
Q 844 1131 1108 757 
Q 1372 384 1759 384 
Q 2147 384 2411 759 
Q 2675 1134 2675 2259 
Q 2675 3391 2411 3762 
Q 2147 4134 1753 4134 
Q 1366 4134 1134 3806 
Q 844 3388 844 2259 
z
" transform="scale(0.015625)"/>
       </defs>
       <use xlink:href="#ArialMT-30"/>
      </g>
     </g>
    </g>
    <g id="xtick_2">
     <g id="line2d_2">
      <path d="M 185.905253 384.48 
L 185.905253 51.84 
" clip-path="url(#p4cb0518d1d)" style="fill: none; stroke: #ffffff; stroke-width: 0.8; stroke-linecap: round"/>
     </g>
     <g id="text_2">
      <!-- 200 -->
      <g style="fill: #262626" transform="translate(177.563847 398.637812) scale(0.1 -0.1)">
       <defs>
        <path id="ArialMT-32" d="M 3222 541 
L 3222 0 
L 194 0 
Q 188 203 259 391 
Q 375 700 629 1000 
Q 884 1300 1366 1694 
Q 2113 2306 2375 2664 
Q 2638 3022 2638 3341 
Q 2638 3675 2398 3904 
Q 2159 4134 1775 4134 
Q 1369 4134 1125 3890 
Q 881 3647 878 3216 
L 300 3275 
Q 359 3922 746 4261 
Q 1134 4600 1788 4600 
Q 2447 4600 2831 4234 
Q 3216 3869 3216 3328 
Q 3216 3053 3103 2787 
Q 2991 2522 2730 2228 
Q 2469 1934 1863 1422 
Q 1356 997 1212 845 
Q 1069 694 975 541 
L 3222 541 
z
" transform="scale(0.015625)"/>
       </defs>
       <use xlink:href="#ArialMT-32"/>
       <use xlink:href="#ArialMT-30" x="55.615234"/>
       <use xlink:href="#ArialMT-30" x="111.230469"/>
      </g>
     </g>
    </g>
    <g id="xtick_3">
     <g id="line2d_3">
      <path d="M 279.519597 384.48 
L 279.519597 51.84 
" clip-path="url(#p4cb0518d1d)" style="fill: none; stroke: #ffffff; stroke-width: 0.8; stroke-linecap: round"/>
     </g>
     <g id="text_3">
      <!-- 400 -->
      <g style="fill: #262626" transform="translate(271.178191 398.637812) scale(0.1 -0.1)">
       <defs>
        <path id="ArialMT-34" d="M 2069 0 
L 2069 1097 
L 81 1097 
L 81 1613 
L 2172 4581 
L 2631 4581 
L 2631 1613 
L 3250 1613 
L 3250 1097 
L 2631 1097 
L 2631 0 
L 2069 0 
z
M 2069 1613 
L 2069 3678 
L 634 1613 
L 2069 1613 
z
" transform="scale(0.015625)"/>
       </defs>
       <use xlink:href="#ArialMT-34"/>
       <use xlink:href="#ArialMT-30" x="55.615234"/>
       <use xlink:href="#ArialMT-30" x="111.230469"/>
      </g>
     </g>
    </g>
    <g id="xtick_4">
     <g id="line2d_4">
      <path d="M 373.133941 384.48 
L 373.133941 51.84 
" clip-path="url(#p4cb0518d1d)" style="fill: none; stroke: #ffffff; stroke-width: 0.8; stroke-linecap: round"/>
     </g>
     <g id="text_4">
      <!-- 600 -->
      <g style="fill: #262626" transform="translate(364.792535 398.637812) scale(0.1 -0.1)">
       <defs>
        <path id="ArialMT-36" d="M 3184 3459 
L 2625 3416 
Q 2550 3747 2413 3897 
Q 2184 4138 1850 4138 
Q 1581 4138 1378 3988 
Q 1113 3794 959 3422 
Q 806 3050 800 2363 
Q 1003 2672 1297 2822 
Q 1591 2972 1913 2972 
Q 2475 2972 2870 2558 
Q 3266 2144 3266 1488 
Q 3266 1056 3080 686 
Q 2894 316 2569 119 
Q 2244 -78 1831 -78 
Q 1128 -78 684 439 
Q 241 956 241 2144 
Q 241 3472 731 4075 
Q 1159 4600 1884 4600 
Q 2425 4600 2770 4297 
Q 3116 3994 3184 3459 
z
M 888 1484 
Q 888 1194 1011 928 
Q 1134 663 1356 523 
Q 1578 384 1822 384 
Q 2178 384 2434 671 
Q 2691 959 2691 1453 
Q 2691 1928 2437 2201 
Q 2184 2475 1800 2475 
Q 1419 2475 1153 2201 
Q 888 1928 888 1484 
z
" transform="scale(0.015625)"/>
       </defs>
       <use xlink:href="#ArialMT-36"/>
       <use xlink:href="#ArialMT-30" x="55.615234"/>
       <use xlink:href="#ArialMT-30" x="111.230469"/>
      </g>
     </g>
    </g>
    <g id="xtick_5">
     <g id="line2d_5">
      <path d="M 466.748286 384.48 
L 466.748286 51.84 
" clip-path="url(#p4cb0518d1d)" style="fill: none; stroke: #ffffff; stroke-width: 0.8; stroke-linecap: round"/>
     </g>
     <g id="text_5">
      <!-- 800 -->
      <g style="fill: #262626" transform="translate(458.406879 398.637812) scale(0.1 -0.1)">
       <defs>
        <path id="ArialMT-38" d="M 1131 2484 
Q 781 2613 612 2850 
Q 444 3088 444 3419 
Q 444 3919 803 4259 
Q 1163 4600 1759 4600 
Q 2359 4600 2725 4251 
Q 3091 3903 3091 3403 
Q 3091 3084 2923 2848 
Q 2756 2613 2416 2484 
Q 2838 2347 3058 2040 
Q 3278 1734 3278 1309 
Q 3278 722 2862 322 
Q 2447 -78 1769 -78 
Q 1091 -78 675 323 
Q 259 725 259 1325 
Q 259 1772 486 2073 
Q 713 2375 1131 2484 
z
M 1019 3438 
Q 1019 3113 1228 2906 
Q 1438 2700 1772 2700 
Q 2097 2700 2305 2904 
Q 2513 3109 2513 3406 
Q 2513 3716 2298 3927 
Q 2084 4138 1766 4138 
Q 1444 4138 1231 3931 
Q 1019 3725 1019 3438 
z
M 838 1322 
Q 838 1081 952 856 
Q 1066 631 1291 507 
Q 1516 384 1775 384 
Q 2178 384 2440 643 
Q 2703 903 2703 1303 
Q 2703 1709 2433 1975 
Q 2163 2241 1756 2241 
Q 1359 2241 1098 1978 
Q 838 1716 838 1322 
z
" transform="scale(0.015625)"/>
       </defs>
       <use xlink:href="#ArialMT-38"/>
       <use xlink:href="#ArialMT-30" x="55.615234"/>
       <use xlink:href="#ArialMT-30" x="111.230469"/>
      </g>
     </g>
    </g>
    <g id="text_6">
     <!-- Days -->
     <g style="fill: #262626" transform="translate(283.808594 411.783125) scale(0.1 -0.1)">
      <defs>
       <path id="ArialMT-44" d="M 494 0 
L 494 4581 
L 2072 4581 
Q 2606 4581 2888 4516 
Q 3281 4425 3559 4188 
Q 3922 3881 4101 3404 
Q 4281 2928 4281 2316 
Q 4281 1794 4159 1391 
Q 4038 988 3847 723 
Q 3656 459 3429 307 
Q 3203 156 2883 78 
Q 2563 0 2147 0 
L 494 0 
z
M 1100 541 
L 2078 541 
Q 2531 541 2789 625 
Q 3047 709 3200 863 
Q 3416 1078 3536 1442 
Q 3656 1806 3656 2325 
Q 3656 3044 3420 3430 
Q 3184 3816 2847 3947 
Q 2603 4041 2063 4041 
L 1100 4041 
L 1100 541 
z
" transform="scale(0.015625)"/>
       <path id="ArialMT-61" d="M 2588 409 
Q 2275 144 1986 34 
Q 1697 -75 1366 -75 
Q 819 -75 525 192 
Q 231 459 231 875 
Q 231 1119 342 1320 
Q 453 1522 633 1644 
Q 813 1766 1038 1828 
Q 1203 1872 1538 1913 
Q 2219 1994 2541 2106 
Q 2544 2222 2544 2253 
Q 2544 2597 2384 2738 
Q 2169 2928 1744 2928 
Q 1347 2928 1158 2789 
Q 969 2650 878 2297 
L 328 2372 
Q 403 2725 575 2942 
Q 747 3159 1072 3276 
Q 1397 3394 1825 3394 
Q 2250 3394 2515 3294 
Q 2781 3194 2906 3042 
Q 3031 2891 3081 2659 
Q 3109 2516 3109 2141 
L 3109 1391 
Q 3109 606 3145 398 
Q 3181 191 3288 0 
L 2700 0 
Q 2613 175 2588 409 
z
M 2541 1666 
Q 2234 1541 1622 1453 
Q 1275 1403 1131 1340 
Q 988 1278 909 1158 
Q 831 1038 831 891 
Q 831 666 1001 516 
Q 1172 366 1500 366 
Q 1825 366 2078 508 
Q 2331 650 2450 897 
Q 2541 1088 2541 1459 
L 2541 1666 
z
" transform="scale(0.015625)"/>
       <path id="ArialMT-79" d="M 397 -1278 
L 334 -750 
Q 519 -800 656 -800 
Q 844 -800 956 -737 
Q 1069 -675 1141 -563 
Q 1194 -478 1313 -144 
Q 1328 -97 1363 -6 
L 103 3319 
L 709 3319 
L 1400 1397 
Q 1534 1031 1641 628 
Q 1738 1016 1872 1384 
L 2581 3319 
L 3144 3319 
L 1881 -56 
Q 1678 -603 1566 -809 
Q 1416 -1088 1222 -1217 
Q 1028 -1347 759 -1347 
Q 597 -1347 397 -1278 
z
" transform="scale(0.015625)"/>
       <path id="ArialMT-73" d="M 197 991 
L 753 1078 
Q 800 744 1014 566 
Q 1228 388 1613 388 
Q 2000 388 2187 545 
Q 2375 703 2375 916 
Q 2375 1106 2209 1216 
Q 2094 1291 1634 1406 
Q 1016 1563 777 1677 
Q 538 1791 414 1992 
Q 291 2194 291 2438 
Q 291 2659 392 2848 
Q 494 3038 669 3163 
Q 800 3259 1026 3326 
Q 1253 3394 1513 3394 
Q 1903 3394 2198 3281 
Q 2494 3169 2634 2976 
Q 2775 2784 2828 2463 
L 2278 2388 
Q 2241 2644 2061 2787 
Q 1881 2931 1553 2931 
Q 1166 2931 1000 2803 
Q 834 2675 834 2503 
Q 834 2394 903 2306 
Q 972 2216 1119 2156 
Q 1203 2125 1616 2013 
Q 2213 1853 2448 1751 
Q 2684 1650 2818 1456 
Q 2953 1263 2953 975 
Q 2953 694 2789 445 
Q 2625 197 2315 61 
Q 2006 -75 1616 -75 
Q 969 -75 630 194 
Q 291 463 197 991 
z
" transform="scale(0.015625)"/>
      </defs>
      <use xlink:href="#ArialMT-44"/>
      <use xlink:href="#ArialMT-61" x="72.216797"/>
      <use xlink:href="#ArialMT-79" x="127.832031"/>
      <use xlink:href="#ArialMT-73" x="177.832031"/>
     </g>
    </g>
   </g>
   <g id="matplotlib.axis_2">
    <g id="ytick_1">
     <g id="line2d_6">
      <path d="M 72 347.878033 
L 518.4 347.878033 
" clip-path="url(#p4cb0518d1d)" style="fill: none; stroke: #ffffff; stroke-width: 0.8; stroke-linecap: round"/>
     </g>
     <g id="text_7">
      <!-- 10 -->
      <g style="fill: #262626" transform="translate(53.878125 351.456939) scale(0.1 -0.1)">
       <defs>
        <path id="ArialMT-31" d="M 2384 0 
L 1822 0 
L 1822 3584 
Q 1619 3391 1289 3197 
Q 959 3003 697 2906 
L 697 3450 
Q 1169 3672 1522 3987 
Q 1875 4303 2022 4600 
L 2384 4600 
L 2384 0 
z
" transform="scale(0.015625)"/>
       </defs>
       <use xlink:href="#ArialMT-31"/>
       <use xlink:href="#ArialMT-30" x="55.615234"/>
      </g>
     </g>
    </g>
    <g id="ytick_2">
     <g id="line2d_7">
      <path d="M 72 306.566557 
L 518.4 306.566557 
" clip-path="url(#p4cb0518d1d)" style="fill: none; stroke: #ffffff; stroke-width: 0.8; stroke-linecap: round"/>
     </g>
     <g id="text_8">
      <!-- 15 -->
      <g style="fill: #262626" transform="translate(53.878125 310.145464) scale(0.1 -0.1)">
       <defs>
        <path id="ArialMT-35" d="M 266 1200 
L 856 1250 
Q 922 819 1161 601 
Q 1400 384 1738 384 
Q 2144 384 2425 690 
Q 2706 997 2706 1503 
Q 2706 1984 2436 2262 
Q 2166 2541 1728 2541 
Q 1456 2541 1237 2417 
Q 1019 2294 894 2097 
L 366 2166 
L 809 4519 
L 3088 4519 
L 3088 3981 
L 1259 3981 
L 1013 2750 
Q 1425 3038 1878 3038 
Q 2478 3038 2890 2622 
Q 3303 2206 3303 1553 
Q 3303 931 2941 478 
Q 2500 -78 1738 -78 
Q 1113 -78 717 272 
Q 322 622 266 1200 
z
" transform="scale(0.015625)"/>
       </defs>
       <use xlink:href="#ArialMT-31"/>
       <use xlink:href="#ArialMT-35" x="55.615234"/>
      </g>
     </g>
    </g>
    <g id="ytick_3">
     <g id="line2d_8">
      <path d="M 72 265.255082 
L 518.4 265.255082 
" clip-path="url(#p4cb0518d1d)" style="fill: none; stroke: #ffffff; stroke-width: 0.8; stroke-linecap: round"/>
     </g>
     <g id="text_9">
      <!-- 20 -->
      <g style="fill: #262626" transform="translate(53.878125 268.833988) scale(0.1 -0.1)">
       <use xlink:href="#ArialMT-32"/>
       <use xlink:href="#ArialMT-30" x="55.615234"/>
      </g>
     </g>
    </g>
    <g id="ytick_4">
     <g id="line2d_9">
      <path d="M 72 223.943607 
L 518.4 223.943607 
" clip-path="url(#p4cb0518d1d)" style="fill: none; stroke: #ffffff; stroke-width: 0.8; stroke-linecap: round"/>
     </g>
     <g id="text_10">
      <!-- 25 -->
      <g style="fill: #262626" transform="translate(53.878125 227.522513) scale(0.1 -0.1)">
       <use xlink:href="#ArialMT-32"/>
       <use xlink:href="#ArialMT-35" x="55.615234"/>
      </g>
     </g>
    </g>
    <g id="ytick_5">
     <g id="line2d_10">
      <path d="M 72 182.632131 
L 518.4 182.632131 
" clip-path="url(#p4cb0518d1d)" style="fill: none; stroke: #ffffff; stroke-width: 0.8; stroke-linecap: round"/>
     </g>
     <g id="text_11">
      <!-- 30 -->
      <g style="fill: #262626" transform="translate(53.878125 186.211037) scale(0.1 -0.1)">
       <defs>
        <path id="ArialMT-33" d="M 269 1209 
L 831 1284 
Q 928 806 1161 595 
Q 1394 384 1728 384 
Q 2125 384 2398 659 
Q 2672 934 2672 1341 
Q 2672 1728 2419 1979 
Q 2166 2231 1775 2231 
Q 1616 2231 1378 2169 
L 1441 2663 
Q 1497 2656 1531 2656 
Q 1891 2656 2178 2843 
Q 2466 3031 2466 3422 
Q 2466 3731 2256 3934 
Q 2047 4138 1716 4138 
Q 1388 4138 1169 3931 
Q 950 3725 888 3313 
L 325 3413 
Q 428 3978 793 4289 
Q 1159 4600 1703 4600 
Q 2078 4600 2393 4439 
Q 2709 4278 2876 4000 
Q 3044 3722 3044 3409 
Q 3044 3113 2884 2869 
Q 2725 2625 2413 2481 
Q 2819 2388 3044 2092 
Q 3269 1797 3269 1353 
Q 3269 753 2831 336 
Q 2394 -81 1725 -81 
Q 1122 -81 723 278 
Q 325 638 269 1209 
z
" transform="scale(0.015625)"/>
       </defs>
       <use xlink:href="#ArialMT-33"/>
       <use xlink:href="#ArialMT-30" x="55.615234"/>
      </g>
     </g>
    </g>
    <g id="ytick_6">
     <g id="line2d_11">
      <path d="M 72 141.320656 
L 518.4 141.320656 
" clip-path="url(#p4cb0518d1d)" style="fill: none; stroke: #ffffff; stroke-width: 0.8; stroke-linecap: round"/>
     </g>
     <g id="text_12">
      <!-- 35 -->
      <g style="fill: #262626" transform="translate(53.878125 144.899562) scale(0.1 -0.1)">
       <use xlink:href="#ArialMT-33"/>
       <use xlink:href="#ArialMT-35" x="55.615234"/>
      </g>
     </g>
    </g>
    <g id="ytick_7">
     <g id="line2d_12">
      <path d="M 72 100.00918 
L 518.4 100.00918 
" clip-path="url(#p4cb0518d1d)" style="fill: none; stroke: #ffffff; stroke-width: 0.8; stroke-linecap: round"/>
     </g>
     <g id="text_13">
      <!-- 40 -->
      <g style="fill: #262626" transform="translate(53.878125 103.588087) scale(0.1 -0.1)">
       <use xlink:href="#ArialMT-34"/>
       <use xlink:href="#ArialMT-30" x="55.615234"/>
      </g>
     </g>
    </g>
    <g id="ytick_8">
     <g id="line2d_13">
      <path d="M 72 58.697705 
L 518.4 58.697705 
" clip-path="url(#p4cb0518d1d)" style="fill: none; stroke: #ffffff; stroke-width: 0.8; stroke-linecap: round"/>
     </g>
     <g id="text_14">
      <!-- 45 -->
      <g style="fill: #262626" transform="translate(53.878125 62.276611) scale(0.1 -0.1)">
       <use xlink:href="#ArialMT-34"/>
       <use xlink:href="#ArialMT-35" x="55.615234"/>
      </g>
     </g>
    </g>
    <g id="text_15">
     <!-- (°C) -->
     <g style="fill: #262626" transform="translate(47.773438 227.099844) rotate(-90) scale(0.1 -0.1)">
      <defs>
       <path id="ArialMT-28" d="M 1497 -1347 
Q 1031 -759 709 28 
Q 388 816 388 1659 
Q 388 2403 628 3084 
Q 909 3875 1497 4659 
L 1900 4659 
Q 1522 4009 1400 3731 
Q 1209 3300 1100 2831 
Q 966 2247 966 1656 
Q 966 153 1900 -1347 
L 1497 -1347 
z
" transform="scale(0.015625)"/>
       <path id="ArialMT-b0" d="M 400 3794 
Q 400 4153 654 4406 
Q 909 4659 1266 4659 
Q 1628 4659 1881 4406 
Q 2134 4153 2134 3794 
Q 2134 3434 1879 3179 
Q 1625 2925 1266 2925 
Q 909 2925 654 3178 
Q 400 3431 400 3794 
z
M 741 3794 
Q 741 3575 895 3420 
Q 1050 3266 1269 3266 
Q 1484 3266 1639 3420 
Q 1794 3575 1794 3794 
Q 1794 4013 1639 4167 
Q 1484 4322 1269 4322 
Q 1050 4322 895 4167 
Q 741 4013 741 3794 
z
" transform="scale(0.015625)"/>
       <path id="ArialMT-43" d="M 3763 1606 
L 4369 1453 
Q 4178 706 3683 314 
Q 3188 -78 2472 -78 
Q 1731 -78 1267 223 
Q 803 525 561 1097 
Q 319 1669 319 2325 
Q 319 3041 592 3573 
Q 866 4106 1370 4382 
Q 1875 4659 2481 4659 
Q 3169 4659 3637 4309 
Q 4106 3959 4291 3325 
L 3694 3184 
Q 3534 3684 3231 3912 
Q 2928 4141 2469 4141 
Q 1941 4141 1586 3887 
Q 1231 3634 1087 3207 
Q 944 2781 944 2328 
Q 944 1744 1114 1308 
Q 1284 872 1643 656 
Q 2003 441 2422 441 
Q 2931 441 3284 734 
Q 3638 1028 3763 1606 
z
" transform="scale(0.015625)"/>
       <path id="ArialMT-29" d="M 791 -1347 
L 388 -1347 
Q 1322 153 1322 1656 
Q 1322 2244 1188 2822 
Q 1081 3291 891 3722 
Q 769 4003 388 4659 
L 791 4659 
Q 1378 3875 1659 3084 
Q 1900 2403 1900 1659 
Q 1900 816 1576 28 
Q 1253 -759 791 -1347 
z
" transform="scale(0.015625)"/>
      </defs>
      <use xlink:href="#ArialMT-28"/>
      <use xlink:href="#ArialMT-b0" x="33.300781"/>
      <use xlink:href="#ArialMT-43" x="73.291016"/>
      <use xlink:href="#ArialMT-29" x="145.507812"/>
     </g>
    </g>
   </g>
   <g id="line2d_14">
    <path d="M 92.290909 191.720656 
L 92.758981 180.979672 
L 93.227053 149.582951 
L 93.695124 140.494426 
L 94.163196 149.582951 
L 94.631268 190.068197 
L 95.099339 201.63541 
L 95.567411 190.894426 
L 96.035483 185.11082 
L 96.971626 166.93377 
L 97.439698 167.76 
L 97.90777 159.497705 
L 98.375841 161.976393 
L 98.843913 161.976393 
L 99.311985 165.281311 
L 99.780057 176.848525 
L 100.248128 133.88459 
L 100.7162 163.628852 
L 101.184272 183.458361 
L 101.652344 178.500984 
L 102.120415 154.540328 
L 102.588487 170.238689 
L 103.056559 209.897705 
L 103.52463 320.612459 
L 103.992702 280.953443 
L 104.460774 275.996066 
L 104.928846 237.163279 
L 105.396917 249.556721 
L 105.864989 271.864918 
L 106.333061 276.822295 
L 106.801132 289.215738 
L 107.269204 240.468197 
L 107.737276 211.550164 
L 108.205348 218.98623 
L 108.673419 195.851803 
L 109.141491 192.546885 
L 109.609563 185.937049 
L 110.077634 160.323934 
L 110.545706 152.887869 
L 111.013778 223.117377 
L 111.48185 243.773115 
L 111.949921 199.982951 
L 112.417993 193.373115 
L 112.886065 179.327213 
L 113.354137 141.320656 
L 113.822208 146.278033 
L 114.29028 195.025574 
L 114.758352 223.117377 
L 115.226423 337.137049 
L 115.694495 229.727213 
L 116.162567 268.56 
L 116.630639 296.651803 
L 117.09871 271.038689 
L 117.566782 266.081311 
L 118.034854 242.946885 
L 118.502925 317.307541 
L 118.970997 286.737049 
L 119.439069 201.63541 
L 119.907141 208.245246 
L 120.375212 171.891148 
L 120.843284 263.602623 
L 121.311356 261.950164 
L 121.779427 275.169836 
L 122.247499 190.894426 
L 122.715571 174.369836 
L 123.183643 185.937049 
L 123.651714 171.064918 
L 124.119786 208.245246 
L 124.587858 285.08459 
L 125.05593 320.612459 
L 125.524001 250.382951 
L 126.460145 299.130492 
L 126.928216 290.041967 
L 127.396288 273.517377 
L 127.86436 281.779672 
L 128.332432 230.553443 
L 128.800503 192.546885 
L 129.268575 260.297705 
L 129.736647 239.641967 
L 130.204718 253.687869 
L 130.67279 240.468197 
L 131.140862 261.950164 
L 131.608934 198.330492 
L 132.077005 220.638689 
L 132.545077 231.379672 
L 133.013149 169.412459 
L 133.481221 186.763279 
L 133.949292 238.815738 
L 134.417364 237.163279 
L 134.885436 210.723934 
L 135.353507 211.550164 
L 135.821579 233.032131 
L 136.289651 305.740328 
L 136.757723 358.619016 
L 137.225794 275.996066 
L 137.693866 280.953443 
L 138.161938 334.658361 
L 138.630009 236.337049 
L 139.098081 225.596066 
L 139.566153 218.98623 
L 140.034225 227.248525 
L 140.502296 182.632131 
L 140.970368 195.025574 
L 141.43844 263.602623 
L 141.906511 309.045246 
L 142.842655 204.114098 
L 143.310727 281.779672 
L 143.778798 335.48459 
L 144.24687 326.396066 
L 144.714942 276.822295 
L 145.183014 246.251803 
L 145.651085 200.80918 
L 146.587229 259.471475 
L 147.0553 236.337049 
L 147.523372 188.415738 
L 147.991444 267.73377 
L 148.459516 249.556721 
L 148.927587 305.740328 
L 149.395659 308.219016 
L 149.863731 230.553443 
L 150.331802 194.199344 
L 150.799874 282.605902 
L 151.267946 294.999344 
L 151.736018 237.163279 
L 152.204089 241.294426 
L 152.672161 227.248525 
L 153.140233 204.940328 
L 153.608304 200.80918 
L 154.076376 192.546885 
L 154.544448 168.58623 
L 155.01252 157.845246 
L 155.480591 282.605902 
L 155.948663 369.36 
L 156.416735 322.264918 
L 156.884807 228.900984 
L 157.352878 266.907541 
L 157.82095 234.68459 
L 158.757093 115.707541 
L 159.225165 114.055082 
L 160.161309 257.819016 
L 160.62938 276.822295 
L 162.501667 191.720656 
L 162.969739 233.032131 
L 163.437811 239.641967 
L 163.905882 193.373115 
L 164.373954 176.848525 
L 164.842026 198.330492 
L 165.310098 181.805902 
L 165.778169 177.674754 
L 166.246241 157.845246 
L 166.714313 315.655082 
L 167.182384 363.576393 
L 167.650456 344.573115 
L 168.118528 204.940328 
L 168.5866 176.022295 
L 169.054671 123.143607 
L 169.522743 167.76 
L 169.990815 199.156721 
L 170.458886 185.11082 
L 170.926958 142.146885 
L 171.39503 172.717377 
L 171.863102 262.776393 
L 172.331173 285.08459 
L 172.799245 266.907541 
L 173.267317 330.527213 
L 173.735388 287.563279 
L 174.20346 261.950164 
L 174.671532 285.08459 
L 175.139604 248.730492 
L 175.607675 195.851803 
L 176.075747 183.458361 
L 176.543819 181.805902 
L 177.011891 239.641967 
L 177.479962 199.982951 
L 177.948034 208.245246 
L 178.416106 204.940328 
L 178.884177 171.891148 
L 179.352249 301.60918 
L 179.820321 275.169836 
L 180.288393 278.474754 
L 180.756464 226.422295 
L 181.224536 141.320656 
L 181.692608 177.674754 
L 182.160679 136.363279 
L 182.628751 157.845246 
L 183.564895 130.579672 
L 184.032966 107.445246 
L 184.96911 170.238689 
L 185.437182 128.100984 
L 185.905253 209.897705 
L 186.373325 181.805902 
L 186.841397 180.153443 
L 187.309468 143.799344 
L 187.77754 144.625574 
L 188.245612 148.756721 
L 188.713684 157.845246 
L 189.181755 151.23541 
L 189.649827 188.415738 
L 190.117899 210.723934 
L 190.58597 147.930492 
L 191.054042 119.012459 
L 191.522114 140.494426 
L 191.990186 147.930492 
L 192.458257 157.845246 
L 192.926329 185.937049 
L 193.394401 156.192787 
L 193.862472 112.402623 
L 194.330544 149.582951 
L 194.798616 200.80918 
L 195.266688 175.196066 
L 195.734759 185.937049 
L 196.202831 185.11082 
L 196.670903 164.455082 
L 197.138975 89.268197 
L 197.607046 130.579672 
L 198.075118 218.98623 
L 198.54319 204.114098 
L 199.011261 195.851803 
L 199.479333 190.068197 
L 199.947405 199.982951 
L 200.415477 189.241967 
L 200.883548 187.589508 
L 201.35162 162.802623 
L 201.819692 109.097705 
L 202.287763 152.061639 
L 202.755835 131.405902 
L 203.223907 119.838689 
L 203.691979 129.753443 
L 204.16005 132.232131 
L 204.628122 146.278033 
L 205.096194 140.494426 
L 205.564265 143.799344 
L 206.032337 138.841967 
L 206.500409 127.274754 
L 206.968481 125.622295 
L 207.436552 177.674754 
L 207.904624 142.146885 
L 208.372696 149.582951 
L 208.840768 137.189508 
L 209.308839 133.88459 
L 209.776911 140.494426 
L 210.244983 110.750164 
L 210.713054 108.271475 
L 211.181126 83.48459 
L 211.649198 66.96 
L 212.11727 76.874754 
L 212.585341 129.753443 
L 213.053413 162.802623 
L 213.521485 150.40918 
L 214.457628 133.058361 
L 214.9257 130.579672 
L 215.393772 120.664918 
L 215.861843 131.405902 
L 216.329915 120.664918 
L 216.797987 115.707541 
L 217.266059 97.530492 
L 217.73413 136.363279 
L 218.670274 102.487869 
L 219.138345 123.969836 
L 219.606417 171.064918 
L 220.074489 147.930492 
L 220.542561 142.973115 
L 221.010632 139.668197 
L 221.478704 138.015738 
L 221.946776 128.100984 
L 222.414847 132.232131 
L 222.882919 148.756721 
L 223.350991 135.537049 
L 223.819063 127.274754 
L 224.287134 115.707541 
L 224.755206 126.448525 
L 225.223278 128.100984 
L 225.691349 94.225574 
L 226.159421 91.746885 
L 226.627493 88.441967 
L 227.095565 97.530492 
L 227.563636 117.36 
L 228.031708 113.228852 
L 228.49978 102.487869 
L 229.435923 117.36 
L 229.903995 113.228852 
L 230.372067 117.36 
L 230.840138 112.402623 
L 231.30821 114.055082 
L 231.776282 104.140328 
L 232.244354 117.36 
L 232.712425 127.274754 
L 233.180497 171.064918 
L 233.648569 136.363279 
L 234.11664 140.494426 
L 234.584712 138.015738 
L 235.052784 115.707541 
L 235.520856 121.491148 
L 235.988927 113.228852 
L 236.456999 114.055082 
L 236.925071 109.923934 
L 237.861214 104.966557 
L 238.329286 99.182951 
L 238.797358 97.530492 
L 239.265429 98.356721 
L 239.733501 109.097705 
L 240.201573 87.615738 
L 241.137716 98.356721 
L 241.605788 100.00918 
L 242.07386 84.31082 
L 242.541931 89.268197 
L 243.010003 99.182951 
L 243.478075 90.094426 
L 243.946147 90.094426 
L 244.414218 100.83541 
L 244.88229 97.530492 
L 245.350362 108.271475 
L 245.818433 109.097705 
L 246.286505 119.012459 
L 246.754577 110.750164 
L 247.222649 95.051803 
L 247.69072 103.314098 
L 248.158792 106.619016 
L 248.626864 100.83541 
L 249.094936 109.097705 
L 249.563007 140.494426 
L 250.031079 127.274754 
L 250.499151 129.753443 
L 250.967222 140.494426 
L 251.435294 133.88459 
L 251.903366 124.796066 
L 252.371438 146.278033 
L 252.839509 223.943607 
L 253.307581 260.297705 
L 253.775653 157.019016 
L 254.243724 154.540328 
L 254.711796 150.40918 
L 255.179868 161.976393 
L 255.64794 152.061639 
L 256.116011 151.23541 
L 257.052155 138.015738 
L 257.520226 133.88459 
L 257.988298 145.451803 
L 258.45637 152.887869 
L 258.924442 152.887869 
L 259.392513 154.540328 
L 259.860585 148.756721 
L 260.328657 150.40918 
L 260.796729 142.146885 
L 261.2648 142.973115 
L 261.732872 146.278033 
L 262.200944 146.278033 
L 262.669015 154.540328 
L 263.137087 166.93377 
L 263.605159 149.582951 
L 264.073231 161.976393 
L 264.541302 157.019016 
L 265.009374 153.714098 
L 265.477446 135.537049 
L 265.945517 128.927213 
L 266.413589 133.058361 
L 266.881661 166.93377 
L 267.349733 148.756721 
L 267.817804 140.494426 
L 268.285876 175.196066 
L 268.753948 236.337049 
L 269.22202 180.153443 
L 270.158163 145.451803 
L 270.626235 195.851803 
L 271.562378 167.76 
L 272.03045 119.012459 
L 272.498522 167.76 
L 272.966593 143.799344 
L 273.434665 182.632131 
L 273.902737 172.717377 
L 274.370808 176.848525 
L 274.83888 222.291148 
L 275.306952 221.464918 
L 275.775024 176.848525 
L 276.243095 190.068197 
L 276.711167 186.763279 
L 277.179239 202.461639 
L 277.64731 273.517377 
L 278.583454 226.422295 
L 279.051526 245.425574 
L 279.519597 176.848525 
L 279.987669 172.717377 
L 280.455741 199.982951 
L 280.923813 156.192787 
L 281.391884 283.432131 
L 281.859956 280.953443 
L 282.328028 266.907541 
L 282.796099 185.11082 
L 283.264171 342.094426 
L 283.732243 348.704262 
L 284.200315 239.641967 
L 284.668386 254.514098 
L 285.136458 249.556721 
L 285.60453 186.763279 
L 286.072601 202.461639 
L 286.540673 187.589508 
L 287.008745 209.071475 
L 287.476817 179.327213 
L 287.944888 187.589508 
L 288.41296 262.776393 
L 289.349103 152.887869 
L 289.817175 145.451803 
L 290.285247 218.16 
L 290.753319 228.900984 
L 291.22139 192.546885 
L 291.689462 128.927213 
L 292.157534 220.638689 
L 292.625606 239.641967 
L 293.561749 182.632131 
L 294.029821 185.11082 
L 294.497892 181.805902 
L 294.965964 218.98623 
L 295.434036 194.199344 
L 295.902108 149.582951 
L 296.370179 251.20918 
L 296.838251 283.432131 
L 297.306323 262.776393 
L 297.774394 161.150164 
L 298.242466 157.845246 
L 298.710538 127.274754 
L 299.17861 139.668197 
L 299.646681 285.08459 
L 300.114753 299.130492 
L 300.582825 285.91082 
L 301.050897 282.605902 
L 301.518968 283.432131 
L 301.98704 218.98623 
L 302.455112 214.028852 
L 302.923183 214.028852 
L 303.391255 186.763279 
L 304.327399 253.687869 
L 304.79547 157.845246 
L 305.263542 225.596066 
L 306.199685 313.176393 
L 306.667757 294.999344 
L 307.135829 218.98623 
L 307.603901 251.20918 
L 308.071972 237.163279 
L 308.540044 214.855082 
L 309.008116 186.763279 
L 309.476187 246.251803 
L 309.944259 256.166557 
L 310.412331 217.33377 
L 310.880403 206.592787 
L 311.348474 215.681311 
L 311.816546 242.120656 
L 312.75269 196.678033 
L 313.220761 218.16 
L 313.688833 231.379672 
L 314.156905 254.514098 
L 314.624976 212.376393 
L 315.093048 276.822295 
L 316.029192 317.307541 
L 316.497263 275.996066 
L 316.965335 204.114098 
L 317.433407 246.251803 
L 317.901478 269.38623 
L 318.36955 175.196066 
L 318.837622 185.11082 
L 319.305694 172.717377 
L 320.241837 290.041967 
L 321.646052 233.032131 
L 322.114124 202.461639 
L 322.582196 162.802623 
L 323.050267 265.255082 
L 323.518339 224.769836 
L 323.986411 196.678033 
L 324.454483 192.546885 
L 324.922554 174.369836 
L 325.390626 148.756721 
L 325.858698 230.553443 
L 326.326769 289.215738 
L 326.794841 261.123934 
L 327.262913 316.481311 
L 328.199056 190.068197 
L 328.667128 164.455082 
L 329.1352 159.497705 
L 329.603271 256.992787 
L 330.071343 304.087869 
L 330.539415 325.569836 
L 331.475558 208.245246 
L 331.94363 171.891148 
L 332.411702 161.976393 
L 332.879774 270.212459 
L 333.347845 264.428852 
L 333.815917 220.638689 
L 334.283989 214.855082 
L 334.75206 152.061639 
L 335.220132 110.750164 
L 335.688204 223.117377 
L 336.156276 161.976393 
L 336.624347 214.028852 
L 337.092419 219.812459 
L 337.560491 237.989508 
L 338.028562 239.641967 
L 338.496634 219.812459 
L 338.964706 222.291148 
L 339.432778 179.327213 
L 339.900849 164.455082 
L 340.368921 138.015738 
L 340.836993 143.799344 
L 341.305064 209.071475 
L 341.773136 217.33377 
L 342.241208 166.93377 
L 342.70928 164.455082 
L 343.177351 125.622295 
L 343.645423 213.202623 
L 344.113495 277.648525 
L 345.049638 186.763279 
L 345.51771 110.750164 
L 345.985782 114.055082 
L 346.453853 114.881311 
L 346.921925 96.704262 
L 347.389997 130.579672 
L 347.858069 226.422295 
L 348.794212 151.23541 
L 349.262284 197.504262 
L 349.730355 157.019016 
L 350.198427 185.937049 
L 351.134571 264.428852 
L 352.070714 180.153443 
L 352.538786 123.143607 
L 353.006858 119.012459 
L 353.474929 176.022295 
L 353.943001 169.412459 
L 354.411073 114.881311 
L 354.879144 161.976393 
L 355.347216 242.120656 
L 355.815288 286.737049 
L 356.28336 261.950164 
L 356.751431 162.802623 
L 357.219503 177.674754 
L 357.687575 105.792787 
L 358.155646 121.491148 
L 358.623718 142.973115 
L 359.09179 122.317377 
L 359.559862 115.707541 
L 360.027933 100.00918 
L 360.496005 139.668197 
L 360.964077 222.291148 
L 361.432148 161.976393 
L 362.368292 101.661639 
L 362.836364 180.979672 
L 363.304435 143.799344 
L 363.772507 134.71082 
L 364.240579 129.753443 
L 365.176722 106.619016 
L 365.644794 141.320656 
L 366.112866 147.930492 
L 366.580937 126.448525 
L 367.049009 218.16 
L 367.517081 223.943607 
L 367.985153 186.763279 
L 368.453224 160.323934 
L 368.921296 151.23541 
L 369.389368 152.887869 
L 370.325511 141.320656 
L 370.793583 142.973115 
L 371.729726 114.881311 
L 372.197798 137.189508 
L 372.66587 153.714098 
L 373.133941 136.363279 
L 373.602013 144.625574 
L 374.070085 142.973115 
L 374.538157 156.192787 
L 375.006228 186.763279 
L 375.942372 125.622295 
L 376.410444 171.891148 
L 376.878515 173.543607 
L 377.346587 172.717377 
L 377.814659 174.369836 
L 378.28273 174.369836 
L 378.750802 154.540328 
L 379.218874 147.104262 
L 379.686946 148.756721 
L 380.623089 124.796066 
L 381.091161 109.097705 
L 381.559232 109.923934 
L 382.027304 135.537049 
L 382.495376 221.464918 
L 382.963448 164.455082 
L 383.899591 156.192787 
L 384.367663 161.150164 
L 384.835735 157.845246 
L 385.303806 148.756721 
L 385.771878 145.451803 
L 386.23995 149.582951 
L 386.708021 147.930492 
L 387.176093 135.537049 
L 387.644165 126.448525 
L 388.112237 131.405902 
L 388.580308 128.100984 
L 389.04838 154.540328 
L 389.516452 168.58623 
L 389.984523 167.76 
L 390.452595 165.281311 
L 390.920667 135.537049 
L 391.388739 167.76 
L 391.85681 133.058361 
L 392.324882 135.537049 
L 392.792954 127.274754 
L 393.261025 115.707541 
L 393.729097 112.402623 
L 394.197169 115.707541 
L 394.665241 123.969836 
L 395.133312 151.23541 
L 395.601384 109.097705 
L 396.069456 107.445246 
L 396.537528 104.140328 
L 397.473671 90.920656 
L 397.941743 101.661639 
L 398.409814 120.664918 
L 398.877886 107.445246 
L 399.345958 115.707541 
L 400.282101 163.628852 
L 400.750173 137.189508 
L 401.218245 139.668197 
L 401.686316 136.363279 
L 402.154388 119.012459 
L 402.62246 105.792787 
L 403.090532 138.841967 
L 403.558603 193.373115 
L 404.026675 215.681311 
L 404.494747 218.98623 
L 404.962818 169.412459 
L 405.43089 160.323934 
L 405.898962 142.973115 
L 406.367034 156.192787 
L 406.835105 130.579672 
L 407.303177 132.232131 
L 407.771249 138.841967 
L 408.239321 139.668197 
L 408.707392 152.061639 
L 409.175464 148.756721 
L 410.111607 138.841967 
L 410.579679 136.363279 
L 411.047751 131.405902 
L 411.515823 132.232131 
L 411.983894 138.015738 
L 412.451966 138.841967 
L 412.920038 128.100984 
L 413.388109 143.799344 
L 414.324253 133.058361 
L 414.792325 110.750164 
L 415.260396 114.055082 
L 415.728468 136.363279 
L 416.19654 131.405902 
L 416.664612 117.36 
L 417.132683 114.055082 
L 418.068827 128.927213 
L 418.536898 119.012459 
L 419.00497 116.53377 
L 419.473042 158.671475 
L 419.941114 157.845246 
L 420.409185 128.927213 
L 420.877257 129.753443 
L 421.345329 210.723934 
L 421.8134 223.117377 
L 422.281472 160.323934 
L 422.749544 171.064918 
L 423.217616 178.500984 
L 424.153759 86.789508 
L 424.621831 105.792787 
L 425.089902 104.966557 
L 426.026046 104.966557 
L 426.494118 115.707541 
L 426.962189 106.619016 
L 427.430261 114.055082 
L 427.898333 114.055082 
L 428.366405 111.576393 
L 428.834476 112.402623 
L 429.302548 112.402623 
L 429.77062 119.838689 
L 430.706763 90.094426 
L 432.110978 114.881311 
L 432.57905 119.012459 
L 433.047122 115.707541 
L 433.515193 117.36 
L 433.983265 104.966557 
L 434.451337 97.530492 
L 434.919409 109.097705 
L 435.38748 124.796066 
L 435.855552 119.838689 
L 436.323624 144.625574 
L 436.791696 140.494426 
L 437.259767 129.753443 
L 437.727839 115.707541 
L 438.195911 114.055082 
L 438.663982 120.664918 
L 439.600126 105.792787 
L 440.068198 129.753443 
L 440.536269 113.228852 
L 441.472413 144.625574 
L 441.940484 130.579672 
L 442.408556 126.448525 
L 442.876628 120.664918 
L 443.3447 137.189508 
L 443.812771 160.323934 
L 444.280843 152.887869 
L 444.748915 137.189508 
L 445.216986 145.451803 
L 445.685058 181.805902 
L 446.15313 205.766557 
L 446.621202 191.720656 
L 447.089273 149.582951 
L 447.557345 136.363279 
L 448.025417 135.537049 
L 448.493489 143.799344 
L 448.96156 139.668197 
L 449.429632 145.451803 
L 450.365775 152.887869 
L 450.833847 156.192787 
L 451.301919 162.802623 
L 451.769991 148.756721 
L 452.238062 150.40918 
L 452.706134 150.40918 
L 453.174206 149.582951 
L 453.642277 153.714098 
L 454.110349 142.973115 
L 454.578421 149.582951 
L 455.046493 148.756721 
L 455.514564 140.494426 
L 455.982636 161.150164 
L 456.450708 161.976393 
L 456.918779 171.064918 
L 457.386851 173.543607 
L 457.854923 158.671475 
L 458.322995 161.976393 
L 458.791066 177.674754 
L 459.259138 204.114098 
L 459.72721 218.98623 
L 460.195282 184.28459 
L 460.663353 220.638689 
L 461.131425 211.550164 
L 461.599497 228.074754 
L 462.067568 185.937049 
L 462.53564 219.812459 
L 463.003712 210.723934 
L 463.471784 142.146885 
L 463.939855 125.622295 
L 464.407927 158.671475 
L 464.875999 163.628852 
L 465.34407 156.192787 
L 465.812142 158.671475 
L 466.280214 275.996066 
L 467.216357 196.678033 
L 467.684429 176.022295 
L 468.152501 162.802623 
L 468.620573 190.068197 
L 469.088644 135.537049 
L 469.556716 190.068197 
L 470.024788 200.80918 
L 470.492859 188.415738 
L 470.960931 170.238689 
L 471.429003 200.80918 
L 471.897075 203.287869 
L 472.365146 239.641967 
L 472.833218 219.812459 
L 473.30129 242.946885 
L 473.769361 186.763279 
L 474.237433 152.061639 
L 474.705505 184.28459 
L 475.173577 161.150164 
L 475.641648 176.848525 
L 476.577792 196.678033 
L 477.045863 181.805902 
L 477.513935 148.756721 
L 477.982007 256.166557 
L 478.450079 270.212459 
L 478.91815 184.28459 
L 479.854294 314.002623 
L 480.322366 337.137049 
L 480.790437 329.700984 
L 481.258509 345.399344 
L 481.726581 366.881311 
L 482.194652 338.789508 
L 482.662724 295.825574 
L 483.130796 290.041967 
L 483.598868 199.156721 
L 484.066939 271.864918 
L 484.535011 242.946885 
L 485.003083 162.802623 
L 485.471154 202.461639 
L 485.939226 153.714098 
L 486.407298 208.245246 
L 486.87537 311.523934 
L 487.343441 237.989508 
L 487.811513 255.340328 
L 488.279585 226.422295 
L 488.747656 224.769836 
L 489.215728 202.461639 
L 489.6838 215.681311 
L 490.151872 210.723934 
L 490.619943 209.897705 
L 491.088015 223.117377 
L 491.556087 159.497705 
L 492.024159 223.117377 
L 492.49223 231.379672 
L 492.960302 214.028852 
L 493.428374 295.825574 
L 493.896445 337.963279 
L 494.364517 247.078033 
L 494.832589 210.723934 
L 495.300661 322.264918 
L 495.768732 193.373115 
L 496.236804 133.058361 
L 496.704876 129.753443 
L 497.172947 98.356721 
L 497.641019 110.750164 
L 498.109091 175.196066 
L 498.109091 175.196066 
" clip-path="url(#p4cb0518d1d)" style="fill: none; stroke: #1f77b4; stroke-width: 1.5; stroke-linecap: round"/>
   </g>
   <g id="line2d_15">
    <path d="M 92.290909 175.724852 
L 92.758981 176.732852 
L 93.227053 168.627541 
L 93.695124 155.166114 
L 94.631268 186.672393 
L 95.099339 172.345574 
L 95.567411 171.403672 
L 96.035483 174.898623 
L 96.503555 174.52682 
L 96.971626 166.983344 
L 97.439698 170.924459 
L 97.90777 168.404459 
L 98.375841 164.992131 
L 98.843913 165.322623 
L 99.311985 163.43882 
L 99.780057 170.660066 
L 100.248128 153.912393 
L 100.7162 165.149115 
L 101.184272 163.975869 
L 101.652344 163.273574 
L 102.120415 165.479607 
L 102.588487 164.84341 
L 103.056559 223.555279 
L 103.52463 249.408 
L 103.992702 245.475148 
L 104.460774 248.259541 
L 105.396917 222.357246 
L 105.864989 235.882623 
L 106.333061 258.215607 
L 106.801132 254.414951 
L 107.269204 249.490623 
L 107.737276 225.331672 
L 108.205348 226.265311 
L 108.673419 223.001705 
L 109.141491 212.79777 
L 109.609563 207.005902 
L 110.077634 202.85823 
L 110.545706 197.562098 
L 111.013778 217.449443 
L 111.48185 217.292459 
L 111.949921 215.74741 
L 112.417993 211.120525 
L 112.886065 192.654295 
L 113.822208 195.37259 
L 114.29028 194.893377 
L 115.226423 268.493902 
L 115.694495 238.42741 
L 116.162567 254.596721 
L 116.630639 261.024787 
L 117.09871 252.093246 
L 117.566782 265.296393 
L 118.034854 268.419541 
L 118.502925 279.681049 
L 118.970997 276.549639 
L 119.439069 232.577705 
L 119.907141 220.217311 
L 120.375212 219.622426 
L 121.311356 265.048525 
L 121.779427 253.778754 
L 122.247499 226.224 
L 122.715571 212.178098 
L 123.183643 212.888656 
L 123.651714 202.238557 
L 124.587858 224.431082 
L 125.05593 266.667934 
L 125.992073 230.016393 
L 126.460145 260.115934 
L 126.928216 255.951738 
L 127.396288 260.520787 
L 127.86436 263.751344 
L 128.332432 259.942426 
L 128.800503 222.142426 
L 129.268575 255.654295 
L 129.736647 264.519738 
L 130.204718 262.379803 
L 130.67279 232.891672 
L 131.140862 261.305705 
L 131.608934 226.711475 
L 132.077005 206.89023 
L 132.545077 231.958033 
L 133.013149 213.086951 
L 133.481221 215.838295 
L 133.949292 241.426623 
L 134.417364 244.615869 
L 134.885436 217.44118 
L 135.821579 237.49377 
L 136.757723 282.234098 
L 137.225794 283.019016 
L 137.693866 293.140328 
L 138.161938 290.438557 
L 138.630009 282.614164 
L 139.098081 238.832262 
L 139.566153 244.343213 
L 140.034225 253.877902 
L 140.502296 219.366295 
L 140.970368 218.283934 
L 141.906511 274.095738 
L 142.842655 206.716721 
L 143.310727 252.572459 
L 143.778798 254.456262 
L 144.24687 275.078951 
L 144.714942 282.99423 
L 145.183014 231.776262 
L 145.651085 227.174164 
L 146.119157 254.547148 
L 146.587229 258.091672 
L 147.0553 269.196197 
L 147.523372 235.841311 
L 148.459516 271.897967 
L 148.927587 274.781508 
L 149.395659 279.168787 
L 149.863731 238.270426 
L 150.331802 249.151869 
L 150.799874 248.515672 
L 151.267946 264.437115 
L 151.736018 271.038689 
L 152.204089 234.948984 
L 152.672161 236.320525 
L 153.140233 215.392131 
L 153.608304 205.642623 
L 154.544448 196.248393 
L 155.01252 199.561574 
L 155.480591 244.417574 
L 155.948663 259.942426 
L 156.416735 290.62859 
L 156.884807 252.704656 
L 157.352878 226.604066 
L 157.82095 242.872525 
L 158.289022 202.75082 
L 158.757093 201.255344 
L 159.225165 182.689967 
L 159.693237 195.223869 
L 160.161309 212.202885 
L 160.62938 251.457049 
L 161.097452 252.341115 
L 161.565524 238.567869 
L 162.033595 215.85482 
L 162.501667 210.583475 
L 162.969739 200.990951 
L 163.437811 241.344 
L 163.905882 205.77482 
L 164.373954 181.235803 
L 164.842026 191.332328 
L 165.310098 176.080131 
L 165.778169 178.220066 
L 166.246241 179.542033 
L 166.714313 254.538885 
L 167.182384 260.636459 
L 167.650456 279.226623 
L 169.054671 186.176656 
L 169.522743 183.301377 
L 169.990815 176.865049 
L 170.458886 190.142557 
L 170.926958 175.815738 
L 171.39503 192.63777 
L 171.863102 222.134164 
L 172.331173 244.310164 
L 172.799245 249.151869 
L 173.267317 244.07882 
L 173.735388 251.167869 
L 174.20346 242.740328 
L 174.671532 252.564197 
L 175.139604 249.077508 
L 176.075747 178.096131 
L 176.543819 180.161705 
L 177.011891 208.212197 
L 177.948034 211.525377 
L 178.416106 207.427279 
L 178.884177 200.23082 
L 179.352249 242.839475 
L 179.820321 248.672656 
L 180.288393 264.792393 
L 181.224536 184.821639 
L 181.692608 188.506623 
L 182.160679 177.030295 
L 182.628751 182.293377 
L 183.096823 176.683279 
L 183.564895 168.297049 
L 184.032966 174.064131 
L 184.501038 174.287213 
L 184.96911 177.823475 
L 185.437182 170.106492 
L 185.905253 196.140984 
L 186.373325 195.80223 
L 186.841397 172.890885 
L 187.309468 164.752525 
L 187.77754 165.396984 
L 188.245612 165.396984 
L 188.713684 164.992131 
L 189.181755 157.39082 
L 189.649827 172.882623 
L 190.117899 164.116328 
L 190.58597 162.876984 
L 191.054042 143.262295 
L 191.522114 145.41768 
L 191.990186 167.446033 
L 192.458257 157.845246 
L 192.926329 168.131803 
L 193.394401 161.406295 
L 193.862472 140.32918 
L 194.330544 146.939016 
L 194.798616 168.644066 
L 195.266688 162.571279 
L 195.734759 168.55318 
L 196.670903 162.339934 
L 197.138975 136.768131 
L 197.607046 151.152787 
L 198.075118 201.627148 
L 198.54319 191.819803 
L 199.011261 186.598033 
L 199.479333 163.827148 
L 199.947405 174.006295 
L 200.415477 169.478557 
L 200.883548 162.703475 
L 201.819692 141.33718 
L 202.287763 150.268721 
L 202.755835 150.557902 
L 203.223907 141.403279 
L 203.691979 143.840656 
L 204.16005 149.888656 
L 205.096194 142.394754 
L 205.564265 142.74177 
L 206.032337 135.717746 
L 206.968481 138.040525 
L 207.436552 152.334295 
L 207.904624 140.36223 
L 208.372696 143.022689 
L 208.840768 137.850492 
L 209.308839 136.66791 
L 209.776911 136.412852 
L 210.244983 129.720393 
L 210.713054 129.612984 
L 211.181126 129.646033 
L 211.649198 126.605508 
L 212.11727 103.107541 
L 212.585341 142.964852 
L 213.053413 166.016656 
L 213.521485 157.622164 
L 213.989556 146.247875 
L 214.457628 139.283835 
L 214.9257 134.248131 
L 215.393772 131.001049 
L 215.861843 130.323541 
L 216.329915 122.449574 
L 216.797987 124.325115 
L 217.266059 120.218754 
L 217.73413 131.57941 
L 218.202202 120.020459 
L 218.670274 104.214689 
L 219.138345 121.317639 
L 219.606417 170.040393 
L 220.074489 142.105574 
L 220.542561 140.320918 
L 221.010632 140.664712 
L 221.478704 132.80223 
L 221.946776 131.356328 
L 222.414847 134.694295 
L 222.882919 140.369418 
L 223.350991 135.520525 
L 223.819063 132.612197 
L 224.287134 119.367738 
L 224.755206 131.281967 
L 225.223278 127.390426 
L 225.691349 104.900459 
L 226.159421 102.339148 
L 226.627493 105.379672 
L 227.095565 136.396328 
L 227.563636 137.032525 
L 228.031708 132.645246 
L 228.49978 114.393836 
L 228.967852 130.662295 
L 229.435923 131.248918 
L 229.903995 116.913836 
L 230.372067 118.615869 
L 230.840138 115.715803 
L 231.30821 116.442885 
L 231.776282 107.96577 
L 232.244354 129.56341 
L 232.712425 139.708434 
L 233.180497 169.040656 
L 233.648569 138.692172 
L 234.584712 131.529836 
L 235.052784 128.439738 
L 235.520856 134.17377 
L 235.988927 117.632656 
L 236.456999 117.97141 
L 236.925071 106.66859 
L 237.393142 105.693639 
L 237.861214 102.165639 
L 238.329286 103.636328 
L 238.797358 105.47882 
L 239.733501 107.337836 
L 240.201573 104.718689 
L 240.669645 103.495869 
L 241.137716 107.668328 
L 241.605788 109.180328 
L 242.07386 106.412459 
L 242.541931 108.271475 
L 243.010003 113.228852 
L 243.478075 114.187279 
L 243.946147 107.354361 
L 244.414218 114.360787 
L 244.88229 112.096918 
L 245.350362 115.963672 
L 245.818433 116.806426 
L 246.286505 118.442361 
L 246.754577 116.294164 
L 247.222649 137.262795 
L 247.69072 137.824631 
L 248.158792 139.436852 
L 248.626864 119.937836 
L 249.094936 116.715541 
L 249.563007 139.353155 
L 250.031079 130.794492 
L 250.499151 128.332328 
L 250.967222 136.941639 
L 251.435294 138.584762 
L 251.903366 131.571148 
L 252.371438 139.015475 
L 252.839509 205.485639 
L 253.307581 207.311607 
L 253.775653 128.514098 
L 254.243724 173.320525 
L 254.711796 173.48577 
L 255.179868 170.007344 
L 255.64794 169.098492 
L 256.116011 156.34977 
L 256.584083 152.987016 
L 257.052155 153.82977 
L 257.520226 161.340197 
L 257.988298 153.763672 
L 258.45637 161.866835 
L 258.924442 159.37377 
L 259.392513 152.020328 
L 259.860585 150.764459 
L 260.328657 146.98859 
L 260.796729 149.112 
L 261.2648 142.576525 
L 261.732872 142.427803 
L 262.200944 142.791344 
L 262.669015 161.645902 
L 263.137087 158.084852 
L 263.605159 155.432656 
L 264.073231 156.539803 
L 264.541302 158.489705 
L 265.009374 156.944656 
L 265.477446 142.031213 
L 265.945517 137.924852 
L 266.881661 168.214426 
L 267.349733 162.158164 
L 267.817804 146.732459 
L 268.285876 196.975475 
L 268.753948 231.784525 
L 269.22202 207.443803 
L 269.690091 172.733902 
L 270.158163 158.853246 
L 270.626235 183.268328 
L 271.094306 191.728918 
L 271.562378 187.804328 
L 272.03045 155.672262 
L 272.498522 173.543607 
L 272.966593 158.968918 
L 273.434665 180.979672 
L 273.902737 188.10177 
L 274.370808 173.684066 
L 274.83888 220.275148 
L 275.306952 237.915148 
L 275.775024 207.278557 
L 276.243095 190.985311 
L 276.711167 179.24459 
L 277.179239 213.475279 
L 277.64731 238.336525 
L 278.115382 237.568131 
L 278.583454 233.081705 
L 279.051526 248.515672 
L 279.519597 194.909902 
L 279.987669 189.316328 
L 280.455741 192.150295 
L 280.923813 187.92 
L 281.391884 258.289967 
L 281.859956 255.56341 
L 282.328028 239.765902 
L 282.796099 218.011279 
L 283.264171 281.457443 
L 283.732243 281.135213 
L 284.200315 272.649836 
L 284.668386 250.440787 
L 285.136458 254.869377 
L 285.60453 230.834361 
L 286.072601 214.557639 
L 286.540673 213.086951 
L 287.008745 213.376131 
L 287.476817 198.39659 
L 287.944888 204.33718 
L 288.41296 226.94282 
L 288.881032 225.678689 
L 289.349103 206.402754 
L 289.817175 199.355016 
L 290.753319 232.354623 
L 291.689462 195.851803 
L 293.093677 246.648393 
L 293.561749 213.94623 
L 294.497892 204.725508 
L 294.965964 222.051541 
L 295.434036 214.945967 
L 295.902108 200.643934 
L 296.370179 231.140066 
L 297.306323 261.32223 
L 297.774394 215.31777 
L 298.242466 196.248393 
L 298.710538 193.777967 
L 299.17861 192.075934 
L 299.646681 241.542295 
L 300.114753 246.813639 
L 300.582825 262.569836 
L 301.050897 261.974951 
L 301.518968 262.528525 
L 301.98704 242.732066 
L 302.455112 242.74859 
L 302.923183 239.575869 
L 303.391255 212.425967 
L 303.859327 226.62059 
L 304.327399 228.504393 
L 304.79547 202.618623 
L 305.263542 225.810885 
L 305.731614 228.355672 
L 306.667757 281.234361 
L 307.135829 249.284066 
L 307.603901 238.410885 
L 308.071972 210.49259 
L 308.540044 233.817049 
L 309.008116 223.158689 
L 309.476187 226.587541 
L 309.944259 246.904525 
L 310.412331 253.572197 
L 310.880403 228.314361 
L 311.348474 216.557115 
L 311.816546 240.088131 
L 312.284618 232.437246 
L 312.75269 211.608 
L 313.220761 218.697049 
L 313.688833 217.061115 
L 314.156905 219.209311 
L 314.624976 208.864918 
L 315.093048 237.683803 
L 316.029192 259.058361 
L 316.497263 277.615475 
L 316.965335 225.042492 
L 317.901478 243.921836 
L 318.36955 214.945967 
L 318.837622 207.377705 
L 319.305694 211.021377 
L 319.773765 245.98741 
L 320.241837 259.793705 
L 320.709909 262.462426 
L 321.17798 218.655738 
L 321.646052 240.278164 
L 322.114124 231.255738 
L 322.582196 203.527475 
L 323.050267 264.949377 
L 323.518339 260.049836 
L 323.986411 233.957508 
L 324.922554 197.107672 
L 325.390626 197.991738 
L 326.326769 270.063738 
L 326.794841 220.019016 
L 327.262913 246.764066 
L 327.730985 247.846426 
L 328.667128 196.041836 
L 329.1352 197.20682 
L 329.603271 254.092721 
L 330.071343 268.799607 
L 330.539415 256.364852 
L 331.007487 257.141508 
L 331.475558 257.141508 
L 331.94363 199.198033 
L 332.411702 198.413115 
L 332.879774 244.533246 
L 333.347845 243.500459 
L 333.815917 227.859934 
L 334.283989 239.361049 
L 334.75206 198.908852 
L 335.220132 199.065836 
L 335.688204 207.25377 
L 336.156276 186.143607 
L 336.624347 203.296131 
L 337.092419 210.971803 
L 337.560491 237.758164 
L 338.028562 231.825836 
L 338.964706 204.204984 
L 339.432778 189.167607 
L 339.900849 191.828066 
L 340.368921 183.524459 
L 340.836993 178.344 
L 341.305064 191.208393 
L 341.773136 212.425967 
L 342.241208 180.773115 
L 342.70928 176.228852 
L 343.177351 169.552918 
L 343.645423 196.950689 
L 344.113495 241.319213 
L 344.581567 237.956459 
L 345.51771 157.605639 
L 345.985782 150.144787 
L 346.453853 158.745836 
L 346.921925 160.836197 
L 347.389997 165.677902 
L 347.858069 204.799869 
L 348.32614 192.249443 
L 348.794212 174.510295 
L 349.262284 196.636721 
L 349.730355 178.244852 
L 350.198427 184.425049 
L 351.134571 229.107541 
L 351.602642 206.320131 
L 352.070714 174.882098 
L 352.538786 155.102164 
L 353.006858 151.73941 
L 353.474929 179.905574 
L 353.943001 181.607607 
L 354.411073 159.258098 
L 354.879144 167.322098 
L 355.815288 248.358689 
L 356.28336 228.372197 
L 356.751431 174.502033 
L 357.219503 183.739279 
L 357.687575 146.418492 
L 358.155646 153.714098 
L 358.623718 157.89482 
L 359.559862 140.097836 
L 360.027933 143.154885 
L 360.496005 153.978492 
L 360.964077 201.197508 
L 361.432148 170.395672 
L 362.368292 141.335032 
L 362.836364 167.206426 
L 363.304435 159.150689 
L 363.772507 145.055213 
L 364.240579 142.617836 
L 364.708651 129.893902 
L 365.176722 152.565639 
L 365.644794 161.612852 
L 366.112866 153.730623 
L 366.580937 164.91777 
L 367.049009 201.255344 
L 367.517081 194.984262 
L 367.985153 167.14859 
L 368.453224 162.298623 
L 368.921296 163.248787 
L 369.389368 160.712262 
L 369.857439 148.624525 
L 370.793583 157.043803 
L 371.261655 149.566426 
L 371.729726 146.567213 
L 372.197798 151.078426 
L 372.66587 153.448631 
L 373.133941 140.296131 
L 373.602013 143.956328 
L 374.070085 155.044328 
L 374.538157 153.069639 
L 375.006228 164.190689 
L 375.4743 157.382557 
L 375.942372 138.617811 
L 376.410444 166.545443 
L 376.878515 172.932197 
L 377.346587 168.37141 
L 377.814659 168.057443 
L 378.28273 165.520918 
L 378.750802 158.200525 
L 379.218874 145.377443 
L 379.686946 146.980328 
L 380.155017 141.857705 
L 380.623089 135.454426 
L 381.091161 135.165246 
L 381.559232 137.462164 
L 382.027304 150.194361 
L 382.495376 166.702426 
L 382.963448 166.578492 
L 383.899591 170.205639 
L 384.367663 165.744 
L 384.835735 164.876459 
L 385.303806 153.77086 
L 385.771878 150.102401 
L 386.23995 156.45718 
L 386.708021 152.606951 
L 387.644165 137.726557 
L 388.112237 134.652984 
L 388.580308 145.046951 
L 389.04838 151.053639 
L 389.516452 161.976393 
L 389.984523 159.927344 
L 390.452595 170.726164 
L 390.920667 130.100459 
L 391.388739 151.498729 
L 392.324882 137.67591 
L 392.792954 149.012852 
L 393.261025 124.853902 
L 393.729097 124.721705 
L 394.665241 128.191869 
L 395.133312 141.932066 
L 395.601384 108.263213 
L 396.069456 119.16118 
L 396.537528 119.475148 
L 397.005599 105.900197 
L 397.473671 105.58623 
L 397.941743 106.519869 
L 398.409814 113.93941 
L 398.877886 110.609705 
L 399.345958 114.104656 
L 399.81403 150.467016 
L 400.282101 152.516066 
L 400.750173 136.848606 
L 401.218245 134.775844 
L 401.686316 133.554098 
L 402.154388 127.787016 
L 402.62246 120.59882 
L 403.090532 141.031475 
L 403.558603 172.494295 
L 404.026675 170.420459 
L 404.494747 175.055607 
L 404.962818 173.287475 
L 405.43089 170.585705 
L 405.898962 154.300721 
L 406.367034 174.047607 
L 406.835105 154.44118 
L 407.303177 150.062164 
L 407.771249 151.92118 
L 408.239321 153.259672 
L 408.707392 167.487344 
L 409.175464 153.788459 
L 409.643536 150.12 
L 410.111607 151.838557 
L 410.579679 143.683672 
L 411.047751 141.700721 
L 411.515823 138.74282 
L 411.983894 136.611148 
L 412.451966 135.570098 
L 412.920038 130.885377 
L 413.388109 132.248656 
L 413.856181 141.154336 
L 414.324253 135.247869 
L 414.792325 118.607607 
L 415.260396 120.516197 
L 416.19654 138.057049 
L 416.664612 118.310164 
L 417.132683 119.450361 
L 417.600755 117.979672 
L 418.068827 122.251279 
L 418.536898 119.549508 
L 419.00497 119.169443 
L 419.473042 147.92223 
L 419.941114 138.164459 
L 420.409185 144.187672 
L 420.877257 142.602055 
L 421.345329 180.731803 
L 421.8134 185.036459 
L 422.281472 182.210754 
L 422.749544 169.941246 
L 423.217616 172.601705 
L 423.685687 146.435016 
L 424.153759 136.107148 
L 424.621831 138.81718 
L 425.089902 136.437639 
L 425.557974 133.355803 
L 426.026046 133.264918 
L 426.494118 139.048525 
L 427.430261 132.389115 
L 427.898333 138.609549 
L 428.366405 117.483934 
L 428.834476 117.095607 
L 429.302548 125.267016 
L 429.77062 135.387254 
L 430.238691 115.500984 
L 430.706763 117.814426 
L 431.174835 115.674492 
L 431.642907 108.932459 
L 432.110978 116.02977 
L 432.57905 113.584131 
L 433.047122 113.61718 
L 433.515193 112.815738 
L 433.983265 108.444984 
L 434.451337 108.064918 
L 434.919409 137.404328 
L 435.38748 137.172984 
L 435.855552 142.171672 
L 436.323624 150.425705 
L 436.791696 135.635123 
L 437.259767 128.439738 
L 437.727839 116.360262 
L 438.195911 120.433574 
L 438.663982 118.235803 
L 439.132054 117.806164 
L 439.600126 117.632656 
L 440.068198 127.018623 
L 440.536269 117.558295 
L 441.472413 164.785574 
L 441.940484 133.992 
L 442.408556 135.089811 
L 442.876628 117.459148 
L 443.3447 134.190295 
L 443.812771 158.993705 
L 444.280843 159.745574 
L 444.748915 136.057574 
L 445.216986 162.059016 
L 445.685058 164.868197 
L 446.15313 197.89259 
L 446.621202 170.304787 
L 447.089273 170.668328 
L 447.557345 146.244984 
L 448.025417 144.095713 
L 448.493489 149.078951 
L 448.96156 151.920106 
L 449.429632 152.292984 
L 449.897704 147.616525 
L 450.365775 151.136262 
L 450.833847 167.065967 
L 451.301919 167.090754 
L 451.769991 158.093115 
L 452.238062 153.796721 
L 452.706134 148.046164 
L 453.174206 150.871869 
L 453.642277 151.045377 
L 454.110349 144.311607 
L 454.578421 146.344131 
L 455.046493 145.526164 
L 455.514564 143.377967 
L 455.982636 169.462033 
L 456.450708 172.048131 
L 456.918779 171.750689 
L 457.386851 177.707803 
L 458.322995 169.949508 
L 458.791066 176.790689 
L 459.259138 175.204328 
L 459.72721 174.435934 
L 460.195282 174.245902 
L 460.663353 185.639607 
L 461.131425 212.872131 
L 461.599497 211.938492 
L 462.067568 189.985574 
L 462.53564 214.037115 
L 463.003712 194.108459 
L 463.471784 183.417049 
L 463.939855 175.881836 
L 464.407927 179.67423 
L 464.875999 176.03882 
L 465.34407 173.940197 
L 465.812142 189.208918 
L 466.280214 245.491672 
L 466.748286 235.51082 
L 467.216357 218.391344 
L 467.684429 194.918164 
L 468.152501 191.406689 
L 468.620573 192.885639 
L 469.088644 183.111344 
L 469.556716 190.11777 
L 470.024788 218.201311 
L 470.492859 212.591213 
L 470.960931 187.498623 
L 471.429003 211.244459 
L 472.365146 221.712787 
L 472.833218 210.376918 
L 473.30129 216.03659 
L 473.769361 197.843016 
L 474.237433 192.687344 
L 474.705505 200.30518 
L 475.173577 191.604984 
L 475.641648 191.423213 
L 476.10972 193.290492 
L 476.577792 193.521836 
L 477.045863 191.23318 
L 477.513935 178.352262 
L 477.982007 243.409574 
L 478.450079 238.253902 
L 478.91815 215.177311 
L 479.386222 240.030295 
L 479.854294 243.227803 
L 480.322366 268.080787 
L 480.790437 268.997902 
L 481.258509 282.448918 
L 482.194652 294.140066 
L 482.662724 270.195934 
L 483.130796 278.078164 
L 483.598868 235.956984 
L 484.066939 244.58282 
L 484.535011 244.566295 
L 485.003083 228.677902 
L 485.471154 223.059541 
L 485.939226 206.121836 
L 486.87537 270.584262 
L 487.343441 226.157902 
L 487.811513 214.41718 
L 488.279585 207.931279 
L 488.747656 218.34177 
L 489.215728 206.138361 
L 489.6838 221.47318 
L 490.151872 220.316459 
L 490.619943 219.762885 
L 491.088015 219.845508 
L 491.556087 208.236984 
L 492.024159 223.001705 
L 492.960302 245.276852 
L 493.428374 271.947541 
L 493.896445 283.242098 
L 494.364517 248.259541 
L 494.832589 223.670951 
L 495.300661 264.85023 
L 495.768732 239.898098 
L 496.236804 197.355541 
L 496.704876 185.433049 
L 497.172947 161.720262 
L 497.641019 169.941246 
L 497.641019 169.941246 
" clip-path="url(#p4cb0518d1d)" style="fill: none; stroke: #ff7f0e; stroke-width: 1.5; stroke-linecap: round"/>
   </g>
   <g id="patch_3">
    <path d="M 72 384.48 
L 72 51.84 
" style="fill: none; stroke: #ffffff; stroke-width: 0.8; stroke-linejoin: miter; stroke-linecap: square"/>
   </g>
   <g id="patch_4">
    <path d="M 518.4 384.48 
L 518.4 51.84 
" style="fill: none; stroke: #ffffff; stroke-width: 0.8; stroke-linejoin: miter; stroke-linecap: square"/>
   </g>
   <g id="patch_5">
    <path d="M 72 384.48 
L 518.4 384.48 
" style="fill: none; stroke: #ffffff; stroke-width: 0.8; stroke-linejoin: miter; stroke-linecap: square"/>
   </g>
   <g id="patch_6">
    <path d="M 72 51.84 
L 518.4 51.84 
" style="fill: none; stroke: #ffffff; stroke-width: 0.8; stroke-linejoin: miter; stroke-linecap: square"/>
   </g>
   <g id="text_16">
    <!-- Maximum Temperature Prediction 11 Days Ahead -->
    <g style="fill: #262626" transform="translate(163.695937 45.84) scale(0.12 -0.12)">
     <defs>
      <path id="ArialMT-4d" d="M 475 0 
L 475 4581 
L 1388 4581 
L 2472 1338 
Q 2622 884 2691 659 
Q 2769 909 2934 1394 
L 4031 4581 
L 4847 4581 
L 4847 0 
L 4263 0 
L 4263 3834 
L 2931 0 
L 2384 0 
L 1059 3900 
L 1059 0 
L 475 0 
z
" transform="scale(0.015625)"/>
      <path id="ArialMT-78" d="M 47 0 
L 1259 1725 
L 138 3319 
L 841 3319 
L 1350 2541 
Q 1494 2319 1581 2169 
Q 1719 2375 1834 2534 
L 2394 3319 
L 3066 3319 
L 1919 1756 
L 3153 0 
L 2463 0 
L 1781 1031 
L 1600 1309 
L 728 0 
L 47 0 
z
" transform="scale(0.015625)"/>
      <path id="ArialMT-69" d="M 425 3934 
L 425 4581 
L 988 4581 
L 988 3934 
L 425 3934 
z
M 425 0 
L 425 3319 
L 988 3319 
L 988 0 
L 425 0 
z
" transform="scale(0.015625)"/>
      <path id="ArialMT-6d" d="M 422 0 
L 422 3319 
L 925 3319 
L 925 2853 
Q 1081 3097 1340 3245 
Q 1600 3394 1931 3394 
Q 2300 3394 2536 3241 
Q 2772 3088 2869 2813 
Q 3263 3394 3894 3394 
Q 4388 3394 4653 3120 
Q 4919 2847 4919 2278 
L 4919 0 
L 4359 0 
L 4359 2091 
Q 4359 2428 4304 2576 
Q 4250 2725 4106 2815 
Q 3963 2906 3769 2906 
Q 3419 2906 3187 2673 
Q 2956 2441 2956 1928 
L 2956 0 
L 2394 0 
L 2394 2156 
Q 2394 2531 2256 2718 
Q 2119 2906 1806 2906 
Q 1569 2906 1367 2781 
Q 1166 2656 1075 2415 
Q 984 2175 984 1722 
L 984 0 
L 422 0 
z
" transform="scale(0.015625)"/>
      <path id="ArialMT-75" d="M 2597 0 
L 2597 488 
Q 2209 -75 1544 -75 
Q 1250 -75 995 37 
Q 741 150 617 320 
Q 494 491 444 738 
Q 409 903 409 1263 
L 409 3319 
L 972 3319 
L 972 1478 
Q 972 1038 1006 884 
Q 1059 663 1231 536 
Q 1403 409 1656 409 
Q 1909 409 2131 539 
Q 2353 669 2445 892 
Q 2538 1116 2538 1541 
L 2538 3319 
L 3100 3319 
L 3100 0 
L 2597 0 
z
" transform="scale(0.015625)"/>
      <path id="ArialMT-20" transform="scale(0.015625)"/>
      <path id="ArialMT-54" d="M 1659 0 
L 1659 4041 
L 150 4041 
L 150 4581 
L 3781 4581 
L 3781 4041 
L 2266 4041 
L 2266 0 
L 1659 0 
z
" transform="scale(0.015625)"/>
      <path id="ArialMT-65" d="M 2694 1069 
L 3275 997 
Q 3138 488 2766 206 
Q 2394 -75 1816 -75 
Q 1088 -75 661 373 
Q 234 822 234 1631 
Q 234 2469 665 2931 
Q 1097 3394 1784 3394 
Q 2450 3394 2872 2941 
Q 3294 2488 3294 1666 
Q 3294 1616 3291 1516 
L 816 1516 
Q 847 969 1125 678 
Q 1403 388 1819 388 
Q 2128 388 2347 550 
Q 2566 713 2694 1069 
z
M 847 1978 
L 2700 1978 
Q 2663 2397 2488 2606 
Q 2219 2931 1791 2931 
Q 1403 2931 1139 2672 
Q 875 2413 847 1978 
z
" transform="scale(0.015625)"/>
      <path id="ArialMT-70" d="M 422 -1272 
L 422 3319 
L 934 3319 
L 934 2888 
Q 1116 3141 1344 3267 
Q 1572 3394 1897 3394 
Q 2322 3394 2647 3175 
Q 2972 2956 3137 2557 
Q 3303 2159 3303 1684 
Q 3303 1175 3120 767 
Q 2938 359 2589 142 
Q 2241 -75 1856 -75 
Q 1575 -75 1351 44 
Q 1128 163 984 344 
L 984 -1272 
L 422 -1272 
z
M 931 1641 
Q 931 1000 1190 694 
Q 1450 388 1819 388 
Q 2194 388 2461 705 
Q 2728 1022 2728 1688 
Q 2728 2322 2467 2637 
Q 2206 2953 1844 2953 
Q 1484 2953 1207 2617 
Q 931 2281 931 1641 
z
" transform="scale(0.015625)"/>
      <path id="ArialMT-72" d="M 416 0 
L 416 3319 
L 922 3319 
L 922 2816 
Q 1116 3169 1280 3281 
Q 1444 3394 1641 3394 
Q 1925 3394 2219 3213 
L 2025 2691 
Q 1819 2813 1613 2813 
Q 1428 2813 1281 2702 
Q 1134 2591 1072 2394 
Q 978 2094 978 1738 
L 978 0 
L 416 0 
z
" transform="scale(0.015625)"/>
      <path id="ArialMT-74" d="M 1650 503 
L 1731 6 
Q 1494 -44 1306 -44 
Q 1000 -44 831 53 
Q 663 150 594 308 
Q 525 466 525 972 
L 525 2881 
L 113 2881 
L 113 3319 
L 525 3319 
L 525 4141 
L 1084 4478 
L 1084 3319 
L 1650 3319 
L 1650 2881 
L 1084 2881 
L 1084 941 
Q 1084 700 1114 631 
Q 1144 563 1211 522 
Q 1278 481 1403 481 
Q 1497 481 1650 503 
z
" transform="scale(0.015625)"/>
      <path id="ArialMT-50" d="M 494 0 
L 494 4581 
L 2222 4581 
Q 2678 4581 2919 4538 
Q 3256 4481 3484 4323 
Q 3713 4166 3852 3881 
Q 3991 3597 3991 3256 
Q 3991 2672 3619 2267 
Q 3247 1863 2275 1863 
L 1100 1863 
L 1100 0 
L 494 0 
z
M 1100 2403 
L 2284 2403 
Q 2872 2403 3119 2622 
Q 3366 2841 3366 3238 
Q 3366 3525 3220 3729 
Q 3075 3934 2838 4000 
Q 2684 4041 2272 4041 
L 1100 4041 
L 1100 2403 
z
" transform="scale(0.015625)"/>
      <path id="ArialMT-64" d="M 2575 0 
L 2575 419 
Q 2259 -75 1647 -75 
Q 1250 -75 917 144 
Q 584 363 401 755 
Q 219 1147 219 1656 
Q 219 2153 384 2558 
Q 550 2963 881 3178 
Q 1213 3394 1622 3394 
Q 1922 3394 2156 3267 
Q 2391 3141 2538 2938 
L 2538 4581 
L 3097 4581 
L 3097 0 
L 2575 0 
z
M 797 1656 
Q 797 1019 1065 703 
Q 1334 388 1700 388 
Q 2069 388 2326 689 
Q 2584 991 2584 1609 
Q 2584 2291 2321 2609 
Q 2059 2928 1675 2928 
Q 1300 2928 1048 2622 
Q 797 2316 797 1656 
z
" transform="scale(0.015625)"/>
      <path id="ArialMT-63" d="M 2588 1216 
L 3141 1144 
Q 3050 572 2676 248 
Q 2303 -75 1759 -75 
Q 1078 -75 664 370 
Q 250 816 250 1647 
Q 250 2184 428 2587 
Q 606 2991 970 3192 
Q 1334 3394 1763 3394 
Q 2303 3394 2647 3120 
Q 2991 2847 3088 2344 
L 2541 2259 
Q 2463 2594 2264 2762 
Q 2066 2931 1784 2931 
Q 1359 2931 1093 2626 
Q 828 2322 828 1663 
Q 828 994 1084 691 
Q 1341 388 1753 388 
Q 2084 388 2306 591 
Q 2528 794 2588 1216 
z
" transform="scale(0.015625)"/>
      <path id="ArialMT-6f" d="M 213 1659 
Q 213 2581 725 3025 
Q 1153 3394 1769 3394 
Q 2453 3394 2887 2945 
Q 3322 2497 3322 1706 
Q 3322 1066 3130 698 
Q 2938 331 2570 128 
Q 2203 -75 1769 -75 
Q 1072 -75 642 372 
Q 213 819 213 1659 
z
M 791 1659 
Q 791 1022 1069 705 
Q 1347 388 1769 388 
Q 2188 388 2466 706 
Q 2744 1025 2744 1678 
Q 2744 2294 2464 2611 
Q 2184 2928 1769 2928 
Q 1347 2928 1069 2612 
Q 791 2297 791 1659 
z
" transform="scale(0.015625)"/>
      <path id="ArialMT-6e" d="M 422 0 
L 422 3319 
L 928 3319 
L 928 2847 
Q 1294 3394 1984 3394 
Q 2284 3394 2536 3286 
Q 2788 3178 2913 3003 
Q 3038 2828 3088 2588 
Q 3119 2431 3119 2041 
L 3119 0 
L 2556 0 
L 2556 2019 
Q 2556 2363 2490 2533 
Q 2425 2703 2258 2804 
Q 2091 2906 1866 2906 
Q 1506 2906 1245 2678 
Q 984 2450 984 1813 
L 984 0 
L 422 0 
z
" transform="scale(0.015625)"/>
      <path id="ArialMT-41" d="M -9 0 
L 1750 4581 
L 2403 4581 
L 4278 0 
L 3588 0 
L 3053 1388 
L 1138 1388 
L 634 0 
L -9 0 
z
M 1313 1881 
L 2866 1881 
L 2388 3150 
Q 2169 3728 2063 4100 
Q 1975 3659 1816 3225 
L 1313 1881 
z
" transform="scale(0.015625)"/>
      <path id="ArialMT-68" d="M 422 0 
L 422 4581 
L 984 4581 
L 984 2938 
Q 1378 3394 1978 3394 
Q 2347 3394 2619 3248 
Q 2891 3103 3008 2847 
Q 3125 2591 3125 2103 
L 3125 0 
L 2563 0 
L 2563 2103 
Q 2563 2525 2380 2717 
Q 2197 2909 1863 2909 
Q 1613 2909 1392 2779 
Q 1172 2650 1078 2428 
Q 984 2206 984 1816 
L 984 0 
L 422 0 
z
" transform="scale(0.015625)"/>
     </defs>
     <use xlink:href="#ArialMT-4d"/>
     <use xlink:href="#ArialMT-61" x="83.300781"/>
     <use xlink:href="#ArialMT-78" x="138.916016"/>
     <use xlink:href="#ArialMT-69" x="188.916016"/>
     <use xlink:href="#ArialMT-6d" x="211.132812"/>
     <use xlink:href="#ArialMT-75" x="294.433594"/>
     <use xlink:href="#ArialMT-6d" x="350.048828"/>
     <use xlink:href="#ArialMT-20" x="433.349609"/>
     <use xlink:href="#ArialMT-54" x="459.382812"/>
     <use xlink:href="#ArialMT-65" x="509.341797"/>
     <use xlink:href="#ArialMT-6d" x="564.957031"/>
     <use xlink:href="#ArialMT-70" x="648.257812"/>
     <use xlink:href="#ArialMT-65" x="703.873047"/>
     <use xlink:href="#ArialMT-72" x="759.488281"/>
     <use xlink:href="#ArialMT-61" x="792.789062"/>
     <use xlink:href="#ArialMT-74" x="848.404297"/>
     <use xlink:href="#ArialMT-75" x="876.1875"/>
     <use xlink:href="#ArialMT-72" x="931.802734"/>
     <use xlink:href="#ArialMT-65" x="965.103516"/>
     <use xlink:href="#ArialMT-20" x="1020.71875"/>
     <use xlink:href="#ArialMT-50" x="1048.501953"/>
     <use xlink:href="#ArialMT-72" x="1115.201172"/>
     <use xlink:href="#ArialMT-65" x="1148.501953"/>
     <use xlink:href="#ArialMT-64" x="1204.117188"/>
     <use xlink:href="#ArialMT-69" x="1259.732422"/>
     <use xlink:href="#ArialMT-63" x="1281.949219"/>
     <use xlink:href="#ArialMT-74" x="1331.949219"/>
     <use xlink:href="#ArialMT-69" x="1359.732422"/>
     <use xlink:href="#ArialMT-6f" x="1381.949219"/>
     <use xlink:href="#ArialMT-6e" x="1437.564453"/>
     <use xlink:href="#ArialMT-20" x="1493.179688"/>
     <use xlink:href="#ArialMT-31" x="1520.962891"/>
     <use xlink:href="#ArialMT-31" x="1569.203125"/>
     <use xlink:href="#ArialMT-20" x="1624.818359"/>
     <use xlink:href="#ArialMT-44" x="1652.601562"/>
     <use xlink:href="#ArialMT-61" x="1724.818359"/>
     <use xlink:href="#ArialMT-79" x="1780.433594"/>
     <use xlink:href="#ArialMT-73" x="1830.433594"/>
     <use xlink:href="#ArialMT-20" x="1880.433594"/>
     <use xlink:href="#ArialMT-41" x="1902.716797"/>
     <use xlink:href="#ArialMT-68" x="1969.416016"/>
     <use xlink:href="#ArialMT-65" x="2025.03125"/>
     <use xlink:href="#ArialMT-61" x="2080.646484"/>
     <use xlink:href="#ArialMT-64" x="2136.261719"/>
    </g>
   </g>
   <g id="legend_1">
    <g id="patch_7">
     <path d="M 437.15625 88.130625 
L 511.4 88.130625 
Q 513.4 88.130625 513.4 86.130625 
L 513.4 58.84 
Q 513.4 56.84 511.4 56.84 
L 437.15625 56.84 
Q 435.15625 56.84 435.15625 58.84 
L 435.15625 86.130625 
Q 435.15625 88.130625 437.15625 88.130625 
z
" style="fill: #eaeaf2; opacity: 0.8; stroke: #cccccc; stroke-linejoin: miter"/>
    </g>
    <g id="line2d_16">
     <path d="M 439.15625 64.497812 
L 449.15625 64.497812 
L 459.15625 64.497812 
" style="fill: none; stroke: #1f77b4; stroke-width: 1.5; stroke-linecap: round"/>
    </g>
    <g id="text_17">
     <!-- Real -->
     <g style="fill: #262626" transform="translate(467.15625 67.997812) scale(0.1 -0.1)">
      <defs>
       <path id="ArialMT-52" d="M 503 0 
L 503 4581 
L 2534 4581 
Q 3147 4581 3465 4457 
Q 3784 4334 3975 4021 
Q 4166 3709 4166 3331 
Q 4166 2844 3850 2509 
Q 3534 2175 2875 2084 
Q 3116 1969 3241 1856 
Q 3506 1613 3744 1247 
L 4541 0 
L 3778 0 
L 3172 953 
Q 2906 1366 2734 1584 
Q 2563 1803 2427 1890 
Q 2291 1978 2150 2013 
Q 2047 2034 1813 2034 
L 1109 2034 
L 1109 0 
L 503 0 
z
M 1109 2559 
L 2413 2559 
Q 2828 2559 3062 2645 
Q 3297 2731 3419 2920 
Q 3541 3109 3541 3331 
Q 3541 3656 3305 3865 
Q 3069 4075 2559 4075 
L 1109 4075 
L 1109 2559 
z
" transform="scale(0.015625)"/>
       <path id="ArialMT-6c" d="M 409 0 
L 409 4581 
L 972 4581 
L 972 0 
L 409 0 
z
" transform="scale(0.015625)"/>
      </defs>
      <use xlink:href="#ArialMT-52"/>
      <use xlink:href="#ArialMT-65" x="72.216797"/>
      <use xlink:href="#ArialMT-61" x="127.832031"/>
      <use xlink:href="#ArialMT-6c" x="183.447266"/>
     </g>
    </g>
    <g id="line2d_17">
     <path d="M 439.15625 78.643125 
L 449.15625 78.643125 
L 459.15625 78.643125 
" style="fill: none; stroke: #ff7f0e; stroke-width: 1.5; stroke-linecap: round"/>
    </g>
    <g id="text_18">
     <!-- Predicted -->
     <g style="fill: #262626" transform="translate(467.15625 82.143125) scale(0.1 -0.1)">
      <use xlink:href="#ArialMT-50"/>
      <use xlink:href="#ArialMT-72" x="66.699219"/>
      <use xlink:href="#ArialMT-65" x="100"/>
      <use xlink:href="#ArialMT-64" x="155.615234"/>
      <use xlink:href="#ArialMT-69" x="211.230469"/>
      <use xlink:href="#ArialMT-63" x="233.447266"/>
      <use xlink:href="#ArialMT-74" x="283.447266"/>
      <use xlink:href="#ArialMT-65" x="311.230469"/>
      <use xlink:href="#ArialMT-64" x="366.845703"/>
     </g>
    </g>
   </g>
  </g>
 </g>
 <defs>
  <clipPath id="p4cb0518d1d">
   <rect x="72" y="51.84" width="446.4" height="332.64"/>
  </clipPath>
 </defs>
</svg>
