<?xml version="1.0" encoding="utf-8" standalone="no"?>
<!DOCTYPE svg PUBLIC "-//W3C//DTD SVG 1.1//EN"
  "http://www.w3.org/Graphics/SVG/1.1/DTD/svg11.dtd">
<svg xmlns:xlink="http://www.w3.org/1999/xlink" width="576pt" height="432pt" viewBox="0 0 576 432" xmlns="http://www.w3.org/2000/svg" version="1.1">
 <metadata>
  <rdf:RDF xmlns:dc="http://purl.org/dc/elements/1.1/" xmlns:cc="http://creativecommons.org/ns#" xmlns:rdf="http://www.w3.org/1999/02/22-rdf-syntax-ns#">
   <cc:Work>
    <dc:type rdf:resource="http://purl.org/dc/dcmitype/StillImage"/>
    <dc:date>2023-11-17T05:04:45.073595</dc:date>
    <dc:format>image/svg+xml</dc:format>
    <dc:creator>
     <cc:Agent>
      <dc:title>Matplotlib v3.8.0, https://matplotlib.org/</dc:title>
     </cc:Agent>
    </dc:creator>
   </cc:Work>
  </rdf:RDF>
 </metadata>
 <defs>
  <style type="text/css">*{stroke-linejoin: round; stroke-linecap: butt}</style>
 </defs>
 <g id="figure_1">
  <g id="patch_1">
   <path d="M 0 432 
L 576 432 
L 576 0 
L 0 0 
z
" style="fill: #ffffff"/>
  </g>
  <g id="axes_1">
   <g id="patch_2">
    <path d="M 72 384.48 
L 518.4 384.48 
L 518.4 51.84 
L 72 51.84 
z
" style="fill: #eaeaf2"/>
   </g>
   <g id="matplotlib.axis_1">
    <g id="xtick_1">
     <g id="line2d_1">
      <path d="M 92.290909 384.48 
L 92.290909 51.84 
" clip-path="url(#p2b2e3c7528)" style="fill: none; stroke: #ffffff; stroke-width: 0.8; stroke-linecap: round"/>
     </g>
     <g id="text_1">
      <!-- 0 -->
      <g style="fill: #262626" transform="translate(89.51044 398.637812) scale(0.1 -0.1)">
       <defs>
        <path id="ArialMT-30" d="M 266 2259 
Q 266 3072 433 3567 
Q 600 4063 929 4331 
Q 1259 4600 1759 4600 
Q 2128 4600 2406 4451 
Q 2684 4303 2865 4023 
Q 3047 3744 3150 3342 
Q 3253 2941 3253 2259 
Q 3253 1453 3087 958 
Q 2922 463 2592 192 
Q 2263 -78 1759 -78 
Q 1097 -78 719 397 
Q 266 969 266 2259 
z
M 844 2259 
Q 844 1131 1108 757 
Q 1372 384 1759 384 
Q 2147 384 2411 759 
Q 2675 1134 2675 2259 
Q 2675 3391 2411 3762 
Q 2147 4134 1753 4134 
Q 1366 4134 1134 3806 
Q 844 3388 844 2259 
z
" transform="scale(0.015625)"/>
       </defs>
       <use xlink:href="#ArialMT-30"/>
      </g>
     </g>
    </g>
    <g id="xtick_2">
     <g id="line2d_2">
      <path d="M 185.049351 384.48 
L 185.049351 51.84 
" clip-path="url(#p2b2e3c7528)" style="fill: none; stroke: #ffffff; stroke-width: 0.8; stroke-linecap: round"/>
     </g>
     <g id="text_2">
      <!-- 200 -->
      <g style="fill: #262626" transform="translate(176.707944 398.637812) scale(0.1 -0.1)">
       <defs>
        <path id="ArialMT-32" d="M 3222 541 
L 3222 0 
L 194 0 
Q 188 203 259 391 
Q 375 700 629 1000 
Q 884 1300 1366 1694 
Q 2113 2306 2375 2664 
Q 2638 3022 2638 3341 
Q 2638 3675 2398 3904 
Q 2159 4134 1775 4134 
Q 1369 4134 1125 3890 
Q 881 3647 878 3216 
L 300 3275 
Q 359 3922 746 4261 
Q 1134 4600 1788 4600 
Q 2447 4600 2831 4234 
Q 3216 3869 3216 3328 
Q 3216 3053 3103 2787 
Q 2991 2522 2730 2228 
Q 2469 1934 1863 1422 
Q 1356 997 1212 845 
Q 1069 694 975 541 
L 3222 541 
z
" transform="scale(0.015625)"/>
       </defs>
       <use xlink:href="#ArialMT-32"/>
       <use xlink:href="#ArialMT-30" x="55.615234"/>
       <use xlink:href="#ArialMT-30" x="111.230469"/>
      </g>
     </g>
    </g>
    <g id="xtick_3">
     <g id="line2d_3">
      <path d="M 277.807792 384.48 
L 277.807792 51.84 
" clip-path="url(#p2b2e3c7528)" style="fill: none; stroke: #ffffff; stroke-width: 0.8; stroke-linecap: round"/>
     </g>
     <g id="text_3">
      <!-- 400 -->
      <g style="fill: #262626" transform="translate(269.466386 398.637812) scale(0.1 -0.1)">
       <defs>
        <path id="ArialMT-34" d="M 2069 0 
L 2069 1097 
L 81 1097 
L 81 1613 
L 2172 4581 
L 2631 4581 
L 2631 1613 
L 3250 1613 
L 3250 1097 
L 2631 1097 
L 2631 0 
L 2069 0 
z
M 2069 1613 
L 2069 3678 
L 634 1613 
L 2069 1613 
z
" transform="scale(0.015625)"/>
       </defs>
       <use xlink:href="#ArialMT-34"/>
       <use xlink:href="#ArialMT-30" x="55.615234"/>
       <use xlink:href="#ArialMT-30" x="111.230469"/>
      </g>
     </g>
    </g>
    <g id="xtick_4">
     <g id="line2d_4">
      <path d="M 370.566234 384.48 
L 370.566234 51.84 
" clip-path="url(#p2b2e3c7528)" style="fill: none; stroke: #ffffff; stroke-width: 0.8; stroke-linecap: round"/>
     </g>
     <g id="text_4">
      <!-- 600 -->
      <g style="fill: #262626" transform="translate(362.224828 398.637812) scale(0.1 -0.1)">
       <defs>
        <path id="ArialMT-36" d="M 3184 3459 
L 2625 3416 
Q 2550 3747 2413 3897 
Q 2184 4138 1850 4138 
Q 1581 4138 1378 3988 
Q 1113 3794 959 3422 
Q 806 3050 800 2363 
Q 1003 2672 1297 2822 
Q 1591 2972 1913 2972 
Q 2475 2972 2870 2558 
Q 3266 2144 3266 1488 
Q 3266 1056 3080 686 
Q 2894 316 2569 119 
Q 2244 -78 1831 -78 
Q 1128 -78 684 439 
Q 241 956 241 2144 
Q 241 3472 731 4075 
Q 1159 4600 1884 4600 
Q 2425 4600 2770 4297 
Q 3116 3994 3184 3459 
z
M 888 1484 
Q 888 1194 1011 928 
Q 1134 663 1356 523 
Q 1578 384 1822 384 
Q 2178 384 2434 671 
Q 2691 959 2691 1453 
Q 2691 1928 2437 2201 
Q 2184 2475 1800 2475 
Q 1419 2475 1153 2201 
Q 888 1928 888 1484 
z
" transform="scale(0.015625)"/>
       </defs>
       <use xlink:href="#ArialMT-36"/>
       <use xlink:href="#ArialMT-30" x="55.615234"/>
       <use xlink:href="#ArialMT-30" x="111.230469"/>
      </g>
     </g>
    </g>
    <g id="xtick_5">
     <g id="line2d_5">
      <path d="M 463.324675 384.48 
L 463.324675 51.84 
" clip-path="url(#p2b2e3c7528)" style="fill: none; stroke: #ffffff; stroke-width: 0.8; stroke-linecap: round"/>
     </g>
     <g id="text_5">
      <!-- 800 -->
      <g style="fill: #262626" transform="translate(454.983269 398.637812) scale(0.1 -0.1)">
       <defs>
        <path id="ArialMT-38" d="M 1131 2484 
Q 781 2613 612 2850 
Q 444 3088 444 3419 
Q 444 3919 803 4259 
Q 1163 4600 1759 4600 
Q 2359 4600 2725 4251 
Q 3091 3903 3091 3403 
Q 3091 3084 2923 2848 
Q 2756 2613 2416 2484 
Q 2838 2347 3058 2040 
Q 3278 1734 3278 1309 
Q 3278 722 2862 322 
Q 2447 -78 1769 -78 
Q 1091 -78 675 323 
Q 259 725 259 1325 
Q 259 1772 486 2073 
Q 713 2375 1131 2484 
z
M 1019 3438 
Q 1019 3113 1228 2906 
Q 1438 2700 1772 2700 
Q 2097 2700 2305 2904 
Q 2513 3109 2513 3406 
Q 2513 3716 2298 3927 
Q 2084 4138 1766 4138 
Q 1444 4138 1231 3931 
Q 1019 3725 1019 3438 
z
M 838 1322 
Q 838 1081 952 856 
Q 1066 631 1291 507 
Q 1516 384 1775 384 
Q 2178 384 2440 643 
Q 2703 903 2703 1303 
Q 2703 1709 2433 1975 
Q 2163 2241 1756 2241 
Q 1359 2241 1098 1978 
Q 838 1716 838 1322 
z
" transform="scale(0.015625)"/>
       </defs>
       <use xlink:href="#ArialMT-38"/>
       <use xlink:href="#ArialMT-30" x="55.615234"/>
       <use xlink:href="#ArialMT-30" x="111.230469"/>
      </g>
     </g>
    </g>
    <g id="text_6">
     <!-- Days -->
     <g style="fill: #262626" transform="translate(283.808594 411.783125) scale(0.1 -0.1)">
      <defs>
       <path id="ArialMT-44" d="M 494 0 
L 494 4581 
L 2072 4581 
Q 2606 4581 2888 4516 
Q 3281 4425 3559 4188 
Q 3922 3881 4101 3404 
Q 4281 2928 4281 2316 
Q 4281 1794 4159 1391 
Q 4038 988 3847 723 
Q 3656 459 3429 307 
Q 3203 156 2883 78 
Q 2563 0 2147 0 
L 494 0 
z
M 1100 541 
L 2078 541 
Q 2531 541 2789 625 
Q 3047 709 3200 863 
Q 3416 1078 3536 1442 
Q 3656 1806 3656 2325 
Q 3656 3044 3420 3430 
Q 3184 3816 2847 3947 
Q 2603 4041 2063 4041 
L 1100 4041 
L 1100 541 
z
" transform="scale(0.015625)"/>
       <path id="ArialMT-61" d="M 2588 409 
Q 2275 144 1986 34 
Q 1697 -75 1366 -75 
Q 819 -75 525 192 
Q 231 459 231 875 
Q 231 1119 342 1320 
Q 453 1522 633 1644 
Q 813 1766 1038 1828 
Q 1203 1872 1538 1913 
Q 2219 1994 2541 2106 
Q 2544 2222 2544 2253 
Q 2544 2597 2384 2738 
Q 2169 2928 1744 2928 
Q 1347 2928 1158 2789 
Q 969 2650 878 2297 
L 328 2372 
Q 403 2725 575 2942 
Q 747 3159 1072 3276 
Q 1397 3394 1825 3394 
Q 2250 3394 2515 3294 
Q 2781 3194 2906 3042 
Q 3031 2891 3081 2659 
Q 3109 2516 3109 2141 
L 3109 1391 
Q 3109 606 3145 398 
Q 3181 191 3288 0 
L 2700 0 
Q 2613 175 2588 409 
z
M 2541 1666 
Q 2234 1541 1622 1453 
Q 1275 1403 1131 1340 
Q 988 1278 909 1158 
Q 831 1038 831 891 
Q 831 666 1001 516 
Q 1172 366 1500 366 
Q 1825 366 2078 508 
Q 2331 650 2450 897 
Q 2541 1088 2541 1459 
L 2541 1666 
z
" transform="scale(0.015625)"/>
       <path id="ArialMT-79" d="M 397 -1278 
L 334 -750 
Q 519 -800 656 -800 
Q 844 -800 956 -737 
Q 1069 -675 1141 -563 
Q 1194 -478 1313 -144 
Q 1328 -97 1363 -6 
L 103 3319 
L 709 3319 
L 1400 1397 
Q 1534 1031 1641 628 
Q 1738 1016 1872 1384 
L 2581 3319 
L 3144 3319 
L 1881 -56 
Q 1678 -603 1566 -809 
Q 1416 -1088 1222 -1217 
Q 1028 -1347 759 -1347 
Q 597 -1347 397 -1278 
z
" transform="scale(0.015625)"/>
       <path id="ArialMT-73" d="M 197 991 
L 753 1078 
Q 800 744 1014 566 
Q 1228 388 1613 388 
Q 2000 388 2187 545 
Q 2375 703 2375 916 
Q 2375 1106 2209 1216 
Q 2094 1291 1634 1406 
Q 1016 1563 777 1677 
Q 538 1791 414 1992 
Q 291 2194 291 2438 
Q 291 2659 392 2848 
Q 494 3038 669 3163 
Q 800 3259 1026 3326 
Q 1253 3394 1513 3394 
Q 1903 3394 2198 3281 
Q 2494 3169 2634 2976 
Q 2775 2784 2828 2463 
L 2278 2388 
Q 2241 2644 2061 2787 
Q 1881 2931 1553 2931 
Q 1166 2931 1000 2803 
Q 834 2675 834 2503 
Q 834 2394 903 2306 
Q 972 2216 1119 2156 
Q 1203 2125 1616 2013 
Q 2213 1853 2448 1751 
Q 2684 1650 2818 1456 
Q 2953 1263 2953 975 
Q 2953 694 2789 445 
Q 2625 197 2315 61 
Q 2006 -75 1616 -75 
Q 969 -75 630 194 
Q 291 463 197 991 
z
" transform="scale(0.015625)"/>
      </defs>
      <use xlink:href="#ArialMT-44"/>
      <use xlink:href="#ArialMT-61" x="72.216797"/>
      <use xlink:href="#ArialMT-79" x="127.832031"/>
      <use xlink:href="#ArialMT-73" x="177.832031"/>
     </g>
    </g>
   </g>
   <g id="matplotlib.axis_2">
    <g id="ytick_1">
     <g id="line2d_6">
      <path d="M 72 353.878044 
L 518.4 353.878044 
" clip-path="url(#p2b2e3c7528)" style="fill: none; stroke: #ffffff; stroke-width: 0.8; stroke-linecap: round"/>
     </g>
     <g id="text_7">
      <!-- 1000 -->
      <g style="fill: #262626" transform="translate(42.75625 357.45695) scale(0.1 -0.1)">
       <defs>
        <path id="ArialMT-31" d="M 2384 0 
L 1822 0 
L 1822 3584 
Q 1619 3391 1289 3197 
Q 959 3003 697 2906 
L 697 3450 
Q 1169 3672 1522 3987 
Q 1875 4303 2022 4600 
L 2384 4600 
L 2384 0 
z
" transform="scale(0.015625)"/>
       </defs>
       <use xlink:href="#ArialMT-31"/>
       <use xlink:href="#ArialMT-30" x="55.615234"/>
       <use xlink:href="#ArialMT-30" x="111.230469"/>
       <use xlink:href="#ArialMT-30" x="166.845703"/>
      </g>
     </g>
    </g>
    <g id="ytick_2">
     <g id="line2d_7">
      <path d="M 72 313.504961 
L 518.4 313.504961 
" clip-path="url(#p2b2e3c7528)" style="fill: none; stroke: #ffffff; stroke-width: 0.8; stroke-linecap: round"/>
     </g>
     <g id="text_8">
      <!-- 1005 -->
      <g style="fill: #262626" transform="translate(42.75625 317.083867) scale(0.1 -0.1)">
       <defs>
        <path id="ArialMT-35" d="M 266 1200 
L 856 1250 
Q 922 819 1161 601 
Q 1400 384 1738 384 
Q 2144 384 2425 690 
Q 2706 997 2706 1503 
Q 2706 1984 2436 2262 
Q 2166 2541 1728 2541 
Q 1456 2541 1237 2417 
Q 1019 2294 894 2097 
L 366 2166 
L 809 4519 
L 3088 4519 
L 3088 3981 
L 1259 3981 
L 1013 2750 
Q 1425 3038 1878 3038 
Q 2478 3038 2890 2622 
Q 3303 2206 3303 1553 
Q 3303 931 2941 478 
Q 2500 -78 1738 -78 
Q 1113 -78 717 272 
Q 322 622 266 1200 
z
" transform="scale(0.015625)"/>
       </defs>
       <use xlink:href="#ArialMT-31"/>
       <use xlink:href="#ArialMT-30" x="55.615234"/>
       <use xlink:href="#ArialMT-30" x="111.230469"/>
       <use xlink:href="#ArialMT-35" x="166.845703"/>
      </g>
     </g>
    </g>
    <g id="ytick_3">
     <g id="line2d_8">
      <path d="M 72 273.131878 
L 518.4 273.131878 
" clip-path="url(#p2b2e3c7528)" style="fill: none; stroke: #ffffff; stroke-width: 0.8; stroke-linecap: round"/>
     </g>
     <g id="text_9">
      <!-- 1010 -->
      <g style="fill: #262626" transform="translate(42.75625 276.710784) scale(0.1 -0.1)">
       <use xlink:href="#ArialMT-31"/>
       <use xlink:href="#ArialMT-30" x="55.615234"/>
       <use xlink:href="#ArialMT-31" x="111.230469"/>
       <use xlink:href="#ArialMT-30" x="166.845703"/>
      </g>
     </g>
    </g>
    <g id="ytick_4">
     <g id="line2d_9">
      <path d="M 72 232.758795 
L 518.4 232.758795 
" clip-path="url(#p2b2e3c7528)" style="fill: none; stroke: #ffffff; stroke-width: 0.8; stroke-linecap: round"/>
     </g>
     <g id="text_10">
      <!-- 1015 -->
      <g style="fill: #262626" transform="translate(42.75625 236.337701) scale(0.1 -0.1)">
       <use xlink:href="#ArialMT-31"/>
       <use xlink:href="#ArialMT-30" x="55.615234"/>
       <use xlink:href="#ArialMT-31" x="111.230469"/>
       <use xlink:href="#ArialMT-35" x="166.845703"/>
      </g>
     </g>
    </g>
    <g id="ytick_5">
     <g id="line2d_10">
      <path d="M 72 192.385712 
L 518.4 192.385712 
" clip-path="url(#p2b2e3c7528)" style="fill: none; stroke: #ffffff; stroke-width: 0.8; stroke-linecap: round"/>
     </g>
     <g id="text_11">
      <!-- 1020 -->
      <g style="fill: #262626" transform="translate(42.75625 195.964618) scale(0.1 -0.1)">
       <use xlink:href="#ArialMT-31"/>
       <use xlink:href="#ArialMT-30" x="55.615234"/>
       <use xlink:href="#ArialMT-32" x="111.230469"/>
       <use xlink:href="#ArialMT-30" x="166.845703"/>
      </g>
     </g>
    </g>
    <g id="ytick_6">
     <g id="line2d_11">
      <path d="M 72 152.012628 
L 518.4 152.012628 
" clip-path="url(#p2b2e3c7528)" style="fill: none; stroke: #ffffff; stroke-width: 0.8; stroke-linecap: round"/>
     </g>
     <g id="text_12">
      <!-- 1025 -->
      <g style="fill: #262626" transform="translate(42.75625 155.591535) scale(0.1 -0.1)">
       <use xlink:href="#ArialMT-31"/>
       <use xlink:href="#ArialMT-30" x="55.615234"/>
       <use xlink:href="#ArialMT-32" x="111.230469"/>
       <use xlink:href="#ArialMT-35" x="166.845703"/>
      </g>
     </g>
    </g>
    <g id="ytick_7">
     <g id="line2d_12">
      <path d="M 72 111.639545 
L 518.4 111.639545 
" clip-path="url(#p2b2e3c7528)" style="fill: none; stroke: #ffffff; stroke-width: 0.8; stroke-linecap: round"/>
     </g>
     <g id="text_13">
      <!-- 1030 -->
      <g style="fill: #262626" transform="translate(42.75625 115.218452) scale(0.1 -0.1)">
       <defs>
        <path id="ArialMT-33" d="M 269 1209 
L 831 1284 
Q 928 806 1161 595 
Q 1394 384 1728 384 
Q 2125 384 2398 659 
Q 2672 934 2672 1341 
Q 2672 1728 2419 1979 
Q 2166 2231 1775 2231 
Q 1616 2231 1378 2169 
L 1441 2663 
Q 1497 2656 1531 2656 
Q 1891 2656 2178 2843 
Q 2466 3031 2466 3422 
Q 2466 3731 2256 3934 
Q 2047 4138 1716 4138 
Q 1388 4138 1169 3931 
Q 950 3725 888 3313 
L 325 3413 
Q 428 3978 793 4289 
Q 1159 4600 1703 4600 
Q 2078 4600 2393 4439 
Q 2709 4278 2876 4000 
Q 3044 3722 3044 3409 
Q 3044 3113 2884 2869 
Q 2725 2625 2413 2481 
Q 2819 2388 3044 2092 
Q 3269 1797 3269 1353 
Q 3269 753 2831 336 
Q 2394 -81 1725 -81 
Q 1122 -81 723 278 
Q 325 638 269 1209 
z
" transform="scale(0.015625)"/>
       </defs>
       <use xlink:href="#ArialMT-31"/>
       <use xlink:href="#ArialMT-30" x="55.615234"/>
       <use xlink:href="#ArialMT-33" x="111.230469"/>
       <use xlink:href="#ArialMT-30" x="166.845703"/>
      </g>
     </g>
    </g>
    <g id="ytick_8">
     <g id="line2d_13">
      <path d="M 72 71.266462 
L 518.4 71.266462 
" clip-path="url(#p2b2e3c7528)" style="fill: none; stroke: #ffffff; stroke-width: 0.8; stroke-linecap: round"/>
     </g>
     <g id="text_14">
      <!-- 1035 -->
      <g style="fill: #262626" transform="translate(42.75625 74.845368) scale(0.1 -0.1)">
       <use xlink:href="#ArialMT-31"/>
       <use xlink:href="#ArialMT-30" x="55.615234"/>
       <use xlink:href="#ArialMT-33" x="111.230469"/>
       <use xlink:href="#ArialMT-35" x="166.845703"/>
      </g>
     </g>
    </g>
    <g id="text_15">
     <!-- (hPa) -->
     <g style="fill: #262626" transform="translate(36.651562 230.385781) rotate(-90) scale(0.1 -0.1)">
      <defs>
       <path id="ArialMT-28" d="M 1497 -1347 
Q 1031 -759 709 28 
Q 388 816 388 1659 
Q 388 2403 628 3084 
Q 909 3875 1497 4659 
L 1900 4659 
Q 1522 4009 1400 3731 
Q 1209 3300 1100 2831 
Q 966 2247 966 1656 
Q 966 153 1900 -1347 
L 1497 -1347 
z
" transform="scale(0.015625)"/>
       <path id="ArialMT-68" d="M 422 0 
L 422 4581 
L 984 4581 
L 984 2938 
Q 1378 3394 1978 3394 
Q 2347 3394 2619 3248 
Q 2891 3103 3008 2847 
Q 3125 2591 3125 2103 
L 3125 0 
L 2563 0 
L 2563 2103 
Q 2563 2525 2380 2717 
Q 2197 2909 1863 2909 
Q 1613 2909 1392 2779 
Q 1172 2650 1078 2428 
Q 984 2206 984 1816 
L 984 0 
L 422 0 
z
" transform="scale(0.015625)"/>
       <path id="ArialMT-50" d="M 494 0 
L 494 4581 
L 2222 4581 
Q 2678 4581 2919 4538 
Q 3256 4481 3484 4323 
Q 3713 4166 3852 3881 
Q 3991 3597 3991 3256 
Q 3991 2672 3619 2267 
Q 3247 1863 2275 1863 
L 1100 1863 
L 1100 0 
L 494 0 
z
M 1100 2403 
L 2284 2403 
Q 2872 2403 3119 2622 
Q 3366 2841 3366 3238 
Q 3366 3525 3220 3729 
Q 3075 3934 2838 4000 
Q 2684 4041 2272 4041 
L 1100 4041 
L 1100 2403 
z
" transform="scale(0.015625)"/>
       <path id="ArialMT-29" d="M 791 -1347 
L 388 -1347 
Q 1322 153 1322 1656 
Q 1322 2244 1188 2822 
Q 1081 3291 891 3722 
Q 769 4003 388 4659 
L 791 4659 
Q 1378 3875 1659 3084 
Q 1900 2403 1900 1659 
Q 1900 816 1576 28 
Q 1253 -759 791 -1347 
z
" transform="scale(0.015625)"/>
      </defs>
      <use xlink:href="#ArialMT-28"/>
      <use xlink:href="#ArialMT-68" x="33.300781"/>
      <use xlink:href="#ArialMT-50" x="88.916016"/>
      <use xlink:href="#ArialMT-61" x="155.615234"/>
      <use xlink:href="#ArialMT-29" x="211.230469"/>
     </g>
    </g>
   </g>
   <g id="line2d_14">
    <path d="M 92.290909 265.074083 
L 92.754701 269.352509 
L 93.218494 269.128214 
L 93.682286 260.162025 
L 94.146078 257.285443 
L 94.60987 259.04055 
L 95.537455 274.191671 
L 96.001247 244.08008 
L 96.465039 244.231479 
L 96.928831 264.726426 
L 97.392623 268.393648 
L 97.856416 254.683622 
L 98.320208 228.586909 
L 98.784 227.392539 
L 99.247792 222.626272 
L 99.711584 221.375828 
L 100.175377 222.727205 
L 100.639169 227.140207 
L 101.102961 244.007184 
L 101.566753 249.109893 
L 102.030545 261.176959 
L 102.494338 276.90564 
L 102.95813 285.232588 
L 103.885714 326.52528 
L 104.349506 281.015844 
L 104.813299 255.070531 
L 105.277091 271.814145 
L 105.740883 299.755683 
L 106.204675 298.477202 
L 107.13226 171.896372 
L 107.596052 156.397594 
L 108.059844 160.367614 
L 108.523636 191.718434 
L 108.987429 189.694173 
L 109.451221 168.840354 
L 109.915013 183.806431 
L 110.378805 192.957664 
L 110.842597 229.882213 
L 111.30639 242.055819 
L 111.770182 233.829803 
L 112.233974 209.213437 
L 112.697766 197.157586 
L 113.161558 214.663803 
L 114.089143 288.714766 
L 115.016727 203.078971 
L 115.480519 250.657528 
L 115.944312 242.930569 
L 116.408104 275.918742 
L 116.871896 281.240139 
L 117.335688 274.02345 
L 117.799481 264.541383 
L 118.263273 191.522176 
L 118.727065 140.982926 
L 119.190857 221.162748 
L 119.654649 200.275285 
L 120.118442 82.374667 
L 120.582234 94.71673 
L 121.046026 147.005245 
L 121.509818 168.230098 
L 121.97361 163.905213 
L 122.437403 172.587655 
L 122.901195 246.347866 
L 123.364987 277.908799 
L 123.828779 260.802948 
L 124.292571 157.289727 
L 124.756364 175.518735 
L 125.220156 234.638386 
L 125.683948 269.844275 
L 126.14774 314.931925 
L 126.611532 310.59866 
L 127.075325 300.645013 
L 128.002909 172.554117 
L 128.466701 152.061413 
L 128.930494 193.301023 
L 129.394286 201.761239 
L 129.858078 182.376551 
L 130.32187 136.586746 
L 130.785662 121.57581 
L 131.249455 150.773399 
L 131.713247 234.437618 
L 132.177039 261.720874 
L 132.640831 174.066864 
L 133.104623 149.466881 
L 133.568416 148.367836 
L 134.032208 174.29072 
L 134.959792 270.782389 
L 135.423584 220.565383 
L 135.887377 201.150035 
L 136.351169 235.349401 
L 136.814961 188.948392 
L 137.278753 192.9857 
L 138.206338 300.675292 
L 138.67013 289.583909 
L 139.133922 247.971597 
L 139.597714 190.804432 
L 140.525299 231.155086 
L 140.989091 207.93076 
L 141.916675 206.981703 
L 142.380468 198.40803 
L 142.84426 196.972542 
L 143.308052 218.527283 
L 143.771844 220.495471 
L 144.235636 189.178294 
L 144.699429 130.177519 
L 145.163221 155.842464 
L 145.627013 221.773952 
L 146.090805 204.778005 
L 146.554597 145.866948 
L 147.01839 124.334637 
L 147.945974 169.412306 
L 148.409766 182.264404 
L 148.873558 242.784777 
L 149.801143 142.205334 
L 150.728727 287.716654 
L 151.192519 186.475541 
L 151.656312 200.135101 
L 152.120104 172.485146 
L 152.583896 193.43429 
L 153.047688 186.884879 
L 153.511481 256.354619 
L 153.975273 165.79555 
L 154.439065 186.223209 
L 154.902857 216.744138 
L 155.366649 214.002133 
L 155.830442 223.007574 
L 156.294234 258.709715 
L 156.758026 265.780612 
L 157.221818 268.092401 
L 157.68561 285.211504 
L 158.149403 246.009016 
L 158.613195 115.631995 
L 159.076987 116.344131 
L 160.004571 257.745247 
L 160.468364 170.919741 
L 160.932156 180.35229 
L 161.395948 258.990084 
L 162.323532 335.474647 
L 162.787325 302.839738 
L 163.251117 219.934733 
L 163.714909 260.823695 
L 164.178701 239.319421 
L 164.642494 272.352453 
L 165.106286 269.571196 
L 165.570078 252.109838 
L 166.03387 170.040332 
L 166.497662 190.395094 
L 166.961455 221.061815 
L 167.425247 240.446503 
L 167.889039 253.528503 
L 168.352831 247.382823 
L 168.816623 262.489085 
L 169.280416 261.345181 
L 169.744208 160.121125 
L 170.208 101.85966 
L 170.671792 121.059931 
L 171.135584 205.949946 
L 171.599377 268.135709 
L 172.063169 300.619219 
L 172.990753 240.160527 
L 173.454545 275.413098 
L 173.918338 332.110223 
L 174.38213 264.928292 
L 174.845922 152.331064 
L 175.309714 137.640932 
L 175.773506 151.328529 
L 176.237299 156.526563 
L 176.701091 170.87583 
L 177.164883 181.698059 
L 177.628675 177.430849 
L 178.092468 217.058151 
L 178.55626 235.007351 
L 179.020052 237.59235 
L 179.483844 222.63188 
L 179.947636 184.944728 
L 180.411429 195.615558 
L 180.875221 221.622553 
L 181.339013 257.206939 
L 181.802805 264.732034 
L 182.266597 161.395632 
L 182.73039 169.143152 
L 183.194182 183.027289 
L 183.657974 224.280447 
L 184.121766 251.279594 
L 184.585558 269.509515 
L 185.049351 299.525781 
L 185.513143 276.956106 
L 185.976935 242.167966 
L 186.440727 261.143315 
L 186.904519 331.667241 
L 187.368312 346.599674 
L 187.832104 321.287994 
L 188.295896 339.685784 
L 188.759688 219.183346 
L 189.687273 265.948833 
L 190.151065 314.037661 
L 190.614857 298.731075 
L 191.078649 220.070918 
L 191.542442 235.226039 
L 192.006234 270.574916 
L 192.470026 263.814119 
L 192.933818 266.408638 
L 193.39761 301.953773 
L 194.325195 229.999967 
L 194.788987 265.539495 
L 195.252779 286.819474 
L 195.716571 284.221452 
L 196.644156 305.346234 
L 197.107948 291.552097 
L 197.57174 289.53905 
L 198.499325 282.249466 
L 198.963117 274.068309 
L 199.426909 282.104301 
L 199.890701 337.201718 
L 200.354494 323.379544 
L 200.818286 268.617943 
L 201.282078 266.010515 
L 201.74587 271.875826 
L 202.209662 269.845957 
L 202.673455 252.883655 
L 203.137247 243.54738 
L 203.601039 255.849955 
L 204.064831 304.544379 
L 204.528623 336.069029 
L 204.992416 307.101341 
L 205.92 348.287494 
L 206.383792 334.061589 
L 206.847584 296.376466 
L 207.311377 282.17657 
L 208.238961 263.313368 
L 208.702753 285.126048 
L 209.166545 326.746203 
L 209.630338 336.4279 
L 210.09413 293.127769 
L 210.557922 271.561813 
L 211.021714 268.847845 
L 211.485506 279.058871 
L 211.949299 271.651531 
L 212.413091 279.283166 
L 212.876883 295.348288 
L 213.340675 304.101397 
L 213.804468 309.977924 
L 214.26826 309.338683 
L 214.732052 289.763345 
L 215.195844 210.579009 
L 215.659636 218.017012 
L 216.123429 242.739918 
L 216.587221 230.639208 
L 217.978597 297.165077 
L 218.44239 288.42879 
L 218.906182 275.503796 
L 219.833766 303.686451 
L 220.297558 299.755683 
L 220.761351 291.165188 
L 221.225143 298.914577 
L 221.688935 295.746412 
L 222.152727 253.192061 
L 222.616519 243.104397 
L 223.080312 226.383212 
L 223.544104 225.699113 
L 224.007896 235.618555 
L 224.471688 248.81831 
L 224.935481 255.558372 
L 225.863065 281.111169 
L 226.326857 275.397256 
L 226.790649 254.128492 
L 227.254442 241.38113 
L 227.718234 250.152865 
L 228.182026 270.64738 
L 228.645818 272.016011 
L 229.10961 263.840461 
L 229.573403 258.894759 
L 230.037195 270.005742 
L 230.500987 289.07007 
L 230.964779 276.894425 
L 231.428571 275.130769 
L 231.892364 266.621718 
L 232.356156 261.664801 
L 232.819948 265.707716 
L 233.28374 271.578636 
L 233.747532 273.59729 
L 234.211325 279.389706 
L 234.675117 261.23864 
L 235.138909 232.921409 
L 235.602701 218.970265 
L 236.066494 228.732701 
L 236.530286 224.863614 
L 236.994078 227.089741 
L 237.45787 247.360393 
L 237.921662 261.479757 
L 238.385455 256.39387 
L 238.849247 252.754686 
L 239.313039 251.227974 
L 239.776831 257.476093 
L 240.240623 266.840406 
L 240.704416 270.406695 
L 241.168208 270.569309 
L 241.632 278.183358 
L 242.095792 277.914967 
L 242.559584 284.783998 
L 243.023377 285.440061 
L 243.487169 280.174738 
L 243.950961 268.94317 
L 244.414753 278.503741 
L 244.878545 285.473705 
L 245.342338 268.444114 
L 245.80613 262.024923 
L 246.733714 292.63432 
L 247.197506 292.196945 
L 247.661299 273.546823 
L 248.125091 259.74863 
L 248.588883 259.605463 
L 249.052675 279.221485 
L 249.516468 281.991527 
L 249.98026 270.193615 
L 250.444052 283.034498 
L 250.907844 305.413522 
L 251.371636 290.67174 
L 251.835429 249.894926 
L 252.299221 247.422074 
L 252.763013 255.687342 
L 253.226805 251.975261 
L 253.690597 242.257684 
L 254.15439 244.472596 
L 254.618182 254.582689 
L 255.081974 243.882003 
L 255.545766 245.355197 
L 256.009558 253.052998 
L 256.473351 237.345626 
L 256.937143 235.663414 
L 257.400935 221.145926 
L 257.864727 220.416967 
L 258.328519 236.179292 
L 258.792312 246.345459 
L 259.256104 263.363835 
L 259.719896 268.259581 
L 260.183688 285.838184 
L 260.647481 274.483255 
L 261.111273 254.442505 
L 261.575065 249.816422 
L 262.038857 248.655696 
L 262.502649 270.249688 
L 262.966442 278.22898 
L 263.430234 277.466377 
L 263.894026 293.122161 
L 264.357818 291.260514 
L 264.82161 268.662802 
L 265.285403 267.574972 
L 265.749195 268.550654 
L 266.212987 263.111503 
L 267.140571 234.037276 
L 267.604364 249.289329 
L 268.068156 255.513513 
L 268.531948 229.999967 
L 268.99574 233.482146 
L 269.459532 272.049655 
L 269.923325 292.090405 
L 270.850909 180.789665 
L 271.314701 236.728815 
L 271.778494 251.795825 
L 272.242286 271.69639 
L 272.706078 232.170021 
L 273.16987 240.766123 
L 273.633662 288.641871 
L 274.097455 309.89942 
L 274.561247 303.832243 
L 275.025039 290.211935 
L 275.488831 214.288109 
L 275.952623 236.285832 
L 276.416416 268.903919 
L 276.880208 201.357508 
L 277.344 224.82997 
L 277.807792 262.253575 
L 278.271584 269.980534 
L 278.735377 282.333576 
L 279.199169 250.820142 
L 279.662961 113.175965 
L 280.126753 153.818202 
L 280.590545 151.451891 
L 281.054338 190.305376 
L 281.51813 240.911915 
L 281.981922 223.272532 
L 282.445714 214.433901 
L 282.909506 223.265513 
L 283.373299 145.491254 
L 283.837091 157.2387 
L 284.300883 204.581747 
L 284.764675 231.940118 
L 285.228468 92.159533 
L 285.69226 153.767736 
L 286.156052 175.232759 
L 286.619844 131.741976 
L 287.547429 227.11217 
L 288.011221 236.779281 
L 288.938805 267.120774 
L 289.402597 267.19367 
L 289.86639 250.455663 
L 290.330182 206.701334 
L 290.793974 220.557152 
L 291.257766 291.462379 
L 291.721558 316.813311 
L 292.185351 227.953276 
L 292.649143 196.394983 
L 293.112935 235.007351 
L 293.576727 286.073694 
L 294.040519 205.630326 
L 294.504312 164.309597 
L 294.968104 221.465546 
L 295.431896 224.757074 
L 295.895688 231.648535 
L 296.359481 195.542662 
L 296.823273 172.720656 
L 297.750857 290.699776 
L 298.678442 119.046885 
L 299.142234 171.173021 
L 299.606026 237.368055 
L 300.53361 303.725703 
L 300.997403 274.802875 
L 301.461195 131.091521 
L 301.924987 101.013574 
L 302.388779 146.321145 
L 302.852571 169.159974 
L 303.316364 140.573588 
L 303.780156 156.907865 
L 305.171532 265.758183 
L 305.635325 242.818421 
L 306.099117 249.306151 
L 306.562909 306.764899 
L 307.026701 263.902142 
L 307.490494 195.380049 
L 307.954286 177.57664 
L 308.418078 229.433623 
L 308.88187 309.826525 
L 309.345662 247.924581 
L 309.809455 122.085728 
L 310.273247 144.117448 
L 310.737039 197.875329 
L 311.200831 131.046662 
L 311.664623 179.511184 
L 312.592208 291.838073 
L 313.056 202.635989 
L 313.519792 199.254743 
L 313.983584 203.168689 
L 314.447377 218.162804 
L 314.911169 227.790663 
L 315.374961 203.404199 
L 315.838753 202.097681 
L 316.302545 191.028727 
L 316.766338 121.783282 
L 317.23013 98.148207 
L 317.693922 138.449531 
L 318.157714 230.824251 
L 318.621506 234.917633 
L 319.085299 200.892096 
L 320.012883 236.487698 
L 320.476675 253.965878 
L 320.940468 260.70594 
L 321.40426 215.858174 
L 321.868052 231.026117 
L 322.795636 138.941843 
L 323.259429 191.802545 
L 323.723221 273.014123 
L 324.187013 304.364944 
L 324.650805 296.138928 
L 325.114597 257.156473 
L 325.57839 251.179014 
L 326.042182 231.345737 
L 326.505974 262.881601 
L 326.969766 281.139206 
L 327.433558 253.741583 
L 327.897351 246.109949 
L 328.361143 185.634435 
L 328.824935 143.147372 
L 330.216312 283.645702 
L 330.680104 270.064645 
L 331.143896 189.346516 
L 331.607688 140.478263 
L 332.071481 66.96 
L 332.999065 235.84285 
L 333.462857 278.756073 
L 333.926649 268.012347 
L 334.390442 118.676798 
L 334.854234 124.457999 
L 335.318026 136.783004 
L 335.781818 188.639987 
L 336.24561 265.668465 
L 336.709403 306.361168 
L 337.173195 314.721761 
L 337.636987 286.370885 
L 338.100779 159.453612 
L 338.564571 130.26163 
L 339.028364 156.150869 
L 339.492156 189.290442 
L 339.955948 193.204388 
L 340.41974 184.182125 
L 340.883532 225.36267 
L 341.347325 277.449555 
L 341.811117 281.784054 
L 342.738701 214.422686 
L 343.202494 215.179681 
L 343.666286 246.429569 
L 344.130078 258.249911 
L 344.59387 278.555914 
L 345.057662 209.970432 
L 345.521455 179.808375 
L 346.912831 274.999133 
L 347.376623 285.958319 
L 348.304208 333.214876 
L 348.768 296.060425 
L 349.231792 223.170187 
L 349.695584 254.392038 
L 350.159377 248.106174 
L 350.623169 262.999355 
L 351.086961 294.647367 
L 351.550753 291.109115 
L 352.478338 233.437287 
L 352.94213 244.338019 
L 353.405922 244.95483 
L 354.333506 288.137207 
L 354.797299 259.70222 
L 355.724883 353.005113 
L 356.188675 256.507223 
L 357.11626 190.316591 
L 357.580052 210.777894 
L 358.043844 249.003353 
L 358.507636 266.750688 
L 358.971429 312.910579 
L 359.435221 295.617442 
L 359.899013 286.752186 
L 360.362805 320.80576 
L 360.826597 307.841515 
L 361.29039 302.789272 
L 361.754182 270.193615 
L 362.217974 199.148203 
L 363.145558 272.066477 
L 363.609351 261.36761 
L 364.073143 214.966601 
L 364.536935 247.640762 
L 365.464519 267.070308 
L 365.928312 290.475481 
L 366.392104 280.836408 
L 366.855896 222.912248 
L 367.319688 239.711937 
L 367.783481 268.713268 
L 368.247273 209.005964 
L 368.711065 200.028561 
L 369.174857 224.471098 
L 369.638649 263.896535 
L 370.102442 280.741083 
L 370.566234 281.913023 
L 371.030026 314.166631 
L 371.493818 312.041437 
L 371.95761 267.776837 
L 372.421403 268.780557 
L 372.885195 298.768786 
L 373.348987 317.660024 
L 373.812779 303.153751 
L 374.276571 299.262234 
L 374.740364 300.983698 
L 375.667948 317.783386 
L 376.13174 262.298434 
L 376.595532 269.139429 
L 377.059325 271.477703 
L 377.523117 215.401232 
L 377.986909 218.454387 
L 378.450701 226.6019 
L 378.914494 225.965953 
L 379.378286 234.076527 
L 380.30587 276.165466 
L 380.769662 269.682354 
L 381.233455 278.167298 
L 382.161039 332.233586 
L 382.624831 312.613389 
L 383.088623 237.267122 
L 383.552416 190.922187 
L 384.016208 188.286722 
L 384.48 218.241307 
L 384.943792 231.149479 
L 385.407584 224.263625 
L 385.871377 233.084022 
L 386.798961 267.00302 
L 387.262753 264.395591 
L 387.726545 257.73964 
L 388.190338 271.29266 
L 388.65413 280.2981 
L 389.117922 282.120496 
L 389.581714 274.012235 
L 390.509299 247.298712 
L 390.973091 258.558316 
L 391.900675 294.395035 
L 392.364468 287.520396 
L 392.82826 282.84427 
L 393.755844 262.541153 
L 394.219636 269.75624 
L 394.683429 286.365277 
L 395.147221 287.133487 
L 395.611013 278.043936 
L 396.074805 279.251075 
L 396.538597 289.64559 
L 397.00239 265.264734 
L 397.466182 254.296713 
L 398.393766 281.212102 
L 398.857558 280.006517 
L 400.248935 252.973373 
L 400.712727 250.573418 
L 401.176519 251.638818 
L 401.640312 266.644148 
L 402.104104 275.038385 
L 402.567896 269.576804 
L 403.031688 269.374938 
L 403.495481 277.337407 
L 403.959273 290.643703 
L 404.423065 307.187761 
L 404.886857 254.829413 
L 405.350649 246.584114 
L 405.814442 247.468149 
L 406.278234 250.607062 
L 406.742026 254.54024 
L 407.205818 241.141817 
L 407.66961 242.476372 
L 408.133403 238.214768 
L 408.597195 241.4334 
L 409.060987 252.491139 
L 409.524779 256.02984 
L 410.452364 235.954997 
L 410.916156 234.951277 
L 411.379948 243.99597 
L 411.84374 259.236808 
L 412.307532 262.803097 
L 412.771325 260.268565 
L 413.235117 262.147035 
L 413.698909 262.579402 
L 414.162701 228.118733 
L 414.626494 238.113836 
L 415.554078 283.572806 
L 416.01787 293.177114 
L 416.481662 255.762063 
L 416.945455 261.003131 
L 417.409247 288.955883 
L 417.873039 300.193058 
L 418.336831 292.746467 
L 418.800623 290.335297 
L 419.264416 308.46954 
L 419.728208 314.676902 
L 420.655792 284.705495 
L 421.119584 271.22554 
L 421.583377 243.053931 
L 422.047169 205.961834 
L 422.510961 218.655131 
L 423.438545 302.748849 
L 423.902338 286.051264 
L 424.36613 288.39795 
L 424.829922 287.509181 
L 425.293714 285.305484 
L 425.757506 267.474039 
L 426.221299 263.380657 
L 426.685091 262.528336 
L 427.148883 258.642427 
L 427.612675 261.692838 
L 428.076468 262.988141 
L 428.54026 263.515234 
L 429.004052 259.80876 
L 429.467844 238.769898 
L 429.931636 232.125162 
L 430.395429 241.231535 
L 430.859221 259.819975 
L 431.323013 288.249355 
L 431.786805 285.255018 
L 432.250597 269.705773 
L 432.71439 259.242416 
L 433.178182 245.240806 
L 433.641974 244.97726 
L 434.105766 249.003353 
L 434.569558 243.300655 
L 435.033351 252.216378 
L 435.497143 248.358505 
L 435.960935 249.810815 
L 436.888519 282.142926 
L 437.352312 278.268231 
L 437.816104 261.519009 
L 438.743688 279.137374 
L 439.207481 267.148811 
L 439.671273 264.44045 
L 440.135065 279.541105 
L 440.598857 283.079357 
L 441.062649 273.586075 
L 441.526442 252.653753 
L 441.990234 248.083744 
L 442.454026 277.494414 
L 442.917818 296.940782 
L 443.38161 288.316643 
L 444.309195 243.76046 
L 444.772987 253.629436 
L 445.236779 258.423739 
L 445.700571 237.278337 
L 446.164364 240.014735 
L 446.628156 235.915746 
L 447.091948 220.147814 
L 447.55574 228.160749 
L 448.483325 306.310702 
L 449.410909 224.280447 
L 449.874701 234.928848 
L 450.338494 259.870442 
L 450.802286 255.160248 
L 451.266078 239.02223 
L 451.72987 243.575417 
L 452.193662 256.051821 
L 452.657455 257.117222 
L 453.121247 252.513569 
L 453.585039 242.616556 
L 454.048831 243.749245 
L 454.512623 242.353009 
L 454.976416 242.43712 
L 455.440208 246.737975 
L 455.904 255.664912 
L 456.367792 228.306541 
L 456.831584 211.265735 
L 457.295377 186.374608 
L 457.759169 188.415692 
L 458.222961 235.876494 
L 458.686753 246.743582 
L 459.150545 216.12172 
L 459.614338 207.783557 
L 460.07813 219.766512 
L 460.541922 221.588908 
L 461.469506 178.799048 
L 461.933299 167.466547 
L 462.860883 200.981814 
L 463.788468 247.960382 
L 464.25226 256.405085 
L 464.716052 257.07797 
L 465.179844 252.137875 
L 465.643636 267.064701 
L 466.107429 252.603287 
L 466.571221 160.575087 
L 467.035013 145.289389 
L 467.498805 197.073475 
L 468.42639 264.188118 
L 469.353974 299.800542 
L 469.817766 228.715879 
L 470.281558 237.603565 
L 470.745351 265.376881 
L 471.209143 240.979203 
L 471.672935 198.329527 
L 472.136727 231.727038 
L 472.600519 242.644593 
L 473.064312 211.119944 
L 473.528104 193.697837 
L 474.455688 289.3484 
L 474.919481 254.100455 
L 475.383273 261.967599 
L 475.847065 224.235588 
L 476.310857 207.469544 
L 476.774649 222.744027 
L 477.238442 274.601009 
L 477.702234 291.372661 
L 478.166026 174.918746 
L 478.629818 188.03439 
L 479.09361 251.487419 
L 479.557403 165.829195 
L 480.021195 125.366394 
L 480.484987 110.809654 
L 480.948779 159.206888 
L 481.412571 141.409087 
L 481.876364 112.878775 
L 482.340156 127.867282 
L 482.803948 153.156532 
L 483.731532 264.720819 
L 484.195325 216.037609 
L 484.659117 224.201944 
L 485.122909 250.511737 
L 485.586701 252.216378 
L 486.050494 284.312979 
L 486.514286 189.571647 
L 486.978078 157.087301 
L 487.44187 194.561372 
L 487.905662 162.212144 
L 488.369455 240.571532 
L 488.833247 205.02473 
L 489.297039 202.321976 
L 490.224623 236.762459 
L 490.688416 226.467323 
L 491.616 317.559209 
L 492.079792 268.595513 
L 492.543584 233.639152 
L 493.007377 236.958717 
L 493.471169 182.071964 
L 493.934961 175.40098 
L 494.398753 203.471487 
L 494.862545 158.108964 
L 495.326338 177.223376 
L 496.253922 288.10917 
L 496.717714 301.073416 
L 497.181506 324.98886 
L 497.645299 369.36 
L 498.109091 299.656559 
L 498.109091 299.656559 
" clip-path="url(#p2b2e3c7528)" style="fill: none; stroke: #1f77b4; stroke-width: 1.5; stroke-linecap: round"/>
   </g>
   <g id="line2d_15">
    <path d="M 92.290909 239.367799 
L 92.754701 245.658517 
L 93.218494 245.896254 
L 93.682286 241.882419 
L 94.146078 248.426833 
L 94.60987 257.022039 
L 95.537455 250.959107 
L 96.001247 251.428565 
L 96.465039 225.41871 
L 96.928831 235.37929 
L 97.392623 241.681063 
L 97.856416 240.914516 
L 98.320208 239.409687 
L 98.784 229.604318 
L 99.247792 249.182035 
L 99.711584 241.054344 
L 100.175377 263.283715 
L 100.639169 255.503907 
L 101.102961 253.381209 
L 101.566753 252.083131 
L 102.030545 253.116721 
L 102.494338 254.974379 
L 102.95813 254.35823 
L 103.421922 258.641855 
L 103.885714 259.642728 
L 104.349506 267.017065 
L 104.813299 256.27042 
L 105.277091 260.883974 
L 105.740883 251.783189 
L 106.204675 255.024182 
L 106.668468 247.412905 
L 107.13226 237.161979 
L 107.596052 236.475874 
L 108.059844 224.520863 
L 108.523636 226.604261 
L 108.987429 221.500909 
L 109.451221 211.260424 
L 109.915013 213.535057 
L 110.378805 209.437721 
L 110.842597 206.903216 
L 111.770182 215.536825 
L 112.233974 219.196354 
L 112.697766 226.524063 
L 113.161558 217.258386 
L 113.625351 221.679888 
L 114.089143 208.53971 
L 114.552935 207.597699 
L 115.016727 226.977527 
L 115.480519 212.161168 
L 115.944312 230.600118 
L 116.408104 229.463272 
L 116.871896 227.678114 
L 117.335688 229.637204 
L 117.799481 229.494489 
L 118.263273 229.941221 
L 119.190857 216.720756 
L 119.654649 220.055244 
L 120.118442 209.43229 
L 120.582234 203.167747 
L 121.046026 199.487068 
L 121.509818 192.826597 
L 121.97361 202.592055 
L 122.437403 198.010712 
L 122.901195 203.396003 
L 123.364987 221.579557 
L 123.828779 210.550471 
L 124.292571 214.65562 
L 124.756364 222.448685 
L 125.220156 203.526851 
L 125.683948 197.660847 
L 126.14774 203.041792 
L 126.611532 205.554271 
L 127.075325 211.052554 
L 127.539117 214.723985 
L 128.002909 206.897241 
L 128.930494 232.294458 
L 129.394286 212.166723 
L 129.858078 215.403839 
L 130.32187 202.791412 
L 130.785662 201.133395 
L 131.249455 213.436741 
L 131.713247 196.686453 
L 132.177039 196.778399 
L 132.640831 208.191065 
L 133.104623 203.825289 
L 133.568416 191.922649 
L 134.032208 196.804306 
L 134.496 192.591408 
L 134.959792 191.387551 
L 135.423584 233.230437 
L 135.887377 223.009048 
L 136.351169 217.418834 
L 136.814961 202.227465 
L 137.278753 216.315762 
L 137.742545 193.242188 
L 138.206338 198.532652 
L 138.67013 210.211231 
L 139.133922 214.409964 
L 139.597714 227.382101 
L 140.525299 201.715076 
L 140.989091 196.467827 
L 141.452883 185.478493 
L 141.916675 199.285816 
L 142.380468 206.383954 
L 142.84426 197.580061 
L 143.308052 192.220444 
L 143.771844 206.514982 
L 144.235636 211.029212 
L 144.699429 209.532983 
L 145.163221 206.012619 
L 145.627013 212.376089 
L 146.090805 213.181559 
L 146.554597 221.297738 
L 147.01839 226.047129 
L 147.482182 208.250454 
L 147.945974 203.587498 
L 148.409766 210.711014 
L 148.873558 204.449862 
L 149.337351 200.588442 
L 149.801143 221.195866 
L 150.264935 219.281145 
L 150.728727 194.233121 
L 151.192519 228.345308 
L 151.656312 211.646082 
L 152.120104 187.452624 
L 152.583896 200.66311 
L 153.047688 199.587609 
L 153.511481 219.481837 
L 153.975273 229.191118 
L 154.439065 206.83485 
L 154.902857 209.548977 
L 155.366649 204.489938 
L 155.830442 200.780716 
L 156.294234 208.072427 
L 156.758026 206.090576 
L 157.221818 199.577971 
L 157.68561 210.460099 
L 158.149403 213.280113 
L 158.613195 228.093505 
L 159.076987 218.972935 
L 159.540779 206.963811 
L 160.004571 207.130807 
L 160.468364 210.385258 
L 160.932156 218.490558 
L 161.395948 217.242904 
L 162.323532 224.942866 
L 162.787325 227.246176 
L 163.251117 227.187552 
L 163.714909 238.962664 
L 164.178701 240.353293 
L 164.642494 230.98287 
L 165.106286 228.549253 
L 165.570078 231.782158 
L 166.03387 203.827313 
L 166.497662 221.248205 
L 166.961455 232.506845 
L 167.425247 228.954333 
L 167.889039 231.220137 
L 168.352831 241.716025 
L 168.816623 243.661671 
L 169.280416 246.729202 
L 169.744208 246.578232 
L 170.208 238.495151 
L 170.671792 206.464168 
L 171.135584 196.368865 
L 171.599377 198.33958 
L 172.526961 230.587134 
L 173.454545 247.015171 
L 173.918338 251.642 
L 174.38213 259.754837 
L 174.845922 256.029396 
L 175.309714 237.222276 
L 175.773506 233.62778 
L 176.237299 227.254789 
L 176.701091 202.121814 
L 177.164883 194.898297 
L 177.628675 196.064479 
L 178.092468 235.374782 
L 178.55626 235.021605 
L 179.020052 242.155701 
L 179.483844 239.161156 
L 179.947636 255.650014 
L 180.411429 235.129179 
L 180.875221 259.661809 
L 181.339013 253.594944 
L 181.802805 254.790954 
L 182.266597 254.895493 
L 182.73039 236.825075 
L 183.194182 227.392466 
L 183.657974 226.496415 
L 184.121766 218.2104 
L 184.585558 226.138351 
L 185.049351 226.555374 
L 185.513143 231.322731 
L 185.976935 250.578102 
L 186.904519 259.209096 
L 187.368312 263.63389 
L 187.832104 259.122033 
L 188.295896 278.566789 
L 188.759688 259.767594 
L 189.223481 259.645595 
L 189.687273 262.321926 
L 190.151065 263.999275 
L 191.078649 259.639155 
L 191.542442 258.342366 
L 192.006234 252.992734 
L 192.470026 257.775286 
L 192.933818 261.146437 
L 193.39761 271.239205 
L 193.861403 260.908164 
L 194.325195 262.302291 
L 194.788987 259.801702 
L 195.252779 269.512697 
L 195.716571 270.726964 
L 196.180364 255.879672 
L 196.644156 260.047346 
L 197.107948 255.34128 
L 197.57174 260.816307 
L 198.035532 261.227594 
L 198.499325 262.350934 
L 198.963117 262.848012 
L 199.426909 260.671061 
L 199.890701 255.925566 
L 200.354494 273.771076 
L 200.818286 265.576196 
L 201.282078 253.777055 
L 201.74587 274.12075 
L 202.209662 279.648449 
L 202.673455 252.759676 
L 203.137247 256.875449 
L 203.601039 252.763202 
L 204.064831 261.887134 
L 204.528623 251.732311 
L 204.992416 269.247552 
L 205.456208 276.761004 
L 205.92 276.924678 
L 206.383792 263.542705 
L 206.847584 259.65991 
L 207.311377 274.67677 
L 207.775169 282.935875 
L 208.238961 281.970098 
L 208.702753 285.690393 
L 209.166545 268.360868 
L 209.630338 258.044243 
L 210.09413 261.228259 
L 210.557922 261.080655 
L 211.021714 269.830549 
L 211.485506 264.935749 
L 211.949299 283.92912 
L 212.413091 274.255936 
L 212.876883 272.322738 
L 213.340675 260.700492 
L 213.804468 266.347117 
L 214.26826 268.871425 
L 214.732052 270.379264 
L 215.195844 263.455299 
L 215.659636 253.25519 
L 216.587221 251.848966 
L 217.051013 248.000177 
L 217.514805 254.69779 
L 217.978597 256.519447 
L 218.44239 262.756153 
L 218.906182 270.648667 
L 219.369974 265.019486 
L 219.833766 267.558373 
L 220.297558 268.51496 
L 220.761351 266.800396 
L 221.225143 261.673369 
L 221.688935 263.166937 
L 222.152727 269.268836 
L 222.616519 254.368198 
L 223.544104 269.360891 
L 224.007896 259.836004 
L 224.471688 260.734808 
L 224.935481 253.544088 
L 225.399273 254.14305 
L 225.863065 255.338117 
L 226.326857 258.096693 
L 226.790649 254.579964 
L 227.254442 254.333464 
L 227.718234 253.902308 
L 228.182026 263.360015 
L 228.645818 254.992979 
L 229.10961 261.706638 
L 230.037195 255.692037 
L 230.500987 252.615648 
L 231.428571 255.13705 
L 231.892364 255.302269 
L 232.819948 266.097222 
L 233.28374 264.027544 
L 233.747532 265.046229 
L 234.211325 266.535106 
L 234.675117 257.451216 
L 235.138909 265.234264 
L 235.602701 252.78137 
L 236.066494 249.289323 
L 236.530286 251.201736 
L 236.994078 251.025547 
L 237.45787 249.381274 
L 237.921662 251.811165 
L 238.385455 259.025309 
L 238.849247 254.90939 
L 239.313039 255.157899 
L 239.776831 259.544607 
L 240.240623 266.40385 
L 240.704416 257.901886 
L 241.168208 255.688162 
L 241.632 257.079912 
L 242.095792 259.310121 
L 242.559584 251.029783 
L 243.023377 257.394049 
L 243.487169 260.676674 
L 243.950961 261.831842 
L 244.878545 253.505394 
L 245.342338 264.901077 
L 245.80613 264.996266 
L 246.269922 256.993392 
L 246.733714 258.132782 
L 247.197506 263.271923 
L 248.125091 255.145042 
L 248.588883 265.917571 
L 249.516468 268.115685 
L 250.444052 250.377941 
L 250.907844 255.225674 
L 251.371636 256.148071 
L 251.835429 260.81197 
L 252.299221 253.512796 
L 252.763013 253.355 
L 253.226805 254.872439 
L 253.690597 252.602928 
L 254.15439 248.312566 
L 254.618182 248.873734 
L 255.081974 244.235048 
L 255.545766 245.658256 
L 256.009558 232.559019 
L 256.473351 245.138664 
L 256.937143 238.804904 
L 257.400935 242.335352 
L 257.864727 239.437442 
L 258.328519 251.329638 
L 258.792312 249.259406 
L 259.256104 246.140095 
L 259.719896 245.427212 
L 260.183688 246.24345 
L 260.647481 250.204277 
L 261.111273 251.043875 
L 262.038857 249.103401 
L 262.502649 252.628745 
L 262.966442 250.890228 
L 263.430234 250.179396 
L 263.894026 250.063203 
L 264.357818 253.060882 
L 264.82161 267.031871 
L 265.285403 267.998888 
L 266.212987 264.452677 
L 266.676779 266.760378 
L 267.140571 251.514637 
L 268.068156 245.197795 
L 268.531948 247.119619 
L 268.99574 232.1234 
L 269.459532 244.329749 
L 269.923325 242.465394 
L 270.387117 245.145869 
L 270.850909 259.201721 
L 271.314701 243.101677 
L 271.778494 233.44103 
L 272.242286 235.698112 
L 272.706078 224.915221 
L 273.16987 233.293726 
L 273.633662 239.14665 
L 274.097455 240.320152 
L 274.561247 242.305963 
L 275.025039 232.025624 
L 275.488831 232.242766 
L 275.952623 236.15622 
L 276.416416 237.39816 
L 276.880208 257.7128 
L 277.344 253.557434 
L 277.807792 235.175764 
L 278.271584 237.29824 
L 278.735377 238.573309 
L 279.199169 227.052897 
L 279.662961 224.129058 
L 280.126753 222.803286 
L 280.590545 224.215729 
L 281.054338 233.491725 
L 281.51813 231.301492 
L 281.981922 226.171936 
L 282.445714 235.558275 
L 282.909506 232.594549 
L 283.373299 233.26746 
L 283.837091 239.959601 
L 284.300883 223.052406 
L 284.764675 230.261467 
L 285.228468 210.850547 
L 285.69226 199.396377 
L 286.156052 198.751225 
L 286.619844 200.031408 
L 287.083636 204.425639 
L 287.547429 206.344525 
L 288.011221 208.767664 
L 288.475013 208.218444 
L 288.938805 214.441341 
L 289.86639 224.63757 
L 290.330182 238.69427 
L 290.793974 230.769676 
L 291.257766 234.876192 
L 291.721558 228.442965 
L 292.185351 207.059818 
L 292.649143 213.651482 
L 293.112935 229.048197 
L 293.576727 205.687986 
L 294.040519 228.054584 
L 294.504312 219.242649 
L 294.968104 225.599693 
L 295.431896 228.147958 
L 295.895688 224.083863 
L 296.359481 215.024157 
L 297.287065 223.781698 
L 297.750857 208.516189 
L 298.214649 220.807824 
L 298.678442 224.006194 
L 299.142234 223.378143 
L 299.606026 193.774635 
L 300.069818 207.180489 
L 300.53361 207.929731 
L 301.461195 216.825008 
L 301.924987 222.569944 
L 302.388779 215.935083 
L 302.852571 213.82601 
L 303.316364 197.974216 
L 303.780156 204.765687 
L 304.243948 205.798891 
L 304.70774 208.001146 
L 305.171532 217.131465 
L 305.635325 201.897458 
L 306.099117 201.61531 
L 307.026701 214.939377 
L 307.490494 215.052049 
L 307.954286 218.954419 
L 308.88187 189.847597 
L 309.809455 221.768581 
L 310.273247 216.563779 
L 310.737039 195.501176 
L 311.200831 211.97823 
L 311.664623 218.763601 
L 312.128416 200.646944 
L 312.592208 203.981249 
L 313.056 210.118656 
L 313.519792 212.739261 
L 314.447377 201.746269 
L 314.911169 206.657459 
L 315.374961 208.648355 
L 315.838753 212.98034 
L 316.302545 226.608647 
L 316.766338 213.247655 
L 317.23013 232.650038 
L 317.693922 219.545567 
L 318.157714 211.494724 
L 318.621506 221.12587 
L 319.085299 205.877054 
L 319.549091 208.519387 
L 320.012883 199.875677 
L 320.940468 228.658562 
L 321.40426 229.174983 
L 321.868052 227.411321 
L 322.331844 246.708109 
L 322.795636 239.527877 
L 323.259429 199.795388 
L 323.723221 189.256616 
L 324.187013 206.907178 
L 324.650805 219.736274 
L 325.114597 224.857434 
L 325.57839 235.098643 
L 326.042182 233.00166 
L 326.505974 232.619895 
L 326.969766 226.958685 
L 327.433558 233.634668 
L 327.897351 212.427147 
L 328.361143 223.695288 
L 328.824935 221.012053 
L 329.288727 231.990325 
L 329.752519 229.064622 
L 330.216312 200.331111 
L 330.680104 209.217248 
L 331.143896 225.482013 
L 331.607688 200.750596 
L 332.071481 192.489513 
L 332.535273 198.808003 
L 332.999065 213.340103 
L 333.462857 213.944544 
L 333.926649 228.042259 
L 334.390442 228.951573 
L 334.854234 236.86479 
L 335.318026 223.334227 
L 335.781818 219.401814 
L 336.24561 233.187034 
L 336.709403 229.200923 
L 337.173195 235.014492 
L 337.636987 237.634469 
L 338.100779 246.868165 
L 338.564571 246.305562 
L 339.028364 235.8314 
L 339.492156 239.823432 
L 339.955948 240.09623 
L 340.41974 237.590583 
L 340.883532 225.856198 
L 341.811117 240.053729 
L 342.274909 239.248275 
L 342.738701 242.979898 
L 343.202494 259.176877 
L 343.666286 256.997572 
L 344.130078 259.305873 
L 344.59387 258.294477 
L 345.057662 258.636842 
L 345.521455 247.287389 
L 345.985247 231.225696 
L 346.449039 231.07728 
L 346.912831 239.010748 
L 347.376623 229.621311 
L 347.840416 229.178885 
L 348.304208 254.218509 
L 348.768 268.044378 
L 349.231792 276.794176 
L 349.695584 257.253663 
L 350.159377 255.436086 
L 350.623169 247.973429 
L 351.086961 260.450403 
L 351.550753 246.116587 
L 352.014545 252.907688 
L 352.94213 236.696839 
L 353.405922 238.610926 
L 353.869714 237.610558 
L 354.333506 227.241014 
L 354.797299 230.685959 
L 355.261091 241.777679 
L 355.724883 239.881802 
L 356.188675 252.644317 
L 356.652468 261.545591 
L 357.11626 248.986482 
L 357.580052 242.713415 
L 358.043844 232.658023 
L 358.507636 237.454039 
L 358.971429 228.799885 
L 359.435221 244.705888 
L 360.362805 268.561571 
L 360.826597 267.629403 
L 361.29039 262.740874 
L 361.754182 270.063547 
L 362.217974 269.91824 
L 362.681766 262.303348 
L 363.145558 252.160767 
L 364.073143 259.66503 
L 364.536935 258.928947 
L 365.000727 255.773524 
L 365.464519 254.57485 
L 365.928312 260.152268 
L 366.392104 258.454849 
L 366.855896 258.614581 
L 367.319688 253.145701 
L 367.783481 257.531678 
L 368.247273 255.429514 
L 368.711065 263.680346 
L 369.174857 262.971921 
L 369.638649 260.039377 
L 370.102442 243.118946 
L 370.566234 257.796246 
L 371.030026 258.41553 
L 371.493818 266.169692 
L 371.95761 264.597029 
L 372.421403 264.18725 
L 372.885195 268.333809 
L 373.348987 264.792219 
L 373.812779 265.367198 
L 374.276571 275.116941 
L 374.740364 275.906347 
L 375.204156 265.400815 
L 376.13174 280.54869 
L 376.595532 263.009884 
L 377.059325 263.380007 
L 377.523117 261.748765 
L 377.986909 259.237499 
L 378.914494 249.519269 
L 379.378286 239.020184 
L 379.842078 242.540018 
L 380.30587 256.845547 
L 380.769662 256.996648 
L 381.233455 254.107308 
L 381.697247 262.164148 
L 382.161039 266.918966 
L 382.624831 270.054704 
L 383.088623 256.726533 
L 383.552416 263.24007 
L 384.48 232.293725 
L 384.943792 245.531978 
L 385.407584 232.471965 
L 385.871377 249.376795 
L 386.335169 254.428807 
L 386.798961 256.988845 
L 387.262753 266.812991 
L 387.726545 266.727311 
L 388.190338 252.095083 
L 388.65413 258.501858 
L 389.117922 261.460662 
L 389.581714 256.594296 
L 390.045506 257.753014 
L 390.509299 261.462497 
L 390.973091 254.775009 
L 391.436883 252.57415 
L 391.900675 246.32112 
L 392.364468 247.734462 
L 392.82826 236.229341 
L 393.292052 235.841942 
L 393.755844 253.305779 
L 394.219636 248.744579 
L 394.683429 263.707346 
L 395.147221 254.81706 
L 395.611013 270.460996 
L 396.074805 268.947343 
L 396.538597 257.429343 
L 397.00239 267.321 
L 397.466182 256.435615 
L 397.929974 265.848962 
L 398.393766 267.794009 
L 398.857558 255.034343 
L 399.321351 265.109732 
L 399.785143 260.043306 
L 400.248935 263.727064 
L 400.712727 265.375333 
L 401.176519 254.84818 
L 401.640312 249.436817 
L 402.104104 253.93146 
L 402.567896 242.664725 
L 403.031688 246.884941 
L 403.495481 257.403536 
L 403.959273 255.104972 
L 404.423065 250.603599 
L 404.886857 261.091506 
L 405.350649 251.588609 
L 405.814442 249.77741 
L 406.278234 242.578676 
L 406.742026 242.490604 
L 407.205818 232.57345 
L 407.66961 239.824158 
L 408.133403 251.246003 
L 408.597195 252.102944 
L 409.060987 248.032649 
L 409.524779 255.210236 
L 410.452364 250.23545 
L 410.916156 259.042288 
L 411.379948 258.759837 
L 411.84374 263.799403 
L 412.307532 252.169986 
L 412.771325 256.195292 
L 413.235117 261.6516 
L 413.698909 254.342 
L 414.162701 256.467854 
L 414.626494 252.669138 
L 415.090286 252.021758 
L 415.554078 248.310568 
L 416.01787 250.022182 
L 416.481662 255.924215 
L 416.945455 255.952288 
L 417.873039 254.552723 
L 418.800623 258.283031 
L 419.728208 268.730179 
L 420.192 261.73051 
L 420.655792 257.532601 
L 421.119584 251.014083 
L 421.583377 247.197697 
L 422.047169 240.307592 
L 422.510961 230.699206 
L 422.974753 235.293095 
L 423.438545 241.093725 
L 423.902338 231.520756 
L 424.36613 239.861736 
L 424.829922 233.586037 
L 425.293714 250.131175 
L 425.757506 249.809327 
L 426.221299 254.371297 
L 426.685091 253.946471 
L 427.148883 254.228881 
L 427.612675 266.585072 
L 428.076468 268.757826 
L 428.54026 267.251648 
L 429.004052 263.588008 
L 429.467844 266.16335 
L 429.931636 266.306207 
L 430.395429 253.116167 
L 430.859221 257.467353 
L 431.323013 263.271344 
L 431.786805 266.15151 
L 432.250597 262.309341 
L 432.71439 266.993443 
L 433.178182 270.016024 
L 433.641974 267.047069 
L 434.105766 266.521418 
L 434.569558 266.511522 
L 435.497143 258.979125 
L 435.960935 256.338596 
L 436.424727 251.365903 
L 436.888519 248.465487 
L 437.352312 247.438422 
L 437.816104 253.287396 
L 438.279896 253.985066 
L 438.743688 259.247507 
L 439.207481 260.026403 
L 439.671273 263.559067 
L 440.135065 256.411192 
L 440.598857 252.375615 
L 441.062649 256.71968 
L 441.526442 257.842568 
L 441.990234 253.802778 
L 442.454026 246.895612 
L 442.917818 247.271356 
L 443.38161 254.554617 
L 443.845403 256.314918 
L 444.309195 255.246199 
L 444.772987 251.346675 
L 445.700571 261.638223 
L 446.164364 252.461813 
L 446.628156 256.43467 
L 447.55574 240.574355 
L 448.019532 241.851715 
L 448.483325 231.726262 
L 448.947117 239.380299 
L 449.410909 244.67551 
L 449.874701 235.312582 
L 450.338494 252.681938 
L 450.802286 254.404379 
L 451.266078 254.19839 
L 451.72987 252.913484 
L 452.193662 252.464605 
L 452.657455 260.166817 
L 453.121247 253.052026 
L 453.585039 264.039797 
L 454.048831 253.219322 
L 454.512623 253.373387 
L 455.440208 253.521537 
L 455.904 248.99551 
L 456.367792 249.024684 
L 456.831584 223.562089 
L 457.295377 226.818256 
L 457.759169 232.884652 
L 458.222961 218.782872 
L 458.686753 252.518613 
L 459.150545 256.537283 
L 459.614338 239.860057 
L 460.07813 239.016787 
L 460.541922 251.730751 
L 461.005714 240.027572 
L 461.469506 242.308268 
L 461.933299 229.074344 
L 462.397091 228.401105 
L 462.860883 234.149406 
L 463.324675 231.44415 
L 463.788468 232.880379 
L 464.25226 231.132626 
L 464.716052 233.067948 
L 465.179844 236.675717 
L 465.643636 234.352125 
L 466.107429 242.878908 
L 466.571221 238.695465 
L 467.035013 236.232677 
L 467.498805 225.826544 
L 467.962597 227.644411 
L 468.42639 227.563862 
L 468.890182 229.014799 
L 469.817766 228.673192 
L 470.281558 225.304061 
L 470.745351 233.589904 
L 471.209143 233.078236 
L 471.672935 237.520104 
L 472.136727 226.897125 
L 472.600519 230.50001 
L 473.064312 230.981885 
L 473.528104 236.94627 
L 473.991896 231.512484 
L 474.455688 233.253254 
L 474.919481 241.533273 
L 475.383273 229.848644 
L 475.847065 224.400422 
L 476.310857 232.192452 
L 476.774649 257.655005 
L 477.238442 254.572338 
L 477.702234 244.428324 
L 478.166026 245.528427 
L 478.629818 223.932421 
L 479.09361 237.264852 
L 479.557403 214.50743 
L 480.021195 228.370842 
L 480.484987 213.768325 
L 480.948779 192.980047 
L 481.412571 214.319494 
L 482.340156 191.028699 
L 482.803948 196.529547 
L 483.26774 209.900289 
L 483.731532 205.297501 
L 484.195325 223.471064 
L 484.659117 224.426506 
L 485.122909 221.409316 
L 485.586701 214.886448 
L 486.050494 214.026141 
L 486.514286 208.656379 
L 486.978078 212.325832 
L 487.44187 218.715624 
L 487.905662 198.797541 
L 488.369455 226.781622 
L 488.833247 204.826486 
L 489.297039 207.625718 
L 489.760831 208.983884 
L 490.224623 204.992428 
L 490.688416 207.766627 
L 491.152208 204.990731 
L 491.616 205.667779 
L 492.079792 209.192282 
L 492.543584 222.331558 
L 493.007377 225.331371 
L 493.471169 187.088597 
L 493.934961 196.274512 
L 494.398753 211.871811 
L 494.862545 207.872153 
L 495.326338 207.174296 
L 495.79013 200.94064 
L 496.253922 209.053413 
L 496.717714 234.621759 
L 497.181506 238.313931 
L 497.645299 239.594826 
L 498.109091 249.120396 
L 498.109091 249.120396 
" clip-path="url(#p2b2e3c7528)" style="fill: none; stroke: #ff7f0e; stroke-width: 1.5; stroke-linecap: round"/>
   </g>
   <g id="patch_3">
    <path d="M 72 384.48 
L 72 51.84 
" style="fill: none; stroke: #ffffff; stroke-width: 0.8; stroke-linejoin: miter; stroke-linecap: square"/>
   </g>
   <g id="patch_4">
    <path d="M 518.4 384.48 
L 518.4 51.84 
" style="fill: none; stroke: #ffffff; stroke-width: 0.8; stroke-linejoin: miter; stroke-linecap: square"/>
   </g>
   <g id="patch_5">
    <path d="M 72 384.48 
L 518.4 384.48 
" style="fill: none; stroke: #ffffff; stroke-width: 0.8; stroke-linejoin: miter; stroke-linecap: square"/>
   </g>
   <g id="patch_6">
    <path d="M 72 51.84 
L 518.4 51.84 
" style="fill: none; stroke: #ffffff; stroke-width: 0.8; stroke-linejoin: miter; stroke-linecap: square"/>
   </g>
   <g id="text_16">
    <!-- Average Pressure Prediction 6 Days Ahead -->
    <g style="fill: #262626" transform="translate(179.912812 45.84) scale(0.12 -0.12)">
     <defs>
      <path id="ArialMT-41" d="M -9 0 
L 1750 4581 
L 2403 4581 
L 4278 0 
L 3588 0 
L 3053 1388 
L 1138 1388 
L 634 0 
L -9 0 
z
M 1313 1881 
L 2866 1881 
L 2388 3150 
Q 2169 3728 2063 4100 
Q 1975 3659 1816 3225 
L 1313 1881 
z
" transform="scale(0.015625)"/>
      <path id="ArialMT-76" d="M 1344 0 
L 81 3319 
L 675 3319 
L 1388 1331 
Q 1503 1009 1600 663 
Q 1675 925 1809 1294 
L 2547 3319 
L 3125 3319 
L 1869 0 
L 1344 0 
z
" transform="scale(0.015625)"/>
      <path id="ArialMT-65" d="M 2694 1069 
L 3275 997 
Q 3138 488 2766 206 
Q 2394 -75 1816 -75 
Q 1088 -75 661 373 
Q 234 822 234 1631 
Q 234 2469 665 2931 
Q 1097 3394 1784 3394 
Q 2450 3394 2872 2941 
Q 3294 2488 3294 1666 
Q 3294 1616 3291 1516 
L 816 1516 
Q 847 969 1125 678 
Q 1403 388 1819 388 
Q 2128 388 2347 550 
Q 2566 713 2694 1069 
z
M 847 1978 
L 2700 1978 
Q 2663 2397 2488 2606 
Q 2219 2931 1791 2931 
Q 1403 2931 1139 2672 
Q 875 2413 847 1978 
z
" transform="scale(0.015625)"/>
      <path id="ArialMT-72" d="M 416 0 
L 416 3319 
L 922 3319 
L 922 2816 
Q 1116 3169 1280 3281 
Q 1444 3394 1641 3394 
Q 1925 3394 2219 3213 
L 2025 2691 
Q 1819 2813 1613 2813 
Q 1428 2813 1281 2702 
Q 1134 2591 1072 2394 
Q 978 2094 978 1738 
L 978 0 
L 416 0 
z
" transform="scale(0.015625)"/>
      <path id="ArialMT-67" d="M 319 -275 
L 866 -356 
Q 900 -609 1056 -725 
Q 1266 -881 1628 -881 
Q 2019 -881 2231 -725 
Q 2444 -569 2519 -288 
Q 2563 -116 2559 434 
Q 2191 0 1641 0 
Q 956 0 581 494 
Q 206 988 206 1678 
Q 206 2153 378 2554 
Q 550 2956 876 3175 
Q 1203 3394 1644 3394 
Q 2231 3394 2613 2919 
L 2613 3319 
L 3131 3319 
L 3131 450 
Q 3131 -325 2973 -648 
Q 2816 -972 2473 -1159 
Q 2131 -1347 1631 -1347 
Q 1038 -1347 672 -1080 
Q 306 -813 319 -275 
z
M 784 1719 
Q 784 1066 1043 766 
Q 1303 466 1694 466 
Q 2081 466 2343 764 
Q 2606 1063 2606 1700 
Q 2606 2309 2336 2618 
Q 2066 2928 1684 2928 
Q 1309 2928 1046 2623 
Q 784 2319 784 1719 
z
" transform="scale(0.015625)"/>
      <path id="ArialMT-20" transform="scale(0.015625)"/>
      <path id="ArialMT-75" d="M 2597 0 
L 2597 488 
Q 2209 -75 1544 -75 
Q 1250 -75 995 37 
Q 741 150 617 320 
Q 494 491 444 738 
Q 409 903 409 1263 
L 409 3319 
L 972 3319 
L 972 1478 
Q 972 1038 1006 884 
Q 1059 663 1231 536 
Q 1403 409 1656 409 
Q 1909 409 2131 539 
Q 2353 669 2445 892 
Q 2538 1116 2538 1541 
L 2538 3319 
L 3100 3319 
L 3100 0 
L 2597 0 
z
" transform="scale(0.015625)"/>
      <path id="ArialMT-64" d="M 2575 0 
L 2575 419 
Q 2259 -75 1647 -75 
Q 1250 -75 917 144 
Q 584 363 401 755 
Q 219 1147 219 1656 
Q 219 2153 384 2558 
Q 550 2963 881 3178 
Q 1213 3394 1622 3394 
Q 1922 3394 2156 3267 
Q 2391 3141 2538 2938 
L 2538 4581 
L 3097 4581 
L 3097 0 
L 2575 0 
z
M 797 1656 
Q 797 1019 1065 703 
Q 1334 388 1700 388 
Q 2069 388 2326 689 
Q 2584 991 2584 1609 
Q 2584 2291 2321 2609 
Q 2059 2928 1675 2928 
Q 1300 2928 1048 2622 
Q 797 2316 797 1656 
z
" transform="scale(0.015625)"/>
      <path id="ArialMT-69" d="M 425 3934 
L 425 4581 
L 988 4581 
L 988 3934 
L 425 3934 
z
M 425 0 
L 425 3319 
L 988 3319 
L 988 0 
L 425 0 
z
" transform="scale(0.015625)"/>
      <path id="ArialMT-63" d="M 2588 1216 
L 3141 1144 
Q 3050 572 2676 248 
Q 2303 -75 1759 -75 
Q 1078 -75 664 370 
Q 250 816 250 1647 
Q 250 2184 428 2587 
Q 606 2991 970 3192 
Q 1334 3394 1763 3394 
Q 2303 3394 2647 3120 
Q 2991 2847 3088 2344 
L 2541 2259 
Q 2463 2594 2264 2762 
Q 2066 2931 1784 2931 
Q 1359 2931 1093 2626 
Q 828 2322 828 1663 
Q 828 994 1084 691 
Q 1341 388 1753 388 
Q 2084 388 2306 591 
Q 2528 794 2588 1216 
z
" transform="scale(0.015625)"/>
      <path id="ArialMT-74" d="M 1650 503 
L 1731 6 
Q 1494 -44 1306 -44 
Q 1000 -44 831 53 
Q 663 150 594 308 
Q 525 466 525 972 
L 525 2881 
L 113 2881 
L 113 3319 
L 525 3319 
L 525 4141 
L 1084 4478 
L 1084 3319 
L 1650 3319 
L 1650 2881 
L 1084 2881 
L 1084 941 
Q 1084 700 1114 631 
Q 1144 563 1211 522 
Q 1278 481 1403 481 
Q 1497 481 1650 503 
z
" transform="scale(0.015625)"/>
      <path id="ArialMT-6f" d="M 213 1659 
Q 213 2581 725 3025 
Q 1153 3394 1769 3394 
Q 2453 3394 2887 2945 
Q 3322 2497 3322 1706 
Q 3322 1066 3130 698 
Q 2938 331 2570 128 
Q 2203 -75 1769 -75 
Q 1072 -75 642 372 
Q 213 819 213 1659 
z
M 791 1659 
Q 791 1022 1069 705 
Q 1347 388 1769 388 
Q 2188 388 2466 706 
Q 2744 1025 2744 1678 
Q 2744 2294 2464 2611 
Q 2184 2928 1769 2928 
Q 1347 2928 1069 2612 
Q 791 2297 791 1659 
z
" transform="scale(0.015625)"/>
      <path id="ArialMT-6e" d="M 422 0 
L 422 3319 
L 928 3319 
L 928 2847 
Q 1294 3394 1984 3394 
Q 2284 3394 2536 3286 
Q 2788 3178 2913 3003 
Q 3038 2828 3088 2588 
Q 3119 2431 3119 2041 
L 3119 0 
L 2556 0 
L 2556 2019 
Q 2556 2363 2490 2533 
Q 2425 2703 2258 2804 
Q 2091 2906 1866 2906 
Q 1506 2906 1245 2678 
Q 984 2450 984 1813 
L 984 0 
L 422 0 
z
" transform="scale(0.015625)"/>
     </defs>
     <use xlink:href="#ArialMT-41"/>
     <use xlink:href="#ArialMT-76" x="64.949219"/>
     <use xlink:href="#ArialMT-65" x="114.949219"/>
     <use xlink:href="#ArialMT-72" x="170.564453"/>
     <use xlink:href="#ArialMT-61" x="203.865234"/>
     <use xlink:href="#ArialMT-67" x="259.480469"/>
     <use xlink:href="#ArialMT-65" x="315.095703"/>
     <use xlink:href="#ArialMT-20" x="370.710938"/>
     <use xlink:href="#ArialMT-50" x="398.494141"/>
     <use xlink:href="#ArialMT-72" x="465.193359"/>
     <use xlink:href="#ArialMT-65" x="498.494141"/>
     <use xlink:href="#ArialMT-73" x="554.109375"/>
     <use xlink:href="#ArialMT-73" x="604.109375"/>
     <use xlink:href="#ArialMT-75" x="654.109375"/>
     <use xlink:href="#ArialMT-72" x="709.724609"/>
     <use xlink:href="#ArialMT-65" x="743.025391"/>
     <use xlink:href="#ArialMT-20" x="798.640625"/>
     <use xlink:href="#ArialMT-50" x="826.423828"/>
     <use xlink:href="#ArialMT-72" x="893.123047"/>
     <use xlink:href="#ArialMT-65" x="926.423828"/>
     <use xlink:href="#ArialMT-64" x="982.039062"/>
     <use xlink:href="#ArialMT-69" x="1037.654297"/>
     <use xlink:href="#ArialMT-63" x="1059.871094"/>
     <use xlink:href="#ArialMT-74" x="1109.871094"/>
     <use xlink:href="#ArialMT-69" x="1137.654297"/>
     <use xlink:href="#ArialMT-6f" x="1159.871094"/>
     <use xlink:href="#ArialMT-6e" x="1215.486328"/>
     <use xlink:href="#ArialMT-20" x="1271.101562"/>
     <use xlink:href="#ArialMT-36" x="1298.884766"/>
     <use xlink:href="#ArialMT-20" x="1354.5"/>
     <use xlink:href="#ArialMT-44" x="1382.283203"/>
     <use xlink:href="#ArialMT-61" x="1454.5"/>
     <use xlink:href="#ArialMT-79" x="1510.115234"/>
     <use xlink:href="#ArialMT-73" x="1560.115234"/>
     <use xlink:href="#ArialMT-20" x="1610.115234"/>
     <use xlink:href="#ArialMT-41" x="1632.398438"/>
     <use xlink:href="#ArialMT-68" x="1699.097656"/>
     <use xlink:href="#ArialMT-65" x="1754.712891"/>
     <use xlink:href="#ArialMT-61" x="1810.328125"/>
     <use xlink:href="#ArialMT-64" x="1865.943359"/>
    </g>
   </g>
   <g id="legend_1">
    <g id="patch_7">
     <path d="M 437.15625 88.130625 
L 511.4 88.130625 
Q 513.4 88.130625 513.4 86.130625 
L 513.4 58.84 
Q 513.4 56.84 511.4 56.84 
L 437.15625 56.84 
Q 435.15625 56.84 435.15625 58.84 
L 435.15625 86.130625 
Q 435.15625 88.130625 437.15625 88.130625 
z
" style="fill: #eaeaf2; opacity: 0.8; stroke: #cccccc; stroke-linejoin: miter"/>
    </g>
    <g id="line2d_16">
     <path d="M 439.15625 64.497812 
L 449.15625 64.497812 
L 459.15625 64.497812 
" style="fill: none; stroke: #1f77b4; stroke-width: 1.5; stroke-linecap: round"/>
    </g>
    <g id="text_17">
     <!-- Real -->
     <g style="fill: #262626" transform="translate(467.15625 67.997812) scale(0.1 -0.1)">
      <defs>
       <path id="ArialMT-52" d="M 503 0 
L 503 4581 
L 2534 4581 
Q 3147 4581 3465 4457 
Q 3784 4334 3975 4021 
Q 4166 3709 4166 3331 
Q 4166 2844 3850 2509 
Q 3534 2175 2875 2084 
Q 3116 1969 3241 1856 
Q 3506 1613 3744 1247 
L 4541 0 
L 3778 0 
L 3172 953 
Q 2906 1366 2734 1584 
Q 2563 1803 2427 1890 
Q 2291 1978 2150 2013 
Q 2047 2034 1813 2034 
L 1109 2034 
L 1109 0 
L 503 0 
z
M 1109 2559 
L 2413 2559 
Q 2828 2559 3062 2645 
Q 3297 2731 3419 2920 
Q 3541 3109 3541 3331 
Q 3541 3656 3305 3865 
Q 3069 4075 2559 4075 
L 1109 4075 
L 1109 2559 
z
" transform="scale(0.015625)"/>
       <path id="ArialMT-6c" d="M 409 0 
L 409 4581 
L 972 4581 
L 972 0 
L 409 0 
z
" transform="scale(0.015625)"/>
      </defs>
      <use xlink:href="#ArialMT-52"/>
      <use xlink:href="#ArialMT-65" x="72.216797"/>
      <use xlink:href="#ArialMT-61" x="127.832031"/>
      <use xlink:href="#ArialMT-6c" x="183.447266"/>
     </g>
    </g>
    <g id="line2d_17">
     <path d="M 439.15625 78.643125 
L 449.15625 78.643125 
L 459.15625 78.643125 
" style="fill: none; stroke: #ff7f0e; stroke-width: 1.5; stroke-linecap: round"/>
    </g>
    <g id="text_18">
     <!-- Predicted -->
     <g style="fill: #262626" transform="translate(467.15625 82.143125) scale(0.1 -0.1)">
      <use xlink:href="#ArialMT-50"/>
      <use xlink:href="#ArialMT-72" x="66.699219"/>
      <use xlink:href="#ArialMT-65" x="100"/>
      <use xlink:href="#ArialMT-64" x="155.615234"/>
      <use xlink:href="#ArialMT-69" x="211.230469"/>
      <use xlink:href="#ArialMT-63" x="233.447266"/>
      <use xlink:href="#ArialMT-74" x="283.447266"/>
      <use xlink:href="#ArialMT-65" x="311.230469"/>
      <use xlink:href="#ArialMT-64" x="366.845703"/>
     </g>
    </g>
   </g>
  </g>
 </g>
 <defs>
  <clipPath id="p2b2e3c7528">
   <rect x="72" y="51.84" width="446.4" height="332.64"/>
  </clipPath>
 </defs>
</svg>
