<?xml version="1.0" encoding="utf-8" standalone="no"?>
<!DOCTYPE svg PUBLIC "-//W3C//DTD SVG 1.1//EN"
  "http://www.w3.org/Graphics/SVG/1.1/DTD/svg11.dtd">
<svg xmlns:xlink="http://www.w3.org/1999/xlink" width="576pt" height="432pt" viewBox="0 0 576 432" xmlns="http://www.w3.org/2000/svg" version="1.1">
 <metadata>
  <rdf:RDF xmlns:dc="http://purl.org/dc/elements/1.1/" xmlns:cc="http://creativecommons.org/ns#" xmlns:rdf="http://www.w3.org/1999/02/22-rdf-syntax-ns#">
   <cc:Work>
    <dc:type rdf:resource="http://purl.org/dc/dcmitype/StillImage"/>
    <dc:date>2023-11-17T05:04:45.856094</dc:date>
    <dc:format>image/svg+xml</dc:format>
    <dc:creator>
     <cc:Agent>
      <dc:title>Matplotlib v3.8.0, https://matplotlib.org/</dc:title>
     </cc:Agent>
    </dc:creator>
   </cc:Work>
  </rdf:RDF>
 </metadata>
 <defs>
  <style type="text/css">*{stroke-linejoin: round; stroke-linecap: butt}</style>
 </defs>
 <g id="figure_1">
  <g id="patch_1">
   <path d="M 0 432 
L 576 432 
L 576 0 
L 0 0 
z
" style="fill: #ffffff"/>
  </g>
  <g id="axes_1">
   <g id="patch_2">
    <path d="M 72 384.48 
L 518.4 384.48 
L 518.4 51.84 
L 72 51.84 
z
" style="fill: #eaeaf2"/>
   </g>
   <g id="matplotlib.axis_1">
    <g id="xtick_1">
     <g id="line2d_1">
      <path d="M 92.290909 384.48 
L 92.290909 51.84 
" clip-path="url(#pfa2384c3d4)" style="fill: none; stroke: #ffffff; stroke-width: 0.8; stroke-linecap: round"/>
     </g>
     <g id="text_1">
      <!-- 0 -->
      <g style="fill: #262626" transform="translate(89.51044 398.637812) scale(0.1 -0.1)">
       <defs>
        <path id="ArialMT-30" d="M 266 2259 
Q 266 3072 433 3567 
Q 600 4063 929 4331 
Q 1259 4600 1759 4600 
Q 2128 4600 2406 4451 
Q 2684 4303 2865 4023 
Q 3047 3744 3150 3342 
Q 3253 2941 3253 2259 
Q 3253 1453 3087 958 
Q 2922 463 2592 192 
Q 2263 -78 1759 -78 
Q 1097 -78 719 397 
Q 266 969 266 2259 
z
M 844 2259 
Q 844 1131 1108 757 
Q 1372 384 1759 384 
Q 2147 384 2411 759 
Q 2675 1134 2675 2259 
Q 2675 3391 2411 3762 
Q 2147 4134 1753 4134 
Q 1366 4134 1134 3806 
Q 844 3388 844 2259 
z
" transform="scale(0.015625)"/>
       </defs>
       <use xlink:href="#ArialMT-30"/>
      </g>
     </g>
    </g>
    <g id="xtick_2">
     <g id="line2d_2">
      <path d="M 185.049351 384.48 
L 185.049351 51.84 
" clip-path="url(#pfa2384c3d4)" style="fill: none; stroke: #ffffff; stroke-width: 0.8; stroke-linecap: round"/>
     </g>
     <g id="text_2">
      <!-- 200 -->
      <g style="fill: #262626" transform="translate(176.707944 398.637812) scale(0.1 -0.1)">
       <defs>
        <path id="ArialMT-32" d="M 3222 541 
L 3222 0 
L 194 0 
Q 188 203 259 391 
Q 375 700 629 1000 
Q 884 1300 1366 1694 
Q 2113 2306 2375 2664 
Q 2638 3022 2638 3341 
Q 2638 3675 2398 3904 
Q 2159 4134 1775 4134 
Q 1369 4134 1125 3890 
Q 881 3647 878 3216 
L 300 3275 
Q 359 3922 746 4261 
Q 1134 4600 1788 4600 
Q 2447 4600 2831 4234 
Q 3216 3869 3216 3328 
Q 3216 3053 3103 2787 
Q 2991 2522 2730 2228 
Q 2469 1934 1863 1422 
Q 1356 997 1212 845 
Q 1069 694 975 541 
L 3222 541 
z
" transform="scale(0.015625)"/>
       </defs>
       <use xlink:href="#ArialMT-32"/>
       <use xlink:href="#ArialMT-30" x="55.615234"/>
       <use xlink:href="#ArialMT-30" x="111.230469"/>
      </g>
     </g>
    </g>
    <g id="xtick_3">
     <g id="line2d_3">
      <path d="M 277.807792 384.48 
L 277.807792 51.84 
" clip-path="url(#pfa2384c3d4)" style="fill: none; stroke: #ffffff; stroke-width: 0.8; stroke-linecap: round"/>
     </g>
     <g id="text_3">
      <!-- 400 -->
      <g style="fill: #262626" transform="translate(269.466386 398.637812) scale(0.1 -0.1)">
       <defs>
        <path id="ArialMT-34" d="M 2069 0 
L 2069 1097 
L 81 1097 
L 81 1613 
L 2172 4581 
L 2631 4581 
L 2631 1613 
L 3250 1613 
L 3250 1097 
L 2631 1097 
L 2631 0 
L 2069 0 
z
M 2069 1613 
L 2069 3678 
L 634 1613 
L 2069 1613 
z
" transform="scale(0.015625)"/>
       </defs>
       <use xlink:href="#ArialMT-34"/>
       <use xlink:href="#ArialMT-30" x="55.615234"/>
       <use xlink:href="#ArialMT-30" x="111.230469"/>
      </g>
     </g>
    </g>
    <g id="xtick_4">
     <g id="line2d_4">
      <path d="M 370.566234 384.48 
L 370.566234 51.84 
" clip-path="url(#pfa2384c3d4)" style="fill: none; stroke: #ffffff; stroke-width: 0.8; stroke-linecap: round"/>
     </g>
     <g id="text_4">
      <!-- 600 -->
      <g style="fill: #262626" transform="translate(362.224828 398.637812) scale(0.1 -0.1)">
       <defs>
        <path id="ArialMT-36" d="M 3184 3459 
L 2625 3416 
Q 2550 3747 2413 3897 
Q 2184 4138 1850 4138 
Q 1581 4138 1378 3988 
Q 1113 3794 959 3422 
Q 806 3050 800 2363 
Q 1003 2672 1297 2822 
Q 1591 2972 1913 2972 
Q 2475 2972 2870 2558 
Q 3266 2144 3266 1488 
Q 3266 1056 3080 686 
Q 2894 316 2569 119 
Q 2244 -78 1831 -78 
Q 1128 -78 684 439 
Q 241 956 241 2144 
Q 241 3472 731 4075 
Q 1159 4600 1884 4600 
Q 2425 4600 2770 4297 
Q 3116 3994 3184 3459 
z
M 888 1484 
Q 888 1194 1011 928 
Q 1134 663 1356 523 
Q 1578 384 1822 384 
Q 2178 384 2434 671 
Q 2691 959 2691 1453 
Q 2691 1928 2437 2201 
Q 2184 2475 1800 2475 
Q 1419 2475 1153 2201 
Q 888 1928 888 1484 
z
" transform="scale(0.015625)"/>
       </defs>
       <use xlink:href="#ArialMT-36"/>
       <use xlink:href="#ArialMT-30" x="55.615234"/>
       <use xlink:href="#ArialMT-30" x="111.230469"/>
      </g>
     </g>
    </g>
    <g id="xtick_5">
     <g id="line2d_5">
      <path d="M 463.324675 384.48 
L 463.324675 51.84 
" clip-path="url(#pfa2384c3d4)" style="fill: none; stroke: #ffffff; stroke-width: 0.8; stroke-linecap: round"/>
     </g>
     <g id="text_5">
      <!-- 800 -->
      <g style="fill: #262626" transform="translate(454.983269 398.637812) scale(0.1 -0.1)">
       <defs>
        <path id="ArialMT-38" d="M 1131 2484 
Q 781 2613 612 2850 
Q 444 3088 444 3419 
Q 444 3919 803 4259 
Q 1163 4600 1759 4600 
Q 2359 4600 2725 4251 
Q 3091 3903 3091 3403 
Q 3091 3084 2923 2848 
Q 2756 2613 2416 2484 
Q 2838 2347 3058 2040 
Q 3278 1734 3278 1309 
Q 3278 722 2862 322 
Q 2447 -78 1769 -78 
Q 1091 -78 675 323 
Q 259 725 259 1325 
Q 259 1772 486 2073 
Q 713 2375 1131 2484 
z
M 1019 3438 
Q 1019 3113 1228 2906 
Q 1438 2700 1772 2700 
Q 2097 2700 2305 2904 
Q 2513 3109 2513 3406 
Q 2513 3716 2298 3927 
Q 2084 4138 1766 4138 
Q 1444 4138 1231 3931 
Q 1019 3725 1019 3438 
z
M 838 1322 
Q 838 1081 952 856 
Q 1066 631 1291 507 
Q 1516 384 1775 384 
Q 2178 384 2440 643 
Q 2703 903 2703 1303 
Q 2703 1709 2433 1975 
Q 2163 2241 1756 2241 
Q 1359 2241 1098 1978 
Q 838 1716 838 1322 
z
" transform="scale(0.015625)"/>
       </defs>
       <use xlink:href="#ArialMT-38"/>
       <use xlink:href="#ArialMT-30" x="55.615234"/>
       <use xlink:href="#ArialMT-30" x="111.230469"/>
      </g>
     </g>
    </g>
    <g id="text_6">
     <!-- Days -->
     <g style="fill: #262626" transform="translate(283.808594 411.783125) scale(0.1 -0.1)">
      <defs>
       <path id="ArialMT-44" d="M 494 0 
L 494 4581 
L 2072 4581 
Q 2606 4581 2888 4516 
Q 3281 4425 3559 4188 
Q 3922 3881 4101 3404 
Q 4281 2928 4281 2316 
Q 4281 1794 4159 1391 
Q 4038 988 3847 723 
Q 3656 459 3429 307 
Q 3203 156 2883 78 
Q 2563 0 2147 0 
L 494 0 
z
M 1100 541 
L 2078 541 
Q 2531 541 2789 625 
Q 3047 709 3200 863 
Q 3416 1078 3536 1442 
Q 3656 1806 3656 2325 
Q 3656 3044 3420 3430 
Q 3184 3816 2847 3947 
Q 2603 4041 2063 4041 
L 1100 4041 
L 1100 541 
z
" transform="scale(0.015625)"/>
       <path id="ArialMT-61" d="M 2588 409 
Q 2275 144 1986 34 
Q 1697 -75 1366 -75 
Q 819 -75 525 192 
Q 231 459 231 875 
Q 231 1119 342 1320 
Q 453 1522 633 1644 
Q 813 1766 1038 1828 
Q 1203 1872 1538 1913 
Q 2219 1994 2541 2106 
Q 2544 2222 2544 2253 
Q 2544 2597 2384 2738 
Q 2169 2928 1744 2928 
Q 1347 2928 1158 2789 
Q 969 2650 878 2297 
L 328 2372 
Q 403 2725 575 2942 
Q 747 3159 1072 3276 
Q 1397 3394 1825 3394 
Q 2250 3394 2515 3294 
Q 2781 3194 2906 3042 
Q 3031 2891 3081 2659 
Q 3109 2516 3109 2141 
L 3109 1391 
Q 3109 606 3145 398 
Q 3181 191 3288 0 
L 2700 0 
Q 2613 175 2588 409 
z
M 2541 1666 
Q 2234 1541 1622 1453 
Q 1275 1403 1131 1340 
Q 988 1278 909 1158 
Q 831 1038 831 891 
Q 831 666 1001 516 
Q 1172 366 1500 366 
Q 1825 366 2078 508 
Q 2331 650 2450 897 
Q 2541 1088 2541 1459 
L 2541 1666 
z
" transform="scale(0.015625)"/>
       <path id="ArialMT-79" d="M 397 -1278 
L 334 -750 
Q 519 -800 656 -800 
Q 844 -800 956 -737 
Q 1069 -675 1141 -563 
Q 1194 -478 1313 -144 
Q 1328 -97 1363 -6 
L 103 3319 
L 709 3319 
L 1400 1397 
Q 1534 1031 1641 628 
Q 1738 1016 1872 1384 
L 2581 3319 
L 3144 3319 
L 1881 -56 
Q 1678 -603 1566 -809 
Q 1416 -1088 1222 -1217 
Q 1028 -1347 759 -1347 
Q 597 -1347 397 -1278 
z
" transform="scale(0.015625)"/>
       <path id="ArialMT-73" d="M 197 991 
L 753 1078 
Q 800 744 1014 566 
Q 1228 388 1613 388 
Q 2000 388 2187 545 
Q 2375 703 2375 916 
Q 2375 1106 2209 1216 
Q 2094 1291 1634 1406 
Q 1016 1563 777 1677 
Q 538 1791 414 1992 
Q 291 2194 291 2438 
Q 291 2659 392 2848 
Q 494 3038 669 3163 
Q 800 3259 1026 3326 
Q 1253 3394 1513 3394 
Q 1903 3394 2198 3281 
Q 2494 3169 2634 2976 
Q 2775 2784 2828 2463 
L 2278 2388 
Q 2241 2644 2061 2787 
Q 1881 2931 1553 2931 
Q 1166 2931 1000 2803 
Q 834 2675 834 2503 
Q 834 2394 903 2306 
Q 972 2216 1119 2156 
Q 1203 2125 1616 2013 
Q 2213 1853 2448 1751 
Q 2684 1650 2818 1456 
Q 2953 1263 2953 975 
Q 2953 694 2789 445 
Q 2625 197 2315 61 
Q 2006 -75 1616 -75 
Q 969 -75 630 194 
Q 291 463 197 991 
z
" transform="scale(0.015625)"/>
      </defs>
      <use xlink:href="#ArialMT-44"/>
      <use xlink:href="#ArialMT-61" x="72.216797"/>
      <use xlink:href="#ArialMT-79" x="127.832031"/>
      <use xlink:href="#ArialMT-73" x="177.832031"/>
     </g>
    </g>
   </g>
   <g id="matplotlib.axis_2">
    <g id="ytick_1">
     <g id="line2d_6">
      <path d="M 72 369.107579 
L 518.4 369.107579 
" clip-path="url(#pfa2384c3d4)" style="fill: none; stroke: #ffffff; stroke-width: 0.8; stroke-linecap: round"/>
     </g>
     <g id="text_7">
      <!-- 0 -->
      <g style="fill: #262626" transform="translate(59.439062 372.686486) scale(0.1 -0.1)">
       <use xlink:href="#ArialMT-30"/>
      </g>
     </g>
    </g>
    <g id="ytick_2">
     <g id="line2d_7">
      <path d="M 72 318.623439 
L 518.4 318.623439 
" clip-path="url(#pfa2384c3d4)" style="fill: none; stroke: #ffffff; stroke-width: 0.8; stroke-linecap: round"/>
     </g>
     <g id="text_8">
      <!-- 200 -->
      <g style="fill: #262626" transform="translate(48.317188 322.202345) scale(0.1 -0.1)">
       <use xlink:href="#ArialMT-32"/>
       <use xlink:href="#ArialMT-30" x="55.615234"/>
       <use xlink:href="#ArialMT-30" x="111.230469"/>
      </g>
     </g>
    </g>
    <g id="ytick_3">
     <g id="line2d_8">
      <path d="M 72 268.139299 
L 518.4 268.139299 
" clip-path="url(#pfa2384c3d4)" style="fill: none; stroke: #ffffff; stroke-width: 0.8; stroke-linecap: round"/>
     </g>
     <g id="text_9">
      <!-- 400 -->
      <g style="fill: #262626" transform="translate(48.317188 271.718205) scale(0.1 -0.1)">
       <use xlink:href="#ArialMT-34"/>
       <use xlink:href="#ArialMT-30" x="55.615234"/>
       <use xlink:href="#ArialMT-30" x="111.230469"/>
      </g>
     </g>
    </g>
    <g id="ytick_4">
     <g id="line2d_9">
      <path d="M 72 217.655159 
L 518.4 217.655159 
" clip-path="url(#pfa2384c3d4)" style="fill: none; stroke: #ffffff; stroke-width: 0.8; stroke-linecap: round"/>
     </g>
     <g id="text_10">
      <!-- 600 -->
      <g style="fill: #262626" transform="translate(48.317188 221.234065) scale(0.1 -0.1)">
       <use xlink:href="#ArialMT-36"/>
       <use xlink:href="#ArialMT-30" x="55.615234"/>
       <use xlink:href="#ArialMT-30" x="111.230469"/>
      </g>
     </g>
    </g>
    <g id="ytick_5">
     <g id="line2d_10">
      <path d="M 72 167.171018 
L 518.4 167.171018 
" clip-path="url(#pfa2384c3d4)" style="fill: none; stroke: #ffffff; stroke-width: 0.8; stroke-linecap: round"/>
     </g>
     <g id="text_11">
      <!-- 800 -->
      <g style="fill: #262626" transform="translate(48.317188 170.749925) scale(0.1 -0.1)">
       <use xlink:href="#ArialMT-38"/>
       <use xlink:href="#ArialMT-30" x="55.615234"/>
       <use xlink:href="#ArialMT-30" x="111.230469"/>
      </g>
     </g>
    </g>
    <g id="ytick_6">
     <g id="line2d_11">
      <path d="M 72 116.686878 
L 518.4 116.686878 
" clip-path="url(#pfa2384c3d4)" style="fill: none; stroke: #ffffff; stroke-width: 0.8; stroke-linecap: round"/>
     </g>
     <g id="text_12">
      <!-- 1000 -->
      <g style="fill: #262626" transform="translate(42.75625 120.265784) scale(0.1 -0.1)">
       <defs>
        <path id="ArialMT-31" d="M 2384 0 
L 1822 0 
L 1822 3584 
Q 1619 3391 1289 3197 
Q 959 3003 697 2906 
L 697 3450 
Q 1169 3672 1522 3987 
Q 1875 4303 2022 4600 
L 2384 4600 
L 2384 0 
z
" transform="scale(0.015625)"/>
       </defs>
       <use xlink:href="#ArialMT-31"/>
       <use xlink:href="#ArialMT-30" x="55.615234"/>
       <use xlink:href="#ArialMT-30" x="111.230469"/>
       <use xlink:href="#ArialMT-30" x="166.845703"/>
      </g>
     </g>
    </g>
    <g id="ytick_7">
     <g id="line2d_12">
      <path d="M 72 66.202738 
L 518.4 66.202738 
" clip-path="url(#pfa2384c3d4)" style="fill: none; stroke: #ffffff; stroke-width: 0.8; stroke-linecap: round"/>
     </g>
     <g id="text_13">
      <!-- 1200 -->
      <g style="fill: #262626" transform="translate(42.75625 69.781644) scale(0.1 -0.1)">
       <use xlink:href="#ArialMT-31"/>
       <use xlink:href="#ArialMT-32" x="55.615234"/>
       <use xlink:href="#ArialMT-30" x="111.230469"/>
       <use xlink:href="#ArialMT-30" x="166.845703"/>
      </g>
     </g>
    </g>
    <g id="text_14">
     <!-- (W/m^2) -->
     <g style="fill: #262626" transform="translate(36.651562 236.889687) rotate(-90) scale(0.1 -0.1)">
      <defs>
       <path id="ArialMT-28" d="M 1497 -1347 
Q 1031 -759 709 28 
Q 388 816 388 1659 
Q 388 2403 628 3084 
Q 909 3875 1497 4659 
L 1900 4659 
Q 1522 4009 1400 3731 
Q 1209 3300 1100 2831 
Q 966 2247 966 1656 
Q 966 153 1900 -1347 
L 1497 -1347 
z
" transform="scale(0.015625)"/>
       <path id="ArialMT-57" d="M 1294 0 
L 78 4581 
L 700 4581 
L 1397 1578 
Q 1509 1106 1591 641 
Q 1766 1375 1797 1488 
L 2669 4581 
L 3400 4581 
L 4056 2263 
Q 4303 1400 4413 641 
Q 4500 1075 4641 1638 
L 5359 4581 
L 5969 4581 
L 4713 0 
L 4128 0 
L 3163 3491 
Q 3041 3928 3019 4028 
Q 2947 3713 2884 3491 
L 1913 0 
L 1294 0 
z
" transform="scale(0.015625)"/>
       <path id="ArialMT-2f" d="M 0 -78 
L 1328 4659 
L 1778 4659 
L 453 -78 
L 0 -78 
z
" transform="scale(0.015625)"/>
       <path id="ArialMT-6d" d="M 422 0 
L 422 3319 
L 925 3319 
L 925 2853 
Q 1081 3097 1340 3245 
Q 1600 3394 1931 3394 
Q 2300 3394 2536 3241 
Q 2772 3088 2869 2813 
Q 3263 3394 3894 3394 
Q 4388 3394 4653 3120 
Q 4919 2847 4919 2278 
L 4919 0 
L 4359 0 
L 4359 2091 
Q 4359 2428 4304 2576 
Q 4250 2725 4106 2815 
Q 3963 2906 3769 2906 
Q 3419 2906 3187 2673 
Q 2956 2441 2956 1928 
L 2956 0 
L 2394 0 
L 2394 2156 
Q 2394 2531 2256 2718 
Q 2119 2906 1806 2906 
Q 1569 2906 1367 2781 
Q 1166 2656 1075 2415 
Q 984 2175 984 1722 
L 984 0 
L 422 0 
z
" transform="scale(0.015625)"/>
       <path id="ArialMT-5e" d="M 747 2156 
L 169 2156 
L 1272 4659 
L 1725 4659 
L 2834 2156 
L 2269 2156 
L 1497 4022 
L 747 2156 
z
" transform="scale(0.015625)"/>
       <path id="ArialMT-29" d="M 791 -1347 
L 388 -1347 
Q 1322 153 1322 1656 
Q 1322 2244 1188 2822 
Q 1081 3291 891 3722 
Q 769 4003 388 4659 
L 791 4659 
Q 1378 3875 1659 3084 
Q 1900 2403 1900 1659 
Q 1900 816 1576 28 
Q 1253 -759 791 -1347 
z
" transform="scale(0.015625)"/>
      </defs>
      <use xlink:href="#ArialMT-28"/>
      <use xlink:href="#ArialMT-57" x="33.300781"/>
      <use xlink:href="#ArialMT-2f" x="127.685547"/>
      <use xlink:href="#ArialMT-6d" x="155.46875"/>
      <use xlink:href="#ArialMT-5e" x="238.769531"/>
      <use xlink:href="#ArialMT-32" x="285.693359"/>
      <use xlink:href="#ArialMT-29" x="341.308594"/>
     </g>
    </g>
   </g>
   <g id="line2d_13">
    <path d="M 92.290909 97.250484 
L 92.754701 132.589382 
L 93.218494 146.472521 
L 93.682286 179.539633 
L 94.146078 126.026444 
L 94.60987 267.129616 
L 95.073662 120.725609 
L 95.537455 151.773356 
L 96.001247 249.207746 
L 96.465039 112.395726 
L 96.928831 120.725609 
L 97.392623 156.064508 
L 97.856416 138.395058 
L 98.320208 245.421436 
L 98.784 125.774023 
L 99.247792 101.289215 
L 99.711584 96.240801 
L 100.175377 108.861836 
L 100.639169 117.948982 
L 101.102961 143.948314 
L 101.566753 151.268514 
L 102.030545 155.812087 
L 102.494338 142.43379 
L 102.95813 116.434457 
L 103.421922 132.084541 
L 103.885714 170.957329 
L 104.349506 116.686878 
L 104.813299 152.025776 
L 105.277091 143.443472 
L 105.740883 148.239466 
L 106.204675 159.598397 
L 106.668468 338.564674 
L 107.13226 330.234791 
L 107.596052 274.954658 
L 108.059844 278.993389 
L 108.523636 236.586711 
L 108.987429 300.95399 
L 109.451221 277.983706 
L 109.915013 330.234791 
L 110.378805 332.758998 
L 110.842597 227.247145 
L 111.30639 167.423439 
L 111.770182 226.994725 
L 112.233974 181.811419 
L 112.697766 182.821102 
L 113.625351 186.607412 
L 114.552935 166.918598 
L 115.016727 233.810083 
L 115.480519 192.91793 
L 115.944312 207.30591 
L 116.408104 188.121937 
L 116.871896 194.937295 
L 117.335688 207.810751 
L 117.799481 196.45182 
L 118.263273 342.603406 
L 118.727065 328.467846 
L 119.190857 173.733957 
L 119.654649 321.147646 
L 120.118442 120.725609 
L 120.582234 186.607412 
L 121.046026 151.268514 
L 121.509818 193.422771 
L 121.97361 329.477529 
L 122.437403 272.430451 
L 122.901195 156.82177 
L 123.828779 241.887546 
L 124.292571 203.267179 
L 124.756364 192.665509 
L 125.220156 305.749983 
L 125.683948 196.45182 
L 126.14774 209.830117 
L 127.075325 206.043806 
L 127.539117 206.043806 
L 128.002909 295.653155 
L 128.466701 341.593723 
L 128.930494 216.393055 
L 129.394286 298.682204 
L 129.858078 323.419432 
L 130.32187 218.664841 
L 130.785662 199.733289 
L 131.249455 195.442137 
L 131.713247 220.431786 
L 132.177039 203.519599 
L 132.640831 196.45182 
L 133.104623 197.461503 
L 133.568416 190.898564 
L 134.032208 168.937963 
L 134.496 241.382705 
L 134.959792 208.820434 
L 135.887377 203.77202 
L 136.351169 202.509917 
L 136.814961 204.529282 
L 137.278753 203.267179 
L 137.742545 214.373689 
L 138.206338 217.655159 
L 138.67013 211.849482 
L 139.133922 197.713923 
L 139.597714 340.836461 
L 140.061506 319.380701 
L 140.525299 221.441469 
L 140.989091 273.944975 
L 141.452883 341.088881 
L 141.916675 207.558331 
L 142.380468 201.752654 
L 142.84426 205.538965 
L 143.308052 216.140634 
L 143.771844 207.558331 
L 144.235636 212.354324 
L 144.699429 340.58404 
L 145.163221 320.390384 
L 145.627013 200.490551 
L 146.090805 198.471185 
L 146.554597 337.05015 
L 147.482182 331.496895 
L 147.945974 213.616427 
L 148.409766 202.509917 
L 148.873558 170.704908 
L 149.337351 195.442137 
L 149.801143 190.898564 
L 150.264935 194.937295 
L 150.728727 176.258164 
L 151.192519 199.480868 
L 151.656312 196.956661 
L 152.120104 304.992721 
L 152.583896 332.506578 
L 153.047688 187.617095 
L 153.975273 188.121937 
L 154.439065 180.044474 
L 154.902857 184.588047 
L 155.366649 182.821102 
L 155.830442 148.996728 
L 156.294234 162.375025 
L 156.758026 207.30591 
L 157.221818 189.888881 
L 157.68561 201.500234 
L 158.149403 193.170351 
L 158.613195 289.090217 
L 159.076987 334.525943 
L 159.540779 245.926277 
L 160.004571 179.792053 
L 160.468364 311.80808 
L 160.932156 176.510584 
L 161.395948 158.336294 
L 161.85974 184.083205 
L 162.323532 181.054157 
L 162.787325 180.801736 
L 163.714909 196.956661 
L 164.178701 150.258831 
L 164.642494 139.657162 
L 165.106286 170.452487 
L 165.570078 171.714591 
L 166.03387 166.666177 
L 166.497662 165.404073 
L 166.961455 176.763005 
L 167.425247 178.52995 
L 167.889039 244.411753 
L 168.352831 166.666177 
L 168.816623 180.549316 
L 169.280416 167.171018 
L 169.744208 326.953322 
L 170.208 284.041803 
L 170.671792 300.449149 
L 171.135584 161.617763 
L 171.599377 147.987045 
L 172.063169 141.171686 
L 172.990753 189.636461 
L 173.454545 158.083873 
L 173.918338 161.870184 
L 174.38213 120.473189 
L 174.845922 252.741636 
L 175.309714 173.481536 
L 175.773506 154.297563 
L 176.701091 242.644808 
L 177.164883 196.45182 
L 177.628675 298.682204 
L 178.092468 211.09222 
L 178.55626 157.07419 
L 179.020052 148.491886 
L 179.483844 135.870851 
L 179.947636 308.02177 
L 180.411429 135.618431 
L 180.875221 169.947646 
L 181.339013 132.841803 
L 181.802805 143.695893 
L 182.266597 197.713923 
L 182.73039 235.324608 
L 183.194182 132.084541 
L 183.657974 87.658497 
L 184.121766 132.336962 
L 184.585558 143.695893 
L 185.049351 137.385376 
L 185.513143 147.734624 
L 185.976935 140.919265 
L 186.440727 137.890217 
L 186.904519 140.162003 
L 187.368312 148.239466 
L 187.832104 127.036127 
L 188.295896 139.404741 
L 188.759688 142.181369 
L 189.223481 121.230451 
L 189.687273 126.026444 
L 190.151065 154.549983 
L 190.614857 136.628114 
L 191.078649 131.327279 
L 191.542442 142.43379 
L 192.006234 150.511252 
L 192.470026 178.025109 
L 192.933818 158.841135 
L 193.39761 147.734624 
L 193.861403 129.055492 
L 194.325195 139.909583 
L 194.788987 145.210417 
L 195.252779 138.142638 
L 195.716571 247.440801 
L 196.180364 137.132955 
L 196.644156 147.734624 
L 197.107948 151.268514 
L 197.57174 152.530618 
L 198.035532 133.094224 
L 198.499325 151.773356 
L 198.963117 111.638464 
L 199.890701 121.230451 
L 200.354494 145.210417 
L 200.818286 193.170351 
L 201.282078 100.784374 
L 201.74587 112.648147 
L 202.209662 92.454491 
L 202.673455 93.716594 
L 203.137247 147.987045 
L 203.601039 126.026444 
L 204.064831 125.774023 
L 204.528623 140.162003 
L 204.992416 148.491886 
L 205.456208 152.278197 
L 205.92 140.666845 
L 206.383792 162.122604 
L 206.847584 150.763673 
L 207.311377 124.764341 
L 207.775169 106.59005 
L 208.238961 113.65783 
L 208.702753 144.453155 
L 209.166545 116.434457 
L 210.09413 195.694558 
L 210.557922 111.638464 
L 211.021714 121.987713 
L 211.485506 118.958664 
L 211.949299 116.686878 
L 212.413091 110.376361 
L 212.876883 132.589382 
L 213.340675 139.152321 
L 213.804468 138.395058 
L 214.26826 128.04581 
L 214.732052 134.861169 
L 215.195844 113.91025 
L 215.659636 109.871519 
L 216.123429 110.12394 
L 217.051013 138.647479 
L 217.514805 141.424107 
L 218.44239 119.463506 
L 218.906182 138.8999 
L 219.369974 88.41576 
L 219.833766 113.91025 
L 220.297558 148.239466 
L 220.761351 146.724942 
L 221.225143 109.871519 
L 221.688935 98.512588 
L 222.152727 204.276861 
L 222.616519 111.890885 
L 223.080312 111.638464 
L 223.544104 130.065175 
L 224.007896 129.560334 
L 224.471688 132.841803 
L 224.935481 138.647479 
L 225.399273 131.327279 
L 225.863065 113.152988 
L 226.326857 133.094224 
L 226.790649 146.724942 
L 227.718234 132.589382 
L 228.182026 143.191052 
L 228.645818 136.628114 
L 229.10961 136.123272 
L 229.573403 119.463506 
L 230.037195 109.871519 
L 230.500987 129.560334 
L 230.964779 107.599733 
L 231.428571 134.861169 
L 231.892364 129.307913 
L 232.356156 145.210417 
L 232.819948 143.948314 
L 233.28374 143.443472 
L 233.747532 143.191052 
L 234.211325 132.084541 
L 234.675117 129.307913 
L 235.138909 102.551319 
L 235.602701 96.240801 
L 236.066494 128.803072 
L 236.530286 127.036127 
L 236.994078 121.482871 
L 237.45787 141.928948 
L 237.921662 144.957997 
L 238.385455 141.424107 
L 238.849247 142.181369 
L 239.313039 141.676528 
L 239.776831 135.36601 
L 240.240623 94.473856 
L 240.704416 82.105242 
L 241.168208 134.608748 
L 241.632 129.560334 
L 242.095792 148.744307 
L 243.023377 144.200735 
L 243.487169 145.967679 
L 243.950961 147.229783 
L 244.414753 146.977362 
L 244.878545 145.462838 
L 245.342338 150.006411 
L 245.80613 145.210417 
L 246.269922 150.763673 
L 246.733714 151.773356 
L 247.197506 155.307245 
L 247.661299 147.229783 
L 248.125091 146.2201 
L 248.588883 125.774023 
L 249.052675 142.938631 
L 249.516468 147.987045 
L 249.98026 98.260167 
L 250.444052 145.210417 
L 250.907844 144.200735 
L 251.371636 145.462838 
L 251.835429 138.142638 
L 252.299221 141.171686 
L 252.763013 146.724942 
L 253.226805 122.997396 
L 253.690597 137.385376 
L 254.15439 142.181369 
L 254.618182 205.791386 
L 255.081974 359.768013 
L 255.545766 369.107579 
L 256.009558 127.540968 
L 256.473351 118.201402 
L 256.937143 131.83212 
L 257.400935 110.376361 
L 257.864727 132.336962 
L 258.328519 129.560334 
L 258.792312 115.677195 
L 259.256104 149.249149 
L 259.719896 158.336294 
L 260.183688 151.773356 
L 260.647481 171.20975 
L 261.111273 138.142638 
L 261.575065 139.404741 
L 262.038857 163.132287 
L 262.502649 148.491886 
L 262.966442 137.385376 
L 263.430234 157.579032 
L 263.894026 158.083873 
L 264.357818 145.715259 
L 264.82161 144.957997 
L 265.285403 103.308581 
L 265.749195 128.29823 
L 266.212987 106.59005 
L 266.676779 140.666845 
L 267.140571 153.035459 
L 267.604364 158.083873 
L 268.068156 153.035459 
L 268.531948 134.861169 
L 268.99574 143.191052 
L 269.459532 172.471853 
L 269.923325 172.976694 
L 270.387117 144.957997 
L 270.850909 137.637796 
L 271.314701 177.015426 
L 271.778494 172.219432 
L 272.242286 177.772688 
L 272.706078 300.196728 
L 273.16987 172.471853 
L 273.633662 179.287212 
L 274.097455 169.695225 
L 274.561247 152.783038 
L 275.025039 150.511252 
L 275.488831 172.976694 
L 275.952623 163.132287 
L 276.416416 134.608748 
L 276.880208 147.482204 
L 277.344 173.481536 
L 277.807792 179.034791 
L 278.271584 191.655826 
L 278.735377 170.452487 
L 279.199169 287.575693 
L 279.662961 200.995392 
L 280.126753 183.073523 
L 280.590545 199.733289 
L 281.054338 176.258164 
L 281.51813 197.209082 
L 281.981922 165.908915 
L 282.445714 200.742972 
L 282.909506 195.189716 
L 283.373299 292.119265 
L 283.837091 265.11025 
L 284.300883 250.46985 
L 284.764675 199.480868 
L 285.228468 330.992053 
L 285.69226 198.723606 
L 286.156052 198.723606 
L 286.619844 199.480868 
L 287.083636 194.180033 
L 287.547429 161.112922 
L 288.011221 172.471853 
L 288.475013 208.063172 
L 288.938805 194.684875 
L 289.402597 190.393723 
L 289.86639 198.976027 
L 290.330182 310.545977 
L 290.793974 203.77202 
L 291.257766 202.005075 
L 291.721558 196.956661 
L 292.185351 152.025776 
L 293.112935 218.664841 
L 293.576727 210.8398 
L 294.040519 205.791386 
L 294.504312 206.043806 
L 294.968104 217.150317 
L 295.431896 211.09222 
L 295.895688 215.130952 
L 296.359481 213.364007 
L 297.287065 223.208414 
L 297.750857 221.441469 
L 298.214649 304.992721 
L 298.678442 183.325943 
L 299.142234 219.926945 
L 299.606026 212.859165 
L 300.069818 214.62611 
L 300.53361 217.402738 
L 300.997403 169.695225 
L 301.461195 206.801068 
L 301.924987 193.927613 
L 302.852571 241.130284 
L 303.316364 324.681536 
L 303.780156 202.762337 
L 304.243948 204.276861 
L 304.70774 211.849482 
L 305.171532 212.859165 
L 305.635325 198.976027 
L 306.099117 297.4201 
L 306.562909 145.462838 
L 307.026701 214.878531 
L 307.490494 206.043806 
L 307.954286 343.360668 
L 308.418078 319.633122 
L 308.88187 197.713923 
L 309.345662 199.228447 
L 309.809455 202.005075 
L 310.273247 199.98571 
L 310.737039 202.257496 
L 311.200831 202.005075 
L 311.664623 191.403406 
L 312.128416 200.995392 
L 312.592208 218.16 
L 313.056 196.70424 
L 313.519792 190.393723 
L 313.983584 246.431119 
L 314.447377 217.655159 
L 314.911169 253.498898 
L 315.374961 305.749983 
L 315.838753 290.352321 
L 316.302545 195.946978 
L 316.766338 300.701569 
L 317.23013 243.149649 
L 317.693922 340.079199 
L 318.157714 254.00374 
L 318.621506 200.23813 
L 319.085299 167.171018 
L 319.549091 285.303907 
L 320.012883 192.91793 
L 320.476675 198.723606 
L 321.40426 190.646144 
L 321.868052 214.373689 
L 322.331844 197.461503 
L 322.795636 190.646144 
L 323.259429 207.810751 
L 323.723221 162.627446 
L 324.187013 167.171018 
L 324.650805 221.69389 
L 325.114597 190.141302 
L 325.57839 189.636461 
L 326.042182 195.189716 
L 326.505974 184.335626 
L 326.969766 194.432454 
L 327.433558 314.837129 
L 327.897351 270.411085 
L 328.361143 182.06384 
L 328.824935 299.439466 
L 329.288727 178.025109 
L 329.752519 166.918598 
L 330.216312 165.404073 
L 330.680104 169.947646 
L 331.143896 343.360668 
L 331.607688 340.58404 
L 332.071481 278.488548 
L 332.535273 150.258831 
L 332.999065 188.879199 
L 333.462857 169.190384 
L 333.926649 164.646811 
L 334.390442 161.870184 
L 334.854234 162.375025 
L 335.318026 159.850818 
L 335.781818 169.947646 
L 336.24561 166.413756 
L 336.709403 157.07419 
L 337.173195 193.170351 
L 337.636987 113.65783 
L 338.100779 161.365342 
L 339.028364 152.025776 
L 339.492156 189.888881 
L 339.955948 183.325943 
L 340.41974 254.508581 
L 340.883532 168.180701 
L 341.347325 155.812087 
L 341.811117 165.404073 
L 342.274909 165.908915 
L 342.738701 143.191052 
L 343.202494 173.733957 
L 343.666286 135.113589 
L 344.130078 140.414424 
L 344.59387 154.802404 
L 345.057662 283.284541 
L 345.521455 291.362003 
L 346.449039 142.181369 
L 346.912831 153.035459 
L 347.376623 154.045142 
L 347.840416 152.530618 
L 348.304208 155.054825 
L 348.768 121.987713 
L 349.231792 327.205743 
L 349.695584 172.976694 
L 350.159377 139.657162 
L 350.623169 158.083873 
L 351.086961 148.996728 
L 351.550753 131.579699 
L 352.014545 229.518932 
L 352.478338 269.653823 
L 352.94213 189.888881 
L 353.405922 131.579699 
L 353.869714 141.676528 
L 354.333506 155.559666 
L 354.797299 162.375025 
L 355.261091 131.83212 
L 355.724883 129.560334 
L 356.188675 136.123272 
L 356.652468 163.889549 
L 357.11626 136.123272 
L 357.580052 256.527947 
L 358.043844 130.570017 
L 358.507636 114.415092 
L 358.971429 126.278865 
L 359.435221 142.938631 
L 359.899013 145.462838 
L 360.362805 146.977362 
L 360.826597 137.890217 
L 361.29039 134.103907 
L 361.754182 108.104574 
L 362.217974 128.550651 
L 362.681766 135.870851 
L 363.145558 140.666845 
L 363.609351 133.094224 
L 364.073143 121.735292 
L 364.536935 136.123272 
L 365.000727 137.637796 
L 365.464519 135.618431 
L 365.928312 137.385376 
L 366.392104 140.919265 
L 366.855896 106.59005 
L 367.319688 135.618431 
L 368.247273 66.96 
L 368.711065 114.919933 
L 369.174857 98.260167 
L 369.638649 128.803072 
L 370.102442 94.978698 
L 370.566234 111.386043 
L 371.030026 132.841803 
L 371.493818 133.599065 
L 371.95761 135.113589 
L 372.421403 134.356327 
L 372.885195 138.8999 
L 373.348987 121.482871 
L 373.812779 126.278865 
L 374.276571 132.589382 
L 374.740364 112.648147 
L 375.204156 115.677195 
L 375.667948 108.104574 
L 376.13174 78.823773 
L 376.595532 116.686878 
L 377.059325 115.677195 
L 377.523117 118.201402 
L 377.986909 99.52227 
L 378.450701 95.231119 
L 378.914494 130.822437 
L 379.378286 108.104574 
L 379.842078 122.240134 
L 380.30587 130.822437 
L 380.769662 111.890885 
L 381.233455 135.870851 
L 381.697247 134.356327 
L 382.161039 138.647479 
L 382.624831 116.686878 
L 383.088623 114.919933 
L 383.552416 335.535626 
L 384.016208 128.803072 
L 384.48 129.812755 
L 385.407584 103.05616 
L 385.871377 100.027112 
L 386.335169 86.901235 
L 386.798961 138.647479 
L 387.262753 139.152321 
L 387.726545 104.318264 
L 388.190338 142.938631 
L 389.581714 131.327279 
L 390.045506 119.463506 
L 390.509299 86.648815 
L 390.973091 87.658497 
L 391.436883 142.181369 
L 392.364468 109.114257 
L 392.82826 189.636461 
L 393.292052 128.550651 
L 393.755844 153.035459 
L 394.219636 137.385376 
L 394.683429 137.637796 
L 395.147221 145.967679 
L 395.611013 142.938631 
L 396.074805 249.207746 
L 396.538597 142.68621 
L 397.00239 143.191052 
L 397.929974 138.142638 
L 398.393766 133.346644 
L 398.857558 134.608748 
L 399.321351 142.938631 
L 399.785143 141.676528 
L 400.248935 134.608748 
L 400.712727 114.919933 
L 401.176519 146.2201 
L 401.640312 132.841803 
L 402.104104 96.493222 
L 402.567896 125.016761 
L 403.031688 128.803072 
L 403.495481 117.696561 
L 403.959273 150.511252 
L 404.423065 249.965008 
L 404.886857 311.050818 
L 405.350649 291.614424 
L 405.814442 144.453155 
L 406.278234 129.055492 
L 406.742026 149.75399 
L 407.205818 90.182705 
L 407.66961 134.356327 
L 408.133403 136.123272 
L 408.597195 135.618431 
L 409.060987 127.288548 
L 409.524779 213.364007 
L 409.988571 86.396394 
L 410.452364 114.162671 
L 410.916156 133.851486 
L 411.379948 141.424107 
L 411.84374 142.68621 
L 412.307532 141.676528 
L 412.771325 141.424107 
L 413.235117 140.919265 
L 413.698909 144.200735 
L 414.162701 142.938631 
L 414.626494 157.07419 
L 415.090286 134.608748 
L 415.554078 146.472521 
L 416.01787 142.43379 
L 416.481662 118.706244 
L 416.945455 133.599065 
L 417.409247 128.803072 
L 417.873039 143.695893 
L 418.336831 148.239466 
L 418.800623 144.453155 
L 419.264416 149.75399 
L 419.728208 150.258831 
L 420.192 211.09222 
L 420.655792 369.36 
L 421.119584 150.511252 
L 421.583377 134.103907 
L 422.047169 279.24581 
L 422.510961 351.18571 
L 422.974753 91.949649 
L 423.438545 113.65783 
L 423.902338 118.706244 
L 424.36613 356.991386 
L 424.829922 137.385376 
L 425.293714 153.792721 
L 425.757506 151.268514 
L 426.221299 129.307913 
L 426.685091 148.744307 
L 427.148883 111.133623 
L 427.612675 142.181369 
L 428.076468 137.890217 
L 428.54026 140.666845 
L 429.004052 133.094224 
L 429.467844 139.909583 
L 429.931636 131.579699 
L 430.395429 126.531285 
L 430.859221 139.152321 
L 431.323013 143.948314 
L 431.786805 145.967679 
L 432.250597 145.210417 
L 432.71439 131.83212 
L 433.178182 135.113589 
L 433.641974 127.540968 
L 434.105766 141.676528 
L 434.569558 140.414424 
L 435.033351 140.919265 
L 435.497143 113.91025 
L 435.960935 123.502237 
L 436.424727 102.551319 
L 436.888519 121.735292 
L 437.352312 151.268514 
L 437.816104 120.97803 
L 438.279896 125.269182 
L 438.743688 144.705576 
L 439.207481 147.229783 
L 439.671273 135.618431 
L 440.135065 148.996728 
L 440.598857 112.395726 
L 441.062649 130.822437 
L 441.526442 114.415092 
L 441.990234 107.599733 
L 442.917818 143.443472 
L 443.38161 143.695893 
L 443.845403 129.307913 
L 444.309195 102.80374 
L 444.772987 130.822437 
L 445.236779 112.395726 
L 445.700571 115.172354 
L 446.164364 147.229783 
L 446.628156 258.042471 
L 447.091948 232.043139 
L 447.55574 114.919933 
L 448.019532 150.763673 
L 448.483325 115.677195 
L 448.947117 143.443472 
L 449.410909 132.589382 
L 449.874701 151.773356 
L 450.338494 144.453155 
L 450.802286 148.996728 
L 451.266078 107.599733 
L 451.72987 126.026444 
L 452.193662 151.016093 
L 452.657455 127.793389 
L 453.121247 123.249816 
L 453.585039 151.520935 
L 454.048831 138.142638 
L 454.512623 137.637796 
L 454.976416 151.016093 
L 455.440208 158.588715 
L 455.904 129.307913 
L 456.367792 133.851486 
L 456.831584 150.006411 
L 457.295377 144.200735 
L 457.759169 156.064508 
L 458.222961 159.598397 
L 458.686753 156.316928 
L 459.150545 133.851486 
L 459.614338 216.645476 
L 460.07813 252.741636 
L 460.541922 166.413756 
L 461.005714 297.4201 
L 461.469506 172.724274 
L 461.933299 296.157997 
L 462.397091 153.035459 
L 462.860883 283.536962 
L 463.324675 273.944975 
L 463.788468 175.500902 
L 464.25226 169.190384 
L 464.716052 176.258164 
L 465.179844 148.239466 
L 466.107429 174.99606 
L 466.571221 294.643472 
L 467.035013 170.704908 
L 467.498805 173.229115 
L 467.962597 172.976694 
L 468.42639 174.238798 
L 468.890182 202.257496 
L 469.353974 179.792053 
L 469.817766 178.025109 
L 470.281558 181.054157 
L 470.745351 173.481536 
L 471.209143 186.859833 
L 471.672935 187.617095 
L 472.136727 184.335626 
L 472.600519 242.644808 
L 473.064312 248.955326 
L 473.528104 315.846811 
L 473.991896 168.685543 
L 474.455688 188.626778 
L 474.919481 185.092888 
L 475.383273 185.092888 
L 475.847065 173.481536 
L 476.310857 150.006411 
L 476.774649 154.802404 
L 477.238442 199.228447 
L 477.702234 198.218765 
L 478.166026 172.976694 
L 478.629818 188.626778 
L 479.09361 195.946978 
L 479.557403 168.937963 
L 480.021195 315.594391 
L 480.484987 327.205743 
L 480.948779 332.758998 
L 481.412571 322.66217 
L 481.876364 335.030785 
L 482.340156 310.798397 
L 482.803948 305.245142 
L 483.26774 296.410417 
L 483.731532 205.538965 
L 484.195325 307.012087 
L 484.659117 199.480868 
L 485.122909 195.442137 
L 485.586701 204.529282 
L 486.050494 200.23813 
L 486.514286 226.742304 
L 486.978078 322.914591 
L 487.44187 220.179366 
L 487.905662 316.604073 
L 488.369455 368.602738 
L 488.833247 273.187713 
L 489.297039 216.140634 
L 489.760831 216.140634 
L 490.224623 215.635793 
L 490.688416 258.042471 
L 491.152208 247.693222 
L 491.616 193.927613 
L 492.079792 208.315593 
L 492.543584 208.568013 
L 493.007377 217.907579 
L 493.471169 240.877863 
L 493.934961 332.254157 
L 494.398753 217.402738 
L 494.862545 197.713923 
L 495.326338 316.856494 
L 496.253922 257.537629 
L 496.717714 170.704908 
L 497.181506 186.607412 
L 497.645299 157.579032 
L 498.109091 172.219432 
L 498.109091 172.219432 
" clip-path="url(#pfa2384c3d4)" style="fill: none; stroke: #1f77b4; stroke-width: 1.5; stroke-linecap: round"/>
   </g>
   <g id="line2d_14">
    <path d="M 92.290909 136.007159 
L 92.754701 130.143426 
L 93.682286 170.019308 
L 94.146078 161.221462 
L 94.60987 133.576347 
L 95.073662 170.619085 
L 95.537455 137.284407 
L 96.001247 163.281215 
L 96.465039 164.462544 
L 96.928831 172.310059 
L 97.392623 136.214144 
L 97.856416 163.200441 
L 98.320208 151.967139 
L 98.784 201.013062 
L 99.247792 174.385202 
L 99.711584 160.774678 
L 100.175377 155.453649 
L 100.639169 140.353843 
L 101.102961 134.381569 
L 101.566753 139.556194 
L 102.030545 148.542371 
L 102.494338 184.683967 
L 103.421922 131.130391 
L 103.885714 135.14388 
L 104.349506 166.762097 
L 104.813299 145.225318 
L 105.277091 148.252087 
L 105.740883 145.10668 
L 106.204675 146.8562 
L 106.668468 159.547913 
L 107.13226 202.000027 
L 107.596052 210.191078 
L 108.059844 191.42109 
L 108.523636 248.165264 
L 108.987429 249.442497 
L 109.451221 266.167893 
L 109.915013 287.15415 
L 110.378805 287.117988 
L 110.842597 283.933262 
L 111.30639 269.752537 
L 111.770182 212.884407 
L 112.233974 251.323032 
L 112.697766 207.563379 
L 113.161558 198.668073 
L 113.625351 200.268421 
L 114.552935 185.645689 
L 115.016727 180.913266 
L 115.480519 205.77624 
L 115.944312 202.294917 
L 116.408104 207.576 
L 116.871896 189.472387 
L 117.335688 209.363139 
L 117.799481 214.714457 
L 118.263273 213.563419 
L 118.727065 248.066805 
L 119.190857 252.186311 
L 119.654649 212.545722 
L 120.118442 271.456107 
L 120.582234 210.907953 
L 121.046026 207.134264 
L 121.509818 213.189836 
L 121.97361 202.810297 
L 122.437403 249.392013 
L 122.901195 244.202259 
L 123.364987 219.699766 
L 123.828779 210.710623 
L 124.292571 236.049055 
L 124.756364 199.856975 
L 125.220156 211.172995 
L 125.683948 253.119444 
L 126.14774 212.310529 
L 126.611532 220.040804 
L 127.075325 223.07995 
L 127.539117 217.50623 
L 128.002909 232.964474 
L 128.466701 238.714206 
L 128.930494 255.641538 
L 129.394286 240.307963 
L 129.858078 270.42623 
L 130.32187 269.535185 
L 131.249455 217.235537 
L 131.713247 225.968851 
L 132.177039 242.854317 
L 132.640831 217.576908 
L 133.104623 212.838972 
L 133.568416 205.798958 
L 134.032208 217.147793 
L 134.496 184.67387 
L 134.959792 234.23415 
L 135.423584 220.264585 
L 135.887377 226.42173 
L 136.351169 214.658925 
L 136.814961 209.529736 
L 137.278753 205.710611 
L 138.206338 227.183868 
L 138.67013 226.928684 
L 139.597714 208.512039 
L 140.061506 279.331221 
L 140.525299 251.078454 
L 140.989091 234.774601 
L 141.916675 288.794885 
L 142.380468 220.683604 
L 142.84426 234.395258 
L 143.308052 226.458989 
L 143.771844 246.142536 
L 144.235636 214.868434 
L 144.699429 224.505523 
L 145.163221 269.533966 
L 145.627013 245.135789 
L 146.090805 202.755802 
L 146.554597 212.089282 
L 147.01839 280.724995 
L 147.482182 251.807679 
L 147.945974 257.656282 
L 148.409766 230.778511 
L 148.873558 210.718196 
L 149.337351 221.41831 
L 149.801143 216.393055 
L 150.728727 201.67188 
L 151.192519 206.904561 
L 151.656312 213.502838 
L 152.120104 203.224267 
L 152.583896 234.372982 
L 153.047688 242.091595 
L 153.511481 196.838023 
L 153.975273 201.247813 
L 154.439065 209.635753 
L 154.902857 189.714711 
L 155.366649 202.89612 
L 155.830442 199.372327 
L 156.294234 212.923018 
L 156.758026 187.307365 
L 157.221818 205.343998 
L 158.149403 191.007105 
L 158.613195 202.648748 
L 159.076987 236.518558 
L 159.540779 252.900661 
L 160.004571 244.280494 
L 160.468364 191.592279 
L 160.932156 264.847733 
L 161.395948 202.525062 
L 161.85974 193.812246 
L 162.323532 203.274751 
L 162.787325 196.396287 
L 163.251117 200.737923 
L 163.714909 221.252154 
L 164.178701 213.71992 
L 164.642494 182.152934 
L 165.106286 181.884621 
L 165.570078 184.512321 
L 166.03387 183.237596 
L 166.497662 179.519439 
L 166.961455 170.823546 
L 167.425247 193.076955 
L 167.889039 176.301075 
L 168.352831 198.40808 
L 168.816623 184.063012 
L 169.280416 184.994444 
L 169.744208 176.488614 
L 170.208 207.626484 
L 170.671792 189.078611 
L 171.135584 229.786528 
L 171.599377 226.989676 
L 172.063169 237.043593 
L 172.526961 243.437409 
L 172.990753 193.576748 
L 173.454545 209.431292 
L 173.918338 196.53007 
L 174.38213 187.432828 
L 174.845922 147.648801 
L 175.309714 177.197169 
L 175.773506 189.613743 
L 176.237299 164.560408 
L 176.701091 205.896961 
L 177.164883 209.711479 
L 177.628675 205.598059 
L 178.092468 253.854811 
L 178.55626 236.896144 
L 179.020052 184.461836 
L 179.483844 190.595659 
L 179.947636 165.775132 
L 180.411429 208.623546 
L 180.875221 161.080107 
L 181.339013 202.047987 
L 181.802805 166.234538 
L 182.266597 159.116274 
L 182.73039 182.462664 
L 183.194182 183.974664 
L 183.657974 198.069836 
L 184.121766 187.677676 
L 184.585558 159.391168 
L 185.049351 191.665923 
L 185.976935 170.715005 
L 186.440727 162.599679 
L 186.904519 150.743479 
L 187.368312 142.716501 
L 187.832104 158.146978 
L 188.295896 139.639492 
L 188.759688 149.019446 
L 189.223481 150.516301 
L 189.687273 134.351279 
L 190.151065 138.097202 
L 190.614857 142.989115 
L 191.078649 156.781382 
L 191.542442 135.534642 
L 192.006234 142.842711 
L 192.470026 154.873082 
L 192.933818 157.316514 
L 193.39761 154.875606 
L 193.861403 147.363566 
L 194.325195 136.511755 
L 194.788987 136.065215 
L 195.252779 140.962177 
L 195.716571 137.783955 
L 196.180364 181.059205 
L 196.644156 146.540674 
L 197.107948 152.020728 
L 197.57174 147.194444 
L 198.035532 191.413503 
L 198.499325 150.639406 
L 198.963117 183.318371 
L 199.426909 140.828394 
L 199.890701 132.458124 
L 200.354494 133.654598 
L 200.818286 138.271372 
L 201.282078 167.367907 
L 201.74587 135.14388 
L 202.209662 133.604114 
L 202.673455 138.124968 
L 203.137247 134.840975 
L 203.601039 137.924975 
L 204.064831 134.267399 
L 204.528623 129.658533 
L 204.992416 133.235579 
L 205.456208 165.032434 
L 205.92 165.782705 
L 206.383792 158.480174 
L 206.847584 161.107873 
L 207.311377 169.639693 
L 207.775169 173.24426 
L 208.238961 131.092528 
L 208.702753 128.169496 
L 209.166545 149.438464 
L 209.630338 123.242244 
L 210.09413 151.490644 
L 210.557922 156.50372 
L 211.021714 148.411112 
L 211.485506 132.316768 
L 211.949299 125.301997 
L 212.413091 122.553135 
L 212.876883 122.353478 
L 213.340675 133.539847 
L 213.804468 137.551973 
L 214.26826 136.600347 
L 214.732052 146.833482 
L 215.195844 134.290698 
L 215.659636 164.909329 
L 216.123429 135.333195 
L 216.587221 119.917863 
L 217.051013 126.758464 
L 217.514805 141.676528 
L 217.978597 133.730324 
L 218.44239 134.865972 
L 218.906182 125.559466 
L 219.369974 132.705496 
L 219.833766 130.486718 
L 220.297558 136.870437 
L 220.761351 134.26798 
L 221.225143 139.922204 
L 221.688935 137.602457 
L 222.152727 147.52487 
L 222.616519 183.028087 
L 223.080312 135.017669 
L 223.544104 114.950224 
L 224.007896 136.029876 
L 224.471688 125.337336 
L 224.935481 155.163366 
L 226.326857 122.434497 
L 226.790649 133.821195 
L 227.254442 140.136761 
L 227.718234 139.154845 
L 228.182026 135.592699 
L 228.645818 142.19399 
L 229.10961 133.551105 
L 229.573403 146.520481 
L 230.037195 142.931058 
L 230.500987 131.48378 
L 230.964779 129.14384 
L 231.428571 142.305055 
L 231.892364 134.853596 
L 232.356156 132.80394 
L 232.819948 139.912107 
L 233.28374 136.135893 
L 233.747532 157.523499 
L 234.211325 137.559546 
L 234.675117 130.68613 
L 235.138909 128.977242 
L 235.602701 124.589925 
L 236.066494 126.498471 
L 236.530286 125.743733 
L 237.45787 121.162297 
L 237.921662 137.216254 
L 238.385455 139.318918 
L 238.849247 142.345442 
L 239.313039 140.013075 
L 239.776831 141.080815 
L 240.240623 135.280187 
L 240.704416 127.634364 
L 241.168208 128.939379 
L 241.632 132.334437 
L 242.095792 134.096334 
L 242.559584 141.105476 
L 243.023377 139.649589 
L 243.487169 142.446411 
L 243.950961 146.444755 
L 244.414753 145.520895 
L 244.878545 140.959653 
L 245.342338 143.380367 
L 245.80613 148.375773 
L 246.269922 143.223866 
L 246.733714 153.388848 
L 247.197506 168.428073 
L 247.661299 164.73011 
L 248.125091 153.328267 
L 248.588883 158.28581 
L 249.052675 149.99379 
L 249.516468 131.153109 
L 249.98026 150.173008 
L 250.444052 157.154965 
L 250.907844 139.260861 
L 251.371636 145.435072 
L 251.835429 144.225977 
L 252.299221 151.359386 
L 252.763013 139.116982 
L 253.226805 149.173422 
L 253.690597 139.518086 
L 254.15439 139.652114 
L 254.618182 141.370518 
L 255.081974 167.544601 
L 255.545766 203.956287 
L 256.009558 193.278891 
L 256.473351 135.401104 
L 256.937143 147.101048 
L 257.400935 137.329843 
L 257.864727 132.273856 
L 258.328519 188.09417 
L 258.792312 131.047092 
L 259.256104 134.2521 
L 259.719896 145.051392 
L 260.183688 162.892487 
L 260.647481 167.143252 
L 261.111273 177.618711 
L 261.575065 148.032481 
L 262.038857 150.008935 
L 262.502649 177.30571 
L 262.966442 160.584782 
L 263.430234 150.983279 
L 263.894026 154.536782 
L 264.357818 155.524327 
L 264.82161 154.820073 
L 265.285403 153.391372 
L 265.749195 136.19395 
L 266.212987 129.186751 
L 266.676779 126.632254 
L 267.604364 163.28374 
L 268.068156 158.101543 
L 268.531948 148.045102 
L 268.99574 158.783078 
L 269.459532 154.072908 
L 269.923325 170.654424 
L 270.387117 182.46014 
L 270.850909 167.161669 
L 271.314701 162.440654 
L 271.778494 169.442805 
L 272.242286 167.718771 
L 272.706078 181.352013 
L 273.16987 204.907913 
L 274.097455 178.741983 
L 274.561247 185.592681 
L 275.025039 195.736889 
L 275.488831 181.37043 
L 275.952623 201.709743 
L 276.416416 183.790564 
L 276.880208 177.210537 
L 277.344 163.70975 
L 277.807792 186.45596 
L 278.271584 187.329336 
L 278.735377 185.398317 
L 279.199169 188.344067 
L 279.662961 225.470104 
L 280.126753 200.364341 
L 280.590545 199.503586 
L 281.054338 202.328174 
L 281.51813 206.114484 
L 281.981922 201.967212 
L 282.445714 184.205114 
L 282.909506 227.479372 
L 283.373299 202.613409 
L 283.837091 243.366335 
L 284.300883 223.559294 
L 284.764675 239.620427 
L 285.228468 202.150876 
L 285.69226 265.463639 
L 286.156052 225.988765 
L 286.619844 204.928107 
L 287.083636 200.041242 
L 287.547429 209.024453 
L 288.011221 192.092514 
L 288.475013 210.998825 
L 288.938805 205.579352 
L 289.402597 204.650444 
L 289.86639 203.080387 
L 290.330182 209.875553 
L 290.793974 262.575947 
L 291.257766 206.409375 
L 291.721558 202.070705 
L 292.185351 231.138869 
L 292.649143 199.093352 
L 293.112935 200.137162 
L 293.576727 211.382504 
L 294.040519 211.213382 
L 294.504312 247.057122 
L 294.968104 232.959426 
L 295.431896 248.985616 
L 295.895688 226.285422 
L 296.359481 228.464083 
L 296.823273 223.86158 
L 297.287065 238.237813 
L 297.750857 225.067581 
L 298.214649 234.019421 
L 298.678442 258.450981 
L 299.142234 212.797701 
L 299.606026 241.218631 
L 300.069818 219.939566 
L 300.53361 214.974451 
L 300.997403 261.841402 
L 301.461195 183.47889 
L 301.924987 225.216476 
L 302.388779 216.952987 
L 302.852571 232.414197 
L 303.316364 256.750077 
L 303.780156 258.663441 
L 304.243948 208.20661 
L 305.171532 246.089144 
L 305.635325 237.520064 
L 306.099117 251.581538 
L 306.562909 259.728911 
L 307.026701 209.761383 
L 307.490494 208.825071 
L 308.418078 254.387419 
L 308.88187 247.230881 
L 309.345662 225.674123 
L 309.809455 214.48223 
L 310.273247 222.82221 
L 310.737039 214.330778 
L 311.200831 218.543679 
L 311.664623 214.443926 
L 312.128416 223.337149 
L 312.592208 228.136542 
L 313.056 245.923753 
L 313.519792 212.14229 
L 313.983584 204.721122 
L 314.447377 251.029891 
L 314.911169 246.269569 
L 315.374961 252.231746 
L 315.838753 272.303829 
L 316.766338 240.749129 
L 317.23013 264.746765 
L 317.693922 253.958304 
L 318.157714 274.591172 
L 318.621506 261.450009 
L 319.085299 202.658845 
L 319.549091 219.972381 
L 320.012883 262.411873 
L 320.476675 205.98575 
L 320.940468 199.591933 
L 321.40426 199.899886 
L 321.868052 203.072815 
L 322.331844 235.00343 
L 322.795636 211.382504 
L 323.259429 204.862477 
L 323.723221 230.871907 
L 324.187013 229.068578 
L 324.650805 198.622638 
L 325.114597 226.481899 
L 325.57839 208.050551 
L 326.042182 200.47793 
L 326.505974 200.995392 
L 326.969766 194.960013 
L 327.433558 198.713509 
L 327.897351 237.22786 
L 328.361143 229.339713 
L 328.824935 204.297055 
L 329.288727 238.669197 
L 329.752519 206.967224 
L 330.216312 189.808107 
L 330.680104 219.935265 
L 331.143896 185.327639 
L 331.607688 235.796634 
L 332.071481 255.336521 
L 332.535273 227.959017 
L 332.999065 193.304134 
L 333.462857 217.990878 
L 333.926649 214.855813 
L 334.390442 194.894384 
L 334.854234 191.45389 
L 335.318026 194.967586 
L 335.781818 182.094877 
L 336.24561 186.238878 
L 336.709403 195.490097 
L 337.173195 190.161496 
L 337.636987 201.89401 
L 338.100779 176.043606 
L 338.564571 193.476527 
L 339.028364 185.237515 
L 339.492156 166.983646 
L 339.955948 204.650444 
L 340.41974 199.42786 
L 340.883532 222.640467 
L 341.347325 186.938083 
L 341.811117 183.073523 
L 342.274909 185.426083 
L 342.738701 182.59467 
L 343.202494 210.585602 
L 343.666286 195.707179 
L 344.130078 147.41405 
L 344.59387 147.608414 
L 345.057662 166.736855 
L 345.985247 184.454264 
L 346.449039 185.845102 
L 346.912831 167.736441 
L 347.376623 166.141142 
L 347.840416 175.225763 
L 348.304208 178.650531 
L 348.768 180.019232 
L 349.231792 172.44889 
L 349.695584 215.050177 
L 350.623169 152.230237 
L 351.086961 169.917356 
L 351.550753 163.120413 
L 352.014545 146.023212 
L 352.478338 186.6478 
L 352.94213 185.784521 
L 354.333506 152.04597 
L 354.797299 177.699486 
L 355.261091 211.80438 
L 356.188675 139.644541 
L 356.652468 147.27017 
L 357.11626 179.415947 
L 357.580052 195.086224 
L 358.043844 170.783159 
L 358.507636 179.645649 
L 359.435221 146.106511 
L 359.899013 146.881442 
L 360.362805 167.889837 
L 360.826597 161.40573 
L 361.754182 136.79976 
L 362.217974 131.811927 
L 362.681766 167.446157 
L 363.145558 137.090043 
L 363.609351 139.447653 
L 364.073143 138.940287 
L 364.536935 141.815359 
L 365.000727 151.563846 
L 365.464519 137.920508 
L 365.928312 138.682818 
L 366.392104 135.355913 
L 366.855896 139.740461 
L 367.319688 129.088307 
L 367.783481 134.992427 
L 368.247273 121.982664 
L 368.711065 154.401055 
L 369.174857 145.041295 
L 369.638649 122.517796 
L 370.102442 129.093356 
L 370.566234 119.986017 
L 371.030026 132.238518 
L 371.493818 140.558304 
L 371.95761 133.053836 
L 372.421403 134.828354 
L 372.885195 131.862411 
L 373.348987 140.697135 
L 373.812779 140.39651 
L 374.276571 144.712904 
L 374.740364 138.425349 
L 375.204156 128.341142 
L 375.667948 122.588474 
L 376.13174 124.438718 
L 376.595532 123.752134 
L 377.059325 117.593068 
L 377.523117 118.027232 
L 378.450701 138.132541 
L 378.914494 131.372715 
L 379.378286 137.960895 
L 379.842078 155.837329 
L 380.30587 134.793015 
L 380.769662 138.428656 
L 381.233455 136.640735 
L 382.161039 130.118184 
L 382.624831 136.842671 
L 383.088623 131.309609 
L 383.552416 129.590624 
L 384.016208 163.543733 
L 384.48 125.097536 
L 384.943792 127.139619 
L 385.407584 152.68207 
L 385.871377 135.883472 
L 386.335169 133.220434 
L 386.798961 128.697055 
L 387.262753 130.325169 
L 387.726545 137.683232 
L 388.190338 117.403753 
L 388.65413 145.412354 
L 389.117922 135.323098 
L 389.581714 135.618431 
L 390.045506 127.159813 
L 390.509299 121.606558 
L 390.973091 124.042417 
L 391.436883 140.376561 
L 391.900675 151.335507 
L 392.364468 130.05003 
L 392.82826 129.330631 
L 393.292052 175.056641 
L 393.755844 122.252755 
L 394.219636 182.375302 
L 394.683429 141.154017 
L 395.147221 138.99582 
L 395.611013 140.941983 
L 396.074805 149.586231 
L 396.538597 193.758491 
L 397.00239 147.686084 
L 397.466182 141.552841 
L 398.393766 134.02818 
L 398.857558 129.777416 
L 399.321351 138.126912 
L 399.785143 133.803526 
L 400.248935 137.385376 
L 400.712727 143.256681 
L 401.176519 128.371432 
L 401.640312 145.951954 
L 402.104104 135.547753 
L 402.567896 135.030046 
L 403.031688 141.396341 
L 403.495481 127.157289 
L 403.959273 141.451873 
L 404.423065 150.022919 
L 405.350649 172.186618 
L 405.814442 176.869022 
L 406.278234 194.056347 
L 406.742026 166.499579 
L 407.205818 171.252081 
L 407.66961 136.264138 
L 408.133403 140.747375 
L 408.597195 159.880864 
L 409.060987 134.404287 
L 409.524779 135.963757 
L 409.988571 164.573609 
L 410.452364 122.694491 
L 410.916156 116.72979 
L 411.379948 132.210751 
L 411.84374 138.579326 
L 412.307532 152.422077 
L 412.771325 149.064881 
L 413.235117 152.815608 
L 413.698909 144.669992 
L 414.162701 140.851112 
L 414.626494 140.146858 
L 415.090286 150.952988 
L 415.554078 134.762235 
L 416.01787 152.997596 
L 417.409247 132.917529 
L 418.336831 139.926672 
L 419.264416 140.939459 
L 419.728208 146.861249 
L 420.192 157.735533 
L 420.655792 195.676888 
L 421.119584 211.549102 
L 421.583377 170.283366 
L 422.047169 154.231933 
L 422.510961 212.833923 
L 422.974753 203.471639 
L 423.438545 169.894638 
L 423.902338 204.758985 
L 424.36613 167.100341 
L 424.829922 194.548568 
L 425.293714 142.330297 
L 425.757506 169.689596 
L 426.685091 140.820821 
L 427.612675 165.779935 
L 428.076468 133.263346 
L 428.54026 132.475548 
L 429.004052 132.367252 
L 429.467844 128.580942 
L 429.931636 136.108127 
L 430.395429 131.781636 
L 430.859221 132.808988 
L 431.323013 142.305055 
L 432.250597 139.414838 
L 432.71439 139.346684 
L 433.178182 131.673095 
L 433.641974 136.544815 
L 434.105766 148.643339 
L 434.569558 138.511172 
L 435.033351 135.580568 
L 435.497143 140.472481 
L 435.960935 138.717912 
L 436.424727 133.66217 
L 436.888519 118.140821 
L 437.352312 126.566624 
L 437.816104 127.747953 
L 438.279896 126.622157 
L 438.743688 127.490484 
L 439.207481 138.031573 
L 439.671273 137.3879 
L 440.135065 134.29827 
L 440.598857 150.819205 
L 441.062649 132.319292 
L 441.526442 132.447782 
L 441.990234 142.769509 
L 442.454026 138.135065 
L 442.917818 129.474511 
L 443.38161 136.375693 
L 443.845403 135.973763 
L 444.309195 127.432427 
L 444.772987 131.983573 
L 445.236779 126.402551 
L 445.700571 114.781102 
L 446.164364 120.405035 
L 446.628156 135.307373 
L 447.091948 129.285195 
L 447.55574 179.426043 
L 448.019532 146.949596 
L 448.483325 155.819659 
L 448.947117 151.770587 
L 449.410909 155.271907 
L 449.874701 137.443188 
L 450.338494 164.191874 
L 450.802286 144.278985 
L 451.266078 154.946284 
L 451.72987 131.637756 
L 452.193662 131.223786 
L 452.657455 139.364354 
L 453.585039 125.541796 
L 454.048831 159.497429 
L 454.512623 135.204461 
L 454.976416 138.296614 
L 455.440208 144.21588 
L 455.904 156.332073 
L 456.367792 134.565592 
L 456.831584 153.585736 
L 457.295377 155.024534 
L 457.759169 161.524367 
L 458.222961 152.240334 
L 458.686753 170.568601 
L 459.150545 170.977523 
L 459.614338 159.901302 
L 460.07813 193.586845 
L 460.541922 174.554324 
L 461.005714 172.567773 
L 461.469506 212.732955 
L 461.933299 183.174491 
L 462.397091 231.288401 
L 462.860883 175.675072 
L 463.324675 243.409643 
L 463.788468 230.876955 
L 464.25226 196.131245 
L 464.716052 193.3319 
L 465.179844 206.233122 
L 465.643636 183.321642 
L 466.107429 182.891497 
L 466.571221 187.725636 
L 467.035013 198.322257 
L 467.498805 185.461422 
L 467.962597 183.081095 
L 468.42639 182.447519 
L 468.890182 183.929229 
L 469.353974 210.471265 
L 470.281558 185.638117 
L 470.745351 201.808187 
L 471.209143 188.053783 
L 471.672935 184.949008 
L 472.136727 189.182104 
L 472.600519 191.903199 
L 473.064312 209.913416 
L 473.528104 205.864588 
L 473.991896 265.50909 
L 474.455688 184.015052 
L 474.919481 197.823211 
L 475.383273 199.04418 
L 475.847065 190.605756 
L 476.310857 192.586229 
L 476.774649 163.847385 
L 477.238442 179.861121 
L 477.702234 189.149289 
L 478.166026 180.402912 
L 478.629818 194.578278 
L 479.09361 202.679038 
L 479.557403 198.04207 
L 480.021195 188.914538 
L 480.484987 265.105202 
L 480.948779 235.455866 
L 481.412571 237.414666 
L 481.876364 242.788688 
L 482.340156 261.008414 
L 482.803948 241.521536 
L 483.26774 270.368174 
L 483.731532 285.430117 
L 484.195325 211.749832 
L 484.659117 305.868621 
L 485.122909 215.706029 
L 486.050494 203.716487 
L 486.514286 207.217563 
L 486.978078 245.630533 
L 487.44187 264.418618 
L 487.905662 230.499149 
L 488.369455 251.91622 
L 488.833247 262.555341 
L 489.297039 259.588575 
L 489.760831 272.664791 
L 490.224623 246.135375 
L 490.688416 251.282233 
L 491.152208 263.242337 
L 491.616 257.025215 
L 492.079792 209.398477 
L 492.543584 215.590357 
L 493.471169 235.632008 
L 493.934961 235.279172 
L 494.398753 282.502577 
L 494.862545 250.720557 
L 495.326338 207.957155 
L 495.79013 242.826551 
L 496.253922 251.302838 
L 496.717714 279.73803 
L 497.181506 230.152508 
L 497.645299 205.089656 
L 498.109091 196.891779 
L 498.109091 196.891779 
" clip-path="url(#pfa2384c3d4)" style="fill: none; stroke: #ff7f0e; stroke-width: 1.5; stroke-linecap: round"/>
   </g>
   <g id="patch_3">
    <path d="M 72 384.48 
L 72 51.84 
" style="fill: none; stroke: #ffffff; stroke-width: 0.8; stroke-linejoin: miter; stroke-linecap: square"/>
   </g>
   <g id="patch_4">
    <path d="M 518.4 384.48 
L 518.4 51.84 
" style="fill: none; stroke: #ffffff; stroke-width: 0.8; stroke-linejoin: miter; stroke-linecap: square"/>
   </g>
   <g id="patch_5">
    <path d="M 72 384.48 
L 518.4 384.48 
" style="fill: none; stroke: #ffffff; stroke-width: 0.8; stroke-linejoin: miter; stroke-linecap: square"/>
   </g>
   <g id="patch_6">
    <path d="M 72 51.84 
L 518.4 51.84 
" style="fill: none; stroke: #ffffff; stroke-width: 0.8; stroke-linejoin: miter; stroke-linecap: square"/>
   </g>
   <g id="text_15">
    <!-- Maximum Solar Radiation Prediction 1 Day Ahead -->
    <g style="fill: #262626" transform="translate(162.139687 45.84) scale(0.12 -0.12)">
     <defs>
      <path id="ArialMT-4d" d="M 475 0 
L 475 4581 
L 1388 4581 
L 2472 1338 
Q 2622 884 2691 659 
Q 2769 909 2934 1394 
L 4031 4581 
L 4847 4581 
L 4847 0 
L 4263 0 
L 4263 3834 
L 2931 0 
L 2384 0 
L 1059 3900 
L 1059 0 
L 475 0 
z
" transform="scale(0.015625)"/>
      <path id="ArialMT-78" d="M 47 0 
L 1259 1725 
L 138 3319 
L 841 3319 
L 1350 2541 
Q 1494 2319 1581 2169 
Q 1719 2375 1834 2534 
L 2394 3319 
L 3066 3319 
L 1919 1756 
L 3153 0 
L 2463 0 
L 1781 1031 
L 1600 1309 
L 728 0 
L 47 0 
z
" transform="scale(0.015625)"/>
      <path id="ArialMT-69" d="M 425 3934 
L 425 4581 
L 988 4581 
L 988 3934 
L 425 3934 
z
M 425 0 
L 425 3319 
L 988 3319 
L 988 0 
L 425 0 
z
" transform="scale(0.015625)"/>
      <path id="ArialMT-75" d="M 2597 0 
L 2597 488 
Q 2209 -75 1544 -75 
Q 1250 -75 995 37 
Q 741 150 617 320 
Q 494 491 444 738 
Q 409 903 409 1263 
L 409 3319 
L 972 3319 
L 972 1478 
Q 972 1038 1006 884 
Q 1059 663 1231 536 
Q 1403 409 1656 409 
Q 1909 409 2131 539 
Q 2353 669 2445 892 
Q 2538 1116 2538 1541 
L 2538 3319 
L 3100 3319 
L 3100 0 
L 2597 0 
z
" transform="scale(0.015625)"/>
      <path id="ArialMT-20" transform="scale(0.015625)"/>
      <path id="ArialMT-53" d="M 288 1472 
L 859 1522 
Q 900 1178 1048 958 
Q 1197 738 1509 602 
Q 1822 466 2213 466 
Q 2559 466 2825 569 
Q 3091 672 3220 851 
Q 3350 1031 3350 1244 
Q 3350 1459 3225 1620 
Q 3100 1781 2813 1891 
Q 2628 1963 1997 2114 
Q 1366 2266 1113 2400 
Q 784 2572 623 2826 
Q 463 3081 463 3397 
Q 463 3744 659 4045 
Q 856 4347 1234 4503 
Q 1613 4659 2075 4659 
Q 2584 4659 2973 4495 
Q 3363 4331 3572 4012 
Q 3781 3694 3797 3291 
L 3216 3247 
Q 3169 3681 2898 3903 
Q 2628 4125 2100 4125 
Q 1550 4125 1298 3923 
Q 1047 3722 1047 3438 
Q 1047 3191 1225 3031 
Q 1400 2872 2139 2705 
Q 2878 2538 3153 2413 
Q 3553 2228 3743 1945 
Q 3934 1663 3934 1294 
Q 3934 928 3725 604 
Q 3516 281 3123 101 
Q 2731 -78 2241 -78 
Q 1619 -78 1198 103 
Q 778 284 539 648 
Q 300 1013 288 1472 
z
" transform="scale(0.015625)"/>
      <path id="ArialMT-6f" d="M 213 1659 
Q 213 2581 725 3025 
Q 1153 3394 1769 3394 
Q 2453 3394 2887 2945 
Q 3322 2497 3322 1706 
Q 3322 1066 3130 698 
Q 2938 331 2570 128 
Q 2203 -75 1769 -75 
Q 1072 -75 642 372 
Q 213 819 213 1659 
z
M 791 1659 
Q 791 1022 1069 705 
Q 1347 388 1769 388 
Q 2188 388 2466 706 
Q 2744 1025 2744 1678 
Q 2744 2294 2464 2611 
Q 2184 2928 1769 2928 
Q 1347 2928 1069 2612 
Q 791 2297 791 1659 
z
" transform="scale(0.015625)"/>
      <path id="ArialMT-6c" d="M 409 0 
L 409 4581 
L 972 4581 
L 972 0 
L 409 0 
z
" transform="scale(0.015625)"/>
      <path id="ArialMT-72" d="M 416 0 
L 416 3319 
L 922 3319 
L 922 2816 
Q 1116 3169 1280 3281 
Q 1444 3394 1641 3394 
Q 1925 3394 2219 3213 
L 2025 2691 
Q 1819 2813 1613 2813 
Q 1428 2813 1281 2702 
Q 1134 2591 1072 2394 
Q 978 2094 978 1738 
L 978 0 
L 416 0 
z
" transform="scale(0.015625)"/>
      <path id="ArialMT-52" d="M 503 0 
L 503 4581 
L 2534 4581 
Q 3147 4581 3465 4457 
Q 3784 4334 3975 4021 
Q 4166 3709 4166 3331 
Q 4166 2844 3850 2509 
Q 3534 2175 2875 2084 
Q 3116 1969 3241 1856 
Q 3506 1613 3744 1247 
L 4541 0 
L 3778 0 
L 3172 953 
Q 2906 1366 2734 1584 
Q 2563 1803 2427 1890 
Q 2291 1978 2150 2013 
Q 2047 2034 1813 2034 
L 1109 2034 
L 1109 0 
L 503 0 
z
M 1109 2559 
L 2413 2559 
Q 2828 2559 3062 2645 
Q 3297 2731 3419 2920 
Q 3541 3109 3541 3331 
Q 3541 3656 3305 3865 
Q 3069 4075 2559 4075 
L 1109 4075 
L 1109 2559 
z
" transform="scale(0.015625)"/>
      <path id="ArialMT-64" d="M 2575 0 
L 2575 419 
Q 2259 -75 1647 -75 
Q 1250 -75 917 144 
Q 584 363 401 755 
Q 219 1147 219 1656 
Q 219 2153 384 2558 
Q 550 2963 881 3178 
Q 1213 3394 1622 3394 
Q 1922 3394 2156 3267 
Q 2391 3141 2538 2938 
L 2538 4581 
L 3097 4581 
L 3097 0 
L 2575 0 
z
M 797 1656 
Q 797 1019 1065 703 
Q 1334 388 1700 388 
Q 2069 388 2326 689 
Q 2584 991 2584 1609 
Q 2584 2291 2321 2609 
Q 2059 2928 1675 2928 
Q 1300 2928 1048 2622 
Q 797 2316 797 1656 
z
" transform="scale(0.015625)"/>
      <path id="ArialMT-74" d="M 1650 503 
L 1731 6 
Q 1494 -44 1306 -44 
Q 1000 -44 831 53 
Q 663 150 594 308 
Q 525 466 525 972 
L 525 2881 
L 113 2881 
L 113 3319 
L 525 3319 
L 525 4141 
L 1084 4478 
L 1084 3319 
L 1650 3319 
L 1650 2881 
L 1084 2881 
L 1084 941 
Q 1084 700 1114 631 
Q 1144 563 1211 522 
Q 1278 481 1403 481 
Q 1497 481 1650 503 
z
" transform="scale(0.015625)"/>
      <path id="ArialMT-6e" d="M 422 0 
L 422 3319 
L 928 3319 
L 928 2847 
Q 1294 3394 1984 3394 
Q 2284 3394 2536 3286 
Q 2788 3178 2913 3003 
Q 3038 2828 3088 2588 
Q 3119 2431 3119 2041 
L 3119 0 
L 2556 0 
L 2556 2019 
Q 2556 2363 2490 2533 
Q 2425 2703 2258 2804 
Q 2091 2906 1866 2906 
Q 1506 2906 1245 2678 
Q 984 2450 984 1813 
L 984 0 
L 422 0 
z
" transform="scale(0.015625)"/>
      <path id="ArialMT-50" d="M 494 0 
L 494 4581 
L 2222 4581 
Q 2678 4581 2919 4538 
Q 3256 4481 3484 4323 
Q 3713 4166 3852 3881 
Q 3991 3597 3991 3256 
Q 3991 2672 3619 2267 
Q 3247 1863 2275 1863 
L 1100 1863 
L 1100 0 
L 494 0 
z
M 1100 2403 
L 2284 2403 
Q 2872 2403 3119 2622 
Q 3366 2841 3366 3238 
Q 3366 3525 3220 3729 
Q 3075 3934 2838 4000 
Q 2684 4041 2272 4041 
L 1100 4041 
L 1100 2403 
z
" transform="scale(0.015625)"/>
      <path id="ArialMT-65" d="M 2694 1069 
L 3275 997 
Q 3138 488 2766 206 
Q 2394 -75 1816 -75 
Q 1088 -75 661 373 
Q 234 822 234 1631 
Q 234 2469 665 2931 
Q 1097 3394 1784 3394 
Q 2450 3394 2872 2941 
Q 3294 2488 3294 1666 
Q 3294 1616 3291 1516 
L 816 1516 
Q 847 969 1125 678 
Q 1403 388 1819 388 
Q 2128 388 2347 550 
Q 2566 713 2694 1069 
z
M 847 1978 
L 2700 1978 
Q 2663 2397 2488 2606 
Q 2219 2931 1791 2931 
Q 1403 2931 1139 2672 
Q 875 2413 847 1978 
z
" transform="scale(0.015625)"/>
      <path id="ArialMT-63" d="M 2588 1216 
L 3141 1144 
Q 3050 572 2676 248 
Q 2303 -75 1759 -75 
Q 1078 -75 664 370 
Q 250 816 250 1647 
Q 250 2184 428 2587 
Q 606 2991 970 3192 
Q 1334 3394 1763 3394 
Q 2303 3394 2647 3120 
Q 2991 2847 3088 2344 
L 2541 2259 
Q 2463 2594 2264 2762 
Q 2066 2931 1784 2931 
Q 1359 2931 1093 2626 
Q 828 2322 828 1663 
Q 828 994 1084 691 
Q 1341 388 1753 388 
Q 2084 388 2306 591 
Q 2528 794 2588 1216 
z
" transform="scale(0.015625)"/>
      <path id="ArialMT-41" d="M -9 0 
L 1750 4581 
L 2403 4581 
L 4278 0 
L 3588 0 
L 3053 1388 
L 1138 1388 
L 634 0 
L -9 0 
z
M 1313 1881 
L 2866 1881 
L 2388 3150 
Q 2169 3728 2063 4100 
Q 1975 3659 1816 3225 
L 1313 1881 
z
" transform="scale(0.015625)"/>
      <path id="ArialMT-68" d="M 422 0 
L 422 4581 
L 984 4581 
L 984 2938 
Q 1378 3394 1978 3394 
Q 2347 3394 2619 3248 
Q 2891 3103 3008 2847 
Q 3125 2591 3125 2103 
L 3125 0 
L 2563 0 
L 2563 2103 
Q 2563 2525 2380 2717 
Q 2197 2909 1863 2909 
Q 1613 2909 1392 2779 
Q 1172 2650 1078 2428 
Q 984 2206 984 1816 
L 984 0 
L 422 0 
z
" transform="scale(0.015625)"/>
     </defs>
     <use xlink:href="#ArialMT-4d"/>
     <use xlink:href="#ArialMT-61" x="83.300781"/>
     <use xlink:href="#ArialMT-78" x="138.916016"/>
     <use xlink:href="#ArialMT-69" x="188.916016"/>
     <use xlink:href="#ArialMT-6d" x="211.132812"/>
     <use xlink:href="#ArialMT-75" x="294.433594"/>
     <use xlink:href="#ArialMT-6d" x="350.048828"/>
     <use xlink:href="#ArialMT-20" x="433.349609"/>
     <use xlink:href="#ArialMT-53" x="461.132812"/>
     <use xlink:href="#ArialMT-6f" x="527.832031"/>
     <use xlink:href="#ArialMT-6c" x="583.447266"/>
     <use xlink:href="#ArialMT-61" x="605.664062"/>
     <use xlink:href="#ArialMT-72" x="661.279297"/>
     <use xlink:href="#ArialMT-20" x="694.580078"/>
     <use xlink:href="#ArialMT-52" x="722.363281"/>
     <use xlink:href="#ArialMT-61" x="794.580078"/>
     <use xlink:href="#ArialMT-64" x="850.195312"/>
     <use xlink:href="#ArialMT-69" x="905.810547"/>
     <use xlink:href="#ArialMT-61" x="928.027344"/>
     <use xlink:href="#ArialMT-74" x="983.642578"/>
     <use xlink:href="#ArialMT-69" x="1011.425781"/>
     <use xlink:href="#ArialMT-6f" x="1033.642578"/>
     <use xlink:href="#ArialMT-6e" x="1089.257812"/>
     <use xlink:href="#ArialMT-20" x="1144.873047"/>
     <use xlink:href="#ArialMT-50" x="1172.65625"/>
     <use xlink:href="#ArialMT-72" x="1239.355469"/>
     <use xlink:href="#ArialMT-65" x="1272.65625"/>
     <use xlink:href="#ArialMT-64" x="1328.271484"/>
     <use xlink:href="#ArialMT-69" x="1383.886719"/>
     <use xlink:href="#ArialMT-63" x="1406.103516"/>
     <use xlink:href="#ArialMT-74" x="1456.103516"/>
     <use xlink:href="#ArialMT-69" x="1483.886719"/>
     <use xlink:href="#ArialMT-6f" x="1506.103516"/>
     <use xlink:href="#ArialMT-6e" x="1561.71875"/>
     <use xlink:href="#ArialMT-20" x="1617.333984"/>
     <use xlink:href="#ArialMT-31" x="1645.117188"/>
     <use xlink:href="#ArialMT-20" x="1700.732422"/>
     <use xlink:href="#ArialMT-44" x="1728.515625"/>
     <use xlink:href="#ArialMT-61" x="1800.732422"/>
     <use xlink:href="#ArialMT-79" x="1856.347656"/>
     <use xlink:href="#ArialMT-20" x="1906.347656"/>
     <use xlink:href="#ArialMT-41" x="1928.630859"/>
     <use xlink:href="#ArialMT-68" x="1995.330078"/>
     <use xlink:href="#ArialMT-65" x="2050.945312"/>
     <use xlink:href="#ArialMT-61" x="2106.560547"/>
     <use xlink:href="#ArialMT-64" x="2162.175781"/>
    </g>
   </g>
   <g id="legend_1">
    <g id="patch_7">
     <path d="M 437.15625 88.130625 
L 511.4 88.130625 
Q 513.4 88.130625 513.4 86.130625 
L 513.4 58.84 
Q 513.4 56.84 511.4 56.84 
L 437.15625 56.84 
Q 435.15625 56.84 435.15625 58.84 
L 435.15625 86.130625 
Q 435.15625 88.130625 437.15625 88.130625 
z
" style="fill: #eaeaf2; opacity: 0.8; stroke: #cccccc; stroke-linejoin: miter"/>
    </g>
    <g id="line2d_15">
     <path d="M 439.15625 64.497812 
L 449.15625 64.497812 
L 459.15625 64.497812 
" style="fill: none; stroke: #1f77b4; stroke-width: 1.5; stroke-linecap: round"/>
    </g>
    <g id="text_16">
     <!-- Real -->
     <g style="fill: #262626" transform="translate(467.15625 67.997812) scale(0.1 -0.1)">
      <use xlink:href="#ArialMT-52"/>
      <use xlink:href="#ArialMT-65" x="72.216797"/>
      <use xlink:href="#ArialMT-61" x="127.832031"/>
      <use xlink:href="#ArialMT-6c" x="183.447266"/>
     </g>
    </g>
    <g id="line2d_16">
     <path d="M 439.15625 78.643125 
L 449.15625 78.643125 
L 459.15625 78.643125 
" style="fill: none; stroke: #ff7f0e; stroke-width: 1.5; stroke-linecap: round"/>
    </g>
    <g id="text_17">
     <!-- Predicted -->
     <g style="fill: #262626" transform="translate(467.15625 82.143125) scale(0.1 -0.1)">
      <use xlink:href="#ArialMT-50"/>
      <use xlink:href="#ArialMT-72" x="66.699219"/>
      <use xlink:href="#ArialMT-65" x="100"/>
      <use xlink:href="#ArialMT-64" x="155.615234"/>
      <use xlink:href="#ArialMT-69" x="211.230469"/>
      <use xlink:href="#ArialMT-63" x="233.447266"/>
      <use xlink:href="#ArialMT-74" x="283.447266"/>
      <use xlink:href="#ArialMT-65" x="311.230469"/>
      <use xlink:href="#ArialMT-64" x="366.845703"/>
     </g>
    </g>
   </g>
  </g>
 </g>
 <defs>
  <clipPath id="pfa2384c3d4">
   <rect x="72" y="51.84" width="446.4" height="332.64"/>
  </clipPath>
 </defs>
</svg>
