<?xml version="1.0" encoding="utf-8" standalone="no"?>
<!DOCTYPE svg PUBLIC "-//W3C//DTD SVG 1.1//EN"
  "http://www.w3.org/Graphics/SVG/1.1/DTD/svg11.dtd">
<svg xmlns:xlink="http://www.w3.org/1999/xlink" width="576pt" height="432pt" viewBox="0 0 576 432" xmlns="http://www.w3.org/2000/svg" version="1.1">
 <metadata>
  <rdf:RDF xmlns:dc="http://purl.org/dc/elements/1.1/" xmlns:cc="http://creativecommons.org/ns#" xmlns:rdf="http://www.w3.org/1999/02/22-rdf-syntax-ns#">
   <cc:Work>
    <dc:type rdf:resource="http://purl.org/dc/dcmitype/StillImage"/>
    <dc:date>2023-11-17T05:04:44.028454</dc:date>
    <dc:format>image/svg+xml</dc:format>
    <dc:creator>
     <cc:Agent>
      <dc:title>Matplotlib v3.8.0, https://matplotlib.org/</dc:title>
     </cc:Agent>
    </dc:creator>
   </cc:Work>
  </rdf:RDF>
 </metadata>
 <defs>
  <style type="text/css">*{stroke-linejoin: round; stroke-linecap: butt}</style>
 </defs>
 <g id="figure_1">
  <g id="patch_1">
   <path d="M 0 432 
L 576 432 
L 576 0 
L 0 0 
z
" style="fill: #ffffff"/>
  </g>
  <g id="axes_1">
   <g id="patch_2">
    <path d="M 72 384.48 
L 518.4 384.48 
L 518.4 51.84 
L 72 51.84 
z
" style="fill: #eaeaf2"/>
   </g>
   <g id="matplotlib.axis_1">
    <g id="xtick_1">
     <g id="line2d_1">
      <path d="M 92.290909 384.48 
L 92.290909 51.84 
" clip-path="url(#p5fce49fb0a)" style="fill: none; stroke: #ffffff; stroke-width: 0.8; stroke-linecap: round"/>
     </g>
     <g id="text_1">
      <!-- 0 -->
      <g style="fill: #262626" transform="translate(89.51044 398.637812) scale(0.1 -0.1)">
       <defs>
        <path id="ArialMT-30" d="M 266 2259 
Q 266 3072 433 3567 
Q 600 4063 929 4331 
Q 1259 4600 1759 4600 
Q 2128 4600 2406 4451 
Q 2684 4303 2865 4023 
Q 3047 3744 3150 3342 
Q 3253 2941 3253 2259 
Q 3253 1453 3087 958 
Q 2922 463 2592 192 
Q 2263 -78 1759 -78 
Q 1097 -78 719 397 
Q 266 969 266 2259 
z
M 844 2259 
Q 844 1131 1108 757 
Q 1372 384 1759 384 
Q 2147 384 2411 759 
Q 2675 1134 2675 2259 
Q 2675 3391 2411 3762 
Q 2147 4134 1753 4134 
Q 1366 4134 1134 3806 
Q 844 3388 844 2259 
z
" transform="scale(0.015625)"/>
       </defs>
       <use xlink:href="#ArialMT-30"/>
      </g>
     </g>
    </g>
    <g id="xtick_2">
     <g id="line2d_2">
      <path d="M 185.049351 384.48 
L 185.049351 51.84 
" clip-path="url(#p5fce49fb0a)" style="fill: none; stroke: #ffffff; stroke-width: 0.8; stroke-linecap: round"/>
     </g>
     <g id="text_2">
      <!-- 200 -->
      <g style="fill: #262626" transform="translate(176.707944 398.637812) scale(0.1 -0.1)">
       <defs>
        <path id="ArialMT-32" d="M 3222 541 
L 3222 0 
L 194 0 
Q 188 203 259 391 
Q 375 700 629 1000 
Q 884 1300 1366 1694 
Q 2113 2306 2375 2664 
Q 2638 3022 2638 3341 
Q 2638 3675 2398 3904 
Q 2159 4134 1775 4134 
Q 1369 4134 1125 3890 
Q 881 3647 878 3216 
L 300 3275 
Q 359 3922 746 4261 
Q 1134 4600 1788 4600 
Q 2447 4600 2831 4234 
Q 3216 3869 3216 3328 
Q 3216 3053 3103 2787 
Q 2991 2522 2730 2228 
Q 2469 1934 1863 1422 
Q 1356 997 1212 845 
Q 1069 694 975 541 
L 3222 541 
z
" transform="scale(0.015625)"/>
       </defs>
       <use xlink:href="#ArialMT-32"/>
       <use xlink:href="#ArialMT-30" x="55.615234"/>
       <use xlink:href="#ArialMT-30" x="111.230469"/>
      </g>
     </g>
    </g>
    <g id="xtick_3">
     <g id="line2d_3">
      <path d="M 277.807792 384.48 
L 277.807792 51.84 
" clip-path="url(#p5fce49fb0a)" style="fill: none; stroke: #ffffff; stroke-width: 0.8; stroke-linecap: round"/>
     </g>
     <g id="text_3">
      <!-- 400 -->
      <g style="fill: #262626" transform="translate(269.466386 398.637812) scale(0.1 -0.1)">
       <defs>
        <path id="ArialMT-34" d="M 2069 0 
L 2069 1097 
L 81 1097 
L 81 1613 
L 2172 4581 
L 2631 4581 
L 2631 1613 
L 3250 1613 
L 3250 1097 
L 2631 1097 
L 2631 0 
L 2069 0 
z
M 2069 1613 
L 2069 3678 
L 634 1613 
L 2069 1613 
z
" transform="scale(0.015625)"/>
       </defs>
       <use xlink:href="#ArialMT-34"/>
       <use xlink:href="#ArialMT-30" x="55.615234"/>
       <use xlink:href="#ArialMT-30" x="111.230469"/>
      </g>
     </g>
    </g>
    <g id="xtick_4">
     <g id="line2d_4">
      <path d="M 370.566234 384.48 
L 370.566234 51.84 
" clip-path="url(#p5fce49fb0a)" style="fill: none; stroke: #ffffff; stroke-width: 0.8; stroke-linecap: round"/>
     </g>
     <g id="text_4">
      <!-- 600 -->
      <g style="fill: #262626" transform="translate(362.224828 398.637812) scale(0.1 -0.1)">
       <defs>
        <path id="ArialMT-36" d="M 3184 3459 
L 2625 3416 
Q 2550 3747 2413 3897 
Q 2184 4138 1850 4138 
Q 1581 4138 1378 3988 
Q 1113 3794 959 3422 
Q 806 3050 800 2363 
Q 1003 2672 1297 2822 
Q 1591 2972 1913 2972 
Q 2475 2972 2870 2558 
Q 3266 2144 3266 1488 
Q 3266 1056 3080 686 
Q 2894 316 2569 119 
Q 2244 -78 1831 -78 
Q 1128 -78 684 439 
Q 241 956 241 2144 
Q 241 3472 731 4075 
Q 1159 4600 1884 4600 
Q 2425 4600 2770 4297 
Q 3116 3994 3184 3459 
z
M 888 1484 
Q 888 1194 1011 928 
Q 1134 663 1356 523 
Q 1578 384 1822 384 
Q 2178 384 2434 671 
Q 2691 959 2691 1453 
Q 2691 1928 2437 2201 
Q 2184 2475 1800 2475 
Q 1419 2475 1153 2201 
Q 888 1928 888 1484 
z
" transform="scale(0.015625)"/>
       </defs>
       <use xlink:href="#ArialMT-36"/>
       <use xlink:href="#ArialMT-30" x="55.615234"/>
       <use xlink:href="#ArialMT-30" x="111.230469"/>
      </g>
     </g>
    </g>
    <g id="xtick_5">
     <g id="line2d_5">
      <path d="M 463.324675 384.48 
L 463.324675 51.84 
" clip-path="url(#p5fce49fb0a)" style="fill: none; stroke: #ffffff; stroke-width: 0.8; stroke-linecap: round"/>
     </g>
     <g id="text_5">
      <!-- 800 -->
      <g style="fill: #262626" transform="translate(454.983269 398.637812) scale(0.1 -0.1)">
       <defs>
        <path id="ArialMT-38" d="M 1131 2484 
Q 781 2613 612 2850 
Q 444 3088 444 3419 
Q 444 3919 803 4259 
Q 1163 4600 1759 4600 
Q 2359 4600 2725 4251 
Q 3091 3903 3091 3403 
Q 3091 3084 2923 2848 
Q 2756 2613 2416 2484 
Q 2838 2347 3058 2040 
Q 3278 1734 3278 1309 
Q 3278 722 2862 322 
Q 2447 -78 1769 -78 
Q 1091 -78 675 323 
Q 259 725 259 1325 
Q 259 1772 486 2073 
Q 713 2375 1131 2484 
z
M 1019 3438 
Q 1019 3113 1228 2906 
Q 1438 2700 1772 2700 
Q 2097 2700 2305 2904 
Q 2513 3109 2513 3406 
Q 2513 3716 2298 3927 
Q 2084 4138 1766 4138 
Q 1444 4138 1231 3931 
Q 1019 3725 1019 3438 
z
M 838 1322 
Q 838 1081 952 856 
Q 1066 631 1291 507 
Q 1516 384 1775 384 
Q 2178 384 2440 643 
Q 2703 903 2703 1303 
Q 2703 1709 2433 1975 
Q 2163 2241 1756 2241 
Q 1359 2241 1098 1978 
Q 838 1716 838 1322 
z
" transform="scale(0.015625)"/>
       </defs>
       <use xlink:href="#ArialMT-38"/>
       <use xlink:href="#ArialMT-30" x="55.615234"/>
       <use xlink:href="#ArialMT-30" x="111.230469"/>
      </g>
     </g>
    </g>
    <g id="text_6">
     <!-- Days -->
     <g style="fill: #262626" transform="translate(283.808594 411.783125) scale(0.1 -0.1)">
      <defs>
       <path id="ArialMT-44" d="M 494 0 
L 494 4581 
L 2072 4581 
Q 2606 4581 2888 4516 
Q 3281 4425 3559 4188 
Q 3922 3881 4101 3404 
Q 4281 2928 4281 2316 
Q 4281 1794 4159 1391 
Q 4038 988 3847 723 
Q 3656 459 3429 307 
Q 3203 156 2883 78 
Q 2563 0 2147 0 
L 494 0 
z
M 1100 541 
L 2078 541 
Q 2531 541 2789 625 
Q 3047 709 3200 863 
Q 3416 1078 3536 1442 
Q 3656 1806 3656 2325 
Q 3656 3044 3420 3430 
Q 3184 3816 2847 3947 
Q 2603 4041 2063 4041 
L 1100 4041 
L 1100 541 
z
" transform="scale(0.015625)"/>
       <path id="ArialMT-61" d="M 2588 409 
Q 2275 144 1986 34 
Q 1697 -75 1366 -75 
Q 819 -75 525 192 
Q 231 459 231 875 
Q 231 1119 342 1320 
Q 453 1522 633 1644 
Q 813 1766 1038 1828 
Q 1203 1872 1538 1913 
Q 2219 1994 2541 2106 
Q 2544 2222 2544 2253 
Q 2544 2597 2384 2738 
Q 2169 2928 1744 2928 
Q 1347 2928 1158 2789 
Q 969 2650 878 2297 
L 328 2372 
Q 403 2725 575 2942 
Q 747 3159 1072 3276 
Q 1397 3394 1825 3394 
Q 2250 3394 2515 3294 
Q 2781 3194 2906 3042 
Q 3031 2891 3081 2659 
Q 3109 2516 3109 2141 
L 3109 1391 
Q 3109 606 3145 398 
Q 3181 191 3288 0 
L 2700 0 
Q 2613 175 2588 409 
z
M 2541 1666 
Q 2234 1541 1622 1453 
Q 1275 1403 1131 1340 
Q 988 1278 909 1158 
Q 831 1038 831 891 
Q 831 666 1001 516 
Q 1172 366 1500 366 
Q 1825 366 2078 508 
Q 2331 650 2450 897 
Q 2541 1088 2541 1459 
L 2541 1666 
z
" transform="scale(0.015625)"/>
       <path id="ArialMT-79" d="M 397 -1278 
L 334 -750 
Q 519 -800 656 -800 
Q 844 -800 956 -737 
Q 1069 -675 1141 -563 
Q 1194 -478 1313 -144 
Q 1328 -97 1363 -6 
L 103 3319 
L 709 3319 
L 1400 1397 
Q 1534 1031 1641 628 
Q 1738 1016 1872 1384 
L 2581 3319 
L 3144 3319 
L 1881 -56 
Q 1678 -603 1566 -809 
Q 1416 -1088 1222 -1217 
Q 1028 -1347 759 -1347 
Q 597 -1347 397 -1278 
z
" transform="scale(0.015625)"/>
       <path id="ArialMT-73" d="M 197 991 
L 753 1078 
Q 800 744 1014 566 
Q 1228 388 1613 388 
Q 2000 388 2187 545 
Q 2375 703 2375 916 
Q 2375 1106 2209 1216 
Q 2094 1291 1634 1406 
Q 1016 1563 777 1677 
Q 538 1791 414 1992 
Q 291 2194 291 2438 
Q 291 2659 392 2848 
Q 494 3038 669 3163 
Q 800 3259 1026 3326 
Q 1253 3394 1513 3394 
Q 1903 3394 2198 3281 
Q 2494 3169 2634 2976 
Q 2775 2784 2828 2463 
L 2278 2388 
Q 2241 2644 2061 2787 
Q 1881 2931 1553 2931 
Q 1166 2931 1000 2803 
Q 834 2675 834 2503 
Q 834 2394 903 2306 
Q 972 2216 1119 2156 
Q 1203 2125 1616 2013 
Q 2213 1853 2448 1751 
Q 2684 1650 2818 1456 
Q 2953 1263 2953 975 
Q 2953 694 2789 445 
Q 2625 197 2315 61 
Q 2006 -75 1616 -75 
Q 969 -75 630 194 
Q 291 463 197 991 
z
" transform="scale(0.015625)"/>
      </defs>
      <use xlink:href="#ArialMT-44"/>
      <use xlink:href="#ArialMT-61" x="72.216797"/>
      <use xlink:href="#ArialMT-79" x="127.832031"/>
      <use xlink:href="#ArialMT-73" x="177.832031"/>
     </g>
    </g>
   </g>
   <g id="matplotlib.axis_2">
    <g id="ytick_1">
     <g id="line2d_6">
      <path d="M 72 351.892852 
L 518.4 351.892852 
" clip-path="url(#p5fce49fb0a)" style="fill: none; stroke: #ffffff; stroke-width: 0.8; stroke-linecap: round"/>
     </g>
     <g id="text_7">
      <!-- 5 -->
      <g style="fill: #262626" transform="translate(59.439062 355.471758) scale(0.1 -0.1)">
       <defs>
        <path id="ArialMT-35" d="M 266 1200 
L 856 1250 
Q 922 819 1161 601 
Q 1400 384 1738 384 
Q 2144 384 2425 690 
Q 2706 997 2706 1503 
Q 2706 1984 2436 2262 
Q 2166 2541 1728 2541 
Q 1456 2541 1237 2417 
Q 1019 2294 894 2097 
L 366 2166 
L 809 4519 
L 3088 4519 
L 3088 3981 
L 1259 3981 
L 1013 2750 
Q 1425 3038 1878 3038 
Q 2478 3038 2890 2622 
Q 3303 2206 3303 1553 
Q 3303 931 2941 478 
Q 2500 -78 1738 -78 
Q 1113 -78 717 272 
Q 322 622 266 1200 
z
" transform="scale(0.015625)"/>
       </defs>
       <use xlink:href="#ArialMT-35"/>
      </g>
     </g>
    </g>
    <g id="ytick_2">
     <g id="line2d_7">
      <path d="M 72 297.308014 
L 518.4 297.308014 
" clip-path="url(#p5fce49fb0a)" style="fill: none; stroke: #ffffff; stroke-width: 0.8; stroke-linecap: round"/>
     </g>
     <g id="text_8">
      <!-- 10 -->
      <g style="fill: #262626" transform="translate(53.878125 300.886921) scale(0.1 -0.1)">
       <defs>
        <path id="ArialMT-31" d="M 2384 0 
L 1822 0 
L 1822 3584 
Q 1619 3391 1289 3197 
Q 959 3003 697 2906 
L 697 3450 
Q 1169 3672 1522 3987 
Q 1875 4303 2022 4600 
L 2384 4600 
L 2384 0 
z
" transform="scale(0.015625)"/>
       </defs>
       <use xlink:href="#ArialMT-31"/>
       <use xlink:href="#ArialMT-30" x="55.615234"/>
      </g>
     </g>
    </g>
    <g id="ytick_3">
     <g id="line2d_8">
      <path d="M 72 242.723177 
L 518.4 242.723177 
" clip-path="url(#p5fce49fb0a)" style="fill: none; stroke: #ffffff; stroke-width: 0.8; stroke-linecap: round"/>
     </g>
     <g id="text_9">
      <!-- 15 -->
      <g style="fill: #262626" transform="translate(53.878125 246.302083) scale(0.1 -0.1)">
       <use xlink:href="#ArialMT-31"/>
       <use xlink:href="#ArialMT-35" x="55.615234"/>
      </g>
     </g>
    </g>
    <g id="ytick_4">
     <g id="line2d_9">
      <path d="M 72 188.138339 
L 518.4 188.138339 
" clip-path="url(#p5fce49fb0a)" style="fill: none; stroke: #ffffff; stroke-width: 0.8; stroke-linecap: round"/>
     </g>
     <g id="text_10">
      <!-- 20 -->
      <g style="fill: #262626" transform="translate(53.878125 191.717246) scale(0.1 -0.1)">
       <use xlink:href="#ArialMT-32"/>
       <use xlink:href="#ArialMT-30" x="55.615234"/>
      </g>
     </g>
    </g>
    <g id="ytick_5">
     <g id="line2d_10">
      <path d="M 72 133.553502 
L 518.4 133.553502 
" clip-path="url(#p5fce49fb0a)" style="fill: none; stroke: #ffffff; stroke-width: 0.8; stroke-linecap: round"/>
     </g>
     <g id="text_11">
      <!-- 25 -->
      <g style="fill: #262626" transform="translate(53.878125 137.132408) scale(0.1 -0.1)">
       <use xlink:href="#ArialMT-32"/>
       <use xlink:href="#ArialMT-35" x="55.615234"/>
      </g>
     </g>
    </g>
    <g id="ytick_6">
     <g id="line2d_11">
      <path d="M 72 78.968664 
L 518.4 78.968664 
" clip-path="url(#p5fce49fb0a)" style="fill: none; stroke: #ffffff; stroke-width: 0.8; stroke-linecap: round"/>
     </g>
     <g id="text_12">
      <!-- 30 -->
      <g style="fill: #262626" transform="translate(53.878125 82.547571) scale(0.1 -0.1)">
       <defs>
        <path id="ArialMT-33" d="M 269 1209 
L 831 1284 
Q 928 806 1161 595 
Q 1394 384 1728 384 
Q 2125 384 2398 659 
Q 2672 934 2672 1341 
Q 2672 1728 2419 1979 
Q 2166 2231 1775 2231 
Q 1616 2231 1378 2169 
L 1441 2663 
Q 1497 2656 1531 2656 
Q 1891 2656 2178 2843 
Q 2466 3031 2466 3422 
Q 2466 3731 2256 3934 
Q 2047 4138 1716 4138 
Q 1388 4138 1169 3931 
Q 950 3725 888 3313 
L 325 3413 
Q 428 3978 793 4289 
Q 1159 4600 1703 4600 
Q 2078 4600 2393 4439 
Q 2709 4278 2876 4000 
Q 3044 3722 3044 3409 
Q 3044 3113 2884 2869 
Q 2725 2625 2413 2481 
Q 2819 2388 3044 2092 
Q 3269 1797 3269 1353 
Q 3269 753 2831 336 
Q 2394 -81 1725 -81 
Q 1122 -81 723 278 
Q 325 638 269 1209 
z
" transform="scale(0.015625)"/>
       </defs>
       <use xlink:href="#ArialMT-33"/>
       <use xlink:href="#ArialMT-30" x="55.615234"/>
      </g>
     </g>
    </g>
    <g id="text_13">
     <!-- (°C) -->
     <g style="fill: #262626" transform="translate(47.773438 227.099844) rotate(-90) scale(0.1 -0.1)">
      <defs>
       <path id="ArialMT-28" d="M 1497 -1347 
Q 1031 -759 709 28 
Q 388 816 388 1659 
Q 388 2403 628 3084 
Q 909 3875 1497 4659 
L 1900 4659 
Q 1522 4009 1400 3731 
Q 1209 3300 1100 2831 
Q 966 2247 966 1656 
Q 966 153 1900 -1347 
L 1497 -1347 
z
" transform="scale(0.015625)"/>
       <path id="ArialMT-b0" d="M 400 3794 
Q 400 4153 654 4406 
Q 909 4659 1266 4659 
Q 1628 4659 1881 4406 
Q 2134 4153 2134 3794 
Q 2134 3434 1879 3179 
Q 1625 2925 1266 2925 
Q 909 2925 654 3178 
Q 400 3431 400 3794 
z
M 741 3794 
Q 741 3575 895 3420 
Q 1050 3266 1269 3266 
Q 1484 3266 1639 3420 
Q 1794 3575 1794 3794 
Q 1794 4013 1639 4167 
Q 1484 4322 1269 4322 
Q 1050 4322 895 4167 
Q 741 4013 741 3794 
z
" transform="scale(0.015625)"/>
       <path id="ArialMT-43" d="M 3763 1606 
L 4369 1453 
Q 4178 706 3683 314 
Q 3188 -78 2472 -78 
Q 1731 -78 1267 223 
Q 803 525 561 1097 
Q 319 1669 319 2325 
Q 319 3041 592 3573 
Q 866 4106 1370 4382 
Q 1875 4659 2481 4659 
Q 3169 4659 3637 4309 
Q 4106 3959 4291 3325 
L 3694 3184 
Q 3534 3684 3231 3912 
Q 2928 4141 2469 4141 
Q 1941 4141 1586 3887 
Q 1231 3634 1087 3207 
Q 944 2781 944 2328 
Q 944 1744 1114 1308 
Q 1284 872 1643 656 
Q 2003 441 2422 441 
Q 2931 441 3284 734 
Q 3638 1028 3763 1606 
z
" transform="scale(0.015625)"/>
       <path id="ArialMT-29" d="M 791 -1347 
L 388 -1347 
Q 1322 153 1322 1656 
Q 1322 2244 1188 2822 
Q 1081 3291 891 3722 
Q 769 4003 388 4659 
L 791 4659 
Q 1378 3875 1659 3084 
Q 1900 2403 1900 1659 
Q 1900 816 1576 28 
Q 1253 -759 791 -1347 
z
" transform="scale(0.015625)"/>
      </defs>
      <use xlink:href="#ArialMT-28"/>
      <use xlink:href="#ArialMT-b0" x="33.300781"/>
      <use xlink:href="#ArialMT-43" x="73.291016"/>
      <use xlink:href="#ArialMT-29" x="145.507812"/>
     </g>
    </g>
   </g>
   <g id="line2d_12">
    <path d="M 92.290909 157.57083 
L 92.754701 149.928953 
L 93.218494 153.204043 
L 93.682286 152.112347 
L 94.146078 166.304404 
L 94.60987 146.653863 
L 95.073662 153.204043 
L 95.537455 144.470469 
L 96.001247 157.57083 
L 96.465039 179.404765 
L 96.928831 159.754224 
L 97.392623 153.204043 
L 97.856416 180.496462 
L 98.320208 177.221372 
L 98.784 183.771552 
L 99.711584 185.954946 
L 100.175377 166.304404 
L 100.639169 160.845921 
L 101.102961 166.304404 
L 102.494338 153.204043 
L 103.421922 165.212708 
L 103.885714 163.029314 
L 104.349506 154.29574 
L 104.813299 167.396101 
L 105.277091 154.29574 
L 105.740883 146.653863 
L 106.204675 145.562166 
L 106.668468 295.124621 
L 107.13226 306.041588 
L 107.596052 294.032924 
L 108.059844 263.465415 
L 108.523636 249.273357 
L 108.987429 214.339061 
L 109.451221 247.089964 
L 109.915013 256.915235 
L 110.378805 256.915235 
L 110.842597 254.731841 
L 111.30639 224.164332 
L 111.770182 211.063971 
L 112.697766 237.264693 
L 113.161558 205.605487 
L 113.625351 203.422094 
L 114.089143 193.596823 
L 115.016727 223.072635 
L 115.480519 255.823538 
L 115.944312 218.705848 
L 116.408104 197.96361 
L 116.871896 200.147004 
L 117.799481 164.121011 
L 118.263273 291.849531 
L 118.727065 298.399711 
L 119.190857 290.757834 
L 119.654649 315.866859 
L 120.118442 351.892852 
L 120.582234 366.08491 
L 121.509818 336.609097 
L 121.97361 300.583105 
L 122.901195 268.923899 
L 123.828779 244.90657 
L 124.756364 313.683466 
L 125.220156 268.923899 
L 125.683948 249.273357 
L 126.14774 245.998267 
L 126.611532 219.797545 
L 127.075325 255.823538 
L 127.539117 230.714513 
L 128.002909 262.373718 
L 128.466701 276.565776 
L 128.930494 274.382383 
L 129.394286 252.548448 
L 129.858078 289.666137 
L 130.785662 298.399711 
L 131.249455 297.308014 
L 131.713247 283.115957 
L 132.177039 251.456751 
L 132.640831 272.198989 
L 133.104623 322.41704 
L 133.568416 327.875523 
L 134.032208 291.849531 
L 134.496 296.216318 
L 134.959792 287.482744 
L 135.423584 219.797545 
L 135.887377 300.583105 
L 136.351169 294.032924 
L 136.814961 271.107292 
L 137.278753 266.740505 
L 137.742545 258.006931 
L 138.206338 223.072635 
L 139.133922 275.474079 
L 139.597714 330.058917 
L 140.061506 345.342671 
L 140.525299 332.24231 
L 140.989091 315.866859 
L 141.452883 315.866859 
L 141.916675 352.984549 
L 142.380468 313.683466 
L 142.84426 307.133285 
L 143.308052 280.932563 
L 143.771844 244.90657 
L 144.235636 236.172996 
L 144.699429 282.02426 
L 145.163221 285.29935 
L 145.627013 264.557112 
L 146.090805 264.557112 
L 146.554597 304.949892 
L 147.01839 306.041588 
L 147.482182 309.316679 
L 147.945974 283.115957 
L 148.409766 267.832202 
L 148.873558 238.35639 
L 149.337351 266.740505 
L 149.801143 314.775162 
L 150.264935 332.24231 
L 150.728727 295.124621 
L 151.192519 297.308014 
L 151.656312 328.96722 
L 152.583896 279.840866 
L 153.047688 289.666137 
L 153.511481 303.858195 
L 153.975273 308.224982 
L 154.439065 347.526065 
L 154.902857 298.399711 
L 155.830442 243.814874 
L 156.294234 243.814874 
L 157.221818 219.797545 
L 157.68561 208.880578 
L 158.149403 208.880578 
L 158.613195 327.875523 
L 159.076987 347.526065 
L 159.540779 336.609097 
L 160.004571 285.29935 
L 160.468364 263.465415 
L 160.932156 309.316679 
L 161.395948 282.02426 
L 161.85974 226.347726 
L 162.323532 188.138339 
L 162.787325 189.230036 
L 163.251117 260.190325 
L 163.714909 265.648809 
L 164.178701 299.491408 
L 164.642494 291.849531 
L 165.570078 238.35639 
L 166.497662 274.382383 
L 166.961455 253.640144 
L 167.889039 183.771552 
L 168.352831 193.596823 
L 168.816623 196.871913 
L 169.280416 252.548448 
L 169.744208 361.718123 
L 170.208 366.08491 
L 170.671792 338.792491 
L 171.135584 343.159278 
L 171.599377 250.365054 
L 172.526961 194.68852 
L 172.990753 172.854585 
L 173.454545 191.41343 
L 173.918338 191.41343 
L 174.38213 185.954946 
L 174.845922 302.766498 
L 175.773506 294.032924 
L 176.237299 310.408375 
L 176.701091 300.583105 
L 177.164883 252.548448 
L 177.628675 247.089964 
L 178.092468 236.172996 
L 178.55626 221.980939 
L 179.483844 184.863249 
L 179.947636 203.422094 
L 180.875221 216.522455 
L 181.339013 215.430758 
L 181.802805 249.273357 
L 182.266597 308.224982 
L 182.73039 326.783827 
L 183.194182 302.766498 
L 183.657974 250.365054 
L 184.121766 228.531119 
L 184.585558 195.780217 
L 185.049351 195.780217 
L 185.513143 185.954946 
L 185.976935 193.596823 
L 186.440727 191.41343 
L 186.904519 203.422094 
L 187.368312 157.57083 
L 188.295896 196.871913 
L 188.759688 259.098628 
L 189.223481 252.548448 
L 189.687273 226.347726 
L 190.151065 190.321733 
L 190.614857 178.313069 
L 191.542442 221.980939 
L 192.006234 213.247365 
L 192.470026 207.788881 
L 192.933818 189.230036 
L 193.39761 178.313069 
L 193.861403 194.68852 
L 194.325195 173.946282 
L 194.788987 200.147004 
L 195.252779 197.96361 
L 195.716571 183.771552 
L 196.180364 163.029314 
L 196.644156 169.579495 
L 197.107948 155.387437 
L 197.57174 164.121011 
L 198.035532 169.579495 
L 198.963117 195.780217 
L 199.426909 187.046643 
L 199.890701 153.204043 
L 200.354494 132.461805 
L 200.818286 203.422094 
L 201.282078 215.430758 
L 201.74587 207.788881 
L 202.673455 172.854585 
L 203.137247 180.496462 
L 203.601039 171.762888 
L 204.992416 130.278412 
L 205.92 147.74556 
L 206.383792 140.103682 
L 206.847584 135.736895 
L 207.311377 133.553502 
L 208.238961 152.112347 
L 208.702753 149.928953 
L 209.166545 151.02065 
L 209.630338 147.74556 
L 210.09413 131.370108 
L 210.557922 143.378773 
L 211.021714 151.02065 
L 211.485506 141.195379 
L 211.949299 140.103682 
L 212.413091 146.653863 
L 212.876883 142.287076 
L 213.340675 147.74556 
L 213.804468 116.086354 
L 214.26826 111.719567 
L 214.732052 118.269747 
L 215.195844 166.304404 
L 215.659636 159.754224 
L 216.123429 165.212708 
L 216.587221 151.02065 
L 217.051013 153.204043 
L 217.514805 145.562166 
L 217.978597 142.287076 
L 218.44239 136.828592 
L 218.906182 141.195379 
L 219.369974 119.361444 
L 219.833766 104.07769 
L 220.761351 128.095018 
L 221.225143 128.095018 
L 221.688935 154.29574 
L 222.152727 172.854585 
L 222.616519 151.02065 
L 223.080312 151.02065 
L 223.544104 155.387437 
L 224.007896 156.479134 
L 224.471688 160.845921 
L 224.935481 159.754224 
L 225.399273 146.653863 
L 225.863065 136.828592 
L 226.326857 133.553502 
L 226.790649 135.736895 
L 227.254442 146.653863 
L 227.718234 135.736895 
L 228.182026 136.828592 
L 228.645818 136.828592 
L 229.10961 127.003321 
L 230.037195 166.304404 
L 230.500987 80.060361 
L 230.964779 118.269747 
L 231.428571 120.453141 
L 231.892364 130.278412 
L 232.356156 131.370108 
L 232.819948 143.378773 
L 233.28374 140.103682 
L 233.747532 141.195379 
L 234.211325 149.928953 
L 234.675117 133.553502 
L 235.138909 144.470469 
L 235.602701 168.487798 
L 236.066494 165.212708 
L 236.994078 154.29574 
L 237.45787 141.195379 
L 237.921662 151.02065 
L 238.385455 141.195379 
L 238.849247 142.287076 
L 239.776831 132.461805 
L 240.704416 123.728231 
L 241.168208 121.544838 
L 241.632 121.544838 
L 242.095792 128.095018 
L 242.559584 128.095018 
L 243.023377 129.186715 
L 243.487169 128.095018 
L 243.950961 129.186715 
L 244.414753 129.186715 
L 244.878545 124.819928 
L 245.342338 127.003321 
L 245.80613 112.811264 
L 246.269922 118.269747 
L 246.733714 121.544838 
L 247.197506 131.370108 
L 247.661299 119.361444 
L 248.125091 119.361444 
L 248.588883 154.29574 
L 249.052675 131.370108 
L 249.516468 127.003321 
L 249.98026 146.653863 
L 250.444052 144.470469 
L 250.907844 135.736895 
L 251.371636 135.736895 
L 251.835429 163.029314 
L 252.299221 145.562166 
L 252.763013 137.920289 
L 253.226805 135.736895 
L 253.690597 145.562166 
L 254.15439 144.470469 
L 254.618182 156.479134 
L 255.081974 184.863249 
L 255.545766 181.588159 
L 256.009558 122.636534 
L 256.473351 149.928953 
L 256.937143 158.662527 
L 257.400935 157.57083 
L 257.864727 165.212708 
L 258.328519 161.937617 
L 258.792312 152.112347 
L 259.256104 148.837256 
L 260.183688 130.278412 
L 260.647481 132.461805 
L 261.111273 151.02065 
L 261.575065 152.112347 
L 262.038857 145.562166 
L 262.502649 144.470469 
L 262.966442 140.103682 
L 263.430234 134.645199 
L 264.357818 151.02065 
L 264.82161 141.195379 
L 265.285403 147.74556 
L 265.749195 146.653863 
L 266.212987 157.57083 
L 266.676779 154.29574 
L 267.140571 163.029314 
L 267.604364 159.754224 
L 268.068156 154.29574 
L 268.531948 160.845921 
L 268.99574 164.121011 
L 269.459532 160.845921 
L 269.923325 156.479134 
L 270.387117 267.832202 
L 270.850909 273.290686 
L 271.778494 179.404765 
L 272.242286 158.662527 
L 272.706078 204.513791 
L 273.16987 213.247365 
L 273.633662 204.513791 
L 274.097455 184.863249 
L 274.561247 151.02065 
L 275.025039 156.479134 
L 275.488831 180.496462 
L 275.952623 195.780217 
L 276.416416 178.313069 
L 276.880208 262.373718 
L 277.344 271.107292 
L 277.807792 252.548448 
L 278.735377 180.496462 
L 279.199169 284.207653 
L 279.662961 286.391047 
L 280.126753 302.766498 
L 280.590545 266.740505 
L 281.054338 251.456751 
L 281.51813 231.806209 
L 281.981922 197.96361 
L 282.445714 176.129675 
L 283.373299 284.207653 
L 283.837091 272.198989 
L 284.300883 243.814874 
L 284.764675 285.29935 
L 285.228468 362.809819 
L 285.69226 369.36 
L 286.156052 338.792491 
L 286.619844 290.757834 
L 287.083636 300.583105 
L 288.011221 251.456751 
L 288.475013 240.539783 
L 288.938805 204.513791 
L 289.402597 191.41343 
L 289.86639 197.96361 
L 290.330182 237.264693 
L 290.793974 265.648809 
L 291.721558 229.622816 
L 292.185351 224.164332 
L 292.649143 253.640144 
L 293.112935 256.915235 
L 293.576727 217.614152 
L 294.040519 220.889242 
L 294.504312 267.832202 
L 294.968104 285.29935 
L 295.431896 254.731841 
L 295.895688 252.548448 
L 296.359481 233.989603 
L 296.823273 241.63148 
L 297.287065 251.456751 
L 297.750857 235.0813 
L 298.214649 262.373718 
L 298.678442 300.583105 
L 299.142234 315.866859 
L 299.606026 296.216318 
L 300.069818 240.539783 
L 300.53361 250.365054 
L 300.997403 219.797545 
L 301.461195 315.866859 
L 302.388779 352.984549 
L 302.852571 270.015596 
L 303.316364 289.666137 
L 303.780156 319.141949 
L 304.243948 321.325343 
L 305.171532 272.198989 
L 305.635325 236.172996 
L 306.099117 225.256029 
L 306.562909 219.797545 
L 307.026701 229.622816 
L 307.490494 275.474079 
L 307.954286 296.216318 
L 308.88187 271.107292 
L 309.345662 272.198989 
L 309.809455 308.224982 
L 310.273247 314.775162 
L 311.200831 262.373718 
L 311.664623 275.474079 
L 312.128416 259.098628 
L 312.592208 262.373718 
L 313.056 277.657473 
L 313.519792 306.041588 
L 313.983584 262.373718 
L 314.447377 260.190325 
L 315.374961 200.147004 
L 315.838753 202.330397 
L 316.302545 215.430758 
L 316.766338 266.740505 
L 317.693922 292.941227 
L 318.157714 265.648809 
L 318.621506 286.391047 
L 319.085299 273.290686 
L 320.012883 231.806209 
L 320.476675 244.90657 
L 320.940468 235.0813 
L 321.40426 270.015596 
L 321.868052 286.391047 
L 322.331844 313.683466 
L 322.795636 288.57444 
L 323.259429 297.308014 
L 323.723221 252.548448 
L 324.187013 245.998267 
L 325.114597 361.718123 
L 326.042182 285.29935 
L 326.505974 204.513791 
L 326.969766 213.247365 
L 327.433558 273.290686 
L 327.897351 287.482744 
L 328.361143 296.216318 
L 328.824935 292.941227 
L 329.752519 261.282022 
L 330.680104 203.422094 
L 331.607688 316.958556 
L 332.071481 330.058917 
L 332.535273 308.224982 
L 332.999065 278.74917 
L 333.462857 237.264693 
L 333.926649 215.430758 
L 334.390442 301.674801 
L 334.854234 336.609097 
L 335.318026 327.875523 
L 336.24561 264.557112 
L 336.709403 219.797545 
L 337.173195 194.68852 
L 337.636987 193.596823 
L 338.100779 273.290686 
L 338.564571 261.282022 
L 339.028364 262.373718 
L 339.955948 214.339061 
L 340.883532 202.330397 
L 341.347325 205.605487 
L 341.811117 199.055307 
L 342.274909 171.762888 
L 342.738701 179.404765 
L 343.202494 199.055307 
L 343.666286 195.780217 
L 344.130078 190.321733 
L 344.59387 196.871913 
L 345.057662 217.614152 
L 345.521455 245.998267 
L 345.985247 248.181661 
L 346.449039 214.339061 
L 346.912831 199.055307 
L 347.376623 169.579495 
L 347.840416 176.129675 
L 348.304208 176.129675 
L 348.768 143.378773 
L 349.231792 211.063971 
L 349.695584 227.439422 
L 350.159377 171.762888 
L 350.623169 204.513791 
L 351.086961 178.313069 
L 351.550753 158.662527 
L 352.014545 232.897906 
L 352.478338 230.714513 
L 352.94213 219.797545 
L 353.405922 185.954946 
L 353.869714 177.221372 
L 354.333506 154.29574 
L 354.797299 181.588159 
L 355.261091 187.046643 
L 355.724883 190.321733 
L 356.188675 192.505126 
L 357.11626 275.474079 
L 357.580052 253.640144 
L 358.043844 218.705848 
L 358.507636 166.304404 
L 358.971429 179.404765 
L 359.435221 171.762888 
L 359.899013 152.112347 
L 360.362805 137.920289 
L 361.29039 165.212708 
L 361.754182 151.02065 
L 362.217974 202.330397 
L 362.681766 176.129675 
L 363.609351 159.754224 
L 364.073143 176.129675 
L 364.536935 205.605487 
L 365.000727 177.221372 
L 365.464519 156.479134 
L 365.928312 153.204043 
L 366.392104 178.313069 
L 366.855896 168.487798 
L 367.319688 188.138339 
L 368.247273 199.055307 
L 368.711065 201.2387 
L 369.174857 190.321733 
L 369.638649 183.771552 
L 370.102442 165.212708 
L 370.566234 163.029314 
L 371.030026 147.74556 
L 371.493818 165.212708 
L 371.95761 188.138339 
L 372.885195 156.479134 
L 373.348987 132.461805 
L 373.812779 142.287076 
L 374.276571 167.396101 
L 374.740364 151.02065 
L 375.204156 155.387437 
L 375.667948 175.037978 
L 376.13174 178.313069 
L 376.595532 175.037978 
L 377.059325 145.562166 
L 377.523117 196.871913 
L 377.986909 165.212708 
L 378.450701 184.863249 
L 378.914494 190.321733 
L 379.842078 158.662527 
L 380.30587 149.928953 
L 380.769662 151.02065 
L 381.233455 148.837256 
L 381.697247 144.470469 
L 382.161039 143.378773 
L 382.624831 183.771552 
L 383.088623 154.29574 
L 383.552416 166.304404 
L 384.016208 182.679856 
L 384.48 176.129675 
L 384.943792 176.129675 
L 385.407584 175.037978 
L 386.335169 149.928953 
L 386.798961 155.387437 
L 387.262753 175.037978 
L 387.726545 142.287076 
L 388.190338 135.736895 
L 388.65413 134.645199 
L 389.117922 136.828592 
L 389.581714 180.496462 
L 390.045506 176.129675 
L 390.509299 157.57083 
L 390.973091 144.470469 
L 391.436883 158.662527 
L 391.900675 131.370108 
L 392.364468 140.103682 
L 392.82826 133.553502 
L 393.292052 136.828592 
L 393.755844 143.378773 
L 394.219636 136.828592 
L 394.683429 148.837256 
L 395.147221 136.828592 
L 395.611013 129.186715 
L 396.074805 125.911625 
L 396.538597 121.544838 
L 397.00239 129.186715 
L 397.466182 134.645199 
L 397.929974 137.920289 
L 398.393766 132.461805 
L 398.857558 137.920289 
L 399.321351 137.920289 
L 399.785143 130.278412 
L 400.248935 127.003321 
L 400.712727 159.754224 
L 401.176519 156.479134 
L 401.640312 142.287076 
L 402.104104 140.103682 
L 402.567896 145.562166 
L 403.495481 131.370108 
L 403.959273 140.103682 
L 404.423065 173.946282 
L 404.886857 145.562166 
L 405.350649 169.579495 
L 405.814442 176.129675 
L 406.278234 161.937617 
L 406.742026 143.378773 
L 407.205818 180.496462 
L 407.66961 161.937617 
L 408.133403 157.57083 
L 409.060987 141.195379 
L 409.524779 142.287076 
L 409.988571 141.195379 
L 410.452364 141.195379 
L 410.916156 163.029314 
L 411.379948 163.029314 
L 411.84374 159.754224 
L 412.307532 142.287076 
L 412.771325 143.378773 
L 413.235117 151.02065 
L 413.698909 149.928953 
L 414.162701 129.186715 
L 414.626494 137.920289 
L 415.090286 132.461805 
L 415.554078 135.736895 
L 416.01787 142.287076 
L 416.481662 106.261083 
L 416.945455 148.837256 
L 417.409247 142.287076 
L 417.873039 123.728231 
L 418.336831 131.370108 
L 418.800623 133.553502 
L 419.728208 127.003321 
L 420.192 119.361444 
L 420.655792 66.96 
L 421.119584 134.645199 
L 421.583377 133.553502 
L 422.047169 161.937617 
L 422.510961 152.112347 
L 422.974753 163.029314 
L 423.438545 146.653863 
L 423.902338 146.653863 
L 424.36613 66.96 
L 424.829922 120.453141 
L 425.293714 117.178051 
L 425.757506 136.828592 
L 426.221299 135.736895 
L 427.148883 135.736895 
L 427.612675 137.920289 
L 428.076468 137.920289 
L 428.54026 140.103682 
L 429.004052 134.645199 
L 429.467844 142.287076 
L 429.931636 144.470469 
L 430.395429 145.562166 
L 430.859221 141.195379 
L 431.323013 128.095018 
L 431.786805 129.186715 
L 432.250597 128.095018 
L 432.71439 141.195379 
L 433.641974 139.011986 
L 434.569558 141.195379 
L 435.033351 131.370108 
L 435.497143 149.928953 
L 435.960935 146.653863 
L 436.424727 146.653863 
L 436.888519 148.837256 
L 437.352312 131.370108 
L 437.816104 139.011986 
L 438.279896 133.553502 
L 438.743688 133.553502 
L 439.207481 137.920289 
L 440.135065 125.911625 
L 440.598857 117.178051 
L 441.062649 125.911625 
L 441.990234 151.02065 
L 442.454026 149.928953 
L 442.917818 140.103682 
L 443.38161 125.911625 
L 443.845403 154.29574 
L 444.309195 163.029314 
L 444.772987 160.845921 
L 445.236779 146.653863 
L 446.164364 171.762888 
L 446.628156 181.588159 
L 447.091948 182.679856 
L 447.55574 173.946282 
L 448.019532 175.037978 
L 448.483325 156.479134 
L 448.947117 161.937617 
L 449.410909 158.662527 
L 449.874701 163.029314 
L 450.802286 156.479134 
L 451.266078 160.845921 
L 451.72987 160.845921 
L 452.193662 167.396101 
L 452.657455 155.387437 
L 453.121247 151.02065 
L 453.585039 154.29574 
L 454.048831 154.29574 
L 454.976416 165.212708 
L 455.440208 155.387437 
L 455.904 156.479134 
L 456.367792 178.313069 
L 456.831584 192.505126 
L 457.295377 169.579495 
L 457.759169 189.230036 
L 458.222961 201.2387 
L 458.686753 202.330397 
L 459.614338 179.404765 
L 460.07813 173.946282 
L 460.541922 175.037978 
L 461.469506 221.980939 
L 461.933299 196.871913 
L 462.397091 205.605487 
L 462.860883 189.230036 
L 463.324675 196.871913 
L 463.788468 194.68852 
L 464.25226 172.854585 
L 464.716052 175.037978 
L 465.179844 163.029314 
L 465.643636 155.387437 
L 466.107429 201.2387 
L 466.571221 259.098628 
L 467.035013 243.814874 
L 467.498805 270.015596 
L 467.962597 243.814874 
L 468.42639 231.806209 
L 469.353974 187.046643 
L 469.817766 196.871913 
L 470.281558 242.723177 
L 470.745351 230.714513 
L 471.209143 199.055307 
L 471.672935 233.989603 
L 472.136727 242.723177 
L 473.064312 209.972274 
L 473.528104 208.880578 
L 473.991896 192.505126 
L 474.455688 180.496462 
L 474.919481 197.96361 
L 475.383273 239.448087 
L 475.847065 203.422094 
L 476.310857 176.129675 
L 476.774649 189.230036 
L 477.238442 182.679856 
L 477.702234 189.230036 
L 478.166026 261.282022 
L 478.629818 299.491408 
L 479.557403 273.290686 
L 480.484987 338.792491 
L 480.948779 314.775162 
L 481.412571 332.24231 
L 481.876364 340.975884 
L 482.340156 337.700794 
L 483.731532 243.814874 
L 484.195325 273.290686 
L 485.122909 299.491408 
L 485.586701 275.474079 
L 486.050494 237.264693 
L 486.978078 291.849531 
L 487.44187 267.832202 
L 487.905662 220.889242 
L 488.369455 185.954946 
L 488.833247 201.2387 
L 489.297039 212.155668 
L 489.760831 232.897906 
L 490.224623 199.055307 
L 490.688416 208.880578 
L 491.152208 213.247365 
L 491.616 238.35639 
L 492.079792 250.365054 
L 492.543584 274.382383 
L 493.007377 283.115957 
L 493.471169 288.57444 
L 493.934961 320.233646 
L 494.398753 295.124621 
L 494.862545 302.766498 
L 495.326338 298.399711 
L 495.79013 302.766498 
L 496.253922 196.871913 
L 496.717714 189.230036 
L 497.181506 171.762888 
L 497.645299 169.579495 
L 498.109091 215.430758 
L 498.109091 215.430758 
" clip-path="url(#p5fce49fb0a)" style="fill: none; stroke: #1f77b4; stroke-width: 1.5; stroke-linecap: round"/>
   </g>
   <g id="line2d_13">
    <path d="M 92.290909 158.444188 
L 92.754701 156.686556 
L 93.218494 161.577357 
L 93.682286 164.262931 
L 94.146078 163.859004 
L 94.60987 153.880895 
L 95.073662 164.852448 
L 95.537455 153.597054 
L 96.001247 147.974816 
L 96.465039 169.852419 
L 96.928831 171.479047 
L 97.392623 158.335018 
L 97.856416 155.966036 
L 98.320208 160.878671 
L 98.784 183.291206 
L 99.247792 182.712606 
L 100.175377 179.131841 
L 100.639169 164.917949 
L 101.102961 159.863394 
L 101.566753 160.889588 
L 102.030545 158.979119 
L 102.494338 157.952924 
L 102.95813 160.059899 
L 103.421922 158.171264 
L 103.885714 167.385184 
L 104.349506 156.140708 
L 104.813299 155.922368 
L 105.277091 168.389545 
L 105.740883 162.86556 
L 106.204675 159.404881 
L 106.668468 159.907061 
L 107.13226 303.312347 
L 107.596052 310.801386 
L 108.059844 285.834282 
L 108.523636 239.120578 
L 108.987429 240.638036 
L 109.451221 241.303971 
L 109.915013 238.60748 
L 110.378805 244.175134 
L 110.842597 234.175191 
L 111.30639 248.14891 
L 111.770182 240.376029 
L 112.233974 238.814903 
L 112.697766 226.697069 
L 113.161558 224.218917 
L 113.625351 218.618513 
L 114.089143 219.502787 
L 114.552935 223.138137 
L 115.016727 241.183884 
L 115.480519 241.958989 
L 115.944312 225.703625 
L 116.408104 224.437256 
L 116.871896 217.559567 
L 117.799481 189.524794 
L 119.190857 303.880029 
L 119.654649 260.779841 
L 120.118442 274.655307 
L 120.582234 305.845083 
L 121.046026 302.318903 
L 121.509818 294.993617 
L 121.97361 284.677083 
L 122.437403 304.52413 
L 123.364987 261.860621 
L 123.828779 260.212159 
L 124.292571 245.081242 
L 124.756364 264.153184 
L 125.220156 291.412852 
L 125.683948 282.264433 
L 126.14774 263.77109 
L 126.611532 239.284332 
L 127.075325 232.679567 
L 128.002909 242.876014 
L 128.930494 304.032866 
L 129.394286 252.03535 
L 129.858078 250.277718 
L 130.32187 284.447827 
L 130.785662 299.152982 
L 131.249455 280.321213 
L 131.713247 284.382325 
L 132.177039 287.089733 
L 132.640831 261.009097 
L 133.104623 292.93031 
L 133.568416 298.290542 
L 134.032208 293.356072 
L 134.496 295.233791 
L 134.959792 294.764361 
L 135.423584 263.301661 
L 135.887377 249.207856 
L 136.351169 281.085401 
L 136.814961 252.50478 
L 137.278753 245.594339 
L 137.742545 273.06143 
L 138.206338 263.181574 
L 138.67013 261.402108 
L 139.133922 265.092043 
L 139.597714 251.161993 
L 140.061506 303.890946 
L 140.525299 335.277227 
L 141.452883 300.790527 
L 141.916675 308.748996 
L 142.380468 310.779552 
L 142.84426 274.851812 
L 143.308052 278.17057 
L 143.771844 262.220881 
L 144.235636 237.297444 
L 144.699429 241.052881 
L 145.163221 282.209848 
L 145.627013 296.980505 
L 146.090805 283.661805 
L 146.554597 237.679538 
L 147.01839 290.648664 
L 147.482182 299.884419 
L 147.945974 304.327625 
L 148.409766 288.225097 
L 148.873558 252.843206 
L 149.337351 250.987321 
L 149.801143 268.661892 
L 150.264935 294.677025 
L 150.728727 292.275292 
L 151.192519 256.522224 
L 151.656312 297.766527 
L 152.120104 305.845083 
L 152.583896 292.952144 
L 153.047688 315.157256 
L 153.511481 280.408549 
L 153.975273 262.035292 
L 154.439065 314.491321 
L 154.902857 320.757661 
L 156.294234 237.242859 
L 156.758026 250.34322 
L 157.221818 237.308361 
L 157.68561 218.247336 
L 158.149403 223.247307 
L 158.613195 216.566123 
L 159.076987 300.790527 
L 159.540779 335.299061 
L 160.468364 267.209935 
L 160.932156 261.511278 
L 161.395948 297.122426 
L 162.323532 215.157834 
L 162.787325 200.965776 
L 163.251117 226.445978 
L 163.714909 274.622556 
L 164.178701 299.971755 
L 164.642494 312.51535 
L 165.106286 307.340708 
L 165.570078 252.996043 
L 166.03387 247.952404 
L 166.497662 275.441329 
L 166.961455 294.818946 
L 167.425247 231.664289 
L 167.889039 218.465675 
L 168.352831 217.54865 
L 168.816623 211.653487 
L 169.280416 200.496347 
L 169.744208 209.098917 
L 170.208 322.449791 
L 171.135584 303.181343 
L 172.063169 234.61187 
L 172.526961 223.356477 
L 172.990753 225.823711 
L 173.918338 206.238671 
L 174.38213 184.623076 
L 174.845922 192.439625 
L 175.309714 286.216375 
L 175.773506 301.947726 
L 176.237299 292.417213 
L 176.701091 302.515408 
L 177.164883 282.395437 
L 177.628675 271.576722 
L 178.092468 243.465531 
L 178.55626 264.808202 
L 179.020052 226.183971 
L 179.483844 216.806296 
L 179.947636 211.675321 
L 180.411429 221.784433 
L 180.875221 216.9373 
L 181.339013 220.190556 
L 181.802805 226.36956 
L 182.266597 211.304144 
L 182.73039 314.873415 
L 183.194182 313.137617 
L 183.657974 315.299177 
L 184.585558 213.760462 
L 185.049351 211.664404 
L 185.513143 198.57496 
L 185.976935 189.666715 
L 186.904519 181.424404 
L 187.368312 175.911336 
L 187.832104 179.743191 
L 188.295896 190.681993 
L 188.759688 186.271538 
L 189.223481 217.013718 
L 189.687273 201.446123 
L 190.614857 190.125227 
L 191.078649 187.05756 
L 191.542442 176.43535 
L 192.006234 206.795437 
L 192.470026 188.913444 
L 192.933818 194.044419 
L 193.39761 190.681993 
L 193.861403 186.216953 
L 194.325195 178.400404 
L 194.788987 176.675523 
L 195.252779 185.965863 
L 196.180364 191.457097 
L 196.644156 164.110094 
L 197.107948 156.293545 
L 197.57174 155.26735 
L 198.035532 173.214845 
L 198.499325 169.688664 
L 198.963117 177.123119 
L 199.426909 182.144924 
L 199.890701 178.913502 
L 200.354494 160.736751 
L 200.818286 163.334989 
L 201.282078 235.94374 
L 202.209662 187.079394 
L 202.673455 190.409069 
L 203.137247 188.880693 
L 203.601039 189.393791 
L 204.064831 185.529184 
L 204.528623 161.468188 
L 204.992416 155.835032 
L 205.456208 153.749892 
L 205.92 152.581776 
L 206.383792 139.208491 
L 206.847584 140.027264 
L 207.311377 151.610166 
L 207.775169 149.339437 
L 208.702753 153.083957 
L 209.166545 149.568693 
L 209.630338 152.909285 
L 210.09413 149.142931 
L 210.557922 156.468217 
L 211.021714 153.68439 
L 211.485506 153.32413 
L 211.949299 149.808866 
L 212.413091 149.623278 
L 212.876883 148.815422 
L 214.26826 126.370137 
L 215.195844 134.896289 
L 216.123429 162.559884 
L 216.587221 147.341632 
L 217.051013 146.402773 
L 217.514805 152.079596 
L 217.978597 150.649473 
L 218.44239 140.332939 
L 218.906182 138.618975 
L 219.369974 138.870065 
L 220.297558 124.295913 
L 220.761351 139.874426 
L 221.225143 142.046903 
L 221.688935 129.929069 
L 222.152727 136.741256 
L 222.616519 168.411379 
L 223.080312 149.93987 
L 223.544104 152.8547 
L 224.007896 149.175682 
L 224.471688 143.38969 
L 224.935481 141.053458 
L 225.399273 143.356939 
L 225.863065 144.481386 
L 226.326857 141.47922 
L 226.790649 144.426801 
L 227.254442 137.48361 
L 227.718234 141.47922 
L 228.182026 138.913733 
L 228.645818 127.789343 
L 229.10961 131.108101 
L 229.573403 128.870123 
L 230.037195 150.289213 
L 230.500987 147.88748 
L 230.964779 126.413805 
L 231.428571 134.055682 
L 231.892364 132.51639 
L 232.356156 137.461776 
L 232.819948 135.616809 
L 233.28374 134.787119 
L 233.747532 136.959596 
L 234.211325 137.909372 
L 234.675117 133.356996 
L 235.138909 140.25652 
L 235.602701 155.081762 
L 236.066494 161.9267 
L 236.530286 151.861256 
L 236.994078 151.304491 
L 237.45787 148.389661 
L 237.921662 141.741227 
L 238.385455 142.276159 
L 238.849247 139.230325 
L 239.313039 137.156101 
L 240.240623 132.254383 
L 240.704416 127.592838 
L 241.168208 128.498946 
L 242.095792 129.437805 
L 242.559584 130.944347 
L 243.023377 131.566614 
L 243.487169 130.551336 
L 243.950961 131.009848 
L 244.414753 132.025126 
L 244.878545 128.597199 
L 245.342338 124.284996 
L 245.80613 135.660477 
L 246.269922 124.317747 
L 246.733714 124.907264 
L 247.197506 132.068794 
L 247.661299 131.566614 
L 248.125091 128.837372 
L 248.588883 131.533863 
L 249.052675 140.97704 
L 249.516468 134.252188 
L 249.98026 147.046874 
L 250.444052 149.001011 
L 250.907844 149.525025 
L 251.371636 130.791509 
L 252.299221 146.118931 
L 252.763013 145.802339 
L 253.226805 141.773978 
L 253.690597 146.031596 
L 254.15439 153.302296 
L 254.618182 146.479191 
L 255.081974 151.588332 
L 255.545766 187.155812 
L 256.009558 192.963639 
L 256.473351 155.62761 
L 256.937143 162.636303 
L 257.400935 161.490022 
L 257.864727 159.568635 
L 258.328519 164.219264 
L 258.792312 160.027148 
L 259.256104 151.468245 
L 259.719896 148.149487 
L 260.183688 148.564332 
L 260.647481 147.035957 
L 261.111273 152.60361 
L 261.575065 152.996621 
L 262.038857 150.583971 
L 262.502649 149.525025 
L 262.966442 150.976982 
L 263.430234 151.588332 
L 263.894026 147.265213 
L 264.357818 154.066484 
L 264.82161 153.782643 
L 265.285403 154.721502 
L 265.749195 154.273906 
L 266.212987 154.896173 
L 266.676779 155.889617 
L 267.140571 154.677834 
L 267.604364 156.217126 
L 268.068156 148.793588 
L 268.531948 146.075264 
L 268.99574 155.420188 
L 269.459532 160.747668 
L 269.923325 155.103596 
L 270.387117 151.894007 
L 270.850909 215.616347 
L 271.314701 258.148852 
L 271.778494 199.219061 
L 272.242286 187.264982 
L 272.706078 184.131812 
L 273.16987 219.349949 
L 273.633662 217.559567 
L 274.097455 214.448231 
L 274.561247 182.188592 
L 275.025039 179.732274 
L 275.488831 163.564245 
L 275.952623 195.747466 
L 276.416416 192.38504 
L 276.880208 184.262816 
L 277.344 227.275668 
L 277.807792 227.166498 
L 278.271584 218.498426 
L 278.735377 212.952606 
L 279.199169 215.791018 
L 279.662961 302.94117 
L 280.126753 285.113762 
L 280.590545 244.961155 
L 281.054338 236.19483 
L 281.51813 244.589978 
L 281.981922 222.756043 
L 282.909506 214.317227 
L 283.373299 210.801964 
L 283.837091 289.480549 
L 284.300883 242.799596 
L 284.764675 241.642397 
L 285.228468 230.834599 
L 285.69226 336.423509 
L 286.156052 339.327422 
L 286.619844 285.222931 
L 287.083636 280.452217 
L 287.547429 280.353964 
L 288.011221 255.026599 
L 288.475013 248.793011 
L 288.938805 228.443783 
L 289.402597 231.598787 
L 289.86639 218.039913 
L 290.330182 217.33031 
L 290.793974 249.611783 
L 291.257766 240.288693 
L 291.721558 219.3827 
L 292.185351 220.234224 
L 292.649143 242.777762 
L 293.112935 247.635812 
L 293.576727 240.321444 
L 294.040519 208.520318 
L 294.504312 248.105242 
L 294.968104 256.60956 
L 295.431896 277.995899 
L 295.895688 225.572621 
L 296.359481 239.120578 
L 296.823273 231.576953 
L 297.287065 250.605227 
L 297.750857 242.188245 
L 298.214649 220.35431 
L 299.142234 298.235957 
L 299.606026 289.174874 
L 300.069818 244.458975 
L 300.53361 228.050773 
L 300.997403 235.790903 
L 301.461195 222.821545 
L 301.924987 305.353819 
L 302.388779 294.273097 
L 302.852571 297.624606 
L 303.316364 236.77343 
L 303.780156 280.168375 
L 304.243948 281.30374 
L 304.70774 273.432606 
L 305.171532 258.869372 
L 305.635325 259.2733 
L 306.099117 248.749343 
L 306.562909 241.817069 
L 307.026701 214.448231 
L 307.490494 244.622729 
L 307.954286 293.377906 
L 308.418078 310.135451 
L 308.88187 303.006671 
L 309.345662 270.03743 
L 309.809455 278.454412 
L 310.273247 276.642195 
L 310.737039 265.168462 
L 311.200831 259.076794 
L 311.664623 261.773285 
L 312.128416 269.720838 
L 312.592208 254.502585 
L 313.056 253.389054 
L 313.519792 250.124881 
L 313.983584 273.465357 
L 314.447377 252.613949 
L 314.911169 245.168578 
L 315.374961 246.336693 
L 315.838753 238.531061 
L 316.302545 245.397834 
L 316.766338 238.760318 
L 317.23013 242.417502 
L 317.693922 280.4413 
L 318.157714 303.235928 
L 318.621506 294.84078 
L 319.085299 266.958845 
L 319.549091 272.242657 
L 320.012883 288.236014 
L 320.476675 228.236361 
L 320.940468 230.059495 
L 321.40426 229.328058 
L 321.868052 282.362686 
L 322.331844 306.281762 
L 322.795636 309.829776 
L 323.259429 274.971899 
L 323.723221 292.744722 
L 324.187013 255.255856 
L 324.650805 246.074686 
L 325.114597 289.982729 
L 325.57839 283.836477 
L 326.042182 261.205603 
L 326.505974 256.205632 
L 326.969766 217.526816 
L 327.433558 215.212419 
L 327.897351 279.546108 
L 328.361143 315.495682 
L 328.824935 275.091986 
L 329.288727 303.628939 
L 329.752519 265.856231 
L 330.216312 249.720953 
L 330.680104 218.323755 
L 331.143896 213.509372 
L 331.607688 292.395379 
L 332.071481 309.174758 
L 332.535273 308.192231 
L 333.462857 258.432693 
L 333.926649 222.122859 
L 334.390442 218.225502 
L 334.854234 294.22943 
L 335.318026 305.987004 
L 335.781818 260.223076 
L 337.173195 194.601184 
L 337.636987 230.015827 
L 338.100779 210.16878 
L 338.564571 252.603032 
L 339.028364 236.009242 
L 339.492156 255.375942 
L 339.955948 231.729791 
L 340.41974 233.858599 
L 340.883532 232.079134 
L 341.347325 216.849964 
L 341.811117 217.221141 
L 342.274909 190.933083 
L 342.738701 190.22348 
L 343.202494 195.802051 
L 343.666286 190.136144 
L 344.130078 189.339206 
L 344.59387 183.640549 
L 345.057662 180.081617 
L 345.521455 226.36956 
L 345.985247 228.935047 
L 346.449039 226.336809 
L 346.912831 213.935134 
L 347.376623 188.858859 
L 347.840416 183.422209 
L 348.304208 187.898166 
L 348.768 185.387264 
L 349.231792 177.428794 
L 349.695584 204.448289 
L 350.159377 198.367538 
L 350.623169 171.82839 
L 351.086961 198.815134 
L 351.550753 186.817386 
L 352.014545 186.293372 
L 352.478338 234.14244 
L 352.94213 245.725343 
L 353.405922 202.17756 
L 353.869714 210.398036 
L 354.333506 190.354484 
L 354.797299 155.289184 
L 355.261091 204.73213 
L 355.724883 217.286643 
L 356.188675 182.603437 
L 356.652468 184.120895 
L 357.11626 229.862989 
L 357.580052 304.393126 
L 358.043844 220.638152 
L 358.507636 211.86091 
L 358.971429 198.705964 
L 359.435221 193.116477 
L 359.899013 181.315235 
L 360.362805 180.332708 
L 361.29039 139.142989 
L 361.754182 137.603697 
L 362.217974 145.059986 
L 362.681766 178.389487 
L 363.609351 161.17343 
L 364.073143 155.966036 
L 364.536935 177.275957 
L 365.000727 176.555437 
L 365.928312 153.57522 
L 366.392104 144.208462 
L 366.855896 169.808751 
L 367.319688 160.081733 
L 367.783481 159.033704 
L 368.247273 161.959451 
L 368.711065 186.315206 
L 369.174857 189.1427 
L 369.638649 189.033531 
L 370.102442 164.437603 
L 370.566234 161.872116 
L 371.030026 159.939812 
L 371.493818 164.961617 
L 371.95761 162.963812 
L 372.421403 169.644996 
L 372.885195 150.649473 
L 373.348987 144.470469 
L 373.812779 144.426801 
L 374.276571 153.804477 
L 374.740364 149.001011 
L 375.204156 150.354715 
L 375.667948 157.909256 
L 376.13174 159.339379 
L 376.595532 172.821834 
L 377.059325 157.592664 
L 377.523117 151.206238 
L 377.986909 170.256347 
L 378.450701 177.723552 
L 378.914494 171.337126 
L 379.378286 182.046671 
L 379.842078 165.234542 
L 380.769662 152.843783 
L 381.233455 152.559942 
L 381.697247 144.372217 
L 382.161039 138.684477 
L 382.624831 134.45961 
L 383.088623 159.568635 
L 383.552416 156.435466 
L 384.016208 186.424375 
L 384.48 164.80878 
L 384.943792 157.57083 
L 385.407584 159.415798 
L 385.871377 157.286989 
L 386.335169 153.771726 
L 386.798961 153.804477 
L 387.262753 144.885314 
L 387.726545 157.21057 
L 388.190338 146.697531 
L 388.65413 144.14296 
L 389.117922 139.634253 
L 389.581714 140.300188 
L 390.045506 151.795755 
L 390.509299 160.278238 
L 390.973091 160.572996 
L 391.436883 164.841531 
L 391.900675 166.697415 
L 392.364468 154.677834 
L 392.82826 155.201848 
L 393.292052 149.710614 
L 393.755844 152.068679 
L 394.219636 149.994455 
L 394.683429 137.036014 
L 395.147221 134.525112 
L 395.611013 134.022931 
L 396.074805 137.34169 
L 396.538597 145.125487 
L 397.00239 132.418137 
L 397.466182 136.446498 
L 398.393766 131.675783 
L 398.857558 125.071018 
L 399.321351 132.057877 
L 399.785143 141.031625 
L 400.248935 136.271827 
L 400.712727 140.671365 
L 401.640312 162.614469 
L 402.104104 147.592722 
L 403.031688 150.005372 
L 403.495481 143.455191 
L 403.959273 134.121184 
L 404.423065 146.511942 
L 404.886857 175.944087 
L 405.350649 172.974671 
L 405.814442 177.243206 
L 406.278234 174.710469 
L 406.742026 160.223653 
L 407.205818 161.107928 
L 407.66961 158.968202 
L 408.133403 151.173487 
L 408.597195 152.407105 
L 409.060987 151.129819 
L 409.524779 143.575278 
L 409.988571 159.153791 
L 410.452364 146.271769 
L 410.916156 146.380939 
L 411.379948 154.142903 
L 411.84374 151.118903 
L 412.307532 144.066542 
L 412.771325 142.385329 
L 413.235117 142.177906 
L 413.698909 143.269603 
L 414.162701 141.468303 
L 414.626494 140.136433 
L 415.090286 141.915899 
L 415.554078 142.909343 
L 416.01787 131.32644 
L 416.481662 135.092794 
L 416.945455 136.129906 
L 417.409247 145.736838 
L 417.873039 139.459581 
L 418.336831 130.726007 
L 418.800623 134.055682 
L 419.264416 135.824231 
L 419.728208 131.490195 
L 420.192 130.409415 
L 420.655792 149.776116 
L 421.119584 136.828592 
L 421.583377 149.546859 
L 422.047169 150.856895 
L 422.510961 172.723581 
L 422.974753 181.478989 
L 423.438545 164.786946 
L 423.902338 162.625386 
L 424.36613 161.009675 
L 424.829922 136.391913 
L 425.293714 133.498917 
L 425.757506 133.051321 
L 426.221299 134.546946 
L 426.685091 134.81987 
L 427.148883 129.983653 
L 427.612675 137.920289 
L 428.076468 129.437805 
L 428.54026 133.750007 
L 429.004052 140.343856 
L 429.467844 136.140823 
L 429.931636 137.210686 
L 430.395429 141.522888 
L 430.859221 140.223769 
L 431.323013 129.197632 
L 431.786805 124.416 
L 432.250597 132.243466 
L 432.71439 134.121184 
L 433.178182 137.156101 
L 433.641974 136.359162 
L 434.105766 136.326412 
L 434.569558 135.660477 
L 435.033351 132.472722 
L 435.497143 131.315523 
L 435.960935 145.038152 
L 436.424727 147.407134 
L 437.352312 155.616693 
L 437.816104 147.570888 
L 438.279896 146.44644 
L 438.743688 134.361357 
L 439.671273 139.055653 
L 440.598857 127.734758 
L 441.062649 131.260939 
L 441.526442 136.87226 
L 442.454026 159.721473 
L 442.917818 149.263018 
L 443.38161 148.531581 
L 443.845403 142.232491 
L 444.309195 148.913675 
L 444.772987 162.003119 
L 445.700571 145.365661 
L 446.628156 173.509603 
L 447.55574 176.65369 
L 448.019532 164.08826 
L 448.483325 158.728029 
L 448.947117 155.900534 
L 449.410909 162.232375 
L 449.874701 158.586108 
L 450.338494 151.653834 
L 450.802286 148.422412 
L 451.266078 152.24335 
L 451.72987 159.175625 
L 452.193662 155.824116 
L 452.657455 153.466051 
L 453.121247 154.503162 
L 453.585039 150.856895 
L 454.048831 150.76956 
L 454.512623 152.407105 
L 454.976416 153.127625 
L 455.440208 148.673502 
L 455.904 151.118903 
L 456.367792 152.221516 
L 456.831584 176.29343 
L 457.295377 175.998671 
L 457.759169 173.367682 
L 458.222961 177.996477 
L 458.686753 177.548881 
L 459.150545 184.208231 
L 459.614338 193.640491 
L 460.07813 189.7213 
L 460.541922 179.612188 
L 461.005714 176.620939 
L 461.469506 189.284621 
L 461.933299 226.173054 
L 462.397091 223.989661 
L 462.860883 209.688433 
L 463.324675 224.066079 
L 463.788468 224.590094 
L 464.25226 189.120866 
L 464.716052 181.828332 
L 465.179844 182.155841 
L 465.643636 184.623076 
L 466.107429 177.559798 
L 466.571221 185.627437 
L 467.035013 223.716736 
L 467.498805 222.887047 
L 467.962597 226.282224 
L 468.42639 223.760404 
L 469.353974 212.090166 
L 469.817766 200.136087 
L 470.281558 219.404534 
L 470.745351 227.046412 
L 471.209143 215.96569 
L 471.672935 199.459235 
L 472.136727 229.677401 
L 472.600519 230.572592 
L 473.064312 255.266773 
L 473.528104 228.323697 
L 473.991896 231.762542 
L 474.919481 198.192866 
L 475.383273 220.092303 
L 476.310857 216.205863 
L 476.774649 203.804188 
L 477.238442 201.064029 
L 477.702234 196.577155 
L 478.166026 195.430874 
L 478.629818 242.417502 
L 479.09361 306.412765 
L 479.557403 257.668505 
L 480.021195 277.319047 
L 480.484987 307.024116 
L 480.948779 307.209704 
L 481.412571 303.618022 
L 481.876364 312.449848 
L 482.340156 339.775018 
L 482.803948 317.034975 
L 483.26774 306.139841 
L 484.195325 250.234051 
L 484.659117 274.78631 
L 485.122909 275.517747 
L 485.586701 253.127047 
L 486.050494 257.94143 
L 486.514286 236.598758 
L 486.978078 273.585444 
L 487.44187 300.124592 
L 487.905662 249.830123 
L 488.369455 240.40878 
L 488.833247 233.454671 
L 489.297039 258.247105 
L 489.760831 244.731899 
L 490.224623 250.212217 
L 490.688416 238.552895 
L 491.152208 242.854181 
L 491.616 240.681704 
L 492.079792 236.260332 
L 492.543584 248.137993 
L 493.007377 249.513531 
L 493.471169 285.725112 
L 493.934961 298.323292 
L 494.398753 306.71844 
L 494.862545 254.786426 
L 495.326338 269.600751 
L 495.79013 316.805718 
L 496.253922 270.659697 
L 496.717714 206.970108 
L 498.109091 185.00517 
L 498.109091 185.00517 
" clip-path="url(#p5fce49fb0a)" style="fill: none; stroke: #ff7f0e; stroke-width: 1.5; stroke-linecap: round"/>
   </g>
   <g id="patch_3">
    <path d="M 72 384.48 
L 72 51.84 
" style="fill: none; stroke: #ffffff; stroke-width: 0.8; stroke-linejoin: miter; stroke-linecap: square"/>
   </g>
   <g id="patch_4">
    <path d="M 518.4 384.48 
L 518.4 51.84 
" style="fill: none; stroke: #ffffff; stroke-width: 0.8; stroke-linejoin: miter; stroke-linecap: square"/>
   </g>
   <g id="patch_5">
    <path d="M 72 384.48 
L 518.4 384.48 
" style="fill: none; stroke: #ffffff; stroke-width: 0.8; stroke-linejoin: miter; stroke-linecap: square"/>
   </g>
   <g id="patch_6">
    <path d="M 72 51.84 
L 518.4 51.84 
" style="fill: none; stroke: #ffffff; stroke-width: 0.8; stroke-linejoin: miter; stroke-linecap: square"/>
   </g>
   <g id="text_14">
    <!-- Minimum Temperature Prediction 5 Days Ahead -->
    <g style="fill: #262626" transform="translate(168.256875 45.84) scale(0.12 -0.12)">
     <defs>
      <path id="ArialMT-4d" d="M 475 0 
L 475 4581 
L 1388 4581 
L 2472 1338 
Q 2622 884 2691 659 
Q 2769 909 2934 1394 
L 4031 4581 
L 4847 4581 
L 4847 0 
L 4263 0 
L 4263 3834 
L 2931 0 
L 2384 0 
L 1059 3900 
L 1059 0 
L 475 0 
z
" transform="scale(0.015625)"/>
      <path id="ArialMT-69" d="M 425 3934 
L 425 4581 
L 988 4581 
L 988 3934 
L 425 3934 
z
M 425 0 
L 425 3319 
L 988 3319 
L 988 0 
L 425 0 
z
" transform="scale(0.015625)"/>
      <path id="ArialMT-6e" d="M 422 0 
L 422 3319 
L 928 3319 
L 928 2847 
Q 1294 3394 1984 3394 
Q 2284 3394 2536 3286 
Q 2788 3178 2913 3003 
Q 3038 2828 3088 2588 
Q 3119 2431 3119 2041 
L 3119 0 
L 2556 0 
L 2556 2019 
Q 2556 2363 2490 2533 
Q 2425 2703 2258 2804 
Q 2091 2906 1866 2906 
Q 1506 2906 1245 2678 
Q 984 2450 984 1813 
L 984 0 
L 422 0 
z
" transform="scale(0.015625)"/>
      <path id="ArialMT-6d" d="M 422 0 
L 422 3319 
L 925 3319 
L 925 2853 
Q 1081 3097 1340 3245 
Q 1600 3394 1931 3394 
Q 2300 3394 2536 3241 
Q 2772 3088 2869 2813 
Q 3263 3394 3894 3394 
Q 4388 3394 4653 3120 
Q 4919 2847 4919 2278 
L 4919 0 
L 4359 0 
L 4359 2091 
Q 4359 2428 4304 2576 
Q 4250 2725 4106 2815 
Q 3963 2906 3769 2906 
Q 3419 2906 3187 2673 
Q 2956 2441 2956 1928 
L 2956 0 
L 2394 0 
L 2394 2156 
Q 2394 2531 2256 2718 
Q 2119 2906 1806 2906 
Q 1569 2906 1367 2781 
Q 1166 2656 1075 2415 
Q 984 2175 984 1722 
L 984 0 
L 422 0 
z
" transform="scale(0.015625)"/>
      <path id="ArialMT-75" d="M 2597 0 
L 2597 488 
Q 2209 -75 1544 -75 
Q 1250 -75 995 37 
Q 741 150 617 320 
Q 494 491 444 738 
Q 409 903 409 1263 
L 409 3319 
L 972 3319 
L 972 1478 
Q 972 1038 1006 884 
Q 1059 663 1231 536 
Q 1403 409 1656 409 
Q 1909 409 2131 539 
Q 2353 669 2445 892 
Q 2538 1116 2538 1541 
L 2538 3319 
L 3100 3319 
L 3100 0 
L 2597 0 
z
" transform="scale(0.015625)"/>
      <path id="ArialMT-20" transform="scale(0.015625)"/>
      <path id="ArialMT-54" d="M 1659 0 
L 1659 4041 
L 150 4041 
L 150 4581 
L 3781 4581 
L 3781 4041 
L 2266 4041 
L 2266 0 
L 1659 0 
z
" transform="scale(0.015625)"/>
      <path id="ArialMT-65" d="M 2694 1069 
L 3275 997 
Q 3138 488 2766 206 
Q 2394 -75 1816 -75 
Q 1088 -75 661 373 
Q 234 822 234 1631 
Q 234 2469 665 2931 
Q 1097 3394 1784 3394 
Q 2450 3394 2872 2941 
Q 3294 2488 3294 1666 
Q 3294 1616 3291 1516 
L 816 1516 
Q 847 969 1125 678 
Q 1403 388 1819 388 
Q 2128 388 2347 550 
Q 2566 713 2694 1069 
z
M 847 1978 
L 2700 1978 
Q 2663 2397 2488 2606 
Q 2219 2931 1791 2931 
Q 1403 2931 1139 2672 
Q 875 2413 847 1978 
z
" transform="scale(0.015625)"/>
      <path id="ArialMT-70" d="M 422 -1272 
L 422 3319 
L 934 3319 
L 934 2888 
Q 1116 3141 1344 3267 
Q 1572 3394 1897 3394 
Q 2322 3394 2647 3175 
Q 2972 2956 3137 2557 
Q 3303 2159 3303 1684 
Q 3303 1175 3120 767 
Q 2938 359 2589 142 
Q 2241 -75 1856 -75 
Q 1575 -75 1351 44 
Q 1128 163 984 344 
L 984 -1272 
L 422 -1272 
z
M 931 1641 
Q 931 1000 1190 694 
Q 1450 388 1819 388 
Q 2194 388 2461 705 
Q 2728 1022 2728 1688 
Q 2728 2322 2467 2637 
Q 2206 2953 1844 2953 
Q 1484 2953 1207 2617 
Q 931 2281 931 1641 
z
" transform="scale(0.015625)"/>
      <path id="ArialMT-72" d="M 416 0 
L 416 3319 
L 922 3319 
L 922 2816 
Q 1116 3169 1280 3281 
Q 1444 3394 1641 3394 
Q 1925 3394 2219 3213 
L 2025 2691 
Q 1819 2813 1613 2813 
Q 1428 2813 1281 2702 
Q 1134 2591 1072 2394 
Q 978 2094 978 1738 
L 978 0 
L 416 0 
z
" transform="scale(0.015625)"/>
      <path id="ArialMT-74" d="M 1650 503 
L 1731 6 
Q 1494 -44 1306 -44 
Q 1000 -44 831 53 
Q 663 150 594 308 
Q 525 466 525 972 
L 525 2881 
L 113 2881 
L 113 3319 
L 525 3319 
L 525 4141 
L 1084 4478 
L 1084 3319 
L 1650 3319 
L 1650 2881 
L 1084 2881 
L 1084 941 
Q 1084 700 1114 631 
Q 1144 563 1211 522 
Q 1278 481 1403 481 
Q 1497 481 1650 503 
z
" transform="scale(0.015625)"/>
      <path id="ArialMT-50" d="M 494 0 
L 494 4581 
L 2222 4581 
Q 2678 4581 2919 4538 
Q 3256 4481 3484 4323 
Q 3713 4166 3852 3881 
Q 3991 3597 3991 3256 
Q 3991 2672 3619 2267 
Q 3247 1863 2275 1863 
L 1100 1863 
L 1100 0 
L 494 0 
z
M 1100 2403 
L 2284 2403 
Q 2872 2403 3119 2622 
Q 3366 2841 3366 3238 
Q 3366 3525 3220 3729 
Q 3075 3934 2838 4000 
Q 2684 4041 2272 4041 
L 1100 4041 
L 1100 2403 
z
" transform="scale(0.015625)"/>
      <path id="ArialMT-64" d="M 2575 0 
L 2575 419 
Q 2259 -75 1647 -75 
Q 1250 -75 917 144 
Q 584 363 401 755 
Q 219 1147 219 1656 
Q 219 2153 384 2558 
Q 550 2963 881 3178 
Q 1213 3394 1622 3394 
Q 1922 3394 2156 3267 
Q 2391 3141 2538 2938 
L 2538 4581 
L 3097 4581 
L 3097 0 
L 2575 0 
z
M 797 1656 
Q 797 1019 1065 703 
Q 1334 388 1700 388 
Q 2069 388 2326 689 
Q 2584 991 2584 1609 
Q 2584 2291 2321 2609 
Q 2059 2928 1675 2928 
Q 1300 2928 1048 2622 
Q 797 2316 797 1656 
z
" transform="scale(0.015625)"/>
      <path id="ArialMT-63" d="M 2588 1216 
L 3141 1144 
Q 3050 572 2676 248 
Q 2303 -75 1759 -75 
Q 1078 -75 664 370 
Q 250 816 250 1647 
Q 250 2184 428 2587 
Q 606 2991 970 3192 
Q 1334 3394 1763 3394 
Q 2303 3394 2647 3120 
Q 2991 2847 3088 2344 
L 2541 2259 
Q 2463 2594 2264 2762 
Q 2066 2931 1784 2931 
Q 1359 2931 1093 2626 
Q 828 2322 828 1663 
Q 828 994 1084 691 
Q 1341 388 1753 388 
Q 2084 388 2306 591 
Q 2528 794 2588 1216 
z
" transform="scale(0.015625)"/>
      <path id="ArialMT-6f" d="M 213 1659 
Q 213 2581 725 3025 
Q 1153 3394 1769 3394 
Q 2453 3394 2887 2945 
Q 3322 2497 3322 1706 
Q 3322 1066 3130 698 
Q 2938 331 2570 128 
Q 2203 -75 1769 -75 
Q 1072 -75 642 372 
Q 213 819 213 1659 
z
M 791 1659 
Q 791 1022 1069 705 
Q 1347 388 1769 388 
Q 2188 388 2466 706 
Q 2744 1025 2744 1678 
Q 2744 2294 2464 2611 
Q 2184 2928 1769 2928 
Q 1347 2928 1069 2612 
Q 791 2297 791 1659 
z
" transform="scale(0.015625)"/>
      <path id="ArialMT-41" d="M -9 0 
L 1750 4581 
L 2403 4581 
L 4278 0 
L 3588 0 
L 3053 1388 
L 1138 1388 
L 634 0 
L -9 0 
z
M 1313 1881 
L 2866 1881 
L 2388 3150 
Q 2169 3728 2063 4100 
Q 1975 3659 1816 3225 
L 1313 1881 
z
" transform="scale(0.015625)"/>
      <path id="ArialMT-68" d="M 422 0 
L 422 4581 
L 984 4581 
L 984 2938 
Q 1378 3394 1978 3394 
Q 2347 3394 2619 3248 
Q 2891 3103 3008 2847 
Q 3125 2591 3125 2103 
L 3125 0 
L 2563 0 
L 2563 2103 
Q 2563 2525 2380 2717 
Q 2197 2909 1863 2909 
Q 1613 2909 1392 2779 
Q 1172 2650 1078 2428 
Q 984 2206 984 1816 
L 984 0 
L 422 0 
z
" transform="scale(0.015625)"/>
     </defs>
     <use xlink:href="#ArialMT-4d"/>
     <use xlink:href="#ArialMT-69" x="83.300781"/>
     <use xlink:href="#ArialMT-6e" x="105.517578"/>
     <use xlink:href="#ArialMT-69" x="161.132812"/>
     <use xlink:href="#ArialMT-6d" x="183.349609"/>
     <use xlink:href="#ArialMT-75" x="266.650391"/>
     <use xlink:href="#ArialMT-6d" x="322.265625"/>
     <use xlink:href="#ArialMT-20" x="405.566406"/>
     <use xlink:href="#ArialMT-54" x="431.599609"/>
     <use xlink:href="#ArialMT-65" x="481.558594"/>
     <use xlink:href="#ArialMT-6d" x="537.173828"/>
     <use xlink:href="#ArialMT-70" x="620.474609"/>
     <use xlink:href="#ArialMT-65" x="676.089844"/>
     <use xlink:href="#ArialMT-72" x="731.705078"/>
     <use xlink:href="#ArialMT-61" x="765.005859"/>
     <use xlink:href="#ArialMT-74" x="820.621094"/>
     <use xlink:href="#ArialMT-75" x="848.404297"/>
     <use xlink:href="#ArialMT-72" x="904.019531"/>
     <use xlink:href="#ArialMT-65" x="937.320312"/>
     <use xlink:href="#ArialMT-20" x="992.935547"/>
     <use xlink:href="#ArialMT-50" x="1020.71875"/>
     <use xlink:href="#ArialMT-72" x="1087.417969"/>
     <use xlink:href="#ArialMT-65" x="1120.71875"/>
     <use xlink:href="#ArialMT-64" x="1176.333984"/>
     <use xlink:href="#ArialMT-69" x="1231.949219"/>
     <use xlink:href="#ArialMT-63" x="1254.166016"/>
     <use xlink:href="#ArialMT-74" x="1304.166016"/>
     <use xlink:href="#ArialMT-69" x="1331.949219"/>
     <use xlink:href="#ArialMT-6f" x="1354.166016"/>
     <use xlink:href="#ArialMT-6e" x="1409.78125"/>
     <use xlink:href="#ArialMT-20" x="1465.396484"/>
     <use xlink:href="#ArialMT-35" x="1493.179688"/>
     <use xlink:href="#ArialMT-20" x="1548.794922"/>
     <use xlink:href="#ArialMT-44" x="1576.578125"/>
     <use xlink:href="#ArialMT-61" x="1648.794922"/>
     <use xlink:href="#ArialMT-79" x="1704.410156"/>
     <use xlink:href="#ArialMT-73" x="1754.410156"/>
     <use xlink:href="#ArialMT-20" x="1804.410156"/>
     <use xlink:href="#ArialMT-41" x="1826.693359"/>
     <use xlink:href="#ArialMT-68" x="1893.392578"/>
     <use xlink:href="#ArialMT-65" x="1949.007812"/>
     <use xlink:href="#ArialMT-61" x="2004.623047"/>
     <use xlink:href="#ArialMT-64" x="2060.238281"/>
    </g>
   </g>
   <g id="legend_1">
    <g id="patch_7">
     <path d="M 437.15625 88.130625 
L 511.4 88.130625 
Q 513.4 88.130625 513.4 86.130625 
L 513.4 58.84 
Q 513.4 56.84 511.4 56.84 
L 437.15625 56.84 
Q 435.15625 56.84 435.15625 58.84 
L 435.15625 86.130625 
Q 435.15625 88.130625 437.15625 88.130625 
z
" style="fill: #eaeaf2; opacity: 0.8; stroke: #cccccc; stroke-linejoin: miter"/>
    </g>
    <g id="line2d_14">
     <path d="M 439.15625 64.497812 
L 449.15625 64.497812 
L 459.15625 64.497812 
" style="fill: none; stroke: #1f77b4; stroke-width: 1.5; stroke-linecap: round"/>
    </g>
    <g id="text_15">
     <!-- Real -->
     <g style="fill: #262626" transform="translate(467.15625 67.997812) scale(0.1 -0.1)">
      <defs>
       <path id="ArialMT-52" d="M 503 0 
L 503 4581 
L 2534 4581 
Q 3147 4581 3465 4457 
Q 3784 4334 3975 4021 
Q 4166 3709 4166 3331 
Q 4166 2844 3850 2509 
Q 3534 2175 2875 2084 
Q 3116 1969 3241 1856 
Q 3506 1613 3744 1247 
L 4541 0 
L 3778 0 
L 3172 953 
Q 2906 1366 2734 1584 
Q 2563 1803 2427 1890 
Q 2291 1978 2150 2013 
Q 2047 2034 1813 2034 
L 1109 2034 
L 1109 0 
L 503 0 
z
M 1109 2559 
L 2413 2559 
Q 2828 2559 3062 2645 
Q 3297 2731 3419 2920 
Q 3541 3109 3541 3331 
Q 3541 3656 3305 3865 
Q 3069 4075 2559 4075 
L 1109 4075 
L 1109 2559 
z
" transform="scale(0.015625)"/>
       <path id="ArialMT-6c" d="M 409 0 
L 409 4581 
L 972 4581 
L 972 0 
L 409 0 
z
" transform="scale(0.015625)"/>
      </defs>
      <use xlink:href="#ArialMT-52"/>
      <use xlink:href="#ArialMT-65" x="72.216797"/>
      <use xlink:href="#ArialMT-61" x="127.832031"/>
      <use xlink:href="#ArialMT-6c" x="183.447266"/>
     </g>
    </g>
    <g id="line2d_15">
     <path d="M 439.15625 78.643125 
L 449.15625 78.643125 
L 459.15625 78.643125 
" style="fill: none; stroke: #ff7f0e; stroke-width: 1.5; stroke-linecap: round"/>
    </g>
    <g id="text_16">
     <!-- Predicted -->
     <g style="fill: #262626" transform="translate(467.15625 82.143125) scale(0.1 -0.1)">
      <use xlink:href="#ArialMT-50"/>
      <use xlink:href="#ArialMT-72" x="66.699219"/>
      <use xlink:href="#ArialMT-65" x="100"/>
      <use xlink:href="#ArialMT-64" x="155.615234"/>
      <use xlink:href="#ArialMT-69" x="211.230469"/>
      <use xlink:href="#ArialMT-63" x="233.447266"/>
      <use xlink:href="#ArialMT-74" x="283.447266"/>
      <use xlink:href="#ArialMT-65" x="311.230469"/>
      <use xlink:href="#ArialMT-64" x="366.845703"/>
     </g>
    </g>
   </g>
  </g>
 </g>
 <defs>
  <clipPath id="p5fce49fb0a">
   <rect x="72" y="51.84" width="446.4" height="332.64"/>
  </clipPath>
 </defs>
</svg>
