<?xml version="1.0" encoding="utf-8" standalone="no"?>
<!DOCTYPE svg PUBLIC "-//W3C//DTD SVG 1.1//EN"
  "http://www.w3.org/Graphics/SVG/1.1/DTD/svg11.dtd">
<svg xmlns:xlink="http://www.w3.org/1999/xlink" width="576pt" height="432pt" viewBox="0 0 576 432" xmlns="http://www.w3.org/2000/svg" version="1.1">
 <metadata>
  <rdf:RDF xmlns:dc="http://purl.org/dc/elements/1.1/" xmlns:cc="http://creativecommons.org/ns#" xmlns:rdf="http://www.w3.org/1999/02/22-rdf-syntax-ns#">
   <cc:Work>
    <dc:type rdf:resource="http://purl.org/dc/dcmitype/StillImage"/>
    <dc:date>2023-11-17T05:04:43.899273</dc:date>
    <dc:format>image/svg+xml</dc:format>
    <dc:creator>
     <cc:Agent>
      <dc:title>Matplotlib v3.8.0, https://matplotlib.org/</dc:title>
     </cc:Agent>
    </dc:creator>
   </cc:Work>
  </rdf:RDF>
 </metadata>
 <defs>
  <style type="text/css">*{stroke-linejoin: round; stroke-linecap: butt}</style>
 </defs>
 <g id="figure_1">
  <g id="patch_1">
   <path d="M 0 432 
L 576 432 
L 576 0 
L 0 0 
z
" style="fill: #ffffff"/>
  </g>
  <g id="axes_1">
   <g id="patch_2">
    <path d="M 72 384.48 
L 518.4 384.48 
L 518.4 51.84 
L 72 51.84 
z
" style="fill: #eaeaf2"/>
   </g>
   <g id="matplotlib.axis_1">
    <g id="xtick_1">
     <g id="line2d_1">
      <path d="M 92.290909 384.48 
L 92.290909 51.84 
" clip-path="url(#p681594c1e0)" style="fill: none; stroke: #ffffff; stroke-width: 0.8; stroke-linecap: round"/>
     </g>
     <g id="text_1">
      <!-- 0 -->
      <g style="fill: #262626" transform="translate(89.51044 398.637812) scale(0.1 -0.1)">
       <defs>
        <path id="ArialMT-30" d="M 266 2259 
Q 266 3072 433 3567 
Q 600 4063 929 4331 
Q 1259 4600 1759 4600 
Q 2128 4600 2406 4451 
Q 2684 4303 2865 4023 
Q 3047 3744 3150 3342 
Q 3253 2941 3253 2259 
Q 3253 1453 3087 958 
Q 2922 463 2592 192 
Q 2263 -78 1759 -78 
Q 1097 -78 719 397 
Q 266 969 266 2259 
z
M 844 2259 
Q 844 1131 1108 757 
Q 1372 384 1759 384 
Q 2147 384 2411 759 
Q 2675 1134 2675 2259 
Q 2675 3391 2411 3762 
Q 2147 4134 1753 4134 
Q 1366 4134 1134 3806 
Q 844 3388 844 2259 
z
" transform="scale(0.015625)"/>
       </defs>
       <use xlink:href="#ArialMT-30"/>
      </g>
     </g>
    </g>
    <g id="xtick_2">
     <g id="line2d_2">
      <path d="M 185.049351 384.48 
L 185.049351 51.84 
" clip-path="url(#p681594c1e0)" style="fill: none; stroke: #ffffff; stroke-width: 0.8; stroke-linecap: round"/>
     </g>
     <g id="text_2">
      <!-- 200 -->
      <g style="fill: #262626" transform="translate(176.707944 398.637812) scale(0.1 -0.1)">
       <defs>
        <path id="ArialMT-32" d="M 3222 541 
L 3222 0 
L 194 0 
Q 188 203 259 391 
Q 375 700 629 1000 
Q 884 1300 1366 1694 
Q 2113 2306 2375 2664 
Q 2638 3022 2638 3341 
Q 2638 3675 2398 3904 
Q 2159 4134 1775 4134 
Q 1369 4134 1125 3890 
Q 881 3647 878 3216 
L 300 3275 
Q 359 3922 746 4261 
Q 1134 4600 1788 4600 
Q 2447 4600 2831 4234 
Q 3216 3869 3216 3328 
Q 3216 3053 3103 2787 
Q 2991 2522 2730 2228 
Q 2469 1934 1863 1422 
Q 1356 997 1212 845 
Q 1069 694 975 541 
L 3222 541 
z
" transform="scale(0.015625)"/>
       </defs>
       <use xlink:href="#ArialMT-32"/>
       <use xlink:href="#ArialMT-30" x="55.615234"/>
       <use xlink:href="#ArialMT-30" x="111.230469"/>
      </g>
     </g>
    </g>
    <g id="xtick_3">
     <g id="line2d_3">
      <path d="M 277.807792 384.48 
L 277.807792 51.84 
" clip-path="url(#p681594c1e0)" style="fill: none; stroke: #ffffff; stroke-width: 0.8; stroke-linecap: round"/>
     </g>
     <g id="text_3">
      <!-- 400 -->
      <g style="fill: #262626" transform="translate(269.466386 398.637812) scale(0.1 -0.1)">
       <defs>
        <path id="ArialMT-34" d="M 2069 0 
L 2069 1097 
L 81 1097 
L 81 1613 
L 2172 4581 
L 2631 4581 
L 2631 1613 
L 3250 1613 
L 3250 1097 
L 2631 1097 
L 2631 0 
L 2069 0 
z
M 2069 1613 
L 2069 3678 
L 634 1613 
L 2069 1613 
z
" transform="scale(0.015625)"/>
       </defs>
       <use xlink:href="#ArialMT-34"/>
       <use xlink:href="#ArialMT-30" x="55.615234"/>
       <use xlink:href="#ArialMT-30" x="111.230469"/>
      </g>
     </g>
    </g>
    <g id="xtick_4">
     <g id="line2d_4">
      <path d="M 370.566234 384.48 
L 370.566234 51.84 
" clip-path="url(#p681594c1e0)" style="fill: none; stroke: #ffffff; stroke-width: 0.8; stroke-linecap: round"/>
     </g>
     <g id="text_4">
      <!-- 600 -->
      <g style="fill: #262626" transform="translate(362.224828 398.637812) scale(0.1 -0.1)">
       <defs>
        <path id="ArialMT-36" d="M 3184 3459 
L 2625 3416 
Q 2550 3747 2413 3897 
Q 2184 4138 1850 4138 
Q 1581 4138 1378 3988 
Q 1113 3794 959 3422 
Q 806 3050 800 2363 
Q 1003 2672 1297 2822 
Q 1591 2972 1913 2972 
Q 2475 2972 2870 2558 
Q 3266 2144 3266 1488 
Q 3266 1056 3080 686 
Q 2894 316 2569 119 
Q 2244 -78 1831 -78 
Q 1128 -78 684 439 
Q 241 956 241 2144 
Q 241 3472 731 4075 
Q 1159 4600 1884 4600 
Q 2425 4600 2770 4297 
Q 3116 3994 3184 3459 
z
M 888 1484 
Q 888 1194 1011 928 
Q 1134 663 1356 523 
Q 1578 384 1822 384 
Q 2178 384 2434 671 
Q 2691 959 2691 1453 
Q 2691 1928 2437 2201 
Q 2184 2475 1800 2475 
Q 1419 2475 1153 2201 
Q 888 1928 888 1484 
z
" transform="scale(0.015625)"/>
       </defs>
       <use xlink:href="#ArialMT-36"/>
       <use xlink:href="#ArialMT-30" x="55.615234"/>
       <use xlink:href="#ArialMT-30" x="111.230469"/>
      </g>
     </g>
    </g>
    <g id="xtick_5">
     <g id="line2d_5">
      <path d="M 463.324675 384.48 
L 463.324675 51.84 
" clip-path="url(#p681594c1e0)" style="fill: none; stroke: #ffffff; stroke-width: 0.8; stroke-linecap: round"/>
     </g>
     <g id="text_5">
      <!-- 800 -->
      <g style="fill: #262626" transform="translate(454.983269 398.637812) scale(0.1 -0.1)">
       <defs>
        <path id="ArialMT-38" d="M 1131 2484 
Q 781 2613 612 2850 
Q 444 3088 444 3419 
Q 444 3919 803 4259 
Q 1163 4600 1759 4600 
Q 2359 4600 2725 4251 
Q 3091 3903 3091 3403 
Q 3091 3084 2923 2848 
Q 2756 2613 2416 2484 
Q 2838 2347 3058 2040 
Q 3278 1734 3278 1309 
Q 3278 722 2862 322 
Q 2447 -78 1769 -78 
Q 1091 -78 675 323 
Q 259 725 259 1325 
Q 259 1772 486 2073 
Q 713 2375 1131 2484 
z
M 1019 3438 
Q 1019 3113 1228 2906 
Q 1438 2700 1772 2700 
Q 2097 2700 2305 2904 
Q 2513 3109 2513 3406 
Q 2513 3716 2298 3927 
Q 2084 4138 1766 4138 
Q 1444 4138 1231 3931 
Q 1019 3725 1019 3438 
z
M 838 1322 
Q 838 1081 952 856 
Q 1066 631 1291 507 
Q 1516 384 1775 384 
Q 2178 384 2440 643 
Q 2703 903 2703 1303 
Q 2703 1709 2433 1975 
Q 2163 2241 1756 2241 
Q 1359 2241 1098 1978 
Q 838 1716 838 1322 
z
" transform="scale(0.015625)"/>
       </defs>
       <use xlink:href="#ArialMT-38"/>
       <use xlink:href="#ArialMT-30" x="55.615234"/>
       <use xlink:href="#ArialMT-30" x="111.230469"/>
      </g>
     </g>
    </g>
    <g id="text_6">
     <!-- Days -->
     <g style="fill: #262626" transform="translate(283.808594 411.783125) scale(0.1 -0.1)">
      <defs>
       <path id="ArialMT-44" d="M 494 0 
L 494 4581 
L 2072 4581 
Q 2606 4581 2888 4516 
Q 3281 4425 3559 4188 
Q 3922 3881 4101 3404 
Q 4281 2928 4281 2316 
Q 4281 1794 4159 1391 
Q 4038 988 3847 723 
Q 3656 459 3429 307 
Q 3203 156 2883 78 
Q 2563 0 2147 0 
L 494 0 
z
M 1100 541 
L 2078 541 
Q 2531 541 2789 625 
Q 3047 709 3200 863 
Q 3416 1078 3536 1442 
Q 3656 1806 3656 2325 
Q 3656 3044 3420 3430 
Q 3184 3816 2847 3947 
Q 2603 4041 2063 4041 
L 1100 4041 
L 1100 541 
z
" transform="scale(0.015625)"/>
       <path id="ArialMT-61" d="M 2588 409 
Q 2275 144 1986 34 
Q 1697 -75 1366 -75 
Q 819 -75 525 192 
Q 231 459 231 875 
Q 231 1119 342 1320 
Q 453 1522 633 1644 
Q 813 1766 1038 1828 
Q 1203 1872 1538 1913 
Q 2219 1994 2541 2106 
Q 2544 2222 2544 2253 
Q 2544 2597 2384 2738 
Q 2169 2928 1744 2928 
Q 1347 2928 1158 2789 
Q 969 2650 878 2297 
L 328 2372 
Q 403 2725 575 2942 
Q 747 3159 1072 3276 
Q 1397 3394 1825 3394 
Q 2250 3394 2515 3294 
Q 2781 3194 2906 3042 
Q 3031 2891 3081 2659 
Q 3109 2516 3109 2141 
L 3109 1391 
Q 3109 606 3145 398 
Q 3181 191 3288 0 
L 2700 0 
Q 2613 175 2588 409 
z
M 2541 1666 
Q 2234 1541 1622 1453 
Q 1275 1403 1131 1340 
Q 988 1278 909 1158 
Q 831 1038 831 891 
Q 831 666 1001 516 
Q 1172 366 1500 366 
Q 1825 366 2078 508 
Q 2331 650 2450 897 
Q 2541 1088 2541 1459 
L 2541 1666 
z
" transform="scale(0.015625)"/>
       <path id="ArialMT-79" d="M 397 -1278 
L 334 -750 
Q 519 -800 656 -800 
Q 844 -800 956 -737 
Q 1069 -675 1141 -563 
Q 1194 -478 1313 -144 
Q 1328 -97 1363 -6 
L 103 3319 
L 709 3319 
L 1400 1397 
Q 1534 1031 1641 628 
Q 1738 1016 1872 1384 
L 2581 3319 
L 3144 3319 
L 1881 -56 
Q 1678 -603 1566 -809 
Q 1416 -1088 1222 -1217 
Q 1028 -1347 759 -1347 
Q 597 -1347 397 -1278 
z
" transform="scale(0.015625)"/>
       <path id="ArialMT-73" d="M 197 991 
L 753 1078 
Q 800 744 1014 566 
Q 1228 388 1613 388 
Q 2000 388 2187 545 
Q 2375 703 2375 916 
Q 2375 1106 2209 1216 
Q 2094 1291 1634 1406 
Q 1016 1563 777 1677 
Q 538 1791 414 1992 
Q 291 2194 291 2438 
Q 291 2659 392 2848 
Q 494 3038 669 3163 
Q 800 3259 1026 3326 
Q 1253 3394 1513 3394 
Q 1903 3394 2198 3281 
Q 2494 3169 2634 2976 
Q 2775 2784 2828 2463 
L 2278 2388 
Q 2241 2644 2061 2787 
Q 1881 2931 1553 2931 
Q 1166 2931 1000 2803 
Q 834 2675 834 2503 
Q 834 2394 903 2306 
Q 972 2216 1119 2156 
Q 1203 2125 1616 2013 
Q 2213 1853 2448 1751 
Q 2684 1650 2818 1456 
Q 2953 1263 2953 975 
Q 2953 694 2789 445 
Q 2625 197 2315 61 
Q 2006 -75 1616 -75 
Q 969 -75 630 194 
Q 291 463 197 991 
z
" transform="scale(0.015625)"/>
      </defs>
      <use xlink:href="#ArialMT-44"/>
      <use xlink:href="#ArialMT-61" x="72.216797"/>
      <use xlink:href="#ArialMT-79" x="127.832031"/>
      <use xlink:href="#ArialMT-73" x="177.832031"/>
     </g>
    </g>
   </g>
   <g id="matplotlib.axis_2">
    <g id="ytick_1">
     <g id="line2d_6">
      <path d="M 72 351.892852 
L 518.4 351.892852 
" clip-path="url(#p681594c1e0)" style="fill: none; stroke: #ffffff; stroke-width: 0.8; stroke-linecap: round"/>
     </g>
     <g id="text_7">
      <!-- 5 -->
      <g style="fill: #262626" transform="translate(59.439062 355.471758) scale(0.1 -0.1)">
       <defs>
        <path id="ArialMT-35" d="M 266 1200 
L 856 1250 
Q 922 819 1161 601 
Q 1400 384 1738 384 
Q 2144 384 2425 690 
Q 2706 997 2706 1503 
Q 2706 1984 2436 2262 
Q 2166 2541 1728 2541 
Q 1456 2541 1237 2417 
Q 1019 2294 894 2097 
L 366 2166 
L 809 4519 
L 3088 4519 
L 3088 3981 
L 1259 3981 
L 1013 2750 
Q 1425 3038 1878 3038 
Q 2478 3038 2890 2622 
Q 3303 2206 3303 1553 
Q 3303 931 2941 478 
Q 2500 -78 1738 -78 
Q 1113 -78 717 272 
Q 322 622 266 1200 
z
" transform="scale(0.015625)"/>
       </defs>
       <use xlink:href="#ArialMT-35"/>
      </g>
     </g>
    </g>
    <g id="ytick_2">
     <g id="line2d_7">
      <path d="M 72 297.308014 
L 518.4 297.308014 
" clip-path="url(#p681594c1e0)" style="fill: none; stroke: #ffffff; stroke-width: 0.8; stroke-linecap: round"/>
     </g>
     <g id="text_8">
      <!-- 10 -->
      <g style="fill: #262626" transform="translate(53.878125 300.886921) scale(0.1 -0.1)">
       <defs>
        <path id="ArialMT-31" d="M 2384 0 
L 1822 0 
L 1822 3584 
Q 1619 3391 1289 3197 
Q 959 3003 697 2906 
L 697 3450 
Q 1169 3672 1522 3987 
Q 1875 4303 2022 4600 
L 2384 4600 
L 2384 0 
z
" transform="scale(0.015625)"/>
       </defs>
       <use xlink:href="#ArialMT-31"/>
       <use xlink:href="#ArialMT-30" x="55.615234"/>
      </g>
     </g>
    </g>
    <g id="ytick_3">
     <g id="line2d_8">
      <path d="M 72 242.723177 
L 518.4 242.723177 
" clip-path="url(#p681594c1e0)" style="fill: none; stroke: #ffffff; stroke-width: 0.8; stroke-linecap: round"/>
     </g>
     <g id="text_9">
      <!-- 15 -->
      <g style="fill: #262626" transform="translate(53.878125 246.302083) scale(0.1 -0.1)">
       <use xlink:href="#ArialMT-31"/>
       <use xlink:href="#ArialMT-35" x="55.615234"/>
      </g>
     </g>
    </g>
    <g id="ytick_4">
     <g id="line2d_9">
      <path d="M 72 188.138339 
L 518.4 188.138339 
" clip-path="url(#p681594c1e0)" style="fill: none; stroke: #ffffff; stroke-width: 0.8; stroke-linecap: round"/>
     </g>
     <g id="text_10">
      <!-- 20 -->
      <g style="fill: #262626" transform="translate(53.878125 191.717246) scale(0.1 -0.1)">
       <use xlink:href="#ArialMT-32"/>
       <use xlink:href="#ArialMT-30" x="55.615234"/>
      </g>
     </g>
    </g>
    <g id="ytick_5">
     <g id="line2d_10">
      <path d="M 72 133.553502 
L 518.4 133.553502 
" clip-path="url(#p681594c1e0)" style="fill: none; stroke: #ffffff; stroke-width: 0.8; stroke-linecap: round"/>
     </g>
     <g id="text_11">
      <!-- 25 -->
      <g style="fill: #262626" transform="translate(53.878125 137.132408) scale(0.1 -0.1)">
       <use xlink:href="#ArialMT-32"/>
       <use xlink:href="#ArialMT-35" x="55.615234"/>
      </g>
     </g>
    </g>
    <g id="ytick_6">
     <g id="line2d_11">
      <path d="M 72 78.968664 
L 518.4 78.968664 
" clip-path="url(#p681594c1e0)" style="fill: none; stroke: #ffffff; stroke-width: 0.8; stroke-linecap: round"/>
     </g>
     <g id="text_12">
      <!-- 30 -->
      <g style="fill: #262626" transform="translate(53.878125 82.547571) scale(0.1 -0.1)">
       <defs>
        <path id="ArialMT-33" d="M 269 1209 
L 831 1284 
Q 928 806 1161 595 
Q 1394 384 1728 384 
Q 2125 384 2398 659 
Q 2672 934 2672 1341 
Q 2672 1728 2419 1979 
Q 2166 2231 1775 2231 
Q 1616 2231 1378 2169 
L 1441 2663 
Q 1497 2656 1531 2656 
Q 1891 2656 2178 2843 
Q 2466 3031 2466 3422 
Q 2466 3731 2256 3934 
Q 2047 4138 1716 4138 
Q 1388 4138 1169 3931 
Q 950 3725 888 3313 
L 325 3413 
Q 428 3978 793 4289 
Q 1159 4600 1703 4600 
Q 2078 4600 2393 4439 
Q 2709 4278 2876 4000 
Q 3044 3722 3044 3409 
Q 3044 3113 2884 2869 
Q 2725 2625 2413 2481 
Q 2819 2388 3044 2092 
Q 3269 1797 3269 1353 
Q 3269 753 2831 336 
Q 2394 -81 1725 -81 
Q 1122 -81 723 278 
Q 325 638 269 1209 
z
" transform="scale(0.015625)"/>
       </defs>
       <use xlink:href="#ArialMT-33"/>
       <use xlink:href="#ArialMT-30" x="55.615234"/>
      </g>
     </g>
    </g>
    <g id="text_13">
     <!-- (°C) -->
     <g style="fill: #262626" transform="translate(47.773438 227.099844) rotate(-90) scale(0.1 -0.1)">
      <defs>
       <path id="ArialMT-28" d="M 1497 -1347 
Q 1031 -759 709 28 
Q 388 816 388 1659 
Q 388 2403 628 3084 
Q 909 3875 1497 4659 
L 1900 4659 
Q 1522 4009 1400 3731 
Q 1209 3300 1100 2831 
Q 966 2247 966 1656 
Q 966 153 1900 -1347 
L 1497 -1347 
z
" transform="scale(0.015625)"/>
       <path id="ArialMT-b0" d="M 400 3794 
Q 400 4153 654 4406 
Q 909 4659 1266 4659 
Q 1628 4659 1881 4406 
Q 2134 4153 2134 3794 
Q 2134 3434 1879 3179 
Q 1625 2925 1266 2925 
Q 909 2925 654 3178 
Q 400 3431 400 3794 
z
M 741 3794 
Q 741 3575 895 3420 
Q 1050 3266 1269 3266 
Q 1484 3266 1639 3420 
Q 1794 3575 1794 3794 
Q 1794 4013 1639 4167 
Q 1484 4322 1269 4322 
Q 1050 4322 895 4167 
Q 741 4013 741 3794 
z
" transform="scale(0.015625)"/>
       <path id="ArialMT-43" d="M 3763 1606 
L 4369 1453 
Q 4178 706 3683 314 
Q 3188 -78 2472 -78 
Q 1731 -78 1267 223 
Q 803 525 561 1097 
Q 319 1669 319 2325 
Q 319 3041 592 3573 
Q 866 4106 1370 4382 
Q 1875 4659 2481 4659 
Q 3169 4659 3637 4309 
Q 4106 3959 4291 3325 
L 3694 3184 
Q 3534 3684 3231 3912 
Q 2928 4141 2469 4141 
Q 1941 4141 1586 3887 
Q 1231 3634 1087 3207 
Q 944 2781 944 2328 
Q 944 1744 1114 1308 
Q 1284 872 1643 656 
Q 2003 441 2422 441 
Q 2931 441 3284 734 
Q 3638 1028 3763 1606 
z
" transform="scale(0.015625)"/>
       <path id="ArialMT-29" d="M 791 -1347 
L 388 -1347 
Q 1322 153 1322 1656 
Q 1322 2244 1188 2822 
Q 1081 3291 891 3722 
Q 769 4003 388 4659 
L 791 4659 
Q 1378 3875 1659 3084 
Q 1900 2403 1900 1659 
Q 1900 816 1576 28 
Q 1253 -759 791 -1347 
z
" transform="scale(0.015625)"/>
      </defs>
      <use xlink:href="#ArialMT-28"/>
      <use xlink:href="#ArialMT-b0" x="33.300781"/>
      <use xlink:href="#ArialMT-43" x="73.291016"/>
      <use xlink:href="#ArialMT-29" x="145.507812"/>
     </g>
    </g>
   </g>
   <g id="line2d_12">
    <path d="M 92.290909 157.57083 
L 92.754701 149.928953 
L 93.218494 153.204043 
L 93.682286 152.112347 
L 94.146078 166.304404 
L 94.60987 146.653863 
L 95.073662 153.204043 
L 95.537455 144.470469 
L 96.001247 157.57083 
L 96.465039 179.404765 
L 96.928831 159.754224 
L 97.392623 153.204043 
L 97.856416 180.496462 
L 98.320208 177.221372 
L 98.784 183.771552 
L 99.711584 185.954946 
L 100.175377 166.304404 
L 100.639169 160.845921 
L 101.102961 166.304404 
L 102.494338 153.204043 
L 103.421922 165.212708 
L 103.885714 163.029314 
L 104.349506 154.29574 
L 104.813299 167.396101 
L 105.277091 154.29574 
L 105.740883 146.653863 
L 106.204675 145.562166 
L 106.668468 295.124621 
L 107.13226 306.041588 
L 107.596052 294.032924 
L 108.059844 263.465415 
L 108.523636 249.273357 
L 108.987429 214.339061 
L 109.451221 247.089964 
L 109.915013 256.915235 
L 110.378805 256.915235 
L 110.842597 254.731841 
L 111.30639 224.164332 
L 111.770182 211.063971 
L 112.697766 237.264693 
L 113.161558 205.605487 
L 113.625351 203.422094 
L 114.089143 193.596823 
L 115.016727 223.072635 
L 115.480519 255.823538 
L 115.944312 218.705848 
L 116.408104 197.96361 
L 116.871896 200.147004 
L 117.799481 164.121011 
L 118.263273 291.849531 
L 118.727065 298.399711 
L 119.190857 290.757834 
L 119.654649 315.866859 
L 120.118442 351.892852 
L 120.582234 366.08491 
L 121.509818 336.609097 
L 121.97361 300.583105 
L 122.901195 268.923899 
L 123.828779 244.90657 
L 124.756364 313.683466 
L 125.220156 268.923899 
L 125.683948 249.273357 
L 126.14774 245.998267 
L 126.611532 219.797545 
L 127.075325 255.823538 
L 127.539117 230.714513 
L 128.002909 262.373718 
L 128.466701 276.565776 
L 128.930494 274.382383 
L 129.394286 252.548448 
L 129.858078 289.666137 
L 130.785662 298.399711 
L 131.249455 297.308014 
L 131.713247 283.115957 
L 132.177039 251.456751 
L 132.640831 272.198989 
L 133.104623 322.41704 
L 133.568416 327.875523 
L 134.032208 291.849531 
L 134.496 296.216318 
L 134.959792 287.482744 
L 135.423584 219.797545 
L 135.887377 300.583105 
L 136.351169 294.032924 
L 136.814961 271.107292 
L 137.278753 266.740505 
L 137.742545 258.006931 
L 138.206338 223.072635 
L 139.133922 275.474079 
L 139.597714 330.058917 
L 140.061506 345.342671 
L 140.525299 332.24231 
L 140.989091 315.866859 
L 141.452883 315.866859 
L 141.916675 352.984549 
L 142.380468 313.683466 
L 142.84426 307.133285 
L 143.308052 280.932563 
L 143.771844 244.90657 
L 144.235636 236.172996 
L 144.699429 282.02426 
L 145.163221 285.29935 
L 145.627013 264.557112 
L 146.090805 264.557112 
L 146.554597 304.949892 
L 147.01839 306.041588 
L 147.482182 309.316679 
L 147.945974 283.115957 
L 148.409766 267.832202 
L 148.873558 238.35639 
L 149.337351 266.740505 
L 149.801143 314.775162 
L 150.264935 332.24231 
L 150.728727 295.124621 
L 151.192519 297.308014 
L 151.656312 328.96722 
L 152.583896 279.840866 
L 153.047688 289.666137 
L 153.511481 303.858195 
L 153.975273 308.224982 
L 154.439065 347.526065 
L 154.902857 298.399711 
L 155.830442 243.814874 
L 156.294234 243.814874 
L 157.221818 219.797545 
L 157.68561 208.880578 
L 158.149403 208.880578 
L 158.613195 327.875523 
L 159.076987 347.526065 
L 159.540779 336.609097 
L 160.004571 285.29935 
L 160.468364 263.465415 
L 160.932156 309.316679 
L 161.395948 282.02426 
L 161.85974 226.347726 
L 162.323532 188.138339 
L 162.787325 189.230036 
L 163.251117 260.190325 
L 163.714909 265.648809 
L 164.178701 299.491408 
L 164.642494 291.849531 
L 165.570078 238.35639 
L 166.497662 274.382383 
L 166.961455 253.640144 
L 167.889039 183.771552 
L 168.352831 193.596823 
L 168.816623 196.871913 
L 169.280416 252.548448 
L 169.744208 361.718123 
L 170.208 366.08491 
L 170.671792 338.792491 
L 171.135584 343.159278 
L 171.599377 250.365054 
L 172.526961 194.68852 
L 172.990753 172.854585 
L 173.454545 191.41343 
L 173.918338 191.41343 
L 174.38213 185.954946 
L 174.845922 302.766498 
L 175.773506 294.032924 
L 176.237299 310.408375 
L 176.701091 300.583105 
L 177.164883 252.548448 
L 177.628675 247.089964 
L 178.092468 236.172996 
L 178.55626 221.980939 
L 179.483844 184.863249 
L 179.947636 203.422094 
L 180.875221 216.522455 
L 181.339013 215.430758 
L 181.802805 249.273357 
L 182.266597 308.224982 
L 182.73039 326.783827 
L 183.194182 302.766498 
L 183.657974 250.365054 
L 184.121766 228.531119 
L 184.585558 195.780217 
L 185.049351 195.780217 
L 185.513143 185.954946 
L 185.976935 193.596823 
L 186.440727 191.41343 
L 186.904519 203.422094 
L 187.368312 157.57083 
L 188.295896 196.871913 
L 188.759688 259.098628 
L 189.223481 252.548448 
L 189.687273 226.347726 
L 190.151065 190.321733 
L 190.614857 178.313069 
L 191.542442 221.980939 
L 192.006234 213.247365 
L 192.470026 207.788881 
L 192.933818 189.230036 
L 193.39761 178.313069 
L 193.861403 194.68852 
L 194.325195 173.946282 
L 194.788987 200.147004 
L 195.252779 197.96361 
L 195.716571 183.771552 
L 196.180364 163.029314 
L 196.644156 169.579495 
L 197.107948 155.387437 
L 197.57174 164.121011 
L 198.035532 169.579495 
L 198.963117 195.780217 
L 199.426909 187.046643 
L 199.890701 153.204043 
L 200.354494 132.461805 
L 200.818286 203.422094 
L 201.282078 215.430758 
L 201.74587 207.788881 
L 202.673455 172.854585 
L 203.137247 180.496462 
L 203.601039 171.762888 
L 204.992416 130.278412 
L 205.92 147.74556 
L 206.383792 140.103682 
L 206.847584 135.736895 
L 207.311377 133.553502 
L 208.238961 152.112347 
L 208.702753 149.928953 
L 209.166545 151.02065 
L 209.630338 147.74556 
L 210.09413 131.370108 
L 210.557922 143.378773 
L 211.021714 151.02065 
L 211.485506 141.195379 
L 211.949299 140.103682 
L 212.413091 146.653863 
L 212.876883 142.287076 
L 213.340675 147.74556 
L 213.804468 116.086354 
L 214.26826 111.719567 
L 214.732052 118.269747 
L 215.195844 166.304404 
L 215.659636 159.754224 
L 216.123429 165.212708 
L 216.587221 151.02065 
L 217.051013 153.204043 
L 217.514805 145.562166 
L 217.978597 142.287076 
L 218.44239 136.828592 
L 218.906182 141.195379 
L 219.369974 119.361444 
L 219.833766 104.07769 
L 220.761351 128.095018 
L 221.225143 128.095018 
L 221.688935 154.29574 
L 222.152727 172.854585 
L 222.616519 151.02065 
L 223.080312 151.02065 
L 223.544104 155.387437 
L 224.007896 156.479134 
L 224.471688 160.845921 
L 224.935481 159.754224 
L 225.399273 146.653863 
L 225.863065 136.828592 
L 226.326857 133.553502 
L 226.790649 135.736895 
L 227.254442 146.653863 
L 227.718234 135.736895 
L 228.182026 136.828592 
L 228.645818 136.828592 
L 229.10961 127.003321 
L 230.037195 166.304404 
L 230.500987 80.060361 
L 230.964779 118.269747 
L 231.428571 120.453141 
L 231.892364 130.278412 
L 232.356156 131.370108 
L 232.819948 143.378773 
L 233.28374 140.103682 
L 233.747532 141.195379 
L 234.211325 149.928953 
L 234.675117 133.553502 
L 235.138909 144.470469 
L 235.602701 168.487798 
L 236.066494 165.212708 
L 236.994078 154.29574 
L 237.45787 141.195379 
L 237.921662 151.02065 
L 238.385455 141.195379 
L 238.849247 142.287076 
L 239.776831 132.461805 
L 240.704416 123.728231 
L 241.168208 121.544838 
L 241.632 121.544838 
L 242.095792 128.095018 
L 242.559584 128.095018 
L 243.023377 129.186715 
L 243.487169 128.095018 
L 243.950961 129.186715 
L 244.414753 129.186715 
L 244.878545 124.819928 
L 245.342338 127.003321 
L 245.80613 112.811264 
L 246.269922 118.269747 
L 246.733714 121.544838 
L 247.197506 131.370108 
L 247.661299 119.361444 
L 248.125091 119.361444 
L 248.588883 154.29574 
L 249.052675 131.370108 
L 249.516468 127.003321 
L 249.98026 146.653863 
L 250.444052 144.470469 
L 250.907844 135.736895 
L 251.371636 135.736895 
L 251.835429 163.029314 
L 252.299221 145.562166 
L 252.763013 137.920289 
L 253.226805 135.736895 
L 253.690597 145.562166 
L 254.15439 144.470469 
L 254.618182 156.479134 
L 255.081974 184.863249 
L 255.545766 181.588159 
L 256.009558 122.636534 
L 256.473351 149.928953 
L 256.937143 158.662527 
L 257.400935 157.57083 
L 257.864727 165.212708 
L 258.328519 161.937617 
L 258.792312 152.112347 
L 259.256104 148.837256 
L 260.183688 130.278412 
L 260.647481 132.461805 
L 261.111273 151.02065 
L 261.575065 152.112347 
L 262.038857 145.562166 
L 262.502649 144.470469 
L 262.966442 140.103682 
L 263.430234 134.645199 
L 264.357818 151.02065 
L 264.82161 141.195379 
L 265.285403 147.74556 
L 265.749195 146.653863 
L 266.212987 157.57083 
L 266.676779 154.29574 
L 267.140571 163.029314 
L 267.604364 159.754224 
L 268.068156 154.29574 
L 268.531948 160.845921 
L 268.99574 164.121011 
L 269.459532 160.845921 
L 269.923325 156.479134 
L 270.387117 267.832202 
L 270.850909 273.290686 
L 271.778494 179.404765 
L 272.242286 158.662527 
L 272.706078 204.513791 
L 273.16987 213.247365 
L 273.633662 204.513791 
L 274.097455 184.863249 
L 274.561247 151.02065 
L 275.025039 156.479134 
L 275.488831 180.496462 
L 275.952623 195.780217 
L 276.416416 178.313069 
L 276.880208 262.373718 
L 277.344 271.107292 
L 277.807792 252.548448 
L 278.735377 180.496462 
L 279.199169 284.207653 
L 279.662961 286.391047 
L 280.126753 302.766498 
L 280.590545 266.740505 
L 281.054338 251.456751 
L 281.51813 231.806209 
L 281.981922 197.96361 
L 282.445714 176.129675 
L 283.373299 284.207653 
L 283.837091 272.198989 
L 284.300883 243.814874 
L 284.764675 285.29935 
L 285.228468 362.809819 
L 285.69226 369.36 
L 286.156052 338.792491 
L 286.619844 290.757834 
L 287.083636 300.583105 
L 288.011221 251.456751 
L 288.475013 240.539783 
L 288.938805 204.513791 
L 289.402597 191.41343 
L 289.86639 197.96361 
L 290.330182 237.264693 
L 290.793974 265.648809 
L 291.721558 229.622816 
L 292.185351 224.164332 
L 292.649143 253.640144 
L 293.112935 256.915235 
L 293.576727 217.614152 
L 294.040519 220.889242 
L 294.504312 267.832202 
L 294.968104 285.29935 
L 295.431896 254.731841 
L 295.895688 252.548448 
L 296.359481 233.989603 
L 296.823273 241.63148 
L 297.287065 251.456751 
L 297.750857 235.0813 
L 298.214649 262.373718 
L 298.678442 300.583105 
L 299.142234 315.866859 
L 299.606026 296.216318 
L 300.069818 240.539783 
L 300.53361 250.365054 
L 300.997403 219.797545 
L 301.461195 315.866859 
L 302.388779 352.984549 
L 302.852571 270.015596 
L 303.316364 289.666137 
L 303.780156 319.141949 
L 304.243948 321.325343 
L 305.171532 272.198989 
L 305.635325 236.172996 
L 306.099117 225.256029 
L 306.562909 219.797545 
L 307.026701 229.622816 
L 307.490494 275.474079 
L 307.954286 296.216318 
L 308.88187 271.107292 
L 309.345662 272.198989 
L 309.809455 308.224982 
L 310.273247 314.775162 
L 311.200831 262.373718 
L 311.664623 275.474079 
L 312.128416 259.098628 
L 312.592208 262.373718 
L 313.056 277.657473 
L 313.519792 306.041588 
L 313.983584 262.373718 
L 314.447377 260.190325 
L 315.374961 200.147004 
L 315.838753 202.330397 
L 316.302545 215.430758 
L 316.766338 266.740505 
L 317.693922 292.941227 
L 318.157714 265.648809 
L 318.621506 286.391047 
L 319.085299 273.290686 
L 320.012883 231.806209 
L 320.476675 244.90657 
L 320.940468 235.0813 
L 321.40426 270.015596 
L 321.868052 286.391047 
L 322.331844 313.683466 
L 322.795636 288.57444 
L 323.259429 297.308014 
L 323.723221 252.548448 
L 324.187013 245.998267 
L 325.114597 361.718123 
L 326.042182 285.29935 
L 326.505974 204.513791 
L 326.969766 213.247365 
L 327.433558 273.290686 
L 327.897351 287.482744 
L 328.361143 296.216318 
L 328.824935 292.941227 
L 329.752519 261.282022 
L 330.680104 203.422094 
L 331.607688 316.958556 
L 332.071481 330.058917 
L 332.535273 308.224982 
L 332.999065 278.74917 
L 333.462857 237.264693 
L 333.926649 215.430758 
L 334.390442 301.674801 
L 334.854234 336.609097 
L 335.318026 327.875523 
L 336.24561 264.557112 
L 336.709403 219.797545 
L 337.173195 194.68852 
L 337.636987 193.596823 
L 338.100779 273.290686 
L 338.564571 261.282022 
L 339.028364 262.373718 
L 339.955948 214.339061 
L 340.883532 202.330397 
L 341.347325 205.605487 
L 341.811117 199.055307 
L 342.274909 171.762888 
L 342.738701 179.404765 
L 343.202494 199.055307 
L 343.666286 195.780217 
L 344.130078 190.321733 
L 344.59387 196.871913 
L 345.057662 217.614152 
L 345.521455 245.998267 
L 345.985247 248.181661 
L 346.449039 214.339061 
L 346.912831 199.055307 
L 347.376623 169.579495 
L 347.840416 176.129675 
L 348.304208 176.129675 
L 348.768 143.378773 
L 349.231792 211.063971 
L 349.695584 227.439422 
L 350.159377 171.762888 
L 350.623169 204.513791 
L 351.086961 178.313069 
L 351.550753 158.662527 
L 352.014545 232.897906 
L 352.478338 230.714513 
L 352.94213 219.797545 
L 353.405922 185.954946 
L 353.869714 177.221372 
L 354.333506 154.29574 
L 354.797299 181.588159 
L 355.261091 187.046643 
L 355.724883 190.321733 
L 356.188675 192.505126 
L 357.11626 275.474079 
L 357.580052 253.640144 
L 358.043844 218.705848 
L 358.507636 166.304404 
L 358.971429 179.404765 
L 359.435221 171.762888 
L 359.899013 152.112347 
L 360.362805 137.920289 
L 361.29039 165.212708 
L 361.754182 151.02065 
L 362.217974 202.330397 
L 362.681766 176.129675 
L 363.609351 159.754224 
L 364.073143 176.129675 
L 364.536935 205.605487 
L 365.000727 177.221372 
L 365.464519 156.479134 
L 365.928312 153.204043 
L 366.392104 178.313069 
L 366.855896 168.487798 
L 367.319688 188.138339 
L 368.247273 199.055307 
L 368.711065 201.2387 
L 369.174857 190.321733 
L 369.638649 183.771552 
L 370.102442 165.212708 
L 370.566234 163.029314 
L 371.030026 147.74556 
L 371.493818 165.212708 
L 371.95761 188.138339 
L 372.885195 156.479134 
L 373.348987 132.461805 
L 373.812779 142.287076 
L 374.276571 167.396101 
L 374.740364 151.02065 
L 375.204156 155.387437 
L 375.667948 175.037978 
L 376.13174 178.313069 
L 376.595532 175.037978 
L 377.059325 145.562166 
L 377.523117 196.871913 
L 377.986909 165.212708 
L 378.450701 184.863249 
L 378.914494 190.321733 
L 379.842078 158.662527 
L 380.30587 149.928953 
L 380.769662 151.02065 
L 381.233455 148.837256 
L 381.697247 144.470469 
L 382.161039 143.378773 
L 382.624831 183.771552 
L 383.088623 154.29574 
L 383.552416 166.304404 
L 384.016208 182.679856 
L 384.48 176.129675 
L 384.943792 176.129675 
L 385.407584 175.037978 
L 386.335169 149.928953 
L 386.798961 155.387437 
L 387.262753 175.037978 
L 387.726545 142.287076 
L 388.190338 135.736895 
L 388.65413 134.645199 
L 389.117922 136.828592 
L 389.581714 180.496462 
L 390.045506 176.129675 
L 390.509299 157.57083 
L 390.973091 144.470469 
L 391.436883 158.662527 
L 391.900675 131.370108 
L 392.364468 140.103682 
L 392.82826 133.553502 
L 393.292052 136.828592 
L 393.755844 143.378773 
L 394.219636 136.828592 
L 394.683429 148.837256 
L 395.147221 136.828592 
L 395.611013 129.186715 
L 396.074805 125.911625 
L 396.538597 121.544838 
L 397.00239 129.186715 
L 397.466182 134.645199 
L 397.929974 137.920289 
L 398.393766 132.461805 
L 398.857558 137.920289 
L 399.321351 137.920289 
L 399.785143 130.278412 
L 400.248935 127.003321 
L 400.712727 159.754224 
L 401.176519 156.479134 
L 401.640312 142.287076 
L 402.104104 140.103682 
L 402.567896 145.562166 
L 403.495481 131.370108 
L 403.959273 140.103682 
L 404.423065 173.946282 
L 404.886857 145.562166 
L 405.350649 169.579495 
L 405.814442 176.129675 
L 406.278234 161.937617 
L 406.742026 143.378773 
L 407.205818 180.496462 
L 407.66961 161.937617 
L 408.133403 157.57083 
L 409.060987 141.195379 
L 409.524779 142.287076 
L 409.988571 141.195379 
L 410.452364 141.195379 
L 410.916156 163.029314 
L 411.379948 163.029314 
L 411.84374 159.754224 
L 412.307532 142.287076 
L 412.771325 143.378773 
L 413.235117 151.02065 
L 413.698909 149.928953 
L 414.162701 129.186715 
L 414.626494 137.920289 
L 415.090286 132.461805 
L 415.554078 135.736895 
L 416.01787 142.287076 
L 416.481662 106.261083 
L 416.945455 148.837256 
L 417.409247 142.287076 
L 417.873039 123.728231 
L 418.336831 131.370108 
L 418.800623 133.553502 
L 419.728208 127.003321 
L 420.192 119.361444 
L 420.655792 66.96 
L 421.119584 134.645199 
L 421.583377 133.553502 
L 422.047169 161.937617 
L 422.510961 152.112347 
L 422.974753 163.029314 
L 423.438545 146.653863 
L 423.902338 146.653863 
L 424.36613 66.96 
L 424.829922 120.453141 
L 425.293714 117.178051 
L 425.757506 136.828592 
L 426.221299 135.736895 
L 427.148883 135.736895 
L 427.612675 137.920289 
L 428.076468 137.920289 
L 428.54026 140.103682 
L 429.004052 134.645199 
L 429.467844 142.287076 
L 429.931636 144.470469 
L 430.395429 145.562166 
L 430.859221 141.195379 
L 431.323013 128.095018 
L 431.786805 129.186715 
L 432.250597 128.095018 
L 432.71439 141.195379 
L 433.641974 139.011986 
L 434.569558 141.195379 
L 435.033351 131.370108 
L 435.497143 149.928953 
L 435.960935 146.653863 
L 436.424727 146.653863 
L 436.888519 148.837256 
L 437.352312 131.370108 
L 437.816104 139.011986 
L 438.279896 133.553502 
L 438.743688 133.553502 
L 439.207481 137.920289 
L 440.135065 125.911625 
L 440.598857 117.178051 
L 441.062649 125.911625 
L 441.990234 151.02065 
L 442.454026 149.928953 
L 442.917818 140.103682 
L 443.38161 125.911625 
L 443.845403 154.29574 
L 444.309195 163.029314 
L 444.772987 160.845921 
L 445.236779 146.653863 
L 446.164364 171.762888 
L 446.628156 181.588159 
L 447.091948 182.679856 
L 447.55574 173.946282 
L 448.019532 175.037978 
L 448.483325 156.479134 
L 448.947117 161.937617 
L 449.410909 158.662527 
L 449.874701 163.029314 
L 450.802286 156.479134 
L 451.266078 160.845921 
L 451.72987 160.845921 
L 452.193662 167.396101 
L 452.657455 155.387437 
L 453.121247 151.02065 
L 453.585039 154.29574 
L 454.048831 154.29574 
L 454.976416 165.212708 
L 455.440208 155.387437 
L 455.904 156.479134 
L 456.367792 178.313069 
L 456.831584 192.505126 
L 457.295377 169.579495 
L 457.759169 189.230036 
L 458.222961 201.2387 
L 458.686753 202.330397 
L 459.614338 179.404765 
L 460.07813 173.946282 
L 460.541922 175.037978 
L 461.469506 221.980939 
L 461.933299 196.871913 
L 462.397091 205.605487 
L 462.860883 189.230036 
L 463.324675 196.871913 
L 463.788468 194.68852 
L 464.25226 172.854585 
L 464.716052 175.037978 
L 465.179844 163.029314 
L 465.643636 155.387437 
L 466.107429 201.2387 
L 466.571221 259.098628 
L 467.035013 243.814874 
L 467.498805 270.015596 
L 467.962597 243.814874 
L 468.42639 231.806209 
L 469.353974 187.046643 
L 469.817766 196.871913 
L 470.281558 242.723177 
L 470.745351 230.714513 
L 471.209143 199.055307 
L 471.672935 233.989603 
L 472.136727 242.723177 
L 473.064312 209.972274 
L 473.528104 208.880578 
L 473.991896 192.505126 
L 474.455688 180.496462 
L 474.919481 197.96361 
L 475.383273 239.448087 
L 475.847065 203.422094 
L 476.310857 176.129675 
L 476.774649 189.230036 
L 477.238442 182.679856 
L 477.702234 189.230036 
L 478.166026 261.282022 
L 478.629818 299.491408 
L 479.557403 273.290686 
L 480.484987 338.792491 
L 480.948779 314.775162 
L 481.412571 332.24231 
L 481.876364 340.975884 
L 482.340156 337.700794 
L 483.731532 243.814874 
L 484.195325 273.290686 
L 485.122909 299.491408 
L 485.586701 275.474079 
L 486.050494 237.264693 
L 486.978078 291.849531 
L 487.44187 267.832202 
L 487.905662 220.889242 
L 488.369455 185.954946 
L 488.833247 201.2387 
L 489.297039 212.155668 
L 489.760831 232.897906 
L 490.224623 199.055307 
L 490.688416 208.880578 
L 491.152208 213.247365 
L 491.616 238.35639 
L 492.079792 250.365054 
L 492.543584 274.382383 
L 493.007377 283.115957 
L 493.471169 288.57444 
L 493.934961 320.233646 
L 494.398753 295.124621 
L 494.862545 302.766498 
L 495.326338 298.399711 
L 495.79013 302.766498 
L 496.253922 196.871913 
L 496.717714 189.230036 
L 497.181506 171.762888 
L 497.645299 169.579495 
L 498.109091 215.430758 
L 498.109091 215.430758 
" clip-path="url(#p681594c1e0)" style="fill: none; stroke: #1f77b4; stroke-width: 1.5; stroke-linecap: round"/>
   </g>
   <g id="line2d_13">
    <path d="M 92.290909 161.184347 
L 92.754701 159.896144 
L 93.218494 158.083928 
L 93.682286 160.365574 
L 94.146078 164.524939 
L 94.60987 156.555552 
L 95.073662 162.090455 
L 95.537455 156.217126 
L 96.001247 147.63639 
L 96.465039 168.214874 
L 96.928831 172.505242 
L 97.392623 154.372159 
L 97.856416 153.4333 
L 98.320208 162.003119 
L 98.784 186.555379 
L 99.247792 177.887307 
L 99.711584 181.588159 
L 100.175377 180.092534 
L 100.639169 165.31096 
L 101.102961 160.45291 
L 101.566753 161.129762 
L 102.030545 161.402686 
L 102.494338 158.138513 
L 102.95813 158.444188 
L 103.421922 163.662498 
L 103.885714 166.195235 
L 104.349506 157.494412 
L 104.813299 157.439827 
L 105.277091 164.896116 
L 105.740883 168.378628 
L 106.204675 156.752058 
L 106.668468 156.042455 
L 107.13226 290.157401 
L 107.596052 288.694527 
L 108.059844 279.393271 
L 108.523636 230.212332 
L 108.987429 241.609646 
L 109.915013 242.111827 
L 110.378805 247.624895 
L 110.842597 236.697011 
L 111.30639 265.528722 
L 111.770182 240.845458 
L 112.233974 229.590065 
L 112.697766 233.017993 
L 113.161558 234.86296 
L 113.625351 221.063913 
L 114.089143 222.854296 
L 114.552935 226.085718 
L 115.016727 237.74504 
L 115.480519 233.127162 
L 115.944312 230.561675 
L 116.408104 222.559538 
L 116.871896 219.02244 
L 117.335688 203.160087 
L 117.799481 193.978917 
L 118.263273 211.609819 
L 118.727065 267.537444 
L 119.190857 291.194513 
L 119.654649 267.493776 
L 120.118442 282.63561 
L 120.582234 303.683523 
L 121.046026 306.751191 
L 121.509818 301.565632 
L 121.97361 284.611581 
L 122.437403 290.98709 
L 122.901195 278.476245 
L 123.364987 297.111509 
L 123.828779 298.661718 
L 124.292571 279.065762 
L 124.756364 280.255711 
L 125.220156 275.015567 
L 125.683948 285.255682 
L 126.14774 292.526383 
L 126.611532 252.635783 
L 127.075325 251.565921 
L 127.539117 260.124823 
L 128.002909 249.458946 
L 128.466701 255.88904 
L 128.930494 283.214209 
L 129.394286 254.207827 
L 129.858078 256.205632 
L 130.32187 283.345213 
L 130.785662 286.391047 
L 131.249455 284.262238 
L 131.713247 281.139986 
L 132.177039 299.469574 
L 132.640831 297.078758 
L 133.104623 270.092014 
L 133.568416 278.323408 
L 134.032208 278.956592 
L 134.496 276.827783 
L 134.959792 307.231538 
L 135.423584 309.229343 
L 135.887377 247.53756 
L 136.351169 278.356159 
L 136.814961 264.022181 
L 137.278753 253.509141 
L 137.742545 256.806065 
L 138.206338 279.786282 
L 138.67013 277.144375 
L 139.133922 281.751336 
L 139.597714 282.428188 
L 140.061506 323.825329 
L 140.525299 330.495596 
L 140.989091 318.989112 
L 141.452883 303.628939 
L 141.916675 302.711913 
L 142.380468 314.840664 
L 142.84426 286.653054 
L 143.308052 275.659668 
L 143.771844 279.229516 
L 144.235636 236.456838 
L 144.699429 236.227581 
L 145.163221 272.788505 
L 145.627013 286.336462 
L 146.554597 255.790787 
L 147.01839 291.183596 
L 147.482182 299.174816 
L 147.945974 296.838585 
L 148.409766 287.570079 
L 148.873558 257.406498 
L 149.337351 255.452361 
L 149.801143 261.838787 
L 150.264935 288.43252 
L 150.728727 303.825444 
L 151.192519 293.541661 
L 151.656312 288.388852 
L 152.120104 300.179177 
L 152.583896 295.517632 
L 153.047688 298.377877 
L 153.511481 285.965285 
L 153.975273 302.864751 
L 154.439065 306.369097 
L 154.902857 315.386513 
L 155.366649 301.489213 
L 155.830442 267.897704 
L 156.294234 243.410946 
L 156.758026 264.808202 
L 157.221818 259.109545 
L 157.68561 219.164361 
L 158.149403 228.225444 
L 158.613195 226.697069 
L 159.076987 314.469487 
L 159.540779 330.473762 
L 160.004571 306.063422 
L 160.468364 303.094007 
L 160.932156 274.03304 
L 161.395948 277.515552 
L 161.85974 295.233791 
L 162.323532 230.114079 
L 162.787325 211.653487 
L 163.714909 277.91948 
L 164.178701 278.126903 
L 164.642494 307.286123 
L 165.106286 311.445487 
L 166.03387 269.709921 
L 166.497662 253.028794 
L 166.961455 269.633502 
L 167.889039 212.243004 
L 168.352831 217.985329 
L 168.816623 207.854383 
L 169.280416 203.946108 
L 169.744208 215.900188 
L 170.208 317.056809 
L 171.135584 293.268736 
L 171.599377 293.181401 
L 172.063169 247.079047 
L 172.526961 246.893458 
L 172.990753 247.42839 
L 173.454545 219.000606 
L 174.38213 194.874108 
L 174.845922 206.369675 
L 175.309714 277.406383 
L 175.773506 275.201155 
L 176.237299 281.696751 
L 176.701091 291.532939 
L 177.164883 281.543913 
L 177.628675 250.059379 
L 178.092468 235.987408 
L 178.55626 247.723148 
L 179.020052 228.618455 
L 179.483844 214.732072 
L 179.947636 215.85652 
L 180.411429 220.092303 
L 180.875221 215.911105 
L 181.339013 213.563957 
L 182.266597 223.640318 
L 182.73039 298.465213 
L 183.194182 294.065675 
L 183.657974 287.864838 
L 184.121766 262.275466 
L 184.585558 213.989718 
L 185.049351 220.856491 
L 185.513143 196.992 
L 185.976935 194.208173 
L 186.440727 192.756217 
L 186.904519 182.821776 
L 187.368312 200.572765 
L 187.832104 184.808664 
L 188.295896 209.633848 
L 188.759688 199.775827 
L 189.223481 223.836823 
L 189.687273 202.188477 
L 190.614857 196.598989 
L 191.078649 189.470209 
L 191.542442 185.998614 
L 192.006234 209.55743 
L 192.470026 193.793329 
L 192.933818 190.147061 
L 193.39761 190.976751 
L 193.861403 191.544433 
L 194.788987 180.747552 
L 195.252779 189.655798 
L 195.716571 189.109949 
L 196.180364 192.254036 
L 196.644156 164.470354 
L 197.107948 160.889588 
L 197.57174 165.31096 
L 198.035532 173.225762 
L 198.499325 170.74761 
L 198.963117 172.43974 
L 199.426909 178.629661 
L 199.890701 175.496491 
L 200.354494 159.044621 
L 200.818286 158.335018 
L 201.282078 224.699264 
L 201.74587 216.46787 
L 202.209662 179.92878 
L 202.673455 178.542325 
L 203.601039 189.819552 
L 204.064831 181.478989 
L 204.528623 162.603552 
L 205.92 152.156014 
L 206.383792 139.677921 
L 206.847584 141.992318 
L 207.311377 150.376549 
L 207.775169 155.594859 
L 208.238961 153.062123 
L 208.702753 155.605776 
L 209.166545 152.308852 
L 209.630338 150.944231 
L 210.09413 150.736809 
L 210.557922 157.297906 
L 211.021714 154.317574 
L 211.485506 153.760809 
L 211.949299 151.38091 
L 212.413091 152.035928 
L 212.876883 149.383105 
L 213.340675 143.717199 
L 214.26826 127.603755 
L 214.732052 131.086267 
L 215.195844 132.62556 
L 215.659636 150.529386 
L 216.123429 163.869921 
L 216.587221 151.468245 
L 217.051013 147.658224 
L 217.514805 154.557747 
L 217.978597 150.736809 
L 218.44239 139.415913 
L 218.906182 139.208491 
L 219.369974 139.503249 
L 219.833766 129.677978 
L 220.297558 125.180188 
L 220.761351 139.667004 
L 221.225143 142.549083 
L 221.688935 128.957458 
L 222.152727 138.979235 
L 222.616519 167.636274 
L 223.080312 152.439856 
L 223.544104 152.265184 
L 224.007896 150.092708 
L 224.471688 147.308881 
L 224.935481 147.265213 
L 225.399273 146.140765 
L 225.863065 142.134238 
L 226.326857 142.472664 
L 226.790649 141.522888 
L 227.254442 138.45522 
L 227.718234 142.625502 
L 228.182026 139.721588 
L 228.645818 131.271856 
L 229.10961 131.970542 
L 229.573403 127.538253 
L 230.037195 149.645112 
L 230.500987 150.059957 
L 230.964779 127.527336 
L 231.428571 131.468361 
L 231.892364 128.215105 
L 232.356156 137.647365 
L 232.819948 137.090599 
L 233.28374 133.968347 
L 233.747532 137.057848 
L 234.211325 137.581863 
L 234.675117 134.284939 
L 235.138909 140.944289 
L 235.602701 151.664751 
L 236.066494 165.572968 
L 236.530286 155.092679 
L 236.994078 153.629805 
L 237.45787 152.985704 
L 237.921662 145.922426 
L 238.385455 142.352578 
L 238.849247 141.795812 
L 239.776831 135.715061 
L 240.240623 134.088433 
L 240.704416 129.02296 
L 241.168208 128.673617 
L 241.632 128.564448 
L 242.095792 128.619032 
L 242.559584 130.736924 
L 243.023377 129.710729 
L 243.487169 130.114657 
L 243.950961 132.243466 
L 244.414753 132.65831 
L 244.878545 130.387581 
L 245.342338 124.809011 
L 245.80613 132.789314 
L 246.269922 125.212939 
L 246.733714 125.966209 
L 247.197506 130.420332 
L 247.661299 132.65831 
L 248.125091 131.402859 
L 248.588883 133.804592 
L 249.052675 142.822007 
L 249.516468 135.256549 
L 249.98026 144.164794 
L 250.444052 148.345993 
L 250.907844 147.952982 
L 251.371636 131.850455 
L 252.299221 148.542498 
L 252.763013 147.625473 
L 253.226805 142.549083 
L 253.690597 145.180072 
L 254.15439 152.538108 
L 254.618182 145.83509 
L 255.081974 151.99226 
L 255.545766 175.889502 
L 256.009558 173.760693 
L 256.473351 159.044621 
L 256.937143 164.066426 
L 257.400935 165.736722 
L 257.864727 162.887394 
L 258.328519 162.352462 
L 258.792312 159.077372 
L 259.719896 146.151682 
L 260.183688 146.8067 
L 260.647481 146.784866 
L 261.575065 153.804477 
L 262.038857 152.363437 
L 262.502649 152.450773 
L 262.966442 149.273935 
L 263.430234 150.289213 
L 263.894026 147.854729 
L 264.357818 151.38091 
L 264.82161 151.52283 
L 265.285403 157.483495 
L 265.749195 157.112318 
L 266.212987 155.387437 
L 266.676779 154.459495 
L 267.140571 155.824116 
L 267.604364 158.433271 
L 268.068156 149.404939 
L 268.531948 147.265213 
L 268.99574 155.976953 
L 269.459532 158.269516 
L 269.923325 155.256433 
L 270.387117 149.656029 
L 270.850909 218.127249 
L 271.314701 265.648809 
L 271.778494 198.192866 
L 272.242286 190.714744 
L 272.706078 172.363321 
L 273.16987 229.076968 
L 273.633662 218.760433 
L 274.097455 218.432924 
L 274.561247 185.36543 
L 275.025039 174.6013 
L 275.488831 170.212679 
L 275.952623 197.133921 
L 276.880208 180.594715 
L 277.344 223.880491 
L 277.807792 227.406671 
L 278.735377 209.884939 
L 279.199169 215.38709 
L 279.662961 294.316765 
L 280.126753 288.07226 
L 280.590545 250.867235 
L 281.054338 236.151162 
L 281.51813 235.343307 
L 281.981922 223.225473 
L 282.445714 215.059581 
L 282.909506 218.443841 
L 283.373299 219.546455 
L 283.837091 273.083264 
L 284.300883 231.096606 
L 284.764675 232.373892 
L 285.228468 239.164245 
L 285.69226 335.84491 
L 286.156052 330.986859 
L 286.619844 283.694556 
L 287.083636 287.744751 
L 287.547429 282.297184 
L 288.011221 266.260159 
L 288.475013 280.33213 
L 288.938805 229.371726 
L 289.402597 234.229776 
L 289.86639 227.95252 
L 290.330182 226.729819 
L 290.793974 241.063798 
L 291.257766 245.135827 
L 291.721558 225.190527 
L 292.185351 238.410975 
L 292.649143 247.67948 
L 293.112935 241.860736 
L 293.576727 242.231913 
L 294.040519 220.594484 
L 294.504312 244.04413 
L 294.968104 244.742816 
L 295.431896 272.428245 
L 295.895688 234.568202 
L 296.359481 248.541921 
L 296.823273 232.657733 
L 297.287065 239.524505 
L 297.750857 240.889126 
L 298.214649 233.258166 
L 298.678442 258.738368 
L 299.142234 293.738166 
L 300.069818 268.257964 
L 300.53361 236.096578 
L 300.997403 250.004794 
L 301.461195 236.751596 
L 301.924987 307.580881 
L 302.388779 306.161675 
L 302.852571 303.356014 
L 303.316364 248.924014 
L 303.780156 276.161848 
L 304.243948 280.998065 
L 304.70774 278.367076 
L 305.171532 285.965285 
L 305.635325 299.393155 
L 306.099117 270.233935 
L 306.562909 257.035321 
L 307.026701 230.266917 
L 308.418078 299.163899 
L 308.88187 298.661718 
L 309.345662 306.707523 
L 309.809455 292.908477 
L 310.273247 297.133343 
L 311.200831 266.325661 
L 311.664623 261.620448 
L 312.128416 255.190354 
L 312.592208 293.268736 
L 313.056 302.853834 
L 313.519792 256.696895 
L 313.983584 282.395437 
L 314.447377 254.284245 
L 314.911169 257.886845 
L 315.374961 262.69031 
L 315.838753 243.454614 
L 316.302545 231.500534 
L 316.766338 236.293083 
L 317.23013 247.297386 
L 317.693922 283.323379 
L 318.157714 294.065675 
L 318.621506 282.13343 
L 319.085299 303.334181 
L 319.549091 261.096433 
L 320.012883 281.489329 
L 320.476675 233.105329 
L 320.940468 233.17083 
L 321.40426 237.253776 
L 322.331844 305.102729 
L 322.795636 292.42813 
L 323.259429 264.884621 
L 323.723221 272.013401 
L 324.187013 288.847365 
L 324.650805 264.709949 
L 325.114597 313.028448 
L 325.57839 310.921473 
L 326.042182 293.738166 
L 326.505974 281.838671 
L 326.969766 225.190527 
L 327.433558 217.111971 
L 327.897351 290.757834 
L 328.361143 305.015394 
L 328.824935 273.727365 
L 329.288727 295.604968 
L 329.752519 250.332303 
L 330.216312 267.51561 
L 330.680104 224.863018 
L 331.143896 225.638123 
L 331.607688 282.821199 
L 332.071481 290.146484 
L 332.535273 310.397458 
L 332.999065 286.500217 
L 333.462857 271.325632 
L 333.926649 236.41317 
L 334.390442 228.116274 
L 334.854234 292.373545 
L 335.318026 296.194484 
L 336.709403 219.797545 
L 337.173195 204.535625 
L 337.636987 252.231856 
L 338.100779 217.417646 
L 338.564571 259.109545 
L 339.028364 228.782209 
L 339.492156 241.729733 
L 339.955948 227.646845 
L 340.41974 230.430671 
L 340.883532 226.467812 
L 341.347325 206.467928 
L 341.811117 220.179639 
L 342.274909 192.406874 
L 342.738701 187.614325 
L 343.202494 201.489791 
L 343.666286 197.188505 
L 344.130078 187.603408 
L 344.59387 183.607798 
L 345.057662 176.195177 
L 345.521455 225.703625 
L 345.985247 223.509314 
L 346.449039 215.834686 
L 346.912831 199.098975 
L 347.376623 198.443957 
L 347.840416 173.214845 
L 348.304208 190.048809 
L 348.768 185.398181 
L 349.231792 183.92439 
L 349.695584 209.186253 
L 350.159377 210.812881 
L 350.623169 164.131928 
L 351.086961 196.249646 
L 351.550753 187.592491 
L 352.014545 189.153617 
L 352.478338 234.852043 
L 352.94213 233.53109 
L 353.405922 190.059726 
L 353.869714 196.828245 
L 354.333506 188.968029 
L 354.797299 164.022758 
L 355.261091 205.758325 
L 355.724883 217.133805 
L 356.188675 191.839191 
L 356.652468 187.570657 
L 357.580052 274.469718 
L 358.043844 214.470065 
L 358.507636 206.544347 
L 358.971429 179.055422 
L 359.435221 191.05317 
L 359.899013 182.963697 
L 360.362805 189.917805 
L 360.826597 158.280433 
L 361.29039 146.850368 
L 361.754182 140.496693 
L 362.217974 147.931148 
L 362.681766 175.976838 
L 363.145558 169.404823 
L 363.609351 157.942007 
L 364.073143 156.631971 
L 364.536935 183.236621 
L 365.000727 178.498657 
L 365.928312 154.29574 
L 366.392104 148.433329 
L 366.855896 182.385097 
L 367.319688 163.673415 
L 367.783481 169.273819 
L 368.247273 161.850282 
L 368.711065 181.76283 
L 369.174857 186.566296 
L 369.638649 183.651466 
L 370.102442 167.821863 
L 370.566234 160.758585 
L 371.030026 161.511856 
L 371.493818 163.848087 
L 371.95761 161.56644 
L 372.421403 174.066368 
L 372.885195 155.169097 
L 373.812779 147.920231 
L 374.276571 156.206209 
L 374.740364 152.341603 
L 375.204156 152.057762 
L 375.667948 161.511856 
L 376.13174 157.254238 
L 376.595532 172.854585 
L 377.059325 157.439827 
L 377.523117 154.011899 
L 377.986909 174.328375 
L 378.450701 174.273791 
L 378.914494 172.232318 
L 379.378286 183.738801 
L 379.842078 165.365545 
L 380.30587 156.020621 
L 380.769662 152.297935 
L 381.233455 155.583942 
L 381.697247 143.837285 
L 382.161039 138.870065 
L 382.624831 137.669199 
L 383.088623 177.003032 
L 383.552416 162.832809 
L 384.016208 175.365487 
L 384.943792 158.968202 
L 385.407584 159.601386 
L 385.871377 163.083899 
L 386.335169 157.800087 
L 386.798961 155.463856 
L 387.262753 150.955148 
L 387.726545 156.118874 
L 388.190338 148.749921 
L 388.65413 145.049069 
L 389.117922 140.343856 
L 389.581714 141.053458 
L 390.045506 159.252043 
L 390.509299 160.158152 
L 390.973091 161.708361 
L 391.436883 160.507495 
L 391.900675 166.042397 
L 392.364468 153.717141 
L 392.82826 156.23896 
L 393.292052 154.481329 
L 393.755844 149.961704 
L 394.219636 150.321964 
L 394.683429 138.280549 
L 395.147221 136.730339 
L 395.611013 134.590614 
L 396.074805 135.398469 
L 396.538597 142.461747 
L 397.00239 132.789314 
L 397.466182 132.418137 
L 397.929974 134.263105 
L 398.393766 134.339523 
L 398.857558 125.900708 
L 399.785143 142.19974 
L 400.248935 136.664838 
L 400.712727 140.060014 
L 401.176519 153.083957 
L 401.640312 161.490022 
L 402.104104 145.911509 
L 402.567896 146.610195 
L 403.031688 145.977011 
L 403.495481 142.003235 
L 403.959273 132.177964 
L 404.423065 149.001011 
L 404.886857 172.177733 
L 405.350649 165.911394 
L 405.814442 171.93756 
L 406.278234 171.096953 
L 407.205818 157.68 
L 407.66961 172.963755 
L 408.133403 157.199653 
L 408.597195 157.057733 
L 409.060987 153.607971 
L 409.524779 145.987928 
L 409.988571 156.031538 
L 410.452364 146.293603 
L 410.916156 145.867841 
L 411.379948 154.04465 
L 411.84374 155.51844 
L 412.307532 151.533747 
L 412.771325 143.400606 
L 413.235117 142.592751 
L 413.698909 142.145155 
L 414.162701 142.691004 
L 414.626494 139.863509 
L 415.090286 142.177906 
L 415.554078 141.370051 
L 416.01787 131.675783 
L 416.481662 136.315495 
L 416.945455 136.905011 
L 417.409247 144.841646 
L 417.873039 137.614614 
L 418.336831 132.439971 
L 418.800623 135.049126 
L 419.264416 135.802397 
L 419.728208 135.409386 
L 420.192 132.996736 
L 420.655792 145.627668 
L 421.119584 131.402859 
L 421.583377 147.156043 
L 422.047169 151.369993 
L 422.510961 167.887365 
L 422.974753 175.561993 
L 423.902338 156.315379 
L 424.36613 158.389603 
L 424.829922 133.629921 
L 425.293714 132.560058 
L 425.757506 138.247798 
L 426.221299 137.963957 
L 426.685091 136.053487 
L 427.148883 133.444332 
L 427.612675 139.677921 
L 428.076468 131.348274 
L 429.004052 140.453025 
L 429.467844 135.977069 
L 430.395429 143.193184 
L 430.859221 144.088375 
L 431.323013 132.003292 
L 431.786805 124.044823 
L 433.178182 139.808924 
L 433.641974 138.870065 
L 434.105766 135.944318 
L 434.569558 135.922484 
L 435.033351 132.832982 
L 435.497143 131.119018 
L 435.960935 145.005401 
L 436.424727 145.442079 
L 437.352312 154.262989 
L 437.816104 147.319798 
L 438.279896 148.487913 
L 438.743688 134.31769 
L 439.207481 136.348245 
L 439.671273 139.011986 
L 440.135065 132.920318 
L 440.598857 129.02296 
L 441.062649 131.424693 
L 441.526442 135.998903 
L 441.990234 147.603639 
L 442.454026 155.452939 
L 442.917818 148.411495 
L 443.38161 148.007567 
L 443.845403 140.14735 
L 444.309195 149.055596 
L 444.772987 162.559884 
L 445.236779 154.634166 
L 445.700571 149.208433 
L 446.628156 170.758527 
L 447.091948 176.54452 
L 447.55574 172.559827 
L 448.483325 161.238931 
L 448.947117 164.19743 
L 449.410909 160.856838 
L 449.874701 159.208375 
L 450.802286 151.369993 
L 451.266078 150.638556 
L 451.72987 164.623191 
L 452.657455 152.10143 
L 453.121247 154.601415 
L 453.585039 150.976982 
L 454.048831 151.293574 
L 454.512623 153.979148 
L 454.976416 151.904924 
L 455.440208 150.856895 
L 456.367792 152.450773 
L 456.831584 177.374209 
L 457.295377 175.332736 
L 457.759169 171.118787 
L 458.222961 179.655856 
L 458.686753 183.105617 
L 459.150545 187.625242 
L 459.614338 188.989863 
L 460.07813 186.249704 
L 461.005714 182.876361 
L 461.469506 196.009473 
L 461.933299 223.247307 
L 462.397091 207.363119 
L 462.860883 207.079278 
L 463.324675 207.963552 
L 463.788468 224.197083 
L 464.25226 193.050975 
L 464.716052 179.219177 
L 465.179844 186.762801 
L 465.643636 184.492072 
L 466.107429 185.027004 
L 466.571221 197.144838 
L 467.035013 220.452563 
L 467.498805 213.563957 
L 467.962597 227.024578 
L 468.42639 210.081444 
L 469.353974 227.941603 
L 469.817766 203.978859 
L 470.281558 224.873935 
L 470.745351 225.190527 
L 471.209143 223.771321 
L 471.672935 201.850051 
L 472.136727 235.790903 
L 472.600519 230.823682 
L 473.064312 248.618339 
L 473.528104 226.587899 
L 473.991896 223.159971 
L 474.919481 208.291061 
L 475.383273 228.149025 
L 475.847065 228.869545 
L 476.774649 193.203812 
L 477.702234 206.304173 
L 478.166026 204.895884 
L 478.629818 232.122801 
L 479.09361 279.295018 
L 479.557403 264.295105 
L 480.021195 257.930513 
L 480.484987 291.991451 
L 480.948779 298.104953 
L 481.412571 298.890975 
L 482.340156 335.451899 
L 483.26774 307.821054 
L 483.731532 280.561386 
L 484.659117 291.085343 
L 485.122909 293.607162 
L 485.586701 285.637776 
L 486.050494 291.653025 
L 486.514286 257.635755 
L 486.978078 270.299437 
L 487.44187 278.377993 
L 487.905662 248.902181 
L 488.369455 243.017935 
L 488.833247 244.742816 
L 489.297039 244.982989 
L 489.760831 241.664231 
L 490.224623 252.155437 
L 490.688416 241.88257 
L 491.152208 246.074686 
L 491.616 244.851986 
L 492.079792 252.799538 
L 492.543584 288.989285 
L 493.007377 278.115986 
L 493.471169 297.449935 
L 493.934961 288.836448 
L 494.398753 305.724996 
L 494.862545 263.432664 
L 495.326338 271.522137 
L 495.79013 297.242513 
L 496.253922 300.397516 
L 496.717714 220.135971 
L 497.181506 202.42865 
L 497.645299 199.240895 
L 498.109091 191.926527 
L 498.109091 191.926527 
" clip-path="url(#p681594c1e0)" style="fill: none; stroke: #ff7f0e; stroke-width: 1.5; stroke-linecap: round"/>
   </g>
   <g id="patch_3">
    <path d="M 72 384.48 
L 72 51.84 
" style="fill: none; stroke: #ffffff; stroke-width: 0.8; stroke-linejoin: miter; stroke-linecap: square"/>
   </g>
   <g id="patch_4">
    <path d="M 518.4 384.48 
L 518.4 51.84 
" style="fill: none; stroke: #ffffff; stroke-width: 0.8; stroke-linejoin: miter; stroke-linecap: square"/>
   </g>
   <g id="patch_5">
    <path d="M 72 384.48 
L 518.4 384.48 
" style="fill: none; stroke: #ffffff; stroke-width: 0.8; stroke-linejoin: miter; stroke-linecap: square"/>
   </g>
   <g id="patch_6">
    <path d="M 72 51.84 
L 518.4 51.84 
" style="fill: none; stroke: #ffffff; stroke-width: 0.8; stroke-linejoin: miter; stroke-linecap: square"/>
   </g>
   <g id="text_14">
    <!-- Minimum Temperature Prediction 3 Days Ahead -->
    <g style="fill: #262626" transform="translate(168.256875 45.84) scale(0.12 -0.12)">
     <defs>
      <path id="ArialMT-4d" d="M 475 0 
L 475 4581 
L 1388 4581 
L 2472 1338 
Q 2622 884 2691 659 
Q 2769 909 2934 1394 
L 4031 4581 
L 4847 4581 
L 4847 0 
L 4263 0 
L 4263 3834 
L 2931 0 
L 2384 0 
L 1059 3900 
L 1059 0 
L 475 0 
z
" transform="scale(0.015625)"/>
      <path id="ArialMT-69" d="M 425 3934 
L 425 4581 
L 988 4581 
L 988 3934 
L 425 3934 
z
M 425 0 
L 425 3319 
L 988 3319 
L 988 0 
L 425 0 
z
" transform="scale(0.015625)"/>
      <path id="ArialMT-6e" d="M 422 0 
L 422 3319 
L 928 3319 
L 928 2847 
Q 1294 3394 1984 3394 
Q 2284 3394 2536 3286 
Q 2788 3178 2913 3003 
Q 3038 2828 3088 2588 
Q 3119 2431 3119 2041 
L 3119 0 
L 2556 0 
L 2556 2019 
Q 2556 2363 2490 2533 
Q 2425 2703 2258 2804 
Q 2091 2906 1866 2906 
Q 1506 2906 1245 2678 
Q 984 2450 984 1813 
L 984 0 
L 422 0 
z
" transform="scale(0.015625)"/>
      <path id="ArialMT-6d" d="M 422 0 
L 422 3319 
L 925 3319 
L 925 2853 
Q 1081 3097 1340 3245 
Q 1600 3394 1931 3394 
Q 2300 3394 2536 3241 
Q 2772 3088 2869 2813 
Q 3263 3394 3894 3394 
Q 4388 3394 4653 3120 
Q 4919 2847 4919 2278 
L 4919 0 
L 4359 0 
L 4359 2091 
Q 4359 2428 4304 2576 
Q 4250 2725 4106 2815 
Q 3963 2906 3769 2906 
Q 3419 2906 3187 2673 
Q 2956 2441 2956 1928 
L 2956 0 
L 2394 0 
L 2394 2156 
Q 2394 2531 2256 2718 
Q 2119 2906 1806 2906 
Q 1569 2906 1367 2781 
Q 1166 2656 1075 2415 
Q 984 2175 984 1722 
L 984 0 
L 422 0 
z
" transform="scale(0.015625)"/>
      <path id="ArialMT-75" d="M 2597 0 
L 2597 488 
Q 2209 -75 1544 -75 
Q 1250 -75 995 37 
Q 741 150 617 320 
Q 494 491 444 738 
Q 409 903 409 1263 
L 409 3319 
L 972 3319 
L 972 1478 
Q 972 1038 1006 884 
Q 1059 663 1231 536 
Q 1403 409 1656 409 
Q 1909 409 2131 539 
Q 2353 669 2445 892 
Q 2538 1116 2538 1541 
L 2538 3319 
L 3100 3319 
L 3100 0 
L 2597 0 
z
" transform="scale(0.015625)"/>
      <path id="ArialMT-20" transform="scale(0.015625)"/>
      <path id="ArialMT-54" d="M 1659 0 
L 1659 4041 
L 150 4041 
L 150 4581 
L 3781 4581 
L 3781 4041 
L 2266 4041 
L 2266 0 
L 1659 0 
z
" transform="scale(0.015625)"/>
      <path id="ArialMT-65" d="M 2694 1069 
L 3275 997 
Q 3138 488 2766 206 
Q 2394 -75 1816 -75 
Q 1088 -75 661 373 
Q 234 822 234 1631 
Q 234 2469 665 2931 
Q 1097 3394 1784 3394 
Q 2450 3394 2872 2941 
Q 3294 2488 3294 1666 
Q 3294 1616 3291 1516 
L 816 1516 
Q 847 969 1125 678 
Q 1403 388 1819 388 
Q 2128 388 2347 550 
Q 2566 713 2694 1069 
z
M 847 1978 
L 2700 1978 
Q 2663 2397 2488 2606 
Q 2219 2931 1791 2931 
Q 1403 2931 1139 2672 
Q 875 2413 847 1978 
z
" transform="scale(0.015625)"/>
      <path id="ArialMT-70" d="M 422 -1272 
L 422 3319 
L 934 3319 
L 934 2888 
Q 1116 3141 1344 3267 
Q 1572 3394 1897 3394 
Q 2322 3394 2647 3175 
Q 2972 2956 3137 2557 
Q 3303 2159 3303 1684 
Q 3303 1175 3120 767 
Q 2938 359 2589 142 
Q 2241 -75 1856 -75 
Q 1575 -75 1351 44 
Q 1128 163 984 344 
L 984 -1272 
L 422 -1272 
z
M 931 1641 
Q 931 1000 1190 694 
Q 1450 388 1819 388 
Q 2194 388 2461 705 
Q 2728 1022 2728 1688 
Q 2728 2322 2467 2637 
Q 2206 2953 1844 2953 
Q 1484 2953 1207 2617 
Q 931 2281 931 1641 
z
" transform="scale(0.015625)"/>
      <path id="ArialMT-72" d="M 416 0 
L 416 3319 
L 922 3319 
L 922 2816 
Q 1116 3169 1280 3281 
Q 1444 3394 1641 3394 
Q 1925 3394 2219 3213 
L 2025 2691 
Q 1819 2813 1613 2813 
Q 1428 2813 1281 2702 
Q 1134 2591 1072 2394 
Q 978 2094 978 1738 
L 978 0 
L 416 0 
z
" transform="scale(0.015625)"/>
      <path id="ArialMT-74" d="M 1650 503 
L 1731 6 
Q 1494 -44 1306 -44 
Q 1000 -44 831 53 
Q 663 150 594 308 
Q 525 466 525 972 
L 525 2881 
L 113 2881 
L 113 3319 
L 525 3319 
L 525 4141 
L 1084 4478 
L 1084 3319 
L 1650 3319 
L 1650 2881 
L 1084 2881 
L 1084 941 
Q 1084 700 1114 631 
Q 1144 563 1211 522 
Q 1278 481 1403 481 
Q 1497 481 1650 503 
z
" transform="scale(0.015625)"/>
      <path id="ArialMT-50" d="M 494 0 
L 494 4581 
L 2222 4581 
Q 2678 4581 2919 4538 
Q 3256 4481 3484 4323 
Q 3713 4166 3852 3881 
Q 3991 3597 3991 3256 
Q 3991 2672 3619 2267 
Q 3247 1863 2275 1863 
L 1100 1863 
L 1100 0 
L 494 0 
z
M 1100 2403 
L 2284 2403 
Q 2872 2403 3119 2622 
Q 3366 2841 3366 3238 
Q 3366 3525 3220 3729 
Q 3075 3934 2838 4000 
Q 2684 4041 2272 4041 
L 1100 4041 
L 1100 2403 
z
" transform="scale(0.015625)"/>
      <path id="ArialMT-64" d="M 2575 0 
L 2575 419 
Q 2259 -75 1647 -75 
Q 1250 -75 917 144 
Q 584 363 401 755 
Q 219 1147 219 1656 
Q 219 2153 384 2558 
Q 550 2963 881 3178 
Q 1213 3394 1622 3394 
Q 1922 3394 2156 3267 
Q 2391 3141 2538 2938 
L 2538 4581 
L 3097 4581 
L 3097 0 
L 2575 0 
z
M 797 1656 
Q 797 1019 1065 703 
Q 1334 388 1700 388 
Q 2069 388 2326 689 
Q 2584 991 2584 1609 
Q 2584 2291 2321 2609 
Q 2059 2928 1675 2928 
Q 1300 2928 1048 2622 
Q 797 2316 797 1656 
z
" transform="scale(0.015625)"/>
      <path id="ArialMT-63" d="M 2588 1216 
L 3141 1144 
Q 3050 572 2676 248 
Q 2303 -75 1759 -75 
Q 1078 -75 664 370 
Q 250 816 250 1647 
Q 250 2184 428 2587 
Q 606 2991 970 3192 
Q 1334 3394 1763 3394 
Q 2303 3394 2647 3120 
Q 2991 2847 3088 2344 
L 2541 2259 
Q 2463 2594 2264 2762 
Q 2066 2931 1784 2931 
Q 1359 2931 1093 2626 
Q 828 2322 828 1663 
Q 828 994 1084 691 
Q 1341 388 1753 388 
Q 2084 388 2306 591 
Q 2528 794 2588 1216 
z
" transform="scale(0.015625)"/>
      <path id="ArialMT-6f" d="M 213 1659 
Q 213 2581 725 3025 
Q 1153 3394 1769 3394 
Q 2453 3394 2887 2945 
Q 3322 2497 3322 1706 
Q 3322 1066 3130 698 
Q 2938 331 2570 128 
Q 2203 -75 1769 -75 
Q 1072 -75 642 372 
Q 213 819 213 1659 
z
M 791 1659 
Q 791 1022 1069 705 
Q 1347 388 1769 388 
Q 2188 388 2466 706 
Q 2744 1025 2744 1678 
Q 2744 2294 2464 2611 
Q 2184 2928 1769 2928 
Q 1347 2928 1069 2612 
Q 791 2297 791 1659 
z
" transform="scale(0.015625)"/>
      <path id="ArialMT-41" d="M -9 0 
L 1750 4581 
L 2403 4581 
L 4278 0 
L 3588 0 
L 3053 1388 
L 1138 1388 
L 634 0 
L -9 0 
z
M 1313 1881 
L 2866 1881 
L 2388 3150 
Q 2169 3728 2063 4100 
Q 1975 3659 1816 3225 
L 1313 1881 
z
" transform="scale(0.015625)"/>
      <path id="ArialMT-68" d="M 422 0 
L 422 4581 
L 984 4581 
L 984 2938 
Q 1378 3394 1978 3394 
Q 2347 3394 2619 3248 
Q 2891 3103 3008 2847 
Q 3125 2591 3125 2103 
L 3125 0 
L 2563 0 
L 2563 2103 
Q 2563 2525 2380 2717 
Q 2197 2909 1863 2909 
Q 1613 2909 1392 2779 
Q 1172 2650 1078 2428 
Q 984 2206 984 1816 
L 984 0 
L 422 0 
z
" transform="scale(0.015625)"/>
     </defs>
     <use xlink:href="#ArialMT-4d"/>
     <use xlink:href="#ArialMT-69" x="83.300781"/>
     <use xlink:href="#ArialMT-6e" x="105.517578"/>
     <use xlink:href="#ArialMT-69" x="161.132812"/>
     <use xlink:href="#ArialMT-6d" x="183.349609"/>
     <use xlink:href="#ArialMT-75" x="266.650391"/>
     <use xlink:href="#ArialMT-6d" x="322.265625"/>
     <use xlink:href="#ArialMT-20" x="405.566406"/>
     <use xlink:href="#ArialMT-54" x="431.599609"/>
     <use xlink:href="#ArialMT-65" x="481.558594"/>
     <use xlink:href="#ArialMT-6d" x="537.173828"/>
     <use xlink:href="#ArialMT-70" x="620.474609"/>
     <use xlink:href="#ArialMT-65" x="676.089844"/>
     <use xlink:href="#ArialMT-72" x="731.705078"/>
     <use xlink:href="#ArialMT-61" x="765.005859"/>
     <use xlink:href="#ArialMT-74" x="820.621094"/>
     <use xlink:href="#ArialMT-75" x="848.404297"/>
     <use xlink:href="#ArialMT-72" x="904.019531"/>
     <use xlink:href="#ArialMT-65" x="937.320312"/>
     <use xlink:href="#ArialMT-20" x="992.935547"/>
     <use xlink:href="#ArialMT-50" x="1020.71875"/>
     <use xlink:href="#ArialMT-72" x="1087.417969"/>
     <use xlink:href="#ArialMT-65" x="1120.71875"/>
     <use xlink:href="#ArialMT-64" x="1176.333984"/>
     <use xlink:href="#ArialMT-69" x="1231.949219"/>
     <use xlink:href="#ArialMT-63" x="1254.166016"/>
     <use xlink:href="#ArialMT-74" x="1304.166016"/>
     <use xlink:href="#ArialMT-69" x="1331.949219"/>
     <use xlink:href="#ArialMT-6f" x="1354.166016"/>
     <use xlink:href="#ArialMT-6e" x="1409.78125"/>
     <use xlink:href="#ArialMT-20" x="1465.396484"/>
     <use xlink:href="#ArialMT-33" x="1493.179688"/>
     <use xlink:href="#ArialMT-20" x="1548.794922"/>
     <use xlink:href="#ArialMT-44" x="1576.578125"/>
     <use xlink:href="#ArialMT-61" x="1648.794922"/>
     <use xlink:href="#ArialMT-79" x="1704.410156"/>
     <use xlink:href="#ArialMT-73" x="1754.410156"/>
     <use xlink:href="#ArialMT-20" x="1804.410156"/>
     <use xlink:href="#ArialMT-41" x="1826.693359"/>
     <use xlink:href="#ArialMT-68" x="1893.392578"/>
     <use xlink:href="#ArialMT-65" x="1949.007812"/>
     <use xlink:href="#ArialMT-61" x="2004.623047"/>
     <use xlink:href="#ArialMT-64" x="2060.238281"/>
    </g>
   </g>
   <g id="legend_1">
    <g id="patch_7">
     <path d="M 437.15625 88.130625 
L 511.4 88.130625 
Q 513.4 88.130625 513.4 86.130625 
L 513.4 58.84 
Q 513.4 56.84 511.4 56.84 
L 437.15625 56.84 
Q 435.15625 56.84 435.15625 58.84 
L 435.15625 86.130625 
Q 435.15625 88.130625 437.15625 88.130625 
z
" style="fill: #eaeaf2; opacity: 0.8; stroke: #cccccc; stroke-linejoin: miter"/>
    </g>
    <g id="line2d_14">
     <path d="M 439.15625 64.497812 
L 449.15625 64.497812 
L 459.15625 64.497812 
" style="fill: none; stroke: #1f77b4; stroke-width: 1.5; stroke-linecap: round"/>
    </g>
    <g id="text_15">
     <!-- Real -->
     <g style="fill: #262626" transform="translate(467.15625 67.997812) scale(0.1 -0.1)">
      <defs>
       <path id="ArialMT-52" d="M 503 0 
L 503 4581 
L 2534 4581 
Q 3147 4581 3465 4457 
Q 3784 4334 3975 4021 
Q 4166 3709 4166 3331 
Q 4166 2844 3850 2509 
Q 3534 2175 2875 2084 
Q 3116 1969 3241 1856 
Q 3506 1613 3744 1247 
L 4541 0 
L 3778 0 
L 3172 953 
Q 2906 1366 2734 1584 
Q 2563 1803 2427 1890 
Q 2291 1978 2150 2013 
Q 2047 2034 1813 2034 
L 1109 2034 
L 1109 0 
L 503 0 
z
M 1109 2559 
L 2413 2559 
Q 2828 2559 3062 2645 
Q 3297 2731 3419 2920 
Q 3541 3109 3541 3331 
Q 3541 3656 3305 3865 
Q 3069 4075 2559 4075 
L 1109 4075 
L 1109 2559 
z
" transform="scale(0.015625)"/>
       <path id="ArialMT-6c" d="M 409 0 
L 409 4581 
L 972 4581 
L 972 0 
L 409 0 
z
" transform="scale(0.015625)"/>
      </defs>
      <use xlink:href="#ArialMT-52"/>
      <use xlink:href="#ArialMT-65" x="72.216797"/>
      <use xlink:href="#ArialMT-61" x="127.832031"/>
      <use xlink:href="#ArialMT-6c" x="183.447266"/>
     </g>
    </g>
    <g id="line2d_15">
     <path d="M 439.15625 78.643125 
L 449.15625 78.643125 
L 459.15625 78.643125 
" style="fill: none; stroke: #ff7f0e; stroke-width: 1.5; stroke-linecap: round"/>
    </g>
    <g id="text_16">
     <!-- Predicted -->
     <g style="fill: #262626" transform="translate(467.15625 82.143125) scale(0.1 -0.1)">
      <use xlink:href="#ArialMT-50"/>
      <use xlink:href="#ArialMT-72" x="66.699219"/>
      <use xlink:href="#ArialMT-65" x="100"/>
      <use xlink:href="#ArialMT-64" x="155.615234"/>
      <use xlink:href="#ArialMT-69" x="211.230469"/>
      <use xlink:href="#ArialMT-63" x="233.447266"/>
      <use xlink:href="#ArialMT-74" x="283.447266"/>
      <use xlink:href="#ArialMT-65" x="311.230469"/>
      <use xlink:href="#ArialMT-64" x="366.845703"/>
     </g>
    </g>
   </g>
  </g>
 </g>
 <defs>
  <clipPath id="p681594c1e0">
   <rect x="72" y="51.84" width="446.4" height="332.64"/>
  </clipPath>
 </defs>
</svg>
