<?xml version="1.0" encoding="utf-8" standalone="no"?>
<!DOCTYPE svg PUBLIC "-//W3C//DTD SVG 1.1//EN"
  "http://www.w3.org/Graphics/SVG/1.1/DTD/svg11.dtd">
<svg xmlns:xlink="http://www.w3.org/1999/xlink" width="576pt" height="432pt" viewBox="0 0 576 432" xmlns="http://www.w3.org/2000/svg" version="1.1">
 <metadata>
  <rdf:RDF xmlns:dc="http://purl.org/dc/elements/1.1/" xmlns:cc="http://creativecommons.org/ns#" xmlns:rdf="http://www.w3.org/1999/02/22-rdf-syntax-ns#">
   <cc:Work>
    <dc:type rdf:resource="http://purl.org/dc/dcmitype/StillImage"/>
    <dc:date>2023-11-17T05:04:44.288244</dc:date>
    <dc:format>image/svg+xml</dc:format>
    <dc:creator>
     <cc:Agent>
      <dc:title>Matplotlib v3.8.0, https://matplotlib.org/</dc:title>
     </cc:Agent>
    </dc:creator>
   </cc:Work>
  </rdf:RDF>
 </metadata>
 <defs>
  <style type="text/css">*{stroke-linejoin: round; stroke-linecap: butt}</style>
 </defs>
 <g id="figure_1">
  <g id="patch_1">
   <path d="M 0 432 
L 576 432 
L 576 0 
L 0 0 
z
" style="fill: #ffffff"/>
  </g>
  <g id="axes_1">
   <g id="patch_2">
    <path d="M 72 384.48 
L 518.4 384.48 
L 518.4 51.84 
L 72 51.84 
z
" style="fill: #eaeaf2"/>
   </g>
   <g id="matplotlib.axis_1">
    <g id="xtick_1">
     <g id="line2d_1">
      <path d="M 92.290909 384.48 
L 92.290909 51.84 
" clip-path="url(#pccd7abe642)" style="fill: none; stroke: #ffffff; stroke-width: 0.8; stroke-linecap: round"/>
     </g>
     <g id="text_1">
      <!-- 0 -->
      <g style="fill: #262626" transform="translate(89.51044 398.637812) scale(0.1 -0.1)">
       <defs>
        <path id="ArialMT-30" d="M 266 2259 
Q 266 3072 433 3567 
Q 600 4063 929 4331 
Q 1259 4600 1759 4600 
Q 2128 4600 2406 4451 
Q 2684 4303 2865 4023 
Q 3047 3744 3150 3342 
Q 3253 2941 3253 2259 
Q 3253 1453 3087 958 
Q 2922 463 2592 192 
Q 2263 -78 1759 -78 
Q 1097 -78 719 397 
Q 266 969 266 2259 
z
M 844 2259 
Q 844 1131 1108 757 
Q 1372 384 1759 384 
Q 2147 384 2411 759 
Q 2675 1134 2675 2259 
Q 2675 3391 2411 3762 
Q 2147 4134 1753 4134 
Q 1366 4134 1134 3806 
Q 844 3388 844 2259 
z
" transform="scale(0.015625)"/>
       </defs>
       <use xlink:href="#ArialMT-30"/>
      </g>
     </g>
    </g>
    <g id="xtick_2">
     <g id="line2d_2">
      <path d="M 185.049351 384.48 
L 185.049351 51.84 
" clip-path="url(#pccd7abe642)" style="fill: none; stroke: #ffffff; stroke-width: 0.8; stroke-linecap: round"/>
     </g>
     <g id="text_2">
      <!-- 200 -->
      <g style="fill: #262626" transform="translate(176.707944 398.637812) scale(0.1 -0.1)">
       <defs>
        <path id="ArialMT-32" d="M 3222 541 
L 3222 0 
L 194 0 
Q 188 203 259 391 
Q 375 700 629 1000 
Q 884 1300 1366 1694 
Q 2113 2306 2375 2664 
Q 2638 3022 2638 3341 
Q 2638 3675 2398 3904 
Q 2159 4134 1775 4134 
Q 1369 4134 1125 3890 
Q 881 3647 878 3216 
L 300 3275 
Q 359 3922 746 4261 
Q 1134 4600 1788 4600 
Q 2447 4600 2831 4234 
Q 3216 3869 3216 3328 
Q 3216 3053 3103 2787 
Q 2991 2522 2730 2228 
Q 2469 1934 1863 1422 
Q 1356 997 1212 845 
Q 1069 694 975 541 
L 3222 541 
z
" transform="scale(0.015625)"/>
       </defs>
       <use xlink:href="#ArialMT-32"/>
       <use xlink:href="#ArialMT-30" x="55.615234"/>
       <use xlink:href="#ArialMT-30" x="111.230469"/>
      </g>
     </g>
    </g>
    <g id="xtick_3">
     <g id="line2d_3">
      <path d="M 277.807792 384.48 
L 277.807792 51.84 
" clip-path="url(#pccd7abe642)" style="fill: none; stroke: #ffffff; stroke-width: 0.8; stroke-linecap: round"/>
     </g>
     <g id="text_3">
      <!-- 400 -->
      <g style="fill: #262626" transform="translate(269.466386 398.637812) scale(0.1 -0.1)">
       <defs>
        <path id="ArialMT-34" d="M 2069 0 
L 2069 1097 
L 81 1097 
L 81 1613 
L 2172 4581 
L 2631 4581 
L 2631 1613 
L 3250 1613 
L 3250 1097 
L 2631 1097 
L 2631 0 
L 2069 0 
z
M 2069 1613 
L 2069 3678 
L 634 1613 
L 2069 1613 
z
" transform="scale(0.015625)"/>
       </defs>
       <use xlink:href="#ArialMT-34"/>
       <use xlink:href="#ArialMT-30" x="55.615234"/>
       <use xlink:href="#ArialMT-30" x="111.230469"/>
      </g>
     </g>
    </g>
    <g id="xtick_4">
     <g id="line2d_4">
      <path d="M 370.566234 384.48 
L 370.566234 51.84 
" clip-path="url(#pccd7abe642)" style="fill: none; stroke: #ffffff; stroke-width: 0.8; stroke-linecap: round"/>
     </g>
     <g id="text_4">
      <!-- 600 -->
      <g style="fill: #262626" transform="translate(362.224828 398.637812) scale(0.1 -0.1)">
       <defs>
        <path id="ArialMT-36" d="M 3184 3459 
L 2625 3416 
Q 2550 3747 2413 3897 
Q 2184 4138 1850 4138 
Q 1581 4138 1378 3988 
Q 1113 3794 959 3422 
Q 806 3050 800 2363 
Q 1003 2672 1297 2822 
Q 1591 2972 1913 2972 
Q 2475 2972 2870 2558 
Q 3266 2144 3266 1488 
Q 3266 1056 3080 686 
Q 2894 316 2569 119 
Q 2244 -78 1831 -78 
Q 1128 -78 684 439 
Q 241 956 241 2144 
Q 241 3472 731 4075 
Q 1159 4600 1884 4600 
Q 2425 4600 2770 4297 
Q 3116 3994 3184 3459 
z
M 888 1484 
Q 888 1194 1011 928 
Q 1134 663 1356 523 
Q 1578 384 1822 384 
Q 2178 384 2434 671 
Q 2691 959 2691 1453 
Q 2691 1928 2437 2201 
Q 2184 2475 1800 2475 
Q 1419 2475 1153 2201 
Q 888 1928 888 1484 
z
" transform="scale(0.015625)"/>
       </defs>
       <use xlink:href="#ArialMT-36"/>
       <use xlink:href="#ArialMT-30" x="55.615234"/>
       <use xlink:href="#ArialMT-30" x="111.230469"/>
      </g>
     </g>
    </g>
    <g id="xtick_5">
     <g id="line2d_5">
      <path d="M 463.324675 384.48 
L 463.324675 51.84 
" clip-path="url(#pccd7abe642)" style="fill: none; stroke: #ffffff; stroke-width: 0.8; stroke-linecap: round"/>
     </g>
     <g id="text_5">
      <!-- 800 -->
      <g style="fill: #262626" transform="translate(454.983269 398.637812) scale(0.1 -0.1)">
       <defs>
        <path id="ArialMT-38" d="M 1131 2484 
Q 781 2613 612 2850 
Q 444 3088 444 3419 
Q 444 3919 803 4259 
Q 1163 4600 1759 4600 
Q 2359 4600 2725 4251 
Q 3091 3903 3091 3403 
Q 3091 3084 2923 2848 
Q 2756 2613 2416 2484 
Q 2838 2347 3058 2040 
Q 3278 1734 3278 1309 
Q 3278 722 2862 322 
Q 2447 -78 1769 -78 
Q 1091 -78 675 323 
Q 259 725 259 1325 
Q 259 1772 486 2073 
Q 713 2375 1131 2484 
z
M 1019 3438 
Q 1019 3113 1228 2906 
Q 1438 2700 1772 2700 
Q 2097 2700 2305 2904 
Q 2513 3109 2513 3406 
Q 2513 3716 2298 3927 
Q 2084 4138 1766 4138 
Q 1444 4138 1231 3931 
Q 1019 3725 1019 3438 
z
M 838 1322 
Q 838 1081 952 856 
Q 1066 631 1291 507 
Q 1516 384 1775 384 
Q 2178 384 2440 643 
Q 2703 903 2703 1303 
Q 2703 1709 2433 1975 
Q 2163 2241 1756 2241 
Q 1359 2241 1098 1978 
Q 838 1716 838 1322 
z
" transform="scale(0.015625)"/>
       </defs>
       <use xlink:href="#ArialMT-38"/>
       <use xlink:href="#ArialMT-30" x="55.615234"/>
       <use xlink:href="#ArialMT-30" x="111.230469"/>
      </g>
     </g>
    </g>
    <g id="text_6">
     <!-- Days -->
     <g style="fill: #262626" transform="translate(283.808594 411.783125) scale(0.1 -0.1)">
      <defs>
       <path id="ArialMT-44" d="M 494 0 
L 494 4581 
L 2072 4581 
Q 2606 4581 2888 4516 
Q 3281 4425 3559 4188 
Q 3922 3881 4101 3404 
Q 4281 2928 4281 2316 
Q 4281 1794 4159 1391 
Q 4038 988 3847 723 
Q 3656 459 3429 307 
Q 3203 156 2883 78 
Q 2563 0 2147 0 
L 494 0 
z
M 1100 541 
L 2078 541 
Q 2531 541 2789 625 
Q 3047 709 3200 863 
Q 3416 1078 3536 1442 
Q 3656 1806 3656 2325 
Q 3656 3044 3420 3430 
Q 3184 3816 2847 3947 
Q 2603 4041 2063 4041 
L 1100 4041 
L 1100 541 
z
" transform="scale(0.015625)"/>
       <path id="ArialMT-61" d="M 2588 409 
Q 2275 144 1986 34 
Q 1697 -75 1366 -75 
Q 819 -75 525 192 
Q 231 459 231 875 
Q 231 1119 342 1320 
Q 453 1522 633 1644 
Q 813 1766 1038 1828 
Q 1203 1872 1538 1913 
Q 2219 1994 2541 2106 
Q 2544 2222 2544 2253 
Q 2544 2597 2384 2738 
Q 2169 2928 1744 2928 
Q 1347 2928 1158 2789 
Q 969 2650 878 2297 
L 328 2372 
Q 403 2725 575 2942 
Q 747 3159 1072 3276 
Q 1397 3394 1825 3394 
Q 2250 3394 2515 3294 
Q 2781 3194 2906 3042 
Q 3031 2891 3081 2659 
Q 3109 2516 3109 2141 
L 3109 1391 
Q 3109 606 3145 398 
Q 3181 191 3288 0 
L 2700 0 
Q 2613 175 2588 409 
z
M 2541 1666 
Q 2234 1541 1622 1453 
Q 1275 1403 1131 1340 
Q 988 1278 909 1158 
Q 831 1038 831 891 
Q 831 666 1001 516 
Q 1172 366 1500 366 
Q 1825 366 2078 508 
Q 2331 650 2450 897 
Q 2541 1088 2541 1459 
L 2541 1666 
z
" transform="scale(0.015625)"/>
       <path id="ArialMT-79" d="M 397 -1278 
L 334 -750 
Q 519 -800 656 -800 
Q 844 -800 956 -737 
Q 1069 -675 1141 -563 
Q 1194 -478 1313 -144 
Q 1328 -97 1363 -6 
L 103 3319 
L 709 3319 
L 1400 1397 
Q 1534 1031 1641 628 
Q 1738 1016 1872 1384 
L 2581 3319 
L 3144 3319 
L 1881 -56 
Q 1678 -603 1566 -809 
Q 1416 -1088 1222 -1217 
Q 1028 -1347 759 -1347 
Q 597 -1347 397 -1278 
z
" transform="scale(0.015625)"/>
       <path id="ArialMT-73" d="M 197 991 
L 753 1078 
Q 800 744 1014 566 
Q 1228 388 1613 388 
Q 2000 388 2187 545 
Q 2375 703 2375 916 
Q 2375 1106 2209 1216 
Q 2094 1291 1634 1406 
Q 1016 1563 777 1677 
Q 538 1791 414 1992 
Q 291 2194 291 2438 
Q 291 2659 392 2848 
Q 494 3038 669 3163 
Q 800 3259 1026 3326 
Q 1253 3394 1513 3394 
Q 1903 3394 2198 3281 
Q 2494 3169 2634 2976 
Q 2775 2784 2828 2463 
L 2278 2388 
Q 2241 2644 2061 2787 
Q 1881 2931 1553 2931 
Q 1166 2931 1000 2803 
Q 834 2675 834 2503 
Q 834 2394 903 2306 
Q 972 2216 1119 2156 
Q 1203 2125 1616 2013 
Q 2213 1853 2448 1751 
Q 2684 1650 2818 1456 
Q 2953 1263 2953 975 
Q 2953 694 2789 445 
Q 2625 197 2315 61 
Q 2006 -75 1616 -75 
Q 969 -75 630 194 
Q 291 463 197 991 
z
" transform="scale(0.015625)"/>
      </defs>
      <use xlink:href="#ArialMT-44"/>
      <use xlink:href="#ArialMT-61" x="72.216797"/>
      <use xlink:href="#ArialMT-79" x="127.832031"/>
      <use xlink:href="#ArialMT-73" x="177.832031"/>
     </g>
    </g>
   </g>
   <g id="matplotlib.axis_2">
    <g id="ytick_1">
     <g id="line2d_6">
      <path d="M 72 347.878033 
L 518.4 347.878033 
" clip-path="url(#pccd7abe642)" style="fill: none; stroke: #ffffff; stroke-width: 0.8; stroke-linecap: round"/>
     </g>
     <g id="text_7">
      <!-- 10 -->
      <g style="fill: #262626" transform="translate(53.878125 351.456939) scale(0.1 -0.1)">
       <defs>
        <path id="ArialMT-31" d="M 2384 0 
L 1822 0 
L 1822 3584 
Q 1619 3391 1289 3197 
Q 959 3003 697 2906 
L 697 3450 
Q 1169 3672 1522 3987 
Q 1875 4303 2022 4600 
L 2384 4600 
L 2384 0 
z
" transform="scale(0.015625)"/>
       </defs>
       <use xlink:href="#ArialMT-31"/>
       <use xlink:href="#ArialMT-30" x="55.615234"/>
      </g>
     </g>
    </g>
    <g id="ytick_2">
     <g id="line2d_7">
      <path d="M 72 306.566557 
L 518.4 306.566557 
" clip-path="url(#pccd7abe642)" style="fill: none; stroke: #ffffff; stroke-width: 0.8; stroke-linecap: round"/>
     </g>
     <g id="text_8">
      <!-- 15 -->
      <g style="fill: #262626" transform="translate(53.878125 310.145464) scale(0.1 -0.1)">
       <defs>
        <path id="ArialMT-35" d="M 266 1200 
L 856 1250 
Q 922 819 1161 601 
Q 1400 384 1738 384 
Q 2144 384 2425 690 
Q 2706 997 2706 1503 
Q 2706 1984 2436 2262 
Q 2166 2541 1728 2541 
Q 1456 2541 1237 2417 
Q 1019 2294 894 2097 
L 366 2166 
L 809 4519 
L 3088 4519 
L 3088 3981 
L 1259 3981 
L 1013 2750 
Q 1425 3038 1878 3038 
Q 2478 3038 2890 2622 
Q 3303 2206 3303 1553 
Q 3303 931 2941 478 
Q 2500 -78 1738 -78 
Q 1113 -78 717 272 
Q 322 622 266 1200 
z
" transform="scale(0.015625)"/>
       </defs>
       <use xlink:href="#ArialMT-31"/>
       <use xlink:href="#ArialMT-35" x="55.615234"/>
      </g>
     </g>
    </g>
    <g id="ytick_3">
     <g id="line2d_8">
      <path d="M 72 265.255082 
L 518.4 265.255082 
" clip-path="url(#pccd7abe642)" style="fill: none; stroke: #ffffff; stroke-width: 0.8; stroke-linecap: round"/>
     </g>
     <g id="text_9">
      <!-- 20 -->
      <g style="fill: #262626" transform="translate(53.878125 268.833988) scale(0.1 -0.1)">
       <use xlink:href="#ArialMT-32"/>
       <use xlink:href="#ArialMT-30" x="55.615234"/>
      </g>
     </g>
    </g>
    <g id="ytick_4">
     <g id="line2d_9">
      <path d="M 72 223.943607 
L 518.4 223.943607 
" clip-path="url(#pccd7abe642)" style="fill: none; stroke: #ffffff; stroke-width: 0.8; stroke-linecap: round"/>
     </g>
     <g id="text_10">
      <!-- 25 -->
      <g style="fill: #262626" transform="translate(53.878125 227.522513) scale(0.1 -0.1)">
       <use xlink:href="#ArialMT-32"/>
       <use xlink:href="#ArialMT-35" x="55.615234"/>
      </g>
     </g>
    </g>
    <g id="ytick_5">
     <g id="line2d_10">
      <path d="M 72 182.632131 
L 518.4 182.632131 
" clip-path="url(#pccd7abe642)" style="fill: none; stroke: #ffffff; stroke-width: 0.8; stroke-linecap: round"/>
     </g>
     <g id="text_11">
      <!-- 30 -->
      <g style="fill: #262626" transform="translate(53.878125 186.211037) scale(0.1 -0.1)">
       <defs>
        <path id="ArialMT-33" d="M 269 1209 
L 831 1284 
Q 928 806 1161 595 
Q 1394 384 1728 384 
Q 2125 384 2398 659 
Q 2672 934 2672 1341 
Q 2672 1728 2419 1979 
Q 2166 2231 1775 2231 
Q 1616 2231 1378 2169 
L 1441 2663 
Q 1497 2656 1531 2656 
Q 1891 2656 2178 2843 
Q 2466 3031 2466 3422 
Q 2466 3731 2256 3934 
Q 2047 4138 1716 4138 
Q 1388 4138 1169 3931 
Q 950 3725 888 3313 
L 325 3413 
Q 428 3978 793 4289 
Q 1159 4600 1703 4600 
Q 2078 4600 2393 4439 
Q 2709 4278 2876 4000 
Q 3044 3722 3044 3409 
Q 3044 3113 2884 2869 
Q 2725 2625 2413 2481 
Q 2819 2388 3044 2092 
Q 3269 1797 3269 1353 
Q 3269 753 2831 336 
Q 2394 -81 1725 -81 
Q 1122 -81 723 278 
Q 325 638 269 1209 
z
" transform="scale(0.015625)"/>
       </defs>
       <use xlink:href="#ArialMT-33"/>
       <use xlink:href="#ArialMT-30" x="55.615234"/>
      </g>
     </g>
    </g>
    <g id="ytick_6">
     <g id="line2d_11">
      <path d="M 72 141.320656 
L 518.4 141.320656 
" clip-path="url(#pccd7abe642)" style="fill: none; stroke: #ffffff; stroke-width: 0.8; stroke-linecap: round"/>
     </g>
     <g id="text_12">
      <!-- 35 -->
      <g style="fill: #262626" transform="translate(53.878125 144.899562) scale(0.1 -0.1)">
       <use xlink:href="#ArialMT-33"/>
       <use xlink:href="#ArialMT-35" x="55.615234"/>
      </g>
     </g>
    </g>
    <g id="ytick_7">
     <g id="line2d_12">
      <path d="M 72 100.00918 
L 518.4 100.00918 
" clip-path="url(#pccd7abe642)" style="fill: none; stroke: #ffffff; stroke-width: 0.8; stroke-linecap: round"/>
     </g>
     <g id="text_13">
      <!-- 40 -->
      <g style="fill: #262626" transform="translate(53.878125 103.588087) scale(0.1 -0.1)">
       <use xlink:href="#ArialMT-34"/>
       <use xlink:href="#ArialMT-30" x="55.615234"/>
      </g>
     </g>
    </g>
    <g id="ytick_8">
     <g id="line2d_13">
      <path d="M 72 58.697705 
L 518.4 58.697705 
" clip-path="url(#pccd7abe642)" style="fill: none; stroke: #ffffff; stroke-width: 0.8; stroke-linecap: round"/>
     </g>
     <g id="text_14">
      <!-- 45 -->
      <g style="fill: #262626" transform="translate(53.878125 62.276611) scale(0.1 -0.1)">
       <use xlink:href="#ArialMT-34"/>
       <use xlink:href="#ArialMT-35" x="55.615234"/>
      </g>
     </g>
    </g>
    <g id="text_15">
     <!-- (°C) -->
     <g style="fill: #262626" transform="translate(47.773438 227.099844) rotate(-90) scale(0.1 -0.1)">
      <defs>
       <path id="ArialMT-28" d="M 1497 -1347 
Q 1031 -759 709 28 
Q 388 816 388 1659 
Q 388 2403 628 3084 
Q 909 3875 1497 4659 
L 1900 4659 
Q 1522 4009 1400 3731 
Q 1209 3300 1100 2831 
Q 966 2247 966 1656 
Q 966 153 1900 -1347 
L 1497 -1347 
z
" transform="scale(0.015625)"/>
       <path id="ArialMT-b0" d="M 400 3794 
Q 400 4153 654 4406 
Q 909 4659 1266 4659 
Q 1628 4659 1881 4406 
Q 2134 4153 2134 3794 
Q 2134 3434 1879 3179 
Q 1625 2925 1266 2925 
Q 909 2925 654 3178 
Q 400 3431 400 3794 
z
M 741 3794 
Q 741 3575 895 3420 
Q 1050 3266 1269 3266 
Q 1484 3266 1639 3420 
Q 1794 3575 1794 3794 
Q 1794 4013 1639 4167 
Q 1484 4322 1269 4322 
Q 1050 4322 895 4167 
Q 741 4013 741 3794 
z
" transform="scale(0.015625)"/>
       <path id="ArialMT-43" d="M 3763 1606 
L 4369 1453 
Q 4178 706 3683 314 
Q 3188 -78 2472 -78 
Q 1731 -78 1267 223 
Q 803 525 561 1097 
Q 319 1669 319 2325 
Q 319 3041 592 3573 
Q 866 4106 1370 4382 
Q 1875 4659 2481 4659 
Q 3169 4659 3637 4309 
Q 4106 3959 4291 3325 
L 3694 3184 
Q 3534 3684 3231 3912 
Q 2928 4141 2469 4141 
Q 1941 4141 1586 3887 
Q 1231 3634 1087 3207 
Q 944 2781 944 2328 
Q 944 1744 1114 1308 
Q 1284 872 1643 656 
Q 2003 441 2422 441 
Q 2931 441 3284 734 
Q 3638 1028 3763 1606 
z
" transform="scale(0.015625)"/>
       <path id="ArialMT-29" d="M 791 -1347 
L 388 -1347 
Q 1322 153 1322 1656 
Q 1322 2244 1188 2822 
Q 1081 3291 891 3722 
Q 769 4003 388 4659 
L 791 4659 
Q 1378 3875 1659 3084 
Q 1900 2403 1900 1659 
Q 1900 816 1576 28 
Q 1253 -759 791 -1347 
z
" transform="scale(0.015625)"/>
      </defs>
      <use xlink:href="#ArialMT-28"/>
      <use xlink:href="#ArialMT-b0" x="33.300781"/>
      <use xlink:href="#ArialMT-43" x="73.291016"/>
      <use xlink:href="#ArialMT-29" x="145.507812"/>
     </g>
    </g>
   </g>
   <g id="line2d_14">
    <path d="M 92.290909 145.451803 
L 92.754701 157.019016 
L 93.218494 174.369836 
L 93.682286 176.022295 
L 94.146078 156.192787 
L 94.60987 193.373115 
L 95.073662 155.366557 
L 95.537455 137.189508 
L 96.001247 191.720656 
L 96.465039 180.979672 
L 96.928831 149.582951 
L 97.392623 140.494426 
L 97.856416 149.582951 
L 98.320208 190.068197 
L 98.784 201.63541 
L 99.247792 190.894426 
L 99.711584 185.11082 
L 100.639169 166.93377 
L 101.102961 167.76 
L 101.566753 159.497705 
L 102.030545 161.976393 
L 102.494338 161.976393 
L 102.95813 165.281311 
L 103.421922 176.848525 
L 103.885714 133.88459 
L 104.349506 163.628852 
L 104.813299 183.458361 
L 105.277091 178.500984 
L 105.740883 154.540328 
L 106.204675 170.238689 
L 106.668468 209.897705 
L 107.13226 320.612459 
L 107.596052 280.953443 
L 108.059844 275.996066 
L 108.523636 237.163279 
L 108.987429 249.556721 
L 109.451221 271.864918 
L 109.915013 276.822295 
L 110.378805 289.215738 
L 110.842597 240.468197 
L 111.30639 211.550164 
L 111.770182 218.98623 
L 112.233974 195.851803 
L 112.697766 192.546885 
L 113.161558 185.937049 
L 113.625351 160.323934 
L 114.089143 152.887869 
L 114.552935 223.117377 
L 115.016727 243.773115 
L 115.480519 199.982951 
L 115.944312 193.373115 
L 116.408104 179.327213 
L 116.871896 141.320656 
L 117.335688 146.278033 
L 117.799481 195.025574 
L 118.263273 223.117377 
L 118.727065 337.137049 
L 119.190857 229.727213 
L 119.654649 268.56 
L 120.118442 296.651803 
L 120.582234 271.038689 
L 121.046026 266.081311 
L 121.509818 242.946885 
L 121.97361 317.307541 
L 122.437403 286.737049 
L 122.901195 201.63541 
L 123.364987 208.245246 
L 123.828779 171.891148 
L 124.292571 263.602623 
L 124.756364 261.950164 
L 125.220156 275.169836 
L 125.683948 190.894426 
L 126.14774 174.369836 
L 126.611532 185.937049 
L 127.075325 171.064918 
L 127.539117 208.245246 
L 128.002909 285.08459 
L 128.466701 320.612459 
L 128.930494 250.382951 
L 129.858078 299.130492 
L 130.32187 290.041967 
L 130.785662 273.517377 
L 131.249455 281.779672 
L 131.713247 230.553443 
L 132.177039 192.546885 
L 132.640831 260.297705 
L 133.104623 239.641967 
L 133.568416 253.687869 
L 134.032208 240.468197 
L 134.496 261.950164 
L 134.959792 198.330492 
L 135.423584 220.638689 
L 135.887377 231.379672 
L 136.351169 169.412459 
L 136.814961 186.763279 
L 137.278753 238.815738 
L 137.742545 237.163279 
L 138.206338 210.723934 
L 138.67013 211.550164 
L 139.133922 233.032131 
L 139.597714 305.740328 
L 140.061506 358.619016 
L 140.525299 275.996066 
L 140.989091 280.953443 
L 141.452883 334.658361 
L 141.916675 236.337049 
L 142.380468 225.596066 
L 142.84426 218.98623 
L 143.308052 227.248525 
L 143.771844 182.632131 
L 144.235636 195.025574 
L 144.699429 263.602623 
L 145.163221 309.045246 
L 146.090805 204.114098 
L 146.554597 281.779672 
L 147.01839 335.48459 
L 147.482182 326.396066 
L 147.945974 276.822295 
L 148.409766 246.251803 
L 148.873558 200.80918 
L 149.801143 259.471475 
L 150.264935 236.337049 
L 150.728727 188.415738 
L 151.192519 267.73377 
L 151.656312 249.556721 
L 152.120104 305.740328 
L 152.583896 308.219016 
L 153.047688 230.553443 
L 153.511481 194.199344 
L 153.975273 282.605902 
L 154.439065 294.999344 
L 154.902857 237.163279 
L 155.366649 241.294426 
L 155.830442 227.248525 
L 156.294234 204.940328 
L 156.758026 200.80918 
L 157.221818 192.546885 
L 157.68561 168.58623 
L 158.149403 157.845246 
L 158.613195 282.605902 
L 159.076987 369.36 
L 159.540779 322.264918 
L 160.004571 228.900984 
L 160.468364 266.907541 
L 160.932156 234.68459 
L 161.85974 115.707541 
L 162.323532 114.055082 
L 163.251117 257.819016 
L 163.714909 276.822295 
L 165.570078 191.720656 
L 166.03387 233.032131 
L 166.497662 239.641967 
L 166.961455 193.373115 
L 167.425247 176.848525 
L 167.889039 198.330492 
L 168.352831 181.805902 
L 168.816623 177.674754 
L 169.280416 157.845246 
L 169.744208 315.655082 
L 170.208 363.576393 
L 170.671792 344.573115 
L 171.135584 204.940328 
L 171.599377 176.022295 
L 172.063169 123.143607 
L 172.526961 167.76 
L 172.990753 199.156721 
L 173.454545 185.11082 
L 173.918338 142.146885 
L 174.38213 172.717377 
L 174.845922 262.776393 
L 175.309714 285.08459 
L 175.773506 266.907541 
L 176.237299 330.527213 
L 176.701091 287.563279 
L 177.164883 261.950164 
L 177.628675 285.08459 
L 178.092468 248.730492 
L 178.55626 195.851803 
L 179.020052 183.458361 
L 179.483844 181.805902 
L 179.947636 239.641967 
L 180.411429 199.982951 
L 180.875221 208.245246 
L 181.339013 204.940328 
L 181.802805 171.891148 
L 182.266597 301.60918 
L 182.73039 275.169836 
L 183.194182 278.474754 
L 183.657974 226.422295 
L 184.121766 141.320656 
L 184.585558 177.674754 
L 185.049351 136.363279 
L 185.513143 157.845246 
L 186.440727 130.579672 
L 186.904519 107.445246 
L 187.832104 170.238689 
L 188.295896 128.100984 
L 188.759688 209.897705 
L 189.223481 181.805902 
L 189.687273 180.153443 
L 190.151065 143.799344 
L 190.614857 144.625574 
L 191.078649 148.756721 
L 191.542442 157.845246 
L 192.006234 151.23541 
L 192.470026 188.415738 
L 192.933818 210.723934 
L 193.39761 147.930492 
L 193.861403 119.012459 
L 194.325195 140.494426 
L 194.788987 147.930492 
L 195.252779 157.845246 
L 195.716571 185.937049 
L 196.180364 156.192787 
L 196.644156 112.402623 
L 197.107948 149.582951 
L 197.57174 200.80918 
L 198.035532 175.196066 
L 198.499325 185.937049 
L 198.963117 185.11082 
L 199.426909 164.455082 
L 199.890701 89.268197 
L 200.354494 130.579672 
L 200.818286 218.98623 
L 201.282078 204.114098 
L 201.74587 195.851803 
L 202.209662 190.068197 
L 202.673455 199.982951 
L 203.137247 189.241967 
L 203.601039 187.589508 
L 204.064831 162.802623 
L 204.528623 109.097705 
L 204.992416 152.061639 
L 205.456208 131.405902 
L 205.92 119.838689 
L 206.383792 129.753443 
L 206.847584 132.232131 
L 207.311377 146.278033 
L 207.775169 140.494426 
L 208.238961 143.799344 
L 208.702753 138.841967 
L 209.166545 127.274754 
L 209.630338 125.622295 
L 210.09413 177.674754 
L 210.557922 142.146885 
L 211.021714 149.582951 
L 211.485506 137.189508 
L 211.949299 133.88459 
L 212.413091 140.494426 
L 212.876883 110.750164 
L 213.340675 108.271475 
L 213.804468 83.48459 
L 214.26826 66.96 
L 214.732052 76.874754 
L 215.195844 129.753443 
L 215.659636 162.802623 
L 216.123429 150.40918 
L 217.051013 133.058361 
L 217.514805 130.579672 
L 217.978597 120.664918 
L 218.44239 131.405902 
L 218.906182 120.664918 
L 219.369974 115.707541 
L 219.833766 97.530492 
L 220.297558 136.363279 
L 221.225143 102.487869 
L 221.688935 123.969836 
L 222.152727 171.064918 
L 222.616519 147.930492 
L 223.080312 142.973115 
L 223.544104 139.668197 
L 224.007896 138.015738 
L 224.471688 128.100984 
L 224.935481 132.232131 
L 225.399273 148.756721 
L 225.863065 135.537049 
L 226.326857 127.274754 
L 226.790649 115.707541 
L 227.254442 126.448525 
L 227.718234 128.100984 
L 228.182026 94.225574 
L 228.645818 91.746885 
L 229.10961 88.441967 
L 229.573403 97.530492 
L 230.037195 117.36 
L 230.500987 113.228852 
L 230.964779 102.487869 
L 231.892364 117.36 
L 232.356156 113.228852 
L 232.819948 117.36 
L 233.28374 112.402623 
L 233.747532 114.055082 
L 234.211325 104.140328 
L 234.675117 117.36 
L 235.138909 127.274754 
L 235.602701 171.064918 
L 236.066494 136.363279 
L 236.530286 140.494426 
L 236.994078 138.015738 
L 237.45787 115.707541 
L 237.921662 121.491148 
L 238.385455 113.228852 
L 238.849247 114.055082 
L 239.313039 109.923934 
L 240.240623 104.966557 
L 240.704416 99.182951 
L 241.168208 97.530492 
L 241.632 98.356721 
L 242.095792 109.097705 
L 242.559584 87.615738 
L 243.487169 98.356721 
L 243.950961 100.00918 
L 244.414753 84.31082 
L 244.878545 89.268197 
L 245.342338 99.182951 
L 245.80613 90.094426 
L 246.269922 90.094426 
L 246.733714 100.83541 
L 247.197506 97.530492 
L 247.661299 108.271475 
L 248.125091 109.097705 
L 248.588883 119.012459 
L 249.052675 110.750164 
L 249.516468 95.051803 
L 249.98026 103.314098 
L 250.444052 106.619016 
L 250.907844 100.83541 
L 251.371636 109.097705 
L 251.835429 140.494426 
L 252.299221 127.274754 
L 252.763013 129.753443 
L 253.226805 140.494426 
L 253.690597 133.88459 
L 254.15439 124.796066 
L 254.618182 146.278033 
L 255.081974 223.943607 
L 255.545766 260.297705 
L 256.009558 157.019016 
L 256.473351 154.540328 
L 256.937143 150.40918 
L 257.400935 161.976393 
L 257.864727 152.061639 
L 258.328519 151.23541 
L 259.256104 138.015738 
L 259.719896 133.88459 
L 260.183688 145.451803 
L 260.647481 152.887869 
L 261.111273 152.887869 
L 261.575065 154.540328 
L 262.038857 148.756721 
L 262.502649 150.40918 
L 262.966442 142.146885 
L 263.430234 142.973115 
L 263.894026 146.278033 
L 264.357818 146.278033 
L 264.82161 154.540328 
L 265.285403 166.93377 
L 265.749195 149.582951 
L 266.212987 161.976393 
L 266.676779 157.019016 
L 267.140571 153.714098 
L 267.604364 135.537049 
L 268.068156 128.927213 
L 268.531948 133.058361 
L 268.99574 166.93377 
L 269.459532 148.756721 
L 269.923325 140.494426 
L 270.387117 175.196066 
L 270.850909 236.337049 
L 271.314701 180.153443 
L 272.242286 145.451803 
L 272.706078 195.851803 
L 273.633662 167.76 
L 274.097455 119.012459 
L 274.561247 167.76 
L 275.025039 143.799344 
L 275.488831 182.632131 
L 275.952623 172.717377 
L 276.416416 176.848525 
L 276.880208 222.291148 
L 277.344 221.464918 
L 277.807792 176.848525 
L 278.271584 190.068197 
L 278.735377 186.763279 
L 279.199169 202.461639 
L 279.662961 273.517377 
L 280.590545 226.422295 
L 281.054338 245.425574 
L 281.51813 176.848525 
L 281.981922 172.717377 
L 282.445714 199.982951 
L 282.909506 156.192787 
L 283.373299 283.432131 
L 283.837091 280.953443 
L 284.300883 266.907541 
L 284.764675 185.11082 
L 285.228468 342.094426 
L 285.69226 348.704262 
L 286.156052 239.641967 
L 286.619844 254.514098 
L 287.083636 249.556721 
L 287.547429 186.763279 
L 288.011221 202.461639 
L 288.475013 187.589508 
L 288.938805 209.071475 
L 289.402597 179.327213 
L 289.86639 187.589508 
L 290.330182 262.776393 
L 291.257766 152.887869 
L 291.721558 145.451803 
L 292.185351 218.16 
L 292.649143 228.900984 
L 293.112935 192.546885 
L 293.576727 128.927213 
L 294.040519 220.638689 
L 294.504312 239.641967 
L 295.431896 182.632131 
L 295.895688 185.11082 
L 296.359481 181.805902 
L 296.823273 218.98623 
L 297.287065 194.199344 
L 297.750857 149.582951 
L 298.214649 251.20918 
L 298.678442 283.432131 
L 299.142234 262.776393 
L 299.606026 161.150164 
L 300.069818 157.845246 
L 300.53361 127.274754 
L 300.997403 139.668197 
L 301.461195 285.08459 
L 301.924987 299.130492 
L 302.388779 285.91082 
L 302.852571 282.605902 
L 303.316364 283.432131 
L 303.780156 218.98623 
L 304.243948 214.028852 
L 304.70774 214.028852 
L 305.171532 186.763279 
L 306.099117 253.687869 
L 306.562909 157.845246 
L 307.026701 225.596066 
L 307.954286 313.176393 
L 308.418078 294.999344 
L 308.88187 218.98623 
L 309.345662 251.20918 
L 309.809455 237.163279 
L 310.273247 214.855082 
L 310.737039 186.763279 
L 311.200831 246.251803 
L 311.664623 256.166557 
L 312.128416 217.33377 
L 312.592208 206.592787 
L 313.056 215.681311 
L 313.519792 242.120656 
L 314.447377 196.678033 
L 314.911169 218.16 
L 315.374961 231.379672 
L 315.838753 254.514098 
L 316.302545 212.376393 
L 316.766338 276.822295 
L 317.693922 317.307541 
L 318.157714 275.996066 
L 318.621506 204.114098 
L 319.085299 246.251803 
L 319.549091 269.38623 
L 320.012883 175.196066 
L 320.476675 185.11082 
L 320.940468 172.717377 
L 321.868052 290.041967 
L 323.259429 233.032131 
L 323.723221 202.461639 
L 324.187013 162.802623 
L 324.650805 265.255082 
L 325.114597 224.769836 
L 325.57839 196.678033 
L 326.042182 192.546885 
L 326.505974 174.369836 
L 326.969766 148.756721 
L 327.433558 230.553443 
L 327.897351 289.215738 
L 328.361143 261.123934 
L 328.824935 316.481311 
L 329.752519 190.068197 
L 330.216312 164.455082 
L 330.680104 159.497705 
L 331.143896 256.992787 
L 331.607688 304.087869 
L 332.071481 325.569836 
L 332.999065 208.245246 
L 333.462857 171.891148 
L 333.926649 161.976393 
L 334.390442 270.212459 
L 334.854234 264.428852 
L 335.318026 220.638689 
L 335.781818 214.855082 
L 336.24561 152.061639 
L 336.709403 110.750164 
L 337.173195 223.117377 
L 337.636987 161.976393 
L 338.100779 214.028852 
L 338.564571 219.812459 
L 339.028364 237.989508 
L 339.492156 239.641967 
L 339.955948 219.812459 
L 340.41974 222.291148 
L 340.883532 179.327213 
L 341.347325 164.455082 
L 341.811117 138.015738 
L 342.274909 143.799344 
L 342.738701 209.071475 
L 343.202494 217.33377 
L 343.666286 166.93377 
L 344.130078 164.455082 
L 344.59387 125.622295 
L 345.057662 213.202623 
L 345.521455 277.648525 
L 346.449039 186.763279 
L 346.912831 110.750164 
L 347.376623 114.055082 
L 347.840416 114.881311 
L 348.304208 96.704262 
L 348.768 130.579672 
L 349.231792 226.422295 
L 350.159377 151.23541 
L 350.623169 197.504262 
L 351.086961 157.019016 
L 351.550753 185.937049 
L 352.478338 264.428852 
L 353.405922 180.153443 
L 353.869714 123.143607 
L 354.333506 119.012459 
L 354.797299 176.022295 
L 355.261091 169.412459 
L 355.724883 114.881311 
L 356.188675 161.976393 
L 356.652468 242.120656 
L 357.11626 286.737049 
L 357.580052 261.950164 
L 358.043844 162.802623 
L 358.507636 177.674754 
L 358.971429 105.792787 
L 359.435221 121.491148 
L 359.899013 142.973115 
L 360.362805 122.317377 
L 360.826597 115.707541 
L 361.29039 100.00918 
L 361.754182 139.668197 
L 362.217974 222.291148 
L 362.681766 161.976393 
L 363.609351 101.661639 
L 364.073143 180.979672 
L 364.536935 143.799344 
L 365.000727 134.71082 
L 365.464519 129.753443 
L 366.392104 106.619016 
L 366.855896 141.320656 
L 367.319688 147.930492 
L 367.783481 126.448525 
L 368.247273 218.16 
L 368.711065 223.943607 
L 369.174857 186.763279 
L 369.638649 160.323934 
L 370.102442 151.23541 
L 370.566234 152.887869 
L 371.493818 141.320656 
L 371.95761 142.973115 
L 372.885195 114.881311 
L 373.348987 137.189508 
L 373.812779 153.714098 
L 374.276571 136.363279 
L 374.740364 144.625574 
L 375.204156 142.973115 
L 375.667948 156.192787 
L 376.13174 186.763279 
L 377.059325 125.622295 
L 377.523117 171.891148 
L 377.986909 173.543607 
L 378.450701 172.717377 
L 378.914494 174.369836 
L 379.378286 174.369836 
L 379.842078 154.540328 
L 380.30587 147.104262 
L 380.769662 148.756721 
L 381.697247 124.796066 
L 382.161039 109.097705 
L 382.624831 109.923934 
L 383.088623 135.537049 
L 383.552416 221.464918 
L 384.016208 164.455082 
L 384.943792 156.192787 
L 385.407584 161.150164 
L 385.871377 157.845246 
L 386.335169 148.756721 
L 386.798961 145.451803 
L 387.262753 149.582951 
L 387.726545 147.930492 
L 388.190338 135.537049 
L 388.65413 126.448525 
L 389.117922 131.405902 
L 389.581714 128.100984 
L 390.045506 154.540328 
L 390.509299 168.58623 
L 390.973091 167.76 
L 391.436883 165.281311 
L 391.900675 135.537049 
L 392.364468 167.76 
L 392.82826 133.058361 
L 393.292052 135.537049 
L 393.755844 127.274754 
L 394.219636 115.707541 
L 394.683429 112.402623 
L 395.147221 115.707541 
L 395.611013 123.969836 
L 396.074805 151.23541 
L 396.538597 109.097705 
L 397.00239 107.445246 
L 397.466182 104.140328 
L 398.393766 90.920656 
L 398.857558 101.661639 
L 399.321351 120.664918 
L 399.785143 107.445246 
L 400.248935 115.707541 
L 401.176519 163.628852 
L 401.640312 137.189508 
L 402.104104 139.668197 
L 402.567896 136.363279 
L 403.495481 105.792787 
L 403.959273 138.841967 
L 404.423065 193.373115 
L 404.886857 215.681311 
L 405.350649 218.98623 
L 405.814442 169.412459 
L 406.278234 160.323934 
L 406.742026 142.973115 
L 407.205818 156.192787 
L 407.66961 130.579672 
L 408.133403 132.232131 
L 408.597195 138.841967 
L 409.060987 139.668197 
L 409.524779 152.061639 
L 409.988571 148.756721 
L 410.916156 138.841967 
L 411.379948 136.363279 
L 411.84374 131.405902 
L 412.307532 132.232131 
L 412.771325 138.015738 
L 413.235117 138.841967 
L 413.698909 128.100984 
L 414.162701 143.799344 
L 415.090286 133.058361 
L 415.554078 110.750164 
L 416.01787 114.055082 
L 416.481662 136.363279 
L 416.945455 131.405902 
L 417.409247 117.36 
L 417.873039 114.055082 
L 418.800623 128.927213 
L 419.264416 119.012459 
L 419.728208 116.53377 
L 420.192 158.671475 
L 420.655792 157.845246 
L 421.119584 128.927213 
L 421.583377 129.753443 
L 422.047169 210.723934 
L 422.510961 223.117377 
L 422.974753 160.323934 
L 423.438545 171.064918 
L 423.902338 178.500984 
L 424.829922 86.789508 
L 425.293714 105.792787 
L 425.757506 104.966557 
L 426.685091 104.966557 
L 427.148883 115.707541 
L 427.612675 106.619016 
L 428.076468 114.055082 
L 428.54026 114.055082 
L 429.004052 111.576393 
L 429.467844 112.402623 
L 429.931636 112.402623 
L 430.395429 119.838689 
L 431.323013 90.094426 
L 432.71439 114.881311 
L 433.178182 119.012459 
L 433.641974 115.707541 
L 434.105766 117.36 
L 434.569558 104.966557 
L 435.033351 97.530492 
L 435.497143 109.097705 
L 435.960935 124.796066 
L 436.424727 119.838689 
L 436.888519 144.625574 
L 437.352312 140.494426 
L 437.816104 129.753443 
L 438.279896 115.707541 
L 438.743688 114.055082 
L 439.207481 120.664918 
L 440.135065 105.792787 
L 440.598857 129.753443 
L 441.062649 113.228852 
L 441.990234 144.625574 
L 442.454026 130.579672 
L 442.917818 126.448525 
L 443.38161 120.664918 
L 443.845403 137.189508 
L 444.309195 160.323934 
L 444.772987 152.887869 
L 445.236779 137.189508 
L 445.700571 145.451803 
L 446.164364 181.805902 
L 446.628156 205.766557 
L 447.091948 191.720656 
L 447.55574 149.582951 
L 448.019532 136.363279 
L 448.483325 135.537049 
L 448.947117 143.799344 
L 449.410909 139.668197 
L 449.874701 145.451803 
L 450.802286 152.887869 
L 451.266078 156.192787 
L 451.72987 162.802623 
L 452.193662 148.756721 
L 452.657455 150.40918 
L 453.121247 150.40918 
L 453.585039 149.582951 
L 454.048831 153.714098 
L 454.512623 142.973115 
L 454.976416 149.582951 
L 455.440208 148.756721 
L 455.904 140.494426 
L 456.367792 161.150164 
L 456.831584 161.976393 
L 457.295377 171.064918 
L 457.759169 173.543607 
L 458.222961 158.671475 
L 458.686753 161.976393 
L 459.150545 177.674754 
L 459.614338 204.114098 
L 460.07813 218.98623 
L 460.541922 184.28459 
L 461.005714 220.638689 
L 461.469506 211.550164 
L 461.933299 228.074754 
L 462.397091 185.937049 
L 462.860883 219.812459 
L 463.324675 210.723934 
L 463.788468 142.146885 
L 464.25226 125.622295 
L 464.716052 158.671475 
L 465.179844 163.628852 
L 465.643636 156.192787 
L 466.107429 158.671475 
L 466.571221 275.996066 
L 467.498805 196.678033 
L 467.962597 176.022295 
L 468.42639 162.802623 
L 468.890182 190.068197 
L 469.353974 135.537049 
L 469.817766 190.068197 
L 470.281558 200.80918 
L 470.745351 188.415738 
L 471.209143 170.238689 
L 471.672935 200.80918 
L 472.136727 203.287869 
L 472.600519 239.641967 
L 473.064312 219.812459 
L 473.528104 242.946885 
L 473.991896 186.763279 
L 474.455688 152.061639 
L 474.919481 184.28459 
L 475.383273 161.150164 
L 475.847065 176.848525 
L 476.774649 196.678033 
L 477.238442 181.805902 
L 477.702234 148.756721 
L 478.166026 256.166557 
L 478.629818 270.212459 
L 479.09361 184.28459 
L 480.021195 314.002623 
L 480.484987 337.137049 
L 480.948779 329.700984 
L 481.412571 345.399344 
L 481.876364 366.881311 
L 482.340156 338.789508 
L 482.803948 295.825574 
L 483.26774 290.041967 
L 483.731532 199.156721 
L 484.195325 271.864918 
L 484.659117 242.946885 
L 485.122909 162.802623 
L 485.586701 202.461639 
L 486.050494 153.714098 
L 486.514286 208.245246 
L 486.978078 311.523934 
L 487.44187 237.989508 
L 487.905662 255.340328 
L 488.369455 226.422295 
L 488.833247 224.769836 
L 489.297039 202.461639 
L 489.760831 215.681311 
L 490.224623 210.723934 
L 490.688416 209.897705 
L 491.152208 223.117377 
L 491.616 159.497705 
L 492.079792 223.117377 
L 492.543584 231.379672 
L 493.007377 214.028852 
L 493.471169 295.825574 
L 493.934961 337.963279 
L 494.398753 247.078033 
L 494.862545 210.723934 
L 495.326338 322.264918 
L 495.79013 193.373115 
L 496.253922 133.058361 
L 496.717714 129.753443 
L 497.181506 98.356721 
L 497.645299 110.750164 
L 498.109091 175.196066 
L 498.109091 175.196066 
" clip-path="url(#pccd7abe642)" style="fill: none; stroke: #1f77b4; stroke-width: 1.5; stroke-linecap: round"/>
   </g>
   <g id="line2d_15">
    <path d="M 92.290909 165.85141 
L 92.754701 165.157377 
L 93.218494 164.01718 
L 93.682286 165.628328 
L 94.146078 164.289836 
L 94.60987 162.513443 
L 95.073662 169.718164 
L 96.001247 144.220721 
L 96.465039 173.12223 
L 96.928831 170.089967 
L 97.392623 161.612852 
L 97.856416 164.198951 
L 98.320208 168.602754 
L 98.784 183.375738 
L 99.247792 179.128918 
L 99.711584 180.797902 
L 100.175377 181.781115 
L 100.639169 178.963672 
L 101.102961 162.447344 
L 101.566753 167.256 
L 102.030545 164.256787 
L 102.494338 166.669377 
L 102.95813 164.52118 
L 103.885714 167.586492 
L 104.349506 155.366557 
L 104.813299 168.718426 
L 105.277091 175.452197 
L 105.740883 168.330098 
L 106.204675 167.355148 
L 106.668468 167.999607 
L 107.13226 233.147803 
L 107.596052 245.566033 
L 108.059844 234.643279 
L 108.987429 220.762623 
L 109.451221 222.258098 
L 109.915013 242.500721 
L 110.378805 228.42177 
L 110.842597 255.513836 
L 111.30639 255.902164 
L 111.770182 227.859934 
L 112.233974 220.845246 
L 112.697766 216.499279 
L 113.161558 209.897705 
L 113.625351 196.859803 
L 114.089143 200.867016 
L 114.552935 194.785967 
L 115.016727 226.802361 
L 115.480519 221.663213 
L 115.944312 218.217836 
L 116.408104 216.482754 
L 116.871896 197.256393 
L 117.335688 186.374951 
L 117.799481 197.033311 
L 118.263273 202.874754 
L 118.727065 228.289574 
L 119.190857 262.495475 
L 119.654649 241.096131 
L 120.118442 274.343607 
L 120.582234 280.532066 
L 121.046026 259.521049 
L 121.509818 247.152393 
L 121.97361 260.09941 
L 122.437403 262.131934 
L 122.901195 260.801705 
L 123.364987 247.639869 
L 123.828779 255.621246 
L 124.292571 255.869115 
L 125.220156 235.18859 
L 125.683948 267.494164 
L 126.14774 235.452984 
L 126.611532 236.147016 
L 127.075325 238.055607 
L 127.539117 233.362623 
L 128.002909 212.012852 
L 128.466701 215.185574 
L 128.930494 268.080787 
L 129.394286 229.776787 
L 129.858078 230.132066 
L 130.32187 274.335344 
L 130.785662 266.907541 
L 131.249455 253.745705 
L 131.713247 251.729705 
L 132.177039 253.415213 
L 132.640831 243.14518 
L 133.104623 220.531279 
L 133.568416 239.815475 
L 134.032208 247.656393 
L 134.496 228.744 
L 134.959792 263.255607 
L 135.423584 234.164066 
L 135.887377 212.624262 
L 136.351169 239.964197 
L 136.814961 235.337311 
L 137.278753 223.043016 
L 137.742545 229.322361 
L 138.206338 242.525508 
L 138.67013 234.635016 
L 139.597714 251.225705 
L 140.061506 276.706623 
L 140.525299 281.779672 
L 140.989091 276.51659 
L 141.452883 282.655475 
L 141.916675 286.687475 
L 142.380468 294.701902 
L 142.84426 247.168918 
L 143.308052 230.404721 
L 143.771844 235.948721 
L 144.235636 226.670164 
L 144.699429 209.385443 
L 145.163221 239.361049 
L 145.627013 254.935475 
L 146.090805 249.003148 
L 146.554597 232.825574 
L 147.01839 270.39423 
L 147.482182 267.081049 
L 147.945974 251.721443 
L 148.409766 260.851279 
L 148.873558 227.232 
L 149.337351 233.750951 
L 149.801143 230.801311 
L 150.264935 240.526033 
L 150.728727 246.67318 
L 151.192519 246.507934 
L 151.656312 255.216393 
L 152.120104 257.306754 
L 152.583896 263.239082 
L 153.047688 262.776393 
L 153.511481 238.072131 
L 153.975273 261.264393 
L 154.439065 264.296656 
L 154.902857 244.417574 
L 155.366649 256.670557 
L 155.830442 237.345049 
L 156.294234 234.717639 
L 156.758026 223.216525 
L 157.221818 233.635279 
L 157.68561 216.75541 
L 158.149403 190.340852 
L 158.613195 200.908328 
L 159.076987 270.799082 
L 159.540779 276.962754 
L 160.004571 249.143607 
L 160.468364 265.205508 
L 160.932156 245.640393 
L 161.395948 206.369705 
L 161.85974 245.326426 
L 162.787325 165.520918 
L 163.251117 205.824393 
L 163.714909 235.857836 
L 164.178701 248.21823 
L 164.642494 240.633443 
L 165.106286 266.312656 
L 165.570078 227.108066 
L 166.03387 205.601311 
L 166.497662 206.96459 
L 166.961455 211.533639 
L 167.425247 211.698885 
L 167.889039 184.805115 
L 168.352831 192.877377 
L 168.816623 184.28459 
L 169.280416 183.317902 
L 169.744208 178.922361 
L 170.208 262.247607 
L 170.671792 252.564197 
L 171.135584 260.628197 
L 171.599377 244.872 
L 172.526961 194.893377 
L 172.990753 206.518426 
L 173.918338 196.876328 
L 174.38213 182.970885 
L 174.845922 178.459672 
L 175.309714 224.968131 
L 175.773506 234.081443 
L 176.237299 235.015082 
L 177.164883 253.406951 
L 177.628675 205.543475 
L 178.092468 226.124852 
L 178.55626 232.115016 
L 179.020052 212.632525 
L 179.483844 180.368262 
L 179.947636 180.599607 
L 180.411429 197.091148 
L 180.875221 192.026361 
L 181.339013 202.230295 
L 181.802805 207.105049 
L 182.266597 213.557902 
L 182.73039 245.409049 
L 183.194182 226.661902 
L 183.657974 235.304262 
L 184.121766 226.54623 
L 184.585558 180.632656 
L 185.049351 190.679607 
L 185.513143 190.167344 
L 185.976935 190.745705 
L 186.440727 181.748066 
L 186.904519 147.500852 
L 187.368312 162.439082 
L 187.832104 167.54518 
L 188.295896 174.155016 
L 188.759688 160.208262 
L 189.223481 200.800918 
L 190.151065 158.597115 
L 191.078649 171.758951 
L 191.542442 173.684066 
L 192.006234 167.553443 
L 192.470026 159.737311 
L 192.933818 178.971934 
L 193.39761 183.160918 
L 194.325195 146.063213 
L 194.788987 149.574689 
L 195.252779 159.456393 
L 195.716571 160.456131 
L 196.180364 170.990557 
L 197.107948 147.005115 
L 197.57174 150.293508 
L 198.035532 175.063869 
L 198.499325 161.381508 
L 198.963117 164.537705 
L 199.426909 161.447607 
L 199.890701 165.611803 
L 200.354494 138.974164 
L 200.818286 152.02859 
L 201.282078 198.652721 
L 202.673455 165.553967 
L 203.137247 175.311738 
L 203.601039 176.65023 
L 204.064831 172.519082 
L 204.528623 161.736787 
L 204.992416 136.718557 
L 205.456208 147.897443 
L 205.92 147.409967 
L 206.383792 141.783344 
L 206.847584 143.179672 
L 207.311377 147.732197 
L 207.775169 145.509639 
L 208.238961 139.238557 
L 208.702753 143.254033 
L 209.166545 138.767607 
L 210.09413 149.483803 
L 210.557922 163.083541 
L 211.021714 140.22177 
L 211.485506 150.400918 
L 211.949299 135.429639 
L 212.413091 137.189508 
L 212.876883 135.156984 
L 213.340675 133.967213 
L 214.26826 111.080656 
L 214.732052 110.799738 
L 215.195844 104.743475 
L 215.659636 150.128262 
L 216.123429 157.489967 
L 216.587221 157.86177 
L 217.051013 152.449967 
L 218.44239 128.472787 
L 218.906182 126.927738 
L 219.369974 119.888262 
L 219.833766 121.590295 
L 220.297558 112.270426 
L 220.761351 132.240393 
L 221.225143 118.15318 
L 221.688935 109.998295 
L 222.152727 130.968 
L 222.616519 162.389508 
L 223.080312 141.130623 
L 223.544104 145.451803 
L 224.007896 140.155672 
L 224.471688 137.206033 
L 224.935481 139.271607 
L 225.399273 137.867016 
L 225.863065 140.634885 
L 226.326857 133.430164 
L 226.790649 130.761443 
L 227.254442 119.293377 
L 227.718234 128.786754 
L 228.182026 130.687082 
L 228.645818 109.205115 
L 229.10961 108.965508 
L 229.573403 106.627279 
L 230.037195 140.023475 
L 230.500987 143.369705 
L 231.428571 114.62518 
L 231.892364 113.195803 
L 232.356156 134.107672 
L 232.819948 115.608393 
L 233.28374 114.12118 
L 233.747532 118.120131 
L 234.211325 116.798164 
L 234.675117 109.023344 
L 235.138909 129.265967 
L 235.602701 139.362492 
L 236.066494 154.36682 
L 236.530286 139.452303 
L 236.994078 144.344656 
L 237.45787 140.411803 
L 237.921662 127.580459 
L 238.385455 136.561574 
L 238.849247 122.639607 
L 239.313039 120.821902 
L 239.776831 106.792525 
L 240.240623 105.55318 
L 240.704416 110.940197 
L 241.168208 112.386098 
L 241.632 109.535607 
L 242.559584 101.198951 
L 243.023377 109.973508 
L 243.487169 107.734426 
L 243.950961 106.048918 
L 244.414753 104.834361 
L 244.878545 110.494033 
L 245.342338 110.138754 
L 245.80613 104.677377 
L 246.269922 102.173902 
L 246.733714 106.098492 
L 247.197506 111.551607 
L 247.661299 107.048656 
L 248.125091 107.453508 
L 248.588883 107.180852 
L 249.052675 117.905311 
L 249.516468 115.269639 
L 249.98026 139.379016 
L 250.444052 144.551213 
L 250.907844 134.917377 
L 251.371636 113.022295 
L 251.835429 117.285639 
L 252.299221 143.542139 
L 252.763013 140.981902 
L 253.226805 136.313705 
L 254.15439 143.38623 
L 254.618182 131.769443 
L 255.081974 146.385443 
L 255.545766 208.030426 
L 256.009558 206.303607 
L 256.473351 141.502426 
L 256.937143 165.917508 
L 257.864727 177.112918 
L 258.328519 175.600918 
L 258.792312 150.855344 
L 259.256104 151.086689 
L 259.719896 136.792918 
L 260.183688 145.914492 
L 260.647481 145.782295 
L 261.111273 152.301246 
L 261.575065 152.383869 
L 262.038857 153.35882 
L 262.502649 149.500328 
L 262.966442 149.00459 
L 263.430234 143.741508 
L 263.894026 140.948852 
L 264.357818 143.088787 
L 264.82161 142.766557 
L 265.285403 160.728787 
L 265.749195 168.462295 
L 266.212987 154.094164 
L 266.676779 161.563279 
L 267.140571 151.557639 
L 267.604364 155.432656 
L 268.068156 139.469902 
L 268.531948 140.72577 
L 268.99574 152.722623 
L 269.459532 167.784787 
L 269.923325 162.926557 
L 270.387117 153.747148 
L 270.850909 191.638033 
L 271.314701 203.684459 
L 271.778494 200.833967 
L 272.706078 145.121311 
L 273.16987 197.20682 
L 273.633662 184.441574 
L 274.097455 184.962098 
L 274.561247 165.867934 
L 275.025039 182.747803 
L 275.488831 155.325246 
L 275.952623 190.770492 
L 276.416416 179.773377 
L 276.880208 173.617967 
L 277.344 224.563279 
L 277.807792 233.189115 
L 278.271584 211.351869 
L 278.735377 197.355541 
L 279.199169 188.374426 
L 280.126753 236.956721 
L 280.590545 218.308721 
L 281.054338 220.927869 
L 281.51813 213.326557 
L 281.981922 192.117246 
L 282.445714 182.59082 
L 282.909506 195.926164 
L 283.373299 189.944262 
L 283.837091 242.071082 
L 284.300883 227.05023 
L 284.764675 218.126951 
L 285.228468 218.366557 
L 285.69226 276.22741 
L 286.156052 268.188197 
L 286.619844 249.110557 
L 287.083636 250.399475 
L 287.547429 211.657574 
L 288.011221 230.222951 
L 288.475013 237.328525 
L 288.938805 221.605377 
L 289.402597 226.628852 
L 290.330182 206.799344 
L 290.793974 235.750426 
L 291.257766 212.00459 
L 291.721558 199.553311 
L 292.185351 202.742557 
L 292.649143 219.498492 
L 293.112935 227.91777 
L 293.576727 217.507279 
L 294.040519 196.603672 
L 294.504312 223.91882 
L 294.968104 234.668066 
L 295.431896 235.105967 
L 295.895688 212.037639 
L 296.359481 222.80341 
L 296.823273 214.706361 
L 297.287065 214.797246 
L 297.750857 220.960918 
L 298.214649 202.073311 
L 298.678442 219.729836 
L 299.142234 262.396328 
L 299.606026 237.725115 
L 300.069818 231.173115 
L 300.53361 205.791344 
L 300.997403 207.138098 
L 301.461195 207.97259 
L 301.924987 263.073836 
L 302.388779 260.347279 
L 302.852571 247.904262 
L 303.316364 240.187279 
L 303.780156 255.712131 
L 304.243948 237.52682 
L 304.70774 235.733902 
L 305.171532 249.19318 
L 305.635325 249.771541 
L 306.099117 239.088393 
L 306.562909 234.122754 
L 307.026701 200.875279 
L 307.490494 230.776525 
L 307.954286 231.462295 
L 308.418078 268.089049 
L 308.88187 255.084197 
L 309.345662 267.147148 
L 309.809455 247.879475 
L 310.273247 240.286426 
L 310.737039 241.748852 
L 311.200831 219.201049 
L 311.664623 230.313836 
L 312.128416 207.047213 
L 312.592208 249.507148 
L 313.056 251.308328 
L 313.519792 220.597377 
L 313.983584 225.025967 
L 314.447377 240.683016 
L 314.911169 215.036852 
L 315.374961 226.827148 
L 315.838753 221.464918 
L 316.302545 214.061902 
L 316.766338 220.242098 
L 317.23013 237.52682 
L 317.693922 245.169443 
L 318.157714 273.244721 
L 318.621506 263.643934 
L 319.085299 231.834098 
L 319.549091 216.408393 
L 320.012883 255.042885 
L 320.476675 221.47318 
L 320.940468 223.902295 
L 321.40426 223.81141 
L 321.868052 225.290361 
L 322.331844 254.299279 
L 322.795636 239.245377 
L 323.259429 218.292197 
L 323.723221 213.44223 
L 324.187013 242.352 
L 324.650805 232.627279 
L 325.114597 278.218623 
L 325.57839 289.174426 
L 326.042182 271.08 
L 326.505974 212.078951 
L 326.969766 202.188984 
L 327.433558 187.416 
L 327.897351 268.750033 
L 328.361143 279.367082 
L 328.824935 230.123803 
L 329.288727 253.11777 
L 329.752519 225.050754 
L 330.216312 226.050492 
L 330.680104 197.223344 
L 331.143896 199.445902 
L 331.607688 248.466098 
L 332.071481 256.24918 
L 332.535273 251.936262 
L 332.999065 242.740328 
L 333.462857 252.101508 
L 333.926649 196.124459 
L 334.390442 206.146623 
L 334.854234 263.040787 
L 335.318026 233.560918 
L 335.781818 225.794361 
L 336.24561 209.211934 
L 336.709403 183.400525 
L 337.173195 184.218492 
L 337.636987 224.695475 
L 338.100779 197.71082 
L 338.564571 202.089836 
L 339.028364 191.043148 
L 339.492156 198.016525 
L 339.955948 197.363803 
L 340.41974 202.345967 
L 340.883532 205.865705 
L 341.347325 176.980721 
L 341.811117 186.862426 
L 342.274909 184.805115 
L 342.738701 174.609443 
L 343.202494 194.034098 
L 343.666286 203.791869 
L 344.130078 166.024918 
L 344.59387 172.948721 
L 345.057662 151.871607 
L 345.521455 201.85023 
L 345.985247 212.756459 
L 346.449039 218.325246 
L 346.912831 191.456262 
L 347.376623 142.212984 
L 347.840416 156.523279 
L 348.304208 164.05023 
L 348.768 156.06059 
L 349.231792 161.811148 
L 349.695584 204.254557 
L 350.159377 167.338623 
L 350.623169 156.49023 
L 351.086961 186.333639 
L 351.550753 175.476984 
L 352.014545 183.408787 
L 352.478338 201.461902 
L 352.94213 225.331672 
L 353.869714 175.71659 
L 354.333506 144.22791 
L 354.797299 150.987541 
L 355.261091 198.454426 
L 355.724883 187.820852 
L 356.188675 156.614164 
L 356.652468 170.924459 
L 357.11626 205.014689 
L 357.580052 220.870033 
L 358.043844 211.335344 
L 358.507636 164.91777 
L 358.971429 178.881049 
L 359.435221 147.631975 
L 359.899013 154.308984 
L 360.362805 162.653902 
L 360.826597 150.136525 
L 361.29039 131.728131 
L 361.754182 123.308852 
L 362.217974 142.584787 
L 362.681766 193.910164 
L 363.145558 166.413246 
L 363.609351 146.385443 
L 364.073143 141.717246 
L 364.536935 172.733902 
L 365.000727 163.025705 
L 365.464519 149.062426 
L 365.928312 141.048 
L 366.392104 129.836066 
L 366.855896 140.395279 
L 367.319688 158.184 
L 367.783481 155.424393 
L 368.247273 160.728787 
L 368.711065 197.966951 
L 369.174857 188.333115 
L 369.638649 159.415082 
L 370.102442 173.543607 
L 370.566234 163.372721 
L 371.030026 166.380197 
L 371.493818 149.120262 
L 371.95761 148.550164 
L 372.421403 152.722623 
L 372.885195 140.618361 
L 373.348987 132.760918 
L 373.812779 147.343869 
L 374.276571 141.461115 
L 374.740364 139.387279 
L 375.204156 139.180721 
L 375.667948 152.606951 
L 376.13174 149.425967 
L 376.595532 163.463607 
L 377.523117 137.668721 
L 377.986909 171.560656 
L 378.450701 170.337836 
L 378.914494 168.734951 
L 379.378286 171.188852 
L 379.842078 172.783475 
L 380.30587 159.448131 
L 382.624831 126.869902 
L 383.088623 124.763016 
L 383.552416 149.277246 
L 384.016208 161.546754 
L 384.48 167.561705 
L 384.943792 159.720787 
L 385.407584 174.278951 
L 385.871377 167.305574 
L 386.335169 172.560393 
L 386.798961 159.753836 
L 387.726545 151.936631 
L 388.190338 144.162885 
L 388.65413 132.380852 
L 389.117922 125.754492 
L 389.581714 128.299279 
L 390.509299 158.828459 
L 390.973091 160.819672 
L 391.436883 159.671213 
L 391.900675 166.801574 
L 392.364468 143.419279 
L 392.82826 167.313836 
L 393.292052 145.046951 
L 393.755844 143.681524 
L 394.219636 149.29377 
L 394.683429 122.300852 
L 395.611013 125.812328 
L 396.074805 120.937574 
L 396.538597 142.733508 
L 397.00239 109.849574 
L 397.466182 118.921574 
L 397.929974 108.46977 
L 398.393766 109.213377 
L 398.857558 108.866361 
L 399.321351 113.774164 
L 399.785143 115.005246 
L 400.248935 105.94977 
L 400.712727 112.245639 
L 401.176519 150.483541 
L 401.640312 151.384131 
L 402.104104 136.735082 
L 402.567896 137.908328 
L 403.031688 135.049574 
L 403.495481 127.902689 
L 403.959273 118.103607 
L 404.423065 143.848918 
L 404.886857 177.765639 
L 405.350649 168.58623 
L 405.814442 176.394098 
L 406.278234 175.03082 
L 407.205818 158.892409 
L 407.66961 165.876197 
L 408.133403 145.672737 
L 409.060987 142.056 
L 409.524779 144.245508 
L 409.988571 152.301246 
L 410.452364 140.932328 
L 410.916156 138.371016 
L 411.379948 137.30518 
L 411.84374 142.403016 
L 412.307532 139.692984 
L 412.771325 134.347279 
L 413.235117 135.68577 
L 414.162701 129.885639 
L 414.626494 129.96 
L 415.090286 135.264393 
L 415.554078 138.23882 
L 416.01787 120.681443 
L 416.481662 127.002098 
L 416.945455 131.348066 
L 417.409247 143.898492 
L 417.873039 119.731279 
L 418.336831 122.457836 
L 418.800623 119.995672 
L 419.264416 130.910164 
L 419.728208 122.623082 
L 420.192 131.752918 
L 420.655792 145.460066 
L 421.119584 140.72577 
L 422.047169 150.44223 
L 422.510961 187.589508 
L 422.974753 175.394361 
L 423.438545 172.61823 
L 423.902338 173.221377 
L 424.36613 174.303738 
L 424.829922 142.543475 
L 425.293714 133.587148 
L 425.757506 146.732459 
L 426.221299 131.455475 
L 426.685091 112.047344 
L 427.148883 110.98977 
L 427.612675 117.368262 
L 428.076468 106.536393 
L 428.54026 115.030033 
L 429.004052 132.917902 
L 429.467844 113.840262 
L 429.931636 114.62518 
L 430.395429 119.185967 
L 430.859221 131.232393 
L 431.323013 106.999082 
L 431.786805 109.296 
L 432.250597 107.329574 
L 432.71439 104.809574 
L 433.178182 116.889049 
L 433.641974 116.492459 
L 434.105766 115.476197 
L 434.569558 113.980721 
L 435.033351 107.073443 
L 435.497143 106.214164 
L 435.960935 132.504787 
L 436.424727 139.494689 
L 436.888519 141.576787 
L 437.352312 150.830557 
L 437.816104 140.370492 
L 438.279896 126.118033 
L 438.743688 118.905049 
L 439.207481 118.971148 
L 439.671273 120.045246 
L 440.135065 118.797639 
L 440.598857 109.923934 
L 441.062649 125.762754 
L 441.526442 115.74059 
L 441.990234 141.560262 
L 442.454026 156.011016 
L 442.917818 143.022689 
L 443.38161 143.839582 
L 443.845403 123.399738 
L 444.309195 142.204721 
L 444.772987 170.17259 
L 445.236779 150.51659 
L 445.700571 140.345705 
L 446.628156 165.438295 
L 447.091948 194.876852 
L 447.55574 171.048393 
L 448.019532 158.431869 
L 448.483325 152.516066 
L 448.947117 148.690623 
L 449.410909 152.919844 
L 449.874701 147.335607 
L 450.338494 153.788459 
L 451.266078 149.459016 
L 451.72987 170.230426 
L 452.193662 164.471607 
L 452.657455 151.202361 
L 453.585039 146.261508 
L 454.048831 151.086689 
L 454.512623 149.921705 
L 454.976416 141.064525 
L 455.440208 146.98859 
L 455.904 149.492066 
L 456.367792 146.30282 
L 456.831584 172.345574 
L 457.295377 171.775475 
L 457.759169 174.072393 
L 458.222961 182.516459 
L 458.686753 170.552656 
L 459.150545 177.559082 
L 459.614338 178.583607 
L 460.07813 184.003672 
L 460.541922 182.045508 
L 461.005714 173.469246 
L 461.469506 185.284328 
L 461.933299 211.161836 
L 462.397091 214.243672 
L 462.860883 186.441049 
L 463.324675 213.987541 
L 463.788468 196.000525 
L 464.716052 177.327738 
L 465.179844 176.319738 
L 465.643636 172.527344 
L 466.107429 170.040393 
L 466.571221 179.96341 
L 467.035013 229.041443 
L 467.498805 202.345967 
L 467.962597 199.33023 
L 468.42639 176.898098 
L 468.890182 190.753967 
L 469.353974 211.988066 
L 469.817766 196.917639 
L 470.281558 203.816656 
L 470.745351 218.292197 
L 471.209143 213.062164 
L 471.672935 198.462689 
L 472.136727 210.699148 
L 472.600519 212.996066 
L 473.064312 216.119213 
L 473.528104 212.343344 
L 473.991896 212.00459 
L 474.455688 192.513836 
L 474.919481 188.564459 
L 475.383273 207.592525 
L 476.310857 186.217967 
L 476.774649 189.64682 
L 477.238442 191.745443 
L 477.702234 182.260328 
L 478.166026 192.026361 
L 478.629818 228.231738 
L 479.09361 227.000656 
L 479.557403 216.077902 
L 480.021195 220.729574 
L 480.484987 256.092197 
L 480.948779 262.80118 
L 481.412571 253.33259 
L 481.876364 277.202361 
L 482.340156 280.614689 
L 482.803948 285.605115 
L 483.26774 280.449443 
L 483.731532 283.89482 
L 484.195325 248.07777 
L 484.659117 261.041311 
L 485.122909 247.648131 
L 485.586701 241.781902 
L 486.514286 225.240787 
L 487.44187 256.968 
L 487.905662 229.520656 
L 488.833247 226.744525 
L 489.297039 219.291934 
L 489.760831 214.788984 
L 490.224623 223.282623 
L 490.688416 215.284721 
L 491.616 232.825574 
L 492.079792 214.251934 
L 492.543584 232.478557 
L 493.007377 242.269377 
L 493.471169 241.071344 
L 493.934961 262.768131 
L 494.398753 268.683934 
L 494.862545 245.830426 
L 495.326338 235.287738 
L 495.79013 252.134557 
L 496.253922 248.829639 
L 496.717714 204.65941 
L 497.645299 152.838295 
L 498.109091 158.36577 
L 498.109091 158.36577 
" clip-path="url(#pccd7abe642)" style="fill: none; stroke: #ff7f0e; stroke-width: 1.5; stroke-linecap: round"/>
   </g>
   <g id="patch_3">
    <path d="M 72 384.48 
L 72 51.84 
" style="fill: none; stroke: #ffffff; stroke-width: 0.8; stroke-linejoin: miter; stroke-linecap: square"/>
   </g>
   <g id="patch_4">
    <path d="M 518.4 384.48 
L 518.4 51.84 
" style="fill: none; stroke: #ffffff; stroke-width: 0.8; stroke-linejoin: miter; stroke-linecap: square"/>
   </g>
   <g id="patch_5">
    <path d="M 72 384.48 
L 518.4 384.48 
" style="fill: none; stroke: #ffffff; stroke-width: 0.8; stroke-linejoin: miter; stroke-linecap: square"/>
   </g>
   <g id="patch_6">
    <path d="M 72 51.84 
L 518.4 51.84 
" style="fill: none; stroke: #ffffff; stroke-width: 0.8; stroke-linejoin: miter; stroke-linecap: square"/>
   </g>
   <g id="text_16">
    <!-- Maximum Temperature Prediction 2 Days Ahead -->
    <g style="fill: #262626" transform="translate(166.59 45.84) scale(0.12 -0.12)">
     <defs>
      <path id="ArialMT-4d" d="M 475 0 
L 475 4581 
L 1388 4581 
L 2472 1338 
Q 2622 884 2691 659 
Q 2769 909 2934 1394 
L 4031 4581 
L 4847 4581 
L 4847 0 
L 4263 0 
L 4263 3834 
L 2931 0 
L 2384 0 
L 1059 3900 
L 1059 0 
L 475 0 
z
" transform="scale(0.015625)"/>
      <path id="ArialMT-78" d="M 47 0 
L 1259 1725 
L 138 3319 
L 841 3319 
L 1350 2541 
Q 1494 2319 1581 2169 
Q 1719 2375 1834 2534 
L 2394 3319 
L 3066 3319 
L 1919 1756 
L 3153 0 
L 2463 0 
L 1781 1031 
L 1600 1309 
L 728 0 
L 47 0 
z
" transform="scale(0.015625)"/>
      <path id="ArialMT-69" d="M 425 3934 
L 425 4581 
L 988 4581 
L 988 3934 
L 425 3934 
z
M 425 0 
L 425 3319 
L 988 3319 
L 988 0 
L 425 0 
z
" transform="scale(0.015625)"/>
      <path id="ArialMT-6d" d="M 422 0 
L 422 3319 
L 925 3319 
L 925 2853 
Q 1081 3097 1340 3245 
Q 1600 3394 1931 3394 
Q 2300 3394 2536 3241 
Q 2772 3088 2869 2813 
Q 3263 3394 3894 3394 
Q 4388 3394 4653 3120 
Q 4919 2847 4919 2278 
L 4919 0 
L 4359 0 
L 4359 2091 
Q 4359 2428 4304 2576 
Q 4250 2725 4106 2815 
Q 3963 2906 3769 2906 
Q 3419 2906 3187 2673 
Q 2956 2441 2956 1928 
L 2956 0 
L 2394 0 
L 2394 2156 
Q 2394 2531 2256 2718 
Q 2119 2906 1806 2906 
Q 1569 2906 1367 2781 
Q 1166 2656 1075 2415 
Q 984 2175 984 1722 
L 984 0 
L 422 0 
z
" transform="scale(0.015625)"/>
      <path id="ArialMT-75" d="M 2597 0 
L 2597 488 
Q 2209 -75 1544 -75 
Q 1250 -75 995 37 
Q 741 150 617 320 
Q 494 491 444 738 
Q 409 903 409 1263 
L 409 3319 
L 972 3319 
L 972 1478 
Q 972 1038 1006 884 
Q 1059 663 1231 536 
Q 1403 409 1656 409 
Q 1909 409 2131 539 
Q 2353 669 2445 892 
Q 2538 1116 2538 1541 
L 2538 3319 
L 3100 3319 
L 3100 0 
L 2597 0 
z
" transform="scale(0.015625)"/>
      <path id="ArialMT-20" transform="scale(0.015625)"/>
      <path id="ArialMT-54" d="M 1659 0 
L 1659 4041 
L 150 4041 
L 150 4581 
L 3781 4581 
L 3781 4041 
L 2266 4041 
L 2266 0 
L 1659 0 
z
" transform="scale(0.015625)"/>
      <path id="ArialMT-65" d="M 2694 1069 
L 3275 997 
Q 3138 488 2766 206 
Q 2394 -75 1816 -75 
Q 1088 -75 661 373 
Q 234 822 234 1631 
Q 234 2469 665 2931 
Q 1097 3394 1784 3394 
Q 2450 3394 2872 2941 
Q 3294 2488 3294 1666 
Q 3294 1616 3291 1516 
L 816 1516 
Q 847 969 1125 678 
Q 1403 388 1819 388 
Q 2128 388 2347 550 
Q 2566 713 2694 1069 
z
M 847 1978 
L 2700 1978 
Q 2663 2397 2488 2606 
Q 2219 2931 1791 2931 
Q 1403 2931 1139 2672 
Q 875 2413 847 1978 
z
" transform="scale(0.015625)"/>
      <path id="ArialMT-70" d="M 422 -1272 
L 422 3319 
L 934 3319 
L 934 2888 
Q 1116 3141 1344 3267 
Q 1572 3394 1897 3394 
Q 2322 3394 2647 3175 
Q 2972 2956 3137 2557 
Q 3303 2159 3303 1684 
Q 3303 1175 3120 767 
Q 2938 359 2589 142 
Q 2241 -75 1856 -75 
Q 1575 -75 1351 44 
Q 1128 163 984 344 
L 984 -1272 
L 422 -1272 
z
M 931 1641 
Q 931 1000 1190 694 
Q 1450 388 1819 388 
Q 2194 388 2461 705 
Q 2728 1022 2728 1688 
Q 2728 2322 2467 2637 
Q 2206 2953 1844 2953 
Q 1484 2953 1207 2617 
Q 931 2281 931 1641 
z
" transform="scale(0.015625)"/>
      <path id="ArialMT-72" d="M 416 0 
L 416 3319 
L 922 3319 
L 922 2816 
Q 1116 3169 1280 3281 
Q 1444 3394 1641 3394 
Q 1925 3394 2219 3213 
L 2025 2691 
Q 1819 2813 1613 2813 
Q 1428 2813 1281 2702 
Q 1134 2591 1072 2394 
Q 978 2094 978 1738 
L 978 0 
L 416 0 
z
" transform="scale(0.015625)"/>
      <path id="ArialMT-74" d="M 1650 503 
L 1731 6 
Q 1494 -44 1306 -44 
Q 1000 -44 831 53 
Q 663 150 594 308 
Q 525 466 525 972 
L 525 2881 
L 113 2881 
L 113 3319 
L 525 3319 
L 525 4141 
L 1084 4478 
L 1084 3319 
L 1650 3319 
L 1650 2881 
L 1084 2881 
L 1084 941 
Q 1084 700 1114 631 
Q 1144 563 1211 522 
Q 1278 481 1403 481 
Q 1497 481 1650 503 
z
" transform="scale(0.015625)"/>
      <path id="ArialMT-50" d="M 494 0 
L 494 4581 
L 2222 4581 
Q 2678 4581 2919 4538 
Q 3256 4481 3484 4323 
Q 3713 4166 3852 3881 
Q 3991 3597 3991 3256 
Q 3991 2672 3619 2267 
Q 3247 1863 2275 1863 
L 1100 1863 
L 1100 0 
L 494 0 
z
M 1100 2403 
L 2284 2403 
Q 2872 2403 3119 2622 
Q 3366 2841 3366 3238 
Q 3366 3525 3220 3729 
Q 3075 3934 2838 4000 
Q 2684 4041 2272 4041 
L 1100 4041 
L 1100 2403 
z
" transform="scale(0.015625)"/>
      <path id="ArialMT-64" d="M 2575 0 
L 2575 419 
Q 2259 -75 1647 -75 
Q 1250 -75 917 144 
Q 584 363 401 755 
Q 219 1147 219 1656 
Q 219 2153 384 2558 
Q 550 2963 881 3178 
Q 1213 3394 1622 3394 
Q 1922 3394 2156 3267 
Q 2391 3141 2538 2938 
L 2538 4581 
L 3097 4581 
L 3097 0 
L 2575 0 
z
M 797 1656 
Q 797 1019 1065 703 
Q 1334 388 1700 388 
Q 2069 388 2326 689 
Q 2584 991 2584 1609 
Q 2584 2291 2321 2609 
Q 2059 2928 1675 2928 
Q 1300 2928 1048 2622 
Q 797 2316 797 1656 
z
" transform="scale(0.015625)"/>
      <path id="ArialMT-63" d="M 2588 1216 
L 3141 1144 
Q 3050 572 2676 248 
Q 2303 -75 1759 -75 
Q 1078 -75 664 370 
Q 250 816 250 1647 
Q 250 2184 428 2587 
Q 606 2991 970 3192 
Q 1334 3394 1763 3394 
Q 2303 3394 2647 3120 
Q 2991 2847 3088 2344 
L 2541 2259 
Q 2463 2594 2264 2762 
Q 2066 2931 1784 2931 
Q 1359 2931 1093 2626 
Q 828 2322 828 1663 
Q 828 994 1084 691 
Q 1341 388 1753 388 
Q 2084 388 2306 591 
Q 2528 794 2588 1216 
z
" transform="scale(0.015625)"/>
      <path id="ArialMT-6f" d="M 213 1659 
Q 213 2581 725 3025 
Q 1153 3394 1769 3394 
Q 2453 3394 2887 2945 
Q 3322 2497 3322 1706 
Q 3322 1066 3130 698 
Q 2938 331 2570 128 
Q 2203 -75 1769 -75 
Q 1072 -75 642 372 
Q 213 819 213 1659 
z
M 791 1659 
Q 791 1022 1069 705 
Q 1347 388 1769 388 
Q 2188 388 2466 706 
Q 2744 1025 2744 1678 
Q 2744 2294 2464 2611 
Q 2184 2928 1769 2928 
Q 1347 2928 1069 2612 
Q 791 2297 791 1659 
z
" transform="scale(0.015625)"/>
      <path id="ArialMT-6e" d="M 422 0 
L 422 3319 
L 928 3319 
L 928 2847 
Q 1294 3394 1984 3394 
Q 2284 3394 2536 3286 
Q 2788 3178 2913 3003 
Q 3038 2828 3088 2588 
Q 3119 2431 3119 2041 
L 3119 0 
L 2556 0 
L 2556 2019 
Q 2556 2363 2490 2533 
Q 2425 2703 2258 2804 
Q 2091 2906 1866 2906 
Q 1506 2906 1245 2678 
Q 984 2450 984 1813 
L 984 0 
L 422 0 
z
" transform="scale(0.015625)"/>
      <path id="ArialMT-41" d="M -9 0 
L 1750 4581 
L 2403 4581 
L 4278 0 
L 3588 0 
L 3053 1388 
L 1138 1388 
L 634 0 
L -9 0 
z
M 1313 1881 
L 2866 1881 
L 2388 3150 
Q 2169 3728 2063 4100 
Q 1975 3659 1816 3225 
L 1313 1881 
z
" transform="scale(0.015625)"/>
      <path id="ArialMT-68" d="M 422 0 
L 422 4581 
L 984 4581 
L 984 2938 
Q 1378 3394 1978 3394 
Q 2347 3394 2619 3248 
Q 2891 3103 3008 2847 
Q 3125 2591 3125 2103 
L 3125 0 
L 2563 0 
L 2563 2103 
Q 2563 2525 2380 2717 
Q 2197 2909 1863 2909 
Q 1613 2909 1392 2779 
Q 1172 2650 1078 2428 
Q 984 2206 984 1816 
L 984 0 
L 422 0 
z
" transform="scale(0.015625)"/>
     </defs>
     <use xlink:href="#ArialMT-4d"/>
     <use xlink:href="#ArialMT-61" x="83.300781"/>
     <use xlink:href="#ArialMT-78" x="138.916016"/>
     <use xlink:href="#ArialMT-69" x="188.916016"/>
     <use xlink:href="#ArialMT-6d" x="211.132812"/>
     <use xlink:href="#ArialMT-75" x="294.433594"/>
     <use xlink:href="#ArialMT-6d" x="350.048828"/>
     <use xlink:href="#ArialMT-20" x="433.349609"/>
     <use xlink:href="#ArialMT-54" x="459.382812"/>
     <use xlink:href="#ArialMT-65" x="509.341797"/>
     <use xlink:href="#ArialMT-6d" x="564.957031"/>
     <use xlink:href="#ArialMT-70" x="648.257812"/>
     <use xlink:href="#ArialMT-65" x="703.873047"/>
     <use xlink:href="#ArialMT-72" x="759.488281"/>
     <use xlink:href="#ArialMT-61" x="792.789062"/>
     <use xlink:href="#ArialMT-74" x="848.404297"/>
     <use xlink:href="#ArialMT-75" x="876.1875"/>
     <use xlink:href="#ArialMT-72" x="931.802734"/>
     <use xlink:href="#ArialMT-65" x="965.103516"/>
     <use xlink:href="#ArialMT-20" x="1020.71875"/>
     <use xlink:href="#ArialMT-50" x="1048.501953"/>
     <use xlink:href="#ArialMT-72" x="1115.201172"/>
     <use xlink:href="#ArialMT-65" x="1148.501953"/>
     <use xlink:href="#ArialMT-64" x="1204.117188"/>
     <use xlink:href="#ArialMT-69" x="1259.732422"/>
     <use xlink:href="#ArialMT-63" x="1281.949219"/>
     <use xlink:href="#ArialMT-74" x="1331.949219"/>
     <use xlink:href="#ArialMT-69" x="1359.732422"/>
     <use xlink:href="#ArialMT-6f" x="1381.949219"/>
     <use xlink:href="#ArialMT-6e" x="1437.564453"/>
     <use xlink:href="#ArialMT-20" x="1493.179688"/>
     <use xlink:href="#ArialMT-32" x="1520.962891"/>
     <use xlink:href="#ArialMT-20" x="1576.578125"/>
     <use xlink:href="#ArialMT-44" x="1604.361328"/>
     <use xlink:href="#ArialMT-61" x="1676.578125"/>
     <use xlink:href="#ArialMT-79" x="1732.193359"/>
     <use xlink:href="#ArialMT-73" x="1782.193359"/>
     <use xlink:href="#ArialMT-20" x="1832.193359"/>
     <use xlink:href="#ArialMT-41" x="1854.476562"/>
     <use xlink:href="#ArialMT-68" x="1921.175781"/>
     <use xlink:href="#ArialMT-65" x="1976.791016"/>
     <use xlink:href="#ArialMT-61" x="2032.40625"/>
     <use xlink:href="#ArialMT-64" x="2088.021484"/>
    </g>
   </g>
   <g id="legend_1">
    <g id="patch_7">
     <path d="M 437.15625 88.130625 
L 511.4 88.130625 
Q 513.4 88.130625 513.4 86.130625 
L 513.4 58.84 
Q 513.4 56.84 511.4 56.84 
L 437.15625 56.84 
Q 435.15625 56.84 435.15625 58.84 
L 435.15625 86.130625 
Q 435.15625 88.130625 437.15625 88.130625 
z
" style="fill: #eaeaf2; opacity: 0.8; stroke: #cccccc; stroke-linejoin: miter"/>
    </g>
    <g id="line2d_16">
     <path d="M 439.15625 64.497812 
L 449.15625 64.497812 
L 459.15625 64.497812 
" style="fill: none; stroke: #1f77b4; stroke-width: 1.5; stroke-linecap: round"/>
    </g>
    <g id="text_17">
     <!-- Real -->
     <g style="fill: #262626" transform="translate(467.15625 67.997812) scale(0.1 -0.1)">
      <defs>
       <path id="ArialMT-52" d="M 503 0 
L 503 4581 
L 2534 4581 
Q 3147 4581 3465 4457 
Q 3784 4334 3975 4021 
Q 4166 3709 4166 3331 
Q 4166 2844 3850 2509 
Q 3534 2175 2875 2084 
Q 3116 1969 3241 1856 
Q 3506 1613 3744 1247 
L 4541 0 
L 3778 0 
L 3172 953 
Q 2906 1366 2734 1584 
Q 2563 1803 2427 1890 
Q 2291 1978 2150 2013 
Q 2047 2034 1813 2034 
L 1109 2034 
L 1109 0 
L 503 0 
z
M 1109 2559 
L 2413 2559 
Q 2828 2559 3062 2645 
Q 3297 2731 3419 2920 
Q 3541 3109 3541 3331 
Q 3541 3656 3305 3865 
Q 3069 4075 2559 4075 
L 1109 4075 
L 1109 2559 
z
" transform="scale(0.015625)"/>
       <path id="ArialMT-6c" d="M 409 0 
L 409 4581 
L 972 4581 
L 972 0 
L 409 0 
z
" transform="scale(0.015625)"/>
      </defs>
      <use xlink:href="#ArialMT-52"/>
      <use xlink:href="#ArialMT-65" x="72.216797"/>
      <use xlink:href="#ArialMT-61" x="127.832031"/>
      <use xlink:href="#ArialMT-6c" x="183.447266"/>
     </g>
    </g>
    <g id="line2d_17">
     <path d="M 439.15625 78.643125 
L 449.15625 78.643125 
L 459.15625 78.643125 
" style="fill: none; stroke: #ff7f0e; stroke-width: 1.5; stroke-linecap: round"/>
    </g>
    <g id="text_18">
     <!-- Predicted -->
     <g style="fill: #262626" transform="translate(467.15625 82.143125) scale(0.1 -0.1)">
      <use xlink:href="#ArialMT-50"/>
      <use xlink:href="#ArialMT-72" x="66.699219"/>
      <use xlink:href="#ArialMT-65" x="100"/>
      <use xlink:href="#ArialMT-64" x="155.615234"/>
      <use xlink:href="#ArialMT-69" x="211.230469"/>
      <use xlink:href="#ArialMT-63" x="233.447266"/>
      <use xlink:href="#ArialMT-74" x="283.447266"/>
      <use xlink:href="#ArialMT-65" x="311.230469"/>
      <use xlink:href="#ArialMT-64" x="366.845703"/>
     </g>
    </g>
   </g>
  </g>
 </g>
 <defs>
  <clipPath id="pccd7abe642">
   <rect x="72" y="51.84" width="446.4" height="332.64"/>
  </clipPath>
 </defs>
</svg>
