<?xml version="1.0" encoding="utf-8" standalone="no"?>
<!DOCTYPE svg PUBLIC "-//W3C//DTD SVG 1.1//EN"
  "http://www.w3.org/Graphics/SVG/1.1/DTD/svg11.dtd">
<svg xmlns:xlink="http://www.w3.org/1999/xlink" width="576pt" height="432pt" viewBox="0 0 576 432" xmlns="http://www.w3.org/2000/svg" version="1.1">
 <metadata>
  <rdf:RDF xmlns:dc="http://purl.org/dc/elements/1.1/" xmlns:cc="http://creativecommons.org/ns#" xmlns:rdf="http://www.w3.org/1999/02/22-rdf-syntax-ns#">
   <cc:Work>
    <dc:type rdf:resource="http://purl.org/dc/dcmitype/StillImage"/>
    <dc:date>2023-11-17T03:41:16.547613</dc:date>
    <dc:format>image/svg+xml</dc:format>
    <dc:creator>
     <cc:Agent>
      <dc:title>Matplotlib v3.8.0, https://matplotlib.org/</dc:title>
     </cc:Agent>
    </dc:creator>
   </cc:Work>
  </rdf:RDF>
 </metadata>
 <defs>
  <style type="text/css">*{stroke-linejoin: round; stroke-linecap: butt}</style>
 </defs>
 <g id="figure_1">
  <g id="patch_1">
   <path d="M 0 432 
L 576 432 
L 576 0 
L 0 0 
z
" style="fill: #ffffff"/>
  </g>
  <g id="axes_1">
   <g id="patch_2">
    <path d="M 72 384.48 
L 518.4 384.48 
L 518.4 51.84 
L 72 51.84 
z
" style="fill: #eaeaf2"/>
   </g>
   <g id="matplotlib.axis_1">
    <g id="xtick_1">
     <g id="line2d_1">
      <path d="M 92.290909 384.48 
L 92.290909 51.84 
" clip-path="url(#p3a19148da3)" style="fill: none; stroke: #ffffff; stroke-width: 0.8; stroke-linecap: round"/>
     </g>
     <g id="text_1">
      <!-- 0 -->
      <g style="fill: #262626" transform="translate(89.51044 398.637812) scale(0.1 -0.1)">
       <defs>
        <path id="ArialMT-30" d="M 266 2259 
Q 266 3072 433 3567 
Q 600 4063 929 4331 
Q 1259 4600 1759 4600 
Q 2128 4600 2406 4451 
Q 2684 4303 2865 4023 
Q 3047 3744 3150 3342 
Q 3253 2941 3253 2259 
Q 3253 1453 3087 958 
Q 2922 463 2592 192 
Q 2263 -78 1759 -78 
Q 1097 -78 719 397 
Q 266 969 266 2259 
z
M 844 2259 
Q 844 1131 1108 757 
Q 1372 384 1759 384 
Q 2147 384 2411 759 
Q 2675 1134 2675 2259 
Q 2675 3391 2411 3762 
Q 2147 4134 1753 4134 
Q 1366 4134 1134 3806 
Q 844 3388 844 2259 
z
" transform="scale(0.015625)"/>
       </defs>
       <use xlink:href="#ArialMT-30"/>
      </g>
     </g>
    </g>
    <g id="xtick_2">
     <g id="line2d_2">
      <path d="M 185.905253 384.48 
L 185.905253 51.84 
" clip-path="url(#p3a19148da3)" style="fill: none; stroke: #ffffff; stroke-width: 0.8; stroke-linecap: round"/>
     </g>
     <g id="text_2">
      <!-- 200 -->
      <g style="fill: #262626" transform="translate(177.563847 398.637812) scale(0.1 -0.1)">
       <defs>
        <path id="ArialMT-32" d="M 3222 541 
L 3222 0 
L 194 0 
Q 188 203 259 391 
Q 375 700 629 1000 
Q 884 1300 1366 1694 
Q 2113 2306 2375 2664 
Q 2638 3022 2638 3341 
Q 2638 3675 2398 3904 
Q 2159 4134 1775 4134 
Q 1369 4134 1125 3890 
Q 881 3647 878 3216 
L 300 3275 
Q 359 3922 746 4261 
Q 1134 4600 1788 4600 
Q 2447 4600 2831 4234 
Q 3216 3869 3216 3328 
Q 3216 3053 3103 2787 
Q 2991 2522 2730 2228 
Q 2469 1934 1863 1422 
Q 1356 997 1212 845 
Q 1069 694 975 541 
L 3222 541 
z
" transform="scale(0.015625)"/>
       </defs>
       <use xlink:href="#ArialMT-32"/>
       <use xlink:href="#ArialMT-30" x="55.615234"/>
       <use xlink:href="#ArialMT-30" x="111.230469"/>
      </g>
     </g>
    </g>
    <g id="xtick_3">
     <g id="line2d_3">
      <path d="M 279.519597 384.48 
L 279.519597 51.84 
" clip-path="url(#p3a19148da3)" style="fill: none; stroke: #ffffff; stroke-width: 0.8; stroke-linecap: round"/>
     </g>
     <g id="text_3">
      <!-- 400 -->
      <g style="fill: #262626" transform="translate(271.178191 398.637812) scale(0.1 -0.1)">
       <defs>
        <path id="ArialMT-34" d="M 2069 0 
L 2069 1097 
L 81 1097 
L 81 1613 
L 2172 4581 
L 2631 4581 
L 2631 1613 
L 3250 1613 
L 3250 1097 
L 2631 1097 
L 2631 0 
L 2069 0 
z
M 2069 1613 
L 2069 3678 
L 634 1613 
L 2069 1613 
z
" transform="scale(0.015625)"/>
       </defs>
       <use xlink:href="#ArialMT-34"/>
       <use xlink:href="#ArialMT-30" x="55.615234"/>
       <use xlink:href="#ArialMT-30" x="111.230469"/>
      </g>
     </g>
    </g>
    <g id="xtick_4">
     <g id="line2d_4">
      <path d="M 373.133941 384.48 
L 373.133941 51.84 
" clip-path="url(#p3a19148da3)" style="fill: none; stroke: #ffffff; stroke-width: 0.8; stroke-linecap: round"/>
     </g>
     <g id="text_4">
      <!-- 600 -->
      <g style="fill: #262626" transform="translate(364.792535 398.637812) scale(0.1 -0.1)">
       <defs>
        <path id="ArialMT-36" d="M 3184 3459 
L 2625 3416 
Q 2550 3747 2413 3897 
Q 2184 4138 1850 4138 
Q 1581 4138 1378 3988 
Q 1113 3794 959 3422 
Q 806 3050 800 2363 
Q 1003 2672 1297 2822 
Q 1591 2972 1913 2972 
Q 2475 2972 2870 2558 
Q 3266 2144 3266 1488 
Q 3266 1056 3080 686 
Q 2894 316 2569 119 
Q 2244 -78 1831 -78 
Q 1128 -78 684 439 
Q 241 956 241 2144 
Q 241 3472 731 4075 
Q 1159 4600 1884 4600 
Q 2425 4600 2770 4297 
Q 3116 3994 3184 3459 
z
M 888 1484 
Q 888 1194 1011 928 
Q 1134 663 1356 523 
Q 1578 384 1822 384 
Q 2178 384 2434 671 
Q 2691 959 2691 1453 
Q 2691 1928 2437 2201 
Q 2184 2475 1800 2475 
Q 1419 2475 1153 2201 
Q 888 1928 888 1484 
z
" transform="scale(0.015625)"/>
       </defs>
       <use xlink:href="#ArialMT-36"/>
       <use xlink:href="#ArialMT-30" x="55.615234"/>
       <use xlink:href="#ArialMT-30" x="111.230469"/>
      </g>
     </g>
    </g>
    <g id="xtick_5">
     <g id="line2d_5">
      <path d="M 466.748286 384.48 
L 466.748286 51.84 
" clip-path="url(#p3a19148da3)" style="fill: none; stroke: #ffffff; stroke-width: 0.8; stroke-linecap: round"/>
     </g>
     <g id="text_5">
      <!-- 800 -->
      <g style="fill: #262626" transform="translate(458.406879 398.637812) scale(0.1 -0.1)">
       <defs>
        <path id="ArialMT-38" d="M 1131 2484 
Q 781 2613 612 2850 
Q 444 3088 444 3419 
Q 444 3919 803 4259 
Q 1163 4600 1759 4600 
Q 2359 4600 2725 4251 
Q 3091 3903 3091 3403 
Q 3091 3084 2923 2848 
Q 2756 2613 2416 2484 
Q 2838 2347 3058 2040 
Q 3278 1734 3278 1309 
Q 3278 722 2862 322 
Q 2447 -78 1769 -78 
Q 1091 -78 675 323 
Q 259 725 259 1325 
Q 259 1772 486 2073 
Q 713 2375 1131 2484 
z
M 1019 3438 
Q 1019 3113 1228 2906 
Q 1438 2700 1772 2700 
Q 2097 2700 2305 2904 
Q 2513 3109 2513 3406 
Q 2513 3716 2298 3927 
Q 2084 4138 1766 4138 
Q 1444 4138 1231 3931 
Q 1019 3725 1019 3438 
z
M 838 1322 
Q 838 1081 952 856 
Q 1066 631 1291 507 
Q 1516 384 1775 384 
Q 2178 384 2440 643 
Q 2703 903 2703 1303 
Q 2703 1709 2433 1975 
Q 2163 2241 1756 2241 
Q 1359 2241 1098 1978 
Q 838 1716 838 1322 
z
" transform="scale(0.015625)"/>
       </defs>
       <use xlink:href="#ArialMT-38"/>
       <use xlink:href="#ArialMT-30" x="55.615234"/>
       <use xlink:href="#ArialMT-30" x="111.230469"/>
      </g>
     </g>
    </g>
    <g id="text_6">
     <!-- Days -->
     <g style="fill: #262626" transform="translate(283.808594 411.783125) scale(0.1 -0.1)">
      <defs>
       <path id="ArialMT-44" d="M 494 0 
L 494 4581 
L 2072 4581 
Q 2606 4581 2888 4516 
Q 3281 4425 3559 4188 
Q 3922 3881 4101 3404 
Q 4281 2928 4281 2316 
Q 4281 1794 4159 1391 
Q 4038 988 3847 723 
Q 3656 459 3429 307 
Q 3203 156 2883 78 
Q 2563 0 2147 0 
L 494 0 
z
M 1100 541 
L 2078 541 
Q 2531 541 2789 625 
Q 3047 709 3200 863 
Q 3416 1078 3536 1442 
Q 3656 1806 3656 2325 
Q 3656 3044 3420 3430 
Q 3184 3816 2847 3947 
Q 2603 4041 2063 4041 
L 1100 4041 
L 1100 541 
z
" transform="scale(0.015625)"/>
       <path id="ArialMT-61" d="M 2588 409 
Q 2275 144 1986 34 
Q 1697 -75 1366 -75 
Q 819 -75 525 192 
Q 231 459 231 875 
Q 231 1119 342 1320 
Q 453 1522 633 1644 
Q 813 1766 1038 1828 
Q 1203 1872 1538 1913 
Q 2219 1994 2541 2106 
Q 2544 2222 2544 2253 
Q 2544 2597 2384 2738 
Q 2169 2928 1744 2928 
Q 1347 2928 1158 2789 
Q 969 2650 878 2297 
L 328 2372 
Q 403 2725 575 2942 
Q 747 3159 1072 3276 
Q 1397 3394 1825 3394 
Q 2250 3394 2515 3294 
Q 2781 3194 2906 3042 
Q 3031 2891 3081 2659 
Q 3109 2516 3109 2141 
L 3109 1391 
Q 3109 606 3145 398 
Q 3181 191 3288 0 
L 2700 0 
Q 2613 175 2588 409 
z
M 2541 1666 
Q 2234 1541 1622 1453 
Q 1275 1403 1131 1340 
Q 988 1278 909 1158 
Q 831 1038 831 891 
Q 831 666 1001 516 
Q 1172 366 1500 366 
Q 1825 366 2078 508 
Q 2331 650 2450 897 
Q 2541 1088 2541 1459 
L 2541 1666 
z
" transform="scale(0.015625)"/>
       <path id="ArialMT-79" d="M 397 -1278 
L 334 -750 
Q 519 -800 656 -800 
Q 844 -800 956 -737 
Q 1069 -675 1141 -563 
Q 1194 -478 1313 -144 
Q 1328 -97 1363 -6 
L 103 3319 
L 709 3319 
L 1400 1397 
Q 1534 1031 1641 628 
Q 1738 1016 1872 1384 
L 2581 3319 
L 3144 3319 
L 1881 -56 
Q 1678 -603 1566 -809 
Q 1416 -1088 1222 -1217 
Q 1028 -1347 759 -1347 
Q 597 -1347 397 -1278 
z
" transform="scale(0.015625)"/>
       <path id="ArialMT-73" d="M 197 991 
L 753 1078 
Q 800 744 1014 566 
Q 1228 388 1613 388 
Q 2000 388 2187 545 
Q 2375 703 2375 916 
Q 2375 1106 2209 1216 
Q 2094 1291 1634 1406 
Q 1016 1563 777 1677 
Q 538 1791 414 1992 
Q 291 2194 291 2438 
Q 291 2659 392 2848 
Q 494 3038 669 3163 
Q 800 3259 1026 3326 
Q 1253 3394 1513 3394 
Q 1903 3394 2198 3281 
Q 2494 3169 2634 2976 
Q 2775 2784 2828 2463 
L 2278 2388 
Q 2241 2644 2061 2787 
Q 1881 2931 1553 2931 
Q 1166 2931 1000 2803 
Q 834 2675 834 2503 
Q 834 2394 903 2306 
Q 972 2216 1119 2156 
Q 1203 2125 1616 2013 
Q 2213 1853 2448 1751 
Q 2684 1650 2818 1456 
Q 2953 1263 2953 975 
Q 2953 694 2789 445 
Q 2625 197 2315 61 
Q 2006 -75 1616 -75 
Q 969 -75 630 194 
Q 291 463 197 991 
z
" transform="scale(0.015625)"/>
      </defs>
      <use xlink:href="#ArialMT-44"/>
      <use xlink:href="#ArialMT-61" x="72.216797"/>
      <use xlink:href="#ArialMT-79" x="127.832031"/>
      <use xlink:href="#ArialMT-73" x="177.832031"/>
     </g>
    </g>
   </g>
   <g id="matplotlib.axis_2">
    <g id="ytick_1">
     <g id="line2d_6">
      <path d="M 72 353.878044 
L 518.4 353.878044 
" clip-path="url(#p3a19148da3)" style="fill: none; stroke: #ffffff; stroke-width: 0.8; stroke-linecap: round"/>
     </g>
     <g id="text_7">
      <!-- 1000 -->
      <g style="fill: #262626" transform="translate(42.75625 357.45695) scale(0.1 -0.1)">
       <defs>
        <path id="ArialMT-31" d="M 2384 0 
L 1822 0 
L 1822 3584 
Q 1619 3391 1289 3197 
Q 959 3003 697 2906 
L 697 3450 
Q 1169 3672 1522 3987 
Q 1875 4303 2022 4600 
L 2384 4600 
L 2384 0 
z
" transform="scale(0.015625)"/>
       </defs>
       <use xlink:href="#ArialMT-31"/>
       <use xlink:href="#ArialMT-30" x="55.615234"/>
       <use xlink:href="#ArialMT-30" x="111.230469"/>
       <use xlink:href="#ArialMT-30" x="166.845703"/>
      </g>
     </g>
    </g>
    <g id="ytick_2">
     <g id="line2d_7">
      <path d="M 72 313.504961 
L 518.4 313.504961 
" clip-path="url(#p3a19148da3)" style="fill: none; stroke: #ffffff; stroke-width: 0.8; stroke-linecap: round"/>
     </g>
     <g id="text_8">
      <!-- 1005 -->
      <g style="fill: #262626" transform="translate(42.75625 317.083867) scale(0.1 -0.1)">
       <defs>
        <path id="ArialMT-35" d="M 266 1200 
L 856 1250 
Q 922 819 1161 601 
Q 1400 384 1738 384 
Q 2144 384 2425 690 
Q 2706 997 2706 1503 
Q 2706 1984 2436 2262 
Q 2166 2541 1728 2541 
Q 1456 2541 1237 2417 
Q 1019 2294 894 2097 
L 366 2166 
L 809 4519 
L 3088 4519 
L 3088 3981 
L 1259 3981 
L 1013 2750 
Q 1425 3038 1878 3038 
Q 2478 3038 2890 2622 
Q 3303 2206 3303 1553 
Q 3303 931 2941 478 
Q 2500 -78 1738 -78 
Q 1113 -78 717 272 
Q 322 622 266 1200 
z
" transform="scale(0.015625)"/>
       </defs>
       <use xlink:href="#ArialMT-31"/>
       <use xlink:href="#ArialMT-30" x="55.615234"/>
       <use xlink:href="#ArialMT-30" x="111.230469"/>
       <use xlink:href="#ArialMT-35" x="166.845703"/>
      </g>
     </g>
    </g>
    <g id="ytick_3">
     <g id="line2d_8">
      <path d="M 72 273.131878 
L 518.4 273.131878 
" clip-path="url(#p3a19148da3)" style="fill: none; stroke: #ffffff; stroke-width: 0.8; stroke-linecap: round"/>
     </g>
     <g id="text_9">
      <!-- 1010 -->
      <g style="fill: #262626" transform="translate(42.75625 276.710784) scale(0.1 -0.1)">
       <use xlink:href="#ArialMT-31"/>
       <use xlink:href="#ArialMT-30" x="55.615234"/>
       <use xlink:href="#ArialMT-31" x="111.230469"/>
       <use xlink:href="#ArialMT-30" x="166.845703"/>
      </g>
     </g>
    </g>
    <g id="ytick_4">
     <g id="line2d_9">
      <path d="M 72 232.758795 
L 518.4 232.758795 
" clip-path="url(#p3a19148da3)" style="fill: none; stroke: #ffffff; stroke-width: 0.8; stroke-linecap: round"/>
     </g>
     <g id="text_10">
      <!-- 1015 -->
      <g style="fill: #262626" transform="translate(42.75625 236.337701) scale(0.1 -0.1)">
       <use xlink:href="#ArialMT-31"/>
       <use xlink:href="#ArialMT-30" x="55.615234"/>
       <use xlink:href="#ArialMT-31" x="111.230469"/>
       <use xlink:href="#ArialMT-35" x="166.845703"/>
      </g>
     </g>
    </g>
    <g id="ytick_5">
     <g id="line2d_10">
      <path d="M 72 192.385712 
L 518.4 192.385712 
" clip-path="url(#p3a19148da3)" style="fill: none; stroke: #ffffff; stroke-width: 0.8; stroke-linecap: round"/>
     </g>
     <g id="text_11">
      <!-- 1020 -->
      <g style="fill: #262626" transform="translate(42.75625 195.964618) scale(0.1 -0.1)">
       <use xlink:href="#ArialMT-31"/>
       <use xlink:href="#ArialMT-30" x="55.615234"/>
       <use xlink:href="#ArialMT-32" x="111.230469"/>
       <use xlink:href="#ArialMT-30" x="166.845703"/>
      </g>
     </g>
    </g>
    <g id="ytick_6">
     <g id="line2d_11">
      <path d="M 72 152.012628 
L 518.4 152.012628 
" clip-path="url(#p3a19148da3)" style="fill: none; stroke: #ffffff; stroke-width: 0.8; stroke-linecap: round"/>
     </g>
     <g id="text_12">
      <!-- 1025 -->
      <g style="fill: #262626" transform="translate(42.75625 155.591535) scale(0.1 -0.1)">
       <use xlink:href="#ArialMT-31"/>
       <use xlink:href="#ArialMT-30" x="55.615234"/>
       <use xlink:href="#ArialMT-32" x="111.230469"/>
       <use xlink:href="#ArialMT-35" x="166.845703"/>
      </g>
     </g>
    </g>
    <g id="ytick_7">
     <g id="line2d_12">
      <path d="M 72 111.639545 
L 518.4 111.639545 
" clip-path="url(#p3a19148da3)" style="fill: none; stroke: #ffffff; stroke-width: 0.8; stroke-linecap: round"/>
     </g>
     <g id="text_13">
      <!-- 1030 -->
      <g style="fill: #262626" transform="translate(42.75625 115.218452) scale(0.1 -0.1)">
       <defs>
        <path id="ArialMT-33" d="M 269 1209 
L 831 1284 
Q 928 806 1161 595 
Q 1394 384 1728 384 
Q 2125 384 2398 659 
Q 2672 934 2672 1341 
Q 2672 1728 2419 1979 
Q 2166 2231 1775 2231 
Q 1616 2231 1378 2169 
L 1441 2663 
Q 1497 2656 1531 2656 
Q 1891 2656 2178 2843 
Q 2466 3031 2466 3422 
Q 2466 3731 2256 3934 
Q 2047 4138 1716 4138 
Q 1388 4138 1169 3931 
Q 950 3725 888 3313 
L 325 3413 
Q 428 3978 793 4289 
Q 1159 4600 1703 4600 
Q 2078 4600 2393 4439 
Q 2709 4278 2876 4000 
Q 3044 3722 3044 3409 
Q 3044 3113 2884 2869 
Q 2725 2625 2413 2481 
Q 2819 2388 3044 2092 
Q 3269 1797 3269 1353 
Q 3269 753 2831 336 
Q 2394 -81 1725 -81 
Q 1122 -81 723 278 
Q 325 638 269 1209 
z
" transform="scale(0.015625)"/>
       </defs>
       <use xlink:href="#ArialMT-31"/>
       <use xlink:href="#ArialMT-30" x="55.615234"/>
       <use xlink:href="#ArialMT-33" x="111.230469"/>
       <use xlink:href="#ArialMT-30" x="166.845703"/>
      </g>
     </g>
    </g>
    <g id="ytick_8">
     <g id="line2d_13">
      <path d="M 72 71.266462 
L 518.4 71.266462 
" clip-path="url(#p3a19148da3)" style="fill: none; stroke: #ffffff; stroke-width: 0.8; stroke-linecap: round"/>
     </g>
     <g id="text_14">
      <!-- 1035 -->
      <g style="fill: #262626" transform="translate(42.75625 74.845368) scale(0.1 -0.1)">
       <use xlink:href="#ArialMT-31"/>
       <use xlink:href="#ArialMT-30" x="55.615234"/>
       <use xlink:href="#ArialMT-33" x="111.230469"/>
       <use xlink:href="#ArialMT-35" x="166.845703"/>
      </g>
     </g>
    </g>
    <g id="text_15">
     <!-- (hPa) -->
     <g style="fill: #262626" transform="translate(36.651562 230.385781) rotate(-90) scale(0.1 -0.1)">
      <defs>
       <path id="ArialMT-28" d="M 1497 -1347 
Q 1031 -759 709 28 
Q 388 816 388 1659 
Q 388 2403 628 3084 
Q 909 3875 1497 4659 
L 1900 4659 
Q 1522 4009 1400 3731 
Q 1209 3300 1100 2831 
Q 966 2247 966 1656 
Q 966 153 1900 -1347 
L 1497 -1347 
z
" transform="scale(0.015625)"/>
       <path id="ArialMT-68" d="M 422 0 
L 422 4581 
L 984 4581 
L 984 2938 
Q 1378 3394 1978 3394 
Q 2347 3394 2619 3248 
Q 2891 3103 3008 2847 
Q 3125 2591 3125 2103 
L 3125 0 
L 2563 0 
L 2563 2103 
Q 2563 2525 2380 2717 
Q 2197 2909 1863 2909 
Q 1613 2909 1392 2779 
Q 1172 2650 1078 2428 
Q 984 2206 984 1816 
L 984 0 
L 422 0 
z
" transform="scale(0.015625)"/>
       <path id="ArialMT-50" d="M 494 0 
L 494 4581 
L 2222 4581 
Q 2678 4581 2919 4538 
Q 3256 4481 3484 4323 
Q 3713 4166 3852 3881 
Q 3991 3597 3991 3256 
Q 3991 2672 3619 2267 
Q 3247 1863 2275 1863 
L 1100 1863 
L 1100 0 
L 494 0 
z
M 1100 2403 
L 2284 2403 
Q 2872 2403 3119 2622 
Q 3366 2841 3366 3238 
Q 3366 3525 3220 3729 
Q 3075 3934 2838 4000 
Q 2684 4041 2272 4041 
L 1100 4041 
L 1100 2403 
z
" transform="scale(0.015625)"/>
       <path id="ArialMT-29" d="M 791 -1347 
L 388 -1347 
Q 1322 153 1322 1656 
Q 1322 2244 1188 2822 
Q 1081 3291 891 3722 
Q 769 4003 388 4659 
L 791 4659 
Q 1378 3875 1659 3084 
Q 1900 2403 1900 1659 
Q 1900 816 1576 28 
Q 1253 -759 791 -1347 
z
" transform="scale(0.015625)"/>
      </defs>
      <use xlink:href="#ArialMT-28"/>
      <use xlink:href="#ArialMT-68" x="33.300781"/>
      <use xlink:href="#ArialMT-50" x="88.916016"/>
      <use xlink:href="#ArialMT-61" x="155.615234"/>
      <use xlink:href="#ArialMT-29" x="211.230469"/>
     </g>
    </g>
   </g>
   <g id="line2d_14">
    <path d="M 92.290909 244.08008 
L 92.758981 244.231479 
L 93.227053 264.726426 
L 93.695124 268.393648 
L 94.163196 254.683622 
L 94.631268 228.586909 
L 95.099339 227.392539 
L 95.567411 222.626272 
L 96.035483 221.375828 
L 96.503555 222.727205 
L 96.971626 227.140207 
L 97.439698 244.007184 
L 97.90777 249.109893 
L 98.375841 261.176959 
L 98.843913 276.90564 
L 99.311985 285.232588 
L 100.248128 326.52528 
L 100.7162 281.015844 
L 101.184272 255.070531 
L 101.652344 271.814145 
L 102.120415 299.755683 
L 102.588487 298.477202 
L 103.52463 171.896372 
L 103.992702 156.397594 
L 104.460774 160.367614 
L 104.928846 191.718434 
L 105.396917 189.694173 
L 105.864989 168.840354 
L 106.333061 183.806431 
L 106.801132 192.957664 
L 107.269204 229.882213 
L 107.737276 242.055819 
L 108.205348 233.829803 
L 108.673419 209.213437 
L 109.141491 197.157586 
L 109.609563 214.663803 
L 110.545706 288.714766 
L 111.48185 203.078971 
L 111.949921 250.657528 
L 112.417993 242.930569 
L 112.886065 275.918742 
L 113.354137 281.240139 
L 113.822208 274.02345 
L 114.29028 264.541383 
L 114.758352 191.522176 
L 115.226423 140.982926 
L 115.694495 221.162748 
L 116.162567 200.275285 
L 116.630639 82.374667 
L 117.09871 94.71673 
L 117.566782 147.005245 
L 118.034854 168.230098 
L 118.502925 163.905213 
L 118.970997 172.587655 
L 119.439069 246.347866 
L 119.907141 277.908799 
L 120.375212 260.802948 
L 120.843284 157.289727 
L 121.311356 175.518735 
L 121.779427 234.638386 
L 122.247499 269.844275 
L 122.715571 314.931925 
L 123.183643 310.59866 
L 123.651714 300.645013 
L 124.587858 172.554117 
L 125.05593 152.061413 
L 125.524001 193.301023 
L 125.992073 201.761239 
L 126.460145 182.376551 
L 126.928216 136.586746 
L 127.396288 121.57581 
L 127.86436 150.773399 
L 128.332432 234.437618 
L 128.800503 261.720874 
L 129.268575 174.066864 
L 129.736647 149.466881 
L 130.204718 148.367836 
L 130.67279 174.29072 
L 131.608934 270.782389 
L 132.077005 220.565383 
L 132.545077 201.150035 
L 133.013149 235.349401 
L 133.481221 188.948392 
L 133.949292 192.9857 
L 134.885436 300.675292 
L 135.353507 289.583909 
L 135.821579 247.971597 
L 136.289651 190.804432 
L 137.225794 231.155086 
L 137.693866 207.93076 
L 138.630009 206.981703 
L 139.098081 198.40803 
L 139.566153 196.972542 
L 140.034225 218.527283 
L 140.502296 220.495471 
L 140.970368 189.178294 
L 141.43844 130.177519 
L 141.906511 155.842464 
L 142.374583 221.773952 
L 142.842655 204.778005 
L 143.310727 145.866948 
L 143.778798 124.334637 
L 144.714942 169.412306 
L 145.183014 182.264404 
L 145.651085 242.784777 
L 146.587229 142.205334 
L 147.523372 287.716654 
L 147.991444 186.475541 
L 148.459516 200.135101 
L 148.927587 172.485146 
L 149.395659 193.43429 
L 149.863731 186.884879 
L 150.331802 256.354619 
L 150.799874 165.79555 
L 151.267946 186.223209 
L 151.736018 216.744138 
L 152.204089 214.002133 
L 152.672161 223.007574 
L 153.140233 258.709715 
L 153.608304 265.780612 
L 154.076376 268.092401 
L 154.544448 285.211504 
L 155.01252 246.009016 
L 155.480591 115.631995 
L 155.948663 116.344131 
L 156.884807 257.745247 
L 157.352878 170.919741 
L 157.82095 180.35229 
L 158.289022 258.990084 
L 159.225165 335.474647 
L 159.693237 302.839738 
L 160.161309 219.934733 
L 160.62938 260.823695 
L 161.097452 239.319421 
L 161.565524 272.352453 
L 162.033595 269.571196 
L 162.501667 252.109838 
L 162.969739 170.040332 
L 163.437811 190.395094 
L 163.905882 221.061815 
L 164.373954 240.446503 
L 164.842026 253.528503 
L 165.310098 247.382823 
L 165.778169 262.489085 
L 166.246241 261.345181 
L 166.714313 160.121125 
L 167.182384 101.85966 
L 167.650456 121.059931 
L 168.118528 205.949946 
L 168.5866 268.135709 
L 169.054671 300.619219 
L 169.990815 240.160527 
L 170.458886 275.413098 
L 170.926958 332.110223 
L 171.39503 264.928292 
L 171.863102 152.331064 
L 172.331173 137.640932 
L 172.799245 151.328529 
L 173.267317 156.526563 
L 173.735388 170.87583 
L 174.20346 181.698059 
L 174.671532 177.430849 
L 175.139604 217.058151 
L 175.607675 235.007351 
L 176.075747 237.59235 
L 176.543819 222.63188 
L 177.011891 184.944728 
L 177.479962 195.615558 
L 177.948034 221.622553 
L 178.416106 257.206939 
L 178.884177 264.732034 
L 179.352249 161.395632 
L 179.820321 169.143152 
L 180.288393 183.027289 
L 180.756464 224.280447 
L 181.224536 251.279594 
L 181.692608 269.509515 
L 182.160679 299.525781 
L 182.628751 276.956106 
L 183.096823 242.167966 
L 183.564895 261.143315 
L 184.032966 331.667241 
L 184.501038 346.599674 
L 184.96911 321.287994 
L 185.437182 339.685784 
L 185.905253 219.183346 
L 186.841397 265.948833 
L 187.309468 314.037661 
L 187.77754 298.731075 
L 188.245612 220.070918 
L 188.713684 235.226039 
L 189.181755 270.574916 
L 189.649827 263.814119 
L 190.117899 266.408638 
L 190.58597 301.953773 
L 191.522114 229.999967 
L 191.990186 265.539495 
L 192.458257 286.819474 
L 192.926329 284.221452 
L 193.862472 305.346234 
L 194.330544 291.552097 
L 194.798616 289.53905 
L 195.734759 282.249466 
L 196.202831 274.068309 
L 196.670903 282.104301 
L 197.138975 337.201718 
L 197.607046 323.379544 
L 198.075118 268.617943 
L 198.54319 266.010515 
L 199.011261 271.875826 
L 199.479333 269.845957 
L 199.947405 252.883655 
L 200.415477 243.54738 
L 200.883548 255.849955 
L 201.35162 304.544379 
L 201.819692 336.069029 
L 202.287763 307.101341 
L 203.223907 348.287494 
L 203.691979 334.061589 
L 204.16005 296.376466 
L 204.628122 282.17657 
L 205.564265 263.313368 
L 206.032337 285.126048 
L 206.500409 326.746203 
L 206.968481 336.4279 
L 207.436552 293.127769 
L 207.904624 271.561813 
L 208.372696 268.847845 
L 208.840768 279.058871 
L 209.308839 271.651531 
L 209.776911 279.283166 
L 210.244983 295.348288 
L 210.713054 304.101397 
L 211.181126 309.977924 
L 211.649198 309.338683 
L 212.11727 289.763345 
L 212.585341 210.579009 
L 213.053413 218.017012 
L 213.521485 242.739918 
L 213.989556 230.639208 
L 215.393772 297.165077 
L 215.861843 288.42879 
L 216.329915 275.503796 
L 217.266059 303.686451 
L 217.73413 299.755683 
L 218.202202 291.165188 
L 218.670274 298.914577 
L 219.138345 295.746412 
L 219.606417 253.192061 
L 220.074489 243.104397 
L 220.542561 226.383212 
L 221.010632 225.699113 
L 221.478704 235.618555 
L 221.946776 248.81831 
L 222.414847 255.558372 
L 223.350991 281.111169 
L 223.819063 275.397256 
L 224.287134 254.128492 
L 224.755206 241.38113 
L 225.223278 250.152865 
L 225.691349 270.64738 
L 226.159421 272.016011 
L 226.627493 263.840461 
L 227.095565 258.894759 
L 227.563636 270.005742 
L 228.031708 289.07007 
L 228.49978 276.894425 
L 228.967852 275.130769 
L 229.435923 266.621718 
L 229.903995 261.664801 
L 230.372067 265.707716 
L 230.840138 271.578636 
L 231.30821 273.59729 
L 231.776282 279.389706 
L 232.244354 261.23864 
L 232.712425 232.921409 
L 233.180497 218.970265 
L 233.648569 228.732701 
L 234.11664 224.863614 
L 234.584712 227.089741 
L 235.052784 247.360393 
L 235.520856 261.479757 
L 235.988927 256.39387 
L 236.456999 252.754686 
L 236.925071 251.227974 
L 237.393142 257.476093 
L 237.861214 266.840406 
L 238.329286 270.406695 
L 238.797358 270.569309 
L 239.265429 278.183358 
L 239.733501 277.914967 
L 240.201573 284.783998 
L 240.669645 285.440061 
L 241.137716 280.174738 
L 241.605788 268.94317 
L 242.07386 278.503741 
L 242.541931 285.473705 
L 243.010003 268.444114 
L 243.478075 262.024923 
L 244.414218 292.63432 
L 244.88229 292.196945 
L 245.350362 273.546823 
L 245.818433 259.74863 
L 246.286505 259.605463 
L 246.754577 279.221485 
L 247.222649 281.991527 
L 247.69072 270.193615 
L 248.158792 283.034498 
L 248.626864 305.413522 
L 249.094936 290.67174 
L 249.563007 249.894926 
L 250.031079 247.422074 
L 250.499151 255.687342 
L 250.967222 251.975261 
L 251.435294 242.257684 
L 251.903366 244.472596 
L 252.371438 254.582689 
L 252.839509 243.882003 
L 253.307581 245.355197 
L 253.775653 253.052998 
L 254.243724 237.345626 
L 254.711796 235.663414 
L 255.179868 221.145926 
L 255.64794 220.416967 
L 256.116011 236.179292 
L 256.584083 246.345459 
L 257.052155 263.363835 
L 257.520226 268.259581 
L 257.988298 285.838184 
L 258.45637 274.483255 
L 258.924442 254.442505 
L 259.392513 249.816422 
L 259.860585 248.655696 
L 260.328657 270.249688 
L 260.796729 278.22898 
L 261.2648 277.466377 
L 261.732872 293.122161 
L 262.200944 291.260514 
L 262.669015 268.662802 
L 263.137087 267.574972 
L 263.605159 268.550654 
L 264.073231 263.111503 
L 265.009374 234.037276 
L 265.477446 249.289329 
L 265.945517 255.513513 
L 266.413589 229.999967 
L 266.881661 233.482146 
L 267.349733 272.049655 
L 267.817804 292.090405 
L 268.753948 180.789665 
L 269.22202 236.728815 
L 269.690091 251.795825 
L 270.158163 271.69639 
L 270.626235 232.170021 
L 271.094306 240.766123 
L 271.562378 288.641871 
L 272.03045 309.89942 
L 272.498522 303.832243 
L 272.966593 290.211935 
L 273.434665 214.288109 
L 273.902737 236.285832 
L 274.370808 268.903919 
L 274.83888 201.357508 
L 275.306952 224.82997 
L 275.775024 262.253575 
L 276.243095 269.980534 
L 276.711167 282.333576 
L 277.179239 250.820142 
L 277.64731 113.175965 
L 278.115382 153.818202 
L 278.583454 151.451891 
L 279.051526 190.305376 
L 279.519597 240.911915 
L 279.987669 223.272532 
L 280.455741 214.433901 
L 280.923813 223.265513 
L 281.391884 145.491254 
L 281.859956 157.2387 
L 282.328028 204.581747 
L 282.796099 231.940118 
L 283.264171 92.159533 
L 283.732243 153.767736 
L 284.200315 175.232759 
L 284.668386 131.741976 
L 285.60453 227.11217 
L 286.072601 236.779281 
L 287.008745 267.120774 
L 287.476817 267.19367 
L 287.944888 250.455663 
L 288.41296 206.701334 
L 288.881032 220.557152 
L 289.349103 291.462379 
L 289.817175 316.813311 
L 290.285247 227.953276 
L 290.753319 196.394983 
L 291.22139 235.007351 
L 291.689462 286.073694 
L 292.157534 205.630326 
L 292.625606 164.309597 
L 293.093677 221.465546 
L 293.561749 224.757074 
L 294.029821 231.648535 
L 294.497892 195.542662 
L 294.965964 172.720656 
L 295.902108 290.699776 
L 296.838251 119.046885 
L 297.306323 171.173021 
L 297.774394 237.368055 
L 298.710538 303.725703 
L 299.17861 274.802875 
L 299.646681 131.091521 
L 300.114753 101.013574 
L 300.582825 146.321145 
L 301.050897 169.159974 
L 301.518968 140.573588 
L 301.98704 156.907865 
L 303.391255 265.758183 
L 303.859327 242.818421 
L 304.327399 249.306151 
L 304.79547 306.764899 
L 305.263542 263.902142 
L 305.731614 195.380049 
L 306.199685 177.57664 
L 306.667757 229.433623 
L 307.135829 309.826525 
L 307.603901 247.924581 
L 308.071972 122.085728 
L 308.540044 144.117448 
L 309.008116 197.875329 
L 309.476187 131.046662 
L 309.944259 179.511184 
L 310.880403 291.838073 
L 311.348474 202.635989 
L 311.816546 199.254743 
L 312.284618 203.168689 
L 312.75269 218.162804 
L 313.220761 227.790663 
L 313.688833 203.404199 
L 314.156905 202.097681 
L 314.624976 191.028727 
L 315.093048 121.783282 
L 315.56112 98.148207 
L 316.029192 138.449531 
L 316.497263 230.824251 
L 316.965335 234.917633 
L 317.433407 200.892096 
L 318.36955 236.487698 
L 318.837622 253.965878 
L 319.305694 260.70594 
L 319.773765 215.858174 
L 320.241837 231.026117 
L 321.17798 138.941843 
L 321.646052 191.802545 
L 322.114124 273.014123 
L 322.582196 304.364944 
L 323.050267 296.138928 
L 323.518339 257.156473 
L 323.986411 251.179014 
L 324.454483 231.345737 
L 324.922554 262.881601 
L 325.390626 281.139206 
L 325.858698 253.741583 
L 326.326769 246.109949 
L 326.794841 185.634435 
L 327.262913 143.147372 
L 328.667128 283.645702 
L 329.1352 270.064645 
L 329.603271 189.346516 
L 330.071343 140.478263 
L 330.539415 66.96 
L 331.475558 235.84285 
L 331.94363 278.756073 
L 332.411702 268.012347 
L 332.879774 118.676798 
L 333.347845 124.457999 
L 333.815917 136.783004 
L 334.283989 188.639987 
L 334.75206 265.668465 
L 335.220132 306.361168 
L 335.688204 314.721761 
L 336.156276 286.370885 
L 336.624347 159.453612 
L 337.092419 130.26163 
L 337.560491 156.150869 
L 338.028562 189.290442 
L 338.496634 193.204388 
L 338.964706 184.182125 
L 339.432778 225.36267 
L 339.900849 277.449555 
L 340.368921 281.784054 
L 341.305064 214.422686 
L 341.773136 215.179681 
L 342.241208 246.429569 
L 342.70928 258.249911 
L 343.177351 278.555914 
L 343.645423 209.970432 
L 344.113495 179.808375 
L 345.51771 274.999133 
L 345.985782 285.958319 
L 346.921925 333.214876 
L 347.389997 296.060425 
L 347.858069 223.170187 
L 348.32614 254.392038 
L 348.794212 248.106174 
L 349.262284 262.999355 
L 349.730355 294.647367 
L 350.198427 291.109115 
L 351.134571 233.437287 
L 351.602642 244.338019 
L 352.070714 244.95483 
L 353.006858 288.137207 
L 353.474929 259.70222 
L 354.411073 353.005113 
L 354.879144 256.507223 
L 355.815288 190.316591 
L 356.28336 210.777894 
L 356.751431 249.003353 
L 357.219503 266.750688 
L 357.687575 312.910579 
L 358.155646 295.617442 
L 358.623718 286.752186 
L 359.09179 320.80576 
L 359.559862 307.841515 
L 360.027933 302.789272 
L 360.496005 270.193615 
L 360.964077 199.148203 
L 361.90022 272.066477 
L 362.368292 261.36761 
L 362.836364 214.966601 
L 363.304435 247.640762 
L 364.240579 267.070308 
L 364.708651 290.475481 
L 365.176722 280.836408 
L 365.644794 222.912248 
L 366.112866 239.711937 
L 366.580937 268.713268 
L 367.049009 209.005964 
L 367.517081 200.028561 
L 367.985153 224.471098 
L 368.453224 263.896535 
L 368.921296 280.741083 
L 369.389368 281.913023 
L 369.857439 314.166631 
L 370.325511 312.041437 
L 370.793583 267.776837 
L 371.261655 268.780557 
L 371.729726 298.768786 
L 372.197798 317.660024 
L 372.66587 303.153751 
L 373.133941 299.262234 
L 373.602013 300.983698 
L 374.538157 317.783386 
L 375.006228 262.298434 
L 375.4743 269.139429 
L 375.942372 271.477703 
L 376.410444 215.401232 
L 376.878515 218.454387 
L 377.346587 226.6019 
L 377.814659 225.965953 
L 378.28273 234.076527 
L 379.218874 276.165466 
L 379.686946 269.682354 
L 380.155017 278.167298 
L 381.091161 332.233586 
L 381.559232 312.613389 
L 382.027304 237.267122 
L 382.495376 190.922187 
L 382.963448 188.286722 
L 383.431519 218.241307 
L 383.899591 231.149479 
L 384.367663 224.263625 
L 384.835735 233.084022 
L 385.771878 267.00302 
L 386.23995 264.395591 
L 386.708021 257.73964 
L 387.176093 271.29266 
L 387.644165 280.2981 
L 388.112237 282.120496 
L 388.580308 274.012235 
L 389.516452 247.298712 
L 389.984523 258.558316 
L 390.920667 294.395035 
L 391.388739 287.520396 
L 391.85681 282.84427 
L 392.792954 262.541153 
L 393.261025 269.75624 
L 393.729097 286.365277 
L 394.197169 287.133487 
L 394.665241 278.043936 
L 395.133312 279.251075 
L 395.601384 289.64559 
L 396.069456 265.264734 
L 396.537528 254.296713 
L 397.473671 281.212102 
L 397.941743 280.006517 
L 399.345958 252.973373 
L 399.81403 250.573418 
L 400.282101 251.638818 
L 400.750173 266.644148 
L 401.218245 275.038385 
L 401.686316 269.576804 
L 402.154388 269.374938 
L 402.62246 277.337407 
L 403.090532 290.643703 
L 403.558603 307.187761 
L 404.026675 254.829413 
L 404.494747 246.584114 
L 404.962818 247.468149 
L 405.43089 250.607062 
L 405.898962 254.54024 
L 406.367034 241.141817 
L 406.835105 242.476372 
L 407.303177 238.214768 
L 407.771249 241.4334 
L 408.239321 252.491139 
L 408.707392 256.02984 
L 409.643536 235.954997 
L 410.111607 234.951277 
L 410.579679 243.99597 
L 411.047751 259.236808 
L 411.515823 262.803097 
L 411.983894 260.268565 
L 412.451966 262.147035 
L 412.920038 262.579402 
L 413.388109 228.118733 
L 413.856181 238.113836 
L 414.792325 283.572806 
L 415.260396 293.177114 
L 415.728468 255.762063 
L 416.19654 261.003131 
L 416.664612 288.955883 
L 417.132683 300.193058 
L 417.600755 292.746467 
L 418.068827 290.335297 
L 418.536898 308.46954 
L 419.00497 314.676902 
L 419.941114 284.705495 
L 420.409185 271.22554 
L 420.877257 243.053931 
L 421.345329 205.961834 
L 421.8134 218.655131 
L 422.749544 302.748849 
L 423.217616 286.051264 
L 423.685687 288.39795 
L 424.153759 287.509181 
L 424.621831 285.305484 
L 425.089902 267.474039 
L 425.557974 263.380657 
L 426.026046 262.528336 
L 426.494118 258.642427 
L 426.962189 261.692838 
L 427.430261 262.988141 
L 427.898333 263.515234 
L 428.366405 259.80876 
L 428.834476 238.769898 
L 429.302548 232.125162 
L 429.77062 241.231535 
L 430.238691 259.819975 
L 430.706763 288.249355 
L 431.174835 285.255018 
L 431.642907 269.705773 
L 432.110978 259.242416 
L 432.57905 245.240806 
L 433.047122 244.97726 
L 433.515193 249.003353 
L 433.983265 243.300655 
L 434.451337 252.216378 
L 434.919409 248.358505 
L 435.38748 249.810815 
L 436.323624 282.142926 
L 436.791696 278.268231 
L 437.259767 261.519009 
L 438.195911 279.137374 
L 438.663982 267.148811 
L 439.132054 264.44045 
L 439.600126 279.541105 
L 440.068198 283.079357 
L 440.536269 273.586075 
L 441.004341 252.653753 
L 441.472413 248.083744 
L 441.940484 277.494414 
L 442.408556 296.940782 
L 442.876628 288.316643 
L 443.812771 243.76046 
L 444.280843 253.629436 
L 444.748915 258.423739 
L 445.216986 237.278337 
L 445.685058 240.014735 
L 446.15313 235.915746 
L 446.621202 220.147814 
L 447.089273 228.160749 
L 447.557345 272.543104 
L 448.025417 306.310702 
L 448.96156 224.280447 
L 449.429632 234.928848 
L 449.897704 259.870442 
L 450.365775 255.160248 
L 450.833847 239.02223 
L 451.301919 243.575417 
L 451.769991 256.051821 
L 452.238062 257.117222 
L 452.706134 252.513569 
L 453.174206 242.616556 
L 453.642277 243.749245 
L 454.110349 242.353009 
L 454.578421 242.43712 
L 455.046493 246.737975 
L 455.514564 255.664912 
L 455.982636 228.306541 
L 456.450708 211.265735 
L 456.918779 186.374608 
L 457.386851 188.415692 
L 457.854923 235.876494 
L 458.322995 246.743582 
L 458.791066 216.12172 
L 459.259138 207.783557 
L 459.72721 219.766512 
L 460.195282 221.588908 
L 461.131425 178.799048 
L 461.599497 167.466547 
L 462.53564 200.981814 
L 463.471784 247.960382 
L 463.939855 256.405085 
L 464.407927 257.07797 
L 464.875999 252.137875 
L 465.34407 267.064701 
L 465.812142 252.603287 
L 466.280214 160.575087 
L 466.748286 145.289389 
L 467.216357 197.073475 
L 468.152501 264.188118 
L 469.088644 299.800542 
L 469.556716 228.715879 
L 470.024788 237.603565 
L 470.492859 265.376881 
L 470.960931 240.979203 
L 471.429003 198.329527 
L 471.897075 231.727038 
L 472.365146 242.644593 
L 472.833218 211.119944 
L 473.30129 193.697837 
L 474.237433 289.3484 
L 474.705505 254.100455 
L 475.173577 261.967599 
L 475.641648 224.235588 
L 476.10972 207.469544 
L 476.577792 222.744027 
L 477.045863 274.601009 
L 477.513935 291.372661 
L 477.982007 174.918746 
L 478.450079 188.03439 
L 478.91815 251.487419 
L 479.386222 165.829195 
L 479.854294 125.366394 
L 480.322366 110.809654 
L 480.790437 159.206888 
L 481.258509 141.409087 
L 481.726581 112.878775 
L 482.194652 127.867282 
L 482.662724 153.156532 
L 483.598868 264.720819 
L 484.066939 216.037609 
L 484.535011 224.201944 
L 485.003083 250.511737 
L 485.471154 252.216378 
L 485.939226 284.312979 
L 486.407298 189.571647 
L 486.87537 157.087301 
L 487.343441 194.561372 
L 487.811513 162.212144 
L 488.279585 240.571532 
L 488.747656 205.02473 
L 489.215728 202.321976 
L 490.151872 236.762459 
L 490.619943 226.467323 
L 491.556087 317.559209 
L 492.024159 268.595513 
L 492.49223 233.639152 
L 492.960302 236.958717 
L 493.428374 182.071964 
L 493.896445 175.40098 
L 494.364517 203.471487 
L 494.832589 158.108964 
L 495.300661 177.223376 
L 496.236804 288.10917 
L 496.704876 301.073416 
L 497.172947 324.98886 
L 497.641019 369.36 
L 498.109091 299.656559 
L 498.109091 299.656559 
" clip-path="url(#p3a19148da3)" style="fill: none; stroke: #1f77b4; stroke-width: 1.5; stroke-linecap: round"/>
   </g>
   <g id="line2d_15">
    <path d="M 92.290909 251.027283 
L 92.758981 246.384199 
L 93.227053 246.796196 
L 93.695124 249.342071 
L 94.163196 241.516664 
L 94.631268 236.294292 
L 95.099339 222.688692 
L 95.567411 227.688469 
L 96.035483 224.795236 
L 96.971626 239.592677 
L 97.439698 241.725456 
L 97.90777 251.154056 
L 98.375841 253.353725 
L 98.843913 262.753727 
L 99.311985 253.649796 
L 99.780057 259.013204 
L 100.248128 268.218652 
L 100.7162 274.660957 
L 101.652344 253.415095 
L 102.120415 262.659688 
L 102.588487 276.018678 
L 103.056559 275.772697 
L 103.52463 233.846902 
L 103.992702 232.765846 
L 104.460774 240.497311 
L 104.928846 241.083667 
L 105.396917 234.274221 
L 105.864989 221.717842 
L 106.333061 233.092574 
L 106.801132 232.306595 
L 107.269204 214.32032 
L 107.737276 209.146959 
L 108.673419 220.951405 
L 109.141491 207.135577 
L 109.609563 209.113579 
L 110.077634 210.553522 
L 111.013778 223.95185 
L 112.417993 203.770897 
L 112.886065 212.622886 
L 113.354137 219.312748 
L 113.822208 218.972183 
L 114.29028 214.932833 
L 114.758352 218.364031 
L 115.226423 205.60567 
L 115.694495 208.440405 
L 116.162567 205.164615 
L 116.630639 197.518611 
L 117.09871 182.239078 
L 118.034854 221.485385 
L 118.502925 206.87053 
L 118.970997 215.99617 
L 119.439069 209.434574 
L 119.907141 207.432713 
L 120.375212 173.293849 
L 121.311356 194.848554 
L 121.779427 213.771528 
L 122.247499 210.403161 
L 122.715571 204.400662 
L 123.183643 191.783271 
L 123.651714 188.678049 
L 124.119786 197.31191 
L 124.587858 211.38899 
L 125.05593 228.814829 
L 125.524001 220.773235 
L 125.992073 218.538847 
L 126.460145 211.723028 
L 126.928216 225.581373 
L 127.396288 227.084401 
L 127.86436 214.913055 
L 128.332432 217.843859 
L 128.800503 215.542023 
L 129.268575 228.405913 
L 129.736647 223.818366 
L 130.204718 213.070984 
L 130.67279 224.838085 
L 131.140862 229.569189 
L 131.608934 211.374622 
L 132.077005 210.314332 
L 132.545077 207.715746 
L 133.013149 209.839889 
L 133.481221 211.2172 
L 133.949292 208.919837 
L 134.417364 214.704734 
L 134.885436 200.672566 
L 135.353507 191.840279 
L 135.821579 193.107336 
L 136.289651 195.276912 
L 136.757723 201.112734 
L 137.225794 188.365571 
L 137.693866 187.942494 
L 138.161938 197.046274 
L 139.098081 179.60799 
L 140.034225 220.259335 
L 140.502296 211.840199 
L 140.970368 210.861968 
L 141.43844 218.303759 
L 141.906511 206.810223 
L 142.374583 206.318662 
L 142.842655 194.869329 
L 143.310727 206.72595 
L 143.778798 197.723728 
L 144.714942 218.781777 
L 145.183014 208.49421 
L 145.651085 219.820382 
L 146.119157 220.254897 
L 146.587229 215.56998 
L 147.0553 217.289097 
L 147.523372 205.609503 
L 147.991444 201.088255 
L 148.459516 211.930279 
L 149.395659 225.010796 
L 149.863731 219.850274 
L 150.331802 210.638611 
L 150.799874 197.257599 
L 151.736018 217.96779 
L 152.204089 209.068891 
L 152.672161 218.067078 
L 153.140233 214.362449 
L 153.608304 220.934081 
L 154.076376 207.94367 
L 154.544448 224.300042 
L 155.01252 210.064449 
L 155.480591 231.420684 
L 155.948663 191.661459 
L 156.416735 188.801561 
L 156.884807 203.92535 
L 157.352878 200.444102 
L 157.82095 187.683482 
L 158.289022 210.178429 
L 158.757093 206.718749 
L 159.225165 210.620659 
L 159.693237 210.051543 
L 160.161309 220.569227 
L 160.62938 212.305823 
L 161.097452 224.224535 
L 161.565524 211.64283 
L 162.033595 215.300473 
L 162.501667 209.712543 
L 163.437811 243.582771 
L 163.905882 244.56472 
L 164.373954 238.177481 
L 164.842026 248.391783 
L 165.310098 240.63951 
L 165.778169 241.421557 
L 166.246241 254.445835 
L 167.182384 219.058036 
L 167.650456 220.466884 
L 168.118528 222.471656 
L 168.5866 203.897812 
L 169.054671 206.172011 
L 169.522743 201.918372 
L 169.990815 243.081836 
L 170.458886 229.295491 
L 170.926958 222.379564 
L 171.39503 232.001508 
L 171.863102 238.075392 
L 172.331173 224.336694 
L 172.799245 220.950423 
L 173.267317 233.253205 
L 173.735388 224.356612 
L 174.671532 236.712912 
L 175.139604 232.687895 
L 175.607675 224.960485 
L 176.075747 233.840726 
L 176.543819 235.318604 
L 177.011891 229.456116 
L 177.948034 239.832157 
L 178.416106 250.48675 
L 178.884177 246.833454 
L 179.352249 240.782629 
L 179.820321 216.269426 
L 180.288393 223.318002 
L 180.756464 238.49709 
L 181.224536 229.780822 
L 181.692608 236.2796 
L 182.628751 227.498842 
L 183.096823 231.235961 
L 183.564895 233.856561 
L 184.032966 253.105714 
L 184.501038 277.068209 
L 184.96911 290.174207 
L 185.437182 268.136027 
L 185.905253 281.430062 
L 186.373325 243.148369 
L 186.841397 259.89404 
L 187.309468 264.522505 
L 187.77754 283.938138 
L 188.245612 279.756502 
L 188.713684 258.275585 
L 189.181755 268.933872 
L 189.649827 275.428521 
L 190.117899 264.785019 
L 190.58597 268.410544 
L 191.054042 278.6261 
L 191.990186 245.985256 
L 192.458257 264.530778 
L 192.926329 273.910362 
L 193.394401 268.69843 
L 193.862472 269.511325 
L 194.330544 273.188959 
L 194.798616 268.700878 
L 195.266688 271.758637 
L 195.734759 277.931353 
L 196.202831 276.018678 
L 196.670903 265.56969 
L 197.138975 268.156934 
L 197.607046 279.428088 
L 198.075118 280.886733 
L 198.54319 264.988621 
L 199.011261 266.299863 
L 199.479333 271.09392 
L 199.947405 269.492685 
L 200.415477 265.264437 
L 200.883548 259.106032 
L 201.819692 285.832333 
L 202.287763 283.573647 
L 202.755835 277.049261 
L 203.223907 273.849088 
L 203.691979 273.520033 
L 204.16005 279.690919 
L 204.628122 279.761056 
L 205.096194 274.451085 
L 205.564265 273.595548 
L 206.032337 277.243176 
L 206.500409 288.889903 
L 206.968481 293.423559 
L 207.436552 299.084299 
L 207.904624 288.841203 
L 208.372696 272.930637 
L 208.840768 270.965501 
L 209.308839 284.105712 
L 209.776911 266.908282 
L 210.244983 278.20405 
L 210.713054 280.7251 
L 211.181126 274.442432 
L 211.649198 273.843231 
L 212.11727 268.635454 
L 212.585341 276.254073 
L 213.053413 245.04916 
L 213.521485 254.831242 
L 213.989556 258.094358 
L 214.457628 251.548979 
L 214.9257 252.400932 
L 215.861843 277.947999 
L 216.329915 279.171781 
L 216.797987 266.819458 
L 217.73413 275.524577 
L 218.202202 277.049005 
L 218.670274 269.143182 
L 219.138345 275.61995 
L 219.606417 269.535657 
L 220.074489 257.283475 
L 221.010632 258.96286 
L 221.478704 257.894417 
L 221.946776 256.490908 
L 222.414847 266.280069 
L 222.882919 270.024235 
L 223.350991 262.288906 
L 223.819063 265.587755 
L 224.287134 265.88612 
L 224.755206 253.875231 
L 225.223278 257.848419 
L 225.691349 263.779501 
L 226.159421 262.653567 
L 226.627493 259.416377 
L 227.095565 252.464389 
L 227.563636 263.149689 
L 228.49978 265.194685 
L 228.967852 263.976304 
L 229.435923 260.896825 
L 229.903995 257.021501 
L 230.372067 262.989129 
L 230.840138 266.598265 
L 231.776282 260.774191 
L 232.712425 265.906763 
L 233.180497 253.782892 
L 233.648569 245.389989 
L 234.11664 253.685834 
L 234.584712 253.507537 
L 235.052784 254.752112 
L 235.520856 252.515349 
L 235.988927 262.65987 
L 236.456999 250.477271 
L 236.925071 251.62531 
L 237.393142 254.227162 
L 237.861214 265.327212 
L 238.329286 263.827734 
L 238.797358 261.113997 
L 239.265429 259.368245 
L 239.733501 264.075014 
L 240.201573 263.379789 
L 240.669645 267.143913 
L 241.137716 267.049156 
L 241.605788 265.043499 
L 242.07386 261.743809 
L 242.541931 264.541703 
L 243.010003 266.116746 
L 243.478075 267.037482 
L 243.946147 270.357277 
L 244.414218 263.99065 
L 244.88229 266.623978 
L 245.350362 265.425009 
L 245.818433 266.963854 
L 246.286505 271.60011 
L 246.754577 269.858274 
L 247.222649 275.978659 
L 247.69072 268.403849 
L 248.158792 266.747039 
L 249.094936 266.96927 
L 249.563007 263.859236 
L 250.031079 249.058012 
L 250.499151 247.105731 
L 250.967222 247.551198 
L 251.435294 253.208092 
L 251.903366 256.910189 
L 252.371438 251.620558 
L 252.839509 249.728865 
L 253.307581 251.675013 
L 253.775653 256.484257 
L 254.243724 247.128646 
L 254.711796 248.403314 
L 255.179868 246.419536 
L 255.64794 236.632842 
L 256.116011 234.941417 
L 256.584083 246.363781 
L 257.052155 249.364754 
L 257.520226 245.758938 
L 257.988298 245.06117 
L 258.45637 254.182401 
L 258.924442 243.447372 
L 259.392513 240.460019 
L 259.860585 239.367775 
L 260.328657 245.159318 
L 260.796729 258.241623 
L 261.2648 254.104809 
L 261.732872 253.234381 
L 262.200944 262.551565 
L 262.669015 267.935242 
L 263.137087 266.496544 
L 263.605159 266.496544 
L 264.541302 264.772691 
L 265.009374 257.814808 
L 265.477446 255.851011 
L 265.945517 253.365277 
L 266.413589 251.719946 
L 266.881661 243.686629 
L 267.349733 250.28971 
L 267.817804 253.271426 
L 268.285876 245.269759 
L 268.753948 230.784883 
L 269.22202 241.836625 
L 269.690091 249.233386 
L 270.158163 245.837885 
L 270.626235 246.281734 
L 271.094306 227.803015 
L 271.562378 240.957902 
L 272.03045 250.382873 
L 272.498522 247.322532 
L 272.966593 251.348652 
L 273.434665 261.009847 
L 273.902737 220.541868 
L 274.370808 237.824292 
L 274.83888 242.940646 
L 275.306952 231.415153 
L 275.775024 229.899993 
L 276.243095 246.219313 
L 276.711167 233.615178 
L 277.179239 234.480105 
L 277.64731 225.748756 
L 278.115382 220.106611 
L 278.583454 227.585311 
L 279.051526 227.284718 
L 279.519597 224.149799 
L 279.987669 228.368168 
L 280.455741 227.127746 
L 280.923813 223.424619 
L 281.391884 230.474155 
L 281.859956 223.763177 
L 282.328028 221.820634 
L 282.796099 222.613472 
L 283.264171 212.670603 
L 283.732243 170.819181 
L 284.200315 202.857865 
L 284.668386 216.351901 
L 285.136458 200.664655 
L 285.60453 205.718687 
L 286.072601 215.879485 
L 286.540673 209.405254 
L 287.008745 187.003563 
L 287.476817 195.082302 
L 287.944888 197.650338 
L 288.41296 223.919421 
L 288.881032 222.237958 
L 289.349103 217.664386 
L 289.817175 219.410621 
L 290.285247 192.275623 
L 290.753319 209.293631 
L 291.22139 210.116922 
L 291.689462 219.417776 
L 292.157534 220.305144 
L 292.625606 216.412677 
L 293.093677 219.190248 
L 293.561749 218.823762 
L 294.029821 211.234536 
L 294.497892 209.132831 
L 294.965964 219.46696 
L 295.434036 225.773707 
L 295.902108 213.139346 
L 296.370179 205.730198 
L 296.838251 213.592483 
L 297.306323 212.749411 
L 297.774394 224.821766 
L 298.710538 199.78296 
L 299.17861 201.329958 
L 299.646681 213.96029 
L 300.114753 186.475421 
L 300.582825 201.059221 
L 301.050897 211.895473 
L 301.518968 230.173231 
L 301.98704 222.533477 
L 302.455112 222.075458 
L 302.923183 199.966346 
L 303.391255 194.698166 
L 303.859327 184.877325 
L 304.327399 205.015628 
L 304.79547 214.514459 
L 305.263542 210.791873 
L 305.731614 192.640718 
L 306.199685 207.529043 
L 306.667757 213.143284 
L 307.135829 214.78529 
L 307.603901 197.604109 
L 308.071972 190.032711 
L 308.540044 198.188414 
L 309.008116 224.037578 
L 309.944259 214.222136 
L 310.412331 220.913181 
L 310.880403 216.899547 
L 311.348474 195.432845 
L 311.816546 200.106264 
L 312.75269 223.28681 
L 313.220761 205.926873 
L 313.688833 182.662788 
L 314.156905 198.96586 
L 314.624976 209.433932 
L 315.093048 204.133471 
L 315.56112 212.884948 
L 316.029192 209.348491 
L 316.497263 207.481096 
L 316.965335 195.143543 
L 317.433407 186.900398 
L 317.901478 216.535877 
L 318.36955 203.332137 
L 318.837622 225.877871 
L 319.305694 210.339362 
L 319.773765 217.873566 
L 320.241837 215.164272 
L 320.709909 222.049119 
L 321.17798 214.873239 
L 321.646052 228.846705 
L 322.114124 220.398249 
L 322.582196 198.339339 
L 323.050267 201.388157 
L 323.518339 186.234174 
L 323.986411 191.749648 
L 324.454483 199.06867 
L 324.922554 217.450368 
L 325.390626 218.6788 
L 325.858698 225.17436 
L 326.326769 205.080985 
L 326.794841 206.212683 
L 327.262913 212.688392 
L 327.730985 216.976347 
L 328.199056 227.298106 
L 328.667128 221.627602 
L 329.1352 225.65969 
L 329.603271 228.157619 
L 330.539415 207.629187 
L 331.007487 190.672106 
L 331.475558 214.076223 
L 331.94363 212.960772 
L 332.411702 202.641886 
L 332.879774 215.138736 
L 333.347845 205.690985 
L 333.815917 227.354477 
L 334.283989 217.581175 
L 334.75206 222.164883 
L 335.220132 221.580877 
L 335.688204 244.148678 
L 336.156276 211.895016 
L 336.624347 230.335154 
L 337.092419 219.013124 
L 337.560491 230.461743 
L 338.028562 232.899067 
L 338.496634 234.099975 
L 338.964706 229.902057 
L 339.432778 233.72617 
L 339.900849 230.312897 
L 340.368921 225.40888 
L 340.836993 239.178275 
L 341.305064 249.637787 
L 341.773136 248.426242 
L 342.241208 232.869439 
L 342.70928 245.87736 
L 343.177351 244.128083 
L 343.645423 251.909403 
L 344.113495 229.261535 
L 344.581567 241.176058 
L 345.049638 243.276277 
L 345.51771 243.529398 
L 345.985782 252.106832 
L 346.921925 233.05934 
L 347.389997 255.210869 
L 348.32614 231.62719 
L 349.262284 254.399466 
L 350.198427 269.581967 
L 350.666499 264.964897 
L 351.134571 242.696533 
L 351.602642 250.973769 
L 352.070714 252.330146 
L 352.538786 242.854877 
L 353.006858 248.957059 
L 353.474929 248.885791 
L 353.943001 243.64204 
L 354.411073 255.841852 
L 354.879144 273.096471 
L 355.347216 234.169876 
L 355.815288 237.819654 
L 356.28336 238.414401 
L 356.751431 251.182011 
L 357.219503 252.509072 
L 357.687575 246.904758 
L 358.155646 248.040983 
L 358.623718 250.571179 
L 359.09179 264.618954 
L 359.559862 272.882995 
L 360.027933 270.531785 
L 360.496005 275.253029 
L 361.432148 239.908319 
L 361.90022 254.135105 
L 362.368292 257.60692 
L 362.836364 264.7602 
L 363.304435 247.290445 
L 363.772507 268.954157 
L 364.240579 265.373254 
L 364.708651 264.332003 
L 365.176722 269.525726 
L 365.644794 266.394626 
L 366.112866 252.802507 
L 366.580937 263.264935 
L 367.049009 261.732246 
L 367.517081 240.928565 
L 367.985153 249.396251 
L 368.921296 257.722867 
L 369.389368 258.95892 
L 369.857439 263.105869 
L 370.325511 260.921644 
L 370.793583 265.206246 
L 371.261655 251.48898 
L 371.729726 265.777421 
L 372.197798 274.481047 
L 372.66587 278.486954 
L 373.133941 279.684826 
L 373.602013 278.855451 
L 374.538157 282.764746 
L 375.006228 283.02346 
L 375.4743 259.185848 
L 375.942372 269.03483 
L 376.410444 265.734028 
L 376.878515 242.09213 
L 377.346587 252.940469 
L 377.814659 254.824955 
L 378.28273 252.065289 
L 378.750802 253.066892 
L 379.218874 258.648064 
L 379.686946 256.074542 
L 380.155017 256.889468 
L 380.623089 264.834433 
L 381.091161 269.381059 
L 381.559232 262.693455 
L 382.027304 260.032688 
L 382.495376 238.398129 
L 382.963448 240.877764 
L 383.431519 251.000945 
L 383.899591 247.931878 
L 384.367663 249.852402 
L 384.835735 240.525909 
L 385.303806 252.726579 
L 385.771878 249.68394 
L 386.23995 262.880406 
L 386.708021 256.495411 
L 387.176093 256.568571 
L 387.644165 260.563684 
L 388.112237 268.183314 
L 388.580308 264.250484 
L 389.04838 263.983782 
L 389.516452 264.895441 
L 389.984523 253.79539 
L 390.452595 266.365529 
L 390.920667 262.077657 
L 391.388739 266.636507 
L 391.85681 265.741748 
L 392.324882 262.794412 
L 392.792954 257.742816 
L 393.729097 264.467725 
L 394.197169 263.708765 
L 394.665241 251.132904 
L 395.133312 248.141859 
L 395.601384 251.227772 
L 396.069456 272.232833 
L 396.537528 270.042713 
L 397.005599 257.892788 
L 397.473671 265.202117 
L 397.941743 268.468832 
L 398.409814 266.31208 
L 398.877886 267.209835 
L 399.345958 270.187766 
L 399.81403 255.015082 
L 400.282101 254.900487 
L 400.750173 252.777949 
L 401.218245 263.750155 
L 401.686316 257.735482 
L 402.154388 260.893201 
L 403.090532 256.808756 
L 403.558603 262.729947 
L 404.026675 273.910424 
L 404.494747 250.181099 
L 404.962818 245.827537 
L 405.43089 248.659037 
L 405.898962 247.251684 
L 406.367034 252.565318 
L 406.835105 250.931921 
L 407.303177 247.004435 
L 407.771249 247.826804 
L 408.239321 244.093938 
L 409.175464 249.786027 
L 409.643536 254.687757 
L 410.111607 252.535573 
L 410.579679 253.670185 
L 411.047751 251.278981 
L 411.515823 263.179056 
L 411.983894 260.578496 
L 412.451966 269.680285 
L 412.920038 265.721782 
L 413.388109 265.721782 
L 413.856181 253.224324 
L 414.324253 253.816772 
L 414.792325 261.913416 
L 415.260396 263.072576 
L 415.728468 257.586558 
L 416.19654 248.273291 
L 416.664612 262.949658 
L 417.132683 263.373145 
L 417.600755 264.527418 
L 418.068827 264.151309 
L 418.536898 266.066335 
L 419.00497 265.746906 
L 419.473042 265.767446 
L 419.941114 265.919604 
L 420.409185 248.070703 
L 420.877257 249.639688 
L 421.345329 248.905307 
L 421.8134 235.146134 
L 422.281472 242.32482 
L 423.217616 264.059445 
L 423.685687 259.225864 
L 424.153759 240.265358 
L 424.621831 243.831832 
L 425.089902 259.607035 
L 425.557974 243.044512 
L 426.026046 240.400679 
L 426.494118 245.311479 
L 426.962189 256.411732 
L 427.430261 270.501401 
L 427.898333 266.6748 
L 428.366405 266.136114 
L 428.834476 272.777198 
L 429.302548 260.957091 
L 429.77062 259.344193 
L 430.238691 263.687442 
L 430.706763 263.425037 
L 431.174835 269.630893 
L 431.642907 266.013117 
L 432.110978 264.844354 
L 432.57905 265.647867 
L 433.047122 257.003464 
L 433.515193 260.260714 
L 433.983265 262.697101 
L 434.451337 255.798451 
L 434.919409 256.69904 
L 435.855552 247.719642 
L 436.323624 264.569579 
L 436.791696 264.785124 
L 437.259767 262.12186 
L 437.727839 260.37439 
L 438.195911 254.078518 
L 439.132054 263.035449 
L 439.600126 262.071294 
L 440.068198 259.29017 
L 440.536269 265.612655 
L 441.004341 266.365529 
L 441.472413 253.547088 
L 441.940484 253.547088 
L 442.876628 273.077245 
L 443.3447 264.779282 
L 443.812771 262.392841 
L 444.280843 252.523809 
L 444.748915 253.034706 
L 445.216986 266.781495 
L 445.685058 257.155368 
L 446.15313 259.26916 
L 446.621202 252.563982 
L 447.089273 240.027847 
L 447.557345 241.731951 
L 448.493489 257.11945 
L 449.429632 217.684337 
L 449.897704 236.348452 
L 450.365775 250.473172 
L 450.833847 251.391953 
L 451.301919 251.211912 
L 451.769991 252.563445 
L 452.238062 264.293263 
L 452.706134 264.221646 
L 453.174206 255.364267 
L 453.642277 259.65067 
L 454.110349 264.996644 
L 454.578421 254.767196 
L 455.046493 252.083178 
L 455.514564 252.083178 
L 455.982636 261.821308 
L 456.450708 241.451161 
L 456.918779 240.957226 
L 457.854923 230.00834 
L 458.322995 240.66433 
L 458.791066 241.110117 
L 459.259138 234.688604 
L 460.195282 241.636403 
L 460.663353 238.281622 
L 461.131425 233.087675 
L 462.067568 227.368342 
L 462.53564 226.068832 
L 463.003712 221.684925 
L 463.471784 224.289311 
L 463.939855 228.285412 
L 464.875999 239.446473 
L 465.34407 236.662707 
L 465.812142 238.69927 
L 466.280214 230.319078 
L 467.216357 227.42905 
L 467.684429 224.024053 
L 468.152501 225.205 
L 468.620573 225.088197 
L 469.088644 236.031585 
L 469.556716 234.049209 
L 470.024788 220.081147 
L 470.492859 233.44618 
L 470.960931 224.074808 
L 471.429003 226.076388 
L 471.897075 218.862154 
L 472.365146 225.215769 
L 472.833218 223.669231 
L 473.30129 223.044256 
L 473.769361 220.205974 
L 474.237433 231.01251 
L 474.705505 237.300729 
L 475.173577 223.807419 
L 475.641648 235.017876 
L 476.10972 229.901956 
L 476.577792 228.531412 
L 477.045863 237.297085 
L 477.513935 238.388023 
L 477.982007 246.317605 
L 478.450079 241.643245 
L 478.91815 246.060382 
L 479.386222 223.83925 
L 479.854294 232.705348 
L 480.322366 211.51151 
L 480.790437 213.536812 
L 481.258509 216.713539 
L 481.726581 206.353007 
L 482.194652 165.034452 
L 482.662724 202.348521 
L 483.130796 200.370977 
L 483.598868 192.555434 
L 484.066939 189.322953 
L 484.535011 189.184569 
L 485.003083 189.577643 
L 485.471154 194.116736 
L 485.939226 194.442856 
L 486.407298 201.634134 
L 486.87537 219.389321 
L 487.343441 222.051226 
L 487.811513 214.132461 
L 488.279585 219.911401 
L 488.747656 201.696047 
L 489.215728 211.310503 
L 489.6838 202.937348 
L 490.151872 203.473113 
L 490.619943 206.855347 
L 491.556087 191.504483 
L 492.024159 194.521932 
L 492.49223 193.991511 
L 492.960302 202.808542 
L 493.428374 199.224382 
L 493.896445 223.773933 
L 494.364517 204.764573 
L 494.832589 201.410034 
L 495.300661 216.290874 
L 495.768732 224.258001 
L 496.236804 222.636058 
L 496.704876 235.47361 
L 497.641019 252.742797 
L 498.109091 255.302033 
L 498.109091 255.302033 
" clip-path="url(#p3a19148da3)" style="fill: none; stroke: #ff7f0e; stroke-width: 1.5; stroke-linecap: round"/>
   </g>
   <g id="patch_3">
    <path d="M 72 384.48 
L 72 51.84 
" style="fill: none; stroke: #ffffff; stroke-width: 0.8; stroke-linejoin: miter; stroke-linecap: square"/>
   </g>
   <g id="patch_4">
    <path d="M 518.4 384.48 
L 518.4 51.84 
" style="fill: none; stroke: #ffffff; stroke-width: 0.8; stroke-linejoin: miter; stroke-linecap: square"/>
   </g>
   <g id="patch_5">
    <path d="M 72 384.48 
L 518.4 384.48 
" style="fill: none; stroke: #ffffff; stroke-width: 0.8; stroke-linejoin: miter; stroke-linecap: square"/>
   </g>
   <g id="patch_6">
    <path d="M 72 51.84 
L 518.4 51.84 
" style="fill: none; stroke: #ffffff; stroke-width: 0.8; stroke-linejoin: miter; stroke-linecap: square"/>
   </g>
   <g id="text_16">
    <!-- Average Pressure Prediction 3 Days Ahead -->
    <g style="fill: #262626" transform="translate(179.912812 45.84) scale(0.12 -0.12)">
     <defs>
      <path id="ArialMT-41" d="M -9 0 
L 1750 4581 
L 2403 4581 
L 4278 0 
L 3588 0 
L 3053 1388 
L 1138 1388 
L 634 0 
L -9 0 
z
M 1313 1881 
L 2866 1881 
L 2388 3150 
Q 2169 3728 2063 4100 
Q 1975 3659 1816 3225 
L 1313 1881 
z
" transform="scale(0.015625)"/>
      <path id="ArialMT-76" d="M 1344 0 
L 81 3319 
L 675 3319 
L 1388 1331 
Q 1503 1009 1600 663 
Q 1675 925 1809 1294 
L 2547 3319 
L 3125 3319 
L 1869 0 
L 1344 0 
z
" transform="scale(0.015625)"/>
      <path id="ArialMT-65" d="M 2694 1069 
L 3275 997 
Q 3138 488 2766 206 
Q 2394 -75 1816 -75 
Q 1088 -75 661 373 
Q 234 822 234 1631 
Q 234 2469 665 2931 
Q 1097 3394 1784 3394 
Q 2450 3394 2872 2941 
Q 3294 2488 3294 1666 
Q 3294 1616 3291 1516 
L 816 1516 
Q 847 969 1125 678 
Q 1403 388 1819 388 
Q 2128 388 2347 550 
Q 2566 713 2694 1069 
z
M 847 1978 
L 2700 1978 
Q 2663 2397 2488 2606 
Q 2219 2931 1791 2931 
Q 1403 2931 1139 2672 
Q 875 2413 847 1978 
z
" transform="scale(0.015625)"/>
      <path id="ArialMT-72" d="M 416 0 
L 416 3319 
L 922 3319 
L 922 2816 
Q 1116 3169 1280 3281 
Q 1444 3394 1641 3394 
Q 1925 3394 2219 3213 
L 2025 2691 
Q 1819 2813 1613 2813 
Q 1428 2813 1281 2702 
Q 1134 2591 1072 2394 
Q 978 2094 978 1738 
L 978 0 
L 416 0 
z
" transform="scale(0.015625)"/>
      <path id="ArialMT-67" d="M 319 -275 
L 866 -356 
Q 900 -609 1056 -725 
Q 1266 -881 1628 -881 
Q 2019 -881 2231 -725 
Q 2444 -569 2519 -288 
Q 2563 -116 2559 434 
Q 2191 0 1641 0 
Q 956 0 581 494 
Q 206 988 206 1678 
Q 206 2153 378 2554 
Q 550 2956 876 3175 
Q 1203 3394 1644 3394 
Q 2231 3394 2613 2919 
L 2613 3319 
L 3131 3319 
L 3131 450 
Q 3131 -325 2973 -648 
Q 2816 -972 2473 -1159 
Q 2131 -1347 1631 -1347 
Q 1038 -1347 672 -1080 
Q 306 -813 319 -275 
z
M 784 1719 
Q 784 1066 1043 766 
Q 1303 466 1694 466 
Q 2081 466 2343 764 
Q 2606 1063 2606 1700 
Q 2606 2309 2336 2618 
Q 2066 2928 1684 2928 
Q 1309 2928 1046 2623 
Q 784 2319 784 1719 
z
" transform="scale(0.015625)"/>
      <path id="ArialMT-20" transform="scale(0.015625)"/>
      <path id="ArialMT-75" d="M 2597 0 
L 2597 488 
Q 2209 -75 1544 -75 
Q 1250 -75 995 37 
Q 741 150 617 320 
Q 494 491 444 738 
Q 409 903 409 1263 
L 409 3319 
L 972 3319 
L 972 1478 
Q 972 1038 1006 884 
Q 1059 663 1231 536 
Q 1403 409 1656 409 
Q 1909 409 2131 539 
Q 2353 669 2445 892 
Q 2538 1116 2538 1541 
L 2538 3319 
L 3100 3319 
L 3100 0 
L 2597 0 
z
" transform="scale(0.015625)"/>
      <path id="ArialMT-64" d="M 2575 0 
L 2575 419 
Q 2259 -75 1647 -75 
Q 1250 -75 917 144 
Q 584 363 401 755 
Q 219 1147 219 1656 
Q 219 2153 384 2558 
Q 550 2963 881 3178 
Q 1213 3394 1622 3394 
Q 1922 3394 2156 3267 
Q 2391 3141 2538 2938 
L 2538 4581 
L 3097 4581 
L 3097 0 
L 2575 0 
z
M 797 1656 
Q 797 1019 1065 703 
Q 1334 388 1700 388 
Q 2069 388 2326 689 
Q 2584 991 2584 1609 
Q 2584 2291 2321 2609 
Q 2059 2928 1675 2928 
Q 1300 2928 1048 2622 
Q 797 2316 797 1656 
z
" transform="scale(0.015625)"/>
      <path id="ArialMT-69" d="M 425 3934 
L 425 4581 
L 988 4581 
L 988 3934 
L 425 3934 
z
M 425 0 
L 425 3319 
L 988 3319 
L 988 0 
L 425 0 
z
" transform="scale(0.015625)"/>
      <path id="ArialMT-63" d="M 2588 1216 
L 3141 1144 
Q 3050 572 2676 248 
Q 2303 -75 1759 -75 
Q 1078 -75 664 370 
Q 250 816 250 1647 
Q 250 2184 428 2587 
Q 606 2991 970 3192 
Q 1334 3394 1763 3394 
Q 2303 3394 2647 3120 
Q 2991 2847 3088 2344 
L 2541 2259 
Q 2463 2594 2264 2762 
Q 2066 2931 1784 2931 
Q 1359 2931 1093 2626 
Q 828 2322 828 1663 
Q 828 994 1084 691 
Q 1341 388 1753 388 
Q 2084 388 2306 591 
Q 2528 794 2588 1216 
z
" transform="scale(0.015625)"/>
      <path id="ArialMT-74" d="M 1650 503 
L 1731 6 
Q 1494 -44 1306 -44 
Q 1000 -44 831 53 
Q 663 150 594 308 
Q 525 466 525 972 
L 525 2881 
L 113 2881 
L 113 3319 
L 525 3319 
L 525 4141 
L 1084 4478 
L 1084 3319 
L 1650 3319 
L 1650 2881 
L 1084 2881 
L 1084 941 
Q 1084 700 1114 631 
Q 1144 563 1211 522 
Q 1278 481 1403 481 
Q 1497 481 1650 503 
z
" transform="scale(0.015625)"/>
      <path id="ArialMT-6f" d="M 213 1659 
Q 213 2581 725 3025 
Q 1153 3394 1769 3394 
Q 2453 3394 2887 2945 
Q 3322 2497 3322 1706 
Q 3322 1066 3130 698 
Q 2938 331 2570 128 
Q 2203 -75 1769 -75 
Q 1072 -75 642 372 
Q 213 819 213 1659 
z
M 791 1659 
Q 791 1022 1069 705 
Q 1347 388 1769 388 
Q 2188 388 2466 706 
Q 2744 1025 2744 1678 
Q 2744 2294 2464 2611 
Q 2184 2928 1769 2928 
Q 1347 2928 1069 2612 
Q 791 2297 791 1659 
z
" transform="scale(0.015625)"/>
      <path id="ArialMT-6e" d="M 422 0 
L 422 3319 
L 928 3319 
L 928 2847 
Q 1294 3394 1984 3394 
Q 2284 3394 2536 3286 
Q 2788 3178 2913 3003 
Q 3038 2828 3088 2588 
Q 3119 2431 3119 2041 
L 3119 0 
L 2556 0 
L 2556 2019 
Q 2556 2363 2490 2533 
Q 2425 2703 2258 2804 
Q 2091 2906 1866 2906 
Q 1506 2906 1245 2678 
Q 984 2450 984 1813 
L 984 0 
L 422 0 
z
" transform="scale(0.015625)"/>
     </defs>
     <use xlink:href="#ArialMT-41"/>
     <use xlink:href="#ArialMT-76" x="64.949219"/>
     <use xlink:href="#ArialMT-65" x="114.949219"/>
     <use xlink:href="#ArialMT-72" x="170.564453"/>
     <use xlink:href="#ArialMT-61" x="203.865234"/>
     <use xlink:href="#ArialMT-67" x="259.480469"/>
     <use xlink:href="#ArialMT-65" x="315.095703"/>
     <use xlink:href="#ArialMT-20" x="370.710938"/>
     <use xlink:href="#ArialMT-50" x="398.494141"/>
     <use xlink:href="#ArialMT-72" x="465.193359"/>
     <use xlink:href="#ArialMT-65" x="498.494141"/>
     <use xlink:href="#ArialMT-73" x="554.109375"/>
     <use xlink:href="#ArialMT-73" x="604.109375"/>
     <use xlink:href="#ArialMT-75" x="654.109375"/>
     <use xlink:href="#ArialMT-72" x="709.724609"/>
     <use xlink:href="#ArialMT-65" x="743.025391"/>
     <use xlink:href="#ArialMT-20" x="798.640625"/>
     <use xlink:href="#ArialMT-50" x="826.423828"/>
     <use xlink:href="#ArialMT-72" x="893.123047"/>
     <use xlink:href="#ArialMT-65" x="926.423828"/>
     <use xlink:href="#ArialMT-64" x="982.039062"/>
     <use xlink:href="#ArialMT-69" x="1037.654297"/>
     <use xlink:href="#ArialMT-63" x="1059.871094"/>
     <use xlink:href="#ArialMT-74" x="1109.871094"/>
     <use xlink:href="#ArialMT-69" x="1137.654297"/>
     <use xlink:href="#ArialMT-6f" x="1159.871094"/>
     <use xlink:href="#ArialMT-6e" x="1215.486328"/>
     <use xlink:href="#ArialMT-20" x="1271.101562"/>
     <use xlink:href="#ArialMT-33" x="1298.884766"/>
     <use xlink:href="#ArialMT-20" x="1354.5"/>
     <use xlink:href="#ArialMT-44" x="1382.283203"/>
     <use xlink:href="#ArialMT-61" x="1454.5"/>
     <use xlink:href="#ArialMT-79" x="1510.115234"/>
     <use xlink:href="#ArialMT-73" x="1560.115234"/>
     <use xlink:href="#ArialMT-20" x="1610.115234"/>
     <use xlink:href="#ArialMT-41" x="1632.398438"/>
     <use xlink:href="#ArialMT-68" x="1699.097656"/>
     <use xlink:href="#ArialMT-65" x="1754.712891"/>
     <use xlink:href="#ArialMT-61" x="1810.328125"/>
     <use xlink:href="#ArialMT-64" x="1865.943359"/>
    </g>
   </g>
   <g id="legend_1">
    <g id="patch_7">
     <path d="M 437.15625 88.130625 
L 511.4 88.130625 
Q 513.4 88.130625 513.4 86.130625 
L 513.4 58.84 
Q 513.4 56.84 511.4 56.84 
L 437.15625 56.84 
Q 435.15625 56.84 435.15625 58.84 
L 435.15625 86.130625 
Q 435.15625 88.130625 437.15625 88.130625 
z
" style="fill: #eaeaf2; opacity: 0.8; stroke: #cccccc; stroke-linejoin: miter"/>
    </g>
    <g id="line2d_16">
     <path d="M 439.15625 64.497812 
L 449.15625 64.497812 
L 459.15625 64.497812 
" style="fill: none; stroke: #1f77b4; stroke-width: 1.5; stroke-linecap: round"/>
    </g>
    <g id="text_17">
     <!-- Real -->
     <g style="fill: #262626" transform="translate(467.15625 67.997812) scale(0.1 -0.1)">
      <defs>
       <path id="ArialMT-52" d="M 503 0 
L 503 4581 
L 2534 4581 
Q 3147 4581 3465 4457 
Q 3784 4334 3975 4021 
Q 4166 3709 4166 3331 
Q 4166 2844 3850 2509 
Q 3534 2175 2875 2084 
Q 3116 1969 3241 1856 
Q 3506 1613 3744 1247 
L 4541 0 
L 3778 0 
L 3172 953 
Q 2906 1366 2734 1584 
Q 2563 1803 2427 1890 
Q 2291 1978 2150 2013 
Q 2047 2034 1813 2034 
L 1109 2034 
L 1109 0 
L 503 0 
z
M 1109 2559 
L 2413 2559 
Q 2828 2559 3062 2645 
Q 3297 2731 3419 2920 
Q 3541 3109 3541 3331 
Q 3541 3656 3305 3865 
Q 3069 4075 2559 4075 
L 1109 4075 
L 1109 2559 
z
" transform="scale(0.015625)"/>
       <path id="ArialMT-6c" d="M 409 0 
L 409 4581 
L 972 4581 
L 972 0 
L 409 0 
z
" transform="scale(0.015625)"/>
      </defs>
      <use xlink:href="#ArialMT-52"/>
      <use xlink:href="#ArialMT-65" x="72.216797"/>
      <use xlink:href="#ArialMT-61" x="127.832031"/>
      <use xlink:href="#ArialMT-6c" x="183.447266"/>
     </g>
    </g>
    <g id="line2d_17">
     <path d="M 439.15625 78.643125 
L 449.15625 78.643125 
L 459.15625 78.643125 
" style="fill: none; stroke: #ff7f0e; stroke-width: 1.5; stroke-linecap: round"/>
    </g>
    <g id="text_18">
     <!-- Predicted -->
     <g style="fill: #262626" transform="translate(467.15625 82.143125) scale(0.1 -0.1)">
      <use xlink:href="#ArialMT-50"/>
      <use xlink:href="#ArialMT-72" x="66.699219"/>
      <use xlink:href="#ArialMT-65" x="100"/>
      <use xlink:href="#ArialMT-64" x="155.615234"/>
      <use xlink:href="#ArialMT-69" x="211.230469"/>
      <use xlink:href="#ArialMT-63" x="233.447266"/>
      <use xlink:href="#ArialMT-74" x="283.447266"/>
      <use xlink:href="#ArialMT-65" x="311.230469"/>
      <use xlink:href="#ArialMT-64" x="366.845703"/>
     </g>
    </g>
   </g>
  </g>
 </g>
 <defs>
  <clipPath id="p3a19148da3">
   <rect x="72" y="51.84" width="446.4" height="332.64"/>
  </clipPath>
 </defs>
</svg>
