<?xml version="1.0" encoding="utf-8" standalone="no"?>
<!DOCTYPE svg PUBLIC "-//W3C//DTD SVG 1.1//EN"
  "http://www.w3.org/Graphics/SVG/1.1/DTD/svg11.dtd">
<svg xmlns:xlink="http://www.w3.org/1999/xlink" width="576pt" height="432pt" viewBox="0 0 576 432" xmlns="http://www.w3.org/2000/svg" version="1.1">
 <metadata>
  <rdf:RDF xmlns:dc="http://purl.org/dc/elements/1.1/" xmlns:cc="http://creativecommons.org/ns#" xmlns:rdf="http://www.w3.org/1999/02/22-rdf-syntax-ns#">
   <cc:Work>
    <dc:type rdf:resource="http://purl.org/dc/dcmitype/StillImage"/>
    <dc:date>2023-11-17T03:41:17.915617</dc:date>
    <dc:format>image/svg+xml</dc:format>
    <dc:creator>
     <cc:Agent>
      <dc:title>Matplotlib v3.8.0, https://matplotlib.org/</dc:title>
     </cc:Agent>
    </dc:creator>
   </cc:Work>
  </rdf:RDF>
 </metadata>
 <defs>
  <style type="text/css">*{stroke-linejoin: round; stroke-linecap: butt}</style>
 </defs>
 <g id="figure_1">
  <g id="patch_1">
   <path d="M 0 432 
L 576 432 
L 576 0 
L 0 0 
z
" style="fill: #ffffff"/>
  </g>
  <g id="axes_1">
   <g id="patch_2">
    <path d="M 72 384.48 
L 518.4 384.48 
L 518.4 51.84 
L 72 51.84 
z
" style="fill: #eaeaf2"/>
   </g>
   <g id="matplotlib.axis_1">
    <g id="xtick_1">
     <g id="line2d_1">
      <path d="M 92.290909 384.48 
L 92.290909 51.84 
" clip-path="url(#p26ce215794)" style="fill: none; stroke: #ffffff; stroke-width: 0.8; stroke-linecap: round"/>
     </g>
     <g id="text_1">
      <!-- 0 -->
      <g style="fill: #262626" transform="translate(89.51044 398.637812) scale(0.1 -0.1)">
       <defs>
        <path id="ArialMT-30" d="M 266 2259 
Q 266 3072 433 3567 
Q 600 4063 929 4331 
Q 1259 4600 1759 4600 
Q 2128 4600 2406 4451 
Q 2684 4303 2865 4023 
Q 3047 3744 3150 3342 
Q 3253 2941 3253 2259 
Q 3253 1453 3087 958 
Q 2922 463 2592 192 
Q 2263 -78 1759 -78 
Q 1097 -78 719 397 
Q 266 969 266 2259 
z
M 844 2259 
Q 844 1131 1108 757 
Q 1372 384 1759 384 
Q 2147 384 2411 759 
Q 2675 1134 2675 2259 
Q 2675 3391 2411 3762 
Q 2147 4134 1753 4134 
Q 1366 4134 1134 3806 
Q 844 3388 844 2259 
z
" transform="scale(0.015625)"/>
       </defs>
       <use xlink:href="#ArialMT-30"/>
      </g>
     </g>
    </g>
    <g id="xtick_2">
     <g id="line2d_2">
      <path d="M 185.905253 384.48 
L 185.905253 51.84 
" clip-path="url(#p26ce215794)" style="fill: none; stroke: #ffffff; stroke-width: 0.8; stroke-linecap: round"/>
     </g>
     <g id="text_2">
      <!-- 200 -->
      <g style="fill: #262626" transform="translate(177.563847 398.637812) scale(0.1 -0.1)">
       <defs>
        <path id="ArialMT-32" d="M 3222 541 
L 3222 0 
L 194 0 
Q 188 203 259 391 
Q 375 700 629 1000 
Q 884 1300 1366 1694 
Q 2113 2306 2375 2664 
Q 2638 3022 2638 3341 
Q 2638 3675 2398 3904 
Q 2159 4134 1775 4134 
Q 1369 4134 1125 3890 
Q 881 3647 878 3216 
L 300 3275 
Q 359 3922 746 4261 
Q 1134 4600 1788 4600 
Q 2447 4600 2831 4234 
Q 3216 3869 3216 3328 
Q 3216 3053 3103 2787 
Q 2991 2522 2730 2228 
Q 2469 1934 1863 1422 
Q 1356 997 1212 845 
Q 1069 694 975 541 
L 3222 541 
z
" transform="scale(0.015625)"/>
       </defs>
       <use xlink:href="#ArialMT-32"/>
       <use xlink:href="#ArialMT-30" x="55.615234"/>
       <use xlink:href="#ArialMT-30" x="111.230469"/>
      </g>
     </g>
    </g>
    <g id="xtick_3">
     <g id="line2d_3">
      <path d="M 279.519597 384.48 
L 279.519597 51.84 
" clip-path="url(#p26ce215794)" style="fill: none; stroke: #ffffff; stroke-width: 0.8; stroke-linecap: round"/>
     </g>
     <g id="text_3">
      <!-- 400 -->
      <g style="fill: #262626" transform="translate(271.178191 398.637812) scale(0.1 -0.1)">
       <defs>
        <path id="ArialMT-34" d="M 2069 0 
L 2069 1097 
L 81 1097 
L 81 1613 
L 2172 4581 
L 2631 4581 
L 2631 1613 
L 3250 1613 
L 3250 1097 
L 2631 1097 
L 2631 0 
L 2069 0 
z
M 2069 1613 
L 2069 3678 
L 634 1613 
L 2069 1613 
z
" transform="scale(0.015625)"/>
       </defs>
       <use xlink:href="#ArialMT-34"/>
       <use xlink:href="#ArialMT-30" x="55.615234"/>
       <use xlink:href="#ArialMT-30" x="111.230469"/>
      </g>
     </g>
    </g>
    <g id="xtick_4">
     <g id="line2d_4">
      <path d="M 373.133941 384.48 
L 373.133941 51.84 
" clip-path="url(#p26ce215794)" style="fill: none; stroke: #ffffff; stroke-width: 0.8; stroke-linecap: round"/>
     </g>
     <g id="text_4">
      <!-- 600 -->
      <g style="fill: #262626" transform="translate(364.792535 398.637812) scale(0.1 -0.1)">
       <defs>
        <path id="ArialMT-36" d="M 3184 3459 
L 2625 3416 
Q 2550 3747 2413 3897 
Q 2184 4138 1850 4138 
Q 1581 4138 1378 3988 
Q 1113 3794 959 3422 
Q 806 3050 800 2363 
Q 1003 2672 1297 2822 
Q 1591 2972 1913 2972 
Q 2475 2972 2870 2558 
Q 3266 2144 3266 1488 
Q 3266 1056 3080 686 
Q 2894 316 2569 119 
Q 2244 -78 1831 -78 
Q 1128 -78 684 439 
Q 241 956 241 2144 
Q 241 3472 731 4075 
Q 1159 4600 1884 4600 
Q 2425 4600 2770 4297 
Q 3116 3994 3184 3459 
z
M 888 1484 
Q 888 1194 1011 928 
Q 1134 663 1356 523 
Q 1578 384 1822 384 
Q 2178 384 2434 671 
Q 2691 959 2691 1453 
Q 2691 1928 2437 2201 
Q 2184 2475 1800 2475 
Q 1419 2475 1153 2201 
Q 888 1928 888 1484 
z
" transform="scale(0.015625)"/>
       </defs>
       <use xlink:href="#ArialMT-36"/>
       <use xlink:href="#ArialMT-30" x="55.615234"/>
       <use xlink:href="#ArialMT-30" x="111.230469"/>
      </g>
     </g>
    </g>
    <g id="xtick_5">
     <g id="line2d_5">
      <path d="M 466.748286 384.48 
L 466.748286 51.84 
" clip-path="url(#p26ce215794)" style="fill: none; stroke: #ffffff; stroke-width: 0.8; stroke-linecap: round"/>
     </g>
     <g id="text_5">
      <!-- 800 -->
      <g style="fill: #262626" transform="translate(458.406879 398.637812) scale(0.1 -0.1)">
       <defs>
        <path id="ArialMT-38" d="M 1131 2484 
Q 781 2613 612 2850 
Q 444 3088 444 3419 
Q 444 3919 803 4259 
Q 1163 4600 1759 4600 
Q 2359 4600 2725 4251 
Q 3091 3903 3091 3403 
Q 3091 3084 2923 2848 
Q 2756 2613 2416 2484 
Q 2838 2347 3058 2040 
Q 3278 1734 3278 1309 
Q 3278 722 2862 322 
Q 2447 -78 1769 -78 
Q 1091 -78 675 323 
Q 259 725 259 1325 
Q 259 1772 486 2073 
Q 713 2375 1131 2484 
z
M 1019 3438 
Q 1019 3113 1228 2906 
Q 1438 2700 1772 2700 
Q 2097 2700 2305 2904 
Q 2513 3109 2513 3406 
Q 2513 3716 2298 3927 
Q 2084 4138 1766 4138 
Q 1444 4138 1231 3931 
Q 1019 3725 1019 3438 
z
M 838 1322 
Q 838 1081 952 856 
Q 1066 631 1291 507 
Q 1516 384 1775 384 
Q 2178 384 2440 643 
Q 2703 903 2703 1303 
Q 2703 1709 2433 1975 
Q 2163 2241 1756 2241 
Q 1359 2241 1098 1978 
Q 838 1716 838 1322 
z
" transform="scale(0.015625)"/>
       </defs>
       <use xlink:href="#ArialMT-38"/>
       <use xlink:href="#ArialMT-30" x="55.615234"/>
       <use xlink:href="#ArialMT-30" x="111.230469"/>
      </g>
     </g>
    </g>
    <g id="text_6">
     <!-- Days -->
     <g style="fill: #262626" transform="translate(283.808594 411.783125) scale(0.1 -0.1)">
      <defs>
       <path id="ArialMT-44" d="M 494 0 
L 494 4581 
L 2072 4581 
Q 2606 4581 2888 4516 
Q 3281 4425 3559 4188 
Q 3922 3881 4101 3404 
Q 4281 2928 4281 2316 
Q 4281 1794 4159 1391 
Q 4038 988 3847 723 
Q 3656 459 3429 307 
Q 3203 156 2883 78 
Q 2563 0 2147 0 
L 494 0 
z
M 1100 541 
L 2078 541 
Q 2531 541 2789 625 
Q 3047 709 3200 863 
Q 3416 1078 3536 1442 
Q 3656 1806 3656 2325 
Q 3656 3044 3420 3430 
Q 3184 3816 2847 3947 
Q 2603 4041 2063 4041 
L 1100 4041 
L 1100 541 
z
" transform="scale(0.015625)"/>
       <path id="ArialMT-61" d="M 2588 409 
Q 2275 144 1986 34 
Q 1697 -75 1366 -75 
Q 819 -75 525 192 
Q 231 459 231 875 
Q 231 1119 342 1320 
Q 453 1522 633 1644 
Q 813 1766 1038 1828 
Q 1203 1872 1538 1913 
Q 2219 1994 2541 2106 
Q 2544 2222 2544 2253 
Q 2544 2597 2384 2738 
Q 2169 2928 1744 2928 
Q 1347 2928 1158 2789 
Q 969 2650 878 2297 
L 328 2372 
Q 403 2725 575 2942 
Q 747 3159 1072 3276 
Q 1397 3394 1825 3394 
Q 2250 3394 2515 3294 
Q 2781 3194 2906 3042 
Q 3031 2891 3081 2659 
Q 3109 2516 3109 2141 
L 3109 1391 
Q 3109 606 3145 398 
Q 3181 191 3288 0 
L 2700 0 
Q 2613 175 2588 409 
z
M 2541 1666 
Q 2234 1541 1622 1453 
Q 1275 1403 1131 1340 
Q 988 1278 909 1158 
Q 831 1038 831 891 
Q 831 666 1001 516 
Q 1172 366 1500 366 
Q 1825 366 2078 508 
Q 2331 650 2450 897 
Q 2541 1088 2541 1459 
L 2541 1666 
z
" transform="scale(0.015625)"/>
       <path id="ArialMT-79" d="M 397 -1278 
L 334 -750 
Q 519 -800 656 -800 
Q 844 -800 956 -737 
Q 1069 -675 1141 -563 
Q 1194 -478 1313 -144 
Q 1328 -97 1363 -6 
L 103 3319 
L 709 3319 
L 1400 1397 
Q 1534 1031 1641 628 
Q 1738 1016 1872 1384 
L 2581 3319 
L 3144 3319 
L 1881 -56 
Q 1678 -603 1566 -809 
Q 1416 -1088 1222 -1217 
Q 1028 -1347 759 -1347 
Q 597 -1347 397 -1278 
z
" transform="scale(0.015625)"/>
       <path id="ArialMT-73" d="M 197 991 
L 753 1078 
Q 800 744 1014 566 
Q 1228 388 1613 388 
Q 2000 388 2187 545 
Q 2375 703 2375 916 
Q 2375 1106 2209 1216 
Q 2094 1291 1634 1406 
Q 1016 1563 777 1677 
Q 538 1791 414 1992 
Q 291 2194 291 2438 
Q 291 2659 392 2848 
Q 494 3038 669 3163 
Q 800 3259 1026 3326 
Q 1253 3394 1513 3394 
Q 1903 3394 2198 3281 
Q 2494 3169 2634 2976 
Q 2775 2784 2828 2463 
L 2278 2388 
Q 2241 2644 2061 2787 
Q 1881 2931 1553 2931 
Q 1166 2931 1000 2803 
Q 834 2675 834 2503 
Q 834 2394 903 2306 
Q 972 2216 1119 2156 
Q 1203 2125 1616 2013 
Q 2213 1853 2448 1751 
Q 2684 1650 2818 1456 
Q 2953 1263 2953 975 
Q 2953 694 2789 445 
Q 2625 197 2315 61 
Q 2006 -75 1616 -75 
Q 969 -75 630 194 
Q 291 463 197 991 
z
" transform="scale(0.015625)"/>
      </defs>
      <use xlink:href="#ArialMT-44"/>
      <use xlink:href="#ArialMT-61" x="72.216797"/>
      <use xlink:href="#ArialMT-79" x="127.832031"/>
      <use xlink:href="#ArialMT-73" x="177.832031"/>
     </g>
    </g>
   </g>
   <g id="matplotlib.axis_2">
    <g id="ytick_1">
     <g id="line2d_6">
      <path d="M 72 368.555445 
L 518.4 368.555445 
" clip-path="url(#p26ce215794)" style="fill: none; stroke: #ffffff; stroke-width: 0.8; stroke-linecap: round"/>
     </g>
     <g id="text_7">
      <!-- 0 -->
      <g style="fill: #262626" transform="translate(59.439062 372.134351) scale(0.1 -0.1)">
       <use xlink:href="#ArialMT-30"/>
      </g>
     </g>
    </g>
    <g id="ytick_2">
     <g id="line2d_7">
      <path d="M 72 328.32768 
L 518.4 328.32768 
" clip-path="url(#p26ce215794)" style="fill: none; stroke: #ffffff; stroke-width: 0.8; stroke-linecap: round"/>
     </g>
     <g id="text_8">
      <!-- 50 -->
      <g style="fill: #262626" transform="translate(53.878125 331.906587) scale(0.1 -0.1)">
       <defs>
        <path id="ArialMT-35" d="M 266 1200 
L 856 1250 
Q 922 819 1161 601 
Q 1400 384 1738 384 
Q 2144 384 2425 690 
Q 2706 997 2706 1503 
Q 2706 1984 2436 2262 
Q 2166 2541 1728 2541 
Q 1456 2541 1237 2417 
Q 1019 2294 894 2097 
L 366 2166 
L 809 4519 
L 3088 4519 
L 3088 3981 
L 1259 3981 
L 1013 2750 
Q 1425 3038 1878 3038 
Q 2478 3038 2890 2622 
Q 3303 2206 3303 1553 
Q 3303 931 2941 478 
Q 2500 -78 1738 -78 
Q 1113 -78 717 272 
Q 322 622 266 1200 
z
" transform="scale(0.015625)"/>
       </defs>
       <use xlink:href="#ArialMT-35"/>
       <use xlink:href="#ArialMT-30" x="55.615234"/>
      </g>
     </g>
    </g>
    <g id="ytick_3">
     <g id="line2d_8">
      <path d="M 72 288.099916 
L 518.4 288.099916 
" clip-path="url(#p26ce215794)" style="fill: none; stroke: #ffffff; stroke-width: 0.8; stroke-linecap: round"/>
     </g>
     <g id="text_9">
      <!-- 100 -->
      <g style="fill: #262626" transform="translate(48.317188 291.678822) scale(0.1 -0.1)">
       <defs>
        <path id="ArialMT-31" d="M 2384 0 
L 1822 0 
L 1822 3584 
Q 1619 3391 1289 3197 
Q 959 3003 697 2906 
L 697 3450 
Q 1169 3672 1522 3987 
Q 1875 4303 2022 4600 
L 2384 4600 
L 2384 0 
z
" transform="scale(0.015625)"/>
       </defs>
       <use xlink:href="#ArialMT-31"/>
       <use xlink:href="#ArialMT-30" x="55.615234"/>
       <use xlink:href="#ArialMT-30" x="111.230469"/>
      </g>
     </g>
    </g>
    <g id="ytick_4">
     <g id="line2d_9">
      <path d="M 72 247.872152 
L 518.4 247.872152 
" clip-path="url(#p26ce215794)" style="fill: none; stroke: #ffffff; stroke-width: 0.8; stroke-linecap: round"/>
     </g>
     <g id="text_10">
      <!-- 150 -->
      <g style="fill: #262626" transform="translate(48.317188 251.451058) scale(0.1 -0.1)">
       <use xlink:href="#ArialMT-31"/>
       <use xlink:href="#ArialMT-35" x="55.615234"/>
       <use xlink:href="#ArialMT-30" x="111.230469"/>
      </g>
     </g>
    </g>
    <g id="ytick_5">
     <g id="line2d_10">
      <path d="M 72 207.644387 
L 518.4 207.644387 
" clip-path="url(#p26ce215794)" style="fill: none; stroke: #ffffff; stroke-width: 0.8; stroke-linecap: round"/>
     </g>
     <g id="text_11">
      <!-- 200 -->
      <g style="fill: #262626" transform="translate(48.317188 211.223293) scale(0.1 -0.1)">
       <use xlink:href="#ArialMT-32"/>
       <use xlink:href="#ArialMT-30" x="55.615234"/>
       <use xlink:href="#ArialMT-30" x="111.230469"/>
      </g>
     </g>
    </g>
    <g id="ytick_6">
     <g id="line2d_11">
      <path d="M 72 167.416623 
L 518.4 167.416623 
" clip-path="url(#p26ce215794)" style="fill: none; stroke: #ffffff; stroke-width: 0.8; stroke-linecap: round"/>
     </g>
     <g id="text_12">
      <!-- 250 -->
      <g style="fill: #262626" transform="translate(48.317188 170.995529) scale(0.1 -0.1)">
       <use xlink:href="#ArialMT-32"/>
       <use xlink:href="#ArialMT-35" x="55.615234"/>
       <use xlink:href="#ArialMT-30" x="111.230469"/>
      </g>
     </g>
    </g>
    <g id="ytick_7">
     <g id="line2d_12">
      <path d="M 72 127.188858 
L 518.4 127.188858 
" clip-path="url(#p26ce215794)" style="fill: none; stroke: #ffffff; stroke-width: 0.8; stroke-linecap: round"/>
     </g>
     <g id="text_13">
      <!-- 300 -->
      <g style="fill: #262626" transform="translate(48.317188 130.767765) scale(0.1 -0.1)">
       <defs>
        <path id="ArialMT-33" d="M 269 1209 
L 831 1284 
Q 928 806 1161 595 
Q 1394 384 1728 384 
Q 2125 384 2398 659 
Q 2672 934 2672 1341 
Q 2672 1728 2419 1979 
Q 2166 2231 1775 2231 
Q 1616 2231 1378 2169 
L 1441 2663 
Q 1497 2656 1531 2656 
Q 1891 2656 2178 2843 
Q 2466 3031 2466 3422 
Q 2466 3731 2256 3934 
Q 2047 4138 1716 4138 
Q 1388 4138 1169 3931 
Q 950 3725 888 3313 
L 325 3413 
Q 428 3978 793 4289 
Q 1159 4600 1703 4600 
Q 2078 4600 2393 4439 
Q 2709 4278 2876 4000 
Q 3044 3722 3044 3409 
Q 3044 3113 2884 2869 
Q 2725 2625 2413 2481 
Q 2819 2388 3044 2092 
Q 3269 1797 3269 1353 
Q 3269 753 2831 336 
Q 2394 -81 1725 -81 
Q 1122 -81 723 278 
Q 325 638 269 1209 
z
" transform="scale(0.015625)"/>
       </defs>
       <use xlink:href="#ArialMT-33"/>
       <use xlink:href="#ArialMT-30" x="55.615234"/>
       <use xlink:href="#ArialMT-30" x="111.230469"/>
      </g>
     </g>
    </g>
    <g id="ytick_8">
     <g id="line2d_13">
      <path d="M 72 86.961094 
L 518.4 86.961094 
" clip-path="url(#p26ce215794)" style="fill: none; stroke: #ffffff; stroke-width: 0.8; stroke-linecap: round"/>
     </g>
     <g id="text_14">
      <!-- 350 -->
      <g style="fill: #262626" transform="translate(48.317188 90.54) scale(0.1 -0.1)">
       <use xlink:href="#ArialMT-33"/>
       <use xlink:href="#ArialMT-35" x="55.615234"/>
       <use xlink:href="#ArialMT-30" x="111.230469"/>
      </g>
     </g>
    </g>
    <g id="text_15">
     <!-- (W/m^2) -->
     <g style="fill: #262626" transform="translate(42.2125 236.889687) rotate(-90) scale(0.1 -0.1)">
      <defs>
       <path id="ArialMT-28" d="M 1497 -1347 
Q 1031 -759 709 28 
Q 388 816 388 1659 
Q 388 2403 628 3084 
Q 909 3875 1497 4659 
L 1900 4659 
Q 1522 4009 1400 3731 
Q 1209 3300 1100 2831 
Q 966 2247 966 1656 
Q 966 153 1900 -1347 
L 1497 -1347 
z
" transform="scale(0.015625)"/>
       <path id="ArialMT-57" d="M 1294 0 
L 78 4581 
L 700 4581 
L 1397 1578 
Q 1509 1106 1591 641 
Q 1766 1375 1797 1488 
L 2669 4581 
L 3400 4581 
L 4056 2263 
Q 4303 1400 4413 641 
Q 4500 1075 4641 1638 
L 5359 4581 
L 5969 4581 
L 4713 0 
L 4128 0 
L 3163 3491 
Q 3041 3928 3019 4028 
Q 2947 3713 2884 3491 
L 1913 0 
L 1294 0 
z
" transform="scale(0.015625)"/>
       <path id="ArialMT-2f" d="M 0 -78 
L 1328 4659 
L 1778 4659 
L 453 -78 
L 0 -78 
z
" transform="scale(0.015625)"/>
       <path id="ArialMT-6d" d="M 422 0 
L 422 3319 
L 925 3319 
L 925 2853 
Q 1081 3097 1340 3245 
Q 1600 3394 1931 3394 
Q 2300 3394 2536 3241 
Q 2772 3088 2869 2813 
Q 3263 3394 3894 3394 
Q 4388 3394 4653 3120 
Q 4919 2847 4919 2278 
L 4919 0 
L 4359 0 
L 4359 2091 
Q 4359 2428 4304 2576 
Q 4250 2725 4106 2815 
Q 3963 2906 3769 2906 
Q 3419 2906 3187 2673 
Q 2956 2441 2956 1928 
L 2956 0 
L 2394 0 
L 2394 2156 
Q 2394 2531 2256 2718 
Q 2119 2906 1806 2906 
Q 1569 2906 1367 2781 
Q 1166 2656 1075 2415 
Q 984 2175 984 1722 
L 984 0 
L 422 0 
z
" transform="scale(0.015625)"/>
       <path id="ArialMT-5e" d="M 747 2156 
L 169 2156 
L 1272 4659 
L 1725 4659 
L 2834 2156 
L 2269 2156 
L 1497 4022 
L 747 2156 
z
" transform="scale(0.015625)"/>
       <path id="ArialMT-29" d="M 791 -1347 
L 388 -1347 
Q 1322 153 1322 1656 
Q 1322 2244 1188 2822 
Q 1081 3291 891 3722 
Q 769 4003 388 4659 
L 791 4659 
Q 1378 3875 1659 3084 
Q 1900 2403 1900 1659 
Q 1900 816 1576 28 
Q 1253 -759 791 -1347 
z
" transform="scale(0.015625)"/>
      </defs>
      <use xlink:href="#ArialMT-28"/>
      <use xlink:href="#ArialMT-57" x="33.300781"/>
      <use xlink:href="#ArialMT-2f" x="127.685547"/>
      <use xlink:href="#ArialMT-6d" x="155.46875"/>
      <use xlink:href="#ArialMT-5e" x="238.769531"/>
      <use xlink:href="#ArialMT-32" x="285.693359"/>
      <use xlink:href="#ArialMT-29" x="341.308594"/>
     </g>
    </g>
   </g>
   <g id="line2d_14">
    <path d="M 92.290909 319.857501 
L 92.758981 264.49404 
L 93.227053 191.028086 
L 93.695124 193.899901 
L 94.163196 216.840901 
L 94.631268 299.235185 
L 95.099339 273.550875 
L 95.567411 272.528419 
L 96.035483 270.209735 
L 96.503555 244.508664 
L 96.971626 194.27983 
L 97.439698 215.483214 
L 97.90777 223.02592 
L 98.375841 208.415419 
L 98.843913 229.814355 
L 99.311985 211.974459 
L 99.780057 213.516523 
L 100.248128 196.402962 
L 100.7162 235.278626 
L 101.184272 248.760515 
L 101.652344 257.085427 
L 102.120415 248.782863 
L 102.588487 249.358344 
L 103.056559 352.866617 
L 103.52463 340.7927 
L 103.992702 310.968283 
L 104.460774 325.768748 
L 104.928846 285.881802 
L 105.396917 339.680849 
L 105.864989 332.411916 
L 106.801132 348.430388 
L 107.737276 264.426994 
L 108.205348 291.759525 
L 108.673419 220.863678 
L 109.141491 214.466346 
L 109.609563 230.976491 
L 110.077634 219.46688 
L 110.545706 256.766957 
L 111.013778 250.02322 
L 111.48185 293.24013 
L 111.949921 219.941791 
L 112.417993 248.67112 
L 112.886065 230.037843 
L 113.354137 224.093073 
L 113.822208 233.529836 
L 114.758352 355.00651 
L 115.226423 346.541918 
L 115.694495 242.480514 
L 116.162567 351.240744 
L 116.630639 253.97895 
L 117.09871 218.632474 
L 117.566782 239.200833 
L 118.034854 242.706673 
L 118.502925 346.24021 
L 118.970997 319.320037 
L 119.439069 256.170886 
L 119.907141 254.688523 
L 120.375212 294.73191 
L 120.843284 232.943181 
L 121.311356 242.08941 
L 121.779427 333.708144 
L 122.247499 276.729985 
L 122.715571 238.697986 
L 123.183643 235.837345 
L 123.651714 234.513181 
L 124.119786 270.287956 
L 124.587858 321.528071 
L 125.05593 350.05626 
L 125.524001 263.085561 
L 125.992073 348.313057 
L 126.460145 352.687827 
L 126.928216 292.681411 
L 127.396288 265.142154 
L 127.86436 266.66187 
L 128.332432 294.380078 
L 128.800503 235.166883 
L 129.268575 193.127411 
L 129.736647 234.552292 
L 130.204718 256.275285 
L 130.67279 261.292581 
L 131.140862 291.636607 
L 132.077005 193.228823 
L 132.545077 235.194819 
L 133.013149 231.842505 
L 133.949292 252.738594 
L 134.417364 272.455785 
L 134.885436 270.544967 
L 135.353507 246.078664 
L 135.821579 255.878594 
L 136.289651 355.470247 
L 136.757723 348.815904 
L 137.225794 297.128814 
L 137.693866 307.251708 
L 138.161938 353.861136 
L 138.630009 246.28539 
L 139.098081 236.10553 
L 139.566153 239.932755 
L 140.034225 248.598486 
L 140.502296 262.231229 
L 140.970368 257.074253 
L 141.43844 352.374944 
L 141.906511 338.954515 
L 142.374583 303.615541 
L 142.842655 233.267238 
L 143.310727 350.408253 
L 143.778798 350.251812 
L 144.24687 349.804837 
L 144.714942 281.41205 
L 145.183014 259.102402 
L 145.651085 264.516389 
L 146.119157 234.507594 
L 146.587229 219.656845 
L 147.0553 222.087272 
L 147.523372 253.470515 
L 147.991444 249.330408 
L 148.459516 224.104247 
L 148.927587 335.116116 
L 149.395659 347.553199 
L 149.863731 219.394247 
L 150.331802 217.89688 
L 150.799874 218.718197 
L 151.736018 243.374464 
L 152.204089 241.569802 
L 152.672161 248.542614 
L 153.140233 240.603218 
L 153.608304 308.58814 
L 154.076376 262.45759 
L 154.544448 202.913602 
L 155.01252 235.943502 
L 155.480591 319.393764 
L 155.948663 344.971918 
L 156.416735 304.688282 
L 156.884807 232.088341 
L 157.352878 324.480546 
L 157.82095 201.07944 
L 158.289022 221.260368 
L 159.225165 206.543711 
L 159.693237 229.300334 
L 160.161309 299.989455 
L 160.62938 289.60287 
L 161.097452 214.807164 
L 161.565524 230.428946 
L 162.033595 220.209976 
L 162.501667 264.225855 
L 162.969739 194.274243 
L 163.437811 213.510936 
L 163.905882 211.784495 
L 164.373954 200.459262 
L 164.842026 297.396999 
L 165.310098 226.80286 
L 165.778169 236.284321 
L 166.246241 223.199123 
L 166.714313 341.611282 
L 167.182384 329.199751 
L 167.650456 328.612627 
L 168.118528 185.887871 
L 168.5866 209.275847 
L 169.054671 200.08492 
L 169.522743 186.346021 
L 169.990815 292.826678 
L 170.458886 244.777708 
L 170.926958 179.836945 
L 171.39503 174.724667 
L 171.863102 303.244819 
L 172.331173 262.097136 
L 172.799245 250.732793 
L 173.267317 337.770031 
L 173.735388 301.643263 
L 174.20346 312.130418 
L 174.671532 331.713517 
L 175.139604 307.314261 
L 175.607675 189.944171 
L 176.075747 184.753672 
L 176.543819 249.844429 
L 177.011891 339.529995 
L 177.479962 247.525746 
L 177.948034 280.747175 
L 178.416106 224.640618 
L 178.884177 198.213211 
L 179.352249 309.010904 
L 179.820321 278.814007 
L 180.288393 276.14735 
L 180.756464 204.7167 
L 181.224536 169.689632 
L 181.692608 223.891934 
L 182.160679 156.979753 
L 182.628751 154.398471 
L 183.096823 159.097298 
L 183.564895 142.190462 
L 184.032966 143.581672 
L 184.501038 159.41018 
L 184.96911 200.626877 
L 185.437182 142.777117 
L 185.905253 138.927544 
L 186.373325 167.852424 
L 186.841397 205.878835 
L 187.309468 185.19506 
L 187.77754 136.737427 
L 188.245612 133.743452 
L 188.713684 137.368718 
L 189.181755 146.978684 
L 189.649827 218.022572 
L 190.117899 266.455144 
L 190.58597 170.316374 
L 191.054042 142.279857 
L 191.522114 142.112242 
L 191.990186 146.593168 
L 192.458257 161.628295 
L 192.926329 284.674068 
L 193.394401 245.123254 
L 193.862472 155.342706 
L 194.798616 296.815932 
L 195.266688 239.235841 
L 195.734759 284.043616 
L 196.202831 264.644894 
L 196.670903 214.204607 
L 197.138975 151.152314 
L 197.607046 187.770754 
L 198.075118 329.316613 
L 198.54319 265.779094 
L 199.011261 154.02413 
L 199.479333 153.700073 
L 199.947405 252.721832 
L 200.415477 272.640163 
L 200.883548 239.675745 
L 201.35162 178.205486 
L 201.819692 138.368825 
L 202.287763 166.662352 
L 202.755835 161.846195 
L 203.223907 142.028434 
L 203.691979 163.779362 
L 204.16005 192.198067 
L 204.628122 252.783291 
L 205.096194 197.637731 
L 205.564265 180.652675 
L 206.032337 193.894314 
L 206.500409 195.18222 
L 206.968481 160.996942 
L 207.436552 297.648423 
L 208.372696 155.67235 
L 208.840768 153.314557 
L 209.308839 152.800535 
L 209.776911 185.580576 
L 210.244983 183.077515 
L 210.713054 130.178005 
L 211.181126 135.804305 
L 211.649198 124.300281 
L 212.11727 125.903805 
L 212.585341 227.347552 
L 213.053413 216.332467 
L 213.521485 173.199364 
L 213.989556 119.249462 
L 214.457628 127.177684 
L 214.9257 132.574909 
L 215.393772 153.219574 
L 215.861843 152.498827 
L 216.329915 137.798931 
L 216.797987 231.328483 
L 217.266059 161.583597 
L 217.73413 237.709054 
L 218.202202 172.584773 
L 218.670274 139.715337 
L 219.138345 182.088582 
L 219.606417 266.287528 
L 220.074489 162.298757 
L 221.010632 119.020387 
L 221.478704 122.328004 
L 222.414847 157.119433 
L 222.882919 239.279054 
L 223.350991 206.158195 
L 223.819063 237.139161 
L 224.755206 131.847402 
L 225.223278 152.906692 
L 225.691349 168.558754 
L 226.159421 125.389783 
L 226.627493 176.892496 
L 227.095565 198.537268 
L 227.563636 111.49634 
L 228.031708 96.332335 
L 228.49978 147.386548 
L 228.967852 154.178031 
L 229.435923 151.940108 
L 229.903995 155.303596 
L 230.372067 142.760356 
L 230.840138 151.515482 
L 231.30821 132.032952 
L 231.776282 133.301244 
L 232.244354 165.35495 
L 232.712425 175.221927 
L 233.180497 257.459769 
L 233.648569 129.842773 
L 234.11664 126.473698 
L 234.584712 157.985447 
L 235.052784 159.041426 
L 235.520856 170.277264 
L 235.988927 153.795055 
L 236.456999 145.660107 
L 236.925071 169.932359 
L 237.393142 139.519786 
L 237.861214 172.931179 
L 238.329286 146.883701 
L 238.797358 167.28253 
L 239.265429 149.613423 
L 239.733501 147.408897 
L 240.201573 145.894769 
L 240.669645 140.134377 
L 241.137716 138.435871 
L 241.605788 138.933131 
L 242.07386 146.475837 
L 242.541931 142.91121 
L 243.010003 148.822456 
L 243.478075 164.094215 
L 243.946147 149.638186 
L 244.414218 175.004026 
L 244.88229 153.599503 
L 245.350362 158.639148 
L 245.818433 148.409717 
L 246.286505 166.064285 
L 246.754577 154.644308 
L 247.222649 210.627946 
L 247.69072 216.310118 
L 248.158792 153.482172 
L 248.626864 147.934093 
L 249.094936 166.075697 
L 249.563007 216.248659 
L 250.031079 161.594771 
L 250.499151 180.060433 
L 250.967222 216.924709 
L 251.435294 176.937194 
L 251.903366 183.988227 
L 252.371438 234.395851 
L 252.839509 364.656446 
L 253.307581 368.555445 
L 253.775653 159.242341 
L 254.243724 189.245772 
L 254.711796 179.423493 
L 255.179868 178.311642 
L 255.64794 171.668474 
L 256.116011 170.394595 
L 256.584083 194.721218 
L 257.052155 184.898939 
L 257.520226 153.391761 
L 257.988298 216.919122 
L 258.45637 260.21984 
L 258.924442 179.809009 
L 259.392513 208.465704 
L 259.860585 205.856487 
L 260.328657 210.326238 
L 260.796729 237.172684 
L 261.2648 235.122185 
L 261.732872 231.306135 
L 262.200944 203.778052 
L 263.137087 240.273574 
L 263.605159 190.50289 
L 264.073231 225.165813 
L 264.541302 210.577662 
L 265.009374 209.236736 
L 265.477446 188.100398 
L 265.945517 186.692427 
L 266.413589 193.072997 
L 266.881661 221.707343 
L 267.349733 203.370187 
L 267.817804 206.621932 
L 268.285876 247.374892 
L 268.753948 259.705819 
L 269.22202 197.905916 
L 269.690091 215.058588 
L 270.158163 217.04204 
L 270.626235 333.512592 
L 271.094306 222.835955 
L 271.562378 202.437127 
L 272.03045 205.834138 
L 272.498522 288.301055 
L 272.966593 232.267131 
L 273.434665 214.270794 
L 273.902737 250.509305 
L 274.370808 266.38251 
L 274.83888 217.941577 
L 275.306952 197.157233 
L 275.775024 206.487839 
L 276.243095 220.707236 
L 276.711167 261.873648 
L 277.179239 326.673872 
L 278.115382 207.661149 
L 278.583454 242.603432 
L 279.051526 245.922222 
L 279.519597 231.194391 
L 279.987669 241.323184 
L 280.455741 316.711913 
L 280.923813 237.653182 
L 281.391884 321.433088 
L 281.859956 320.667644 
L 282.328028 318.198106 
L 282.796099 258.443114 
L 283.264171 348.435975 
L 283.732243 315.158675 
L 284.200315 229.155067 
L 284.668386 234.664036 
L 285.136458 228.171721 
L 285.60453 241.614499 
L 286.072601 235.759125 
L 286.540673 237.452043 
L 287.008745 264.125286 
L 287.944888 245.039447 
L 288.41296 334.529461 
L 288.881032 235.557986 
L 289.349103 238.647702 
L 289.817175 279.66326 
L 290.753319 248.179447 
L 291.22139 245.313219 
L 291.689462 238.658876 
L 292.157534 268.706781 
L 292.625606 235.261865 
L 293.093677 244.408094 
L 293.561749 239.144962 
L 294.029821 246.307739 
L 294.497892 257.158061 
L 294.965964 246.408308 
L 295.434036 250.995391 
L 295.902108 247.63749 
L 296.370179 335.66366 
L 296.838251 285.133118 
L 297.306323 282.898243 
L 297.774394 243.028058 
L 298.242466 241.927382 
L 298.710538 242.798984 
L 299.17861 251.040088 
L 299.646681 267.505535 
L 300.114753 244.167845 
L 300.582825 262.085962 
L 301.050897 333.747254 
L 301.518968 343.547185 
L 301.98704 234.865174 
L 302.455112 236.993894 
L 302.923183 243.93877 
L 303.391255 244.061688 
L 303.859327 310.666574 
L 304.327399 327.746613 
L 304.79547 247.955959 
L 305.263542 282.523901 
L 305.731614 237.267666 
L 306.199685 355.928396 
L 306.667757 348.586829 
L 307.135829 277.076391 
L 307.603901 271.183625 
L 308.071972 232.895045 
L 309.008116 234.468484 
L 309.476187 238.005175 
L 309.944259 257.169235 
L 310.412331 284.138599 
L 310.880403 286.524329 
L 311.348474 227.216312 
L 311.816546 242.474927 
L 312.284618 290.77618 
L 312.75269 258.459876 
L 313.688833 342.150387 
L 314.156905 336.350884 
L 314.624976 256.671975 
L 315.093048 327.193481 
L 315.56112 285.395716 
L 316.029192 351.367218 
L 316.497263 331.517966 
L 316.965335 229.948448 
L 317.433407 246.631796 
L 317.901478 338.110849 
L 318.36955 242.620193 
L 318.837622 227.322469 
L 319.305694 225.713358 
L 319.773765 219.265741 
L 320.241837 305.688388 
L 320.709909 259.040943 
L 321.17798 263.566567 
L 321.646052 265.617065 
L 322.114124 291.854507 
L 322.582196 261.219947 
L 323.050267 284.993439 
L 323.518339 215.896666 
L 323.986411 213.952324 
L 324.454483 214.404886 
L 324.922554 242.843681 
L 325.390626 229.892576 
L 325.858698 332.825368 
L 326.326769 313.622198 
L 326.794841 252.353078 
L 327.262913 333.406436 
L 327.730985 241.47482 
L 328.199056 230.484818 
L 328.667128 223.869585 
L 329.1352 249.185141 
L 329.603271 351.140175 
L 330.071343 351.285442 
L 330.539415 307.761236 
L 331.007487 224.674141 
L 331.475558 250.302579 
L 331.94363 199.788799 
L 332.411702 207.487946 
L 332.879774 221.478268 
L 333.347845 182.591429 
L 333.815917 186.58627 
L 334.283989 208.627733 
L 334.75206 195.402855 
L 335.220132 198.520507 
L 335.688204 303.649064 
L 336.156276 215.310011 
L 336.624347 191.190114 
L 337.092419 212.427021 
L 338.028562 284.546463 
L 338.964706 300.570523 
L 339.432778 225.305493 
L 339.900849 240.128307 
L 340.368921 193.56467 
L 340.836993 220.707236 
L 341.305064 313.644546 
L 341.773136 301.995256 
L 342.241208 197.447766 
L 342.70928 192.631609 
L 343.177351 196.847022 
L 343.645423 339.312095 
L 344.113495 335.440173 
L 344.581567 268.081016 
L 345.049638 233.803608 
L 345.51771 166.187441 
L 345.985782 166.368964 
L 346.453853 169.405662 
L 346.921925 186.58627 
L 347.389997 237.792862 
L 347.858069 342.077754 
L 348.32614 236.418413 
L 348.794212 185.100078 
L 349.262284 258.901264 
L 349.730355 180.429187 
L 350.198427 257.828523 
L 350.666499 310.152553 
L 351.134571 328.316506 
L 352.538786 182.881963 
L 353.006858 204.632892 
L 353.474929 271.109273 
L 353.943001 238.217488 
L 354.411073 69.645035 
L 354.879144 66.96 
L 355.347216 296.067248 
L 355.815288 315.560952 
L 356.28336 305.38668 
L 356.751431 188.659117 
L 357.219503 232.82585 
L 357.687575 158.985554 
L 358.155646 144.732633 
L 359.09179 204.124458 
L 359.559862 147.118363 
L 360.027933 135.597579 
L 360.496005 199.76645 
L 360.964077 286.205859 
L 361.432148 204.286486 
L 361.90022 170.187869 
L 362.368292 166.092459 
L 362.836364 252.062544 
L 363.304435 130.340033 
L 363.772507 134.547187 
L 364.240579 139.799145 
L 364.708651 143.117936 
L 365.176722 164.505697 
L 365.644794 133.412988 
L 366.112866 140.341103 
L 366.580937 233.546598 
L 367.049009 263.857101 
L 367.517081 263.750944 
L 367.985153 249.872365 
L 368.453224 166.991996 
L 368.921296 181.613671 
L 369.389368 167.8189 
L 369.857439 184.546946 
L 370.325511 175.551571 
L 370.793583 129.267293 
L 371.261655 121.529035 
L 371.729726 144.905836 
L 372.197798 159.309611 
L 372.66587 206.292287 
L 373.133941 159.002315 
L 373.602013 212.197947 
L 374.538157 185.51353 
L 375.006228 243.173325 
L 375.4743 147.844698 
L 375.942372 195.464314 
L 376.410444 146.886198 
L 376.878515 268.69002 
L 377.346587 199.833496 
L 377.814659 223.234756 
L 378.28273 206.929227 
L 378.750802 159.577796 
L 379.218874 134.318112 
L 379.686946 144.954149 
L 380.155017 122.25537 
L 380.623089 118.405797 
L 381.091161 125.529463 
L 381.559232 203.560152 
L 382.027304 151.163489 
L 382.495376 359.192433 
L 382.963448 113.880173 
L 383.431519 123.24989 
L 383.899591 116.819035 
L 384.367663 156.231069 
L 384.835735 137.00555 
L 385.303806 145.29694 
L 385.771878 148.314022 
L 386.23995 126.272559 
L 386.708021 174.551464 
L 387.176093 133.86555 
L 387.644165 133.927009 
L 388.112237 162.036159 
L 388.580308 197.146058 
L 389.04838 131.071955 
L 389.984523 271.494789 
L 390.452595 261.03159 
L 390.920667 186.658903 
L 391.388739 265.890838 
L 391.85681 293.769754 
L 392.324882 197.352784 
L 392.792954 241.126818 
L 393.261025 122.97053 
L 393.729097 120.758003 
L 394.665241 138.089465 
L 395.133312 336.043656 
L 395.601384 135.167365 
L 396.069456 137.530746 
L 396.537528 133.373877 
L 397.005599 132.317898 
L 397.473671 123.126972 
L 397.941743 119.880815 
L 398.409814 143.838683 
L 398.877886 139.0337 
L 399.345958 149.25267 
L 399.81403 212.700794 
L 400.282101 248.023006 
L 400.750173 210.169797 
L 401.218245 227.277771 
L 401.686316 227.534782 
L 402.154388 162.181426 
L 402.62246 142.73242 
L 403.090532 272.68486 
L 403.558603 335.432613 
L 404.026675 298.952473 
L 404.494747 349.520844 
L 404.962818 277.815111 
L 405.43089 262.0692 
L 405.898962 273.28546 
L 406.367034 174.015094 
L 406.835105 142.693309 
L 407.303177 128.429215 
L 407.771249 132.91014 
L 408.239321 141.939039 
L 408.707392 319.421253 
L 409.175464 165.299078 
L 409.643536 185.848761 
L 410.111607 125.233342 
L 410.579679 134.089037 
L 411.047751 154.107937 
L 411.515823 165.578437 
L 411.983894 159.058187 
L 412.451966 145.699217 
L 412.920038 117.914977 
L 413.388109 114.633263 
L 413.856181 196.062143 
L 414.324253 189.597765 
L 414.792325 145.358399 
L 415.260396 113.531532 
L 415.728468 107.552096 
L 416.19654 174.171535 
L 416.664612 145.91153 
L 417.132683 172.037229 
L 417.600755 160.136515 
L 418.068827 168.360858 
L 418.536898 164.39954 
L 419.00497 162.566942 
L 419.473042 293.899919 
L 419.941114 369.36 
L 420.409185 229.107261 
L 420.877257 193.715524 
L 421.345329 324.079628 
L 421.8134 364.157209 
L 422.281472 232.244783 
L 422.749544 265.698455 
L 423.217616 275.060048 
L 423.685687 365.0858 
L 424.153759 176.00972 
L 424.621831 152.197119 
L 425.089902 139.743273 
L 425.557974 141.168007 
L 426.026046 140.223772 
L 426.494118 173.489898 
L 426.962189 152.130072 
L 427.430261 177.088048 
L 427.898333 181.870682 
L 428.366405 145.458968 
L 428.834476 134.033166 
L 429.302548 125.780887 
L 429.77062 168.617869 
L 430.238691 148.783346 
L 430.706763 138.055942 
L 431.174835 138.89402 
L 431.642907 145.866833 
L 432.57905 172.204844 
L 433.047122 140.972455 
L 433.515193 154.320251 
L 433.983265 139.514198 
L 434.451337 134.413094 
L 434.919409 177.657941 
L 435.38748 167.450146 
L 435.855552 234.088555 
L 436.323624 222.338696 
L 436.791696 221.048055 
L 437.259767 173.467549 
L 437.727839 178.702746 
L 438.195911 160.024771 
L 438.663982 149.850499 
L 439.132054 162.494309 
L 439.600126 160.834914 
L 440.068198 201.889582 
L 440.536269 191.609153 
L 441.472413 252.191049 
L 441.940484 179.646981 
L 442.408556 199.62677 
L 442.876628 188.564135 
L 443.812771 241.027844 
L 444.280843 190.352036 
L 444.748915 164.745946 
L 445.216986 198.822215 
L 446.15313 317.941095 
L 446.621202 279.48447 
L 447.557345 164.287797 
L 448.025417 182.80933 
L 448.493489 176.445521 
L 448.96156 158.387725 
L 449.429632 168.807833 
L 449.897704 167.606587 
L 450.365775 158.102778 
L 450.833847 227.177202 
L 451.301919 212.337626 
L 451.769991 173.819542 
L 452.238062 189.089331 
L 452.706134 181.440468 
L 453.174206 171.025947 
L 453.642277 206.180544 
L 454.110349 169.863812 
L 454.578421 197.185168 
L 455.046493 196.179474 
L 455.514564 196.721432 
L 455.982636 250.324928 
L 456.918779 179.669329 
L 457.386851 177.931713 
L 457.854923 175.75271 
L 458.322995 176.199685 
L 458.791066 197.106948 
L 459.259138 276.534434 
L 459.72721 307.135471 
L 460.195282 275.344362 
L 460.663353 324.260206 
L 461.131425 272.757494 
L 461.599497 325.746399 
L 462.067568 215.377057 
L 462.53564 328.137716 
L 463.003712 312.091308 
L 463.471784 196.88346 
L 464.407927 206.862181 
L 464.875999 224.573571 
L 465.34407 229.233287 
L 465.812142 255.951228 
L 466.280214 330.428464 
L 466.748286 248.090052 
L 467.216357 199.012179 
L 467.684429 201.096201 
L 468.152501 199.710578 
L 468.620573 269.254326 
L 469.088644 218.522645 
L 469.556716 204.761397 
L 470.024788 203.336664 
L 470.492859 221.517379 
L 470.960931 213.617093 
L 471.429003 210.292715 
L 471.897075 208.421007 
L 472.365146 328.914335 
L 472.833218 311.543763 
L 473.30129 325.824619 
L 473.769361 231.937487 
L 474.237433 218.880225 
L 474.705505 217.410794 
L 475.173577 214.572502 
L 475.641648 223.160012 
L 476.10972 220.897201 
L 476.577792 255.05169 
L 477.045863 244.486315 
L 477.513935 236.558093 
L 477.982007 235.714427 
L 478.450079 216.455385 
L 478.91815 223.322041 
L 479.386222 247.028486 
L 479.854294 336.328536 
L 480.322366 341.368181 
L 480.790437 344.92722 
L 481.258509 340.513341 
L 481.726581 347.106224 
L 482.662724 325.852555 
L 483.130796 333.657859 
L 483.598868 245.626101 
L 484.066939 332.143731 
L 484.535011 227.456561 
L 485.003083 222.009051 
L 485.939226 241.877097 
L 486.87537 346.312843 
L 487.343441 264.382297 
L 487.811513 333.98074 
L 488.279585 369.294766 
L 489.215728 290.871162 
L 489.6838 295.58675 
L 490.151872 286.40141 
L 490.619943 312.493585 
L 491.088015 287.569133 
L 491.556087 243.331759 
L 492.024159 240.938449 
L 492.49223 240.647916 
L 492.960302 250.883647 
L 493.896445 348.503022 
L 494.364517 265.376816 
L 494.832589 237.315237 
L 495.300661 344.418786 
L 495.768732 341.658329 
L 496.236804 317.549992 
L 496.704876 214.254032 
L 497.172947 210.309477 
L 497.641019 224.232753 
L 498.109091 138.331517 
L 498.109091 138.331517 
" clip-path="url(#p26ce215794)" style="fill: none; stroke: #1f77b4; stroke-width: 1.5; stroke-linecap: round"/>
   </g>
   <g id="line2d_15">
    <path d="M 92.290909 221.002308 
L 92.758981 228.930565 
L 93.227053 228.790274 
L 93.695124 224.170367 
L 94.163196 226.442766 
L 94.631268 221.043107 
L 95.099339 230.26973 
L 95.567411 231.185771 
L 96.035483 224.09228 
L 96.503555 225.436654 
L 96.971626 229.880061 
L 97.439698 221.541327 
L 97.90777 222.766327 
L 98.375841 221.994139 
L 98.843913 211.754271 
L 99.311985 209.956251 
L 99.780057 203.585654 
L 100.248128 205.377342 
L 100.7162 208.954396 
L 101.184272 220.892414 
L 101.652344 222.421708 
L 102.120415 219.835318 
L 102.588487 216.485953 
L 103.056559 224.081001 
L 103.52463 236.667068 
L 103.992702 233.909808 
L 104.460774 255.373539 
L 104.928846 264.86042 
L 105.396917 281.608581 
L 105.864989 280.305061 
L 106.333061 296.099324 
L 106.801132 284.958011 
L 107.269204 284.445362 
L 107.737276 285.042395 
L 108.205348 286.087272 
L 108.673419 285.593658 
L 109.141491 281.056731 
L 109.609563 281.413192 
L 110.077634 283.80893 
L 110.545706 271.562967 
L 111.48185 268.216028 
L 111.949921 272.956559 
L 112.417993 272.940154 
L 112.886065 272.101469 
L 113.354137 279.139894 
L 113.822208 271.28754 
L 114.29028 266.044703 
L 114.758352 271.512751 
L 115.226423 267.333563 
L 115.694495 253.850199 
L 116.162567 268.405523 
L 116.630639 277.517448 
L 117.09871 263.920163 
L 117.566782 265.403956 
L 118.034854 283.000905 
L 118.502925 275.137239 
L 118.970997 271.715714 
L 119.439069 274.035677 
L 119.907141 272.118034 
L 120.375212 277.363396 
L 120.843284 279.459377 
L 121.311356 277.438523 
L 121.779427 279.774652 
L 122.247499 287.197561 
L 123.183643 273.583701 
L 123.651714 280.997699 
L 124.119786 279.84074 
L 124.587858 276.934088 
L 125.05593 279.392683 
L 125.524001 277.449464 
L 125.992073 270.241587 
L 126.460145 280.100546 
L 126.928216 278.792933 
L 127.396288 283.629517 
L 127.86436 283.517585 
L 128.332432 284.527053 
L 128.800503 283.470896 
L 129.268575 274.946546 
L 129.736647 274.51664 
L 130.204718 274.684883 
L 130.67279 281.256059 
L 131.140862 276.464798 
L 131.608934 278.806981 
L 132.077005 274.215812 
L 132.545077 251.554385 
L 133.013149 270.565773 
L 133.481221 269.401974 
L 133.949292 277.248507 
L 134.417364 270.492275 
L 134.885436 271.105996 
L 135.353507 272.658841 
L 135.821579 272.91822 
L 136.289651 281.260879 
L 136.757723 281.134941 
L 137.225794 267.854487 
L 137.693866 270.663161 
L 138.161938 279.336267 
L 138.630009 294.34353 
L 139.098081 273.636904 
L 139.566153 284.400327 
L 140.034225 285.220114 
L 140.502296 278.342839 
L 140.970368 277.72923 
L 141.43844 274.972862 
L 141.906511 283.548894 
L 142.374583 295.134966 
L 142.842655 293.965447 
L 143.310727 283.511383 
L 143.778798 284.054815 
L 144.714942 270.698676 
L 145.183014 285.656929 
L 145.651085 286.190692 
L 146.119157 283.159115 
L 146.587229 275.607623 
L 147.0553 278.650771 
L 147.523372 271.724268 
L 147.991444 267.320874 
L 148.459516 273.986795 
L 148.927587 271.702152 
L 149.395659 277.912991 
L 149.863731 276.412498 
L 150.331802 275.856015 
L 150.799874 277.964481 
L 151.267946 277.935507 
L 151.736018 266.567498 
L 152.204089 268.373082 
L 152.672161 272.292037 
L 153.140233 273.075547 
L 153.608304 264.197602 
L 154.076376 271.780975 
L 154.544448 276.612348 
L 155.01252 272.20475 
L 155.480591 265.295504 
L 155.948663 262.811969 
L 156.416735 252.774568 
L 156.884807 255.114341 
L 157.352878 278.428061 
L 157.82095 281.053492 
L 158.289022 274.786005 
L 158.757093 270.18736 
L 159.225165 269.526311 
L 159.693237 270.776619 
L 160.161309 265.620691 
L 160.62938 256.554518 
L 161.097452 245.000421 
L 161.565524 255.725006 
L 162.033595 263.350587 
L 162.501667 261.158744 
L 162.969739 268.37285 
L 163.437811 265.79933 
L 163.905882 261.569901 
L 164.373954 260.588651 
L 164.842026 263.071869 
L 165.310098 263.874909 
L 165.778169 256.887489 
L 166.246241 258.669823 
L 166.714313 261.515864 
L 167.182384 236.387447 
L 167.650456 249.568686 
L 168.118528 236.814164 
L 168.5866 273.854291 
L 169.054671 275.017474 
L 169.522743 259.958684 
L 169.990815 257.538041 
L 170.458886 256.526191 
L 170.926958 252.558699 
L 171.863102 223.26608 
L 172.331173 242.78037 
L 172.799245 242.241196 
L 173.267317 249.671279 
L 173.735388 259.154969 
L 174.20346 276.241155 
L 174.671532 269.983014 
L 175.139604 260.134576 
L 175.607675 265.122646 
L 176.075747 257.902548 
L 176.543819 260.329713 
L 177.011891 254.408572 
L 177.479962 253.548437 
L 177.948034 238.064277 
L 178.416106 250.70026 
L 179.352249 224.92875 
L 180.288393 260.924435 
L 180.756464 264.664304 
L 181.224536 244.986276 
L 181.692608 232.199801 
L 182.160679 235.419665 
L 182.628751 224.896001 
L 183.096823 223.123041 
L 183.564895 205.125191 
L 184.032966 204.657102 
L 184.501038 208.546313 
L 184.96911 203.540157 
L 185.437182 204.721456 
L 185.905253 198.455772 
L 186.373325 196.956857 
L 186.841397 204.547004 
L 187.309468 200.217914 
L 187.77754 202.496767 
L 188.245612 201.625378 
L 188.713684 204.871972 
L 189.181755 202.280555 
L 189.649827 203.556234 
L 190.117899 203.92495 
L 190.58597 203.270768 
L 191.054042 197.679043 
L 191.522114 198.216345 
L 191.990186 208.450317 
L 192.458257 210.652346 
L 192.926329 202.367477 
L 193.394401 197.677652 
L 193.862472 201.309535 
L 194.330544 202.939264 
L 194.798616 208.670187 
L 195.266688 216.717071 
L 195.734759 209.693722 
L 196.202831 220.896848 
L 196.670903 203.305156 
L 197.138975 218.20494 
L 197.607046 202.910778 
L 198.075118 221.773702 
L 198.54319 228.871794 
L 199.479333 212.444679 
L 199.947405 204.754477 
L 200.415477 217.09404 
L 200.883548 215.709074 
L 201.35162 214.918209 
L 201.819692 217.161873 
L 202.287763 200.066617 
L 202.755835 202.179736 
L 203.223907 201.155688 
L 203.691979 198.012005 
L 204.16005 196.229123 
L 204.628122 204.426348 
L 205.096194 201.435362 
L 205.564265 197.430958 
L 206.032337 202.706928 
L 206.500409 199.14867 
L 206.968481 200.521717 
L 207.904624 206.831277 
L 208.840768 198.725459 
L 209.308839 196.790836 
L 209.776911 197.798804 
L 210.244983 196.353458 
L 210.713054 197.559838 
L 211.181126 191.278432 
L 211.649198 193.125638 
L 212.585341 166.293906 
L 213.053413 198.962346 
L 213.521485 192.66025 
L 213.989556 196.330621 
L 214.457628 189.984813 
L 214.9257 196.613613 
L 215.393772 192.282731 
L 215.861843 184.339706 
L 216.329915 170.444782 
L 216.797987 164.419058 
L 217.266059 187.702238 
L 217.73413 193.668491 
L 218.202202 195.988245 
L 218.670274 185.870219 
L 219.138345 193.658456 
L 219.606417 195.757092 
L 220.074489 203.184388 
L 220.542561 204.398039 
L 221.010632 195.215743 
L 221.478704 197.591056 
L 221.946776 196.363766 
L 222.414847 221.548582 
L 222.882919 199.367804 
L 223.350991 188.093786 
L 223.819063 193.259372 
L 224.287134 195.030927 
L 224.755206 198.294263 
L 225.223278 187.641823 
L 225.691349 197.393533 
L 226.159421 195.57306 
L 226.627493 169.710754 
L 227.095565 193.46374 
L 227.563636 200.00287 
L 228.031708 189.758216 
L 228.49978 167.653097 
L 228.967852 173.529048 
L 229.435923 183.020523 
L 229.903995 167.353778 
L 230.372067 162.644734 
L 230.840138 166.701142 
L 231.30821 168.284342 
L 231.776282 168.23633 
L 232.244354 174.315361 
L 232.712425 193.188255 
L 233.180497 198.555856 
L 233.648569 195.751952 
L 234.11664 201.293634 
L 234.584712 197.547343 
L 235.052784 199.267989 
L 235.520856 201.777377 
L 235.988927 190.488667 
L 236.456999 194.02853 
L 236.925071 193.105498 
L 237.393142 190.62636 
L 237.861214 181.419496 
L 238.329286 195.496074 
L 238.797358 193.834519 
L 239.265429 204.255279 
L 239.733501 190.013566 
L 240.201573 189.628375 
L 240.669645 188.370158 
L 241.137716 180.383149 
L 241.605788 182.31747 
L 242.07386 162.559756 
L 242.541931 159.938358 
L 243.010003 162.749355 
L 243.478075 153.58121 
L 243.946147 166.900184 
L 244.414218 176.781092 
L 244.88229 194.424766 
L 245.350362 165.630372 
L 245.818433 178.266701 
L 246.286505 178.811409 
L 246.754577 190.555087 
L 247.222649 206.621659 
L 247.69072 207.726057 
L 248.158792 200.177349 
L 248.626864 200.516249 
L 249.094936 198.65304 
L 249.563007 203.262707 
L 250.031079 205.222025 
L 250.499151 209.79441 
L 250.967222 197.294954 
L 251.435294 215.811966 
L 251.903366 204.129907 
L 252.371438 205.707146 
L 253.307581 229.410701 
L 253.775653 225.124752 
L 254.243724 222.085489 
L 254.711796 227.568069 
L 255.179868 216.370026 
L 255.64794 222.216765 
L 256.116011 221.07947 
L 256.584083 207.458172 
L 257.052155 205.780596 
L 257.988298 209.958862 
L 258.45637 216.258918 
L 258.924442 218.865027 
L 259.392513 209.482345 
L 259.860585 204.443507 
L 260.328657 207.253791 
L 261.2648 218.656025 
L 261.732872 221.496516 
L 262.200944 225.317181 
L 262.669015 211.145307 
L 263.137087 217.376442 
L 263.605159 214.022243 
L 264.073231 199.445427 
L 264.541302 200.762234 
L 265.009374 198.465681 
L 265.477446 203.008371 
L 265.945517 208.720258 
L 266.413589 204.560995 
L 266.881661 222.421708 
L 267.349733 216.979973 
L 268.285876 229.086769 
L 268.753948 226.626032 
L 269.22202 221.97607 
L 269.690091 220.25284 
L 270.158163 229.831553 
L 271.094306 264.41011 
L 271.562378 258.19848 
L 272.03045 249.405736 
L 272.966593 259.146873 
L 273.902737 241.073184 
L 274.370808 239.803857 
L 274.83888 227.234807 
L 275.306952 230.044653 
L 275.775024 239.050108 
L 276.243095 257.957968 
L 277.179239 261.963672 
L 277.64731 260.870536 
L 278.115382 274.353309 
L 278.583454 274.792518 
L 279.051526 276.936496 
L 279.519597 276.938096 
L 279.987669 266.444806 
L 280.455741 267.70669 
L 280.923813 262.777757 
L 281.391884 259.470717 
L 281.859956 269.191397 
L 282.328028 272.613308 
L 282.796099 277.653625 
L 283.732243 266.412335 
L 284.200315 266.114817 
L 284.668386 273.565786 
L 285.136458 285.795187 
L 285.60453 281.88651 
L 286.072601 274.375828 
L 286.540673 273.289431 
L 287.008745 273.478641 
L 287.944888 272.693464 
L 288.41296 267.63098 
L 288.881032 267.466234 
L 289.349103 273.612989 
L 289.817175 274.628392 
L 290.285247 273.449303 
L 290.753319 264.126346 
L 291.22139 268.352155 
L 291.689462 279.631432 
L 292.157534 273.444675 
L 292.625606 273.627906 
L 293.093677 278.492307 
L 293.561749 273.614108 
L 294.029821 266.81646 
L 294.497892 271.609532 
L 294.965964 278.302579 
L 295.434036 278.228698 
L 295.902108 280.716425 
L 296.370179 274.52393 
L 296.838251 273.335195 
L 297.306323 279.080937 
L 297.774394 283.243236 
L 298.242466 277.244336 
L 298.710538 279.106041 
L 299.646681 260.785009 
L 300.114753 277.292924 
L 300.582825 279.328949 
L 301.050897 272.25375 
L 301.518968 283.956554 
L 301.98704 280.295722 
L 302.455112 281.754307 
L 302.923183 278.101653 
L 303.859327 277.447648 
L 304.327399 276.17023 
L 304.79547 276.259109 
L 305.263542 274.750654 
L 305.731614 276.126152 
L 306.199685 276.635109 
L 306.667757 272.142754 
L 307.135829 275.927328 
L 307.603901 271.406114 
L 308.071972 273.98311 
L 308.540044 282.098368 
L 309.008116 287.504606 
L 309.476187 290.45089 
L 309.944259 277.731437 
L 310.412331 276.017739 
L 310.880403 272.715068 
L 311.348474 275.720154 
L 311.816546 276.051734 
L 312.284618 276.185362 
L 312.75269 283.385657 
L 313.220761 277.531122 
L 313.688833 258.933003 
L 314.156905 279.794615 
L 314.624976 278.53578 
L 315.093048 281.150644 
L 315.56112 288.806386 
L 316.029192 284.457909 
L 316.497263 272.754694 
L 316.965335 289.28386 
L 317.433407 276.798062 
L 317.901478 274.888017 
L 318.36955 279.684884 
L 318.837622 262.81111 
L 319.773765 279.847762 
L 320.241837 273.503868 
L 320.709909 272.007156 
L 321.17798 274.628392 
L 321.646052 275.325967 
L 322.114124 278.7368 
L 323.050267 272.573901 
L 323.518339 273.082056 
L 323.986411 277.438442 
L 324.454483 276.815593 
L 325.390626 269.665548 
L 325.858698 267.241906 
L 326.326769 269.365778 
L 326.794841 269.922697 
L 327.262913 273.197455 
L 327.730985 267.975323 
L 328.199056 276.271893 
L 328.667128 271.301653 
L 329.1352 279.250728 
L 329.603271 272.676615 
L 330.071343 268.379839 
L 330.539415 276.901236 
L 331.007487 275.621994 
L 331.475558 277.415015 
L 331.94363 274.986545 
L 332.411702 289.183038 
L 332.879774 262.840661 
L 333.347845 267.583847 
L 333.815917 270.3243 
L 334.283989 270.537981 
L 334.75206 269.922451 
L 335.688204 255.770855 
L 336.156276 257.168005 
L 336.624347 263.887116 
L 337.092419 249.138233 
L 337.560491 247.776686 
L 338.028562 255.630044 
L 338.496634 240.324889 
L 338.964706 264.787373 
L 339.432778 268.466317 
L 339.900849 267.583164 
L 340.836993 250.11471 
L 341.305064 248.114043 
L 341.773136 247.530083 
L 342.241208 242.379244 
L 342.70928 234.620688 
L 343.177351 233.648704 
L 343.645423 240.051896 
L 344.113495 248.591234 
L 344.581567 252.79929 
L 345.049638 254.066159 
L 345.51771 248.647192 
L 345.985782 255.851836 
L 346.453853 228.407657 
L 346.921925 238.170553 
L 347.389997 230.610963 
L 347.858069 228.384873 
L 348.32614 229.258232 
L 348.794212 236.943847 
L 349.262284 231.249585 
L 349.730355 228.189297 
L 350.198427 229.002396 
L 350.666499 219.947415 
L 351.134571 230.506043 
L 351.602642 246.593147 
L 352.070714 255.91704 
L 352.538786 230.236701 
L 353.006858 239.054729 
L 353.474929 228.831327 
L 353.943001 251.747427 
L 354.411073 235.402431 
L 354.879144 211.035432 
L 355.347216 168.952482 
L 355.815288 198.968009 
L 356.28336 200.628971 
L 356.751431 228.461819 
L 357.219503 214.247128 
L 357.687575 228.885617 
L 358.155646 225.019718 
L 358.623718 211.418721 
L 359.09179 223.262263 
L 359.559862 198.289414 
L 360.027933 200.237591 
L 360.496005 205.31772 
L 360.964077 205.680764 
L 361.432148 208.193469 
L 361.90022 204.343518 
L 362.368292 199.07007 
L 362.836364 201.742533 
L 363.304435 209.862985 
L 363.772507 198.795616 
L 364.240579 202.399437 
L 364.708651 198.402641 
L 365.176722 197.987249 
L 365.644794 196.676294 
L 366.112866 200.368901 
L 366.580937 201.428967 
L 367.049009 198.343809 
L 367.517081 201.515131 
L 367.985153 201.163965 
L 368.453224 202.605919 
L 368.921296 195.145059 
L 369.389368 201.125872 
L 369.857439 202.98177 
L 370.325511 206.411873 
L 370.793583 199.483962 
L 371.261655 196.988653 
L 371.729726 195.998252 
L 372.197798 199.137044 
L 372.66587 204.710956 
L 373.133941 195.529347 
L 373.602013 199.378116 
L 374.070085 196.888064 
L 374.538157 201.966549 
L 375.006228 197.002451 
L 375.4743 202.188341 
L 376.410444 202.777257 
L 376.878515 204.620241 
L 377.346587 212.374216 
L 377.814659 205.458074 
L 378.28273 209.967822 
L 378.750802 199.437451 
L 379.218874 202.171154 
L 379.686946 203.680518 
L 380.155017 190.537345 
L 380.623089 195.898109 
L 381.091161 189.503843 
L 381.559232 166.624624 
L 382.027304 191.640698 
L 382.495376 192.338113 
L 382.963448 196.990461 
L 383.431519 203.015933 
L 383.899591 201.151414 
L 384.367663 208.521166 
L 384.835735 211.668559 
L 385.771878 187.011962 
L 386.23995 181.620378 
L 386.708021 178.799518 
L 387.176093 189.10483 
L 387.644165 179.915825 
L 388.112237 181.301136 
L 388.580308 184.363029 
L 389.04838 198.272756 
L 389.516452 191.327199 
L 390.452595 206.029199 
L 390.920667 202.555369 
L 391.388739 200.939751 
L 391.85681 169.468246 
L 392.792954 202.569585 
L 393.261025 207.61734 
L 393.729097 180.358026 
L 394.197169 189.056449 
L 394.665241 166.840483 
L 395.133312 187.731703 
L 395.601384 197.119125 
L 396.069456 187.558399 
L 396.537528 190.400418 
L 397.005599 169.123457 
L 397.473671 170.462151 
L 397.941743 175.482255 
L 398.409814 165.597631 
L 398.877886 166.251533 
L 399.81403 159.127841 
L 400.282101 195.422431 
L 400.750173 196.101887 
L 401.218245 196.562142 
L 401.686316 202.141986 
L 402.154388 205.40027 
L 402.62246 205.772798 
L 403.090532 204.383626 
L 403.558603 200.358007 
L 404.026675 218.901061 
L 404.494747 224.042333 
L 404.962818 218.761577 
L 405.43089 225.412361 
L 405.898962 225.765571 
L 406.367034 223.700836 
L 406.835105 224.036004 
L 407.303177 223.880525 
L 407.771249 210.447809 
L 408.239321 208.990803 
L 408.707392 208.793225 
L 409.175464 219.743888 
L 409.643536 199.48416 
L 410.111607 198.399233 
L 410.579679 193.456151 
L 411.047751 192.522963 
L 411.515823 199.959862 
L 411.983894 192.73783 
L 412.451966 198.119955 
L 412.920038 194.590193 
L 413.388109 189.66148 
L 413.856181 175.017903 
L 414.324253 202.438631 
L 415.260396 178.976255 
L 415.728468 178.17728 
L 416.19654 169.235072 
L 416.664612 202.070565 
L 417.132683 181.526297 
L 417.600755 182.110572 
L 418.068827 197.84584 
L 418.536898 200.61679 
L 419.473042 193.763731 
L 419.941114 205.168305 
L 420.409185 191.970132 
L 421.345329 225.981038 
L 421.8134 237.64071 
L 422.281472 236.209483 
L 422.749544 241.029355 
L 423.217616 233.291105 
L 423.685687 232.702289 
L 424.153759 232.44214 
L 425.089902 211.860387 
L 425.557974 218.97919 
L 426.026046 200.776043 
L 426.494118 199.497086 
L 426.962189 198.775514 
L 427.430261 183.935975 
L 427.898333 191.63892 
L 428.366405 194.600145 
L 428.834476 187.99827 
L 429.302548 191.370946 
L 429.77062 196.544811 
L 430.238691 215.45644 
L 430.706763 186.877592 
L 431.174835 182.895096 
L 431.642907 183.8198 
L 432.110978 185.707745 
L 432.57905 190.096987 
L 433.047122 204.015532 
L 433.515193 198.356729 
L 433.983265 202.636369 
L 434.451337 190.973948 
L 435.38748 196.383198 
L 435.855552 194.227125 
L 436.323624 196.689629 
L 436.791696 196.581143 
L 437.259767 201.212212 
L 437.727839 198.12642 
L 438.195911 196.551156 
L 438.663982 199.741263 
L 439.132054 191.914839 
L 439.600126 195.886185 
L 440.068198 195.89538 
L 440.536269 198.700443 
L 441.004341 199.524015 
L 441.472413 204.139356 
L 441.940484 213.604719 
L 442.408556 204.314202 
L 442.876628 205.472155 
L 443.3447 200.376352 
L 443.812771 205.743065 
L 444.280843 203.881531 
L 444.748915 208.829581 
L 445.216986 201.336933 
L 445.685058 197.985461 
L 446.15313 210.429963 
L 446.621202 213.012663 
L 447.089273 231.845809 
L 447.557345 226.674393 
L 448.025417 218.156308 
L 448.493489 219.991693 
L 448.96156 226.541499 
L 449.429632 220.780043 
L 449.897704 225.168817 
L 450.365775 220.91788 
L 450.833847 206.867412 
L 451.301919 210.029698 
L 451.769991 205.750774 
L 452.238062 204.118708 
L 453.174206 202.975025 
L 453.642277 204.124337 
L 454.110349 203.465134 
L 454.578421 204.192037 
L 455.046493 206.981199 
L 455.514564 210.458858 
L 455.982636 204.740207 
L 456.450708 216.81769 
L 456.918779 221.052121 
L 457.386851 222.83574 
L 457.854923 216.437242 
L 458.322995 224.582449 
L 458.791066 229.074484 
L 459.72721 221.732132 
L 460.195282 239.621727 
L 461.131425 249.996608 
L 461.599497 263.769794 
L 462.067568 270.180418 
L 462.53564 270.041488 
L 463.003712 263.910658 
L 463.471784 274.711898 
L 463.939855 270.933271 
L 464.407927 263.813213 
L 465.34407 261.536246 
L 465.812142 248.032301 
L 466.280214 248.645766 
L 466.748286 253.330558 
L 467.216357 254.013862 
L 468.152501 265.485663 
L 468.620573 263.457027 
L 469.088644 267.810015 
L 469.556716 264.901383 
L 470.024788 265.302713 
L 470.960931 260.222061 
L 471.429003 255.52759 
L 471.897075 269.026427 
L 472.365146 271.942315 
L 472.833218 273.197455 
L 473.30129 272.111057 
L 473.769361 273.469812 
L 474.237433 278.828113 
L 474.705505 271.903669 
L 475.173577 273.601453 
L 475.641648 263.745858 
L 476.10972 265.675122 
L 476.577792 256.442831 
L 477.045863 251.353429 
L 477.513935 254.670754 
L 477.982007 245.329388 
L 478.450079 255.904691 
L 479.386222 268.562667 
L 479.854294 259.832284 
L 480.322366 271.418012 
L 480.790437 262.321999 
L 481.258509 272.417903 
L 481.726581 271.541539 
L 482.194652 264.997429 
L 482.662724 265.931047 
L 483.130796 295.975036 
L 483.598868 297.0271 
L 484.066939 280.886801 
L 484.535011 295.211281 
L 485.003083 282.121388 
L 485.471154 277.532434 
L 485.939226 284.606505 
L 486.407298 269.500348 
L 486.87537 280.777382 
L 487.343441 277.357217 
L 487.811513 277.40886 
L 488.279585 298.496995 
L 488.747656 285.925548 
L 489.215728 296.246574 
L 489.6838 294.246632 
L 490.151872 295.075084 
L 490.619943 287.359285 
L 491.088015 297.598067 
L 491.556087 296.649668 
L 492.024159 285.339943 
L 492.49223 289.257106 
L 492.960302 285.546348 
L 493.428374 280.252661 
L 493.896445 292.799029 
L 494.364517 272.043485 
L 494.832589 280.634115 
L 495.300661 283.126093 
L 495.768732 276.5103 
L 496.236804 276.990015 
L 496.704876 266.429272 
L 497.172947 272.575154 
L 497.641019 267.968917 
L 498.109091 258.200866 
L 498.109091 258.200866 
" clip-path="url(#p26ce215794)" style="fill: none; stroke: #ff7f0e; stroke-width: 1.5; stroke-linecap: round"/>
   </g>
   <g id="patch_3">
    <path d="M 72 384.48 
L 72 51.84 
" style="fill: none; stroke: #ffffff; stroke-width: 0.8; stroke-linejoin: miter; stroke-linecap: square"/>
   </g>
   <g id="patch_4">
    <path d="M 518.4 384.48 
L 518.4 51.84 
" style="fill: none; stroke: #ffffff; stroke-width: 0.8; stroke-linejoin: miter; stroke-linecap: square"/>
   </g>
   <g id="patch_5">
    <path d="M 72 384.48 
L 518.4 384.48 
" style="fill: none; stroke: #ffffff; stroke-width: 0.8; stroke-linejoin: miter; stroke-linecap: square"/>
   </g>
   <g id="patch_6">
    <path d="M 72 51.84 
L 518.4 51.84 
" style="fill: none; stroke: #ffffff; stroke-width: 0.8; stroke-linejoin: miter; stroke-linecap: square"/>
   </g>
   <g id="text_16">
    <!-- Average Solar Radiation Prediction 7 Days Ahead -->
    <g style="fill: #262626" transform="translate(162.898125 45.84) scale(0.12 -0.12)">
     <defs>
      <path id="ArialMT-41" d="M -9 0 
L 1750 4581 
L 2403 4581 
L 4278 0 
L 3588 0 
L 3053 1388 
L 1138 1388 
L 634 0 
L -9 0 
z
M 1313 1881 
L 2866 1881 
L 2388 3150 
Q 2169 3728 2063 4100 
Q 1975 3659 1816 3225 
L 1313 1881 
z
" transform="scale(0.015625)"/>
      <path id="ArialMT-76" d="M 1344 0 
L 81 3319 
L 675 3319 
L 1388 1331 
Q 1503 1009 1600 663 
Q 1675 925 1809 1294 
L 2547 3319 
L 3125 3319 
L 1869 0 
L 1344 0 
z
" transform="scale(0.015625)"/>
      <path id="ArialMT-65" d="M 2694 1069 
L 3275 997 
Q 3138 488 2766 206 
Q 2394 -75 1816 -75 
Q 1088 -75 661 373 
Q 234 822 234 1631 
Q 234 2469 665 2931 
Q 1097 3394 1784 3394 
Q 2450 3394 2872 2941 
Q 3294 2488 3294 1666 
Q 3294 1616 3291 1516 
L 816 1516 
Q 847 969 1125 678 
Q 1403 388 1819 388 
Q 2128 388 2347 550 
Q 2566 713 2694 1069 
z
M 847 1978 
L 2700 1978 
Q 2663 2397 2488 2606 
Q 2219 2931 1791 2931 
Q 1403 2931 1139 2672 
Q 875 2413 847 1978 
z
" transform="scale(0.015625)"/>
      <path id="ArialMT-72" d="M 416 0 
L 416 3319 
L 922 3319 
L 922 2816 
Q 1116 3169 1280 3281 
Q 1444 3394 1641 3394 
Q 1925 3394 2219 3213 
L 2025 2691 
Q 1819 2813 1613 2813 
Q 1428 2813 1281 2702 
Q 1134 2591 1072 2394 
Q 978 2094 978 1738 
L 978 0 
L 416 0 
z
" transform="scale(0.015625)"/>
      <path id="ArialMT-67" d="M 319 -275 
L 866 -356 
Q 900 -609 1056 -725 
Q 1266 -881 1628 -881 
Q 2019 -881 2231 -725 
Q 2444 -569 2519 -288 
Q 2563 -116 2559 434 
Q 2191 0 1641 0 
Q 956 0 581 494 
Q 206 988 206 1678 
Q 206 2153 378 2554 
Q 550 2956 876 3175 
Q 1203 3394 1644 3394 
Q 2231 3394 2613 2919 
L 2613 3319 
L 3131 3319 
L 3131 450 
Q 3131 -325 2973 -648 
Q 2816 -972 2473 -1159 
Q 2131 -1347 1631 -1347 
Q 1038 -1347 672 -1080 
Q 306 -813 319 -275 
z
M 784 1719 
Q 784 1066 1043 766 
Q 1303 466 1694 466 
Q 2081 466 2343 764 
Q 2606 1063 2606 1700 
Q 2606 2309 2336 2618 
Q 2066 2928 1684 2928 
Q 1309 2928 1046 2623 
Q 784 2319 784 1719 
z
" transform="scale(0.015625)"/>
      <path id="ArialMT-20" transform="scale(0.015625)"/>
      <path id="ArialMT-53" d="M 288 1472 
L 859 1522 
Q 900 1178 1048 958 
Q 1197 738 1509 602 
Q 1822 466 2213 466 
Q 2559 466 2825 569 
Q 3091 672 3220 851 
Q 3350 1031 3350 1244 
Q 3350 1459 3225 1620 
Q 3100 1781 2813 1891 
Q 2628 1963 1997 2114 
Q 1366 2266 1113 2400 
Q 784 2572 623 2826 
Q 463 3081 463 3397 
Q 463 3744 659 4045 
Q 856 4347 1234 4503 
Q 1613 4659 2075 4659 
Q 2584 4659 2973 4495 
Q 3363 4331 3572 4012 
Q 3781 3694 3797 3291 
L 3216 3247 
Q 3169 3681 2898 3903 
Q 2628 4125 2100 4125 
Q 1550 4125 1298 3923 
Q 1047 3722 1047 3438 
Q 1047 3191 1225 3031 
Q 1400 2872 2139 2705 
Q 2878 2538 3153 2413 
Q 3553 2228 3743 1945 
Q 3934 1663 3934 1294 
Q 3934 928 3725 604 
Q 3516 281 3123 101 
Q 2731 -78 2241 -78 
Q 1619 -78 1198 103 
Q 778 284 539 648 
Q 300 1013 288 1472 
z
" transform="scale(0.015625)"/>
      <path id="ArialMT-6f" d="M 213 1659 
Q 213 2581 725 3025 
Q 1153 3394 1769 3394 
Q 2453 3394 2887 2945 
Q 3322 2497 3322 1706 
Q 3322 1066 3130 698 
Q 2938 331 2570 128 
Q 2203 -75 1769 -75 
Q 1072 -75 642 372 
Q 213 819 213 1659 
z
M 791 1659 
Q 791 1022 1069 705 
Q 1347 388 1769 388 
Q 2188 388 2466 706 
Q 2744 1025 2744 1678 
Q 2744 2294 2464 2611 
Q 2184 2928 1769 2928 
Q 1347 2928 1069 2612 
Q 791 2297 791 1659 
z
" transform="scale(0.015625)"/>
      <path id="ArialMT-6c" d="M 409 0 
L 409 4581 
L 972 4581 
L 972 0 
L 409 0 
z
" transform="scale(0.015625)"/>
      <path id="ArialMT-52" d="M 503 0 
L 503 4581 
L 2534 4581 
Q 3147 4581 3465 4457 
Q 3784 4334 3975 4021 
Q 4166 3709 4166 3331 
Q 4166 2844 3850 2509 
Q 3534 2175 2875 2084 
Q 3116 1969 3241 1856 
Q 3506 1613 3744 1247 
L 4541 0 
L 3778 0 
L 3172 953 
Q 2906 1366 2734 1584 
Q 2563 1803 2427 1890 
Q 2291 1978 2150 2013 
Q 2047 2034 1813 2034 
L 1109 2034 
L 1109 0 
L 503 0 
z
M 1109 2559 
L 2413 2559 
Q 2828 2559 3062 2645 
Q 3297 2731 3419 2920 
Q 3541 3109 3541 3331 
Q 3541 3656 3305 3865 
Q 3069 4075 2559 4075 
L 1109 4075 
L 1109 2559 
z
" transform="scale(0.015625)"/>
      <path id="ArialMT-64" d="M 2575 0 
L 2575 419 
Q 2259 -75 1647 -75 
Q 1250 -75 917 144 
Q 584 363 401 755 
Q 219 1147 219 1656 
Q 219 2153 384 2558 
Q 550 2963 881 3178 
Q 1213 3394 1622 3394 
Q 1922 3394 2156 3267 
Q 2391 3141 2538 2938 
L 2538 4581 
L 3097 4581 
L 3097 0 
L 2575 0 
z
M 797 1656 
Q 797 1019 1065 703 
Q 1334 388 1700 388 
Q 2069 388 2326 689 
Q 2584 991 2584 1609 
Q 2584 2291 2321 2609 
Q 2059 2928 1675 2928 
Q 1300 2928 1048 2622 
Q 797 2316 797 1656 
z
" transform="scale(0.015625)"/>
      <path id="ArialMT-69" d="M 425 3934 
L 425 4581 
L 988 4581 
L 988 3934 
L 425 3934 
z
M 425 0 
L 425 3319 
L 988 3319 
L 988 0 
L 425 0 
z
" transform="scale(0.015625)"/>
      <path id="ArialMT-74" d="M 1650 503 
L 1731 6 
Q 1494 -44 1306 -44 
Q 1000 -44 831 53 
Q 663 150 594 308 
Q 525 466 525 972 
L 525 2881 
L 113 2881 
L 113 3319 
L 525 3319 
L 525 4141 
L 1084 4478 
L 1084 3319 
L 1650 3319 
L 1650 2881 
L 1084 2881 
L 1084 941 
Q 1084 700 1114 631 
Q 1144 563 1211 522 
Q 1278 481 1403 481 
Q 1497 481 1650 503 
z
" transform="scale(0.015625)"/>
      <path id="ArialMT-6e" d="M 422 0 
L 422 3319 
L 928 3319 
L 928 2847 
Q 1294 3394 1984 3394 
Q 2284 3394 2536 3286 
Q 2788 3178 2913 3003 
Q 3038 2828 3088 2588 
Q 3119 2431 3119 2041 
L 3119 0 
L 2556 0 
L 2556 2019 
Q 2556 2363 2490 2533 
Q 2425 2703 2258 2804 
Q 2091 2906 1866 2906 
Q 1506 2906 1245 2678 
Q 984 2450 984 1813 
L 984 0 
L 422 0 
z
" transform="scale(0.015625)"/>
      <path id="ArialMT-50" d="M 494 0 
L 494 4581 
L 2222 4581 
Q 2678 4581 2919 4538 
Q 3256 4481 3484 4323 
Q 3713 4166 3852 3881 
Q 3991 3597 3991 3256 
Q 3991 2672 3619 2267 
Q 3247 1863 2275 1863 
L 1100 1863 
L 1100 0 
L 494 0 
z
M 1100 2403 
L 2284 2403 
Q 2872 2403 3119 2622 
Q 3366 2841 3366 3238 
Q 3366 3525 3220 3729 
Q 3075 3934 2838 4000 
Q 2684 4041 2272 4041 
L 1100 4041 
L 1100 2403 
z
" transform="scale(0.015625)"/>
      <path id="ArialMT-63" d="M 2588 1216 
L 3141 1144 
Q 3050 572 2676 248 
Q 2303 -75 1759 -75 
Q 1078 -75 664 370 
Q 250 816 250 1647 
Q 250 2184 428 2587 
Q 606 2991 970 3192 
Q 1334 3394 1763 3394 
Q 2303 3394 2647 3120 
Q 2991 2847 3088 2344 
L 2541 2259 
Q 2463 2594 2264 2762 
Q 2066 2931 1784 2931 
Q 1359 2931 1093 2626 
Q 828 2322 828 1663 
Q 828 994 1084 691 
Q 1341 388 1753 388 
Q 2084 388 2306 591 
Q 2528 794 2588 1216 
z
" transform="scale(0.015625)"/>
      <path id="ArialMT-37" d="M 303 3981 
L 303 4522 
L 3269 4522 
L 3269 4084 
Q 2831 3619 2401 2847 
Q 1972 2075 1738 1259 
Q 1569 684 1522 0 
L 944 0 
Q 953 541 1156 1306 
Q 1359 2072 1739 2783 
Q 2119 3494 2547 3981 
L 303 3981 
z
" transform="scale(0.015625)"/>
      <path id="ArialMT-68" d="M 422 0 
L 422 4581 
L 984 4581 
L 984 2938 
Q 1378 3394 1978 3394 
Q 2347 3394 2619 3248 
Q 2891 3103 3008 2847 
Q 3125 2591 3125 2103 
L 3125 0 
L 2563 0 
L 2563 2103 
Q 2563 2525 2380 2717 
Q 2197 2909 1863 2909 
Q 1613 2909 1392 2779 
Q 1172 2650 1078 2428 
Q 984 2206 984 1816 
L 984 0 
L 422 0 
z
" transform="scale(0.015625)"/>
     </defs>
     <use xlink:href="#ArialMT-41"/>
     <use xlink:href="#ArialMT-76" x="64.949219"/>
     <use xlink:href="#ArialMT-65" x="114.949219"/>
     <use xlink:href="#ArialMT-72" x="170.564453"/>
     <use xlink:href="#ArialMT-61" x="203.865234"/>
     <use xlink:href="#ArialMT-67" x="259.480469"/>
     <use xlink:href="#ArialMT-65" x="315.095703"/>
     <use xlink:href="#ArialMT-20" x="370.710938"/>
     <use xlink:href="#ArialMT-53" x="398.494141"/>
     <use xlink:href="#ArialMT-6f" x="465.193359"/>
     <use xlink:href="#ArialMT-6c" x="520.808594"/>
     <use xlink:href="#ArialMT-61" x="543.025391"/>
     <use xlink:href="#ArialMT-72" x="598.640625"/>
     <use xlink:href="#ArialMT-20" x="631.941406"/>
     <use xlink:href="#ArialMT-52" x="659.724609"/>
     <use xlink:href="#ArialMT-61" x="731.941406"/>
     <use xlink:href="#ArialMT-64" x="787.556641"/>
     <use xlink:href="#ArialMT-69" x="843.171875"/>
     <use xlink:href="#ArialMT-61" x="865.388672"/>
     <use xlink:href="#ArialMT-74" x="921.003906"/>
     <use xlink:href="#ArialMT-69" x="948.787109"/>
     <use xlink:href="#ArialMT-6f" x="971.003906"/>
     <use xlink:href="#ArialMT-6e" x="1026.619141"/>
     <use xlink:href="#ArialMT-20" x="1082.234375"/>
     <use xlink:href="#ArialMT-50" x="1110.017578"/>
     <use xlink:href="#ArialMT-72" x="1176.716797"/>
     <use xlink:href="#ArialMT-65" x="1210.017578"/>
     <use xlink:href="#ArialMT-64" x="1265.632812"/>
     <use xlink:href="#ArialMT-69" x="1321.248047"/>
     <use xlink:href="#ArialMT-63" x="1343.464844"/>
     <use xlink:href="#ArialMT-74" x="1393.464844"/>
     <use xlink:href="#ArialMT-69" x="1421.248047"/>
     <use xlink:href="#ArialMT-6f" x="1443.464844"/>
     <use xlink:href="#ArialMT-6e" x="1499.080078"/>
     <use xlink:href="#ArialMT-20" x="1554.695312"/>
     <use xlink:href="#ArialMT-37" x="1582.478516"/>
     <use xlink:href="#ArialMT-20" x="1638.09375"/>
     <use xlink:href="#ArialMT-44" x="1665.876953"/>
     <use xlink:href="#ArialMT-61" x="1738.09375"/>
     <use xlink:href="#ArialMT-79" x="1793.708984"/>
     <use xlink:href="#ArialMT-73" x="1843.708984"/>
     <use xlink:href="#ArialMT-20" x="1893.708984"/>
     <use xlink:href="#ArialMT-41" x="1915.992188"/>
     <use xlink:href="#ArialMT-68" x="1982.691406"/>
     <use xlink:href="#ArialMT-65" x="2038.306641"/>
     <use xlink:href="#ArialMT-61" x="2093.921875"/>
     <use xlink:href="#ArialMT-64" x="2149.537109"/>
    </g>
   </g>
   <g id="legend_1">
    <g id="patch_7">
     <path d="M 437.15625 88.130625 
L 511.4 88.130625 
Q 513.4 88.130625 513.4 86.130625 
L 513.4 58.84 
Q 513.4 56.84 511.4 56.84 
L 437.15625 56.84 
Q 435.15625 56.84 435.15625 58.84 
L 435.15625 86.130625 
Q 435.15625 88.130625 437.15625 88.130625 
z
" style="fill: #eaeaf2; opacity: 0.8; stroke: #cccccc; stroke-linejoin: miter"/>
    </g>
    <g id="line2d_16">
     <path d="M 439.15625 64.497812 
L 449.15625 64.497812 
L 459.15625 64.497812 
" style="fill: none; stroke: #1f77b4; stroke-width: 1.5; stroke-linecap: round"/>
    </g>
    <g id="text_17">
     <!-- Real -->
     <g style="fill: #262626" transform="translate(467.15625 67.997812) scale(0.1 -0.1)">
      <use xlink:href="#ArialMT-52"/>
      <use xlink:href="#ArialMT-65" x="72.216797"/>
      <use xlink:href="#ArialMT-61" x="127.832031"/>
      <use xlink:href="#ArialMT-6c" x="183.447266"/>
     </g>
    </g>
    <g id="line2d_17">
     <path d="M 439.15625 78.643125 
L 449.15625 78.643125 
L 459.15625 78.643125 
" style="fill: none; stroke: #ff7f0e; stroke-width: 1.5; stroke-linecap: round"/>
    </g>
    <g id="text_18">
     <!-- Predicted -->
     <g style="fill: #262626" transform="translate(467.15625 82.143125) scale(0.1 -0.1)">
      <use xlink:href="#ArialMT-50"/>
      <use xlink:href="#ArialMT-72" x="66.699219"/>
      <use xlink:href="#ArialMT-65" x="100"/>
      <use xlink:href="#ArialMT-64" x="155.615234"/>
      <use xlink:href="#ArialMT-69" x="211.230469"/>
      <use xlink:href="#ArialMT-63" x="233.447266"/>
      <use xlink:href="#ArialMT-74" x="283.447266"/>
      <use xlink:href="#ArialMT-65" x="311.230469"/>
      <use xlink:href="#ArialMT-64" x="366.845703"/>
     </g>
    </g>
   </g>
  </g>
 </g>
 <defs>
  <clipPath id="p26ce215794">
   <rect x="72" y="51.84" width="446.4" height="332.64"/>
  </clipPath>
 </defs>
</svg>
