<?xml version="1.0" encoding="utf-8" standalone="no"?>
<!DOCTYPE svg PUBLIC "-//W3C//DTD SVG 1.1//EN"
  "http://www.w3.org/Graphics/SVG/1.1/DTD/svg11.dtd">
<svg xmlns:xlink="http://www.w3.org/1999/xlink" width="576pt" height="432pt" viewBox="0 0 576 432" xmlns="http://www.w3.org/2000/svg" version="1.1">
 <metadata>
  <rdf:RDF xmlns:dc="http://purl.org/dc/elements/1.1/" xmlns:cc="http://creativecommons.org/ns#" xmlns:rdf="http://www.w3.org/1999/02/22-rdf-syntax-ns#">
   <cc:Work>
    <dc:type rdf:resource="http://purl.org/dc/dcmitype/StillImage"/>
    <dc:date>2023-11-17T03:41:14.384866</dc:date>
    <dc:format>image/svg+xml</dc:format>
    <dc:creator>
     <cc:Agent>
      <dc:title>Matplotlib v3.8.0, https://matplotlib.org/</dc:title>
     </cc:Agent>
    </dc:creator>
   </cc:Work>
  </rdf:RDF>
 </metadata>
 <defs>
  <style type="text/css">*{stroke-linejoin: round; stroke-linecap: butt}</style>
 </defs>
 <g id="figure_1">
  <g id="patch_1">
   <path d="M 0 432 
L 576 432 
L 576 0 
L 0 0 
z
" style="fill: #ffffff"/>
  </g>
  <g id="axes_1">
   <g id="patch_2">
    <path d="M 72 384.48 
L 518.4 384.48 
L 518.4 51.84 
L 72 51.84 
z
" style="fill: #eaeaf2"/>
   </g>
   <g id="matplotlib.axis_1">
    <g id="xtick_1">
     <g id="line2d_1">
      <path d="M 92.290909 384.48 
L 92.290909 51.84 
" clip-path="url(#p076c7f3d70)" style="fill: none; stroke: #ffffff; stroke-width: 0.8; stroke-linecap: round"/>
     </g>
     <g id="text_1">
      <!-- 0 -->
      <g style="fill: #262626" transform="translate(89.51044 398.637812) scale(0.1 -0.1)">
       <defs>
        <path id="ArialMT-30" d="M 266 2259 
Q 266 3072 433 3567 
Q 600 4063 929 4331 
Q 1259 4600 1759 4600 
Q 2128 4600 2406 4451 
Q 2684 4303 2865 4023 
Q 3047 3744 3150 3342 
Q 3253 2941 3253 2259 
Q 3253 1453 3087 958 
Q 2922 463 2592 192 
Q 2263 -78 1759 -78 
Q 1097 -78 719 397 
Q 266 969 266 2259 
z
M 844 2259 
Q 844 1131 1108 757 
Q 1372 384 1759 384 
Q 2147 384 2411 759 
Q 2675 1134 2675 2259 
Q 2675 3391 2411 3762 
Q 2147 4134 1753 4134 
Q 1366 4134 1134 3806 
Q 844 3388 844 2259 
z
" transform="scale(0.015625)"/>
       </defs>
       <use xlink:href="#ArialMT-30"/>
      </g>
     </g>
    </g>
    <g id="xtick_2">
     <g id="line2d_2">
      <path d="M 185.905253 384.48 
L 185.905253 51.84 
" clip-path="url(#p076c7f3d70)" style="fill: none; stroke: #ffffff; stroke-width: 0.8; stroke-linecap: round"/>
     </g>
     <g id="text_2">
      <!-- 200 -->
      <g style="fill: #262626" transform="translate(177.563847 398.637812) scale(0.1 -0.1)">
       <defs>
        <path id="ArialMT-32" d="M 3222 541 
L 3222 0 
L 194 0 
Q 188 203 259 391 
Q 375 700 629 1000 
Q 884 1300 1366 1694 
Q 2113 2306 2375 2664 
Q 2638 3022 2638 3341 
Q 2638 3675 2398 3904 
Q 2159 4134 1775 4134 
Q 1369 4134 1125 3890 
Q 881 3647 878 3216 
L 300 3275 
Q 359 3922 746 4261 
Q 1134 4600 1788 4600 
Q 2447 4600 2831 4234 
Q 3216 3869 3216 3328 
Q 3216 3053 3103 2787 
Q 2991 2522 2730 2228 
Q 2469 1934 1863 1422 
Q 1356 997 1212 845 
Q 1069 694 975 541 
L 3222 541 
z
" transform="scale(0.015625)"/>
       </defs>
       <use xlink:href="#ArialMT-32"/>
       <use xlink:href="#ArialMT-30" x="55.615234"/>
       <use xlink:href="#ArialMT-30" x="111.230469"/>
      </g>
     </g>
    </g>
    <g id="xtick_3">
     <g id="line2d_3">
      <path d="M 279.519597 384.48 
L 279.519597 51.84 
" clip-path="url(#p076c7f3d70)" style="fill: none; stroke: #ffffff; stroke-width: 0.8; stroke-linecap: round"/>
     </g>
     <g id="text_3">
      <!-- 400 -->
      <g style="fill: #262626" transform="translate(271.178191 398.637812) scale(0.1 -0.1)">
       <defs>
        <path id="ArialMT-34" d="M 2069 0 
L 2069 1097 
L 81 1097 
L 81 1613 
L 2172 4581 
L 2631 4581 
L 2631 1613 
L 3250 1613 
L 3250 1097 
L 2631 1097 
L 2631 0 
L 2069 0 
z
M 2069 1613 
L 2069 3678 
L 634 1613 
L 2069 1613 
z
" transform="scale(0.015625)"/>
       </defs>
       <use xlink:href="#ArialMT-34"/>
       <use xlink:href="#ArialMT-30" x="55.615234"/>
       <use xlink:href="#ArialMT-30" x="111.230469"/>
      </g>
     </g>
    </g>
    <g id="xtick_4">
     <g id="line2d_4">
      <path d="M 373.133941 384.48 
L 373.133941 51.84 
" clip-path="url(#p076c7f3d70)" style="fill: none; stroke: #ffffff; stroke-width: 0.8; stroke-linecap: round"/>
     </g>
     <g id="text_4">
      <!-- 600 -->
      <g style="fill: #262626" transform="translate(364.792535 398.637812) scale(0.1 -0.1)">
       <defs>
        <path id="ArialMT-36" d="M 3184 3459 
L 2625 3416 
Q 2550 3747 2413 3897 
Q 2184 4138 1850 4138 
Q 1581 4138 1378 3988 
Q 1113 3794 959 3422 
Q 806 3050 800 2363 
Q 1003 2672 1297 2822 
Q 1591 2972 1913 2972 
Q 2475 2972 2870 2558 
Q 3266 2144 3266 1488 
Q 3266 1056 3080 686 
Q 2894 316 2569 119 
Q 2244 -78 1831 -78 
Q 1128 -78 684 439 
Q 241 956 241 2144 
Q 241 3472 731 4075 
Q 1159 4600 1884 4600 
Q 2425 4600 2770 4297 
Q 3116 3994 3184 3459 
z
M 888 1484 
Q 888 1194 1011 928 
Q 1134 663 1356 523 
Q 1578 384 1822 384 
Q 2178 384 2434 671 
Q 2691 959 2691 1453 
Q 2691 1928 2437 2201 
Q 2184 2475 1800 2475 
Q 1419 2475 1153 2201 
Q 888 1928 888 1484 
z
" transform="scale(0.015625)"/>
       </defs>
       <use xlink:href="#ArialMT-36"/>
       <use xlink:href="#ArialMT-30" x="55.615234"/>
       <use xlink:href="#ArialMT-30" x="111.230469"/>
      </g>
     </g>
    </g>
    <g id="xtick_5">
     <g id="line2d_5">
      <path d="M 466.748286 384.48 
L 466.748286 51.84 
" clip-path="url(#p076c7f3d70)" style="fill: none; stroke: #ffffff; stroke-width: 0.8; stroke-linecap: round"/>
     </g>
     <g id="text_5">
      <!-- 800 -->
      <g style="fill: #262626" transform="translate(458.406879 398.637812) scale(0.1 -0.1)">
       <defs>
        <path id="ArialMT-38" d="M 1131 2484 
Q 781 2613 612 2850 
Q 444 3088 444 3419 
Q 444 3919 803 4259 
Q 1163 4600 1759 4600 
Q 2359 4600 2725 4251 
Q 3091 3903 3091 3403 
Q 3091 3084 2923 2848 
Q 2756 2613 2416 2484 
Q 2838 2347 3058 2040 
Q 3278 1734 3278 1309 
Q 3278 722 2862 322 
Q 2447 -78 1769 -78 
Q 1091 -78 675 323 
Q 259 725 259 1325 
Q 259 1772 486 2073 
Q 713 2375 1131 2484 
z
M 1019 3438 
Q 1019 3113 1228 2906 
Q 1438 2700 1772 2700 
Q 2097 2700 2305 2904 
Q 2513 3109 2513 3406 
Q 2513 3716 2298 3927 
Q 2084 4138 1766 4138 
Q 1444 4138 1231 3931 
Q 1019 3725 1019 3438 
z
M 838 1322 
Q 838 1081 952 856 
Q 1066 631 1291 507 
Q 1516 384 1775 384 
Q 2178 384 2440 643 
Q 2703 903 2703 1303 
Q 2703 1709 2433 1975 
Q 2163 2241 1756 2241 
Q 1359 2241 1098 1978 
Q 838 1716 838 1322 
z
" transform="scale(0.015625)"/>
       </defs>
       <use xlink:href="#ArialMT-38"/>
       <use xlink:href="#ArialMT-30" x="55.615234"/>
       <use xlink:href="#ArialMT-30" x="111.230469"/>
      </g>
     </g>
    </g>
    <g id="text_6">
     <!-- Days -->
     <g style="fill: #262626" transform="translate(283.808594 411.783125) scale(0.1 -0.1)">
      <defs>
       <path id="ArialMT-44" d="M 494 0 
L 494 4581 
L 2072 4581 
Q 2606 4581 2888 4516 
Q 3281 4425 3559 4188 
Q 3922 3881 4101 3404 
Q 4281 2928 4281 2316 
Q 4281 1794 4159 1391 
Q 4038 988 3847 723 
Q 3656 459 3429 307 
Q 3203 156 2883 78 
Q 2563 0 2147 0 
L 494 0 
z
M 1100 541 
L 2078 541 
Q 2531 541 2789 625 
Q 3047 709 3200 863 
Q 3416 1078 3536 1442 
Q 3656 1806 3656 2325 
Q 3656 3044 3420 3430 
Q 3184 3816 2847 3947 
Q 2603 4041 2063 4041 
L 1100 4041 
L 1100 541 
z
" transform="scale(0.015625)"/>
       <path id="ArialMT-61" d="M 2588 409 
Q 2275 144 1986 34 
Q 1697 -75 1366 -75 
Q 819 -75 525 192 
Q 231 459 231 875 
Q 231 1119 342 1320 
Q 453 1522 633 1644 
Q 813 1766 1038 1828 
Q 1203 1872 1538 1913 
Q 2219 1994 2541 2106 
Q 2544 2222 2544 2253 
Q 2544 2597 2384 2738 
Q 2169 2928 1744 2928 
Q 1347 2928 1158 2789 
Q 969 2650 878 2297 
L 328 2372 
Q 403 2725 575 2942 
Q 747 3159 1072 3276 
Q 1397 3394 1825 3394 
Q 2250 3394 2515 3294 
Q 2781 3194 2906 3042 
Q 3031 2891 3081 2659 
Q 3109 2516 3109 2141 
L 3109 1391 
Q 3109 606 3145 398 
Q 3181 191 3288 0 
L 2700 0 
Q 2613 175 2588 409 
z
M 2541 1666 
Q 2234 1541 1622 1453 
Q 1275 1403 1131 1340 
Q 988 1278 909 1158 
Q 831 1038 831 891 
Q 831 666 1001 516 
Q 1172 366 1500 366 
Q 1825 366 2078 508 
Q 2331 650 2450 897 
Q 2541 1088 2541 1459 
L 2541 1666 
z
" transform="scale(0.015625)"/>
       <path id="ArialMT-79" d="M 397 -1278 
L 334 -750 
Q 519 -800 656 -800 
Q 844 -800 956 -737 
Q 1069 -675 1141 -563 
Q 1194 -478 1313 -144 
Q 1328 -97 1363 -6 
L 103 3319 
L 709 3319 
L 1400 1397 
Q 1534 1031 1641 628 
Q 1738 1016 1872 1384 
L 2581 3319 
L 3144 3319 
L 1881 -56 
Q 1678 -603 1566 -809 
Q 1416 -1088 1222 -1217 
Q 1028 -1347 759 -1347 
Q 597 -1347 397 -1278 
z
" transform="scale(0.015625)"/>
       <path id="ArialMT-73" d="M 197 991 
L 753 1078 
Q 800 744 1014 566 
Q 1228 388 1613 388 
Q 2000 388 2187 545 
Q 2375 703 2375 916 
Q 2375 1106 2209 1216 
Q 2094 1291 1634 1406 
Q 1016 1563 777 1677 
Q 538 1791 414 1992 
Q 291 2194 291 2438 
Q 291 2659 392 2848 
Q 494 3038 669 3163 
Q 800 3259 1026 3326 
Q 1253 3394 1513 3394 
Q 1903 3394 2198 3281 
Q 2494 3169 2634 2976 
Q 2775 2784 2828 2463 
L 2278 2388 
Q 2241 2644 2061 2787 
Q 1881 2931 1553 2931 
Q 1166 2931 1000 2803 
Q 834 2675 834 2503 
Q 834 2394 903 2306 
Q 972 2216 1119 2156 
Q 1203 2125 1616 2013 
Q 2213 1853 2448 1751 
Q 2684 1650 2818 1456 
Q 2953 1263 2953 975 
Q 2953 694 2789 445 
Q 2625 197 2315 61 
Q 2006 -75 1616 -75 
Q 969 -75 630 194 
Q 291 463 197 991 
z
" transform="scale(0.015625)"/>
      </defs>
      <use xlink:href="#ArialMT-44"/>
      <use xlink:href="#ArialMT-61" x="72.216797"/>
      <use xlink:href="#ArialMT-79" x="127.832031"/>
      <use xlink:href="#ArialMT-73" x="177.832031"/>
     </g>
    </g>
   </g>
   <g id="matplotlib.axis_2">
    <g id="ytick_1">
     <g id="line2d_6">
      <path d="M 72 351.892852 
L 518.4 351.892852 
" clip-path="url(#p076c7f3d70)" style="fill: none; stroke: #ffffff; stroke-width: 0.8; stroke-linecap: round"/>
     </g>
     <g id="text_7">
      <!-- 5 -->
      <g style="fill: #262626" transform="translate(59.439062 355.471758) scale(0.1 -0.1)">
       <defs>
        <path id="ArialMT-35" d="M 266 1200 
L 856 1250 
Q 922 819 1161 601 
Q 1400 384 1738 384 
Q 2144 384 2425 690 
Q 2706 997 2706 1503 
Q 2706 1984 2436 2262 
Q 2166 2541 1728 2541 
Q 1456 2541 1237 2417 
Q 1019 2294 894 2097 
L 366 2166 
L 809 4519 
L 3088 4519 
L 3088 3981 
L 1259 3981 
L 1013 2750 
Q 1425 3038 1878 3038 
Q 2478 3038 2890 2622 
Q 3303 2206 3303 1553 
Q 3303 931 2941 478 
Q 2500 -78 1738 -78 
Q 1113 -78 717 272 
Q 322 622 266 1200 
z
" transform="scale(0.015625)"/>
       </defs>
       <use xlink:href="#ArialMT-35"/>
      </g>
     </g>
    </g>
    <g id="ytick_2">
     <g id="line2d_7">
      <path d="M 72 297.308014 
L 518.4 297.308014 
" clip-path="url(#p076c7f3d70)" style="fill: none; stroke: #ffffff; stroke-width: 0.8; stroke-linecap: round"/>
     </g>
     <g id="text_8">
      <!-- 10 -->
      <g style="fill: #262626" transform="translate(53.878125 300.886921) scale(0.1 -0.1)">
       <defs>
        <path id="ArialMT-31" d="M 2384 0 
L 1822 0 
L 1822 3584 
Q 1619 3391 1289 3197 
Q 959 3003 697 2906 
L 697 3450 
Q 1169 3672 1522 3987 
Q 1875 4303 2022 4600 
L 2384 4600 
L 2384 0 
z
" transform="scale(0.015625)"/>
       </defs>
       <use xlink:href="#ArialMT-31"/>
       <use xlink:href="#ArialMT-30" x="55.615234"/>
      </g>
     </g>
    </g>
    <g id="ytick_3">
     <g id="line2d_8">
      <path d="M 72 242.723177 
L 518.4 242.723177 
" clip-path="url(#p076c7f3d70)" style="fill: none; stroke: #ffffff; stroke-width: 0.8; stroke-linecap: round"/>
     </g>
     <g id="text_9">
      <!-- 15 -->
      <g style="fill: #262626" transform="translate(53.878125 246.302083) scale(0.1 -0.1)">
       <use xlink:href="#ArialMT-31"/>
       <use xlink:href="#ArialMT-35" x="55.615234"/>
      </g>
     </g>
    </g>
    <g id="ytick_4">
     <g id="line2d_9">
      <path d="M 72 188.138339 
L 518.4 188.138339 
" clip-path="url(#p076c7f3d70)" style="fill: none; stroke: #ffffff; stroke-width: 0.8; stroke-linecap: round"/>
     </g>
     <g id="text_10">
      <!-- 20 -->
      <g style="fill: #262626" transform="translate(53.878125 191.717246) scale(0.1 -0.1)">
       <use xlink:href="#ArialMT-32"/>
       <use xlink:href="#ArialMT-30" x="55.615234"/>
      </g>
     </g>
    </g>
    <g id="ytick_5">
     <g id="line2d_10">
      <path d="M 72 133.553502 
L 518.4 133.553502 
" clip-path="url(#p076c7f3d70)" style="fill: none; stroke: #ffffff; stroke-width: 0.8; stroke-linecap: round"/>
     </g>
     <g id="text_11">
      <!-- 25 -->
      <g style="fill: #262626" transform="translate(53.878125 137.132408) scale(0.1 -0.1)">
       <use xlink:href="#ArialMT-32"/>
       <use xlink:href="#ArialMT-35" x="55.615234"/>
      </g>
     </g>
    </g>
    <g id="ytick_6">
     <g id="line2d_11">
      <path d="M 72 78.968664 
L 518.4 78.968664 
" clip-path="url(#p076c7f3d70)" style="fill: none; stroke: #ffffff; stroke-width: 0.8; stroke-linecap: round"/>
     </g>
     <g id="text_12">
      <!-- 30 -->
      <g style="fill: #262626" transform="translate(53.878125 82.547571) scale(0.1 -0.1)">
       <defs>
        <path id="ArialMT-33" d="M 269 1209 
L 831 1284 
Q 928 806 1161 595 
Q 1394 384 1728 384 
Q 2125 384 2398 659 
Q 2672 934 2672 1341 
Q 2672 1728 2419 1979 
Q 2166 2231 1775 2231 
Q 1616 2231 1378 2169 
L 1441 2663 
Q 1497 2656 1531 2656 
Q 1891 2656 2178 2843 
Q 2466 3031 2466 3422 
Q 2466 3731 2256 3934 
Q 2047 4138 1716 4138 
Q 1388 4138 1169 3931 
Q 950 3725 888 3313 
L 325 3413 
Q 428 3978 793 4289 
Q 1159 4600 1703 4600 
Q 2078 4600 2393 4439 
Q 2709 4278 2876 4000 
Q 3044 3722 3044 3409 
Q 3044 3113 2884 2869 
Q 2725 2625 2413 2481 
Q 2819 2388 3044 2092 
Q 3269 1797 3269 1353 
Q 3269 753 2831 336 
Q 2394 -81 1725 -81 
Q 1122 -81 723 278 
Q 325 638 269 1209 
z
" transform="scale(0.015625)"/>
       </defs>
       <use xlink:href="#ArialMT-33"/>
       <use xlink:href="#ArialMT-30" x="55.615234"/>
      </g>
     </g>
    </g>
    <g id="text_13">
     <!-- (°C) -->
     <g style="fill: #262626" transform="translate(47.773438 227.099844) rotate(-90) scale(0.1 -0.1)">
      <defs>
       <path id="ArialMT-28" d="M 1497 -1347 
Q 1031 -759 709 28 
Q 388 816 388 1659 
Q 388 2403 628 3084 
Q 909 3875 1497 4659 
L 1900 4659 
Q 1522 4009 1400 3731 
Q 1209 3300 1100 2831 
Q 966 2247 966 1656 
Q 966 153 1900 -1347 
L 1497 -1347 
z
" transform="scale(0.015625)"/>
       <path id="ArialMT-b0" d="M 400 3794 
Q 400 4153 654 4406 
Q 909 4659 1266 4659 
Q 1628 4659 1881 4406 
Q 2134 4153 2134 3794 
Q 2134 3434 1879 3179 
Q 1625 2925 1266 2925 
Q 909 2925 654 3178 
Q 400 3431 400 3794 
z
M 741 3794 
Q 741 3575 895 3420 
Q 1050 3266 1269 3266 
Q 1484 3266 1639 3420 
Q 1794 3575 1794 3794 
Q 1794 4013 1639 4167 
Q 1484 4322 1269 4322 
Q 1050 4322 895 4167 
Q 741 4013 741 3794 
z
" transform="scale(0.015625)"/>
       <path id="ArialMT-43" d="M 3763 1606 
L 4369 1453 
Q 4178 706 3683 314 
Q 3188 -78 2472 -78 
Q 1731 -78 1267 223 
Q 803 525 561 1097 
Q 319 1669 319 2325 
Q 319 3041 592 3573 
Q 866 4106 1370 4382 
Q 1875 4659 2481 4659 
Q 3169 4659 3637 4309 
Q 4106 3959 4291 3325 
L 3694 3184 
Q 3534 3684 3231 3912 
Q 2928 4141 2469 4141 
Q 1941 4141 1586 3887 
Q 1231 3634 1087 3207 
Q 944 2781 944 2328 
Q 944 1744 1114 1308 
Q 1284 872 1643 656 
Q 2003 441 2422 441 
Q 2931 441 3284 734 
Q 3638 1028 3763 1606 
z
" transform="scale(0.015625)"/>
       <path id="ArialMT-29" d="M 791 -1347 
L 388 -1347 
Q 1322 153 1322 1656 
Q 1322 2244 1188 2822 
Q 1081 3291 891 3722 
Q 769 4003 388 4659 
L 791 4659 
Q 1378 3875 1659 3084 
Q 1900 2403 1900 1659 
Q 1900 816 1576 28 
Q 1253 -759 791 -1347 
z
" transform="scale(0.015625)"/>
      </defs>
      <use xlink:href="#ArialMT-28"/>
      <use xlink:href="#ArialMT-b0" x="33.300781"/>
      <use xlink:href="#ArialMT-43" x="73.291016"/>
      <use xlink:href="#ArialMT-29" x="145.507812"/>
     </g>
    </g>
   </g>
   <g id="line2d_12">
    <path d="M 92.290909 157.57083 
L 92.758981 179.404765 
L 93.227053 159.754224 
L 93.695124 153.204043 
L 94.163196 180.496462 
L 94.631268 177.221372 
L 95.099339 183.771552 
L 96.035483 185.954946 
L 96.503555 166.304404 
L 96.971626 160.845921 
L 97.439698 166.304404 
L 98.843913 153.204043 
L 99.780057 165.212708 
L 100.248128 163.029314 
L 100.7162 154.29574 
L 101.184272 167.396101 
L 101.652344 154.29574 
L 102.120415 146.653863 
L 102.588487 145.562166 
L 103.056559 295.124621 
L 103.52463 306.041588 
L 103.992702 294.032924 
L 104.460774 263.465415 
L 104.928846 249.273357 
L 105.396917 214.339061 
L 105.864989 247.089964 
L 106.333061 256.915235 
L 106.801132 256.915235 
L 107.269204 254.731841 
L 107.737276 224.164332 
L 108.205348 211.063971 
L 109.141491 237.264693 
L 109.609563 205.605487 
L 110.077634 203.422094 
L 110.545706 193.596823 
L 111.48185 223.072635 
L 111.949921 255.823538 
L 112.417993 218.705848 
L 112.886065 197.96361 
L 113.354137 200.147004 
L 114.29028 164.121011 
L 114.758352 291.849531 
L 115.226423 298.399711 
L 115.694495 290.757834 
L 116.162567 315.866859 
L 116.630639 351.892852 
L 117.09871 366.08491 
L 118.034854 336.609097 
L 118.502925 300.583105 
L 119.439069 268.923899 
L 120.375212 244.90657 
L 121.311356 313.683466 
L 121.779427 268.923899 
L 122.247499 249.273357 
L 122.715571 245.998267 
L 123.183643 219.797545 
L 123.651714 255.823538 
L 124.119786 230.714513 
L 124.587858 262.373718 
L 125.05593 276.565776 
L 125.524001 274.382383 
L 125.992073 252.548448 
L 126.460145 289.666137 
L 127.396288 298.399711 
L 127.86436 297.308014 
L 128.332432 283.115957 
L 128.800503 251.456751 
L 129.268575 272.198989 
L 129.736647 322.41704 
L 130.204718 327.875523 
L 130.67279 291.849531 
L 131.140862 296.216318 
L 131.608934 287.482744 
L 132.077005 219.797545 
L 132.545077 300.583105 
L 133.013149 294.032924 
L 133.481221 271.107292 
L 133.949292 266.740505 
L 134.417364 258.006931 
L 134.885436 223.072635 
L 135.821579 275.474079 
L 136.289651 330.058917 
L 136.757723 345.342671 
L 137.225794 332.24231 
L 137.693866 315.866859 
L 138.161938 315.866859 
L 138.630009 352.984549 
L 139.098081 313.683466 
L 139.566153 307.133285 
L 140.034225 280.932563 
L 140.502296 244.90657 
L 140.970368 236.172996 
L 141.43844 282.02426 
L 141.906511 285.29935 
L 142.374583 264.557112 
L 142.842655 264.557112 
L 143.310727 304.949892 
L 143.778798 306.041588 
L 144.24687 309.316679 
L 144.714942 283.115957 
L 145.183014 267.832202 
L 145.651085 238.35639 
L 146.119157 266.740505 
L 146.587229 314.775162 
L 147.0553 332.24231 
L 147.523372 295.124621 
L 147.991444 297.308014 
L 148.459516 328.96722 
L 149.395659 279.840866 
L 149.863731 289.666137 
L 150.331802 303.858195 
L 150.799874 308.224982 
L 151.267946 347.526065 
L 151.736018 298.399711 
L 152.672161 243.814874 
L 153.140233 243.814874 
L 154.076376 219.797545 
L 154.544448 208.880578 
L 155.01252 208.880578 
L 155.480591 327.875523 
L 155.948663 347.526065 
L 156.416735 336.609097 
L 156.884807 285.29935 
L 157.352878 263.465415 
L 157.82095 309.316679 
L 158.289022 282.02426 
L 158.757093 226.347726 
L 159.225165 188.138339 
L 159.693237 189.230036 
L 160.161309 260.190325 
L 160.62938 265.648809 
L 161.097452 299.491408 
L 161.565524 291.849531 
L 162.501667 238.35639 
L 163.437811 274.382383 
L 163.905882 253.640144 
L 164.842026 183.771552 
L 165.310098 193.596823 
L 165.778169 196.871913 
L 166.246241 252.548448 
L 166.714313 361.718123 
L 167.182384 366.08491 
L 167.650456 338.792491 
L 168.118528 343.159278 
L 168.5866 250.365054 
L 169.522743 194.68852 
L 169.990815 172.854585 
L 170.458886 191.41343 
L 170.926958 191.41343 
L 171.39503 185.954946 
L 171.863102 302.766498 
L 172.799245 294.032924 
L 173.267317 310.408375 
L 173.735388 300.583105 
L 174.20346 252.548448 
L 174.671532 247.089964 
L 175.139604 236.172996 
L 175.607675 221.980939 
L 176.543819 184.863249 
L 177.011891 203.422094 
L 177.948034 216.522455 
L 178.416106 215.430758 
L 178.884177 249.273357 
L 179.352249 308.224982 
L 179.820321 326.783827 
L 180.288393 302.766498 
L 180.756464 250.365054 
L 181.224536 228.531119 
L 181.692608 195.780217 
L 182.160679 195.780217 
L 182.628751 185.954946 
L 183.096823 193.596823 
L 183.564895 191.41343 
L 184.032966 203.422094 
L 184.501038 157.57083 
L 185.437182 196.871913 
L 185.905253 259.098628 
L 186.373325 252.548448 
L 186.841397 226.347726 
L 187.309468 190.321733 
L 187.77754 178.313069 
L 188.713684 221.980939 
L 189.181755 213.247365 
L 189.649827 207.788881 
L 190.117899 189.230036 
L 190.58597 178.313069 
L 191.054042 194.68852 
L 191.522114 173.946282 
L 191.990186 200.147004 
L 192.458257 197.96361 
L 192.926329 183.771552 
L 193.394401 163.029314 
L 193.862472 169.579495 
L 194.330544 155.387437 
L 194.798616 164.121011 
L 195.266688 169.579495 
L 196.202831 195.780217 
L 196.670903 187.046643 
L 197.138975 153.204043 
L 197.607046 132.461805 
L 198.075118 203.422094 
L 198.54319 215.430758 
L 199.011261 207.788881 
L 199.947405 172.854585 
L 200.415477 180.496462 
L 200.883548 171.762888 
L 202.287763 130.278412 
L 203.223907 147.74556 
L 203.691979 140.103682 
L 204.16005 135.736895 
L 204.628122 133.553502 
L 205.564265 152.112347 
L 206.032337 149.928953 
L 206.500409 151.02065 
L 206.968481 147.74556 
L 207.436552 131.370108 
L 207.904624 143.378773 
L 208.372696 151.02065 
L 208.840768 141.195379 
L 209.308839 140.103682 
L 209.776911 146.653863 
L 210.244983 142.287076 
L 210.713054 147.74556 
L 211.181126 116.086354 
L 211.649198 111.719567 
L 212.11727 118.269747 
L 212.585341 166.304404 
L 213.053413 159.754224 
L 213.521485 165.212708 
L 213.989556 151.02065 
L 214.457628 153.204043 
L 214.9257 145.562166 
L 215.393772 142.287076 
L 215.861843 136.828592 
L 216.329915 141.195379 
L 216.797987 119.361444 
L 217.266059 104.07769 
L 218.202202 128.095018 
L 218.670274 128.095018 
L 219.138345 154.29574 
L 219.606417 172.854585 
L 220.074489 151.02065 
L 220.542561 151.02065 
L 221.010632 155.387437 
L 221.478704 156.479134 
L 221.946776 160.845921 
L 222.414847 159.754224 
L 222.882919 146.653863 
L 223.350991 136.828592 
L 223.819063 133.553502 
L 224.287134 135.736895 
L 224.755206 146.653863 
L 225.223278 135.736895 
L 225.691349 136.828592 
L 226.159421 136.828592 
L 226.627493 127.003321 
L 227.563636 166.304404 
L 228.031708 80.060361 
L 228.49978 118.269747 
L 228.967852 120.453141 
L 229.435923 130.278412 
L 229.903995 131.370108 
L 230.372067 143.378773 
L 230.840138 140.103682 
L 231.30821 141.195379 
L 231.776282 149.928953 
L 232.244354 133.553502 
L 232.712425 144.470469 
L 233.180497 168.487798 
L 233.648569 165.212708 
L 234.584712 154.29574 
L 235.052784 141.195379 
L 235.520856 151.02065 
L 235.988927 141.195379 
L 236.456999 142.287076 
L 237.393142 132.461805 
L 238.329286 123.728231 
L 238.797358 121.544838 
L 239.265429 121.544838 
L 239.733501 128.095018 
L 240.201573 128.095018 
L 240.669645 129.186715 
L 241.137716 128.095018 
L 241.605788 129.186715 
L 242.07386 129.186715 
L 242.541931 124.819928 
L 243.010003 127.003321 
L 243.478075 112.811264 
L 243.946147 118.269747 
L 244.414218 121.544838 
L 244.88229 131.370108 
L 245.350362 119.361444 
L 245.818433 119.361444 
L 246.286505 154.29574 
L 246.754577 131.370108 
L 247.222649 127.003321 
L 247.69072 146.653863 
L 248.158792 144.470469 
L 248.626864 135.736895 
L 249.094936 135.736895 
L 249.563007 163.029314 
L 250.031079 145.562166 
L 250.499151 137.920289 
L 250.967222 135.736895 
L 251.435294 145.562166 
L 251.903366 144.470469 
L 252.371438 156.479134 
L 252.839509 184.863249 
L 253.307581 181.588159 
L 253.775653 122.636534 
L 254.243724 149.928953 
L 254.711796 158.662527 
L 255.179868 157.57083 
L 255.64794 165.212708 
L 256.116011 161.937617 
L 256.584083 152.112347 
L 257.052155 148.837256 
L 257.988298 130.278412 
L 258.45637 132.461805 
L 258.924442 151.02065 
L 259.392513 152.112347 
L 259.860585 145.562166 
L 260.328657 144.470469 
L 260.796729 140.103682 
L 261.2648 134.645199 
L 262.200944 151.02065 
L 262.669015 141.195379 
L 263.137087 147.74556 
L 263.605159 146.653863 
L 264.073231 157.57083 
L 264.541302 154.29574 
L 265.009374 163.029314 
L 265.477446 159.754224 
L 265.945517 154.29574 
L 266.413589 160.845921 
L 266.881661 164.121011 
L 267.349733 160.845921 
L 267.817804 156.479134 
L 268.285876 267.832202 
L 268.753948 273.290686 
L 269.690091 179.404765 
L 270.158163 158.662527 
L 270.626235 204.513791 
L 271.094306 213.247365 
L 271.562378 204.513791 
L 272.03045 184.863249 
L 272.498522 151.02065 
L 272.966593 156.479134 
L 273.434665 180.496462 
L 273.902737 195.780217 
L 274.370808 178.313069 
L 274.83888 262.373718 
L 275.306952 271.107292 
L 275.775024 252.548448 
L 276.711167 180.496462 
L 277.179239 284.207653 
L 277.64731 286.391047 
L 278.115382 302.766498 
L 278.583454 266.740505 
L 279.051526 251.456751 
L 279.519597 231.806209 
L 279.987669 197.96361 
L 280.455741 176.129675 
L 281.391884 284.207653 
L 281.859956 272.198989 
L 282.328028 243.814874 
L 282.796099 285.29935 
L 283.264171 362.809819 
L 283.732243 369.36 
L 284.200315 338.792491 
L 284.668386 290.757834 
L 285.136458 300.583105 
L 286.072601 251.456751 
L 286.540673 240.539783 
L 287.008745 204.513791 
L 287.476817 191.41343 
L 287.944888 197.96361 
L 288.41296 237.264693 
L 288.881032 265.648809 
L 289.817175 229.622816 
L 290.285247 224.164332 
L 290.753319 253.640144 
L 291.22139 256.915235 
L 291.689462 217.614152 
L 292.157534 220.889242 
L 292.625606 267.832202 
L 293.093677 285.29935 
L 293.561749 254.731841 
L 294.029821 252.548448 
L 294.497892 233.989603 
L 294.965964 241.63148 
L 295.434036 251.456751 
L 295.902108 235.0813 
L 296.370179 262.373718 
L 296.838251 300.583105 
L 297.306323 315.866859 
L 297.774394 296.216318 
L 298.242466 240.539783 
L 298.710538 250.365054 
L 299.17861 219.797545 
L 299.646681 315.866859 
L 300.582825 352.984549 
L 301.050897 270.015596 
L 301.518968 289.666137 
L 301.98704 319.141949 
L 302.455112 321.325343 
L 303.391255 272.198989 
L 303.859327 236.172996 
L 304.327399 225.256029 
L 304.79547 219.797545 
L 305.263542 229.622816 
L 305.731614 275.474079 
L 306.199685 296.216318 
L 307.135829 271.107292 
L 307.603901 272.198989 
L 308.071972 308.224982 
L 308.540044 314.775162 
L 309.476187 262.373718 
L 309.944259 275.474079 
L 310.412331 259.098628 
L 310.880403 262.373718 
L 311.348474 277.657473 
L 311.816546 306.041588 
L 312.284618 262.373718 
L 312.75269 260.190325 
L 313.688833 200.147004 
L 314.156905 202.330397 
L 314.624976 215.430758 
L 315.093048 266.740505 
L 316.029192 292.941227 
L 316.497263 265.648809 
L 316.965335 286.391047 
L 317.433407 273.290686 
L 318.36955 231.806209 
L 318.837622 244.90657 
L 319.305694 235.0813 
L 319.773765 270.015596 
L 320.241837 286.391047 
L 320.709909 313.683466 
L 321.17798 288.57444 
L 321.646052 297.308014 
L 322.114124 252.548448 
L 322.582196 245.998267 
L 323.518339 361.718123 
L 324.454483 285.29935 
L 324.922554 204.513791 
L 325.390626 213.247365 
L 325.858698 273.290686 
L 326.326769 287.482744 
L 326.794841 296.216318 
L 327.262913 292.941227 
L 328.199056 261.282022 
L 329.1352 203.422094 
L 330.071343 316.958556 
L 330.539415 330.058917 
L 331.007487 308.224982 
L 331.475558 278.74917 
L 331.94363 237.264693 
L 332.411702 215.430758 
L 332.879774 301.674801 
L 333.347845 336.609097 
L 333.815917 327.875523 
L 334.75206 264.557112 
L 335.220132 219.797545 
L 335.688204 194.68852 
L 336.156276 193.596823 
L 336.624347 273.290686 
L 337.092419 261.282022 
L 337.560491 262.373718 
L 338.496634 214.339061 
L 339.432778 202.330397 
L 339.900849 205.605487 
L 340.368921 199.055307 
L 340.836993 171.762888 
L 341.305064 179.404765 
L 341.773136 199.055307 
L 342.241208 195.780217 
L 342.70928 190.321733 
L 343.177351 196.871913 
L 343.645423 217.614152 
L 344.113495 245.998267 
L 344.581567 248.181661 
L 345.049638 214.339061 
L 345.51771 199.055307 
L 345.985782 169.579495 
L 346.453853 176.129675 
L 346.921925 176.129675 
L 347.389997 143.378773 
L 347.858069 211.063971 
L 348.32614 227.439422 
L 348.794212 171.762888 
L 349.262284 204.513791 
L 349.730355 178.313069 
L 350.198427 158.662527 
L 350.666499 232.897906 
L 351.134571 230.714513 
L 351.602642 219.797545 
L 352.070714 185.954946 
L 352.538786 177.221372 
L 353.006858 154.29574 
L 353.474929 181.588159 
L 353.943001 187.046643 
L 354.411073 190.321733 
L 354.879144 192.505126 
L 355.815288 275.474079 
L 356.28336 253.640144 
L 356.751431 218.705848 
L 357.219503 166.304404 
L 357.687575 179.404765 
L 358.155646 171.762888 
L 358.623718 152.112347 
L 359.09179 137.920289 
L 360.027933 165.212708 
L 360.496005 151.02065 
L 360.964077 202.330397 
L 361.432148 176.129675 
L 362.368292 159.754224 
L 362.836364 176.129675 
L 363.304435 205.605487 
L 363.772507 177.221372 
L 364.240579 156.479134 
L 364.708651 153.204043 
L 365.176722 178.313069 
L 365.644794 168.487798 
L 366.112866 188.138339 
L 367.049009 199.055307 
L 367.517081 201.2387 
L 367.985153 190.321733 
L 368.453224 183.771552 
L 368.921296 165.212708 
L 369.389368 163.029314 
L 369.857439 147.74556 
L 370.325511 165.212708 
L 370.793583 188.138339 
L 371.729726 156.479134 
L 372.197798 132.461805 
L 372.66587 142.287076 
L 373.133941 167.396101 
L 373.602013 151.02065 
L 374.070085 155.387437 
L 374.538157 175.037978 
L 375.006228 178.313069 
L 375.4743 175.037978 
L 375.942372 145.562166 
L 376.410444 196.871913 
L 376.878515 165.212708 
L 377.346587 184.863249 
L 377.814659 190.321733 
L 378.750802 158.662527 
L 379.218874 149.928953 
L 379.686946 151.02065 
L 380.155017 148.837256 
L 380.623089 144.470469 
L 381.091161 143.378773 
L 381.559232 183.771552 
L 382.027304 154.29574 
L 382.495376 166.304404 
L 382.963448 182.679856 
L 383.431519 176.129675 
L 383.899591 176.129675 
L 384.367663 175.037978 
L 385.303806 149.928953 
L 385.771878 155.387437 
L 386.23995 175.037978 
L 386.708021 142.287076 
L 387.176093 135.736895 
L 387.644165 134.645199 
L 388.112237 136.828592 
L 388.580308 180.496462 
L 389.04838 176.129675 
L 389.516452 157.57083 
L 389.984523 144.470469 
L 390.452595 158.662527 
L 390.920667 131.370108 
L 391.388739 140.103682 
L 391.85681 133.553502 
L 392.324882 136.828592 
L 392.792954 143.378773 
L 393.261025 136.828592 
L 393.729097 148.837256 
L 394.197169 136.828592 
L 394.665241 129.186715 
L 395.133312 125.911625 
L 395.601384 121.544838 
L 396.069456 129.186715 
L 396.537528 134.645199 
L 397.005599 137.920289 
L 397.473671 132.461805 
L 397.941743 137.920289 
L 398.409814 137.920289 
L 398.877886 130.278412 
L 399.345958 127.003321 
L 399.81403 159.754224 
L 400.282101 156.479134 
L 400.750173 142.287076 
L 401.218245 140.103682 
L 401.686316 145.562166 
L 402.62246 131.370108 
L 403.090532 140.103682 
L 403.558603 173.946282 
L 404.026675 145.562166 
L 404.494747 169.579495 
L 404.962818 176.129675 
L 405.43089 161.937617 
L 405.898962 143.378773 
L 406.367034 180.496462 
L 406.835105 161.937617 
L 407.303177 157.57083 
L 408.239321 141.195379 
L 408.707392 142.287076 
L 409.175464 141.195379 
L 409.643536 141.195379 
L 410.111607 163.029314 
L 410.579679 163.029314 
L 411.047751 159.754224 
L 411.515823 142.287076 
L 411.983894 143.378773 
L 412.451966 151.02065 
L 412.920038 149.928953 
L 413.388109 129.186715 
L 413.856181 137.920289 
L 414.324253 132.461805 
L 414.792325 135.736895 
L 415.260396 142.287076 
L 415.728468 106.261083 
L 416.19654 148.837256 
L 416.664612 142.287076 
L 417.132683 123.728231 
L 417.600755 131.370108 
L 418.068827 133.553502 
L 419.00497 127.003321 
L 419.473042 119.361444 
L 419.941114 66.96 
L 420.409185 134.645199 
L 420.877257 133.553502 
L 421.345329 161.937617 
L 421.8134 152.112347 
L 422.281472 163.029314 
L 422.749544 146.653863 
L 423.217616 146.653863 
L 423.685687 66.96 
L 424.153759 120.453141 
L 424.621831 117.178051 
L 425.089902 136.828592 
L 425.557974 135.736895 
L 426.494118 135.736895 
L 426.962189 137.920289 
L 427.430261 137.920289 
L 427.898333 140.103682 
L 428.366405 134.645199 
L 428.834476 142.287076 
L 429.302548 144.470469 
L 429.77062 145.562166 
L 430.238691 141.195379 
L 430.706763 128.095018 
L 431.174835 129.186715 
L 431.642907 128.095018 
L 432.110978 141.195379 
L 433.047122 139.011986 
L 433.983265 141.195379 
L 434.451337 131.370108 
L 434.919409 149.928953 
L 435.38748 146.653863 
L 435.855552 146.653863 
L 436.323624 148.837256 
L 436.791696 131.370108 
L 437.259767 139.011986 
L 437.727839 133.553502 
L 438.195911 133.553502 
L 438.663982 137.920289 
L 439.600126 125.911625 
L 440.068198 117.178051 
L 440.536269 125.911625 
L 441.472413 151.02065 
L 441.940484 149.928953 
L 442.408556 140.103682 
L 442.876628 125.911625 
L 443.3447 154.29574 
L 443.812771 163.029314 
L 444.280843 160.845921 
L 444.748915 146.653863 
L 445.685058 171.762888 
L 446.15313 181.588159 
L 446.621202 182.679856 
L 447.089273 173.946282 
L 447.557345 175.037978 
L 448.025417 156.479134 
L 448.493489 161.937617 
L 448.96156 158.662527 
L 449.429632 163.029314 
L 450.365775 156.479134 
L 450.833847 160.845921 
L 451.301919 160.845921 
L 451.769991 167.396101 
L 452.238062 155.387437 
L 452.706134 151.02065 
L 453.174206 154.29574 
L 453.642277 154.29574 
L 454.578421 165.212708 
L 455.046493 155.387437 
L 455.514564 156.479134 
L 455.982636 178.313069 
L 456.450708 192.505126 
L 456.918779 169.579495 
L 457.386851 189.230036 
L 457.854923 201.2387 
L 458.322995 202.330397 
L 459.259138 179.404765 
L 459.72721 173.946282 
L 460.195282 175.037978 
L 461.131425 221.980939 
L 461.599497 196.871913 
L 462.067568 205.605487 
L 462.53564 189.230036 
L 463.003712 196.871913 
L 463.471784 194.68852 
L 463.939855 172.854585 
L 464.407927 175.037978 
L 464.875999 163.029314 
L 465.34407 155.387437 
L 465.812142 201.2387 
L 466.280214 259.098628 
L 466.748286 243.814874 
L 467.216357 270.015596 
L 467.684429 243.814874 
L 468.152501 231.806209 
L 469.088644 187.046643 
L 469.556716 196.871913 
L 470.024788 242.723177 
L 470.492859 230.714513 
L 470.960931 199.055307 
L 471.429003 233.989603 
L 471.897075 242.723177 
L 472.833218 209.972274 
L 473.30129 208.880578 
L 473.769361 192.505126 
L 474.237433 180.496462 
L 474.705505 197.96361 
L 475.173577 239.448087 
L 475.641648 203.422094 
L 476.10972 176.129675 
L 476.577792 189.230036 
L 477.045863 182.679856 
L 477.513935 189.230036 
L 477.982007 261.282022 
L 478.450079 299.491408 
L 479.386222 273.290686 
L 480.322366 338.792491 
L 480.790437 314.775162 
L 481.258509 332.24231 
L 481.726581 340.975884 
L 482.194652 337.700794 
L 483.598868 243.814874 
L 484.066939 273.290686 
L 485.003083 299.491408 
L 485.471154 275.474079 
L 485.939226 237.264693 
L 486.87537 291.849531 
L 487.343441 267.832202 
L 487.811513 220.889242 
L 488.279585 185.954946 
L 488.747656 201.2387 
L 489.215728 212.155668 
L 489.6838 232.897906 
L 490.151872 199.055307 
L 490.619943 208.880578 
L 491.088015 213.247365 
L 491.556087 238.35639 
L 492.024159 250.365054 
L 492.49223 274.382383 
L 492.960302 283.115957 
L 493.428374 288.57444 
L 493.896445 320.233646 
L 494.364517 295.124621 
L 494.832589 302.766498 
L 495.300661 298.399711 
L 495.768732 302.766498 
L 496.236804 196.871913 
L 496.704876 189.230036 
L 497.172947 171.762888 
L 497.641019 169.579495 
L 498.109091 215.430758 
L 498.109091 215.430758 
" clip-path="url(#p076c7f3d70)" style="fill: none; stroke: #1f77b4; stroke-width: 1.5; stroke-linecap: round"/>
   </g>
   <g id="line2d_13">
    <path d="M 92.290909 153.231069 
L 92.758981 167.219012 
L 93.227053 169.923303 
L 93.695124 158.632076 
L 94.163196 160.005856 
L 94.631268 157.968639 
L 95.099339 167.374043 
L 95.567411 170.6169 
L 96.035483 169.281454 
L 96.503555 169.71506 
L 97.439698 167.040889 
L 97.90777 166.591042 
L 98.375841 164.441699 
L 98.843913 160.344682 
L 99.780057 164.001309 
L 100.248128 165.086619 
L 100.7162 155.037601 
L 101.184272 154.448554 
L 101.652344 165.383799 
L 102.120415 162.446544 
L 102.588487 154.980731 
L 103.056559 159.443049 
L 103.992702 304.723794 
L 104.460774 287.044133 
L 104.928846 287.269913 
L 105.396917 232.342322 
L 105.864989 237.846083 
L 106.333061 253.733162 
L 106.801132 256.627239 
L 107.269204 258.560037 
L 107.737276 268.302358 
L 108.205348 240.399898 
L 108.673419 235.323099 
L 109.141491 220.358633 
L 109.609563 233.620932 
L 110.077634 221.714444 
L 110.545706 221.16759 
L 111.013778 219.521714 
L 111.48185 233.975434 
L 111.949921 240.979631 
L 112.417993 234.278262 
L 112.886065 224.111219 
L 113.354137 219.381218 
L 113.822208 193.822754 
L 114.29028 183.407201 
L 114.758352 208.710484 
L 115.226423 242.57916 
L 115.694495 262.696219 
L 116.162567 261.877477 
L 116.630639 274.406284 
L 117.09871 297.696853 
L 117.566782 302.563553 
L 118.034854 304.145263 
L 118.502925 257.141581 
L 118.970997 285.137998 
L 119.907141 240.511853 
L 120.375212 244.821088 
L 120.843284 255.274329 
L 121.311356 278.481499 
L 121.779427 288.815799 
L 122.247499 276.708782 
L 122.715571 250.365721 
L 123.183643 239.125464 
L 123.651714 238.258335 
L 124.119786 241.426332 
L 124.587858 252.81299 
L 125.05593 293.687294 
L 125.524001 309.941305 
L 125.992073 276.258244 
L 126.460145 281.826908 
L 126.928216 300.144187 
L 127.396288 300.515304 
L 127.86436 283.104872 
L 128.332432 294.907046 
L 128.800503 279.350902 
L 129.268575 249.980173 
L 129.736647 284.396511 
L 130.204718 291.536887 
L 130.67279 289.225446 
L 131.140862 299.077365 
L 131.608934 282.24167 
L 132.077005 252.308604 
L 132.545077 247.686167 
L 133.013149 289.071994 
L 133.481221 253.14276 
L 133.949292 253.586938 
L 134.417364 261.703197 
L 134.885436 248.518546 
L 135.353507 242.666777 
L 135.821579 250.690299 
L 136.289651 267.425853 
L 136.757723 309.103641 
L 137.225794 315.471686 
L 137.693866 301.809702 
L 139.098081 279.852883 
L 139.566153 289.823151 
L 140.970368 250.460208 
L 141.43844 249.390814 
L 141.906511 262.700913 
L 142.374583 291.176024 
L 142.842655 280.194097 
L 143.310727 259.33136 
L 143.778798 314.424602 
L 144.24687 303.693516 
L 144.714942 302.836371 
L 145.183014 283.133763 
L 145.651085 280.016672 
L 146.119157 256.592552 
L 146.587229 259.619176 
L 147.0553 281.715353 
L 147.523372 277.469906 
L 147.991444 262.317175 
L 148.459516 307.013096 
L 148.927587 304.382212 
L 149.395659 313.113046 
L 149.863731 305.135936 
L 150.331802 279.409016 
L 150.799874 260.207917 
L 151.267946 295.184249 
L 151.736018 300.062952 
L 152.204089 277.047703 
L 152.672161 284.759746 
L 153.140233 259.199989 
L 154.544448 236.111573 
L 155.01252 232.096824 
L 155.480591 235.555607 
L 155.948663 292.786744 
L 156.416735 320.845121 
L 156.884807 286.025573 
L 157.352878 265.542941 
L 157.82095 256.828892 
L 158.289022 270.917127 
L 159.225165 213.284166 
L 159.693237 210.138135 
L 160.161309 222.111018 
L 160.62938 271.420838 
L 161.097452 275.883014 
L 161.565524 290.762531 
L 162.033595 284.526728 
L 162.501667 258.514843 
L 162.969739 253.314468 
L 163.437811 245.016597 
L 163.905882 281.233322 
L 164.373954 234.230355 
L 164.842026 216.858677 
L 165.310098 213.326857 
L 165.778169 206.643941 
L 166.246241 202.5513 
L 166.714313 216.935298 
L 167.182384 342.20426 
L 168.118528 318.379125 
L 168.5866 286.308523 
L 169.054671 225.162161 
L 169.522743 222.281964 
L 169.990815 215.659277 
L 170.458886 212.190567 
L 170.926958 209.65195 
L 171.39503 182.215346 
L 171.863102 211.365153 
L 172.331173 278.059594 
L 172.799245 310.607091 
L 173.267317 291.060079 
L 173.735388 316.925464 
L 174.20346 299.800263 
L 174.671532 275.374764 
L 175.139604 265.409607 
L 175.607675 243.644936 
L 176.075747 214.318999 
L 176.543819 214.215838 
L 177.011891 214.55751 
L 177.479962 239.678431 
L 177.948034 236.082561 
L 178.416106 238.409482 
L 178.884177 233.756403 
L 179.352249 217.870755 
L 179.820321 315.994461 
L 180.756464 296.227349 
L 181.224536 240.262583 
L 181.692608 210.582832 
L 182.160679 210.00529 
L 182.628751 189.917105 
L 183.564895 191.4611 
L 184.032966 188.078892 
L 184.501038 186.835729 
L 184.96911 176.357398 
L 185.437182 198.118754 
L 185.905253 185.847607 
L 186.373325 239.373849 
L 187.77754 168.489708 
L 188.245612 162.359336 
L 188.713684 168.842425 
L 189.181755 196.462558 
L 189.649827 190.560536 
L 190.117899 193.632812 
L 190.58597 192.764847 
L 191.054042 187.762966 
L 191.522114 163.718706 
L 191.990186 164.690592 
L 192.926329 190.866616 
L 193.394401 190.621249 
L 193.862472 163.069232 
L 194.330544 156.991959 
L 194.798616 161.402664 
L 195.266688 167.908637 
L 195.734759 164.768631 
L 196.202831 165.730724 
L 196.670903 170.600553 
L 197.138975 172.741162 
L 197.607046 144.918729 
L 198.075118 149.425293 
L 198.54319 214.06256 
L 199.011261 218.58296 
L 199.479333 197.294053 
L 199.947405 187.223221 
L 200.415477 181.893369 
L 200.883548 187.338584 
L 201.35162 178.035904 
L 201.819692 160.988566 
L 202.287763 150.975256 
L 202.755835 154.239894 
L 203.223907 153.181392 
L 203.691979 142.827493 
L 204.16005 144.783674 
L 204.628122 148.899069 
L 205.096194 149.908727 
L 205.564265 146.357439 
L 206.032337 150.451793 
L 206.500409 149.577636 
L 206.968481 141.689565 
L 207.436552 141.990403 
L 207.904624 148.735954 
L 208.372696 144.704251 
L 208.840768 148.341601 
L 209.308839 143.706023 
L 209.776911 144.991255 
L 210.244983 144.540234 
L 210.713054 141.509609 
L 211.181126 134.221041 
L 212.11727 133.155913 
L 212.585341 133.502469 
L 213.053413 143.350076 
L 213.521485 160.657464 
L 214.457628 146.052386 
L 214.9257 146.637627 
L 215.393772 146.114227 
L 215.861843 140.85942 
L 216.329915 140.322897 
L 216.797987 139.546334 
L 217.266059 135.949237 
L 217.73413 136.969549 
L 218.202202 140.171087 
L 218.670274 140.201125 
L 219.138345 133.611528 
L 219.606417 139.325197 
L 220.074489 161.876101 
L 220.542561 150.53918 
L 221.010632 144.925388 
L 221.478704 144.96657 
L 221.946776 145.48997 
L 222.414847 145.052687 
L 222.882919 145.751058 
L 223.350991 145.319741 
L 223.819063 144.217585 
L 224.287134 141.0833 
L 224.755206 141.211967 
L 225.223278 139.633432 
L 225.691349 139.546334 
L 226.159421 133.464149 
L 226.627493 133.377051 
L 227.095565 134.504048 
L 227.563636 142.838569 
L 228.031708 144.317584 
L 228.49978 137.003448 
L 229.435923 134.079639 
L 229.903995 138.30709 
L 230.372067 137.012538 
L 230.840138 136.409193 
L 231.776282 136.717428 
L 232.244354 135.508167 
L 232.712425 141.157058 
L 233.648569 162.205892 
L 234.11664 152.587533 
L 234.584712 145.745131 
L 235.052784 145.926847 
L 235.520856 145.293528 
L 235.988927 146.385854 
L 236.456999 141.128947 
L 236.925071 138.758333 
L 237.393142 138.150997 
L 237.861214 133.611528 
L 238.329286 135.351467 
L 238.797358 133.832666 
L 240.201573 133.832666 
L 240.669645 134.525889 
L 241.137716 134.014382 
L 241.605788 133.771403 
L 242.07386 134.079639 
L 242.541931 133.832666 
L 243.010003 133.832666 
L 243.478075 133.464149 
L 243.946147 133.832666 
L 244.414218 133.464149 
L 244.88229 133.858501 
L 245.350362 133.858501 
L 245.818433 134.227018 
L 246.286505 133.550266 
L 246.754577 139.760731 
L 247.222649 136.354776 
L 247.69072 143.232921 
L 248.158792 145.626191 
L 248.626864 144.742656 
L 249.094936 135.35258 
L 250.031079 146.286863 
L 250.499151 144.742656 
L 250.967222 142.284055 
L 251.435294 146.508001 
L 251.903366 155.731595 
L 252.371438 149.550854 
L 252.839509 153.586003 
L 253.307581 191.461568 
L 253.775653 190.406711 
L 254.243724 142.673154 
L 255.179868 162.020781 
L 255.64794 160.855086 
L 256.116011 149.729292 
L 256.584083 157.40128 
L 257.052155 157.440875 
L 257.520226 151.615869 
L 257.988298 156.481065 
L 258.45637 152.433115 
L 258.924442 154.407396 
L 259.392513 154.606572 
L 259.860585 156.18437 
L 260.328657 156.775898 
L 260.796729 155.010915 
L 261.2648 154.89996 
L 261.732872 148.73028 
L 262.200944 152.632221 
L 262.669015 152.396621 
L 263.137087 152.470379 
L 263.605159 150.933533 
L 264.541302 150.272126 
L 265.009374 152.203325 
L 265.477446 155.089066 
L 265.945517 147.425912 
L 266.413589 147.278532 
L 267.349733 161.040798 
L 267.817804 153.925668 
L 268.285876 153.925668 
L 268.753948 189.823284 
L 269.22202 263.30889 
L 269.690091 196.162844 
L 270.158163 172.294629 
L 270.626235 162.866208 
L 271.094306 191.016723 
L 271.562378 196.688356 
L 272.03045 192.712533 
L 272.498522 161.257125 
L 272.966593 178.101381 
L 273.434665 163.502165 
L 273.902737 192.91591 
L 274.370808 191.181408 
L 274.83888 180.637914 
L 275.306952 227.583454 
L 275.775024 240.134348 
L 276.243095 205.914515 
L 276.711167 197.455391 
L 277.179239 195.773217 
L 277.64731 222.877135 
L 278.115382 279.463248 
L 278.583454 269.939179 
L 279.051526 238.914344 
L 279.519597 240.186105 
L 279.987669 216.29805 
L 280.455741 210.443262 
L 280.923813 201.313694 
L 281.391884 212.522982 
L 281.859956 289.763581 
L 282.328028 285.517839 
L 282.796099 273.883641 
L 283.264171 235.19367 
L 283.732243 315.563723 
L 284.200315 323.588879 
L 284.668386 284.979845 
L 285.136458 277.334796 
L 285.60453 257.155154 
L 286.072601 249.512857 
L 286.540673 239.335737 
L 287.008745 232.979275 
L 287.476817 234.751548 
L 287.944888 233.619198 
L 288.41296 223.578909 
L 288.881032 252.209136 
L 289.817175 222.199104 
L 290.285247 224.879233 
L 290.753319 242.861556 
L 291.22139 242.454159 
L 291.689462 242.364864 
L 292.157534 205.67841 
L 292.625606 235.763757 
L 293.093677 245.891165 
L 293.561749 246.200804 
L 294.029821 242.925113 
L 294.497892 238.047116 
L 294.965964 222.828882 
L 295.434036 236.975079 
L 295.902108 242.484927 
L 296.370179 217.919957 
L 297.306323 316.256983 
L 297.774394 284.366303 
L 298.242466 243.950252 
L 298.710538 222.383437 
L 299.17861 218.796681 
L 299.646681 220.80504 
L 300.114753 296.139777 
L 300.582825 309.805996 
L 301.518968 304.477555 
L 301.98704 295.986052 
L 302.455112 277.776106 
L 302.923183 275.414867 
L 303.391255 254.522431 
L 304.327399 250.097388 
L 304.79547 247.114807 
L 305.263542 223.013654 
L 305.731614 252.850478 
L 306.199685 299.113511 
L 306.667757 312.643828 
L 307.135829 279.883956 
L 307.603901 265.69338 
L 308.071972 277.44824 
L 308.540044 294.00014 
L 309.008116 290.155644 
L 309.476187 247.69157 
L 310.412331 277.035643 
L 310.880403 252.712575 
L 311.348474 252.576428 
L 311.816546 251.496275 
L 312.284618 288.485397 
L 312.75269 259.208652 
L 313.220761 251.327375 
L 313.688833 246.884522 
L 314.156905 239.214036 
L 314.624976 241.275995 
L 315.093048 244.740896 
L 315.56112 288.004973 
L 316.029192 269.606722 
L 316.497263 284.964214 
L 316.965335 272.042163 
L 317.433407 245.872267 
L 317.901478 264.485161 
L 318.36955 289.025144 
L 318.837622 240.552643 
L 319.305694 238.523664 
L 320.241837 261.001303 
L 320.709909 305.016973 
L 321.17798 307.085167 
L 321.646052 301.715607 
L 322.114124 267.022996 
L 323.050267 237.00849 
L 323.518339 276.099253 
L 323.986411 276.599514 
L 324.454483 253.806698 
L 324.922554 258.496719 
L 325.390626 227.198704 
L 325.858698 220.228129 
L 326.794841 304.160287 
L 327.262913 290.297449 
L 327.730985 304.701588 
L 328.199056 283.277951 
L 328.667128 256.393268 
L 329.1352 220.473309 
L 329.603271 221.587718 
L 330.071343 267.274532 
L 330.539415 284.231286 
L 331.007487 292.454759 
L 331.475558 287.521486 
L 332.411702 218.566215 
L 332.879774 220.368689 
L 333.347845 291.540452 
L 333.815917 298.337707 
L 334.283989 290.053663 
L 334.75206 284.879291 
L 335.220132 225.142438 
L 335.688204 199.529935 
L 336.156276 226.902656 
L 336.624347 219.405918 
L 337.092419 260.503999 
L 337.560491 243.879813 
L 338.028562 249.097014 
L 338.496634 239.100489 
L 338.964706 234.209316 
L 339.900849 214.148029 
L 340.368921 211.75891 
L 340.836993 190.837563 
L 341.305064 184.96053 
L 342.241208 200.952969 
L 342.70928 192.814765 
L 343.177351 190.479412 
L 343.645423 172.371974 
L 344.113495 206.477281 
L 344.581567 264.089066 
L 345.049638 240.301321 
L 345.51771 200.785344 
L 345.985782 177.149983 
L 346.453853 162.205738 
L 346.921925 164.138794 
L 347.389997 162.282278 
L 347.858069 164.313352 
L 348.32614 214.973172 
L 348.794212 196.902007 
L 349.262284 173.587654 
L 349.730355 191.724192 
L 350.198427 177.353536 
L 350.666499 186.051417 
L 351.134571 220.140788 
L 351.602642 227.397971 
L 352.070714 218.481582 
L 352.538786 189.81652 
L 353.006858 168.498669 
L 353.474929 161.041684 
L 353.943001 190.986799 
L 354.411073 192.143367 
L 354.879144 159.489907 
L 355.347216 160.502583 
L 356.28336 288.133254 
L 356.751431 269.196282 
L 357.219503 187.956129 
L 357.687575 185.964869 
L 358.155646 160.549167 
L 358.623718 160.356073 
L 359.09179 163.485388 
L 359.559862 152.082739 
L 360.027933 144.07219 
L 360.496005 143.658511 
L 360.964077 154.200777 
L 361.432148 196.226663 
L 361.90022 167.767973 
L 362.368292 158.519904 
L 362.836364 147.002123 
L 363.304435 168.570924 
L 363.772507 159.095302 
L 364.240579 155.589914 
L 365.176722 144.183055 
L 366.112866 159.112259 
L 366.580937 158.420249 
L 367.049009 164.448981 
L 367.517081 192.504379 
L 367.985153 197.96547 
L 368.453224 176.54843 
L 368.921296 175.070982 
L 369.389368 161.569976 
L 369.857439 164.469376 
L 370.793583 158.68727 
L 371.261655 160.207111 
L 371.729726 151.969546 
L 372.197798 147.222903 
L 372.66587 146.706088 
L 373.133941 156.593474 
L 373.602013 151.472701 
L 374.070085 147.606779 
L 374.538157 158.301743 
L 375.006228 158.010926 
L 375.4743 163.463638 
L 375.942372 152.422582 
L 376.410444 145.012486 
L 376.878515 162.949691 
L 377.346587 166.885767 
L 377.814659 164.736865 
L 378.28273 166.552366 
L 378.750802 167.247773 
L 379.218874 159.987249 
L 379.686946 157.402977 
L 380.155017 157.614368 
L 380.623089 151.838729 
L 381.091161 142.966564 
L 381.559232 139.557143 
L 382.027304 139.686141 
L 382.963448 167.272829 
L 383.431519 162.154544 
L 383.899591 159.888108 
L 384.367663 153.350403 
L 384.835735 154.772946 
L 385.303806 157.077062 
L 386.23995 148.181004 
L 386.708021 157.748075 
L 387.176093 150.694874 
L 387.644165 149.670123 
L 388.112237 141.470902 
L 388.580308 141.26147 
L 389.04838 146.481611 
L 389.516452 158.647186 
L 389.984523 160.399902 
L 390.452595 159.917929 
L 391.388739 167.302908 
L 391.85681 165.220985 
L 392.324882 151.03823 
L 392.792954 149.17748 
L 393.261025 152.931933 
L 393.729097 141.500082 
L 394.197169 138.255883 
L 394.665241 140.705196 
L 395.133312 138.936835 
L 395.601384 147.529569 
L 396.069456 133.685286 
L 396.537528 133.337629 
L 397.005599 133.980395 
L 397.473671 133.867002 
L 397.941743 133.884397 
L 398.409814 133.155913 
L 398.877886 139.645578 
L 399.345958 135.681382 
L 399.81403 140.057842 
L 400.282101 152.279298 
L 400.750173 161.282542 
L 401.218245 146.508001 
L 401.686316 145.159866 
L 402.154388 145.159866 
L 403.090532 138.201611 
L 403.558603 147.499669 
L 404.026675 163.932555 
L 404.494747 166.365812 
L 404.962818 166.804911 
L 405.43089 165.819505 
L 405.898962 162.349777 
L 406.367034 155.443504 
L 406.835105 155.710075 
L 407.303177 151.236583 
L 407.771249 150.131391 
L 408.239321 150.54366 
L 408.707392 152.149438 
L 409.175464 155.181199 
L 409.643536 148.886641 
L 410.111607 148.946218 
L 410.579679 154.412095 
L 411.047751 152.688997 
L 411.515823 146.763181 
L 412.451966 144.62901 
L 412.920038 145.291494 
L 413.388109 141.477653 
L 413.856181 138.702035 
L 414.324253 144.752732 
L 414.792325 144.347533 
L 415.260396 135.107393 
L 415.728468 136.842262 
L 416.19654 140.228438 
L 416.664612 147.180724 
L 417.600755 135.490372 
L 418.068827 137.063399 
L 418.536898 140.248922 
L 419.00497 138.238325 
L 419.473042 134.079639 
L 420.409185 157.834098 
L 420.877257 160.147549 
L 421.345329 148.266246 
L 421.8134 170.997732 
L 422.281472 167.512758 
L 422.749544 165.9635 
L 423.217616 157.9754 
L 423.685687 173.530758 
L 424.153759 148.236705 
L 424.621831 140.305381 
L 425.089902 141.359494 
L 425.557974 137.331631 
L 426.026046 137.632438 
L 426.494118 138.782494 
L 427.430261 137.484589 
L 427.898333 142.082379 
L 428.366405 144.18765 
L 428.834476 139.513833 
L 429.302548 139.325197 
L 430.238691 142.202998 
L 430.706763 133.197095 
L 432.110978 133.155913 
L 432.57905 139.030088 
L 433.047122 139.058143 
L 433.515193 139.279281 
L 433.983265 135.739286 
L 434.451337 134.491903 
L 434.919409 133.888558 
L 435.38748 144.200924 
L 435.855552 146.358836 
L 436.323624 153.436838 
L 436.791696 150.742452 
L 438.195911 136.643879 
L 438.663982 139.940687 
L 439.132054 139.940687 
L 439.600126 137.465375 
L 440.068198 135.789874 
L 440.536269 137.180346 
L 441.004341 139.880055 
L 441.472413 146.656382 
L 441.940484 160.519672 
L 442.408556 145.89251 
L 442.876628 144.963794 
L 443.3447 140.248922 
L 443.812771 145.775356 
L 444.280843 160.657464 
L 445.216986 145.233624 
L 445.685058 162.00138 
L 446.15313 163.718308 
L 446.621202 192.047866 
L 447.089273 165.946194 
L 447.557345 165.035846 
L 448.025417 156.251394 
L 448.493489 152.614674 
L 448.96156 160.068884 
L 449.429632 153.201326 
L 449.897704 152.854771 
L 450.365775 159.551251 
L 450.833847 159.403871 
L 451.301919 166.829567 
L 451.769991 162.370773 
L 452.238062 155.05272 
L 452.706134 152.223406 
L 453.174206 152.223406 
L 453.642277 153.350403 
L 454.110349 153.960901 
L 454.578421 153.350403 
L 455.046493 154.335309 
L 455.514564 153.814713 
L 455.982636 154.677081 
L 456.450708 167.350507 
L 456.918779 166.513886 
L 457.386851 164.818416 
L 457.854923 171.428911 
L 458.322995 172.812435 
L 458.791066 175.166162 
L 459.259138 180.229328 
L 459.72721 178.076636 
L 460.195282 173.366437 
L 460.663353 184.097822 
L 461.131425 192.093841 
L 461.599497 215.428642 
L 462.067568 198.473519 
L 462.53564 192.73668 
L 463.003712 197.65099 
L 463.471784 195.586128 
L 464.407927 164.0405 
L 464.875999 169.293705 
L 465.34407 170.513875 
L 465.812142 168.402851 
L 466.280214 191.672937 
L 466.748286 273.379121 
L 467.216357 245.20304 
L 467.684429 230.653556 
L 468.152501 208.815089 
L 468.620573 211.89055 
L 469.088644 204.781549 
L 469.556716 194.813871 
L 470.492859 224.419473 
L 470.960931 218.126189 
L 471.429003 206.061944 
L 471.897075 227.46161 
L 472.365146 230.372191 
L 472.833218 241.983376 
L 473.769361 229.591019 
L 474.237433 205.391057 
L 474.705505 194.869336 
L 475.173577 194.884933 
L 475.641648 205.054372 
L 476.10972 196.866382 
L 476.577792 196.035839 
L 477.045863 196.125865 
L 477.513935 193.405208 
L 477.982007 192.994361 
L 478.450079 283.988896 
L 478.91815 285.54439 
L 479.386222 242.559547 
L 480.322366 302.637345 
L 480.790437 305.188441 
L 481.258509 298.212136 
L 481.726581 298.418821 
L 482.194652 309.606502 
L 482.662724 285.169256 
L 483.130796 283.785826 
L 483.598868 277.20677 
L 484.066939 248.5324 
L 484.535011 271.923202 
L 485.003083 277.268853 
L 485.471154 253.74097 
L 485.939226 253.870893 
L 486.407298 239.205711 
L 487.343441 292.362169 
L 487.811513 261.663916 
L 488.279585 248.570417 
L 488.747656 243.885837 
L 489.215728 235.958846 
L 489.6838 241.41196 
L 490.151872 242.311626 
L 490.619943 237.101459 
L 491.088015 240.202988 
L 492.024159 224.70209 
L 492.49223 246.396353 
L 492.960302 248.673168 
L 493.428374 258.550714 
L 493.896445 302.472656 
L 494.364517 283.468198 
L 494.832589 289.853134 
L 495.300661 274.093713 
L 495.768732 315.893653 
L 496.236804 283.393885 
L 496.704876 202.035678 
L 497.172947 209.29099 
L 497.641019 192.018618 
L 498.109091 194.351194 
L 498.109091 194.351194 
" clip-path="url(#p076c7f3d70)" style="fill: none; stroke: #ff7f0e; stroke-width: 1.5; stroke-linecap: round"/>
   </g>
   <g id="patch_3">
    <path d="M 72 384.48 
L 72 51.84 
" style="fill: none; stroke: #ffffff; stroke-width: 0.8; stroke-linejoin: miter; stroke-linecap: square"/>
   </g>
   <g id="patch_4">
    <path d="M 518.4 384.48 
L 518.4 51.84 
" style="fill: none; stroke: #ffffff; stroke-width: 0.8; stroke-linejoin: miter; stroke-linecap: square"/>
   </g>
   <g id="patch_5">
    <path d="M 72 384.48 
L 518.4 384.48 
" style="fill: none; stroke: #ffffff; stroke-width: 0.8; stroke-linejoin: miter; stroke-linecap: square"/>
   </g>
   <g id="patch_6">
    <path d="M 72 51.84 
L 518.4 51.84 
" style="fill: none; stroke: #ffffff; stroke-width: 0.8; stroke-linejoin: miter; stroke-linecap: square"/>
   </g>
   <g id="text_14">
    <!-- Minimum Temperature Prediction 7 Days Ahead -->
    <g style="fill: #262626" transform="translate(168.256875 45.84) scale(0.12 -0.12)">
     <defs>
      <path id="ArialMT-4d" d="M 475 0 
L 475 4581 
L 1388 4581 
L 2472 1338 
Q 2622 884 2691 659 
Q 2769 909 2934 1394 
L 4031 4581 
L 4847 4581 
L 4847 0 
L 4263 0 
L 4263 3834 
L 2931 0 
L 2384 0 
L 1059 3900 
L 1059 0 
L 475 0 
z
" transform="scale(0.015625)"/>
      <path id="ArialMT-69" d="M 425 3934 
L 425 4581 
L 988 4581 
L 988 3934 
L 425 3934 
z
M 425 0 
L 425 3319 
L 988 3319 
L 988 0 
L 425 0 
z
" transform="scale(0.015625)"/>
      <path id="ArialMT-6e" d="M 422 0 
L 422 3319 
L 928 3319 
L 928 2847 
Q 1294 3394 1984 3394 
Q 2284 3394 2536 3286 
Q 2788 3178 2913 3003 
Q 3038 2828 3088 2588 
Q 3119 2431 3119 2041 
L 3119 0 
L 2556 0 
L 2556 2019 
Q 2556 2363 2490 2533 
Q 2425 2703 2258 2804 
Q 2091 2906 1866 2906 
Q 1506 2906 1245 2678 
Q 984 2450 984 1813 
L 984 0 
L 422 0 
z
" transform="scale(0.015625)"/>
      <path id="ArialMT-6d" d="M 422 0 
L 422 3319 
L 925 3319 
L 925 2853 
Q 1081 3097 1340 3245 
Q 1600 3394 1931 3394 
Q 2300 3394 2536 3241 
Q 2772 3088 2869 2813 
Q 3263 3394 3894 3394 
Q 4388 3394 4653 3120 
Q 4919 2847 4919 2278 
L 4919 0 
L 4359 0 
L 4359 2091 
Q 4359 2428 4304 2576 
Q 4250 2725 4106 2815 
Q 3963 2906 3769 2906 
Q 3419 2906 3187 2673 
Q 2956 2441 2956 1928 
L 2956 0 
L 2394 0 
L 2394 2156 
Q 2394 2531 2256 2718 
Q 2119 2906 1806 2906 
Q 1569 2906 1367 2781 
Q 1166 2656 1075 2415 
Q 984 2175 984 1722 
L 984 0 
L 422 0 
z
" transform="scale(0.015625)"/>
      <path id="ArialMT-75" d="M 2597 0 
L 2597 488 
Q 2209 -75 1544 -75 
Q 1250 -75 995 37 
Q 741 150 617 320 
Q 494 491 444 738 
Q 409 903 409 1263 
L 409 3319 
L 972 3319 
L 972 1478 
Q 972 1038 1006 884 
Q 1059 663 1231 536 
Q 1403 409 1656 409 
Q 1909 409 2131 539 
Q 2353 669 2445 892 
Q 2538 1116 2538 1541 
L 2538 3319 
L 3100 3319 
L 3100 0 
L 2597 0 
z
" transform="scale(0.015625)"/>
      <path id="ArialMT-20" transform="scale(0.015625)"/>
      <path id="ArialMT-54" d="M 1659 0 
L 1659 4041 
L 150 4041 
L 150 4581 
L 3781 4581 
L 3781 4041 
L 2266 4041 
L 2266 0 
L 1659 0 
z
" transform="scale(0.015625)"/>
      <path id="ArialMT-65" d="M 2694 1069 
L 3275 997 
Q 3138 488 2766 206 
Q 2394 -75 1816 -75 
Q 1088 -75 661 373 
Q 234 822 234 1631 
Q 234 2469 665 2931 
Q 1097 3394 1784 3394 
Q 2450 3394 2872 2941 
Q 3294 2488 3294 1666 
Q 3294 1616 3291 1516 
L 816 1516 
Q 847 969 1125 678 
Q 1403 388 1819 388 
Q 2128 388 2347 550 
Q 2566 713 2694 1069 
z
M 847 1978 
L 2700 1978 
Q 2663 2397 2488 2606 
Q 2219 2931 1791 2931 
Q 1403 2931 1139 2672 
Q 875 2413 847 1978 
z
" transform="scale(0.015625)"/>
      <path id="ArialMT-70" d="M 422 -1272 
L 422 3319 
L 934 3319 
L 934 2888 
Q 1116 3141 1344 3267 
Q 1572 3394 1897 3394 
Q 2322 3394 2647 3175 
Q 2972 2956 3137 2557 
Q 3303 2159 3303 1684 
Q 3303 1175 3120 767 
Q 2938 359 2589 142 
Q 2241 -75 1856 -75 
Q 1575 -75 1351 44 
Q 1128 163 984 344 
L 984 -1272 
L 422 -1272 
z
M 931 1641 
Q 931 1000 1190 694 
Q 1450 388 1819 388 
Q 2194 388 2461 705 
Q 2728 1022 2728 1688 
Q 2728 2322 2467 2637 
Q 2206 2953 1844 2953 
Q 1484 2953 1207 2617 
Q 931 2281 931 1641 
z
" transform="scale(0.015625)"/>
      <path id="ArialMT-72" d="M 416 0 
L 416 3319 
L 922 3319 
L 922 2816 
Q 1116 3169 1280 3281 
Q 1444 3394 1641 3394 
Q 1925 3394 2219 3213 
L 2025 2691 
Q 1819 2813 1613 2813 
Q 1428 2813 1281 2702 
Q 1134 2591 1072 2394 
Q 978 2094 978 1738 
L 978 0 
L 416 0 
z
" transform="scale(0.015625)"/>
      <path id="ArialMT-74" d="M 1650 503 
L 1731 6 
Q 1494 -44 1306 -44 
Q 1000 -44 831 53 
Q 663 150 594 308 
Q 525 466 525 972 
L 525 2881 
L 113 2881 
L 113 3319 
L 525 3319 
L 525 4141 
L 1084 4478 
L 1084 3319 
L 1650 3319 
L 1650 2881 
L 1084 2881 
L 1084 941 
Q 1084 700 1114 631 
Q 1144 563 1211 522 
Q 1278 481 1403 481 
Q 1497 481 1650 503 
z
" transform="scale(0.015625)"/>
      <path id="ArialMT-50" d="M 494 0 
L 494 4581 
L 2222 4581 
Q 2678 4581 2919 4538 
Q 3256 4481 3484 4323 
Q 3713 4166 3852 3881 
Q 3991 3597 3991 3256 
Q 3991 2672 3619 2267 
Q 3247 1863 2275 1863 
L 1100 1863 
L 1100 0 
L 494 0 
z
M 1100 2403 
L 2284 2403 
Q 2872 2403 3119 2622 
Q 3366 2841 3366 3238 
Q 3366 3525 3220 3729 
Q 3075 3934 2838 4000 
Q 2684 4041 2272 4041 
L 1100 4041 
L 1100 2403 
z
" transform="scale(0.015625)"/>
      <path id="ArialMT-64" d="M 2575 0 
L 2575 419 
Q 2259 -75 1647 -75 
Q 1250 -75 917 144 
Q 584 363 401 755 
Q 219 1147 219 1656 
Q 219 2153 384 2558 
Q 550 2963 881 3178 
Q 1213 3394 1622 3394 
Q 1922 3394 2156 3267 
Q 2391 3141 2538 2938 
L 2538 4581 
L 3097 4581 
L 3097 0 
L 2575 0 
z
M 797 1656 
Q 797 1019 1065 703 
Q 1334 388 1700 388 
Q 2069 388 2326 689 
Q 2584 991 2584 1609 
Q 2584 2291 2321 2609 
Q 2059 2928 1675 2928 
Q 1300 2928 1048 2622 
Q 797 2316 797 1656 
z
" transform="scale(0.015625)"/>
      <path id="ArialMT-63" d="M 2588 1216 
L 3141 1144 
Q 3050 572 2676 248 
Q 2303 -75 1759 -75 
Q 1078 -75 664 370 
Q 250 816 250 1647 
Q 250 2184 428 2587 
Q 606 2991 970 3192 
Q 1334 3394 1763 3394 
Q 2303 3394 2647 3120 
Q 2991 2847 3088 2344 
L 2541 2259 
Q 2463 2594 2264 2762 
Q 2066 2931 1784 2931 
Q 1359 2931 1093 2626 
Q 828 2322 828 1663 
Q 828 994 1084 691 
Q 1341 388 1753 388 
Q 2084 388 2306 591 
Q 2528 794 2588 1216 
z
" transform="scale(0.015625)"/>
      <path id="ArialMT-6f" d="M 213 1659 
Q 213 2581 725 3025 
Q 1153 3394 1769 3394 
Q 2453 3394 2887 2945 
Q 3322 2497 3322 1706 
Q 3322 1066 3130 698 
Q 2938 331 2570 128 
Q 2203 -75 1769 -75 
Q 1072 -75 642 372 
Q 213 819 213 1659 
z
M 791 1659 
Q 791 1022 1069 705 
Q 1347 388 1769 388 
Q 2188 388 2466 706 
Q 2744 1025 2744 1678 
Q 2744 2294 2464 2611 
Q 2184 2928 1769 2928 
Q 1347 2928 1069 2612 
Q 791 2297 791 1659 
z
" transform="scale(0.015625)"/>
      <path id="ArialMT-37" d="M 303 3981 
L 303 4522 
L 3269 4522 
L 3269 4084 
Q 2831 3619 2401 2847 
Q 1972 2075 1738 1259 
Q 1569 684 1522 0 
L 944 0 
Q 953 541 1156 1306 
Q 1359 2072 1739 2783 
Q 2119 3494 2547 3981 
L 303 3981 
z
" transform="scale(0.015625)"/>
      <path id="ArialMT-41" d="M -9 0 
L 1750 4581 
L 2403 4581 
L 4278 0 
L 3588 0 
L 3053 1388 
L 1138 1388 
L 634 0 
L -9 0 
z
M 1313 1881 
L 2866 1881 
L 2388 3150 
Q 2169 3728 2063 4100 
Q 1975 3659 1816 3225 
L 1313 1881 
z
" transform="scale(0.015625)"/>
      <path id="ArialMT-68" d="M 422 0 
L 422 4581 
L 984 4581 
L 984 2938 
Q 1378 3394 1978 3394 
Q 2347 3394 2619 3248 
Q 2891 3103 3008 2847 
Q 3125 2591 3125 2103 
L 3125 0 
L 2563 0 
L 2563 2103 
Q 2563 2525 2380 2717 
Q 2197 2909 1863 2909 
Q 1613 2909 1392 2779 
Q 1172 2650 1078 2428 
Q 984 2206 984 1816 
L 984 0 
L 422 0 
z
" transform="scale(0.015625)"/>
     </defs>
     <use xlink:href="#ArialMT-4d"/>
     <use xlink:href="#ArialMT-69" x="83.300781"/>
     <use xlink:href="#ArialMT-6e" x="105.517578"/>
     <use xlink:href="#ArialMT-69" x="161.132812"/>
     <use xlink:href="#ArialMT-6d" x="183.349609"/>
     <use xlink:href="#ArialMT-75" x="266.650391"/>
     <use xlink:href="#ArialMT-6d" x="322.265625"/>
     <use xlink:href="#ArialMT-20" x="405.566406"/>
     <use xlink:href="#ArialMT-54" x="431.599609"/>
     <use xlink:href="#ArialMT-65" x="481.558594"/>
     <use xlink:href="#ArialMT-6d" x="537.173828"/>
     <use xlink:href="#ArialMT-70" x="620.474609"/>
     <use xlink:href="#ArialMT-65" x="676.089844"/>
     <use xlink:href="#ArialMT-72" x="731.705078"/>
     <use xlink:href="#ArialMT-61" x="765.005859"/>
     <use xlink:href="#ArialMT-74" x="820.621094"/>
     <use xlink:href="#ArialMT-75" x="848.404297"/>
     <use xlink:href="#ArialMT-72" x="904.019531"/>
     <use xlink:href="#ArialMT-65" x="937.320312"/>
     <use xlink:href="#ArialMT-20" x="992.935547"/>
     <use xlink:href="#ArialMT-50" x="1020.71875"/>
     <use xlink:href="#ArialMT-72" x="1087.417969"/>
     <use xlink:href="#ArialMT-65" x="1120.71875"/>
     <use xlink:href="#ArialMT-64" x="1176.333984"/>
     <use xlink:href="#ArialMT-69" x="1231.949219"/>
     <use xlink:href="#ArialMT-63" x="1254.166016"/>
     <use xlink:href="#ArialMT-74" x="1304.166016"/>
     <use xlink:href="#ArialMT-69" x="1331.949219"/>
     <use xlink:href="#ArialMT-6f" x="1354.166016"/>
     <use xlink:href="#ArialMT-6e" x="1409.78125"/>
     <use xlink:href="#ArialMT-20" x="1465.396484"/>
     <use xlink:href="#ArialMT-37" x="1493.179688"/>
     <use xlink:href="#ArialMT-20" x="1548.794922"/>
     <use xlink:href="#ArialMT-44" x="1576.578125"/>
     <use xlink:href="#ArialMT-61" x="1648.794922"/>
     <use xlink:href="#ArialMT-79" x="1704.410156"/>
     <use xlink:href="#ArialMT-73" x="1754.410156"/>
     <use xlink:href="#ArialMT-20" x="1804.410156"/>
     <use xlink:href="#ArialMT-41" x="1826.693359"/>
     <use xlink:href="#ArialMT-68" x="1893.392578"/>
     <use xlink:href="#ArialMT-65" x="1949.007812"/>
     <use xlink:href="#ArialMT-61" x="2004.623047"/>
     <use xlink:href="#ArialMT-64" x="2060.238281"/>
    </g>
   </g>
   <g id="legend_1">
    <g id="patch_7">
     <path d="M 437.15625 88.130625 
L 511.4 88.130625 
Q 513.4 88.130625 513.4 86.130625 
L 513.4 58.84 
Q 513.4 56.84 511.4 56.84 
L 437.15625 56.84 
Q 435.15625 56.84 435.15625 58.84 
L 435.15625 86.130625 
Q 435.15625 88.130625 437.15625 88.130625 
z
" style="fill: #eaeaf2; opacity: 0.8; stroke: #cccccc; stroke-linejoin: miter"/>
    </g>
    <g id="line2d_14">
     <path d="M 439.15625 64.497812 
L 449.15625 64.497812 
L 459.15625 64.497812 
" style="fill: none; stroke: #1f77b4; stroke-width: 1.5; stroke-linecap: round"/>
    </g>
    <g id="text_15">
     <!-- Real -->
     <g style="fill: #262626" transform="translate(467.15625 67.997812) scale(0.1 -0.1)">
      <defs>
       <path id="ArialMT-52" d="M 503 0 
L 503 4581 
L 2534 4581 
Q 3147 4581 3465 4457 
Q 3784 4334 3975 4021 
Q 4166 3709 4166 3331 
Q 4166 2844 3850 2509 
Q 3534 2175 2875 2084 
Q 3116 1969 3241 1856 
Q 3506 1613 3744 1247 
L 4541 0 
L 3778 0 
L 3172 953 
Q 2906 1366 2734 1584 
Q 2563 1803 2427 1890 
Q 2291 1978 2150 2013 
Q 2047 2034 1813 2034 
L 1109 2034 
L 1109 0 
L 503 0 
z
M 1109 2559 
L 2413 2559 
Q 2828 2559 3062 2645 
Q 3297 2731 3419 2920 
Q 3541 3109 3541 3331 
Q 3541 3656 3305 3865 
Q 3069 4075 2559 4075 
L 1109 4075 
L 1109 2559 
z
" transform="scale(0.015625)"/>
       <path id="ArialMT-6c" d="M 409 0 
L 409 4581 
L 972 4581 
L 972 0 
L 409 0 
z
" transform="scale(0.015625)"/>
      </defs>
      <use xlink:href="#ArialMT-52"/>
      <use xlink:href="#ArialMT-65" x="72.216797"/>
      <use xlink:href="#ArialMT-61" x="127.832031"/>
      <use xlink:href="#ArialMT-6c" x="183.447266"/>
     </g>
    </g>
    <g id="line2d_15">
     <path d="M 439.15625 78.643125 
L 449.15625 78.643125 
L 459.15625 78.643125 
" style="fill: none; stroke: #ff7f0e; stroke-width: 1.5; stroke-linecap: round"/>
    </g>
    <g id="text_16">
     <!-- Predicted -->
     <g style="fill: #262626" transform="translate(467.15625 82.143125) scale(0.1 -0.1)">
      <use xlink:href="#ArialMT-50"/>
      <use xlink:href="#ArialMT-72" x="66.699219"/>
      <use xlink:href="#ArialMT-65" x="100"/>
      <use xlink:href="#ArialMT-64" x="155.615234"/>
      <use xlink:href="#ArialMT-69" x="211.230469"/>
      <use xlink:href="#ArialMT-63" x="233.447266"/>
      <use xlink:href="#ArialMT-74" x="283.447266"/>
      <use xlink:href="#ArialMT-65" x="311.230469"/>
      <use xlink:href="#ArialMT-64" x="366.845703"/>
     </g>
    </g>
   </g>
  </g>
 </g>
 <defs>
  <clipPath id="p076c7f3d70">
   <rect x="72" y="51.84" width="446.4" height="332.64"/>
  </clipPath>
 </defs>
</svg>
