<?xml version="1.0" encoding="utf-8" standalone="no"?>
<!DOCTYPE svg PUBLIC "-//W3C//DTD SVG 1.1//EN"
  "http://www.w3.org/Graphics/SVG/1.1/DTD/svg11.dtd">
<svg xmlns:xlink="http://www.w3.org/1999/xlink" width="576pt" height="432pt" viewBox="0 0 576 432" xmlns="http://www.w3.org/2000/svg" version="1.1">
 <metadata>
  <rdf:RDF xmlns:dc="http://purl.org/dc/elements/1.1/" xmlns:cc="http://creativecommons.org/ns#" xmlns:rdf="http://www.w3.org/1999/02/22-rdf-syntax-ns#">
   <cc:Work>
    <dc:type rdf:resource="http://purl.org/dc/dcmitype/StillImage"/>
    <dc:date>2023-11-17T05:07:42.215373</dc:date>
    <dc:format>image/svg+xml</dc:format>
    <dc:creator>
     <cc:Agent>
      <dc:title>Matplotlib v3.8.0, https://matplotlib.org/</dc:title>
     </cc:Agent>
    </dc:creator>
   </cc:Work>
  </rdf:RDF>
 </metadata>
 <defs>
  <style type="text/css">*{stroke-linejoin: round; stroke-linecap: butt}</style>
 </defs>
 <g id="figure_1">
  <g id="patch_1">
   <path d="M 0 432 
L 576 432 
L 576 0 
L 0 0 
z
" style="fill: #ffffff"/>
  </g>
  <g id="axes_1">
   <g id="patch_2">
    <path d="M 72 384.48 
L 518.4 384.48 
L 518.4 51.84 
L 72 51.84 
z
" style="fill: #eaeaf2"/>
   </g>
   <g id="matplotlib.axis_1">
    <g id="xtick_1">
     <g id="line2d_1">
      <path d="M 92.290909 384.48 
L 92.290909 51.84 
" clip-path="url(#p2576ef458a)" style="fill: none; stroke: #ffffff; stroke-width: 0.8; stroke-linecap: round"/>
     </g>
     <g id="text_1">
      <!-- 0 -->
      <g style="fill: #262626" transform="translate(89.51044 398.637812) scale(0.1 -0.1)">
       <defs>
        <path id="ArialMT-30" d="M 266 2259 
Q 266 3072 433 3567 
Q 600 4063 929 4331 
Q 1259 4600 1759 4600 
Q 2128 4600 2406 4451 
Q 2684 4303 2865 4023 
Q 3047 3744 3150 3342 
Q 3253 2941 3253 2259 
Q 3253 1453 3087 958 
Q 2922 463 2592 192 
Q 2263 -78 1759 -78 
Q 1097 -78 719 397 
Q 266 969 266 2259 
z
M 844 2259 
Q 844 1131 1108 757 
Q 1372 384 1759 384 
Q 2147 384 2411 759 
Q 2675 1134 2675 2259 
Q 2675 3391 2411 3762 
Q 2147 4134 1753 4134 
Q 1366 4134 1134 3806 
Q 844 3388 844 2259 
z
" transform="scale(0.015625)"/>
       </defs>
       <use xlink:href="#ArialMT-30"/>
      </g>
     </g>
    </g>
    <g id="xtick_2">
     <g id="line2d_2">
      <path d="M 187.553393 384.48 
L 187.553393 51.84 
" clip-path="url(#p2576ef458a)" style="fill: none; stroke: #ffffff; stroke-width: 0.8; stroke-linecap: round"/>
     </g>
     <g id="text_2">
      <!-- 200 -->
      <g style="fill: #262626" transform="translate(179.211987 398.637812) scale(0.1 -0.1)">
       <defs>
        <path id="ArialMT-32" d="M 3222 541 
L 3222 0 
L 194 0 
Q 188 203 259 391 
Q 375 700 629 1000 
Q 884 1300 1366 1694 
Q 2113 2306 2375 2664 
Q 2638 3022 2638 3341 
Q 2638 3675 2398 3904 
Q 2159 4134 1775 4134 
Q 1369 4134 1125 3890 
Q 881 3647 878 3216 
L 300 3275 
Q 359 3922 746 4261 
Q 1134 4600 1788 4600 
Q 2447 4600 2831 4234 
Q 3216 3869 3216 3328 
Q 3216 3053 3103 2787 
Q 2991 2522 2730 2228 
Q 2469 1934 1863 1422 
Q 1356 997 1212 845 
Q 1069 694 975 541 
L 3222 541 
z
" transform="scale(0.015625)"/>
       </defs>
       <use xlink:href="#ArialMT-32"/>
       <use xlink:href="#ArialMT-30" x="55.615234"/>
       <use xlink:href="#ArialMT-30" x="111.230469"/>
      </g>
     </g>
    </g>
    <g id="xtick_3">
     <g id="line2d_3">
      <path d="M 282.815877 384.48 
L 282.815877 51.84 
" clip-path="url(#p2576ef458a)" style="fill: none; stroke: #ffffff; stroke-width: 0.8; stroke-linecap: round"/>
     </g>
     <g id="text_3">
      <!-- 400 -->
      <g style="fill: #262626" transform="translate(274.474471 398.637812) scale(0.1 -0.1)">
       <defs>
        <path id="ArialMT-34" d="M 2069 0 
L 2069 1097 
L 81 1097 
L 81 1613 
L 2172 4581 
L 2631 4581 
L 2631 1613 
L 3250 1613 
L 3250 1097 
L 2631 1097 
L 2631 0 
L 2069 0 
z
M 2069 1613 
L 2069 3678 
L 634 1613 
L 2069 1613 
z
" transform="scale(0.015625)"/>
       </defs>
       <use xlink:href="#ArialMT-34"/>
       <use xlink:href="#ArialMT-30" x="55.615234"/>
       <use xlink:href="#ArialMT-30" x="111.230469"/>
      </g>
     </g>
    </g>
    <g id="xtick_4">
     <g id="line2d_4">
      <path d="M 378.078361 384.48 
L 378.078361 51.84 
" clip-path="url(#p2576ef458a)" style="fill: none; stroke: #ffffff; stroke-width: 0.8; stroke-linecap: round"/>
     </g>
     <g id="text_4">
      <!-- 600 -->
      <g style="fill: #262626" transform="translate(369.736955 398.637812) scale(0.1 -0.1)">
       <defs>
        <path id="ArialMT-36" d="M 3184 3459 
L 2625 3416 
Q 2550 3747 2413 3897 
Q 2184 4138 1850 4138 
Q 1581 4138 1378 3988 
Q 1113 3794 959 3422 
Q 806 3050 800 2363 
Q 1003 2672 1297 2822 
Q 1591 2972 1913 2972 
Q 2475 2972 2870 2558 
Q 3266 2144 3266 1488 
Q 3266 1056 3080 686 
Q 2894 316 2569 119 
Q 2244 -78 1831 -78 
Q 1128 -78 684 439 
Q 241 956 241 2144 
Q 241 3472 731 4075 
Q 1159 4600 1884 4600 
Q 2425 4600 2770 4297 
Q 3116 3994 3184 3459 
z
M 888 1484 
Q 888 1194 1011 928 
Q 1134 663 1356 523 
Q 1578 384 1822 384 
Q 2178 384 2434 671 
Q 2691 959 2691 1453 
Q 2691 1928 2437 2201 
Q 2184 2475 1800 2475 
Q 1419 2475 1153 2201 
Q 888 1928 888 1484 
z
" transform="scale(0.015625)"/>
       </defs>
       <use xlink:href="#ArialMT-36"/>
       <use xlink:href="#ArialMT-30" x="55.615234"/>
       <use xlink:href="#ArialMT-30" x="111.230469"/>
      </g>
     </g>
    </g>
    <g id="xtick_5">
     <g id="line2d_5">
      <path d="M 473.340845 384.48 
L 473.340845 51.84 
" clip-path="url(#p2576ef458a)" style="fill: none; stroke: #ffffff; stroke-width: 0.8; stroke-linecap: round"/>
     </g>
     <g id="text_5">
      <!-- 800 -->
      <g style="fill: #262626" transform="translate(464.999439 398.637812) scale(0.1 -0.1)">
       <defs>
        <path id="ArialMT-38" d="M 1131 2484 
Q 781 2613 612 2850 
Q 444 3088 444 3419 
Q 444 3919 803 4259 
Q 1163 4600 1759 4600 
Q 2359 4600 2725 4251 
Q 3091 3903 3091 3403 
Q 3091 3084 2923 2848 
Q 2756 2613 2416 2484 
Q 2838 2347 3058 2040 
Q 3278 1734 3278 1309 
Q 3278 722 2862 322 
Q 2447 -78 1769 -78 
Q 1091 -78 675 323 
Q 259 725 259 1325 
Q 259 1772 486 2073 
Q 713 2375 1131 2484 
z
M 1019 3438 
Q 1019 3113 1228 2906 
Q 1438 2700 1772 2700 
Q 2097 2700 2305 2904 
Q 2513 3109 2513 3406 
Q 2513 3716 2298 3927 
Q 2084 4138 1766 4138 
Q 1444 4138 1231 3931 
Q 1019 3725 1019 3438 
z
M 838 1322 
Q 838 1081 952 856 
Q 1066 631 1291 507 
Q 1516 384 1775 384 
Q 2178 384 2440 643 
Q 2703 903 2703 1303 
Q 2703 1709 2433 1975 
Q 2163 2241 1756 2241 
Q 1359 2241 1098 1978 
Q 838 1716 838 1322 
z
" transform="scale(0.015625)"/>
       </defs>
       <use xlink:href="#ArialMT-38"/>
       <use xlink:href="#ArialMT-30" x="55.615234"/>
       <use xlink:href="#ArialMT-30" x="111.230469"/>
      </g>
     </g>
    </g>
    <g id="text_6">
     <!-- Days -->
     <g style="fill: #262626" transform="translate(283.808594 411.783125) scale(0.1 -0.1)">
      <defs>
       <path id="ArialMT-44" d="M 494 0 
L 494 4581 
L 2072 4581 
Q 2606 4581 2888 4516 
Q 3281 4425 3559 4188 
Q 3922 3881 4101 3404 
Q 4281 2928 4281 2316 
Q 4281 1794 4159 1391 
Q 4038 988 3847 723 
Q 3656 459 3429 307 
Q 3203 156 2883 78 
Q 2563 0 2147 0 
L 494 0 
z
M 1100 541 
L 2078 541 
Q 2531 541 2789 625 
Q 3047 709 3200 863 
Q 3416 1078 3536 1442 
Q 3656 1806 3656 2325 
Q 3656 3044 3420 3430 
Q 3184 3816 2847 3947 
Q 2603 4041 2063 4041 
L 1100 4041 
L 1100 541 
z
" transform="scale(0.015625)"/>
       <path id="ArialMT-61" d="M 2588 409 
Q 2275 144 1986 34 
Q 1697 -75 1366 -75 
Q 819 -75 525 192 
Q 231 459 231 875 
Q 231 1119 342 1320 
Q 453 1522 633 1644 
Q 813 1766 1038 1828 
Q 1203 1872 1538 1913 
Q 2219 1994 2541 2106 
Q 2544 2222 2544 2253 
Q 2544 2597 2384 2738 
Q 2169 2928 1744 2928 
Q 1347 2928 1158 2789 
Q 969 2650 878 2297 
L 328 2372 
Q 403 2725 575 2942 
Q 747 3159 1072 3276 
Q 1397 3394 1825 3394 
Q 2250 3394 2515 3294 
Q 2781 3194 2906 3042 
Q 3031 2891 3081 2659 
Q 3109 2516 3109 2141 
L 3109 1391 
Q 3109 606 3145 398 
Q 3181 191 3288 0 
L 2700 0 
Q 2613 175 2588 409 
z
M 2541 1666 
Q 2234 1541 1622 1453 
Q 1275 1403 1131 1340 
Q 988 1278 909 1158 
Q 831 1038 831 891 
Q 831 666 1001 516 
Q 1172 366 1500 366 
Q 1825 366 2078 508 
Q 2331 650 2450 897 
Q 2541 1088 2541 1459 
L 2541 1666 
z
" transform="scale(0.015625)"/>
       <path id="ArialMT-79" d="M 397 -1278 
L 334 -750 
Q 519 -800 656 -800 
Q 844 -800 956 -737 
Q 1069 -675 1141 -563 
Q 1194 -478 1313 -144 
Q 1328 -97 1363 -6 
L 103 3319 
L 709 3319 
L 1400 1397 
Q 1534 1031 1641 628 
Q 1738 1016 1872 1384 
L 2581 3319 
L 3144 3319 
L 1881 -56 
Q 1678 -603 1566 -809 
Q 1416 -1088 1222 -1217 
Q 1028 -1347 759 -1347 
Q 597 -1347 397 -1278 
z
" transform="scale(0.015625)"/>
       <path id="ArialMT-73" d="M 197 991 
L 753 1078 
Q 800 744 1014 566 
Q 1228 388 1613 388 
Q 2000 388 2187 545 
Q 2375 703 2375 916 
Q 2375 1106 2209 1216 
Q 2094 1291 1634 1406 
Q 1016 1563 777 1677 
Q 538 1791 414 1992 
Q 291 2194 291 2438 
Q 291 2659 392 2848 
Q 494 3038 669 3163 
Q 800 3259 1026 3326 
Q 1253 3394 1513 3394 
Q 1903 3394 2198 3281 
Q 2494 3169 2634 2976 
Q 2775 2784 2828 2463 
L 2278 2388 
Q 2241 2644 2061 2787 
Q 1881 2931 1553 2931 
Q 1166 2931 1000 2803 
Q 834 2675 834 2503 
Q 834 2394 903 2306 
Q 972 2216 1119 2156 
Q 1203 2125 1616 2013 
Q 2213 1853 2448 1751 
Q 2684 1650 2818 1456 
Q 2953 1263 2953 975 
Q 2953 694 2789 445 
Q 2625 197 2315 61 
Q 2006 -75 1616 -75 
Q 969 -75 630 194 
Q 291 463 197 991 
z
" transform="scale(0.015625)"/>
      </defs>
      <use xlink:href="#ArialMT-44"/>
      <use xlink:href="#ArialMT-61" x="72.216797"/>
      <use xlink:href="#ArialMT-79" x="127.832031"/>
      <use xlink:href="#ArialMT-73" x="177.832031"/>
     </g>
    </g>
   </g>
   <g id="matplotlib.axis_2">
    <g id="ytick_1">
     <g id="line2d_6">
      <path d="M 72 368.555445 
L 518.4 368.555445 
" clip-path="url(#p2576ef458a)" style="fill: none; stroke: #ffffff; stroke-width: 0.8; stroke-linecap: round"/>
     </g>
     <g id="text_7">
      <!-- 0 -->
      <g style="fill: #262626" transform="translate(59.439062 372.134351) scale(0.1 -0.1)">
       <use xlink:href="#ArialMT-30"/>
      </g>
     </g>
    </g>
    <g id="ytick_2">
     <g id="line2d_7">
      <path d="M 72 328.32768 
L 518.4 328.32768 
" clip-path="url(#p2576ef458a)" style="fill: none; stroke: #ffffff; stroke-width: 0.8; stroke-linecap: round"/>
     </g>
     <g id="text_8">
      <!-- 50 -->
      <g style="fill: #262626" transform="translate(53.878125 331.906587) scale(0.1 -0.1)">
       <defs>
        <path id="ArialMT-35" d="M 266 1200 
L 856 1250 
Q 922 819 1161 601 
Q 1400 384 1738 384 
Q 2144 384 2425 690 
Q 2706 997 2706 1503 
Q 2706 1984 2436 2262 
Q 2166 2541 1728 2541 
Q 1456 2541 1237 2417 
Q 1019 2294 894 2097 
L 366 2166 
L 809 4519 
L 3088 4519 
L 3088 3981 
L 1259 3981 
L 1013 2750 
Q 1425 3038 1878 3038 
Q 2478 3038 2890 2622 
Q 3303 2206 3303 1553 
Q 3303 931 2941 478 
Q 2500 -78 1738 -78 
Q 1113 -78 717 272 
Q 322 622 266 1200 
z
" transform="scale(0.015625)"/>
       </defs>
       <use xlink:href="#ArialMT-35"/>
       <use xlink:href="#ArialMT-30" x="55.615234"/>
      </g>
     </g>
    </g>
    <g id="ytick_3">
     <g id="line2d_8">
      <path d="M 72 288.099916 
L 518.4 288.099916 
" clip-path="url(#p2576ef458a)" style="fill: none; stroke: #ffffff; stroke-width: 0.8; stroke-linecap: round"/>
     </g>
     <g id="text_9">
      <!-- 100 -->
      <g style="fill: #262626" transform="translate(48.317188 291.678822) scale(0.1 -0.1)">
       <defs>
        <path id="ArialMT-31" d="M 2384 0 
L 1822 0 
L 1822 3584 
Q 1619 3391 1289 3197 
Q 959 3003 697 2906 
L 697 3450 
Q 1169 3672 1522 3987 
Q 1875 4303 2022 4600 
L 2384 4600 
L 2384 0 
z
" transform="scale(0.015625)"/>
       </defs>
       <use xlink:href="#ArialMT-31"/>
       <use xlink:href="#ArialMT-30" x="55.615234"/>
       <use xlink:href="#ArialMT-30" x="111.230469"/>
      </g>
     </g>
    </g>
    <g id="ytick_4">
     <g id="line2d_9">
      <path d="M 72 247.872152 
L 518.4 247.872152 
" clip-path="url(#p2576ef458a)" style="fill: none; stroke: #ffffff; stroke-width: 0.8; stroke-linecap: round"/>
     </g>
     <g id="text_10">
      <!-- 150 -->
      <g style="fill: #262626" transform="translate(48.317188 251.451058) scale(0.1 -0.1)">
       <use xlink:href="#ArialMT-31"/>
       <use xlink:href="#ArialMT-35" x="55.615234"/>
       <use xlink:href="#ArialMT-30" x="111.230469"/>
      </g>
     </g>
    </g>
    <g id="ytick_5">
     <g id="line2d_10">
      <path d="M 72 207.644387 
L 518.4 207.644387 
" clip-path="url(#p2576ef458a)" style="fill: none; stroke: #ffffff; stroke-width: 0.8; stroke-linecap: round"/>
     </g>
     <g id="text_11">
      <!-- 200 -->
      <g style="fill: #262626" transform="translate(48.317188 211.223293) scale(0.1 -0.1)">
       <use xlink:href="#ArialMT-32"/>
       <use xlink:href="#ArialMT-30" x="55.615234"/>
       <use xlink:href="#ArialMT-30" x="111.230469"/>
      </g>
     </g>
    </g>
    <g id="ytick_6">
     <g id="line2d_11">
      <path d="M 72 167.416623 
L 518.4 167.416623 
" clip-path="url(#p2576ef458a)" style="fill: none; stroke: #ffffff; stroke-width: 0.8; stroke-linecap: round"/>
     </g>
     <g id="text_12">
      <!-- 250 -->
      <g style="fill: #262626" transform="translate(48.317188 170.995529) scale(0.1 -0.1)">
       <use xlink:href="#ArialMT-32"/>
       <use xlink:href="#ArialMT-35" x="55.615234"/>
       <use xlink:href="#ArialMT-30" x="111.230469"/>
      </g>
     </g>
    </g>
    <g id="ytick_7">
     <g id="line2d_12">
      <path d="M 72 127.188858 
L 518.4 127.188858 
" clip-path="url(#p2576ef458a)" style="fill: none; stroke: #ffffff; stroke-width: 0.8; stroke-linecap: round"/>
     </g>
     <g id="text_13">
      <!-- 300 -->
      <g style="fill: #262626" transform="translate(48.317188 130.767765) scale(0.1 -0.1)">
       <defs>
        <path id="ArialMT-33" d="M 269 1209 
L 831 1284 
Q 928 806 1161 595 
Q 1394 384 1728 384 
Q 2125 384 2398 659 
Q 2672 934 2672 1341 
Q 2672 1728 2419 1979 
Q 2166 2231 1775 2231 
Q 1616 2231 1378 2169 
L 1441 2663 
Q 1497 2656 1531 2656 
Q 1891 2656 2178 2843 
Q 2466 3031 2466 3422 
Q 2466 3731 2256 3934 
Q 2047 4138 1716 4138 
Q 1388 4138 1169 3931 
Q 950 3725 888 3313 
L 325 3413 
Q 428 3978 793 4289 
Q 1159 4600 1703 4600 
Q 2078 4600 2393 4439 
Q 2709 4278 2876 4000 
Q 3044 3722 3044 3409 
Q 3044 3113 2884 2869 
Q 2725 2625 2413 2481 
Q 2819 2388 3044 2092 
Q 3269 1797 3269 1353 
Q 3269 753 2831 336 
Q 2394 -81 1725 -81 
Q 1122 -81 723 278 
Q 325 638 269 1209 
z
" transform="scale(0.015625)"/>
       </defs>
       <use xlink:href="#ArialMT-33"/>
       <use xlink:href="#ArialMT-30" x="55.615234"/>
       <use xlink:href="#ArialMT-30" x="111.230469"/>
      </g>
     </g>
    </g>
    <g id="ytick_8">
     <g id="line2d_13">
      <path d="M 72 86.961094 
L 518.4 86.961094 
" clip-path="url(#p2576ef458a)" style="fill: none; stroke: #ffffff; stroke-width: 0.8; stroke-linecap: round"/>
     </g>
     <g id="text_14">
      <!-- 350 -->
      <g style="fill: #262626" transform="translate(48.317188 90.54) scale(0.1 -0.1)">
       <use xlink:href="#ArialMT-33"/>
       <use xlink:href="#ArialMT-35" x="55.615234"/>
       <use xlink:href="#ArialMT-30" x="111.230469"/>
      </g>
     </g>
    </g>
    <g id="text_15">
     <!-- (W/m^2) -->
     <g style="fill: #262626" transform="translate(42.2125 236.889687) rotate(-90) scale(0.1 -0.1)">
      <defs>
       <path id="ArialMT-28" d="M 1497 -1347 
Q 1031 -759 709 28 
Q 388 816 388 1659 
Q 388 2403 628 3084 
Q 909 3875 1497 4659 
L 1900 4659 
Q 1522 4009 1400 3731 
Q 1209 3300 1100 2831 
Q 966 2247 966 1656 
Q 966 153 1900 -1347 
L 1497 -1347 
z
" transform="scale(0.015625)"/>
       <path id="ArialMT-57" d="M 1294 0 
L 78 4581 
L 700 4581 
L 1397 1578 
Q 1509 1106 1591 641 
Q 1766 1375 1797 1488 
L 2669 4581 
L 3400 4581 
L 4056 2263 
Q 4303 1400 4413 641 
Q 4500 1075 4641 1638 
L 5359 4581 
L 5969 4581 
L 4713 0 
L 4128 0 
L 3163 3491 
Q 3041 3928 3019 4028 
Q 2947 3713 2884 3491 
L 1913 0 
L 1294 0 
z
" transform="scale(0.015625)"/>
       <path id="ArialMT-2f" d="M 0 -78 
L 1328 4659 
L 1778 4659 
L 453 -78 
L 0 -78 
z
" transform="scale(0.015625)"/>
       <path id="ArialMT-6d" d="M 422 0 
L 422 3319 
L 925 3319 
L 925 2853 
Q 1081 3097 1340 3245 
Q 1600 3394 1931 3394 
Q 2300 3394 2536 3241 
Q 2772 3088 2869 2813 
Q 3263 3394 3894 3394 
Q 4388 3394 4653 3120 
Q 4919 2847 4919 2278 
L 4919 0 
L 4359 0 
L 4359 2091 
Q 4359 2428 4304 2576 
Q 4250 2725 4106 2815 
Q 3963 2906 3769 2906 
Q 3419 2906 3187 2673 
Q 2956 2441 2956 1928 
L 2956 0 
L 2394 0 
L 2394 2156 
Q 2394 2531 2256 2718 
Q 2119 2906 1806 2906 
Q 1569 2906 1367 2781 
Q 1166 2656 1075 2415 
Q 984 2175 984 1722 
L 984 0 
L 422 0 
z
" transform="scale(0.015625)"/>
       <path id="ArialMT-5e" d="M 747 2156 
L 169 2156 
L 1272 4659 
L 1725 4659 
L 2834 2156 
L 2269 2156 
L 1497 4022 
L 747 2156 
z
" transform="scale(0.015625)"/>
       <path id="ArialMT-29" d="M 791 -1347 
L 388 -1347 
Q 1322 153 1322 1656 
Q 1322 2244 1188 2822 
Q 1081 3291 891 3722 
Q 769 4003 388 4659 
L 791 4659 
Q 1378 3875 1659 3084 
Q 1900 2403 1900 1659 
Q 1900 816 1576 28 
Q 1253 -759 791 -1347 
z
" transform="scale(0.015625)"/>
      </defs>
      <use xlink:href="#ArialMT-28"/>
      <use xlink:href="#ArialMT-57" x="33.300781"/>
      <use xlink:href="#ArialMT-2f" x="127.685547"/>
      <use xlink:href="#ArialMT-6d" x="155.46875"/>
      <use xlink:href="#ArialMT-5e" x="238.769531"/>
      <use xlink:href="#ArialMT-32" x="285.693359"/>
      <use xlink:href="#ArialMT-29" x="341.308594"/>
     </g>
    </g>
   </g>
   <g id="line2d_14">
    <path d="M 92.290909 211.974459 
L 92.767222 213.516523 
L 93.243534 196.402962 
L 93.719846 235.278626 
L 94.196159 248.760515 
L 94.672471 257.085427 
L 95.148784 248.782863 
L 95.625096 249.358344 
L 96.101408 352.866617 
L 96.577721 340.7927 
L 97.054033 310.968283 
L 97.530346 325.768748 
L 98.006658 285.881802 
L 98.482971 339.680849 
L 98.959283 332.411916 
L 99.911908 348.430388 
L 100.864533 264.426994 
L 101.340845 291.759525 
L 101.817157 220.863678 
L 102.29347 214.466346 
L 102.769782 230.976491 
L 103.246095 219.46688 
L 103.722407 256.766957 
L 104.19872 250.02322 
L 104.675032 293.24013 
L 105.151344 219.941791 
L 105.627657 248.67112 
L 106.103969 230.037843 
L 106.580282 224.093073 
L 107.056594 233.529836 
L 108.009219 355.00651 
L 108.485531 346.541918 
L 108.961844 242.480514 
L 109.438156 351.240744 
L 109.914469 253.97895 
L 110.390781 218.632474 
L 110.867093 239.200833 
L 111.343406 242.706673 
L 111.819718 346.24021 
L 112.296031 319.320037 
L 112.772343 256.170886 
L 113.248656 254.688523 
L 113.724968 294.73191 
L 114.20128 232.943181 
L 114.677593 242.08941 
L 115.153905 333.708144 
L 115.630218 276.729985 
L 116.10653 238.697986 
L 116.582843 235.837345 
L 117.059155 234.513181 
L 117.535467 270.287956 
L 118.01178 321.528071 
L 118.488092 350.05626 
L 118.964405 263.085561 
L 119.440717 348.313057 
L 119.917029 352.687827 
L 120.393342 292.681411 
L 120.869654 265.142154 
L 121.345967 266.66187 
L 121.822279 294.380078 
L 122.298592 235.166883 
L 122.774904 193.127411 
L 123.251216 234.552292 
L 123.727529 256.275285 
L 124.203841 261.292581 
L 124.680154 291.636607 
L 125.632778 193.228823 
L 126.109091 235.194819 
L 126.585403 231.842505 
L 127.538028 252.738594 
L 128.014341 272.455785 
L 128.490653 270.544967 
L 128.966965 246.078664 
L 129.443278 255.878594 
L 129.91959 355.470247 
L 130.395903 348.815904 
L 130.872215 297.128814 
L 131.348528 307.251708 
L 131.82484 353.861136 
L 132.301152 246.28539 
L 132.777465 236.10553 
L 133.253777 239.932755 
L 133.73009 248.598486 
L 134.206402 262.231229 
L 134.682714 257.074253 
L 135.159027 352.374944 
L 135.635339 338.954515 
L 136.111652 303.615541 
L 136.587964 233.267238 
L 137.064277 350.408253 
L 137.540589 350.251812 
L 138.016901 349.804837 
L 138.493214 281.41205 
L 138.969526 259.102402 
L 139.445839 264.516389 
L 139.922151 234.507594 
L 140.398464 219.656845 
L 140.874776 222.087272 
L 141.351088 253.470515 
L 141.827401 249.330408 
L 142.303713 224.104247 
L 142.780026 335.116116 
L 143.256338 347.553199 
L 143.73265 219.394247 
L 144.208963 217.89688 
L 144.685275 218.718197 
L 145.6379 243.374464 
L 146.114213 241.569802 
L 146.590525 248.542614 
L 147.066837 240.603218 
L 147.54315 308.58814 
L 148.019462 262.45759 
L 148.495775 202.913602 
L 148.972087 235.943502 
L 149.448399 319.393764 
L 149.924712 344.971918 
L 150.401024 304.688282 
L 150.877337 232.088341 
L 151.353649 324.480546 
L 151.829962 201.07944 
L 152.306274 221.260368 
L 153.258899 206.543711 
L 153.735211 229.300334 
L 154.211524 299.989455 
L 154.687836 289.60287 
L 155.164149 214.807164 
L 155.640461 230.428946 
L 156.116773 220.209976 
L 156.593086 264.225855 
L 157.069398 194.274243 
L 157.545711 213.510936 
L 158.022023 211.784495 
L 158.498335 200.459262 
L 158.974648 297.396999 
L 159.45096 226.80286 
L 159.927273 236.284321 
L 160.403585 223.199123 
L 160.879898 341.611282 
L 161.35621 329.199751 
L 161.832522 328.612627 
L 162.308835 185.887871 
L 162.785147 209.275847 
L 163.26146 200.08492 
L 163.737772 186.346021 
L 164.214085 292.826678 
L 164.690397 244.777708 
L 165.166709 179.836945 
L 165.643022 174.724667 
L 166.119334 303.244819 
L 166.595647 262.097136 
L 167.071959 250.732793 
L 167.548271 337.770031 
L 168.024584 301.643263 
L 168.500896 312.130418 
L 168.977209 331.713517 
L 169.453521 307.314261 
L 169.929834 189.944171 
L 170.406146 184.753672 
L 170.882458 249.844429 
L 171.358771 339.529995 
L 171.835083 247.525746 
L 172.311396 280.747175 
L 172.787708 224.640618 
L 173.26402 198.213211 
L 173.740333 309.010904 
L 174.216645 278.814007 
L 174.692958 276.14735 
L 175.16927 204.7167 
L 175.645583 169.689632 
L 176.121895 223.891934 
L 176.598207 156.979753 
L 177.07452 154.398471 
L 177.550832 159.097298 
L 178.027145 142.190462 
L 178.503457 143.581672 
L 178.97977 159.41018 
L 179.456082 200.626877 
L 179.932394 142.777117 
L 180.408707 138.927544 
L 180.885019 167.852424 
L 181.361332 205.878835 
L 181.837644 185.19506 
L 182.313956 136.737427 
L 182.790269 133.743452 
L 183.266581 137.368718 
L 183.742894 146.978684 
L 184.219206 218.022572 
L 184.695519 266.455144 
L 185.171831 170.316374 
L 185.648143 142.279857 
L 186.124456 142.112242 
L 186.600768 146.593168 
L 187.077081 161.628295 
L 187.553393 284.674068 
L 188.029706 245.123254 
L 188.506018 155.342706 
L 189.458643 296.815932 
L 189.934955 239.235841 
L 190.411268 284.043616 
L 190.88758 264.644894 
L 191.363892 214.204607 
L 191.840205 151.152314 
L 192.316517 187.770754 
L 192.79283 329.316613 
L 193.269142 265.779094 
L 193.745455 154.02413 
L 194.221767 153.700073 
L 194.698079 252.721832 
L 195.174392 272.640163 
L 195.650704 239.675745 
L 196.127017 178.205486 
L 196.603329 138.368825 
L 197.079641 166.662352 
L 197.555954 161.846195 
L 198.032266 142.028434 
L 198.508579 163.779362 
L 198.984891 192.198067 
L 199.461204 252.783291 
L 199.937516 197.637731 
L 200.413828 180.652675 
L 200.890141 193.894314 
L 201.366453 195.18222 
L 201.842766 160.996942 
L 202.319078 297.648423 
L 203.271703 155.67235 
L 203.748015 153.314557 
L 204.224328 152.800535 
L 204.70064 185.580576 
L 205.176953 183.077515 
L 205.653265 130.178005 
L 206.129577 135.804305 
L 206.60589 124.300281 
L 207.082202 125.903805 
L 207.558515 227.347552 
L 208.034827 216.332467 
L 208.51114 173.199364 
L 208.987452 119.249462 
L 209.463764 127.177684 
L 209.940077 132.574909 
L 210.416389 153.219574 
L 210.892702 152.498827 
L 211.369014 137.798931 
L 211.845327 231.328483 
L 212.321639 161.583597 
L 212.797951 237.709054 
L 213.274264 172.584773 
L 213.750576 139.715337 
L 214.226889 182.088582 
L 214.703201 266.287528 
L 215.179513 162.298757 
L 216.132138 119.020387 
L 216.608451 122.328004 
L 217.561076 157.119433 
L 218.037388 239.279054 
L 218.5137 206.158195 
L 218.990013 237.139161 
L 219.942638 131.847402 
L 220.41895 152.906692 
L 220.895262 168.558754 
L 221.371575 125.389783 
L 221.847887 176.892496 
L 222.3242 198.537268 
L 222.800512 111.49634 
L 223.276825 96.332335 
L 223.753137 147.386548 
L 224.229449 154.178031 
L 224.705762 151.940108 
L 225.182074 155.303596 
L 225.658387 142.760356 
L 226.134699 151.515482 
L 226.611012 132.032952 
L 227.087324 133.301244 
L 227.563636 165.35495 
L 228.039949 175.221927 
L 228.516261 257.459769 
L 228.992574 129.842773 
L 229.468886 126.473698 
L 229.945198 157.985447 
L 230.421511 159.041426 
L 230.897823 170.277264 
L 231.374136 153.795055 
L 231.850448 145.660107 
L 232.326761 169.932359 
L 232.803073 139.519786 
L 233.279385 172.931179 
L 233.755698 146.883701 
L 234.23201 167.28253 
L 234.708323 149.613423 
L 235.184635 147.408897 
L 235.660948 145.894769 
L 236.13726 140.134377 
L 236.613572 138.435871 
L 237.089885 138.933131 
L 237.566197 146.475837 
L 238.04251 142.91121 
L 238.518822 148.822456 
L 238.995134 164.094215 
L 239.471447 149.638186 
L 239.947759 175.004026 
L 240.424072 153.599503 
L 240.900384 158.639148 
L 241.376697 148.409717 
L 241.853009 166.064285 
L 242.329321 154.644308 
L 242.805634 210.627946 
L 243.281946 216.310118 
L 243.758259 153.482172 
L 244.234571 147.934093 
L 244.710883 166.075697 
L 245.187196 216.248659 
L 245.663508 161.594771 
L 246.139821 180.060433 
L 246.616133 216.924709 
L 247.092446 176.937194 
L 247.568758 183.988227 
L 248.04507 234.395851 
L 248.521383 364.656446 
L 248.997695 368.555445 
L 249.474008 159.242341 
L 249.95032 189.245772 
L 250.426633 179.423493 
L 250.902945 178.311642 
L 251.379257 171.668474 
L 251.85557 170.394595 
L 252.331882 194.721218 
L 252.808195 184.898939 
L 253.284507 153.391761 
L 253.760819 216.919122 
L 254.237132 260.21984 
L 254.713444 179.809009 
L 255.189757 208.465704 
L 255.666069 205.856487 
L 256.142382 210.326238 
L 256.618694 237.172684 
L 257.095006 235.122185 
L 257.571319 231.306135 
L 258.047631 203.778052 
L 259.000256 240.273574 
L 259.476569 190.50289 
L 259.952881 225.165813 
L 260.429193 210.577662 
L 260.905506 209.236736 
L 261.381818 188.100398 
L 261.858131 186.692427 
L 262.334443 193.072997 
L 262.810755 221.707343 
L 263.287068 203.370187 
L 263.76338 206.621932 
L 264.239693 247.374892 
L 264.716005 259.705819 
L 265.192318 197.905916 
L 265.66863 215.058588 
L 266.144942 217.04204 
L 266.621255 333.512592 
L 267.097567 222.835955 
L 267.57388 202.437127 
L 268.050192 205.834138 
L 268.526504 288.301055 
L 269.002817 232.267131 
L 269.479129 214.270794 
L 269.955442 250.509305 
L 270.431754 266.38251 
L 270.908067 217.941577 
L 271.384379 197.157233 
L 271.860691 206.487839 
L 272.337004 220.707236 
L 272.813316 261.873648 
L 273.289629 326.673872 
L 274.242254 207.661149 
L 274.718566 242.603432 
L 275.194878 245.922222 
L 275.671191 231.194391 
L 276.147503 241.323184 
L 276.623816 316.711913 
L 277.100128 237.653182 
L 277.57644 321.433088 
L 278.052753 320.667644 
L 278.529065 318.198106 
L 279.005378 258.443114 
L 279.48169 348.435975 
L 279.958003 315.158675 
L 280.434315 229.155067 
L 280.910627 234.664036 
L 281.38694 228.171721 
L 281.863252 241.614499 
L 282.339565 235.759125 
L 282.815877 237.452043 
L 283.29219 264.125286 
L 284.244814 245.039447 
L 284.721127 334.529461 
L 285.197439 235.557986 
L 285.673752 238.647702 
L 286.150064 279.66326 
L 287.102689 248.179447 
L 287.579001 245.313219 
L 288.055314 238.658876 
L 288.531626 268.706781 
L 289.007939 235.261865 
L 289.484251 244.408094 
L 289.960563 239.144962 
L 290.436876 246.307739 
L 290.913188 257.158061 
L 291.389501 246.408308 
L 291.865813 250.995391 
L 292.342125 247.63749 
L 292.818438 335.66366 
L 293.29475 285.133118 
L 293.771063 282.898243 
L 294.247375 243.028058 
L 294.723688 241.927382 
L 295.2 242.798984 
L 295.676312 251.040088 
L 296.152625 267.505535 
L 296.628937 244.167845 
L 297.10525 262.085962 
L 297.581562 333.747254 
L 298.057875 343.547185 
L 298.534187 234.865174 
L 299.010499 236.993894 
L 299.486812 243.93877 
L 299.963124 244.061688 
L 300.439437 310.666574 
L 300.915749 327.746613 
L 301.392061 247.955959 
L 301.868374 282.523901 
L 302.344686 237.267666 
L 302.820999 355.928396 
L 303.297311 348.586829 
L 303.773624 277.076391 
L 304.249936 271.183625 
L 304.726248 232.895045 
L 305.678873 234.468484 
L 306.155186 238.005175 
L 306.631498 257.169235 
L 307.10781 284.138599 
L 307.584123 286.524329 
L 308.060435 227.216312 
L 308.536748 242.474927 
L 309.01306 290.77618 
L 309.489373 258.459876 
L 310.441997 342.150387 
L 310.91831 336.350884 
L 311.394622 256.671975 
L 311.870935 327.193481 
L 312.347247 285.395716 
L 312.82356 351.367218 
L 313.299872 331.517966 
L 313.776184 229.948448 
L 314.252497 246.631796 
L 314.728809 338.110849 
L 315.205122 242.620193 
L 315.681434 227.322469 
L 316.157746 225.713358 
L 316.634059 219.265741 
L 317.110371 305.688388 
L 317.586684 259.040943 
L 318.062996 263.566567 
L 318.539309 265.617065 
L 319.015621 291.854507 
L 319.491933 261.219947 
L 319.968246 284.993439 
L 320.444558 215.896666 
L 320.920871 213.952324 
L 321.397183 214.404886 
L 321.873496 242.843681 
L 322.349808 229.892576 
L 322.82612 332.825368 
L 323.302433 313.622198 
L 323.778745 252.353078 
L 324.255058 333.406436 
L 324.73137 241.47482 
L 325.207682 230.484818 
L 325.683995 223.869585 
L 326.160307 249.185141 
L 326.63662 351.140175 
L 327.112932 351.285442 
L 327.589245 307.761236 
L 328.065557 224.674141 
L 328.541869 250.302579 
L 329.018182 199.788799 
L 329.494494 207.487946 
L 329.970807 221.478268 
L 330.447119 182.591429 
L 330.923431 186.58627 
L 331.399744 208.627733 
L 331.876056 195.402855 
L 332.352369 198.520507 
L 332.828681 303.649064 
L 333.304994 215.310011 
L 333.781306 191.190114 
L 334.257618 212.427021 
L 335.210243 284.546463 
L 336.162868 300.570523 
L 336.639181 225.305493 
L 337.115493 240.128307 
L 337.591805 193.56467 
L 338.068118 220.707236 
L 338.54443 313.644546 
L 339.020743 301.995256 
L 339.497055 197.447766 
L 339.973367 192.631609 
L 340.44968 196.847022 
L 340.925992 339.312095 
L 341.402305 335.440173 
L 341.878617 268.081016 
L 342.35493 233.803608 
L 342.831242 166.187441 
L 343.307554 166.368964 
L 343.783867 169.405662 
L 344.260179 186.58627 
L 344.736492 237.792862 
L 345.212804 342.077754 
L 345.689117 236.418413 
L 346.165429 185.100078 
L 346.641741 258.901264 
L 347.118054 180.429187 
L 347.594366 257.828523 
L 348.070679 310.152553 
L 348.546991 328.316506 
L 349.975928 182.881963 
L 350.452241 204.632892 
L 350.928553 271.109273 
L 351.404866 238.217488 
L 351.881178 69.645035 
L 352.35749 66.96 
L 352.833803 296.067248 
L 353.310115 315.560952 
L 353.786428 305.38668 
L 354.26274 188.659117 
L 354.739052 232.82585 
L 355.215365 158.985554 
L 355.691677 144.732633 
L 356.644302 204.124458 
L 357.120615 147.118363 
L 357.596927 135.597579 
L 358.073239 199.76645 
L 358.549552 286.205859 
L 359.025864 204.286486 
L 359.502177 170.187869 
L 359.978489 166.092459 
L 360.454802 252.062544 
L 360.931114 130.340033 
L 361.407426 134.547187 
L 361.883739 139.799145 
L 362.360051 143.117936 
L 362.836364 164.505697 
L 363.312676 133.412988 
L 363.788988 140.341103 
L 364.265301 233.546598 
L 364.741613 263.857101 
L 365.217926 263.750944 
L 365.694238 249.872365 
L 366.170551 166.991996 
L 366.646863 181.613671 
L 367.123175 167.8189 
L 367.599488 184.546946 
L 368.0758 175.551571 
L 368.552113 129.267293 
L 369.028425 121.529035 
L 369.504738 144.905836 
L 369.98105 159.309611 
L 370.457362 206.292287 
L 370.933675 159.002315 
L 371.409987 212.197947 
L 372.362612 185.51353 
L 372.838924 243.173325 
L 373.315237 147.844698 
L 373.791549 195.464314 
L 374.267862 146.886198 
L 374.744174 268.69002 
L 375.220487 199.833496 
L 375.696799 223.234756 
L 376.173111 206.929227 
L 376.649424 159.577796 
L 377.125736 134.318112 
L 377.602049 144.954149 
L 378.078361 122.25537 
L 378.554673 118.405797 
L 379.030986 125.529463 
L 379.507298 203.560152 
L 379.983611 151.163489 
L 380.459923 359.192433 
L 380.936236 113.880173 
L 381.412548 123.24989 
L 381.88886 116.819035 
L 382.365173 156.231069 
L 382.841485 137.00555 
L 383.317798 145.29694 
L 383.79411 148.314022 
L 384.270423 126.272559 
L 384.746735 174.551464 
L 385.223047 133.86555 
L 385.69936 133.927009 
L 386.175672 162.036159 
L 386.651985 197.146058 
L 387.128297 131.071955 
L 388.080922 271.494789 
L 388.557234 261.03159 
L 389.033547 186.658903 
L 389.509859 265.890838 
L 389.986172 293.769754 
L 390.462484 197.352784 
L 390.938796 241.126818 
L 391.415109 122.97053 
L 391.891421 120.758003 
L 392.844046 138.089465 
L 393.320359 336.043656 
L 393.796671 135.167365 
L 394.272983 137.530746 
L 394.749296 133.373877 
L 395.225608 132.317898 
L 395.701921 123.126972 
L 396.178233 119.880815 
L 396.654545 143.838683 
L 397.130858 139.0337 
L 397.60717 149.25267 
L 398.083483 212.700794 
L 398.559795 248.023006 
L 399.036108 210.169797 
L 399.51242 227.277771 
L 399.988732 227.534782 
L 400.465045 162.181426 
L 400.941357 142.73242 
L 401.41767 272.68486 
L 401.893982 335.432613 
L 402.370294 298.952473 
L 402.846607 349.520844 
L 403.322919 277.815111 
L 403.799232 262.0692 
L 404.275544 273.28546 
L 404.751857 174.015094 
L 405.228169 142.693309 
L 405.704481 128.429215 
L 406.180794 132.91014 
L 406.657106 141.939039 
L 407.133419 319.421253 
L 407.609731 165.299078 
L 408.086044 185.848761 
L 408.562356 125.233342 
L 409.038668 134.089037 
L 409.514981 154.107937 
L 409.991293 165.578437 
L 410.467606 159.058187 
L 410.943918 145.699217 
L 411.42023 117.914977 
L 411.896543 114.633263 
L 412.372855 196.062143 
L 412.849168 189.597765 
L 413.32548 145.358399 
L 413.801793 113.531532 
L 414.278105 107.552096 
L 414.754417 174.171535 
L 415.23073 145.91153 
L 415.707042 172.037229 
L 416.183355 160.136515 
L 416.659667 168.360858 
L 417.13598 164.39954 
L 417.612292 162.566942 
L 418.088604 293.899919 
L 418.564917 369.36 
L 419.041229 229.107261 
L 419.517542 193.715524 
L 419.993854 324.079628 
L 420.470166 364.157209 
L 420.946479 232.244783 
L 421.422791 265.698455 
L 421.899104 275.060048 
L 422.375416 365.0858 
L 422.851729 176.00972 
L 423.328041 152.197119 
L 423.804353 139.743273 
L 424.280666 141.168007 
L 424.756978 140.223772 
L 425.233291 173.489898 
L 425.709603 152.130072 
L 426.185915 177.088048 
L 426.662228 181.870682 
L 427.13854 145.458968 
L 427.614853 134.033166 
L 428.091165 125.780887 
L 428.567478 168.617869 
L 429.04379 148.783346 
L 429.520102 138.055942 
L 429.996415 138.89402 
L 430.472727 145.866833 
L 431.425352 172.204844 
L 431.901665 140.972455 
L 432.377977 154.320251 
L 432.854289 139.514198 
L 433.330602 134.413094 
L 433.806914 177.657941 
L 434.283227 167.450146 
L 434.759539 234.088555 
L 435.235851 222.338696 
L 435.712164 221.048055 
L 436.188476 173.467549 
L 436.664789 178.702746 
L 437.141101 160.024771 
L 437.617414 149.850499 
L 438.093726 162.494309 
L 438.570038 160.834914 
L 439.046351 201.889582 
L 439.522663 191.609153 
L 440.475288 252.191049 
L 440.951601 179.646981 
L 441.427913 199.62677 
L 441.904225 188.564135 
L 442.85685 241.027844 
L 443.333163 190.352036 
L 443.809475 164.745946 
L 444.285787 198.822215 
L 445.238412 317.941095 
L 445.714725 279.48447 
L 446.66735 164.287797 
L 447.143662 182.80933 
L 447.619974 176.445521 
L 448.096287 158.387725 
L 448.572599 168.807833 
L 449.048912 167.606587 
L 449.525224 158.102778 
L 450.001536 227.177202 
L 450.477849 212.337626 
L 450.954161 173.819542 
L 451.430474 189.089331 
L 451.906786 181.440468 
L 452.383099 171.025947 
L 452.859411 206.180544 
L 453.335723 169.863812 
L 453.812036 197.185168 
L 454.288348 196.179474 
L 454.764661 196.721432 
L 455.240973 250.324928 
L 456.193598 179.669329 
L 456.66991 177.931713 
L 457.146223 175.75271 
L 457.622535 176.199685 
L 458.098848 197.106948 
L 458.57516 276.534434 
L 459.051472 307.135471 
L 459.527785 275.344362 
L 460.004097 324.260206 
L 460.48041 272.757494 
L 460.956722 325.746399 
L 461.433035 215.377057 
L 461.909347 328.137716 
L 462.385659 312.091308 
L 462.861972 196.88346 
L 463.814597 206.862181 
L 464.290909 224.573571 
L 464.767222 229.233287 
L 465.243534 255.951228 
L 465.719846 330.428464 
L 466.196159 248.090052 
L 466.672471 199.012179 
L 467.148784 201.096201 
L 467.625096 199.710578 
L 468.101408 269.254326 
L 468.577721 218.522645 
L 469.054033 204.761397 
L 469.530346 203.336664 
L 470.006658 221.517379 
L 470.482971 213.617093 
L 470.959283 210.292715 
L 471.435595 208.421007 
L 471.911908 328.914335 
L 472.38822 311.543763 
L 472.864533 325.824619 
L 473.340845 231.937487 
L 473.817157 218.880225 
L 474.29347 217.410794 
L 474.769782 214.572502 
L 475.246095 223.160012 
L 475.722407 220.897201 
L 476.19872 255.05169 
L 476.675032 244.486315 
L 477.151344 236.558093 
L 477.627657 235.714427 
L 478.103969 216.455385 
L 478.580282 223.322041 
L 479.056594 247.028486 
L 479.532907 336.328536 
L 480.009219 341.368181 
L 480.485531 344.92722 
L 480.961844 340.513341 
L 481.438156 347.106224 
L 482.390781 325.852555 
L 482.867093 333.657859 
L 483.343406 245.626101 
L 483.819718 332.143731 
L 484.296031 227.456561 
L 484.772343 222.009051 
L 485.724968 241.877097 
L 486.677593 346.312843 
L 487.153905 264.382297 
L 487.630218 333.98074 
L 488.10653 369.294766 
L 489.059155 290.871162 
L 489.535467 295.58675 
L 490.01178 286.40141 
L 490.488092 312.493585 
L 490.964405 287.569133 
L 491.440717 243.331759 
L 491.917029 240.938449 
L 492.393342 240.647916 
L 492.869654 250.883647 
L 493.822279 348.503022 
L 494.298592 265.376816 
L 494.774904 237.315237 
L 495.251216 344.418786 
L 495.727529 341.658329 
L 496.203841 317.549992 
L 496.680154 214.254032 
L 497.156466 210.309477 
L 497.632778 224.232753 
L 498.109091 138.331517 
L 498.109091 138.331517 
" clip-path="url(#p2576ef458a)" style="fill: none; stroke: #1f77b4; stroke-width: 1.5; stroke-linecap: round"/>
   </g>
   <g id="line2d_15">
    <path d="M 92.290909 224.85179 
L 92.767222 226.327556 
L 93.243534 228.710345 
L 93.719846 222.556899 
L 94.196159 224.006082 
L 94.672471 228.118995 
L 95.148784 243.89308 
L 95.625096 250.537962 
L 96.577721 273.064104 
L 97.054033 276.203044 
L 97.530346 271.585886 
L 98.006658 270.591086 
L 98.482971 261.434069 
L 98.959283 275.173692 
L 99.435595 275.239536 
L 99.911908 274.727898 
L 100.38822 272.811979 
L 100.864533 277.765501 
L 101.340845 278.253454 
L 101.817157 278.124482 
L 102.29347 273.518118 
L 102.769782 272.764011 
L 103.246095 268.568217 
L 103.722407 273.300023 
L 104.19872 274.966185 
L 104.675032 270.17558 
L 105.151344 277.986438 
L 105.627657 268.620459 
L 106.103969 272.913561 
L 106.580282 270.629047 
L 107.056594 270.235614 
L 107.532907 264.882262 
L 108.485531 277.878273 
L 108.961844 265.822602 
L 109.438156 268.320506 
L 109.914469 277.71043 
L 110.390781 272.957275 
L 110.867093 274.610448 
L 111.343406 276.823773 
L 111.819718 281.411797 
L 112.296031 273.910424 
L 112.772343 278.68185 
L 113.248656 274.19266 
L 113.724968 267.37321 
L 114.20128 279.170041 
L 114.677593 278.466273 
L 115.153905 273.051342 
L 115.630218 271.74084 
L 116.10653 275.833076 
L 117.059155 264.850636 
L 117.535467 267.028421 
L 118.01178 273.952027 
L 118.488092 272.324792 
L 118.964405 281.383858 
L 119.440717 276.936263 
L 119.917029 279.212989 
L 120.393342 275.703081 
L 120.869654 277.998331 
L 121.822279 270.309633 
L 122.298592 268.977709 
L 122.774904 268.069553 
L 123.251216 281.045595 
L 123.727529 272.837969 
L 124.203841 271.52009 
L 124.680154 251.543397 
L 125.156466 267.622093 
L 125.632778 270.442165 
L 126.109091 265.601485 
L 126.585403 262.647301 
L 127.061716 269.844334 
L 127.538028 269.946215 
L 128.014341 268.872458 
L 128.490653 275.043683 
L 128.966965 269.904839 
L 129.443278 254.345696 
L 129.91959 261.063183 
L 130.395903 276.573578 
L 130.872215 276.748396 
L 131.348528 267.410581 
L 131.82484 276.534424 
L 132.301152 277.884458 
L 132.777465 270.303017 
L 133.253777 266.863112 
L 133.73009 269.740929 
L 134.206402 277.542912 
L 134.682714 273.471934 
L 135.159027 268.105462 
L 135.635339 277.54279 
L 136.111652 278.698772 
L 136.587964 262.947583 
L 137.540589 272.218887 
L 138.493214 275.657814 
L 138.969526 272.806991 
L 139.445839 271.577488 
L 139.922151 270.851272 
L 140.398464 275.388252 
L 140.874776 268.401266 
L 141.351088 269.00756 
L 141.827401 266.735817 
L 142.303713 275.341544 
L 142.780026 274.959302 
L 143.256338 278.159434 
L 144.208963 259.769701 
L 144.685275 269.478855 
L 145.161588 273.963744 
L 145.6379 266.373929 
L 146.114213 268.345055 
L 146.590525 270.902006 
L 147.066837 270.985155 
L 148.019462 268.782839 
L 148.495775 265.779792 
L 148.972087 265.209477 
L 149.448399 259.581069 
L 149.924712 273.383852 
L 150.401024 280.73442 
L 150.877337 277.430099 
L 151.353649 268.553254 
L 151.829962 263.696933 
L 152.306274 261.700312 
L 152.782586 264.978806 
L 153.258899 250.311668 
L 153.735211 260.263758 
L 154.211524 262.425642 
L 154.687836 258.677001 
L 155.164149 262.598513 
L 155.640461 267.730102 
L 156.116773 261.888953 
L 156.593086 258.240022 
L 157.069398 264.629293 
L 157.545711 262.658433 
L 158.022023 252.795611 
L 158.498335 254.117414 
L 158.974648 250.837373 
L 159.45096 261.739766 
L 159.927273 250.908178 
L 160.403585 257.069206 
L 160.879898 239.812987 
L 161.35621 275.069833 
L 161.832522 279.237731 
L 162.308835 259.346361 
L 162.785147 250.220594 
L 163.26146 253.504631 
L 163.737772 244.512945 
L 164.214085 237.876088 
L 164.690397 213.938223 
L 165.166709 251.210373 
L 165.643022 256.057912 
L 166.119334 255.255886 
L 166.595647 262.596994 
L 167.071959 277.740348 
L 168.500896 238.522807 
L 168.977209 253.260358 
L 169.453521 274.242822 
L 170.406146 252.697358 
L 170.882458 247.381323 
L 171.358771 246.655401 
L 171.835083 251.88269 
L 172.311396 243.092551 
L 172.787708 239.843954 
L 173.26402 262.796959 
L 173.740333 273.305473 
L 174.216645 240.615882 
L 174.692958 243.537293 
L 175.645583 219.641858 
L 176.121895 219.960681 
L 176.598207 215.430383 
L 177.07452 223.316164 
L 177.550832 206.298855 
L 178.027145 209.176125 
L 178.503457 219.804096 
L 178.97977 219.453943 
L 179.456082 216.983879 
L 179.932394 222.559529 
L 180.885019 208.225588 
L 181.361332 205.692582 
L 182.313956 216.286791 
L 182.790269 206.555718 
L 183.266581 209.30054 
L 183.742894 210.120759 
L 184.219206 209.977401 
L 184.695519 203.452588 
L 185.171831 212.781569 
L 185.648143 213.556233 
L 186.124456 192.022387 
L 186.600768 203.134501 
L 187.077081 204.085688 
L 187.553393 194.558207 
L 188.029706 199.574318 
L 188.506018 200.314728 
L 188.98233 199.648945 
L 189.458643 206.801467 
L 189.934955 194.368389 
L 190.411268 200.490312 
L 190.88758 196.697953 
L 191.840205 216.996058 
L 192.316517 217.331424 
L 192.79283 201.778228 
L 193.269142 199.920076 
L 193.745455 198.779118 
L 194.221767 213.084363 
L 194.698079 213.08338 
L 195.174392 211.252306 
L 195.650704 199.45389 
L 196.127017 199.827283 
L 196.603329 199.663627 
L 197.079641 203.40446 
L 198.032266 197.946002 
L 198.508579 199.875775 
L 198.984891 196.116782 
L 199.461204 202.461396 
L 199.937516 202.263887 
L 200.413828 200.426848 
L 200.890141 201.452944 
L 201.366453 206.037587 
L 201.842766 201.321179 
L 202.319078 199.536095 
L 202.795391 199.275199 
L 203.271703 190.569491 
L 203.748015 191.619232 
L 204.224328 196.508217 
L 204.70064 189.356996 
L 205.176953 195.04964 
L 205.653265 180.54481 
L 206.129577 154.268771 
L 206.60589 192.152154 
L 207.082202 194.294958 
L 207.558515 191.479955 
L 208.034827 171.630084 
L 208.51114 172.259647 
L 208.987452 186.235077 
L 209.940077 180.250631 
L 210.416389 187.206868 
L 210.892702 188.8459 
L 211.369014 185.409868 
L 211.845327 189.827373 
L 212.321639 193.126001 
L 212.797951 189.193485 
L 213.750576 204.004604 
L 214.703201 193.892947 
L 215.179513 199.264003 
L 215.655826 190.474876 
L 216.132138 200.659519 
L 216.608451 186.364209 
L 217.084763 193.416481 
L 217.561076 198.566389 
L 218.037388 188.143753 
L 218.5137 196.74018 
L 218.990013 175.856216 
L 219.466325 196.978898 
L 219.942638 188.209873 
L 220.41895 165.674414 
L 220.895262 196.600391 
L 221.371575 192.150519 
L 221.847887 196.627629 
L 222.3242 177.08249 
L 222.800512 194.889574 
L 223.276825 186.579965 
L 223.753137 162.671901 
L 224.229449 158.147798 
L 224.705762 162.425361 
L 225.182074 186.473479 
L 225.658387 168.078305 
L 226.134699 179.636732 
L 226.611012 197.928968 
L 227.087324 201.473233 
L 227.563636 196.317689 
L 228.039949 204.923029 
L 228.516261 192.882371 
L 228.992574 190.591169 
L 229.468886 199.631146 
L 229.945198 191.28452 
L 230.421511 200.15241 
L 230.897823 161.042912 
L 231.374136 186.848312 
L 231.850448 172.417805 
L 232.326761 191.600244 
L 232.803073 184.03494 
L 233.279385 190.407277 
L 233.755698 187.423077 
L 234.23201 189.490785 
L 234.708323 186.738284 
L 235.184635 187.125125 
L 235.660948 188.650568 
L 236.13726 182.682792 
L 236.613572 184.182795 
L 237.089885 171.218609 
L 237.566197 179.215466 
L 238.04251 191.861769 
L 238.518822 190.576289 
L 238.995134 197.545654 
L 239.471447 195.157465 
L 239.947759 196.745597 
L 240.424072 189.338445 
L 240.900384 190.466364 
L 241.376697 197.783245 
L 241.853009 194.893136 
L 242.329321 196.380281 
L 242.805634 199.582701 
L 243.281946 205.665122 
L 243.758259 194.740554 
L 244.234571 201.252122 
L 244.710883 199.160519 
L 245.187196 196.506561 
L 245.663508 195.688459 
L 246.139821 201.35403 
L 247.568758 211.772443 
L 248.04507 224.021781 
L 248.521383 225.70464 
L 248.997695 222.830697 
L 249.474008 221.243312 
L 249.95032 223.163856 
L 250.426633 205.961874 
L 250.902945 212.184487 
L 251.379257 224.118082 
L 251.85557 219.998381 
L 252.331882 225.314152 
L 252.808195 211.368693 
L 253.284507 205.673824 
L 253.760819 211.89707 
L 254.713444 214.811004 
L 255.189757 215.720964 
L 255.666069 219.948868 
L 256.142382 227.586666 
L 256.618694 227.810341 
L 257.095006 221.1723 
L 257.571319 219.977663 
L 258.047631 214.818987 
L 258.523944 205.386596 
L 259.000256 223.267823 
L 259.476569 204.667809 
L 259.952881 209.684586 
L 260.429193 227.979825 
L 260.905506 228.165854 
L 261.381818 226.068527 
L 261.858131 216.588731 
L 262.334443 220.614093 
L 262.810755 221.230687 
L 263.287068 220.09106 
L 263.76338 213.919725 
L 264.239693 224.203194 
L 264.716005 225.839621 
L 265.192318 234.519381 
L 265.66863 251.45465 
L 266.144942 251.599311 
L 266.621255 246.972007 
L 267.097567 247.109134 
L 267.57388 253.242881 
L 268.050192 238.163507 
L 268.526504 239.8945 
L 269.002817 238.872845 
L 269.479129 234.415211 
L 269.955442 234.671089 
L 270.908067 263.596358 
L 271.384379 267.971041 
L 271.860691 269.819181 
L 272.337004 269.629663 
L 272.813316 269.86537 
L 273.289629 259.710291 
L 273.765941 259.788268 
L 274.242254 273.769967 
L 275.194878 265.105524 
L 275.671191 263.447115 
L 276.147503 269.804951 
L 276.623816 271.058896 
L 277.100128 277.737839 
L 277.57644 276.928442 
L 278.052753 269.778424 
L 279.005378 262.721622 
L 279.48169 268.44546 
L 279.958003 277.274175 
L 280.434315 264.13278 
L 280.910627 275.219387 
L 281.38694 272.9978 
L 281.863252 273.590605 
L 282.339565 270.26543 
L 282.815877 273.413112 
L 283.29219 267.167534 
L 283.768502 273.402335 
L 284.244814 277.206739 
L 284.721127 277.870489 
L 285.197439 268.404357 
L 285.673752 267.219872 
L 286.150064 262.393525 
L 286.626376 275.121949 
L 287.102689 278.355081 
L 287.579001 271.447073 
L 288.055314 254.404874 
L 289.484251 283.449057 
L 289.960563 278.654168 
L 290.436876 271.480752 
L 290.913188 277.809385 
L 291.389501 275.374526 
L 291.865813 278.710594 
L 292.342125 278.528923 
L 292.818438 274.659585 
L 293.29475 276.26775 
L 293.771063 274.109902 
L 294.247375 273.366258 
L 294.723688 266.784753 
L 295.2 273.95315 
L 295.676312 275.330818 
L 296.152625 268.258635 
L 296.628937 271.498301 
L 297.10525 267.338766 
L 297.581562 274.242012 
L 298.057875 277.97557 
L 298.534187 283.006571 
L 299.963124 269.346104 
L 300.439437 248.599291 
L 301.392061 279.399369 
L 301.868374 268.714725 
L 302.344686 268.610889 
L 302.820999 275.124033 
L 303.297311 271.649085 
L 303.773624 277.094386 
L 304.249936 273.553732 
L 304.726248 274.764823 
L 305.202561 270.636184 
L 306.155186 272.159225 
L 306.631498 267.464849 
L 307.10781 275.414262 
L 308.060435 271.338528 
L 308.536748 274.586162 
L 309.01306 262.935169 
L 309.489373 273.949 
L 309.965685 277.054139 
L 310.441997 275.299034 
L 310.91831 274.519032 
L 311.394622 280.929117 
L 311.870935 260.456837 
L 312.347247 271.824824 
L 312.82356 280.417661 
L 313.299872 278.006774 
L 313.776184 276.890268 
L 314.252497 272.107505 
L 314.728809 269.131627 
L 315.205122 276.216089 
L 315.681434 274.122373 
L 316.634059 260.466283 
L 317.110371 270.545732 
L 317.586684 276.614624 
L 318.062996 272.839871 
L 318.539309 275.527131 
L 319.015621 274.877456 
L 319.491933 272.478531 
L 319.968246 276.5386 
L 320.920871 267.302478 
L 321.397183 268.791267 
L 321.873496 268.607597 
L 322.349808 271.768718 
L 322.82612 271.228951 
L 323.302433 269.297402 
L 323.778745 273.865149 
L 324.255058 271.387729 
L 324.73137 271.357039 
L 325.207682 264.762486 
L 325.683995 270.812874 
L 326.160307 272.24057 
L 326.63662 273.246611 
L 327.112932 278.346277 
L 327.589245 274.7497 
L 328.065557 265.552298 
L 328.541869 263.586184 
L 329.018182 265.525317 
L 329.494494 270.249171 
L 329.970807 267.63066 
L 330.447119 266.364708 
L 330.923431 261.363412 
L 331.399744 254.524689 
L 331.876056 263.54709 
L 332.352369 266.60735 
L 332.828681 242.372933 
L 333.304994 254.990884 
L 333.781306 271.812784 
L 334.257618 259.374113 
L 334.733931 264.629788 
L 335.210243 268.579005 
L 335.686556 270.042419 
L 336.162868 257.527817 
L 336.639181 254.237881 
L 337.115493 249.811734 
L 337.591805 222.173203 
L 338.068118 226.841693 
L 338.54443 208.418051 
L 339.020743 209.307222 
L 339.497055 207.953647 
L 340.44968 251.903175 
L 340.925992 263.16951 
L 341.402305 252.298322 
L 341.878617 244.884012 
L 342.35493 233.426806 
L 342.831242 231.750577 
L 343.307554 222.172386 
L 343.783867 218.908534 
L 344.260179 230.338005 
L 344.736492 247.467888 
L 345.212804 234.49091 
L 345.689117 243.708701 
L 346.165429 238.010966 
L 346.641741 227.9367 
L 347.118054 250.47435 
L 348.070679 270.784317 
L 348.546991 256.980302 
L 349.023303 250.21868 
L 349.499616 241.055945 
L 349.975928 239.276073 
L 350.452241 229.873003 
L 350.928553 207.571401 
L 351.404866 191.277141 
L 351.881178 209.295097 
L 352.35749 223.107973 
L 352.833803 229.926137 
L 353.310115 232.893264 
L 353.786428 236.606195 
L 354.739052 226.740231 
L 355.215365 225.180409 
L 355.691677 220.884645 
L 356.16799 209.559372 
L 356.644302 201.509782 
L 357.120615 200.384837 
L 358.073239 217.724712 
L 358.549552 216.505514 
L 359.025864 221.342914 
L 359.502177 216.639647 
L 359.978489 196.366466 
L 360.454802 209.927992 
L 360.931114 202.540795 
L 361.407426 191.995545 
L 361.883739 191.539029 
L 362.360051 193.832876 
L 363.312676 216.329489 
L 364.265301 208.759072 
L 364.741613 211.112239 
L 365.217926 202.767931 
L 365.694238 204.430818 
L 366.170551 211.642323 
L 366.646863 199.636282 
L 367.123175 199.345077 
L 367.599488 199.424059 
L 368.0758 192.309809 
L 368.552113 193.055533 
L 369.028425 189.443479 
L 369.504738 178.87588 
L 369.98105 176.364899 
L 370.457362 185.576455 
L 370.933675 200.115094 
L 371.409987 190.654388 
L 371.8863 201.991987 
L 372.362612 203.972381 
L 372.838924 207.766203 
L 373.315237 198.589272 
L 373.791549 215.981755 
L 374.267862 218.462502 
L 374.744174 209.122527 
L 375.220487 193.798179 
L 375.696799 201.167318 
L 376.173111 189.602525 
L 376.649424 188.093345 
L 377.125736 192.561882 
L 377.602049 167.522279 
L 378.078361 170.521546 
L 378.554673 194.427888 
L 379.030986 190.031824 
L 379.507298 201.149368 
L 379.983611 204.915358 
L 380.459923 200.8684 
L 380.936236 195.139464 
L 381.88886 199.537452 
L 382.365173 197.319231 
L 383.317798 183.946166 
L 383.79411 192.367199 
L 384.270423 193.534806 
L 384.746735 168.414437 
L 385.223047 192.090433 
L 385.69936 194.063439 
L 386.175672 183.953408 
L 387.128297 187.68048 
L 387.604609 170.881346 
L 388.080922 175.711479 
L 388.557234 170.58339 
L 389.509859 196.558515 
L 389.986172 200.700981 
L 390.462484 166.906331 
L 390.938796 175.368341 
L 391.415109 170.020344 
L 391.891421 167.636879 
L 392.367734 194.554556 
L 392.844046 177.090218 
L 393.320359 175.280303 
L 393.796671 180.268741 
L 394.272983 175.551761 
L 394.749296 162.970419 
L 395.225608 172.80103 
L 395.701921 186.790328 
L 396.178233 190.221244 
L 396.654545 190.449038 
L 397.130858 204.250383 
L 397.60717 203.596536 
L 398.083483 204.856758 
L 398.559795 204.322514 
L 399.036108 205.910567 
L 399.51242 199.532528 
L 399.988732 197.071511 
L 400.465045 193.616926 
L 400.941357 200.653708 
L 401.41767 197.169442 
L 402.370294 229.741944 
L 402.846607 224.71581 
L 404.275544 206.055063 
L 404.751857 207.903403 
L 405.228169 208.771176 
L 405.704481 198.589377 
L 406.180794 199.688602 
L 406.657106 199.760079 
L 407.133419 197.204263 
L 407.609731 201.910924 
L 408.086044 201.817316 
L 408.562356 204.621826 
L 409.038668 201.585138 
L 409.514981 200.948583 
L 409.991293 203.005155 
L 410.467606 197.520707 
L 410.943918 196.068636 
L 411.42023 202.547241 
L 412.372855 187.033874 
L 412.849168 189.718785 
L 413.32548 186.472765 
L 413.801793 201.028434 
L 414.278105 186.345338 
L 414.754417 186.018258 
L 415.23073 204.164564 
L 415.707042 201.359103 
L 416.183355 193.864869 
L 416.659667 192.432028 
L 417.612292 205.790804 
L 418.088604 207.773239 
L 418.564917 206.992119 
L 419.041229 220.129796 
L 419.517542 226.839619 
L 419.993854 226.579321 
L 420.470166 228.659636 
L 420.946479 229.79459 
L 421.422791 231.99806 
L 421.899104 221.604896 
L 422.375416 206.473652 
L 422.851729 211.520098 
L 423.328041 203.354039 
L 423.804353 207.531435 
L 424.280666 205.932781 
L 424.756978 213.452081 
L 425.233291 209.485773 
L 425.709603 206.647059 
L 426.185915 205.094332 
L 426.662228 218.986848 
L 427.13854 220.74935 
L 427.614853 224.784947 
L 428.091165 205.727661 
L 428.567478 214.316897 
L 429.04379 209.296329 
L 429.520102 198.439024 
L 429.996415 197.12235 
L 430.472727 194.693095 
L 430.94904 196.084204 
L 431.425352 194.645103 
L 431.901665 197.970158 
L 432.377977 197.20176 
L 432.854289 193.548961 
L 433.330602 199.750564 
L 433.806914 194.296743 
L 434.283227 195.721494 
L 434.759539 194.924989 
L 435.235851 193.899011 
L 435.712164 190.338392 
L 436.188476 189.111809 
L 436.664789 174.904521 
L 437.617414 183.253399 
L 438.093726 199.167099 
L 438.570038 192.483003 
L 439.046351 202.539164 
L 439.522663 194.628904 
L 439.998976 195.186658 
L 440.475288 198.239679 
L 440.951601 193.853645 
L 441.427913 194.872825 
L 441.904225 205.891749 
L 442.380538 206.682231 
L 442.85685 202.151712 
L 443.333163 203.822509 
L 443.809475 205.966346 
L 444.285787 216.574742 
L 444.7621 233.804056 
L 445.238412 217.70247 
L 445.714725 213.428868 
L 446.191037 206.158359 
L 446.66735 212.255277 
L 447.143662 221.688875 
L 447.619974 203.499456 
L 448.096287 207.24517 
L 448.572599 208.774752 
L 449.048912 209.196396 
L 449.525224 217.284944 
L 450.001536 213.696275 
L 450.477849 222.021909 
L 450.954161 214.188577 
L 451.430474 214.068691 
L 451.906786 214.780734 
L 452.383099 210.762756 
L 452.859411 208.87644 
L 453.335723 210.750009 
L 453.812036 205.632949 
L 454.288348 222.398686 
L 454.764661 215.295559 
L 455.240973 220.688108 
L 455.717286 208.945496 
L 456.193598 208.07803 
L 456.66991 220.100972 
L 457.146223 225.056993 
L 457.622535 227.418686 
L 458.098848 237.714234 
L 458.57516 239.59147 
L 459.051472 254.744035 
L 459.527785 266.322209 
L 460.004097 269.599392 
L 460.48041 260.821835 
L 460.956722 262.896863 
L 461.433035 272.241482 
L 461.909347 265.282724 
L 462.385659 262.182719 
L 462.861972 262.577202 
L 463.338284 257.749281 
L 463.814597 246.690701 
L 464.290909 248.991305 
L 464.767222 253.62997 
L 465.243534 260.827304 
L 465.719846 272.082172 
L 466.196159 266.351649 
L 466.672471 274.156384 
L 467.148784 269.784071 
L 467.625096 267.955372 
L 468.101408 267.505986 
L 468.577721 265.568685 
L 469.530346 272.938656 
L 470.006658 272.659867 
L 470.482971 272.767314 
L 470.959283 277.519144 
L 471.435595 275.503508 
L 471.911908 275.00947 
L 472.38822 274.283041 
L 472.864533 268.260913 
L 473.340845 273.10614 
L 474.769782 252.243249 
L 475.246095 251.659305 
L 475.722407 251.39479 
L 476.19872 254.682158 
L 477.151344 275.874499 
L 478.103969 263.65462 
L 478.580282 269.794862 
L 479.056594 256.877591 
L 479.532907 262.687563 
L 480.009219 263.559257 
L 480.485531 272.770535 
L 480.961844 269.946021 
L 481.438156 274.127697 
L 481.914469 273.571026 
L 482.390781 277.28676 
L 482.867093 275.216295 
L 483.343406 280.252177 
L 484.296031 270.104247 
L 484.772343 271.195883 
L 485.248656 266.575645 
L 485.724968 268.802267 
L 486.20128 274.769315 
L 487.630218 253.080047 
L 488.10653 257.345835 
L 488.582843 263.777785 
L 489.059155 283.040513 
L 489.535467 268.206851 
L 490.488092 274.628553 
L 490.964405 276.766218 
L 491.440717 279.505527 
L 491.917029 279.934704 
L 492.393342 271.687662 
L 492.869654 274.524961 
L 493.345967 272.231929 
L 493.822279 273.038597 
L 494.298592 272.597447 
L 494.774904 276.173345 
L 495.251216 260.634207 
L 495.727529 259.568777 
L 496.203841 267.902675 
L 496.680154 264.667389 
L 496.680154 264.667389 
" clip-path="url(#p2576ef458a)" style="fill: none; stroke: #ff7f0e; stroke-width: 1.5; stroke-linecap: round"/>
   </g>
   <g id="patch_3">
    <path d="M 72 384.48 
L 72 51.84 
" style="fill: none; stroke: #ffffff; stroke-width: 0.8; stroke-linejoin: miter; stroke-linecap: square"/>
   </g>
   <g id="patch_4">
    <path d="M 518.4 384.48 
L 518.4 51.84 
" style="fill: none; stroke: #ffffff; stroke-width: 0.8; stroke-linejoin: miter; stroke-linecap: square"/>
   </g>
   <g id="patch_5">
    <path d="M 72 384.48 
L 518.4 384.48 
" style="fill: none; stroke: #ffffff; stroke-width: 0.8; stroke-linejoin: miter; stroke-linecap: square"/>
   </g>
   <g id="patch_6">
    <path d="M 72 51.84 
L 518.4 51.84 
" style="fill: none; stroke: #ffffff; stroke-width: 0.8; stroke-linejoin: miter; stroke-linecap: square"/>
   </g>
   <g id="text_16">
    <!-- Average Solar Radiation Prediction 28 Days Ahead -->
    <g style="fill: #262626" transform="translate(159.561562 45.84) scale(0.12 -0.12)">
     <defs>
      <path id="ArialMT-41" d="M -9 0 
L 1750 4581 
L 2403 4581 
L 4278 0 
L 3588 0 
L 3053 1388 
L 1138 1388 
L 634 0 
L -9 0 
z
M 1313 1881 
L 2866 1881 
L 2388 3150 
Q 2169 3728 2063 4100 
Q 1975 3659 1816 3225 
L 1313 1881 
z
" transform="scale(0.015625)"/>
      <path id="ArialMT-76" d="M 1344 0 
L 81 3319 
L 675 3319 
L 1388 1331 
Q 1503 1009 1600 663 
Q 1675 925 1809 1294 
L 2547 3319 
L 3125 3319 
L 1869 0 
L 1344 0 
z
" transform="scale(0.015625)"/>
      <path id="ArialMT-65" d="M 2694 1069 
L 3275 997 
Q 3138 488 2766 206 
Q 2394 -75 1816 -75 
Q 1088 -75 661 373 
Q 234 822 234 1631 
Q 234 2469 665 2931 
Q 1097 3394 1784 3394 
Q 2450 3394 2872 2941 
Q 3294 2488 3294 1666 
Q 3294 1616 3291 1516 
L 816 1516 
Q 847 969 1125 678 
Q 1403 388 1819 388 
Q 2128 388 2347 550 
Q 2566 713 2694 1069 
z
M 847 1978 
L 2700 1978 
Q 2663 2397 2488 2606 
Q 2219 2931 1791 2931 
Q 1403 2931 1139 2672 
Q 875 2413 847 1978 
z
" transform="scale(0.015625)"/>
      <path id="ArialMT-72" d="M 416 0 
L 416 3319 
L 922 3319 
L 922 2816 
Q 1116 3169 1280 3281 
Q 1444 3394 1641 3394 
Q 1925 3394 2219 3213 
L 2025 2691 
Q 1819 2813 1613 2813 
Q 1428 2813 1281 2702 
Q 1134 2591 1072 2394 
Q 978 2094 978 1738 
L 978 0 
L 416 0 
z
" transform="scale(0.015625)"/>
      <path id="ArialMT-67" d="M 319 -275 
L 866 -356 
Q 900 -609 1056 -725 
Q 1266 -881 1628 -881 
Q 2019 -881 2231 -725 
Q 2444 -569 2519 -288 
Q 2563 -116 2559 434 
Q 2191 0 1641 0 
Q 956 0 581 494 
Q 206 988 206 1678 
Q 206 2153 378 2554 
Q 550 2956 876 3175 
Q 1203 3394 1644 3394 
Q 2231 3394 2613 2919 
L 2613 3319 
L 3131 3319 
L 3131 450 
Q 3131 -325 2973 -648 
Q 2816 -972 2473 -1159 
Q 2131 -1347 1631 -1347 
Q 1038 -1347 672 -1080 
Q 306 -813 319 -275 
z
M 784 1719 
Q 784 1066 1043 766 
Q 1303 466 1694 466 
Q 2081 466 2343 764 
Q 2606 1063 2606 1700 
Q 2606 2309 2336 2618 
Q 2066 2928 1684 2928 
Q 1309 2928 1046 2623 
Q 784 2319 784 1719 
z
" transform="scale(0.015625)"/>
      <path id="ArialMT-20" transform="scale(0.015625)"/>
      <path id="ArialMT-53" d="M 288 1472 
L 859 1522 
Q 900 1178 1048 958 
Q 1197 738 1509 602 
Q 1822 466 2213 466 
Q 2559 466 2825 569 
Q 3091 672 3220 851 
Q 3350 1031 3350 1244 
Q 3350 1459 3225 1620 
Q 3100 1781 2813 1891 
Q 2628 1963 1997 2114 
Q 1366 2266 1113 2400 
Q 784 2572 623 2826 
Q 463 3081 463 3397 
Q 463 3744 659 4045 
Q 856 4347 1234 4503 
Q 1613 4659 2075 4659 
Q 2584 4659 2973 4495 
Q 3363 4331 3572 4012 
Q 3781 3694 3797 3291 
L 3216 3247 
Q 3169 3681 2898 3903 
Q 2628 4125 2100 4125 
Q 1550 4125 1298 3923 
Q 1047 3722 1047 3438 
Q 1047 3191 1225 3031 
Q 1400 2872 2139 2705 
Q 2878 2538 3153 2413 
Q 3553 2228 3743 1945 
Q 3934 1663 3934 1294 
Q 3934 928 3725 604 
Q 3516 281 3123 101 
Q 2731 -78 2241 -78 
Q 1619 -78 1198 103 
Q 778 284 539 648 
Q 300 1013 288 1472 
z
" transform="scale(0.015625)"/>
      <path id="ArialMT-6f" d="M 213 1659 
Q 213 2581 725 3025 
Q 1153 3394 1769 3394 
Q 2453 3394 2887 2945 
Q 3322 2497 3322 1706 
Q 3322 1066 3130 698 
Q 2938 331 2570 128 
Q 2203 -75 1769 -75 
Q 1072 -75 642 372 
Q 213 819 213 1659 
z
M 791 1659 
Q 791 1022 1069 705 
Q 1347 388 1769 388 
Q 2188 388 2466 706 
Q 2744 1025 2744 1678 
Q 2744 2294 2464 2611 
Q 2184 2928 1769 2928 
Q 1347 2928 1069 2612 
Q 791 2297 791 1659 
z
" transform="scale(0.015625)"/>
      <path id="ArialMT-6c" d="M 409 0 
L 409 4581 
L 972 4581 
L 972 0 
L 409 0 
z
" transform="scale(0.015625)"/>
      <path id="ArialMT-52" d="M 503 0 
L 503 4581 
L 2534 4581 
Q 3147 4581 3465 4457 
Q 3784 4334 3975 4021 
Q 4166 3709 4166 3331 
Q 4166 2844 3850 2509 
Q 3534 2175 2875 2084 
Q 3116 1969 3241 1856 
Q 3506 1613 3744 1247 
L 4541 0 
L 3778 0 
L 3172 953 
Q 2906 1366 2734 1584 
Q 2563 1803 2427 1890 
Q 2291 1978 2150 2013 
Q 2047 2034 1813 2034 
L 1109 2034 
L 1109 0 
L 503 0 
z
M 1109 2559 
L 2413 2559 
Q 2828 2559 3062 2645 
Q 3297 2731 3419 2920 
Q 3541 3109 3541 3331 
Q 3541 3656 3305 3865 
Q 3069 4075 2559 4075 
L 1109 4075 
L 1109 2559 
z
" transform="scale(0.015625)"/>
      <path id="ArialMT-64" d="M 2575 0 
L 2575 419 
Q 2259 -75 1647 -75 
Q 1250 -75 917 144 
Q 584 363 401 755 
Q 219 1147 219 1656 
Q 219 2153 384 2558 
Q 550 2963 881 3178 
Q 1213 3394 1622 3394 
Q 1922 3394 2156 3267 
Q 2391 3141 2538 2938 
L 2538 4581 
L 3097 4581 
L 3097 0 
L 2575 0 
z
M 797 1656 
Q 797 1019 1065 703 
Q 1334 388 1700 388 
Q 2069 388 2326 689 
Q 2584 991 2584 1609 
Q 2584 2291 2321 2609 
Q 2059 2928 1675 2928 
Q 1300 2928 1048 2622 
Q 797 2316 797 1656 
z
" transform="scale(0.015625)"/>
      <path id="ArialMT-69" d="M 425 3934 
L 425 4581 
L 988 4581 
L 988 3934 
L 425 3934 
z
M 425 0 
L 425 3319 
L 988 3319 
L 988 0 
L 425 0 
z
" transform="scale(0.015625)"/>
      <path id="ArialMT-74" d="M 1650 503 
L 1731 6 
Q 1494 -44 1306 -44 
Q 1000 -44 831 53 
Q 663 150 594 308 
Q 525 466 525 972 
L 525 2881 
L 113 2881 
L 113 3319 
L 525 3319 
L 525 4141 
L 1084 4478 
L 1084 3319 
L 1650 3319 
L 1650 2881 
L 1084 2881 
L 1084 941 
Q 1084 700 1114 631 
Q 1144 563 1211 522 
Q 1278 481 1403 481 
Q 1497 481 1650 503 
z
" transform="scale(0.015625)"/>
      <path id="ArialMT-6e" d="M 422 0 
L 422 3319 
L 928 3319 
L 928 2847 
Q 1294 3394 1984 3394 
Q 2284 3394 2536 3286 
Q 2788 3178 2913 3003 
Q 3038 2828 3088 2588 
Q 3119 2431 3119 2041 
L 3119 0 
L 2556 0 
L 2556 2019 
Q 2556 2363 2490 2533 
Q 2425 2703 2258 2804 
Q 2091 2906 1866 2906 
Q 1506 2906 1245 2678 
Q 984 2450 984 1813 
L 984 0 
L 422 0 
z
" transform="scale(0.015625)"/>
      <path id="ArialMT-50" d="M 494 0 
L 494 4581 
L 2222 4581 
Q 2678 4581 2919 4538 
Q 3256 4481 3484 4323 
Q 3713 4166 3852 3881 
Q 3991 3597 3991 3256 
Q 3991 2672 3619 2267 
Q 3247 1863 2275 1863 
L 1100 1863 
L 1100 0 
L 494 0 
z
M 1100 2403 
L 2284 2403 
Q 2872 2403 3119 2622 
Q 3366 2841 3366 3238 
Q 3366 3525 3220 3729 
Q 3075 3934 2838 4000 
Q 2684 4041 2272 4041 
L 1100 4041 
L 1100 2403 
z
" transform="scale(0.015625)"/>
      <path id="ArialMT-63" d="M 2588 1216 
L 3141 1144 
Q 3050 572 2676 248 
Q 2303 -75 1759 -75 
Q 1078 -75 664 370 
Q 250 816 250 1647 
Q 250 2184 428 2587 
Q 606 2991 970 3192 
Q 1334 3394 1763 3394 
Q 2303 3394 2647 3120 
Q 2991 2847 3088 2344 
L 2541 2259 
Q 2463 2594 2264 2762 
Q 2066 2931 1784 2931 
Q 1359 2931 1093 2626 
Q 828 2322 828 1663 
Q 828 994 1084 691 
Q 1341 388 1753 388 
Q 2084 388 2306 591 
Q 2528 794 2588 1216 
z
" transform="scale(0.015625)"/>
      <path id="ArialMT-68" d="M 422 0 
L 422 4581 
L 984 4581 
L 984 2938 
Q 1378 3394 1978 3394 
Q 2347 3394 2619 3248 
Q 2891 3103 3008 2847 
Q 3125 2591 3125 2103 
L 3125 0 
L 2563 0 
L 2563 2103 
Q 2563 2525 2380 2717 
Q 2197 2909 1863 2909 
Q 1613 2909 1392 2779 
Q 1172 2650 1078 2428 
Q 984 2206 984 1816 
L 984 0 
L 422 0 
z
" transform="scale(0.015625)"/>
     </defs>
     <use xlink:href="#ArialMT-41"/>
     <use xlink:href="#ArialMT-76" x="64.949219"/>
     <use xlink:href="#ArialMT-65" x="114.949219"/>
     <use xlink:href="#ArialMT-72" x="170.564453"/>
     <use xlink:href="#ArialMT-61" x="203.865234"/>
     <use xlink:href="#ArialMT-67" x="259.480469"/>
     <use xlink:href="#ArialMT-65" x="315.095703"/>
     <use xlink:href="#ArialMT-20" x="370.710938"/>
     <use xlink:href="#ArialMT-53" x="398.494141"/>
     <use xlink:href="#ArialMT-6f" x="465.193359"/>
     <use xlink:href="#ArialMT-6c" x="520.808594"/>
     <use xlink:href="#ArialMT-61" x="543.025391"/>
     <use xlink:href="#ArialMT-72" x="598.640625"/>
     <use xlink:href="#ArialMT-20" x="631.941406"/>
     <use xlink:href="#ArialMT-52" x="659.724609"/>
     <use xlink:href="#ArialMT-61" x="731.941406"/>
     <use xlink:href="#ArialMT-64" x="787.556641"/>
     <use xlink:href="#ArialMT-69" x="843.171875"/>
     <use xlink:href="#ArialMT-61" x="865.388672"/>
     <use xlink:href="#ArialMT-74" x="921.003906"/>
     <use xlink:href="#ArialMT-69" x="948.787109"/>
     <use xlink:href="#ArialMT-6f" x="971.003906"/>
     <use xlink:href="#ArialMT-6e" x="1026.619141"/>
     <use xlink:href="#ArialMT-20" x="1082.234375"/>
     <use xlink:href="#ArialMT-50" x="1110.017578"/>
     <use xlink:href="#ArialMT-72" x="1176.716797"/>
     <use xlink:href="#ArialMT-65" x="1210.017578"/>
     <use xlink:href="#ArialMT-64" x="1265.632812"/>
     <use xlink:href="#ArialMT-69" x="1321.248047"/>
     <use xlink:href="#ArialMT-63" x="1343.464844"/>
     <use xlink:href="#ArialMT-74" x="1393.464844"/>
     <use xlink:href="#ArialMT-69" x="1421.248047"/>
     <use xlink:href="#ArialMT-6f" x="1443.464844"/>
     <use xlink:href="#ArialMT-6e" x="1499.080078"/>
     <use xlink:href="#ArialMT-20" x="1554.695312"/>
     <use xlink:href="#ArialMT-32" x="1582.478516"/>
     <use xlink:href="#ArialMT-38" x="1638.09375"/>
     <use xlink:href="#ArialMT-20" x="1693.708984"/>
     <use xlink:href="#ArialMT-44" x="1721.492188"/>
     <use xlink:href="#ArialMT-61" x="1793.708984"/>
     <use xlink:href="#ArialMT-79" x="1849.324219"/>
     <use xlink:href="#ArialMT-73" x="1899.324219"/>
     <use xlink:href="#ArialMT-20" x="1949.324219"/>
     <use xlink:href="#ArialMT-41" x="1971.607422"/>
     <use xlink:href="#ArialMT-68" x="2038.306641"/>
     <use xlink:href="#ArialMT-65" x="2093.921875"/>
     <use xlink:href="#ArialMT-61" x="2149.537109"/>
     <use xlink:href="#ArialMT-64" x="2205.152344"/>
    </g>
   </g>
   <g id="legend_1">
    <g id="patch_7">
     <path d="M 437.15625 88.130625 
L 511.4 88.130625 
Q 513.4 88.130625 513.4 86.130625 
L 513.4 58.84 
Q 513.4 56.84 511.4 56.84 
L 437.15625 56.84 
Q 435.15625 56.84 435.15625 58.84 
L 435.15625 86.130625 
Q 435.15625 88.130625 437.15625 88.130625 
z
" style="fill: #eaeaf2; opacity: 0.8; stroke: #cccccc; stroke-linejoin: miter"/>
    </g>
    <g id="line2d_16">
     <path d="M 439.15625 64.497812 
L 449.15625 64.497812 
L 459.15625 64.497812 
" style="fill: none; stroke: #1f77b4; stroke-width: 1.5; stroke-linecap: round"/>
    </g>
    <g id="text_17">
     <!-- Real -->
     <g style="fill: #262626" transform="translate(467.15625 67.997812) scale(0.1 -0.1)">
      <use xlink:href="#ArialMT-52"/>
      <use xlink:href="#ArialMT-65" x="72.216797"/>
      <use xlink:href="#ArialMT-61" x="127.832031"/>
      <use xlink:href="#ArialMT-6c" x="183.447266"/>
     </g>
    </g>
    <g id="line2d_17">
     <path d="M 439.15625 78.643125 
L 449.15625 78.643125 
L 459.15625 78.643125 
" style="fill: none; stroke: #ff7f0e; stroke-width: 1.5; stroke-linecap: round"/>
    </g>
    <g id="text_18">
     <!-- Predicted -->
     <g style="fill: #262626" transform="translate(467.15625 82.143125) scale(0.1 -0.1)">
      <use xlink:href="#ArialMT-50"/>
      <use xlink:href="#ArialMT-72" x="66.699219"/>
      <use xlink:href="#ArialMT-65" x="100"/>
      <use xlink:href="#ArialMT-64" x="155.615234"/>
      <use xlink:href="#ArialMT-69" x="211.230469"/>
      <use xlink:href="#ArialMT-63" x="233.447266"/>
      <use xlink:href="#ArialMT-74" x="283.447266"/>
      <use xlink:href="#ArialMT-65" x="311.230469"/>
      <use xlink:href="#ArialMT-64" x="366.845703"/>
     </g>
    </g>
   </g>
  </g>
 </g>
 <defs>
  <clipPath id="p2576ef458a">
   <rect x="72" y="51.84" width="446.4" height="332.64"/>
  </clipPath>
 </defs>
</svg>
