<?xml version="1.0" encoding="utf-8" standalone="no"?>
<!DOCTYPE svg PUBLIC "-//W3C//DTD SVG 1.1//EN"
  "http://www.w3.org/Graphics/SVG/1.1/DTD/svg11.dtd">
<svg xmlns:xlink="http://www.w3.org/1999/xlink" width="576pt" height="432pt" viewBox="0 0 576 432" xmlns="http://www.w3.org/2000/svg" version="1.1">
 <metadata>
  <rdf:RDF xmlns:dc="http://purl.org/dc/elements/1.1/" xmlns:cc="http://creativecommons.org/ns#" xmlns:rdf="http://www.w3.org/1999/02/22-rdf-syntax-ns#">
   <cc:Work>
    <dc:type rdf:resource="http://purl.org/dc/dcmitype/StillImage"/>
    <dc:date>2023-11-17T05:07:34.190362</dc:date>
    <dc:format>image/svg+xml</dc:format>
    <dc:creator>
     <cc:Agent>
      <dc:title>Matplotlib v3.8.0, https://matplotlib.org/</dc:title>
     </cc:Agent>
    </dc:creator>
   </cc:Work>
  </rdf:RDF>
 </metadata>
 <defs>
  <style type="text/css">*{stroke-linejoin: round; stroke-linecap: butt}</style>
 </defs>
 <g id="figure_1">
  <g id="patch_1">
   <path d="M 0 432 
L 576 432 
L 576 0 
L 0 0 
z
" style="fill: #ffffff"/>
  </g>
  <g id="axes_1">
   <g id="patch_2">
    <path d="M 72 384.48 
L 518.4 384.48 
L 518.4 51.84 
L 72 51.84 
z
" style="fill: #eaeaf2"/>
   </g>
   <g id="matplotlib.axis_1">
    <g id="xtick_1">
     <g id="line2d_1">
      <path d="M 92.290909 384.48 
L 92.290909 51.84 
" clip-path="url(#p7a02afb3ca)" style="fill: none; stroke: #ffffff; stroke-width: 0.8; stroke-linecap: round"/>
     </g>
     <g id="text_1">
      <!-- 0 -->
      <g style="fill: #262626" transform="translate(89.51044 398.637812) scale(0.1 -0.1)">
       <defs>
        <path id="ArialMT-30" d="M 266 2259 
Q 266 3072 433 3567 
Q 600 4063 929 4331 
Q 1259 4600 1759 4600 
Q 2128 4600 2406 4451 
Q 2684 4303 2865 4023 
Q 3047 3744 3150 3342 
Q 3253 2941 3253 2259 
Q 3253 1453 3087 958 
Q 2922 463 2592 192 
Q 2263 -78 1759 -78 
Q 1097 -78 719 397 
Q 266 969 266 2259 
z
M 844 2259 
Q 844 1131 1108 757 
Q 1372 384 1759 384 
Q 2147 384 2411 759 
Q 2675 1134 2675 2259 
Q 2675 3391 2411 3762 
Q 2147 4134 1753 4134 
Q 1366 4134 1134 3806 
Q 844 3388 844 2259 
z
" transform="scale(0.015625)"/>
       </defs>
       <use xlink:href="#ArialMT-30"/>
      </g>
     </g>
    </g>
    <g id="xtick_2">
     <g id="line2d_2">
      <path d="M 187.553393 384.48 
L 187.553393 51.84 
" clip-path="url(#p7a02afb3ca)" style="fill: none; stroke: #ffffff; stroke-width: 0.8; stroke-linecap: round"/>
     </g>
     <g id="text_2">
      <!-- 200 -->
      <g style="fill: #262626" transform="translate(179.211987 398.637812) scale(0.1 -0.1)">
       <defs>
        <path id="ArialMT-32" d="M 3222 541 
L 3222 0 
L 194 0 
Q 188 203 259 391 
Q 375 700 629 1000 
Q 884 1300 1366 1694 
Q 2113 2306 2375 2664 
Q 2638 3022 2638 3341 
Q 2638 3675 2398 3904 
Q 2159 4134 1775 4134 
Q 1369 4134 1125 3890 
Q 881 3647 878 3216 
L 300 3275 
Q 359 3922 746 4261 
Q 1134 4600 1788 4600 
Q 2447 4600 2831 4234 
Q 3216 3869 3216 3328 
Q 3216 3053 3103 2787 
Q 2991 2522 2730 2228 
Q 2469 1934 1863 1422 
Q 1356 997 1212 845 
Q 1069 694 975 541 
L 3222 541 
z
" transform="scale(0.015625)"/>
       </defs>
       <use xlink:href="#ArialMT-32"/>
       <use xlink:href="#ArialMT-30" x="55.615234"/>
       <use xlink:href="#ArialMT-30" x="111.230469"/>
      </g>
     </g>
    </g>
    <g id="xtick_3">
     <g id="line2d_3">
      <path d="M 282.815877 384.48 
L 282.815877 51.84 
" clip-path="url(#p7a02afb3ca)" style="fill: none; stroke: #ffffff; stroke-width: 0.8; stroke-linecap: round"/>
     </g>
     <g id="text_3">
      <!-- 400 -->
      <g style="fill: #262626" transform="translate(274.474471 398.637812) scale(0.1 -0.1)">
       <defs>
        <path id="ArialMT-34" d="M 2069 0 
L 2069 1097 
L 81 1097 
L 81 1613 
L 2172 4581 
L 2631 4581 
L 2631 1613 
L 3250 1613 
L 3250 1097 
L 2631 1097 
L 2631 0 
L 2069 0 
z
M 2069 1613 
L 2069 3678 
L 634 1613 
L 2069 1613 
z
" transform="scale(0.015625)"/>
       </defs>
       <use xlink:href="#ArialMT-34"/>
       <use xlink:href="#ArialMT-30" x="55.615234"/>
       <use xlink:href="#ArialMT-30" x="111.230469"/>
      </g>
     </g>
    </g>
    <g id="xtick_4">
     <g id="line2d_4">
      <path d="M 378.078361 384.48 
L 378.078361 51.84 
" clip-path="url(#p7a02afb3ca)" style="fill: none; stroke: #ffffff; stroke-width: 0.8; stroke-linecap: round"/>
     </g>
     <g id="text_4">
      <!-- 600 -->
      <g style="fill: #262626" transform="translate(369.736955 398.637812) scale(0.1 -0.1)">
       <defs>
        <path id="ArialMT-36" d="M 3184 3459 
L 2625 3416 
Q 2550 3747 2413 3897 
Q 2184 4138 1850 4138 
Q 1581 4138 1378 3988 
Q 1113 3794 959 3422 
Q 806 3050 800 2363 
Q 1003 2672 1297 2822 
Q 1591 2972 1913 2972 
Q 2475 2972 2870 2558 
Q 3266 2144 3266 1488 
Q 3266 1056 3080 686 
Q 2894 316 2569 119 
Q 2244 -78 1831 -78 
Q 1128 -78 684 439 
Q 241 956 241 2144 
Q 241 3472 731 4075 
Q 1159 4600 1884 4600 
Q 2425 4600 2770 4297 
Q 3116 3994 3184 3459 
z
M 888 1484 
Q 888 1194 1011 928 
Q 1134 663 1356 523 
Q 1578 384 1822 384 
Q 2178 384 2434 671 
Q 2691 959 2691 1453 
Q 2691 1928 2437 2201 
Q 2184 2475 1800 2475 
Q 1419 2475 1153 2201 
Q 888 1928 888 1484 
z
" transform="scale(0.015625)"/>
       </defs>
       <use xlink:href="#ArialMT-36"/>
       <use xlink:href="#ArialMT-30" x="55.615234"/>
       <use xlink:href="#ArialMT-30" x="111.230469"/>
      </g>
     </g>
    </g>
    <g id="xtick_5">
     <g id="line2d_5">
      <path d="M 473.340845 384.48 
L 473.340845 51.84 
" clip-path="url(#p7a02afb3ca)" style="fill: none; stroke: #ffffff; stroke-width: 0.8; stroke-linecap: round"/>
     </g>
     <g id="text_5">
      <!-- 800 -->
      <g style="fill: #262626" transform="translate(464.999439 398.637812) scale(0.1 -0.1)">
       <defs>
        <path id="ArialMT-38" d="M 1131 2484 
Q 781 2613 612 2850 
Q 444 3088 444 3419 
Q 444 3919 803 4259 
Q 1163 4600 1759 4600 
Q 2359 4600 2725 4251 
Q 3091 3903 3091 3403 
Q 3091 3084 2923 2848 
Q 2756 2613 2416 2484 
Q 2838 2347 3058 2040 
Q 3278 1734 3278 1309 
Q 3278 722 2862 322 
Q 2447 -78 1769 -78 
Q 1091 -78 675 323 
Q 259 725 259 1325 
Q 259 1772 486 2073 
Q 713 2375 1131 2484 
z
M 1019 3438 
Q 1019 3113 1228 2906 
Q 1438 2700 1772 2700 
Q 2097 2700 2305 2904 
Q 2513 3109 2513 3406 
Q 2513 3716 2298 3927 
Q 2084 4138 1766 4138 
Q 1444 4138 1231 3931 
Q 1019 3725 1019 3438 
z
M 838 1322 
Q 838 1081 952 856 
Q 1066 631 1291 507 
Q 1516 384 1775 384 
Q 2178 384 2440 643 
Q 2703 903 2703 1303 
Q 2703 1709 2433 1975 
Q 2163 2241 1756 2241 
Q 1359 2241 1098 1978 
Q 838 1716 838 1322 
z
" transform="scale(0.015625)"/>
       </defs>
       <use xlink:href="#ArialMT-38"/>
       <use xlink:href="#ArialMT-30" x="55.615234"/>
       <use xlink:href="#ArialMT-30" x="111.230469"/>
      </g>
     </g>
    </g>
    <g id="text_6">
     <!-- Days -->
     <g style="fill: #262626" transform="translate(283.808594 411.783125) scale(0.1 -0.1)">
      <defs>
       <path id="ArialMT-44" d="M 494 0 
L 494 4581 
L 2072 4581 
Q 2606 4581 2888 4516 
Q 3281 4425 3559 4188 
Q 3922 3881 4101 3404 
Q 4281 2928 4281 2316 
Q 4281 1794 4159 1391 
Q 4038 988 3847 723 
Q 3656 459 3429 307 
Q 3203 156 2883 78 
Q 2563 0 2147 0 
L 494 0 
z
M 1100 541 
L 2078 541 
Q 2531 541 2789 625 
Q 3047 709 3200 863 
Q 3416 1078 3536 1442 
Q 3656 1806 3656 2325 
Q 3656 3044 3420 3430 
Q 3184 3816 2847 3947 
Q 2603 4041 2063 4041 
L 1100 4041 
L 1100 541 
z
" transform="scale(0.015625)"/>
       <path id="ArialMT-61" d="M 2588 409 
Q 2275 144 1986 34 
Q 1697 -75 1366 -75 
Q 819 -75 525 192 
Q 231 459 231 875 
Q 231 1119 342 1320 
Q 453 1522 633 1644 
Q 813 1766 1038 1828 
Q 1203 1872 1538 1913 
Q 2219 1994 2541 2106 
Q 2544 2222 2544 2253 
Q 2544 2597 2384 2738 
Q 2169 2928 1744 2928 
Q 1347 2928 1158 2789 
Q 969 2650 878 2297 
L 328 2372 
Q 403 2725 575 2942 
Q 747 3159 1072 3276 
Q 1397 3394 1825 3394 
Q 2250 3394 2515 3294 
Q 2781 3194 2906 3042 
Q 3031 2891 3081 2659 
Q 3109 2516 3109 2141 
L 3109 1391 
Q 3109 606 3145 398 
Q 3181 191 3288 0 
L 2700 0 
Q 2613 175 2588 409 
z
M 2541 1666 
Q 2234 1541 1622 1453 
Q 1275 1403 1131 1340 
Q 988 1278 909 1158 
Q 831 1038 831 891 
Q 831 666 1001 516 
Q 1172 366 1500 366 
Q 1825 366 2078 508 
Q 2331 650 2450 897 
Q 2541 1088 2541 1459 
L 2541 1666 
z
" transform="scale(0.015625)"/>
       <path id="ArialMT-79" d="M 397 -1278 
L 334 -750 
Q 519 -800 656 -800 
Q 844 -800 956 -737 
Q 1069 -675 1141 -563 
Q 1194 -478 1313 -144 
Q 1328 -97 1363 -6 
L 103 3319 
L 709 3319 
L 1400 1397 
Q 1534 1031 1641 628 
Q 1738 1016 1872 1384 
L 2581 3319 
L 3144 3319 
L 1881 -56 
Q 1678 -603 1566 -809 
Q 1416 -1088 1222 -1217 
Q 1028 -1347 759 -1347 
Q 597 -1347 397 -1278 
z
" transform="scale(0.015625)"/>
       <path id="ArialMT-73" d="M 197 991 
L 753 1078 
Q 800 744 1014 566 
Q 1228 388 1613 388 
Q 2000 388 2187 545 
Q 2375 703 2375 916 
Q 2375 1106 2209 1216 
Q 2094 1291 1634 1406 
Q 1016 1563 777 1677 
Q 538 1791 414 1992 
Q 291 2194 291 2438 
Q 291 2659 392 2848 
Q 494 3038 669 3163 
Q 800 3259 1026 3326 
Q 1253 3394 1513 3394 
Q 1903 3394 2198 3281 
Q 2494 3169 2634 2976 
Q 2775 2784 2828 2463 
L 2278 2388 
Q 2241 2644 2061 2787 
Q 1881 2931 1553 2931 
Q 1166 2931 1000 2803 
Q 834 2675 834 2503 
Q 834 2394 903 2306 
Q 972 2216 1119 2156 
Q 1203 2125 1616 2013 
Q 2213 1853 2448 1751 
Q 2684 1650 2818 1456 
Q 2953 1263 2953 975 
Q 2953 694 2789 445 
Q 2625 197 2315 61 
Q 2006 -75 1616 -75 
Q 969 -75 630 194 
Q 291 463 197 991 
z
" transform="scale(0.015625)"/>
      </defs>
      <use xlink:href="#ArialMT-44"/>
      <use xlink:href="#ArialMT-61" x="72.216797"/>
      <use xlink:href="#ArialMT-79" x="127.832031"/>
      <use xlink:href="#ArialMT-73" x="177.832031"/>
     </g>
    </g>
   </g>
   <g id="matplotlib.axis_2">
    <g id="ytick_1">
     <g id="line2d_6">
      <path d="M 72 351.892852 
L 518.4 351.892852 
" clip-path="url(#p7a02afb3ca)" style="fill: none; stroke: #ffffff; stroke-width: 0.8; stroke-linecap: round"/>
     </g>
     <g id="text_7">
      <!-- 5 -->
      <g style="fill: #262626" transform="translate(59.439062 355.471758) scale(0.1 -0.1)">
       <defs>
        <path id="ArialMT-35" d="M 266 1200 
L 856 1250 
Q 922 819 1161 601 
Q 1400 384 1738 384 
Q 2144 384 2425 690 
Q 2706 997 2706 1503 
Q 2706 1984 2436 2262 
Q 2166 2541 1728 2541 
Q 1456 2541 1237 2417 
Q 1019 2294 894 2097 
L 366 2166 
L 809 4519 
L 3088 4519 
L 3088 3981 
L 1259 3981 
L 1013 2750 
Q 1425 3038 1878 3038 
Q 2478 3038 2890 2622 
Q 3303 2206 3303 1553 
Q 3303 931 2941 478 
Q 2500 -78 1738 -78 
Q 1113 -78 717 272 
Q 322 622 266 1200 
z
" transform="scale(0.015625)"/>
       </defs>
       <use xlink:href="#ArialMT-35"/>
      </g>
     </g>
    </g>
    <g id="ytick_2">
     <g id="line2d_7">
      <path d="M 72 297.308014 
L 518.4 297.308014 
" clip-path="url(#p7a02afb3ca)" style="fill: none; stroke: #ffffff; stroke-width: 0.8; stroke-linecap: round"/>
     </g>
     <g id="text_8">
      <!-- 10 -->
      <g style="fill: #262626" transform="translate(53.878125 300.886921) scale(0.1 -0.1)">
       <defs>
        <path id="ArialMT-31" d="M 2384 0 
L 1822 0 
L 1822 3584 
Q 1619 3391 1289 3197 
Q 959 3003 697 2906 
L 697 3450 
Q 1169 3672 1522 3987 
Q 1875 4303 2022 4600 
L 2384 4600 
L 2384 0 
z
" transform="scale(0.015625)"/>
       </defs>
       <use xlink:href="#ArialMT-31"/>
       <use xlink:href="#ArialMT-30" x="55.615234"/>
      </g>
     </g>
    </g>
    <g id="ytick_3">
     <g id="line2d_8">
      <path d="M 72 242.723177 
L 518.4 242.723177 
" clip-path="url(#p7a02afb3ca)" style="fill: none; stroke: #ffffff; stroke-width: 0.8; stroke-linecap: round"/>
     </g>
     <g id="text_9">
      <!-- 15 -->
      <g style="fill: #262626" transform="translate(53.878125 246.302083) scale(0.1 -0.1)">
       <use xlink:href="#ArialMT-31"/>
       <use xlink:href="#ArialMT-35" x="55.615234"/>
      </g>
     </g>
    </g>
    <g id="ytick_4">
     <g id="line2d_9">
      <path d="M 72 188.138339 
L 518.4 188.138339 
" clip-path="url(#p7a02afb3ca)" style="fill: none; stroke: #ffffff; stroke-width: 0.8; stroke-linecap: round"/>
     </g>
     <g id="text_10">
      <!-- 20 -->
      <g style="fill: #262626" transform="translate(53.878125 191.717246) scale(0.1 -0.1)">
       <use xlink:href="#ArialMT-32"/>
       <use xlink:href="#ArialMT-30" x="55.615234"/>
      </g>
     </g>
    </g>
    <g id="ytick_5">
     <g id="line2d_10">
      <path d="M 72 133.553502 
L 518.4 133.553502 
" clip-path="url(#p7a02afb3ca)" style="fill: none; stroke: #ffffff; stroke-width: 0.8; stroke-linecap: round"/>
     </g>
     <g id="text_11">
      <!-- 25 -->
      <g style="fill: #262626" transform="translate(53.878125 137.132408) scale(0.1 -0.1)">
       <use xlink:href="#ArialMT-32"/>
       <use xlink:href="#ArialMT-35" x="55.615234"/>
      </g>
     </g>
    </g>
    <g id="ytick_6">
     <g id="line2d_11">
      <path d="M 72 78.968664 
L 518.4 78.968664 
" clip-path="url(#p7a02afb3ca)" style="fill: none; stroke: #ffffff; stroke-width: 0.8; stroke-linecap: round"/>
     </g>
     <g id="text_12">
      <!-- 30 -->
      <g style="fill: #262626" transform="translate(53.878125 82.547571) scale(0.1 -0.1)">
       <defs>
        <path id="ArialMT-33" d="M 269 1209 
L 831 1284 
Q 928 806 1161 595 
Q 1394 384 1728 384 
Q 2125 384 2398 659 
Q 2672 934 2672 1341 
Q 2672 1728 2419 1979 
Q 2166 2231 1775 2231 
Q 1616 2231 1378 2169 
L 1441 2663 
Q 1497 2656 1531 2656 
Q 1891 2656 2178 2843 
Q 2466 3031 2466 3422 
Q 2466 3731 2256 3934 
Q 2047 4138 1716 4138 
Q 1388 4138 1169 3931 
Q 950 3725 888 3313 
L 325 3413 
Q 428 3978 793 4289 
Q 1159 4600 1703 4600 
Q 2078 4600 2393 4439 
Q 2709 4278 2876 4000 
Q 3044 3722 3044 3409 
Q 3044 3113 2884 2869 
Q 2725 2625 2413 2481 
Q 2819 2388 3044 2092 
Q 3269 1797 3269 1353 
Q 3269 753 2831 336 
Q 2394 -81 1725 -81 
Q 1122 -81 723 278 
Q 325 638 269 1209 
z
" transform="scale(0.015625)"/>
       </defs>
       <use xlink:href="#ArialMT-33"/>
       <use xlink:href="#ArialMT-30" x="55.615234"/>
      </g>
     </g>
    </g>
    <g id="text_13">
     <!-- (°C) -->
     <g style="fill: #262626" transform="translate(47.773438 227.099844) rotate(-90) scale(0.1 -0.1)">
      <defs>
       <path id="ArialMT-28" d="M 1497 -1347 
Q 1031 -759 709 28 
Q 388 816 388 1659 
Q 388 2403 628 3084 
Q 909 3875 1497 4659 
L 1900 4659 
Q 1522 4009 1400 3731 
Q 1209 3300 1100 2831 
Q 966 2247 966 1656 
Q 966 153 1900 -1347 
L 1497 -1347 
z
" transform="scale(0.015625)"/>
       <path id="ArialMT-b0" d="M 400 3794 
Q 400 4153 654 4406 
Q 909 4659 1266 4659 
Q 1628 4659 1881 4406 
Q 2134 4153 2134 3794 
Q 2134 3434 1879 3179 
Q 1625 2925 1266 2925 
Q 909 2925 654 3178 
Q 400 3431 400 3794 
z
M 741 3794 
Q 741 3575 895 3420 
Q 1050 3266 1269 3266 
Q 1484 3266 1639 3420 
Q 1794 3575 1794 3794 
Q 1794 4013 1639 4167 
Q 1484 4322 1269 4322 
Q 1050 4322 895 4167 
Q 741 4013 741 3794 
z
" transform="scale(0.015625)"/>
       <path id="ArialMT-43" d="M 3763 1606 
L 4369 1453 
Q 4178 706 3683 314 
Q 3188 -78 2472 -78 
Q 1731 -78 1267 223 
Q 803 525 561 1097 
Q 319 1669 319 2325 
Q 319 3041 592 3573 
Q 866 4106 1370 4382 
Q 1875 4659 2481 4659 
Q 3169 4659 3637 4309 
Q 4106 3959 4291 3325 
L 3694 3184 
Q 3534 3684 3231 3912 
Q 2928 4141 2469 4141 
Q 1941 4141 1586 3887 
Q 1231 3634 1087 3207 
Q 944 2781 944 2328 
Q 944 1744 1114 1308 
Q 1284 872 1643 656 
Q 2003 441 2422 441 
Q 2931 441 3284 734 
Q 3638 1028 3763 1606 
z
" transform="scale(0.015625)"/>
       <path id="ArialMT-29" d="M 791 -1347 
L 388 -1347 
Q 1322 153 1322 1656 
Q 1322 2244 1188 2822 
Q 1081 3291 891 3722 
Q 769 4003 388 4659 
L 791 4659 
Q 1378 3875 1659 3084 
Q 1900 2403 1900 1659 
Q 1900 816 1576 28 
Q 1253 -759 791 -1347 
z
" transform="scale(0.015625)"/>
      </defs>
      <use xlink:href="#ArialMT-28"/>
      <use xlink:href="#ArialMT-b0" x="33.300781"/>
      <use xlink:href="#ArialMT-43" x="73.291016"/>
      <use xlink:href="#ArialMT-29" x="145.507812"/>
     </g>
    </g>
   </g>
   <g id="line2d_12">
    <path d="M 92.290909 159.754224 
L 92.767222 165.212708 
L 93.243534 163.029314 
L 93.719846 154.29574 
L 94.196159 167.396101 
L 94.672471 154.29574 
L 95.148784 146.653863 
L 95.625096 145.562166 
L 96.101408 295.124621 
L 96.577721 306.041588 
L 97.054033 294.032924 
L 97.530346 263.465415 
L 98.006658 249.273357 
L 98.482971 214.339061 
L 98.959283 247.089964 
L 99.435595 256.915235 
L 99.911908 256.915235 
L 100.38822 254.731841 
L 100.864533 224.164332 
L 101.340845 211.063971 
L 102.29347 237.264693 
L 102.769782 205.605487 
L 103.246095 203.422094 
L 103.722407 193.596823 
L 104.675032 223.072635 
L 105.151344 255.823538 
L 105.627657 218.705848 
L 106.103969 197.96361 
L 106.580282 200.147004 
L 107.532907 164.121011 
L 108.009219 291.849531 
L 108.485531 298.399711 
L 108.961844 290.757834 
L 109.438156 315.866859 
L 109.914469 351.892852 
L 110.390781 366.08491 
L 111.343406 336.609097 
L 111.819718 300.583105 
L 112.772343 268.923899 
L 113.724968 244.90657 
L 114.677593 313.683466 
L 115.153905 268.923899 
L 115.630218 249.273357 
L 116.10653 245.998267 
L 116.582843 219.797545 
L 117.059155 255.823538 
L 117.535467 230.714513 
L 118.01178 262.373718 
L 118.488092 276.565776 
L 118.964405 274.382383 
L 119.440717 252.548448 
L 119.917029 289.666137 
L 120.869654 298.399711 
L 121.345967 297.308014 
L 121.822279 283.115957 
L 122.298592 251.456751 
L 122.774904 272.198989 
L 123.251216 322.41704 
L 123.727529 327.875523 
L 124.203841 291.849531 
L 124.680154 296.216318 
L 125.156466 287.482744 
L 125.632778 219.797545 
L 126.109091 300.583105 
L 126.585403 294.032924 
L 127.061716 271.107292 
L 127.538028 266.740505 
L 128.014341 258.006931 
L 128.490653 223.072635 
L 129.443278 275.474079 
L 129.91959 330.058917 
L 130.395903 345.342671 
L 130.872215 332.24231 
L 131.348528 315.866859 
L 131.82484 315.866859 
L 132.301152 352.984549 
L 132.777465 313.683466 
L 133.253777 307.133285 
L 133.73009 280.932563 
L 134.206402 244.90657 
L 134.682714 236.172996 
L 135.159027 282.02426 
L 135.635339 285.29935 
L 136.111652 264.557112 
L 136.587964 264.557112 
L 137.064277 304.949892 
L 137.540589 306.041588 
L 138.016901 309.316679 
L 138.493214 283.115957 
L 138.969526 267.832202 
L 139.445839 238.35639 
L 139.922151 266.740505 
L 140.398464 314.775162 
L 140.874776 332.24231 
L 141.351088 295.124621 
L 141.827401 297.308014 
L 142.303713 328.96722 
L 143.256338 279.840866 
L 143.73265 289.666137 
L 144.208963 303.858195 
L 144.685275 308.224982 
L 145.161588 347.526065 
L 145.6379 298.399711 
L 146.590525 243.814874 
L 147.066837 243.814874 
L 148.019462 219.797545 
L 148.495775 208.880578 
L 148.972087 208.880578 
L 149.448399 327.875523 
L 149.924712 347.526065 
L 150.401024 336.609097 
L 150.877337 285.29935 
L 151.353649 263.465415 
L 151.829962 309.316679 
L 152.306274 282.02426 
L 152.782586 226.347726 
L 153.258899 188.138339 
L 153.735211 189.230036 
L 154.211524 260.190325 
L 154.687836 265.648809 
L 155.164149 299.491408 
L 155.640461 291.849531 
L 156.593086 238.35639 
L 157.545711 274.382383 
L 158.022023 253.640144 
L 158.974648 183.771552 
L 159.45096 193.596823 
L 159.927273 196.871913 
L 160.403585 252.548448 
L 160.879898 361.718123 
L 161.35621 366.08491 
L 161.832522 338.792491 
L 162.308835 343.159278 
L 162.785147 250.365054 
L 163.737772 194.68852 
L 164.214085 172.854585 
L 164.690397 191.41343 
L 165.166709 191.41343 
L 165.643022 185.954946 
L 166.119334 302.766498 
L 167.071959 294.032924 
L 167.548271 310.408375 
L 168.024584 300.583105 
L 168.500896 252.548448 
L 168.977209 247.089964 
L 169.453521 236.172996 
L 169.929834 221.980939 
L 170.882458 184.863249 
L 171.358771 203.422094 
L 172.311396 216.522455 
L 172.787708 215.430758 
L 173.26402 249.273357 
L 173.740333 308.224982 
L 174.216645 326.783827 
L 174.692958 302.766498 
L 175.16927 250.365054 
L 175.645583 228.531119 
L 176.121895 195.780217 
L 176.598207 195.780217 
L 177.07452 185.954946 
L 177.550832 193.596823 
L 178.027145 191.41343 
L 178.503457 203.422094 
L 178.97977 157.57083 
L 179.932394 196.871913 
L 180.408707 259.098628 
L 180.885019 252.548448 
L 181.361332 226.347726 
L 181.837644 190.321733 
L 182.313956 178.313069 
L 183.266581 221.980939 
L 183.742894 213.247365 
L 184.219206 207.788881 
L 184.695519 189.230036 
L 185.171831 178.313069 
L 185.648143 194.68852 
L 186.124456 173.946282 
L 186.600768 200.147004 
L 187.077081 197.96361 
L 187.553393 183.771552 
L 188.029706 163.029314 
L 188.506018 169.579495 
L 188.98233 155.387437 
L 189.458643 164.121011 
L 189.934955 169.579495 
L 190.88758 195.780217 
L 191.363892 187.046643 
L 191.840205 153.204043 
L 192.316517 132.461805 
L 192.79283 203.422094 
L 193.269142 215.430758 
L 193.745455 207.788881 
L 194.698079 172.854585 
L 195.174392 180.496462 
L 195.650704 171.762888 
L 197.079641 130.278412 
L 198.032266 147.74556 
L 198.508579 140.103682 
L 198.984891 135.736895 
L 199.461204 133.553502 
L 200.413828 152.112347 
L 200.890141 149.928953 
L 201.366453 151.02065 
L 201.842766 147.74556 
L 202.319078 131.370108 
L 202.795391 143.378773 
L 203.271703 151.02065 
L 203.748015 141.195379 
L 204.224328 140.103682 
L 204.70064 146.653863 
L 205.176953 142.287076 
L 205.653265 147.74556 
L 206.129577 116.086354 
L 206.60589 111.719567 
L 207.082202 118.269747 
L 207.558515 166.304404 
L 208.034827 159.754224 
L 208.51114 165.212708 
L 208.987452 151.02065 
L 209.463764 153.204043 
L 209.940077 145.562166 
L 210.416389 142.287076 
L 210.892702 136.828592 
L 211.369014 141.195379 
L 211.845327 119.361444 
L 212.321639 104.07769 
L 213.274264 128.095018 
L 213.750576 128.095018 
L 214.226889 154.29574 
L 214.703201 172.854585 
L 215.179513 151.02065 
L 215.655826 151.02065 
L 216.132138 155.387437 
L 216.608451 156.479134 
L 217.084763 160.845921 
L 217.561076 159.754224 
L 218.037388 146.653863 
L 218.5137 136.828592 
L 218.990013 133.553502 
L 219.466325 135.736895 
L 219.942638 146.653863 
L 220.41895 135.736895 
L 220.895262 136.828592 
L 221.371575 136.828592 
L 221.847887 127.003321 
L 222.800512 166.304404 
L 223.276825 80.060361 
L 223.753137 118.269747 
L 224.229449 120.453141 
L 224.705762 130.278412 
L 225.182074 131.370108 
L 225.658387 143.378773 
L 226.134699 140.103682 
L 226.611012 141.195379 
L 227.087324 149.928953 
L 227.563636 133.553502 
L 228.039949 144.470469 
L 228.516261 168.487798 
L 228.992574 165.212708 
L 229.945198 154.29574 
L 230.421511 141.195379 
L 230.897823 151.02065 
L 231.374136 141.195379 
L 231.850448 142.287076 
L 232.803073 132.461805 
L 233.755698 123.728231 
L 234.23201 121.544838 
L 234.708323 121.544838 
L 235.184635 128.095018 
L 235.660948 128.095018 
L 236.13726 129.186715 
L 236.613572 128.095018 
L 237.089885 129.186715 
L 237.566197 129.186715 
L 238.04251 124.819928 
L 238.518822 127.003321 
L 238.995134 112.811264 
L 239.471447 118.269747 
L 239.947759 121.544838 
L 240.424072 131.370108 
L 240.900384 119.361444 
L 241.376697 119.361444 
L 241.853009 154.29574 
L 242.329321 131.370108 
L 242.805634 127.003321 
L 243.281946 146.653863 
L 243.758259 144.470469 
L 244.234571 135.736895 
L 244.710883 135.736895 
L 245.187196 163.029314 
L 245.663508 145.562166 
L 246.139821 137.920289 
L 246.616133 135.736895 
L 247.092446 145.562166 
L 247.568758 144.470469 
L 248.04507 156.479134 
L 248.521383 184.863249 
L 248.997695 181.588159 
L 249.474008 122.636534 
L 249.95032 149.928953 
L 250.426633 158.662527 
L 250.902945 157.57083 
L 251.379257 165.212708 
L 251.85557 161.937617 
L 252.331882 152.112347 
L 252.808195 148.837256 
L 253.760819 130.278412 
L 254.237132 132.461805 
L 254.713444 151.02065 
L 255.189757 152.112347 
L 255.666069 145.562166 
L 256.142382 144.470469 
L 256.618694 140.103682 
L 257.095006 134.645199 
L 258.047631 151.02065 
L 258.523944 141.195379 
L 259.000256 147.74556 
L 259.476569 146.653863 
L 259.952881 157.57083 
L 260.429193 154.29574 
L 260.905506 163.029314 
L 261.381818 159.754224 
L 261.858131 154.29574 
L 262.334443 160.845921 
L 262.810755 164.121011 
L 263.287068 160.845921 
L 263.76338 156.479134 
L 264.239693 267.832202 
L 264.716005 273.290686 
L 265.66863 179.404765 
L 266.144942 158.662527 
L 266.621255 204.513791 
L 267.097567 213.247365 
L 267.57388 204.513791 
L 268.050192 184.863249 
L 268.526504 151.02065 
L 269.002817 156.479134 
L 269.479129 180.496462 
L 269.955442 195.780217 
L 270.431754 178.313069 
L 270.908067 262.373718 
L 271.384379 271.107292 
L 271.860691 252.548448 
L 272.813316 180.496462 
L 273.289629 284.207653 
L 273.765941 286.391047 
L 274.242254 302.766498 
L 274.718566 266.740505 
L 275.194878 251.456751 
L 275.671191 231.806209 
L 276.147503 197.96361 
L 276.623816 176.129675 
L 277.57644 284.207653 
L 278.052753 272.198989 
L 278.529065 243.814874 
L 279.005378 285.29935 
L 279.48169 362.809819 
L 279.958003 369.36 
L 280.434315 338.792491 
L 280.910627 290.757834 
L 281.38694 300.583105 
L 282.339565 251.456751 
L 282.815877 240.539783 
L 283.29219 204.513791 
L 283.768502 191.41343 
L 284.244814 197.96361 
L 284.721127 237.264693 
L 285.197439 265.648809 
L 286.150064 229.622816 
L 286.626376 224.164332 
L 287.102689 253.640144 
L 287.579001 256.915235 
L 288.055314 217.614152 
L 288.531626 220.889242 
L 289.007939 267.832202 
L 289.484251 285.29935 
L 289.960563 254.731841 
L 290.436876 252.548448 
L 290.913188 233.989603 
L 291.389501 241.63148 
L 291.865813 251.456751 
L 292.342125 235.0813 
L 292.818438 262.373718 
L 293.29475 300.583105 
L 293.771063 315.866859 
L 294.247375 296.216318 
L 294.723688 240.539783 
L 295.2 250.365054 
L 295.676312 219.797545 
L 296.152625 315.866859 
L 297.10525 352.984549 
L 297.581562 270.015596 
L 298.057875 289.666137 
L 298.534187 319.141949 
L 299.010499 321.325343 
L 299.963124 272.198989 
L 300.439437 236.172996 
L 300.915749 225.256029 
L 301.392061 219.797545 
L 301.868374 229.622816 
L 302.344686 275.474079 
L 302.820999 296.216318 
L 303.773624 271.107292 
L 304.249936 272.198989 
L 304.726248 308.224982 
L 305.202561 314.775162 
L 306.155186 262.373718 
L 306.631498 275.474079 
L 307.10781 259.098628 
L 307.584123 262.373718 
L 308.060435 277.657473 
L 308.536748 306.041588 
L 309.01306 262.373718 
L 309.489373 260.190325 
L 310.441997 200.147004 
L 310.91831 202.330397 
L 311.394622 215.430758 
L 311.870935 266.740505 
L 312.82356 292.941227 
L 313.299872 265.648809 
L 313.776184 286.391047 
L 314.252497 273.290686 
L 315.205122 231.806209 
L 315.681434 244.90657 
L 316.157746 235.0813 
L 316.634059 270.015596 
L 317.110371 286.391047 
L 317.586684 313.683466 
L 318.062996 288.57444 
L 318.539309 297.308014 
L 319.015621 252.548448 
L 319.491933 245.998267 
L 320.444558 361.718123 
L 321.397183 285.29935 
L 321.873496 204.513791 
L 322.349808 213.247365 
L 322.82612 273.290686 
L 323.302433 287.482744 
L 323.778745 296.216318 
L 324.255058 292.941227 
L 325.207682 261.282022 
L 325.683995 228.531119 
L 326.160307 203.422094 
L 327.112932 316.958556 
L 327.589245 330.058917 
L 328.065557 308.224982 
L 328.541869 278.74917 
L 329.018182 237.264693 
L 329.494494 215.430758 
L 329.970807 301.674801 
L 330.447119 336.609097 
L 330.923431 327.875523 
L 331.876056 264.557112 
L 332.352369 219.797545 
L 332.828681 194.68852 
L 333.304994 193.596823 
L 333.781306 273.290686 
L 334.257618 261.282022 
L 334.733931 262.373718 
L 335.686556 214.339061 
L 336.639181 202.330397 
L 337.115493 205.605487 
L 337.591805 199.055307 
L 338.068118 171.762888 
L 338.54443 179.404765 
L 339.020743 199.055307 
L 339.497055 195.780217 
L 339.973367 190.321733 
L 340.44968 196.871913 
L 340.925992 217.614152 
L 341.402305 245.998267 
L 341.878617 248.181661 
L 342.35493 214.339061 
L 342.831242 199.055307 
L 343.307554 169.579495 
L 343.783867 176.129675 
L 344.260179 176.129675 
L 344.736492 143.378773 
L 345.212804 211.063971 
L 345.689117 227.439422 
L 346.165429 171.762888 
L 346.641741 204.513791 
L 347.118054 178.313069 
L 347.594366 158.662527 
L 348.070679 232.897906 
L 348.546991 230.714513 
L 349.023303 219.797545 
L 349.499616 185.954946 
L 349.975928 177.221372 
L 350.452241 154.29574 
L 350.928553 181.588159 
L 351.404866 187.046643 
L 351.881178 190.321733 
L 352.35749 192.505126 
L 353.310115 275.474079 
L 353.786428 253.640144 
L 354.26274 218.705848 
L 354.739052 166.304404 
L 355.215365 179.404765 
L 355.691677 171.762888 
L 356.16799 152.112347 
L 356.644302 137.920289 
L 357.596927 165.212708 
L 358.073239 151.02065 
L 358.549552 202.330397 
L 359.025864 176.129675 
L 359.978489 159.754224 
L 360.454802 176.129675 
L 360.931114 205.605487 
L 361.407426 177.221372 
L 361.883739 156.479134 
L 362.360051 153.204043 
L 362.836364 178.313069 
L 363.312676 168.487798 
L 363.788988 188.138339 
L 364.741613 199.055307 
L 365.217926 201.2387 
L 365.694238 190.321733 
L 366.170551 183.771552 
L 366.646863 165.212708 
L 367.123175 163.029314 
L 367.599488 147.74556 
L 368.0758 165.212708 
L 368.552113 188.138339 
L 369.504738 156.479134 
L 369.98105 132.461805 
L 370.457362 142.287076 
L 370.933675 167.396101 
L 371.409987 151.02065 
L 371.8863 155.387437 
L 372.362612 175.037978 
L 372.838924 178.313069 
L 373.315237 175.037978 
L 373.791549 145.562166 
L 374.267862 196.871913 
L 374.744174 165.212708 
L 375.220487 184.863249 
L 375.696799 190.321733 
L 376.649424 158.662527 
L 377.125736 149.928953 
L 377.602049 151.02065 
L 378.078361 148.837256 
L 378.554673 144.470469 
L 379.030986 143.378773 
L 379.507298 183.771552 
L 379.983611 154.29574 
L 380.459923 166.304404 
L 380.936236 182.679856 
L 381.412548 176.129675 
L 381.88886 176.129675 
L 382.365173 175.037978 
L 383.317798 149.928953 
L 383.79411 155.387437 
L 384.270423 175.037978 
L 384.746735 142.287076 
L 385.223047 135.736895 
L 385.69936 134.645199 
L 386.175672 136.828592 
L 386.651985 180.496462 
L 387.128297 176.129675 
L 387.604609 157.57083 
L 388.080922 144.470469 
L 388.557234 158.662527 
L 389.033547 131.370108 
L 389.509859 140.103682 
L 389.986172 133.553502 
L 390.462484 136.828592 
L 390.938796 143.378773 
L 391.415109 136.828592 
L 391.891421 148.837256 
L 392.367734 136.828592 
L 392.844046 129.186715 
L 393.320359 125.911625 
L 393.796671 121.544838 
L 394.272983 129.186715 
L 394.749296 134.645199 
L 395.225608 137.920289 
L 395.701921 132.461805 
L 396.178233 137.920289 
L 396.654545 137.920289 
L 397.130858 130.278412 
L 397.60717 127.003321 
L 398.083483 159.754224 
L 398.559795 156.479134 
L 399.036108 142.287076 
L 399.51242 140.103682 
L 399.988732 145.562166 
L 400.941357 131.370108 
L 401.41767 140.103682 
L 401.893982 173.946282 
L 402.370294 145.562166 
L 402.846607 169.579495 
L 403.322919 176.129675 
L 403.799232 161.937617 
L 404.275544 143.378773 
L 404.751857 180.496462 
L 405.228169 161.937617 
L 405.704481 157.57083 
L 406.657106 141.195379 
L 407.133419 142.287076 
L 407.609731 141.195379 
L 408.086044 141.195379 
L 408.562356 163.029314 
L 409.038668 163.029314 
L 409.514981 159.754224 
L 409.991293 142.287076 
L 410.467606 143.378773 
L 410.943918 151.02065 
L 411.42023 149.928953 
L 411.896543 129.186715 
L 412.372855 137.920289 
L 412.849168 132.461805 
L 413.32548 135.736895 
L 413.801793 142.287076 
L 414.278105 106.261083 
L 414.754417 148.837256 
L 415.23073 142.287076 
L 415.707042 123.728231 
L 416.183355 131.370108 
L 416.659667 133.553502 
L 417.612292 127.003321 
L 418.088604 119.361444 
L 418.564917 66.96 
L 419.041229 134.645199 
L 419.517542 133.553502 
L 419.993854 161.937617 
L 420.470166 152.112347 
L 420.946479 163.029314 
L 421.422791 146.653863 
L 421.899104 146.653863 
L 422.375416 66.96 
L 422.851729 120.453141 
L 423.328041 117.178051 
L 423.804353 136.828592 
L 424.280666 135.736895 
L 425.233291 135.736895 
L 425.709603 137.920289 
L 426.185915 137.920289 
L 426.662228 140.103682 
L 427.13854 134.645199 
L 427.614853 142.287076 
L 428.091165 144.470469 
L 428.567478 145.562166 
L 429.04379 141.195379 
L 429.520102 128.095018 
L 429.996415 129.186715 
L 430.472727 128.095018 
L 430.94904 141.195379 
L 431.901665 139.011986 
L 432.854289 141.195379 
L 433.330602 131.370108 
L 433.806914 149.928953 
L 434.283227 146.653863 
L 434.759539 146.653863 
L 435.235851 148.837256 
L 435.712164 131.370108 
L 436.188476 139.011986 
L 436.664789 133.553502 
L 437.141101 133.553502 
L 437.617414 137.920289 
L 438.570038 125.911625 
L 439.046351 117.178051 
L 439.522663 125.911625 
L 440.475288 151.02065 
L 440.951601 149.928953 
L 441.427913 140.103682 
L 441.904225 125.911625 
L 442.380538 154.29574 
L 442.85685 163.029314 
L 443.333163 160.845921 
L 443.809475 146.653863 
L 444.7621 171.762888 
L 445.238412 181.588159 
L 445.714725 182.679856 
L 446.191037 173.946282 
L 446.66735 175.037978 
L 447.143662 156.479134 
L 447.619974 161.937617 
L 448.096287 158.662527 
L 448.572599 163.029314 
L 449.525224 156.479134 
L 450.001536 160.845921 
L 450.477849 160.845921 
L 450.954161 167.396101 
L 451.430474 155.387437 
L 451.906786 151.02065 
L 452.383099 154.29574 
L 452.859411 154.29574 
L 453.812036 165.212708 
L 454.288348 155.387437 
L 454.764661 156.479134 
L 455.240973 178.313069 
L 455.717286 192.505126 
L 456.193598 169.579495 
L 456.66991 189.230036 
L 457.146223 201.2387 
L 457.622535 202.330397 
L 458.57516 179.404765 
L 459.051472 173.946282 
L 459.527785 175.037978 
L 460.48041 221.980939 
L 460.956722 196.871913 
L 461.433035 205.605487 
L 461.909347 189.230036 
L 462.385659 196.871913 
L 462.861972 194.68852 
L 463.338284 172.854585 
L 463.814597 175.037978 
L 464.290909 163.029314 
L 464.767222 155.387437 
L 465.243534 201.2387 
L 465.719846 259.098628 
L 466.196159 243.814874 
L 466.672471 270.015596 
L 467.148784 243.814874 
L 467.625096 231.806209 
L 468.577721 187.046643 
L 469.054033 196.871913 
L 469.530346 242.723177 
L 470.006658 230.714513 
L 470.482971 199.055307 
L 470.959283 233.989603 
L 471.435595 242.723177 
L 472.38822 209.972274 
L 472.864533 208.880578 
L 473.340845 192.505126 
L 473.817157 180.496462 
L 474.29347 197.96361 
L 474.769782 239.448087 
L 475.246095 203.422094 
L 475.722407 176.129675 
L 476.19872 189.230036 
L 476.675032 182.679856 
L 477.151344 189.230036 
L 477.627657 261.282022 
L 478.103969 299.491408 
L 479.056594 273.290686 
L 480.009219 338.792491 
L 480.485531 314.775162 
L 480.961844 332.24231 
L 481.438156 340.975884 
L 481.914469 337.700794 
L 483.343406 243.814874 
L 483.819718 273.290686 
L 484.772343 299.491408 
L 485.248656 275.474079 
L 485.724968 237.264693 
L 486.677593 291.849531 
L 487.153905 267.832202 
L 487.630218 220.889242 
L 488.10653 185.954946 
L 488.582843 201.2387 
L 489.059155 212.155668 
L 489.535467 232.897906 
L 490.01178 199.055307 
L 490.488092 208.880578 
L 490.964405 213.247365 
L 491.440717 238.35639 
L 491.917029 250.365054 
L 492.393342 274.382383 
L 492.869654 283.115957 
L 493.345967 288.57444 
L 493.822279 320.233646 
L 494.298592 295.124621 
L 494.774904 302.766498 
L 495.251216 298.399711 
L 495.727529 302.766498 
L 496.203841 196.871913 
L 496.680154 189.230036 
L 497.156466 171.762888 
L 497.632778 169.579495 
L 498.109091 215.430758 
L 498.109091 215.430758 
" clip-path="url(#p7a02afb3ca)" style="fill: none; stroke: #1f77b4; stroke-width: 1.5; stroke-linecap: round"/>
   </g>
   <g id="line2d_13">
    <path d="M 92.290909 165.006173 
L 92.767222 165.198619 
L 93.243534 167.539769 
L 94.196159 152.620239 
L 94.672471 155.070031 
L 95.148784 268.960885 
L 95.625096 302.983349 
L 96.101408 272.378971 
L 96.577721 257.104003 
L 97.530346 204.404372 
L 98.006658 243.705884 
L 98.482971 241.265238 
L 98.959283 247.29529 
L 99.435595 250.495285 
L 99.911908 226.753923 
L 100.38822 218.723481 
L 100.864533 222.54933 
L 101.340845 232.278614 
L 101.817157 215.494005 
L 102.29347 206.96596 
L 102.769782 212.097115 
L 103.246095 230.700282 
L 103.722407 238.115588 
L 104.19872 239.500457 
L 104.675032 218.040348 
L 105.151344 206.515354 
L 105.627657 208.15156 
L 106.103969 179.476776 
L 106.580282 190.080837 
L 107.056594 283.729354 
L 107.532907 307.351614 
L 108.009219 261.039471 
L 108.485531 297.468319 
L 108.961844 345.098132 
L 109.438156 327.385859 
L 109.914469 313.88716 
L 110.390781 306.213518 
L 110.867093 296.397515 
L 111.343406 276.010025 
L 111.819718 242.636174 
L 112.296031 268.256178 
L 112.772343 268.478207 
L 113.248656 305.963768 
L 113.724968 301.090703 
L 114.20128 255.574306 
L 114.677593 249.425851 
L 115.153905 259.920741 
L 115.630218 246.674556 
L 116.10653 265.564433 
L 116.582843 259.89669 
L 117.059155 283.867733 
L 117.535467 289.428236 
L 118.01178 264.909203 
L 118.488092 253.300096 
L 118.964405 279.935298 
L 119.440717 295.287124 
L 119.917029 302.355748 
L 120.393342 294.836282 
L 120.869654 269.067189 
L 121.345967 258.318759 
L 121.822279 303.786493 
L 122.298592 303.410807 
L 122.774904 314.836779 
L 123.251216 281.213015 
L 123.727529 283.212416 
L 124.203841 277.060072 
L 124.680154 249.716826 
L 125.156466 299.084854 
L 125.632778 268.409275 
L 126.109091 278.359983 
L 126.585403 264.708143 
L 127.061716 247.798279 
L 127.538028 237.186429 
L 128.014341 273.571442 
L 128.966965 326.818622 
L 129.443278 327.017745 
L 129.91959 308.563276 
L 130.395903 312.597292 
L 130.872215 306.889578 
L 131.348528 323.832146 
L 131.82484 285.114558 
L 132.301152 283.595558 
L 133.253777 249.239477 
L 133.73009 260.745294 
L 134.206402 291.264688 
L 134.682714 292.78999 
L 135.159027 251.664274 
L 135.635339 269.188076 
L 136.111652 318.096124 
L 136.587964 307.716688 
L 137.064277 303.992977 
L 137.540589 284.908493 
L 138.016901 260.964419 
L 138.493214 246.328931 
L 139.445839 303.120548 
L 139.922151 297.597226 
L 140.398464 276.272036 
L 140.874776 319.971005 
L 141.351088 301.59663 
L 141.827401 305.040745 
L 142.303713 286.830002 
L 142.780026 282.36577 
L 143.256338 281.089642 
L 143.73265 323.885977 
L 144.208963 317.347559 
L 144.685275 287.212752 
L 145.161588 278.474785 
L 145.6379 246.705525 
L 146.114213 250.063077 
L 146.590525 251.431816 
L 147.066837 226.968328 
L 147.54315 231.811324 
L 148.019462 228.640714 
L 148.495775 339.193489 
L 148.972087 344.500514 
L 149.924712 268.867934 
L 150.401024 291.77349 
L 150.877337 285.508693 
L 151.353649 262.419733 
L 151.829962 224.951611 
L 152.306274 221.131536 
L 152.782586 232.579361 
L 153.258899 285.681031 
L 153.735211 271.224719 
L 154.211524 285.929901 
L 155.640461 261.558686 
L 156.116773 273.534355 
L 156.593086 267.007195 
L 157.069398 239.998101 
L 157.545711 219.996495 
L 158.022023 231.713906 
L 158.498335 209.22091 
L 158.974648 209.524597 
L 159.45096 246.166074 
L 159.927273 334.916687 
L 160.403585 337.2173 
L 161.35621 295.448112 
L 161.832522 235.304284 
L 162.308835 224.681943 
L 162.785147 226.31307 
L 163.26146 192.087355 
L 163.737772 197.033158 
L 164.214085 197.882048 
L 164.690397 200.317378 
L 165.166709 295.149508 
L 165.643022 296.366577 
L 166.119334 275.159297 
L 166.595647 298.446261 
L 167.071959 288.674603 
L 167.548271 247.667287 
L 168.500896 235.909997 
L 168.977209 245.050112 
L 169.453521 229.940974 
L 169.929834 203.651323 
L 170.406146 214.889389 
L 170.882458 219.807785 
L 171.358771 222.845416 
L 171.835083 220.032954 
L 172.311396 237.258253 
L 172.787708 319.498915 
L 173.26402 309.043764 
L 173.740333 287.166853 
L 174.216645 241.605284 
L 174.692958 214.396222 
L 175.16927 202.674165 
L 175.645583 194.851729 
L 176.121895 195.195856 
L 176.598207 209.075377 
L 177.07452 200.172307 
L 177.550832 197.3038 
L 178.027145 176.022239 
L 178.503457 209.848175 
L 178.97977 208.966155 
L 179.456082 277.625373 
L 179.932394 235.986702 
L 180.408707 207.138552 
L 180.885019 186.187327 
L 181.361332 195.569856 
L 181.837644 192.532744 
L 182.313956 206.911843 
L 182.790269 196.198445 
L 183.266581 196.466506 
L 183.742894 198.113092 
L 184.219206 180.797898 
L 184.695519 183.798327 
L 185.171831 180.390663 
L 185.648143 188.901889 
L 186.124456 191.843553 
L 186.600768 185.991331 
L 187.077081 164.796222 
L 187.553393 162.667899 
L 188.029706 169.066295 
L 188.506018 167.257893 
L 188.98233 167.007759 
L 189.934955 185.368321 
L 190.411268 186.082731 
L 190.88758 152.380438 
L 191.363892 153.003371 
L 191.840205 206.916623 
L 192.316517 217.732529 
L 193.269142 186.043751 
L 193.745455 175.484525 
L 194.221767 182.395333 
L 195.174392 163.293068 
L 195.650704 145.030818 
L 196.127017 155.957151 
L 196.603329 153.240383 
L 197.079641 152.52787 
L 197.555954 152.947905 
L 198.032266 155.640121 
L 198.508579 150.178763 
L 198.984891 147.29841 
L 199.461204 155.511149 
L 200.413828 145.912047 
L 200.890141 144.227639 
L 201.366453 152.293675 
L 201.842766 143.460962 
L 202.319078 148.601758 
L 202.795391 143.461403 
L 203.271703 143.461403 
L 203.748015 144.158311 
L 204.224328 142.373799 
L 204.70064 134.540456 
L 205.176953 133.395505 
L 205.653265 137.756359 
L 206.129577 137.756359 
L 207.082202 163.322204 
L 207.558515 154.677216 
L 208.034827 150.390139 
L 208.51114 150.532365 
L 209.463764 139.33663 
L 209.940077 139.912831 
L 210.416389 139.157383 
L 210.892702 136.599628 
L 211.369014 136.682967 
L 211.845327 143.766722 
L 212.321639 140.605615 
L 212.797951 134.301586 
L 213.274264 144.424476 
L 213.750576 167.217523 
L 214.226889 154.274252 
L 214.703201 148.142239 
L 215.179513 150.490859 
L 215.655826 149.484894 
L 216.132138 150.169538 
L 216.608451 149.372048 
L 217.084763 144.332061 
L 217.561076 145.976696 
L 218.037388 142.64665 
L 218.5137 143.019127 
L 218.990013 142.745648 
L 219.466325 141.201699 
L 219.942638 134.875371 
L 220.41895 134.312382 
L 220.895262 134.321382 
L 221.371575 145.274338 
L 221.847887 149.089744 
L 222.3242 132.197031 
L 222.800512 133.198128 
L 223.276825 135.547212 
L 223.753137 137.319883 
L 224.229449 137.58792 
L 225.182074 137.713695 
L 225.658387 139.319656 
L 226.134699 142.50156 
L 226.611012 144.435501 
L 227.087324 147.555007 
L 227.563636 162.718722 
L 228.039949 154.497746 
L 228.516261 151.964876 
L 228.992574 152.103484 
L 229.468886 142.926959 
L 229.945198 147.541089 
L 230.421511 140.131031 
L 230.897823 138.576169 
L 231.374136 137.7876 
L 231.850448 135.480135 
L 232.326761 137.643133 
L 232.803073 134.319095 
L 233.279385 134.047895 
L 233.755698 134.047895 
L 234.23201 135.214208 
L 234.708323 135.950247 
L 235.184635 135.487695 
L 236.13726 135.03711 
L 237.089885 134.097986 
L 237.566197 134.047895 
L 238.518822 135.676722 
L 238.995134 135.959135 
L 239.471447 136.978685 
L 239.947759 136.262957 
L 240.424072 135.949778 
L 240.900384 145.182561 
L 241.376697 136.859716 
L 241.853009 141.118297 
L 242.329321 143.298551 
L 242.805634 143.521947 
L 243.281946 131.690587 
L 244.234571 152.719653 
L 244.710883 144.128256 
L 245.187196 142.099557 
L 245.663508 144.194062 
L 246.139821 148.797888 
L 246.616133 144.238459 
L 247.092446 152.78329 
L 247.568758 189.240852 
L 248.04507 157.765148 
L 248.521383 142.202973 
L 248.997695 154.946745 
L 249.474008 162.094019 
L 249.95032 160.170007 
L 250.426633 156.999127 
L 250.902945 155.815579 
L 251.379257 154.144937 
L 251.85557 145.563404 
L 252.331882 147.809285 
L 252.808195 148.518723 
L 253.284507 146.789769 
L 253.760819 152.361638 
L 254.237132 152.818914 
L 254.713444 150.387137 
L 255.189757 152.640819 
L 255.666069 148.074635 
L 256.142382 144.786643 
L 257.095006 153.409122 
L 258.047631 151.463101 
L 258.523944 149.702813 
L 259.000256 154.934283 
L 259.476569 154.422426 
L 259.952881 158.909315 
L 260.429193 152.054831 
L 260.905506 148.468383 
L 261.381818 155.377413 
L 261.858131 159.674939 
L 262.334443 153.972263 
L 262.810755 153.332711 
L 263.287068 235.978432 
L 263.76338 272.129831 
L 264.239693 205.039432 
L 264.716005 172.991603 
L 265.192318 160.892716 
L 265.66863 193.76078 
L 266.144942 199.631645 
L 266.621255 189.749535 
L 267.097567 170.659348 
L 267.57388 166.164614 
L 268.050192 172.246126 
L 268.526504 190.32159 
L 269.002817 192.824697 
L 269.479129 176.217069 
L 269.955442 252.209747 
L 270.431754 244.112867 
L 270.908067 226.32709 
L 271.384379 203.776364 
L 271.860691 190.602823 
L 272.337004 266.756468 
L 272.813316 293.181752 
L 273.289629 286.459786 
L 273.765941 247.928876 
L 274.242254 237.991209 
L 274.718566 217.23779 
L 275.194878 202.960161 
L 275.671191 198.768993 
L 276.147503 215.27344 
L 276.623816 292.110618 
L 277.57644 234.593255 
L 278.052753 254.607638 
L 278.529065 348.107783 
L 279.005378 329.616485 
L 279.958003 286.506235 
L 280.434315 278.110276 
L 280.910627 250.126488 
L 281.38694 259.321594 
L 281.863252 237.455529 
L 282.339565 229.388098 
L 282.815877 215.178918 
L 283.29219 212.679151 
L 283.768502 248.619986 
L 284.244814 246.769824 
L 284.721127 231.615873 
L 285.197439 231.335988 
L 285.673752 266.79086 
L 286.150064 269.189592 
L 286.626376 240.583343 
L 287.102689 223.985398 
L 287.579001 258.156882 
L 288.055314 274.424044 
L 288.531626 252.66711 
L 289.007939 250.586721 
L 289.484251 253.140511 
L 289.960563 245.136322 
L 290.436876 245.122123 
L 290.913188 243.10826 
L 291.389501 234.811912 
L 291.865813 283.475305 
L 292.342125 317.008595 
L 293.29475 268.157764 
L 293.771063 243.496596 
L 294.247375 250.522039 
L 294.723688 233.77894 
L 295.2 324.471851 
L 295.676312 325.41084 
L 296.152625 324.811043 
L 296.628937 270.980748 
L 297.581562 292.915372 
L 298.057875 294.418429 
L 298.534187 282.280213 
L 299.010499 273.733107 
L 299.963124 241.115716 
L 300.439437 233.107823 
L 300.915749 254.031537 
L 301.392061 297.756077 
L 301.868374 310.848019 
L 302.344686 265.018597 
L 302.820999 272.68392 
L 303.297311 299.757323 
L 303.773624 316.367714 
L 304.726248 263.088851 
L 305.202561 277.427013 
L 305.678873 250.798371 
L 306.155186 241.682279 
L 306.631498 263.483525 
L 307.10781 299.145289 
L 307.584123 290.093673 
L 308.060435 251.831224 
L 308.536748 249.039366 
L 309.01306 237.359764 
L 309.489373 232.792844 
L 309.965685 230.690263 
L 310.441997 229.536129 
L 310.91831 277.506935 
L 311.394622 285.77188 
L 311.870935 291.19888 
L 312.347247 258.920568 
L 312.82356 278.328667 
L 313.299872 287.096524 
L 313.776184 255.932152 
L 314.252497 238.802899 
L 314.728809 249.053115 
L 315.205122 250.585657 
L 315.681434 281.796332 
L 316.157746 284.91998 
L 316.634059 305.01465 
L 317.110371 285.608946 
L 317.586684 272.070227 
L 318.062996 250.097112 
L 318.539309 260.181885 
L 319.015621 315.012051 
L 319.491933 331.904746 
L 319.968246 291.701321 
L 320.444558 277.609478 
L 320.920871 220.878323 
L 321.397183 236.04892 
L 321.873496 295.780672 
L 322.349808 295.585422 
L 322.82612 299.96351 
L 323.302433 302.600156 
L 323.778745 268.636709 
L 324.255058 248.896438 
L 325.207682 232.489525 
L 325.683995 283.989237 
L 326.160307 307.374302 
L 326.63662 317.313167 
L 327.589245 258.383754 
L 328.065557 236.771192 
L 328.541869 236.443299 
L 329.018182 326.167473 
L 329.494494 320.965078 
L 329.970807 304.516443 
L 330.923431 236.742019 
L 331.399744 225.181653 
L 331.876056 244.573163 
L 332.352369 233.528096 
L 332.828681 295.992281 
L 333.304994 263.532355 
L 333.781306 251.392568 
L 334.257618 232.026173 
L 334.733931 232.043671 
L 335.210243 230.923039 
L 335.686556 205.227134 
L 336.162868 211.033563 
L 337.115493 182.053376 
L 337.591805 188.712141 
L 338.068118 211.510874 
L 338.54443 197.180086 
L 339.020743 201.168211 
L 339.497055 184.10387 
L 339.973367 224.485128 
L 340.44968 246.278215 
L 340.925992 231.936813 
L 341.402305 204.264664 
L 342.35493 169.853748 
L 342.831242 182.764675 
L 343.307554 184.837066 
L 343.783867 181.254904 
L 344.260179 231.194635 
L 344.736492 210.217255 
L 345.212804 171.305108 
L 345.689117 197.651387 
L 346.165429 185.183063 
L 346.641741 178.648318 
L 347.118054 233.615937 
L 347.594366 241.72521 
L 348.546991 185.224312 
L 349.023303 181.079617 
L 349.499616 163.985107 
L 349.975928 190.502648 
L 350.452241 193.178677 
L 350.928553 180.22412 
L 351.404866 192.324523 
L 352.35749 273.48438 
L 352.833803 245.086788 
L 353.786428 169.449411 
L 354.26274 173.628661 
L 354.739052 168.778327 
L 355.215365 172.572065 
L 355.691677 154.902858 
L 356.16799 153.228767 
L 356.644302 159.198963 
L 357.120615 157.339297 
L 357.596927 204.17034 
L 358.073239 176.19852 
L 358.549552 158.119975 
L 359.025864 154.880726 
L 359.502177 176.74666 
L 359.978489 180.450371 
L 360.931114 151.437973 
L 361.407426 149.27477 
L 361.883739 165.54676 
L 362.360051 164.891263 
L 363.312676 180.847385 
L 363.788988 199.070817 
L 364.741613 186.807174 
L 365.694238 166.60061 
L 366.170551 162.482772 
L 366.646863 156.86161 
L 367.123175 164.705419 
L 367.599488 179.269553 
L 368.0758 159.529376 
L 368.552113 157.48888 
L 369.028425 152.866706 
L 369.504738 162.297753 
L 369.98105 158.692911 
L 370.457362 153.62619 
L 370.933675 158.86276 
L 371.8863 182.148109 
L 372.838924 146.961482 
L 373.315237 185.775566 
L 373.791549 165.612934 
L 374.744174 183.342024 
L 375.696799 158.994671 
L 376.173111 154.389346 
L 376.649424 160.670836 
L 377.602049 141.32195 
L 378.078361 147.023178 
L 378.554673 178.093499 
L 379.030986 164.229757 
L 379.507298 166.645855 
L 379.983611 171.082611 
L 380.459923 166.929977 
L 380.936236 164.779558 
L 381.412548 164.496271 
L 381.88886 158.654221 
L 382.841485 150.901191 
L 383.317798 161.965134 
L 383.79411 144.920057 
L 384.270423 147.33074 
L 384.746735 145.577891 
L 385.223047 142.862103 
L 385.69936 165.221189 
L 386.175672 170.506318 
L 386.651985 160.053608 
L 387.128297 156.368685 
L 387.604609 133.665588 
L 388.080922 147.467163 
L 388.557234 150.504865 
L 389.033547 144.274016 
L 389.509859 144.129613 
L 389.986172 143.861198 
L 390.462484 144.18594 
L 390.938796 155.919397 
L 391.415109 139.926301 
L 391.891421 139.861052 
L 392.367734 146.32575 
L 392.844046 161.760048 
L 393.320359 136.521713 
L 393.796671 135.256739 
L 394.272983 135.915405 
L 394.749296 135.85089 
L 395.225608 136.002153 
L 395.701921 139.934946 
L 396.178233 132.971025 
L 396.654545 138.424289 
L 397.130858 156.035688 
L 397.60717 158.106091 
L 398.083483 144.080349 
L 398.559795 144.595018 
L 399.036108 145.816023 
L 399.988732 136.187205 
L 400.465045 145.034382 
L 400.941357 169.085711 
L 401.41767 164.200962 
L 401.893982 166.509629 
L 402.370294 170.958939 
L 402.846607 161.186236 
L 403.322919 149.082542 
L 403.799232 164.903414 
L 404.275544 151.408181 
L 404.751857 151.027841 
L 405.228169 149.108633 
L 405.704481 148.963331 
L 406.180794 151.373639 
L 406.657106 148.050194 
L 407.133419 147.290642 
L 407.609731 154.373471 
L 408.086044 154.679283 
L 408.562356 153.32827 
L 409.038668 143.726539 
L 409.514981 145.176891 
L 409.991293 148.719727 
L 410.467606 146.654126 
L 410.943918 143.308715 
L 411.42023 145.432288 
L 411.896543 143.204993 
L 412.372855 133.417476 
L 412.849168 138.394148 
L 413.801793 146.661704 
L 414.754417 134.423867 
L 415.23073 136.286252 
L 415.707042 140.430586 
L 416.183355 141.513693 
L 416.659667 137.856224 
L 417.13598 146.991708 
L 417.612292 117.796106 
L 418.088604 143.459339 
L 418.564917 145.472041 
L 419.041229 166.362172 
L 419.993854 159.703504 
L 420.470166 153.217996 
L 420.946479 154.348374 
L 421.422791 134.493779 
L 421.899104 136.059001 
L 422.375416 135.372344 
L 422.851729 137.064401 
L 423.328041 133.665814 
L 423.804353 136.131413 
L 424.280666 143.862597 
L 424.756978 139.752271 
L 425.233291 140.643317 
L 425.709603 143.146583 
L 426.185915 140.981415 
L 426.662228 143.116612 
L 427.13854 142.282087 
L 427.614853 140.618582 
L 428.091165 136.661699 
L 428.567478 137.54244 
L 429.04379 144.571085 
L 429.520102 130.921005 
L 429.996415 142.705817 
L 430.472727 142.588174 
L 430.94904 141.25191 
L 431.425352 134.533643 
L 431.901665 136.414071 
L 432.377977 135.874297 
L 432.854289 150.66127 
L 433.330602 144.238459 
L 433.806914 146.496475 
L 434.283227 149.75158 
L 434.759539 144.818793 
L 435.235851 142.823215 
L 435.712164 136.183526 
L 436.188476 139.261717 
L 436.664789 138.922146 
L 437.141101 135.098084 
L 437.617414 132.830795 
L 438.093726 137.749536 
L 438.570038 137.666645 
L 439.046351 142.842173 
L 439.522663 156.464441 
L 439.998976 146.120755 
L 440.475288 144.143654 
L 440.951601 139.219005 
L 441.904225 159.948611 
L 442.380538 155.017864 
L 442.85685 145.540946 
L 443.333163 159.644388 
L 443.809475 163.432172 
L 444.285787 183.154544 
L 444.7621 173.914965 
L 445.714725 161.799907 
L 446.191037 152.691859 
L 446.66735 162.628314 
L 447.143662 157.545715 
L 447.619974 154.261015 
L 448.096287 156.159944 
L 448.572599 155.467897 
L 449.048912 163.549032 
L 449.525224 159.76411 
L 450.001536 158.100165 
L 450.477849 155.127583 
L 450.954161 151.17412 
L 451.430474 156.227542 
L 451.906786 154.926851 
L 452.383099 157.657033 
L 452.859411 156.988196 
L 453.335723 153.99077 
L 453.812036 154.140895 
L 454.288348 172.84297 
L 454.764661 183.297088 
L 455.240973 166.764355 
L 455.717286 182.304266 
L 456.193598 180.750011 
L 456.66991 181.709537 
L 457.146223 187.627291 
L 457.622535 176.466706 
L 458.098848 174.416935 
L 458.57516 174.591743 
L 459.527785 213.124048 
L 460.004097 192.133376 
L 460.48041 193.716327 
L 460.956722 194.880134 
L 461.433035 199.044574 
L 462.385659 172.59689 
L 462.861972 172.753912 
L 463.338284 167.14194 
L 463.814597 165.285525 
L 464.290909 194.411089 
L 464.767222 270.005868 
L 465.243534 240.154079 
L 465.719846 244.396575 
L 466.196159 215.77313 
L 466.672471 219.23575 
L 467.148784 202.544145 
L 467.625096 191.288456 
L 468.101408 204.108826 
L 468.577721 235.465586 
L 469.054033 221.712755 
L 469.530346 200.87533 
L 470.006658 234.464745 
L 470.482971 233.854704 
L 471.435595 224.479908 
L 471.911908 225.627403 
L 472.38822 198.855132 
L 472.864533 195.125604 
L 473.340845 204.089278 
L 473.817157 226.397827 
L 474.29347 204.226331 
L 474.769782 192.212995 
L 475.246095 194.133596 
L 475.722407 188.157124 
L 476.19872 202.015918 
L 476.675032 282.006299 
L 477.151344 278.993782 
L 477.627657 249.308819 
L 478.580282 310.078665 
L 479.056594 327.072039 
L 479.532907 300.574901 
L 480.009219 320.699299 
L 480.485531 330.086743 
L 480.961844 322.872611 
L 482.390781 248.613115 
L 482.867093 297.82475 
L 483.343406 279.744809 
L 483.819718 281.118777 
L 484.296031 278.026638 
L 484.772343 241.904201 
L 485.248656 289.001823 
L 485.724968 294.478526 
L 486.20128 257.321852 
L 486.677593 237.97913 
L 487.153905 203.556138 
L 487.630218 227.019727 
L 488.10653 228.454871 
L 488.582843 239.757864 
L 489.059155 222.068178 
L 489.535467 239.724012 
L 490.01178 239.1496 
L 490.488092 239.471579 
L 490.964405 271.036923 
L 491.440717 289.844213 
L 491.917029 275.700436 
L 492.393342 302.943735 
L 492.869654 315.984085 
L 493.345967 284.48393 
L 493.822279 300.845674 
L 494.298592 302.769226 
L 494.774904 275.619595 
L 495.251216 204.138507 
L 495.727529 221.843865 
L 496.203841 196.81498 
L 496.680154 187.230218 
L 496.680154 187.230218 
" clip-path="url(#p7a02afb3ca)" style="fill: none; stroke: #ff7f0e; stroke-width: 1.5; stroke-linecap: round"/>
   </g>
   <g id="patch_3">
    <path d="M 72 384.48 
L 72 51.84 
" style="fill: none; stroke: #ffffff; stroke-width: 0.8; stroke-linejoin: miter; stroke-linecap: square"/>
   </g>
   <g id="patch_4">
    <path d="M 518.4 384.48 
L 518.4 51.84 
" style="fill: none; stroke: #ffffff; stroke-width: 0.8; stroke-linejoin: miter; stroke-linecap: square"/>
   </g>
   <g id="patch_5">
    <path d="M 72 384.48 
L 518.4 384.48 
" style="fill: none; stroke: #ffffff; stroke-width: 0.8; stroke-linejoin: miter; stroke-linecap: square"/>
   </g>
   <g id="patch_6">
    <path d="M 72 51.84 
L 518.4 51.84 
" style="fill: none; stroke: #ffffff; stroke-width: 0.8; stroke-linejoin: miter; stroke-linecap: square"/>
   </g>
   <g id="text_14">
    <!-- Minimum Temperature Prediction 22 Days Ahead -->
    <g style="fill: #262626" transform="translate(164.920312 45.84) scale(0.12 -0.12)">
     <defs>
      <path id="ArialMT-4d" d="M 475 0 
L 475 4581 
L 1388 4581 
L 2472 1338 
Q 2622 884 2691 659 
Q 2769 909 2934 1394 
L 4031 4581 
L 4847 4581 
L 4847 0 
L 4263 0 
L 4263 3834 
L 2931 0 
L 2384 0 
L 1059 3900 
L 1059 0 
L 475 0 
z
" transform="scale(0.015625)"/>
      <path id="ArialMT-69" d="M 425 3934 
L 425 4581 
L 988 4581 
L 988 3934 
L 425 3934 
z
M 425 0 
L 425 3319 
L 988 3319 
L 988 0 
L 425 0 
z
" transform="scale(0.015625)"/>
      <path id="ArialMT-6e" d="M 422 0 
L 422 3319 
L 928 3319 
L 928 2847 
Q 1294 3394 1984 3394 
Q 2284 3394 2536 3286 
Q 2788 3178 2913 3003 
Q 3038 2828 3088 2588 
Q 3119 2431 3119 2041 
L 3119 0 
L 2556 0 
L 2556 2019 
Q 2556 2363 2490 2533 
Q 2425 2703 2258 2804 
Q 2091 2906 1866 2906 
Q 1506 2906 1245 2678 
Q 984 2450 984 1813 
L 984 0 
L 422 0 
z
" transform="scale(0.015625)"/>
      <path id="ArialMT-6d" d="M 422 0 
L 422 3319 
L 925 3319 
L 925 2853 
Q 1081 3097 1340 3245 
Q 1600 3394 1931 3394 
Q 2300 3394 2536 3241 
Q 2772 3088 2869 2813 
Q 3263 3394 3894 3394 
Q 4388 3394 4653 3120 
Q 4919 2847 4919 2278 
L 4919 0 
L 4359 0 
L 4359 2091 
Q 4359 2428 4304 2576 
Q 4250 2725 4106 2815 
Q 3963 2906 3769 2906 
Q 3419 2906 3187 2673 
Q 2956 2441 2956 1928 
L 2956 0 
L 2394 0 
L 2394 2156 
Q 2394 2531 2256 2718 
Q 2119 2906 1806 2906 
Q 1569 2906 1367 2781 
Q 1166 2656 1075 2415 
Q 984 2175 984 1722 
L 984 0 
L 422 0 
z
" transform="scale(0.015625)"/>
      <path id="ArialMT-75" d="M 2597 0 
L 2597 488 
Q 2209 -75 1544 -75 
Q 1250 -75 995 37 
Q 741 150 617 320 
Q 494 491 444 738 
Q 409 903 409 1263 
L 409 3319 
L 972 3319 
L 972 1478 
Q 972 1038 1006 884 
Q 1059 663 1231 536 
Q 1403 409 1656 409 
Q 1909 409 2131 539 
Q 2353 669 2445 892 
Q 2538 1116 2538 1541 
L 2538 3319 
L 3100 3319 
L 3100 0 
L 2597 0 
z
" transform="scale(0.015625)"/>
      <path id="ArialMT-20" transform="scale(0.015625)"/>
      <path id="ArialMT-54" d="M 1659 0 
L 1659 4041 
L 150 4041 
L 150 4581 
L 3781 4581 
L 3781 4041 
L 2266 4041 
L 2266 0 
L 1659 0 
z
" transform="scale(0.015625)"/>
      <path id="ArialMT-65" d="M 2694 1069 
L 3275 997 
Q 3138 488 2766 206 
Q 2394 -75 1816 -75 
Q 1088 -75 661 373 
Q 234 822 234 1631 
Q 234 2469 665 2931 
Q 1097 3394 1784 3394 
Q 2450 3394 2872 2941 
Q 3294 2488 3294 1666 
Q 3294 1616 3291 1516 
L 816 1516 
Q 847 969 1125 678 
Q 1403 388 1819 388 
Q 2128 388 2347 550 
Q 2566 713 2694 1069 
z
M 847 1978 
L 2700 1978 
Q 2663 2397 2488 2606 
Q 2219 2931 1791 2931 
Q 1403 2931 1139 2672 
Q 875 2413 847 1978 
z
" transform="scale(0.015625)"/>
      <path id="ArialMT-70" d="M 422 -1272 
L 422 3319 
L 934 3319 
L 934 2888 
Q 1116 3141 1344 3267 
Q 1572 3394 1897 3394 
Q 2322 3394 2647 3175 
Q 2972 2956 3137 2557 
Q 3303 2159 3303 1684 
Q 3303 1175 3120 767 
Q 2938 359 2589 142 
Q 2241 -75 1856 -75 
Q 1575 -75 1351 44 
Q 1128 163 984 344 
L 984 -1272 
L 422 -1272 
z
M 931 1641 
Q 931 1000 1190 694 
Q 1450 388 1819 388 
Q 2194 388 2461 705 
Q 2728 1022 2728 1688 
Q 2728 2322 2467 2637 
Q 2206 2953 1844 2953 
Q 1484 2953 1207 2617 
Q 931 2281 931 1641 
z
" transform="scale(0.015625)"/>
      <path id="ArialMT-72" d="M 416 0 
L 416 3319 
L 922 3319 
L 922 2816 
Q 1116 3169 1280 3281 
Q 1444 3394 1641 3394 
Q 1925 3394 2219 3213 
L 2025 2691 
Q 1819 2813 1613 2813 
Q 1428 2813 1281 2702 
Q 1134 2591 1072 2394 
Q 978 2094 978 1738 
L 978 0 
L 416 0 
z
" transform="scale(0.015625)"/>
      <path id="ArialMT-74" d="M 1650 503 
L 1731 6 
Q 1494 -44 1306 -44 
Q 1000 -44 831 53 
Q 663 150 594 308 
Q 525 466 525 972 
L 525 2881 
L 113 2881 
L 113 3319 
L 525 3319 
L 525 4141 
L 1084 4478 
L 1084 3319 
L 1650 3319 
L 1650 2881 
L 1084 2881 
L 1084 941 
Q 1084 700 1114 631 
Q 1144 563 1211 522 
Q 1278 481 1403 481 
Q 1497 481 1650 503 
z
" transform="scale(0.015625)"/>
      <path id="ArialMT-50" d="M 494 0 
L 494 4581 
L 2222 4581 
Q 2678 4581 2919 4538 
Q 3256 4481 3484 4323 
Q 3713 4166 3852 3881 
Q 3991 3597 3991 3256 
Q 3991 2672 3619 2267 
Q 3247 1863 2275 1863 
L 1100 1863 
L 1100 0 
L 494 0 
z
M 1100 2403 
L 2284 2403 
Q 2872 2403 3119 2622 
Q 3366 2841 3366 3238 
Q 3366 3525 3220 3729 
Q 3075 3934 2838 4000 
Q 2684 4041 2272 4041 
L 1100 4041 
L 1100 2403 
z
" transform="scale(0.015625)"/>
      <path id="ArialMT-64" d="M 2575 0 
L 2575 419 
Q 2259 -75 1647 -75 
Q 1250 -75 917 144 
Q 584 363 401 755 
Q 219 1147 219 1656 
Q 219 2153 384 2558 
Q 550 2963 881 3178 
Q 1213 3394 1622 3394 
Q 1922 3394 2156 3267 
Q 2391 3141 2538 2938 
L 2538 4581 
L 3097 4581 
L 3097 0 
L 2575 0 
z
M 797 1656 
Q 797 1019 1065 703 
Q 1334 388 1700 388 
Q 2069 388 2326 689 
Q 2584 991 2584 1609 
Q 2584 2291 2321 2609 
Q 2059 2928 1675 2928 
Q 1300 2928 1048 2622 
Q 797 2316 797 1656 
z
" transform="scale(0.015625)"/>
      <path id="ArialMT-63" d="M 2588 1216 
L 3141 1144 
Q 3050 572 2676 248 
Q 2303 -75 1759 -75 
Q 1078 -75 664 370 
Q 250 816 250 1647 
Q 250 2184 428 2587 
Q 606 2991 970 3192 
Q 1334 3394 1763 3394 
Q 2303 3394 2647 3120 
Q 2991 2847 3088 2344 
L 2541 2259 
Q 2463 2594 2264 2762 
Q 2066 2931 1784 2931 
Q 1359 2931 1093 2626 
Q 828 2322 828 1663 
Q 828 994 1084 691 
Q 1341 388 1753 388 
Q 2084 388 2306 591 
Q 2528 794 2588 1216 
z
" transform="scale(0.015625)"/>
      <path id="ArialMT-6f" d="M 213 1659 
Q 213 2581 725 3025 
Q 1153 3394 1769 3394 
Q 2453 3394 2887 2945 
Q 3322 2497 3322 1706 
Q 3322 1066 3130 698 
Q 2938 331 2570 128 
Q 2203 -75 1769 -75 
Q 1072 -75 642 372 
Q 213 819 213 1659 
z
M 791 1659 
Q 791 1022 1069 705 
Q 1347 388 1769 388 
Q 2188 388 2466 706 
Q 2744 1025 2744 1678 
Q 2744 2294 2464 2611 
Q 2184 2928 1769 2928 
Q 1347 2928 1069 2612 
Q 791 2297 791 1659 
z
" transform="scale(0.015625)"/>
      <path id="ArialMT-41" d="M -9 0 
L 1750 4581 
L 2403 4581 
L 4278 0 
L 3588 0 
L 3053 1388 
L 1138 1388 
L 634 0 
L -9 0 
z
M 1313 1881 
L 2866 1881 
L 2388 3150 
Q 2169 3728 2063 4100 
Q 1975 3659 1816 3225 
L 1313 1881 
z
" transform="scale(0.015625)"/>
      <path id="ArialMT-68" d="M 422 0 
L 422 4581 
L 984 4581 
L 984 2938 
Q 1378 3394 1978 3394 
Q 2347 3394 2619 3248 
Q 2891 3103 3008 2847 
Q 3125 2591 3125 2103 
L 3125 0 
L 2563 0 
L 2563 2103 
Q 2563 2525 2380 2717 
Q 2197 2909 1863 2909 
Q 1613 2909 1392 2779 
Q 1172 2650 1078 2428 
Q 984 2206 984 1816 
L 984 0 
L 422 0 
z
" transform="scale(0.015625)"/>
     </defs>
     <use xlink:href="#ArialMT-4d"/>
     <use xlink:href="#ArialMT-69" x="83.300781"/>
     <use xlink:href="#ArialMT-6e" x="105.517578"/>
     <use xlink:href="#ArialMT-69" x="161.132812"/>
     <use xlink:href="#ArialMT-6d" x="183.349609"/>
     <use xlink:href="#ArialMT-75" x="266.650391"/>
     <use xlink:href="#ArialMT-6d" x="322.265625"/>
     <use xlink:href="#ArialMT-20" x="405.566406"/>
     <use xlink:href="#ArialMT-54" x="431.599609"/>
     <use xlink:href="#ArialMT-65" x="481.558594"/>
     <use xlink:href="#ArialMT-6d" x="537.173828"/>
     <use xlink:href="#ArialMT-70" x="620.474609"/>
     <use xlink:href="#ArialMT-65" x="676.089844"/>
     <use xlink:href="#ArialMT-72" x="731.705078"/>
     <use xlink:href="#ArialMT-61" x="765.005859"/>
     <use xlink:href="#ArialMT-74" x="820.621094"/>
     <use xlink:href="#ArialMT-75" x="848.404297"/>
     <use xlink:href="#ArialMT-72" x="904.019531"/>
     <use xlink:href="#ArialMT-65" x="937.320312"/>
     <use xlink:href="#ArialMT-20" x="992.935547"/>
     <use xlink:href="#ArialMT-50" x="1020.71875"/>
     <use xlink:href="#ArialMT-72" x="1087.417969"/>
     <use xlink:href="#ArialMT-65" x="1120.71875"/>
     <use xlink:href="#ArialMT-64" x="1176.333984"/>
     <use xlink:href="#ArialMT-69" x="1231.949219"/>
     <use xlink:href="#ArialMT-63" x="1254.166016"/>
     <use xlink:href="#ArialMT-74" x="1304.166016"/>
     <use xlink:href="#ArialMT-69" x="1331.949219"/>
     <use xlink:href="#ArialMT-6f" x="1354.166016"/>
     <use xlink:href="#ArialMT-6e" x="1409.78125"/>
     <use xlink:href="#ArialMT-20" x="1465.396484"/>
     <use xlink:href="#ArialMT-32" x="1493.179688"/>
     <use xlink:href="#ArialMT-32" x="1548.794922"/>
     <use xlink:href="#ArialMT-20" x="1604.410156"/>
     <use xlink:href="#ArialMT-44" x="1632.193359"/>
     <use xlink:href="#ArialMT-61" x="1704.410156"/>
     <use xlink:href="#ArialMT-79" x="1760.025391"/>
     <use xlink:href="#ArialMT-73" x="1810.025391"/>
     <use xlink:href="#ArialMT-20" x="1860.025391"/>
     <use xlink:href="#ArialMT-41" x="1882.308594"/>
     <use xlink:href="#ArialMT-68" x="1949.007812"/>
     <use xlink:href="#ArialMT-65" x="2004.623047"/>
     <use xlink:href="#ArialMT-61" x="2060.238281"/>
     <use xlink:href="#ArialMT-64" x="2115.853516"/>
    </g>
   </g>
   <g id="legend_1">
    <g id="patch_7">
     <path d="M 437.15625 88.130625 
L 511.4 88.130625 
Q 513.4 88.130625 513.4 86.130625 
L 513.4 58.84 
Q 513.4 56.84 511.4 56.84 
L 437.15625 56.84 
Q 435.15625 56.84 435.15625 58.84 
L 435.15625 86.130625 
Q 435.15625 88.130625 437.15625 88.130625 
z
" style="fill: #eaeaf2; opacity: 0.8; stroke: #cccccc; stroke-linejoin: miter"/>
    </g>
    <g id="line2d_14">
     <path d="M 439.15625 64.497812 
L 449.15625 64.497812 
L 459.15625 64.497812 
" style="fill: none; stroke: #1f77b4; stroke-width: 1.5; stroke-linecap: round"/>
    </g>
    <g id="text_15">
     <!-- Real -->
     <g style="fill: #262626" transform="translate(467.15625 67.997812) scale(0.1 -0.1)">
      <defs>
       <path id="ArialMT-52" d="M 503 0 
L 503 4581 
L 2534 4581 
Q 3147 4581 3465 4457 
Q 3784 4334 3975 4021 
Q 4166 3709 4166 3331 
Q 4166 2844 3850 2509 
Q 3534 2175 2875 2084 
Q 3116 1969 3241 1856 
Q 3506 1613 3744 1247 
L 4541 0 
L 3778 0 
L 3172 953 
Q 2906 1366 2734 1584 
Q 2563 1803 2427 1890 
Q 2291 1978 2150 2013 
Q 2047 2034 1813 2034 
L 1109 2034 
L 1109 0 
L 503 0 
z
M 1109 2559 
L 2413 2559 
Q 2828 2559 3062 2645 
Q 3297 2731 3419 2920 
Q 3541 3109 3541 3331 
Q 3541 3656 3305 3865 
Q 3069 4075 2559 4075 
L 1109 4075 
L 1109 2559 
z
" transform="scale(0.015625)"/>
       <path id="ArialMT-6c" d="M 409 0 
L 409 4581 
L 972 4581 
L 972 0 
L 409 0 
z
" transform="scale(0.015625)"/>
      </defs>
      <use xlink:href="#ArialMT-52"/>
      <use xlink:href="#ArialMT-65" x="72.216797"/>
      <use xlink:href="#ArialMT-61" x="127.832031"/>
      <use xlink:href="#ArialMT-6c" x="183.447266"/>
     </g>
    </g>
    <g id="line2d_15">
     <path d="M 439.15625 78.643125 
L 449.15625 78.643125 
L 459.15625 78.643125 
" style="fill: none; stroke: #ff7f0e; stroke-width: 1.5; stroke-linecap: round"/>
    </g>
    <g id="text_16">
     <!-- Predicted -->
     <g style="fill: #262626" transform="translate(467.15625 82.143125) scale(0.1 -0.1)">
      <use xlink:href="#ArialMT-50"/>
      <use xlink:href="#ArialMT-72" x="66.699219"/>
      <use xlink:href="#ArialMT-65" x="100"/>
      <use xlink:href="#ArialMT-64" x="155.615234"/>
      <use xlink:href="#ArialMT-69" x="211.230469"/>
      <use xlink:href="#ArialMT-63" x="233.447266"/>
      <use xlink:href="#ArialMT-74" x="283.447266"/>
      <use xlink:href="#ArialMT-65" x="311.230469"/>
      <use xlink:href="#ArialMT-64" x="366.845703"/>
     </g>
    </g>
   </g>
  </g>
 </g>
 <defs>
  <clipPath id="p7a02afb3ca">
   <rect x="72" y="51.84" width="446.4" height="332.64"/>
  </clipPath>
 </defs>
</svg>
