<?xml version="1.0" encoding="utf-8" standalone="no"?>
<!DOCTYPE svg PUBLIC "-//W3C//DTD SVG 1.1//EN"
  "http://www.w3.org/Graphics/SVG/1.1/DTD/svg11.dtd">
<svg xmlns:xlink="http://www.w3.org/1999/xlink" width="576pt" height="432pt" viewBox="0 0 576 432" xmlns="http://www.w3.org/2000/svg" version="1.1">
 <metadata>
  <rdf:RDF xmlns:dc="http://purl.org/dc/elements/1.1/" xmlns:cc="http://creativecommons.org/ns#" xmlns:rdf="http://www.w3.org/1999/02/22-rdf-syntax-ns#">
   <cc:Work>
    <dc:type rdf:resource="http://purl.org/dc/dcmitype/StillImage"/>
    <dc:date>2023-11-17T05:07:37.215213</dc:date>
    <dc:format>image/svg+xml</dc:format>
    <dc:creator>
     <cc:Agent>
      <dc:title>Matplotlib v3.8.0, https://matplotlib.org/</dc:title>
     </cc:Agent>
    </dc:creator>
   </cc:Work>
  </rdf:RDF>
 </metadata>
 <defs>
  <style type="text/css">*{stroke-linejoin: round; stroke-linecap: butt}</style>
 </defs>
 <g id="figure_1">
  <g id="patch_1">
   <path d="M 0 432 
L 576 432 
L 576 0 
L 0 0 
z
" style="fill: #ffffff"/>
  </g>
  <g id="axes_1">
   <g id="patch_2">
    <path d="M 72 384.48 
L 518.4 384.48 
L 518.4 51.84 
L 72 51.84 
z
" style="fill: #eaeaf2"/>
   </g>
   <g id="matplotlib.axis_1">
    <g id="xtick_1">
     <g id="line2d_1">
      <path d="M 92.290909 384.48 
L 92.290909 51.84 
" clip-path="url(#p42cc3c1ac7)" style="fill: none; stroke: #ffffff; stroke-width: 0.8; stroke-linecap: round"/>
     </g>
     <g id="text_1">
      <!-- 0 -->
      <g style="fill: #262626" transform="translate(89.51044 398.637812) scale(0.1 -0.1)">
       <defs>
        <path id="ArialMT-30" d="M 266 2259 
Q 266 3072 433 3567 
Q 600 4063 929 4331 
Q 1259 4600 1759 4600 
Q 2128 4600 2406 4451 
Q 2684 4303 2865 4023 
Q 3047 3744 3150 3342 
Q 3253 2941 3253 2259 
Q 3253 1453 3087 958 
Q 2922 463 2592 192 
Q 2263 -78 1759 -78 
Q 1097 -78 719 397 
Q 266 969 266 2259 
z
M 844 2259 
Q 844 1131 1108 757 
Q 1372 384 1759 384 
Q 2147 384 2411 759 
Q 2675 1134 2675 2259 
Q 2675 3391 2411 3762 
Q 2147 4134 1753 4134 
Q 1366 4134 1134 3806 
Q 844 3388 844 2259 
z
" transform="scale(0.015625)"/>
       </defs>
       <use xlink:href="#ArialMT-30"/>
      </g>
     </g>
    </g>
    <g id="xtick_2">
     <g id="line2d_2">
      <path d="M 187.553393 384.48 
L 187.553393 51.84 
" clip-path="url(#p42cc3c1ac7)" style="fill: none; stroke: #ffffff; stroke-width: 0.8; stroke-linecap: round"/>
     </g>
     <g id="text_2">
      <!-- 200 -->
      <g style="fill: #262626" transform="translate(179.211987 398.637812) scale(0.1 -0.1)">
       <defs>
        <path id="ArialMT-32" d="M 3222 541 
L 3222 0 
L 194 0 
Q 188 203 259 391 
Q 375 700 629 1000 
Q 884 1300 1366 1694 
Q 2113 2306 2375 2664 
Q 2638 3022 2638 3341 
Q 2638 3675 2398 3904 
Q 2159 4134 1775 4134 
Q 1369 4134 1125 3890 
Q 881 3647 878 3216 
L 300 3275 
Q 359 3922 746 4261 
Q 1134 4600 1788 4600 
Q 2447 4600 2831 4234 
Q 3216 3869 3216 3328 
Q 3216 3053 3103 2787 
Q 2991 2522 2730 2228 
Q 2469 1934 1863 1422 
Q 1356 997 1212 845 
Q 1069 694 975 541 
L 3222 541 
z
" transform="scale(0.015625)"/>
       </defs>
       <use xlink:href="#ArialMT-32"/>
       <use xlink:href="#ArialMT-30" x="55.615234"/>
       <use xlink:href="#ArialMT-30" x="111.230469"/>
      </g>
     </g>
    </g>
    <g id="xtick_3">
     <g id="line2d_3">
      <path d="M 282.815877 384.48 
L 282.815877 51.84 
" clip-path="url(#p42cc3c1ac7)" style="fill: none; stroke: #ffffff; stroke-width: 0.8; stroke-linecap: round"/>
     </g>
     <g id="text_3">
      <!-- 400 -->
      <g style="fill: #262626" transform="translate(274.474471 398.637812) scale(0.1 -0.1)">
       <defs>
        <path id="ArialMT-34" d="M 2069 0 
L 2069 1097 
L 81 1097 
L 81 1613 
L 2172 4581 
L 2631 4581 
L 2631 1613 
L 3250 1613 
L 3250 1097 
L 2631 1097 
L 2631 0 
L 2069 0 
z
M 2069 1613 
L 2069 3678 
L 634 1613 
L 2069 1613 
z
" transform="scale(0.015625)"/>
       </defs>
       <use xlink:href="#ArialMT-34"/>
       <use xlink:href="#ArialMT-30" x="55.615234"/>
       <use xlink:href="#ArialMT-30" x="111.230469"/>
      </g>
     </g>
    </g>
    <g id="xtick_4">
     <g id="line2d_4">
      <path d="M 378.078361 384.48 
L 378.078361 51.84 
" clip-path="url(#p42cc3c1ac7)" style="fill: none; stroke: #ffffff; stroke-width: 0.8; stroke-linecap: round"/>
     </g>
     <g id="text_4">
      <!-- 600 -->
      <g style="fill: #262626" transform="translate(369.736955 398.637812) scale(0.1 -0.1)">
       <defs>
        <path id="ArialMT-36" d="M 3184 3459 
L 2625 3416 
Q 2550 3747 2413 3897 
Q 2184 4138 1850 4138 
Q 1581 4138 1378 3988 
Q 1113 3794 959 3422 
Q 806 3050 800 2363 
Q 1003 2672 1297 2822 
Q 1591 2972 1913 2972 
Q 2475 2972 2870 2558 
Q 3266 2144 3266 1488 
Q 3266 1056 3080 686 
Q 2894 316 2569 119 
Q 2244 -78 1831 -78 
Q 1128 -78 684 439 
Q 241 956 241 2144 
Q 241 3472 731 4075 
Q 1159 4600 1884 4600 
Q 2425 4600 2770 4297 
Q 3116 3994 3184 3459 
z
M 888 1484 
Q 888 1194 1011 928 
Q 1134 663 1356 523 
Q 1578 384 1822 384 
Q 2178 384 2434 671 
Q 2691 959 2691 1453 
Q 2691 1928 2437 2201 
Q 2184 2475 1800 2475 
Q 1419 2475 1153 2201 
Q 888 1928 888 1484 
z
" transform="scale(0.015625)"/>
       </defs>
       <use xlink:href="#ArialMT-36"/>
       <use xlink:href="#ArialMT-30" x="55.615234"/>
       <use xlink:href="#ArialMT-30" x="111.230469"/>
      </g>
     </g>
    </g>
    <g id="xtick_5">
     <g id="line2d_5">
      <path d="M 473.340845 384.48 
L 473.340845 51.84 
" clip-path="url(#p42cc3c1ac7)" style="fill: none; stroke: #ffffff; stroke-width: 0.8; stroke-linecap: round"/>
     </g>
     <g id="text_5">
      <!-- 800 -->
      <g style="fill: #262626" transform="translate(464.999439 398.637812) scale(0.1 -0.1)">
       <defs>
        <path id="ArialMT-38" d="M 1131 2484 
Q 781 2613 612 2850 
Q 444 3088 444 3419 
Q 444 3919 803 4259 
Q 1163 4600 1759 4600 
Q 2359 4600 2725 4251 
Q 3091 3903 3091 3403 
Q 3091 3084 2923 2848 
Q 2756 2613 2416 2484 
Q 2838 2347 3058 2040 
Q 3278 1734 3278 1309 
Q 3278 722 2862 322 
Q 2447 -78 1769 -78 
Q 1091 -78 675 323 
Q 259 725 259 1325 
Q 259 1772 486 2073 
Q 713 2375 1131 2484 
z
M 1019 3438 
Q 1019 3113 1228 2906 
Q 1438 2700 1772 2700 
Q 2097 2700 2305 2904 
Q 2513 3109 2513 3406 
Q 2513 3716 2298 3927 
Q 2084 4138 1766 4138 
Q 1444 4138 1231 3931 
Q 1019 3725 1019 3438 
z
M 838 1322 
Q 838 1081 952 856 
Q 1066 631 1291 507 
Q 1516 384 1775 384 
Q 2178 384 2440 643 
Q 2703 903 2703 1303 
Q 2703 1709 2433 1975 
Q 2163 2241 1756 2241 
Q 1359 2241 1098 1978 
Q 838 1716 838 1322 
z
" transform="scale(0.015625)"/>
       </defs>
       <use xlink:href="#ArialMT-38"/>
       <use xlink:href="#ArialMT-30" x="55.615234"/>
       <use xlink:href="#ArialMT-30" x="111.230469"/>
      </g>
     </g>
    </g>
    <g id="text_6">
     <!-- Days -->
     <g style="fill: #262626" transform="translate(283.808594 411.783125) scale(0.1 -0.1)">
      <defs>
       <path id="ArialMT-44" d="M 494 0 
L 494 4581 
L 2072 4581 
Q 2606 4581 2888 4516 
Q 3281 4425 3559 4188 
Q 3922 3881 4101 3404 
Q 4281 2928 4281 2316 
Q 4281 1794 4159 1391 
Q 4038 988 3847 723 
Q 3656 459 3429 307 
Q 3203 156 2883 78 
Q 2563 0 2147 0 
L 494 0 
z
M 1100 541 
L 2078 541 
Q 2531 541 2789 625 
Q 3047 709 3200 863 
Q 3416 1078 3536 1442 
Q 3656 1806 3656 2325 
Q 3656 3044 3420 3430 
Q 3184 3816 2847 3947 
Q 2603 4041 2063 4041 
L 1100 4041 
L 1100 541 
z
" transform="scale(0.015625)"/>
       <path id="ArialMT-61" d="M 2588 409 
Q 2275 144 1986 34 
Q 1697 -75 1366 -75 
Q 819 -75 525 192 
Q 231 459 231 875 
Q 231 1119 342 1320 
Q 453 1522 633 1644 
Q 813 1766 1038 1828 
Q 1203 1872 1538 1913 
Q 2219 1994 2541 2106 
Q 2544 2222 2544 2253 
Q 2544 2597 2384 2738 
Q 2169 2928 1744 2928 
Q 1347 2928 1158 2789 
Q 969 2650 878 2297 
L 328 2372 
Q 403 2725 575 2942 
Q 747 3159 1072 3276 
Q 1397 3394 1825 3394 
Q 2250 3394 2515 3294 
Q 2781 3194 2906 3042 
Q 3031 2891 3081 2659 
Q 3109 2516 3109 2141 
L 3109 1391 
Q 3109 606 3145 398 
Q 3181 191 3288 0 
L 2700 0 
Q 2613 175 2588 409 
z
M 2541 1666 
Q 2234 1541 1622 1453 
Q 1275 1403 1131 1340 
Q 988 1278 909 1158 
Q 831 1038 831 891 
Q 831 666 1001 516 
Q 1172 366 1500 366 
Q 1825 366 2078 508 
Q 2331 650 2450 897 
Q 2541 1088 2541 1459 
L 2541 1666 
z
" transform="scale(0.015625)"/>
       <path id="ArialMT-79" d="M 397 -1278 
L 334 -750 
Q 519 -800 656 -800 
Q 844 -800 956 -737 
Q 1069 -675 1141 -563 
Q 1194 -478 1313 -144 
Q 1328 -97 1363 -6 
L 103 3319 
L 709 3319 
L 1400 1397 
Q 1534 1031 1641 628 
Q 1738 1016 1872 1384 
L 2581 3319 
L 3144 3319 
L 1881 -56 
Q 1678 -603 1566 -809 
Q 1416 -1088 1222 -1217 
Q 1028 -1347 759 -1347 
Q 597 -1347 397 -1278 
z
" transform="scale(0.015625)"/>
       <path id="ArialMT-73" d="M 197 991 
L 753 1078 
Q 800 744 1014 566 
Q 1228 388 1613 388 
Q 2000 388 2187 545 
Q 2375 703 2375 916 
Q 2375 1106 2209 1216 
Q 2094 1291 1634 1406 
Q 1016 1563 777 1677 
Q 538 1791 414 1992 
Q 291 2194 291 2438 
Q 291 2659 392 2848 
Q 494 3038 669 3163 
Q 800 3259 1026 3326 
Q 1253 3394 1513 3394 
Q 1903 3394 2198 3281 
Q 2494 3169 2634 2976 
Q 2775 2784 2828 2463 
L 2278 2388 
Q 2241 2644 2061 2787 
Q 1881 2931 1553 2931 
Q 1166 2931 1000 2803 
Q 834 2675 834 2503 
Q 834 2394 903 2306 
Q 972 2216 1119 2156 
Q 1203 2125 1616 2013 
Q 2213 1853 2448 1751 
Q 2684 1650 2818 1456 
Q 2953 1263 2953 975 
Q 2953 694 2789 445 
Q 2625 197 2315 61 
Q 2006 -75 1616 -75 
Q 969 -75 630 194 
Q 291 463 197 991 
z
" transform="scale(0.015625)"/>
      </defs>
      <use xlink:href="#ArialMT-44"/>
      <use xlink:href="#ArialMT-61" x="72.216797"/>
      <use xlink:href="#ArialMT-79" x="127.832031"/>
      <use xlink:href="#ArialMT-73" x="177.832031"/>
     </g>
    </g>
   </g>
   <g id="matplotlib.axis_2">
    <g id="ytick_1">
     <g id="line2d_6">
      <path d="M 72 347.878033 
L 518.4 347.878033 
" clip-path="url(#p42cc3c1ac7)" style="fill: none; stroke: #ffffff; stroke-width: 0.8; stroke-linecap: round"/>
     </g>
     <g id="text_7">
      <!-- 10 -->
      <g style="fill: #262626" transform="translate(53.878125 351.456939) scale(0.1 -0.1)">
       <defs>
        <path id="ArialMT-31" d="M 2384 0 
L 1822 0 
L 1822 3584 
Q 1619 3391 1289 3197 
Q 959 3003 697 2906 
L 697 3450 
Q 1169 3672 1522 3987 
Q 1875 4303 2022 4600 
L 2384 4600 
L 2384 0 
z
" transform="scale(0.015625)"/>
       </defs>
       <use xlink:href="#ArialMT-31"/>
       <use xlink:href="#ArialMT-30" x="55.615234"/>
      </g>
     </g>
    </g>
    <g id="ytick_2">
     <g id="line2d_7">
      <path d="M 72 306.566557 
L 518.4 306.566557 
" clip-path="url(#p42cc3c1ac7)" style="fill: none; stroke: #ffffff; stroke-width: 0.8; stroke-linecap: round"/>
     </g>
     <g id="text_8">
      <!-- 15 -->
      <g style="fill: #262626" transform="translate(53.878125 310.145464) scale(0.1 -0.1)">
       <defs>
        <path id="ArialMT-35" d="M 266 1200 
L 856 1250 
Q 922 819 1161 601 
Q 1400 384 1738 384 
Q 2144 384 2425 690 
Q 2706 997 2706 1503 
Q 2706 1984 2436 2262 
Q 2166 2541 1728 2541 
Q 1456 2541 1237 2417 
Q 1019 2294 894 2097 
L 366 2166 
L 809 4519 
L 3088 4519 
L 3088 3981 
L 1259 3981 
L 1013 2750 
Q 1425 3038 1878 3038 
Q 2478 3038 2890 2622 
Q 3303 2206 3303 1553 
Q 3303 931 2941 478 
Q 2500 -78 1738 -78 
Q 1113 -78 717 272 
Q 322 622 266 1200 
z
" transform="scale(0.015625)"/>
       </defs>
       <use xlink:href="#ArialMT-31"/>
       <use xlink:href="#ArialMT-35" x="55.615234"/>
      </g>
     </g>
    </g>
    <g id="ytick_3">
     <g id="line2d_8">
      <path d="M 72 265.255082 
L 518.4 265.255082 
" clip-path="url(#p42cc3c1ac7)" style="fill: none; stroke: #ffffff; stroke-width: 0.8; stroke-linecap: round"/>
     </g>
     <g id="text_9">
      <!-- 20 -->
      <g style="fill: #262626" transform="translate(53.878125 268.833988) scale(0.1 -0.1)">
       <use xlink:href="#ArialMT-32"/>
       <use xlink:href="#ArialMT-30" x="55.615234"/>
      </g>
     </g>
    </g>
    <g id="ytick_4">
     <g id="line2d_9">
      <path d="M 72 223.943607 
L 518.4 223.943607 
" clip-path="url(#p42cc3c1ac7)" style="fill: none; stroke: #ffffff; stroke-width: 0.8; stroke-linecap: round"/>
     </g>
     <g id="text_10">
      <!-- 25 -->
      <g style="fill: #262626" transform="translate(53.878125 227.522513) scale(0.1 -0.1)">
       <use xlink:href="#ArialMT-32"/>
       <use xlink:href="#ArialMT-35" x="55.615234"/>
      </g>
     </g>
    </g>
    <g id="ytick_5">
     <g id="line2d_10">
      <path d="M 72 182.632131 
L 518.4 182.632131 
" clip-path="url(#p42cc3c1ac7)" style="fill: none; stroke: #ffffff; stroke-width: 0.8; stroke-linecap: round"/>
     </g>
     <g id="text_11">
      <!-- 30 -->
      <g style="fill: #262626" transform="translate(53.878125 186.211037) scale(0.1 -0.1)">
       <defs>
        <path id="ArialMT-33" d="M 269 1209 
L 831 1284 
Q 928 806 1161 595 
Q 1394 384 1728 384 
Q 2125 384 2398 659 
Q 2672 934 2672 1341 
Q 2672 1728 2419 1979 
Q 2166 2231 1775 2231 
Q 1616 2231 1378 2169 
L 1441 2663 
Q 1497 2656 1531 2656 
Q 1891 2656 2178 2843 
Q 2466 3031 2466 3422 
Q 2466 3731 2256 3934 
Q 2047 4138 1716 4138 
Q 1388 4138 1169 3931 
Q 950 3725 888 3313 
L 325 3413 
Q 428 3978 793 4289 
Q 1159 4600 1703 4600 
Q 2078 4600 2393 4439 
Q 2709 4278 2876 4000 
Q 3044 3722 3044 3409 
Q 3044 3113 2884 2869 
Q 2725 2625 2413 2481 
Q 2819 2388 3044 2092 
Q 3269 1797 3269 1353 
Q 3269 753 2831 336 
Q 2394 -81 1725 -81 
Q 1122 -81 723 278 
Q 325 638 269 1209 
z
" transform="scale(0.015625)"/>
       </defs>
       <use xlink:href="#ArialMT-33"/>
       <use xlink:href="#ArialMT-30" x="55.615234"/>
      </g>
     </g>
    </g>
    <g id="ytick_6">
     <g id="line2d_11">
      <path d="M 72 141.320656 
L 518.4 141.320656 
" clip-path="url(#p42cc3c1ac7)" style="fill: none; stroke: #ffffff; stroke-width: 0.8; stroke-linecap: round"/>
     </g>
     <g id="text_12">
      <!-- 35 -->
      <g style="fill: #262626" transform="translate(53.878125 144.899562) scale(0.1 -0.1)">
       <use xlink:href="#ArialMT-33"/>
       <use xlink:href="#ArialMT-35" x="55.615234"/>
      </g>
     </g>
    </g>
    <g id="ytick_7">
     <g id="line2d_12">
      <path d="M 72 100.00918 
L 518.4 100.00918 
" clip-path="url(#p42cc3c1ac7)" style="fill: none; stroke: #ffffff; stroke-width: 0.8; stroke-linecap: round"/>
     </g>
     <g id="text_13">
      <!-- 40 -->
      <g style="fill: #262626" transform="translate(53.878125 103.588087) scale(0.1 -0.1)">
       <use xlink:href="#ArialMT-34"/>
       <use xlink:href="#ArialMT-30" x="55.615234"/>
      </g>
     </g>
    </g>
    <g id="ytick_8">
     <g id="line2d_13">
      <path d="M 72 58.697705 
L 518.4 58.697705 
" clip-path="url(#p42cc3c1ac7)" style="fill: none; stroke: #ffffff; stroke-width: 0.8; stroke-linecap: round"/>
     </g>
     <g id="text_14">
      <!-- 45 -->
      <g style="fill: #262626" transform="translate(53.878125 62.276611) scale(0.1 -0.1)">
       <use xlink:href="#ArialMT-34"/>
       <use xlink:href="#ArialMT-35" x="55.615234"/>
      </g>
     </g>
    </g>
    <g id="text_15">
     <!-- (°C) -->
     <g style="fill: #262626" transform="translate(47.773438 227.099844) rotate(-90) scale(0.1 -0.1)">
      <defs>
       <path id="ArialMT-28" d="M 1497 -1347 
Q 1031 -759 709 28 
Q 388 816 388 1659 
Q 388 2403 628 3084 
Q 909 3875 1497 4659 
L 1900 4659 
Q 1522 4009 1400 3731 
Q 1209 3300 1100 2831 
Q 966 2247 966 1656 
Q 966 153 1900 -1347 
L 1497 -1347 
z
" transform="scale(0.015625)"/>
       <path id="ArialMT-b0" d="M 400 3794 
Q 400 4153 654 4406 
Q 909 4659 1266 4659 
Q 1628 4659 1881 4406 
Q 2134 4153 2134 3794 
Q 2134 3434 1879 3179 
Q 1625 2925 1266 2925 
Q 909 2925 654 3178 
Q 400 3431 400 3794 
z
M 741 3794 
Q 741 3575 895 3420 
Q 1050 3266 1269 3266 
Q 1484 3266 1639 3420 
Q 1794 3575 1794 3794 
Q 1794 4013 1639 4167 
Q 1484 4322 1269 4322 
Q 1050 4322 895 4167 
Q 741 4013 741 3794 
z
" transform="scale(0.015625)"/>
       <path id="ArialMT-43" d="M 3763 1606 
L 4369 1453 
Q 4178 706 3683 314 
Q 3188 -78 2472 -78 
Q 1731 -78 1267 223 
Q 803 525 561 1097 
Q 319 1669 319 2325 
Q 319 3041 592 3573 
Q 866 4106 1370 4382 
Q 1875 4659 2481 4659 
Q 3169 4659 3637 4309 
Q 4106 3959 4291 3325 
L 3694 3184 
Q 3534 3684 3231 3912 
Q 2928 4141 2469 4141 
Q 1941 4141 1586 3887 
Q 1231 3634 1087 3207 
Q 944 2781 944 2328 
Q 944 1744 1114 1308 
Q 1284 872 1643 656 
Q 2003 441 2422 441 
Q 2931 441 3284 734 
Q 3638 1028 3763 1606 
z
" transform="scale(0.015625)"/>
       <path id="ArialMT-29" d="M 791 -1347 
L 388 -1347 
Q 1322 153 1322 1656 
Q 1322 2244 1188 2822 
Q 1081 3291 891 3722 
Q 769 4003 388 4659 
L 791 4659 
Q 1378 3875 1659 3084 
Q 1900 2403 1900 1659 
Q 1900 816 1576 28 
Q 1253 -759 791 -1347 
z
" transform="scale(0.015625)"/>
      </defs>
      <use xlink:href="#ArialMT-28"/>
      <use xlink:href="#ArialMT-b0" x="33.300781"/>
      <use xlink:href="#ArialMT-43" x="73.291016"/>
      <use xlink:href="#ArialMT-29" x="145.507812"/>
     </g>
    </g>
   </g>
   <g id="line2d_14">
    <path d="M 92.290909 165.281311 
L 92.767222 176.848525 
L 93.243534 133.88459 
L 93.719846 163.628852 
L 94.196159 183.458361 
L 94.672471 178.500984 
L 95.148784 154.540328 
L 95.625096 170.238689 
L 96.101408 209.897705 
L 96.577721 320.612459 
L 97.054033 280.953443 
L 97.530346 275.996066 
L 98.006658 237.163279 
L 98.482971 249.556721 
L 98.959283 271.864918 
L 99.435595 276.822295 
L 99.911908 289.215738 
L 100.38822 240.468197 
L 100.864533 211.550164 
L 101.340845 218.98623 
L 101.817157 195.851803 
L 102.29347 192.546885 
L 102.769782 185.937049 
L 103.246095 160.323934 
L 103.722407 152.887869 
L 104.19872 223.117377 
L 104.675032 243.773115 
L 105.151344 199.982951 
L 105.627657 193.373115 
L 106.103969 179.327213 
L 106.580282 141.320656 
L 107.056594 146.278033 
L 107.532907 195.025574 
L 108.009219 223.117377 
L 108.485531 337.137049 
L 108.961844 229.727213 
L 109.438156 268.56 
L 109.914469 296.651803 
L 110.390781 271.038689 
L 110.867093 266.081311 
L 111.343406 242.946885 
L 111.819718 317.307541 
L 112.296031 286.737049 
L 112.772343 201.63541 
L 113.248656 208.245246 
L 113.724968 171.891148 
L 114.20128 263.602623 
L 114.677593 261.950164 
L 115.153905 275.169836 
L 115.630218 190.894426 
L 116.10653 174.369836 
L 116.582843 185.937049 
L 117.059155 171.064918 
L 117.535467 208.245246 
L 118.01178 285.08459 
L 118.488092 320.612459 
L 118.964405 250.382951 
L 119.917029 299.130492 
L 120.393342 290.041967 
L 120.869654 273.517377 
L 121.345967 281.779672 
L 121.822279 230.553443 
L 122.298592 192.546885 
L 122.774904 260.297705 
L 123.251216 239.641967 
L 123.727529 253.687869 
L 124.203841 240.468197 
L 124.680154 261.950164 
L 125.156466 198.330492 
L 125.632778 220.638689 
L 126.109091 231.379672 
L 126.585403 169.412459 
L 127.061716 186.763279 
L 127.538028 238.815738 
L 128.014341 237.163279 
L 128.490653 210.723934 
L 128.966965 211.550164 
L 129.443278 233.032131 
L 129.91959 305.740328 
L 130.395903 358.619016 
L 130.872215 275.996066 
L 131.348528 280.953443 
L 131.82484 334.658361 
L 132.301152 236.337049 
L 132.777465 225.596066 
L 133.253777 218.98623 
L 133.73009 227.248525 
L 134.206402 182.632131 
L 134.682714 195.025574 
L 135.159027 263.602623 
L 135.635339 309.045246 
L 136.587964 204.114098 
L 137.064277 281.779672 
L 137.540589 335.48459 
L 138.016901 326.396066 
L 138.493214 276.822295 
L 138.969526 246.251803 
L 139.445839 200.80918 
L 140.398464 259.471475 
L 140.874776 236.337049 
L 141.351088 188.415738 
L 141.827401 267.73377 
L 142.303713 249.556721 
L 142.780026 305.740328 
L 143.256338 308.219016 
L 143.73265 230.553443 
L 144.208963 194.199344 
L 144.685275 282.605902 
L 145.161588 294.999344 
L 145.6379 237.163279 
L 146.114213 241.294426 
L 146.590525 227.248525 
L 147.066837 204.940328 
L 147.54315 200.80918 
L 148.019462 192.546885 
L 148.495775 168.58623 
L 148.972087 157.845246 
L 149.448399 282.605902 
L 149.924712 369.36 
L 150.401024 322.264918 
L 150.877337 228.900984 
L 151.353649 266.907541 
L 151.829962 234.68459 
L 152.782586 115.707541 
L 153.258899 114.055082 
L 154.211524 257.819016 
L 154.687836 276.822295 
L 156.593086 191.720656 
L 157.069398 233.032131 
L 157.545711 239.641967 
L 158.022023 193.373115 
L 158.498335 176.848525 
L 158.974648 198.330492 
L 159.45096 181.805902 
L 159.927273 177.674754 
L 160.403585 157.845246 
L 160.879898 315.655082 
L 161.35621 363.576393 
L 161.832522 344.573115 
L 162.308835 204.940328 
L 162.785147 176.022295 
L 163.26146 123.143607 
L 163.737772 167.76 
L 164.214085 199.156721 
L 164.690397 185.11082 
L 165.166709 142.146885 
L 165.643022 172.717377 
L 166.119334 262.776393 
L 166.595647 285.08459 
L 167.071959 266.907541 
L 167.548271 330.527213 
L 168.024584 287.563279 
L 168.500896 261.950164 
L 168.977209 285.08459 
L 169.453521 248.730492 
L 169.929834 195.851803 
L 170.406146 183.458361 
L 170.882458 181.805902 
L 171.358771 239.641967 
L 171.835083 199.982951 
L 172.311396 208.245246 
L 172.787708 204.940328 
L 173.26402 171.891148 
L 173.740333 301.60918 
L 174.216645 275.169836 
L 174.692958 278.474754 
L 175.16927 226.422295 
L 175.645583 141.320656 
L 176.121895 177.674754 
L 176.598207 136.363279 
L 177.07452 157.845246 
L 178.027145 130.579672 
L 178.503457 107.445246 
L 179.456082 170.238689 
L 179.932394 128.100984 
L 180.408707 209.897705 
L 180.885019 181.805902 
L 181.361332 180.153443 
L 181.837644 143.799344 
L 182.313956 144.625574 
L 182.790269 148.756721 
L 183.266581 157.845246 
L 183.742894 151.23541 
L 184.219206 188.415738 
L 184.695519 210.723934 
L 185.171831 147.930492 
L 185.648143 119.012459 
L 186.124456 140.494426 
L 186.600768 147.930492 
L 187.077081 157.845246 
L 187.553393 185.937049 
L 188.029706 156.192787 
L 188.506018 112.402623 
L 188.98233 149.582951 
L 189.458643 200.80918 
L 189.934955 175.196066 
L 190.411268 185.937049 
L 190.88758 185.11082 
L 191.363892 164.455082 
L 191.840205 89.268197 
L 192.316517 130.579672 
L 192.79283 218.98623 
L 193.269142 204.114098 
L 193.745455 195.851803 
L 194.221767 190.068197 
L 194.698079 199.982951 
L 195.174392 189.241967 
L 195.650704 187.589508 
L 196.127017 162.802623 
L 196.603329 109.097705 
L 197.079641 152.061639 
L 197.555954 131.405902 
L 198.032266 119.838689 
L 198.508579 129.753443 
L 198.984891 132.232131 
L 199.461204 146.278033 
L 199.937516 140.494426 
L 200.413828 143.799344 
L 200.890141 138.841967 
L 201.366453 127.274754 
L 201.842766 125.622295 
L 202.319078 177.674754 
L 202.795391 142.146885 
L 203.271703 149.582951 
L 203.748015 137.189508 
L 204.224328 133.88459 
L 204.70064 140.494426 
L 205.176953 110.750164 
L 205.653265 108.271475 
L 206.129577 83.48459 
L 206.60589 66.96 
L 207.082202 76.874754 
L 207.558515 129.753443 
L 208.034827 162.802623 
L 208.51114 150.40918 
L 209.463764 133.058361 
L 209.940077 130.579672 
L 210.416389 120.664918 
L 210.892702 131.405902 
L 211.369014 120.664918 
L 211.845327 115.707541 
L 212.321639 97.530492 
L 212.797951 136.363279 
L 213.750576 102.487869 
L 214.226889 123.969836 
L 214.703201 171.064918 
L 215.179513 147.930492 
L 215.655826 142.973115 
L 216.132138 139.668197 
L 216.608451 138.015738 
L 217.084763 128.100984 
L 217.561076 132.232131 
L 218.037388 148.756721 
L 218.5137 135.537049 
L 218.990013 127.274754 
L 219.466325 115.707541 
L 219.942638 126.448525 
L 220.41895 128.100984 
L 220.895262 94.225574 
L 221.371575 91.746885 
L 221.847887 88.441967 
L 222.3242 97.530492 
L 222.800512 117.36 
L 223.276825 113.228852 
L 223.753137 102.487869 
L 224.705762 117.36 
L 225.182074 113.228852 
L 225.658387 117.36 
L 226.134699 112.402623 
L 226.611012 114.055082 
L 227.087324 104.140328 
L 227.563636 117.36 
L 228.039949 127.274754 
L 228.516261 171.064918 
L 228.992574 136.363279 
L 229.468886 140.494426 
L 229.945198 138.015738 
L 230.421511 115.707541 
L 230.897823 121.491148 
L 231.374136 113.228852 
L 231.850448 114.055082 
L 232.326761 109.923934 
L 233.279385 104.966557 
L 233.755698 99.182951 
L 234.23201 97.530492 
L 234.708323 98.356721 
L 235.184635 109.097705 
L 235.660948 87.615738 
L 236.613572 98.356721 
L 237.089885 100.00918 
L 237.566197 84.31082 
L 238.04251 89.268197 
L 238.518822 99.182951 
L 238.995134 90.094426 
L 239.471447 90.094426 
L 239.947759 100.83541 
L 240.424072 97.530492 
L 240.900384 108.271475 
L 241.376697 109.097705 
L 241.853009 119.012459 
L 242.329321 110.750164 
L 242.805634 95.051803 
L 243.281946 103.314098 
L 243.758259 106.619016 
L 244.234571 100.83541 
L 244.710883 109.097705 
L 245.187196 140.494426 
L 245.663508 127.274754 
L 246.139821 129.753443 
L 246.616133 140.494426 
L 247.092446 133.88459 
L 247.568758 124.796066 
L 248.04507 146.278033 
L 248.521383 223.943607 
L 248.997695 260.297705 
L 249.474008 157.019016 
L 249.95032 154.540328 
L 250.426633 150.40918 
L 250.902945 161.976393 
L 251.379257 152.061639 
L 251.85557 151.23541 
L 252.808195 138.015738 
L 253.284507 133.88459 
L 253.760819 145.451803 
L 254.237132 152.887869 
L 254.713444 152.887869 
L 255.189757 154.540328 
L 255.666069 148.756721 
L 256.142382 150.40918 
L 256.618694 142.146885 
L 257.095006 142.973115 
L 257.571319 146.278033 
L 258.047631 146.278033 
L 258.523944 154.540328 
L 259.000256 166.93377 
L 259.476569 149.582951 
L 259.952881 161.976393 
L 260.429193 157.019016 
L 260.905506 153.714098 
L 261.381818 135.537049 
L 261.858131 128.927213 
L 262.334443 133.058361 
L 262.810755 166.93377 
L 263.287068 148.756721 
L 263.76338 140.494426 
L 264.239693 175.196066 
L 264.716005 236.337049 
L 265.192318 180.153443 
L 266.144942 145.451803 
L 266.621255 195.851803 
L 267.57388 167.76 
L 268.050192 119.012459 
L 268.526504 167.76 
L 269.002817 143.799344 
L 269.479129 182.632131 
L 269.955442 172.717377 
L 270.431754 176.848525 
L 270.908067 222.291148 
L 271.384379 221.464918 
L 271.860691 176.848525 
L 272.337004 190.068197 
L 272.813316 186.763279 
L 273.289629 202.461639 
L 273.765941 273.517377 
L 274.718566 226.422295 
L 275.194878 245.425574 
L 275.671191 176.848525 
L 276.147503 172.717377 
L 276.623816 199.982951 
L 277.100128 156.192787 
L 277.57644 283.432131 
L 278.052753 280.953443 
L 278.529065 266.907541 
L 279.005378 185.11082 
L 279.48169 342.094426 
L 279.958003 348.704262 
L 280.434315 239.641967 
L 280.910627 254.514098 
L 281.38694 249.556721 
L 281.863252 186.763279 
L 282.339565 202.461639 
L 282.815877 187.589508 
L 283.29219 209.071475 
L 283.768502 179.327213 
L 284.244814 187.589508 
L 284.721127 262.776393 
L 285.673752 152.887869 
L 286.150064 145.451803 
L 286.626376 218.16 
L 287.102689 228.900984 
L 287.579001 192.546885 
L 288.055314 128.927213 
L 288.531626 220.638689 
L 289.007939 239.641967 
L 289.960563 182.632131 
L 290.436876 185.11082 
L 290.913188 181.805902 
L 291.389501 218.98623 
L 291.865813 194.199344 
L 292.342125 149.582951 
L 292.818438 251.20918 
L 293.29475 283.432131 
L 293.771063 262.776393 
L 294.247375 161.150164 
L 294.723688 157.845246 
L 295.2 127.274754 
L 295.676312 139.668197 
L 296.152625 285.08459 
L 296.628937 299.130492 
L 297.10525 285.91082 
L 297.581562 282.605902 
L 298.057875 283.432131 
L 298.534187 218.98623 
L 299.010499 214.028852 
L 299.486812 214.028852 
L 299.963124 186.763279 
L 300.915749 253.687869 
L 301.392061 157.845246 
L 301.868374 225.596066 
L 302.820999 313.176393 
L 303.297311 294.999344 
L 303.773624 218.98623 
L 304.249936 251.20918 
L 304.726248 237.163279 
L 305.202561 214.855082 
L 305.678873 186.763279 
L 306.155186 246.251803 
L 306.631498 256.166557 
L 307.10781 217.33377 
L 307.584123 206.592787 
L 308.060435 215.681311 
L 308.536748 242.120656 
L 309.489373 196.678033 
L 309.965685 218.16 
L 310.441997 231.379672 
L 310.91831 254.514098 
L 311.394622 212.376393 
L 311.870935 276.822295 
L 312.82356 317.307541 
L 313.299872 275.996066 
L 313.776184 204.114098 
L 314.252497 246.251803 
L 314.728809 269.38623 
L 315.205122 175.196066 
L 315.681434 185.11082 
L 316.157746 172.717377 
L 317.110371 290.041967 
L 318.539309 233.032131 
L 319.015621 202.461639 
L 319.491933 162.802623 
L 319.968246 265.255082 
L 320.444558 224.769836 
L 320.920871 196.678033 
L 321.397183 192.546885 
L 321.873496 174.369836 
L 322.349808 148.756721 
L 322.82612 230.553443 
L 323.302433 289.215738 
L 323.778745 261.123934 
L 324.255058 316.481311 
L 325.207682 190.068197 
L 325.683995 164.455082 
L 326.160307 159.497705 
L 326.63662 256.992787 
L 327.112932 304.087869 
L 327.589245 325.569836 
L 328.541869 208.245246 
L 329.018182 171.891148 
L 329.494494 161.976393 
L 329.970807 270.212459 
L 330.447119 264.428852 
L 330.923431 220.638689 
L 331.399744 214.855082 
L 331.876056 152.061639 
L 332.352369 110.750164 
L 332.828681 223.117377 
L 333.304994 161.976393 
L 333.781306 214.028852 
L 334.257618 219.812459 
L 334.733931 237.989508 
L 335.210243 239.641967 
L 335.686556 219.812459 
L 336.162868 222.291148 
L 336.639181 179.327213 
L 337.115493 164.455082 
L 337.591805 138.015738 
L 338.068118 143.799344 
L 338.54443 209.071475 
L 339.020743 217.33377 
L 339.497055 166.93377 
L 339.973367 164.455082 
L 340.44968 125.622295 
L 340.925992 213.202623 
L 341.402305 277.648525 
L 342.35493 186.763279 
L 342.831242 110.750164 
L 343.307554 114.055082 
L 343.783867 114.881311 
L 344.260179 96.704262 
L 344.736492 130.579672 
L 345.212804 226.422295 
L 346.165429 151.23541 
L 346.641741 197.504262 
L 347.118054 157.019016 
L 347.594366 185.937049 
L 348.546991 264.428852 
L 349.499616 180.153443 
L 349.975928 123.143607 
L 350.452241 119.012459 
L 350.928553 176.022295 
L 351.404866 169.412459 
L 351.881178 114.881311 
L 352.35749 161.976393 
L 352.833803 242.120656 
L 353.310115 286.737049 
L 353.786428 261.950164 
L 354.26274 162.802623 
L 354.739052 177.674754 
L 355.215365 105.792787 
L 355.691677 121.491148 
L 356.16799 142.973115 
L 356.644302 122.317377 
L 357.120615 115.707541 
L 357.596927 100.00918 
L 358.073239 139.668197 
L 358.549552 222.291148 
L 359.025864 161.976393 
L 359.978489 101.661639 
L 360.454802 180.979672 
L 360.931114 143.799344 
L 361.407426 134.71082 
L 361.883739 129.753443 
L 362.836364 106.619016 
L 363.312676 141.320656 
L 363.788988 147.930492 
L 364.265301 126.448525 
L 364.741613 218.16 
L 365.217926 223.943607 
L 365.694238 186.763279 
L 366.170551 160.323934 
L 366.646863 151.23541 
L 367.123175 152.887869 
L 368.0758 141.320656 
L 368.552113 142.973115 
L 369.504738 114.881311 
L 369.98105 137.189508 
L 370.457362 153.714098 
L 370.933675 136.363279 
L 371.409987 144.625574 
L 371.8863 142.973115 
L 372.362612 156.192787 
L 372.838924 186.763279 
L 373.791549 125.622295 
L 374.267862 171.891148 
L 374.744174 173.543607 
L 375.220487 172.717377 
L 375.696799 174.369836 
L 376.173111 174.369836 
L 376.649424 154.540328 
L 377.125736 147.104262 
L 377.602049 148.756721 
L 378.554673 124.796066 
L 379.030986 109.097705 
L 379.507298 109.923934 
L 379.983611 135.537049 
L 380.459923 221.464918 
L 380.936236 164.455082 
L 381.88886 156.192787 
L 382.365173 161.150164 
L 382.841485 157.845246 
L 383.317798 148.756721 
L 383.79411 145.451803 
L 384.270423 149.582951 
L 384.746735 147.930492 
L 385.223047 135.537049 
L 385.69936 126.448525 
L 386.175672 131.405902 
L 386.651985 128.100984 
L 387.128297 154.540328 
L 387.604609 168.58623 
L 388.080922 167.76 
L 388.557234 165.281311 
L 389.033547 135.537049 
L 389.509859 167.76 
L 389.986172 133.058361 
L 390.462484 135.537049 
L 390.938796 127.274754 
L 391.415109 115.707541 
L 391.891421 112.402623 
L 392.367734 115.707541 
L 392.844046 123.969836 
L 393.320359 151.23541 
L 393.796671 109.097705 
L 394.272983 107.445246 
L 394.749296 104.140328 
L 395.701921 90.920656 
L 396.178233 101.661639 
L 396.654545 120.664918 
L 397.130858 107.445246 
L 397.60717 115.707541 
L 398.559795 163.628852 
L 399.036108 137.189508 
L 399.51242 139.668197 
L 399.988732 136.363279 
L 400.465045 119.012459 
L 400.941357 105.792787 
L 401.41767 138.841967 
L 401.893982 193.373115 
L 402.370294 215.681311 
L 402.846607 218.98623 
L 403.322919 169.412459 
L 403.799232 160.323934 
L 404.275544 142.973115 
L 404.751857 156.192787 
L 405.228169 130.579672 
L 405.704481 132.232131 
L 406.180794 138.841967 
L 406.657106 139.668197 
L 407.133419 152.061639 
L 407.609731 148.756721 
L 408.562356 138.841967 
L 409.038668 136.363279 
L 409.514981 131.405902 
L 409.991293 132.232131 
L 410.467606 138.015738 
L 410.943918 138.841967 
L 411.42023 128.100984 
L 411.896543 143.799344 
L 412.849168 133.058361 
L 413.32548 110.750164 
L 413.801793 114.055082 
L 414.278105 136.363279 
L 414.754417 131.405902 
L 415.23073 117.36 
L 415.707042 114.055082 
L 416.659667 128.927213 
L 417.13598 119.012459 
L 417.612292 116.53377 
L 418.088604 158.671475 
L 418.564917 157.845246 
L 419.041229 128.927213 
L 419.517542 129.753443 
L 419.993854 210.723934 
L 420.470166 223.117377 
L 420.946479 160.323934 
L 421.422791 171.064918 
L 421.899104 178.500984 
L 422.851729 86.789508 
L 423.328041 105.792787 
L 423.804353 104.966557 
L 424.756978 104.966557 
L 425.233291 115.707541 
L 425.709603 106.619016 
L 426.185915 114.055082 
L 426.662228 114.055082 
L 427.13854 111.576393 
L 427.614853 112.402623 
L 428.091165 112.402623 
L 428.567478 119.838689 
L 429.520102 90.094426 
L 430.94904 114.881311 
L 431.425352 119.012459 
L 431.901665 115.707541 
L 432.377977 117.36 
L 432.854289 104.966557 
L 433.330602 97.530492 
L 433.806914 109.097705 
L 434.283227 124.796066 
L 434.759539 119.838689 
L 435.235851 144.625574 
L 435.712164 140.494426 
L 436.188476 129.753443 
L 436.664789 115.707541 
L 437.141101 114.055082 
L 437.617414 120.664918 
L 438.570038 105.792787 
L 439.046351 129.753443 
L 439.522663 113.228852 
L 439.998976 127.274754 
L 440.475288 144.625574 
L 440.951601 130.579672 
L 441.427913 126.448525 
L 441.904225 120.664918 
L 442.380538 137.189508 
L 442.85685 160.323934 
L 443.333163 152.887869 
L 443.809475 137.189508 
L 444.285787 145.451803 
L 444.7621 181.805902 
L 445.238412 205.766557 
L 445.714725 191.720656 
L 446.191037 149.582951 
L 446.66735 136.363279 
L 447.143662 135.537049 
L 447.619974 143.799344 
L 448.096287 139.668197 
L 448.572599 145.451803 
L 449.525224 152.887869 
L 450.001536 156.192787 
L 450.477849 162.802623 
L 450.954161 148.756721 
L 451.430474 150.40918 
L 451.906786 150.40918 
L 452.383099 149.582951 
L 452.859411 153.714098 
L 453.335723 142.973115 
L 453.812036 149.582951 
L 454.288348 148.756721 
L 454.764661 140.494426 
L 455.240973 161.150164 
L 455.717286 161.976393 
L 456.193598 171.064918 
L 456.66991 173.543607 
L 457.146223 158.671475 
L 457.622535 161.976393 
L 458.098848 177.674754 
L 458.57516 204.114098 
L 459.051472 218.98623 
L 459.527785 184.28459 
L 460.004097 220.638689 
L 460.48041 211.550164 
L 460.956722 228.074754 
L 461.433035 185.937049 
L 461.909347 219.812459 
L 462.385659 210.723934 
L 462.861972 142.146885 
L 463.338284 125.622295 
L 463.814597 158.671475 
L 464.290909 163.628852 
L 464.767222 156.192787 
L 465.243534 158.671475 
L 465.719846 275.996066 
L 466.672471 196.678033 
L 467.148784 176.022295 
L 467.625096 162.802623 
L 468.101408 190.068197 
L 468.577721 135.537049 
L 469.054033 190.068197 
L 469.530346 200.80918 
L 470.006658 188.415738 
L 470.482971 170.238689 
L 470.959283 200.80918 
L 471.435595 203.287869 
L 471.911908 239.641967 
L 472.38822 219.812459 
L 472.864533 242.946885 
L 473.340845 186.763279 
L 473.817157 152.061639 
L 474.29347 184.28459 
L 474.769782 161.150164 
L 475.246095 176.848525 
L 476.19872 196.678033 
L 476.675032 181.805902 
L 477.151344 148.756721 
L 477.627657 256.166557 
L 478.103969 270.212459 
L 478.580282 184.28459 
L 479.532907 314.002623 
L 480.009219 337.137049 
L 480.485531 329.700984 
L 480.961844 345.399344 
L 481.438156 366.881311 
L 481.914469 338.789508 
L 482.390781 295.825574 
L 482.867093 290.041967 
L 483.343406 199.156721 
L 483.819718 271.864918 
L 484.296031 242.946885 
L 484.772343 162.802623 
L 485.248656 202.461639 
L 485.724968 153.714098 
L 486.20128 208.245246 
L 486.677593 311.523934 
L 487.153905 237.989508 
L 487.630218 255.340328 
L 488.10653 226.422295 
L 488.582843 224.769836 
L 489.059155 202.461639 
L 489.535467 215.681311 
L 490.01178 210.723934 
L 490.488092 209.897705 
L 490.964405 223.117377 
L 491.440717 159.497705 
L 491.917029 223.117377 
L 492.393342 231.379672 
L 492.869654 214.028852 
L 493.345967 295.825574 
L 493.822279 337.963279 
L 494.298592 247.078033 
L 494.774904 210.723934 
L 495.251216 322.264918 
L 495.727529 193.373115 
L 496.203841 133.058361 
L 496.680154 129.753443 
L 497.156466 98.356721 
L 497.632778 110.750164 
L 498.109091 175.196066 
L 498.109091 175.196066 
" clip-path="url(#p42cc3c1ac7)" style="fill: none; stroke: #1f77b4; stroke-width: 1.5; stroke-linecap: round"/>
   </g>
   <g id="line2d_15">
    <path d="M 92.290909 171.61896 
L 92.767222 180.056616 
L 93.719846 160.792684 
L 94.196159 168.063064 
L 94.672471 235.89532 
L 95.148784 269.00684 
L 95.625096 247.196642 
L 96.101408 236.10837 
L 96.577721 209.495311 
L 97.054033 218.924236 
L 97.530346 247.192359 
L 98.006658 243.36841 
L 98.482971 262.669357 
L 98.959283 236.559774 
L 99.435595 223.514791 
L 99.911908 224.96485 
L 100.38822 213.582872 
L 100.864533 208.737021 
L 101.340845 195.08119 
L 101.817157 191.554464 
L 102.29347 192.377586 
L 102.769782 232.23928 
L 103.246095 238.523162 
L 103.722407 200.668293 
L 104.19872 207.67822 
L 104.675032 185.770635 
L 105.151344 179.393489 
L 105.627657 177.518901 
L 106.103969 206.114859 
L 106.580282 262.746969 
L 107.056594 282.685619 
L 107.532907 210.608092 
L 108.009219 268.122978 
L 108.485531 292.597153 
L 108.961844 257.370068 
L 109.438156 263.195074 
L 109.914469 239.529054 
L 110.390781 277.975544 
L 110.867093 265.488665 
L 111.343406 205.822494 
L 111.819718 213.791117 
L 112.296031 243.013898 
L 112.772343 262.940585 
L 113.248656 246.413413 
L 113.724968 240.227939 
L 114.20128 218.804832 
L 114.677593 211.365654 
L 115.153905 233.856279 
L 115.630218 220.71192 
L 117.059155 290.089542 
L 117.535467 217.806034 
L 118.01178 251.942403 
L 118.488092 273.1251 
L 118.964405 272.131494 
L 119.440717 262.498782 
L 119.917029 264.111228 
L 120.393342 226.77294 
L 120.869654 227.053097 
L 121.345967 264.370789 
L 121.822279 235.272068 
L 122.298592 238.845712 
L 123.251216 220.661749 
L 123.727529 221.53189 
L 124.203841 217.569295 
L 124.680154 229.691723 
L 125.156466 205.41629 
L 125.632778 228.947209 
L 126.109091 234.644505 
L 126.585403 218.753011 
L 127.061716 215.630105 
L 128.014341 253.81423 
L 128.490653 303.327764 
L 128.966965 296.687276 
L 129.443278 270.024511 
L 130.395903 300.012617 
L 130.872215 257.547925 
L 131.348528 245.707134 
L 132.301152 232.876561 
L 132.777465 217.972964 
L 133.253777 238.491883 
L 133.73009 268.793188 
L 134.206402 290.927542 
L 134.682714 216.72243 
L 135.159027 226.571565 
L 135.635339 296.032591 
L 136.111652 286.788166 
L 136.587964 298.741574 
L 137.064277 256.687353 
L 138.016901 203.221147 
L 138.493214 247.723032 
L 138.969526 239.260175 
L 139.445839 224.223068 
L 139.922151 220.475954 
L 140.398464 277.423178 
L 140.874776 228.259154 
L 141.351088 297.809643 
L 141.827401 275.949832 
L 142.303713 239.415042 
L 142.780026 219.74281 
L 143.256338 286.332518 
L 143.73265 247.25216 
L 144.208963 231.500092 
L 144.685275 229.751967 
L 145.161588 218.679062 
L 145.6379 217.988169 
L 146.114213 232.729119 
L 147.066837 201.688258 
L 147.54315 199.829241 
L 148.019462 284.821286 
L 148.495775 295.995834 
L 149.448399 215.337545 
L 149.924712 274.328499 
L 150.401024 226.77312 
L 150.877337 194.157891 
L 151.353649 180.896711 
L 151.829962 182.695782 
L 152.306274 213.591911 
L 152.782586 266.394698 
L 153.258899 241.613626 
L 153.735211 263.056398 
L 154.211524 232.019484 
L 154.687836 220.251261 
L 155.164149 222.761512 
L 155.640461 243.752543 
L 156.116773 213.868984 
L 156.593086 194.936523 
L 157.069398 182.164359 
L 157.545711 190.439435 
L 158.022023 186.814113 
L 158.498335 179.490605 
L 158.974648 180.435927 
L 159.45096 317.900218 
L 159.927273 269.669143 
L 160.403585 275.104321 
L 160.879898 203.907298 
L 161.35621 194.999183 
L 161.832522 183.467818 
L 162.785147 207.1897 
L 163.26146 183.637149 
L 163.737772 176.750893 
L 164.214085 188.11324 
L 164.690397 253.981425 
L 165.166709 241.583378 
L 165.643022 236.661761 
L 166.119334 246.004395 
L 166.595647 248.055894 
L 167.071959 219.839393 
L 167.548271 245.699757 
L 168.024584 217.637557 
L 168.500896 203.358052 
L 168.977209 181.23342 
L 169.453521 185.278621 
L 169.929834 228.523317 
L 170.882458 195.42725 
L 171.358771 204.278265 
L 171.835083 206.401235 
L 172.311396 277.187532 
L 172.787708 249.308652 
L 173.26402 250.127249 
L 173.740333 199.992565 
L 174.216645 174.369097 
L 174.692958 179.913897 
L 175.16927 174.313451 
L 175.645583 185.863326 
L 176.121895 177.815384 
L 176.598207 152.690161 
L 177.07452 149.0841 
L 177.550832 160.3072 
L 178.027145 183.916301 
L 178.503457 170.576258 
L 178.97977 232.104314 
L 179.456082 186.358109 
L 180.408707 151.843157 
L 180.885019 164.755822 
L 181.361332 172.109639 
L 181.837644 171.378878 
L 182.313956 163.788549 
L 182.790269 173.133068 
L 183.266581 177.301425 
L 183.742894 166.884679 
L 184.219206 154.017544 
L 185.171831 163.894579 
L 185.648143 165.926283 
L 186.124456 171.694376 
L 186.600768 150.66151 
L 187.077081 136.961444 
L 187.553393 155.920123 
L 188.029706 182.129084 
L 188.506018 164.654166 
L 188.98233 166.035088 
L 189.458643 169.706772 
L 189.934955 163.836936 
L 190.411268 126.012171 
L 190.88758 139.349412 
L 191.363892 202.948151 
L 191.840205 194.347327 
L 192.316517 183.649407 
L 192.79283 167.427252 
L 193.269142 180.363275 
L 193.745455 175.603859 
L 194.698079 162.908008 
L 195.174392 131.512431 
L 195.650704 158.94692 
L 196.127017 139.33214 
L 196.603329 132.716469 
L 197.079641 139.735265 
L 197.555954 154.445001 
L 198.032266 152.611934 
L 198.508579 137.261827 
L 198.984891 141.970945 
L 199.461204 140.599378 
L 199.937516 133.888459 
L 200.413828 133.315171 
L 200.890141 157.436907 
L 201.366453 142.319645 
L 201.842766 142.752653 
L 202.319078 136.344746 
L 202.795391 137.460392 
L 203.271703 133.113272 
L 203.748015 124.505126 
L 204.224328 119.404551 
L 204.70064 119.481917 
L 205.176953 123.620742 
L 205.653265 117.891386 
L 206.129577 133.830936 
L 206.60589 153.630605 
L 207.082202 153.601112 
L 207.558515 139.354247 
L 208.034827 140.89937 
L 208.51114 124.39072 
L 208.987452 123.87872 
L 209.463764 122.449667 
L 209.940077 118.838994 
L 210.416389 117.526354 
L 210.892702 117.99551 
L 211.369014 130.472909 
L 211.845327 126.96707 
L 212.321639 118.855402 
L 212.797951 125.243062 
L 213.274264 158.980068 
L 213.750576 138.914749 
L 214.226889 137.690313 
L 214.703201 142.451537 
L 215.179513 138.269185 
L 215.655826 135.746414 
L 216.132138 135.35631 
L 216.608451 141.636366 
L 217.084763 134.812701 
L 217.561076 133.331335 
L 218.037388 126.444914 
L 218.5137 124.999951 
L 218.990013 124.427366 
L 219.466325 114.433639 
L 219.942638 117.63178 
L 220.41895 115.124638 
L 220.895262 123.099815 
L 221.371575 127.858615 
L 222.3242 116.102358 
L 222.800512 116.973256 
L 223.276825 138.713324 
L 223.753137 117.577236 
L 224.229449 122.269466 
L 224.705762 119.464891 
L 225.182074 121.00577 
L 225.658387 113.369355 
L 226.611012 135.45269 
L 227.087324 160.447295 
L 227.563636 138.700131 
L 228.039949 140.054116 
L 228.516261 138.787554 
L 228.992574 127.652158 
L 229.468886 126.400748 
L 229.945198 121.932787 
L 230.421511 122.240947 
L 230.897823 117.162346 
L 231.374136 115.941012 
L 231.850448 117.150213 
L 232.326761 112.496003 
L 232.803073 114.964263 
L 233.279385 112.456052 
L 233.755698 112.428802 
L 234.23201 113.458687 
L 234.708323 113.458687 
L 235.184635 113.094889 
L 235.660948 112.20282 
L 236.13726 111.847696 
L 236.613572 114.190951 
L 237.089885 111.618894 
L 237.566197 111.269429 
L 238.04251 112.362172 
L 238.995134 113.830824 
L 239.471447 115.394621 
L 239.947759 114.52704 
L 240.424072 118.531578 
L 240.900384 114.012675 
L 241.853009 125.765094 
L 242.329321 122.347063 
L 242.805634 114.636868 
L 243.281946 120.965259 
L 243.758259 140.440727 
L 244.234571 130.827397 
L 244.710883 130.832054 
L 245.187196 139.125013 
L 245.663508 142.880846 
L 246.139821 132.441862 
L 246.616133 145.696969 
L 247.092446 191.942879 
L 247.568758 187.303218 
L 248.04507 150.028874 
L 248.997695 160.667427 
L 249.474008 162.028383 
L 249.95032 160.355838 
L 250.426633 151.741475 
L 250.902945 146.577138 
L 251.379257 136.095225 
L 251.85557 142.50924 
L 252.331882 141.998711 
L 252.808195 153.730444 
L 253.284507 154.736497 
L 253.760819 154.130508 
L 254.237132 151.202583 
L 254.713444 146.397429 
L 255.666069 141.140959 
L 256.142382 147.677858 
L 256.618694 148.432729 
L 257.095006 159.744202 
L 257.571319 164.075675 
L 258.047631 154.31218 
L 259.000256 164.320165 
L 259.476569 160.648667 
L 259.952881 142.501047 
L 260.429193 138.141097 
L 260.905506 147.373968 
L 261.381818 162.471754 
L 261.858131 156.464048 
L 262.334443 142.909143 
L 263.287068 226.510904 
L 263.76338 172.538066 
L 264.239693 169.131344 
L 264.716005 147.665691 
L 265.192318 194.632884 
L 266.144942 163.755857 
L 266.621255 142.694852 
L 267.097567 182.687382 
L 267.57388 168.164222 
L 268.050192 187.550661 
L 268.526504 178.092656 
L 269.002817 173.73994 
L 269.479129 230.137403 
L 269.955442 201.321552 
L 270.431754 185.577222 
L 270.908067 180.802652 
L 271.384379 183.02799 
L 272.337004 270.757256 
L 272.813316 223.899808 
L 273.289629 221.592456 
L 273.765941 222.899623 
L 274.242254 172.736271 
L 274.718566 187.553924 
L 275.194878 196.810075 
L 275.671191 175.474953 
L 276.147503 272.017073 
L 276.623816 240.109519 
L 277.57644 200.643525 
L 278.052753 319.174993 
L 279.005378 249.651178 
L 279.48169 248.347048 
L 279.958003 214.613497 
L 280.434315 203.009532 
L 280.910627 217.49146 
L 281.38694 209.129141 
L 281.863252 213.576661 
L 282.339565 204.036308 
L 282.815877 198.843805 
L 283.29219 250.190492 
L 284.244814 185.039879 
L 285.197439 238.390854 
L 285.673752 227.95342 
L 286.150064 207.917216 
L 286.626376 175.093176 
L 287.102689 245.816999 
L 287.579001 241.654039 
L 288.055314 201.466788 
L 288.531626 206.050746 
L 289.007939 212.611233 
L 289.484251 204.972672 
L 289.960563 227.317076 
L 290.436876 195.656309 
L 290.913188 190.951657 
L 291.389501 266.661861 
L 291.865813 260.942399 
L 292.342125 243.739547 
L 292.818438 191.15762 
L 293.29475 193.919238 
L 293.771063 188.770245 
L 294.247375 197.718492 
L 294.723688 292.118506 
L 295.2 254.437587 
L 295.676312 260.59301 
L 296.152625 239.467844 
L 296.628937 272.608652 
L 297.10525 229.779235 
L 297.581562 231.526116 
L 298.057875 236.667565 
L 298.534187 205.90803 
L 299.010499 235.297593 
L 299.486812 229.58619 
L 299.963124 185.002719 
L 300.439437 239.009228 
L 300.915749 260.44994 
L 301.392061 294.25485 
L 302.344686 228.914363 
L 302.820999 261.617931 
L 303.297311 256.106032 
L 304.249936 203.504721 
L 304.726248 236.497277 
L 305.202561 229.567425 
L 305.678873 202.595752 
L 306.155186 229.580374 
L 306.631498 249.844616 
L 307.10781 239.208872 
L 307.584123 225.415213 
L 308.060435 216.578706 
L 308.536748 231.270533 
L 309.01306 240.324443 
L 309.965685 206.104952 
L 310.441997 267.204326 
L 310.91831 264.547022 
L 311.394622 285.201247 
L 311.870935 227.341216 
L 312.347247 229.854696 
L 312.82356 249.631046 
L 313.299872 238.274864 
L 313.776184 213.290341 
L 314.252497 212.406969 
L 314.728809 211.761874 
L 315.205122 254.870017 
L 315.681434 253.075557 
L 316.157746 270.36753 
L 316.634059 225.165616 
L 317.110371 213.544386 
L 317.586684 196.090662 
L 318.062996 208.14906 
L 318.539309 273.570863 
L 319.015621 260.541176 
L 319.968246 212.661583 
L 320.444558 172.435889 
L 320.920871 180.004478 
L 321.397183 254.888066 
L 321.873496 272.835968 
L 322.349808 266.232543 
L 322.82612 279.664673 
L 323.302433 215.405988 
L 323.778745 203.741509 
L 324.255058 187.66479 
L 324.73137 193.650983 
L 325.207682 271.231679 
L 325.683995 301.711935 
L 326.63662 228.983136 
L 327.589245 189.876418 
L 328.065557 217.125647 
L 328.541869 295.222483 
L 329.018182 247.474908 
L 329.494494 218.008302 
L 329.970807 209.305132 
L 330.447119 168.190789 
L 330.923431 179.639826 
L 331.399744 216.530349 
L 331.876056 188.295439 
L 332.352369 229.332527 
L 332.828681 219.980943 
L 333.304994 229.056677 
L 333.781306 198.613398 
L 334.257618 211.61921 
L 334.733931 220.075492 
L 335.210243 170.569098 
L 335.686556 178.712113 
L 336.162868 183.683332 
L 336.639181 176.718293 
L 337.115493 191.908489 
L 337.591805 191.331658 
L 338.068118 175.308651 
L 338.54443 180.603415 
L 339.020743 162.783377 
L 339.497055 215.65955 
L 339.973367 246.272332 
L 340.44968 192.242581 
L 340.925992 174.189571 
L 341.402305 147.281218 
L 341.878617 154.955965 
L 342.35493 160.33127 
L 342.831242 146.823423 
L 343.307554 158.617712 
L 343.783867 214.63601 
L 344.260179 176.165551 
L 344.736492 156.6848 
L 345.212804 181.675975 
L 345.689117 165.763054 
L 346.641741 205.926205 
L 347.118054 246.722293 
L 347.594366 197.653844 
L 348.546991 144.849427 
L 349.023303 145.820997 
L 349.499616 188.540626 
L 349.975928 176.157893 
L 350.452241 147.152296 
L 350.928553 172.508182 
L 351.404866 217.604369 
L 351.881178 240.707332 
L 352.35749 216.967585 
L 352.833803 173.637381 
L 353.310115 167.715058 
L 353.786428 151.973331 
L 354.26274 150.923824 
L 354.739052 155.695255 
L 355.215365 136.440633 
L 355.691677 138.291412 
L 356.16799 128.486044 
L 356.644302 152.690696 
L 357.120615 206.007095 
L 357.596927 161.293298 
L 358.073239 138.318323 
L 358.549552 135.01759 
L 359.025864 170.774816 
L 359.978489 142.918665 
L 360.454802 137.548397 
L 360.931114 122.926718 
L 361.407426 133.208328 
L 361.883739 160.400244 
L 362.360051 154.582503 
L 362.836364 151.113202 
L 363.312676 212.338188 
L 364.265301 165.418906 
L 364.741613 158.77642 
L 365.217926 158.109694 
L 365.694238 159.524967 
L 366.170551 148.497014 
L 366.646863 149.301954 
L 367.123175 149.532116 
L 367.599488 137.551123 
L 368.0758 130.391479 
L 368.552113 140.855648 
L 369.028425 154.366759 
L 369.504738 142.592502 
L 369.98105 144.44636 
L 370.933675 158.512288 
L 371.409987 171.698081 
L 371.8863 152.526422 
L 372.362612 139.21563 
L 372.838924 170.115215 
L 373.315237 168.12441 
L 373.791549 167.682919 
L 374.267862 168.01317 
L 374.744174 169.27698 
L 375.220487 158.597534 
L 375.696799 151.151316 
L 376.173111 151.962862 
L 377.125736 129.727085 
L 377.602049 124.833641 
L 378.078361 131.382516 
L 378.554673 150.086942 
L 379.030986 179.213261 
L 379.507298 158.112876 
L 379.983611 155.509907 
L 380.459923 155.533886 
L 380.936236 164.261377 
L 381.412548 155.374467 
L 381.88886 150.116485 
L 382.365173 138.857782 
L 382.841485 148.747498 
L 383.317798 146.604196 
L 384.270423 128.200498 
L 384.746735 129.892054 
L 385.69936 153.266346 
L 386.175672 158.83161 
L 386.651985 159.552443 
L 387.128297 156.849834 
L 387.604609 134.921904 
L 388.080922 155.757561 
L 389.033547 138.345659 
L 389.509859 138.00192 
L 389.986172 122.771882 
L 390.462484 124.548519 
L 390.938796 125.608216 
L 391.415109 122.701729 
L 391.891421 146.698899 
L 392.367734 126.843888 
L 392.844046 117.566013 
L 393.320359 117.480852 
L 393.796671 113.320613 
L 394.272983 121.168159 
L 395.225608 110.035438 
L 396.178233 120.090108 
L 396.654545 143.124845 
L 397.130858 154.975387 
L 397.60717 134.749294 
L 398.083483 137.209577 
L 398.559795 135.257181 
L 399.036108 129.200069 
L 399.51242 119.686424 
L 399.988732 156.521309 
L 400.465045 171.375065 
L 400.941357 173.98062 
L 401.41767 172.208701 
L 401.893982 174.294556 
L 402.370294 165.91471 
L 402.846607 150.133623 
L 403.322919 161.069021 
L 403.799232 140.915659 
L 404.275544 136.054043 
L 404.751857 139.406873 
L 405.228169 143.830669 
L 405.704481 159.605506 
L 406.180794 147.737576 
L 406.657106 143.650364 
L 407.133419 142.571836 
L 407.609731 141.899725 
L 408.086044 137.865305 
L 408.562356 131.7858 
L 409.038668 132.544264 
L 409.514981 134.217393 
L 409.991293 131.186181 
L 410.467606 133.450487 
L 410.943918 134.770743 
L 411.42023 130.171676 
L 411.896543 120.199373 
L 412.372855 124.888034 
L 412.849168 133.625922 
L 413.32548 137.202313 
L 413.801793 120.543793 
L 414.278105 124.851152 
L 414.754417 126.020287 
L 415.23073 126.744593 
L 416.183355 124.015986 
L 416.659667 157.557293 
L 417.13598 129.404798 
L 417.612292 137.251418 
L 418.564917 195.191993 
L 419.517542 167.244063 
L 419.993854 172.118249 
L 420.470166 175.255905 
L 420.946479 139.362347 
L 421.422791 132.10076 
L 421.899104 132.857209 
L 422.375416 132.56248 
L 422.851729 122.461767 
L 423.328041 120.825225 
L 423.804353 132.189084 
L 424.280666 128.61658 
L 424.756978 126.193853 
L 425.233291 134.431239 
L 425.709603 123.408285 
L 426.185915 123.303852 
L 426.662228 133.379827 
L 427.13854 136.125553 
L 427.614853 118.697876 
L 428.091165 119.887501 
L 428.567478 115.857267 
L 429.04379 118.478125 
L 429.520102 120.421736 
L 429.996415 122.955181 
L 430.472727 120.896161 
L 430.94904 128.861943 
L 431.425352 111.987998 
L 431.901665 118.146765 
L 432.377977 122.685256 
L 432.854289 133.81821 
L 433.330602 133.304845 
L 433.806914 142.213814 
L 434.759539 130.747094 
L 435.235851 122.331378 
L 435.712164 123.22096 
L 436.188476 122.629935 
L 437.141101 112.62816 
L 437.617414 122.636888 
L 438.093726 119.314166 
L 439.046351 148.105272 
L 439.522663 133.824269 
L 439.998976 136.669896 
L 440.475288 127.031271 
L 441.427913 160.032225 
L 442.380538 138.743125 
L 443.333163 164.362186 
L 443.809475 187.981197 
L 444.7621 161.125787 
L 445.238412 139.873477 
L 445.714725 146.196744 
L 446.191037 155.769895 
L 446.66735 154.025601 
L 447.143662 147.6204 
L 447.619974 150.350381 
L 448.096287 151.961542 
L 448.572599 161.190406 
L 449.048912 162.661608 
L 449.525224 154.17017 
L 450.477849 146.853244 
L 450.954161 149.948004 
L 451.430474 149.243923 
L 451.906786 142.65237 
L 452.383099 149.253619 
L 452.859411 148.889821 
L 453.335723 144.416403 
L 453.812036 169.464715 
L 454.288348 172.288975 
L 454.764661 172.326625 
L 455.240973 171.094449 
L 455.717286 165.537078 
L 456.193598 173.954155 
L 457.146223 181.173011 
L 457.622535 177.030013 
L 458.098848 167.19107 
L 458.57516 186.699914 
L 459.051472 217.048521 
L 459.527785 218.217642 
L 460.004097 183.0676 
L 460.48041 199.120475 
L 460.956722 192.915234 
L 461.433035 173.901741 
L 461.909347 160.395687 
L 462.385659 177.618125 
L 462.861972 172.29872 
L 463.338284 165.160806 
L 463.814597 180.52539 
L 464.290909 253.957394 
L 464.767222 227.796574 
L 465.243534 195.333452 
L 465.719846 179.349781 
L 466.196159 180.004804 
L 466.672471 199.041934 
L 467.148784 174.732757 
L 467.625096 202.491695 
L 468.101408 203.56428 
L 468.577721 191.96656 
L 469.054033 191.231723 
L 469.530346 212.438671 
L 470.006658 210.655056 
L 470.482971 232.477473 
L 470.959283 226.333155 
L 471.435595 231.354765 
L 471.911908 178.361565 
L 472.38822 181.294518 
L 472.864533 193.571609 
L 473.340845 184.523969 
L 473.817157 194.288336 
L 474.29347 182.870927 
L 474.769782 183.30661 
L 475.246095 179.037847 
L 475.722407 183.235127 
L 476.19872 253.633636 
L 476.675032 229.739159 
L 477.151344 186.611266 
L 477.627657 241.512184 
L 478.580282 303.445428 
L 479.056594 295.373257 
L 479.532907 302.218506 
L 480.009219 298.99583 
L 480.485531 301.464841 
L 480.961844 290.840282 
L 481.438156 257.680492 
L 481.914469 213.771586 
L 482.390781 276.15227 
L 482.867093 241.203192 
L 483.343406 229.190882 
L 483.819718 231.799476 
L 484.296031 194.18359 
L 484.772343 259.087177 
L 485.248656 299.514245 
L 485.724968 231.177941 
L 486.20128 244.52484 
L 486.677593 204.705861 
L 487.153905 233.39828 
L 487.630218 236.469492 
L 488.10653 220.334094 
L 488.582843 228.180822 
L 489.059155 226.26798 
L 489.535467 244.342139 
L 490.01178 208.829003 
L 490.488092 243.519691 
L 490.964405 256.621921 
L 491.440717 244.269692 
L 491.917029 283.010745 
L 492.393342 297.836776 
L 492.869654 229.795157 
L 493.822279 273.934698 
L 494.298592 194.527853 
L 494.774904 185.501348 
L 495.251216 179.702044 
L 496.203841 163.832913 
L 496.203841 163.832913 
" clip-path="url(#p42cc3c1ac7)" style="fill: none; stroke: #ff7f0e; stroke-width: 1.5; stroke-linecap: round"/>
   </g>
   <g id="patch_3">
    <path d="M 72 384.48 
L 72 51.84 
" style="fill: none; stroke: #ffffff; stroke-width: 0.8; stroke-linejoin: miter; stroke-linecap: square"/>
   </g>
   <g id="patch_4">
    <path d="M 518.4 384.48 
L 518.4 51.84 
" style="fill: none; stroke: #ffffff; stroke-width: 0.8; stroke-linejoin: miter; stroke-linecap: square"/>
   </g>
   <g id="patch_5">
    <path d="M 72 384.48 
L 518.4 384.48 
" style="fill: none; stroke: #ffffff; stroke-width: 0.8; stroke-linejoin: miter; stroke-linecap: square"/>
   </g>
   <g id="patch_6">
    <path d="M 72 51.84 
L 518.4 51.84 
" style="fill: none; stroke: #ffffff; stroke-width: 0.8; stroke-linejoin: miter; stroke-linecap: square"/>
   </g>
   <g id="text_16">
    <!-- Maximum Temperature Prediction 29 Days Ahead -->
    <g style="fill: #262626" transform="translate(163.253437 45.84) scale(0.12 -0.12)">
     <defs>
      <path id="ArialMT-4d" d="M 475 0 
L 475 4581 
L 1388 4581 
L 2472 1338 
Q 2622 884 2691 659 
Q 2769 909 2934 1394 
L 4031 4581 
L 4847 4581 
L 4847 0 
L 4263 0 
L 4263 3834 
L 2931 0 
L 2384 0 
L 1059 3900 
L 1059 0 
L 475 0 
z
" transform="scale(0.015625)"/>
      <path id="ArialMT-78" d="M 47 0 
L 1259 1725 
L 138 3319 
L 841 3319 
L 1350 2541 
Q 1494 2319 1581 2169 
Q 1719 2375 1834 2534 
L 2394 3319 
L 3066 3319 
L 1919 1756 
L 3153 0 
L 2463 0 
L 1781 1031 
L 1600 1309 
L 728 0 
L 47 0 
z
" transform="scale(0.015625)"/>
      <path id="ArialMT-69" d="M 425 3934 
L 425 4581 
L 988 4581 
L 988 3934 
L 425 3934 
z
M 425 0 
L 425 3319 
L 988 3319 
L 988 0 
L 425 0 
z
" transform="scale(0.015625)"/>
      <path id="ArialMT-6d" d="M 422 0 
L 422 3319 
L 925 3319 
L 925 2853 
Q 1081 3097 1340 3245 
Q 1600 3394 1931 3394 
Q 2300 3394 2536 3241 
Q 2772 3088 2869 2813 
Q 3263 3394 3894 3394 
Q 4388 3394 4653 3120 
Q 4919 2847 4919 2278 
L 4919 0 
L 4359 0 
L 4359 2091 
Q 4359 2428 4304 2576 
Q 4250 2725 4106 2815 
Q 3963 2906 3769 2906 
Q 3419 2906 3187 2673 
Q 2956 2441 2956 1928 
L 2956 0 
L 2394 0 
L 2394 2156 
Q 2394 2531 2256 2718 
Q 2119 2906 1806 2906 
Q 1569 2906 1367 2781 
Q 1166 2656 1075 2415 
Q 984 2175 984 1722 
L 984 0 
L 422 0 
z
" transform="scale(0.015625)"/>
      <path id="ArialMT-75" d="M 2597 0 
L 2597 488 
Q 2209 -75 1544 -75 
Q 1250 -75 995 37 
Q 741 150 617 320 
Q 494 491 444 738 
Q 409 903 409 1263 
L 409 3319 
L 972 3319 
L 972 1478 
Q 972 1038 1006 884 
Q 1059 663 1231 536 
Q 1403 409 1656 409 
Q 1909 409 2131 539 
Q 2353 669 2445 892 
Q 2538 1116 2538 1541 
L 2538 3319 
L 3100 3319 
L 3100 0 
L 2597 0 
z
" transform="scale(0.015625)"/>
      <path id="ArialMT-20" transform="scale(0.015625)"/>
      <path id="ArialMT-54" d="M 1659 0 
L 1659 4041 
L 150 4041 
L 150 4581 
L 3781 4581 
L 3781 4041 
L 2266 4041 
L 2266 0 
L 1659 0 
z
" transform="scale(0.015625)"/>
      <path id="ArialMT-65" d="M 2694 1069 
L 3275 997 
Q 3138 488 2766 206 
Q 2394 -75 1816 -75 
Q 1088 -75 661 373 
Q 234 822 234 1631 
Q 234 2469 665 2931 
Q 1097 3394 1784 3394 
Q 2450 3394 2872 2941 
Q 3294 2488 3294 1666 
Q 3294 1616 3291 1516 
L 816 1516 
Q 847 969 1125 678 
Q 1403 388 1819 388 
Q 2128 388 2347 550 
Q 2566 713 2694 1069 
z
M 847 1978 
L 2700 1978 
Q 2663 2397 2488 2606 
Q 2219 2931 1791 2931 
Q 1403 2931 1139 2672 
Q 875 2413 847 1978 
z
" transform="scale(0.015625)"/>
      <path id="ArialMT-70" d="M 422 -1272 
L 422 3319 
L 934 3319 
L 934 2888 
Q 1116 3141 1344 3267 
Q 1572 3394 1897 3394 
Q 2322 3394 2647 3175 
Q 2972 2956 3137 2557 
Q 3303 2159 3303 1684 
Q 3303 1175 3120 767 
Q 2938 359 2589 142 
Q 2241 -75 1856 -75 
Q 1575 -75 1351 44 
Q 1128 163 984 344 
L 984 -1272 
L 422 -1272 
z
M 931 1641 
Q 931 1000 1190 694 
Q 1450 388 1819 388 
Q 2194 388 2461 705 
Q 2728 1022 2728 1688 
Q 2728 2322 2467 2637 
Q 2206 2953 1844 2953 
Q 1484 2953 1207 2617 
Q 931 2281 931 1641 
z
" transform="scale(0.015625)"/>
      <path id="ArialMT-72" d="M 416 0 
L 416 3319 
L 922 3319 
L 922 2816 
Q 1116 3169 1280 3281 
Q 1444 3394 1641 3394 
Q 1925 3394 2219 3213 
L 2025 2691 
Q 1819 2813 1613 2813 
Q 1428 2813 1281 2702 
Q 1134 2591 1072 2394 
Q 978 2094 978 1738 
L 978 0 
L 416 0 
z
" transform="scale(0.015625)"/>
      <path id="ArialMT-74" d="M 1650 503 
L 1731 6 
Q 1494 -44 1306 -44 
Q 1000 -44 831 53 
Q 663 150 594 308 
Q 525 466 525 972 
L 525 2881 
L 113 2881 
L 113 3319 
L 525 3319 
L 525 4141 
L 1084 4478 
L 1084 3319 
L 1650 3319 
L 1650 2881 
L 1084 2881 
L 1084 941 
Q 1084 700 1114 631 
Q 1144 563 1211 522 
Q 1278 481 1403 481 
Q 1497 481 1650 503 
z
" transform="scale(0.015625)"/>
      <path id="ArialMT-50" d="M 494 0 
L 494 4581 
L 2222 4581 
Q 2678 4581 2919 4538 
Q 3256 4481 3484 4323 
Q 3713 4166 3852 3881 
Q 3991 3597 3991 3256 
Q 3991 2672 3619 2267 
Q 3247 1863 2275 1863 
L 1100 1863 
L 1100 0 
L 494 0 
z
M 1100 2403 
L 2284 2403 
Q 2872 2403 3119 2622 
Q 3366 2841 3366 3238 
Q 3366 3525 3220 3729 
Q 3075 3934 2838 4000 
Q 2684 4041 2272 4041 
L 1100 4041 
L 1100 2403 
z
" transform="scale(0.015625)"/>
      <path id="ArialMT-64" d="M 2575 0 
L 2575 419 
Q 2259 -75 1647 -75 
Q 1250 -75 917 144 
Q 584 363 401 755 
Q 219 1147 219 1656 
Q 219 2153 384 2558 
Q 550 2963 881 3178 
Q 1213 3394 1622 3394 
Q 1922 3394 2156 3267 
Q 2391 3141 2538 2938 
L 2538 4581 
L 3097 4581 
L 3097 0 
L 2575 0 
z
M 797 1656 
Q 797 1019 1065 703 
Q 1334 388 1700 388 
Q 2069 388 2326 689 
Q 2584 991 2584 1609 
Q 2584 2291 2321 2609 
Q 2059 2928 1675 2928 
Q 1300 2928 1048 2622 
Q 797 2316 797 1656 
z
" transform="scale(0.015625)"/>
      <path id="ArialMT-63" d="M 2588 1216 
L 3141 1144 
Q 3050 572 2676 248 
Q 2303 -75 1759 -75 
Q 1078 -75 664 370 
Q 250 816 250 1647 
Q 250 2184 428 2587 
Q 606 2991 970 3192 
Q 1334 3394 1763 3394 
Q 2303 3394 2647 3120 
Q 2991 2847 3088 2344 
L 2541 2259 
Q 2463 2594 2264 2762 
Q 2066 2931 1784 2931 
Q 1359 2931 1093 2626 
Q 828 2322 828 1663 
Q 828 994 1084 691 
Q 1341 388 1753 388 
Q 2084 388 2306 591 
Q 2528 794 2588 1216 
z
" transform="scale(0.015625)"/>
      <path id="ArialMT-6f" d="M 213 1659 
Q 213 2581 725 3025 
Q 1153 3394 1769 3394 
Q 2453 3394 2887 2945 
Q 3322 2497 3322 1706 
Q 3322 1066 3130 698 
Q 2938 331 2570 128 
Q 2203 -75 1769 -75 
Q 1072 -75 642 372 
Q 213 819 213 1659 
z
M 791 1659 
Q 791 1022 1069 705 
Q 1347 388 1769 388 
Q 2188 388 2466 706 
Q 2744 1025 2744 1678 
Q 2744 2294 2464 2611 
Q 2184 2928 1769 2928 
Q 1347 2928 1069 2612 
Q 791 2297 791 1659 
z
" transform="scale(0.015625)"/>
      <path id="ArialMT-6e" d="M 422 0 
L 422 3319 
L 928 3319 
L 928 2847 
Q 1294 3394 1984 3394 
Q 2284 3394 2536 3286 
Q 2788 3178 2913 3003 
Q 3038 2828 3088 2588 
Q 3119 2431 3119 2041 
L 3119 0 
L 2556 0 
L 2556 2019 
Q 2556 2363 2490 2533 
Q 2425 2703 2258 2804 
Q 2091 2906 1866 2906 
Q 1506 2906 1245 2678 
Q 984 2450 984 1813 
L 984 0 
L 422 0 
z
" transform="scale(0.015625)"/>
      <path id="ArialMT-39" d="M 350 1059 
L 891 1109 
Q 959 728 1153 556 
Q 1347 384 1650 384 
Q 1909 384 2104 503 
Q 2300 622 2425 820 
Q 2550 1019 2634 1356 
Q 2719 1694 2719 2044 
Q 2719 2081 2716 2156 
Q 2547 1888 2255 1720 
Q 1963 1553 1622 1553 
Q 1053 1553 659 1965 
Q 266 2378 266 3053 
Q 266 3750 677 4175 
Q 1088 4600 1706 4600 
Q 2153 4600 2523 4359 
Q 2894 4119 3086 3673 
Q 3278 3228 3278 2384 
Q 3278 1506 3087 986 
Q 2897 466 2520 194 
Q 2144 -78 1638 -78 
Q 1100 -78 759 220 
Q 419 519 350 1059 
z
M 2653 3081 
Q 2653 3566 2395 3850 
Q 2138 4134 1775 4134 
Q 1400 4134 1122 3828 
Q 844 3522 844 3034 
Q 844 2597 1108 2323 
Q 1372 2050 1759 2050 
Q 2150 2050 2401 2323 
Q 2653 2597 2653 3081 
z
" transform="scale(0.015625)"/>
      <path id="ArialMT-41" d="M -9 0 
L 1750 4581 
L 2403 4581 
L 4278 0 
L 3588 0 
L 3053 1388 
L 1138 1388 
L 634 0 
L -9 0 
z
M 1313 1881 
L 2866 1881 
L 2388 3150 
Q 2169 3728 2063 4100 
Q 1975 3659 1816 3225 
L 1313 1881 
z
" transform="scale(0.015625)"/>
      <path id="ArialMT-68" d="M 422 0 
L 422 4581 
L 984 4581 
L 984 2938 
Q 1378 3394 1978 3394 
Q 2347 3394 2619 3248 
Q 2891 3103 3008 2847 
Q 3125 2591 3125 2103 
L 3125 0 
L 2563 0 
L 2563 2103 
Q 2563 2525 2380 2717 
Q 2197 2909 1863 2909 
Q 1613 2909 1392 2779 
Q 1172 2650 1078 2428 
Q 984 2206 984 1816 
L 984 0 
L 422 0 
z
" transform="scale(0.015625)"/>
     </defs>
     <use xlink:href="#ArialMT-4d"/>
     <use xlink:href="#ArialMT-61" x="83.300781"/>
     <use xlink:href="#ArialMT-78" x="138.916016"/>
     <use xlink:href="#ArialMT-69" x="188.916016"/>
     <use xlink:href="#ArialMT-6d" x="211.132812"/>
     <use xlink:href="#ArialMT-75" x="294.433594"/>
     <use xlink:href="#ArialMT-6d" x="350.048828"/>
     <use xlink:href="#ArialMT-20" x="433.349609"/>
     <use xlink:href="#ArialMT-54" x="459.382812"/>
     <use xlink:href="#ArialMT-65" x="509.341797"/>
     <use xlink:href="#ArialMT-6d" x="564.957031"/>
     <use xlink:href="#ArialMT-70" x="648.257812"/>
     <use xlink:href="#ArialMT-65" x="703.873047"/>
     <use xlink:href="#ArialMT-72" x="759.488281"/>
     <use xlink:href="#ArialMT-61" x="792.789062"/>
     <use xlink:href="#ArialMT-74" x="848.404297"/>
     <use xlink:href="#ArialMT-75" x="876.1875"/>
     <use xlink:href="#ArialMT-72" x="931.802734"/>
     <use xlink:href="#ArialMT-65" x="965.103516"/>
     <use xlink:href="#ArialMT-20" x="1020.71875"/>
     <use xlink:href="#ArialMT-50" x="1048.501953"/>
     <use xlink:href="#ArialMT-72" x="1115.201172"/>
     <use xlink:href="#ArialMT-65" x="1148.501953"/>
     <use xlink:href="#ArialMT-64" x="1204.117188"/>
     <use xlink:href="#ArialMT-69" x="1259.732422"/>
     <use xlink:href="#ArialMT-63" x="1281.949219"/>
     <use xlink:href="#ArialMT-74" x="1331.949219"/>
     <use xlink:href="#ArialMT-69" x="1359.732422"/>
     <use xlink:href="#ArialMT-6f" x="1381.949219"/>
     <use xlink:href="#ArialMT-6e" x="1437.564453"/>
     <use xlink:href="#ArialMT-20" x="1493.179688"/>
     <use xlink:href="#ArialMT-32" x="1520.962891"/>
     <use xlink:href="#ArialMT-39" x="1576.578125"/>
     <use xlink:href="#ArialMT-20" x="1632.193359"/>
     <use xlink:href="#ArialMT-44" x="1659.976562"/>
     <use xlink:href="#ArialMT-61" x="1732.193359"/>
     <use xlink:href="#ArialMT-79" x="1787.808594"/>
     <use xlink:href="#ArialMT-73" x="1837.808594"/>
     <use xlink:href="#ArialMT-20" x="1887.808594"/>
     <use xlink:href="#ArialMT-41" x="1910.091797"/>
     <use xlink:href="#ArialMT-68" x="1976.791016"/>
     <use xlink:href="#ArialMT-65" x="2032.40625"/>
     <use xlink:href="#ArialMT-61" x="2088.021484"/>
     <use xlink:href="#ArialMT-64" x="2143.636719"/>
    </g>
   </g>
   <g id="legend_1">
    <g id="patch_7">
     <path d="M 437.15625 88.130625 
L 511.4 88.130625 
Q 513.4 88.130625 513.4 86.130625 
L 513.4 58.84 
Q 513.4 56.84 511.4 56.84 
L 437.15625 56.84 
Q 435.15625 56.84 435.15625 58.84 
L 435.15625 86.130625 
Q 435.15625 88.130625 437.15625 88.130625 
z
" style="fill: #eaeaf2; opacity: 0.8; stroke: #cccccc; stroke-linejoin: miter"/>
    </g>
    <g id="line2d_16">
     <path d="M 439.15625 64.497812 
L 449.15625 64.497812 
L 459.15625 64.497812 
" style="fill: none; stroke: #1f77b4; stroke-width: 1.5; stroke-linecap: round"/>
    </g>
    <g id="text_17">
     <!-- Real -->
     <g style="fill: #262626" transform="translate(467.15625 67.997812) scale(0.1 -0.1)">
      <defs>
       <path id="ArialMT-52" d="M 503 0 
L 503 4581 
L 2534 4581 
Q 3147 4581 3465 4457 
Q 3784 4334 3975 4021 
Q 4166 3709 4166 3331 
Q 4166 2844 3850 2509 
Q 3534 2175 2875 2084 
Q 3116 1969 3241 1856 
Q 3506 1613 3744 1247 
L 4541 0 
L 3778 0 
L 3172 953 
Q 2906 1366 2734 1584 
Q 2563 1803 2427 1890 
Q 2291 1978 2150 2013 
Q 2047 2034 1813 2034 
L 1109 2034 
L 1109 0 
L 503 0 
z
M 1109 2559 
L 2413 2559 
Q 2828 2559 3062 2645 
Q 3297 2731 3419 2920 
Q 3541 3109 3541 3331 
Q 3541 3656 3305 3865 
Q 3069 4075 2559 4075 
L 1109 4075 
L 1109 2559 
z
" transform="scale(0.015625)"/>
       <path id="ArialMT-6c" d="M 409 0 
L 409 4581 
L 972 4581 
L 972 0 
L 409 0 
z
" transform="scale(0.015625)"/>
      </defs>
      <use xlink:href="#ArialMT-52"/>
      <use xlink:href="#ArialMT-65" x="72.216797"/>
      <use xlink:href="#ArialMT-61" x="127.832031"/>
      <use xlink:href="#ArialMT-6c" x="183.447266"/>
     </g>
    </g>
    <g id="line2d_17">
     <path d="M 439.15625 78.643125 
L 449.15625 78.643125 
L 459.15625 78.643125 
" style="fill: none; stroke: #ff7f0e; stroke-width: 1.5; stroke-linecap: round"/>
    </g>
    <g id="text_18">
     <!-- Predicted -->
     <g style="fill: #262626" transform="translate(467.15625 82.143125) scale(0.1 -0.1)">
      <use xlink:href="#ArialMT-50"/>
      <use xlink:href="#ArialMT-72" x="66.699219"/>
      <use xlink:href="#ArialMT-65" x="100"/>
      <use xlink:href="#ArialMT-64" x="155.615234"/>
      <use xlink:href="#ArialMT-69" x="211.230469"/>
      <use xlink:href="#ArialMT-63" x="233.447266"/>
      <use xlink:href="#ArialMT-74" x="283.447266"/>
      <use xlink:href="#ArialMT-65" x="311.230469"/>
      <use xlink:href="#ArialMT-64" x="366.845703"/>
     </g>
    </g>
   </g>
  </g>
 </g>
 <defs>
  <clipPath id="p42cc3c1ac7">
   <rect x="72" y="51.84" width="446.4" height="332.64"/>
  </clipPath>
 </defs>
</svg>
