<?xml version="1.0" encoding="utf-8" standalone="no"?>
<!DOCTYPE svg PUBLIC "-//W3C//DTD SVG 1.1//EN"
  "http://www.w3.org/Graphics/SVG/1.1/DTD/svg11.dtd">
<svg xmlns:xlink="http://www.w3.org/1999/xlink" width="576pt" height="432pt" viewBox="0 0 576 432" xmlns="http://www.w3.org/2000/svg" version="1.1">
 <metadata>
  <rdf:RDF xmlns:dc="http://purl.org/dc/elements/1.1/" xmlns:cc="http://creativecommons.org/ns#" xmlns:rdf="http://www.w3.org/1999/02/22-rdf-syntax-ns#">
   <cc:Work>
    <dc:type rdf:resource="http://purl.org/dc/dcmitype/StillImage"/>
    <dc:date>2023-11-17T05:07:34.605789</dc:date>
    <dc:format>image/svg+xml</dc:format>
    <dc:creator>
     <cc:Agent>
      <dc:title>Matplotlib v3.8.0, https://matplotlib.org/</dc:title>
     </cc:Agent>
    </dc:creator>
   </cc:Work>
  </rdf:RDF>
 </metadata>
 <defs>
  <style type="text/css">*{stroke-linejoin: round; stroke-linecap: butt}</style>
 </defs>
 <g id="figure_1">
  <g id="patch_1">
   <path d="M 0 432 
L 576 432 
L 576 0 
L 0 0 
z
" style="fill: #ffffff"/>
  </g>
  <g id="axes_1">
   <g id="patch_2">
    <path d="M 72 384.48 
L 518.4 384.48 
L 518.4 51.84 
L 72 51.84 
z
" style="fill: #eaeaf2"/>
   </g>
   <g id="matplotlib.axis_1">
    <g id="xtick_1">
     <g id="line2d_1">
      <path d="M 92.290909 384.48 
L 92.290909 51.84 
" clip-path="url(#p89ac4a7b16)" style="fill: none; stroke: #ffffff; stroke-width: 0.8; stroke-linecap: round"/>
     </g>
     <g id="text_1">
      <!-- 0 -->
      <g style="fill: #262626" transform="translate(89.51044 398.637812) scale(0.1 -0.1)">
       <defs>
        <path id="ArialMT-30" d="M 266 2259 
Q 266 3072 433 3567 
Q 600 4063 929 4331 
Q 1259 4600 1759 4600 
Q 2128 4600 2406 4451 
Q 2684 4303 2865 4023 
Q 3047 3744 3150 3342 
Q 3253 2941 3253 2259 
Q 3253 1453 3087 958 
Q 2922 463 2592 192 
Q 2263 -78 1759 -78 
Q 1097 -78 719 397 
Q 266 969 266 2259 
z
M 844 2259 
Q 844 1131 1108 757 
Q 1372 384 1759 384 
Q 2147 384 2411 759 
Q 2675 1134 2675 2259 
Q 2675 3391 2411 3762 
Q 2147 4134 1753 4134 
Q 1366 4134 1134 3806 
Q 844 3388 844 2259 
z
" transform="scale(0.015625)"/>
       </defs>
       <use xlink:href="#ArialMT-30"/>
      </g>
     </g>
    </g>
    <g id="xtick_2">
     <g id="line2d_2">
      <path d="M 187.553393 384.48 
L 187.553393 51.84 
" clip-path="url(#p89ac4a7b16)" style="fill: none; stroke: #ffffff; stroke-width: 0.8; stroke-linecap: round"/>
     </g>
     <g id="text_2">
      <!-- 200 -->
      <g style="fill: #262626" transform="translate(179.211987 398.637812) scale(0.1 -0.1)">
       <defs>
        <path id="ArialMT-32" d="M 3222 541 
L 3222 0 
L 194 0 
Q 188 203 259 391 
Q 375 700 629 1000 
Q 884 1300 1366 1694 
Q 2113 2306 2375 2664 
Q 2638 3022 2638 3341 
Q 2638 3675 2398 3904 
Q 2159 4134 1775 4134 
Q 1369 4134 1125 3890 
Q 881 3647 878 3216 
L 300 3275 
Q 359 3922 746 4261 
Q 1134 4600 1788 4600 
Q 2447 4600 2831 4234 
Q 3216 3869 3216 3328 
Q 3216 3053 3103 2787 
Q 2991 2522 2730 2228 
Q 2469 1934 1863 1422 
Q 1356 997 1212 845 
Q 1069 694 975 541 
L 3222 541 
z
" transform="scale(0.015625)"/>
       </defs>
       <use xlink:href="#ArialMT-32"/>
       <use xlink:href="#ArialMT-30" x="55.615234"/>
       <use xlink:href="#ArialMT-30" x="111.230469"/>
      </g>
     </g>
    </g>
    <g id="xtick_3">
     <g id="line2d_3">
      <path d="M 282.815877 384.48 
L 282.815877 51.84 
" clip-path="url(#p89ac4a7b16)" style="fill: none; stroke: #ffffff; stroke-width: 0.8; stroke-linecap: round"/>
     </g>
     <g id="text_3">
      <!-- 400 -->
      <g style="fill: #262626" transform="translate(274.474471 398.637812) scale(0.1 -0.1)">
       <defs>
        <path id="ArialMT-34" d="M 2069 0 
L 2069 1097 
L 81 1097 
L 81 1613 
L 2172 4581 
L 2631 4581 
L 2631 1613 
L 3250 1613 
L 3250 1097 
L 2631 1097 
L 2631 0 
L 2069 0 
z
M 2069 1613 
L 2069 3678 
L 634 1613 
L 2069 1613 
z
" transform="scale(0.015625)"/>
       </defs>
       <use xlink:href="#ArialMT-34"/>
       <use xlink:href="#ArialMT-30" x="55.615234"/>
       <use xlink:href="#ArialMT-30" x="111.230469"/>
      </g>
     </g>
    </g>
    <g id="xtick_4">
     <g id="line2d_4">
      <path d="M 378.078361 384.48 
L 378.078361 51.84 
" clip-path="url(#p89ac4a7b16)" style="fill: none; stroke: #ffffff; stroke-width: 0.8; stroke-linecap: round"/>
     </g>
     <g id="text_4">
      <!-- 600 -->
      <g style="fill: #262626" transform="translate(369.736955 398.637812) scale(0.1 -0.1)">
       <defs>
        <path id="ArialMT-36" d="M 3184 3459 
L 2625 3416 
Q 2550 3747 2413 3897 
Q 2184 4138 1850 4138 
Q 1581 4138 1378 3988 
Q 1113 3794 959 3422 
Q 806 3050 800 2363 
Q 1003 2672 1297 2822 
Q 1591 2972 1913 2972 
Q 2475 2972 2870 2558 
Q 3266 2144 3266 1488 
Q 3266 1056 3080 686 
Q 2894 316 2569 119 
Q 2244 -78 1831 -78 
Q 1128 -78 684 439 
Q 241 956 241 2144 
Q 241 3472 731 4075 
Q 1159 4600 1884 4600 
Q 2425 4600 2770 4297 
Q 3116 3994 3184 3459 
z
M 888 1484 
Q 888 1194 1011 928 
Q 1134 663 1356 523 
Q 1578 384 1822 384 
Q 2178 384 2434 671 
Q 2691 959 2691 1453 
Q 2691 1928 2437 2201 
Q 2184 2475 1800 2475 
Q 1419 2475 1153 2201 
Q 888 1928 888 1484 
z
" transform="scale(0.015625)"/>
       </defs>
       <use xlink:href="#ArialMT-36"/>
       <use xlink:href="#ArialMT-30" x="55.615234"/>
       <use xlink:href="#ArialMT-30" x="111.230469"/>
      </g>
     </g>
    </g>
    <g id="xtick_5">
     <g id="line2d_5">
      <path d="M 473.340845 384.48 
L 473.340845 51.84 
" clip-path="url(#p89ac4a7b16)" style="fill: none; stroke: #ffffff; stroke-width: 0.8; stroke-linecap: round"/>
     </g>
     <g id="text_5">
      <!-- 800 -->
      <g style="fill: #262626" transform="translate(464.999439 398.637812) scale(0.1 -0.1)">
       <defs>
        <path id="ArialMT-38" d="M 1131 2484 
Q 781 2613 612 2850 
Q 444 3088 444 3419 
Q 444 3919 803 4259 
Q 1163 4600 1759 4600 
Q 2359 4600 2725 4251 
Q 3091 3903 3091 3403 
Q 3091 3084 2923 2848 
Q 2756 2613 2416 2484 
Q 2838 2347 3058 2040 
Q 3278 1734 3278 1309 
Q 3278 722 2862 322 
Q 2447 -78 1769 -78 
Q 1091 -78 675 323 
Q 259 725 259 1325 
Q 259 1772 486 2073 
Q 713 2375 1131 2484 
z
M 1019 3438 
Q 1019 3113 1228 2906 
Q 1438 2700 1772 2700 
Q 2097 2700 2305 2904 
Q 2513 3109 2513 3406 
Q 2513 3716 2298 3927 
Q 2084 4138 1766 4138 
Q 1444 4138 1231 3931 
Q 1019 3725 1019 3438 
z
M 838 1322 
Q 838 1081 952 856 
Q 1066 631 1291 507 
Q 1516 384 1775 384 
Q 2178 384 2440 643 
Q 2703 903 2703 1303 
Q 2703 1709 2433 1975 
Q 2163 2241 1756 2241 
Q 1359 2241 1098 1978 
Q 838 1716 838 1322 
z
" transform="scale(0.015625)"/>
       </defs>
       <use xlink:href="#ArialMT-38"/>
       <use xlink:href="#ArialMT-30" x="55.615234"/>
       <use xlink:href="#ArialMT-30" x="111.230469"/>
      </g>
     </g>
    </g>
    <g id="text_6">
     <!-- Days -->
     <g style="fill: #262626" transform="translate(283.808594 411.783125) scale(0.1 -0.1)">
      <defs>
       <path id="ArialMT-44" d="M 494 0 
L 494 4581 
L 2072 4581 
Q 2606 4581 2888 4516 
Q 3281 4425 3559 4188 
Q 3922 3881 4101 3404 
Q 4281 2928 4281 2316 
Q 4281 1794 4159 1391 
Q 4038 988 3847 723 
Q 3656 459 3429 307 
Q 3203 156 2883 78 
Q 2563 0 2147 0 
L 494 0 
z
M 1100 541 
L 2078 541 
Q 2531 541 2789 625 
Q 3047 709 3200 863 
Q 3416 1078 3536 1442 
Q 3656 1806 3656 2325 
Q 3656 3044 3420 3430 
Q 3184 3816 2847 3947 
Q 2603 4041 2063 4041 
L 1100 4041 
L 1100 541 
z
" transform="scale(0.015625)"/>
       <path id="ArialMT-61" d="M 2588 409 
Q 2275 144 1986 34 
Q 1697 -75 1366 -75 
Q 819 -75 525 192 
Q 231 459 231 875 
Q 231 1119 342 1320 
Q 453 1522 633 1644 
Q 813 1766 1038 1828 
Q 1203 1872 1538 1913 
Q 2219 1994 2541 2106 
Q 2544 2222 2544 2253 
Q 2544 2597 2384 2738 
Q 2169 2928 1744 2928 
Q 1347 2928 1158 2789 
Q 969 2650 878 2297 
L 328 2372 
Q 403 2725 575 2942 
Q 747 3159 1072 3276 
Q 1397 3394 1825 3394 
Q 2250 3394 2515 3294 
Q 2781 3194 2906 3042 
Q 3031 2891 3081 2659 
Q 3109 2516 3109 2141 
L 3109 1391 
Q 3109 606 3145 398 
Q 3181 191 3288 0 
L 2700 0 
Q 2613 175 2588 409 
z
M 2541 1666 
Q 2234 1541 1622 1453 
Q 1275 1403 1131 1340 
Q 988 1278 909 1158 
Q 831 1038 831 891 
Q 831 666 1001 516 
Q 1172 366 1500 366 
Q 1825 366 2078 508 
Q 2331 650 2450 897 
Q 2541 1088 2541 1459 
L 2541 1666 
z
" transform="scale(0.015625)"/>
       <path id="ArialMT-79" d="M 397 -1278 
L 334 -750 
Q 519 -800 656 -800 
Q 844 -800 956 -737 
Q 1069 -675 1141 -563 
Q 1194 -478 1313 -144 
Q 1328 -97 1363 -6 
L 103 3319 
L 709 3319 
L 1400 1397 
Q 1534 1031 1641 628 
Q 1738 1016 1872 1384 
L 2581 3319 
L 3144 3319 
L 1881 -56 
Q 1678 -603 1566 -809 
Q 1416 -1088 1222 -1217 
Q 1028 -1347 759 -1347 
Q 597 -1347 397 -1278 
z
" transform="scale(0.015625)"/>
       <path id="ArialMT-73" d="M 197 991 
L 753 1078 
Q 800 744 1014 566 
Q 1228 388 1613 388 
Q 2000 388 2187 545 
Q 2375 703 2375 916 
Q 2375 1106 2209 1216 
Q 2094 1291 1634 1406 
Q 1016 1563 777 1677 
Q 538 1791 414 1992 
Q 291 2194 291 2438 
Q 291 2659 392 2848 
Q 494 3038 669 3163 
Q 800 3259 1026 3326 
Q 1253 3394 1513 3394 
Q 1903 3394 2198 3281 
Q 2494 3169 2634 2976 
Q 2775 2784 2828 2463 
L 2278 2388 
Q 2241 2644 2061 2787 
Q 1881 2931 1553 2931 
Q 1166 2931 1000 2803 
Q 834 2675 834 2503 
Q 834 2394 903 2306 
Q 972 2216 1119 2156 
Q 1203 2125 1616 2013 
Q 2213 1853 2448 1751 
Q 2684 1650 2818 1456 
Q 2953 1263 2953 975 
Q 2953 694 2789 445 
Q 2625 197 2315 61 
Q 2006 -75 1616 -75 
Q 969 -75 630 194 
Q 291 463 197 991 
z
" transform="scale(0.015625)"/>
      </defs>
      <use xlink:href="#ArialMT-44"/>
      <use xlink:href="#ArialMT-61" x="72.216797"/>
      <use xlink:href="#ArialMT-79" x="127.832031"/>
      <use xlink:href="#ArialMT-73" x="177.832031"/>
     </g>
    </g>
   </g>
   <g id="matplotlib.axis_2">
    <g id="ytick_1">
     <g id="line2d_6">
      <path d="M 72 351.892852 
L 518.4 351.892852 
" clip-path="url(#p89ac4a7b16)" style="fill: none; stroke: #ffffff; stroke-width: 0.8; stroke-linecap: round"/>
     </g>
     <g id="text_7">
      <!-- 5 -->
      <g style="fill: #262626" transform="translate(59.439062 355.471758) scale(0.1 -0.1)">
       <defs>
        <path id="ArialMT-35" d="M 266 1200 
L 856 1250 
Q 922 819 1161 601 
Q 1400 384 1738 384 
Q 2144 384 2425 690 
Q 2706 997 2706 1503 
Q 2706 1984 2436 2262 
Q 2166 2541 1728 2541 
Q 1456 2541 1237 2417 
Q 1019 2294 894 2097 
L 366 2166 
L 809 4519 
L 3088 4519 
L 3088 3981 
L 1259 3981 
L 1013 2750 
Q 1425 3038 1878 3038 
Q 2478 3038 2890 2622 
Q 3303 2206 3303 1553 
Q 3303 931 2941 478 
Q 2500 -78 1738 -78 
Q 1113 -78 717 272 
Q 322 622 266 1200 
z
" transform="scale(0.015625)"/>
       </defs>
       <use xlink:href="#ArialMT-35"/>
      </g>
     </g>
    </g>
    <g id="ytick_2">
     <g id="line2d_7">
      <path d="M 72 297.308014 
L 518.4 297.308014 
" clip-path="url(#p89ac4a7b16)" style="fill: none; stroke: #ffffff; stroke-width: 0.8; stroke-linecap: round"/>
     </g>
     <g id="text_8">
      <!-- 10 -->
      <g style="fill: #262626" transform="translate(53.878125 300.886921) scale(0.1 -0.1)">
       <defs>
        <path id="ArialMT-31" d="M 2384 0 
L 1822 0 
L 1822 3584 
Q 1619 3391 1289 3197 
Q 959 3003 697 2906 
L 697 3450 
Q 1169 3672 1522 3987 
Q 1875 4303 2022 4600 
L 2384 4600 
L 2384 0 
z
" transform="scale(0.015625)"/>
       </defs>
       <use xlink:href="#ArialMT-31"/>
       <use xlink:href="#ArialMT-30" x="55.615234"/>
      </g>
     </g>
    </g>
    <g id="ytick_3">
     <g id="line2d_8">
      <path d="M 72 242.723177 
L 518.4 242.723177 
" clip-path="url(#p89ac4a7b16)" style="fill: none; stroke: #ffffff; stroke-width: 0.8; stroke-linecap: round"/>
     </g>
     <g id="text_9">
      <!-- 15 -->
      <g style="fill: #262626" transform="translate(53.878125 246.302083) scale(0.1 -0.1)">
       <use xlink:href="#ArialMT-31"/>
       <use xlink:href="#ArialMT-35" x="55.615234"/>
      </g>
     </g>
    </g>
    <g id="ytick_4">
     <g id="line2d_9">
      <path d="M 72 188.138339 
L 518.4 188.138339 
" clip-path="url(#p89ac4a7b16)" style="fill: none; stroke: #ffffff; stroke-width: 0.8; stroke-linecap: round"/>
     </g>
     <g id="text_10">
      <!-- 20 -->
      <g style="fill: #262626" transform="translate(53.878125 191.717246) scale(0.1 -0.1)">
       <use xlink:href="#ArialMT-32"/>
       <use xlink:href="#ArialMT-30" x="55.615234"/>
      </g>
     </g>
    </g>
    <g id="ytick_5">
     <g id="line2d_10">
      <path d="M 72 133.553502 
L 518.4 133.553502 
" clip-path="url(#p89ac4a7b16)" style="fill: none; stroke: #ffffff; stroke-width: 0.8; stroke-linecap: round"/>
     </g>
     <g id="text_11">
      <!-- 25 -->
      <g style="fill: #262626" transform="translate(53.878125 137.132408) scale(0.1 -0.1)">
       <use xlink:href="#ArialMT-32"/>
       <use xlink:href="#ArialMT-35" x="55.615234"/>
      </g>
     </g>
    </g>
    <g id="ytick_6">
     <g id="line2d_11">
      <path d="M 72 78.968664 
L 518.4 78.968664 
" clip-path="url(#p89ac4a7b16)" style="fill: none; stroke: #ffffff; stroke-width: 0.8; stroke-linecap: round"/>
     </g>
     <g id="text_12">
      <!-- 30 -->
      <g style="fill: #262626" transform="translate(53.878125 82.547571) scale(0.1 -0.1)">
       <defs>
        <path id="ArialMT-33" d="M 269 1209 
L 831 1284 
Q 928 806 1161 595 
Q 1394 384 1728 384 
Q 2125 384 2398 659 
Q 2672 934 2672 1341 
Q 2672 1728 2419 1979 
Q 2166 2231 1775 2231 
Q 1616 2231 1378 2169 
L 1441 2663 
Q 1497 2656 1531 2656 
Q 1891 2656 2178 2843 
Q 2466 3031 2466 3422 
Q 2466 3731 2256 3934 
Q 2047 4138 1716 4138 
Q 1388 4138 1169 3931 
Q 950 3725 888 3313 
L 325 3413 
Q 428 3978 793 4289 
Q 1159 4600 1703 4600 
Q 2078 4600 2393 4439 
Q 2709 4278 2876 4000 
Q 3044 3722 3044 3409 
Q 3044 3113 2884 2869 
Q 2725 2625 2413 2481 
Q 2819 2388 3044 2092 
Q 3269 1797 3269 1353 
Q 3269 753 2831 336 
Q 2394 -81 1725 -81 
Q 1122 -81 723 278 
Q 325 638 269 1209 
z
" transform="scale(0.015625)"/>
       </defs>
       <use xlink:href="#ArialMT-33"/>
       <use xlink:href="#ArialMT-30" x="55.615234"/>
      </g>
     </g>
    </g>
    <g id="text_13">
     <!-- (°C) -->
     <g style="fill: #262626" transform="translate(47.773438 227.099844) rotate(-90) scale(0.1 -0.1)">
      <defs>
       <path id="ArialMT-28" d="M 1497 -1347 
Q 1031 -759 709 28 
Q 388 816 388 1659 
Q 388 2403 628 3084 
Q 909 3875 1497 4659 
L 1900 4659 
Q 1522 4009 1400 3731 
Q 1209 3300 1100 2831 
Q 966 2247 966 1656 
Q 966 153 1900 -1347 
L 1497 -1347 
z
" transform="scale(0.015625)"/>
       <path id="ArialMT-b0" d="M 400 3794 
Q 400 4153 654 4406 
Q 909 4659 1266 4659 
Q 1628 4659 1881 4406 
Q 2134 4153 2134 3794 
Q 2134 3434 1879 3179 
Q 1625 2925 1266 2925 
Q 909 2925 654 3178 
Q 400 3431 400 3794 
z
M 741 3794 
Q 741 3575 895 3420 
Q 1050 3266 1269 3266 
Q 1484 3266 1639 3420 
Q 1794 3575 1794 3794 
Q 1794 4013 1639 4167 
Q 1484 4322 1269 4322 
Q 1050 4322 895 4167 
Q 741 4013 741 3794 
z
" transform="scale(0.015625)"/>
       <path id="ArialMT-43" d="M 3763 1606 
L 4369 1453 
Q 4178 706 3683 314 
Q 3188 -78 2472 -78 
Q 1731 -78 1267 223 
Q 803 525 561 1097 
Q 319 1669 319 2325 
Q 319 3041 592 3573 
Q 866 4106 1370 4382 
Q 1875 4659 2481 4659 
Q 3169 4659 3637 4309 
Q 4106 3959 4291 3325 
L 3694 3184 
Q 3534 3684 3231 3912 
Q 2928 4141 2469 4141 
Q 1941 4141 1586 3887 
Q 1231 3634 1087 3207 
Q 944 2781 944 2328 
Q 944 1744 1114 1308 
Q 1284 872 1643 656 
Q 2003 441 2422 441 
Q 2931 441 3284 734 
Q 3638 1028 3763 1606 
z
" transform="scale(0.015625)"/>
       <path id="ArialMT-29" d="M 791 -1347 
L 388 -1347 
Q 1322 153 1322 1656 
Q 1322 2244 1188 2822 
Q 1081 3291 891 3722 
Q 769 4003 388 4659 
L 791 4659 
Q 1378 3875 1659 3084 
Q 1900 2403 1900 1659 
Q 1900 816 1576 28 
Q 1253 -759 791 -1347 
z
" transform="scale(0.015625)"/>
      </defs>
      <use xlink:href="#ArialMT-28"/>
      <use xlink:href="#ArialMT-b0" x="33.300781"/>
      <use xlink:href="#ArialMT-43" x="73.291016"/>
      <use xlink:href="#ArialMT-29" x="145.507812"/>
     </g>
    </g>
   </g>
   <g id="line2d_12">
    <path d="M 92.290909 159.754224 
L 92.767222 165.212708 
L 93.243534 163.029314 
L 93.719846 154.29574 
L 94.196159 167.396101 
L 94.672471 154.29574 
L 95.148784 146.653863 
L 95.625096 145.562166 
L 96.101408 295.124621 
L 96.577721 306.041588 
L 97.054033 294.032924 
L 97.530346 263.465415 
L 98.006658 249.273357 
L 98.482971 214.339061 
L 98.959283 247.089964 
L 99.435595 256.915235 
L 99.911908 256.915235 
L 100.38822 254.731841 
L 100.864533 224.164332 
L 101.340845 211.063971 
L 102.29347 237.264693 
L 102.769782 205.605487 
L 103.246095 203.422094 
L 103.722407 193.596823 
L 104.675032 223.072635 
L 105.151344 255.823538 
L 105.627657 218.705848 
L 106.103969 197.96361 
L 106.580282 200.147004 
L 107.532907 164.121011 
L 108.009219 291.849531 
L 108.485531 298.399711 
L 108.961844 290.757834 
L 109.438156 315.866859 
L 109.914469 351.892852 
L 110.390781 366.08491 
L 111.343406 336.609097 
L 111.819718 300.583105 
L 112.772343 268.923899 
L 113.724968 244.90657 
L 114.677593 313.683466 
L 115.153905 268.923899 
L 115.630218 249.273357 
L 116.10653 245.998267 
L 116.582843 219.797545 
L 117.059155 255.823538 
L 117.535467 230.714513 
L 118.01178 262.373718 
L 118.488092 276.565776 
L 118.964405 274.382383 
L 119.440717 252.548448 
L 119.917029 289.666137 
L 120.869654 298.399711 
L 121.345967 297.308014 
L 121.822279 283.115957 
L 122.298592 251.456751 
L 122.774904 272.198989 
L 123.251216 322.41704 
L 123.727529 327.875523 
L 124.203841 291.849531 
L 124.680154 296.216318 
L 125.156466 287.482744 
L 125.632778 219.797545 
L 126.109091 300.583105 
L 126.585403 294.032924 
L 127.061716 271.107292 
L 127.538028 266.740505 
L 128.014341 258.006931 
L 128.490653 223.072635 
L 129.443278 275.474079 
L 129.91959 330.058917 
L 130.395903 345.342671 
L 130.872215 332.24231 
L 131.348528 315.866859 
L 131.82484 315.866859 
L 132.301152 352.984549 
L 132.777465 313.683466 
L 133.253777 307.133285 
L 133.73009 280.932563 
L 134.206402 244.90657 
L 134.682714 236.172996 
L 135.159027 282.02426 
L 135.635339 285.29935 
L 136.111652 264.557112 
L 136.587964 264.557112 
L 137.064277 304.949892 
L 137.540589 306.041588 
L 138.016901 309.316679 
L 138.493214 283.115957 
L 138.969526 267.832202 
L 139.445839 238.35639 
L 139.922151 266.740505 
L 140.398464 314.775162 
L 140.874776 332.24231 
L 141.351088 295.124621 
L 141.827401 297.308014 
L 142.303713 328.96722 
L 143.256338 279.840866 
L 143.73265 289.666137 
L 144.208963 303.858195 
L 144.685275 308.224982 
L 145.161588 347.526065 
L 145.6379 298.399711 
L 146.590525 243.814874 
L 147.066837 243.814874 
L 148.019462 219.797545 
L 148.495775 208.880578 
L 148.972087 208.880578 
L 149.448399 327.875523 
L 149.924712 347.526065 
L 150.401024 336.609097 
L 150.877337 285.29935 
L 151.353649 263.465415 
L 151.829962 309.316679 
L 152.306274 282.02426 
L 152.782586 226.347726 
L 153.258899 188.138339 
L 153.735211 189.230036 
L 154.211524 260.190325 
L 154.687836 265.648809 
L 155.164149 299.491408 
L 155.640461 291.849531 
L 156.593086 238.35639 
L 157.545711 274.382383 
L 158.022023 253.640144 
L 158.974648 183.771552 
L 159.45096 193.596823 
L 159.927273 196.871913 
L 160.403585 252.548448 
L 160.879898 361.718123 
L 161.35621 366.08491 
L 161.832522 338.792491 
L 162.308835 343.159278 
L 162.785147 250.365054 
L 163.737772 194.68852 
L 164.214085 172.854585 
L 164.690397 191.41343 
L 165.166709 191.41343 
L 165.643022 185.954946 
L 166.119334 302.766498 
L 167.071959 294.032924 
L 167.548271 310.408375 
L 168.024584 300.583105 
L 168.500896 252.548448 
L 168.977209 247.089964 
L 169.453521 236.172996 
L 169.929834 221.980939 
L 170.882458 184.863249 
L 171.358771 203.422094 
L 172.311396 216.522455 
L 172.787708 215.430758 
L 173.26402 249.273357 
L 173.740333 308.224982 
L 174.216645 326.783827 
L 174.692958 302.766498 
L 175.16927 250.365054 
L 175.645583 228.531119 
L 176.121895 195.780217 
L 176.598207 195.780217 
L 177.07452 185.954946 
L 177.550832 193.596823 
L 178.027145 191.41343 
L 178.503457 203.422094 
L 178.97977 157.57083 
L 179.932394 196.871913 
L 180.408707 259.098628 
L 180.885019 252.548448 
L 181.361332 226.347726 
L 181.837644 190.321733 
L 182.313956 178.313069 
L 183.266581 221.980939 
L 183.742894 213.247365 
L 184.219206 207.788881 
L 184.695519 189.230036 
L 185.171831 178.313069 
L 185.648143 194.68852 
L 186.124456 173.946282 
L 186.600768 200.147004 
L 187.077081 197.96361 
L 187.553393 183.771552 
L 188.029706 163.029314 
L 188.506018 169.579495 
L 188.98233 155.387437 
L 189.458643 164.121011 
L 189.934955 169.579495 
L 190.88758 195.780217 
L 191.363892 187.046643 
L 191.840205 153.204043 
L 192.316517 132.461805 
L 192.79283 203.422094 
L 193.269142 215.430758 
L 193.745455 207.788881 
L 194.698079 172.854585 
L 195.174392 180.496462 
L 195.650704 171.762888 
L 197.079641 130.278412 
L 198.032266 147.74556 
L 198.508579 140.103682 
L 198.984891 135.736895 
L 199.461204 133.553502 
L 200.413828 152.112347 
L 200.890141 149.928953 
L 201.366453 151.02065 
L 201.842766 147.74556 
L 202.319078 131.370108 
L 202.795391 143.378773 
L 203.271703 151.02065 
L 203.748015 141.195379 
L 204.224328 140.103682 
L 204.70064 146.653863 
L 205.176953 142.287076 
L 205.653265 147.74556 
L 206.129577 116.086354 
L 206.60589 111.719567 
L 207.082202 118.269747 
L 207.558515 166.304404 
L 208.034827 159.754224 
L 208.51114 165.212708 
L 208.987452 151.02065 
L 209.463764 153.204043 
L 209.940077 145.562166 
L 210.416389 142.287076 
L 210.892702 136.828592 
L 211.369014 141.195379 
L 211.845327 119.361444 
L 212.321639 104.07769 
L 213.274264 128.095018 
L 213.750576 128.095018 
L 214.226889 154.29574 
L 214.703201 172.854585 
L 215.179513 151.02065 
L 215.655826 151.02065 
L 216.132138 155.387437 
L 216.608451 156.479134 
L 217.084763 160.845921 
L 217.561076 159.754224 
L 218.037388 146.653863 
L 218.5137 136.828592 
L 218.990013 133.553502 
L 219.466325 135.736895 
L 219.942638 146.653863 
L 220.41895 135.736895 
L 220.895262 136.828592 
L 221.371575 136.828592 
L 221.847887 127.003321 
L 222.800512 166.304404 
L 223.276825 80.060361 
L 223.753137 118.269747 
L 224.229449 120.453141 
L 224.705762 130.278412 
L 225.182074 131.370108 
L 225.658387 143.378773 
L 226.134699 140.103682 
L 226.611012 141.195379 
L 227.087324 149.928953 
L 227.563636 133.553502 
L 228.039949 144.470469 
L 228.516261 168.487798 
L 228.992574 165.212708 
L 229.945198 154.29574 
L 230.421511 141.195379 
L 230.897823 151.02065 
L 231.374136 141.195379 
L 231.850448 142.287076 
L 232.803073 132.461805 
L 233.755698 123.728231 
L 234.23201 121.544838 
L 234.708323 121.544838 
L 235.184635 128.095018 
L 235.660948 128.095018 
L 236.13726 129.186715 
L 236.613572 128.095018 
L 237.089885 129.186715 
L 237.566197 129.186715 
L 238.04251 124.819928 
L 238.518822 127.003321 
L 238.995134 112.811264 
L 239.471447 118.269747 
L 239.947759 121.544838 
L 240.424072 131.370108 
L 240.900384 119.361444 
L 241.376697 119.361444 
L 241.853009 154.29574 
L 242.329321 131.370108 
L 242.805634 127.003321 
L 243.281946 146.653863 
L 243.758259 144.470469 
L 244.234571 135.736895 
L 244.710883 135.736895 
L 245.187196 163.029314 
L 245.663508 145.562166 
L 246.139821 137.920289 
L 246.616133 135.736895 
L 247.092446 145.562166 
L 247.568758 144.470469 
L 248.04507 156.479134 
L 248.521383 184.863249 
L 248.997695 181.588159 
L 249.474008 122.636534 
L 249.95032 149.928953 
L 250.426633 158.662527 
L 250.902945 157.57083 
L 251.379257 165.212708 
L 251.85557 161.937617 
L 252.331882 152.112347 
L 252.808195 148.837256 
L 253.760819 130.278412 
L 254.237132 132.461805 
L 254.713444 151.02065 
L 255.189757 152.112347 
L 255.666069 145.562166 
L 256.142382 144.470469 
L 256.618694 140.103682 
L 257.095006 134.645199 
L 258.047631 151.02065 
L 258.523944 141.195379 
L 259.000256 147.74556 
L 259.476569 146.653863 
L 259.952881 157.57083 
L 260.429193 154.29574 
L 260.905506 163.029314 
L 261.381818 159.754224 
L 261.858131 154.29574 
L 262.334443 160.845921 
L 262.810755 164.121011 
L 263.287068 160.845921 
L 263.76338 156.479134 
L 264.239693 267.832202 
L 264.716005 273.290686 
L 265.66863 179.404765 
L 266.144942 158.662527 
L 266.621255 204.513791 
L 267.097567 213.247365 
L 267.57388 204.513791 
L 268.050192 184.863249 
L 268.526504 151.02065 
L 269.002817 156.479134 
L 269.479129 180.496462 
L 269.955442 195.780217 
L 270.431754 178.313069 
L 270.908067 262.373718 
L 271.384379 271.107292 
L 271.860691 252.548448 
L 272.813316 180.496462 
L 273.289629 284.207653 
L 273.765941 286.391047 
L 274.242254 302.766498 
L 274.718566 266.740505 
L 275.194878 251.456751 
L 275.671191 231.806209 
L 276.147503 197.96361 
L 276.623816 176.129675 
L 277.57644 284.207653 
L 278.052753 272.198989 
L 278.529065 243.814874 
L 279.005378 285.29935 
L 279.48169 362.809819 
L 279.958003 369.36 
L 280.434315 338.792491 
L 280.910627 290.757834 
L 281.38694 300.583105 
L 282.339565 251.456751 
L 282.815877 240.539783 
L 283.29219 204.513791 
L 283.768502 191.41343 
L 284.244814 197.96361 
L 284.721127 237.264693 
L 285.197439 265.648809 
L 286.150064 229.622816 
L 286.626376 224.164332 
L 287.102689 253.640144 
L 287.579001 256.915235 
L 288.055314 217.614152 
L 288.531626 220.889242 
L 289.007939 267.832202 
L 289.484251 285.29935 
L 289.960563 254.731841 
L 290.436876 252.548448 
L 290.913188 233.989603 
L 291.389501 241.63148 
L 291.865813 251.456751 
L 292.342125 235.0813 
L 292.818438 262.373718 
L 293.29475 300.583105 
L 293.771063 315.866859 
L 294.247375 296.216318 
L 294.723688 240.539783 
L 295.2 250.365054 
L 295.676312 219.797545 
L 296.152625 315.866859 
L 297.10525 352.984549 
L 297.581562 270.015596 
L 298.057875 289.666137 
L 298.534187 319.141949 
L 299.010499 321.325343 
L 299.963124 272.198989 
L 300.439437 236.172996 
L 300.915749 225.256029 
L 301.392061 219.797545 
L 301.868374 229.622816 
L 302.344686 275.474079 
L 302.820999 296.216318 
L 303.773624 271.107292 
L 304.249936 272.198989 
L 304.726248 308.224982 
L 305.202561 314.775162 
L 306.155186 262.373718 
L 306.631498 275.474079 
L 307.10781 259.098628 
L 307.584123 262.373718 
L 308.060435 277.657473 
L 308.536748 306.041588 
L 309.01306 262.373718 
L 309.489373 260.190325 
L 310.441997 200.147004 
L 310.91831 202.330397 
L 311.394622 215.430758 
L 311.870935 266.740505 
L 312.82356 292.941227 
L 313.299872 265.648809 
L 313.776184 286.391047 
L 314.252497 273.290686 
L 315.205122 231.806209 
L 315.681434 244.90657 
L 316.157746 235.0813 
L 316.634059 270.015596 
L 317.110371 286.391047 
L 317.586684 313.683466 
L 318.062996 288.57444 
L 318.539309 297.308014 
L 319.015621 252.548448 
L 319.491933 245.998267 
L 320.444558 361.718123 
L 321.397183 285.29935 
L 321.873496 204.513791 
L 322.349808 213.247365 
L 322.82612 273.290686 
L 323.302433 287.482744 
L 323.778745 296.216318 
L 324.255058 292.941227 
L 325.207682 261.282022 
L 325.683995 228.531119 
L 326.160307 203.422094 
L 327.112932 316.958556 
L 327.589245 330.058917 
L 328.065557 308.224982 
L 328.541869 278.74917 
L 329.018182 237.264693 
L 329.494494 215.430758 
L 329.970807 301.674801 
L 330.447119 336.609097 
L 330.923431 327.875523 
L 331.876056 264.557112 
L 332.352369 219.797545 
L 332.828681 194.68852 
L 333.304994 193.596823 
L 333.781306 273.290686 
L 334.257618 261.282022 
L 334.733931 262.373718 
L 335.686556 214.339061 
L 336.639181 202.330397 
L 337.115493 205.605487 
L 337.591805 199.055307 
L 338.068118 171.762888 
L 338.54443 179.404765 
L 339.020743 199.055307 
L 339.497055 195.780217 
L 339.973367 190.321733 
L 340.44968 196.871913 
L 340.925992 217.614152 
L 341.402305 245.998267 
L 341.878617 248.181661 
L 342.35493 214.339061 
L 342.831242 199.055307 
L 343.307554 169.579495 
L 343.783867 176.129675 
L 344.260179 176.129675 
L 344.736492 143.378773 
L 345.212804 211.063971 
L 345.689117 227.439422 
L 346.165429 171.762888 
L 346.641741 204.513791 
L 347.118054 178.313069 
L 347.594366 158.662527 
L 348.070679 232.897906 
L 348.546991 230.714513 
L 349.023303 219.797545 
L 349.499616 185.954946 
L 349.975928 177.221372 
L 350.452241 154.29574 
L 350.928553 181.588159 
L 351.404866 187.046643 
L 351.881178 190.321733 
L 352.35749 192.505126 
L 353.310115 275.474079 
L 353.786428 253.640144 
L 354.26274 218.705848 
L 354.739052 166.304404 
L 355.215365 179.404765 
L 355.691677 171.762888 
L 356.16799 152.112347 
L 356.644302 137.920289 
L 357.596927 165.212708 
L 358.073239 151.02065 
L 358.549552 202.330397 
L 359.025864 176.129675 
L 359.978489 159.754224 
L 360.454802 176.129675 
L 360.931114 205.605487 
L 361.407426 177.221372 
L 361.883739 156.479134 
L 362.360051 153.204043 
L 362.836364 178.313069 
L 363.312676 168.487798 
L 363.788988 188.138339 
L 364.741613 199.055307 
L 365.217926 201.2387 
L 365.694238 190.321733 
L 366.170551 183.771552 
L 366.646863 165.212708 
L 367.123175 163.029314 
L 367.599488 147.74556 
L 368.0758 165.212708 
L 368.552113 188.138339 
L 369.504738 156.479134 
L 369.98105 132.461805 
L 370.457362 142.287076 
L 370.933675 167.396101 
L 371.409987 151.02065 
L 371.8863 155.387437 
L 372.362612 175.037978 
L 372.838924 178.313069 
L 373.315237 175.037978 
L 373.791549 145.562166 
L 374.267862 196.871913 
L 374.744174 165.212708 
L 375.220487 184.863249 
L 375.696799 190.321733 
L 376.649424 158.662527 
L 377.125736 149.928953 
L 377.602049 151.02065 
L 378.078361 148.837256 
L 378.554673 144.470469 
L 379.030986 143.378773 
L 379.507298 183.771552 
L 379.983611 154.29574 
L 380.459923 166.304404 
L 380.936236 182.679856 
L 381.412548 176.129675 
L 381.88886 176.129675 
L 382.365173 175.037978 
L 383.317798 149.928953 
L 383.79411 155.387437 
L 384.270423 175.037978 
L 384.746735 142.287076 
L 385.223047 135.736895 
L 385.69936 134.645199 
L 386.175672 136.828592 
L 386.651985 180.496462 
L 387.128297 176.129675 
L 387.604609 157.57083 
L 388.080922 144.470469 
L 388.557234 158.662527 
L 389.033547 131.370108 
L 389.509859 140.103682 
L 389.986172 133.553502 
L 390.462484 136.828592 
L 390.938796 143.378773 
L 391.415109 136.828592 
L 391.891421 148.837256 
L 392.367734 136.828592 
L 392.844046 129.186715 
L 393.320359 125.911625 
L 393.796671 121.544838 
L 394.272983 129.186715 
L 394.749296 134.645199 
L 395.225608 137.920289 
L 395.701921 132.461805 
L 396.178233 137.920289 
L 396.654545 137.920289 
L 397.130858 130.278412 
L 397.60717 127.003321 
L 398.083483 159.754224 
L 398.559795 156.479134 
L 399.036108 142.287076 
L 399.51242 140.103682 
L 399.988732 145.562166 
L 400.941357 131.370108 
L 401.41767 140.103682 
L 401.893982 173.946282 
L 402.370294 145.562166 
L 402.846607 169.579495 
L 403.322919 176.129675 
L 403.799232 161.937617 
L 404.275544 143.378773 
L 404.751857 180.496462 
L 405.228169 161.937617 
L 405.704481 157.57083 
L 406.657106 141.195379 
L 407.133419 142.287076 
L 407.609731 141.195379 
L 408.086044 141.195379 
L 408.562356 163.029314 
L 409.038668 163.029314 
L 409.514981 159.754224 
L 409.991293 142.287076 
L 410.467606 143.378773 
L 410.943918 151.02065 
L 411.42023 149.928953 
L 411.896543 129.186715 
L 412.372855 137.920289 
L 412.849168 132.461805 
L 413.32548 135.736895 
L 413.801793 142.287076 
L 414.278105 106.261083 
L 414.754417 148.837256 
L 415.23073 142.287076 
L 415.707042 123.728231 
L 416.183355 131.370108 
L 416.659667 133.553502 
L 417.612292 127.003321 
L 418.088604 119.361444 
L 418.564917 66.96 
L 419.041229 134.645199 
L 419.517542 133.553502 
L 419.993854 161.937617 
L 420.470166 152.112347 
L 420.946479 163.029314 
L 421.422791 146.653863 
L 421.899104 146.653863 
L 422.375416 66.96 
L 422.851729 120.453141 
L 423.328041 117.178051 
L 423.804353 136.828592 
L 424.280666 135.736895 
L 425.233291 135.736895 
L 425.709603 137.920289 
L 426.185915 137.920289 
L 426.662228 140.103682 
L 427.13854 134.645199 
L 427.614853 142.287076 
L 428.091165 144.470469 
L 428.567478 145.562166 
L 429.04379 141.195379 
L 429.520102 128.095018 
L 429.996415 129.186715 
L 430.472727 128.095018 
L 430.94904 141.195379 
L 431.901665 139.011986 
L 432.854289 141.195379 
L 433.330602 131.370108 
L 433.806914 149.928953 
L 434.283227 146.653863 
L 434.759539 146.653863 
L 435.235851 148.837256 
L 435.712164 131.370108 
L 436.188476 139.011986 
L 436.664789 133.553502 
L 437.141101 133.553502 
L 437.617414 137.920289 
L 438.570038 125.911625 
L 439.046351 117.178051 
L 439.522663 125.911625 
L 440.475288 151.02065 
L 440.951601 149.928953 
L 441.427913 140.103682 
L 441.904225 125.911625 
L 442.380538 154.29574 
L 442.85685 163.029314 
L 443.333163 160.845921 
L 443.809475 146.653863 
L 444.7621 171.762888 
L 445.238412 181.588159 
L 445.714725 182.679856 
L 446.191037 173.946282 
L 446.66735 175.037978 
L 447.143662 156.479134 
L 447.619974 161.937617 
L 448.096287 158.662527 
L 448.572599 163.029314 
L 449.525224 156.479134 
L 450.001536 160.845921 
L 450.477849 160.845921 
L 450.954161 167.396101 
L 451.430474 155.387437 
L 451.906786 151.02065 
L 452.383099 154.29574 
L 452.859411 154.29574 
L 453.812036 165.212708 
L 454.288348 155.387437 
L 454.764661 156.479134 
L 455.240973 178.313069 
L 455.717286 192.505126 
L 456.193598 169.579495 
L 456.66991 189.230036 
L 457.146223 201.2387 
L 457.622535 202.330397 
L 458.57516 179.404765 
L 459.051472 173.946282 
L 459.527785 175.037978 
L 460.48041 221.980939 
L 460.956722 196.871913 
L 461.433035 205.605487 
L 461.909347 189.230036 
L 462.385659 196.871913 
L 462.861972 194.68852 
L 463.338284 172.854585 
L 463.814597 175.037978 
L 464.290909 163.029314 
L 464.767222 155.387437 
L 465.243534 201.2387 
L 465.719846 259.098628 
L 466.196159 243.814874 
L 466.672471 270.015596 
L 467.148784 243.814874 
L 467.625096 231.806209 
L 468.577721 187.046643 
L 469.054033 196.871913 
L 469.530346 242.723177 
L 470.006658 230.714513 
L 470.482971 199.055307 
L 470.959283 233.989603 
L 471.435595 242.723177 
L 472.38822 209.972274 
L 472.864533 208.880578 
L 473.340845 192.505126 
L 473.817157 180.496462 
L 474.29347 197.96361 
L 474.769782 239.448087 
L 475.246095 203.422094 
L 475.722407 176.129675 
L 476.19872 189.230036 
L 476.675032 182.679856 
L 477.151344 189.230036 
L 477.627657 261.282022 
L 478.103969 299.491408 
L 479.056594 273.290686 
L 480.009219 338.792491 
L 480.485531 314.775162 
L 480.961844 332.24231 
L 481.438156 340.975884 
L 481.914469 337.700794 
L 483.343406 243.814874 
L 483.819718 273.290686 
L 484.772343 299.491408 
L 485.248656 275.474079 
L 485.724968 237.264693 
L 486.677593 291.849531 
L 487.153905 267.832202 
L 487.630218 220.889242 
L 488.10653 185.954946 
L 488.582843 201.2387 
L 489.059155 212.155668 
L 489.535467 232.897906 
L 490.01178 199.055307 
L 490.488092 208.880578 
L 490.964405 213.247365 
L 491.440717 238.35639 
L 491.917029 250.365054 
L 492.393342 274.382383 
L 492.869654 283.115957 
L 493.345967 288.57444 
L 493.822279 320.233646 
L 494.298592 295.124621 
L 494.774904 302.766498 
L 495.251216 298.399711 
L 495.727529 302.766498 
L 496.203841 196.871913 
L 496.680154 189.230036 
L 497.156466 171.762888 
L 497.632778 169.579495 
L 498.109091 215.430758 
L 498.109091 215.430758 
" clip-path="url(#p89ac4a7b16)" style="fill: none; stroke: #1f77b4; stroke-width: 1.5; stroke-linecap: round"/>
   </g>
   <g id="line2d_13">
    <path d="M 92.290909 155.808045 
L 92.767222 154.948078 
L 93.243534 164.872875 
L 94.196159 155.820222 
L 94.672471 159.468251 
L 95.148784 218.865354 
L 95.625096 259.843141 
L 96.101408 248.762063 
L 96.577721 250.05009 
L 97.054033 221.223728 
L 97.530346 219.478461 
L 98.006658 239.542699 
L 98.482971 238.686866 
L 98.959283 246.968274 
L 99.435595 251.274765 
L 99.911908 231.001459 
L 100.38822 227.610097 
L 100.864533 213.871568 
L 101.340845 224.200474 
L 101.817157 223.500046 
L 102.29347 220.872816 
L 102.769782 216.306524 
L 103.246095 236.309941 
L 103.722407 227.140839 
L 104.19872 223.410973 
L 104.675032 227.758413 
L 105.151344 222.458877 
L 105.627657 200.102104 
L 106.103969 193.807587 
L 106.580282 209.577126 
L 107.532907 281.921372 
L 108.009219 266.268159 
L 108.485531 275.427276 
L 108.961844 286.869487 
L 109.438156 293.079028 
L 109.914469 290.051712 
L 110.390781 273.976584 
L 110.867093 281.537849 
L 111.819718 247.240195 
L 112.296031 242.712736 
L 112.772343 242.458702 
L 113.248656 274.008446 
L 113.724968 276.934033 
L 114.20128 270.421355 
L 114.677593 247.191945 
L 115.153905 242.093321 
L 115.630218 232.314064 
L 116.10653 236.908447 
L 116.582843 245.660281 
L 117.059155 286.706745 
L 117.535467 298.566158 
L 118.01178 260.486244 
L 118.488092 261.830562 
L 119.440717 300.85023 
L 119.917029 288.496031 
L 120.393342 272.899801 
L 120.869654 278.82262 
L 121.345967 269.805031 
L 121.822279 284.579003 
L 122.298592 279.924727 
L 122.774904 288.400172 
L 123.251216 286.790486 
L 123.727529 281.195695 
L 124.203841 271.578632 
L 124.680154 243.565043 
L 125.156466 292.174052 
L 125.632778 279.399207 
L 126.109091 269.881223 
L 126.585403 267.066888 
L 127.061716 255.934053 
L 127.538028 254.698381 
L 128.014341 255.6004 
L 129.443278 315.651786 
L 129.91959 304.252226 
L 130.395903 285.672678 
L 130.872215 285.242371 
L 131.348528 297.13342 
L 131.82484 279.706133 
L 132.301152 272.093717 
L 132.777465 270.189883 
L 133.253777 241.585874 
L 133.73009 246.47861 
L 134.206402 263.499082 
L 134.682714 286.461139 
L 135.159027 279.466823 
L 135.635339 258.125323 
L 136.111652 281.1225 
L 136.587964 293.538266 
L 137.064277 286.137212 
L 137.540589 284.817002 
L 138.016901 284.235337 
L 138.493214 272.561199 
L 138.969526 251.585667 
L 139.445839 277.239081 
L 139.922151 280.027748 
L 140.398464 265.414041 
L 140.874776 292.180121 
L 141.351088 284.867247 
L 141.827401 295.837822 
L 142.303713 303.494157 
L 142.780026 282.299399 
L 143.256338 271.424904 
L 143.73265 296.931852 
L 144.208963 298.789676 
L 144.685275 274.969842 
L 145.161588 260.649156 
L 145.6379 255.914254 
L 146.114213 280.581989 
L 146.590525 254.807722 
L 147.066837 237.804279 
L 147.54315 236.310744 
L 148.019462 235.670322 
L 148.495775 302.442606 
L 148.972087 314.365533 
L 149.448399 300.026684 
L 149.924712 275.172926 
L 150.401024 263.048879 
L 150.877337 279.816715 
L 151.353649 252.197714 
L 151.829962 217.334563 
L 152.306274 210.363331 
L 152.782586 221.773584 
L 153.258899 272.031669 
L 153.735211 285.329137 
L 154.211524 289.187647 
L 154.687836 291.084568 
L 155.164149 263.073762 
L 156.116773 246.365115 
L 156.593086 268.702268 
L 157.069398 236.990383 
L 157.545711 214.433981 
L 158.022023 271.381735 
L 158.498335 211.915123 
L 158.974648 212.348581 
L 159.45096 214.021315 
L 159.927273 324.12213 
L 160.403585 320.115392 
L 161.35621 264.162837 
L 161.832522 217.042346 
L 162.308835 203.651609 
L 162.785147 212.203428 
L 163.26146 200.780437 
L 163.737772 206.48572 
L 164.214085 186.903365 
L 164.690397 198.454856 
L 165.166709 264.070197 
L 165.643022 292.148708 
L 166.119334 287.381951 
L 166.595647 309.704192 
L 167.071959 275.745543 
L 168.024584 248.761379 
L 168.500896 224.573799 
L 168.977209 265.051717 
L 169.453521 249.84793 
L 169.929834 222.941722 
L 170.406146 242.310987 
L 170.882458 230.852003 
L 171.358771 251.001065 
L 171.835083 254.000629 
L 172.311396 232.336747 
L 172.787708 303.320837 
L 173.26402 313.099578 
L 173.740333 288.61648 
L 174.216645 240.675772 
L 174.692958 212.380626 
L 175.16927 209.422858 
L 175.645583 190.391145 
L 176.121895 190.987842 
L 176.598207 200.971542 
L 177.07452 189.739264 
L 177.550832 184.921607 
L 178.027145 178.872762 
L 178.503457 207.882653 
L 178.97977 197.960655 
L 179.456082 239.441071 
L 180.408707 196.633489 
L 180.885019 174.284252 
L 181.361332 175.143597 
L 181.837644 170.736294 
L 182.313956 193.48067 
L 182.790269 195.726571 
L 183.266581 194.802016 
L 183.742894 196.201253 
L 184.219206 187.628925 
L 184.695519 171.902819 
L 185.171831 168.137102 
L 185.648143 181.843723 
L 186.124456 183.447311 
L 186.600768 185.86458 
L 187.077081 164.646699 
L 187.553393 156.192988 
L 188.029706 162.461759 
L 188.506018 170.235753 
L 188.98233 165.700523 
L 189.458643 171.876668 
L 189.934955 174.513535 
L 190.411268 173.572312 
L 190.88758 145.058754 
L 191.363892 153.538292 
L 191.840205 211.256198 
L 192.316517 218.683548 
L 193.269142 179.403837 
L 193.745455 175.949459 
L 194.221767 176.387053 
L 194.698079 166.61247 
L 195.174392 161.443934 
L 195.650704 151.483876 
L 196.127017 152.892812 
L 196.603329 152.628927 
L 197.079641 143.433424 
L 197.555954 144.250106 
L 198.032266 150.140515 
L 198.508579 150.396784 
L 198.984891 147.743054 
L 199.461204 151.260532 
L 199.937516 150.14657 
L 200.413828 144.659642 
L 200.890141 140.612974 
L 201.366453 150.950336 
L 201.842766 143.895204 
L 202.319078 148.611445 
L 202.795391 143.393872 
L 203.748015 145.590007 
L 204.224328 142.112739 
L 204.70064 136.286753 
L 205.176953 134.685734 
L 205.653265 134.585869 
L 206.129577 134.312382 
L 206.60589 143.279845 
L 207.082202 159.69941 
L 207.558515 153.425513 
L 208.034827 144.343902 
L 208.51114 145.560788 
L 208.987452 145.45478 
L 209.463764 138.921491 
L 209.940077 140.421102 
L 210.416389 138.470906 
L 210.892702 135.853988 
L 211.369014 134.257814 
L 211.845327 142.797807 
L 212.321639 139.405592 
L 212.797951 134.540227 
L 213.274264 139.424189 
L 213.750576 163.093704 
L 214.226889 152.299844 
L 214.703201 145.0575 
L 215.179513 146.420129 
L 215.655826 146.693616 
L 216.132138 147.998919 
L 216.608451 146.285286 
L 217.084763 146.970275 
L 217.561076 146.865065 
L 218.037388 141.210835 
L 218.5137 140.035521 
L 219.466325 139.405592 
L 219.942638 134.723202 
L 220.41895 134.716446 
L 220.895262 134.502082 
L 221.371575 142.045743 
L 221.847887 145.121001 
L 222.3242 134.754697 
L 222.800512 135.068902 
L 223.276825 135.851946 
L 223.753137 139.31073 
L 224.229449 140.991936 
L 224.705762 137.126003 
L 225.182074 137.087561 
L 225.658387 136.870401 
L 226.134699 135.777313 
L 226.611012 141.886741 
L 227.563636 162.700695 
L 228.039949 152.78329 
L 228.516261 145.814433 
L 228.992574 145.814433 
L 229.468886 142.20976 
L 229.945198 147.725432 
L 230.421511 140.684644 
L 230.897823 138.302682 
L 231.374136 138.053887 
L 231.850448 134.931795 
L 232.326761 137.594105 
L 232.803073 135.205282 
L 233.755698 134.754697 
L 234.23201 134.754697 
L 234.708323 135.480135 
L 235.184635 135.206648 
L 235.660948 135.685608 
L 236.13726 136.39245 
L 237.089885 136.39245 
L 237.566197 136.674863 
L 238.04251 135.326612 
L 238.518822 134.754697 
L 239.471447 134.754697 
L 240.424072 134.257814 
L 240.900384 139.907635 
L 241.376697 137.539512 
L 241.853009 142.994578 
L 242.329321 144.915372 
L 242.805634 143.585995 
L 243.281946 135.306513 
L 244.234571 145.814433 
L 244.710883 144.456524 
L 245.187196 141.444721 
L 245.663508 145.540946 
L 246.139821 151.238478 
L 246.616133 147.350912 
L 247.092446 153.388594 
L 247.568758 195.087156 
L 248.04507 193.36512 
L 248.521383 141.45697 
L 248.997695 154.260929 
L 249.474008 157.639057 
L 249.95032 159.155085 
L 250.902945 151.049005 
L 251.379257 152.655458 
L 251.85557 146.198628 
L 252.331882 153.058424 
L 253.284507 155.964903 
L 253.760819 154.608818 
L 254.237132 154.921648 
L 254.713444 155.038359 
L 255.189757 156.661883 
L 255.666069 154.141281 
L 256.142382 149.613014 
L 256.618694 154.389452 
L 257.095006 153.858824 
L 257.571319 154.397756 
L 258.047631 153.905283 
L 258.523944 152.454073 
L 259.000256 152.994578 
L 259.476569 153.842046 
L 259.952881 155.870249 
L 260.429193 146.154815 
L 260.905506 146.154815 
L 261.381818 154.139421 
L 261.858131 158.926343 
L 262.334443 154.737089 
L 262.810755 153.056777 
L 263.287068 188.774911 
L 263.76338 244.263083 
L 264.239693 193.422607 
L 264.716005 163.105993 
L 265.192318 157.97396 
L 265.66863 185.751658 
L 266.144942 193.155124 
L 266.621255 192.775632 
L 267.097567 158.102236 
L 267.57388 167.926417 
L 268.050192 164.789581 
L 268.526504 187.858824 
L 269.002817 186.054746 
L 269.479129 179.993441 
L 269.955442 220.142069 
L 270.431754 219.057251 
L 270.908067 201.879008 
L 271.384379 196.546992 
L 271.860691 194.212759 
L 272.337004 224.277453 
L 272.813316 262.104142 
L 273.289629 256.995895 
L 273.765941 227.214297 
L 274.242254 233.892577 
L 274.718566 204.04188 
L 275.194878 201.859327 
L 275.671191 198.835751 
L 276.147503 205.273999 
L 276.623816 269.163429 
L 277.100128 263.584161 
L 277.57644 268.941051 
L 278.052753 234.756233 
L 278.529065 309.572577 
L 279.005378 324.007123 
L 279.48169 264.174186 
L 279.958003 242.703288 
L 280.434315 242.636141 
L 281.38694 234.84594 
L 281.863252 224.250705 
L 282.339565 233.76517 
L 282.815877 223.628879 
L 283.29219 216.728211 
L 283.768502 255.137003 
L 284.244814 241.226344 
L 285.197439 229.177632 
L 285.673752 243.097035 
L 286.150064 248.96587 
L 286.626376 237.635047 
L 287.102689 207.096721 
L 288.055314 272.057794 
L 288.531626 254.085435 
L 289.007939 245.120736 
L 289.484251 251.294765 
L 289.960563 236.170094 
L 290.436876 238.881759 
L 290.913188 239.746402 
L 291.389501 231.448337 
L 292.342125 290.542315 
L 292.818438 284.28558 
L 293.771063 220.670883 
L 294.247375 225.635018 
L 294.723688 229.11482 
L 295.2 289.632787 
L 295.676312 295.128534 
L 296.152625 309.773588 
L 296.628937 286.055542 
L 297.10525 284.036836 
L 297.581562 283.848531 
L 298.057875 279.332004 
L 298.534187 259.842925 
L 299.486812 250.144447 
L 299.963124 246.583776 
L 300.439437 219.753665 
L 300.915749 243.324668 
L 301.868374 302.737084 
L 302.820999 255.439496 
L 303.297311 266.600392 
L 303.773624 258.489399 
L 304.249936 263.900441 
L 304.726248 247.708492 
L 305.678873 273.570586 
L 306.155186 250.268937 
L 306.631498 254.784732 
L 307.10781 263.923003 
L 307.584123 279.269437 
L 308.060435 255.54723 
L 308.536748 248.398097 
L 309.01306 253.587079 
L 309.489373 241.717542 
L 309.965685 247.03163 
L 310.441997 245.782447 
L 310.91831 276.479887 
L 311.394622 276.985149 
L 311.870935 287.524279 
L 312.347247 277.414503 
L 312.82356 252.527361 
L 313.299872 254.614768 
L 313.776184 276.141104 
L 314.252497 232.717713 
L 314.728809 245.047932 
L 315.205122 240.420681 
L 315.681434 270.456194 
L 316.157746 288.059214 
L 316.634059 288.865622 
L 317.110371 292.755951 
L 318.062996 260.418016 
L 318.539309 248.579501 
L 319.015621 274.216151 
L 319.491933 270.443181 
L 319.968246 260.928124 
L 320.444558 249.140901 
L 320.920871 230.323784 
L 321.397183 228.553936 
L 321.873496 272.847442 
L 322.349808 300.462273 
L 322.82612 286.999918 
L 323.302433 301.077908 
L 324.255058 239.065886 
L 324.73137 226.406058 
L 325.207682 221.798441 
L 325.683995 257.001216 
L 326.160307 280.318859 
L 327.112932 286.85819 
L 328.065557 225.644367 
L 328.541869 223.991266 
L 329.018182 284.213551 
L 329.494494 293.595336 
L 329.970807 273.466289 
L 330.447119 264.747363 
L 330.923431 226.057708 
L 331.399744 214.122625 
L 331.876056 231.451779 
L 332.352369 231.051691 
L 332.828681 260.493468 
L 333.304994 245.146086 
L 334.257618 236.406905 
L 334.733931 228.666321 
L 335.210243 234.940198 
L 335.686556 207.291185 
L 336.162868 209.847049 
L 336.639181 192.523953 
L 337.115493 182.531225 
L 337.591805 203.539756 
L 338.068118 216.275819 
L 338.54443 203.674254 
L 339.020743 197.536008 
L 339.497055 181.57768 
L 339.973367 205.938058 
L 340.44968 260.182165 
L 340.925992 227.661368 
L 341.402305 207.398606 
L 341.878617 201.204355 
L 342.35493 177.500021 
L 342.831242 173.423689 
L 343.307554 161.726381 
L 343.783867 166.161561 
L 344.260179 223.706289 
L 344.736492 203.848987 
L 345.212804 176.241797 
L 345.689117 195.905392 
L 346.165429 172.197532 
L 346.641741 183.502148 
L 347.118054 218.401213 
L 347.594366 239.074695 
L 348.070679 216.15871 
L 348.546991 187.545828 
L 349.023303 166.053461 
L 349.499616 159.349493 
L 349.975928 181.582639 
L 350.452241 193.285977 
L 350.928553 163.041687 
L 351.404866 175.328345 
L 351.881178 217.598067 
L 352.35749 270.400555 
L 352.833803 266.868485 
L 353.310115 193.396984 
L 353.786428 189.559932 
L 354.26274 166.699601 
L 354.739052 157.708922 
L 355.215365 162.240301 
L 355.691677 154.119521 
L 356.16799 150.012831 
L 356.644302 148.539853 
L 357.120615 155.39816 
L 357.596927 196.501344 
L 358.073239 166.121446 
L 358.549552 157.465491 
L 359.025864 151.34373 
L 359.502177 165.285772 
L 359.978489 162.679159 
L 360.454802 161.584303 
L 361.407426 147.174759 
L 361.883739 152.624891 
L 362.360051 162.390665 
L 362.836364 162.31309 
L 363.312676 167.087574 
L 363.788988 193.732959 
L 364.265301 198.011086 
L 364.741613 180.961393 
L 365.694238 165.559303 
L 366.170551 163.645933 
L 366.646863 160.676176 
L 367.123175 159.567462 
L 367.599488 160.655732 
L 368.0758 154.172935 
L 369.028425 147.314193 
L 369.504738 154.631926 
L 369.98105 156.767789 
L 370.457362 151.983292 
L 370.933675 160.45544 
L 371.409987 159.309239 
L 371.8863 164.283188 
L 372.838924 149.948198 
L 373.315237 165.288203 
L 373.791549 164.719959 
L 374.267862 167.313359 
L 374.744174 171.650381 
L 375.696799 158.100463 
L 376.173111 154.332633 
L 376.649424 158.783059 
L 377.125736 154.10335 
L 377.602049 144.615164 
L 378.078361 137.547314 
L 378.554673 141.277721 
L 379.507298 166.414357 
L 380.459923 158.804719 
L 380.936236 155.611029 
L 381.412548 153.808802 
L 381.88886 157.546742 
L 382.365173 157.109907 
L 382.841485 152.48165 
L 383.317798 160.123914 
L 383.79411 153.746591 
L 384.270423 151.829042 
L 384.746735 141.125306 
L 385.223047 141.479588 
L 386.175672 159.481314 
L 386.651985 159.119404 
L 387.128297 159.69941 
L 387.604609 161.895603 
L 388.080922 150.119718 
L 388.557234 170.051246 
L 389.033547 152.358893 
L 389.509859 150.227067 
L 389.986172 150.488737 
L 390.462484 154.338992 
L 391.415109 139.175368 
L 391.891421 140.004785 
L 392.367734 148.028749 
L 392.844046 136.396957 
L 393.320359 134.69652 
L 393.796671 131.083174 
L 394.272983 135.206648 
L 394.749296 135.950274 
L 395.225608 134.805892 
L 395.701921 139.915027 
L 396.178233 136.505683 
L 396.654545 140.183742 
L 397.130858 153.70003 
L 397.60717 159.763858 
L 398.083483 146.005806 
L 398.559795 145.914298 
L 399.036108 146.049669 
L 399.51242 142.454029 
L 399.988732 137.343625 
L 400.465045 146.954415 
L 400.941357 164.556675 
L 401.41767 163.555399 
L 401.893982 167.143303 
L 402.370294 166.424798 
L 402.846607 160.458847 
L 403.322919 156.292369 
L 403.799232 157.419316 
L 404.275544 152.395777 
L 404.751857 152.803529 
L 405.228169 148.447353 
L 405.704481 149.894636 
L 406.180794 157.783019 
L 406.657106 150.327969 
L 407.133419 147.539606 
L 407.609731 154.517399 
L 408.086044 154.188261 
L 408.562356 147.942335 
L 409.038668 146.49457 
L 409.514981 146.265018 
L 409.991293 148.586127 
L 410.467606 145.301635 
L 410.943918 138.794234 
L 411.42023 144.42786 
L 411.896543 142.373044 
L 412.372855 135.646039 
L 412.849168 137.76997 
L 413.32548 138.044382 
L 413.801793 149.009317 
L 414.278105 140.749339 
L 414.754417 135.480135 
L 415.23073 137.800114 
L 415.707042 141.038087 
L 416.183355 138.983837 
L 416.659667 136.405601 
L 417.13598 145.728644 
L 417.612292 136.608462 
L 418.088604 145.797435 
L 418.564917 145.643715 
L 419.041229 164.853016 
L 419.517542 164.070607 
L 419.993854 162.361916 
L 420.470166 161.374093 
L 420.946479 158.946759 
L 421.422791 139.250574 
L 421.899104 140.621501 
L 422.375416 139.943658 
L 422.851729 147.84193 
L 423.328041 139.520354 
L 423.804353 139.584069 
L 424.280666 144.120276 
L 424.756978 141.195114 
L 425.233291 136.866884 
L 425.709603 147.262875 
L 426.185915 144.767206 
L 426.662228 140.691007 
L 427.13854 139.287446 
L 427.614853 145.723222 
L 428.091165 137.166198 
L 428.567478 136.65212 
L 429.04379 130.940015 
L 429.520102 135.148858 
L 429.996415 140.79868 
L 430.472727 144.341097 
L 430.94904 140.923672 
L 431.425352 138.352773 
L 431.901665 135.028895 
L 432.854289 144.27877 
L 433.330602 145.75432 
L 433.806914 153.348016 
L 434.283227 152.943097 
L 434.759539 144.834104 
L 435.712164 137.650747 
L 436.188476 138.69875 
L 436.664789 138.470906 
L 437.141101 135.58153 
L 437.617414 134.156802 
L 438.093726 138.532149 
L 438.570038 140.20146 
L 439.046351 146.239702 
L 439.522663 160.01203 
L 439.998976 145.540946 
L 440.475288 145.540946 
L 440.951601 139.647585 
L 441.427913 144.332061 
L 441.904225 159.117128 
L 442.380538 152.943097 
L 442.85685 144.815507 
L 443.333163 160.578419 
L 443.809475 163.637762 
L 444.285787 186.454029 
L 444.7621 167.056826 
L 445.238412 163.965115 
L 445.714725 154.212182 
L 446.191037 150.8347 
L 446.66735 156.156282 
L 447.619974 152.511582 
L 448.096287 155.368032 
L 448.572599 153.82603 
L 449.048912 163.854941 
L 449.525224 159.861879 
L 450.477849 155.512867 
L 450.954161 153.99077 
L 451.430474 154.427706 
L 451.906786 153.812828 
L 452.383099 155.418362 
L 452.859411 153.452567 
L 453.335723 154.212068 
L 453.812036 154.182199 
L 454.288348 164.446472 
L 454.764661 167.374582 
L 455.240973 163.973771 
L 455.717286 168.422986 
L 456.193598 163.686429 
L 456.66991 165.235695 
L 457.146223 182.174722 
L 457.622535 174.018468 
L 458.098848 173.441901 
L 458.57516 175.692104 
L 459.051472 189.673608 
L 459.527785 211.70305 
L 460.004097 198.007216 
L 460.48041 188.195824 
L 460.956722 195.978838 
L 461.433035 191.303014 
L 462.385659 163.515377 
L 462.861972 166.456078 
L 463.338284 165.726463 
L 463.814597 166.622152 
L 464.290909 194.759194 
L 464.767222 265.396785 
L 465.243534 227.337989 
L 465.719846 222.424014 
L 466.196159 207.908439 
L 466.672471 207.108945 
L 467.148784 198.354546 
L 467.625096 186.061131 
L 468.101408 201.788543 
L 468.577721 223.66704 
L 469.054033 217.292709 
L 469.530346 203.435367 
L 470.006658 223.513002 
L 470.959283 241.073689 
L 471.435595 230.128584 
L 471.911908 230.309403 
L 472.38822 200.462366 
L 472.864533 192.75735 
L 473.340845 201.173447 
L 473.817157 204.320505 
L 474.29347 209.005955 
L 474.769782 193.31934 
L 475.246095 196.940785 
L 475.722407 196.682225 
L 476.19872 200.479326 
L 476.675032 275.26505 
L 477.151344 283.073877 
L 477.627657 250.104923 
L 478.580282 285.947952 
L 479.056594 287.427332 
L 479.532907 285.94389 
L 480.009219 288.203397 
L 480.485531 311.054871 
L 480.961844 276.48955 
L 481.438156 274.572299 
L 481.914469 260.559854 
L 482.390781 242.395531 
L 482.867093 268.831273 
L 483.343406 275.670646 
L 483.819718 252.245525 
L 484.296031 246.155499 
L 484.772343 231.878802 
L 485.724968 282.792782 
L 486.20128 256.027717 
L 486.677593 246.646235 
L 487.153905 233.765444 
L 487.630218 241.183502 
L 488.10653 239.112139 
L 488.582843 244.681462 
L 489.059155 240.266767 
L 489.535467 264.234707 
L 490.488092 235.006217 
L 490.964405 263.562806 
L 491.440717 274.266337 
L 491.917029 263.337209 
L 492.393342 298.15842 
L 492.869654 300.338783 
L 493.345967 278.781863 
L 493.822279 268.608962 
L 494.298592 300.840763 
L 494.774904 262.642169 
L 495.251216 207.984001 
L 495.727529 199.805583 
L 496.203841 195.559284 
L 496.680154 193.009848 
L 496.680154 193.009848 
" clip-path="url(#p89ac4a7b16)" style="fill: none; stroke: #ff7f0e; stroke-width: 1.5; stroke-linecap: round"/>
   </g>
   <g id="patch_3">
    <path d="M 72 384.48 
L 72 51.84 
" style="fill: none; stroke: #ffffff; stroke-width: 0.8; stroke-linejoin: miter; stroke-linecap: square"/>
   </g>
   <g id="patch_4">
    <path d="M 518.4 384.48 
L 518.4 51.84 
" style="fill: none; stroke: #ffffff; stroke-width: 0.8; stroke-linejoin: miter; stroke-linecap: square"/>
   </g>
   <g id="patch_5">
    <path d="M 72 384.48 
L 518.4 384.48 
" style="fill: none; stroke: #ffffff; stroke-width: 0.8; stroke-linejoin: miter; stroke-linecap: square"/>
   </g>
   <g id="patch_6">
    <path d="M 72 51.84 
L 518.4 51.84 
" style="fill: none; stroke: #ffffff; stroke-width: 0.8; stroke-linejoin: miter; stroke-linecap: square"/>
   </g>
   <g id="text_14">
    <!-- Minimum Temperature Prediction 27 Days Ahead -->
    <g style="fill: #262626" transform="translate(164.920312 45.84) scale(0.12 -0.12)">
     <defs>
      <path id="ArialMT-4d" d="M 475 0 
L 475 4581 
L 1388 4581 
L 2472 1338 
Q 2622 884 2691 659 
Q 2769 909 2934 1394 
L 4031 4581 
L 4847 4581 
L 4847 0 
L 4263 0 
L 4263 3834 
L 2931 0 
L 2384 0 
L 1059 3900 
L 1059 0 
L 475 0 
z
" transform="scale(0.015625)"/>
      <path id="ArialMT-69" d="M 425 3934 
L 425 4581 
L 988 4581 
L 988 3934 
L 425 3934 
z
M 425 0 
L 425 3319 
L 988 3319 
L 988 0 
L 425 0 
z
" transform="scale(0.015625)"/>
      <path id="ArialMT-6e" d="M 422 0 
L 422 3319 
L 928 3319 
L 928 2847 
Q 1294 3394 1984 3394 
Q 2284 3394 2536 3286 
Q 2788 3178 2913 3003 
Q 3038 2828 3088 2588 
Q 3119 2431 3119 2041 
L 3119 0 
L 2556 0 
L 2556 2019 
Q 2556 2363 2490 2533 
Q 2425 2703 2258 2804 
Q 2091 2906 1866 2906 
Q 1506 2906 1245 2678 
Q 984 2450 984 1813 
L 984 0 
L 422 0 
z
" transform="scale(0.015625)"/>
      <path id="ArialMT-6d" d="M 422 0 
L 422 3319 
L 925 3319 
L 925 2853 
Q 1081 3097 1340 3245 
Q 1600 3394 1931 3394 
Q 2300 3394 2536 3241 
Q 2772 3088 2869 2813 
Q 3263 3394 3894 3394 
Q 4388 3394 4653 3120 
Q 4919 2847 4919 2278 
L 4919 0 
L 4359 0 
L 4359 2091 
Q 4359 2428 4304 2576 
Q 4250 2725 4106 2815 
Q 3963 2906 3769 2906 
Q 3419 2906 3187 2673 
Q 2956 2441 2956 1928 
L 2956 0 
L 2394 0 
L 2394 2156 
Q 2394 2531 2256 2718 
Q 2119 2906 1806 2906 
Q 1569 2906 1367 2781 
Q 1166 2656 1075 2415 
Q 984 2175 984 1722 
L 984 0 
L 422 0 
z
" transform="scale(0.015625)"/>
      <path id="ArialMT-75" d="M 2597 0 
L 2597 488 
Q 2209 -75 1544 -75 
Q 1250 -75 995 37 
Q 741 150 617 320 
Q 494 491 444 738 
Q 409 903 409 1263 
L 409 3319 
L 972 3319 
L 972 1478 
Q 972 1038 1006 884 
Q 1059 663 1231 536 
Q 1403 409 1656 409 
Q 1909 409 2131 539 
Q 2353 669 2445 892 
Q 2538 1116 2538 1541 
L 2538 3319 
L 3100 3319 
L 3100 0 
L 2597 0 
z
" transform="scale(0.015625)"/>
      <path id="ArialMT-20" transform="scale(0.015625)"/>
      <path id="ArialMT-54" d="M 1659 0 
L 1659 4041 
L 150 4041 
L 150 4581 
L 3781 4581 
L 3781 4041 
L 2266 4041 
L 2266 0 
L 1659 0 
z
" transform="scale(0.015625)"/>
      <path id="ArialMT-65" d="M 2694 1069 
L 3275 997 
Q 3138 488 2766 206 
Q 2394 -75 1816 -75 
Q 1088 -75 661 373 
Q 234 822 234 1631 
Q 234 2469 665 2931 
Q 1097 3394 1784 3394 
Q 2450 3394 2872 2941 
Q 3294 2488 3294 1666 
Q 3294 1616 3291 1516 
L 816 1516 
Q 847 969 1125 678 
Q 1403 388 1819 388 
Q 2128 388 2347 550 
Q 2566 713 2694 1069 
z
M 847 1978 
L 2700 1978 
Q 2663 2397 2488 2606 
Q 2219 2931 1791 2931 
Q 1403 2931 1139 2672 
Q 875 2413 847 1978 
z
" transform="scale(0.015625)"/>
      <path id="ArialMT-70" d="M 422 -1272 
L 422 3319 
L 934 3319 
L 934 2888 
Q 1116 3141 1344 3267 
Q 1572 3394 1897 3394 
Q 2322 3394 2647 3175 
Q 2972 2956 3137 2557 
Q 3303 2159 3303 1684 
Q 3303 1175 3120 767 
Q 2938 359 2589 142 
Q 2241 -75 1856 -75 
Q 1575 -75 1351 44 
Q 1128 163 984 344 
L 984 -1272 
L 422 -1272 
z
M 931 1641 
Q 931 1000 1190 694 
Q 1450 388 1819 388 
Q 2194 388 2461 705 
Q 2728 1022 2728 1688 
Q 2728 2322 2467 2637 
Q 2206 2953 1844 2953 
Q 1484 2953 1207 2617 
Q 931 2281 931 1641 
z
" transform="scale(0.015625)"/>
      <path id="ArialMT-72" d="M 416 0 
L 416 3319 
L 922 3319 
L 922 2816 
Q 1116 3169 1280 3281 
Q 1444 3394 1641 3394 
Q 1925 3394 2219 3213 
L 2025 2691 
Q 1819 2813 1613 2813 
Q 1428 2813 1281 2702 
Q 1134 2591 1072 2394 
Q 978 2094 978 1738 
L 978 0 
L 416 0 
z
" transform="scale(0.015625)"/>
      <path id="ArialMT-74" d="M 1650 503 
L 1731 6 
Q 1494 -44 1306 -44 
Q 1000 -44 831 53 
Q 663 150 594 308 
Q 525 466 525 972 
L 525 2881 
L 113 2881 
L 113 3319 
L 525 3319 
L 525 4141 
L 1084 4478 
L 1084 3319 
L 1650 3319 
L 1650 2881 
L 1084 2881 
L 1084 941 
Q 1084 700 1114 631 
Q 1144 563 1211 522 
Q 1278 481 1403 481 
Q 1497 481 1650 503 
z
" transform="scale(0.015625)"/>
      <path id="ArialMT-50" d="M 494 0 
L 494 4581 
L 2222 4581 
Q 2678 4581 2919 4538 
Q 3256 4481 3484 4323 
Q 3713 4166 3852 3881 
Q 3991 3597 3991 3256 
Q 3991 2672 3619 2267 
Q 3247 1863 2275 1863 
L 1100 1863 
L 1100 0 
L 494 0 
z
M 1100 2403 
L 2284 2403 
Q 2872 2403 3119 2622 
Q 3366 2841 3366 3238 
Q 3366 3525 3220 3729 
Q 3075 3934 2838 4000 
Q 2684 4041 2272 4041 
L 1100 4041 
L 1100 2403 
z
" transform="scale(0.015625)"/>
      <path id="ArialMT-64" d="M 2575 0 
L 2575 419 
Q 2259 -75 1647 -75 
Q 1250 -75 917 144 
Q 584 363 401 755 
Q 219 1147 219 1656 
Q 219 2153 384 2558 
Q 550 2963 881 3178 
Q 1213 3394 1622 3394 
Q 1922 3394 2156 3267 
Q 2391 3141 2538 2938 
L 2538 4581 
L 3097 4581 
L 3097 0 
L 2575 0 
z
M 797 1656 
Q 797 1019 1065 703 
Q 1334 388 1700 388 
Q 2069 388 2326 689 
Q 2584 991 2584 1609 
Q 2584 2291 2321 2609 
Q 2059 2928 1675 2928 
Q 1300 2928 1048 2622 
Q 797 2316 797 1656 
z
" transform="scale(0.015625)"/>
      <path id="ArialMT-63" d="M 2588 1216 
L 3141 1144 
Q 3050 572 2676 248 
Q 2303 -75 1759 -75 
Q 1078 -75 664 370 
Q 250 816 250 1647 
Q 250 2184 428 2587 
Q 606 2991 970 3192 
Q 1334 3394 1763 3394 
Q 2303 3394 2647 3120 
Q 2991 2847 3088 2344 
L 2541 2259 
Q 2463 2594 2264 2762 
Q 2066 2931 1784 2931 
Q 1359 2931 1093 2626 
Q 828 2322 828 1663 
Q 828 994 1084 691 
Q 1341 388 1753 388 
Q 2084 388 2306 591 
Q 2528 794 2588 1216 
z
" transform="scale(0.015625)"/>
      <path id="ArialMT-6f" d="M 213 1659 
Q 213 2581 725 3025 
Q 1153 3394 1769 3394 
Q 2453 3394 2887 2945 
Q 3322 2497 3322 1706 
Q 3322 1066 3130 698 
Q 2938 331 2570 128 
Q 2203 -75 1769 -75 
Q 1072 -75 642 372 
Q 213 819 213 1659 
z
M 791 1659 
Q 791 1022 1069 705 
Q 1347 388 1769 388 
Q 2188 388 2466 706 
Q 2744 1025 2744 1678 
Q 2744 2294 2464 2611 
Q 2184 2928 1769 2928 
Q 1347 2928 1069 2612 
Q 791 2297 791 1659 
z
" transform="scale(0.015625)"/>
      <path id="ArialMT-37" d="M 303 3981 
L 303 4522 
L 3269 4522 
L 3269 4084 
Q 2831 3619 2401 2847 
Q 1972 2075 1738 1259 
Q 1569 684 1522 0 
L 944 0 
Q 953 541 1156 1306 
Q 1359 2072 1739 2783 
Q 2119 3494 2547 3981 
L 303 3981 
z
" transform="scale(0.015625)"/>
      <path id="ArialMT-41" d="M -9 0 
L 1750 4581 
L 2403 4581 
L 4278 0 
L 3588 0 
L 3053 1388 
L 1138 1388 
L 634 0 
L -9 0 
z
M 1313 1881 
L 2866 1881 
L 2388 3150 
Q 2169 3728 2063 4100 
Q 1975 3659 1816 3225 
L 1313 1881 
z
" transform="scale(0.015625)"/>
      <path id="ArialMT-68" d="M 422 0 
L 422 4581 
L 984 4581 
L 984 2938 
Q 1378 3394 1978 3394 
Q 2347 3394 2619 3248 
Q 2891 3103 3008 2847 
Q 3125 2591 3125 2103 
L 3125 0 
L 2563 0 
L 2563 2103 
Q 2563 2525 2380 2717 
Q 2197 2909 1863 2909 
Q 1613 2909 1392 2779 
Q 1172 2650 1078 2428 
Q 984 2206 984 1816 
L 984 0 
L 422 0 
z
" transform="scale(0.015625)"/>
     </defs>
     <use xlink:href="#ArialMT-4d"/>
     <use xlink:href="#ArialMT-69" x="83.300781"/>
     <use xlink:href="#ArialMT-6e" x="105.517578"/>
     <use xlink:href="#ArialMT-69" x="161.132812"/>
     <use xlink:href="#ArialMT-6d" x="183.349609"/>
     <use xlink:href="#ArialMT-75" x="266.650391"/>
     <use xlink:href="#ArialMT-6d" x="322.265625"/>
     <use xlink:href="#ArialMT-20" x="405.566406"/>
     <use xlink:href="#ArialMT-54" x="431.599609"/>
     <use xlink:href="#ArialMT-65" x="481.558594"/>
     <use xlink:href="#ArialMT-6d" x="537.173828"/>
     <use xlink:href="#ArialMT-70" x="620.474609"/>
     <use xlink:href="#ArialMT-65" x="676.089844"/>
     <use xlink:href="#ArialMT-72" x="731.705078"/>
     <use xlink:href="#ArialMT-61" x="765.005859"/>
     <use xlink:href="#ArialMT-74" x="820.621094"/>
     <use xlink:href="#ArialMT-75" x="848.404297"/>
     <use xlink:href="#ArialMT-72" x="904.019531"/>
     <use xlink:href="#ArialMT-65" x="937.320312"/>
     <use xlink:href="#ArialMT-20" x="992.935547"/>
     <use xlink:href="#ArialMT-50" x="1020.71875"/>
     <use xlink:href="#ArialMT-72" x="1087.417969"/>
     <use xlink:href="#ArialMT-65" x="1120.71875"/>
     <use xlink:href="#ArialMT-64" x="1176.333984"/>
     <use xlink:href="#ArialMT-69" x="1231.949219"/>
     <use xlink:href="#ArialMT-63" x="1254.166016"/>
     <use xlink:href="#ArialMT-74" x="1304.166016"/>
     <use xlink:href="#ArialMT-69" x="1331.949219"/>
     <use xlink:href="#ArialMT-6f" x="1354.166016"/>
     <use xlink:href="#ArialMT-6e" x="1409.78125"/>
     <use xlink:href="#ArialMT-20" x="1465.396484"/>
     <use xlink:href="#ArialMT-32" x="1493.179688"/>
     <use xlink:href="#ArialMT-37" x="1548.794922"/>
     <use xlink:href="#ArialMT-20" x="1604.410156"/>
     <use xlink:href="#ArialMT-44" x="1632.193359"/>
     <use xlink:href="#ArialMT-61" x="1704.410156"/>
     <use xlink:href="#ArialMT-79" x="1760.025391"/>
     <use xlink:href="#ArialMT-73" x="1810.025391"/>
     <use xlink:href="#ArialMT-20" x="1860.025391"/>
     <use xlink:href="#ArialMT-41" x="1882.308594"/>
     <use xlink:href="#ArialMT-68" x="1949.007812"/>
     <use xlink:href="#ArialMT-65" x="2004.623047"/>
     <use xlink:href="#ArialMT-61" x="2060.238281"/>
     <use xlink:href="#ArialMT-64" x="2115.853516"/>
    </g>
   </g>
   <g id="legend_1">
    <g id="patch_7">
     <path d="M 437.15625 88.130625 
L 511.4 88.130625 
Q 513.4 88.130625 513.4 86.130625 
L 513.4 58.84 
Q 513.4 56.84 511.4 56.84 
L 437.15625 56.84 
Q 435.15625 56.84 435.15625 58.84 
L 435.15625 86.130625 
Q 435.15625 88.130625 437.15625 88.130625 
z
" style="fill: #eaeaf2; opacity: 0.8; stroke: #cccccc; stroke-linejoin: miter"/>
    </g>
    <g id="line2d_14">
     <path d="M 439.15625 64.497812 
L 449.15625 64.497812 
L 459.15625 64.497812 
" style="fill: none; stroke: #1f77b4; stroke-width: 1.5; stroke-linecap: round"/>
    </g>
    <g id="text_15">
     <!-- Real -->
     <g style="fill: #262626" transform="translate(467.15625 67.997812) scale(0.1 -0.1)">
      <defs>
       <path id="ArialMT-52" d="M 503 0 
L 503 4581 
L 2534 4581 
Q 3147 4581 3465 4457 
Q 3784 4334 3975 4021 
Q 4166 3709 4166 3331 
Q 4166 2844 3850 2509 
Q 3534 2175 2875 2084 
Q 3116 1969 3241 1856 
Q 3506 1613 3744 1247 
L 4541 0 
L 3778 0 
L 3172 953 
Q 2906 1366 2734 1584 
Q 2563 1803 2427 1890 
Q 2291 1978 2150 2013 
Q 2047 2034 1813 2034 
L 1109 2034 
L 1109 0 
L 503 0 
z
M 1109 2559 
L 2413 2559 
Q 2828 2559 3062 2645 
Q 3297 2731 3419 2920 
Q 3541 3109 3541 3331 
Q 3541 3656 3305 3865 
Q 3069 4075 2559 4075 
L 1109 4075 
L 1109 2559 
z
" transform="scale(0.015625)"/>
       <path id="ArialMT-6c" d="M 409 0 
L 409 4581 
L 972 4581 
L 972 0 
L 409 0 
z
" transform="scale(0.015625)"/>
      </defs>
      <use xlink:href="#ArialMT-52"/>
      <use xlink:href="#ArialMT-65" x="72.216797"/>
      <use xlink:href="#ArialMT-61" x="127.832031"/>
      <use xlink:href="#ArialMT-6c" x="183.447266"/>
     </g>
    </g>
    <g id="line2d_15">
     <path d="M 439.15625 78.643125 
L 449.15625 78.643125 
L 459.15625 78.643125 
" style="fill: none; stroke: #ff7f0e; stroke-width: 1.5; stroke-linecap: round"/>
    </g>
    <g id="text_16">
     <!-- Predicted -->
     <g style="fill: #262626" transform="translate(467.15625 82.143125) scale(0.1 -0.1)">
      <use xlink:href="#ArialMT-50"/>
      <use xlink:href="#ArialMT-72" x="66.699219"/>
      <use xlink:href="#ArialMT-65" x="100"/>
      <use xlink:href="#ArialMT-64" x="155.615234"/>
      <use xlink:href="#ArialMT-69" x="211.230469"/>
      <use xlink:href="#ArialMT-63" x="233.447266"/>
      <use xlink:href="#ArialMT-74" x="283.447266"/>
      <use xlink:href="#ArialMT-65" x="311.230469"/>
      <use xlink:href="#ArialMT-64" x="366.845703"/>
     </g>
    </g>
   </g>
  </g>
 </g>
 <defs>
  <clipPath id="p89ac4a7b16">
   <rect x="72" y="51.84" width="446.4" height="332.64"/>
  </clipPath>
 </defs>
</svg>
