<?xml version="1.0" encoding="utf-8" standalone="no"?>
<!DOCTYPE svg PUBLIC "-//W3C//DTD SVG 1.1//EN"
  "http://www.w3.org/Graphics/SVG/1.1/DTD/svg11.dtd">
<svg xmlns:xlink="http://www.w3.org/1999/xlink" width="576pt" height="432pt" viewBox="0 0 576 432" xmlns="http://www.w3.org/2000/svg" version="1.1">
 <metadata>
  <rdf:RDF xmlns:dc="http://purl.org/dc/elements/1.1/" xmlns:cc="http://creativecommons.org/ns#" xmlns:rdf="http://www.w3.org/1999/02/22-rdf-syntax-ns#">
   <cc:Work>
    <dc:type rdf:resource="http://purl.org/dc/dcmitype/StillImage"/>
    <dc:date>2023-11-17T05:04:40.760738</dc:date>
    <dc:format>image/svg+xml</dc:format>
    <dc:creator>
     <cc:Agent>
      <dc:title>Matplotlib v3.8.0, https://matplotlib.org/</dc:title>
     </cc:Agent>
    </dc:creator>
   </cc:Work>
  </rdf:RDF>
 </metadata>
 <defs>
  <style type="text/css">*{stroke-linejoin: round; stroke-linecap: butt}</style>
 </defs>
 <g id="figure_1">
  <g id="patch_1">
   <path d="M 0 432 
L 576 432 
L 576 0 
L 0 0 
z
" style="fill: #ffffff"/>
  </g>
  <g id="axes_1">
   <g id="patch_2">
    <path d="M 61.4225 392.6275 
L 565.2 392.6275 
L 565.2 10.8 
L 61.4225 10.8 
z
" style="fill: #eaeaf2"/>
   </g>
   <g id="matplotlib.axis_1">
    <g id="xtick_1">
     <g id="line2d_1">
      <path d="M 73.581297 392.6275 
L 73.581297 10.8 
" clip-path="url(#p7fc9230d7b)" style="fill: none; stroke: #ffffff; stroke-width: 0.8; stroke-linecap: round"/>
     </g>
     <g id="text_1">
      <!-- −600 -->
      <g style="fill: #262626" transform="translate(62.319578 406.785312) scale(0.1 -0.1)">
       <defs>
        <path id="ArialMT-2212" d="M 3381 1997 
L 356 1997 
L 356 2522 
L 3381 2522 
L 3381 1997 
z
" transform="scale(0.015625)"/>
        <path id="ArialMT-36" d="M 3184 3459 
L 2625 3416 
Q 2550 3747 2413 3897 
Q 2184 4138 1850 4138 
Q 1581 4138 1378 3988 
Q 1113 3794 959 3422 
Q 806 3050 800 2363 
Q 1003 2672 1297 2822 
Q 1591 2972 1913 2972 
Q 2475 2972 2870 2558 
Q 3266 2144 3266 1488 
Q 3266 1056 3080 686 
Q 2894 316 2569 119 
Q 2244 -78 1831 -78 
Q 1128 -78 684 439 
Q 241 956 241 2144 
Q 241 3472 731 4075 
Q 1159 4600 1884 4600 
Q 2425 4600 2770 4297 
Q 3116 3994 3184 3459 
z
M 888 1484 
Q 888 1194 1011 928 
Q 1134 663 1356 523 
Q 1578 384 1822 384 
Q 2178 384 2434 671 
Q 2691 959 2691 1453 
Q 2691 1928 2437 2201 
Q 2184 2475 1800 2475 
Q 1419 2475 1153 2201 
Q 888 1928 888 1484 
z
" transform="scale(0.015625)"/>
        <path id="ArialMT-30" d="M 266 2259 
Q 266 3072 433 3567 
Q 600 4063 929 4331 
Q 1259 4600 1759 4600 
Q 2128 4600 2406 4451 
Q 2684 4303 2865 4023 
Q 3047 3744 3150 3342 
Q 3253 2941 3253 2259 
Q 3253 1453 3087 958 
Q 2922 463 2592 192 
Q 2263 -78 1759 -78 
Q 1097 -78 719 397 
Q 266 969 266 2259 
z
M 844 2259 
Q 844 1131 1108 757 
Q 1372 384 1759 384 
Q 2147 384 2411 759 
Q 2675 1134 2675 2259 
Q 2675 3391 2411 3762 
Q 2147 4134 1753 4134 
Q 1366 4134 1134 3806 
Q 844 3388 844 2259 
z
" transform="scale(0.015625)"/>
       </defs>
       <use xlink:href="#ArialMT-2212"/>
       <use xlink:href="#ArialMT-36" x="58.398438"/>
       <use xlink:href="#ArialMT-30" x="114.013672"/>
       <use xlink:href="#ArialMT-30" x="169.628906"/>
      </g>
     </g>
    </g>
    <g id="xtick_2">
     <g id="line2d_2">
      <path d="M 132.242203 392.6275 
L 132.242203 10.8 
" clip-path="url(#p7fc9230d7b)" style="fill: none; stroke: #ffffff; stroke-width: 0.8; stroke-linecap: round"/>
     </g>
     <g id="text_2">
      <!-- −400 -->
      <g style="fill: #262626" transform="translate(120.980485 406.785312) scale(0.1 -0.1)">
       <defs>
        <path id="ArialMT-34" d="M 2069 0 
L 2069 1097 
L 81 1097 
L 81 1613 
L 2172 4581 
L 2631 4581 
L 2631 1613 
L 3250 1613 
L 3250 1097 
L 2631 1097 
L 2631 0 
L 2069 0 
z
M 2069 1613 
L 2069 3678 
L 634 1613 
L 2069 1613 
z
" transform="scale(0.015625)"/>
       </defs>
       <use xlink:href="#ArialMT-2212"/>
       <use xlink:href="#ArialMT-34" x="58.398438"/>
       <use xlink:href="#ArialMT-30" x="114.013672"/>
       <use xlink:href="#ArialMT-30" x="169.628906"/>
      </g>
     </g>
    </g>
    <g id="xtick_3">
     <g id="line2d_3">
      <path d="M 190.90311 392.6275 
L 190.90311 10.8 
" clip-path="url(#p7fc9230d7b)" style="fill: none; stroke: #ffffff; stroke-width: 0.8; stroke-linecap: round"/>
     </g>
     <g id="text_3">
      <!-- −200 -->
      <g style="fill: #262626" transform="translate(179.641391 406.785312) scale(0.1 -0.1)">
       <defs>
        <path id="ArialMT-32" d="M 3222 541 
L 3222 0 
L 194 0 
Q 188 203 259 391 
Q 375 700 629 1000 
Q 884 1300 1366 1694 
Q 2113 2306 2375 2664 
Q 2638 3022 2638 3341 
Q 2638 3675 2398 3904 
Q 2159 4134 1775 4134 
Q 1369 4134 1125 3890 
Q 881 3647 878 3216 
L 300 3275 
Q 359 3922 746 4261 
Q 1134 4600 1788 4600 
Q 2447 4600 2831 4234 
Q 3216 3869 3216 3328 
Q 3216 3053 3103 2787 
Q 2991 2522 2730 2228 
Q 2469 1934 1863 1422 
Q 1356 997 1212 845 
Q 1069 694 975 541 
L 3222 541 
z
" transform="scale(0.015625)"/>
       </defs>
       <use xlink:href="#ArialMT-2212"/>
       <use xlink:href="#ArialMT-32" x="58.398438"/>
       <use xlink:href="#ArialMT-30" x="114.013672"/>
       <use xlink:href="#ArialMT-30" x="169.628906"/>
      </g>
     </g>
    </g>
    <g id="xtick_4">
     <g id="line2d_4">
      <path d="M 249.564016 392.6275 
L 249.564016 10.8 
" clip-path="url(#p7fc9230d7b)" style="fill: none; stroke: #ffffff; stroke-width: 0.8; stroke-linecap: round"/>
     </g>
     <g id="text_4">
      <!-- 0 -->
      <g style="fill: #262626" transform="translate(246.783547 406.785312) scale(0.1 -0.1)">
       <use xlink:href="#ArialMT-30"/>
      </g>
     </g>
    </g>
    <g id="xtick_5">
     <g id="line2d_5">
      <path d="M 308.224923 392.6275 
L 308.224923 10.8 
" clip-path="url(#p7fc9230d7b)" style="fill: none; stroke: #ffffff; stroke-width: 0.8; stroke-linecap: round"/>
     </g>
     <g id="text_5">
      <!-- 200 -->
      <g style="fill: #262626" transform="translate(299.883516 406.785312) scale(0.1 -0.1)">
       <use xlink:href="#ArialMT-32"/>
       <use xlink:href="#ArialMT-30" x="55.615234"/>
       <use xlink:href="#ArialMT-30" x="111.230469"/>
      </g>
     </g>
    </g>
    <g id="xtick_6">
     <g id="line2d_6">
      <path d="M 366.885829 392.6275 
L 366.885829 10.8 
" clip-path="url(#p7fc9230d7b)" style="fill: none; stroke: #ffffff; stroke-width: 0.8; stroke-linecap: round"/>
     </g>
     <g id="text_6">
      <!-- 400 -->
      <g style="fill: #262626" transform="translate(358.544423 406.785312) scale(0.1 -0.1)">
       <use xlink:href="#ArialMT-34"/>
       <use xlink:href="#ArialMT-30" x="55.615234"/>
       <use xlink:href="#ArialMT-30" x="111.230469"/>
      </g>
     </g>
    </g>
    <g id="xtick_7">
     <g id="line2d_7">
      <path d="M 425.546735 392.6275 
L 425.546735 10.8 
" clip-path="url(#p7fc9230d7b)" style="fill: none; stroke: #ffffff; stroke-width: 0.8; stroke-linecap: round"/>
     </g>
     <g id="text_7">
      <!-- 600 -->
      <g style="fill: #262626" transform="translate(417.205329 406.785312) scale(0.1 -0.1)">
       <use xlink:href="#ArialMT-36"/>
       <use xlink:href="#ArialMT-30" x="55.615234"/>
       <use xlink:href="#ArialMT-30" x="111.230469"/>
      </g>
     </g>
    </g>
    <g id="xtick_8">
     <g id="line2d_8">
      <path d="M 484.207642 392.6275 
L 484.207642 10.8 
" clip-path="url(#p7fc9230d7b)" style="fill: none; stroke: #ffffff; stroke-width: 0.8; stroke-linecap: round"/>
     </g>
     <g id="text_8">
      <!-- 800 -->
      <g style="fill: #262626" transform="translate(475.866235 406.785312) scale(0.1 -0.1)">
       <defs>
        <path id="ArialMT-38" d="M 1131 2484 
Q 781 2613 612 2850 
Q 444 3088 444 3419 
Q 444 3919 803 4259 
Q 1163 4600 1759 4600 
Q 2359 4600 2725 4251 
Q 3091 3903 3091 3403 
Q 3091 3084 2923 2848 
Q 2756 2613 2416 2484 
Q 2838 2347 3058 2040 
Q 3278 1734 3278 1309 
Q 3278 722 2862 322 
Q 2447 -78 1769 -78 
Q 1091 -78 675 323 
Q 259 725 259 1325 
Q 259 1772 486 2073 
Q 713 2375 1131 2484 
z
M 1019 3438 
Q 1019 3113 1228 2906 
Q 1438 2700 1772 2700 
Q 2097 2700 2305 2904 
Q 2513 3109 2513 3406 
Q 2513 3716 2298 3927 
Q 2084 4138 1766 4138 
Q 1444 4138 1231 3931 
Q 1019 3725 1019 3438 
z
M 838 1322 
Q 838 1081 952 856 
Q 1066 631 1291 507 
Q 1516 384 1775 384 
Q 2178 384 2440 643 
Q 2703 903 2703 1303 
Q 2703 1709 2433 1975 
Q 2163 2241 1756 2241 
Q 1359 2241 1098 1978 
Q 838 1716 838 1322 
z
" transform="scale(0.015625)"/>
       </defs>
       <use xlink:href="#ArialMT-38"/>
       <use xlink:href="#ArialMT-30" x="55.615234"/>
       <use xlink:href="#ArialMT-30" x="111.230469"/>
      </g>
     </g>
    </g>
    <g id="xtick_9">
     <g id="line2d_9">
      <path d="M 542.868548 392.6275 
L 542.868548 10.8 
" clip-path="url(#p7fc9230d7b)" style="fill: none; stroke: #ffffff; stroke-width: 0.8; stroke-linecap: round"/>
     </g>
     <g id="text_9">
      <!-- 1000 -->
      <g style="fill: #262626" transform="translate(531.746673 406.785312) scale(0.1 -0.1)">
       <defs>
        <path id="ArialMT-31" d="M 2384 0 
L 1822 0 
L 1822 3584 
Q 1619 3391 1289 3197 
Q 959 3003 697 2906 
L 697 3450 
Q 1169 3672 1522 3987 
Q 1875 4303 2022 4600 
L 2384 4600 
L 2384 0 
z
" transform="scale(0.015625)"/>
       </defs>
       <use xlink:href="#ArialMT-31"/>
       <use xlink:href="#ArialMT-30" x="55.615234"/>
       <use xlink:href="#ArialMT-30" x="111.230469"/>
       <use xlink:href="#ArialMT-30" x="166.845703"/>
      </g>
     </g>
    </g>
    <g id="text_10">
     <!-- Maximum Solar Radiation Predictive Error (W/m^2) -->
     <g style="fill: #262626" transform="translate(200.11125 420.0525) scale(0.1 -0.1)">
      <defs>
       <path id="ArialMT-4d" d="M 475 0 
L 475 4581 
L 1388 4581 
L 2472 1338 
Q 2622 884 2691 659 
Q 2769 909 2934 1394 
L 4031 4581 
L 4847 4581 
L 4847 0 
L 4263 0 
L 4263 3834 
L 2931 0 
L 2384 0 
L 1059 3900 
L 1059 0 
L 475 0 
z
" transform="scale(0.015625)"/>
       <path id="ArialMT-61" d="M 2588 409 
Q 2275 144 1986 34 
Q 1697 -75 1366 -75 
Q 819 -75 525 192 
Q 231 459 231 875 
Q 231 1119 342 1320 
Q 453 1522 633 1644 
Q 813 1766 1038 1828 
Q 1203 1872 1538 1913 
Q 2219 1994 2541 2106 
Q 2544 2222 2544 2253 
Q 2544 2597 2384 2738 
Q 2169 2928 1744 2928 
Q 1347 2928 1158 2789 
Q 969 2650 878 2297 
L 328 2372 
Q 403 2725 575 2942 
Q 747 3159 1072 3276 
Q 1397 3394 1825 3394 
Q 2250 3394 2515 3294 
Q 2781 3194 2906 3042 
Q 3031 2891 3081 2659 
Q 3109 2516 3109 2141 
L 3109 1391 
Q 3109 606 3145 398 
Q 3181 191 3288 0 
L 2700 0 
Q 2613 175 2588 409 
z
M 2541 1666 
Q 2234 1541 1622 1453 
Q 1275 1403 1131 1340 
Q 988 1278 909 1158 
Q 831 1038 831 891 
Q 831 666 1001 516 
Q 1172 366 1500 366 
Q 1825 366 2078 508 
Q 2331 650 2450 897 
Q 2541 1088 2541 1459 
L 2541 1666 
z
" transform="scale(0.015625)"/>
       <path id="ArialMT-78" d="M 47 0 
L 1259 1725 
L 138 3319 
L 841 3319 
L 1350 2541 
Q 1494 2319 1581 2169 
Q 1719 2375 1834 2534 
L 2394 3319 
L 3066 3319 
L 1919 1756 
L 3153 0 
L 2463 0 
L 1781 1031 
L 1600 1309 
L 728 0 
L 47 0 
z
" transform="scale(0.015625)"/>
       <path id="ArialMT-69" d="M 425 3934 
L 425 4581 
L 988 4581 
L 988 3934 
L 425 3934 
z
M 425 0 
L 425 3319 
L 988 3319 
L 988 0 
L 425 0 
z
" transform="scale(0.015625)"/>
       <path id="ArialMT-6d" d="M 422 0 
L 422 3319 
L 925 3319 
L 925 2853 
Q 1081 3097 1340 3245 
Q 1600 3394 1931 3394 
Q 2300 3394 2536 3241 
Q 2772 3088 2869 2813 
Q 3263 3394 3894 3394 
Q 4388 3394 4653 3120 
Q 4919 2847 4919 2278 
L 4919 0 
L 4359 0 
L 4359 2091 
Q 4359 2428 4304 2576 
Q 4250 2725 4106 2815 
Q 3963 2906 3769 2906 
Q 3419 2906 3187 2673 
Q 2956 2441 2956 1928 
L 2956 0 
L 2394 0 
L 2394 2156 
Q 2394 2531 2256 2718 
Q 2119 2906 1806 2906 
Q 1569 2906 1367 2781 
Q 1166 2656 1075 2415 
Q 984 2175 984 1722 
L 984 0 
L 422 0 
z
" transform="scale(0.015625)"/>
       <path id="ArialMT-75" d="M 2597 0 
L 2597 488 
Q 2209 -75 1544 -75 
Q 1250 -75 995 37 
Q 741 150 617 320 
Q 494 491 444 738 
Q 409 903 409 1263 
L 409 3319 
L 972 3319 
L 972 1478 
Q 972 1038 1006 884 
Q 1059 663 1231 536 
Q 1403 409 1656 409 
Q 1909 409 2131 539 
Q 2353 669 2445 892 
Q 2538 1116 2538 1541 
L 2538 3319 
L 3100 3319 
L 3100 0 
L 2597 0 
z
" transform="scale(0.015625)"/>
       <path id="ArialMT-20" transform="scale(0.015625)"/>
       <path id="ArialMT-53" d="M 288 1472 
L 859 1522 
Q 900 1178 1048 958 
Q 1197 738 1509 602 
Q 1822 466 2213 466 
Q 2559 466 2825 569 
Q 3091 672 3220 851 
Q 3350 1031 3350 1244 
Q 3350 1459 3225 1620 
Q 3100 1781 2813 1891 
Q 2628 1963 1997 2114 
Q 1366 2266 1113 2400 
Q 784 2572 623 2826 
Q 463 3081 463 3397 
Q 463 3744 659 4045 
Q 856 4347 1234 4503 
Q 1613 4659 2075 4659 
Q 2584 4659 2973 4495 
Q 3363 4331 3572 4012 
Q 3781 3694 3797 3291 
L 3216 3247 
Q 3169 3681 2898 3903 
Q 2628 4125 2100 4125 
Q 1550 4125 1298 3923 
Q 1047 3722 1047 3438 
Q 1047 3191 1225 3031 
Q 1400 2872 2139 2705 
Q 2878 2538 3153 2413 
Q 3553 2228 3743 1945 
Q 3934 1663 3934 1294 
Q 3934 928 3725 604 
Q 3516 281 3123 101 
Q 2731 -78 2241 -78 
Q 1619 -78 1198 103 
Q 778 284 539 648 
Q 300 1013 288 1472 
z
" transform="scale(0.015625)"/>
       <path id="ArialMT-6f" d="M 213 1659 
Q 213 2581 725 3025 
Q 1153 3394 1769 3394 
Q 2453 3394 2887 2945 
Q 3322 2497 3322 1706 
Q 3322 1066 3130 698 
Q 2938 331 2570 128 
Q 2203 -75 1769 -75 
Q 1072 -75 642 372 
Q 213 819 213 1659 
z
M 791 1659 
Q 791 1022 1069 705 
Q 1347 388 1769 388 
Q 2188 388 2466 706 
Q 2744 1025 2744 1678 
Q 2744 2294 2464 2611 
Q 2184 2928 1769 2928 
Q 1347 2928 1069 2612 
Q 791 2297 791 1659 
z
" transform="scale(0.015625)"/>
       <path id="ArialMT-6c" d="M 409 0 
L 409 4581 
L 972 4581 
L 972 0 
L 409 0 
z
" transform="scale(0.015625)"/>
       <path id="ArialMT-72" d="M 416 0 
L 416 3319 
L 922 3319 
L 922 2816 
Q 1116 3169 1280 3281 
Q 1444 3394 1641 3394 
Q 1925 3394 2219 3213 
L 2025 2691 
Q 1819 2813 1613 2813 
Q 1428 2813 1281 2702 
Q 1134 2591 1072 2394 
Q 978 2094 978 1738 
L 978 0 
L 416 0 
z
" transform="scale(0.015625)"/>
       <path id="ArialMT-52" d="M 503 0 
L 503 4581 
L 2534 4581 
Q 3147 4581 3465 4457 
Q 3784 4334 3975 4021 
Q 4166 3709 4166 3331 
Q 4166 2844 3850 2509 
Q 3534 2175 2875 2084 
Q 3116 1969 3241 1856 
Q 3506 1613 3744 1247 
L 4541 0 
L 3778 0 
L 3172 953 
Q 2906 1366 2734 1584 
Q 2563 1803 2427 1890 
Q 2291 1978 2150 2013 
Q 2047 2034 1813 2034 
L 1109 2034 
L 1109 0 
L 503 0 
z
M 1109 2559 
L 2413 2559 
Q 2828 2559 3062 2645 
Q 3297 2731 3419 2920 
Q 3541 3109 3541 3331 
Q 3541 3656 3305 3865 
Q 3069 4075 2559 4075 
L 1109 4075 
L 1109 2559 
z
" transform="scale(0.015625)"/>
       <path id="ArialMT-64" d="M 2575 0 
L 2575 419 
Q 2259 -75 1647 -75 
Q 1250 -75 917 144 
Q 584 363 401 755 
Q 219 1147 219 1656 
Q 219 2153 384 2558 
Q 550 2963 881 3178 
Q 1213 3394 1622 3394 
Q 1922 3394 2156 3267 
Q 2391 3141 2538 2938 
L 2538 4581 
L 3097 4581 
L 3097 0 
L 2575 0 
z
M 797 1656 
Q 797 1019 1065 703 
Q 1334 388 1700 388 
Q 2069 388 2326 689 
Q 2584 991 2584 1609 
Q 2584 2291 2321 2609 
Q 2059 2928 1675 2928 
Q 1300 2928 1048 2622 
Q 797 2316 797 1656 
z
" transform="scale(0.015625)"/>
       <path id="ArialMT-74" d="M 1650 503 
L 1731 6 
Q 1494 -44 1306 -44 
Q 1000 -44 831 53 
Q 663 150 594 308 
Q 525 466 525 972 
L 525 2881 
L 113 2881 
L 113 3319 
L 525 3319 
L 525 4141 
L 1084 4478 
L 1084 3319 
L 1650 3319 
L 1650 2881 
L 1084 2881 
L 1084 941 
Q 1084 700 1114 631 
Q 1144 563 1211 522 
Q 1278 481 1403 481 
Q 1497 481 1650 503 
z
" transform="scale(0.015625)"/>
       <path id="ArialMT-6e" d="M 422 0 
L 422 3319 
L 928 3319 
L 928 2847 
Q 1294 3394 1984 3394 
Q 2284 3394 2536 3286 
Q 2788 3178 2913 3003 
Q 3038 2828 3088 2588 
Q 3119 2431 3119 2041 
L 3119 0 
L 2556 0 
L 2556 2019 
Q 2556 2363 2490 2533 
Q 2425 2703 2258 2804 
Q 2091 2906 1866 2906 
Q 1506 2906 1245 2678 
Q 984 2450 984 1813 
L 984 0 
L 422 0 
z
" transform="scale(0.015625)"/>
       <path id="ArialMT-50" d="M 494 0 
L 494 4581 
L 2222 4581 
Q 2678 4581 2919 4538 
Q 3256 4481 3484 4323 
Q 3713 4166 3852 3881 
Q 3991 3597 3991 3256 
Q 3991 2672 3619 2267 
Q 3247 1863 2275 1863 
L 1100 1863 
L 1100 0 
L 494 0 
z
M 1100 2403 
L 2284 2403 
Q 2872 2403 3119 2622 
Q 3366 2841 3366 3238 
Q 3366 3525 3220 3729 
Q 3075 3934 2838 4000 
Q 2684 4041 2272 4041 
L 1100 4041 
L 1100 2403 
z
" transform="scale(0.015625)"/>
       <path id="ArialMT-65" d="M 2694 1069 
L 3275 997 
Q 3138 488 2766 206 
Q 2394 -75 1816 -75 
Q 1088 -75 661 373 
Q 234 822 234 1631 
Q 234 2469 665 2931 
Q 1097 3394 1784 3394 
Q 2450 3394 2872 2941 
Q 3294 2488 3294 1666 
Q 3294 1616 3291 1516 
L 816 1516 
Q 847 969 1125 678 
Q 1403 388 1819 388 
Q 2128 388 2347 550 
Q 2566 713 2694 1069 
z
M 847 1978 
L 2700 1978 
Q 2663 2397 2488 2606 
Q 2219 2931 1791 2931 
Q 1403 2931 1139 2672 
Q 875 2413 847 1978 
z
" transform="scale(0.015625)"/>
       <path id="ArialMT-63" d="M 2588 1216 
L 3141 1144 
Q 3050 572 2676 248 
Q 2303 -75 1759 -75 
Q 1078 -75 664 370 
Q 250 816 250 1647 
Q 250 2184 428 2587 
Q 606 2991 970 3192 
Q 1334 3394 1763 3394 
Q 2303 3394 2647 3120 
Q 2991 2847 3088 2344 
L 2541 2259 
Q 2463 2594 2264 2762 
Q 2066 2931 1784 2931 
Q 1359 2931 1093 2626 
Q 828 2322 828 1663 
Q 828 994 1084 691 
Q 1341 388 1753 388 
Q 2084 388 2306 591 
Q 2528 794 2588 1216 
z
" transform="scale(0.015625)"/>
       <path id="ArialMT-76" d="M 1344 0 
L 81 3319 
L 675 3319 
L 1388 1331 
Q 1503 1009 1600 663 
Q 1675 925 1809 1294 
L 2547 3319 
L 3125 3319 
L 1869 0 
L 1344 0 
z
" transform="scale(0.015625)"/>
       <path id="ArialMT-45" d="M 506 0 
L 506 4581 
L 3819 4581 
L 3819 4041 
L 1113 4041 
L 1113 2638 
L 3647 2638 
L 3647 2100 
L 1113 2100 
L 1113 541 
L 3925 541 
L 3925 0 
L 506 0 
z
" transform="scale(0.015625)"/>
       <path id="ArialMT-28" d="M 1497 -1347 
Q 1031 -759 709 28 
Q 388 816 388 1659 
Q 388 2403 628 3084 
Q 909 3875 1497 4659 
L 1900 4659 
Q 1522 4009 1400 3731 
Q 1209 3300 1100 2831 
Q 966 2247 966 1656 
Q 966 153 1900 -1347 
L 1497 -1347 
z
" transform="scale(0.015625)"/>
       <path id="ArialMT-57" d="M 1294 0 
L 78 4581 
L 700 4581 
L 1397 1578 
Q 1509 1106 1591 641 
Q 1766 1375 1797 1488 
L 2669 4581 
L 3400 4581 
L 4056 2263 
Q 4303 1400 4413 641 
Q 4500 1075 4641 1638 
L 5359 4581 
L 5969 4581 
L 4713 0 
L 4128 0 
L 3163 3491 
Q 3041 3928 3019 4028 
Q 2947 3713 2884 3491 
L 1913 0 
L 1294 0 
z
" transform="scale(0.015625)"/>
       <path id="ArialMT-2f" d="M 0 -78 
L 1328 4659 
L 1778 4659 
L 453 -78 
L 0 -78 
z
" transform="scale(0.015625)"/>
       <path id="ArialMT-5e" d="M 747 2156 
L 169 2156 
L 1272 4659 
L 1725 4659 
L 2834 2156 
L 2269 2156 
L 1497 4022 
L 747 2156 
z
" transform="scale(0.015625)"/>
       <path id="ArialMT-29" d="M 791 -1347 
L 388 -1347 
Q 1322 153 1322 1656 
Q 1322 2244 1188 2822 
Q 1081 3291 891 3722 
Q 769 4003 388 4659 
L 791 4659 
Q 1378 3875 1659 3084 
Q 1900 2403 1900 1659 
Q 1900 816 1576 28 
Q 1253 -759 791 -1347 
z
" transform="scale(0.015625)"/>
      </defs>
      <use xlink:href="#ArialMT-4d"/>
      <use xlink:href="#ArialMT-61" x="83.300781"/>
      <use xlink:href="#ArialMT-78" x="138.916016"/>
      <use xlink:href="#ArialMT-69" x="188.916016"/>
      <use xlink:href="#ArialMT-6d" x="211.132812"/>
      <use xlink:href="#ArialMT-75" x="294.433594"/>
      <use xlink:href="#ArialMT-6d" x="350.048828"/>
      <use xlink:href="#ArialMT-20" x="433.349609"/>
      <use xlink:href="#ArialMT-53" x="461.132812"/>
      <use xlink:href="#ArialMT-6f" x="527.832031"/>
      <use xlink:href="#ArialMT-6c" x="583.447266"/>
      <use xlink:href="#ArialMT-61" x="605.664062"/>
      <use xlink:href="#ArialMT-72" x="661.279297"/>
      <use xlink:href="#ArialMT-20" x="694.580078"/>
      <use xlink:href="#ArialMT-52" x="722.363281"/>
      <use xlink:href="#ArialMT-61" x="794.580078"/>
      <use xlink:href="#ArialMT-64" x="850.195312"/>
      <use xlink:href="#ArialMT-69" x="905.810547"/>
      <use xlink:href="#ArialMT-61" x="928.027344"/>
      <use xlink:href="#ArialMT-74" x="983.642578"/>
      <use xlink:href="#ArialMT-69" x="1011.425781"/>
      <use xlink:href="#ArialMT-6f" x="1033.642578"/>
      <use xlink:href="#ArialMT-6e" x="1089.257812"/>
      <use xlink:href="#ArialMT-20" x="1144.873047"/>
      <use xlink:href="#ArialMT-50" x="1172.65625"/>
      <use xlink:href="#ArialMT-72" x="1239.355469"/>
      <use xlink:href="#ArialMT-65" x="1272.65625"/>
      <use xlink:href="#ArialMT-64" x="1328.271484"/>
      <use xlink:href="#ArialMT-69" x="1383.886719"/>
      <use xlink:href="#ArialMT-63" x="1406.103516"/>
      <use xlink:href="#ArialMT-74" x="1456.103516"/>
      <use xlink:href="#ArialMT-69" x="1483.886719"/>
      <use xlink:href="#ArialMT-76" x="1506.103516"/>
      <use xlink:href="#ArialMT-65" x="1556.103516"/>
      <use xlink:href="#ArialMT-20" x="1611.71875"/>
      <use xlink:href="#ArialMT-45" x="1639.501953"/>
      <use xlink:href="#ArialMT-72" x="1706.201172"/>
      <use xlink:href="#ArialMT-72" x="1739.501953"/>
      <use xlink:href="#ArialMT-6f" x="1772.802734"/>
      <use xlink:href="#ArialMT-72" x="1828.417969"/>
      <use xlink:href="#ArialMT-20" x="1861.71875"/>
      <use xlink:href="#ArialMT-28" x="1889.501953"/>
      <use xlink:href="#ArialMT-57" x="1922.802734"/>
      <use xlink:href="#ArialMT-2f" x="2017.1875"/>
      <use xlink:href="#ArialMT-6d" x="2044.970703"/>
      <use xlink:href="#ArialMT-5e" x="2128.271484"/>
      <use xlink:href="#ArialMT-32" x="2175.195312"/>
      <use xlink:href="#ArialMT-29" x="2230.810547"/>
     </g>
    </g>
   </g>
   <g id="matplotlib.axis_2">
    <g id="ytick_1">
     <g id="line2d_10">
      <path d="M 61.4225 392.6275 
L 565.2 392.6275 
" clip-path="url(#p7fc9230d7b)" style="fill: none; stroke: #ffffff; stroke-width: 0.8; stroke-linecap: round"/>
     </g>
     <g id="text_11">
      <!-- 0.0000 -->
      <g style="fill: #262626" transform="translate(23.839688 396.206406) scale(0.1 -0.1)">
       <defs>
        <path id="ArialMT-2e" d="M 581 0 
L 581 641 
L 1222 641 
L 1222 0 
L 581 0 
z
" transform="scale(0.015625)"/>
       </defs>
       <use xlink:href="#ArialMT-30"/>
       <use xlink:href="#ArialMT-2e" x="55.615234"/>
       <use xlink:href="#ArialMT-30" x="83.398438"/>
       <use xlink:href="#ArialMT-30" x="139.013672"/>
       <use xlink:href="#ArialMT-30" x="194.628906"/>
       <use xlink:href="#ArialMT-30" x="250.244141"/>
      </g>
     </g>
    </g>
    <g id="ytick_2">
     <g id="line2d_11">
      <path d="M 61.4225 341.038885 
L 565.2 341.038885 
" clip-path="url(#p7fc9230d7b)" style="fill: none; stroke: #ffffff; stroke-width: 0.8; stroke-linecap: round"/>
     </g>
     <g id="text_12">
      <!-- 0.0005 -->
      <g style="fill: #262626" transform="translate(23.839688 344.617792) scale(0.1 -0.1)">
       <defs>
        <path id="ArialMT-35" d="M 266 1200 
L 856 1250 
Q 922 819 1161 601 
Q 1400 384 1738 384 
Q 2144 384 2425 690 
Q 2706 997 2706 1503 
Q 2706 1984 2436 2262 
Q 2166 2541 1728 2541 
Q 1456 2541 1237 2417 
Q 1019 2294 894 2097 
L 366 2166 
L 809 4519 
L 3088 4519 
L 3088 3981 
L 1259 3981 
L 1013 2750 
Q 1425 3038 1878 3038 
Q 2478 3038 2890 2622 
Q 3303 2206 3303 1553 
Q 3303 931 2941 478 
Q 2500 -78 1738 -78 
Q 1113 -78 717 272 
Q 322 622 266 1200 
z
" transform="scale(0.015625)"/>
       </defs>
       <use xlink:href="#ArialMT-30"/>
       <use xlink:href="#ArialMT-2e" x="55.615234"/>
       <use xlink:href="#ArialMT-30" x="83.398438"/>
       <use xlink:href="#ArialMT-30" x="139.013672"/>
       <use xlink:href="#ArialMT-30" x="194.628906"/>
       <use xlink:href="#ArialMT-35" x="250.244141"/>
      </g>
     </g>
    </g>
    <g id="ytick_3">
     <g id="line2d_12">
      <path d="M 61.4225 289.450271 
L 565.2 289.450271 
" clip-path="url(#p7fc9230d7b)" style="fill: none; stroke: #ffffff; stroke-width: 0.8; stroke-linecap: round"/>
     </g>
     <g id="text_13">
      <!-- 0.0010 -->
      <g style="fill: #262626" transform="translate(23.839688 293.029177) scale(0.1 -0.1)">
       <use xlink:href="#ArialMT-30"/>
       <use xlink:href="#ArialMT-2e" x="55.615234"/>
       <use xlink:href="#ArialMT-30" x="83.398438"/>
       <use xlink:href="#ArialMT-30" x="139.013672"/>
       <use xlink:href="#ArialMT-31" x="194.628906"/>
       <use xlink:href="#ArialMT-30" x="250.244141"/>
      </g>
     </g>
    </g>
    <g id="ytick_4">
     <g id="line2d_13">
      <path d="M 61.4225 237.861656 
L 565.2 237.861656 
" clip-path="url(#p7fc9230d7b)" style="fill: none; stroke: #ffffff; stroke-width: 0.8; stroke-linecap: round"/>
     </g>
     <g id="text_14">
      <!-- 0.0015 -->
      <g style="fill: #262626" transform="translate(23.839688 241.440562) scale(0.1 -0.1)">
       <use xlink:href="#ArialMT-30"/>
       <use xlink:href="#ArialMT-2e" x="55.615234"/>
       <use xlink:href="#ArialMT-30" x="83.398438"/>
       <use xlink:href="#ArialMT-30" x="139.013672"/>
       <use xlink:href="#ArialMT-31" x="194.628906"/>
       <use xlink:href="#ArialMT-35" x="250.244141"/>
      </g>
     </g>
    </g>
    <g id="ytick_5">
     <g id="line2d_14">
      <path d="M 61.4225 186.273041 
L 565.2 186.273041 
" clip-path="url(#p7fc9230d7b)" style="fill: none; stroke: #ffffff; stroke-width: 0.8; stroke-linecap: round"/>
     </g>
     <g id="text_15">
      <!-- 0.0020 -->
      <g style="fill: #262626" transform="translate(23.839688 189.851948) scale(0.1 -0.1)">
       <use xlink:href="#ArialMT-30"/>
       <use xlink:href="#ArialMT-2e" x="55.615234"/>
       <use xlink:href="#ArialMT-30" x="83.398438"/>
       <use xlink:href="#ArialMT-30" x="139.013672"/>
       <use xlink:href="#ArialMT-32" x="194.628906"/>
       <use xlink:href="#ArialMT-30" x="250.244141"/>
      </g>
     </g>
    </g>
    <g id="ytick_6">
     <g id="line2d_15">
      <path d="M 61.4225 134.684427 
L 565.2 134.684427 
" clip-path="url(#p7fc9230d7b)" style="fill: none; stroke: #ffffff; stroke-width: 0.8; stroke-linecap: round"/>
     </g>
     <g id="text_16">
      <!-- 0.0025 -->
      <g style="fill: #262626" transform="translate(23.839688 138.263333) scale(0.1 -0.1)">
       <use xlink:href="#ArialMT-30"/>
       <use xlink:href="#ArialMT-2e" x="55.615234"/>
       <use xlink:href="#ArialMT-30" x="83.398438"/>
       <use xlink:href="#ArialMT-30" x="139.013672"/>
       <use xlink:href="#ArialMT-32" x="194.628906"/>
       <use xlink:href="#ArialMT-35" x="250.244141"/>
      </g>
     </g>
    </g>
    <g id="ytick_7">
     <g id="line2d_16">
      <path d="M 61.4225 83.095812 
L 565.2 83.095812 
" clip-path="url(#p7fc9230d7b)" style="fill: none; stroke: #ffffff; stroke-width: 0.8; stroke-linecap: round"/>
     </g>
     <g id="text_17">
      <!-- 0.0030 -->
      <g style="fill: #262626" transform="translate(23.839688 86.674718) scale(0.1 -0.1)">
       <defs>
        <path id="ArialMT-33" d="M 269 1209 
L 831 1284 
Q 928 806 1161 595 
Q 1394 384 1728 384 
Q 2125 384 2398 659 
Q 2672 934 2672 1341 
Q 2672 1728 2419 1979 
Q 2166 2231 1775 2231 
Q 1616 2231 1378 2169 
L 1441 2663 
Q 1497 2656 1531 2656 
Q 1891 2656 2178 2843 
Q 2466 3031 2466 3422 
Q 2466 3731 2256 3934 
Q 2047 4138 1716 4138 
Q 1388 4138 1169 3931 
Q 950 3725 888 3313 
L 325 3413 
Q 428 3978 793 4289 
Q 1159 4600 1703 4600 
Q 2078 4600 2393 4439 
Q 2709 4278 2876 4000 
Q 3044 3722 3044 3409 
Q 3044 3113 2884 2869 
Q 2725 2625 2413 2481 
Q 2819 2388 3044 2092 
Q 3269 1797 3269 1353 
Q 3269 753 2831 336 
Q 2394 -81 1725 -81 
Q 1122 -81 723 278 
Q 325 638 269 1209 
z
" transform="scale(0.015625)"/>
       </defs>
       <use xlink:href="#ArialMT-30"/>
       <use xlink:href="#ArialMT-2e" x="55.615234"/>
       <use xlink:href="#ArialMT-30" x="83.398438"/>
       <use xlink:href="#ArialMT-30" x="139.013672"/>
       <use xlink:href="#ArialMT-33" x="194.628906"/>
       <use xlink:href="#ArialMT-30" x="250.244141"/>
      </g>
     </g>
    </g>
    <g id="ytick_8">
     <g id="line2d_17">
      <path d="M 61.4225 31.507197 
L 565.2 31.507197 
" clip-path="url(#p7fc9230d7b)" style="fill: none; stroke: #ffffff; stroke-width: 0.8; stroke-linecap: round"/>
     </g>
     <g id="text_18">
      <!-- 0.0035 -->
      <g style="fill: #262626" transform="translate(23.839688 35.086103) scale(0.1 -0.1)">
       <use xlink:href="#ArialMT-30"/>
       <use xlink:href="#ArialMT-2e" x="55.615234"/>
       <use xlink:href="#ArialMT-30" x="83.398438"/>
       <use xlink:href="#ArialMT-30" x="139.013672"/>
       <use xlink:href="#ArialMT-33" x="194.628906"/>
       <use xlink:href="#ArialMT-35" x="250.244141"/>
      </g>
     </g>
    </g>
    <g id="text_19">
     <!-- Density -->
     <g style="fill: #262626" transform="translate(17.735 218.385625) rotate(-90) scale(0.1 -0.1)">
      <defs>
       <path id="ArialMT-44" d="M 494 0 
L 494 4581 
L 2072 4581 
Q 2606 4581 2888 4516 
Q 3281 4425 3559 4188 
Q 3922 3881 4101 3404 
Q 4281 2928 4281 2316 
Q 4281 1794 4159 1391 
Q 4038 988 3847 723 
Q 3656 459 3429 307 
Q 3203 156 2883 78 
Q 2563 0 2147 0 
L 494 0 
z
M 1100 541 
L 2078 541 
Q 2531 541 2789 625 
Q 3047 709 3200 863 
Q 3416 1078 3536 1442 
Q 3656 1806 3656 2325 
Q 3656 3044 3420 3430 
Q 3184 3816 2847 3947 
Q 2603 4041 2063 4041 
L 1100 4041 
L 1100 541 
z
" transform="scale(0.015625)"/>
       <path id="ArialMT-73" d="M 197 991 
L 753 1078 
Q 800 744 1014 566 
Q 1228 388 1613 388 
Q 2000 388 2187 545 
Q 2375 703 2375 916 
Q 2375 1106 2209 1216 
Q 2094 1291 1634 1406 
Q 1016 1563 777 1677 
Q 538 1791 414 1992 
Q 291 2194 291 2438 
Q 291 2659 392 2848 
Q 494 3038 669 3163 
Q 800 3259 1026 3326 
Q 1253 3394 1513 3394 
Q 1903 3394 2198 3281 
Q 2494 3169 2634 2976 
Q 2775 2784 2828 2463 
L 2278 2388 
Q 2241 2644 2061 2787 
Q 1881 2931 1553 2931 
Q 1166 2931 1000 2803 
Q 834 2675 834 2503 
Q 834 2394 903 2306 
Q 972 2216 1119 2156 
Q 1203 2125 1616 2013 
Q 2213 1853 2448 1751 
Q 2684 1650 2818 1456 
Q 2953 1263 2953 975 
Q 2953 694 2789 445 
Q 2625 197 2315 61 
Q 2006 -75 1616 -75 
Q 969 -75 630 194 
Q 291 463 197 991 
z
" transform="scale(0.015625)"/>
       <path id="ArialMT-79" d="M 397 -1278 
L 334 -750 
Q 519 -800 656 -800 
Q 844 -800 956 -737 
Q 1069 -675 1141 -563 
Q 1194 -478 1313 -144 
Q 1328 -97 1363 -6 
L 103 3319 
L 709 3319 
L 1400 1397 
Q 1534 1031 1641 628 
Q 1738 1016 1872 1384 
L 2581 3319 
L 3144 3319 
L 1881 -56 
Q 1678 -603 1566 -809 
Q 1416 -1088 1222 -1217 
Q 1028 -1347 759 -1347 
Q 597 -1347 397 -1278 
z
" transform="scale(0.015625)"/>
      </defs>
      <use xlink:href="#ArialMT-44"/>
      <use xlink:href="#ArialMT-65" x="72.216797"/>
      <use xlink:href="#ArialMT-6e" x="127.832031"/>
      <use xlink:href="#ArialMT-73" x="183.447266"/>
      <use xlink:href="#ArialMT-69" x="233.447266"/>
      <use xlink:href="#ArialMT-74" x="255.664062"/>
      <use xlink:href="#ArialMT-79" x="283.447266"/>
     </g>
    </g>
   </g>
   <g id="line2d_18">
    <path d="M 84.523715 392.616879 
L 100.626435 392.465078 
L 109.827989 392.147442 
L 119.029543 391.572248 
L 128.231097 390.752658 
L 135.132262 389.91907 
L 139.733039 389.159515 
L 144.333816 388.118281 
L 146.634204 387.447951 
L 148.934593 386.648731 
L 151.234981 385.694753 
L 153.53537 384.5564 
L 155.835758 383.199883 
L 158.136147 381.58694 
L 160.436535 379.67476 
L 162.736924 377.416264 
L 165.037312 374.760846 
L 167.337701 371.655635 
L 169.638089 368.047313 
L 171.938478 363.884405 
L 174.238866 359.119918 
L 176.539255 353.714114 
L 178.839643 347.637118 
L 181.140032 340.871048 
L 183.44042 333.411346 
L 185.740809 325.267029 
L 188.041197 316.459677 
L 190.341585 307.021114 
L 192.641974 296.989897 
L 197.242751 275.31058 
L 201.843528 251.692554 
L 206.444305 226.249022 
L 211.045082 198.922725 
L 215.645859 169.651382 
L 220.246636 138.716282 
L 227.147801 91.793914 
L 229.44819 77.150431 
L 231.748578 63.666482 
L 234.048967 51.798708 
L 236.349355 42.006081 
L 238.649744 34.715752 
L 240.950132 30.287637 
L 243.25052 28.981791 
L 245.550909 30.932627 
L 247.851297 36.133449 
L 250.151686 44.433611 
L 252.452074 55.548971 
L 254.752463 69.084584 
L 257.052851 84.566898 
L 259.35324 101.481481 
L 263.954017 137.573848 
L 268.554794 173.781216 
L 273.155571 207.703668 
L 275.455959 223.41773 
L 277.756348 238.226475 
L 280.056736 252.129239 
L 282.357125 265.147771 
L 284.657513 277.311014 
L 286.957902 288.643849 
L 289.25829 299.160453 
L 291.558679 308.862166 
L 293.859067 317.739232 
L 296.159455 325.775383 
L 298.459844 332.95406 
L 300.760232 339.265062 
L 303.060621 344.710523 
L 305.361009 349.309351 
L 307.661398 353.099579 
L 309.961786 356.138356 
L 312.262175 358.499683 
L 314.562563 360.270263 
L 316.862952 361.544035 
L 319.16334 362.416148 
L 321.463729 362.977096 
L 323.764117 363.307733 
L 328.364894 363.533466 
L 332.965671 363.454425 
L 339.866837 363.064406 
L 346.768002 362.433131 
L 362.870721 360.623966 
L 367.471498 359.892768 
L 372.072275 358.847588 
L 376.673052 357.455055 
L 385.874606 354.38669 
L 388.174995 353.814088 
L 390.475383 353.41259 
L 392.775772 353.21814 
L 395.07616 353.255391 
L 397.376549 353.536403 
L 399.676937 354.060758 
L 401.977326 354.816874 
L 404.277714 355.784163 
L 406.578102 356.935617 
L 411.178879 359.666519 
L 415.779656 362.75851 
L 429.581987 372.305208 
L 434.182764 375.236 
L 438.783541 377.962056 
L 443.384318 380.434325 
L 447.985095 382.583602 
L 452.585872 384.338269 
L 457.186649 385.657495 
L 461.787426 386.559237 
L 466.388203 387.125413 
L 473.289368 387.62055 
L 482.490922 388.230344 
L 489.392088 388.906947 
L 500.89403 390.352384 
L 510.095584 391.427943 
L 516.996749 392.004799 
L 523.897915 392.354817 
L 533.099469 392.559454 
L 542.301023 392.6155 
L 542.301023 392.6155 
" clip-path="url(#p7fc9230d7b)" style="fill: none; stroke: #1f77b4; stroke-width: 1.5; stroke-linecap: round"/>
   </g>
   <g id="line2d_19">
    <path d="M 84.321477 392.616637 
L 98.123546 392.507393 
L 107.324925 392.238297 
L 116.526305 391.700566 
L 125.727684 390.899706 
L 132.628718 390.116838 
L 137.229408 389.439306 
L 141.830097 388.537663 
L 146.430787 387.285566 
L 148.731132 386.478878 
L 151.031477 385.520498 
L 153.331821 384.383123 
L 155.632166 383.035751 
L 157.932511 381.443248 
L 160.232856 379.566173 
L 162.533201 377.361007 
L 164.833546 374.78088 
L 167.13389 371.776817 
L 169.434235 368.299453 
L 171.73458 364.301055 
L 174.034925 359.73767 
L 176.33527 354.571185 
L 178.635614 348.77109 
L 180.935959 342.315814 
L 183.236304 335.193522 
L 185.536649 327.40234 
L 187.836994 318.949991 
L 190.137338 309.852834 
L 192.437683 300.134328 
L 194.738028 289.822931 
L 199.338718 267.544682 
L 203.939407 243.244702 
L 208.540097 217.075243 
L 213.140786 189.128332 
L 217.741476 159.60405 
L 226.942855 99.156745 
L 229.2432 85.065027 
L 231.543545 72.064925 
L 233.84389 60.569324 
L 236.144235 50.995996 
L 238.444579 43.737058 
L 240.744924 39.126949 
L 243.045269 37.41258 
L 245.345614 38.729323 
L 247.645959 43.08592 
L 249.946303 50.360421 
L 252.246648 60.307853 
L 254.546993 72.578859 
L 256.847338 86.747135 
L 259.147683 102.342451 
L 263.748372 135.920077 
L 268.349062 169.913084 
L 272.949751 201.968147 
L 275.250096 216.87553 
L 277.550441 230.962292 
L 279.850786 244.232465 
L 282.151131 256.716808 
L 284.451475 268.456597 
L 286.75182 279.490488 
L 289.052165 289.845506 
L 291.35251 299.532591 
L 293.652855 308.54642 
L 295.9532 316.868779 
L 298.253544 324.474391 
L 300.553889 331.337959 
L 302.854234 337.441178 
L 305.154579 342.778677 
L 307.454924 347.362061 
L 309.755268 351.221614 
L 312.055613 354.405569 
L 314.355958 356.977185 
L 316.656303 359.010173 
L 318.956648 360.583178 
L 321.256992 361.774134 
L 323.557337 362.655226 
L 325.857682 363.289099 
L 328.158027 363.726688 
L 330.458372 364.006794 
L 335.059061 364.197363 
L 339.659751 363.999102 
L 344.26044 363.508083 
L 369.564233 359.962427 
L 374.164923 359.010689 
L 378.765613 357.741753 
L 387.966992 354.956775 
L 390.267337 354.455098 
L 392.567681 354.123472 
L 394.868026 353.997632 
L 397.168371 354.101619 
L 399.468716 354.445986 
L 401.769061 355.027497 
L 404.069405 355.830248 
L 406.36975 356.827967 
L 410.97044 359.270285 
L 417.871474 363.5025 
L 424.772509 367.757466 
L 431.673543 371.761172 
L 440.874922 376.786491 
L 445.475612 379.142679 
L 450.076302 381.299142 
L 454.676991 383.162955 
L 459.277681 384.670983 
L 463.87837 385.815589 
L 468.47906 386.646237 
L 473.07975 387.250983 
L 500.683887 390.311008 
L 509.885267 391.396722 
L 516.786301 391.98743 
L 523.687335 392.346996 
L 532.888715 392.557266 
L 542.090094 392.614996 
L 542.090094 392.614996 
" clip-path="url(#p7fc9230d7b)" style="fill: none; stroke: #ff7f0e; stroke-width: 1.5; stroke-linecap: round"/>
   </g>
   <g id="line2d_20">
    <path d="M 85.820699 392.61708 
L 101.858223 392.475519 
L 111.022522 392.179368 
L 120.186822 391.62407 
L 127.060046 391.015702 
L 133.933271 390.178777 
L 138.51542 389.406753 
L 143.09757 388.351392 
L 145.388645 387.67497 
L 147.67972 386.871444 
L 149.970794 385.91646 
L 152.261869 384.782949 
L 154.552944 383.441222 
L 156.844019 381.859203 
L 159.135094 380.002785 
L 161.426169 377.836342 
L 163.717243 375.323312 
L 166.008318 372.426834 
L 168.299393 369.11035 
L 170.590468 365.338149 
L 172.881543 361.075855 
L 175.172618 356.290908 
L 177.463692 350.953153 
L 179.754767 345.035629 
L 182.045842 338.515655 
L 184.336917 331.376179 
L 186.627992 323.607268 
L 188.919067 315.207465 
L 191.210142 306.184637 
L 193.501216 296.555949 
L 195.792291 286.346669 
L 200.374441 264.312342 
L 204.956591 240.333886 
L 209.53874 214.597803 
L 214.12089 187.222465 
L 218.70304 158.443843 
L 225.576264 114.413831 
L 227.867339 100.335038 
L 230.158414 87.07168 
L 232.449489 75.002496 
L 234.740563 64.524807 
L 237.031638 56.026854 
L 239.322713 49.857233 
L 241.613788 46.294824 
L 243.904863 45.522855 
L 246.195938 47.610411 
L 248.487012 52.50391 
L 250.778087 60.029828 
L 253.069162 69.908492 
L 255.360237 81.777336 
L 257.651312 95.220749 
L 262.233462 125.099583 
L 269.106686 171.735604 
L 273.688836 201.09043 
L 278.270985 228.100437 
L 282.853135 252.743912 
L 287.435285 275.189586 
L 289.72636 285.605314 
L 292.017434 295.460264 
L 294.308509 304.719091 
L 296.599584 313.337464 
L 298.890659 321.268627 
L 301.181734 328.470295 
L 303.472809 334.910922 
L 305.763883 340.574603 
L 308.054958 345.464107 
L 310.346033 349.601838 
L 312.637108 353.028788 
L 314.928183 355.80178 
L 317.219258 357.989457 
L 319.510332 359.667574 
L 321.801407 360.914163 
L 324.092482 361.805089 
L 326.383557 362.410407 
L 328.674632 362.79181 
L 330.965707 363.00127 
L 335.547856 363.0636 
L 340.130006 362.834884 
L 360.74968 361.357395 
L 367.622904 360.964258 
L 372.205054 360.389104 
L 376.787203 359.394938 
L 381.369353 358.005136 
L 388.242578 355.717922 
L 390.533652 355.093482 
L 392.824727 354.621298 
L 395.115802 354.341598 
L 397.406877 354.282728 
L 399.697952 354.459091 
L 401.989027 354.870719 
L 404.280102 355.504432 
L 406.571176 356.336295 
L 408.862251 357.334941 
L 413.444401 359.691936 
L 420.317625 363.652409 
L 434.064074 371.596408 
L 443.228374 376.738506 
L 447.810523 379.155644 
L 452.392673 381.341514 
L 456.974823 383.206166 
L 461.556973 384.705887 
L 466.139122 385.855991 
L 470.721272 386.720478 
L 477.594496 387.676016 
L 511.960619 391.666585 
L 518.833843 392.152939 
L 525.707068 392.430236 
L 534.871367 392.581443 
L 541.744592 392.6151 
L 541.744592 392.6151 
" clip-path="url(#p7fc9230d7b)" style="fill: none; stroke: #2ca02c; stroke-width: 1.5; stroke-linecap: round"/>
   </g>
   <g id="line2d_21">
    <path d="M 95.944514 392.616521 
L 109.366726 392.508748 
L 118.314868 392.217186 
L 125.025974 391.736924 
L 129.500045 391.224744 
L 133.974115 390.508668 
L 138.448186 389.536336 
L 142.922257 388.240078 
L 145.159292 387.442654 
L 147.396328 386.526621 
L 149.633363 385.474426 
L 151.870398 384.265656 
L 154.107434 382.877018 
L 156.344469 381.282523 
L 158.581504 379.453894 
L 160.81854 377.361166 
L 163.055575 374.973436 
L 165.29261 372.259646 
L 167.529646 369.189333 
L 169.766681 365.733227 
L 172.003716 361.863676 
L 174.240752 357.554863 
L 176.477787 352.782881 
L 178.714823 347.525735 
L 180.951858 341.763361 
L 183.188893 335.477739 
L 185.425929 328.653119 
L 187.662964 321.276316 
L 189.899999 313.336995 
L 192.137035 304.827806 
L 194.37407 295.744282 
L 196.611105 286.084459 
L 198.848141 275.848307 
L 201.085176 265.037208 
L 205.559247 241.702845 
L 210.033318 216.14069 
L 214.507388 188.547202 
L 221.218494 144.649716 
L 225.692565 115.57742 
L 227.929601 101.854507 
L 230.166636 89.104599 
L 232.403671 77.678863 
L 234.640707 67.928147 
L 236.877742 60.180054 
L 239.114777 54.714915 
L 241.351813 51.743135 
L 243.588848 51.386488 
L 245.825883 53.665686 
L 248.062919 58.495944 
L 250.299954 65.691393 
L 252.53699 74.978149 
L 254.774025 86.014782 
L 257.01106 98.418 
L 261.485131 125.749772 
L 268.196237 167.978935 
L 272.670308 194.377204 
L 277.144379 218.657008 
L 281.618449 241.002965 
L 286.09252 261.804952 
L 290.566591 281.285216 
L 295.040661 299.33634 
L 297.277697 307.711095 
L 299.514732 315.570051 
L 301.751767 322.850887 
L 303.988803 329.498778 
L 306.225838 335.472151 
L 308.462874 340.746922 
L 310.699909 345.31892 
L 312.936944 349.204388 
L 315.17398 352.438629 
L 317.411015 355.07306 
L 319.64805 357.171076 
L 321.885086 358.80321 
L 324.122121 360.042146 
L 326.359156 360.9581 
L 328.596192 361.615027 
L 330.833227 362.06797 
L 333.070263 362.361726 
L 337.544333 362.600626 
L 342.018404 362.509978 
L 346.492475 362.189963 
L 355.440616 361.216558 
L 362.151722 360.544913 
L 373.336899 359.566302 
L 377.81097 358.949529 
L 382.285041 358.117547 
L 391.233182 356.273781 
L 395.707253 355.709856 
L 397.944288 355.619095 
L 400.181323 355.683058 
L 402.418359 355.913228 
L 404.655394 356.313416 
L 406.89243 356.880159 
L 409.129465 357.603646 
L 411.3665 358.469015 
L 415.840571 360.549561 
L 420.314642 362.95765 
L 431.499818 369.465986 
L 438.210925 373.268014 
L 444.922031 376.820551 
L 449.396101 378.98818 
L 453.870172 380.937927 
L 458.344243 382.625531 
L 462.818314 384.032133 
L 467.292384 385.175551 
L 471.766455 386.106469 
L 478.477561 387.251203 
L 494.136809 389.580294 
L 503.08495 390.796956 
L 509.796056 391.536353 
L 516.507162 392.061709 
L 523.218268 392.376392 
L 532.16641 392.562058 
L 541.114551 392.61505 
L 541.114551 392.61505 
" clip-path="url(#p7fc9230d7b)" style="fill: none; stroke: #d62728; stroke-width: 1.5; stroke-linecap: round"/>
   </g>
   <g id="line2d_22">
    <path d="M 93.296167 392.617325 
L 109.023371 392.488747 
L 118.010345 392.210126 
L 124.750575 391.80041 
L 129.244062 391.381509 
L 133.737549 390.792974 
L 138.231036 389.963542 
L 142.724523 388.795476 
L 144.971267 388.047332 
L 147.21801 387.167546 
L 149.464753 386.13817 
L 151.711497 384.940221 
L 153.95824 383.553464 
L 156.204984 381.956044 
L 158.451727 380.124008 
L 160.698471 378.030842 
L 162.945214 375.647155 
L 165.191958 372.940671 
L 167.438701 369.876632 
L 169.685445 366.418714 
L 171.932188 362.530409 
L 174.178932 358.176807 
L 176.425675 353.32656 
L 178.672418 347.953793 
L 180.919162 342.039669 
L 183.165905 335.573322 
L 185.412649 328.551977 
L 187.659392 320.980108 
L 189.906136 312.867701 
L 192.152879 304.22777 
L 194.399623 295.073469 
L 196.646366 285.415246 
L 201.139853 264.602808 
L 205.63334 241.765878 
L 210.126827 216.847259 
L 214.620314 189.935885 
L 221.360544 147.118327 
L 225.854031 118.947781 
L 228.100775 105.776542 
L 230.347518 93.655623 
L 232.594261 82.93222 
L 234.841005 73.942167 
L 237.087748 66.987191 
L 239.334492 62.312497 
L 241.581235 60.086953 
L 243.827979 60.38803 
L 246.074722 63.19333 
L 248.321466 68.379897 
L 250.568209 75.731726 
L 252.814953 84.954962 
L 255.061696 95.699401 
L 257.30844 107.584152 
L 261.801926 133.259508 
L 266.295413 159.302451 
L 270.7889 183.952488 
L 275.282387 206.542796 
L 279.775874 227.267954 
L 284.269361 246.717761 
L 291.009591 274.534309 
L 295.503078 292.229145 
L 299.996565 308.769166 
L 302.243309 316.406435 
L 304.490052 323.513451 
L 306.736796 330.020614 
L 308.983539 335.874799 
L 311.230283 341.043342 
L 313.477026 345.516108 
L 315.723769 349.305627 
L 317.970513 352.445423 
L 320.217256 354.986833 
L 322.464 356.994687 
L 324.710743 358.542339 
L 326.957487 359.706507 
L 329.20423 360.562402 
L 331.450974 361.179539 
L 333.697717 361.618519 
L 338.191204 362.148673 
L 342.684691 362.410508 
L 347.178178 362.502234 
L 351.671665 362.426552 
L 356.165152 362.161654 
L 360.658639 361.708367 
L 367.398869 360.753766 
L 376.385843 359.204016 
L 387.61956 357.225719 
L 392.113047 356.639789 
L 396.606534 356.346446 
L 401.100021 356.455268 
L 403.346764 356.68216 
L 405.593508 357.028473 
L 407.840251 357.493502 
L 412.333738 358.765486 
L 416.827225 360.456365 
L 421.320712 362.510805 
L 425.814199 364.85859 
L 432.554429 368.71938 
L 441.541403 373.882361 
L 446.03489 376.241679 
L 450.528377 378.380595 
L 455.021864 380.286804 
L 459.515351 381.963376 
L 464.008838 383.416122 
L 468.502325 384.652204 
L 472.995812 385.687906 
L 479.736042 386.944522 
L 493.216503 389.035817 
L 506.696963 391.017211 
L 513.437194 391.75073 
L 520.177424 392.220729 
L 526.917655 392.468099 
L 538.151372 392.604829 
L 540.398115 392.613038 
L 540.398115 392.613038 
" clip-path="url(#p7fc9230d7b)" style="fill: none; stroke: #9467bd; stroke-width: 1.5; stroke-linecap: round"/>
   </g>
   <g id="line2d_23">
    <path d="M 88.595866 392.617616 
L 104.477737 392.499121 
L 115.82193 392.177289 
L 124.897285 391.687272 
L 131.703801 391.115666 
L 136.241479 390.552954 
L 140.779156 389.735765 
L 143.047995 389.190017 
L 145.316833 388.526124 
L 147.585672 387.721794 
L 149.854511 386.753308 
L 152.123349 385.595784 
L 154.392188 384.223355 
L 156.661027 382.609238 
L 158.929865 380.725734 
L 161.198704 378.544176 
L 163.467543 376.034908 
L 165.736381 373.167368 
L 168.00522 369.910363 
L 170.274059 366.232584 
L 172.542898 362.103425 
L 174.811736 357.494057 
L 177.080575 352.378709 
L 179.349414 346.735984 
L 181.618252 340.550025 
L 183.887091 333.811281 
L 186.15593 326.516646 
L 188.424768 318.668818 
L 190.693607 310.274809 
L 192.962446 301.343759 
L 195.231284 291.884356 
L 197.500123 281.902381 
L 202.0378 260.370539 
L 206.575478 236.712345 
L 211.113155 210.929017 
L 215.650833 183.296024 
L 224.726187 126.672065 
L 226.995026 113.637445 
L 229.263865 101.694528 
L 231.532703 91.191603 
L 233.801542 82.458225 
L 236.070381 75.781234 
L 238.339219 71.382235 
L 240.608058 69.398951 
L 242.876897 69.872594 
L 245.145736 72.742789 
L 247.414574 77.850803 
L 249.683413 84.950914 
L 251.952252 93.728844 
L 254.22109 103.825405 
L 256.489929 114.86293 
L 267.834122 172.722139 
L 272.3718 193.400647 
L 276.909477 212.206568 
L 281.447155 229.794955 
L 299.597864 298.025712 
L 304.135541 313.675479 
L 306.40438 320.843973 
L 308.673219 327.465303 
L 310.942058 333.477989 
L 313.210896 338.841678 
L 315.479735 343.538799 
L 317.748574 347.574386 
L 320.017412 350.974203 
L 322.286251 353.781495 
L 324.55509 356.052763 
L 326.823928 357.85304 
L 329.092767 359.251146 
L 331.361606 360.315348 
L 333.630444 361.10978 
L 335.899283 361.691815 
L 338.168122 362.11049 
L 342.705799 362.60952 
L 347.243477 362.828916 
L 354.049993 362.869206 
L 360.856509 362.664709 
L 367.663025 362.189144 
L 372.200702 361.673401 
L 376.738379 360.965841 
L 381.276057 360.063025 
L 388.082573 358.442926 
L 394.889089 356.841381 
L 399.426766 356.059687 
L 401.695605 355.822291 
L 403.964444 355.713848 
L 406.233282 355.750223 
L 408.502121 355.942929 
L 410.77096 356.298588 
L 413.039799 356.818719 
L 415.308637 357.499837 
L 417.577476 358.333812 
L 419.846315 359.308428 
L 424.383992 361.614447 
L 428.921669 364.265681 
L 442.534701 372.647128 
L 447.072379 375.151875 
L 451.610056 377.404361 
L 456.147734 379.403403 
L 460.685411 381.169452 
L 465.223088 382.727783 
L 469.760766 384.100478 
L 476.567282 385.857937 
L 483.373798 387.336044 
L 492.449153 389.045457 
L 501.524507 390.521954 
L 508.331023 391.394592 
L 515.137539 392.000947 
L 521.944056 392.355027 
L 531.01941 392.558108 
L 540.094765 392.614488 
L 540.094765 392.614488 
" clip-path="url(#p7fc9230d7b)" style="fill: none; stroke: #8c564b; stroke-width: 1.5; stroke-linecap: round"/>
   </g>
   <g id="line2d_24">
    <path d="M 94.056665 392.617428 
L 109.739943 392.496402 
L 118.701816 392.23433 
L 125.423221 391.848485 
L 132.144626 391.209302 
L 136.625562 390.573404 
L 141.106499 389.687509 
L 145.587435 388.44253 
L 147.827903 387.639958 
L 150.068372 386.687555 
L 152.30884 385.559524 
L 154.549308 384.227449 
L 156.789776 382.660562 
L 159.030245 380.826155 
L 161.270713 378.690165 
L 163.511181 376.217928 
L 165.751649 373.375108 
L 167.992118 370.128751 
L 170.232586 366.448408 
L 172.473054 362.307227 
L 174.713522 357.682899 
L 176.953991 352.558333 
L 179.194459 346.921947 
L 181.434927 340.767481 
L 183.675396 334.093296 
L 185.915864 326.90117 
L 188.156332 319.194695 
L 190.3968 310.977434 
L 192.637269 302.251105 
L 194.877737 293.014107 
L 197.118205 283.260752 
L 199.358673 272.981596 
L 203.83961 250.801547 
L 208.320546 226.43247 
L 212.801483 200.057324 
L 224.003824 131.377099 
L 226.244292 118.967661 
L 228.484761 107.717309 
L 230.725229 97.956676 
L 232.965697 89.992186 
L 235.206165 84.083164 
L 237.446634 80.420498 
L 239.687102 79.109203 
L 241.92757 80.156983 
L 244.168038 83.470365 
L 246.408507 88.859176 
L 248.648975 96.049205 
L 250.889443 104.701983 
L 253.129912 114.439746 
L 257.610848 135.62844 
L 262.091785 156.833903 
L 264.332253 166.811934 
L 266.572721 176.186341 
L 268.813189 184.913378 
L 271.053658 193.018004 
L 273.294126 200.580729 
L 277.775062 214.581595 
L 284.496467 234.885525 
L 288.977404 249.240272 
L 293.45834 264.626428 
L 306.90115 312.351477 
L 309.141618 319.485503 
L 311.382086 326.125221 
L 313.622554 332.203932 
L 315.863023 337.67579 
L 318.103491 342.516719 
L 320.343959 346.723858 
L 322.584428 350.313686 
L 324.824896 353.319097 
L 327.065364 355.785772 
L 329.305832 357.768236 
L 331.546301 359.325996 
L 333.786769 360.520077 
L 336.027237 361.410216 
L 338.267705 362.052818 
L 340.508174 362.49968 
L 344.98911 362.986956 
L 351.710515 363.237206 
L 360.672388 363.577646 
L 369.634261 363.976648 
L 374.115197 363.86362 
L 376.355666 363.657447 
L 378.596134 363.334454 
L 380.836602 362.89055 
L 385.317539 361.662407 
L 389.798475 360.088349 
L 398.760348 356.739314 
L 403.241285 355.430801 
L 405.481753 354.96027 
L 407.722221 354.640637 
L 409.96269 354.489174 
L 412.203158 354.519435 
L 414.443626 354.740765 
L 416.684094 355.157776 
L 418.924563 355.769885 
L 421.165031 356.570988 
L 423.405499 357.549398 
L 425.645967 358.688121 
L 430.126904 361.356162 
L 434.60784 364.365497 
L 443.569713 370.539982 
L 448.05065 373.375211 
L 452.531586 375.930699 
L 457.012523 378.195174 
L 461.49346 380.189717 
L 465.974396 381.946617 
L 470.455333 383.497819 
L 474.936269 384.87273 
L 481.657674 386.666332 
L 488.379079 388.21141 
L 495.100483 389.54962 
L 501.821888 390.662299 
L 508.543293 391.504928 
L 515.264698 392.064207 
L 521.986102 392.382434 
L 530.947975 392.563782 
L 539.909849 392.615033 
L 539.909849 392.615033 
" clip-path="url(#p7fc9230d7b)" style="fill: none; stroke: #e377c2; stroke-width: 1.5; stroke-linecap: round"/>
   </g>
   <g id="patch_3">
    <path d="M 61.4225 392.6275 
L 61.4225 10.8 
" style="fill: none; stroke: #ffffff; stroke-width: 0.8; stroke-linejoin: miter; stroke-linecap: square"/>
   </g>
   <g id="patch_4">
    <path d="M 565.2 392.6275 
L 565.2 10.8 
" style="fill: none; stroke: #ffffff; stroke-width: 0.8; stroke-linejoin: miter; stroke-linecap: square"/>
   </g>
   <g id="patch_5">
    <path d="M 61.4225 392.6275 
L 565.2 392.6275 
" style="fill: none; stroke: #ffffff; stroke-width: 0.8; stroke-linejoin: miter; stroke-linecap: square"/>
   </g>
   <g id="patch_6">
    <path d="M 61.4225 10.8 
L 565.2 10.8 
" style="fill: none; stroke: #ffffff; stroke-width: 0.8; stroke-linejoin: miter; stroke-linecap: square"/>
   </g>
   <g id="legend_1">
    <g id="patch_7">
     <path d="M 500.078125 118.75625 
L 558.2 118.75625 
Q 560.2 118.75625 560.2 116.75625 
L 560.2 17.8 
Q 560.2 15.8 558.2 15.8 
L 500.078125 15.8 
Q 498.078125 15.8 498.078125 17.8 
L 498.078125 116.75625 
Q 498.078125 118.75625 500.078125 118.75625 
z
" style="fill: #eaeaf2; opacity: 0.8; stroke: #cccccc; stroke-linejoin: miter"/>
    </g>
    <g id="line2d_25">
     <path d="M 502.078125 23.4875 
L 512.078125 23.4875 
L 522.078125 23.4875 
" style="fill: none; stroke: #1f77b4; stroke-width: 1.5; stroke-linecap: round"/>
    </g>
    <g id="text_20">
     <!-- Day 1 -->
     <g style="fill: #262626" transform="translate(530.078125 26.9875) scale(0.1 -0.1)">
      <use xlink:href="#ArialMT-44"/>
      <use xlink:href="#ArialMT-61" x="72.216797"/>
      <use xlink:href="#ArialMT-79" x="127.832031"/>
      <use xlink:href="#ArialMT-20" x="177.832031"/>
      <use xlink:href="#ArialMT-31" x="205.615234"/>
     </g>
    </g>
    <g id="line2d_26">
     <path d="M 502.078125 37.779688 
L 512.078125 37.779688 
L 522.078125 37.779688 
" style="fill: none; stroke: #ff7f0e; stroke-width: 1.5; stroke-linecap: round"/>
    </g>
    <g id="text_21">
     <!-- Day 2 -->
     <g style="fill: #262626" transform="translate(530.078125 41.279688) scale(0.1 -0.1)">
      <use xlink:href="#ArialMT-44"/>
      <use xlink:href="#ArialMT-61" x="72.216797"/>
      <use xlink:href="#ArialMT-79" x="127.832031"/>
      <use xlink:href="#ArialMT-20" x="177.832031"/>
      <use xlink:href="#ArialMT-32" x="205.615234"/>
     </g>
    </g>
    <g id="line2d_27">
     <path d="M 502.078125 52.071875 
L 512.078125 52.071875 
L 522.078125 52.071875 
" style="fill: none; stroke: #2ca02c; stroke-width: 1.5; stroke-linecap: round"/>
    </g>
    <g id="text_22">
     <!-- Day 3 -->
     <g style="fill: #262626" transform="translate(530.078125 55.571875) scale(0.1 -0.1)">
      <use xlink:href="#ArialMT-44"/>
      <use xlink:href="#ArialMT-61" x="72.216797"/>
      <use xlink:href="#ArialMT-79" x="127.832031"/>
      <use xlink:href="#ArialMT-20" x="177.832031"/>
      <use xlink:href="#ArialMT-33" x="205.615234"/>
     </g>
    </g>
    <g id="line2d_28">
     <path d="M 502.078125 66.334375 
L 512.078125 66.334375 
L 522.078125 66.334375 
" style="fill: none; stroke: #d62728; stroke-width: 1.5; stroke-linecap: round"/>
    </g>
    <g id="text_23">
     <!-- Day 4 -->
     <g style="fill: #262626" transform="translate(530.078125 69.834375) scale(0.1 -0.1)">
      <use xlink:href="#ArialMT-44"/>
      <use xlink:href="#ArialMT-61" x="72.216797"/>
      <use xlink:href="#ArialMT-79" x="127.832031"/>
      <use xlink:href="#ArialMT-20" x="177.832031"/>
      <use xlink:href="#ArialMT-34" x="205.615234"/>
     </g>
    </g>
    <g id="line2d_29">
     <path d="M 502.078125 80.596875 
L 512.078125 80.596875 
L 522.078125 80.596875 
" style="fill: none; stroke: #9467bd; stroke-width: 1.5; stroke-linecap: round"/>
    </g>
    <g id="text_24">
     <!-- Day 5 -->
     <g style="fill: #262626" transform="translate(530.078125 84.096875) scale(0.1 -0.1)">
      <use xlink:href="#ArialMT-44"/>
      <use xlink:href="#ArialMT-61" x="72.216797"/>
      <use xlink:href="#ArialMT-79" x="127.832031"/>
      <use xlink:href="#ArialMT-20" x="177.832031"/>
      <use xlink:href="#ArialMT-35" x="205.615234"/>
     </g>
    </g>
    <g id="line2d_30">
     <path d="M 502.078125 94.889063 
L 512.078125 94.889063 
L 522.078125 94.889063 
" style="fill: none; stroke: #8c564b; stroke-width: 1.5; stroke-linecap: round"/>
    </g>
    <g id="text_25">
     <!-- Day 6 -->
     <g style="fill: #262626" transform="translate(530.078125 98.389063) scale(0.1 -0.1)">
      <use xlink:href="#ArialMT-44"/>
      <use xlink:href="#ArialMT-61" x="72.216797"/>
      <use xlink:href="#ArialMT-79" x="127.832031"/>
      <use xlink:href="#ArialMT-20" x="177.832031"/>
      <use xlink:href="#ArialMT-36" x="205.615234"/>
     </g>
    </g>
    <g id="line2d_31">
     <path d="M 502.078125 109.151563 
L 512.078125 109.151563 
L 522.078125 109.151563 
" style="fill: none; stroke: #e377c2; stroke-width: 1.5; stroke-linecap: round"/>
    </g>
    <g id="text_26">
     <!-- Day 7 -->
     <g style="fill: #262626" transform="translate(530.078125 112.651563) scale(0.1 -0.1)">
      <defs>
       <path id="ArialMT-37" d="M 303 3981 
L 303 4522 
L 3269 4522 
L 3269 4084 
Q 2831 3619 2401 2847 
Q 1972 2075 1738 1259 
Q 1569 684 1522 0 
L 944 0 
Q 953 541 1156 1306 
Q 1359 2072 1739 2783 
Q 2119 3494 2547 3981 
L 303 3981 
z
" transform="scale(0.015625)"/>
      </defs>
      <use xlink:href="#ArialMT-44"/>
      <use xlink:href="#ArialMT-61" x="72.216797"/>
      <use xlink:href="#ArialMT-79" x="127.832031"/>
      <use xlink:href="#ArialMT-20" x="177.832031"/>
      <use xlink:href="#ArialMT-37" x="205.615234"/>
     </g>
    </g>
   </g>
  </g>
 </g>
 <defs>
  <clipPath id="p7fc9230d7b">
   <rect x="61.4225" y="10.8" width="503.7775" height="381.8275"/>
  </clipPath>
 </defs>
</svg>
