<?xml version="1.0" encoding="utf-8" standalone="no"?>
<!DOCTYPE svg PUBLIC "-//W3C//DTD SVG 1.1//EN"
  "http://www.w3.org/Graphics/SVG/1.1/DTD/svg11.dtd">
<svg xmlns:xlink="http://www.w3.org/1999/xlink" width="576pt" height="432pt" viewBox="0 0 576 432" xmlns="http://www.w3.org/2000/svg" version="1.1">
 <metadata>
  <rdf:RDF xmlns:dc="http://purl.org/dc/elements/1.1/" xmlns:cc="http://creativecommons.org/ns#" xmlns:rdf="http://www.w3.org/1999/02/22-rdf-syntax-ns#">
   <cc:Work>
    <dc:type rdf:resource="http://purl.org/dc/dcmitype/StillImage"/>
    <dc:date>2023-11-17T05:04:39.973937</dc:date>
    <dc:format>image/svg+xml</dc:format>
    <dc:creator>
     <cc:Agent>
      <dc:title>Matplotlib v3.8.0, https://matplotlib.org/</dc:title>
     </cc:Agent>
    </dc:creator>
   </cc:Work>
  </rdf:RDF>
 </metadata>
 <defs>
  <style type="text/css">*{stroke-linejoin: round; stroke-linecap: butt}</style>
 </defs>
 <g id="figure_1">
  <g id="patch_1">
   <path d="M 0 432 
L 576 432 
L 576 0 
L 0 0 
z
" style="fill: #ffffff"/>
  </g>
  <g id="axes_1">
   <g id="patch_2">
    <path d="M 50.2625 392.2225 
L 565.2 392.2225 
L 565.2 10.8 
L 50.2625 10.8 
z
" style="fill: #eaeaf2"/>
   </g>
   <g id="matplotlib.axis_1">
    <g id="xtick_1">
     <g id="line2d_1">
      <path d="M 92.890738 392.2225 
L 92.890738 10.8 
" clip-path="url(#pc3eb065dae)" style="fill: none; stroke: #ffffff; stroke-width: 0.8; stroke-linecap: round"/>
     </g>
     <g id="text_1">
      <!-- −15 -->
      <g style="fill: #262626" transform="translate(84.409488 406.380313) scale(0.1 -0.1)">
       <defs>
        <path id="ArialMT-2212" d="M 3381 1997 
L 356 1997 
L 356 2522 
L 3381 2522 
L 3381 1997 
z
" transform="scale(0.015625)"/>
        <path id="ArialMT-31" d="M 2384 0 
L 1822 0 
L 1822 3584 
Q 1619 3391 1289 3197 
Q 959 3003 697 2906 
L 697 3450 
Q 1169 3672 1522 3987 
Q 1875 4303 2022 4600 
L 2384 4600 
L 2384 0 
z
" transform="scale(0.015625)"/>
        <path id="ArialMT-35" d="M 266 1200 
L 856 1250 
Q 922 819 1161 601 
Q 1400 384 1738 384 
Q 2144 384 2425 690 
Q 2706 997 2706 1503 
Q 2706 1984 2436 2262 
Q 2166 2541 1728 2541 
Q 1456 2541 1237 2417 
Q 1019 2294 894 2097 
L 366 2166 
L 809 4519 
L 3088 4519 
L 3088 3981 
L 1259 3981 
L 1013 2750 
Q 1425 3038 1878 3038 
Q 2478 3038 2890 2622 
Q 3303 2206 3303 1553 
Q 3303 931 2941 478 
Q 2500 -78 1738 -78 
Q 1113 -78 717 272 
Q 322 622 266 1200 
z
" transform="scale(0.015625)"/>
       </defs>
       <use xlink:href="#ArialMT-2212"/>
       <use xlink:href="#ArialMT-31" x="58.398438"/>
       <use xlink:href="#ArialMT-35" x="114.013672"/>
      </g>
     </g>
    </g>
    <g id="xtick_2">
     <g id="line2d_2">
      <path d="M 152.711586 392.2225 
L 152.711586 10.8 
" clip-path="url(#pc3eb065dae)" style="fill: none; stroke: #ffffff; stroke-width: 0.8; stroke-linecap: round"/>
     </g>
     <g id="text_2">
      <!-- −10 -->
      <g style="fill: #262626" transform="translate(144.230336 406.380313) scale(0.1 -0.1)">
       <defs>
        <path id="ArialMT-30" d="M 266 2259 
Q 266 3072 433 3567 
Q 600 4063 929 4331 
Q 1259 4600 1759 4600 
Q 2128 4600 2406 4451 
Q 2684 4303 2865 4023 
Q 3047 3744 3150 3342 
Q 3253 2941 3253 2259 
Q 3253 1453 3087 958 
Q 2922 463 2592 192 
Q 2263 -78 1759 -78 
Q 1097 -78 719 397 
Q 266 969 266 2259 
z
M 844 2259 
Q 844 1131 1108 757 
Q 1372 384 1759 384 
Q 2147 384 2411 759 
Q 2675 1134 2675 2259 
Q 2675 3391 2411 3762 
Q 2147 4134 1753 4134 
Q 1366 4134 1134 3806 
Q 844 3388 844 2259 
z
" transform="scale(0.015625)"/>
       </defs>
       <use xlink:href="#ArialMT-2212"/>
       <use xlink:href="#ArialMT-31" x="58.398438"/>
       <use xlink:href="#ArialMT-30" x="114.013672"/>
      </g>
     </g>
    </g>
    <g id="xtick_3">
     <g id="line2d_3">
      <path d="M 212.532434 392.2225 
L 212.532434 10.8 
" clip-path="url(#pc3eb065dae)" style="fill: none; stroke: #ffffff; stroke-width: 0.8; stroke-linecap: round"/>
     </g>
     <g id="text_3">
      <!-- −5 -->
      <g style="fill: #262626" transform="translate(206.831652 406.380313) scale(0.1 -0.1)">
       <use xlink:href="#ArialMT-2212"/>
       <use xlink:href="#ArialMT-35" x="58.398438"/>
      </g>
     </g>
    </g>
    <g id="xtick_4">
     <g id="line2d_4">
      <path d="M 272.353281 392.2225 
L 272.353281 10.8 
" clip-path="url(#pc3eb065dae)" style="fill: none; stroke: #ffffff; stroke-width: 0.8; stroke-linecap: round"/>
     </g>
     <g id="text_4">
      <!-- 0 -->
      <g style="fill: #262626" transform="translate(269.572812 406.380313) scale(0.1 -0.1)">
       <use xlink:href="#ArialMT-30"/>
      </g>
     </g>
    </g>
    <g id="xtick_5">
     <g id="line2d_5">
      <path d="M 332.174129 392.2225 
L 332.174129 10.8 
" clip-path="url(#pc3eb065dae)" style="fill: none; stroke: #ffffff; stroke-width: 0.8; stroke-linecap: round"/>
     </g>
     <g id="text_5">
      <!-- 5 -->
      <g style="fill: #262626" transform="translate(329.39366 406.380313) scale(0.1 -0.1)">
       <use xlink:href="#ArialMT-35"/>
      </g>
     </g>
    </g>
    <g id="xtick_6">
     <g id="line2d_6">
      <path d="M 391.994976 392.2225 
L 391.994976 10.8 
" clip-path="url(#pc3eb065dae)" style="fill: none; stroke: #ffffff; stroke-width: 0.8; stroke-linecap: round"/>
     </g>
     <g id="text_6">
      <!-- 10 -->
      <g style="fill: #262626" transform="translate(386.434039 406.380313) scale(0.1 -0.1)">
       <use xlink:href="#ArialMT-31"/>
       <use xlink:href="#ArialMT-30" x="55.615234"/>
      </g>
     </g>
    </g>
    <g id="xtick_7">
     <g id="line2d_7">
      <path d="M 451.815824 392.2225 
L 451.815824 10.8 
" clip-path="url(#pc3eb065dae)" style="fill: none; stroke: #ffffff; stroke-width: 0.8; stroke-linecap: round"/>
     </g>
     <g id="text_7">
      <!-- 15 -->
      <g style="fill: #262626" transform="translate(446.254887 406.380313) scale(0.1 -0.1)">
       <use xlink:href="#ArialMT-31"/>
       <use xlink:href="#ArialMT-35" x="55.615234"/>
      </g>
     </g>
    </g>
    <g id="xtick_8">
     <g id="line2d_8">
      <path d="M 511.636672 392.2225 
L 511.636672 10.8 
" clip-path="url(#pc3eb065dae)" style="fill: none; stroke: #ffffff; stroke-width: 0.8; stroke-linecap: round"/>
     </g>
     <g id="text_8">
      <!-- 20 -->
      <g style="fill: #262626" transform="translate(506.075734 406.380313) scale(0.1 -0.1)">
       <defs>
        <path id="ArialMT-32" d="M 3222 541 
L 3222 0 
L 194 0 
Q 188 203 259 391 
Q 375 700 629 1000 
Q 884 1300 1366 1694 
Q 2113 2306 2375 2664 
Q 2638 3022 2638 3341 
Q 2638 3675 2398 3904 
Q 2159 4134 1775 4134 
Q 1369 4134 1125 3890 
Q 881 3647 878 3216 
L 300 3275 
Q 359 3922 746 4261 
Q 1134 4600 1788 4600 
Q 2447 4600 2831 4234 
Q 3216 3869 3216 3328 
Q 3216 3053 3103 2787 
Q 2991 2522 2730 2228 
Q 2469 1934 1863 1422 
Q 1356 997 1212 845 
Q 1069 694 975 541 
L 3222 541 
z
" transform="scale(0.015625)"/>
       </defs>
       <use xlink:href="#ArialMT-32"/>
       <use xlink:href="#ArialMT-30" x="55.615234"/>
      </g>
     </g>
    </g>
    <g id="text_9">
     <!-- Average Temperature Predictive Error (°C) -->
     <g style="fill: #262626" transform="translate(213.661719 419.6475) scale(0.1 -0.1)">
      <defs>
       <path id="ArialMT-41" d="M -9 0 
L 1750 4581 
L 2403 4581 
L 4278 0 
L 3588 0 
L 3053 1388 
L 1138 1388 
L 634 0 
L -9 0 
z
M 1313 1881 
L 2866 1881 
L 2388 3150 
Q 2169 3728 2063 4100 
Q 1975 3659 1816 3225 
L 1313 1881 
z
" transform="scale(0.015625)"/>
       <path id="ArialMT-76" d="M 1344 0 
L 81 3319 
L 675 3319 
L 1388 1331 
Q 1503 1009 1600 663 
Q 1675 925 1809 1294 
L 2547 3319 
L 3125 3319 
L 1869 0 
L 1344 0 
z
" transform="scale(0.015625)"/>
       <path id="ArialMT-65" d="M 2694 1069 
L 3275 997 
Q 3138 488 2766 206 
Q 2394 -75 1816 -75 
Q 1088 -75 661 373 
Q 234 822 234 1631 
Q 234 2469 665 2931 
Q 1097 3394 1784 3394 
Q 2450 3394 2872 2941 
Q 3294 2488 3294 1666 
Q 3294 1616 3291 1516 
L 816 1516 
Q 847 969 1125 678 
Q 1403 388 1819 388 
Q 2128 388 2347 550 
Q 2566 713 2694 1069 
z
M 847 1978 
L 2700 1978 
Q 2663 2397 2488 2606 
Q 2219 2931 1791 2931 
Q 1403 2931 1139 2672 
Q 875 2413 847 1978 
z
" transform="scale(0.015625)"/>
       <path id="ArialMT-72" d="M 416 0 
L 416 3319 
L 922 3319 
L 922 2816 
Q 1116 3169 1280 3281 
Q 1444 3394 1641 3394 
Q 1925 3394 2219 3213 
L 2025 2691 
Q 1819 2813 1613 2813 
Q 1428 2813 1281 2702 
Q 1134 2591 1072 2394 
Q 978 2094 978 1738 
L 978 0 
L 416 0 
z
" transform="scale(0.015625)"/>
       <path id="ArialMT-61" d="M 2588 409 
Q 2275 144 1986 34 
Q 1697 -75 1366 -75 
Q 819 -75 525 192 
Q 231 459 231 875 
Q 231 1119 342 1320 
Q 453 1522 633 1644 
Q 813 1766 1038 1828 
Q 1203 1872 1538 1913 
Q 2219 1994 2541 2106 
Q 2544 2222 2544 2253 
Q 2544 2597 2384 2738 
Q 2169 2928 1744 2928 
Q 1347 2928 1158 2789 
Q 969 2650 878 2297 
L 328 2372 
Q 403 2725 575 2942 
Q 747 3159 1072 3276 
Q 1397 3394 1825 3394 
Q 2250 3394 2515 3294 
Q 2781 3194 2906 3042 
Q 3031 2891 3081 2659 
Q 3109 2516 3109 2141 
L 3109 1391 
Q 3109 606 3145 398 
Q 3181 191 3288 0 
L 2700 0 
Q 2613 175 2588 409 
z
M 2541 1666 
Q 2234 1541 1622 1453 
Q 1275 1403 1131 1340 
Q 988 1278 909 1158 
Q 831 1038 831 891 
Q 831 666 1001 516 
Q 1172 366 1500 366 
Q 1825 366 2078 508 
Q 2331 650 2450 897 
Q 2541 1088 2541 1459 
L 2541 1666 
z
" transform="scale(0.015625)"/>
       <path id="ArialMT-67" d="M 319 -275 
L 866 -356 
Q 900 -609 1056 -725 
Q 1266 -881 1628 -881 
Q 2019 -881 2231 -725 
Q 2444 -569 2519 -288 
Q 2563 -116 2559 434 
Q 2191 0 1641 0 
Q 956 0 581 494 
Q 206 988 206 1678 
Q 206 2153 378 2554 
Q 550 2956 876 3175 
Q 1203 3394 1644 3394 
Q 2231 3394 2613 2919 
L 2613 3319 
L 3131 3319 
L 3131 450 
Q 3131 -325 2973 -648 
Q 2816 -972 2473 -1159 
Q 2131 -1347 1631 -1347 
Q 1038 -1347 672 -1080 
Q 306 -813 319 -275 
z
M 784 1719 
Q 784 1066 1043 766 
Q 1303 466 1694 466 
Q 2081 466 2343 764 
Q 2606 1063 2606 1700 
Q 2606 2309 2336 2618 
Q 2066 2928 1684 2928 
Q 1309 2928 1046 2623 
Q 784 2319 784 1719 
z
" transform="scale(0.015625)"/>
       <path id="ArialMT-20" transform="scale(0.015625)"/>
       <path id="ArialMT-54" d="M 1659 0 
L 1659 4041 
L 150 4041 
L 150 4581 
L 3781 4581 
L 3781 4041 
L 2266 4041 
L 2266 0 
L 1659 0 
z
" transform="scale(0.015625)"/>
       <path id="ArialMT-6d" d="M 422 0 
L 422 3319 
L 925 3319 
L 925 2853 
Q 1081 3097 1340 3245 
Q 1600 3394 1931 3394 
Q 2300 3394 2536 3241 
Q 2772 3088 2869 2813 
Q 3263 3394 3894 3394 
Q 4388 3394 4653 3120 
Q 4919 2847 4919 2278 
L 4919 0 
L 4359 0 
L 4359 2091 
Q 4359 2428 4304 2576 
Q 4250 2725 4106 2815 
Q 3963 2906 3769 2906 
Q 3419 2906 3187 2673 
Q 2956 2441 2956 1928 
L 2956 0 
L 2394 0 
L 2394 2156 
Q 2394 2531 2256 2718 
Q 2119 2906 1806 2906 
Q 1569 2906 1367 2781 
Q 1166 2656 1075 2415 
Q 984 2175 984 1722 
L 984 0 
L 422 0 
z
" transform="scale(0.015625)"/>
       <path id="ArialMT-70" d="M 422 -1272 
L 422 3319 
L 934 3319 
L 934 2888 
Q 1116 3141 1344 3267 
Q 1572 3394 1897 3394 
Q 2322 3394 2647 3175 
Q 2972 2956 3137 2557 
Q 3303 2159 3303 1684 
Q 3303 1175 3120 767 
Q 2938 359 2589 142 
Q 2241 -75 1856 -75 
Q 1575 -75 1351 44 
Q 1128 163 984 344 
L 984 -1272 
L 422 -1272 
z
M 931 1641 
Q 931 1000 1190 694 
Q 1450 388 1819 388 
Q 2194 388 2461 705 
Q 2728 1022 2728 1688 
Q 2728 2322 2467 2637 
Q 2206 2953 1844 2953 
Q 1484 2953 1207 2617 
Q 931 2281 931 1641 
z
" transform="scale(0.015625)"/>
       <path id="ArialMT-74" d="M 1650 503 
L 1731 6 
Q 1494 -44 1306 -44 
Q 1000 -44 831 53 
Q 663 150 594 308 
Q 525 466 525 972 
L 525 2881 
L 113 2881 
L 113 3319 
L 525 3319 
L 525 4141 
L 1084 4478 
L 1084 3319 
L 1650 3319 
L 1650 2881 
L 1084 2881 
L 1084 941 
Q 1084 700 1114 631 
Q 1144 563 1211 522 
Q 1278 481 1403 481 
Q 1497 481 1650 503 
z
" transform="scale(0.015625)"/>
       <path id="ArialMT-75" d="M 2597 0 
L 2597 488 
Q 2209 -75 1544 -75 
Q 1250 -75 995 37 
Q 741 150 617 320 
Q 494 491 444 738 
Q 409 903 409 1263 
L 409 3319 
L 972 3319 
L 972 1478 
Q 972 1038 1006 884 
Q 1059 663 1231 536 
Q 1403 409 1656 409 
Q 1909 409 2131 539 
Q 2353 669 2445 892 
Q 2538 1116 2538 1541 
L 2538 3319 
L 3100 3319 
L 3100 0 
L 2597 0 
z
" transform="scale(0.015625)"/>
       <path id="ArialMT-50" d="M 494 0 
L 494 4581 
L 2222 4581 
Q 2678 4581 2919 4538 
Q 3256 4481 3484 4323 
Q 3713 4166 3852 3881 
Q 3991 3597 3991 3256 
Q 3991 2672 3619 2267 
Q 3247 1863 2275 1863 
L 1100 1863 
L 1100 0 
L 494 0 
z
M 1100 2403 
L 2284 2403 
Q 2872 2403 3119 2622 
Q 3366 2841 3366 3238 
Q 3366 3525 3220 3729 
Q 3075 3934 2838 4000 
Q 2684 4041 2272 4041 
L 1100 4041 
L 1100 2403 
z
" transform="scale(0.015625)"/>
       <path id="ArialMT-64" d="M 2575 0 
L 2575 419 
Q 2259 -75 1647 -75 
Q 1250 -75 917 144 
Q 584 363 401 755 
Q 219 1147 219 1656 
Q 219 2153 384 2558 
Q 550 2963 881 3178 
Q 1213 3394 1622 3394 
Q 1922 3394 2156 3267 
Q 2391 3141 2538 2938 
L 2538 4581 
L 3097 4581 
L 3097 0 
L 2575 0 
z
M 797 1656 
Q 797 1019 1065 703 
Q 1334 388 1700 388 
Q 2069 388 2326 689 
Q 2584 991 2584 1609 
Q 2584 2291 2321 2609 
Q 2059 2928 1675 2928 
Q 1300 2928 1048 2622 
Q 797 2316 797 1656 
z
" transform="scale(0.015625)"/>
       <path id="ArialMT-69" d="M 425 3934 
L 425 4581 
L 988 4581 
L 988 3934 
L 425 3934 
z
M 425 0 
L 425 3319 
L 988 3319 
L 988 0 
L 425 0 
z
" transform="scale(0.015625)"/>
       <path id="ArialMT-63" d="M 2588 1216 
L 3141 1144 
Q 3050 572 2676 248 
Q 2303 -75 1759 -75 
Q 1078 -75 664 370 
Q 250 816 250 1647 
Q 250 2184 428 2587 
Q 606 2991 970 3192 
Q 1334 3394 1763 3394 
Q 2303 3394 2647 3120 
Q 2991 2847 3088 2344 
L 2541 2259 
Q 2463 2594 2264 2762 
Q 2066 2931 1784 2931 
Q 1359 2931 1093 2626 
Q 828 2322 828 1663 
Q 828 994 1084 691 
Q 1341 388 1753 388 
Q 2084 388 2306 591 
Q 2528 794 2588 1216 
z
" transform="scale(0.015625)"/>
       <path id="ArialMT-45" d="M 506 0 
L 506 4581 
L 3819 4581 
L 3819 4041 
L 1113 4041 
L 1113 2638 
L 3647 2638 
L 3647 2100 
L 1113 2100 
L 1113 541 
L 3925 541 
L 3925 0 
L 506 0 
z
" transform="scale(0.015625)"/>
       <path id="ArialMT-6f" d="M 213 1659 
Q 213 2581 725 3025 
Q 1153 3394 1769 3394 
Q 2453 3394 2887 2945 
Q 3322 2497 3322 1706 
Q 3322 1066 3130 698 
Q 2938 331 2570 128 
Q 2203 -75 1769 -75 
Q 1072 -75 642 372 
Q 213 819 213 1659 
z
M 791 1659 
Q 791 1022 1069 705 
Q 1347 388 1769 388 
Q 2188 388 2466 706 
Q 2744 1025 2744 1678 
Q 2744 2294 2464 2611 
Q 2184 2928 1769 2928 
Q 1347 2928 1069 2612 
Q 791 2297 791 1659 
z
" transform="scale(0.015625)"/>
       <path id="ArialMT-28" d="M 1497 -1347 
Q 1031 -759 709 28 
Q 388 816 388 1659 
Q 388 2403 628 3084 
Q 909 3875 1497 4659 
L 1900 4659 
Q 1522 4009 1400 3731 
Q 1209 3300 1100 2831 
Q 966 2247 966 1656 
Q 966 153 1900 -1347 
L 1497 -1347 
z
" transform="scale(0.015625)"/>
       <path id="ArialMT-b0" d="M 400 3794 
Q 400 4153 654 4406 
Q 909 4659 1266 4659 
Q 1628 4659 1881 4406 
Q 2134 4153 2134 3794 
Q 2134 3434 1879 3179 
Q 1625 2925 1266 2925 
Q 909 2925 654 3178 
Q 400 3431 400 3794 
z
M 741 3794 
Q 741 3575 895 3420 
Q 1050 3266 1269 3266 
Q 1484 3266 1639 3420 
Q 1794 3575 1794 3794 
Q 1794 4013 1639 4167 
Q 1484 4322 1269 4322 
Q 1050 4322 895 4167 
Q 741 4013 741 3794 
z
" transform="scale(0.015625)"/>
       <path id="ArialMT-43" d="M 3763 1606 
L 4369 1453 
Q 4178 706 3683 314 
Q 3188 -78 2472 -78 
Q 1731 -78 1267 223 
Q 803 525 561 1097 
Q 319 1669 319 2325 
Q 319 3041 592 3573 
Q 866 4106 1370 4382 
Q 1875 4659 2481 4659 
Q 3169 4659 3637 4309 
Q 4106 3959 4291 3325 
L 3694 3184 
Q 3534 3684 3231 3912 
Q 2928 4141 2469 4141 
Q 1941 4141 1586 3887 
Q 1231 3634 1087 3207 
Q 944 2781 944 2328 
Q 944 1744 1114 1308 
Q 1284 872 1643 656 
Q 2003 441 2422 441 
Q 2931 441 3284 734 
Q 3638 1028 3763 1606 
z
" transform="scale(0.015625)"/>
       <path id="ArialMT-29" d="M 791 -1347 
L 388 -1347 
Q 1322 153 1322 1656 
Q 1322 2244 1188 2822 
Q 1081 3291 891 3722 
Q 769 4003 388 4659 
L 791 4659 
Q 1378 3875 1659 3084 
Q 1900 2403 1900 1659 
Q 1900 816 1576 28 
Q 1253 -759 791 -1347 
z
" transform="scale(0.015625)"/>
      </defs>
      <use xlink:href="#ArialMT-41"/>
      <use xlink:href="#ArialMT-76" x="64.949219"/>
      <use xlink:href="#ArialMT-65" x="114.949219"/>
      <use xlink:href="#ArialMT-72" x="170.564453"/>
      <use xlink:href="#ArialMT-61" x="203.865234"/>
      <use xlink:href="#ArialMT-67" x="259.480469"/>
      <use xlink:href="#ArialMT-65" x="315.095703"/>
      <use xlink:href="#ArialMT-20" x="370.710938"/>
      <use xlink:href="#ArialMT-54" x="396.744141"/>
      <use xlink:href="#ArialMT-65" x="446.703125"/>
      <use xlink:href="#ArialMT-6d" x="502.318359"/>
      <use xlink:href="#ArialMT-70" x="585.619141"/>
      <use xlink:href="#ArialMT-65" x="641.234375"/>
      <use xlink:href="#ArialMT-72" x="696.849609"/>
      <use xlink:href="#ArialMT-61" x="730.150391"/>
      <use xlink:href="#ArialMT-74" x="785.765625"/>
      <use xlink:href="#ArialMT-75" x="813.548828"/>
      <use xlink:href="#ArialMT-72" x="869.164062"/>
      <use xlink:href="#ArialMT-65" x="902.464844"/>
      <use xlink:href="#ArialMT-20" x="958.080078"/>
      <use xlink:href="#ArialMT-50" x="985.863281"/>
      <use xlink:href="#ArialMT-72" x="1052.5625"/>
      <use xlink:href="#ArialMT-65" x="1085.863281"/>
      <use xlink:href="#ArialMT-64" x="1141.478516"/>
      <use xlink:href="#ArialMT-69" x="1197.09375"/>
      <use xlink:href="#ArialMT-63" x="1219.310547"/>
      <use xlink:href="#ArialMT-74" x="1269.310547"/>
      <use xlink:href="#ArialMT-69" x="1297.09375"/>
      <use xlink:href="#ArialMT-76" x="1319.310547"/>
      <use xlink:href="#ArialMT-65" x="1369.310547"/>
      <use xlink:href="#ArialMT-20" x="1424.925781"/>
      <use xlink:href="#ArialMT-45" x="1452.708984"/>
      <use xlink:href="#ArialMT-72" x="1519.408203"/>
      <use xlink:href="#ArialMT-72" x="1552.708984"/>
      <use xlink:href="#ArialMT-6f" x="1586.009766"/>
      <use xlink:href="#ArialMT-72" x="1641.625"/>
      <use xlink:href="#ArialMT-20" x="1674.925781"/>
      <use xlink:href="#ArialMT-28" x="1702.708984"/>
      <use xlink:href="#ArialMT-b0" x="1736.009766"/>
      <use xlink:href="#ArialMT-43" x="1776"/>
      <use xlink:href="#ArialMT-29" x="1848.216797"/>
     </g>
    </g>
   </g>
   <g id="matplotlib.axis_2">
    <g id="ytick_1">
     <g id="line2d_9">
      <path d="M 50.2625 392.2225 
L 565.2 392.2225 
" clip-path="url(#pc3eb065dae)" style="fill: none; stroke: #ffffff; stroke-width: 0.8; stroke-linecap: round"/>
     </g>
     <g id="text_10">
      <!-- 0.00 -->
      <g style="fill: #262626" transform="translate(23.801563 395.801406) scale(0.1 -0.1)">
       <defs>
        <path id="ArialMT-2e" d="M 581 0 
L 581 641 
L 1222 641 
L 1222 0 
L 581 0 
z
" transform="scale(0.015625)"/>
       </defs>
       <use xlink:href="#ArialMT-30"/>
       <use xlink:href="#ArialMT-2e" x="55.615234"/>
       <use xlink:href="#ArialMT-30" x="83.398438"/>
       <use xlink:href="#ArialMT-30" x="139.013672"/>
      </g>
     </g>
    </g>
    <g id="ytick_2">
     <g id="line2d_10">
      <path d="M 50.2625 325.86563 
L 565.2 325.86563 
" clip-path="url(#pc3eb065dae)" style="fill: none; stroke: #ffffff; stroke-width: 0.8; stroke-linecap: round"/>
     </g>
     <g id="text_11">
      <!-- 0.02 -->
      <g style="fill: #262626" transform="translate(23.801563 329.444537) scale(0.1 -0.1)">
       <use xlink:href="#ArialMT-30"/>
       <use xlink:href="#ArialMT-2e" x="55.615234"/>
       <use xlink:href="#ArialMT-30" x="83.398438"/>
       <use xlink:href="#ArialMT-32" x="139.013672"/>
      </g>
     </g>
    </g>
    <g id="ytick_3">
     <g id="line2d_11">
      <path d="M 50.2625 259.508761 
L 565.2 259.508761 
" clip-path="url(#pc3eb065dae)" style="fill: none; stroke: #ffffff; stroke-width: 0.8; stroke-linecap: round"/>
     </g>
     <g id="text_12">
      <!-- 0.04 -->
      <g style="fill: #262626" transform="translate(23.801563 263.087667) scale(0.1 -0.1)">
       <defs>
        <path id="ArialMT-34" d="M 2069 0 
L 2069 1097 
L 81 1097 
L 81 1613 
L 2172 4581 
L 2631 4581 
L 2631 1613 
L 3250 1613 
L 3250 1097 
L 2631 1097 
L 2631 0 
L 2069 0 
z
M 2069 1613 
L 2069 3678 
L 634 1613 
L 2069 1613 
z
" transform="scale(0.015625)"/>
       </defs>
       <use xlink:href="#ArialMT-30"/>
       <use xlink:href="#ArialMT-2e" x="55.615234"/>
       <use xlink:href="#ArialMT-30" x="83.398438"/>
       <use xlink:href="#ArialMT-34" x="139.013672"/>
      </g>
     </g>
    </g>
    <g id="ytick_4">
     <g id="line2d_12">
      <path d="M 50.2625 193.151891 
L 565.2 193.151891 
" clip-path="url(#pc3eb065dae)" style="fill: none; stroke: #ffffff; stroke-width: 0.8; stroke-linecap: round"/>
     </g>
     <g id="text_13">
      <!-- 0.06 -->
      <g style="fill: #262626" transform="translate(23.801563 196.730797) scale(0.1 -0.1)">
       <defs>
        <path id="ArialMT-36" d="M 3184 3459 
L 2625 3416 
Q 2550 3747 2413 3897 
Q 2184 4138 1850 4138 
Q 1581 4138 1378 3988 
Q 1113 3794 959 3422 
Q 806 3050 800 2363 
Q 1003 2672 1297 2822 
Q 1591 2972 1913 2972 
Q 2475 2972 2870 2558 
Q 3266 2144 3266 1488 
Q 3266 1056 3080 686 
Q 2894 316 2569 119 
Q 2244 -78 1831 -78 
Q 1128 -78 684 439 
Q 241 956 241 2144 
Q 241 3472 731 4075 
Q 1159 4600 1884 4600 
Q 2425 4600 2770 4297 
Q 3116 3994 3184 3459 
z
M 888 1484 
Q 888 1194 1011 928 
Q 1134 663 1356 523 
Q 1578 384 1822 384 
Q 2178 384 2434 671 
Q 2691 959 2691 1453 
Q 2691 1928 2437 2201 
Q 2184 2475 1800 2475 
Q 1419 2475 1153 2201 
Q 888 1928 888 1484 
z
" transform="scale(0.015625)"/>
       </defs>
       <use xlink:href="#ArialMT-30"/>
       <use xlink:href="#ArialMT-2e" x="55.615234"/>
       <use xlink:href="#ArialMT-30" x="83.398438"/>
       <use xlink:href="#ArialMT-36" x="139.013672"/>
      </g>
     </g>
    </g>
    <g id="ytick_5">
     <g id="line2d_13">
      <path d="M 50.2625 126.795021 
L 565.2 126.795021 
" clip-path="url(#pc3eb065dae)" style="fill: none; stroke: #ffffff; stroke-width: 0.8; stroke-linecap: round"/>
     </g>
     <g id="text_14">
      <!-- 0.08 -->
      <g style="fill: #262626" transform="translate(23.801563 130.373927) scale(0.1 -0.1)">
       <defs>
        <path id="ArialMT-38" d="M 1131 2484 
Q 781 2613 612 2850 
Q 444 3088 444 3419 
Q 444 3919 803 4259 
Q 1163 4600 1759 4600 
Q 2359 4600 2725 4251 
Q 3091 3903 3091 3403 
Q 3091 3084 2923 2848 
Q 2756 2613 2416 2484 
Q 2838 2347 3058 2040 
Q 3278 1734 3278 1309 
Q 3278 722 2862 322 
Q 2447 -78 1769 -78 
Q 1091 -78 675 323 
Q 259 725 259 1325 
Q 259 1772 486 2073 
Q 713 2375 1131 2484 
z
M 1019 3438 
Q 1019 3113 1228 2906 
Q 1438 2700 1772 2700 
Q 2097 2700 2305 2904 
Q 2513 3109 2513 3406 
Q 2513 3716 2298 3927 
Q 2084 4138 1766 4138 
Q 1444 4138 1231 3931 
Q 1019 3725 1019 3438 
z
M 838 1322 
Q 838 1081 952 856 
Q 1066 631 1291 507 
Q 1516 384 1775 384 
Q 2178 384 2440 643 
Q 2703 903 2703 1303 
Q 2703 1709 2433 1975 
Q 2163 2241 1756 2241 
Q 1359 2241 1098 1978 
Q 838 1716 838 1322 
z
" transform="scale(0.015625)"/>
       </defs>
       <use xlink:href="#ArialMT-30"/>
       <use xlink:href="#ArialMT-2e" x="55.615234"/>
       <use xlink:href="#ArialMT-30" x="83.398438"/>
       <use xlink:href="#ArialMT-38" x="139.013672"/>
      </g>
     </g>
    </g>
    <g id="ytick_6">
     <g id="line2d_14">
      <path d="M 50.2625 60.438151 
L 565.2 60.438151 
" clip-path="url(#pc3eb065dae)" style="fill: none; stroke: #ffffff; stroke-width: 0.8; stroke-linecap: round"/>
     </g>
     <g id="text_15">
      <!-- 0.10 -->
      <g style="fill: #262626" transform="translate(23.801563 64.017058) scale(0.1 -0.1)">
       <use xlink:href="#ArialMT-30"/>
       <use xlink:href="#ArialMT-2e" x="55.615234"/>
       <use xlink:href="#ArialMT-31" x="83.398438"/>
       <use xlink:href="#ArialMT-30" x="139.013672"/>
      </g>
     </g>
    </g>
    <g id="text_16">
     <!-- Density -->
     <g style="fill: #262626" transform="translate(17.696875 218.183125) rotate(-90) scale(0.1 -0.1)">
      <defs>
       <path id="ArialMT-44" d="M 494 0 
L 494 4581 
L 2072 4581 
Q 2606 4581 2888 4516 
Q 3281 4425 3559 4188 
Q 3922 3881 4101 3404 
Q 4281 2928 4281 2316 
Q 4281 1794 4159 1391 
Q 4038 988 3847 723 
Q 3656 459 3429 307 
Q 3203 156 2883 78 
Q 2563 0 2147 0 
L 494 0 
z
M 1100 541 
L 2078 541 
Q 2531 541 2789 625 
Q 3047 709 3200 863 
Q 3416 1078 3536 1442 
Q 3656 1806 3656 2325 
Q 3656 3044 3420 3430 
Q 3184 3816 2847 3947 
Q 2603 4041 2063 4041 
L 1100 4041 
L 1100 541 
z
" transform="scale(0.015625)"/>
       <path id="ArialMT-6e" d="M 422 0 
L 422 3319 
L 928 3319 
L 928 2847 
Q 1294 3394 1984 3394 
Q 2284 3394 2536 3286 
Q 2788 3178 2913 3003 
Q 3038 2828 3088 2588 
Q 3119 2431 3119 2041 
L 3119 0 
L 2556 0 
L 2556 2019 
Q 2556 2363 2490 2533 
Q 2425 2703 2258 2804 
Q 2091 2906 1866 2906 
Q 1506 2906 1245 2678 
Q 984 2450 984 1813 
L 984 0 
L 422 0 
z
" transform="scale(0.015625)"/>
       <path id="ArialMT-73" d="M 197 991 
L 753 1078 
Q 800 744 1014 566 
Q 1228 388 1613 388 
Q 2000 388 2187 545 
Q 2375 703 2375 916 
Q 2375 1106 2209 1216 
Q 2094 1291 1634 1406 
Q 1016 1563 777 1677 
Q 538 1791 414 1992 
Q 291 2194 291 2438 
Q 291 2659 392 2848 
Q 494 3038 669 3163 
Q 800 3259 1026 3326 
Q 1253 3394 1513 3394 
Q 1903 3394 2198 3281 
Q 2494 3169 2634 2976 
Q 2775 2784 2828 2463 
L 2278 2388 
Q 2241 2644 2061 2787 
Q 1881 2931 1553 2931 
Q 1166 2931 1000 2803 
Q 834 2675 834 2503 
Q 834 2394 903 2306 
Q 972 2216 1119 2156 
Q 1203 2125 1616 2013 
Q 2213 1853 2448 1751 
Q 2684 1650 2818 1456 
Q 2953 1263 2953 975 
Q 2953 694 2789 445 
Q 2625 197 2315 61 
Q 2006 -75 1616 -75 
Q 969 -75 630 194 
Q 291 463 197 991 
z
" transform="scale(0.015625)"/>
       <path id="ArialMT-79" d="M 397 -1278 
L 334 -750 
Q 519 -800 656 -800 
Q 844 -800 956 -737 
Q 1069 -675 1141 -563 
Q 1194 -478 1313 -144 
Q 1328 -97 1363 -6 
L 103 3319 
L 709 3319 
L 1400 1397 
Q 1534 1031 1641 628 
Q 1738 1016 1872 1384 
L 2581 3319 
L 3144 3319 
L 1881 -56 
Q 1678 -603 1566 -809 
Q 1416 -1088 1222 -1217 
Q 1028 -1347 759 -1347 
Q 597 -1347 397 -1278 
z
" transform="scale(0.015625)"/>
      </defs>
      <use xlink:href="#ArialMT-44"/>
      <use xlink:href="#ArialMT-65" x="72.216797"/>
      <use xlink:href="#ArialMT-6e" x="127.832031"/>
      <use xlink:href="#ArialMT-73" x="183.447266"/>
      <use xlink:href="#ArialMT-69" x="233.447266"/>
      <use xlink:href="#ArialMT-74" x="255.664062"/>
      <use xlink:href="#ArialMT-79" x="283.447266"/>
     </g>
    </g>
   </g>
   <g id="line2d_15">
    <path d="M 73.66875 392.207416 
L 84.778015 392.092133 
L 93.665426 391.77536 
L 102.552838 391.211336 
L 122.549514 389.7081 
L 126.99322 389.10399 
L 131.436926 388.29094 
L 144.768044 385.490369 
L 149.211749 384.812124 
L 158.099161 383.625828 
L 162.542867 382.694118 
L 164.76472 382.043431 
L 166.986573 381.24107 
L 169.208426 380.272519 
L 171.430279 379.127548 
L 173.652132 377.797779 
L 175.873985 376.273263 
L 178.095837 374.538551 
L 180.31769 372.568813 
L 182.539543 370.326644 
L 184.761396 367.760107 
L 186.983249 364.802453 
L 189.205102 361.373703 
L 191.426955 357.384071 
L 193.648808 352.738913 
L 195.870661 347.344732 
L 198.092514 341.1156 
L 200.314367 333.979295 
L 202.53622 325.882528 
L 204.758073 316.794692 
L 206.979925 306.709859 
L 209.201778 295.646948 
L 211.423631 283.648368 
L 213.645484 270.777636 
L 215.867337 257.116678 
L 220.311043 227.830313 
L 224.754749 196.742043 
L 233.642161 134.010301 
L 238.085866 105.13163 
L 240.307719 91.907997 
L 242.529572 79.6874 
L 244.751425 68.590055 
L 246.973278 58.716743 
L 249.195131 50.1511 
L 251.416984 42.962712 
L 253.638837 37.209593 
L 255.86069 32.938776 
L 258.082543 30.184251 
L 260.304396 28.962356 
L 262.526249 29.265648 
L 264.748101 31.056999 
L 266.969954 34.26595 
L 269.191807 38.789046 
L 271.41366 44.495035 
L 273.635513 51.234532 
L 275.857366 58.852491 
L 278.079219 67.200857 
L 280.301072 76.148457 
L 284.744778 95.422696 
L 289.188484 115.985332 
L 298.075895 157.940009 
L 300.297748 167.817454 
L 302.519601 177.151087 
L 304.741454 185.826243 
L 306.963307 193.775172 
L 309.18516 200.986047 
L 311.407013 207.502895 
L 313.628866 213.416359 
L 315.850719 218.847297 
L 320.294425 228.776392 
L 326.959983 242.75125 
L 333.625542 256.281732 
L 338.069248 264.847282 
L 342.512954 272.967736 
L 349.178513 284.516316 
L 353.622218 291.895745 
L 358.065924 298.930106 
L 362.50963 305.442557 
L 366.953336 311.319217 
L 371.397042 316.633149 
L 382.506306 329.409862 
L 386.950012 334.990706 
L 395.837424 346.427661 
L 400.28113 351.641039 
L 404.724836 356.31425 
L 409.168542 360.598123 
L 424.721512 375.110465 
L 426.943365 376.968543 
L 429.165218 378.657148 
L 431.387071 380.142721 
L 433.608924 381.405493 
L 435.830777 382.441656 
L 438.05263 383.263119 
L 440.274483 383.89512 
L 442.496335 384.372254 
L 446.940041 385.018541 
L 460.271159 386.557119 
L 469.158571 387.919882 
L 486.933394 390.727911 
L 493.598953 391.467477 
L 500.264511 391.911224 
L 506.93007 392.119495 
L 515.817482 392.206039 
L 515.817482 392.206039 
" clip-path="url(#pc3eb065dae)" style="fill: none; stroke: #1f77b4; stroke-width: 1.5; stroke-linecap: round"/>
   </g>
   <g id="line2d_16">
    <path d="M 87.582501 392.208293 
L 100.586071 392.075113 
L 109.255118 391.779843 
L 120.091427 391.136862 
L 133.094997 390.176048 
L 137.42952 389.690316 
L 141.764043 388.991969 
L 146.098567 388.024522 
L 150.43309 386.797642 
L 156.934875 384.652355 
L 165.603922 381.575125 
L 169.938445 379.712146 
L 172.105707 378.55031 
L 174.272969 377.149831 
L 176.44023 375.440967 
L 178.607492 373.355063 
L 180.774754 370.829664 
L 182.942015 367.813134 
L 185.109277 364.268166 
L 187.276539 360.173673 
L 189.4438 355.524749 
L 191.611062 350.330657 
L 193.778324 344.611101 
L 195.945585 338.391291 
L 198.112847 331.696552 
L 200.280109 324.547296 
L 202.447371 316.955139 
L 204.614632 308.92076 
L 206.781894 300.433805 
L 208.949156 291.474786 
L 211.116417 282.018618 
L 213.283679 272.039188 
L 215.450941 261.514257 
L 219.785464 238.785397 
L 224.119987 213.889267 
L 228.454511 187.167687 
L 239.290819 118.036435 
L 241.458081 105.234616 
L 243.625342 93.325472 
L 245.792604 82.568988 
L 247.959866 73.211385 
L 250.127128 65.465939 
L 252.294389 59.493739 
L 254.461651 55.387084 
L 256.628913 53.158194 
L 258.796174 52.735472 
L 260.963436 53.968559 
L 263.130698 56.642162 
L 265.297959 60.497279 
L 267.465221 65.25718 
L 269.632483 70.654684 
L 273.967006 82.484422 
L 280.468791 101.072773 
L 284.803314 113.969692 
L 289.137838 127.76188 
L 293.472361 142.575065 
L 299.974146 165.453289 
L 304.30867 179.688834 
L 306.475931 186.178104 
L 308.643193 192.187927 
L 310.810455 197.731516 
L 312.977716 202.864805 
L 317.31224 212.269825 
L 325.981286 230.356245 
L 332.483071 244.70185 
L 338.984856 258.926605 
L 343.31938 267.695291 
L 347.653903 275.628013 
L 351.988427 282.684562 
L 356.32295 288.940744 
L 360.657473 294.55111 
L 364.991997 299.728544 
L 390.999137 329.59018 
L 395.33366 334.088825 
L 412.671754 351.580753 
L 421.3408 360.555847 
L 425.675324 364.782011 
L 430.009847 368.716915 
L 434.34437 372.334758 
L 438.678894 375.622186 
L 443.013417 378.536758 
L 447.347941 380.997275 
L 449.515202 382.029314 
L 451.682464 382.919155 
L 453.849726 383.665722 
L 456.016987 384.274741 
L 460.351511 385.138627 
L 464.686034 385.685392 
L 473.355081 386.677883 
L 477.689604 387.404629 
L 484.191389 388.774332 
L 490.693174 390.149501 
L 495.027697 390.891876 
L 499.362221 391.438651 
L 503.696744 391.799256 
L 510.198529 392.080113 
L 518.867576 392.198082 
L 518.867576 392.198082 
" clip-path="url(#pc3eb065dae)" style="fill: none; stroke: #ff7f0e; stroke-width: 1.5; stroke-linecap: round"/>
   </g>
   <g id="line2d_17">
    <path d="M 104.733235 392.20503 
L 117.326835 392.036531 
L 123.623635 391.749561 
L 129.920435 391.193904 
L 134.118302 390.631059 
L 138.316168 389.90379 
L 144.612968 388.529388 
L 150.909768 386.865567 
L 155.107635 385.588978 
L 159.305502 384.120614 
L 163.503368 382.361814 
L 165.602302 381.332432 
L 167.701235 380.177585 
L 169.800168 378.876375 
L 171.899102 377.406524 
L 173.998035 375.744198 
L 176.096968 373.863705 
L 178.195902 371.737165 
L 180.294835 369.334301 
L 182.393768 366.622471 
L 184.492702 363.567066 
L 186.591635 360.132326 
L 188.690568 356.282533 
L 190.789502 351.983521 
L 192.888435 347.204308 
L 194.987368 341.918705 
L 197.086302 336.106676 
L 199.185235 329.755339 
L 201.284168 322.859498 
L 203.383102 315.421681 
L 205.482035 307.451749 
L 207.580968 298.966129 
L 211.778835 280.540247 
L 215.976702 260.366407 
L 220.174568 238.704084 
L 224.372435 215.829406 
L 230.669235 179.927708 
L 239.064968 131.658174 
L 243.262835 109.282223 
L 245.361768 99.093012 
L 247.460702 89.821798 
L 249.559635 81.656226 
L 251.658569 74.767244 
L 253.757502 69.295331 
L 255.856435 65.337902 
L 257.955369 62.939602 
L 260.054302 62.086948 
L 262.153235 62.708292 
L 264.252169 64.679324 
L 266.351102 67.833642 
L 268.450035 71.977116 
L 270.548969 76.904314 
L 272.647902 82.414932 
L 276.845769 94.493848 
L 287.340435 126.326629 
L 302.032969 170.862657 
L 306.230835 182.756328 
L 310.428702 193.868905 
L 314.626569 204.257925 
L 320.923369 219.020637 
L 329.319102 238.170942 
L 333.516969 247.438587 
L 337.714835 256.257165 
L 341.912702 264.488776 
L 346.110569 272.090116 
L 350.308435 279.060823 
L 354.506302 285.369389 
L 356.605235 288.25068 
L 358.704169 290.934747 
L 360.803102 293.414277 
L 362.902035 295.689331 
L 365.000969 297.76994 
L 369.198835 301.443596 
L 381.792435 311.498799 
L 385.990302 315.495947 
L 390.188169 319.971551 
L 394.386036 324.820565 
L 402.781769 335.028444 
L 409.078569 342.622724 
L 415.375369 349.859292 
L 419.573236 354.414678 
L 423.771102 358.726302 
L 427.968969 362.771251 
L 432.166836 366.521415 
L 436.364702 369.94727 
L 440.562569 373.027096 
L 444.760436 375.752477 
L 448.958302 378.125149 
L 453.156169 380.150321 
L 457.354036 381.836845 
L 461.551902 383.208544 
L 465.749769 384.318573 
L 472.046569 385.683707 
L 484.640169 388.326331 
L 493.035902 390.072388 
L 497.233769 390.778501 
L 501.431636 391.321148 
L 507.728436 391.837116 
L 514.025236 392.084313 
L 522.420969 392.19587 
L 522.420969 392.19587 
" clip-path="url(#pc3eb065dae)" style="fill: none; stroke: #2ca02c; stroke-width: 1.5; stroke-linecap: round"/>
   </g>
   <g id="line2d_18">
    <path d="M 116.343465 392.200555 
L 126.740717 392.057141 
L 132.979069 391.774384 
L 137.13797 391.4225 
L 141.296871 390.883378 
L 145.455772 390.112025 
L 149.614674 389.074417 
L 153.773575 387.74917 
L 157.932476 386.120174 
L 162.091377 384.16007 
L 166.250278 381.808774 
L 168.329729 380.453811 
L 170.409179 378.954311 
L 172.48863 377.286667 
L 174.56808 375.423754 
L 176.647531 373.335572 
L 178.726981 370.99017 
L 180.806432 368.354795 
L 182.885882 365.397183 
L 184.965333 362.086891 
L 187.044783 358.396538 
L 189.124234 354.302838 
L 191.203685 349.787307 
L 193.283135 344.836574 
L 195.362586 339.442279 
L 197.442036 333.600588 
L 199.521487 327.311437 
L 201.600937 320.577638 
L 203.680388 313.404026 
L 205.759838 305.796804 
L 209.91874 289.311649 
L 214.077641 271.197083 
L 218.236542 251.569629 
L 222.395443 230.621192 
L 228.633795 197.408299 
L 236.951597 152.368564 
L 241.110498 131.079317 
L 243.189948 121.127117 
L 245.269399 111.803709 
L 247.34885 103.237713 
L 249.4283 95.554007 
L 251.507751 88.86696 
L 253.587201 83.272984 
L 255.666652 78.843278 
L 257.746102 75.617716 
L 259.825553 73.600896 
L 261.905003 72.761116 
L 263.984454 73.032747 
L 266.063905 74.321938 
L 268.143355 76.51513 
L 270.222806 79.48932 
L 272.302256 83.12273 
L 274.381707 87.304399 
L 276.461157 91.941328 
L 278.540608 96.962186 
L 282.699509 107.973878 
L 286.85841 120.10944 
L 291.017311 133.177149 
L 301.414564 166.886251 
L 305.573465 179.051369 
L 307.652916 184.603716 
L 309.732366 189.79611 
L 313.891267 199.266431 
L 326.367971 225.935283 
L 330.526872 235.768114 
L 340.924124 261.012532 
L 345.083026 270.155978 
L 347.162476 274.346917 
L 349.241927 278.25533 
L 351.321377 281.870087 
L 353.400828 285.185996 
L 355.480278 288.20226 
L 357.559729 290.921688 
L 359.639179 293.35074 
L 361.71863 295.500237 
L 363.798081 297.386403 
L 365.877531 299.03184 
L 367.956982 300.466041 
L 370.036432 301.725198 
L 374.195333 303.889829 
L 380.433685 306.952184 
L 384.592586 309.373756 
L 386.672037 310.799499 
L 388.751487 312.399099 
L 390.830938 314.187739 
L 392.910388 316.174687 
L 394.989839 318.363393 
L 397.069289 320.751376 
L 401.22819 326.083592 
L 405.387092 332.020514 
L 417.863795 350.583514 
L 422.022696 355.951403 
L 424.102147 358.353868 
L 426.181597 360.558555 
L 428.261048 362.569318 
L 430.340498 364.397925 
L 434.499399 367.585131 
L 438.6583 370.303407 
L 442.817202 372.739331 
L 449.055553 376.141972 
L 455.293905 379.334058 
L 459.452806 381.2677 
L 463.611707 382.966598 
L 467.770608 384.396315 
L 471.929509 385.573169 
L 478.167861 386.997464 
L 488.565114 388.98697 
L 496.882916 390.373735 
L 503.121268 391.17244 
L 509.359619 391.705082 
L 515.597971 392.003374 
L 523.915773 392.16805 
L 530.154125 392.206674 
L 530.154125 392.206674 
" clip-path="url(#pc3eb065dae)" style="fill: none; stroke: #d62728; stroke-width: 1.5; stroke-linecap: round"/>
   </g>
   <g id="line2d_19">
    <path d="M 111.820758 392.208262 
L 124.461854 392.083146 
L 132.889252 391.761986 
L 139.2098 391.244044 
L 143.423499 390.695303 
L 147.637197 389.931375 
L 151.850896 388.904829 
L 156.064595 387.569965 
L 160.278294 385.884438 
L 164.491993 383.802983 
L 168.705691 381.258772 
L 170.812541 379.779524 
L 172.91939 378.135705 
L 175.026239 376.301243 
L 177.133089 374.245193 
L 179.239938 371.932434 
L 181.346788 369.324857 
L 183.453637 366.382907 
L 185.560486 363.067291 
L 187.667336 359.340618 
L 189.774185 355.168781 
L 191.881035 350.521944 
L 193.987884 345.375113 
L 196.094733 339.708377 
L 198.201583 333.507007 
L 200.308432 326.761625 
L 202.415282 319.468682 
L 204.522131 311.631347 
L 206.62898 303.260826 
L 210.842679 285.014664 
L 215.056378 265.036523 
L 219.270077 243.825049 
L 229.804324 189.69236 
L 234.018022 169.208133 
L 238.231721 150.069276 
L 242.44542 132.631414 
L 244.552269 124.676057 
L 246.659119 117.310235 
L 248.765968 110.601604 
L 250.872817 104.619504 
L 252.979667 99.429546 
L 255.086516 95.087442 
L 257.193366 91.633108 
L 259.300215 89.086053 
L 261.407064 87.442898 
L 263.513914 86.677503 
L 265.620763 86.743744 
L 267.727612 87.580515 
L 269.834462 89.11818 
L 271.941311 91.285415 
L 274.048161 94.015384 
L 276.15501 97.250295 
L 278.261859 100.943715 
L 280.368709 105.060404 
L 282.475558 109.573887 
L 284.582408 114.462334 
L 286.689257 119.703607 
L 290.902956 131.126493 
L 295.116654 143.505769 
L 305.650901 175.232135 
L 309.8646 186.960305 
L 314.078299 197.830708 
L 318.291998 207.983627 
L 324.612546 222.430022 
L 330.933094 236.425792 
L 335.146793 245.459577 
L 339.360492 254.082308 
L 343.57419 262.163139 
L 347.787889 269.643439 
L 352.001588 276.515451 
L 356.215287 282.770764 
L 360.428985 288.372673 
L 362.535835 290.913829 
L 364.642684 293.277411 
L 366.749534 295.465332 
L 368.856383 297.485081 
L 373.070082 301.079671 
L 377.283781 304.23161 
L 387.818027 311.684571 
L 392.031726 315.081129 
L 396.245425 318.96771 
L 400.459124 323.416018 
L 404.672823 328.39631 
L 408.886521 333.768537 
L 417.313919 344.744621 
L 421.527618 349.869216 
L 425.741316 354.557906 
L 429.955015 358.806091 
L 434.168714 362.69471 
L 440.489262 368.077842 
L 446.80981 373.062209 
L 451.023509 376.102531 
L 455.237208 378.808412 
L 459.450907 381.089325 
L 463.664605 382.899675 
L 467.878304 384.261079 
L 472.092003 385.26146 
L 478.412551 386.373143 
L 488.946798 388.126662 
L 501.587894 390.398749 
L 507.908442 391.240555 
L 514.228991 391.771085 
L 520.549539 392.046389 
L 531.083786 392.197302 
L 531.083786 392.197302 
" clip-path="url(#pc3eb065dae)" style="fill: none; stroke: #9467bd; stroke-width: 1.5; stroke-linecap: round"/>
   </g>
   <g id="line2d_20">
    <path d="M 104.902355 392.207643 
L 117.806657 392.075184 
L 126.409525 391.745779 
L 132.861676 391.256425 
L 139.313827 390.516485 
L 145.765978 389.552641 
L 152.218129 388.414522 
L 158.670279 387.041234 
L 162.971713 385.837578 
L 165.12243 385.081052 
L 167.273147 384.179324 
L 169.423864 383.095604 
L 171.574581 381.790153 
L 173.725298 380.22163 
L 175.876015 378.348605 
L 178.026732 376.131095 
L 180.177449 373.532002 
L 182.328166 370.518324 
L 184.478883 367.062017 
L 186.6296 363.140452 
L 188.780317 358.736456 
L 190.931034 353.837968 
L 193.081751 348.437427 
L 195.232468 342.53103 
L 197.383185 336.118037 
L 199.533902 329.200294 
L 201.684619 321.78212 
L 203.835336 313.870634 
L 205.986053 305.47654 
L 210.287487 287.30848 
L 214.588921 267.483489 
L 218.890354 246.344021 
L 233.945373 170.228541 
L 238.246807 150.814414 
L 240.397524 141.964253 
L 242.548241 133.801052 
L 244.698958 126.40194 
L 246.849675 119.832278 
L 249.000392 114.141817 
L 251.151109 109.360952 
L 253.301826 105.497649 
L 255.452543 102.535729 
L 257.60326 100.435048 
L 259.753977 99.133942 
L 261.904694 98.553976 
L 264.055411 98.606677 
L 266.206128 99.201573 
L 268.356845 100.254612 
L 270.507562 101.695878 
L 272.658279 103.4756 
L 274.808996 105.567609 
L 276.959712 107.969765 
L 279.110429 110.701267 
L 281.261146 113.797178 
L 283.411863 117.300891 
L 285.56258 121.255455 
L 287.713297 125.694882 
L 289.864014 130.636461 
L 292.014731 136.074994 
L 294.165448 141.979592 
L 298.466882 154.936061 
L 311.371184 195.847793 
L 313.521901 201.959211 
L 315.672618 207.715994 
L 317.823335 213.11013 
L 319.974052 218.152249 
L 322.124769 222.86663 
L 324.275486 227.285551 
L 328.57692 235.374346 
L 332.878354 242.656858 
L 337.179787 249.280486 
L 341.481221 255.319302 
L 345.782655 260.834352 
L 350.084089 265.921175 
L 356.53624 273.060693 
L 365.139108 282.50834 
L 371.591259 290.058335 
L 384.495561 305.713764 
L 388.796995 310.435767 
L 393.098429 314.730266 
L 406.00273 326.8979 
L 410.304164 331.523186 
L 414.605598 336.559177 
L 429.660617 354.810486 
L 433.962051 359.538271 
L 438.263485 363.941548 
L 442.564919 368.010925 
L 446.866353 371.71986 
L 451.167787 375.021259 
L 455.469221 377.86246 
L 459.770654 380.206422 
L 464.072088 382.050763 
L 468.373522 383.440515 
L 472.674956 384.47046 
L 479.127107 385.632058 
L 487.729975 387.120038 
L 507.086428 390.823698 
L 511.387862 391.351015 
L 517.840012 391.849614 
L 524.292163 392.08794 
L 532.895031 392.196078 
L 532.895031 392.196078 
" clip-path="url(#pc3eb065dae)" style="fill: none; stroke: #8c564b; stroke-width: 1.5; stroke-linecap: round"/>
   </g>
   <g id="line2d_21">
    <path d="M 101.027165 392.209471 
L 116.531517 392.060702 
L 125.391147 391.770707 
L 134.250777 391.256527 
L 143.110407 390.541355 
L 149.755129 389.848125 
L 154.184944 389.232224 
L 158.614759 388.378989 
L 160.829667 387.816435 
L 163.044574 387.130979 
L 165.259481 386.293784 
L 167.474389 385.272475 
L 169.689296 384.031506 
L 171.904204 382.532769 
L 174.119111 380.73644 
L 176.334019 378.602045 
L 178.548926 376.089671 
L 180.763834 373.161237 
L 182.978741 369.781715 
L 185.193649 365.920194 
L 187.408556 361.550691 
L 189.623464 356.652687 
L 191.838371 351.211363 
L 194.053278 345.217623 
L 196.268186 338.667968 
L 198.483093 331.564363 
L 200.698001 323.914196 
L 202.912908 315.73041 
L 205.127816 307.031829 
L 209.557631 288.198032 
L 213.987446 267.700516 
L 218.417261 245.948561 
L 231.706705 178.877349 
L 236.13652 158.234657 
L 238.351428 148.684328 
L 240.566335 139.795354 
L 242.781243 131.679053 
L 244.99615 124.442003 
L 247.211058 118.179673 
L 249.425965 112.969009 
L 251.640872 108.860892 
L 253.85578 105.873628 
L 256.070687 103.988701 
L 258.285595 103.149844 
L 260.500502 103.266052 
L 262.71541 104.218609 
L 264.930317 105.871507 
L 267.145225 108.084074 
L 269.360132 110.724155 
L 271.57504 113.680052 
L 276.004855 120.244834 
L 280.434669 127.529367 
L 282.649577 131.493542 
L 284.864484 135.734114 
L 287.079392 140.299167 
L 289.294299 145.224958 
L 291.509207 150.527298 
L 293.724114 156.196245 
L 298.153929 168.459759 
L 309.228466 200.621533 
L 311.443374 206.579516 
L 313.658281 212.2143 
L 315.873189 217.487229 
L 318.088096 222.375369 
L 320.303004 226.869017 
L 322.517911 230.968877 
L 324.732819 234.683533 
L 326.947726 238.027685 
L 329.162634 241.021337 
L 331.377541 243.689842 
L 333.592449 246.064465 
L 335.807356 248.182986 
L 338.022263 250.089859 
L 342.452078 253.474573 
L 349.096801 258.300783 
L 353.526616 261.89759 
L 357.956431 266.035026 
L 362.386246 270.713002 
L 366.816061 275.80775 
L 373.460783 283.882101 
L 384.53532 297.489548 
L 391.180043 305.280675 
L 397.824765 312.641914 
L 408.899302 324.735322 
L 413.329117 329.884491 
L 419.97384 338.018161 
L 428.833469 348.889194 
L 433.263284 353.958019 
L 437.693099 358.666884 
L 442.122914 363.03079 
L 446.552729 367.10074 
L 450.982544 370.906859 
L 455.412359 374.423676 
L 459.842174 377.575368 
L 464.271989 380.273833 
L 466.486896 381.43394 
L 468.701804 382.46527 
L 473.131619 384.160246 
L 477.561434 385.434996 
L 481.991249 386.4077 
L 488.635971 387.568011 
L 506.355231 390.302288 
L 512.999953 391.10827 
L 519.644675 391.664232 
L 526.289398 391.983469 
L 535.149028 392.162786 
L 541.79375 392.205185 
L 541.79375 392.205185 
" clip-path="url(#pc3eb065dae)" style="fill: none; stroke: #e377c2; stroke-width: 1.5; stroke-linecap: round"/>
   </g>
   <g id="patch_3">
    <path d="M 50.2625 392.2225 
L 50.2625 10.8 
" style="fill: none; stroke: #ffffff; stroke-width: 0.8; stroke-linejoin: miter; stroke-linecap: square"/>
   </g>
   <g id="patch_4">
    <path d="M 565.2 392.2225 
L 565.2 10.8 
" style="fill: none; stroke: #ffffff; stroke-width: 0.8; stroke-linejoin: miter; stroke-linecap: square"/>
   </g>
   <g id="patch_5">
    <path d="M 50.2625 392.2225 
L 565.2 392.2225 
" style="fill: none; stroke: #ffffff; stroke-width: 0.8; stroke-linejoin: miter; stroke-linecap: square"/>
   </g>
   <g id="patch_6">
    <path d="M 50.2625 10.8 
L 565.2 10.8 
" style="fill: none; stroke: #ffffff; stroke-width: 0.8; stroke-linejoin: miter; stroke-linecap: square"/>
   </g>
   <g id="legend_1">
    <g id="patch_7">
     <path d="M 500.078125 118.75625 
L 558.2 118.75625 
Q 560.2 118.75625 560.2 116.75625 
L 560.2 17.8 
Q 560.2 15.8 558.2 15.8 
L 500.078125 15.8 
Q 498.078125 15.8 498.078125 17.8 
L 498.078125 116.75625 
Q 498.078125 118.75625 500.078125 118.75625 
z
" style="fill: #eaeaf2; opacity: 0.8; stroke: #cccccc; stroke-linejoin: miter"/>
    </g>
    <g id="line2d_22">
     <path d="M 502.078125 23.4875 
L 512.078125 23.4875 
L 522.078125 23.4875 
" style="fill: none; stroke: #1f77b4; stroke-width: 1.5; stroke-linecap: round"/>
    </g>
    <g id="text_17">
     <!-- Day 1 -->
     <g style="fill: #262626" transform="translate(530.078125 26.9875) scale(0.1 -0.1)">
      <use xlink:href="#ArialMT-44"/>
      <use xlink:href="#ArialMT-61" x="72.216797"/>
      <use xlink:href="#ArialMT-79" x="127.832031"/>
      <use xlink:href="#ArialMT-20" x="177.832031"/>
      <use xlink:href="#ArialMT-31" x="205.615234"/>
     </g>
    </g>
    <g id="line2d_23">
     <path d="M 502.078125 37.779688 
L 512.078125 37.779688 
L 522.078125 37.779688 
" style="fill: none; stroke: #ff7f0e; stroke-width: 1.5; stroke-linecap: round"/>
    </g>
    <g id="text_18">
     <!-- Day 2 -->
     <g style="fill: #262626" transform="translate(530.078125 41.279688) scale(0.1 -0.1)">
      <use xlink:href="#ArialMT-44"/>
      <use xlink:href="#ArialMT-61" x="72.216797"/>
      <use xlink:href="#ArialMT-79" x="127.832031"/>
      <use xlink:href="#ArialMT-20" x="177.832031"/>
      <use xlink:href="#ArialMT-32" x="205.615234"/>
     </g>
    </g>
    <g id="line2d_24">
     <path d="M 502.078125 52.071875 
L 512.078125 52.071875 
L 522.078125 52.071875 
" style="fill: none; stroke: #2ca02c; stroke-width: 1.5; stroke-linecap: round"/>
    </g>
    <g id="text_19">
     <!-- Day 3 -->
     <g style="fill: #262626" transform="translate(530.078125 55.571875) scale(0.1 -0.1)">
      <defs>
       <path id="ArialMT-33" d="M 269 1209 
L 831 1284 
Q 928 806 1161 595 
Q 1394 384 1728 384 
Q 2125 384 2398 659 
Q 2672 934 2672 1341 
Q 2672 1728 2419 1979 
Q 2166 2231 1775 2231 
Q 1616 2231 1378 2169 
L 1441 2663 
Q 1497 2656 1531 2656 
Q 1891 2656 2178 2843 
Q 2466 3031 2466 3422 
Q 2466 3731 2256 3934 
Q 2047 4138 1716 4138 
Q 1388 4138 1169 3931 
Q 950 3725 888 3313 
L 325 3413 
Q 428 3978 793 4289 
Q 1159 4600 1703 4600 
Q 2078 4600 2393 4439 
Q 2709 4278 2876 4000 
Q 3044 3722 3044 3409 
Q 3044 3113 2884 2869 
Q 2725 2625 2413 2481 
Q 2819 2388 3044 2092 
Q 3269 1797 3269 1353 
Q 3269 753 2831 336 
Q 2394 -81 1725 -81 
Q 1122 -81 723 278 
Q 325 638 269 1209 
z
" transform="scale(0.015625)"/>
      </defs>
      <use xlink:href="#ArialMT-44"/>
      <use xlink:href="#ArialMT-61" x="72.216797"/>
      <use xlink:href="#ArialMT-79" x="127.832031"/>
      <use xlink:href="#ArialMT-20" x="177.832031"/>
      <use xlink:href="#ArialMT-33" x="205.615234"/>
     </g>
    </g>
    <g id="line2d_25">
     <path d="M 502.078125 66.334375 
L 512.078125 66.334375 
L 522.078125 66.334375 
" style="fill: none; stroke: #d62728; stroke-width: 1.5; stroke-linecap: round"/>
    </g>
    <g id="text_20">
     <!-- Day 4 -->
     <g style="fill: #262626" transform="translate(530.078125 69.834375) scale(0.1 -0.1)">
      <use xlink:href="#ArialMT-44"/>
      <use xlink:href="#ArialMT-61" x="72.216797"/>
      <use xlink:href="#ArialMT-79" x="127.832031"/>
      <use xlink:href="#ArialMT-20" x="177.832031"/>
      <use xlink:href="#ArialMT-34" x="205.615234"/>
     </g>
    </g>
    <g id="line2d_26">
     <path d="M 502.078125 80.596875 
L 512.078125 80.596875 
L 522.078125 80.596875 
" style="fill: none; stroke: #9467bd; stroke-width: 1.5; stroke-linecap: round"/>
    </g>
    <g id="text_21">
     <!-- Day 5 -->
     <g style="fill: #262626" transform="translate(530.078125 84.096875) scale(0.1 -0.1)">
      <use xlink:href="#ArialMT-44"/>
      <use xlink:href="#ArialMT-61" x="72.216797"/>
      <use xlink:href="#ArialMT-79" x="127.832031"/>
      <use xlink:href="#ArialMT-20" x="177.832031"/>
      <use xlink:href="#ArialMT-35" x="205.615234"/>
     </g>
    </g>
    <g id="line2d_27">
     <path d="M 502.078125 94.889063 
L 512.078125 94.889063 
L 522.078125 94.889063 
" style="fill: none; stroke: #8c564b; stroke-width: 1.5; stroke-linecap: round"/>
    </g>
    <g id="text_22">
     <!-- Day 6 -->
     <g style="fill: #262626" transform="translate(530.078125 98.389063) scale(0.1 -0.1)">
      <use xlink:href="#ArialMT-44"/>
      <use xlink:href="#ArialMT-61" x="72.216797"/>
      <use xlink:href="#ArialMT-79" x="127.832031"/>
      <use xlink:href="#ArialMT-20" x="177.832031"/>
      <use xlink:href="#ArialMT-36" x="205.615234"/>
     </g>
    </g>
    <g id="line2d_28">
     <path d="M 502.078125 109.151563 
L 512.078125 109.151563 
L 522.078125 109.151563 
" style="fill: none; stroke: #e377c2; stroke-width: 1.5; stroke-linecap: round"/>
    </g>
    <g id="text_23">
     <!-- Day 7 -->
     <g style="fill: #262626" transform="translate(530.078125 112.651563) scale(0.1 -0.1)">
      <defs>
       <path id="ArialMT-37" d="M 303 3981 
L 303 4522 
L 3269 4522 
L 3269 4084 
Q 2831 3619 2401 2847 
Q 1972 2075 1738 1259 
Q 1569 684 1522 0 
L 944 0 
Q 953 541 1156 1306 
Q 1359 2072 1739 2783 
Q 2119 3494 2547 3981 
L 303 3981 
z
" transform="scale(0.015625)"/>
      </defs>
      <use xlink:href="#ArialMT-44"/>
      <use xlink:href="#ArialMT-61" x="72.216797"/>
      <use xlink:href="#ArialMT-79" x="127.832031"/>
      <use xlink:href="#ArialMT-20" x="177.832031"/>
      <use xlink:href="#ArialMT-37" x="205.615234"/>
     </g>
    </g>
   </g>
  </g>
 </g>
 <defs>
  <clipPath id="pc3eb065dae">
   <rect x="50.2625" y="10.8" width="514.9375" height="381.4225"/>
  </clipPath>
 </defs>
</svg>
