<?xml version="1.0" encoding="utf-8" standalone="no"?>
<!DOCTYPE svg PUBLIC "-//W3C//DTD SVG 1.1//EN"
  "http://www.w3.org/Graphics/SVG/1.1/DTD/svg11.dtd">
<svg xmlns:xlink="http://www.w3.org/1999/xlink" width="576pt" height="432pt" viewBox="0 0 576 432" xmlns="http://www.w3.org/2000/svg" version="1.1">
 <metadata>
  <rdf:RDF xmlns:dc="http://purl.org/dc/elements/1.1/" xmlns:cc="http://creativecommons.org/ns#" xmlns:rdf="http://www.w3.org/1999/02/22-rdf-syntax-ns#">
   <cc:Work>
    <dc:type rdf:resource="http://purl.org/dc/dcmitype/StillImage"/>
    <dc:date>2023-11-17T05:04:40.931099</dc:date>
    <dc:format>image/svg+xml</dc:format>
    <dc:creator>
     <cc:Agent>
      <dc:title>Matplotlib v3.8.0, https://matplotlib.org/</dc:title>
     </cc:Agent>
    </dc:creator>
   </cc:Work>
  </rdf:RDF>
 </metadata>
 <defs>
  <style type="text/css">*{stroke-linejoin: round; stroke-linecap: butt}</style>
 </defs>
 <g id="figure_1">
  <g id="patch_1">
   <path d="M 0 432 
L 576 432 
L 576 0 
L 0 0 
z
" style="fill: #ffffff"/>
  </g>
  <g id="axes_1">
   <g id="patch_2">
    <path d="M 55.8425 392.6275 
L 565.2 392.6275 
L 565.2 14.026706 
L 55.8425 14.026706 
z
" style="fill: #eaeaf2"/>
   </g>
   <g id="matplotlib.axis_1">
    <g id="xtick_1">
     <g id="line2d_1">
      <path d="M 93.426913 392.6275 
L 93.426913 14.026706 
" clip-path="url(#pc66d9c3647)" style="fill: none; stroke: #ffffff; stroke-width: 0.8; stroke-linecap: round"/>
     </g>
     <g id="text_1">
      <!-- −15 -->
      <g style="fill: #262626" transform="translate(84.945663 406.785312) scale(0.1 -0.1)">
       <defs>
        <path id="ArialMT-2212" d="M 3381 1997 
L 356 1997 
L 356 2522 
L 3381 2522 
L 3381 1997 
z
" transform="scale(0.015625)"/>
        <path id="ArialMT-31" d="M 2384 0 
L 1822 0 
L 1822 3584 
Q 1619 3391 1289 3197 
Q 959 3003 697 2906 
L 697 3450 
Q 1169 3672 1522 3987 
Q 1875 4303 2022 4600 
L 2384 4600 
L 2384 0 
z
" transform="scale(0.015625)"/>
        <path id="ArialMT-35" d="M 266 1200 
L 856 1250 
Q 922 819 1161 601 
Q 1400 384 1738 384 
Q 2144 384 2425 690 
Q 2706 997 2706 1503 
Q 2706 1984 2436 2262 
Q 2166 2541 1728 2541 
Q 1456 2541 1237 2417 
Q 1019 2294 894 2097 
L 366 2166 
L 809 4519 
L 3088 4519 
L 3088 3981 
L 1259 3981 
L 1013 2750 
Q 1425 3038 1878 3038 
Q 2478 3038 2890 2622 
Q 3303 2206 3303 1553 
Q 3303 931 2941 478 
Q 2500 -78 1738 -78 
Q 1113 -78 717 272 
Q 322 622 266 1200 
z
" transform="scale(0.015625)"/>
       </defs>
       <use xlink:href="#ArialMT-2212"/>
       <use xlink:href="#ArialMT-31" x="58.398438"/>
       <use xlink:href="#ArialMT-35" x="114.013672"/>
      </g>
     </g>
    </g>
    <g id="xtick_2">
     <g id="line2d_2">
      <path d="M 182.101243 392.6275 
L 182.101243 14.026706 
" clip-path="url(#pc66d9c3647)" style="fill: none; stroke: #ffffff; stroke-width: 0.8; stroke-linecap: round"/>
     </g>
     <g id="text_2">
      <!-- −10 -->
      <g style="fill: #262626" transform="translate(173.619993 406.785312) scale(0.1 -0.1)">
       <defs>
        <path id="ArialMT-30" d="M 266 2259 
Q 266 3072 433 3567 
Q 600 4063 929 4331 
Q 1259 4600 1759 4600 
Q 2128 4600 2406 4451 
Q 2684 4303 2865 4023 
Q 3047 3744 3150 3342 
Q 3253 2941 3253 2259 
Q 3253 1453 3087 958 
Q 2922 463 2592 192 
Q 2263 -78 1759 -78 
Q 1097 -78 719 397 
Q 266 969 266 2259 
z
M 844 2259 
Q 844 1131 1108 757 
Q 1372 384 1759 384 
Q 2147 384 2411 759 
Q 2675 1134 2675 2259 
Q 2675 3391 2411 3762 
Q 2147 4134 1753 4134 
Q 1366 4134 1134 3806 
Q 844 3388 844 2259 
z
" transform="scale(0.015625)"/>
       </defs>
       <use xlink:href="#ArialMT-2212"/>
       <use xlink:href="#ArialMT-31" x="58.398438"/>
       <use xlink:href="#ArialMT-30" x="114.013672"/>
      </g>
     </g>
    </g>
    <g id="xtick_3">
     <g id="line2d_3">
      <path d="M 270.775573 392.6275 
L 270.775573 14.026706 
" clip-path="url(#pc66d9c3647)" style="fill: none; stroke: #ffffff; stroke-width: 0.8; stroke-linecap: round"/>
     </g>
     <g id="text_3">
      <!-- −5 -->
      <g style="fill: #262626" transform="translate(265.074792 406.785312) scale(0.1 -0.1)">
       <use xlink:href="#ArialMT-2212"/>
       <use xlink:href="#ArialMT-35" x="58.398438"/>
      </g>
     </g>
    </g>
    <g id="xtick_4">
     <g id="line2d_4">
      <path d="M 359.449903 392.6275 
L 359.449903 14.026706 
" clip-path="url(#pc66d9c3647)" style="fill: none; stroke: #ffffff; stroke-width: 0.8; stroke-linecap: round"/>
     </g>
     <g id="text_4">
      <!-- 0 -->
      <g style="fill: #262626" transform="translate(356.669434 406.785312) scale(0.1 -0.1)">
       <use xlink:href="#ArialMT-30"/>
      </g>
     </g>
    </g>
    <g id="xtick_5">
     <g id="line2d_5">
      <path d="M 448.124233 392.6275 
L 448.124233 14.026706 
" clip-path="url(#pc66d9c3647)" style="fill: none; stroke: #ffffff; stroke-width: 0.8; stroke-linecap: round"/>
     </g>
     <g id="text_5">
      <!-- 5 -->
      <g style="fill: #262626" transform="translate(445.343765 406.785312) scale(0.1 -0.1)">
       <use xlink:href="#ArialMT-35"/>
      </g>
     </g>
    </g>
    <g id="xtick_6">
     <g id="line2d_6">
      <path d="M 536.798563 392.6275 
L 536.798563 14.026706 
" clip-path="url(#pc66d9c3647)" style="fill: none; stroke: #ffffff; stroke-width: 0.8; stroke-linecap: round"/>
     </g>
     <g id="text_6">
      <!-- 10 -->
      <g style="fill: #262626" transform="translate(531.237626 406.785312) scale(0.1 -0.1)">
       <use xlink:href="#ArialMT-31"/>
       <use xlink:href="#ArialMT-30" x="55.615234"/>
      </g>
     </g>
    </g>
    <g id="text_7">
     <!-- Average Wind Speed Predictive Error (m/s) -->
     <g style="fill: #262626" transform="translate(214.747031 420.0525) scale(0.1 -0.1)">
      <defs>
       <path id="ArialMT-41" d="M -9 0 
L 1750 4581 
L 2403 4581 
L 4278 0 
L 3588 0 
L 3053 1388 
L 1138 1388 
L 634 0 
L -9 0 
z
M 1313 1881 
L 2866 1881 
L 2388 3150 
Q 2169 3728 2063 4100 
Q 1975 3659 1816 3225 
L 1313 1881 
z
" transform="scale(0.015625)"/>
       <path id="ArialMT-76" d="M 1344 0 
L 81 3319 
L 675 3319 
L 1388 1331 
Q 1503 1009 1600 663 
Q 1675 925 1809 1294 
L 2547 3319 
L 3125 3319 
L 1869 0 
L 1344 0 
z
" transform="scale(0.015625)"/>
       <path id="ArialMT-65" d="M 2694 1069 
L 3275 997 
Q 3138 488 2766 206 
Q 2394 -75 1816 -75 
Q 1088 -75 661 373 
Q 234 822 234 1631 
Q 234 2469 665 2931 
Q 1097 3394 1784 3394 
Q 2450 3394 2872 2941 
Q 3294 2488 3294 1666 
Q 3294 1616 3291 1516 
L 816 1516 
Q 847 969 1125 678 
Q 1403 388 1819 388 
Q 2128 388 2347 550 
Q 2566 713 2694 1069 
z
M 847 1978 
L 2700 1978 
Q 2663 2397 2488 2606 
Q 2219 2931 1791 2931 
Q 1403 2931 1139 2672 
Q 875 2413 847 1978 
z
" transform="scale(0.015625)"/>
       <path id="ArialMT-72" d="M 416 0 
L 416 3319 
L 922 3319 
L 922 2816 
Q 1116 3169 1280 3281 
Q 1444 3394 1641 3394 
Q 1925 3394 2219 3213 
L 2025 2691 
Q 1819 2813 1613 2813 
Q 1428 2813 1281 2702 
Q 1134 2591 1072 2394 
Q 978 2094 978 1738 
L 978 0 
L 416 0 
z
" transform="scale(0.015625)"/>
       <path id="ArialMT-61" d="M 2588 409 
Q 2275 144 1986 34 
Q 1697 -75 1366 -75 
Q 819 -75 525 192 
Q 231 459 231 875 
Q 231 1119 342 1320 
Q 453 1522 633 1644 
Q 813 1766 1038 1828 
Q 1203 1872 1538 1913 
Q 2219 1994 2541 2106 
Q 2544 2222 2544 2253 
Q 2544 2597 2384 2738 
Q 2169 2928 1744 2928 
Q 1347 2928 1158 2789 
Q 969 2650 878 2297 
L 328 2372 
Q 403 2725 575 2942 
Q 747 3159 1072 3276 
Q 1397 3394 1825 3394 
Q 2250 3394 2515 3294 
Q 2781 3194 2906 3042 
Q 3031 2891 3081 2659 
Q 3109 2516 3109 2141 
L 3109 1391 
Q 3109 606 3145 398 
Q 3181 191 3288 0 
L 2700 0 
Q 2613 175 2588 409 
z
M 2541 1666 
Q 2234 1541 1622 1453 
Q 1275 1403 1131 1340 
Q 988 1278 909 1158 
Q 831 1038 831 891 
Q 831 666 1001 516 
Q 1172 366 1500 366 
Q 1825 366 2078 508 
Q 2331 650 2450 897 
Q 2541 1088 2541 1459 
L 2541 1666 
z
" transform="scale(0.015625)"/>
       <path id="ArialMT-67" d="M 319 -275 
L 866 -356 
Q 900 -609 1056 -725 
Q 1266 -881 1628 -881 
Q 2019 -881 2231 -725 
Q 2444 -569 2519 -288 
Q 2563 -116 2559 434 
Q 2191 0 1641 0 
Q 956 0 581 494 
Q 206 988 206 1678 
Q 206 2153 378 2554 
Q 550 2956 876 3175 
Q 1203 3394 1644 3394 
Q 2231 3394 2613 2919 
L 2613 3319 
L 3131 3319 
L 3131 450 
Q 3131 -325 2973 -648 
Q 2816 -972 2473 -1159 
Q 2131 -1347 1631 -1347 
Q 1038 -1347 672 -1080 
Q 306 -813 319 -275 
z
M 784 1719 
Q 784 1066 1043 766 
Q 1303 466 1694 466 
Q 2081 466 2343 764 
Q 2606 1063 2606 1700 
Q 2606 2309 2336 2618 
Q 2066 2928 1684 2928 
Q 1309 2928 1046 2623 
Q 784 2319 784 1719 
z
" transform="scale(0.015625)"/>
       <path id="ArialMT-20" transform="scale(0.015625)"/>
       <path id="ArialMT-57" d="M 1294 0 
L 78 4581 
L 700 4581 
L 1397 1578 
Q 1509 1106 1591 641 
Q 1766 1375 1797 1488 
L 2669 4581 
L 3400 4581 
L 4056 2263 
Q 4303 1400 4413 641 
Q 4500 1075 4641 1638 
L 5359 4581 
L 5969 4581 
L 4713 0 
L 4128 0 
L 3163 3491 
Q 3041 3928 3019 4028 
Q 2947 3713 2884 3491 
L 1913 0 
L 1294 0 
z
" transform="scale(0.015625)"/>
       <path id="ArialMT-69" d="M 425 3934 
L 425 4581 
L 988 4581 
L 988 3934 
L 425 3934 
z
M 425 0 
L 425 3319 
L 988 3319 
L 988 0 
L 425 0 
z
" transform="scale(0.015625)"/>
       <path id="ArialMT-6e" d="M 422 0 
L 422 3319 
L 928 3319 
L 928 2847 
Q 1294 3394 1984 3394 
Q 2284 3394 2536 3286 
Q 2788 3178 2913 3003 
Q 3038 2828 3088 2588 
Q 3119 2431 3119 2041 
L 3119 0 
L 2556 0 
L 2556 2019 
Q 2556 2363 2490 2533 
Q 2425 2703 2258 2804 
Q 2091 2906 1866 2906 
Q 1506 2906 1245 2678 
Q 984 2450 984 1813 
L 984 0 
L 422 0 
z
" transform="scale(0.015625)"/>
       <path id="ArialMT-64" d="M 2575 0 
L 2575 419 
Q 2259 -75 1647 -75 
Q 1250 -75 917 144 
Q 584 363 401 755 
Q 219 1147 219 1656 
Q 219 2153 384 2558 
Q 550 2963 881 3178 
Q 1213 3394 1622 3394 
Q 1922 3394 2156 3267 
Q 2391 3141 2538 2938 
L 2538 4581 
L 3097 4581 
L 3097 0 
L 2575 0 
z
M 797 1656 
Q 797 1019 1065 703 
Q 1334 388 1700 388 
Q 2069 388 2326 689 
Q 2584 991 2584 1609 
Q 2584 2291 2321 2609 
Q 2059 2928 1675 2928 
Q 1300 2928 1048 2622 
Q 797 2316 797 1656 
z
" transform="scale(0.015625)"/>
       <path id="ArialMT-53" d="M 288 1472 
L 859 1522 
Q 900 1178 1048 958 
Q 1197 738 1509 602 
Q 1822 466 2213 466 
Q 2559 466 2825 569 
Q 3091 672 3220 851 
Q 3350 1031 3350 1244 
Q 3350 1459 3225 1620 
Q 3100 1781 2813 1891 
Q 2628 1963 1997 2114 
Q 1366 2266 1113 2400 
Q 784 2572 623 2826 
Q 463 3081 463 3397 
Q 463 3744 659 4045 
Q 856 4347 1234 4503 
Q 1613 4659 2075 4659 
Q 2584 4659 2973 4495 
Q 3363 4331 3572 4012 
Q 3781 3694 3797 3291 
L 3216 3247 
Q 3169 3681 2898 3903 
Q 2628 4125 2100 4125 
Q 1550 4125 1298 3923 
Q 1047 3722 1047 3438 
Q 1047 3191 1225 3031 
Q 1400 2872 2139 2705 
Q 2878 2538 3153 2413 
Q 3553 2228 3743 1945 
Q 3934 1663 3934 1294 
Q 3934 928 3725 604 
Q 3516 281 3123 101 
Q 2731 -78 2241 -78 
Q 1619 -78 1198 103 
Q 778 284 539 648 
Q 300 1013 288 1472 
z
" transform="scale(0.015625)"/>
       <path id="ArialMT-70" d="M 422 -1272 
L 422 3319 
L 934 3319 
L 934 2888 
Q 1116 3141 1344 3267 
Q 1572 3394 1897 3394 
Q 2322 3394 2647 3175 
Q 2972 2956 3137 2557 
Q 3303 2159 3303 1684 
Q 3303 1175 3120 767 
Q 2938 359 2589 142 
Q 2241 -75 1856 -75 
Q 1575 -75 1351 44 
Q 1128 163 984 344 
L 984 -1272 
L 422 -1272 
z
M 931 1641 
Q 931 1000 1190 694 
Q 1450 388 1819 388 
Q 2194 388 2461 705 
Q 2728 1022 2728 1688 
Q 2728 2322 2467 2637 
Q 2206 2953 1844 2953 
Q 1484 2953 1207 2617 
Q 931 2281 931 1641 
z
" transform="scale(0.015625)"/>
       <path id="ArialMT-50" d="M 494 0 
L 494 4581 
L 2222 4581 
Q 2678 4581 2919 4538 
Q 3256 4481 3484 4323 
Q 3713 4166 3852 3881 
Q 3991 3597 3991 3256 
Q 3991 2672 3619 2267 
Q 3247 1863 2275 1863 
L 1100 1863 
L 1100 0 
L 494 0 
z
M 1100 2403 
L 2284 2403 
Q 2872 2403 3119 2622 
Q 3366 2841 3366 3238 
Q 3366 3525 3220 3729 
Q 3075 3934 2838 4000 
Q 2684 4041 2272 4041 
L 1100 4041 
L 1100 2403 
z
" transform="scale(0.015625)"/>
       <path id="ArialMT-63" d="M 2588 1216 
L 3141 1144 
Q 3050 572 2676 248 
Q 2303 -75 1759 -75 
Q 1078 -75 664 370 
Q 250 816 250 1647 
Q 250 2184 428 2587 
Q 606 2991 970 3192 
Q 1334 3394 1763 3394 
Q 2303 3394 2647 3120 
Q 2991 2847 3088 2344 
L 2541 2259 
Q 2463 2594 2264 2762 
Q 2066 2931 1784 2931 
Q 1359 2931 1093 2626 
Q 828 2322 828 1663 
Q 828 994 1084 691 
Q 1341 388 1753 388 
Q 2084 388 2306 591 
Q 2528 794 2588 1216 
z
" transform="scale(0.015625)"/>
       <path id="ArialMT-74" d="M 1650 503 
L 1731 6 
Q 1494 -44 1306 -44 
Q 1000 -44 831 53 
Q 663 150 594 308 
Q 525 466 525 972 
L 525 2881 
L 113 2881 
L 113 3319 
L 525 3319 
L 525 4141 
L 1084 4478 
L 1084 3319 
L 1650 3319 
L 1650 2881 
L 1084 2881 
L 1084 941 
Q 1084 700 1114 631 
Q 1144 563 1211 522 
Q 1278 481 1403 481 
Q 1497 481 1650 503 
z
" transform="scale(0.015625)"/>
       <path id="ArialMT-45" d="M 506 0 
L 506 4581 
L 3819 4581 
L 3819 4041 
L 1113 4041 
L 1113 2638 
L 3647 2638 
L 3647 2100 
L 1113 2100 
L 1113 541 
L 3925 541 
L 3925 0 
L 506 0 
z
" transform="scale(0.015625)"/>
       <path id="ArialMT-6f" d="M 213 1659 
Q 213 2581 725 3025 
Q 1153 3394 1769 3394 
Q 2453 3394 2887 2945 
Q 3322 2497 3322 1706 
Q 3322 1066 3130 698 
Q 2938 331 2570 128 
Q 2203 -75 1769 -75 
Q 1072 -75 642 372 
Q 213 819 213 1659 
z
M 791 1659 
Q 791 1022 1069 705 
Q 1347 388 1769 388 
Q 2188 388 2466 706 
Q 2744 1025 2744 1678 
Q 2744 2294 2464 2611 
Q 2184 2928 1769 2928 
Q 1347 2928 1069 2612 
Q 791 2297 791 1659 
z
" transform="scale(0.015625)"/>
       <path id="ArialMT-28" d="M 1497 -1347 
Q 1031 -759 709 28 
Q 388 816 388 1659 
Q 388 2403 628 3084 
Q 909 3875 1497 4659 
L 1900 4659 
Q 1522 4009 1400 3731 
Q 1209 3300 1100 2831 
Q 966 2247 966 1656 
Q 966 153 1900 -1347 
L 1497 -1347 
z
" transform="scale(0.015625)"/>
       <path id="ArialMT-6d" d="M 422 0 
L 422 3319 
L 925 3319 
L 925 2853 
Q 1081 3097 1340 3245 
Q 1600 3394 1931 3394 
Q 2300 3394 2536 3241 
Q 2772 3088 2869 2813 
Q 3263 3394 3894 3394 
Q 4388 3394 4653 3120 
Q 4919 2847 4919 2278 
L 4919 0 
L 4359 0 
L 4359 2091 
Q 4359 2428 4304 2576 
Q 4250 2725 4106 2815 
Q 3963 2906 3769 2906 
Q 3419 2906 3187 2673 
Q 2956 2441 2956 1928 
L 2956 0 
L 2394 0 
L 2394 2156 
Q 2394 2531 2256 2718 
Q 2119 2906 1806 2906 
Q 1569 2906 1367 2781 
Q 1166 2656 1075 2415 
Q 984 2175 984 1722 
L 984 0 
L 422 0 
z
" transform="scale(0.015625)"/>
       <path id="ArialMT-2f" d="M 0 -78 
L 1328 4659 
L 1778 4659 
L 453 -78 
L 0 -78 
z
" transform="scale(0.015625)"/>
       <path id="ArialMT-73" d="M 197 991 
L 753 1078 
Q 800 744 1014 566 
Q 1228 388 1613 388 
Q 2000 388 2187 545 
Q 2375 703 2375 916 
Q 2375 1106 2209 1216 
Q 2094 1291 1634 1406 
Q 1016 1563 777 1677 
Q 538 1791 414 1992 
Q 291 2194 291 2438 
Q 291 2659 392 2848 
Q 494 3038 669 3163 
Q 800 3259 1026 3326 
Q 1253 3394 1513 3394 
Q 1903 3394 2198 3281 
Q 2494 3169 2634 2976 
Q 2775 2784 2828 2463 
L 2278 2388 
Q 2241 2644 2061 2787 
Q 1881 2931 1553 2931 
Q 1166 2931 1000 2803 
Q 834 2675 834 2503 
Q 834 2394 903 2306 
Q 972 2216 1119 2156 
Q 1203 2125 1616 2013 
Q 2213 1853 2448 1751 
Q 2684 1650 2818 1456 
Q 2953 1263 2953 975 
Q 2953 694 2789 445 
Q 2625 197 2315 61 
Q 2006 -75 1616 -75 
Q 969 -75 630 194 
Q 291 463 197 991 
z
" transform="scale(0.015625)"/>
       <path id="ArialMT-29" d="M 791 -1347 
L 388 -1347 
Q 1322 153 1322 1656 
Q 1322 2244 1188 2822 
Q 1081 3291 891 3722 
Q 769 4003 388 4659 
L 791 4659 
Q 1378 3875 1659 3084 
Q 1900 2403 1900 1659 
Q 1900 816 1576 28 
Q 1253 -759 791 -1347 
z
" transform="scale(0.015625)"/>
      </defs>
      <use xlink:href="#ArialMT-41"/>
      <use xlink:href="#ArialMT-76" x="64.949219"/>
      <use xlink:href="#ArialMT-65" x="114.949219"/>
      <use xlink:href="#ArialMT-72" x="170.564453"/>
      <use xlink:href="#ArialMT-61" x="203.865234"/>
      <use xlink:href="#ArialMT-67" x="259.480469"/>
      <use xlink:href="#ArialMT-65" x="315.095703"/>
      <use xlink:href="#ArialMT-20" x="370.710938"/>
      <use xlink:href="#ArialMT-57" x="398.494141"/>
      <use xlink:href="#ArialMT-69" x="492.878906"/>
      <use xlink:href="#ArialMT-6e" x="515.095703"/>
      <use xlink:href="#ArialMT-64" x="570.710938"/>
      <use xlink:href="#ArialMT-20" x="626.326172"/>
      <use xlink:href="#ArialMT-53" x="654.109375"/>
      <use xlink:href="#ArialMT-70" x="720.808594"/>
      <use xlink:href="#ArialMT-65" x="776.423828"/>
      <use xlink:href="#ArialMT-65" x="832.039062"/>
      <use xlink:href="#ArialMT-64" x="887.654297"/>
      <use xlink:href="#ArialMT-20" x="943.269531"/>
      <use xlink:href="#ArialMT-50" x="971.052734"/>
      <use xlink:href="#ArialMT-72" x="1037.751953"/>
      <use xlink:href="#ArialMT-65" x="1071.052734"/>
      <use xlink:href="#ArialMT-64" x="1126.667969"/>
      <use xlink:href="#ArialMT-69" x="1182.283203"/>
      <use xlink:href="#ArialMT-63" x="1204.5"/>
      <use xlink:href="#ArialMT-74" x="1254.5"/>
      <use xlink:href="#ArialMT-69" x="1282.283203"/>
      <use xlink:href="#ArialMT-76" x="1304.5"/>
      <use xlink:href="#ArialMT-65" x="1354.5"/>
      <use xlink:href="#ArialMT-20" x="1410.115234"/>
      <use xlink:href="#ArialMT-45" x="1437.898438"/>
      <use xlink:href="#ArialMT-72" x="1504.597656"/>
      <use xlink:href="#ArialMT-72" x="1537.898438"/>
      <use xlink:href="#ArialMT-6f" x="1571.199219"/>
      <use xlink:href="#ArialMT-72" x="1626.814453"/>
      <use xlink:href="#ArialMT-20" x="1660.115234"/>
      <use xlink:href="#ArialMT-28" x="1687.898438"/>
      <use xlink:href="#ArialMT-6d" x="1721.199219"/>
      <use xlink:href="#ArialMT-2f" x="1804.5"/>
      <use xlink:href="#ArialMT-73" x="1832.283203"/>
      <use xlink:href="#ArialMT-29" x="1882.283203"/>
     </g>
    </g>
   </g>
   <g id="matplotlib.axis_2">
    <g id="ytick_1">
     <g id="line2d_7">
      <path d="M 55.8425 392.6275 
L 565.2 392.6275 
" clip-path="url(#pc66d9c3647)" style="fill: none; stroke: #ffffff; stroke-width: 0.8; stroke-linecap: round"/>
     </g>
     <g id="text_8">
      <!-- 0.000 -->
      <g style="fill: #262626" transform="translate(23.820625 396.206406) scale(0.1 -0.1)">
       <defs>
        <path id="ArialMT-2e" d="M 581 0 
L 581 641 
L 1222 641 
L 1222 0 
L 581 0 
z
" transform="scale(0.015625)"/>
       </defs>
       <use xlink:href="#ArialMT-30"/>
       <use xlink:href="#ArialMT-2e" x="55.615234"/>
       <use xlink:href="#ArialMT-30" x="83.398438"/>
       <use xlink:href="#ArialMT-30" x="139.013672"/>
       <use xlink:href="#ArialMT-30" x="194.628906"/>
      </g>
     </g>
    </g>
    <g id="ytick_2">
     <g id="line2d_8">
      <path d="M 55.8425 345.304292 
L 565.2 345.304292 
" clip-path="url(#pc66d9c3647)" style="fill: none; stroke: #ffffff; stroke-width: 0.8; stroke-linecap: round"/>
     </g>
     <g id="text_9">
      <!-- 0.025 -->
      <g style="fill: #262626" transform="translate(23.820625 348.883198) scale(0.1 -0.1)">
       <defs>
        <path id="ArialMT-32" d="M 3222 541 
L 3222 0 
L 194 0 
Q 188 203 259 391 
Q 375 700 629 1000 
Q 884 1300 1366 1694 
Q 2113 2306 2375 2664 
Q 2638 3022 2638 3341 
Q 2638 3675 2398 3904 
Q 2159 4134 1775 4134 
Q 1369 4134 1125 3890 
Q 881 3647 878 3216 
L 300 3275 
Q 359 3922 746 4261 
Q 1134 4600 1788 4600 
Q 2447 4600 2831 4234 
Q 3216 3869 3216 3328 
Q 3216 3053 3103 2787 
Q 2991 2522 2730 2228 
Q 2469 1934 1863 1422 
Q 1356 997 1212 845 
Q 1069 694 975 541 
L 3222 541 
z
" transform="scale(0.015625)"/>
       </defs>
       <use xlink:href="#ArialMT-30"/>
       <use xlink:href="#ArialMT-2e" x="55.615234"/>
       <use xlink:href="#ArialMT-30" x="83.398438"/>
       <use xlink:href="#ArialMT-32" x="139.013672"/>
       <use xlink:href="#ArialMT-35" x="194.628906"/>
      </g>
     </g>
    </g>
    <g id="ytick_3">
     <g id="line2d_9">
      <path d="M 55.8425 297.981084 
L 565.2 297.981084 
" clip-path="url(#pc66d9c3647)" style="fill: none; stroke: #ffffff; stroke-width: 0.8; stroke-linecap: round"/>
     </g>
     <g id="text_10">
      <!-- 0.050 -->
      <g style="fill: #262626" transform="translate(23.820625 301.55999) scale(0.1 -0.1)">
       <use xlink:href="#ArialMT-30"/>
       <use xlink:href="#ArialMT-2e" x="55.615234"/>
       <use xlink:href="#ArialMT-30" x="83.398438"/>
       <use xlink:href="#ArialMT-35" x="139.013672"/>
       <use xlink:href="#ArialMT-30" x="194.628906"/>
      </g>
     </g>
    </g>
    <g id="ytick_4">
     <g id="line2d_10">
      <path d="M 55.8425 250.657876 
L 565.2 250.657876 
" clip-path="url(#pc66d9c3647)" style="fill: none; stroke: #ffffff; stroke-width: 0.8; stroke-linecap: round"/>
     </g>
     <g id="text_11">
      <!-- 0.075 -->
      <g style="fill: #262626" transform="translate(23.820625 254.236783) scale(0.1 -0.1)">
       <defs>
        <path id="ArialMT-37" d="M 303 3981 
L 303 4522 
L 3269 4522 
L 3269 4084 
Q 2831 3619 2401 2847 
Q 1972 2075 1738 1259 
Q 1569 684 1522 0 
L 944 0 
Q 953 541 1156 1306 
Q 1359 2072 1739 2783 
Q 2119 3494 2547 3981 
L 303 3981 
z
" transform="scale(0.015625)"/>
       </defs>
       <use xlink:href="#ArialMT-30"/>
       <use xlink:href="#ArialMT-2e" x="55.615234"/>
       <use xlink:href="#ArialMT-30" x="83.398438"/>
       <use xlink:href="#ArialMT-37" x="139.013672"/>
       <use xlink:href="#ArialMT-35" x="194.628906"/>
      </g>
     </g>
    </g>
    <g id="ytick_5">
     <g id="line2d_11">
      <path d="M 55.8425 203.334668 
L 565.2 203.334668 
" clip-path="url(#pc66d9c3647)" style="fill: none; stroke: #ffffff; stroke-width: 0.8; stroke-linecap: round"/>
     </g>
     <g id="text_12">
      <!-- 0.100 -->
      <g style="fill: #262626" transform="translate(23.820625 206.913575) scale(0.1 -0.1)">
       <use xlink:href="#ArialMT-30"/>
       <use xlink:href="#ArialMT-2e" x="55.615234"/>
       <use xlink:href="#ArialMT-31" x="83.398438"/>
       <use xlink:href="#ArialMT-30" x="139.013672"/>
       <use xlink:href="#ArialMT-30" x="194.628906"/>
      </g>
     </g>
    </g>
    <g id="ytick_6">
     <g id="line2d_12">
      <path d="M 55.8425 156.01146 
L 565.2 156.01146 
" clip-path="url(#pc66d9c3647)" style="fill: none; stroke: #ffffff; stroke-width: 0.8; stroke-linecap: round"/>
     </g>
     <g id="text_13">
      <!-- 0.125 -->
      <g style="fill: #262626" transform="translate(23.820625 159.590367) scale(0.1 -0.1)">
       <use xlink:href="#ArialMT-30"/>
       <use xlink:href="#ArialMT-2e" x="55.615234"/>
       <use xlink:href="#ArialMT-31" x="83.398438"/>
       <use xlink:href="#ArialMT-32" x="139.013672"/>
       <use xlink:href="#ArialMT-35" x="194.628906"/>
      </g>
     </g>
    </g>
    <g id="ytick_7">
     <g id="line2d_13">
      <path d="M 55.8425 108.688253 
L 565.2 108.688253 
" clip-path="url(#pc66d9c3647)" style="fill: none; stroke: #ffffff; stroke-width: 0.8; stroke-linecap: round"/>
     </g>
     <g id="text_14">
      <!-- 0.150 -->
      <g style="fill: #262626" transform="translate(23.820625 112.267159) scale(0.1 -0.1)">
       <use xlink:href="#ArialMT-30"/>
       <use xlink:href="#ArialMT-2e" x="55.615234"/>
       <use xlink:href="#ArialMT-31" x="83.398438"/>
       <use xlink:href="#ArialMT-35" x="139.013672"/>
       <use xlink:href="#ArialMT-30" x="194.628906"/>
      </g>
     </g>
    </g>
    <g id="ytick_8">
     <g id="line2d_14">
      <path d="M 55.8425 61.365045 
L 565.2 61.365045 
" clip-path="url(#pc66d9c3647)" style="fill: none; stroke: #ffffff; stroke-width: 0.8; stroke-linecap: round"/>
     </g>
     <g id="text_15">
      <!-- 0.175 -->
      <g style="fill: #262626" transform="translate(23.820625 64.943951) scale(0.1 -0.1)">
       <use xlink:href="#ArialMT-30"/>
       <use xlink:href="#ArialMT-2e" x="55.615234"/>
       <use xlink:href="#ArialMT-31" x="83.398438"/>
       <use xlink:href="#ArialMT-37" x="139.013672"/>
       <use xlink:href="#ArialMT-35" x="194.628906"/>
      </g>
     </g>
    </g>
    <g id="ytick_9">
     <g id="line2d_15">
      <path d="M 55.8425 14.041837 
L 565.2 14.041837 
" clip-path="url(#pc66d9c3647)" style="fill: none; stroke: #ffffff; stroke-width: 0.8; stroke-linecap: round"/>
     </g>
     <g id="text_16">
      <!-- 0.200 -->
      <g style="fill: #262626" transform="translate(23.820625 17.620743) scale(0.1 -0.1)">
       <use xlink:href="#ArialMT-30"/>
       <use xlink:href="#ArialMT-2e" x="55.615234"/>
       <use xlink:href="#ArialMT-32" x="83.398438"/>
       <use xlink:href="#ArialMT-30" x="139.013672"/>
       <use xlink:href="#ArialMT-30" x="194.628906"/>
      </g>
     </g>
    </g>
    <g id="text_17">
     <!-- Density -->
     <g style="fill: #262626" transform="translate(17.715938 219.998978) rotate(-90) scale(0.1 -0.1)">
      <defs>
       <path id="ArialMT-44" d="M 494 0 
L 494 4581 
L 2072 4581 
Q 2606 4581 2888 4516 
Q 3281 4425 3559 4188 
Q 3922 3881 4101 3404 
Q 4281 2928 4281 2316 
Q 4281 1794 4159 1391 
Q 4038 988 3847 723 
Q 3656 459 3429 307 
Q 3203 156 2883 78 
Q 2563 0 2147 0 
L 494 0 
z
M 1100 541 
L 2078 541 
Q 2531 541 2789 625 
Q 3047 709 3200 863 
Q 3416 1078 3536 1442 
Q 3656 1806 3656 2325 
Q 3656 3044 3420 3430 
Q 3184 3816 2847 3947 
Q 2603 4041 2063 4041 
L 1100 4041 
L 1100 541 
z
" transform="scale(0.015625)"/>
       <path id="ArialMT-79" d="M 397 -1278 
L 334 -750 
Q 519 -800 656 -800 
Q 844 -800 956 -737 
Q 1069 -675 1141 -563 
Q 1194 -478 1313 -144 
Q 1328 -97 1363 -6 
L 103 3319 
L 709 3319 
L 1400 1397 
Q 1534 1031 1641 628 
Q 1738 1016 1872 1384 
L 2581 3319 
L 3144 3319 
L 1881 -56 
Q 1678 -603 1566 -809 
Q 1416 -1088 1222 -1217 
Q 1028 -1347 759 -1347 
Q 597 -1347 397 -1278 
z
" transform="scale(0.015625)"/>
      </defs>
      <use xlink:href="#ArialMT-44"/>
      <use xlink:href="#ArialMT-65" x="72.216797"/>
      <use xlink:href="#ArialMT-6e" x="127.832031"/>
      <use xlink:href="#ArialMT-73" x="183.447266"/>
      <use xlink:href="#ArialMT-69" x="233.447266"/>
      <use xlink:href="#ArialMT-74" x="255.664062"/>
      <use xlink:href="#ArialMT-79" x="283.447266"/>
     </g>
    </g>
   </g>
   <g id="line2d_16">
    <path d="M 78.995114 392.612627 
L 88.249064 392.505717 
L 95.189526 392.244383 
L 111.383939 391.306542 
L 116.010914 391.327152 
L 122.951376 391.693958 
L 132.205326 392.289672 
L 139.145789 392.525037 
L 150.713226 392.619518 
L 164.594151 392.543349 
L 171.534614 392.292037 
L 176.161589 391.933918 
L 183.102051 391.082225 
L 190.042514 390.144621 
L 194.669489 389.701278 
L 203.923439 389.065412 
L 206.236926 388.770916 
L 208.550414 388.343355 
L 210.863901 387.753334 
L 213.177389 386.982262 
L 215.490877 386.02187 
L 217.804364 384.871628 
L 220.117852 383.535247 
L 222.431339 382.017608 
L 224.744827 380.323189 
L 227.058314 378.456446 
L 229.371802 376.423813 
L 233.998777 371.912065 
L 238.625752 366.961636 
L 247.879702 356.878983 
L 250.193189 354.566615 
L 252.506677 352.441656 
L 254.820164 350.570879 
L 257.133652 349.02561 
L 259.447139 347.870639 
L 261.760627 347.147474 
L 264.074114 346.855357 
L 266.387602 346.935316 
L 273.328064 347.880259 
L 275.641552 347.70574 
L 277.955039 346.913385 
L 280.268527 345.340181 
L 282.582014 342.898283 
L 284.895502 339.583336 
L 287.208989 335.46847 
L 289.522477 330.686545 
L 291.835964 325.40551 
L 296.462939 314.041066 
L 303.403402 296.938507 
L 312.657352 274.999811 
L 314.970839 269.057557 
L 317.284327 262.599749 
L 319.597814 255.468163 
L 321.911302 247.557638 
L 324.224789 238.842765 
L 326.538277 229.390282 
L 331.165252 208.935233 
L 338.105714 177.50351 
L 342.732689 157.533164 
L 354.300127 108.741927 
L 363.554077 69.073784 
L 365.867564 59.920478 
L 368.181052 51.540982 
L 370.494539 44.239385 
L 372.808027 38.342455 
L 375.121514 34.179331 
L 377.435002 32.05508 
L 379.748489 32.2209 
L 382.061977 34.84556 
L 384.375464 39.993595 
L 386.688952 47.615235 
L 389.002439 57.550876 
L 391.315927 69.549609 
L 393.629414 83.297938 
L 395.942902 98.452478 
L 400.569877 131.629889 
L 414.450802 235.529513 
L 419.077777 267.030473 
L 421.391265 281.66868 
L 423.704752 295.433084 
L 426.01824 308.224431 
L 428.331727 319.949672 
L 430.645215 330.533371 
L 432.958702 339.931157 
L 435.27219 348.140625 
L 437.585677 355.205559 
L 439.899165 361.211491 
L 442.212652 366.273665 
L 444.52614 370.52094 
L 446.839627 374.080208 
L 449.153115 377.065131 
L 451.466602 379.571001 
L 453.78009 381.675217 
L 456.093577 383.441193 
L 458.407065 384.923049 
L 460.720552 386.168948 
L 463.03404 387.222222 
L 465.347527 388.120582 
L 469.974502 389.565918 
L 474.601477 390.647311 
L 479.228452 391.397222 
L 483.855427 391.808313 
L 488.482402 391.900641 
L 493.109377 391.754077 
L 502.363327 391.317033 
L 506.990302 391.304033 
L 511.617277 391.488236 
L 527.81169 392.44158 
L 537.06564 392.600744 
L 539.379127 392.612627 
L 539.379127 392.612627 
" clip-path="url(#pc66d9c3647)" style="fill: none; stroke: #1f77b4; stroke-width: 1.5; stroke-linecap: round"/>
   </g>
   <g id="line2d_17">
    <path d="M 85.000857 392.61272 
L 96.42322 392.449595 
L 103.276638 392.134858 
L 116.983473 391.327955 
L 121.552418 391.318619 
L 126.121363 391.501981 
L 142.112671 392.436381 
L 151.250561 392.597978 
L 167.241869 392.579332 
L 174.095287 392.424133 
L 180.948704 392.005177 
L 185.517649 391.524153 
L 192.371067 390.568252 
L 206.077902 388.456595 
L 210.646847 387.438167 
L 212.93132 386.754275 
L 215.215792 385.916134 
L 217.500265 384.900276 
L 219.784737 383.68896 
L 222.06921 382.271634 
L 224.353683 380.646682 
L 226.638155 378.82332 
L 231.2071 374.679375 
L 244.913935 361.267515 
L 249.482881 357.293168 
L 254.051826 353.736119 
L 256.336298 352.179902 
L 258.620771 350.82579 
L 260.905243 349.710209 
L 263.189716 348.849284 
L 265.474188 348.225764 
L 270.043133 347.42138 
L 272.327606 347.019886 
L 274.612079 346.442935 
L 276.896551 345.565273 
L 279.181024 344.287403 
L 281.465496 342.544976 
L 283.749969 340.309361 
L 286.034441 337.580459 
L 288.318914 334.375014 
L 290.603386 330.714621 
L 292.887859 326.617152 
L 295.172331 322.093664 
L 297.456804 317.150713 
L 299.741277 311.79609 
L 302.025749 306.044968 
L 304.310222 299.923497 
L 308.879167 286.719872 
L 313.448112 272.488863 
L 318.017057 257.393733 
L 322.586002 241.431357 
L 327.154947 224.676866 
L 336.292837 190.70461 
L 340.861782 174.792013 
L 345.430727 159.911732 
L 352.284145 138.093162 
L 354.568618 130.415365 
L 356.85309 122.336672 
L 359.137563 113.805754 
L 363.706508 95.522115 
L 370.559925 67.305757 
L 372.844398 58.673066 
L 375.12887 50.953145 
L 377.413343 44.501412 
L 379.697816 39.682234 
L 381.982288 36.847475 
L 384.266761 36.307841 
L 386.551233 38.300668 
L 388.835706 42.960335 
L 391.120178 50.298056 
L 393.404651 60.196196 
L 395.689123 72.419006 
L 397.973596 86.637943 
L 400.258068 102.466629 
L 404.827014 137.343074 
L 416.249376 228.357884 
L 420.818321 262.012498 
L 423.102794 277.702177 
L 425.387266 292.464288 
L 427.671739 306.175789 
L 429.956212 318.728201 
L 432.240684 330.039598 
L 434.525157 340.06502 
L 436.809629 348.802693 
L 439.094102 356.294662 
L 441.378574 362.621873 
L 443.663047 367.894931 
L 445.947519 372.242548 
L 448.231992 375.799863 
L 450.516464 378.698445 
L 452.800937 381.059078 
L 455.08541 382.987583 
L 457.369882 384.573295 
L 459.654355 385.889358 
L 461.938827 386.994022 
L 464.2233 387.932261 
L 468.792245 389.432738 
L 473.36119 390.546979 
L 477.930135 391.327018 
L 482.49908 391.781672 
L 487.068025 391.929198 
L 491.63697 391.830024 
L 503.059333 391.310756 
L 507.628278 391.325983 
L 514.481696 391.671443 
L 525.904058 392.367602 
L 532.757476 392.553459 
L 539.610894 392.61272 
L 539.610894 392.61272 
" clip-path="url(#pc66d9c3647)" style="fill: none; stroke: #ff7f0e; stroke-width: 1.5; stroke-linecap: round"/>
   </g>
   <g id="line2d_18">
    <path d="M 95.120572 392.612809 
L 106.280261 392.460625 
L 112.976075 392.168992 
L 128.59964 391.312195 
L 133.063516 391.356611 
L 139.75933 391.714807 
L 150.919019 392.378072 
L 159.846771 392.582283 
L 175.470336 392.616516 
L 184.398088 392.521464 
L 188.861963 392.353211 
L 193.325839 392.006101 
L 197.789715 391.385973 
L 202.253591 390.417808 
L 206.717467 389.075377 
L 211.181342 387.377034 
L 215.645218 385.338304 
L 220.109094 382.913553 
L 222.341032 381.520079 
L 224.57297 379.9805 
L 226.804908 378.277459 
L 229.036845 376.399842 
L 231.268783 374.346757 
L 235.732659 369.777905 
L 246.892349 357.674635 
L 249.124286 355.587632 
L 251.356224 353.738461 
L 253.588162 352.171194 
L 255.8201 350.92096 
L 258.052038 350.008927 
L 260.283976 349.435106 
L 262.515914 349.170496 
L 264.747852 349.151217 
L 271.443665 349.431222 
L 273.675603 349.166698 
L 275.907541 348.501481 
L 278.139479 347.347632 
L 280.371417 345.662681 
L 282.603355 343.448933 
L 284.835293 340.743777 
L 287.067231 337.603789 
L 289.299168 334.086972 
L 291.531106 330.237728 
L 293.763044 326.078155 
L 295.994982 321.607348 
L 298.22692 316.808143 
L 300.458858 311.65877 
L 302.690796 306.145644 
L 304.922734 300.273345 
L 309.38661 287.577992 
L 313.850485 273.958995 
L 318.314361 259.758655 
L 322.778237 245.007525 
L 327.242113 229.545681 
L 338.401802 189.801213 
L 340.63374 182.493586 
L 342.865678 175.585085 
L 347.329554 162.752242 
L 351.793429 150.24717 
L 354.025367 143.649341 
L 356.257305 136.615595 
L 358.489243 129.070989 
L 360.721181 121.02066 
L 365.185057 103.791849 
L 369.648933 86.191625 
L 371.88087 77.747878 
L 374.112808 69.800496 
L 376.344746 62.53153 
L 378.576684 56.120387 
L 380.808622 50.755149 
L 383.04056 46.643436 
L 385.272498 44.017683 
L 387.504436 43.130578 
L 389.736374 44.238651 
L 391.968311 47.575219 
L 394.200249 53.317335 
L 396.432187 61.553779 
L 398.664125 72.261614 
L 400.896063 85.29708 
L 403.128001 100.403068 
L 405.359939 117.23134 
L 409.823815 154.399995 
L 418.751566 231.376103 
L 420.983504 249.244005 
L 423.215442 266.110746 
L 425.44738 281.841361 
L 427.679318 296.346233 
L 429.911256 309.576074 
L 432.143194 321.516431 
L 434.375131 332.181904 
L 436.607069 341.610446 
L 438.839007 349.858216 
L 441.070945 356.995376 
L 443.302883 363.102918 
L 445.534821 368.270299 
L 447.766759 372.593432 
L 449.998697 376.172543 
L 452.230635 379.109563 
L 454.462572 381.504977 
L 456.69451 383.454328 
L 458.926448 385.044774 
L 461.158386 386.352175 
L 463.390324 387.439122 
L 465.622262 388.354201 
L 470.086138 389.797437 
L 474.550013 390.836305 
L 479.013889 391.520043 
L 483.477765 391.870004 
L 487.941641 391.92812 
L 494.637454 391.659386 
L 501.333268 391.346811 
L 505.797144 391.309604 
L 510.26102 391.454179 
L 530.348461 392.516914 
L 539.276212 392.612809 
L 539.276212 392.612809 
" clip-path="url(#pc66d9c3647)" style="fill: none; stroke: #2ca02c; stroke-width: 1.5; stroke-linecap: round"/>
   </g>
   <g id="line2d_19">
    <path d="M 100.064469 392.612841 
L 111.084704 392.465737 
L 117.696846 392.184955 
L 133.125175 391.322058 
L 137.533269 391.343561 
L 144.14541 391.672823 
L 155.165646 392.344939 
L 163.981834 392.571052 
L 177.206116 392.588944 
L 186.022305 392.390323 
L 190.430399 392.124539 
L 194.838493 391.665306 
L 199.246587 390.943552 
L 203.654681 389.893093 
L 208.062775 388.460785 
L 212.470869 386.626424 
L 216.878964 384.422515 
L 221.287058 381.92307 
L 225.695152 379.185703 
L 230.103246 376.184969 
L 234.51134 372.803746 
L 238.919434 368.906357 
L 243.327528 364.451914 
L 254.347764 352.530854 
L 256.551811 350.557129 
L 258.755858 348.909578 
L 260.959905 347.641517 
L 263.163952 346.770103 
L 265.367999 346.268576 
L 267.572046 346.06552 
L 274.184187 346.061789 
L 276.388234 345.823266 
L 278.592281 345.282146 
L 280.796328 344.370871 
L 283.000375 343.050914 
L 285.204423 341.304148 
L 287.40847 339.121236 
L 289.612517 336.491004 
L 291.816564 333.39415 
L 294.020611 329.803078 
L 296.224658 325.687662 
L 298.428705 321.024944 
L 300.632752 315.809667 
L 302.836799 310.062336 
L 305.040846 303.832229 
L 309.44894 290.239604 
L 316.061081 268.372305 
L 327.081317 231.080207 
L 340.305599 185.838568 
L 349.121787 156.955545 
L 355.733929 135.117567 
L 364.550117 105.656558 
L 368.958211 91.643037 
L 373.366305 78.715954 
L 375.570352 72.806707 
L 377.774399 67.370326 
L 379.978446 62.51712 
L 382.182493 58.394682 
L 384.38654 55.192973 
L 386.590588 53.142725 
L 388.794635 52.5049 
L 390.998682 53.550453 
L 393.202729 56.531968 
L 395.406776 61.651193 
L 397.610823 69.028311 
L 399.81487 78.679199 
L 402.018917 90.505592 
L 404.222964 104.300373 
L 406.427011 119.766868 
L 408.631058 136.548045 
L 413.039152 172.522026 
L 419.651294 227.322699 
L 424.059388 261.392729 
L 426.263435 277.168929 
L 428.467482 291.948229 
L 430.671529 305.640096 
L 432.875576 318.174192 
L 435.079623 329.501813 
L 437.28367 339.598709 
L 439.487717 348.467901 
L 441.691764 356.141237 
L 443.895811 362.678847 
L 446.099858 368.166158 
L 448.303905 372.708649 
L 450.507952 376.424918 
L 452.711999 379.438933 
L 454.916047 381.872379 
L 457.120094 383.837996 
L 459.324141 385.434562 
L 461.528188 386.743903 
L 463.732235 387.830005 
L 465.936282 388.739969 
L 468.140329 389.506374 
L 472.548423 390.685365 
L 476.956517 391.458778 
L 481.364611 391.874625 
L 485.772705 391.985936 
L 490.1808 391.870441 
L 503.405082 391.306049 
L 507.813176 391.379962 
L 514.425317 391.753264 
L 523.241506 392.299418 
L 529.853647 392.519915 
L 538.669835 392.612841 
L 538.669835 392.612841 
" clip-path="url(#pc66d9c3647)" style="fill: none; stroke: #d62728; stroke-width: 1.5; stroke-linecap: round"/>
   </g>
   <g id="line2d_20">
    <path d="M 102.773739 392.612904 
L 113.810766 392.467292 
L 120.432981 392.189572 
L 135.884818 391.329172 
L 140.299629 391.346429 
L 146.921845 391.668879 
L 157.958871 392.338343 
L 164.581087 392.527413 
L 173.410708 392.539431 
L 180.032924 392.369573 
L 186.655139 391.989555 
L 193.277355 391.399693 
L 199.899571 390.616537 
L 204.314381 389.889009 
L 208.729192 388.825847 
L 210.936597 388.116014 
L 213.144002 387.266591 
L 215.351408 386.27027 
L 217.558813 385.127016 
L 219.766218 383.843013 
L 224.181029 380.896265 
L 228.595839 377.524674 
L 233.01065 373.807861 
L 237.42546 369.805117 
L 244.047676 363.398689 
L 250.669892 356.877462 
L 255.084702 352.924674 
L 257.292108 351.224362 
L 259.499513 349.775006 
L 261.706918 348.606201 
L 263.914323 347.720007 
L 266.121729 347.086264 
L 270.536539 346.309625 
L 274.95135 345.590752 
L 277.158755 345.040272 
L 279.36616 344.283229 
L 281.573566 343.28603 
L 283.780971 342.028183 
L 285.988376 340.490933 
L 288.195781 338.64556 
L 290.403187 336.445078 
L 292.610592 333.82215 
L 294.817997 330.694356 
L 297.025402 326.976054 
L 299.232808 322.594382 
L 301.440213 317.505804 
L 303.647618 311.70931 
L 305.855023 305.252903 
L 308.062429 298.231399 
L 312.477239 283.034048 
L 321.30686 251.759985 
L 325.721671 236.828248 
L 332.343887 215.264725 
L 347.795723 165.678091 
L 352.210534 150.556708 
L 356.625344 134.663188 
L 365.454965 102.110075 
L 367.662371 94.473338 
L 369.869776 87.346729 
L 372.077181 80.883375 
L 374.284587 75.209127 
L 376.491992 70.409789 
L 378.699397 66.526849 
L 380.906802 63.564455 
L 383.114208 61.507546 
L 385.321613 60.3476 
L 387.529018 60.109538 
L 389.736423 60.871929 
L 391.943829 62.773613 
L 394.151234 66.003023 
L 396.358639 70.771195 
L 398.566044 77.274044 
L 400.77345 85.652612 
L 402.980855 95.960561 
L 405.18826 108.146026 
L 407.395665 122.05095 
L 409.603071 137.426552 
L 414.017881 171.305233 
L 422.847502 242.179487 
L 427.262313 274.798517 
L 429.469718 289.744287 
L 431.677123 303.620623 
L 433.884529 316.343309 
L 436.091934 327.855954 
L 438.299339 338.130676 
L 440.506744 347.169221 
L 442.71415 355.00352 
L 444.921555 361.694761 
L 447.12896 367.330283 
L 449.336365 372.018101 
L 451.543771 375.879392 
L 453.751176 379.03984 
L 455.958581 381.621022 
L 458.165986 383.733102 
L 460.373392 385.4698 
L 462.580797 386.906159 
L 464.788202 388.098994 
L 466.995607 389.089452 
L 469.203013 389.906755 
L 471.410418 390.572169 
L 473.617823 391.102404 
L 478.032634 391.814569 
L 482.447444 392.150344 
L 486.862255 392.205094 
L 493.484471 391.941063 
L 504.521497 391.34553 
L 508.936307 391.328989 
L 515.558523 391.616182 
L 528.802955 392.395287 
L 537.632576 392.585106 
L 542.047386 392.612904 
L 542.047386 392.612904 
" clip-path="url(#pc66d9c3647)" style="fill: none; stroke: #9467bd; stroke-width: 1.5; stroke-linecap: round"/>
   </g>
   <g id="line2d_21">
    <path d="M 103.677334 392.612983 
L 114.687417 392.470584 
L 121.293466 392.199614 
L 136.707582 391.340993 
L 141.111615 391.346491 
L 147.717665 391.65143 
L 158.727747 392.313846 
L 165.333797 392.48512 
L 171.939847 392.443218 
L 178.545896 392.184305 
L 187.353962 391.574491 
L 202.768078 390.427324 
L 207.172111 389.744314 
L 209.374128 389.228354 
L 211.576144 388.567283 
L 213.778161 387.74673 
L 215.980177 386.759462 
L 218.182194 385.60572 
L 220.38421 384.293073 
L 224.788243 381.254666 
L 229.192276 377.822877 
L 240.202359 368.733066 
L 244.606392 364.956106 
L 249.010425 360.898468 
L 257.818491 352.354616 
L 260.020508 350.440576 
L 262.222524 348.739509 
L 264.424541 347.285249 
L 266.626558 346.083045 
L 268.828574 345.110396 
L 271.030591 344.323568 
L 275.434624 343.084236 
L 279.838657 341.929096 
L 282.040673 341.260041 
L 284.24269 340.457788 
L 286.444706 339.450264 
L 288.646723 338.144206 
L 290.848739 336.425693 
L 293.050756 334.167568 
L 295.252772 331.243079 
L 297.454789 327.543365 
L 299.656806 322.995279 
L 301.858822 317.57574 
L 304.060839 311.319437 
L 306.262855 304.318103 
L 308.464872 296.71142 
L 312.868905 280.383657 
L 319.474954 255.727524 
L 323.878987 240.664521 
L 326.081004 233.725807 
L 328.28302 227.184256 
L 332.687053 215.117047 
L 343.697136 186.597603 
L 345.899153 180.361252 
L 348.101169 173.785531 
L 352.505202 159.550291 
L 356.909235 143.918871 
L 361.313268 127.135406 
L 367.919318 101.377419 
L 370.121335 93.326513 
L 372.323351 85.924744 
L 374.525368 79.395945 
L 376.727384 73.91807 
L 378.929401 69.599793 
L 381.131417 66.471892 
L 383.333434 64.49674 
L 385.53545 63.594149 
L 387.737467 63.677048 
L 389.939483 64.687714 
L 392.1415 66.625217 
L 394.343516 69.557353 
L 396.545533 73.614557 
L 398.747549 78.967817 
L 400.949566 85.796042 
L 403.151582 94.250052 
L 405.353599 104.42019 
L 407.555616 116.313017 
L 409.757632 129.840267 
L 411.959649 144.82083 
L 414.161665 160.994424 
L 418.565698 195.622886 
L 425.171748 248.173455 
L 427.373764 264.6778 
L 429.575781 280.31905 
L 431.777797 294.954743 
L 433.979814 308.482438 
L 436.18183 320.832932 
L 438.383847 331.965339 
L 440.585864 341.864792 
L 442.78788 350.542361 
L 444.989897 358.035819 
L 447.191913 364.409641 
L 449.39393 369.752855 
L 451.595946 374.174152 
L 453.797963 377.794515 
L 455.999979 380.738435 
L 458.201996 383.1252 
L 460.404012 385.061724 
L 462.606029 386.63796 
L 464.808045 387.925312 
L 467.010062 388.97773 
L 469.212078 389.834694 
L 471.414095 390.525045 
L 473.616112 391.070681 
L 478.020145 391.797083 
L 482.424178 392.135122 
L 486.828211 392.186735 
L 493.43426 391.919321 
L 504.444343 391.345635 
L 508.848376 391.34082 
L 515.454426 391.634769 
L 528.666525 392.400371 
L 537.474591 392.585665 
L 541.878624 392.612983 
L 541.878624 392.612983 
" clip-path="url(#pc66d9c3647)" style="fill: none; stroke: #8c564b; stroke-width: 1.5; stroke-linecap: round"/>
   </g>
   <g id="line2d_22">
    <path d="M 107.867261 392.61315 
L 118.649709 392.481748 
L 127.275667 392.115253 
L 140.214605 391.38091 
L 144.527584 391.34184 
L 150.997053 391.57764 
L 166.09248 392.409595 
L 172.561949 392.503446 
L 179.031418 392.392337 
L 185.500886 392.025194 
L 191.970355 391.361233 
L 200.596314 390.137691 
L 207.065782 389.021692 
L 211.378762 388.035796 
L 213.535251 387.405394 
L 215.691741 386.650525 
L 217.84823 385.749631 
L 220.00472 384.686831 
L 222.16121 383.45404 
L 224.317699 382.05225 
L 226.474189 380.491757 
L 230.787168 376.975906 
L 237.256637 371.12591 
L 248.039085 361.211194 
L 254.508554 355.540769 
L 258.821533 352.13303 
L 260.978023 350.619712 
L 263.134512 349.259248 
L 265.291002 348.057123 
L 267.447491 347.005509 
L 271.760471 345.265606 
L 282.542919 341.522226 
L 284.699408 340.580127 
L 286.855898 339.449282 
L 289.012387 338.045339 
L 291.168877 336.266205 
L 293.325367 333.997369 
L 295.481856 331.121511 
L 297.638346 327.531163 
L 299.794836 323.142482 
L 301.951325 317.907814 
L 304.107815 311.824947 
L 306.264304 304.941484 
L 308.420794 297.353722 
L 312.733773 280.652019 
L 319.203242 254.547616 
L 321.359732 246.302898 
L 323.516221 238.535284 
L 325.672711 231.339225 
L 327.8292 224.762637 
L 329.98569 218.803644 
L 332.14218 213.411306 
L 334.298669 208.4911 
L 338.611648 199.53748 
L 342.924628 190.795068 
L 345.081117 186.186873 
L 347.237607 181.308193 
L 349.394096 176.115295 
L 351.550586 170.591589 
L 355.863565 158.574682 
L 360.176544 145.411941 
L 373.115482 104.277934 
L 375.271972 98.349418 
L 377.428461 92.95258 
L 379.584951 88.11633 
L 381.741441 83.837121 
L 383.89793 80.097728 
L 386.05442 76.892267 
L 388.210909 74.250813 
L 390.367399 72.25688 
L 392.523889 71.052957 
L 394.680378 70.832587 
L 396.836868 71.820925 
L 398.993357 74.248337 
L 401.149847 78.322602 
L 403.306337 84.204665 
L 405.462826 91.991123 
L 407.619316 101.704441 
L 409.775805 113.290221 
L 411.932295 126.619919 
L 414.088785 141.497488 
L 416.245274 157.668899 
L 420.558253 192.661833 
L 427.027722 246.681713 
L 431.340702 280.030354 
L 433.497191 295.180865 
L 435.653681 309.113753 
L 437.81017 321.743649 
L 439.96666 333.032931 
L 442.12315 342.985723 
L 444.279639 351.641495 
L 446.436129 359.068739 
L 448.592618 365.358794 
L 450.749108 370.619655 
L 452.905598 374.969621 
L 455.062087 378.530875 
L 457.218577 381.423306 
L 459.375066 383.759087 
L 461.531556 385.638521 
L 463.688046 387.147507 
L 465.844535 388.356718 
L 468.001025 389.322296 
L 470.157514 390.087652 
L 472.314004 390.685871 
L 474.470494 391.142264 
L 478.783473 391.705605 
L 483.096452 391.903812 
L 487.409431 391.847697 
L 502.504859 391.337392 
L 508.974327 391.568749 
L 524.069755 392.417746 
L 532.695713 392.58743 
L 537.008692 392.61315 
L 537.008692 392.61315 
" clip-path="url(#pc66d9c3647)" style="fill: none; stroke: #e377c2; stroke-width: 1.5; stroke-linecap: round"/>
   </g>
   <g id="patch_3">
    <path d="M 55.8425 392.6275 
L 55.8425 14.026706 
" style="fill: none; stroke: #ffffff; stroke-width: 0.8; stroke-linejoin: miter; stroke-linecap: square"/>
   </g>
   <g id="patch_4">
    <path d="M 565.2 392.6275 
L 565.2 14.026706 
" style="fill: none; stroke: #ffffff; stroke-width: 0.8; stroke-linejoin: miter; stroke-linecap: square"/>
   </g>
   <g id="patch_5">
    <path d="M 55.8425 392.6275 
L 565.2 392.6275 
" style="fill: none; stroke: #ffffff; stroke-width: 0.8; stroke-linejoin: miter; stroke-linecap: square"/>
   </g>
   <g id="patch_6">
    <path d="M 55.8425 14.026706 
L 565.2 14.026706 
" style="fill: none; stroke: #ffffff; stroke-width: 0.8; stroke-linejoin: miter; stroke-linecap: square"/>
   </g>
   <g id="legend_1">
    <g id="patch_7">
     <path d="M 500.078125 121.982956 
L 558.2 121.982956 
Q 560.2 121.982956 560.2 119.982956 
L 560.2 21.026706 
Q 560.2 19.026706 558.2 19.026706 
L 500.078125 19.026706 
Q 498.078125 19.026706 498.078125 21.026706 
L 498.078125 119.982956 
Q 498.078125 121.982956 500.078125 121.982956 
z
" style="fill: #eaeaf2; opacity: 0.8; stroke: #cccccc; stroke-linejoin: miter"/>
    </g>
    <g id="line2d_23">
     <path d="M 502.078125 26.714206 
L 512.078125 26.714206 
L 522.078125 26.714206 
" style="fill: none; stroke: #1f77b4; stroke-width: 1.5; stroke-linecap: round"/>
    </g>
    <g id="text_18">
     <!-- Day 1 -->
     <g style="fill: #262626" transform="translate(530.078125 30.214206) scale(0.1 -0.1)">
      <use xlink:href="#ArialMT-44"/>
      <use xlink:href="#ArialMT-61" x="72.216797"/>
      <use xlink:href="#ArialMT-79" x="127.832031"/>
      <use xlink:href="#ArialMT-20" x="177.832031"/>
      <use xlink:href="#ArialMT-31" x="205.615234"/>
     </g>
    </g>
    <g id="line2d_24">
     <path d="M 502.078125 41.006394 
L 512.078125 41.006394 
L 522.078125 41.006394 
" style="fill: none; stroke: #ff7f0e; stroke-width: 1.5; stroke-linecap: round"/>
    </g>
    <g id="text_19">
     <!-- Day 2 -->
     <g style="fill: #262626" transform="translate(530.078125 44.506394) scale(0.1 -0.1)">
      <use xlink:href="#ArialMT-44"/>
      <use xlink:href="#ArialMT-61" x="72.216797"/>
      <use xlink:href="#ArialMT-79" x="127.832031"/>
      <use xlink:href="#ArialMT-20" x="177.832031"/>
      <use xlink:href="#ArialMT-32" x="205.615234"/>
     </g>
    </g>
    <g id="line2d_25">
     <path d="M 502.078125 55.298581 
L 512.078125 55.298581 
L 522.078125 55.298581 
" style="fill: none; stroke: #2ca02c; stroke-width: 1.5; stroke-linecap: round"/>
    </g>
    <g id="text_20">
     <!-- Day 3 -->
     <g style="fill: #262626" transform="translate(530.078125 58.798581) scale(0.1 -0.1)">
      <defs>
       <path id="ArialMT-33" d="M 269 1209 
L 831 1284 
Q 928 806 1161 595 
Q 1394 384 1728 384 
Q 2125 384 2398 659 
Q 2672 934 2672 1341 
Q 2672 1728 2419 1979 
Q 2166 2231 1775 2231 
Q 1616 2231 1378 2169 
L 1441 2663 
Q 1497 2656 1531 2656 
Q 1891 2656 2178 2843 
Q 2466 3031 2466 3422 
Q 2466 3731 2256 3934 
Q 2047 4138 1716 4138 
Q 1388 4138 1169 3931 
Q 950 3725 888 3313 
L 325 3413 
Q 428 3978 793 4289 
Q 1159 4600 1703 4600 
Q 2078 4600 2393 4439 
Q 2709 4278 2876 4000 
Q 3044 3722 3044 3409 
Q 3044 3113 2884 2869 
Q 2725 2625 2413 2481 
Q 2819 2388 3044 2092 
Q 3269 1797 3269 1353 
Q 3269 753 2831 336 
Q 2394 -81 1725 -81 
Q 1122 -81 723 278 
Q 325 638 269 1209 
z
" transform="scale(0.015625)"/>
      </defs>
      <use xlink:href="#ArialMT-44"/>
      <use xlink:href="#ArialMT-61" x="72.216797"/>
      <use xlink:href="#ArialMT-79" x="127.832031"/>
      <use xlink:href="#ArialMT-20" x="177.832031"/>
      <use xlink:href="#ArialMT-33" x="205.615234"/>
     </g>
    </g>
    <g id="line2d_26">
     <path d="M 502.078125 69.561081 
L 512.078125 69.561081 
L 522.078125 69.561081 
" style="fill: none; stroke: #d62728; stroke-width: 1.5; stroke-linecap: round"/>
    </g>
    <g id="text_21">
     <!-- Day 4 -->
     <g style="fill: #262626" transform="translate(530.078125 73.061081) scale(0.1 -0.1)">
      <defs>
       <path id="ArialMT-34" d="M 2069 0 
L 2069 1097 
L 81 1097 
L 81 1613 
L 2172 4581 
L 2631 4581 
L 2631 1613 
L 3250 1613 
L 3250 1097 
L 2631 1097 
L 2631 0 
L 2069 0 
z
M 2069 1613 
L 2069 3678 
L 634 1613 
L 2069 1613 
z
" transform="scale(0.015625)"/>
      </defs>
      <use xlink:href="#ArialMT-44"/>
      <use xlink:href="#ArialMT-61" x="72.216797"/>
      <use xlink:href="#ArialMT-79" x="127.832031"/>
      <use xlink:href="#ArialMT-20" x="177.832031"/>
      <use xlink:href="#ArialMT-34" x="205.615234"/>
     </g>
    </g>
    <g id="line2d_27">
     <path d="M 502.078125 83.823581 
L 512.078125 83.823581 
L 522.078125 83.823581 
" style="fill: none; stroke: #9467bd; stroke-width: 1.5; stroke-linecap: round"/>
    </g>
    <g id="text_22">
     <!-- Day 5 -->
     <g style="fill: #262626" transform="translate(530.078125 87.323581) scale(0.1 -0.1)">
      <use xlink:href="#ArialMT-44"/>
      <use xlink:href="#ArialMT-61" x="72.216797"/>
      <use xlink:href="#ArialMT-79" x="127.832031"/>
      <use xlink:href="#ArialMT-20" x="177.832031"/>
      <use xlink:href="#ArialMT-35" x="205.615234"/>
     </g>
    </g>
    <g id="line2d_28">
     <path d="M 502.078125 98.115769 
L 512.078125 98.115769 
L 522.078125 98.115769 
" style="fill: none; stroke: #8c564b; stroke-width: 1.5; stroke-linecap: round"/>
    </g>
    <g id="text_23">
     <!-- Day 6 -->
     <g style="fill: #262626" transform="translate(530.078125 101.615769) scale(0.1 -0.1)">
      <defs>
       <path id="ArialMT-36" d="M 3184 3459 
L 2625 3416 
Q 2550 3747 2413 3897 
Q 2184 4138 1850 4138 
Q 1581 4138 1378 3988 
Q 1113 3794 959 3422 
Q 806 3050 800 2363 
Q 1003 2672 1297 2822 
Q 1591 2972 1913 2972 
Q 2475 2972 2870 2558 
Q 3266 2144 3266 1488 
Q 3266 1056 3080 686 
Q 2894 316 2569 119 
Q 2244 -78 1831 -78 
Q 1128 -78 684 439 
Q 241 956 241 2144 
Q 241 3472 731 4075 
Q 1159 4600 1884 4600 
Q 2425 4600 2770 4297 
Q 3116 3994 3184 3459 
z
M 888 1484 
Q 888 1194 1011 928 
Q 1134 663 1356 523 
Q 1578 384 1822 384 
Q 2178 384 2434 671 
Q 2691 959 2691 1453 
Q 2691 1928 2437 2201 
Q 2184 2475 1800 2475 
Q 1419 2475 1153 2201 
Q 888 1928 888 1484 
z
" transform="scale(0.015625)"/>
      </defs>
      <use xlink:href="#ArialMT-44"/>
      <use xlink:href="#ArialMT-61" x="72.216797"/>
      <use xlink:href="#ArialMT-79" x="127.832031"/>
      <use xlink:href="#ArialMT-20" x="177.832031"/>
      <use xlink:href="#ArialMT-36" x="205.615234"/>
     </g>
    </g>
    <g id="line2d_29">
     <path d="M 502.078125 112.378269 
L 512.078125 112.378269 
L 522.078125 112.378269 
" style="fill: none; stroke: #e377c2; stroke-width: 1.5; stroke-linecap: round"/>
    </g>
    <g id="text_24">
     <!-- Day 7 -->
     <g style="fill: #262626" transform="translate(530.078125 115.878269) scale(0.1 -0.1)">
      <use xlink:href="#ArialMT-44"/>
      <use xlink:href="#ArialMT-61" x="72.216797"/>
      <use xlink:href="#ArialMT-79" x="127.832031"/>
      <use xlink:href="#ArialMT-20" x="177.832031"/>
      <use xlink:href="#ArialMT-37" x="205.615234"/>
     </g>
    </g>
   </g>
  </g>
 </g>
 <defs>
  <clipPath id="pc66d9c3647">
   <rect x="55.8425" y="14.026706" width="509.3575" height="378.600794"/>
  </clipPath>
 </defs>
</svg>
