<?xml version="1.0" encoding="utf-8" standalone="no"?>
<!DOCTYPE svg PUBLIC "-//W3C//DTD SVG 1.1//EN"
  "http://www.w3.org/Graphics/SVG/1.1/DTD/svg11.dtd">
<svg xmlns:xlink="http://www.w3.org/1999/xlink" width="576pt" height="432pt" viewBox="0 0 576 432" xmlns="http://www.w3.org/2000/svg" version="1.1">
 <metadata>
  <rdf:RDF xmlns:dc="http://purl.org/dc/elements/1.1/" xmlns:cc="http://creativecommons.org/ns#" xmlns:rdf="http://www.w3.org/1999/02/22-rdf-syntax-ns#">
   <cc:Work>
    <dc:type rdf:resource="http://purl.org/dc/dcmitype/StillImage"/>
    <dc:date>2023-11-17T01:17:52.915395</dc:date>
    <dc:format>image/svg+xml</dc:format>
    <dc:creator>
     <cc:Agent>
      <dc:title>Matplotlib v3.8.1, https://matplotlib.org/</dc:title>
     </cc:Agent>
    </dc:creator>
   </cc:Work>
  </rdf:RDF>
 </metadata>
 <defs>
  <style type="text/css">*{stroke-linejoin: round; stroke-linecap: butt}</style>
 </defs>
 <g id="figure_1">
  <g id="patch_1">
   <path d="M 0 432 
L 576 432 
L 576 0 
L 0 0 
z
" style="fill: #ffffff"/>
  </g>
  <g id="axes_1">
   <g id="patch_2">
    <path d="M 72 384.48 
L 518.4 384.48 
L 518.4 51.84 
L 72 51.84 
z
" style="fill: #eaeaf2"/>
   </g>
   <g id="matplotlib.axis_1">
    <g id="xtick_1">
     <g id="line2d_1">
      <path d="M 106.885249 384.48 
L 106.885249 51.84 
" clip-path="url(#peb04ccc279)" style="fill: none; stroke: #ffffff; stroke-width: 0.8; stroke-linecap: round"/>
     </g>
     <g id="text_1">
      <!-- −15 -->
      <g style="fill: #262626" transform="translate(98.403999 398.637812) scale(0.1 -0.1)">
       <defs>
        <path id="ArialMT-2212" d="M 3381 1997 
L 356 1997 
L 356 2522 
L 3381 2522 
L 3381 1997 
z
" transform="scale(0.015625)"/>
        <path id="ArialMT-31" d="M 2384 0 
L 1822 0 
L 1822 3584 
Q 1619 3391 1289 3197 
Q 959 3003 697 2906 
L 697 3450 
Q 1169 3672 1522 3987 
Q 1875 4303 2022 4600 
L 2384 4600 
L 2384 0 
z
" transform="scale(0.015625)"/>
        <path id="ArialMT-35" d="M 266 1200 
L 856 1250 
Q 922 819 1161 601 
Q 1400 384 1738 384 
Q 2144 384 2425 690 
Q 2706 997 2706 1503 
Q 2706 1984 2436 2262 
Q 2166 2541 1728 2541 
Q 1456 2541 1237 2417 
Q 1019 2294 894 2097 
L 366 2166 
L 809 4519 
L 3088 4519 
L 3088 3981 
L 1259 3981 
L 1013 2750 
Q 1425 3038 1878 3038 
Q 2478 3038 2890 2622 
Q 3303 2206 3303 1553 
Q 3303 931 2941 478 
Q 2500 -78 1738 -78 
Q 1113 -78 717 272 
Q 322 622 266 1200 
z
" transform="scale(0.015625)"/>
       </defs>
       <use xlink:href="#ArialMT-2212"/>
       <use xlink:href="#ArialMT-31" x="58.398438"/>
       <use xlink:href="#ArialMT-35" x="114.013672"/>
      </g>
     </g>
    </g>
    <g id="xtick_2">
     <g id="line2d_2">
      <path d="M 167.113418 384.48 
L 167.113418 51.84 
" clip-path="url(#peb04ccc279)" style="fill: none; stroke: #ffffff; stroke-width: 0.8; stroke-linecap: round"/>
     </g>
     <g id="text_2">
      <!-- −10 -->
      <g style="fill: #262626" transform="translate(158.632168 398.637812) scale(0.1 -0.1)">
       <defs>
        <path id="ArialMT-30" d="M 266 2259 
Q 266 3072 433 3567 
Q 600 4063 929 4331 
Q 1259 4600 1759 4600 
Q 2128 4600 2406 4451 
Q 2684 4303 2865 4023 
Q 3047 3744 3150 3342 
Q 3253 2941 3253 2259 
Q 3253 1453 3087 958 
Q 2922 463 2592 192 
Q 2263 -78 1759 -78 
Q 1097 -78 719 397 
Q 266 969 266 2259 
z
M 844 2259 
Q 844 1131 1108 757 
Q 1372 384 1759 384 
Q 2147 384 2411 759 
Q 2675 1134 2675 2259 
Q 2675 3391 2411 3762 
Q 2147 4134 1753 4134 
Q 1366 4134 1134 3806 
Q 844 3388 844 2259 
z
" transform="scale(0.015625)"/>
       </defs>
       <use xlink:href="#ArialMT-2212"/>
       <use xlink:href="#ArialMT-31" x="58.398438"/>
       <use xlink:href="#ArialMT-30" x="114.013672"/>
      </g>
     </g>
    </g>
    <g id="xtick_3">
     <g id="line2d_3">
      <path d="M 227.341586 384.48 
L 227.341586 51.84 
" clip-path="url(#peb04ccc279)" style="fill: none; stroke: #ffffff; stroke-width: 0.8; stroke-linecap: round"/>
     </g>
     <g id="text_3">
      <!-- −5 -->
      <g style="fill: #262626" transform="translate(221.640805 398.637812) scale(0.1 -0.1)">
       <use xlink:href="#ArialMT-2212"/>
       <use xlink:href="#ArialMT-35" x="58.398438"/>
      </g>
     </g>
    </g>
    <g id="xtick_4">
     <g id="line2d_4">
      <path d="M 287.569755 384.48 
L 287.569755 51.84 
" clip-path="url(#peb04ccc279)" style="fill: none; stroke: #ffffff; stroke-width: 0.8; stroke-linecap: round"/>
     </g>
     <g id="text_4">
      <!-- 0 -->
      <g style="fill: #262626" transform="translate(284.789286 398.637812) scale(0.1 -0.1)">
       <use xlink:href="#ArialMT-30"/>
      </g>
     </g>
    </g>
    <g id="xtick_5">
     <g id="line2d_5">
      <path d="M 347.797923 384.48 
L 347.797923 51.84 
" clip-path="url(#peb04ccc279)" style="fill: none; stroke: #ffffff; stroke-width: 0.8; stroke-linecap: round"/>
     </g>
     <g id="text_5">
      <!-- 5 -->
      <g style="fill: #262626" transform="translate(345.017455 398.637812) scale(0.1 -0.1)">
       <use xlink:href="#ArialMT-35"/>
      </g>
     </g>
    </g>
    <g id="xtick_6">
     <g id="line2d_6">
      <path d="M 408.026092 384.48 
L 408.026092 51.84 
" clip-path="url(#peb04ccc279)" style="fill: none; stroke: #ffffff; stroke-width: 0.8; stroke-linecap: round"/>
     </g>
     <g id="text_6">
      <!-- 10 -->
      <g style="fill: #262626" transform="translate(402.465155 398.637812) scale(0.1 -0.1)">
       <use xlink:href="#ArialMT-31"/>
       <use xlink:href="#ArialMT-30" x="55.615234"/>
      </g>
     </g>
    </g>
    <g id="xtick_7">
     <g id="line2d_7">
      <path d="M 468.254261 384.48 
L 468.254261 51.84 
" clip-path="url(#peb04ccc279)" style="fill: none; stroke: #ffffff; stroke-width: 0.8; stroke-linecap: round"/>
     </g>
     <g id="text_7">
      <!-- 15 -->
      <g style="fill: #262626" transform="translate(462.693323 398.637812) scale(0.1 -0.1)">
       <use xlink:href="#ArialMT-31"/>
       <use xlink:href="#ArialMT-35" x="55.615234"/>
      </g>
     </g>
    </g>
    <g id="text_8">
     <!-- Minimum Temperature Predictive Error (°C) -->
     <g style="fill: #262626" transform="translate(199.3875 411.905) scale(0.1 -0.1)">
      <defs>
       <path id="ArialMT-4d" d="M 475 0 
L 475 4581 
L 1388 4581 
L 2472 1338 
Q 2622 884 2691 659 
Q 2769 909 2934 1394 
L 4031 4581 
L 4847 4581 
L 4847 0 
L 4263 0 
L 4263 3834 
L 2931 0 
L 2384 0 
L 1059 3900 
L 1059 0 
L 475 0 
z
" transform="scale(0.015625)"/>
       <path id="ArialMT-69" d="M 425 3934 
L 425 4581 
L 988 4581 
L 988 3934 
L 425 3934 
z
M 425 0 
L 425 3319 
L 988 3319 
L 988 0 
L 425 0 
z
" transform="scale(0.015625)"/>
       <path id="ArialMT-6e" d="M 422 0 
L 422 3319 
L 928 3319 
L 928 2847 
Q 1294 3394 1984 3394 
Q 2284 3394 2536 3286 
Q 2788 3178 2913 3003 
Q 3038 2828 3088 2588 
Q 3119 2431 3119 2041 
L 3119 0 
L 2556 0 
L 2556 2019 
Q 2556 2363 2490 2533 
Q 2425 2703 2258 2804 
Q 2091 2906 1866 2906 
Q 1506 2906 1245 2678 
Q 984 2450 984 1813 
L 984 0 
L 422 0 
z
" transform="scale(0.015625)"/>
       <path id="ArialMT-6d" d="M 422 0 
L 422 3319 
L 925 3319 
L 925 2853 
Q 1081 3097 1340 3245 
Q 1600 3394 1931 3394 
Q 2300 3394 2536 3241 
Q 2772 3088 2869 2813 
Q 3263 3394 3894 3394 
Q 4388 3394 4653 3120 
Q 4919 2847 4919 2278 
L 4919 0 
L 4359 0 
L 4359 2091 
Q 4359 2428 4304 2576 
Q 4250 2725 4106 2815 
Q 3963 2906 3769 2906 
Q 3419 2906 3187 2673 
Q 2956 2441 2956 1928 
L 2956 0 
L 2394 0 
L 2394 2156 
Q 2394 2531 2256 2718 
Q 2119 2906 1806 2906 
Q 1569 2906 1367 2781 
Q 1166 2656 1075 2415 
Q 984 2175 984 1722 
L 984 0 
L 422 0 
z
" transform="scale(0.015625)"/>
       <path id="ArialMT-75" d="M 2597 0 
L 2597 488 
Q 2209 -75 1544 -75 
Q 1250 -75 995 37 
Q 741 150 617 320 
Q 494 491 444 738 
Q 409 903 409 1263 
L 409 3319 
L 972 3319 
L 972 1478 
Q 972 1038 1006 884 
Q 1059 663 1231 536 
Q 1403 409 1656 409 
Q 1909 409 2131 539 
Q 2353 669 2445 892 
Q 2538 1116 2538 1541 
L 2538 3319 
L 3100 3319 
L 3100 0 
L 2597 0 
z
" transform="scale(0.015625)"/>
       <path id="ArialMT-20" transform="scale(0.015625)"/>
       <path id="ArialMT-54" d="M 1659 0 
L 1659 4041 
L 150 4041 
L 150 4581 
L 3781 4581 
L 3781 4041 
L 2266 4041 
L 2266 0 
L 1659 0 
z
" transform="scale(0.015625)"/>
       <path id="ArialMT-65" d="M 2694 1069 
L 3275 997 
Q 3138 488 2766 206 
Q 2394 -75 1816 -75 
Q 1088 -75 661 373 
Q 234 822 234 1631 
Q 234 2469 665 2931 
Q 1097 3394 1784 3394 
Q 2450 3394 2872 2941 
Q 3294 2488 3294 1666 
Q 3294 1616 3291 1516 
L 816 1516 
Q 847 969 1125 678 
Q 1403 388 1819 388 
Q 2128 388 2347 550 
Q 2566 713 2694 1069 
z
M 847 1978 
L 2700 1978 
Q 2663 2397 2488 2606 
Q 2219 2931 1791 2931 
Q 1403 2931 1139 2672 
Q 875 2413 847 1978 
z
" transform="scale(0.015625)"/>
       <path id="ArialMT-70" d="M 422 -1272 
L 422 3319 
L 934 3319 
L 934 2888 
Q 1116 3141 1344 3267 
Q 1572 3394 1897 3394 
Q 2322 3394 2647 3175 
Q 2972 2956 3137 2557 
Q 3303 2159 3303 1684 
Q 3303 1175 3120 767 
Q 2938 359 2589 142 
Q 2241 -75 1856 -75 
Q 1575 -75 1351 44 
Q 1128 163 984 344 
L 984 -1272 
L 422 -1272 
z
M 931 1641 
Q 931 1000 1190 694 
Q 1450 388 1819 388 
Q 2194 388 2461 705 
Q 2728 1022 2728 1688 
Q 2728 2322 2467 2637 
Q 2206 2953 1844 2953 
Q 1484 2953 1207 2617 
Q 931 2281 931 1641 
z
" transform="scale(0.015625)"/>
       <path id="ArialMT-72" d="M 416 0 
L 416 3319 
L 922 3319 
L 922 2816 
Q 1116 3169 1280 3281 
Q 1444 3394 1641 3394 
Q 1925 3394 2219 3213 
L 2025 2691 
Q 1819 2813 1613 2813 
Q 1428 2813 1281 2702 
Q 1134 2591 1072 2394 
Q 978 2094 978 1738 
L 978 0 
L 416 0 
z
" transform="scale(0.015625)"/>
       <path id="ArialMT-61" d="M 2588 409 
Q 2275 144 1986 34 
Q 1697 -75 1366 -75 
Q 819 -75 525 192 
Q 231 459 231 875 
Q 231 1119 342 1320 
Q 453 1522 633 1644 
Q 813 1766 1038 1828 
Q 1203 1872 1538 1913 
Q 2219 1994 2541 2106 
Q 2544 2222 2544 2253 
Q 2544 2597 2384 2738 
Q 2169 2928 1744 2928 
Q 1347 2928 1158 2789 
Q 969 2650 878 2297 
L 328 2372 
Q 403 2725 575 2942 
Q 747 3159 1072 3276 
Q 1397 3394 1825 3394 
Q 2250 3394 2515 3294 
Q 2781 3194 2906 3042 
Q 3031 2891 3081 2659 
Q 3109 2516 3109 2141 
L 3109 1391 
Q 3109 606 3145 398 
Q 3181 191 3288 0 
L 2700 0 
Q 2613 175 2588 409 
z
M 2541 1666 
Q 2234 1541 1622 1453 
Q 1275 1403 1131 1340 
Q 988 1278 909 1158 
Q 831 1038 831 891 
Q 831 666 1001 516 
Q 1172 366 1500 366 
Q 1825 366 2078 508 
Q 2331 650 2450 897 
Q 2541 1088 2541 1459 
L 2541 1666 
z
" transform="scale(0.015625)"/>
       <path id="ArialMT-74" d="M 1650 503 
L 1731 6 
Q 1494 -44 1306 -44 
Q 1000 -44 831 53 
Q 663 150 594 308 
Q 525 466 525 972 
L 525 2881 
L 113 2881 
L 113 3319 
L 525 3319 
L 525 4141 
L 1084 4478 
L 1084 3319 
L 1650 3319 
L 1650 2881 
L 1084 2881 
L 1084 941 
Q 1084 700 1114 631 
Q 1144 563 1211 522 
Q 1278 481 1403 481 
Q 1497 481 1650 503 
z
" transform="scale(0.015625)"/>
       <path id="ArialMT-50" d="M 494 0 
L 494 4581 
L 2222 4581 
Q 2678 4581 2919 4538 
Q 3256 4481 3484 4323 
Q 3713 4166 3852 3881 
Q 3991 3597 3991 3256 
Q 3991 2672 3619 2267 
Q 3247 1863 2275 1863 
L 1100 1863 
L 1100 0 
L 494 0 
z
M 1100 2403 
L 2284 2403 
Q 2872 2403 3119 2622 
Q 3366 2841 3366 3238 
Q 3366 3525 3220 3729 
Q 3075 3934 2838 4000 
Q 2684 4041 2272 4041 
L 1100 4041 
L 1100 2403 
z
" transform="scale(0.015625)"/>
       <path id="ArialMT-64" d="M 2575 0 
L 2575 419 
Q 2259 -75 1647 -75 
Q 1250 -75 917 144 
Q 584 363 401 755 
Q 219 1147 219 1656 
Q 219 2153 384 2558 
Q 550 2963 881 3178 
Q 1213 3394 1622 3394 
Q 1922 3394 2156 3267 
Q 2391 3141 2538 2938 
L 2538 4581 
L 3097 4581 
L 3097 0 
L 2575 0 
z
M 797 1656 
Q 797 1019 1065 703 
Q 1334 388 1700 388 
Q 2069 388 2326 689 
Q 2584 991 2584 1609 
Q 2584 2291 2321 2609 
Q 2059 2928 1675 2928 
Q 1300 2928 1048 2622 
Q 797 2316 797 1656 
z
" transform="scale(0.015625)"/>
       <path id="ArialMT-63" d="M 2588 1216 
L 3141 1144 
Q 3050 572 2676 248 
Q 2303 -75 1759 -75 
Q 1078 -75 664 370 
Q 250 816 250 1647 
Q 250 2184 428 2587 
Q 606 2991 970 3192 
Q 1334 3394 1763 3394 
Q 2303 3394 2647 3120 
Q 2991 2847 3088 2344 
L 2541 2259 
Q 2463 2594 2264 2762 
Q 2066 2931 1784 2931 
Q 1359 2931 1093 2626 
Q 828 2322 828 1663 
Q 828 994 1084 691 
Q 1341 388 1753 388 
Q 2084 388 2306 591 
Q 2528 794 2588 1216 
z
" transform="scale(0.015625)"/>
       <path id="ArialMT-76" d="M 1344 0 
L 81 3319 
L 675 3319 
L 1388 1331 
Q 1503 1009 1600 663 
Q 1675 925 1809 1294 
L 2547 3319 
L 3125 3319 
L 1869 0 
L 1344 0 
z
" transform="scale(0.015625)"/>
       <path id="ArialMT-45" d="M 506 0 
L 506 4581 
L 3819 4581 
L 3819 4041 
L 1113 4041 
L 1113 2638 
L 3647 2638 
L 3647 2100 
L 1113 2100 
L 1113 541 
L 3925 541 
L 3925 0 
L 506 0 
z
" transform="scale(0.015625)"/>
       <path id="ArialMT-6f" d="M 213 1659 
Q 213 2581 725 3025 
Q 1153 3394 1769 3394 
Q 2453 3394 2887 2945 
Q 3322 2497 3322 1706 
Q 3322 1066 3130 698 
Q 2938 331 2570 128 
Q 2203 -75 1769 -75 
Q 1072 -75 642 372 
Q 213 819 213 1659 
z
M 791 1659 
Q 791 1022 1069 705 
Q 1347 388 1769 388 
Q 2188 388 2466 706 
Q 2744 1025 2744 1678 
Q 2744 2294 2464 2611 
Q 2184 2928 1769 2928 
Q 1347 2928 1069 2612 
Q 791 2297 791 1659 
z
" transform="scale(0.015625)"/>
       <path id="ArialMT-28" d="M 1497 -1347 
Q 1031 -759 709 28 
Q 388 816 388 1659 
Q 388 2403 628 3084 
Q 909 3875 1497 4659 
L 1900 4659 
Q 1522 4009 1400 3731 
Q 1209 3300 1100 2831 
Q 966 2247 966 1656 
Q 966 153 1900 -1347 
L 1497 -1347 
z
" transform="scale(0.015625)"/>
       <path id="ArialMT-b0" d="M 400 3794 
Q 400 4153 654 4406 
Q 909 4659 1266 4659 
Q 1628 4659 1881 4406 
Q 2134 4153 2134 3794 
Q 2134 3434 1879 3179 
Q 1625 2925 1266 2925 
Q 909 2925 654 3178 
Q 400 3431 400 3794 
z
M 741 3794 
Q 741 3575 895 3420 
Q 1050 3266 1269 3266 
Q 1484 3266 1639 3420 
Q 1794 3575 1794 3794 
Q 1794 4013 1639 4167 
Q 1484 4322 1269 4322 
Q 1050 4322 895 4167 
Q 741 4013 741 3794 
z
" transform="scale(0.015625)"/>
       <path id="ArialMT-43" d="M 3763 1606 
L 4369 1453 
Q 4178 706 3683 314 
Q 3188 -78 2472 -78 
Q 1731 -78 1267 223 
Q 803 525 561 1097 
Q 319 1669 319 2325 
Q 319 3041 592 3573 
Q 866 4106 1370 4382 
Q 1875 4659 2481 4659 
Q 3169 4659 3637 4309 
Q 4106 3959 4291 3325 
L 3694 3184 
Q 3534 3684 3231 3912 
Q 2928 4141 2469 4141 
Q 1941 4141 1586 3887 
Q 1231 3634 1087 3207 
Q 944 2781 944 2328 
Q 944 1744 1114 1308 
Q 1284 872 1643 656 
Q 2003 441 2422 441 
Q 2931 441 3284 734 
Q 3638 1028 3763 1606 
z
" transform="scale(0.015625)"/>
       <path id="ArialMT-29" d="M 791 -1347 
L 388 -1347 
Q 1322 153 1322 1656 
Q 1322 2244 1188 2822 
Q 1081 3291 891 3722 
Q 769 4003 388 4659 
L 791 4659 
Q 1378 3875 1659 3084 
Q 1900 2403 1900 1659 
Q 1900 816 1576 28 
Q 1253 -759 791 -1347 
z
" transform="scale(0.015625)"/>
      </defs>
      <use xlink:href="#ArialMT-4d"/>
      <use xlink:href="#ArialMT-69" x="83.300781"/>
      <use xlink:href="#ArialMT-6e" x="105.517578"/>
      <use xlink:href="#ArialMT-69" x="161.132812"/>
      <use xlink:href="#ArialMT-6d" x="183.349609"/>
      <use xlink:href="#ArialMT-75" x="266.650391"/>
      <use xlink:href="#ArialMT-6d" x="322.265625"/>
      <use xlink:href="#ArialMT-20" x="405.566406"/>
      <use xlink:href="#ArialMT-54" x="431.599609"/>
      <use xlink:href="#ArialMT-65" x="481.558594"/>
      <use xlink:href="#ArialMT-6d" x="537.173828"/>
      <use xlink:href="#ArialMT-70" x="620.474609"/>
      <use xlink:href="#ArialMT-65" x="676.089844"/>
      <use xlink:href="#ArialMT-72" x="731.705078"/>
      <use xlink:href="#ArialMT-61" x="765.005859"/>
      <use xlink:href="#ArialMT-74" x="820.621094"/>
      <use xlink:href="#ArialMT-75" x="848.404297"/>
      <use xlink:href="#ArialMT-72" x="904.019531"/>
      <use xlink:href="#ArialMT-65" x="937.320312"/>
      <use xlink:href="#ArialMT-20" x="992.935547"/>
      <use xlink:href="#ArialMT-50" x="1020.71875"/>
      <use xlink:href="#ArialMT-72" x="1087.417969"/>
      <use xlink:href="#ArialMT-65" x="1120.71875"/>
      <use xlink:href="#ArialMT-64" x="1176.333984"/>
      <use xlink:href="#ArialMT-69" x="1231.949219"/>
      <use xlink:href="#ArialMT-63" x="1254.166016"/>
      <use xlink:href="#ArialMT-74" x="1304.166016"/>
      <use xlink:href="#ArialMT-69" x="1331.949219"/>
      <use xlink:href="#ArialMT-76" x="1354.166016"/>
      <use xlink:href="#ArialMT-65" x="1404.166016"/>
      <use xlink:href="#ArialMT-20" x="1459.78125"/>
      <use xlink:href="#ArialMT-45" x="1487.564453"/>
      <use xlink:href="#ArialMT-72" x="1554.263672"/>
      <use xlink:href="#ArialMT-72" x="1587.564453"/>
      <use xlink:href="#ArialMT-6f" x="1620.865234"/>
      <use xlink:href="#ArialMT-72" x="1676.480469"/>
      <use xlink:href="#ArialMT-20" x="1709.78125"/>
      <use xlink:href="#ArialMT-28" x="1737.564453"/>
      <use xlink:href="#ArialMT-b0" x="1770.865234"/>
      <use xlink:href="#ArialMT-43" x="1810.855469"/>
      <use xlink:href="#ArialMT-29" x="1883.072266"/>
     </g>
    </g>
   </g>
   <g id="matplotlib.axis_2">
    <g id="ytick_1">
     <g id="line2d_8">
      <path d="M 72 384.48 
L 518.4 384.48 
" clip-path="url(#peb04ccc279)" style="fill: none; stroke: #ffffff; stroke-width: 0.8; stroke-linecap: round"/>
     </g>
     <g id="text_9">
      <!-- 0.00 -->
      <g style="fill: #262626" transform="translate(45.539062 388.058906) scale(0.1 -0.1)">
       <defs>
        <path id="ArialMT-2e" d="M 581 0 
L 581 641 
L 1222 641 
L 1222 0 
L 581 0 
z
" transform="scale(0.015625)"/>
       </defs>
       <use xlink:href="#ArialMT-30"/>
       <use xlink:href="#ArialMT-2e" x="55.615234"/>
       <use xlink:href="#ArialMT-30" x="83.398438"/>
       <use xlink:href="#ArialMT-30" x="139.013672"/>
      </g>
     </g>
    </g>
    <g id="ytick_2">
     <g id="line2d_9">
      <path d="M 72 327.134912 
L 518.4 327.134912 
" clip-path="url(#peb04ccc279)" style="fill: none; stroke: #ffffff; stroke-width: 0.8; stroke-linecap: round"/>
     </g>
     <g id="text_10">
      <!-- 0.05 -->
      <g style="fill: #262626" transform="translate(45.539062 330.713818) scale(0.1 -0.1)">
       <use xlink:href="#ArialMT-30"/>
       <use xlink:href="#ArialMT-2e" x="55.615234"/>
       <use xlink:href="#ArialMT-30" x="83.398438"/>
       <use xlink:href="#ArialMT-35" x="139.013672"/>
      </g>
     </g>
    </g>
    <g id="ytick_3">
     <g id="line2d_10">
      <path d="M 72 269.789824 
L 518.4 269.789824 
" clip-path="url(#peb04ccc279)" style="fill: none; stroke: #ffffff; stroke-width: 0.8; stroke-linecap: round"/>
     </g>
     <g id="text_11">
      <!-- 0.10 -->
      <g style="fill: #262626" transform="translate(45.539062 273.36873) scale(0.1 -0.1)">
       <use xlink:href="#ArialMT-30"/>
       <use xlink:href="#ArialMT-2e" x="55.615234"/>
       <use xlink:href="#ArialMT-31" x="83.398438"/>
       <use xlink:href="#ArialMT-30" x="139.013672"/>
      </g>
     </g>
    </g>
    <g id="ytick_4">
     <g id="line2d_11">
      <path d="M 72 212.444735 
L 518.4 212.444735 
" clip-path="url(#peb04ccc279)" style="fill: none; stroke: #ffffff; stroke-width: 0.8; stroke-linecap: round"/>
     </g>
     <g id="text_12">
      <!-- 0.15 -->
      <g style="fill: #262626" transform="translate(45.539062 216.023642) scale(0.1 -0.1)">
       <use xlink:href="#ArialMT-30"/>
       <use xlink:href="#ArialMT-2e" x="55.615234"/>
       <use xlink:href="#ArialMT-31" x="83.398438"/>
       <use xlink:href="#ArialMT-35" x="139.013672"/>
      </g>
     </g>
    </g>
    <g id="ytick_5">
     <g id="line2d_12">
      <path d="M 72 155.099647 
L 518.4 155.099647 
" clip-path="url(#peb04ccc279)" style="fill: none; stroke: #ffffff; stroke-width: 0.8; stroke-linecap: round"/>
     </g>
     <g id="text_13">
      <!-- 0.20 -->
      <g style="fill: #262626" transform="translate(45.539062 158.678553) scale(0.1 -0.1)">
       <defs>
        <path id="ArialMT-32" d="M 3222 541 
L 3222 0 
L 194 0 
Q 188 203 259 391 
Q 375 700 629 1000 
Q 884 1300 1366 1694 
Q 2113 2306 2375 2664 
Q 2638 3022 2638 3341 
Q 2638 3675 2398 3904 
Q 2159 4134 1775 4134 
Q 1369 4134 1125 3890 
Q 881 3647 878 3216 
L 300 3275 
Q 359 3922 746 4261 
Q 1134 4600 1788 4600 
Q 2447 4600 2831 4234 
Q 3216 3869 3216 3328 
Q 3216 3053 3103 2787 
Q 2991 2522 2730 2228 
Q 2469 1934 1863 1422 
Q 1356 997 1212 845 
Q 1069 694 975 541 
L 3222 541 
z
" transform="scale(0.015625)"/>
       </defs>
       <use xlink:href="#ArialMT-30"/>
       <use xlink:href="#ArialMT-2e" x="55.615234"/>
       <use xlink:href="#ArialMT-32" x="83.398438"/>
       <use xlink:href="#ArialMT-30" x="139.013672"/>
      </g>
     </g>
    </g>
    <g id="ytick_6">
     <g id="line2d_13">
      <path d="M 72 97.754559 
L 518.4 97.754559 
" clip-path="url(#peb04ccc279)" style="fill: none; stroke: #ffffff; stroke-width: 0.8; stroke-linecap: round"/>
     </g>
     <g id="text_14">
      <!-- 0.25 -->
      <g style="fill: #262626" transform="translate(45.539062 101.333465) scale(0.1 -0.1)">
       <use xlink:href="#ArialMT-30"/>
       <use xlink:href="#ArialMT-2e" x="55.615234"/>
       <use xlink:href="#ArialMT-32" x="83.398438"/>
       <use xlink:href="#ArialMT-35" x="139.013672"/>
      </g>
     </g>
    </g>
    <g id="text_15">
     <!-- Density -->
     <g style="fill: #262626" transform="translate(39.434375 234.831875) rotate(-90) scale(0.1 -0.1)">
      <defs>
       <path id="ArialMT-44" d="M 494 0 
L 494 4581 
L 2072 4581 
Q 2606 4581 2888 4516 
Q 3281 4425 3559 4188 
Q 3922 3881 4101 3404 
Q 4281 2928 4281 2316 
Q 4281 1794 4159 1391 
Q 4038 988 3847 723 
Q 3656 459 3429 307 
Q 3203 156 2883 78 
Q 2563 0 2147 0 
L 494 0 
z
M 1100 541 
L 2078 541 
Q 2531 541 2789 625 
Q 3047 709 3200 863 
Q 3416 1078 3536 1442 
Q 3656 1806 3656 2325 
Q 3656 3044 3420 3430 
Q 3184 3816 2847 3947 
Q 2603 4041 2063 4041 
L 1100 4041 
L 1100 541 
z
" transform="scale(0.015625)"/>
       <path id="ArialMT-73" d="M 197 991 
L 753 1078 
Q 800 744 1014 566 
Q 1228 388 1613 388 
Q 2000 388 2187 545 
Q 2375 703 2375 916 
Q 2375 1106 2209 1216 
Q 2094 1291 1634 1406 
Q 1016 1563 777 1677 
Q 538 1791 414 1992 
Q 291 2194 291 2438 
Q 291 2659 392 2848 
Q 494 3038 669 3163 
Q 800 3259 1026 3326 
Q 1253 3394 1513 3394 
Q 1903 3394 2198 3281 
Q 2494 3169 2634 2976 
Q 2775 2784 2828 2463 
L 2278 2388 
Q 2241 2644 2061 2787 
Q 1881 2931 1553 2931 
Q 1166 2931 1000 2803 
Q 834 2675 834 2503 
Q 834 2394 903 2306 
Q 972 2216 1119 2156 
Q 1203 2125 1616 2013 
Q 2213 1853 2448 1751 
Q 2684 1650 2818 1456 
Q 2953 1263 2953 975 
Q 2953 694 2789 445 
Q 2625 197 2315 61 
Q 2006 -75 1616 -75 
Q 969 -75 630 194 
Q 291 463 197 991 
z
" transform="scale(0.015625)"/>
       <path id="ArialMT-79" d="M 397 -1278 
L 334 -750 
Q 519 -800 656 -800 
Q 844 -800 956 -737 
Q 1069 -675 1141 -563 
Q 1194 -478 1313 -144 
Q 1328 -97 1363 -6 
L 103 3319 
L 709 3319 
L 1400 1397 
Q 1534 1031 1641 628 
Q 1738 1016 1872 1384 
L 2581 3319 
L 3144 3319 
L 1881 -56 
Q 1678 -603 1566 -809 
Q 1416 -1088 1222 -1217 
Q 1028 -1347 759 -1347 
Q 597 -1347 397 -1278 
z
" transform="scale(0.015625)"/>
      </defs>
      <use xlink:href="#ArialMT-44"/>
      <use xlink:href="#ArialMT-65" x="72.216797"/>
      <use xlink:href="#ArialMT-6e" x="127.832031"/>
      <use xlink:href="#ArialMT-73" x="183.447266"/>
      <use xlink:href="#ArialMT-69" x="233.447266"/>
      <use xlink:href="#ArialMT-74" x="255.664062"/>
      <use xlink:href="#ArialMT-79" x="283.447266"/>
     </g>
    </g>
   </g>
   <g id="line2d_14">
    <path d="M 114.148872 384.460129 
L 118.784548 384.346213 
L 121.874999 384.120838 
L 124.96545 383.711647 
L 131.146351 382.70048 
L 134.236802 382.553034 
L 137.327253 382.81463 
L 145.05338 383.948183 
L 148.143831 384.030261 
L 151.234282 383.814589 
L 160.505634 382.664498 
L 163.596085 382.722435 
L 172.867437 383.452939 
L 175.957888 383.167287 
L 179.048339 382.53541 
L 183.684015 381.233852 
L 188.319692 380.014414 
L 191.410142 379.515991 
L 194.500593 379.333251 
L 200.681495 379.215446 
L 205.317171 378.745645 
L 209.952847 378.321642 
L 216.133749 377.951635 
L 219.2242 377.512091 
L 226.950327 375.966534 
L 228.495552 375.556994 
L 230.040778 375.004674 
L 231.586003 374.233554 
L 233.131229 373.171367 
L 234.676454 371.757866 
L 236.22168 369.947516 
L 237.766905 367.70783 
L 239.31213 365.01747 
L 240.857356 361.868846 
L 242.402581 358.277326 
L 245.493032 350.016811 
L 250.128708 336.914376 
L 251.673934 332.946632 
L 253.219159 329.30741 
L 256.30961 322.833708 
L 259.400061 316.647673 
L 260.945286 313.272551 
L 262.490512 309.446618 
L 264.035737 304.909506 
L 265.580962 299.338289 
L 267.126188 292.364964 
L 268.671413 283.621719 
L 270.216639 272.803913 
L 271.761864 259.733198 
L 273.30709 244.403893 
L 274.852315 227.003243 
L 277.942766 187.647882 
L 281.033217 146.385557 
L 282.578442 126.910276 
L 284.123667 109.235585 
L 285.668893 94.063734 
L 287.214118 81.980841 
L 288.759344 73.417773 
L 290.304569 68.627231 
L 291.849795 67.679694 
L 293.39502 70.477041 
L 294.940245 76.779722 
L 296.485471 86.241783 
L 298.030696 98.447577 
L 299.575922 112.944318 
L 301.121147 129.265864 
L 304.211598 165.518119 
L 308.847274 221.910317 
L 310.3925 239.379281 
L 311.937725 255.475665 
L 313.48295 269.888792 
L 315.028176 282.441568 
L 316.573401 293.1175 
L 318.118627 302.062521 
L 319.663852 309.557542 
L 321.209077 315.966481 
L 324.299528 327.011821 
L 332.025655 352.998152 
L 333.570881 357.701356 
L 335.116106 361.936538 
L 336.661332 365.618579 
L 338.206557 368.721606 
L 339.751782 371.275296 
L 341.297008 373.349304 
L 342.842233 375.032015 
L 344.387459 376.410405 
L 345.932684 377.55614 
L 347.477909 378.52006 
L 349.023135 379.333972 
L 352.113586 380.580087 
L 355.204037 381.391926 
L 358.294487 381.863373 
L 362.930164 382.199685 
L 367.56584 382.528849 
L 376.837192 383.490359 
L 379.927643 383.531152 
L 387.65377 383.469769 
L 395.379897 383.620229 
L 403.106024 383.499044 
L 407.741701 383.807046 
L 413.922602 384.29162 
L 420.103504 384.458677 
L 421.648729 384.469269 
L 421.648729 384.469269 
" clip-path="url(#peb04ccc279)" style="fill: none; stroke: #1f77b4; stroke-width: 1.5; stroke-linecap: round"/>
   </g>
   <g id="line2d_15">
    <path d="M 92.290909 384.472447 
L 102.121845 384.373442 
L 109.986594 384.052788 
L 117.851343 383.458337 
L 131.614654 382.305388 
L 135.547029 382.19747 
L 147.344152 382.153707 
L 151.276527 381.845368 
L 159.141276 381.093254 
L 163.07365 380.963108 
L 168.972212 381.119364 
L 174.870774 381.310395 
L 178.803148 381.225115 
L 182.735523 380.842597 
L 186.667897 380.098917 
L 190.600272 379.000271 
L 194.532646 377.617504 
L 200.431208 375.196965 
L 210.262144 371.013343 
L 214.194519 369.623534 
L 220.093081 367.704485 
L 224.025455 366.112209 
L 225.991642 365.106543 
L 227.95783 363.925344 
L 229.924017 362.551911 
L 231.890204 360.975336 
L 233.856392 359.188109 
L 235.822579 357.184526 
L 237.788766 354.960276 
L 239.754953 352.512905 
L 241.721141 349.842545 
L 243.687328 346.952365 
L 247.619702 340.53913 
L 251.552077 333.337519 
L 255.484451 325.361398 
L 257.450639 321.030618 
L 259.416826 316.39304 
L 261.383013 311.34814 
L 263.3492 305.763413 
L 265.315388 299.485596 
L 267.281575 292.361167 
L 269.247762 284.264096 
L 271.213949 275.126646 
L 273.180137 264.967539 
L 275.146324 253.911506 
L 283.011073 206.797263 
L 284.97726 196.363441 
L 286.943447 187.29513 
L 288.909635 179.901428 
L 290.875822 174.399461 
L 292.842009 170.919774 
L 294.808196 169.524758 
L 296.774384 170.231109 
L 298.740571 173.026098 
L 300.706758 177.869846 
L 302.672945 184.681702 
L 304.639133 193.315858 
L 306.60532 203.536997 
L 308.571507 215.008446 
L 316.436256 264.285917 
L 318.402443 275.231034 
L 320.368631 285.033737 
L 322.334818 293.621036 
L 324.301005 301.03626 
L 326.267193 307.404083 
L 328.23338 312.889816 
L 330.199567 317.663016 
L 332.165754 321.87263 
L 334.131942 325.636489 
L 336.098129 329.04352 
L 338.064316 332.163728 
L 341.996691 337.793522 
L 353.793814 353.421967 
L 357.726189 358.356052 
L 361.658563 362.745877 
L 365.590938 366.573113 
L 369.523312 370.004949 
L 373.455687 373.153886 
L 377.388061 375.969931 
L 381.320436 378.332096 
L 383.286623 379.318496 
L 385.25281 380.17395 
L 389.185185 381.518631 
L 393.117559 382.450639 
L 397.049934 383.083632 
L 402.948495 383.707132 
L 408.847057 384.114819 
L 414.745619 384.345754 
L 422.610368 384.410104 
L 430.475117 384.220384 
L 450.13699 383.380983 
L 456.035551 383.523473 
L 475.697424 384.412045 
L 483.562173 384.472449 
L 483.562173 384.472449 
" clip-path="url(#peb04ccc279)" style="fill: none; stroke: #ff7f0e; stroke-width: 1.5; stroke-linecap: round"/>
   </g>
   <g id="line2d_16">
    <path d="M 93.673957 384.473349 
L 105.867981 384.367432 
L 116.029668 384.026892 
L 128.223692 383.38708 
L 134.320704 382.859951 
L 138.385379 382.320748 
L 144.482391 381.209968 
L 152.61174 379.593284 
L 156.676415 379.05092 
L 160.74109 378.849166 
L 164.805764 378.991932 
L 176.999788 379.979008 
L 179.032126 379.955477 
L 181.064463 379.820136 
L 183.0968 379.561249 
L 185.129138 379.173722 
L 187.161475 378.659835 
L 191.22615 377.298774 
L 195.290825 375.624632 
L 205.452511 371.038534 
L 211.549523 368.095834 
L 217.646536 364.803627 
L 227.808222 358.905458 
L 231.872897 356.389341 
L 235.937572 353.528128 
L 237.969909 351.878868 
L 240.002246 350.033216 
L 242.034584 347.954771 
L 244.066921 345.609909 
L 246.099259 342.967992 
L 248.131596 340.000444 
L 250.163933 336.678794 
L 252.196271 332.972264 
L 254.228608 328.846007 
L 256.260945 324.261364 
L 258.293283 319.179339 
L 260.32562 313.56768 
L 262.357957 307.410614 
L 264.390295 300.7189 
L 266.422632 293.536957 
L 270.487307 278.047196 
L 280.648994 237.944753 
L 284.713668 223.129503 
L 286.746006 216.324028 
L 288.778343 210.154308 
L 290.81068 204.876231 
L 292.843018 200.79015 
L 294.875355 198.203571 
L 296.907692 197.383546 
L 298.94003 198.509399 
L 300.972367 201.63674 
L 303.004705 206.680936 
L 305.037042 213.423354 
L 307.069379 221.538225 
L 309.101717 230.63347 
L 317.231066 269.073753 
L 319.263403 277.721756 
L 321.295741 285.652225 
L 323.328078 292.822364 
L 325.360415 299.243165 
L 327.392753 304.96644 
L 329.42509 310.072174 
L 331.457428 314.656259 
L 333.489765 318.818554 
L 335.522102 322.651643 
L 339.586777 329.609978 
L 343.651452 335.850277 
L 345.683789 338.704991 
L 347.716126 341.361358 
L 349.748464 343.805202 
L 351.780801 346.033463 
L 353.813138 348.058191 
L 357.877813 351.615467 
L 363.974825 356.3179 
L 380.233524 368.463518 
L 384.298199 371.179558 
L 388.362874 373.649555 
L 392.427548 375.843299 
L 396.492223 377.745175 
L 400.556898 379.364291 
L 404.621572 380.729114 
L 408.686247 381.86491 
L 412.750922 382.777579 
L 416.815597 383.461489 
L 420.880271 383.920923 
L 424.944946 384.181517 
L 431.041958 384.286655 
L 439.171308 384.092456 
L 453.397669 383.649812 
L 461.527018 383.633735 
L 469.656368 383.809451 
L 489.979741 384.429393 
L 498.109091 384.473353 
L 498.109091 384.473353 
" clip-path="url(#peb04ccc279)" style="fill: none; stroke: #2ca02c; stroke-width: 1.5; stroke-linecap: round"/>
   </g>
   <g id="line2d_17">
    <path d="M 105.974296 384.47027 
L 115.365441 384.371153 
L 121.000128 384.137101 
L 124.756586 383.825762 
L 128.513044 383.339638 
L 132.269502 382.655305 
L 136.02596 381.785034 
L 151.051791 377.975447 
L 154.808249 377.421809 
L 158.564707 377.141146 
L 162.321165 377.109586 
L 167.955852 377.356114 
L 173.590539 377.603558 
L 177.346997 377.575186 
L 181.103455 377.30255 
L 184.859913 376.762437 
L 188.616371 375.977103 
L 194.251058 374.464808 
L 201.763973 372.129915 
L 207.39866 370.144835 
L 211.155118 368.556718 
L 214.911576 366.601035 
L 216.789805 365.441646 
L 218.668034 364.140407 
L 220.546263 362.685096 
L 222.424492 361.067611 
L 224.302721 359.285071 
L 228.059179 355.243368 
L 231.815637 350.653617 
L 235.572095 345.666158 
L 241.206781 337.69773 
L 244.963239 332.048612 
L 248.719697 325.925262 
L 250.597926 322.590153 
L 252.476155 319.012493 
L 254.354384 315.14691 
L 256.232613 310.953014 
L 258.110842 306.400403 
L 259.989071 301.47379 
L 261.8673 296.177501 
L 265.623758 284.606312 
L 271.258445 265.823104 
L 275.014903 253.375728 
L 278.771361 241.724902 
L 280.64959 236.340693 
L 282.527819 231.315827 
L 284.406048 226.70654 
L 286.284276 222.584744 
L 288.162505 219.042733 
L 290.040734 216.192753 
L 291.918963 214.160742 
L 293.797192 213.07482 
L 295.675421 213.050314 
L 297.55365 214.17391 
L 299.431879 216.489778 
L 301.310108 219.990149 
L 303.188337 224.611961 
L 305.066566 230.24006 
L 306.944795 236.71621 
L 308.823024 243.852282 
L 312.579482 259.292707 
L 318.214169 282.574896 
L 321.970627 296.551595 
L 323.848856 302.825525 
L 325.727085 308.569477 
L 327.605314 313.767455 
L 329.483543 318.419292 
L 331.361772 322.538666 
L 333.24 326.151999 
L 335.118229 329.29799 
L 336.996458 332.027308 
L 338.874687 334.401873 
L 340.752916 336.493168 
L 344.509374 340.139914 
L 350.144061 345.377837 
L 353.900519 349.274218 
L 363.291664 359.77787 
L 365.169893 361.618096 
L 367.048122 363.25714 
L 368.926351 364.668057 
L 370.80458 365.840565 
L 372.682809 366.781362 
L 374.561038 367.512952 
L 376.439267 368.071228 
L 380.195724 368.857354 
L 383.952182 369.551184 
L 387.70864 370.517744 
L 389.586869 371.174844 
L 393.343327 372.862991 
L 397.099785 374.938906 
L 404.612701 379.255904 
L 408.369159 381.021725 
L 412.125617 382.35738 
L 415.882075 383.261311 
L 419.638533 383.79406 
L 423.39499 384.037978 
L 427.151448 384.070567 
L 432.786135 383.866461 
L 442.17728 383.396036 
L 447.811967 383.371749 
L 453.446654 383.60497 
L 466.594257 384.296195 
L 475.985401 384.454625 
L 479.741859 384.47061 
L 479.741859 384.47061 
" clip-path="url(#peb04ccc279)" style="fill: none; stroke: #d62728; stroke-width: 1.5; stroke-linecap: round"/>
   </g>
   <g id="line2d_18">
    <path d="M 105.427409 384.46908 
L 116.126197 384.327679 
L 121.475591 384.060233 
L 126.824986 383.524728 
L 132.17438 382.665709 
L 139.306905 381.181471 
L 144.6563 380.108488 
L 150.005694 379.273563 
L 164.270745 377.425346 
L 169.620139 376.401394 
L 176.752665 374.989912 
L 180.318928 374.443538 
L 185.668322 373.900414 
L 192.800848 373.309301 
L 196.367111 372.819917 
L 199.933374 372.101543 
L 203.499636 371.142526 
L 207.065899 369.952329 
L 210.632162 368.520749 
L 214.198425 366.800261 
L 217.764688 364.725585 
L 221.330951 362.253673 
L 224.897213 359.390804 
L 228.463476 356.184423 
L 232.029739 352.684922 
L 235.596002 348.903542 
L 239.162265 344.791085 
L 242.728528 340.241503 
L 246.29479 335.104333 
L 248.077922 332.257669 
L 249.861053 329.189985 
L 251.644185 325.872103 
L 253.427316 322.274277 
L 255.210447 318.368386 
L 256.993579 314.130986 
L 258.77671 309.546919 
L 260.559842 304.612914 
L 264.126105 293.757629 
L 267.692367 281.850979 
L 276.608024 250.960345 
L 280.174287 239.658758 
L 281.957419 234.500682 
L 283.74055 229.764273 
L 285.523682 225.528323 
L 287.306813 221.879841 
L 289.089944 218.912077 
L 290.873076 216.719823 
L 292.656207 215.392357 
L 294.439339 215.004905 
L 296.22247 215.609807 
L 298.005601 217.228741 
L 299.788733 219.847242 
L 301.571864 223.412455 
L 303.354996 227.834594 
L 305.138127 232.991993 
L 306.921259 238.739139 
L 310.487521 251.361915 
L 315.836916 270.830267 
L 319.403178 282.808505 
L 321.18631 288.299397 
L 322.969441 293.430436 
L 324.752573 298.208682 
L 328.318836 306.819325 
L 331.885098 314.457611 
L 335.451361 321.49235 
L 340.800755 331.40431 
L 344.367018 337.566773 
L 347.933281 343.154406 
L 349.716413 345.670251 
L 351.499544 347.98293 
L 353.282675 350.093361 
L 355.065807 352.013908 
L 358.63207 355.377007 
L 362.198332 358.284861 
L 365.764595 360.909147 
L 369.330858 363.303031 
L 372.897121 365.414243 
L 376.463384 367.169601 
L 380.029647 368.568446 
L 385.379041 370.267034 
L 390.728435 372.047497 
L 394.294698 373.486832 
L 406.776618 378.998247 
L 410.342881 380.157295 
L 413.909144 381.034266 
L 417.475406 381.685087 
L 422.824801 382.410777 
L 431.740458 383.373224 
L 438.872983 383.962464 
L 446.005509 384.302647 
L 454.921166 384.451624 
L 460.27056 384.47286 
L 460.27056 384.47286 
" clip-path="url(#peb04ccc279)" style="fill: none; stroke: #9467bd; stroke-width: 1.5; stroke-linecap: round"/>
   </g>
   <g id="line2d_19">
    <path d="M 99.965455 384.470054 
L 111.179238 384.333795 
L 116.786129 384.087496 
L 122.39302 383.638127 
L 129.868875 382.782934 
L 139.213694 381.718879 
L 150.427476 380.484417 
L 156.034367 379.585622 
L 167.248149 377.378048 
L 178.461932 375.34508 
L 185.937787 374.108773 
L 191.544678 373.397543 
L 199.020533 372.550332 
L 202.75846 371.818886 
L 204.627424 371.285329 
L 206.496388 370.612051 
L 208.365351 369.787091 
L 210.234315 368.807546 
L 212.103279 367.679918 
L 215.841206 365.046876 
L 219.579134 362.067211 
L 227.054989 355.706348 
L 230.792916 352.377654 
L 234.530843 348.77202 
L 236.399807 346.790503 
L 238.268771 344.644908 
L 240.137735 342.301833 
L 242.006698 339.730595 
L 243.875662 336.905232 
L 245.744626 333.806208 
L 247.613589 330.421571 
L 249.482553 326.74734 
L 251.351517 322.787051 
L 255.089444 314.052462 
L 258.827372 304.343939 
L 262.565299 293.82233 
L 266.303227 282.673522 
L 279.385973 242.465186 
L 283.1239 232.212213 
L 284.992864 227.665784 
L 286.861828 223.655891 
L 288.730791 220.307838 
L 290.599755 217.748211 
L 292.468719 216.094218 
L 294.337682 215.441918 
L 296.206646 215.855174 
L 298.07561 217.357229 
L 299.944574 219.926414 
L 301.813537 223.496784 
L 303.682501 227.963609 
L 305.551465 233.192774 
L 307.420429 239.032579 
L 311.158356 251.922458 
L 320.503175 285.431006 
L 324.241102 297.79401 
L 327.979029 309.14116 
L 329.847993 314.369545 
L 331.716957 319.262445 
L 333.585921 323.7901 
L 335.454884 327.926751 
L 337.323848 331.655745 
L 339.192812 334.974386 
L 341.061776 337.897305 
L 342.930739 340.457352 
L 344.799703 342.703582 
L 346.668667 344.696524 
L 350.406594 348.181772 
L 359.751413 356.092213 
L 365.358304 360.629669 
L 369.096231 363.310403 
L 372.834159 365.610428 
L 376.572086 367.553403 
L 382.178977 370.041671 
L 398.999651 377.050129 
L 402.737578 378.319523 
L 406.475506 379.345921 
L 410.213433 380.143705 
L 415.820324 381.02639 
L 423.296179 381.887407 
L 434.509962 382.914093 
L 447.592708 383.899002 
L 455.068563 384.254135 
L 464.413381 384.439081 
L 471.889236 384.473489 
L 471.889236 384.473489 
" clip-path="url(#peb04ccc279)" style="fill: none; stroke: #8c564b; stroke-width: 1.5; stroke-linecap: round"/>
   </g>
   <g id="line2d_20">
    <path d="M 97.753759 384.473422 
L 111.460034 384.336499 
L 119.292192 384.025797 
L 127.124349 383.450543 
L 132.998467 382.83021 
L 138.872585 382.025137 
L 146.704742 380.704968 
L 154.536899 379.437544 
L 160.411017 378.792365 
L 172.159253 377.743954 
L 176.075332 377.12722 
L 181.94945 375.913566 
L 191.739646 373.78002 
L 199.571804 372.080164 
L 203.487882 370.910192 
L 207.403961 369.334035 
L 211.320039 367.336829 
L 215.236118 365.022739 
L 221.110236 361.193103 
L 225.026315 358.376851 
L 228.942393 355.195483 
L 232.858472 351.526169 
L 236.774551 347.336035 
L 240.690629 342.633799 
L 244.606708 337.342141 
L 246.564747 334.40416 
L 248.522787 331.214281 
L 250.480826 327.726087 
L 252.438865 323.899125 
L 254.396904 319.706484 
L 256.354944 315.140758 
L 258.312983 310.217051 
L 262.229062 299.461258 
L 268.10318 281.991121 
L 275.935337 258.518352 
L 279.851416 247.228589 
L 283.767494 236.498029 
L 285.725534 231.475003 
L 287.683573 226.794489 
L 289.641612 222.570528 
L 291.599651 218.935732 
L 293.557691 216.034329 
L 295.51573 214.012528 
L 297.473769 213.006989 
L 299.431809 213.132472 
L 301.389848 214.46998 
L 303.347887 217.05674 
L 305.305927 220.879252 
L 307.263966 225.870366 
L 309.222005 231.910985 
L 311.180045 238.836515 
L 313.138084 246.447651 
L 317.054163 262.842588 
L 320.970241 279.375108 
L 324.88632 294.69964 
L 326.844359 301.655482 
L 328.802398 308.08236 
L 330.760438 313.974169 
L 332.718477 319.343631 
L 334.676516 324.213162 
L 336.634556 328.607755 
L 338.592595 332.550937 
L 340.550634 336.064072 
L 342.508674 339.168505 
L 344.466713 341.889403 
L 346.424752 344.259817 
L 348.382792 346.323502 
L 350.340831 348.135449 
L 354.25691 351.264388 
L 360.131028 355.676619 
L 364.047106 358.915162 
L 375.795342 369.305052 
L 377.753381 370.787533 
L 379.711421 372.119909 
L 381.66946 373.287716 
L 383.627499 374.285281 
L 385.585539 375.115751 
L 387.543578 375.790561 
L 391.459657 376.752841 
L 395.375735 377.371614 
L 405.165932 378.685424 
L 411.04005 379.806081 
L 422.788286 382.337366 
L 426.704364 382.931614 
L 430.620443 383.308452 
L 434.536522 383.495371 
L 442.368679 383.565967 
L 452.158875 383.638295 
L 461.949072 383.952282 
L 473.697308 384.34899 
L 485.445544 384.469108 
L 487.403583 384.473564 
L 487.403583 384.473564 
" clip-path="url(#peb04ccc279)" style="fill: none; stroke: #e377c2; stroke-width: 1.5; stroke-linecap: round"/>
   </g>
   <g id="patch_3">
    <path d="M 72 384.48 
L 72 51.84 
" style="fill: none; stroke: #ffffff; stroke-width: 0.8; stroke-linejoin: miter; stroke-linecap: square"/>
   </g>
   <g id="patch_4">
    <path d="M 518.4 384.48 
L 518.4 51.84 
" style="fill: none; stroke: #ffffff; stroke-width: 0.8; stroke-linejoin: miter; stroke-linecap: square"/>
   </g>
   <g id="patch_5">
    <path d="M 72 384.48 
L 518.4 384.48 
" style="fill: none; stroke: #ffffff; stroke-width: 0.8; stroke-linejoin: miter; stroke-linecap: square"/>
   </g>
   <g id="patch_6">
    <path d="M 72 51.84 
L 518.4 51.84 
" style="fill: none; stroke: #ffffff; stroke-width: 0.8; stroke-linejoin: miter; stroke-linecap: square"/>
   </g>
   <g id="legend_1">
    <g id="patch_7">
     <path d="M 453.278125 159.79625 
L 511.4 159.79625 
Q 513.4 159.79625 513.4 157.79625 
L 513.4 58.84 
Q 513.4 56.84 511.4 56.84 
L 453.278125 56.84 
Q 451.278125 56.84 451.278125 58.84 
L 451.278125 157.79625 
Q 451.278125 159.79625 453.278125 159.79625 
z
" style="fill: #eaeaf2; opacity: 0.8; stroke: #cccccc; stroke-linejoin: miter"/>
    </g>
    <g id="line2d_21">
     <path d="M 455.278125 64.5275 
L 465.278125 64.5275 
L 475.278125 64.5275 
" style="fill: none; stroke: #1f77b4; stroke-width: 1.5; stroke-linecap: round"/>
    </g>
    <g id="text_16">
     <!-- Day 1 -->
     <g style="fill: #262626" transform="translate(483.278125 68.0275) scale(0.1 -0.1)">
      <use xlink:href="#ArialMT-44"/>
      <use xlink:href="#ArialMT-61" x="72.216797"/>
      <use xlink:href="#ArialMT-79" x="127.832031"/>
      <use xlink:href="#ArialMT-20" x="177.832031"/>
      <use xlink:href="#ArialMT-31" x="205.615234"/>
     </g>
    </g>
    <g id="line2d_22">
     <path d="M 455.278125 78.819687 
L 465.278125 78.819687 
L 475.278125 78.819687 
" style="fill: none; stroke: #ff7f0e; stroke-width: 1.5; stroke-linecap: round"/>
    </g>
    <g id="text_17">
     <!-- Day 2 -->
     <g style="fill: #262626" transform="translate(483.278125 82.319687) scale(0.1 -0.1)">
      <use xlink:href="#ArialMT-44"/>
      <use xlink:href="#ArialMT-61" x="72.216797"/>
      <use xlink:href="#ArialMT-79" x="127.832031"/>
      <use xlink:href="#ArialMT-20" x="177.832031"/>
      <use xlink:href="#ArialMT-32" x="205.615234"/>
     </g>
    </g>
    <g id="line2d_23">
     <path d="M 455.278125 93.111875 
L 465.278125 93.111875 
L 475.278125 93.111875 
" style="fill: none; stroke: #2ca02c; stroke-width: 1.5; stroke-linecap: round"/>
    </g>
    <g id="text_18">
     <!-- Day 3 -->
     <g style="fill: #262626" transform="translate(483.278125 96.611875) scale(0.1 -0.1)">
      <defs>
       <path id="ArialMT-33" d="M 269 1209 
L 831 1284 
Q 928 806 1161 595 
Q 1394 384 1728 384 
Q 2125 384 2398 659 
Q 2672 934 2672 1341 
Q 2672 1728 2419 1979 
Q 2166 2231 1775 2231 
Q 1616 2231 1378 2169 
L 1441 2663 
Q 1497 2656 1531 2656 
Q 1891 2656 2178 2843 
Q 2466 3031 2466 3422 
Q 2466 3731 2256 3934 
Q 2047 4138 1716 4138 
Q 1388 4138 1169 3931 
Q 950 3725 888 3313 
L 325 3413 
Q 428 3978 793 4289 
Q 1159 4600 1703 4600 
Q 2078 4600 2393 4439 
Q 2709 4278 2876 4000 
Q 3044 3722 3044 3409 
Q 3044 3113 2884 2869 
Q 2725 2625 2413 2481 
Q 2819 2388 3044 2092 
Q 3269 1797 3269 1353 
Q 3269 753 2831 336 
Q 2394 -81 1725 -81 
Q 1122 -81 723 278 
Q 325 638 269 1209 
z
" transform="scale(0.015625)"/>
      </defs>
      <use xlink:href="#ArialMT-44"/>
      <use xlink:href="#ArialMT-61" x="72.216797"/>
      <use xlink:href="#ArialMT-79" x="127.832031"/>
      <use xlink:href="#ArialMT-20" x="177.832031"/>
      <use xlink:href="#ArialMT-33" x="205.615234"/>
     </g>
    </g>
    <g id="line2d_24">
     <path d="M 455.278125 107.374375 
L 465.278125 107.374375 
L 475.278125 107.374375 
" style="fill: none; stroke: #d62728; stroke-width: 1.5; stroke-linecap: round"/>
    </g>
    <g id="text_19">
     <!-- Day 4 -->
     <g style="fill: #262626" transform="translate(483.278125 110.874375) scale(0.1 -0.1)">
      <defs>
       <path id="ArialMT-34" d="M 2069 0 
L 2069 1097 
L 81 1097 
L 81 1613 
L 2172 4581 
L 2631 4581 
L 2631 1613 
L 3250 1613 
L 3250 1097 
L 2631 1097 
L 2631 0 
L 2069 0 
z
M 2069 1613 
L 2069 3678 
L 634 1613 
L 2069 1613 
z
" transform="scale(0.015625)"/>
      </defs>
      <use xlink:href="#ArialMT-44"/>
      <use xlink:href="#ArialMT-61" x="72.216797"/>
      <use xlink:href="#ArialMT-79" x="127.832031"/>
      <use xlink:href="#ArialMT-20" x="177.832031"/>
      <use xlink:href="#ArialMT-34" x="205.615234"/>
     </g>
    </g>
    <g id="line2d_25">
     <path d="M 455.278125 121.636875 
L 465.278125 121.636875 
L 475.278125 121.636875 
" style="fill: none; stroke: #9467bd; stroke-width: 1.5; stroke-linecap: round"/>
    </g>
    <g id="text_20">
     <!-- Day 5 -->
     <g style="fill: #262626" transform="translate(483.278125 125.136875) scale(0.1 -0.1)">
      <use xlink:href="#ArialMT-44"/>
      <use xlink:href="#ArialMT-61" x="72.216797"/>
      <use xlink:href="#ArialMT-79" x="127.832031"/>
      <use xlink:href="#ArialMT-20" x="177.832031"/>
      <use xlink:href="#ArialMT-35" x="205.615234"/>
     </g>
    </g>
    <g id="line2d_26">
     <path d="M 455.278125 135.929062 
L 465.278125 135.929062 
L 475.278125 135.929062 
" style="fill: none; stroke: #8c564b; stroke-width: 1.5; stroke-linecap: round"/>
    </g>
    <g id="text_21">
     <!-- Day 6 -->
     <g style="fill: #262626" transform="translate(483.278125 139.429062) scale(0.1 -0.1)">
      <defs>
       <path id="ArialMT-36" d="M 3184 3459 
L 2625 3416 
Q 2550 3747 2413 3897 
Q 2184 4138 1850 4138 
Q 1581 4138 1378 3988 
Q 1113 3794 959 3422 
Q 806 3050 800 2363 
Q 1003 2672 1297 2822 
Q 1591 2972 1913 2972 
Q 2475 2972 2870 2558 
Q 3266 2144 3266 1488 
Q 3266 1056 3080 686 
Q 2894 316 2569 119 
Q 2244 -78 1831 -78 
Q 1128 -78 684 439 
Q 241 956 241 2144 
Q 241 3472 731 4075 
Q 1159 4600 1884 4600 
Q 2425 4600 2770 4297 
Q 3116 3994 3184 3459 
z
M 888 1484 
Q 888 1194 1011 928 
Q 1134 663 1356 523 
Q 1578 384 1822 384 
Q 2178 384 2434 671 
Q 2691 959 2691 1453 
Q 2691 1928 2437 2201 
Q 2184 2475 1800 2475 
Q 1419 2475 1153 2201 
Q 888 1928 888 1484 
z
" transform="scale(0.015625)"/>
      </defs>
      <use xlink:href="#ArialMT-44"/>
      <use xlink:href="#ArialMT-61" x="72.216797"/>
      <use xlink:href="#ArialMT-79" x="127.832031"/>
      <use xlink:href="#ArialMT-20" x="177.832031"/>
      <use xlink:href="#ArialMT-36" x="205.615234"/>
     </g>
    </g>
    <g id="line2d_27">
     <path d="M 455.278125 150.191562 
L 465.278125 150.191562 
L 475.278125 150.191562 
" style="fill: none; stroke: #e377c2; stroke-width: 1.5; stroke-linecap: round"/>
    </g>
    <g id="text_22">
     <!-- Day 7 -->
     <g style="fill: #262626" transform="translate(483.278125 153.691562) scale(0.1 -0.1)">
      <defs>
       <path id="ArialMT-37" d="M 303 3981 
L 303 4522 
L 3269 4522 
L 3269 4084 
Q 2831 3619 2401 2847 
Q 1972 2075 1738 1259 
Q 1569 684 1522 0 
L 944 0 
Q 953 541 1156 1306 
Q 1359 2072 1739 2783 
Q 2119 3494 2547 3981 
L 303 3981 
z
" transform="scale(0.015625)"/>
      </defs>
      <use xlink:href="#ArialMT-44"/>
      <use xlink:href="#ArialMT-61" x="72.216797"/>
      <use xlink:href="#ArialMT-79" x="127.832031"/>
      <use xlink:href="#ArialMT-20" x="177.832031"/>
      <use xlink:href="#ArialMT-37" x="205.615234"/>
     </g>
    </g>
   </g>
  </g>
 </g>
 <defs>
  <clipPath id="peb04ccc279">
   <rect x="72" y="51.84" width="446.4" height="332.64"/>
  </clipPath>
 </defs>
</svg>
